<svg xmlns="http://www.w3.org/2000/svg" xmlns:xlink="http://www.w3.org/1999/xlink" id="body_7" preserveAspectRatio="xMinYMin meet" viewBox="0 0 1056 816"><defs><clipPath id="1"><path id="" clip-rule="evenodd" transform="matrix(1 0 0 1 0 0)" d="M0 612L0 0L0 0L792 0L792 0L792 612L792 612L0 612z" /></clipPath><clipPath id="2"><path id="" clip-rule="evenodd" transform="matrix(1 0 0 1 0 0)" d="M49.31406 52.91431L742.6859 52.91431L742.6859 52.91431L742.6859 548.6453L742.6859 548.6453L49.31406 548.6453L49.31406 548.6453L49.31406 52.91431z" /></clipPath></defs><g transform="matrix(1.333333 0 0 1.333333 0 0)"><g clip-path="url(#1)"><g clip-path="url(#2)"><path id="101" transform="matrix(1 0 0 -1 0 612)" d="M49.85703 558.5427L742.1429 558.5427L742.1429 536.281L49.85703 536.281L49.85703 558.5427z" stroke="none" fill="#E0F7FA" fill-rule="nonzero" /><path id="102" transform="matrix(1 0 0 -1 0 612)" d="M49.85703 536.824L742.1429 536.824L742.1429 524.3357L49.85703 524.3357L49.85703 536.824z" stroke="none" fill="#FFFFFF" fill-rule="nonzero" /><path id="103" transform="matrix(1 0 0 -1 0 612)" d="M49.85703 524.8787L742.1429 524.8787L742.1429 512.3904L49.85703 512.3904L49.85703 524.8787z" stroke="none" fill="#E0F7FA" fill-rule="nonzero" /><path id="104" transform="matrix(1 0 0 -1 0 612)" d="M49.85703 512.9333L742.1429 512.9333L742.1429 500.4451L49.85703 500.4451L49.85703 512.9333z" stroke="none" fill="#FFFFFF" fill-rule="nonzero" /><path id="105" transform="matrix(1 0 0 -1 0 612)" d="M49.85703 500.988L742.1429 500.988L742.1429 488.4998L49.85703 488.4998L49.85703 500.988z" stroke="none" fill="#E0F7FA" fill-rule="nonzero" /><path id="106" transform="matrix(1 0 0 -1 0 612)" d="M49.85703 489.0427L742.1429 489.0427L742.1429 466.781L49.85703 466.781L49.85703 489.0427z" stroke="none" fill="#FFFFFF" fill-rule="nonzero" /><path id="107" transform="matrix(1 0 0 -1 0 612)" d="M49.85703 467.324L742.1429 467.324L742.1429 454.8357L49.85703 454.8357L49.85703 467.324z" stroke="none" fill="#E0F7FA" fill-rule="nonzero" /><path id="108" transform="matrix(1 0 0 -1 0 612)" d="M49.85703 455.3787L742.1429 455.3787L742.1429 442.8904L49.85703 442.8904L49.85703 455.3787z" stroke="none" fill="#FFFFFF" fill-rule="nonzero" /><path id="109" transform="matrix(1 0 0 -1 0 612)" d="M49.85703 443.4333L742.1429 443.4333L742.1429 430.9451L49.85703 430.9451L49.85703 443.4333z" stroke="none" fill="#E0F7FA" fill-rule="nonzero" /><path id="110" transform="matrix(1 0 0 -1 0 612)" d="M49.85703 431.488L742.1429 431.488L742.1429 418.9998L49.85703 418.9998L49.85703 431.488z" stroke="none" fill="#FFFFFF" fill-rule="nonzero" /><path id="111" transform="matrix(1 0 0 -1 0 612)" d="M49.85703 419.5427L742.1429 419.5427L742.1429 407.0542L49.85703 407.0542L49.85703 419.5427z" stroke="none" fill="#E0F7FA" fill-rule="nonzero" /><path id="112" transform="matrix(1 0 0 -1 0 612)" d="M49.85703 407.5972L742.1429 407.5972L742.1429 395.1089L49.85703 395.1089L49.85703 407.5972z" stroke="none" fill="#FFFFFF" fill-rule="nonzero" /><path id="113" transform="matrix(1 0 0 -1 0 612)" d="M49.85703 395.6519L742.1429 395.6519L742.1429 373.3901L49.85703 373.3901L49.85703 395.6519z" stroke="none" fill="#E0F7FA" fill-rule="nonzero" /><path id="114" transform="matrix(1 0 0 -1 0 612)" d="M49.85703 373.9331L742.1429 373.9331L742.1429 351.6714L49.85703 351.6714L49.85703 373.9331z" stroke="none" fill="#FFFFFF" fill-rule="nonzero" /><path id="115" transform="matrix(1 0 0 -1 0 612)" d="M49.85703 352.2144L742.1429 352.2144L742.1429 339.7261L49.85703 339.7261L49.85703 352.2144z" stroke="none" fill="#E0F7FA" fill-rule="nonzero" /><path id="116" transform="matrix(1 0 0 -1 0 612)" d="M49.85703 340.269L742.1429 340.269L742.1429 318.0073L49.85703 318.0073L49.85703 340.269z" stroke="none" fill="#FFFFFF" fill-rule="nonzero" /><path id="117" transform="matrix(1 0 0 -1 0 612)" d="M49.85703 318.5503L742.1429 318.5503L742.1429 296.2886L49.85703 296.2886L49.85703 318.5503z" stroke="none" fill="#E0F7FA" fill-rule="nonzero" /><path id="118" transform="matrix(1 0 0 -1 0 612)" d="M49.85703 296.8315L742.1429 296.8315L742.1429 284.3433L49.85703 284.3433L49.85703 296.8315z" stroke="none" fill="#FFFFFF" fill-rule="nonzero" /><path id="119" transform="matrix(1 0 0 -1 0 612)" d="M49.85703 284.8862L742.1429 284.8862L742.1429 272.3979L49.85703 272.3979L49.85703 284.8862z" stroke="none" fill="#E0F7FA" fill-rule="nonzero" /><path id="120" transform="matrix(1 0 0 -1 0 612)" d="M49.85703 272.9409L742.1429 272.9409L742.1429 260.4526L49.85703 260.4526L49.85703 272.9409z" stroke="none" fill="#FFFFFF" fill-rule="nonzero" /><path id="121" transform="matrix(1 0 0 -1 0 612)" d="M49.85703 260.9956L742.1429 260.9956L742.1429 248.5073L49.85703 248.5073L49.85703 260.9956z" stroke="none" fill="#E0F7FA" fill-rule="nonzero" /><path id="122" transform="matrix(1 0 0 -1 0 612)" d="M49.85703 249.0503L742.1429 249.0503L742.1429 226.7886L49.85703 226.7886L49.85703 249.0503z" stroke="none" fill="#FFFFFF" fill-rule="nonzero" /><path id="123" transform="matrix(1 0 0 -1 0 612)" d="M49.85703 227.3315L742.1429 227.3315L742.1429 214.8433L49.85703 214.8433L49.85703 227.3315z" stroke="none" fill="#E0F7FA" fill-rule="nonzero" /><path id="124" transform="matrix(1 0 0 -1 0 612)" d="M49.85703 215.3862L742.1429 215.3862L742.1429 202.8977L49.85703 202.8977L49.85703 215.3862z" stroke="none" fill="#FFFFFF" fill-rule="nonzero" /><path id="125" transform="matrix(1 0 0 -1 0 612)" d="M49.85703 203.4407L742.1429 203.4407L742.1429 190.9524L49.85703 190.9524L49.85703 203.4407z" stroke="none" fill="#E0F7FA" fill-rule="nonzero" /><path id="126" transform="matrix(1 0 0 -1 0 612)" d="M49.85703 191.4954L742.1429 191.4954L742.1429 179.0071L49.85703 179.0071L49.85703 191.4954z" stroke="none" fill="#FFFFFF" fill-rule="nonzero" /><path id="127" transform="matrix(1 0 0 -1 0 612)" d="M49.85703 179.55L742.1429 179.55L742.1429 167.0618L49.85703 167.0618L49.85703 179.55z" stroke="none" fill="#E0F7FA" fill-rule="nonzero" /><path id="128" transform="matrix(1 0 0 -1 0 612)" d="M49.85703 167.6047L742.1429 167.6047L742.1429 155.1165L49.85703 155.1165L49.85703 167.6047z" stroke="none" fill="#FFFFFF" fill-rule="nonzero" /><path id="129" transform="matrix(1 0 0 -1 0 612)" d="M49.85703 155.6594L742.1429 155.6594L742.1429 143.1711L49.85703 143.1711L49.85703 155.6594z" stroke="none" fill="#E0F7FA" fill-rule="nonzero" /><path id="130" transform="matrix(1 0 0 -1 0 612)" d="M49.85703 143.7141L742.1429 143.7141L742.1429 131.2258L49.85703 131.2258L49.85703 143.7141z" stroke="none" fill="#FFFFFF" fill-rule="nonzero" /><path id="131" transform="matrix(1 0 0 -1 0 612)" d="M49.85703 131.7688L742.1429 131.7688L742.1429 119.2805L49.85703 119.2805L49.85703 131.7688z" stroke="none" fill="#E0F7FA" fill-rule="nonzero" /><path id="132" transform="matrix(1 0 0 -1 0 612)" d="M49.85703 119.8235L742.1429 119.8235L742.1429 97.56177L49.85703 97.56177L49.85703 119.8235z" stroke="none" fill="#FFFFFF" fill-rule="nonzero" /><path id="133" transform="matrix(1 0 0 -1 0 612)" d="M49.85703 98.10474L742.1429 98.10474L742.1429 85.61646L49.85703 85.61646L49.85703 98.10474z" stroke="none" fill="#E0F7FA" fill-rule="nonzero" /><path id="134" transform="matrix(1 0 0 -1 0 612)" d="M49.85703 86.15942L742.1429 86.15942L742.1429 63.89771L49.85703 63.89771L49.85703 86.15942z" stroke="none" fill="#FFFFFF" fill-rule="nonzero" /><path id="135" transform="matrix(1 0 0 -1 0 612)" d="M49.85703 64.44067L742.1429 64.44067L742.1429 63.89771L49.85703 63.89771zM49.85703 86.15942L742.1429 86.15942L742.1429 85.61646L49.85703 85.61646zM49.85703 98.10474L742.1429 98.10474L742.1429 97.56177L49.85703 97.56177zM49.85703 119.8235L742.1429 119.8235L742.1429 119.2805L49.85703 119.2805zM49.85703 131.7688L742.1429 131.7688L742.1429 131.2258L49.85703 131.2258zM49.85703 143.7141L742.1429 143.7141L742.1429 143.1711L49.85703 143.1711zM49.85703 155.6594L742.1429 155.6594L742.1429 155.1165L49.85703 155.1165zM49.85703 167.6047L742.1429 167.6047L742.1429 167.0618L49.85703 167.0618zM49.85703 179.55L742.1429 179.55L742.1429 179.0071L49.85703 179.0071zM49.85703 191.4954L742.1429 191.4954L742.1429 190.9524L49.85703 190.9524zM49.85703 203.4407L742.1429 203.4407L742.1429 202.8977L49.85703 202.8977zM49.85703 215.3862L742.1429 215.3862L742.1429 214.8433L49.85703 214.8433zM49.85703 227.3315L742.1429 227.3315L742.1429 226.7886L49.85703 226.7886zM49.85703 249.0503L742.1429 249.0503L742.1429 248.5073L49.85703 248.5073zM49.85703 260.9956L742.1429 260.9956L742.1429 260.4526L49.85703 260.4526zM49.85703 272.9409L742.1429 272.9409L742.1429 272.3979L49.85703 272.3979zM49.85703 284.8862L742.1429 284.8862L742.1429 284.3433L49.85703 284.3433zM49.85703 296.8315L742.1429 296.8315L742.1429 296.2886L49.85703 296.2886zM49.85703 318.5503L742.1429 318.5503L742.1429 318.0073L49.85703 318.0073zM49.85703 340.269L742.1429 340.269L742.1429 339.7261L49.85703 339.7261zM49.85703 352.2144L742.1429 352.2144L742.1429 351.6714L49.85703 351.6714zM49.85703 373.9331L742.1429 373.9331L742.1429 373.3901L49.85703 373.3901zM49.85703 395.6519L742.1429 395.6519L742.1429 395.1089L49.85703 395.1089zM49.85703 407.5972L742.1429 407.5972L742.1429 407.0542L49.85703 407.0542zM49.85703 419.5427L742.1429 419.5427L742.1429 418.9998L49.85703 418.9998zM49.85703 431.488L742.1429 431.488L742.1429 430.9451L49.85703 430.9451zM49.85703 443.4333L742.1429 443.4333L742.1429 442.8904L49.85703 442.8904zM49.85703 455.3787L742.1429 455.3787L742.1429 454.8357L49.85703 454.8357zM49.85703 467.324L742.1429 467.324L742.1429 466.781L49.85703 466.781zM49.85703 489.0427L742.1429 489.0427L742.1429 488.4998L49.85703 488.4998zM49.85703 500.988L742.1429 500.988L742.1429 500.4451L49.85703 500.4451zM49.85703 512.9333L742.1429 512.9333L742.1429 512.3904L49.85703 512.3904zM49.85703 524.8787L742.1429 524.8787L742.1429 524.3357L49.85703 524.3357zM49.85703 536.824L742.1429 536.824L742.1429 536.281L49.85703 536.281zM49.85703 558.5427L742.1429 558.5427L742.1429 557.9998L49.85703 557.9998zM742.1429 85.61646L742.1429 64.44067L741.6 64.44067L741.6 85.61646zM742.1429 97.56177L742.1429 86.15942L741.6 86.15942L741.6 97.56177zM742.1429 119.2805L742.1429 98.10474L741.6 98.10474L741.6 119.2805zM742.1429 131.2258L742.1429 119.8235L741.6 119.8235L741.6 131.2258zM742.1429 143.1711L742.1429 131.7688L741.6 131.7688L741.6 143.1711zM742.1429 155.1165L742.1429 143.7141L741.6 143.7141L741.6 155.1165zM742.1429 167.0618L742.1429 155.6594L741.6 155.6594L741.6 167.0618zM742.1429 179.0071L742.1429 167.6047L741.6 167.6047L741.6 179.0071zM742.1429 190.9524L742.1429 179.55L741.6 179.55L741.6 190.9524zM742.1429 202.8977L742.1429 191.4954L741.6 191.4954L741.6 202.8977zM742.1429 214.8433L742.1429 203.4407L741.6 203.4407L741.6 214.8433zM742.1429 226.7886L742.1429 215.3862L741.6 215.3862L741.6 226.7886zM742.1429 248.5073L742.1429 227.3315L741.6 227.3315L741.6 248.5073zM742.1429 260.4526L742.1429 249.0503L741.6 249.0503L741.6 260.4526zM742.1429 272.3979L742.1429 260.9956L741.6 260.9956L741.6 272.3979zM742.1429 284.3433L742.1429 272.9409L741.6 272.9409L741.6 284.3433zM742.1429 296.2886L742.1429 284.8862L741.6 284.8862L741.6 296.2886zM742.1429 318.0073L742.1429 296.8315L741.6 296.8315L741.6 318.0073zM742.1429 339.7261L742.1429 318.5503L741.6 318.5503L741.6 339.7261zM742.1429 351.6714L742.1429 340.269L741.6 340.269L741.6 351.6714zM742.1429 373.3901L742.1429 352.2144L741.6 352.2144L741.6 373.3901zM742.1429 395.1089L742.1429 373.9331L741.6 373.9331L741.6 395.1089zM742.1429 407.0542L742.1429 395.6519L741.6 395.6519L741.6 407.0542zM742.1429 418.9998L742.1429 407.5972L741.6 407.5972L741.6 418.9998zM742.1429 430.9451L742.1429 419.5427L741.6 419.5427L741.6 430.9451zM742.1429 442.8904L742.1429 431.488L741.6 431.488L741.6 442.8904zM742.1429 454.8357L742.1429 443.4333L741.6 443.4333L741.6 454.8357zM742.1429 466.781L742.1429 455.3787L741.6 455.3787L741.6 466.781zM742.1429 488.4998L742.1429 467.324L741.6 467.324L741.6 488.4998zM742.1429 500.4451L742.1429 489.0427L741.6 489.0427L741.6 500.4451zM742.1429 512.3904L742.1429 500.988L741.6 500.988L741.6 512.3904zM742.1429 524.3357L742.1429 512.9333L741.6 512.9333L741.6 524.3357zM742.1429 536.281L742.1429 524.8787L741.6 524.8787L741.6 536.281zM742.1429 557.9998L742.1429 536.824L741.6 536.824L741.6 557.9998zM691.1039 85.61646L691.1039 64.44067L690.5609 64.44067L690.5609 85.61646zM691.1039 97.56177L691.1039 86.15942L690.5609 86.15942L690.5609 97.56177zM691.1039 119.2805L691.1039 98.10474L690.5609 98.10474L690.5609 119.2805zM691.1039 131.2258L691.1039 119.8235L690.5609 119.8235L690.5609 131.2258zM691.1039 143.1711L691.1039 131.7688L690.5609 131.7688L690.5609 143.1711zM691.1039 155.1165L691.1039 143.7141L690.5609 143.7141L690.5609 155.1165zM691.1039 167.0618L691.1039 155.6594L690.5609 155.6594L690.5609 167.0618zM691.1039 179.0071L691.1039 167.6047L690.5609 167.6047L690.5609 179.0071zM691.1039 190.9524L691.1039 179.55L690.5609 179.55L690.5609 190.9524zM691.1039 202.8977L691.1039 191.4954L690.5609 191.4954L690.5609 202.8977zM691.1039 214.8433L691.1039 203.4407L690.5609 203.4407L690.5609 214.8433zM691.1039 226.7886L691.1039 215.3862L690.5609 215.3862L690.5609 226.7886zM691.1039 248.5073L691.1039 227.3315L690.5609 227.3315L690.5609 248.5073zM691.1039 260.4526L691.1039 249.0503L690.5609 249.0503L690.5609 260.4526zM691.1039 272.3979L691.1039 260.9956L690.5609 260.9956L690.5609 272.3979zM691.1039 284.3433L691.1039 272.9409L690.5609 272.9409L690.5609 284.3433zM691.1039 296.2886L691.1039 284.8862L690.5609 284.8862L690.5609 296.2886zM691.1039 318.0073L691.1039 296.8315L690.5609 296.8315L690.5609 318.0073zM691.1039 339.7261L691.1039 318.5503L690.5609 318.5503L690.5609 339.7261zM691.1039 351.6714L691.1039 340.269L690.5609 340.269L690.5609 351.6714zM691.1039 373.3901L691.1039 352.2144L690.5609 352.2144L690.5609 373.3901zM691.1039 395.1089L691.1039 373.9331L690.5609 373.9331L690.5609 395.1089zM691.1039 407.0542L691.1039 395.6519L690.5609 395.6519L690.5609 407.0542zM691.1039 418.9998L691.1039 407.5972L690.5609 407.5972L690.5609 418.9998zM691.1039 430.9451L691.1039 419.5427L690.5609 419.5427L690.5609 430.9451zM691.1039 442.8904L691.1039 431.488L690.5609 431.488L690.5609 442.8904zM691.1039 454.8357L691.1039 443.4333L690.5609 443.4333L690.5609 454.8357zM691.1039 466.781L691.1039 455.3787L690.5609 455.3787L690.5609 466.781zM691.1039 488.4998L691.1039 467.324L690.5609 467.324L690.5609 488.4998zM691.1039 500.4451L691.1039 489.0427L690.5609 489.0427L690.5609 500.4451zM691.1039 512.3904L691.1039 500.988L690.5609 500.988L690.5609 512.3904zM691.1039 524.3357L691.1039 512.9333L690.5609 512.9333L690.5609 524.3357zM691.1039 536.281L691.1039 524.8787L690.5609 524.8787L690.5609 536.281zM691.1039 557.9998L691.1039 536.824L690.5609 536.824L690.5609 557.9998zM417.9902 85.61646L417.9902 64.44067L417.4473 64.44067L417.4473 85.61646zM417.9902 97.56177L417.9902 86.15942L417.4473 86.15942L417.4473 97.56177zM417.9902 119.2805L417.9902 98.10474L417.4473 98.10474L417.4473 119.2805zM417.9902 131.2258L417.9902 119.8235L417.4473 119.8235L417.4473 131.2258zM417.9902 143.1711L417.9902 131.7688L417.4473 131.7688L417.4473 143.1711zM417.9902 155.1165L417.9902 143.7141L417.4473 143.7141L417.4473 155.1165zM417.9902 167.0618L417.9902 155.6594L417.4473 155.6594L417.4473 167.0618zM417.9902 179.0071L417.9902 167.6047L417.4473 167.6047L417.4473 179.0071zM417.9902 190.9524L417.9902 179.55L417.4473 179.55L417.4473 190.9524zM417.9902 202.8977L417.9902 191.4954L417.4473 191.4954L417.4473 202.8977zM417.9902 214.8433L417.9902 203.4407L417.4473 203.4407L417.4473 214.8433zM417.9902 226.7886L417.9902 215.3862L417.4473 215.3862L417.4473 226.7886zM417.9902 248.5073L417.9902 227.3315L417.4473 227.3315L417.4473 248.5073zM417.9902 260.4526L417.9902 249.0503L417.4473 249.0503L417.4473 260.4526zM417.9902 272.3979L417.9902 260.9956L417.4473 260.9956L417.4473 272.3979zM417.9902 284.3433L417.9902 272.9409L417.4473 272.9409L417.4473 284.3433zM417.9902 296.2886L417.9902 284.8862L417.4473 284.8862L417.4473 296.2886zM417.9902 318.0073L417.9902 296.8315L417.4473 296.8315L417.4473 318.0073zM417.9902 339.7261L417.9902 318.5503L417.4473 318.5503L417.4473 339.7261zM417.9902 351.6714L417.9902 340.269L417.4473 340.269L417.4473 351.6714zM417.9902 373.3901L417.9902 352.2144L417.4473 352.2144L417.4473 373.3901zM417.9902 395.1089L417.9902 373.9331L417.4473 373.9331L417.4473 395.1089zM417.9902 407.0542L417.9902 395.6519L417.4473 395.6519L417.4473 407.0542zM417.9902 418.9998L417.9902 407.5972L417.4473 407.5972L417.4473 418.9998zM417.9902 430.9451L417.9902 419.5427L417.4473 419.5427L417.4473 430.9451zM417.9902 442.8904L417.9902 431.488L417.4473 431.488L417.4473 442.8904zM417.9902 454.8357L417.9902 443.4333L417.4473 443.4333L417.4473 454.8357zM417.9902 466.781L417.9902 455.3787L417.4473 455.3787L417.4473 466.781zM417.9902 488.4998L417.9902 467.324L417.4473 467.324L417.4473 488.4998zM417.9902 500.4451L417.9902 489.0427L417.4473 489.0427L417.4473 500.4451zM417.9902 512.3904L417.9902 500.988L417.4473 500.988L417.4473 512.3904zM417.9902 524.3357L417.9902 512.9333L417.4473 512.9333L417.4473 524.3357zM417.9902 536.281L417.9902 524.8787L417.4473 524.8787L417.4473 536.281zM417.9902 557.9998L417.9902 536.824L417.4473 536.824L417.4473 557.9998zM144.8767 85.61646L144.8767 64.44067L144.3337 64.44067L144.3337 85.61646zM144.8767 97.56177L144.8767 86.15942L144.3337 86.15942L144.3337 97.56177zM144.8767 119.2805L144.8767 98.10474L144.3337 98.10474L144.3337 119.2805zM144.8767 131.2258L144.8767 119.8235L144.3337 119.8235L144.3337 131.2258zM144.8767 143.1711L144.8767 131.7688L144.3337 131.7688L144.3337 143.1711zM144.8767 155.1165L144.8767 143.7141L144.3337 143.7141L144.3337 155.1165zM144.8767 167.0618L144.8767 155.6594L144.3337 155.6594L144.3337 167.0618zM144.8767 179.0071L144.8767 167.6047L144.3337 167.6047L144.3337 179.0071zM144.8767 190.9524L144.8767 179.55L144.3337 179.55L144.3337 190.9524zM144.8767 202.8977L144.8767 191.4954L144.3337 191.4954L144.3337 202.8977zM144.8767 214.8433L144.8767 203.4407L144.3337 203.4407L144.3337 214.8433zM144.8767 226.7886L144.8767 215.3862L144.3337 215.3862L144.3337 226.7886zM144.8767 248.5073L144.8767 227.3315L144.3337 227.3315L144.3337 248.5073zM144.8767 260.4526L144.8767 249.0503L144.3337 249.0503L144.3337 260.4526zM144.8767 272.3979L144.8767 260.9956L144.3337 260.9956L144.3337 272.3979zM144.8767 284.3433L144.8767 272.9409L144.3337 272.9409L144.3337 284.3433zM144.8767 296.2886L144.8767 284.8862L144.3337 284.8862L144.3337 296.2886zM144.8767 318.0073L144.8767 296.8315L144.3337 296.8315L144.3337 318.0073zM144.8767 339.7261L144.8767 318.5503L144.3337 318.5503L144.3337 339.7261zM144.8767 351.6714L144.8767 340.269L144.3337 340.269L144.3337 351.6714zM144.8767 373.3901L144.8767 352.2144L144.3337 352.2144L144.3337 373.3901zM144.8767 395.1089L144.8767 373.9331L144.3337 373.9331L144.3337 395.1089zM144.8767 407.0542L144.8767 395.6519L144.3337 395.6519L144.3337 407.0542zM144.8767 418.9998L144.8767 407.5972L144.3337 407.5972L144.3337 418.9998zM144.8767 430.9451L144.8767 419.5427L144.3337 419.5427L144.3337 430.9451zM144.8767 442.8904L144.8767 431.488L144.3337 431.488L144.3337 442.8904zM144.8767 454.8357L144.8767 443.4333L144.3337 443.4333L144.3337 454.8357zM144.8767 466.781L144.8767 455.3787L144.3337 455.3787L144.3337 466.781zM144.8767 488.4998L144.8767 467.324L144.3337 467.324L144.3337 488.4998zM144.8767 500.4451L144.8767 489.0427L144.3337 489.0427L144.3337 500.4451zM144.8767 512.3904L144.8767 500.988L144.3337 500.988L144.3337 512.3904zM144.8767 524.3357L144.8767 512.9333L144.3337 512.9333L144.3337 524.3357zM144.8767 536.281L144.8767 524.8787L144.3337 524.8787L144.3337 536.281zM144.8767 557.9998L144.8767 536.824L144.3337 536.824L144.3337 557.9998zM74.83362 85.61646L74.83362 64.44067L74.29065 64.44067L74.29065 85.61646zM74.83362 97.56177L74.83362 86.15942L74.29065 86.15942L74.29065 97.56177zM74.83362 119.2805L74.83362 98.10474L74.29065 98.10474L74.29065 119.2805zM74.83362 131.2258L74.83362 119.8235L74.29065 119.8235L74.29065 131.2258zM74.83362 143.1711L74.83362 131.7688L74.29065 131.7688L74.29065 143.1711zM74.83362 155.1165L74.83362 143.7141L74.29065 143.7141L74.29065 155.1165zM74.83362 167.0618L74.83362 155.6594L74.29065 155.6594L74.29065 167.0618zM74.83362 179.0071L74.83362 167.6047L74.29065 167.6047L74.29065 179.0071zM74.83362 190.9524L74.83362 179.55L74.29065 179.55L74.29065 190.9524zM74.83362 202.8977L74.83362 191.4954L74.29065 191.4954L74.29065 202.8977zM74.83362 214.8433L74.83362 203.4407L74.29065 203.4407L74.29065 214.8433zM74.83362 226.7886L74.83362 215.3862L74.29065 215.3862L74.29065 226.7886zM74.83362 248.5073L74.83362 227.3315L74.29065 227.3315L74.29065 248.5073zM74.83362 260.4526L74.83362 249.0503L74.29065 249.0503L74.29065 260.4526zM74.83362 272.3979L74.83362 260.9956L74.29065 260.9956L74.29065 272.3979zM74.83362 284.3433L74.83362 272.9409L74.29065 272.9409L74.29065 284.3433zM74.83362 296.2886L74.83362 284.8862L74.29065 284.8862L74.29065 296.2886zM74.83362 318.0073L74.83362 296.8315L74.29065 296.8315L74.29065 318.0073zM74.83362 339.7261L74.83362 318.5503L74.29065 318.5503L74.29065 339.7261zM74.83362 351.6714L74.83362 340.269L74.29065 340.269L74.29065 351.6714zM74.83362 373.3901L74.83362 352.2144L74.29065 352.2144L74.29065 373.3901zM74.83362 395.1089L74.83362 373.9331L74.29065 373.9331L74.29065 395.1089zM74.83362 407.0542L74.83362 395.6519L74.29065 395.6519L74.29065 407.0542zM74.83362 418.9998L74.83362 407.5972L74.29065 407.5972L74.29065 418.9998zM74.83362 430.9451L74.83362 419.5427L74.29065 419.5427L74.29065 430.9451zM74.83362 442.8904L74.83362 431.488L74.29065 431.488L74.29065 442.8904zM74.83362 454.8357L74.83362 443.4333L74.29065 443.4333L74.29065 454.8357zM74.83362 466.781L74.83362 455.3787L74.29065 455.3787L74.29065 466.781zM74.83362 488.4998L74.83362 467.324L74.29065 467.324L74.29065 488.4998zM74.83362 500.4451L74.83362 489.0427L74.29065 489.0427L74.29065 500.4451zM74.83362 512.3904L74.83362 500.988L74.29065 500.988L74.29065 512.3904zM74.83362 524.3357L74.83362 512.9333L74.29065 512.9333L74.29065 524.3357zM74.83362 536.281L74.83362 524.8787L74.29065 524.8787L74.29065 536.281zM74.83362 557.9998L74.83362 536.824L74.29065 536.824L74.29065 557.9998zM50.39999 85.61646L50.39999 64.44067L49.85703 64.44067L49.85703 85.61646zM50.39999 97.56177L50.39999 86.15942L49.85703 86.15942L49.85703 97.56177zM50.39999 119.2805L50.39999 98.10474L49.85703 98.10474L49.85703 119.2805zM50.39999 131.2258L50.39999 119.8235L49.85703 119.8235L49.85703 131.2258zM50.39999 143.1711L50.39999 131.7688L49.85703 131.7688L49.85703 143.1711zM50.39999 155.1165L50.39999 143.7141L49.85703 143.7141L49.85703 155.1165zM50.39999 167.0618L50.39999 155.6594L49.85703 155.6594L49.85703 167.0618zM50.39999 179.0071L50.39999 167.6047L49.85703 167.6047L49.85703 179.0071zM50.39999 190.9524L50.39999 179.55L49.85703 179.55L49.85703 190.9524zM50.39999 202.8977L50.39999 191.4954L49.85703 191.4954L49.85703 202.8977zM50.39999 214.8433L50.39999 203.4407L49.85703 203.4407L49.85703 214.8433zM50.39999 226.7886L50.39999 215.3862L49.85703 215.3862L49.85703 226.7886zM50.39999 248.5073L50.39999 227.3315L49.85703 227.3315L49.85703 248.5073zM50.39999 260.4526L50.39999 249.0503L49.85703 249.0503L49.85703 260.4526zM50.39999 272.3979L50.39999 260.9956L49.85703 260.9956L49.85703 272.3979zM50.39999 284.3433L50.39999 272.9409L49.85703 272.9409L49.85703 284.3433zM50.39999 296.2886L50.39999 284.8862L49.85703 284.8862L49.85703 296.2886zM50.39999 318.0073L50.39999 296.8315L49.85703 296.8315L49.85703 318.0073zM50.39999 339.7261L50.39999 318.5503L49.85703 318.5503L49.85703 339.7261zM50.39999 351.6714L50.39999 340.269L49.85703 340.269L49.85703 351.6714zM50.39999 373.3901L50.39999 352.2144L49.85703 352.2144L49.85703 373.3901zM50.39999 395.1089L50.39999 373.9331L49.85703 373.9331L49.85703 395.1089zM50.39999 407.0542L50.39999 395.6519L49.85703 395.6519L49.85703 407.0542zM50.39999 418.9998L50.39999 407.5972L49.85703 407.5972L49.85703 418.9998zM50.39999 430.9451L50.39999 419.5427L49.85703 419.5427L49.85703 430.9451zM50.39999 442.8904L50.39999 431.488L49.85703 431.488L49.85703 442.8904zM50.39999 454.8357L50.39999 443.4333L49.85703 443.4333L49.85703 454.8357zM50.39999 466.781L50.39999 455.3787L49.85703 455.3787L49.85703 466.781zM50.39999 488.4998L50.39999 467.324L49.85703 467.324L49.85703 488.4998zM50.39999 500.4451L50.39999 489.0427L49.85703 489.0427L49.85703 500.4451zM50.39999 512.3904L50.39999 500.988L49.85703 500.988L49.85703 512.3904zM50.39999 524.3357L50.39999 512.9333L49.85703 512.9333L49.85703 524.3357zM50.39999 536.281L50.39999 524.8787L49.85703 524.8787L49.85703 536.281zM50.39999 557.9998L50.39999 536.824L49.85703 536.824L49.85703 557.9998z" stroke="none" fill="#000000" fill-rule="nonzero" fill-opacity="0.1490196" /><path id="327" transform="matrix(1 0 0 -1 0 612)" d="M419.6191 548.447L665.4006 548.447" stroke="#000000" stroke-width="0.5080263" fill="none" /><path id="347" transform="matrix(1 0 0 -1 0 612)" d="M419.6191 538.9709L480.3492 538.9709" stroke="#000000" stroke-width="0.5080263" fill="none" /><path id="422" transform="matrix(1 0 0 -1 0 612)" d="M419.6191 527.0256L524.2306 527.0256" stroke="#000000" stroke-width="0.5080263" fill="none" /><path id="550" transform="matrix(1 0 0 -1 0 612)" d="M419.6191 515.0803L588.785 515.0803" stroke="#000000" stroke-width="0.5080263" fill="none" /><path id="667" transform="matrix(1 0 0 -1 0 612)" d="M419.6191 503.135L572.7479 503.135" stroke="#000000" stroke-width="0.5080263" fill="none" /><path id="761" transform="matrix(1 0 0 -1 0 612)" d="M419.6191 491.1897L531.7926 491.1897" stroke="#000000" stroke-width="0.5080263" fill="none" /><path id="946" transform="matrix(1 0 0 -1 0 612)" d="M419.6191 478.9468L677.1284 478.9468" stroke="#000000" stroke-width="0.5080263" fill="none" /><path id="951" transform="matrix(1 0 0 -1 0 612)" d="M419.6191 469.4709L435.3569 469.4709" stroke="#000000" stroke-width="0.5080263" fill="none" /><path id="1110" transform="matrix(1 0 0 -1 0 612)" d="M419.6191 457.5256L640.0619 457.5256" stroke="#000000" stroke-width="0.5080263" fill="none" /><path id="1155" transform="matrix(1 0 0 -1 0 612)" d="M419.6191 445.5803L462.6213 445.5803" stroke="#000000" stroke-width="0.5080263" fill="none" /><path id="1302" transform="matrix(1 0 0 -1 0 612)" d="M419.6191 433.635L619.5823 433.635" stroke="#000000" stroke-width="0.5080263" fill="none" /><path id="1433" transform="matrix(1 0 0 -1 0 612)" d="M419.6191 421.6895L594.2054 421.6895" stroke="#000000" stroke-width="0.5080263" fill="none" /><path id="1557" transform="matrix(1 0 0 -1 0 612)" d="M419.6191 409.7441L582.8607 409.7441" stroke="#000000" stroke-width="0.5080263" fill="none" /><path id="1632" transform="matrix(1 0 0 -1 0 612)" d="M419.6191 397.7988L512.8443 397.7988" stroke="#000000" stroke-width="0.5080263" fill="none" /><path id="1852" transform="matrix(1 0 0 -1 0 612)" d="M419.6191 385.5562L677.6057 385.5562" stroke="#000000" stroke-width="0.5080263" fill="none" /><path id="1895" transform="matrix(1 0 0 -1 0 612)" d="M419.6191 376.0801L557.2603 376.0801" stroke="#000000" stroke-width="0.5080263" fill="none" /><path id="2088" transform="matrix(1 0 0 -1 0 612)" d="M419.6191 363.8374L672.3259 363.8374" stroke="#000000" stroke-width="0.5080263" fill="none" /><path id="2103" transform="matrix(1 0 0 -1 0 612)" d="M419.6191 354.3613L463.8419 354.3613" stroke="#000000" stroke-width="0.5080263" fill="none" /><path id="2200" transform="matrix(1 0 0 -1 0 612)" d="M419.6191 342.416L536.4358 342.416" stroke="#000000" stroke-width="0.5080263" fill="none" /><path id="2391" transform="matrix(1 0 0 -1 0 612)" d="M419.6191 330.1733L680.119 330.1733" stroke="#000000" stroke-width="0.5080263" fill="none" /><path id="2405" transform="matrix(1 0 0 -1 0 612)" d="M419.6191 320.6973L459.6459 320.6973" stroke="#000000" stroke-width="0.5080263" fill="none" /><path id="2667" transform="matrix(1 0 0 -1 0 612)" d="M419.6191 308.4543L688.2303 308.4543" stroke="#000000" stroke-width="0.5080263" fill="none" /><path id="2729" transform="matrix(1 0 0 -1 0 612)" d="M419.6191 298.9785L620.3214 298.9785" stroke="#000000" stroke-width="0.5080263" fill="none" /><path id="2880" transform="matrix(1 0 0 -1 0 612)" d="M419.6191 287.0332L619.3889 287.0332" stroke="#000000" stroke-width="0.5080263" fill="none" /><path id="3026" transform="matrix(1 0 0 -1 0 612)" d="M419.6191 275.0879L618.3844 275.0879" stroke="#000000" stroke-width="0.5080263" fill="none" /><path id="3184" transform="matrix(1 0 0 -1 0 612)" d="M419.6191 263.1426L644.6027 263.1426" stroke="#000000" stroke-width="0.5080263" fill="none" /><path id="3287" transform="matrix(1 0 0 -1 0 612)" d="M419.6191 251.1973L546.0975 251.1973" stroke="#000000" stroke-width="0.5080263" fill="none" /><path id="3397" transform="matrix(1 0 0 -1 0 612)" d="M419.6191 229.4785L536.8073 229.4785" stroke="#000000" stroke-width="0.5080263" fill="none" /><path id="3521" transform="matrix(1 0 0 -1 0 612)" d="M419.6191 217.533L578.6497 217.533" stroke="#000000" stroke-width="0.5080263" fill="none" /><path id="3681" transform="matrix(1 0 0 -1 0 612)" d="M419.6191 205.5876L645.6527 205.5876" stroke="#000000" stroke-width="0.5080263" fill="none" /><path id="3754" transform="matrix(1 0 0 -1 0 612)" d="M419.6191 193.6423L501.4352 193.6423" stroke="#000000" stroke-width="0.5080263" fill="none" /><path id="3922" transform="matrix(1 0 0 -1 0 612)" d="M419.6191 181.697L680.3577 181.697" stroke="#000000" stroke-width="0.5080263" fill="none" /><path id="4048" transform="matrix(1 0 0 -1 0 612)" d="M419.6191 169.7517L593.0267 169.7517" stroke="#000000" stroke-width="0.5080263" fill="none" /><path id="4160" transform="matrix(1 0 0 -1 0 612)" d="M419.6191 157.8064L565.2618 157.8064" stroke="#000000" stroke-width="0.5080263" fill="none" /><path id="4348" transform="matrix(1 0 0 -1 0 612)" d="M419.6191 145.8611L674.1377 145.8611" stroke="#000000" stroke-width="0.5080263" fill="none" /><path id="4522" transform="matrix(1 0 0 -1 0 612)" d="M419.6191 133.9158L651.1829 133.9158" stroke="#000000" stroke-width="0.5080263" fill="none" /><path id="4645" transform="matrix(1 0 0 -1 0 612)" d="M419.6191 121.9705L604.1287 121.9705" stroke="#000000" stroke-width="0.5080263" fill="none" /><path id="4813" transform="matrix(1 0 0 -1 0 612)" d="M419.6191 100.2517L635.2101 100.2517" stroke="#000000" stroke-width="0.5080263" fill="none" /><path id="4956" transform="matrix(1 0 0 -1 0 612)" d="M419.6191 88.3064L614.9163 88.3064" stroke="#000000" stroke-width="0.5080263" fill="none" /><path id="5150" transform="matrix(1 0 0 -1 0 612)" d="M419.6191 76.06348L672.3108 76.06348" stroke="#000000" stroke-width="0.5080263" fill="none" /><path id="5168" transform="matrix(1 0 0 -1 0 612)" d="M419.6191 66.58765L472.5182 66.58765" stroke="#000000" stroke-width="0.5080263" fill="none" /></g></g></g></svg>