<svg xmlns="http://www.w3.org/2000/svg" xmlns:xlink="http://www.w3.org/1999/xlink" id="body_14" preserveAspectRatio="xMinYMin meet" viewBox="0 0 1056 816"><defs><clipPath id="1"><path id="" clip-rule="evenodd" transform="matrix(1 0 0 1 0 0)" d="M0 612L0 0L0 0L792 0L792 0L792 612L792 612L0 612z" /></clipPath><clipPath id="2"><path id="" clip-rule="evenodd" transform="matrix(1 0 0 1 0 0)" d="M49.31406 52.91455L742.6859 52.91455L742.6859 52.91455L742.6859 516.0674L742.6859 516.0674L49.31406 516.0674L49.31406 516.0674L49.31406 52.91455z" /></clipPath></defs><g transform="matrix(1.333333 0 0 1.333333 0 0)"><g clip-path="url(#1)"><g clip-path="url(#2)"><path id="102" transform="matrix(1 0 0 -1 0 612)" d="M49.85703 558.5425L742.1429 558.5425L742.1429 546.0542L49.85703 546.0542L49.85703 558.5425z" stroke="none" fill="#FFFFFF" fill-rule="nonzero" /><path id="103" transform="matrix(1 0 0 -1 0 612)" d="M49.85703 546.5972L742.1429 546.5972L742.1429 534.1089L49.85703 534.1089L49.85703 546.5972z" stroke="none" fill="#E0F7FA" fill-rule="nonzero" /><path id="104" transform="matrix(1 0 0 -1 0 612)" d="M49.85703 534.6519L742.1429 534.6519L742.1429 522.1636L49.85703 522.1636L49.85703 534.6519z" stroke="none" fill="#FFFFFF" fill-rule="nonzero" /><path id="105" transform="matrix(1 0 0 -1 0 612)" d="M49.85703 522.7065L742.1429 522.7065L742.1429 510.2183L49.85703 510.2183L49.85703 522.7065z" stroke="none" fill="#E0F7FA" fill-rule="nonzero" /><path id="106" transform="matrix(1 0 0 -1 0 612)" d="M49.85703 510.7612L742.1429 510.7612L742.1429 498.2729L49.85703 498.2729L49.85703 510.7612z" stroke="none" fill="#FFFFFF" fill-rule="nonzero" /><path id="107" transform="matrix(1 0 0 -1 0 612)" d="M49.85703 498.8159L742.1429 498.8159L742.1429 486.3276L49.85703 486.3276L49.85703 498.8159z" stroke="none" fill="#E0F7FA" fill-rule="nonzero" /><path id="108" transform="matrix(1 0 0 -1 0 612)" d="M49.85703 486.8706L742.1429 486.8706L742.1429 474.3823L49.85703 474.3823L49.85703 486.8706z" stroke="none" fill="#FFFFFF" fill-rule="nonzero" /><path id="109" transform="matrix(1 0 0 -1 0 612)" d="M49.85703 474.9253L742.1429 474.9253L742.1429 452.6636L49.85703 452.6636L49.85703 474.9253z" stroke="none" fill="#E0F7FA" fill-rule="nonzero" /><path id="110" transform="matrix(1 0 0 -1 0 612)" d="M49.85703 453.2065L742.1429 453.2065L742.1429 440.7183L49.85703 440.7183L49.85703 453.2065z" stroke="none" fill="#FFFFFF" fill-rule="nonzero" /><path id="111" transform="matrix(1 0 0 -1 0 612)" d="M49.85703 441.2612L742.1429 441.2612L742.1429 428.7729L49.85703 428.7729L49.85703 441.2612z" stroke="none" fill="#E0F7FA" fill-rule="nonzero" /><path id="112" transform="matrix(1 0 0 -1 0 612)" d="M49.85703 429.3159L742.1429 429.3159L742.1429 416.8276L49.85703 416.8276L49.85703 429.3159z" stroke="none" fill="#FFFFFF" fill-rule="nonzero" /><path id="113" transform="matrix(1 0 0 -1 0 612)" d="M49.85703 417.3706L742.1429 417.3706L742.1429 404.8823L49.85703 404.8823L49.85703 417.3706z" stroke="none" fill="#E0F7FA" fill-rule="nonzero" /><path id="114" transform="matrix(1 0 0 -1 0 612)" d="M49.85703 405.4253L742.1429 405.4253L742.1429 392.937L49.85703 392.937L49.85703 405.4253z" stroke="none" fill="#FFFFFF" fill-rule="nonzero" /><path id="115" transform="matrix(1 0 0 -1 0 612)" d="M49.85703 393.48L742.1429 393.48L742.1429 380.9917L49.85703 380.9917L49.85703 393.48z" stroke="none" fill="#E0F7FA" fill-rule="nonzero" /><path id="116" transform="matrix(1 0 0 -1 0 612)" d="M49.85703 381.5347L742.1429 381.5347L742.1429 369.0464L49.85703 369.0464L49.85703 381.5347z" stroke="none" fill="#FFFFFF" fill-rule="nonzero" /><path id="117" transform="matrix(1 0 0 -1 0 612)" d="M49.85703 369.5894L742.1429 369.5894L742.1429 347.3271L49.85703 347.3271L49.85703 369.5894z" stroke="none" fill="#E0F7FA" fill-rule="nonzero" /><path id="118" transform="matrix(1 0 0 -1 0 612)" d="M49.85703 347.8701L742.1429 347.8701L742.1429 335.3818L49.85703 335.3818L49.85703 347.8701z" stroke="none" fill="#FFFFFF" fill-rule="nonzero" /><path id="119" transform="matrix(1 0 0 -1 0 612)" d="M49.85703 335.9248L742.1429 335.9248L742.1429 323.4365L49.85703 323.4365L49.85703 335.9248z" stroke="none" fill="#E0F7FA" fill-rule="nonzero" /><path id="120" transform="matrix(1 0 0 -1 0 612)" d="M49.85703 323.9795L742.1429 323.9795L742.1429 301.7178L49.85703 301.7178L49.85703 323.9795z" stroke="none" fill="#FFFFFF" fill-rule="nonzero" /><path id="121" transform="matrix(1 0 0 -1 0 612)" d="M49.85703 302.2607L742.1429 302.2607L742.1429 289.7725L49.85703 289.7725L49.85703 302.2607z" stroke="none" fill="#E0F7FA" fill-rule="nonzero" /><path id="122" transform="matrix(1 0 0 -1 0 612)" d="M49.85703 290.3154L742.1429 290.3154L742.1429 277.8271L49.85703 277.8271L49.85703 290.3154z" stroke="none" fill="#FFFFFF" fill-rule="nonzero" /><path id="123" transform="matrix(1 0 0 -1 0 612)" d="M49.85703 278.3701L742.1429 278.3701L742.1429 256.1084L49.85703 256.1084L49.85703 278.3701z" stroke="none" fill="#E0F7FA" fill-rule="nonzero" /><path id="124" transform="matrix(1 0 0 -1 0 612)" d="M49.85703 256.6514L742.1429 256.6514L742.1429 244.1631L49.85703 244.1631L49.85703 256.6514z" stroke="none" fill="#FFFFFF" fill-rule="nonzero" /><path id="125" transform="matrix(1 0 0 -1 0 612)" d="M49.85703 244.7061L742.1429 244.7061L742.1429 232.2178L49.85703 232.2178L49.85703 244.7061z" stroke="none" fill="#E0F7FA" fill-rule="nonzero" /><path id="126" transform="matrix(1 0 0 -1 0 612)" d="M49.85703 232.7607L742.1429 232.7607L742.1429 220.2725L49.85703 220.2725L49.85703 232.7607z" stroke="none" fill="#FFFFFF" fill-rule="nonzero" /><path id="127" transform="matrix(1 0 0 -1 0 612)" d="M49.85703 220.8154L742.1429 220.8154L742.1429 198.5537L49.85703 198.5537L49.85703 220.8154z" stroke="none" fill="#E0F7FA" fill-rule="nonzero" /><path id="128" transform="matrix(1 0 0 -1 0 612)" d="M49.85703 199.0967L742.1429 199.0967L742.1429 186.6084L49.85703 186.6084L49.85703 199.0967z" stroke="none" fill="#FFFFFF" fill-rule="nonzero" /><path id="129" transform="matrix(1 0 0 -1 0 612)" d="M49.85703 187.1514L742.1429 187.1514L742.1429 164.8896L49.85703 164.8896L49.85703 187.1514z" stroke="none" fill="#E0F7FA" fill-rule="nonzero" /><path id="130" transform="matrix(1 0 0 -1 0 612)" d="M49.85703 165.4326L742.1429 165.4326L742.1429 143.1709L49.85703 143.1709L49.85703 165.4326z" stroke="none" fill="#FFFFFF" fill-rule="nonzero" /><path id="131" transform="matrix(1 0 0 -1 0 612)" d="M49.85703 143.7139L742.1429 143.7139L742.1429 131.2256L49.85703 131.2256L49.85703 143.7139z" stroke="none" fill="#E0F7FA" fill-rule="nonzero" /><path id="132" transform="matrix(1 0 0 -1 0 612)" d="M49.85703 131.7686L742.1429 131.7686L742.1429 108.4209L49.85703 108.4209L49.85703 131.7686z" stroke="none" fill="#FFFFFF" fill-rule="nonzero" /><path id="133" transform="matrix(1 0 0 -1 0 612)" d="M49.85703 108.9639L742.1429 108.9639L742.1429 96.47559L49.85703 96.47559L49.85703 108.9639z" stroke="none" fill="#E0F7FA" fill-rule="nonzero" /><path id="134" transform="matrix(1 0 0 -1 0 612)" d="M49.85703 97.01855L742.1429 97.01855L742.1429 96.47559L49.85703 96.47559zM49.85703 108.9639L742.1429 108.9639L742.1429 108.4209L49.85703 108.4209zM49.85703 131.7686L742.1429 131.7686L742.1429 131.2256L49.85703 131.2256zM49.85703 143.7139L742.1429 143.7139L742.1429 143.1709L49.85703 143.1709zM49.85703 165.4326L742.1429 165.4326L742.1429 164.8896L49.85703 164.8896zM49.85703 187.1514L742.1429 187.1514L742.1429 186.6084L49.85703 186.6084zM49.85703 199.0967L742.1429 199.0967L742.1429 198.5537L49.85703 198.5537zM49.85703 220.8154L742.1429 220.8154L742.1429 220.2725L49.85703 220.2725zM49.85703 232.7607L742.1429 232.7607L742.1429 232.2178L49.85703 232.2178zM49.85703 244.7061L742.1429 244.7061L742.1429 244.1631L49.85703 244.1631zM49.85703 256.6514L742.1429 256.6514L742.1429 256.1084L49.85703 256.1084zM49.85703 278.3701L742.1429 278.3701L742.1429 277.8271L49.85703 277.8271zM49.85703 290.3154L742.1429 290.3154L742.1429 289.7725L49.85703 289.7725zM49.85703 302.2607L742.1429 302.2607L742.1429 301.7178L49.85703 301.7178zM49.85703 323.9795L742.1429 323.9795L742.1429 323.4365L49.85703 323.4365zM49.85703 335.9248L742.1429 335.9248L742.1429 335.3818L49.85703 335.3818zM49.85703 347.8701L742.1429 347.8701L742.1429 347.3271L49.85703 347.3271zM49.85703 369.5894L742.1429 369.5894L742.1429 369.0464L49.85703 369.0464zM49.85703 381.5347L742.1429 381.5347L742.1429 380.9917L49.85703 380.9917zM49.85703 393.48L742.1429 393.48L742.1429 392.937L49.85703 392.937zM49.85703 405.4253L742.1429 405.4253L742.1429 404.8823L49.85703 404.8823zM49.85703 417.3706L742.1429 417.3706L742.1429 416.8276L49.85703 416.8276zM49.85703 429.3159L742.1429 429.3159L742.1429 428.7729L49.85703 428.7729zM49.85703 441.2612L742.1429 441.2612L742.1429 440.7183L49.85703 440.7183zM49.85703 453.2065L742.1429 453.2065L742.1429 452.6636L49.85703 452.6636zM49.85703 474.9253L742.1429 474.9253L742.1429 474.3823L49.85703 474.3823zM49.85703 486.8706L742.1429 486.8706L742.1429 486.3276L49.85703 486.3276zM49.85703 498.8159L742.1429 498.8159L742.1429 498.2729L49.85703 498.2729zM49.85703 510.7612L742.1429 510.7612L742.1429 510.2183L49.85703 510.2183zM49.85703 522.7065L742.1429 522.7065L742.1429 522.1636L49.85703 522.1636zM49.85703 534.6519L742.1429 534.6519L742.1429 534.1089L49.85703 534.1089zM49.85703 546.5972L742.1429 546.5972L742.1429 546.0542L49.85703 546.0542zM49.85703 558.5425L742.1429 558.5425L742.1429 557.9995L49.85703 557.9995zM742.1429 108.4209L742.1429 97.01855L741.6 97.01855L741.6 108.4209zM742.1429 131.2256L742.1429 108.9639L741.6 108.9639L741.6 131.2256zM742.1429 143.1709L742.1429 131.7686L741.6 131.7686L741.6 143.1709zM742.1429 164.8896L742.1429 143.7139L741.6 143.7139L741.6 164.8896zM742.1429 186.6084L742.1429 165.4326L741.6 165.4326L741.6 186.6084zM742.1429 198.5537L742.1429 187.1514L741.6 187.1514L741.6 198.5537zM742.1429 220.2725L742.1429 199.0967L741.6 199.0967L741.6 220.2725zM742.1429 232.2178L742.1429 220.8154L741.6 220.8154L741.6 232.2178zM742.1429 244.1631L742.1429 232.7607L741.6 232.7607L741.6 244.1631zM742.1429 256.1084L742.1429 244.7061L741.6 244.7061L741.6 256.1084zM742.1429 277.8271L742.1429 256.6514L741.6 256.6514L741.6 277.8271zM742.1429 289.7725L742.1429 278.3701L741.6 278.3701L741.6 289.7725zM742.1429 301.7178L742.1429 290.3154L741.6 290.3154L741.6 301.7178zM742.1429 323.4365L742.1429 302.2607L741.6 302.2607L741.6 323.4365zM742.1429 335.3818L742.1429 323.9795L741.6 323.9795L741.6 335.3818zM742.1429 347.3271L742.1429 335.9248L741.6 335.9248L741.6 347.3271zM742.1429 369.0464L742.1429 347.8701L741.6 347.8701L741.6 369.0464zM742.1429 380.9917L742.1429 369.5894L741.6 369.5894L741.6 380.9917zM742.1429 392.937L742.1429 381.5347L741.6 381.5347L741.6 392.937zM742.1429 404.8823L742.1429 393.48L741.6 393.48L741.6 404.8823zM742.1429 416.8276L742.1429 405.4253L741.6 405.4253L741.6 416.8276zM742.1429 428.7729L742.1429 417.3706L741.6 417.3706L741.6 428.7729zM742.1429 440.7183L742.1429 429.3159L741.6 429.3159L741.6 440.7183zM742.1429 452.6636L742.1429 441.2612L741.6 441.2612L741.6 452.6636zM742.1429 474.3823L742.1429 453.2065L741.6 453.2065L741.6 474.3823zM742.1429 486.3276L742.1429 474.9253L741.6 474.9253L741.6 486.3276zM742.1429 498.2729L742.1429 486.8706L741.6 486.8706L741.6 498.2729zM742.1429 510.2183L742.1429 498.8159L741.6 498.8159L741.6 510.2183zM742.1429 522.1636L742.1429 510.7612L741.6 510.7612L741.6 522.1636zM742.1429 534.1089L742.1429 522.7065L741.6 522.7065L741.6 534.1089zM742.1429 546.0542L742.1429 534.6519L741.6 534.6519L741.6 546.0542zM742.1429 557.9995L742.1429 546.5972L741.6 546.5972L741.6 557.9995zM691.1039 108.4209L691.1039 97.01855L690.5609 97.01855L690.5609 108.4209zM691.1039 131.2256L691.1039 108.9639L690.5609 108.9639L690.5609 131.2256zM691.1039 143.1709L691.1039 131.7686L690.5609 131.7686L690.5609 143.1709zM691.1039 164.8896L691.1039 143.7139L690.5609 143.7139L690.5609 164.8896zM691.1039 186.6084L691.1039 165.4326L690.5609 165.4326L690.5609 186.6084zM691.1039 198.5537L691.1039 187.1514L690.5609 187.1514L690.5609 198.5537zM691.1039 220.2725L691.1039 199.0967L690.5609 199.0967L690.5609 220.2725zM691.1039 232.2178L691.1039 220.8154L690.5609 220.8154L690.5609 232.2178zM691.1039 244.1631L691.1039 232.7607L690.5609 232.7607L690.5609 244.1631zM691.1039 256.1084L691.1039 244.7061L690.5609 244.7061L690.5609 256.1084zM691.1039 277.8271L691.1039 256.6514L690.5609 256.6514L690.5609 277.8271zM691.1039 289.7725L691.1039 278.3701L690.5609 278.3701L690.5609 289.7725zM691.1039 301.7178L691.1039 290.3154L690.5609 290.3154L690.5609 301.7178zM691.1039 323.4365L691.1039 302.2607L690.5609 302.2607L690.5609 323.4365zM691.1039 335.3818L691.1039 323.9795L690.5609 323.9795L690.5609 335.3818zM691.1039 347.3271L691.1039 335.9248L690.5609 335.9248L690.5609 347.3271zM691.1039 369.0464L691.1039 347.8701L690.5609 347.8701L690.5609 369.0464zM691.1039 380.9917L691.1039 369.5894L690.5609 369.5894L690.5609 380.9917zM691.1039 392.937L691.1039 381.5347L690.5609 381.5347L690.5609 392.937zM691.1039 404.8823L691.1039 393.48L690.5609 393.48L690.5609 404.8823zM691.1039 416.8276L691.1039 405.4253L690.5609 405.4253L690.5609 416.8276zM691.1039 428.7729L691.1039 417.3706L690.5609 417.3706L690.5609 428.7729zM691.1039 440.7183L691.1039 429.3159L690.5609 429.3159L690.5609 440.7183zM691.1039 452.6636L691.1039 441.2612L690.5609 441.2612L690.5609 452.6636zM691.1039 474.3823L691.1039 453.2065L690.5609 453.2065L690.5609 474.3823zM691.1039 486.3276L691.1039 474.9253L690.5609 474.9253L690.5609 486.3276zM691.1039 498.2729L691.1039 486.8706L690.5609 486.8706L690.5609 498.2729zM691.1039 510.2183L691.1039 498.8159L690.5609 498.8159L690.5609 510.2183zM691.1039 522.1636L691.1039 510.7612L690.5609 510.7612L690.5609 522.1636zM691.1039 534.1089L691.1039 522.7065L690.5609 522.7065L690.5609 534.1089zM691.1039 546.0542L691.1039 534.6519L690.5609 534.6519L690.5609 546.0542zM691.1039 557.9995L691.1039 546.5972L690.5609 546.5972L690.5609 557.9995zM417.9902 108.4209L417.9902 97.01855L417.4473 97.01855L417.4473 108.4209zM417.9902 131.2256L417.9902 108.9639L417.4473 108.9639L417.4473 131.2256zM417.9902 143.1709L417.9902 131.7686L417.4473 131.7686L417.4473 143.1709zM417.9902 164.8896L417.9902 143.7139L417.4473 143.7139L417.4473 164.8896zM417.9902 186.6084L417.9902 165.4326L417.4473 165.4326L417.4473 186.6084zM417.9902 198.5537L417.9902 187.1514L417.4473 187.1514L417.4473 198.5537zM417.9902 220.2725L417.9902 199.0967L417.4473 199.0967L417.4473 220.2725zM417.9902 232.2178L417.9902 220.8154L417.4473 220.8154L417.4473 232.2178zM417.9902 244.1631L417.9902 232.7607L417.4473 232.7607L417.4473 244.1631zM417.9902 256.1084L417.9902 244.7061L417.4473 244.7061L417.4473 256.1084zM417.9902 277.8271L417.9902 256.6514L417.4473 256.6514L417.4473 277.8271zM417.9902 289.7725L417.9902 278.3701L417.4473 278.3701L417.4473 289.7725zM417.9902 301.7178L417.9902 290.3154L417.4473 290.3154L417.4473 301.7178zM417.9902 323.4365L417.9902 302.2607L417.4473 302.2607L417.4473 323.4365zM417.9902 335.3818L417.9902 323.9795L417.4473 323.9795L417.4473 335.3818zM417.9902 347.3271L417.9902 335.9248L417.4473 335.9248L417.4473 347.3271zM417.9902 369.0464L417.9902 347.8701L417.4473 347.8701L417.4473 369.0464zM417.9902 380.9917L417.9902 369.5894L417.4473 369.5894L417.4473 380.9917zM417.9902 392.937L417.9902 381.5347L417.4473 381.5347L417.4473 392.937zM417.9902 404.8823L417.9902 393.48L417.4473 393.48L417.4473 404.8823zM417.9902 416.8276L417.9902 405.4253L417.4473 405.4253L417.4473 416.8276zM417.9902 428.7729L417.9902 417.3706L417.4473 417.3706L417.4473 428.7729zM417.9902 440.7183L417.9902 429.3159L417.4473 429.3159L417.4473 440.7183zM417.9902 452.6636L417.9902 441.2612L417.4473 441.2612L417.4473 452.6636zM417.9902 474.3823L417.9902 453.2065L417.4473 453.2065L417.4473 474.3823zM417.9902 486.3276L417.9902 474.9253L417.4473 474.9253L417.4473 486.3276zM417.9902 498.2729L417.9902 486.8706L417.4473 486.8706L417.4473 498.2729zM417.9902 510.2183L417.9902 498.8159L417.4473 498.8159L417.4473 510.2183zM417.9902 522.1636L417.9902 510.7612L417.4473 510.7612L417.4473 522.1636zM417.9902 534.1089L417.9902 522.7065L417.4473 522.7065L417.4473 534.1089zM417.9902 546.0542L417.9902 534.6519L417.4473 534.6519L417.4473 546.0542zM417.9902 557.9995L417.9902 546.5972L417.4473 546.5972L417.4473 557.9995zM144.8767 108.4209L144.8767 97.01855L144.3337 97.01855L144.3337 108.4209zM144.8767 131.2256L144.8767 108.9639L144.3337 108.9639L144.3337 131.2256zM144.8767 143.1709L144.8767 131.7686L144.3337 131.7686L144.3337 143.1709zM144.8767 164.8896L144.8767 143.7139L144.3337 143.7139L144.3337 164.8896zM144.8767 186.6084L144.8767 165.4326L144.3337 165.4326L144.3337 186.6084zM144.8767 198.5537L144.8767 187.1514L144.3337 187.1514L144.3337 198.5537zM144.8767 220.2725L144.8767 199.0967L144.3337 199.0967L144.3337 220.2725zM144.8767 232.2178L144.8767 220.8154L144.3337 220.8154L144.3337 232.2178zM144.8767 244.1631L144.8767 232.7607L144.3337 232.7607L144.3337 244.1631zM144.8767 256.1084L144.8767 244.7061L144.3337 244.7061L144.3337 256.1084zM144.8767 277.8271L144.8767 256.6514L144.3337 256.6514L144.3337 277.8271zM144.8767 289.7725L144.8767 278.3701L144.3337 278.3701L144.3337 289.7725zM144.8767 301.7178L144.8767 290.3154L144.3337 290.3154L144.3337 301.7178zM144.8767 323.4365L144.8767 302.2607L144.3337 302.2607L144.3337 323.4365zM144.8767 335.3818L144.8767 323.9795L144.3337 323.9795L144.3337 335.3818zM144.8767 347.3271L144.8767 335.9248L144.3337 335.9248L144.3337 347.3271zM144.8767 369.0464L144.8767 347.8701L144.3337 347.8701L144.3337 369.0464zM144.8767 380.9917L144.8767 369.5894L144.3337 369.5894L144.3337 380.9917zM144.8767 392.937L144.8767 381.5347L144.3337 381.5347L144.3337 392.937zM144.8767 404.8823L144.8767 393.48L144.3337 393.48L144.3337 404.8823zM144.8767 416.8276L144.8767 405.4253L144.3337 405.4253L144.3337 416.8276zM144.8767 428.7729L144.8767 417.3706L144.3337 417.3706L144.3337 428.7729zM144.8767 440.7183L144.8767 429.3159L144.3337 429.3159L144.3337 440.7183zM144.8767 452.6636L144.8767 441.2612L144.3337 441.2612L144.3337 452.6636zM144.8767 474.3823L144.8767 453.2065L144.3337 453.2065L144.3337 474.3823zM144.8767 486.3276L144.8767 474.9253L144.3337 474.9253L144.3337 486.3276zM144.8767 498.2729L144.8767 486.8706L144.3337 486.8706L144.3337 498.2729zM144.8767 510.2183L144.8767 498.8159L144.3337 498.8159L144.3337 510.2183zM144.8767 522.1636L144.8767 510.7612L144.3337 510.7612L144.3337 522.1636zM144.8767 534.1089L144.8767 522.7065L144.3337 522.7065L144.3337 534.1089zM144.8767 546.0542L144.8767 534.6519L144.3337 534.6519L144.3337 546.0542zM144.8767 557.9995L144.8767 546.5972L144.3337 546.5972L144.3337 557.9995zM74.83362 108.4209L74.83362 97.01855L74.29065 97.01855L74.29065 108.4209zM74.83362 131.2256L74.83362 108.9639L74.29065 108.9639L74.29065 131.2256zM74.83362 143.1709L74.83362 131.7686L74.29065 131.7686L74.29065 143.1709zM74.83362 164.8896L74.83362 143.7139L74.29065 143.7139L74.29065 164.8896zM74.83362 186.6084L74.83362 165.4326L74.29065 165.4326L74.29065 186.6084zM74.83362 198.5537L74.83362 187.1514L74.29065 187.1514L74.29065 198.5537zM74.83362 220.2725L74.83362 199.0967L74.29065 199.0967L74.29065 220.2725zM74.83362 232.2178L74.83362 220.8154L74.29065 220.8154L74.29065 232.2178zM74.83362 244.1631L74.83362 232.7607L74.29065 232.7607L74.29065 244.1631zM74.83362 256.1084L74.83362 244.7061L74.29065 244.7061L74.29065 256.1084zM74.83362 277.8271L74.83362 256.6514L74.29065 256.6514L74.29065 277.8271zM74.83362 289.7725L74.83362 278.3701L74.29065 278.3701L74.29065 289.7725zM74.83362 301.7178L74.83362 290.3154L74.29065 290.3154L74.29065 301.7178zM74.83362 323.4365L74.83362 302.2607L74.29065 302.2607L74.29065 323.4365zM74.83362 335.3818L74.83362 323.9795L74.29065 323.9795L74.29065 335.3818zM74.83362 347.3271L74.83362 335.9248L74.29065 335.9248L74.29065 347.3271zM74.83362 369.0464L74.83362 347.8701L74.29065 347.8701L74.29065 369.0464zM74.83362 380.9917L74.83362 369.5894L74.29065 369.5894L74.29065 380.9917zM74.83362 392.937L74.83362 381.5347L74.29065 381.5347L74.29065 392.937zM74.83362 404.8823L74.83362 393.48L74.29065 393.48L74.29065 404.8823zM74.83362 416.8276L74.83362 405.4253L74.29065 405.4253L74.29065 416.8276zM74.83362 428.7729L74.83362 417.3706L74.29065 417.3706L74.29065 428.7729zM74.83362 440.7183L74.83362 429.3159L74.29065 429.3159L74.29065 440.7183zM74.83362 452.6636L74.83362 441.2612L74.29065 441.2612L74.29065 452.6636zM74.83362 474.3823L74.83362 453.2065L74.29065 453.2065L74.29065 474.3823zM74.83362 486.3276L74.83362 474.9253L74.29065 474.9253L74.29065 486.3276zM74.83362 498.2729L74.83362 486.8706L74.29065 486.8706L74.29065 498.2729zM74.83362 510.2183L74.83362 498.8159L74.29065 498.8159L74.29065 510.2183zM74.83362 522.1636L74.83362 510.7612L74.29065 510.7612L74.29065 522.1636zM74.83362 534.1089L74.83362 522.7065L74.29065 522.7065L74.29065 534.1089zM74.83362 546.0542L74.83362 534.6519L74.29065 534.6519L74.29065 546.0542zM74.83362 557.9995L74.83362 546.5972L74.29065 546.5972L74.29065 557.9995zM50.39999 108.4209L50.39999 97.01855L49.85703 97.01855L49.85703 108.4209zM50.39999 131.2256L50.39999 108.9639L49.85703 108.9639L49.85703 131.2256zM50.39999 143.1709L50.39999 131.7686L49.85703 131.7686L49.85703 143.1709zM50.39999 164.8896L50.39999 143.7139L49.85703 143.7139L49.85703 164.8896zM50.39999 186.6084L50.39999 165.4326L49.85703 165.4326L49.85703 186.6084zM50.39999 198.5537L50.39999 187.1514L49.85703 187.1514L49.85703 198.5537zM50.39999 220.2725L50.39999 199.0967L49.85703 199.0967L49.85703 220.2725zM50.39999 232.2178L50.39999 220.8154L49.85703 220.8154L49.85703 232.2178zM50.39999 244.1631L50.39999 232.7607L49.85703 232.7607L49.85703 244.1631zM50.39999 256.1084L50.39999 244.7061L49.85703 244.7061L49.85703 256.1084zM50.39999 277.8271L50.39999 256.6514L49.85703 256.6514L49.85703 277.8271zM50.39999 289.7725L50.39999 278.3701L49.85703 278.3701L49.85703 289.7725zM50.39999 301.7178L50.39999 290.3154L49.85703 290.3154L49.85703 301.7178zM50.39999 323.4365L50.39999 302.2607L49.85703 302.2607L49.85703 323.4365zM50.39999 335.3818L50.39999 323.9795L49.85703 323.9795L49.85703 335.3818zM50.39999 347.3271L50.39999 335.9248L49.85703 335.9248L49.85703 347.3271zM50.39999 369.0464L50.39999 347.8701L49.85703 347.8701L49.85703 369.0464zM50.39999 380.9917L50.39999 369.5894L49.85703 369.5894L49.85703 380.9917zM50.39999 392.937L50.39999 381.5347L49.85703 381.5347L49.85703 392.937zM50.39999 404.8823L50.39999 393.48L49.85703 393.48L49.85703 404.8823zM50.39999 416.8276L50.39999 405.4253L49.85703 405.4253L49.85703 416.8276zM50.39999 428.7729L50.39999 417.3706L49.85703 417.3706L49.85703 428.7729zM50.39999 440.7183L50.39999 429.3159L49.85703 429.3159L49.85703 440.7183zM50.39999 452.6636L50.39999 441.2612L49.85703 441.2612L49.85703 452.6636zM50.39999 474.3823L50.39999 453.2065L49.85703 453.2065L49.85703 474.3823zM50.39999 486.3276L50.39999 474.9253L49.85703 474.9253L49.85703 486.3276zM50.39999 498.2729L50.39999 486.8706L49.85703 486.8706L49.85703 498.2729zM50.39999 510.2183L50.39999 498.8159L49.85703 498.8159L49.85703 510.2183zM50.39999 522.1636L50.39999 510.7612L49.85703 510.7612L49.85703 522.1636zM50.39999 534.1089L50.39999 522.7065L49.85703 522.7065L49.85703 534.1089zM50.39999 546.0542L50.39999 534.6519L49.85703 534.6519L49.85703 546.0542zM50.39999 557.9995L50.39999 546.5972L49.85703 546.5972L49.85703 557.9995z" stroke="none" fill="#000000" fill-rule="nonzero" fill-opacity="0.1490196" /><path id="291" transform="matrix(1 0 0 -1 0 612)" d="M419.6191 548.7441L625.6886 548.7441" stroke="#000000" stroke-width="0.5080263" fill="none" /><path id="452" transform="matrix(1 0 0 -1 0 612)" d="M419.6191 536.7988L641.0664 536.7988" stroke="#000000" stroke-width="0.5080263" fill="none" /><path id="581" transform="matrix(1 0 0 -1 0 612)" d="M419.6191 524.8535L603.4237 524.8535" stroke="#000000" stroke-width="0.5080263" fill="none" /><path id="683" transform="matrix(1 0 0 -1 0 612)" d="M419.6191 512.9082L557.7493 512.9082" stroke="#000000" stroke-width="0.5080263" fill="none" /><path id="819" transform="matrix(1 0 0 -1 0 612)" d="M419.6191 500.9629L611.1864 500.9629" stroke="#000000" stroke-width="0.5080263" fill="none" /><path id="991" transform="matrix(1 0 0 -1 0 612)" d="M419.6191 489.0176L677.3557 489.0176" stroke="#000000" stroke-width="0.5080263" fill="none" /><path id="1129" transform="matrix(1 0 0 -1 0 612)" d="M419.6191 477.0723L616.7014 477.0723" stroke="#000000" stroke-width="0.5080263" fill="none" /><path id="1355" transform="matrix(1 0 0 -1 0 612)" d="M419.6191 464.8296L673.8232 464.8296" stroke="#000000" stroke-width="0.5080263" fill="none" /><path id="1398" transform="matrix(1 0 0 -1 0 612)" d="M419.6191 455.3535L549.7629 455.3535" stroke="#000000" stroke-width="0.5080263" fill="none" /><path id="1449" transform="matrix(1 0 0 -1 0 612)" d="M419.6191 443.4082L478.7686 443.4082" stroke="#000000" stroke-width="0.5080263" fill="none" /><path id="1516" transform="matrix(1 0 0 -1 0 612)" d="M419.6191 431.4629L492.0312 431.4629" stroke="#000000" stroke-width="0.5080263" fill="none" /><path id="1553" transform="matrix(1 0 0 -1 0 612)" d="M419.6191 419.5176L454.2863 419.5176" stroke="#000000" stroke-width="0.5080263" fill="none" /><path id="1688" transform="matrix(1 0 0 -1 0 612)" d="M419.6191 407.5723L590.8738 407.5723" stroke="#000000" stroke-width="0.5080263" fill="none" /><path id="1786" transform="matrix(1 0 0 -1 0 612)" d="M419.6191 395.627L524.8372 395.627" stroke="#000000" stroke-width="0.5080263" fill="none" /><path id="1939" transform="matrix(1 0 0 -1 0 612)" d="M419.6191 383.6816L634.7363 383.6816" stroke="#000000" stroke-width="0.5080263" fill="none" /><path id="2077" transform="matrix(1 0 0 -1 0 612)" d="M419.6191 371.7363L616.6976 371.7363" stroke="#000000" stroke-width="0.5080263" fill="none" /><path id="2228" transform="matrix(1 0 0 -1 0 612)" d="M419.6191 350.0171L609.1245 350.0171" stroke="#000000" stroke-width="0.5080263" fill="none" /><path id="2311" transform="matrix(1 0 0 -1 0 612)" d="M419.6191 338.0718L515.2285 338.0718" stroke="#000000" stroke-width="0.5080263" fill="none" /><path id="2396" transform="matrix(1 0 0 -1 0 612)" d="M419.6191 326.1265L525.8871 326.1265" stroke="#000000" stroke-width="0.5080263" fill="none" /><path id="2495" transform="matrix(1 0 0 -1 0 612)" d="M419.6191 304.4077L530.9246 304.4077" stroke="#000000" stroke-width="0.5080263" fill="none" /><path id="2656" transform="matrix(1 0 0 -1 0 612)" d="M419.6191 292.4624L652.7141 292.4624" stroke="#000000" stroke-width="0.5080263" fill="none" /><path id="2718" transform="matrix(1 0 0 -1 0 612)" d="M419.6191 280.5171L491.5384 280.5171" stroke="#000000" stroke-width="0.5080263" fill="none" /><path id="2845" transform="matrix(1 0 0 -1 0 612)" d="M419.6191 258.7983L559.3831 258.7983" stroke="#000000" stroke-width="0.5080263" fill="none" /><path id="2998" transform="matrix(1 0 0 -1 0 612)" d="M419.6191 246.853L626.0222 246.853" stroke="#000000" stroke-width="0.5080263" fill="none" /><path id="3055" transform="matrix(1 0 0 -1 0 612)" d="M419.6191 234.9077L481.4597 234.9077" stroke="#000000" stroke-width="0.5080263" fill="none" /><path id="3203" transform="matrix(1 0 0 -1 0 612)" d="M419.6191 222.9624L629.6156 222.9624" stroke="#000000" stroke-width="0.5080263" fill="none" /><path id="3387" transform="matrix(1 0 0 -1 0 612)" d="M419.6191 210.7197L679.99 210.7197" stroke="#000000" stroke-width="0.5080263" fill="none" /><path id="3395" transform="matrix(1 0 0 -1 0 612)" d="M419.6191 201.2437L445.5986 201.2437" stroke="#000000" stroke-width="0.5080263" fill="none" /><path id="3548" transform="matrix(1 0 0 -1 0 612)" d="M419.6191 189.2983L631.4691 189.2983" stroke="#000000" stroke-width="0.5080263" fill="none" /><path id="3754" transform="matrix(1 0 0 -1 0 612)" d="M419.6191 177.0557L661.417 177.0557" stroke="#000000" stroke-width="0.5080263" fill="none" /><path id="3784" transform="matrix(1 0 0 -1 0 612)" d="M419.6191 167.5796L514.6486 167.5796" stroke="#000000" stroke-width="0.5080263" fill="none" /><path id="3977" transform="matrix(1 0 0 -1 0 612)" d="M419.6191 155.3369L684.1254 155.3369" stroke="#000000" stroke-width="0.5080263" fill="none" /><path id="3985" transform="matrix(1 0 0 -1 0 612)" d="M419.6191 145.8608L448.5362 145.8608" stroke="#000000" stroke-width="0.5080263" fill="none" /><path id="4074" transform="matrix(1 0 0 -1 0 612)" d="M419.6191 133.9155L526.0275 133.9155" stroke="#000000" stroke-width="0.5080263" fill="none" /><path id="4327" transform="matrix(1 0 0 -1 0 612)" d="M419.6191 121.792L675.7827 121.792" stroke="#000000" stroke-width="0.5080263" fill="none" /><path id="4403" transform="matrix(1 0 0 -1 0 612)" d="M419.6191 111.1108L658.2787 111.1108" stroke="#000000" stroke-width="0.5080263" fill="none" /><path id="4405" transform="matrix(1 0 0 -1 0 612)" d="M658.2787 111.1675L666.0415 111.1675" stroke="#000000" stroke-width="0.5686861" fill="none" /><path id="4546" transform="matrix(1 0 0 -1 0 612)" d="M419.6191 99.16553L627.5574 99.16553" stroke="#000000" stroke-width="0.5080263" fill="none" /></g></g></g></svg>