<svg xmlns="http://www.w3.org/2000/svg" xmlns:xlink="http://www.w3.org/1999/xlink" id="body_11" preserveAspectRatio="xMinYMin meet" viewBox="0 0 1056 816"><defs><clipPath id="1"><path id="" clip-rule="evenodd" transform="matrix(1 0 0 1 0 0)" d="M0 612L0 0L0 0L792 0L792 0L792 612L792 612L0 612z" /></clipPath><clipPath id="2"><path id="" clip-rule="evenodd" transform="matrix(1 0 0 1 0 0)" d="M49.31406 52.91406L742.6859 52.91406L742.6859 52.91406L742.6859 551.9033L742.6859 551.9033L49.31406 551.9033L49.31406 551.9033L49.31406 52.91406z" /></clipPath></defs><g transform="matrix(1.333333 0 0 1.333333 0 0)"><g clip-path="url(#1)"><g clip-path="url(#2)"><path id="102" transform="matrix(1 0 0 -1 0 612)" d="M49.85703 558.543L742.1429 558.543L742.1429 536.2813L49.85703 536.2813L49.85703 558.543z" stroke="none" fill="#E0F7FA" fill-rule="nonzero" /><path id="103" transform="matrix(1 0 0 -1 0 612)" d="M49.85703 536.8242L742.1429 536.8242L742.1429 524.3359L49.85703 524.3359L49.85703 536.8242z" stroke="none" fill="#FFFFFF" fill-rule="nonzero" /><path id="104" transform="matrix(1 0 0 -1 0 612)" d="M49.85703 524.8789L742.1429 524.8789L742.1429 502.6172L49.85703 502.6172L49.85703 524.8789z" stroke="none" fill="#E0F7FA" fill-rule="nonzero" /><path id="105" transform="matrix(1 0 0 -1 0 612)" d="M49.85703 503.1602L742.1429 503.1602L742.1429 490.6719L49.85703 490.6719L49.85703 503.1602z" stroke="none" fill="#FFFFFF" fill-rule="nonzero" /><path id="106" transform="matrix(1 0 0 -1 0 612)" d="M49.85703 491.2148L742.1429 491.2148L742.1429 478.7266L49.85703 478.7266L49.85703 491.2148z" stroke="none" fill="#E0F7FA" fill-rule="nonzero" /><path id="107" transform="matrix(1 0 0 -1 0 612)" d="M49.85703 479.2695L742.1429 479.2695L742.1429 466.7808L49.85703 466.7808L49.85703 479.2695z" stroke="none" fill="#FFFFFF" fill-rule="nonzero" /><path id="108" transform="matrix(1 0 0 -1 0 612)" d="M49.85703 467.3237L742.1429 467.3237L742.1429 454.8354L49.85703 454.8354L49.85703 467.3237z" stroke="none" fill="#E0F7FA" fill-rule="nonzero" /><path id="109" transform="matrix(1 0 0 -1 0 612)" d="M49.85703 455.3784L742.1429 455.3784L742.1429 442.8901L49.85703 442.8901L49.85703 455.3784z" stroke="none" fill="#FFFFFF" fill-rule="nonzero" /><path id="110" transform="matrix(1 0 0 -1 0 612)" d="M49.85703 443.4331L742.1429 443.4331L742.1429 430.9448L49.85703 430.9448L49.85703 443.4331z" stroke="none" fill="#E0F7FA" fill-rule="nonzero" /><path id="111" transform="matrix(1 0 0 -1 0 612)" d="M49.85703 431.4878L742.1429 431.4878L742.1429 418.9995L49.85703 418.9995L49.85703 431.4878z" stroke="none" fill="#FFFFFF" fill-rule="nonzero" /><path id="112" transform="matrix(1 0 0 -1 0 612)" d="M49.85703 419.5425L742.1429 419.5425L742.1429 407.0542L49.85703 407.0542L49.85703 419.5425z" stroke="none" fill="#E0F7FA" fill-rule="nonzero" /><path id="113" transform="matrix(1 0 0 -1 0 612)" d="M49.85703 407.5972L742.1429 407.5972L742.1429 395.1089L49.85703 395.1089L49.85703 407.5972z" stroke="none" fill="#FFFFFF" fill-rule="nonzero" /><path id="114" transform="matrix(1 0 0 -1 0 612)" d="M49.85703 395.6519L742.1429 395.6519L742.1429 383.1636L49.85703 383.1636L49.85703 395.6519z" stroke="none" fill="#E0F7FA" fill-rule="nonzero" /><path id="115" transform="matrix(1 0 0 -1 0 612)" d="M49.85703 383.7065L742.1429 383.7065L742.1429 361.4448L49.85703 361.4448L49.85703 383.7065z" stroke="none" fill="#FFFFFF" fill-rule="nonzero" /><path id="116" transform="matrix(1 0 0 -1 0 612)" d="M49.85703 361.9878L742.1429 361.9878L742.1429 339.7261L49.85703 339.7261L49.85703 361.9878z" stroke="none" fill="#E0F7FA" fill-rule="nonzero" /><path id="117" transform="matrix(1 0 0 -1 0 612)" d="M49.85703 340.269L742.1429 340.269L742.1429 318.0073L49.85703 318.0073L49.85703 340.269z" stroke="none" fill="#FFFFFF" fill-rule="nonzero" /><path id="118" transform="matrix(1 0 0 -1 0 612)" d="M49.85703 318.5503L742.1429 318.5503L742.1429 306.062L49.85703 306.062L49.85703 318.5503z" stroke="none" fill="#E0F7FA" fill-rule="nonzero" /><path id="119" transform="matrix(1 0 0 -1 0 612)" d="M49.85703 306.605L742.1429 306.605L742.1429 294.1167L49.85703 294.1167L49.85703 306.605z" stroke="none" fill="#FFFFFF" fill-rule="nonzero" /><path id="120" transform="matrix(1 0 0 -1 0 612)" d="M49.85703 294.6597L742.1429 294.6597L742.1429 272.3979L49.85703 272.3979L49.85703 294.6597z" stroke="none" fill="#E0F7FA" fill-rule="nonzero" /><path id="121" transform="matrix(1 0 0 -1 0 612)" d="M49.85703 272.9409L742.1429 272.9409L742.1429 260.4526L49.85703 260.4526L49.85703 272.9409z" stroke="none" fill="#FFFFFF" fill-rule="nonzero" /><path id="122" transform="matrix(1 0 0 -1 0 612)" d="M49.85703 260.9956L742.1429 260.9956L742.1429 248.5073L49.85703 248.5073L49.85703 260.9956z" stroke="none" fill="#E0F7FA" fill-rule="nonzero" /><path id="123" transform="matrix(1 0 0 -1 0 612)" d="M49.85703 249.0503L742.1429 249.0503L742.1429 225.7026L49.85703 225.7026L49.85703 249.0503z" stroke="none" fill="#FFFFFF" fill-rule="nonzero" /><path id="124" transform="matrix(1 0 0 -1 0 612)" d="M49.85703 226.2456L742.1429 226.2456L742.1429 213.7573L49.85703 213.7573L49.85703 226.2456z" stroke="none" fill="#E0F7FA" fill-rule="nonzero" /><path id="125" transform="matrix(1 0 0 -1 0 612)" d="M49.85703 214.3003L742.1429 214.3003L742.1429 201.812L49.85703 201.812L49.85703 214.3003z" stroke="none" fill="#FFFFFF" fill-rule="nonzero" /><path id="126" transform="matrix(1 0 0 -1 0 612)" d="M49.85703 202.355L742.1429 202.355L742.1429 189.8667L49.85703 189.8667L49.85703 202.355z" stroke="none" fill="#E0F7FA" fill-rule="nonzero" /><path id="127" transform="matrix(1 0 0 -1 0 612)" d="M49.85703 190.4097L742.1429 190.4097L742.1429 177.9214L49.85703 177.9214L49.85703 190.4097z" stroke="none" fill="#FFFFFF" fill-rule="nonzero" /><path id="128" transform="matrix(1 0 0 -1 0 612)" d="M49.85703 178.4644L742.1429 178.4644L742.1429 165.9761L49.85703 165.9761L49.85703 178.4644z" stroke="none" fill="#E0F7FA" fill-rule="nonzero" /><path id="129" transform="matrix(1 0 0 -1 0 612)" d="M49.85703 166.519L742.1429 166.519L742.1429 154.0308L49.85703 154.0308L49.85703 166.519z" stroke="none" fill="#FFFFFF" fill-rule="nonzero" /><path id="130" transform="matrix(1 0 0 -1 0 612)" d="M49.85703 154.5737L742.1429 154.5737L742.1429 142.0854L49.85703 142.0854L49.85703 154.5737z" stroke="none" fill="#E0F7FA" fill-rule="nonzero" /><path id="131" transform="matrix(1 0 0 -1 0 612)" d="M49.85703 142.6284L742.1429 142.6284L742.1429 130.1401L49.85703 130.1401L49.85703 142.6284z" stroke="none" fill="#FFFFFF" fill-rule="nonzero" /><path id="132" transform="matrix(1 0 0 -1 0 612)" d="M49.85703 130.6831L742.1429 130.6831L742.1429 108.4214L49.85703 108.4214L49.85703 130.6831z" stroke="none" fill="#E0F7FA" fill-rule="nonzero" /><path id="133" transform="matrix(1 0 0 -1 0 612)" d="M49.85703 108.9644L742.1429 108.9644L742.1429 96.47607L49.85703 96.47607L49.85703 108.9644z" stroke="none" fill="#FFFFFF" fill-rule="nonzero" /><path id="134" transform="matrix(1 0 0 -1 0 612)" d="M49.85703 97.01904L742.1429 97.01904L742.1429 84.53076L49.85703 84.53076L49.85703 97.01904z" stroke="none" fill="#E0F7FA" fill-rule="nonzero" /><path id="135" transform="matrix(1 0 0 -1 0 612)" d="M49.85703 85.07373L742.1429 85.07373L742.1429 72.58545L49.85703 72.58545L49.85703 85.07373z" stroke="none" fill="#FFFFFF" fill-rule="nonzero" /><path id="136" transform="matrix(1 0 0 -1 0 612)" d="M49.85703 73.12842L742.1429 73.12842L742.1429 60.63965L49.85703 60.63965L49.85703 73.12842z" stroke="none" fill="#E0F7FA" fill-rule="nonzero" /><path id="137" transform="matrix(1 0 0 -1 0 612)" d="M49.85703 61.18262L742.1429 61.18262L742.1429 60.63965L49.85703 60.63965zM49.85703 73.12842L742.1429 73.12842L742.1429 72.58545L49.85703 72.58545zM49.85703 85.07373L742.1429 85.07373L742.1429 84.53076L49.85703 84.53076zM49.85703 97.01904L742.1429 97.01904L742.1429 96.47607L49.85703 96.47607zM49.85703 108.9644L742.1429 108.9644L742.1429 108.4214L49.85703 108.4214zM49.85703 130.6831L742.1429 130.6831L742.1429 130.1401L49.85703 130.1401zM49.85703 142.6284L742.1429 142.6284L742.1429 142.0854L49.85703 142.0854zM49.85703 154.5737L742.1429 154.5737L742.1429 154.0308L49.85703 154.0308zM49.85703 166.519L742.1429 166.519L742.1429 165.9761L49.85703 165.9761zM49.85703 178.4644L742.1429 178.4644L742.1429 177.9214L49.85703 177.9214zM49.85703 190.4097L742.1429 190.4097L742.1429 189.8667L49.85703 189.8667zM49.85703 202.355L742.1429 202.355L742.1429 201.812L49.85703 201.812zM49.85703 214.3003L742.1429 214.3003L742.1429 213.7573L49.85703 213.7573zM49.85703 226.2456L742.1429 226.2456L742.1429 225.7026L49.85703 225.7026zM49.85703 249.0503L742.1429 249.0503L742.1429 248.5073L49.85703 248.5073zM49.85703 260.9956L742.1429 260.9956L742.1429 260.4526L49.85703 260.4526zM49.85703 272.9409L742.1429 272.9409L742.1429 272.3979L49.85703 272.3979zM49.85703 294.6597L742.1429 294.6597L742.1429 294.1167L49.85703 294.1167zM49.85703 306.605L742.1429 306.605L742.1429 306.062L49.85703 306.062zM49.85703 318.5503L742.1429 318.5503L742.1429 318.0073L49.85703 318.0073zM49.85703 340.269L742.1429 340.269L742.1429 339.7261L49.85703 339.7261zM49.85703 361.9878L742.1429 361.9878L742.1429 361.4448L49.85703 361.4448zM49.85703 383.7065L742.1429 383.7065L742.1429 383.1636L49.85703 383.1636zM49.85703 395.6519L742.1429 395.6519L742.1429 395.1089L49.85703 395.1089zM49.85703 407.5972L742.1429 407.5972L742.1429 407.0542L49.85703 407.0542zM49.85703 419.5425L742.1429 419.5425L742.1429 418.9995L49.85703 418.9995zM49.85703 431.4878L742.1429 431.4878L742.1429 430.9448L49.85703 430.9448zM49.85703 443.4331L742.1429 443.4331L742.1429 442.8901L49.85703 442.8901zM49.85703 455.3784L742.1429 455.3784L742.1429 454.8354L49.85703 454.8354zM49.85703 467.3237L742.1429 467.3237L742.1429 466.7808L49.85703 466.7808zM49.85703 479.2695L742.1429 479.2695L742.1429 478.7266L49.85703 478.7266zM49.85703 491.2148L742.1429 491.2148L742.1429 490.6719L49.85703 490.6719zM49.85703 503.1602L742.1429 503.1602L742.1429 502.6172L49.85703 502.6172zM49.85703 524.8789L742.1429 524.8789L742.1429 524.3359L49.85703 524.3359zM49.85703 536.8242L742.1429 536.8242L742.1429 536.2813L49.85703 536.2813zM49.85703 558.543L742.1429 558.543L742.1429 558L49.85703 558zM742.1429 72.58545L742.1429 61.18262L741.6 61.18262L741.6 72.58545zM742.1429 84.53076L742.1429 73.12842L741.6 73.12842L741.6 84.53076zM742.1429 96.47607L742.1429 85.07373L741.6 85.07373L741.6 96.47607zM742.1429 108.4214L742.1429 97.01904L741.6 97.01904L741.6 108.4214zM742.1429 130.1401L742.1429 108.9644L741.6 108.9644L741.6 130.1401zM742.1429 142.0854L742.1429 130.6831L741.6 130.6831L741.6 142.0854zM742.1429 154.0308L742.1429 142.6284L741.6 142.6284L741.6 154.0308zM742.1429 165.9761L742.1429 154.5737L741.6 154.5737L741.6 165.9761zM742.1429 177.9214L742.1429 166.519L741.6 166.519L741.6 177.9214zM742.1429 189.8667L742.1429 178.4644L741.6 178.4644L741.6 189.8667zM742.1429 201.812L742.1429 190.4097L741.6 190.4097L741.6 201.812zM742.1429 213.7573L742.1429 202.355L741.6 202.355L741.6 213.7573zM742.1429 225.7026L742.1429 214.3003L741.6 214.3003L741.6 225.7026zM742.1429 248.5073L742.1429 226.2456L741.6 226.2456L741.6 248.5073zM742.1429 260.4526L742.1429 249.0503L741.6 249.0503L741.6 260.4526zM742.1429 272.3979L742.1429 260.9956L741.6 260.9956L741.6 272.3979zM742.1429 294.1167L742.1429 272.9409L741.6 272.9409L741.6 294.1167zM742.1429 306.062L742.1429 294.6597L741.6 294.6597L741.6 306.062zM742.1429 318.0073L742.1429 306.605L741.6 306.605L741.6 318.0073zM742.1429 339.7261L742.1429 318.5503L741.6 318.5503L741.6 339.7261zM742.1429 361.4448L742.1429 340.269L741.6 340.269L741.6 361.4448zM742.1429 383.1636L742.1429 361.9878L741.6 361.9878L741.6 383.1636zM742.1429 395.1089L742.1429 383.7065L741.6 383.7065L741.6 395.1089zM742.1429 407.0542L742.1429 395.6519L741.6 395.6519L741.6 407.0542zM742.1429 418.9995L742.1429 407.5972L741.6 407.5972L741.6 418.9995zM742.1429 430.9448L742.1429 419.5425L741.6 419.5425L741.6 430.9448zM742.1429 442.8901L742.1429 431.4878L741.6 431.4878L741.6 442.8901zM742.1429 454.8354L742.1429 443.4331L741.6 443.4331L741.6 454.8354zM742.1429 466.7808L742.1429 455.3784L741.6 455.3784L741.6 466.7808zM742.1429 478.7266L742.1429 467.3237L741.6 467.3237L741.6 478.7266zM742.1429 490.6719L742.1429 479.2695L741.6 479.2695L741.6 490.6719zM742.1429 502.6172L742.1429 491.2148L741.6 491.2148L741.6 502.6172zM742.1429 524.3359L742.1429 503.1602L741.6 503.1602L741.6 524.3359zM742.1429 536.2813L742.1429 524.8789L741.6 524.8789L741.6 536.2813zM742.1429 558L742.1429 536.8242L741.6 536.8242L741.6 558zM691.1039 72.58545L691.1039 61.18262L690.5609 61.18262L690.5609 72.58545zM691.1039 84.53076L691.1039 73.12842L690.5609 73.12842L690.5609 84.53076zM691.1039 96.47607L691.1039 85.07373L690.5609 85.07373L690.5609 96.47607zM691.1039 108.4214L691.1039 97.01904L690.5609 97.01904L690.5609 108.4214zM691.1039 130.1401L691.1039 108.9644L690.5609 108.9644L690.5609 130.1401zM691.1039 142.0854L691.1039 130.6831L690.5609 130.6831L690.5609 142.0854zM691.1039 154.0308L691.1039 142.6284L690.5609 142.6284L690.5609 154.0308zM691.1039 165.9761L691.1039 154.5737L690.5609 154.5737L690.5609 165.9761zM691.1039 177.9214L691.1039 166.519L690.5609 166.519L690.5609 177.9214zM691.1039 189.8667L691.1039 178.4644L690.5609 178.4644L690.5609 189.8667zM691.1039 201.812L691.1039 190.4097L690.5609 190.4097L690.5609 201.812zM691.1039 213.7573L691.1039 202.355L690.5609 202.355L690.5609 213.7573zM691.1039 225.7026L691.1039 214.3003L690.5609 214.3003L690.5609 225.7026zM691.1039 248.5073L691.1039 226.2456L690.5609 226.2456L690.5609 248.5073zM691.1039 260.4526L691.1039 249.0503L690.5609 249.0503L690.5609 260.4526zM691.1039 272.3979L691.1039 260.9956L690.5609 260.9956L690.5609 272.3979zM691.1039 294.1167L691.1039 272.9409L690.5609 272.9409L690.5609 294.1167zM691.1039 306.062L691.1039 294.6597L690.5609 294.6597L690.5609 306.062zM691.1039 318.0073L691.1039 306.605L690.5609 306.605L690.5609 318.0073zM691.1039 339.7261L691.1039 318.5503L690.5609 318.5503L690.5609 339.7261zM691.1039 361.4448L691.1039 340.269L690.5609 340.269L690.5609 361.4448zM691.1039 383.1636L691.1039 361.9878L690.5609 361.9878L690.5609 383.1636zM691.1039 395.1089L691.1039 383.7065L690.5609 383.7065L690.5609 395.1089zM691.1039 407.0542L691.1039 395.6519L690.5609 395.6519L690.5609 407.0542zM691.1039 418.9995L691.1039 407.5972L690.5609 407.5972L690.5609 418.9995zM691.1039 430.9448L691.1039 419.5425L690.5609 419.5425L690.5609 430.9448zM691.1039 442.8901L691.1039 431.4878L690.5609 431.4878L690.5609 442.8901zM691.1039 454.8354L691.1039 443.4331L690.5609 443.4331L690.5609 454.8354zM691.1039 466.7808L691.1039 455.3784L690.5609 455.3784L690.5609 466.7808zM691.1039 478.7266L691.1039 467.3237L690.5609 467.3237L690.5609 478.7266zM691.1039 490.6719L691.1039 479.2695L690.5609 479.2695L690.5609 490.6719zM691.1039 502.6172L691.1039 491.2148L690.5609 491.2148L690.5609 502.6172zM691.1039 524.3359L691.1039 503.1602L690.5609 503.1602L690.5609 524.3359zM691.1039 536.2813L691.1039 524.8789L690.5609 524.8789L690.5609 536.2813zM691.1039 558L691.1039 536.8242L690.5609 536.8242L690.5609 558zM417.9902 72.58545L417.9902 61.18262L417.4473 61.18262L417.4473 72.58545zM417.9902 84.53076L417.9902 73.12842L417.4473 73.12842L417.4473 84.53076zM417.9902 96.47607L417.9902 85.07373L417.4473 85.07373L417.4473 96.47607zM417.9902 108.4214L417.9902 97.01904L417.4473 97.01904L417.4473 108.4214zM417.9902 130.1401L417.9902 108.9644L417.4473 108.9644L417.4473 130.1401zM417.9902 142.0854L417.9902 130.6831L417.4473 130.6831L417.4473 142.0854zM417.9902 154.0308L417.9902 142.6284L417.4473 142.6284L417.4473 154.0308zM417.9902 165.9761L417.9902 154.5737L417.4473 154.5737L417.4473 165.9761zM417.9902 177.9214L417.9902 166.519L417.4473 166.519L417.4473 177.9214zM417.9902 189.8667L417.9902 178.4644L417.4473 178.4644L417.4473 189.8667zM417.9902 201.812L417.9902 190.4097L417.4473 190.4097L417.4473 201.812zM417.9902 213.7573L417.9902 202.355L417.4473 202.355L417.4473 213.7573zM417.9902 225.7026L417.9902 214.3003L417.4473 214.3003L417.4473 225.7026zM417.9902 248.5073L417.9902 226.2456L417.4473 226.2456L417.4473 248.5073zM417.9902 260.4526L417.9902 249.0503L417.4473 249.0503L417.4473 260.4526zM417.9902 272.3979L417.9902 260.9956L417.4473 260.9956L417.4473 272.3979zM417.9902 294.1167L417.9902 272.9409L417.4473 272.9409L417.4473 294.1167zM417.9902 306.062L417.9902 294.6597L417.4473 294.6597L417.4473 306.062zM417.9902 318.0073L417.9902 306.605L417.4473 306.605L417.4473 318.0073zM417.9902 339.7261L417.9902 318.5503L417.4473 318.5503L417.4473 339.7261zM417.9902 361.4448L417.9902 340.269L417.4473 340.269L417.4473 361.4448zM417.9902 383.1636L417.9902 361.9878L417.4473 361.9878L417.4473 383.1636zM417.9902 395.1089L417.9902 383.7065L417.4473 383.7065L417.4473 395.1089zM417.9902 407.0542L417.9902 395.6519L417.4473 395.6519L417.4473 407.0542zM417.9902 418.9995L417.9902 407.5972L417.4473 407.5972L417.4473 418.9995zM417.9902 430.9448L417.9902 419.5425L417.4473 419.5425L417.4473 430.9448zM417.9902 442.8901L417.9902 431.4878L417.4473 431.4878L417.4473 442.8901zM417.9902 454.8354L417.9902 443.4331L417.4473 443.4331L417.4473 454.8354zM417.9902 466.7808L417.9902 455.3784L417.4473 455.3784L417.4473 466.7808zM417.9902 478.7266L417.9902 467.3237L417.4473 467.3237L417.4473 478.7266zM417.9902 490.6719L417.9902 479.2695L417.4473 479.2695L417.4473 490.6719zM417.9902 502.6172L417.9902 491.2148L417.4473 491.2148L417.4473 502.6172zM417.9902 524.3359L417.9902 503.1602L417.4473 503.1602L417.4473 524.3359zM417.9902 536.2813L417.9902 524.8789L417.4473 524.8789L417.4473 536.2813zM417.9902 558L417.9902 536.8242L417.4473 536.8242L417.4473 558zM144.8767 72.58545L144.8767 61.18262L144.3337 61.18262L144.3337 72.58545zM144.8767 84.53076L144.8767 73.12842L144.3337 73.12842L144.3337 84.53076zM144.8767 96.47607L144.8767 85.07373L144.3337 85.07373L144.3337 96.47607zM144.8767 108.4214L144.8767 97.01904L144.3337 97.01904L144.3337 108.4214zM144.8767 130.1401L144.8767 108.9644L144.3337 108.9644L144.3337 130.1401zM144.8767 142.0854L144.8767 130.6831L144.3337 130.6831L144.3337 142.0854zM144.8767 154.0308L144.8767 142.6284L144.3337 142.6284L144.3337 154.0308zM144.8767 165.9761L144.8767 154.5737L144.3337 154.5737L144.3337 165.9761zM144.8767 177.9214L144.8767 166.519L144.3337 166.519L144.3337 177.9214zM144.8767 189.8667L144.8767 178.4644L144.3337 178.4644L144.3337 189.8667zM144.8767 201.812L144.8767 190.4097L144.3337 190.4097L144.3337 201.812zM144.8767 213.7573L144.8767 202.355L144.3337 202.355L144.3337 213.7573zM144.8767 225.7026L144.8767 214.3003L144.3337 214.3003L144.3337 225.7026zM144.8767 248.5073L144.8767 226.2456L144.3337 226.2456L144.3337 248.5073zM144.8767 260.4526L144.8767 249.0503L144.3337 249.0503L144.3337 260.4526zM144.8767 272.3979L144.8767 260.9956L144.3337 260.9956L144.3337 272.3979zM144.8767 294.1167L144.8767 272.9409L144.3337 272.9409L144.3337 294.1167zM144.8767 306.062L144.8767 294.6597L144.3337 294.6597L144.3337 306.062zM144.8767 318.0073L144.8767 306.605L144.3337 306.605L144.3337 318.0073zM144.8767 339.7261L144.8767 318.5503L144.3337 318.5503L144.3337 339.7261zM144.8767 361.4448L144.8767 340.269L144.3337 340.269L144.3337 361.4448zM144.8767 383.1636L144.8767 361.9878L144.3337 361.9878L144.3337 383.1636zM144.8767 395.1089L144.8767 383.7065L144.3337 383.7065L144.3337 395.1089zM144.8767 407.0542L144.8767 395.6519L144.3337 395.6519L144.3337 407.0542zM144.8767 418.9995L144.8767 407.5972L144.3337 407.5972L144.3337 418.9995zM144.8767 430.9448L144.8767 419.5425L144.3337 419.5425L144.3337 430.9448zM144.8767 442.8901L144.8767 431.4878L144.3337 431.4878L144.3337 442.8901zM144.8767 454.8354L144.8767 443.4331L144.3337 443.4331L144.3337 454.8354zM144.8767 466.7808L144.8767 455.3784L144.3337 455.3784L144.3337 466.7808zM144.8767 478.7266L144.8767 467.3237L144.3337 467.3237L144.3337 478.7266zM144.8767 490.6719L144.8767 479.2695L144.3337 479.2695L144.3337 490.6719zM144.8767 502.6172L144.8767 491.2148L144.3337 491.2148L144.3337 502.6172zM144.8767 524.3359L144.8767 503.1602L144.3337 503.1602L144.3337 524.3359zM144.8767 536.2813L144.8767 524.8789L144.3337 524.8789L144.3337 536.2813zM144.8767 558L144.8767 536.8242L144.3337 536.8242L144.3337 558zM74.83362 72.58545L74.83362 61.18262L74.29065 61.18262L74.29065 72.58545zM74.83362 84.53076L74.83362 73.12842L74.29065 73.12842L74.29065 84.53076zM74.83362 96.47607L74.83362 85.07373L74.29065 85.07373L74.29065 96.47607zM74.83362 108.4214L74.83362 97.01904L74.29065 97.01904L74.29065 108.4214zM74.83362 130.1401L74.83362 108.9644L74.29065 108.9644L74.29065 130.1401zM74.83362 142.0854L74.83362 130.6831L74.29065 130.6831L74.29065 142.0854zM74.83362 154.0308L74.83362 142.6284L74.29065 142.6284L74.29065 154.0308zM74.83362 165.9761L74.83362 154.5737L74.29065 154.5737L74.29065 165.9761zM74.83362 177.9214L74.83362 166.519L74.29065 166.519L74.29065 177.9214zM74.83362 189.8667L74.83362 178.4644L74.29065 178.4644L74.29065 189.8667zM74.83362 201.812L74.83362 190.4097L74.29065 190.4097L74.29065 201.812zM74.83362 213.7573L74.83362 202.355L74.29065 202.355L74.29065 213.7573zM74.83362 225.7026L74.83362 214.3003L74.29065 214.3003L74.29065 225.7026zM74.83362 248.5073L74.83362 226.2456L74.29065 226.2456L74.29065 248.5073zM74.83362 260.4526L74.83362 249.0503L74.29065 249.0503L74.29065 260.4526zM74.83362 272.3979L74.83362 260.9956L74.29065 260.9956L74.29065 272.3979zM74.83362 294.1167L74.83362 272.9409L74.29065 272.9409L74.29065 294.1167zM74.83362 306.062L74.83362 294.6597L74.29065 294.6597L74.29065 306.062zM74.83362 318.0073L74.83362 306.605L74.29065 306.605L74.29065 318.0073zM74.83362 339.7261L74.83362 318.5503L74.29065 318.5503L74.29065 339.7261zM74.83362 361.4448L74.83362 340.269L74.29065 340.269L74.29065 361.4448zM74.83362 383.1636L74.83362 361.9878L74.29065 361.9878L74.29065 383.1636zM74.83362 395.1089L74.83362 383.7065L74.29065 383.7065L74.29065 395.1089zM74.83362 407.0542L74.83362 395.6519L74.29065 395.6519L74.29065 407.0542zM74.83362 418.9995L74.83362 407.5972L74.29065 407.5972L74.29065 418.9995zM74.83362 430.9448L74.83362 419.5425L74.29065 419.5425L74.29065 430.9448zM74.83362 442.8901L74.83362 431.4878L74.29065 431.4878L74.29065 442.8901zM74.83362 454.8354L74.83362 443.4331L74.29065 443.4331L74.29065 454.8354zM74.83362 466.7808L74.83362 455.3784L74.29065 455.3784L74.29065 466.7808zM74.83362 478.7266L74.83362 467.3237L74.29065 467.3237L74.29065 478.7266zM74.83362 490.6719L74.83362 479.2695L74.29065 479.2695L74.29065 490.6719zM74.83362 502.6172L74.83362 491.2148L74.29065 491.2148L74.29065 502.6172zM74.83362 524.3359L74.83362 503.1602L74.29065 503.1602L74.29065 524.3359zM74.83362 536.2813L74.83362 524.8789L74.29065 524.8789L74.29065 536.2813zM74.83362 558L74.83362 536.8242L74.29065 536.8242L74.29065 558zM50.39999 72.58545L50.39999 61.18262L49.85703 61.18262L49.85703 72.58545zM50.39999 84.53076L50.39999 73.12842L49.85703 73.12842L49.85703 84.53076zM50.39999 96.47607L50.39999 85.07373L49.85703 85.07373L49.85703 96.47607zM50.39999 108.4214L50.39999 97.01904L49.85703 97.01904L49.85703 108.4214zM50.39999 130.1401L50.39999 108.9644L49.85703 108.9644L49.85703 130.1401zM50.39999 142.0854L50.39999 130.6831L49.85703 130.6831L49.85703 142.0854zM50.39999 154.0308L50.39999 142.6284L49.85703 142.6284L49.85703 154.0308zM50.39999 165.9761L50.39999 154.5737L49.85703 154.5737L49.85703 165.9761zM50.39999 177.9214L50.39999 166.519L49.85703 166.519L49.85703 177.9214zM50.39999 189.8667L50.39999 178.4644L49.85703 178.4644L49.85703 189.8667zM50.39999 201.812L50.39999 190.4097L49.85703 190.4097L49.85703 201.812zM50.39999 213.7573L50.39999 202.355L49.85703 202.355L49.85703 213.7573zM50.39999 225.7026L50.39999 214.3003L49.85703 214.3003L49.85703 225.7026zM50.39999 248.5073L50.39999 226.2456L49.85703 226.2456L49.85703 248.5073zM50.39999 260.4526L50.39999 249.0503L49.85703 249.0503L49.85703 260.4526zM50.39999 272.3979L50.39999 260.9956L49.85703 260.9956L49.85703 272.3979zM50.39999 294.1167L50.39999 272.9409L49.85703 272.9409L49.85703 294.1167zM50.39999 306.062L50.39999 294.6597L49.85703 294.6597L49.85703 306.062zM50.39999 318.0073L50.39999 306.605L49.85703 306.605L49.85703 318.0073zM50.39999 339.7261L50.39999 318.5503L49.85703 318.5503L49.85703 339.7261zM50.39999 361.4448L50.39999 340.269L49.85703 340.269L49.85703 361.4448zM50.39999 383.1636L50.39999 361.9878L49.85703 361.9878L49.85703 383.1636zM50.39999 395.1089L50.39999 383.7065L49.85703 383.7065L49.85703 395.1089zM50.39999 407.0542L50.39999 395.6519L49.85703 395.6519L49.85703 407.0542zM50.39999 418.9995L50.39999 407.5972L49.85703 407.5972L49.85703 418.9995zM50.39999 430.9448L50.39999 419.5425L49.85703 419.5425L49.85703 430.9448zM50.39999 442.8901L50.39999 431.4878L49.85703 431.4878L49.85703 442.8901zM50.39999 454.8354L50.39999 443.4331L49.85703 443.4331L49.85703 454.8354zM50.39999 466.7808L50.39999 455.3784L49.85703 455.3784L49.85703 466.7808zM50.39999 478.7266L50.39999 467.3237L49.85703 467.3237L49.85703 478.7266zM50.39999 490.6719L50.39999 479.2695L49.85703 479.2695L49.85703 490.6719zM50.39999 502.6172L50.39999 491.2148L49.85703 491.2148L49.85703 502.6172zM50.39999 524.3359L50.39999 503.1602L49.85703 503.1602L49.85703 524.3359zM50.39999 536.2813L50.39999 524.8789L49.85703 524.8789L49.85703 536.2813zM50.39999 558L50.39999 536.8242L49.85703 536.8242L49.85703 558z" stroke="none" fill="#000000" fill-rule="nonzero" fill-opacity="0.1490196" /><path id="328" transform="matrix(1 0 0 -1 0 612)" d="M419.6191 548.4468L660.2155 548.4468" stroke="#000000" stroke-width="0.5080263" fill="none" /><path id="360" transform="matrix(1 0 0 -1 0 612)" d="M419.6191 538.9712L523.5978 538.9712" stroke="#000000" stroke-width="0.5080263" fill="none" /><path id="454" transform="matrix(1 0 0 -1 0 612)" d="M419.6191 527.0259L542.9893 527.0259" stroke="#000000" stroke-width="0.5080263" fill="none" /><path id="567" transform="matrix(1 0 0 -1 0 612)" d="M419.6191 505.3071L559.0078 505.3071" stroke="#000000" stroke-width="0.5080263" fill="none" /><path id="733" transform="matrix(1 0 0 -1 0 612)" d="M419.6191 493.3618L667.5382 493.3618" stroke="#000000" stroke-width="0.5080263" fill="none" /><path id="833" transform="matrix(1 0 0 -1 0 612)" d="M419.6191 481.416L550.8735 481.416" stroke="#000000" stroke-width="0.5080263" fill="none" /><path id="946" transform="matrix(1 0 0 -1 0 612)" d="M419.6191 469.4707L564.6366 469.4707" stroke="#000000" stroke-width="0.5080263" fill="none" /><path id="1023" transform="matrix(1 0 0 -1 0 612)" d="M419.6191 457.5254L503.4176 457.5254" stroke="#000000" stroke-width="0.5080263" fill="none" /><path id="1139" transform="matrix(1 0 0 -1 0 612)" d="M419.6191 445.5801L575.0261 445.5801" stroke="#000000" stroke-width="0.5080263" fill="none" /><path id="1218" transform="matrix(1 0 0 -1 0 612)" d="M419.6191 433.6348L517.1123 433.6348" stroke="#000000" stroke-width="0.5080263" fill="none" /><path id="1272" transform="matrix(1 0 0 -1 0 612)" d="M419.6191 421.6895L474.364 421.6895" stroke="#000000" stroke-width="0.5080263" fill="none" /><path id="1366" transform="matrix(1 0 0 -1 0 612)" d="M419.6191 409.7441L540.1505 409.7441" stroke="#000000" stroke-width="0.5080263" fill="none" /><path id="1524" transform="matrix(1 0 0 -1 0 612)" d="M419.6191 397.7988L644.542 397.7988" stroke="#000000" stroke-width="0.5080263" fill="none" /><path id="1659" transform="matrix(1 0 0 -1 0 612)" d="M419.6191 385.8535L604.6823 385.8535" stroke="#000000" stroke-width="0.5080263" fill="none" /><path id="1848" transform="matrix(1 0 0 -1 0 612)" d="M419.6191 373.6108L679.9672 373.6108" stroke="#000000" stroke-width="0.5080263" fill="none" /><path id="1865" transform="matrix(1 0 0 -1 0 612)" d="M419.6191 364.1348L467.2874 364.1348" stroke="#000000" stroke-width="0.5080263" fill="none" /><path id="2072" transform="matrix(1 0 0 -1 0 612)" d="M419.6191 351.8921L675.957 351.8921" stroke="#000000" stroke-width="0.5080263" fill="none" /><path id="2097" transform="matrix(1 0 0 -1 0 612)" d="M419.6191 342.416L500.4799 342.416" stroke="#000000" stroke-width="0.5080263" fill="none" /><path id="2198" transform="matrix(1 0 0 -1 0 612)" d="M419.6191 320.6973L533.4983 320.6973" stroke="#000000" stroke-width="0.5080263" fill="none" /><path id="2339" transform="matrix(1 0 0 -1 0 612)" d="M419.6191 308.752L599.2014 308.752" stroke="#000000" stroke-width="0.5080263" fill="none" /><path id="2456" transform="matrix(1 0 0 -1 0 612)" d="M419.6191 296.8066L583.2776 296.8066" stroke="#000000" stroke-width="0.5080263" fill="none" /><path id="2587" transform="matrix(1 0 0 -1 0 612)" d="M419.6191 275.0879L575.678 275.0879" stroke="#000000" stroke-width="0.5080263" fill="none" /><path id="2739" transform="matrix(1 0 0 -1 0 612)" d="M419.6191 263.1426L650.7584 263.1426" stroke="#000000" stroke-width="0.5080263" fill="none" /><path id="2792" transform="matrix(1 0 0 -1 0 612)" d="M419.6191 251.1973L473.3331 251.1973" stroke="#000000" stroke-width="0.5080263" fill="none" /><path id="3032" transform="matrix(1 0 0 -1 0 612)" d="M419.6191 239.0737L676.8933 239.0737" stroke="#000000" stroke-width="0.5080263" fill="none" /><path id="3074" transform="matrix(1 0 0 -1 0 612)" d="M419.6191 228.3926L548.5007 228.3926" stroke="#000000" stroke-width="0.5080263" fill="none" /><path id="3076" transform="matrix(1 0 0 -1 0 612)" d="M548.5007 228.4492L552.3821 228.4492" stroke="#000000" stroke-width="0.5686861" fill="none" /><path id="3083" transform="matrix(1 0 0 -1 0 612)" d="M552.3821 228.3926L569.2153 228.3926" stroke="#000000" stroke-width="0.5080263" fill="none" /><path id="3085" transform="matrix(1 0 0 -1 0 612)" d="M569.2153 228.4492L573.0967 228.4492" stroke="#000000" stroke-width="0.5686861" fill="none" /><path id="3088" transform="matrix(1 0 0 -1 0 612)" d="M573.0967 228.3926L580.2113 228.3926" stroke="#000000" stroke-width="0.5080263" fill="none" /><path id="3213" transform="matrix(1 0 0 -1 0 612)" d="M419.6191 216.4473L592.5265 216.4473" stroke="#000000" stroke-width="0.5080263" fill="none" /><path id="3388" transform="matrix(1 0 0 -1 0 612)" d="M419.6191 204.502L675.0171 204.502" stroke="#000000" stroke-width="0.5080263" fill="none" /><path id="3544" transform="matrix(1 0 0 -1 0 612)" d="M419.6191 192.5566L644.3147 192.5566" stroke="#000000" stroke-width="0.5080263" fill="none" /><path id="3639" transform="matrix(1 0 0 -1 0 612)" d="M419.6191 180.6113L548.5462 180.6113" stroke="#000000" stroke-width="0.5080263" fill="none" /><path id="3728" transform="matrix(1 0 0 -1 0 612)" d="M419.6191 168.666L536.8148 168.666" stroke="#000000" stroke-width="0.5080263" fill="none" /><path id="3921" transform="matrix(1 0 0 -1 0 612)" d="M419.6191 156.7207L681.5858 156.7207" stroke="#000000" stroke-width="0.5080263" fill="none" /><path id="3984" transform="matrix(1 0 0 -1 0 612)" d="M419.6191 144.7754L495.9959 144.7754" stroke="#000000" stroke-width="0.5080263" fill="none" /><path id="4032" transform="matrix(1 0 0 -1 0 612)" d="M419.6191 132.8301L466.7795 132.8301" stroke="#000000" stroke-width="0.5080263" fill="none" /><path id="4264" transform="matrix(1 0 0 -1 0 612)" d="M419.6191 120.5869L678.1704 120.5869" stroke="#000000" stroke-width="0.5080263" fill="none" /><path id="4314" transform="matrix(1 0 0 -1 0 612)" d="M419.6191 111.1113L580.541 111.1113" stroke="#000000" stroke-width="0.5080263" fill="none" /><path id="4435" transform="matrix(1 0 0 -1 0 612)" d="M419.6191 99.16602L579.7527 99.16602" stroke="#000000" stroke-width="0.5080263" fill="none" /><path id="4524" transform="matrix(1 0 0 -1 0 612)" d="M419.6191 87.2207L528.476 87.2207" stroke="#000000" stroke-width="0.5080263" fill="none" /><path id="4585" transform="matrix(1 0 0 -1 0 612)" d="M419.6191 75.2749L497.7623 75.2749" stroke="#000000" stroke-width="0.5080263" fill="none" /><path id="4763" transform="matrix(1 0 0 -1 0 612)" d="M419.6191 63.32959L687.605 63.32959" stroke="#000000" stroke-width="0.5080263" fill="none" /></g></g></g></svg>