<svg xmlns="http://www.w3.org/2000/svg" xmlns:xlink="http://www.w3.org/1999/xlink" id="body_9" preserveAspectRatio="xMinYMin meet" viewBox="0 0 1056 816"><defs><clipPath id="1"><path id="" clip-rule="evenodd" transform="matrix(1 0 0 1 0 0)" d="M0 612L0 0L0 0L792 0L792 0L792 612L792 612L0 612z" /></clipPath><clipPath id="2"><path id="" clip-rule="evenodd" transform="matrix(1 0 0 1 0 0)" d="M49.31406 52.91455L742.6859 52.91455L742.6859 52.91455L742.6859 543.7588L742.6859 543.7588L49.31406 543.7588L49.31406 543.7588L49.31406 52.91455z" /></clipPath></defs><g transform="matrix(1.333333 0 0 1.333333 0 0)"><g clip-path="url(#1)"><g clip-path="url(#2)"><path id="101" transform="matrix(1 0 0 -1 0 612)" d="M49.85703 558.5425L742.1429 558.5425L742.1429 546.0542L49.85703 546.0542L49.85703 558.5425z" stroke="none" fill="#E0F7FA" fill-rule="nonzero" /><path id="102" transform="matrix(1 0 0 -1 0 612)" d="M49.85703 546.5972L742.1429 546.5972L742.1429 534.1089L49.85703 534.1089L49.85703 546.5972z" stroke="none" fill="#FFFFFF" fill-rule="nonzero" /><path id="103" transform="matrix(1 0 0 -1 0 612)" d="M49.85703 534.6519L742.1429 534.6519L742.1429 512.3901L49.85703 512.3901L49.85703 534.6519z" stroke="none" fill="#E0F7FA" fill-rule="nonzero" /><path id="104" transform="matrix(1 0 0 -1 0 612)" d="M49.85703 512.9331L742.1429 512.9331L742.1429 490.6714L49.85703 490.6714L49.85703 512.9331z" stroke="none" fill="#FFFFFF" fill-rule="nonzero" /><path id="105" transform="matrix(1 0 0 -1 0 612)" d="M49.85703 491.2144L742.1429 491.2144L742.1429 478.7261L49.85703 478.7261L49.85703 491.2144z" stroke="none" fill="#E0F7FA" fill-rule="nonzero" /><path id="106" transform="matrix(1 0 0 -1 0 612)" d="M49.85703 479.269L742.1429 479.269L742.1429 457.0073L49.85703 457.0073L49.85703 479.269z" stroke="none" fill="#FFFFFF" fill-rule="nonzero" /><path id="107" transform="matrix(1 0 0 -1 0 612)" d="M49.85703 457.5503L742.1429 457.5503L742.1429 435.2886L49.85703 435.2886L49.85703 457.5503z" stroke="none" fill="#E0F7FA" fill-rule="nonzero" /><path id="108" transform="matrix(1 0 0 -1 0 612)" d="M49.85703 435.8315L742.1429 435.8315L742.1429 423.3433L49.85703 423.3433L49.85703 435.8315z" stroke="none" fill="#FFFFFF" fill-rule="nonzero" /><path id="109" transform="matrix(1 0 0 -1 0 612)" d="M49.85703 423.8862L742.1429 423.8862L742.1429 411.3979L49.85703 411.3979L49.85703 423.8862z" stroke="none" fill="#E0F7FA" fill-rule="nonzero" /><path id="110" transform="matrix(1 0 0 -1 0 612)" d="M49.85703 411.9409L742.1429 411.9409L742.1429 399.4526L49.85703 399.4526L49.85703 411.9409z" stroke="none" fill="#FFFFFF" fill-rule="nonzero" /><path id="111" transform="matrix(1 0 0 -1 0 612)" d="M49.85703 399.9956L742.1429 399.9956L742.1429 387.5073L49.85703 387.5073L49.85703 399.9956z" stroke="none" fill="#E0F7FA" fill-rule="nonzero" /><path id="112" transform="matrix(1 0 0 -1 0 612)" d="M49.85703 388.0503L742.1429 388.0503L742.1429 375.562L49.85703 375.562L49.85703 388.0503z" stroke="none" fill="#FFFFFF" fill-rule="nonzero" /><path id="113" transform="matrix(1 0 0 -1 0 612)" d="M49.85703 376.105L742.1429 376.105L742.1429 363.6167L49.85703 363.6167L49.85703 376.105z" stroke="none" fill="#E0F7FA" fill-rule="nonzero" /><path id="114" transform="matrix(1 0 0 -1 0 612)" d="M49.85703 364.1597L742.1429 364.1597L742.1429 351.6714L49.85703 351.6714L49.85703 364.1597z" stroke="none" fill="#FFFFFF" fill-rule="nonzero" /><path id="115" transform="matrix(1 0 0 -1 0 612)" d="M49.85703 352.2144L742.1429 352.2144L742.1429 339.7261L49.85703 339.7261L49.85703 352.2144z" stroke="none" fill="#E0F7FA" fill-rule="nonzero" /><path id="116" transform="matrix(1 0 0 -1 0 612)" d="M49.85703 340.269L742.1429 340.269L742.1429 327.7808L49.85703 327.7808L49.85703 340.269z" stroke="none" fill="#FFFFFF" fill-rule="nonzero" /><path id="117" transform="matrix(1 0 0 -1 0 612)" d="M49.85703 328.3237L742.1429 328.3237L742.1429 306.062L49.85703 306.062L49.85703 328.3237z" stroke="none" fill="#E0F7FA" fill-rule="nonzero" /><path id="118" transform="matrix(1 0 0 -1 0 612)" d="M49.85703 306.605L742.1429 306.605L742.1429 294.1167L49.85703 294.1167L49.85703 306.605z" stroke="none" fill="#FFFFFF" fill-rule="nonzero" /><path id="119" transform="matrix(1 0 0 -1 0 612)" d="M49.85703 294.6597L742.1429 294.6597L742.1429 282.1709L49.85703 282.1709L49.85703 294.6597z" stroke="none" fill="#E0F7FA" fill-rule="nonzero" /><path id="120" transform="matrix(1 0 0 -1 0 612)" d="M49.85703 282.7139L742.1429 282.7139L742.1429 270.2256L49.85703 270.2256L49.85703 282.7139z" stroke="none" fill="#FFFFFF" fill-rule="nonzero" /><path id="121" transform="matrix(1 0 0 -1 0 612)" d="M49.85703 270.7686L742.1429 270.7686L742.1429 258.2803L49.85703 258.2803L49.85703 270.7686z" stroke="none" fill="#E0F7FA" fill-rule="nonzero" /><path id="122" transform="matrix(1 0 0 -1 0 612)" d="M49.85703 258.8232L742.1429 258.8232L742.1429 246.335L49.85703 246.335L49.85703 258.8232z" stroke="none" fill="#FFFFFF" fill-rule="nonzero" /><path id="123" transform="matrix(1 0 0 -1 0 612)" d="M49.85703 246.8779L742.1429 246.8779L742.1429 224.6162L49.85703 224.6162L49.85703 246.8779z" stroke="none" fill="#E0F7FA" fill-rule="nonzero" /><path id="124" transform="matrix(1 0 0 -1 0 612)" d="M49.85703 225.1592L742.1429 225.1592L742.1429 193.667L49.85703 193.667L49.85703 225.1592z" stroke="none" fill="#FFFFFF" fill-rule="nonzero" /><path id="125" transform="matrix(1 0 0 -1 0 612)" d="M49.85703 194.21L742.1429 194.21L742.1429 171.9482L49.85703 171.9482L49.85703 194.21z" stroke="none" fill="#E0F7FA" fill-rule="nonzero" /><path id="126" transform="matrix(1 0 0 -1 0 612)" d="M49.85703 172.4912L742.1429 172.4912L742.1429 160.0029L49.85703 160.0029L49.85703 172.4912z" stroke="none" fill="#FFFFFF" fill-rule="nonzero" /><path id="127" transform="matrix(1 0 0 -1 0 612)" d="M49.85703 160.5459L742.1429 160.5459L742.1429 138.2842L49.85703 138.2842L49.85703 160.5459z" stroke="none" fill="#E0F7FA" fill-rule="nonzero" /><path id="128" transform="matrix(1 0 0 -1 0 612)" d="M49.85703 138.8271L742.1429 138.8271L742.1429 126.3389L49.85703 126.3389L49.85703 138.8271z" stroke="none" fill="#FFFFFF" fill-rule="nonzero" /><path id="129" transform="matrix(1 0 0 -1 0 612)" d="M49.85703 126.8818L742.1429 126.8818L742.1429 114.3936L49.85703 114.3936L49.85703 126.8818z" stroke="none" fill="#E0F7FA" fill-rule="nonzero" /><path id="130" transform="matrix(1 0 0 -1 0 612)" d="M49.85703 114.9365L742.1429 114.9365L742.1429 92.6748L49.85703 92.6748L49.85703 114.9365z" stroke="none" fill="#FFFFFF" fill-rule="nonzero" /><path id="131" transform="matrix(1 0 0 -1 0 612)" d="M49.85703 93.21777L742.1429 93.21777L742.1429 80.72949L49.85703 80.72949L49.85703 93.21777z" stroke="none" fill="#E0F7FA" fill-rule="nonzero" /><path id="132" transform="matrix(1 0 0 -1 0 612)" d="M49.85703 81.27246L742.1429 81.27246L742.1429 68.78418L49.85703 68.78418L49.85703 81.27246z" stroke="none" fill="#FFFFFF" fill-rule="nonzero" /><path id="133" transform="matrix(1 0 0 -1 0 612)" d="M49.85703 69.32715L742.1429 69.32715L742.1429 68.78418L49.85703 68.78418zM49.85703 81.27246L742.1429 81.27246L742.1429 80.72949L49.85703 80.72949zM49.85703 93.21777L742.1429 93.21777L742.1429 92.6748L49.85703 92.6748zM49.85703 114.9365L742.1429 114.9365L742.1429 114.3936L49.85703 114.3936zM49.85703 126.8818L742.1429 126.8818L742.1429 126.3389L49.85703 126.3389zM49.85703 138.8271L742.1429 138.8271L742.1429 138.2842L49.85703 138.2842zM49.85703 160.5459L742.1429 160.5459L742.1429 160.0029L49.85703 160.0029zM49.85703 172.4912L742.1429 172.4912L742.1429 171.9482L49.85703 171.9482zM49.85703 194.21L742.1429 194.21L742.1429 193.667L49.85703 193.667zM49.85703 225.1592L742.1429 225.1592L742.1429 224.6162L49.85703 224.6162zM49.85703 246.8779L742.1429 246.8779L742.1429 246.335L49.85703 246.335zM49.85703 258.8232L742.1429 258.8232L742.1429 258.2803L49.85703 258.2803zM49.85703 270.7686L742.1429 270.7686L742.1429 270.2256L49.85703 270.2256zM49.85703 282.7139L742.1429 282.7139L742.1429 282.1709L49.85703 282.1709zM49.85703 294.6597L742.1429 294.6597L742.1429 294.1167L49.85703 294.1167zM49.85703 306.605L742.1429 306.605L742.1429 306.062L49.85703 306.062zM49.85703 328.3237L742.1429 328.3237L742.1429 327.7808L49.85703 327.7808zM49.85703 340.269L742.1429 340.269L742.1429 339.7261L49.85703 339.7261zM49.85703 352.2144L742.1429 352.2144L742.1429 351.6714L49.85703 351.6714zM49.85703 364.1597L742.1429 364.1597L742.1429 363.6167L49.85703 363.6167zM49.85703 376.105L742.1429 376.105L742.1429 375.562L49.85703 375.562zM49.85703 388.0503L742.1429 388.0503L742.1429 387.5073L49.85703 387.5073zM49.85703 399.9956L742.1429 399.9956L742.1429 399.4526L49.85703 399.4526zM49.85703 411.9409L742.1429 411.9409L742.1429 411.3979L49.85703 411.3979zM49.85703 423.8862L742.1429 423.8862L742.1429 423.3433L49.85703 423.3433zM49.85703 435.8315L742.1429 435.8315L742.1429 435.2886L49.85703 435.2886zM49.85703 457.5503L742.1429 457.5503L742.1429 457.0073L49.85703 457.0073zM49.85703 479.269L742.1429 479.269L742.1429 478.7261L49.85703 478.7261zM49.85703 491.2144L742.1429 491.2144L742.1429 490.6714L49.85703 490.6714zM49.85703 512.9331L742.1429 512.9331L742.1429 512.3901L49.85703 512.3901zM49.85703 534.6519L742.1429 534.6519L742.1429 534.1089L49.85703 534.1089zM49.85703 546.5972L742.1429 546.5972L742.1429 546.0542L49.85703 546.0542zM49.85703 558.5425L742.1429 558.5425L742.1429 557.9995L49.85703 557.9995zM742.1429 80.72949L742.1429 69.32715L741.6 69.32715L741.6 80.72949zM742.1429 92.6748L742.1429 81.27246L741.6 81.27246L741.6 92.6748zM742.1429 114.3936L742.1429 93.21777L741.6 93.21777L741.6 114.3936zM742.1429 126.3389L742.1429 114.9365L741.6 114.9365L741.6 126.3389zM742.1429 138.2842L742.1429 126.8818L741.6 126.8818L741.6 138.2842zM742.1429 160.0029L742.1429 138.8271L741.6 138.8271L741.6 160.0029zM742.1429 171.9482L742.1429 160.5459L741.6 160.5459L741.6 171.9482zM742.1429 193.667L742.1429 172.4912L741.6 172.4912L741.6 193.667zM742.1429 224.6162L742.1429 194.21L741.6 194.21L741.6 224.6162zM742.1429 246.335L742.1429 225.1592L741.6 225.1592L741.6 246.335zM742.1429 258.2803L742.1429 246.8779L741.6 246.8779L741.6 258.2803zM742.1429 270.2256L742.1429 258.8232L741.6 258.8232L741.6 270.2256zM742.1429 282.1709L742.1429 270.7686L741.6 270.7686L741.6 282.1709zM742.1429 294.1167L742.1429 282.7139L741.6 282.7139L741.6 294.1167zM742.1429 306.062L742.1429 294.6597L741.6 294.6597L741.6 306.062zM742.1429 327.7808L742.1429 306.605L741.6 306.605L741.6 327.7808zM742.1429 339.7261L742.1429 328.3237L741.6 328.3237L741.6 339.7261zM742.1429 351.6714L742.1429 340.269L741.6 340.269L741.6 351.6714zM742.1429 363.6167L742.1429 352.2144L741.6 352.2144L741.6 363.6167zM742.1429 375.562L742.1429 364.1597L741.6 364.1597L741.6 375.562zM742.1429 387.5073L742.1429 376.105L741.6 376.105L741.6 387.5073zM742.1429 399.4526L742.1429 388.0503L741.6 388.0503L741.6 399.4526zM742.1429 411.3979L742.1429 399.9956L741.6 399.9956L741.6 411.3979zM742.1429 423.3433L742.1429 411.9409L741.6 411.9409L741.6 423.3433zM742.1429 435.2886L742.1429 423.8862L741.6 423.8862L741.6 435.2886zM742.1429 457.0073L742.1429 435.8315L741.6 435.8315L741.6 457.0073zM742.1429 478.7261L742.1429 457.5503L741.6 457.5503L741.6 478.7261zM742.1429 490.6714L742.1429 479.269L741.6 479.269L741.6 490.6714zM742.1429 512.3901L742.1429 491.2144L741.6 491.2144L741.6 512.3901zM742.1429 534.1089L742.1429 512.9331L741.6 512.9331L741.6 534.1089zM742.1429 546.0542L742.1429 534.6519L741.6 534.6519L741.6 546.0542zM742.1429 557.9995L742.1429 546.5972L741.6 546.5972L741.6 557.9995zM691.1039 80.72949L691.1039 69.32715L690.5609 69.32715L690.5609 80.72949zM691.1039 92.6748L691.1039 81.27246L690.5609 81.27246L690.5609 92.6748zM691.1039 114.3936L691.1039 93.21777L690.5609 93.21777L690.5609 114.3936zM691.1039 126.3389L691.1039 114.9365L690.5609 114.9365L690.5609 126.3389zM691.1039 138.2842L691.1039 126.8818L690.5609 126.8818L690.5609 138.2842zM691.1039 160.0029L691.1039 138.8271L690.5609 138.8271L690.5609 160.0029zM691.1039 171.9482L691.1039 160.5459L690.5609 160.5459L690.5609 171.9482zM691.1039 193.667L691.1039 172.4912L690.5609 172.4912L690.5609 193.667zM691.1039 224.6162L691.1039 194.21L690.5609 194.21L690.5609 224.6162zM691.1039 246.335L691.1039 225.1592L690.5609 225.1592L690.5609 246.335zM691.1039 258.2803L691.1039 246.8779L690.5609 246.8779L690.5609 258.2803zM691.1039 270.2256L691.1039 258.8232L690.5609 258.8232L690.5609 270.2256zM691.1039 282.1709L691.1039 270.7686L690.5609 270.7686L690.5609 282.1709zM691.1039 294.1167L691.1039 282.7139L690.5609 282.7139L690.5609 294.1167zM691.1039 306.062L691.1039 294.6597L690.5609 294.6597L690.5609 306.062zM691.1039 327.7808L691.1039 306.605L690.5609 306.605L690.5609 327.7808zM691.1039 339.7261L691.1039 328.3237L690.5609 328.3237L690.5609 339.7261zM691.1039 351.6714L691.1039 340.269L690.5609 340.269L690.5609 351.6714zM691.1039 363.6167L691.1039 352.2144L690.5609 352.2144L690.5609 363.6167zM691.1039 375.562L691.1039 364.1597L690.5609 364.1597L690.5609 375.562zM691.1039 387.5073L691.1039 376.105L690.5609 376.105L690.5609 387.5073zM691.1039 399.4526L691.1039 388.0503L690.5609 388.0503L690.5609 399.4526zM691.1039 411.3979L691.1039 399.9956L690.5609 399.9956L690.5609 411.3979zM691.1039 423.3433L691.1039 411.9409L690.5609 411.9409L690.5609 423.3433zM691.1039 435.2886L691.1039 423.8862L690.5609 423.8862L690.5609 435.2886zM691.1039 457.0073L691.1039 435.8315L690.5609 435.8315L690.5609 457.0073zM691.1039 478.7261L691.1039 457.5503L690.5609 457.5503L690.5609 478.7261zM691.1039 490.6714L691.1039 479.269L690.5609 479.269L690.5609 490.6714zM691.1039 512.3901L691.1039 491.2144L690.5609 491.2144L690.5609 512.3901zM691.1039 534.1089L691.1039 512.9331L690.5609 512.9331L690.5609 534.1089zM691.1039 546.0542L691.1039 534.6519L690.5609 534.6519L690.5609 546.0542zM691.1039 557.9995L691.1039 546.5972L690.5609 546.5972L690.5609 557.9995zM417.9902 80.72949L417.9902 69.32715L417.4473 69.32715L417.4473 80.72949zM417.9902 92.6748L417.9902 81.27246L417.4473 81.27246L417.4473 92.6748zM417.9902 114.3936L417.9902 93.21777L417.4473 93.21777L417.4473 114.3936zM417.9902 126.3389L417.9902 114.9365L417.4473 114.9365L417.4473 126.3389zM417.9902 138.2842L417.9902 126.8818L417.4473 126.8818L417.4473 138.2842zM417.9902 160.0029L417.9902 138.8271L417.4473 138.8271L417.4473 160.0029zM417.9902 171.9482L417.9902 160.5459L417.4473 160.5459L417.4473 171.9482zM417.9902 193.667L417.9902 172.4912L417.4473 172.4912L417.4473 193.667zM417.9902 224.6162L417.9902 194.21L417.4473 194.21L417.4473 224.6162zM417.9902 246.335L417.9902 225.1592L417.4473 225.1592L417.4473 246.335zM417.9902 258.2803L417.9902 246.8779L417.4473 246.8779L417.4473 258.2803zM417.9902 270.2256L417.9902 258.8232L417.4473 258.8232L417.4473 270.2256zM417.9902 282.1709L417.9902 270.7686L417.4473 270.7686L417.4473 282.1709zM417.9902 294.1167L417.9902 282.7139L417.4473 282.7139L417.4473 294.1167zM417.9902 306.062L417.9902 294.6597L417.4473 294.6597L417.4473 306.062zM417.9902 327.7808L417.9902 306.605L417.4473 306.605L417.4473 327.7808zM417.9902 339.7261L417.9902 328.3237L417.4473 328.3237L417.4473 339.7261zM417.9902 351.6714L417.9902 340.269L417.4473 340.269L417.4473 351.6714zM417.9902 363.6167L417.9902 352.2144L417.4473 352.2144L417.4473 363.6167zM417.9902 375.562L417.9902 364.1597L417.4473 364.1597L417.4473 375.562zM417.9902 387.5073L417.9902 376.105L417.4473 376.105L417.4473 387.5073zM417.9902 399.4526L417.9902 388.0503L417.4473 388.0503L417.4473 399.4526zM417.9902 411.3979L417.9902 399.9956L417.4473 399.9956L417.4473 411.3979zM417.9902 423.3433L417.9902 411.9409L417.4473 411.9409L417.4473 423.3433zM417.9902 435.2886L417.9902 423.8862L417.4473 423.8862L417.4473 435.2886zM417.9902 457.0073L417.9902 435.8315L417.4473 435.8315L417.4473 457.0073zM417.9902 478.7261L417.9902 457.5503L417.4473 457.5503L417.4473 478.7261zM417.9902 490.6714L417.9902 479.269L417.4473 479.269L417.4473 490.6714zM417.9902 512.3901L417.9902 491.2144L417.4473 491.2144L417.4473 512.3901zM417.9902 534.1089L417.9902 512.9331L417.4473 512.9331L417.4473 534.1089zM417.9902 546.0542L417.9902 534.6519L417.4473 534.6519L417.4473 546.0542zM417.9902 557.9995L417.9902 546.5972L417.4473 546.5972L417.4473 557.9995zM144.8767 80.72949L144.8767 69.32715L144.3337 69.32715L144.3337 80.72949zM144.8767 92.6748L144.8767 81.27246L144.3337 81.27246L144.3337 92.6748zM144.8767 114.3936L144.8767 93.21777L144.3337 93.21777L144.3337 114.3936zM144.8767 126.3389L144.8767 114.9365L144.3337 114.9365L144.3337 126.3389zM144.8767 138.2842L144.8767 126.8818L144.3337 126.8818L144.3337 138.2842zM144.8767 160.0029L144.8767 138.8271L144.3337 138.8271L144.3337 160.0029zM144.8767 171.9482L144.8767 160.5459L144.3337 160.5459L144.3337 171.9482zM144.8767 193.667L144.8767 172.4912L144.3337 172.4912L144.3337 193.667zM144.8767 224.6162L144.8767 194.21L144.3337 194.21L144.3337 224.6162zM144.8767 246.335L144.8767 225.1592L144.3337 225.1592L144.3337 246.335zM144.8767 258.2803L144.8767 246.8779L144.3337 246.8779L144.3337 258.2803zM144.8767 270.2256L144.8767 258.8232L144.3337 258.8232L144.3337 270.2256zM144.8767 282.1709L144.8767 270.7686L144.3337 270.7686L144.3337 282.1709zM144.8767 294.1167L144.8767 282.7139L144.3337 282.7139L144.3337 294.1167zM144.8767 306.062L144.8767 294.6597L144.3337 294.6597L144.3337 306.062zM144.8767 327.7808L144.8767 306.605L144.3337 306.605L144.3337 327.7808zM144.8767 339.7261L144.8767 328.3237L144.3337 328.3237L144.3337 339.7261zM144.8767 351.6714L144.8767 340.269L144.3337 340.269L144.3337 351.6714zM144.8767 363.6167L144.8767 352.2144L144.3337 352.2144L144.3337 363.6167zM144.8767 375.562L144.8767 364.1597L144.3337 364.1597L144.3337 375.562zM144.8767 387.5073L144.8767 376.105L144.3337 376.105L144.3337 387.5073zM144.8767 399.4526L144.8767 388.0503L144.3337 388.0503L144.3337 399.4526zM144.8767 411.3979L144.8767 399.9956L144.3337 399.9956L144.3337 411.3979zM144.8767 423.3433L144.8767 411.9409L144.3337 411.9409L144.3337 423.3433zM144.8767 435.2886L144.8767 423.8862L144.3337 423.8862L144.3337 435.2886zM144.8767 457.0073L144.8767 435.8315L144.3337 435.8315L144.3337 457.0073zM144.8767 478.7261L144.8767 457.5503L144.3337 457.5503L144.3337 478.7261zM144.8767 490.6714L144.8767 479.269L144.3337 479.269L144.3337 490.6714zM144.8767 512.3901L144.8767 491.2144L144.3337 491.2144L144.3337 512.3901zM144.8767 534.1089L144.8767 512.9331L144.3337 512.9331L144.3337 534.1089zM144.8767 546.0542L144.8767 534.6519L144.3337 534.6519L144.3337 546.0542zM144.8767 557.9995L144.8767 546.5972L144.3337 546.5972L144.3337 557.9995zM74.83362 80.72949L74.83362 69.32715L74.29065 69.32715L74.29065 80.72949zM74.83362 92.6748L74.83362 81.27246L74.29065 81.27246L74.29065 92.6748zM74.83362 114.3936L74.83362 93.21777L74.29065 93.21777L74.29065 114.3936zM74.83362 126.3389L74.83362 114.9365L74.29065 114.9365L74.29065 126.3389zM74.83362 138.2842L74.83362 126.8818L74.29065 126.8818L74.29065 138.2842zM74.83362 160.0029L74.83362 138.8271L74.29065 138.8271L74.29065 160.0029zM74.83362 171.9482L74.83362 160.5459L74.29065 160.5459L74.29065 171.9482zM74.83362 193.667L74.83362 172.4912L74.29065 172.4912L74.29065 193.667zM74.83362 224.6162L74.83362 194.21L74.29065 194.21L74.29065 224.6162zM74.83362 246.335L74.83362 225.1592L74.29065 225.1592L74.29065 246.335zM74.83362 258.2803L74.83362 246.8779L74.29065 246.8779L74.29065 258.2803zM74.83362 270.2256L74.83362 258.8232L74.29065 258.8232L74.29065 270.2256zM74.83362 282.1709L74.83362 270.7686L74.29065 270.7686L74.29065 282.1709zM74.83362 294.1167L74.83362 282.7139L74.29065 282.7139L74.29065 294.1167zM74.83362 306.062L74.83362 294.6597L74.29065 294.6597L74.29065 306.062zM74.83362 327.7808L74.83362 306.605L74.29065 306.605L74.29065 327.7808zM74.83362 339.7261L74.83362 328.3237L74.29065 328.3237L74.29065 339.7261zM74.83362 351.6714L74.83362 340.269L74.29065 340.269L74.29065 351.6714zM74.83362 363.6167L74.83362 352.2144L74.29065 352.2144L74.29065 363.6167zM74.83362 375.562L74.83362 364.1597L74.29065 364.1597L74.29065 375.562zM74.83362 387.5073L74.83362 376.105L74.29065 376.105L74.29065 387.5073zM74.83362 399.4526L74.83362 388.0503L74.29065 388.0503L74.29065 399.4526zM74.83362 411.3979L74.83362 399.9956L74.29065 399.9956L74.29065 411.3979zM74.83362 423.3433L74.83362 411.9409L74.29065 411.9409L74.29065 423.3433zM74.83362 435.2886L74.83362 423.8862L74.29065 423.8862L74.29065 435.2886zM74.83362 457.0073L74.83362 435.8315L74.29065 435.8315L74.29065 457.0073zM74.83362 478.7261L74.83362 457.5503L74.29065 457.5503L74.29065 478.7261zM74.83362 490.6714L74.83362 479.269L74.29065 479.269L74.29065 490.6714zM74.83362 512.3901L74.83362 491.2144L74.29065 491.2144L74.29065 512.3901zM74.83362 534.1089L74.83362 512.9331L74.29065 512.9331L74.29065 534.1089zM74.83362 546.0542L74.83362 534.6519L74.29065 534.6519L74.29065 546.0542zM74.83362 557.9995L74.83362 546.5972L74.29065 546.5972L74.29065 557.9995zM50.39999 80.72949L50.39999 69.32715L49.85703 69.32715L49.85703 80.72949zM50.39999 92.6748L50.39999 81.27246L49.85703 81.27246L49.85703 92.6748zM50.39999 114.3936L50.39999 93.21777L49.85703 93.21777L49.85703 114.3936zM50.39999 126.3389L50.39999 114.9365L49.85703 114.9365L49.85703 126.3389zM50.39999 138.2842L50.39999 126.8818L49.85703 126.8818L49.85703 138.2842zM50.39999 160.0029L50.39999 138.8271L49.85703 138.8271L49.85703 160.0029zM50.39999 171.9482L50.39999 160.5459L49.85703 160.5459L49.85703 171.9482zM50.39999 193.667L50.39999 172.4912L49.85703 172.4912L49.85703 193.667zM50.39999 224.6162L50.39999 194.21L49.85703 194.21L49.85703 224.6162zM50.39999 246.335L50.39999 225.1592L49.85703 225.1592L49.85703 246.335zM50.39999 258.2803L50.39999 246.8779L49.85703 246.8779L49.85703 258.2803zM50.39999 270.2256L50.39999 258.8232L49.85703 258.8232L49.85703 270.2256zM50.39999 282.1709L50.39999 270.7686L49.85703 270.7686L49.85703 282.1709zM50.39999 294.1167L50.39999 282.7139L49.85703 282.7139L49.85703 294.1167zM50.39999 306.062L50.39999 294.6597L49.85703 294.6597L49.85703 306.062zM50.39999 327.7808L50.39999 306.605L49.85703 306.605L49.85703 327.7808zM50.39999 339.7261L50.39999 328.3237L49.85703 328.3237L49.85703 339.7261zM50.39999 351.6714L50.39999 340.269L49.85703 340.269L49.85703 351.6714zM50.39999 363.6167L50.39999 352.2144L49.85703 352.2144L49.85703 363.6167zM50.39999 375.562L50.39999 364.1597L49.85703 364.1597L49.85703 375.562zM50.39999 387.5073L50.39999 376.105L49.85703 376.105L49.85703 387.5073zM50.39999 399.4526L50.39999 388.0503L49.85703 388.0503L49.85703 399.4526zM50.39999 411.3979L50.39999 399.9956L49.85703 399.9956L49.85703 411.3979zM50.39999 423.3433L50.39999 411.9409L49.85703 411.9409L49.85703 423.3433zM50.39999 435.2886L50.39999 423.8862L49.85703 423.8862L49.85703 435.2886zM50.39999 457.0073L50.39999 435.8315L49.85703 435.8315L49.85703 457.0073zM50.39999 478.7261L50.39999 457.5503L49.85703 457.5503L49.85703 478.7261zM50.39999 490.6714L50.39999 479.269L49.85703 479.269L49.85703 490.6714zM50.39999 512.3901L50.39999 491.2144L49.85703 491.2144L49.85703 512.3901zM50.39999 534.1089L50.39999 512.9331L49.85703 512.9331L49.85703 534.1089zM50.39999 546.0542L50.39999 534.6519L49.85703 534.6519L49.85703 546.0542zM50.39999 557.9995L50.39999 546.5972L49.85703 546.5972L49.85703 557.9995z" stroke="none" fill="#000000" fill-rule="nonzero" fill-opacity="0.1490196" /><path id="271" transform="matrix(1 0 0 -1 0 612)" d="M419.6191 548.7441L613.5253 548.7441" stroke="#000000" stroke-width="0.5080263" fill="none" /><path id="367" transform="matrix(1 0 0 -1 0 612)" d="M419.6191 536.7988L555.8049 536.7988" stroke="#000000" stroke-width="0.5080263" fill="none" /><path id="568" transform="matrix(1 0 0 -1 0 612)" d="M419.6191 524.5562L683.5265 524.5562" stroke="#000000" stroke-width="0.5080263" fill="none" /><path id="580" transform="matrix(1 0 0 -1 0 612)" d="M419.6191 515.0801L454.8965 515.0801" stroke="#000000" stroke-width="0.5080263" fill="none" /><path id="760" transform="matrix(1 0 0 -1 0 612)" d="M419.6191 493.3613L644.3148 493.3613" stroke="#000000" stroke-width="0.5080263" fill="none" /><path id="925" transform="matrix(1 0 0 -1 0 612)" d="M419.6191 481.416L647.3735 481.416" stroke="#000000" stroke-width="0.5080263" fill="none" /><path id="1110" transform="matrix(1 0 0 -1 0 612)" d="M419.6191 469.1731L667.4553 469.1731" stroke="#000000" stroke-width="0.5080263" fill="none" /><path id="1120" transform="matrix(1 0 0 -1 0 612)" d="M419.6191 459.6973L451.0568 459.6973" stroke="#000000" stroke-width="0.5080263" fill="none" /><path id="1331" transform="matrix(1 0 0 -1 0 612)" d="M419.6191 447.4543L680.0204 447.4543" stroke="#000000" stroke-width="0.5080263" fill="none" /><path id="1361" transform="matrix(1 0 0 -1 0 612)" d="M419.6191 437.9785L517.0365 437.9785" stroke="#000000" stroke-width="0.5080263" fill="none" /><path id="1464" transform="matrix(1 0 0 -1 0 612)" d="M419.6191 426.0332L540.249 426.0332" stroke="#000000" stroke-width="0.5080263" fill="none" /><path id="1589" transform="matrix(1 0 0 -1 0 612)" d="M419.6191 414.0879L587.1327 414.0879" stroke="#000000" stroke-width="0.5080263" fill="none" /><path id="1663" transform="matrix(1 0 0 -1 0 612)" d="M419.6191 402.1426L497.1443 402.1426" stroke="#000000" stroke-width="0.5080263" fill="none" /><path id="1829" transform="matrix(1 0 0 -1 0 612)" d="M419.6191 390.1973L665.8217 390.1973" stroke="#000000" stroke-width="0.5080263" fill="none" /><path id="1939" transform="matrix(1 0 0 -1 0 612)" d="M419.6191 378.252L552.7194 378.252" stroke="#000000" stroke-width="0.5080263" fill="none" /><path id="2071" transform="matrix(1 0 0 -1 0 612)" d="M419.6191 366.3066L590.1724 366.3066" stroke="#000000" stroke-width="0.5080263" fill="none" /><path id="2169" transform="matrix(1 0 0 -1 0 612)" d="M419.6191 354.3613L535.0864 354.3613" stroke="#000000" stroke-width="0.5080263" fill="none" /><path id="2338" transform="matrix(1 0 0 -1 0 612)" d="M419.6191 342.416L658.8889 342.416" stroke="#000000" stroke-width="0.5080263" fill="none" /><path id="2484" transform="matrix(1 0 0 -1 0 612)" d="M419.6191 330.4707L608.6735 330.4707" stroke="#000000" stroke-width="0.5080263" fill="none" /><path id="2682" transform="matrix(1 0 0 -1 0 612)" d="M419.6191 318.2275L678.0721 318.2275" stroke="#000000" stroke-width="0.5080263" fill="none" /><path id="2690" transform="matrix(1 0 0 -1 0 612)" d="M419.6191 308.7515L441.3041 308.7515" stroke="#000000" stroke-width="0.5080263" fill="none" /><path id="2846" transform="matrix(1 0 0 -1 0 612)" d="M419.6191 296.8062L635.4868 296.8062" stroke="#000000" stroke-width="0.5080263" fill="none" /><path id="2904" transform="matrix(1 0 0 -1 0 612)" d="M419.6191 284.8608L489.6584 284.8608" stroke="#000000" stroke-width="0.5080263" fill="none" /><path id="3066" transform="matrix(1 0 0 -1 0 612)" d="M419.6191 272.9155L645.8878 272.9155" stroke="#000000" stroke-width="0.5080263" fill="none" /><path id="3248" transform="matrix(1 0 0 -1 0 612)" d="M419.6191 260.9702L682.5637 260.9702" stroke="#000000" stroke-width="0.5080263" fill="none" /><path id="3359" transform="matrix(1 0 0 -1 0 612)" d="M419.6191 249.0249L563.3591 249.0249" stroke="#000000" stroke-width="0.5080263" fill="none" /><path id="3466" transform="matrix(1 0 0 -1 0 612)" d="M419.6191 227.3062L538.4979 227.3062" stroke="#000000" stroke-width="0.5080263" fill="none" /><path id="3587" transform="matrix(1 0 0 -1 0 612)" d="M419.6191 196.3569L542.2124 196.3569" stroke="#000000" stroke-width="0.5080263" fill="none" /><path id="3806" transform="matrix(1 0 0 -1 0 612)" d="M419.6191 184.1143L683.4849 184.1143" stroke="#000000" stroke-width="0.5080263" fill="none" /><path id="3825" transform="matrix(1 0 0 -1 0 612)" d="M419.6191 174.6382L478.6965 174.6382" stroke="#000000" stroke-width="0.5080263" fill="none" /><path id="3939" transform="matrix(1 0 0 -1 0 612)" d="M419.6191 162.6929L570.1099 162.6929" stroke="#000000" stroke-width="0.5080263" fill="none" /><path id="4076" transform="matrix(1 0 0 -1 0 612)" d="M419.6191 140.9741L574.6167 140.9741" stroke="#000000" stroke-width="0.5080263" fill="none" /><path id="4247" transform="matrix(1 0 0 -1 0 612)" d="M419.6191 129.0288L660.932 129.0288" stroke="#000000" stroke-width="0.5080263" fill="none" /><path id="4388" transform="matrix(1 0 0 -1 0 612)" d="M419.6191 117.0835L599.2961 117.0835" stroke="#000000" stroke-width="0.5080263" fill="none" /><path id="4449" transform="matrix(1 0 0 -1 0 612)" d="M419.6191 95.36475L458.7665 95.36475" stroke="#000000" stroke-width="0.5080263" fill="none" /><path id="4531" transform="matrix(1 0 0 -1 0 612)" d="M419.6191 83.41943L516.612 83.41943" stroke="#000000" stroke-width="0.5080263" fill="none" /><path id="4631" transform="matrix(1 0 0 -1 0 612)" d="M419.6191 71.47412L543.2548 71.47412" stroke="#000000" stroke-width="0.5080263" fill="none" /></g></g></g></svg>