<svg xmlns="http://www.w3.org/2000/svg" xmlns:xlink="http://www.w3.org/1999/xlink" id="body_4" preserveAspectRatio="xMinYMin meet" viewBox="0 0 1056 816"><defs><clipPath id="1"><path id="" clip-rule="evenodd" transform="matrix(1 0 0 1 0 0)" d="M0 612L0 0L0 0L792 0L792 0L792 612L792 612L0 612z" /></clipPath><clipPath id="2"><path id="" clip-rule="evenodd" transform="matrix(1 0 0 1 0 0)" d="M49.31406 52.91418L742.6859 52.91418L742.6859 52.91418L742.6859 550.8171L742.6859 550.8171L49.31406 550.8171L49.31406 550.8171L49.31406 52.91418z" /></clipPath></defs><g transform="matrix(1.333333 0 0 1.333333 0 0)"><g clip-path="url(#1)"><g clip-path="url(#2)"><path id="101" transform="matrix(1 0 0 -1 0 612)" d="M49.85703 558.5428L742.1429 558.5428L742.1429 546.0546L49.85703 546.0546L49.85703 558.5428z" stroke="none" fill="#FFFFFF" fill-rule="nonzero" /><path id="102" transform="matrix(1 0 0 -1 0 612)" d="M49.85703 546.5975L742.1429 546.5975L742.1429 534.1093L49.85703 534.1093L49.85703 546.5975z" stroke="none" fill="#E0F7FA" fill-rule="nonzero" /><path id="103" transform="matrix(1 0 0 -1 0 612)" d="M49.85703 534.6522L742.1429 534.6522L742.1429 522.1639L49.85703 522.1639L49.85703 534.6522z" stroke="none" fill="#FFFFFF" fill-rule="nonzero" /><path id="104" transform="matrix(1 0 0 -1 0 612)" d="M49.85703 522.7069L742.1429 522.7069L742.1429 500.4452L49.85703 500.4452L49.85703 522.7069z" stroke="none" fill="#E0F7FA" fill-rule="nonzero" /><path id="105" transform="matrix(1 0 0 -1 0 612)" d="M49.85703 500.9882L742.1429 500.9882L742.1429 488.4999L49.85703 488.4999L49.85703 500.9882z" stroke="none" fill="#FFFFFF" fill-rule="nonzero" /><path id="106" transform="matrix(1 0 0 -1 0 612)" d="M49.85703 489.0428L742.1429 489.0428L742.1429 476.5544L49.85703 476.5544L49.85703 489.0428z" stroke="none" fill="#E0F7FA" fill-rule="nonzero" /><path id="107" transform="matrix(1 0 0 -1 0 612)" d="M49.85703 477.0974L742.1429 477.0974L742.1429 454.8357L49.85703 454.8357L49.85703 477.0974z" stroke="none" fill="#FFFFFF" fill-rule="nonzero" /><path id="108" transform="matrix(1 0 0 -1 0 612)" d="M49.85703 455.3787L742.1429 455.3787L742.1429 442.8904L49.85703 442.8904L49.85703 455.3787z" stroke="none" fill="#E0F7FA" fill-rule="nonzero" /><path id="109" transform="matrix(1 0 0 -1 0 612)" d="M49.85703 443.4333L742.1429 443.4333L742.1429 430.9451L49.85703 430.9451L49.85703 443.4333z" stroke="none" fill="#FFFFFF" fill-rule="nonzero" /><path id="110" transform="matrix(1 0 0 -1 0 612)" d="M49.85703 431.488L742.1429 431.488L742.1429 418.9998L49.85703 418.9998L49.85703 431.488z" stroke="none" fill="#E0F7FA" fill-rule="nonzero" /><path id="111" transform="matrix(1 0 0 -1 0 612)" d="M49.85703 419.5427L742.1429 419.5427L742.1429 407.0544L49.85703 407.0544L49.85703 419.5427z" stroke="none" fill="#FFFFFF" fill-rule="nonzero" /><path id="112" transform="matrix(1 0 0 -1 0 612)" d="M49.85703 407.5974L742.1429 407.5974L742.1429 385.3357L49.85703 385.3357L49.85703 407.5974z" stroke="none" fill="#E0F7FA" fill-rule="nonzero" /><path id="113" transform="matrix(1 0 0 -1 0 612)" d="M49.85703 385.8787L742.1429 385.8787L742.1429 373.3903L49.85703 373.3903L49.85703 385.8787z" stroke="none" fill="#FFFFFF" fill-rule="nonzero" /><path id="114" transform="matrix(1 0 0 -1 0 612)" d="M49.85703 373.9332L742.1429 373.9332L742.1429 351.6715L49.85703 351.6715L49.85703 373.9332z" stroke="none" fill="#E0F7FA" fill-rule="nonzero" /><path id="115" transform="matrix(1 0 0 -1 0 612)" d="M49.85703 352.2145L742.1429 352.2145L742.1429 339.7262L49.85703 339.7262L49.85703 352.2145z" stroke="none" fill="#FFFFFF" fill-rule="nonzero" /><path id="116" transform="matrix(1 0 0 -1 0 612)" d="M49.85703 340.2692L742.1429 340.2692L742.1429 327.7809L49.85703 327.7809L49.85703 340.2692z" stroke="none" fill="#E0F7FA" fill-rule="nonzero" /><path id="117" transform="matrix(1 0 0 -1 0 612)" d="M49.85703 328.3239L742.1429 328.3239L742.1429 315.8356L49.85703 315.8356L49.85703 328.3239z" stroke="none" fill="#FFFFFF" fill-rule="nonzero" /><path id="118" transform="matrix(1 0 0 -1 0 612)" d="M49.85703 316.3785L742.1429 316.3785L742.1429 303.8903L49.85703 303.8903L49.85703 316.3785z" stroke="none" fill="#E0F7FA" fill-rule="nonzero" /><path id="119" transform="matrix(1 0 0 -1 0 612)" d="M49.85703 304.4332L742.1429 304.4332L742.1429 291.9449L49.85703 291.9449L49.85703 304.4332z" stroke="none" fill="#FFFFFF" fill-rule="nonzero" /><path id="120" transform="matrix(1 0 0 -1 0 612)" d="M49.85703 292.4879L742.1429 292.4879L742.1429 279.9996L49.85703 279.9996L49.85703 292.4879z" stroke="none" fill="#E0F7FA" fill-rule="nonzero" /><path id="121" transform="matrix(1 0 0 -1 0 612)" d="M49.85703 280.5426L742.1429 280.5426L742.1429 268.0542L49.85703 268.0542L49.85703 280.5426z" stroke="none" fill="#FFFFFF" fill-rule="nonzero" /><path id="122" transform="matrix(1 0 0 -1 0 612)" d="M49.85703 268.5972L742.1429 268.5972L742.1429 256.1089L49.85703 256.1089L49.85703 268.5972z" stroke="none" fill="#E0F7FA" fill-rule="nonzero" /><path id="123" transform="matrix(1 0 0 -1 0 612)" d="M49.85703 256.6519L742.1429 256.6519L742.1429 234.3901L49.85703 234.3901L49.85703 256.6519z" stroke="none" fill="#FFFFFF" fill-rule="nonzero" /><path id="124" transform="matrix(1 0 0 -1 0 612)" d="M49.85703 234.9331L742.1429 234.9331L742.1429 212.6714L49.85703 212.6714L49.85703 234.9331z" stroke="none" fill="#E0F7FA" fill-rule="nonzero" /><path id="125" transform="matrix(1 0 0 -1 0 612)" d="M49.85703 213.2144L742.1429 213.2144L742.1429 200.7261L49.85703 200.7261L49.85703 213.2144z" stroke="none" fill="#FFFFFF" fill-rule="nonzero" /><path id="126" transform="matrix(1 0 0 -1 0 612)" d="M49.85703 201.269L742.1429 201.269L742.1429 188.7808L49.85703 188.7808L49.85703 201.269z" stroke="none" fill="#E0F7FA" fill-rule="nonzero" /><path id="127" transform="matrix(1 0 0 -1 0 612)" d="M49.85703 189.3237L742.1429 189.3237L742.1429 176.8353L49.85703 176.8353L49.85703 189.3237z" stroke="none" fill="#FFFFFF" fill-rule="nonzero" /><path id="128" transform="matrix(1 0 0 -1 0 612)" d="M49.85703 177.3783L742.1429 177.3783L742.1429 164.89L49.85703 164.89L49.85703 177.3783z" stroke="none" fill="#E0F7FA" fill-rule="nonzero" /><path id="129" transform="matrix(1 0 0 -1 0 612)" d="M49.85703 165.433L742.1429 165.433L742.1429 152.9447L49.85703 152.9447L49.85703 165.433z" stroke="none" fill="#FFFFFF" fill-rule="nonzero" /><path id="130" transform="matrix(1 0 0 -1 0 612)" d="M49.85703 153.4877L742.1429 153.4877L742.1429 140.9994L49.85703 140.9994L49.85703 153.4877z" stroke="none" fill="#E0F7FA" fill-rule="nonzero" /><path id="131" transform="matrix(1 0 0 -1 0 612)" d="M49.85703 141.5424L742.1429 141.5424L742.1429 129.0541L49.85703 129.0541L49.85703 141.5424z" stroke="none" fill="#FFFFFF" fill-rule="nonzero" /><path id="132" transform="matrix(1 0 0 -1 0 612)" d="M49.85703 129.597L742.1429 129.597L742.1429 117.1088L49.85703 117.1088L49.85703 129.597z" stroke="none" fill="#E0F7FA" fill-rule="nonzero" /><path id="133" transform="matrix(1 0 0 -1 0 612)" d="M49.85703 117.6517L742.1429 117.6517L742.1429 95.39001L49.85703 95.39001L49.85703 117.6517z" stroke="none" fill="#FFFFFF" fill-rule="nonzero" /><path id="134" transform="matrix(1 0 0 -1 0 612)" d="M49.85703 95.93298L742.1429 95.93298L742.1429 83.4447L49.85703 83.4447L49.85703 95.93298z" stroke="none" fill="#E0F7FA" fill-rule="nonzero" /><path id="135" transform="matrix(1 0 0 -1 0 612)" d="M49.85703 83.98767L742.1429 83.98767L742.1429 61.72583L49.85703 61.72583L49.85703 83.98767z" stroke="none" fill="#FFFFFF" fill-rule="nonzero" /><path id="136" transform="matrix(1 0 0 -1 0 612)" d="M49.85703 62.2688L742.1429 62.2688L742.1429 61.72583L49.85703 61.72583zM49.85703 83.98767L742.1429 83.98767L742.1429 83.4447L49.85703 83.4447zM49.85703 95.93298L742.1429 95.93298L742.1429 95.39001L49.85703 95.39001zM49.85703 117.6517L742.1429 117.6517L742.1429 117.1088L49.85703 117.1088zM49.85703 129.597L742.1429 129.597L742.1429 129.0541L49.85703 129.0541zM49.85703 141.5424L742.1429 141.5424L742.1429 140.9994L49.85703 140.9994zM49.85703 153.4877L742.1429 153.4877L742.1429 152.9447L49.85703 152.9447zM49.85703 165.433L742.1429 165.433L742.1429 164.89L49.85703 164.89zM49.85703 177.3783L742.1429 177.3783L742.1429 176.8353L49.85703 176.8353zM49.85703 189.3237L742.1429 189.3237L742.1429 188.7808L49.85703 188.7808zM49.85703 201.269L742.1429 201.269L742.1429 200.7261L49.85703 200.7261zM49.85703 213.2144L742.1429 213.2144L742.1429 212.6714L49.85703 212.6714zM49.85703 234.9331L742.1429 234.9331L742.1429 234.3901L49.85703 234.3901zM49.85703 256.6519L742.1429 256.6519L742.1429 256.1089L49.85703 256.1089zM49.85703 268.5972L742.1429 268.5972L742.1429 268.0542L49.85703 268.0542zM49.85703 280.5426L742.1429 280.5426L742.1429 279.9996L49.85703 279.9996zM49.85703 292.4879L742.1429 292.4879L742.1429 291.9449L49.85703 291.9449zM49.85703 304.4332L742.1429 304.4332L742.1429 303.8903L49.85703 303.8903zM49.85703 316.3785L742.1429 316.3785L742.1429 315.8356L49.85703 315.8356zM49.85703 328.3239L742.1429 328.3239L742.1429 327.7809L49.85703 327.7809zM49.85703 340.2692L742.1429 340.2692L742.1429 339.7262L49.85703 339.7262zM49.85703 352.2145L742.1429 352.2145L742.1429 351.6715L49.85703 351.6715zM49.85703 373.9332L742.1429 373.9332L742.1429 373.3903L49.85703 373.3903zM49.85703 385.8787L742.1429 385.8787L742.1429 385.3357L49.85703 385.3357zM49.85703 407.5974L742.1429 407.5974L742.1429 407.0544L49.85703 407.0544zM49.85703 419.5427L742.1429 419.5427L742.1429 418.9998L49.85703 418.9998zM49.85703 431.488L742.1429 431.488L742.1429 430.9451L49.85703 430.9451zM49.85703 443.4333L742.1429 443.4333L742.1429 442.8904L49.85703 442.8904zM49.85703 455.3787L742.1429 455.3787L742.1429 454.8357L49.85703 454.8357zM49.85703 477.0974L742.1429 477.0974L742.1429 476.5544L49.85703 476.5544zM49.85703 489.0428L742.1429 489.0428L742.1429 488.4999L49.85703 488.4999zM49.85703 500.9882L742.1429 500.9882L742.1429 500.4452L49.85703 500.4452zM49.85703 522.7069L742.1429 522.7069L742.1429 522.1639L49.85703 522.1639zM49.85703 534.6522L742.1429 534.6522L742.1429 534.1093L49.85703 534.1093zM49.85703 546.5975L742.1429 546.5975L742.1429 546.0546L49.85703 546.0546zM49.85703 558.5428L742.1429 558.5428L742.1429 557.9999L49.85703 557.9999zM742.1429 83.4447L742.1429 62.2688L741.6 62.2688L741.6 83.4447zM742.1429 95.39001L742.1429 83.98767L741.6 83.98767L741.6 95.39001zM742.1429 117.1088L742.1429 95.93298L741.6 95.93298L741.6 117.1088zM742.1429 129.0541L742.1429 117.6517L741.6 117.6517L741.6 129.0541zM742.1429 140.9994L742.1429 129.597L741.6 129.597L741.6 140.9994zM742.1429 152.9447L742.1429 141.5424L741.6 141.5424L741.6 152.9447zM742.1429 164.89L742.1429 153.4877L741.6 153.4877L741.6 164.89zM742.1429 176.8353L742.1429 165.433L741.6 165.433L741.6 176.8353zM742.1429 188.7808L742.1429 177.3783L741.6 177.3783L741.6 188.7808zM742.1429 200.7261L742.1429 189.3237L741.6 189.3237L741.6 200.7261zM742.1429 212.6714L742.1429 201.269L741.6 201.269L741.6 212.6714zM742.1429 234.3901L742.1429 213.2144L741.6 213.2144L741.6 234.3901zM742.1429 256.1089L742.1429 234.9331L741.6 234.9331L741.6 256.1089zM742.1429 268.0542L742.1429 256.6519L741.6 256.6519L741.6 268.0542zM742.1429 279.9996L742.1429 268.5972L741.6 268.5972L741.6 279.9996zM742.1429 291.9449L742.1429 280.5426L741.6 280.5426L741.6 291.9449zM742.1429 303.8903L742.1429 292.4879L741.6 292.4879L741.6 303.8903zM742.1429 315.8356L742.1429 304.4332L741.6 304.4332L741.6 315.8356zM742.1429 327.7809L742.1429 316.3785L741.6 316.3785L741.6 327.7809zM742.1429 339.7262L742.1429 328.3239L741.6 328.3239L741.6 339.7262zM742.1429 351.6715L742.1429 340.2692L741.6 340.2692L741.6 351.6715zM742.1429 373.3903L742.1429 352.2145L741.6 352.2145L741.6 373.3903zM742.1429 385.3357L742.1429 373.9332L741.6 373.9332L741.6 385.3357zM742.1429 407.0544L742.1429 385.8787L741.6 385.8787L741.6 407.0544zM742.1429 418.9998L742.1429 407.5974L741.6 407.5974L741.6 418.9998zM742.1429 430.9451L742.1429 419.5427L741.6 419.5427L741.6 430.9451zM742.1429 442.8904L742.1429 431.488L741.6 431.488L741.6 442.8904zM742.1429 454.8357L742.1429 443.4333L741.6 443.4333L741.6 454.8357zM742.1429 476.5544L742.1429 455.3787L741.6 455.3787L741.6 476.5544zM742.1429 488.4999L742.1429 477.0974L741.6 477.0974L741.6 488.4999zM742.1429 500.4452L742.1429 489.0428L741.6 489.0428L741.6 500.4452zM742.1429 522.1639L742.1429 500.9882L741.6 500.9882L741.6 522.1639zM742.1429 534.1093L742.1429 522.7069L741.6 522.7069L741.6 534.1093zM742.1429 546.0546L742.1429 534.6522L741.6 534.6522L741.6 546.0546zM742.1429 557.9999L742.1429 546.5975L741.6 546.5975L741.6 557.9999zM691.1039 83.4447L691.1039 62.2688L690.5609 62.2688L690.5609 83.4447zM691.1039 95.39001L691.1039 83.98767L690.5609 83.98767L690.5609 95.39001zM691.1039 117.1088L691.1039 95.93298L690.5609 95.93298L690.5609 117.1088zM691.1039 129.0541L691.1039 117.6517L690.5609 117.6517L690.5609 129.0541zM691.1039 140.9994L691.1039 129.597L690.5609 129.597L690.5609 140.9994zM691.1039 152.9447L691.1039 141.5424L690.5609 141.5424L690.5609 152.9447zM691.1039 164.89L691.1039 153.4877L690.5609 153.4877L690.5609 164.89zM691.1039 176.8353L691.1039 165.433L690.5609 165.433L690.5609 176.8353zM691.1039 188.7808L691.1039 177.3783L690.5609 177.3783L690.5609 188.7808zM691.1039 200.7261L691.1039 189.3237L690.5609 189.3237L690.5609 200.7261zM691.1039 212.6714L691.1039 201.269L690.5609 201.269L690.5609 212.6714zM691.1039 234.3901L691.1039 213.2144L690.5609 213.2144L690.5609 234.3901zM691.1039 256.1089L691.1039 234.9331L690.5609 234.9331L690.5609 256.1089zM691.1039 268.0542L691.1039 256.6519L690.5609 256.6519L690.5609 268.0542zM691.1039 279.9996L691.1039 268.5972L690.5609 268.5972L690.5609 279.9996zM691.1039 291.9449L691.1039 280.5426L690.5609 280.5426L690.5609 291.9449zM691.1039 303.8903L691.1039 292.4879L690.5609 292.4879L690.5609 303.8903zM691.1039 315.8356L691.1039 304.4332L690.5609 304.4332L690.5609 315.8356zM691.1039 327.7809L691.1039 316.3785L690.5609 316.3785L690.5609 327.7809zM691.1039 339.7262L691.1039 328.3239L690.5609 328.3239L690.5609 339.7262zM691.1039 351.6715L691.1039 340.2692L690.5609 340.2692L690.5609 351.6715zM691.1039 373.3903L691.1039 352.2145L690.5609 352.2145L690.5609 373.3903zM691.1039 385.3357L691.1039 373.9332L690.5609 373.9332L690.5609 385.3357zM691.1039 407.0544L691.1039 385.8787L690.5609 385.8787L690.5609 407.0544zM691.1039 418.9998L691.1039 407.5974L690.5609 407.5974L690.5609 418.9998zM691.1039 430.9451L691.1039 419.5427L690.5609 419.5427L690.5609 430.9451zM691.1039 442.8904L691.1039 431.488L690.5609 431.488L690.5609 442.8904zM691.1039 454.8357L691.1039 443.4333L690.5609 443.4333L690.5609 454.8357zM691.1039 476.5544L691.1039 455.3787L690.5609 455.3787L690.5609 476.5544zM691.1039 488.4999L691.1039 477.0974L690.5609 477.0974L690.5609 488.4999zM691.1039 500.4452L691.1039 489.0428L690.5609 489.0428L690.5609 500.4452zM691.1039 522.1639L691.1039 500.9882L690.5609 500.9882L690.5609 522.1639zM691.1039 534.1093L691.1039 522.7069L690.5609 522.7069L690.5609 534.1093zM691.1039 546.0546L691.1039 534.6522L690.5609 534.6522L690.5609 546.0546zM691.1039 557.9999L691.1039 546.5975L690.5609 546.5975L690.5609 557.9999zM417.9902 83.4447L417.9902 62.2688L417.4473 62.2688L417.4473 83.4447zM417.9902 95.39001L417.9902 83.98767L417.4473 83.98767L417.4473 95.39001zM417.9902 117.1088L417.9902 95.93298L417.4473 95.93298L417.4473 117.1088zM417.9902 129.0541L417.9902 117.6517L417.4473 117.6517L417.4473 129.0541zM417.9902 140.9994L417.9902 129.597L417.4473 129.597L417.4473 140.9994zM417.9902 152.9447L417.9902 141.5424L417.4473 141.5424L417.4473 152.9447zM417.9902 164.89L417.9902 153.4877L417.4473 153.4877L417.4473 164.89zM417.9902 176.8353L417.9902 165.433L417.4473 165.433L417.4473 176.8353zM417.9902 188.7808L417.9902 177.3783L417.4473 177.3783L417.4473 188.7808zM417.9902 200.7261L417.9902 189.3237L417.4473 189.3237L417.4473 200.7261zM417.9902 212.6714L417.9902 201.269L417.4473 201.269L417.4473 212.6714zM417.9902 234.3901L417.9902 213.2144L417.4473 213.2144L417.4473 234.3901zM417.9902 256.1089L417.9902 234.9331L417.4473 234.9331L417.4473 256.1089zM417.9902 268.0542L417.9902 256.6519L417.4473 256.6519L417.4473 268.0542zM417.9902 279.9996L417.9902 268.5972L417.4473 268.5972L417.4473 279.9996zM417.9902 291.9449L417.9902 280.5426L417.4473 280.5426L417.4473 291.9449zM417.9902 303.8903L417.9902 292.4879L417.4473 292.4879L417.4473 303.8903zM417.9902 315.8356L417.9902 304.4332L417.4473 304.4332L417.4473 315.8356zM417.9902 327.7809L417.9902 316.3785L417.4473 316.3785L417.4473 327.7809zM417.9902 339.7262L417.9902 328.3239L417.4473 328.3239L417.4473 339.7262zM417.9902 351.6715L417.9902 340.2692L417.4473 340.2692L417.4473 351.6715zM417.9902 373.3903L417.9902 352.2145L417.4473 352.2145L417.4473 373.3903zM417.9902 385.3357L417.9902 373.9332L417.4473 373.9332L417.4473 385.3357zM417.9902 407.0544L417.9902 385.8787L417.4473 385.8787L417.4473 407.0544zM417.9902 418.9998L417.9902 407.5974L417.4473 407.5974L417.4473 418.9998zM417.9902 430.9451L417.9902 419.5427L417.4473 419.5427L417.4473 430.9451zM417.9902 442.8904L417.9902 431.488L417.4473 431.488L417.4473 442.8904zM417.9902 454.8357L417.9902 443.4333L417.4473 443.4333L417.4473 454.8357zM417.9902 476.5544L417.9902 455.3787L417.4473 455.3787L417.4473 476.5544zM417.9902 488.4999L417.9902 477.0974L417.4473 477.0974L417.4473 488.4999zM417.9902 500.4452L417.9902 489.0428L417.4473 489.0428L417.4473 500.4452zM417.9902 522.1639L417.9902 500.9882L417.4473 500.9882L417.4473 522.1639zM417.9902 534.1093L417.9902 522.7069L417.4473 522.7069L417.4473 534.1093zM417.9902 546.0546L417.9902 534.6522L417.4473 534.6522L417.4473 546.0546zM417.9902 557.9999L417.9902 546.5975L417.4473 546.5975L417.4473 557.9999zM144.8767 83.4447L144.8767 62.2688L144.3337 62.2688L144.3337 83.4447zM144.8767 95.39001L144.8767 83.98767L144.3337 83.98767L144.3337 95.39001zM144.8767 117.1088L144.8767 95.93298L144.3337 95.93298L144.3337 117.1088zM144.8767 129.0541L144.8767 117.6517L144.3337 117.6517L144.3337 129.0541zM144.8767 140.9994L144.8767 129.597L144.3337 129.597L144.3337 140.9994zM144.8767 152.9447L144.8767 141.5424L144.3337 141.5424L144.3337 152.9447zM144.8767 164.89L144.8767 153.4877L144.3337 153.4877L144.3337 164.89zM144.8767 176.8353L144.8767 165.433L144.3337 165.433L144.3337 176.8353zM144.8767 188.7808L144.8767 177.3783L144.3337 177.3783L144.3337 188.7808zM144.8767 200.7261L144.8767 189.3237L144.3337 189.3237L144.3337 200.7261zM144.8767 212.6714L144.8767 201.269L144.3337 201.269L144.3337 212.6714zM144.8767 234.3901L144.8767 213.2144L144.3337 213.2144L144.3337 234.3901zM144.8767 256.1089L144.8767 234.9331L144.3337 234.9331L144.3337 256.1089zM144.8767 268.0542L144.8767 256.6519L144.3337 256.6519L144.3337 268.0542zM144.8767 279.9996L144.8767 268.5972L144.3337 268.5972L144.3337 279.9996zM144.8767 291.9449L144.8767 280.5426L144.3337 280.5426L144.3337 291.9449zM144.8767 303.8903L144.8767 292.4879L144.3337 292.4879L144.3337 303.8903zM144.8767 315.8356L144.8767 304.4332L144.3337 304.4332L144.3337 315.8356zM144.8767 327.7809L144.8767 316.3785L144.3337 316.3785L144.3337 327.7809zM144.8767 339.7262L144.8767 328.3239L144.3337 328.3239L144.3337 339.7262zM144.8767 351.6715L144.8767 340.2692L144.3337 340.2692L144.3337 351.6715zM144.8767 373.3903L144.8767 352.2145L144.3337 352.2145L144.3337 373.3903zM144.8767 385.3357L144.8767 373.9332L144.3337 373.9332L144.3337 385.3357zM144.8767 407.0544L144.8767 385.8787L144.3337 385.8787L144.3337 407.0544zM144.8767 418.9998L144.8767 407.5974L144.3337 407.5974L144.3337 418.9998zM144.8767 430.9451L144.8767 419.5427L144.3337 419.5427L144.3337 430.9451zM144.8767 442.8904L144.8767 431.488L144.3337 431.488L144.3337 442.8904zM144.8767 454.8357L144.8767 443.4333L144.3337 443.4333L144.3337 454.8357zM144.8767 476.5544L144.8767 455.3787L144.3337 455.3787L144.3337 476.5544zM144.8767 488.4999L144.8767 477.0974L144.3337 477.0974L144.3337 488.4999zM144.8767 500.4452L144.8767 489.0428L144.3337 489.0428L144.3337 500.4452zM144.8767 522.1639L144.8767 500.9882L144.3337 500.9882L144.3337 522.1639zM144.8767 534.1093L144.8767 522.7069L144.3337 522.7069L144.3337 534.1093zM144.8767 546.0546L144.8767 534.6522L144.3337 534.6522L144.3337 546.0546zM144.8767 557.9999L144.8767 546.5975L144.3337 546.5975L144.3337 557.9999zM74.83362 83.4447L74.83362 62.2688L74.29065 62.2688L74.29065 83.4447zM74.83362 95.39001L74.83362 83.98767L74.29065 83.98767L74.29065 95.39001zM74.83362 117.1088L74.83362 95.93298L74.29065 95.93298L74.29065 117.1088zM74.83362 129.0541L74.83362 117.6517L74.29065 117.6517L74.29065 129.0541zM74.83362 140.9994L74.83362 129.597L74.29065 129.597L74.29065 140.9994zM74.83362 152.9447L74.83362 141.5424L74.29065 141.5424L74.29065 152.9447zM74.83362 164.89L74.83362 153.4877L74.29065 153.4877L74.29065 164.89zM74.83362 176.8353L74.83362 165.433L74.29065 165.433L74.29065 176.8353zM74.83362 188.7808L74.83362 177.3783L74.29065 177.3783L74.29065 188.7808zM74.83362 200.7261L74.83362 189.3237L74.29065 189.3237L74.29065 200.7261zM74.83362 212.6714L74.83362 201.269L74.29065 201.269L74.29065 212.6714zM74.83362 234.3901L74.83362 213.2144L74.29065 213.2144L74.29065 234.3901zM74.83362 256.1089L74.83362 234.9331L74.29065 234.9331L74.29065 256.1089zM74.83362 268.0542L74.83362 256.6519L74.29065 256.6519L74.29065 268.0542zM74.83362 279.9996L74.83362 268.5972L74.29065 268.5972L74.29065 279.9996zM74.83362 291.9449L74.83362 280.5426L74.29065 280.5426L74.29065 291.9449zM74.83362 303.8903L74.83362 292.4879L74.29065 292.4879L74.29065 303.8903zM74.83362 315.8356L74.83362 304.4332L74.29065 304.4332L74.29065 315.8356zM74.83362 327.7809L74.83362 316.3785L74.29065 316.3785L74.29065 327.7809zM74.83362 339.7262L74.83362 328.3239L74.29065 328.3239L74.29065 339.7262zM74.83362 351.6715L74.83362 340.2692L74.29065 340.2692L74.29065 351.6715zM74.83362 373.3903L74.83362 352.2145L74.29065 352.2145L74.29065 373.3903zM74.83362 385.3357L74.83362 373.9332L74.29065 373.9332L74.29065 385.3357zM74.83362 407.0544L74.83362 385.8787L74.29065 385.8787L74.29065 407.0544zM74.83362 418.9998L74.83362 407.5974L74.29065 407.5974L74.29065 418.9998zM74.83362 430.9451L74.83362 419.5427L74.29065 419.5427L74.29065 430.9451zM74.83362 442.8904L74.83362 431.488L74.29065 431.488L74.29065 442.8904zM74.83362 454.8357L74.83362 443.4333L74.29065 443.4333L74.29065 454.8357zM74.83362 476.5544L74.83362 455.3787L74.29065 455.3787L74.29065 476.5544zM74.83362 488.4999L74.83362 477.0974L74.29065 477.0974L74.29065 488.4999zM74.83362 500.4452L74.83362 489.0428L74.29065 489.0428L74.29065 500.4452zM74.83362 522.1639L74.83362 500.9882L74.29065 500.9882L74.29065 522.1639zM74.83362 534.1093L74.83362 522.7069L74.29065 522.7069L74.29065 534.1093zM74.83362 546.0546L74.83362 534.6522L74.29065 534.6522L74.29065 546.0546zM74.83362 557.9999L74.83362 546.5975L74.29065 546.5975L74.29065 557.9999zM50.39999 83.4447L50.39999 62.2688L49.85703 62.2688L49.85703 83.4447zM50.39999 95.39001L50.39999 83.98767L49.85703 83.98767L49.85703 95.39001zM50.39999 117.1088L50.39999 95.93298L49.85703 95.93298L49.85703 117.1088zM50.39999 129.0541L50.39999 117.6517L49.85703 117.6517L49.85703 129.0541zM50.39999 140.9994L50.39999 129.597L49.85703 129.597L49.85703 140.9994zM50.39999 152.9447L50.39999 141.5424L49.85703 141.5424L49.85703 152.9447zM50.39999 164.89L50.39999 153.4877L49.85703 153.4877L49.85703 164.89zM50.39999 176.8353L50.39999 165.433L49.85703 165.433L49.85703 176.8353zM50.39999 188.7808L50.39999 177.3783L49.85703 177.3783L49.85703 188.7808zM50.39999 200.7261L50.39999 189.3237L49.85703 189.3237L49.85703 200.7261zM50.39999 212.6714L50.39999 201.269L49.85703 201.269L49.85703 212.6714zM50.39999 234.3901L50.39999 213.2144L49.85703 213.2144L49.85703 234.3901zM50.39999 256.1089L50.39999 234.9331L49.85703 234.9331L49.85703 256.1089zM50.39999 268.0542L50.39999 256.6519L49.85703 256.6519L49.85703 268.0542zM50.39999 279.9996L50.39999 268.5972L49.85703 268.5972L49.85703 279.9996zM50.39999 291.9449L50.39999 280.5426L49.85703 280.5426L49.85703 291.9449zM50.39999 303.8903L50.39999 292.4879L49.85703 292.4879L49.85703 303.8903zM50.39999 315.8356L50.39999 304.4332L49.85703 304.4332L49.85703 315.8356zM50.39999 327.7809L50.39999 316.3785L49.85703 316.3785L49.85703 327.7809zM50.39999 339.7262L50.39999 328.3239L49.85703 328.3239L49.85703 339.7262zM50.39999 351.6715L50.39999 340.2692L49.85703 340.2692L49.85703 351.6715zM50.39999 373.3903L50.39999 352.2145L49.85703 352.2145L49.85703 373.3903zM50.39999 385.3357L50.39999 373.9332L49.85703 373.9332L49.85703 385.3357zM50.39999 407.0544L50.39999 385.8787L49.85703 385.8787L49.85703 407.0544zM50.39999 418.9998L50.39999 407.5974L49.85703 407.5974L49.85703 418.9998zM50.39999 430.9451L50.39999 419.5427L49.85703 419.5427L49.85703 430.9451zM50.39999 442.8904L50.39999 431.488L49.85703 431.488L49.85703 442.8904zM50.39999 454.8357L50.39999 443.4333L49.85703 443.4333L49.85703 454.8357zM50.39999 476.5544L50.39999 455.3787L49.85703 455.3787L49.85703 476.5544zM50.39999 488.4999L50.39999 477.0974L49.85703 477.0974L49.85703 488.4999zM50.39999 500.4452L50.39999 489.0428L49.85703 489.0428L49.85703 500.4452zM50.39999 522.1639L50.39999 500.9882L49.85703 500.9882L49.85703 522.1639zM50.39999 534.1093L50.39999 522.7069L49.85703 522.7069L49.85703 534.1093zM50.39999 546.0546L50.39999 534.6522L49.85703 534.6522L49.85703 546.0546zM50.39999 557.9999L50.39999 546.5975L49.85703 546.5975L49.85703 557.9999z" stroke="none" fill="#000000" fill-rule="nonzero" fill-opacity="0.1490196" /><path id="314" transform="matrix(1 0 0 -1 0 612)" d="M419.6191 548.7446L674.1073 548.7446" stroke="#000000" stroke-width="0.5080263" fill="none" /><path id="392" transform="matrix(1 0 0 -1 0 612)" d="M419.6191 536.7993L515.6454 536.7993" stroke="#000000" stroke-width="0.5080263" fill="none" /><path id="554" transform="matrix(1 0 0 -1 0 612)" d="M419.6191 524.854L647.199 524.854" stroke="#000000" stroke-width="0.5080263" fill="none" /><path id="751" transform="matrix(1 0 0 -1 0 612)" d="M419.6191 512.6112L684.7167 512.6112" stroke="#000000" stroke-width="0.5080263" fill="none" /><path id="764" transform="matrix(1 0 0 -1 0 612)" d="M419.6191 503.1353L454.6842 503.1353" stroke="#000000" stroke-width="0.5080263" fill="none" /><path id="836" transform="matrix(1 0 0 -1 0 612)" d="M419.6191 491.1899L501.9355 491.1899" stroke="#000000" stroke-width="0.5080263" fill="none" /><path id="974" transform="matrix(1 0 0 -1 0 612)" d="M419.6191 479.2445L609.2572 479.2445" stroke="#000000" stroke-width="0.5080263" fill="none" /><path id="1177" transform="matrix(1 0 0 -1 0 612)" d="M419.6191 457.5258L680.9717 457.5258" stroke="#000000" stroke-width="0.5080263" fill="none" /><path id="1355" transform="matrix(1 0 0 -1 0 612)" d="M419.6191 445.5804L676.8593 445.5804" stroke="#000000" stroke-width="0.5080263" fill="none" /><path id="1514" transform="matrix(1 0 0 -1 0 612)" d="M419.6191 433.6351L642.8782 433.6351" stroke="#000000" stroke-width="0.5080263" fill="none" /><path id="1624" transform="matrix(1 0 0 -1 0 612)" d="M419.6191 421.6898L569.2494 421.6898" stroke="#000000" stroke-width="0.5080263" fill="none" /><path id="1712" transform="matrix(1 0 0 -1 0 612)" d="M419.6191 409.7445L536.0378 409.7445" stroke="#000000" stroke-width="0.5080263" fill="none" /><path id="1911" transform="matrix(1 0 0 -1 0 612)" d="M419.6191 397.5017L661.6978 397.5017" stroke="#000000" stroke-width="0.5080263" fill="none" /><path id="1939" transform="matrix(1 0 0 -1 0 612)" d="M419.6191 388.0258L511.4836 388.0258" stroke="#000000" stroke-width="0.5080263" fill="none" /><path id="2058" transform="matrix(1 0 0 -1 0 612)" d="M419.6191 376.0803L580.0293 376.0803" stroke="#000000" stroke-width="0.5080263" fill="none" /><path id="2168" transform="matrix(1 0 0 -1 0 612)" d="M419.6191 354.3616L541.9471 354.3616" stroke="#000000" stroke-width="0.5080263" fill="none" /><path id="2314" transform="matrix(1 0 0 -1 0 612)" d="M419.6191 342.4163L621.3071 342.4163" stroke="#000000" stroke-width="0.5080263" fill="none" /><path id="2412" transform="matrix(1 0 0 -1 0 612)" d="M419.6191 330.4709L555.9982 330.4709" stroke="#000000" stroke-width="0.5080263" fill="none" /><path id="2513" transform="matrix(1 0 0 -1 0 612)" d="M419.6191 318.5256L540.9653 318.5256" stroke="#000000" stroke-width="0.5080263" fill="none" /><path id="2655" transform="matrix(1 0 0 -1 0 612)" d="M419.6191 306.5803L616.531 306.5803" stroke="#000000" stroke-width="0.5080263" fill="none" /><path id="2746" transform="matrix(1 0 0 -1 0 612)" d="M419.6191 294.635L529.7344 294.635" stroke="#000000" stroke-width="0.5080263" fill="none" /><path id="2844" transform="matrix(1 0 0 -1 0 612)" d="M419.6191 282.6896L541.4581 282.6896" stroke="#000000" stroke-width="0.5080263" fill="none" /><path id="3005" transform="matrix(1 0 0 -1 0 612)" d="M419.6191 270.7443L646.8734 270.7443" stroke="#000000" stroke-width="0.5080263" fill="none" /><path id="3127" transform="matrix(1 0 0 -1 0 612)" d="M419.6191 258.799L591.4991 258.799" stroke="#000000" stroke-width="0.5080263" fill="none" /><path id="3341" transform="matrix(1 0 0 -1 0 612)" d="M419.6191 246.5562L663.043 246.5562" stroke="#000000" stroke-width="0.5080263" fill="none" /><path id="3379" transform="matrix(1 0 0 -1 0 612)" d="M419.6191 237.0802L536.0189 237.0802" stroke="#000000" stroke-width="0.5080263" fill="none" /><path id="3506" transform="matrix(1 0 0 -1 0 612)" d="M419.6191 215.3615L569.0675 215.3615" stroke="#000000" stroke-width="0.5080263" fill="none" /><path id="3669" transform="matrix(1 0 0 -1 0 612)" d="M419.6191 203.4161L651.2397 203.4161" stroke="#000000" stroke-width="0.5080263" fill="none" /><path id="3736" transform="matrix(1 0 0 -1 0 612)" d="M419.6191 191.4708L490.2724 191.4708" stroke="#000000" stroke-width="0.5080263" fill="none" /><path id="3879" transform="matrix(1 0 0 -1 0 612)" d="M419.6191 179.5254L610.8756 179.5254" stroke="#000000" stroke-width="0.5080263" fill="none" /><path id="3929" transform="matrix(1 0 0 -1 0 612)" d="M419.6191 167.5801L469.8231 167.5801" stroke="#000000" stroke-width="0.5080263" fill="none" /><path id="4019" transform="matrix(1 0 0 -1 0 612)" d="M419.6191 155.6348L527.8317 155.6348" stroke="#000000" stroke-width="0.5080263" fill="none" /><path id="4101" transform="matrix(1 0 0 -1 0 612)" d="M419.6191 143.6895L534.1047 143.6895" stroke="#000000" stroke-width="0.5080263" fill="none" /><path id="4209" transform="matrix(1 0 0 -1 0 612)" d="M419.6191 131.7441L569.0447 131.7441" stroke="#000000" stroke-width="0.5080263" fill="none" /><path id="4335" transform="matrix(1 0 0 -1 0 612)" d="M419.6191 119.7988L590.2825 119.7988" stroke="#000000" stroke-width="0.5080263" fill="none" /><path id="4521" transform="matrix(1 0 0 -1 0 612)" d="M419.6191 107.556L649.8715 107.556" stroke="#000000" stroke-width="0.5080263" fill="none" /><path id="4539" transform="matrix(1 0 0 -1 0 612)" d="M419.6191 98.08008L470.1908 98.08008" stroke="#000000" stroke-width="0.5080263" fill="none" /><path id="4621" transform="matrix(1 0 0 -1 0 612)" d="M419.6191 86.13477L518.6588 86.13477" stroke="#000000" stroke-width="0.5080263" fill="none" /><path id="4852" transform="matrix(1 0 0 -1 0 612)" d="M419.6191 73.89197L688.6095 73.89197" stroke="#000000" stroke-width="0.5080263" fill="none" /><path id="4892" transform="matrix(1 0 0 -1 0 612)" d="M419.6191 64.41589L544.0015 64.41589" stroke="#000000" stroke-width="0.5080263" fill="none" /></g></g></g></svg>