<svg xmlns="http://www.w3.org/2000/svg" xmlns:xlink="http://www.w3.org/1999/xlink" id="body_8" preserveAspectRatio="xMinYMin meet" viewBox="0 0 1056 816"><defs><clipPath id="1"><path id="" clip-rule="evenodd" transform="matrix(1 0 0 1 0 0)" d="M0 612L0 0L0 0L792 0L792 0L792 612L792 612L0 612z" /></clipPath><clipPath id="2"><path id="" clip-rule="evenodd" transform="matrix(1 0 0 1 0 0)" d="M49.31406 52.91431L742.6859 52.91431L742.6859 52.91431L742.6859 552.4463L742.6859 552.4463L49.31406 552.4463L49.31406 552.4463L49.31406 52.91431z" /></clipPath></defs><g transform="matrix(1.333333 0 0 1.333333 0 0)"><g clip-path="url(#1)"><g clip-path="url(#2)"><path id="101" transform="matrix(1 0 0 -1 0 612)" d="M49.85703 558.5427L742.1429 558.5427L742.1429 546.0544L49.85703 546.0544L49.85703 558.5427z" stroke="none" fill="#E0F7FA" fill-rule="nonzero" /><path id="102" transform="matrix(1 0 0 -1 0 612)" d="M49.85703 546.5974L742.1429 546.5974L742.1429 534.1091L49.85703 534.1091L49.85703 546.5974z" stroke="none" fill="#FFFFFF" fill-rule="nonzero" /><path id="103" transform="matrix(1 0 0 -1 0 612)" d="M49.85703 534.6521L742.1429 534.6521L742.1429 522.1638L49.85703 522.1638L49.85703 534.6521z" stroke="none" fill="#E0F7FA" fill-rule="nonzero" /><path id="104" transform="matrix(1 0 0 -1 0 612)" d="M49.85703 522.7068L742.1429 522.7068L742.1429 500.4448L49.85703 500.4448L49.85703 522.7068z" stroke="none" fill="#FFFFFF" fill-rule="nonzero" /><path id="105" transform="matrix(1 0 0 -1 0 612)" d="M49.85703 500.9878L742.1429 500.9878L742.1429 488.4995L49.85703 488.4995L49.85703 500.9878z" stroke="none" fill="#E0F7FA" fill-rule="nonzero" /><path id="106" transform="matrix(1 0 0 -1 0 612)" d="M49.85703 489.0425L742.1429 489.0425L742.1429 466.7808L49.85703 466.7808L49.85703 489.0425z" stroke="none" fill="#FFFFFF" fill-rule="nonzero" /><path id="107" transform="matrix(1 0 0 -1 0 612)" d="M49.85703 467.3237L742.1429 467.3237L742.1429 454.8354L49.85703 454.8354L49.85703 467.3237z" stroke="none" fill="#E0F7FA" fill-rule="nonzero" /><path id="108" transform="matrix(1 0 0 -1 0 612)" d="M49.85703 455.3784L742.1429 455.3784L742.1429 442.8901L49.85703 442.8901L49.85703 455.3784z" stroke="none" fill="#FFFFFF" fill-rule="nonzero" /><path id="109" transform="matrix(1 0 0 -1 0 612)" d="M49.85703 443.4331L742.1429 443.4331L742.1429 421.1714L49.85703 421.1714L49.85703 443.4331z" stroke="none" fill="#E0F7FA" fill-rule="nonzero" /><path id="110" transform="matrix(1 0 0 -1 0 612)" d="M49.85703 421.7144L742.1429 421.7144L742.1429 409.2261L49.85703 409.2261L49.85703 421.7144z" stroke="none" fill="#FFFFFF" fill-rule="nonzero" /><path id="111" transform="matrix(1 0 0 -1 0 612)" d="M49.85703 409.769L742.1429 409.769L742.1429 397.2808L49.85703 397.2808L49.85703 409.769z" stroke="none" fill="#E0F7FA" fill-rule="nonzero" /><path id="112" transform="matrix(1 0 0 -1 0 612)" d="M49.85703 397.8237L742.1429 397.8237L742.1429 385.3354L49.85703 385.3354L49.85703 397.8237z" stroke="none" fill="#FFFFFF" fill-rule="nonzero" /><path id="113" transform="matrix(1 0 0 -1 0 612)" d="M49.85703 385.8784L742.1429 385.8784L742.1429 373.3901L49.85703 373.3901L49.85703 385.8784z" stroke="none" fill="#E0F7FA" fill-rule="nonzero" /><path id="114" transform="matrix(1 0 0 -1 0 612)" d="M49.85703 373.9331L742.1429 373.9331L742.1429 361.4448L49.85703 361.4448L49.85703 373.9331z" stroke="none" fill="#FFFFFF" fill-rule="nonzero" /><path id="115" transform="matrix(1 0 0 -1 0 612)" d="M49.85703 361.9878L742.1429 361.9878L742.1429 349.4995L49.85703 349.4995L49.85703 361.9878z" stroke="none" fill="#E0F7FA" fill-rule="nonzero" /><path id="116" transform="matrix(1 0 0 -1 0 612)" d="M49.85703 350.0425L742.1429 350.0425L742.1429 337.5542L49.85703 337.5542L49.85703 350.0425z" stroke="none" fill="#FFFFFF" fill-rule="nonzero" /><path id="117" transform="matrix(1 0 0 -1 0 612)" d="M49.85703 338.0972L742.1429 338.0972L742.1429 325.6089L49.85703 325.6089L49.85703 338.0972z" stroke="none" fill="#E0F7FA" fill-rule="nonzero" /><path id="118" transform="matrix(1 0 0 -1 0 612)" d="M49.85703 326.1519L742.1429 326.1519L742.1429 313.6636L49.85703 313.6636L49.85703 326.1519z" stroke="none" fill="#FFFFFF" fill-rule="nonzero" /><path id="119" transform="matrix(1 0 0 -1 0 612)" d="M49.85703 314.2065L742.1429 314.2065L742.1429 301.7183L49.85703 301.7183L49.85703 314.2065z" stroke="none" fill="#E0F7FA" fill-rule="nonzero" /><path id="120" transform="matrix(1 0 0 -1 0 612)" d="M49.85703 302.2612L742.1429 302.2612L742.1429 289.7727L49.85703 289.7727L49.85703 302.2612z" stroke="none" fill="#FFFFFF" fill-rule="nonzero" /><path id="121" transform="matrix(1 0 0 -1 0 612)" d="M49.85703 290.3157L742.1429 290.3157L742.1429 277.8274L49.85703 277.8274L49.85703 290.3157z" stroke="none" fill="#E0F7FA" fill-rule="nonzero" /><path id="122" transform="matrix(1 0 0 -1 0 612)" d="M49.85703 278.3704L742.1429 278.3704L742.1429 256.1086L49.85703 256.1086L49.85703 278.3704z" stroke="none" fill="#FFFFFF" fill-rule="nonzero" /><path id="123" transform="matrix(1 0 0 -1 0 612)" d="M49.85703 256.6516L742.1429 256.6516L742.1429 244.1633L49.85703 244.1633L49.85703 256.6516z" stroke="none" fill="#E0F7FA" fill-rule="nonzero" /><path id="124" transform="matrix(1 0 0 -1 0 612)" d="M49.85703 244.7063L742.1429 244.7063L742.1429 232.218L49.85703 232.218L49.85703 244.7063z" stroke="none" fill="#FFFFFF" fill-rule="nonzero" /><path id="125" transform="matrix(1 0 0 -1 0 612)" d="M49.85703 232.761L742.1429 232.761L742.1429 220.2727L49.85703 220.2727L49.85703 232.761z" stroke="none" fill="#E0F7FA" fill-rule="nonzero" /><path id="126" transform="matrix(1 0 0 -1 0 612)" d="M49.85703 220.8157L742.1429 220.8157L742.1429 208.3274L49.85703 208.3274L49.85703 220.8157z" stroke="none" fill="#FFFFFF" fill-rule="nonzero" /><path id="127" transform="matrix(1 0 0 -1 0 612)" d="M49.85703 208.8704L742.1429 208.8704L742.1429 177.3782L49.85703 177.3782L49.85703 208.8704z" stroke="none" fill="#E0F7FA" fill-rule="nonzero" /><path id="128" transform="matrix(1 0 0 -1 0 612)" d="M49.85703 177.9211L742.1429 177.9211L742.1429 165.4329L49.85703 165.4329L49.85703 177.9211z" stroke="none" fill="#FFFFFF" fill-rule="nonzero" /><path id="129" transform="matrix(1 0 0 -1 0 612)" d="M49.85703 165.9758L742.1429 165.9758L742.1429 153.4875L49.85703 153.4875L49.85703 165.9758z" stroke="none" fill="#E0F7FA" fill-rule="nonzero" /><path id="130" transform="matrix(1 0 0 -1 0 612)" d="M49.85703 154.0305L742.1429 154.0305L742.1429 141.5422L49.85703 141.5422L49.85703 154.0305z" stroke="none" fill="#FFFFFF" fill-rule="nonzero" /><path id="131" transform="matrix(1 0 0 -1 0 612)" d="M49.85703 142.0852L742.1429 142.0852L742.1429 129.5969L49.85703 129.5969L49.85703 142.0852z" stroke="none" fill="#E0F7FA" fill-rule="nonzero" /><path id="132" transform="matrix(1 0 0 -1 0 612)" d="M49.85703 130.1399L742.1429 130.1399L742.1429 117.6516L49.85703 117.6516L49.85703 130.1399z" stroke="none" fill="#FFFFFF" fill-rule="nonzero" /><path id="133" transform="matrix(1 0 0 -1 0 612)" d="M49.85703 118.1946L742.1429 118.1946L742.1429 105.7063L49.85703 105.7063L49.85703 118.1946z" stroke="none" fill="#E0F7FA" fill-rule="nonzero" /><path id="134" transform="matrix(1 0 0 -1 0 612)" d="M49.85703 106.2493L742.1429 106.2493L742.1429 93.76074L49.85703 93.76074L49.85703 106.2493z" stroke="none" fill="#FFFFFF" fill-rule="nonzero" /><path id="135" transform="matrix(1 0 0 -1 0 612)" d="M49.85703 94.30371L742.1429 94.30371L742.1429 81.81543L49.85703 81.81543L49.85703 94.30371z" stroke="none" fill="#E0F7FA" fill-rule="nonzero" /><path id="136" transform="matrix(1 0 0 -1 0 612)" d="M49.85703 82.3584L742.1429 82.3584L742.1429 60.09668L49.85703 60.09668L49.85703 82.3584z" stroke="none" fill="#FFFFFF" fill-rule="nonzero" /><path id="137" transform="matrix(1 0 0 -1 0 612)" d="M49.85703 60.63965L742.1429 60.63965L742.1429 60.09668L49.85703 60.09668zM49.85703 82.3584L742.1429 82.3584L742.1429 81.81543L49.85703 81.81543zM49.85703 94.30371L742.1429 94.30371L742.1429 93.76074L49.85703 93.76074zM49.85703 106.2493L742.1429 106.2493L742.1429 105.7063L49.85703 105.7063zM49.85703 118.1946L742.1429 118.1946L742.1429 117.6516L49.85703 117.6516zM49.85703 130.1399L742.1429 130.1399L742.1429 129.5969L49.85703 129.5969zM49.85703 142.0852L742.1429 142.0852L742.1429 141.5422L49.85703 141.5422zM49.85703 154.0305L742.1429 154.0305L742.1429 153.4875L49.85703 153.4875zM49.85703 165.9758L742.1429 165.9758L742.1429 165.4329L49.85703 165.4329zM49.85703 177.9211L742.1429 177.9211L742.1429 177.3782L49.85703 177.3782zM49.85703 208.8704L742.1429 208.8704L742.1429 208.3274L49.85703 208.3274zM49.85703 220.8157L742.1429 220.8157L742.1429 220.2727L49.85703 220.2727zM49.85703 232.761L742.1429 232.761L742.1429 232.218L49.85703 232.218zM49.85703 244.7063L742.1429 244.7063L742.1429 244.1633L49.85703 244.1633zM49.85703 256.6516L742.1429 256.6516L742.1429 256.1086L49.85703 256.1086zM49.85703 278.3704L742.1429 278.3704L742.1429 277.8274L49.85703 277.8274zM49.85703 290.3157L742.1429 290.3157L742.1429 289.7727L49.85703 289.7727zM49.85703 302.2612L742.1429 302.2612L742.1429 301.7183L49.85703 301.7183zM49.85703 314.2065L742.1429 314.2065L742.1429 313.6636L49.85703 313.6636zM49.85703 326.1519L742.1429 326.1519L742.1429 325.6089L49.85703 325.6089zM49.85703 338.0972L742.1429 338.0972L742.1429 337.5542L49.85703 337.5542zM49.85703 350.0425L742.1429 350.0425L742.1429 349.4995L49.85703 349.4995zM49.85703 361.9878L742.1429 361.9878L742.1429 361.4448L49.85703 361.4448zM49.85703 373.9331L742.1429 373.9331L742.1429 373.3901L49.85703 373.3901zM49.85703 385.8784L742.1429 385.8784L742.1429 385.3354L49.85703 385.3354zM49.85703 397.8237L742.1429 397.8237L742.1429 397.2808L49.85703 397.2808zM49.85703 409.769L742.1429 409.769L742.1429 409.2261L49.85703 409.2261zM49.85703 421.7144L742.1429 421.7144L742.1429 421.1714L49.85703 421.1714zM49.85703 443.4331L742.1429 443.4331L742.1429 442.8901L49.85703 442.8901zM49.85703 455.3784L742.1429 455.3784L742.1429 454.8354L49.85703 454.8354zM49.85703 467.3237L742.1429 467.3237L742.1429 466.7808L49.85703 466.7808zM49.85703 489.0425L742.1429 489.0425L742.1429 488.4995L49.85703 488.4995zM49.85703 500.9878L742.1429 500.9878L742.1429 500.4448L49.85703 500.4448zM49.85703 522.7068L742.1429 522.7068L742.1429 522.1638L49.85703 522.1638zM49.85703 534.6521L742.1429 534.6521L742.1429 534.1091L49.85703 534.1091zM49.85703 546.5974L742.1429 546.5974L742.1429 546.0544L49.85703 546.0544zM49.85703 558.5427L742.1429 558.5427L742.1429 557.9998L49.85703 557.9998zM742.1429 81.81543L742.1429 60.63965L741.6 60.63965L741.6 81.81543zM742.1429 93.76074L742.1429 82.3584L741.6 82.3584L741.6 93.76074zM742.1429 105.7063L742.1429 94.30371L741.6 94.30371L741.6 105.7063zM742.1429 117.6516L742.1429 106.2493L741.6 106.2493L741.6 117.6516zM742.1429 129.5969L742.1429 118.1946L741.6 118.1946L741.6 129.5969zM742.1429 141.5422L742.1429 130.1399L741.6 130.1399L741.6 141.5422zM742.1429 153.4875L742.1429 142.0852L741.6 142.0852L741.6 153.4875zM742.1429 165.4329L742.1429 154.0305L741.6 154.0305L741.6 165.4329zM742.1429 177.3782L742.1429 165.9758L741.6 165.9758L741.6 177.3782zM742.1429 208.3274L742.1429 177.9211L741.6 177.9211L741.6 208.3274zM742.1429 220.2727L742.1429 208.8704L741.6 208.8704L741.6 220.2727zM742.1429 232.218L742.1429 220.8157L741.6 220.8157L741.6 232.218zM742.1429 244.1633L742.1429 232.761L741.6 232.761L741.6 244.1633zM742.1429 256.1086L742.1429 244.7063L741.6 244.7063L741.6 256.1086zM742.1429 277.8274L742.1429 256.6516L741.6 256.6516L741.6 277.8274zM742.1429 289.7727L742.1429 278.3704L741.6 278.3704L741.6 289.7727zM742.1429 301.7183L742.1429 290.3157L741.6 290.3157L741.6 301.7183zM742.1429 313.6636L742.1429 302.2612L741.6 302.2612L741.6 313.6636zM742.1429 325.6089L742.1429 314.2065L741.6 314.2065L741.6 325.6089zM742.1429 337.5542L742.1429 326.1519L741.6 326.1519L741.6 337.5542zM742.1429 349.4995L742.1429 338.0972L741.6 338.0972L741.6 349.4995zM742.1429 361.4448L742.1429 350.0425L741.6 350.0425L741.6 361.4448zM742.1429 373.3901L742.1429 361.9878L741.6 361.9878L741.6 373.3901zM742.1429 385.3354L742.1429 373.9331L741.6 373.9331L741.6 385.3354zM742.1429 397.2808L742.1429 385.8784L741.6 385.8784L741.6 397.2808zM742.1429 409.2261L742.1429 397.8237L741.6 397.8237L741.6 409.2261zM742.1429 421.1714L742.1429 409.769L741.6 409.769L741.6 421.1714zM742.1429 442.8901L742.1429 421.7144L741.6 421.7144L741.6 442.8901zM742.1429 454.8354L742.1429 443.4331L741.6 443.4331L741.6 454.8354zM742.1429 466.7808L742.1429 455.3784L741.6 455.3784L741.6 466.7808zM742.1429 488.4995L742.1429 467.3237L741.6 467.3237L741.6 488.4995zM742.1429 500.4448L742.1429 489.0425L741.6 489.0425L741.6 500.4448zM742.1429 522.1638L742.1429 500.9878L741.6 500.9878L741.6 522.1638zM742.1429 534.1091L742.1429 522.7068L741.6 522.7068L741.6 534.1091zM742.1429 546.0544L742.1429 534.6521L741.6 534.6521L741.6 546.0544zM742.1429 557.9998L742.1429 546.5974L741.6 546.5974L741.6 557.9998zM691.1039 81.81543L691.1039 60.63965L690.5609 60.63965L690.5609 81.81543zM691.1039 93.76074L691.1039 82.3584L690.5609 82.3584L690.5609 93.76074zM691.1039 105.7063L691.1039 94.30371L690.5609 94.30371L690.5609 105.7063zM691.1039 117.6516L691.1039 106.2493L690.5609 106.2493L690.5609 117.6516zM691.1039 129.5969L691.1039 118.1946L690.5609 118.1946L690.5609 129.5969zM691.1039 141.5422L691.1039 130.1399L690.5609 130.1399L690.5609 141.5422zM691.1039 153.4875L691.1039 142.0852L690.5609 142.0852L690.5609 153.4875zM691.1039 165.4329L691.1039 154.0305L690.5609 154.0305L690.5609 165.4329zM691.1039 177.3782L691.1039 165.9758L690.5609 165.9758L690.5609 177.3782zM691.1039 208.3274L691.1039 177.9211L690.5609 177.9211L690.5609 208.3274zM691.1039 220.2727L691.1039 208.8704L690.5609 208.8704L690.5609 220.2727zM691.1039 232.218L691.1039 220.8157L690.5609 220.8157L690.5609 232.218zM691.1039 244.1633L691.1039 232.761L690.5609 232.761L690.5609 244.1633zM691.1039 256.1086L691.1039 244.7063L690.5609 244.7063L690.5609 256.1086zM691.1039 277.8274L691.1039 256.6516L690.5609 256.6516L690.5609 277.8274zM691.1039 289.7727L691.1039 278.3704L690.5609 278.3704L690.5609 289.7727zM691.1039 301.7183L691.1039 290.3157L690.5609 290.3157L690.5609 301.7183zM691.1039 313.6636L691.1039 302.2612L690.5609 302.2612L690.5609 313.6636zM691.1039 325.6089L691.1039 314.2065L690.5609 314.2065L690.5609 325.6089zM691.1039 337.5542L691.1039 326.1519L690.5609 326.1519L690.5609 337.5542zM691.1039 349.4995L691.1039 338.0972L690.5609 338.0972L690.5609 349.4995zM691.1039 361.4448L691.1039 350.0425L690.5609 350.0425L690.5609 361.4448zM691.1039 373.3901L691.1039 361.9878L690.5609 361.9878L690.5609 373.3901zM691.1039 385.3354L691.1039 373.9331L690.5609 373.9331L690.5609 385.3354zM691.1039 397.2808L691.1039 385.8784L690.5609 385.8784L690.5609 397.2808zM691.1039 409.2261L691.1039 397.8237L690.5609 397.8237L690.5609 409.2261zM691.1039 421.1714L691.1039 409.769L690.5609 409.769L690.5609 421.1714zM691.1039 442.8901L691.1039 421.7144L690.5609 421.7144L690.5609 442.8901zM691.1039 454.8354L691.1039 443.4331L690.5609 443.4331L690.5609 454.8354zM691.1039 466.7808L691.1039 455.3784L690.5609 455.3784L690.5609 466.7808zM691.1039 488.4995L691.1039 467.3237L690.5609 467.3237L690.5609 488.4995zM691.1039 500.4448L691.1039 489.0425L690.5609 489.0425L690.5609 500.4448zM691.1039 522.1638L691.1039 500.9878L690.5609 500.9878L690.5609 522.1638zM691.1039 534.1091L691.1039 522.7068L690.5609 522.7068L690.5609 534.1091zM691.1039 546.0544L691.1039 534.6521L690.5609 534.6521L690.5609 546.0544zM691.1039 557.9998L691.1039 546.5974L690.5609 546.5974L690.5609 557.9998zM417.9902 81.81543L417.9902 60.63965L417.4473 60.63965L417.4473 81.81543zM417.9902 93.76074L417.9902 82.3584L417.4473 82.3584L417.4473 93.76074zM417.9902 105.7063L417.9902 94.30371L417.4473 94.30371L417.4473 105.7063zM417.9902 117.6516L417.9902 106.2493L417.4473 106.2493L417.4473 117.6516zM417.9902 129.5969L417.9902 118.1946L417.4473 118.1946L417.4473 129.5969zM417.9902 141.5422L417.9902 130.1399L417.4473 130.1399L417.4473 141.5422zM417.9902 153.4875L417.9902 142.0852L417.4473 142.0852L417.4473 153.4875zM417.9902 165.4329L417.9902 154.0305L417.4473 154.0305L417.4473 165.4329zM417.9902 177.3782L417.9902 165.9758L417.4473 165.9758L417.4473 177.3782zM417.9902 208.3274L417.9902 177.9211L417.4473 177.9211L417.4473 208.3274zM417.9902 220.2727L417.9902 208.8704L417.4473 208.8704L417.4473 220.2727zM417.9902 232.218L417.9902 220.8157L417.4473 220.8157L417.4473 232.218zM417.9902 244.1633L417.9902 232.761L417.4473 232.761L417.4473 244.1633zM417.9902 256.1086L417.9902 244.7063L417.4473 244.7063L417.4473 256.1086zM417.9902 277.8274L417.9902 256.6516L417.4473 256.6516L417.4473 277.8274zM417.9902 289.7727L417.9902 278.3704L417.4473 278.3704L417.4473 289.7727zM417.9902 301.7183L417.9902 290.3157L417.4473 290.3157L417.4473 301.7183zM417.9902 313.6636L417.9902 302.2612L417.4473 302.2612L417.4473 313.6636zM417.9902 325.6089L417.9902 314.2065L417.4473 314.2065L417.4473 325.6089zM417.9902 337.5542L417.9902 326.1519L417.4473 326.1519L417.4473 337.5542zM417.9902 349.4995L417.9902 338.0972L417.4473 338.0972L417.4473 349.4995zM417.9902 361.4448L417.9902 350.0425L417.4473 350.0425L417.4473 361.4448zM417.9902 373.3901L417.9902 361.9878L417.4473 361.9878L417.4473 373.3901zM417.9902 385.3354L417.9902 373.9331L417.4473 373.9331L417.4473 385.3354zM417.9902 397.2808L417.9902 385.8784L417.4473 385.8784L417.4473 397.2808zM417.9902 409.2261L417.9902 397.8237L417.4473 397.8237L417.4473 409.2261zM417.9902 421.1714L417.9902 409.769L417.4473 409.769L417.4473 421.1714zM417.9902 442.8901L417.9902 421.7144L417.4473 421.7144L417.4473 442.8901zM417.9902 454.8354L417.9902 443.4331L417.4473 443.4331L417.4473 454.8354zM417.9902 466.7808L417.9902 455.3784L417.4473 455.3784L417.4473 466.7808zM417.9902 488.4995L417.9902 467.3237L417.4473 467.3237L417.4473 488.4995zM417.9902 500.4448L417.9902 489.0425L417.4473 489.0425L417.4473 500.4448zM417.9902 522.1638L417.9902 500.9878L417.4473 500.9878L417.4473 522.1638zM417.9902 534.1091L417.9902 522.7068L417.4473 522.7068L417.4473 534.1091zM417.9902 546.0544L417.9902 534.6521L417.4473 534.6521L417.4473 546.0544zM417.9902 557.9998L417.9902 546.5974L417.4473 546.5974L417.4473 557.9998zM144.8767 81.81543L144.8767 60.63965L144.3337 60.63965L144.3337 81.81543zM144.8767 93.76074L144.8767 82.3584L144.3337 82.3584L144.3337 93.76074zM144.8767 105.7063L144.8767 94.30371L144.3337 94.30371L144.3337 105.7063zM144.8767 117.6516L144.8767 106.2493L144.3337 106.2493L144.3337 117.6516zM144.8767 129.5969L144.8767 118.1946L144.3337 118.1946L144.3337 129.5969zM144.8767 141.5422L144.8767 130.1399L144.3337 130.1399L144.3337 141.5422zM144.8767 153.4875L144.8767 142.0852L144.3337 142.0852L144.3337 153.4875zM144.8767 165.4329L144.8767 154.0305L144.3337 154.0305L144.3337 165.4329zM144.8767 177.3782L144.8767 165.9758L144.3337 165.9758L144.3337 177.3782zM144.8767 208.3274L144.8767 177.9211L144.3337 177.9211L144.3337 208.3274zM144.8767 220.2727L144.8767 208.8704L144.3337 208.8704L144.3337 220.2727zM144.8767 232.218L144.8767 220.8157L144.3337 220.8157L144.3337 232.218zM144.8767 244.1633L144.8767 232.761L144.3337 232.761L144.3337 244.1633zM144.8767 256.1086L144.8767 244.7063L144.3337 244.7063L144.3337 256.1086zM144.8767 277.8274L144.8767 256.6516L144.3337 256.6516L144.3337 277.8274zM144.8767 289.7727L144.8767 278.3704L144.3337 278.3704L144.3337 289.7727zM144.8767 301.7183L144.8767 290.3157L144.3337 290.3157L144.3337 301.7183zM144.8767 313.6636L144.8767 302.2612L144.3337 302.2612L144.3337 313.6636zM144.8767 325.6089L144.8767 314.2065L144.3337 314.2065L144.3337 325.6089zM144.8767 337.5542L144.8767 326.1519L144.3337 326.1519L144.3337 337.5542zM144.8767 349.4995L144.8767 338.0972L144.3337 338.0972L144.3337 349.4995zM144.8767 361.4448L144.8767 350.0425L144.3337 350.0425L144.3337 361.4448zM144.8767 373.3901L144.8767 361.9878L144.3337 361.9878L144.3337 373.3901zM144.8767 385.3354L144.8767 373.9331L144.3337 373.9331L144.3337 385.3354zM144.8767 397.2808L144.8767 385.8784L144.3337 385.8784L144.3337 397.2808zM144.8767 409.2261L144.8767 397.8237L144.3337 397.8237L144.3337 409.2261zM144.8767 421.1714L144.8767 409.769L144.3337 409.769L144.3337 421.1714zM144.8767 442.8901L144.8767 421.7144L144.3337 421.7144L144.3337 442.8901zM144.8767 454.8354L144.8767 443.4331L144.3337 443.4331L144.3337 454.8354zM144.8767 466.7808L144.8767 455.3784L144.3337 455.3784L144.3337 466.7808zM144.8767 488.4995L144.8767 467.3237L144.3337 467.3237L144.3337 488.4995zM144.8767 500.4448L144.8767 489.0425L144.3337 489.0425L144.3337 500.4448zM144.8767 522.1638L144.8767 500.9878L144.3337 500.9878L144.3337 522.1638zM144.8767 534.1091L144.8767 522.7068L144.3337 522.7068L144.3337 534.1091zM144.8767 546.0544L144.8767 534.6521L144.3337 534.6521L144.3337 546.0544zM144.8767 557.9998L144.8767 546.5974L144.3337 546.5974L144.3337 557.9998zM74.83362 81.81543L74.83362 60.63965L74.29065 60.63965L74.29065 81.81543zM74.83362 93.76074L74.83362 82.3584L74.29065 82.3584L74.29065 93.76074zM74.83362 105.7063L74.83362 94.30371L74.29065 94.30371L74.29065 105.7063zM74.83362 117.6516L74.83362 106.2493L74.29065 106.2493L74.29065 117.6516zM74.83362 129.5969L74.83362 118.1946L74.29065 118.1946L74.29065 129.5969zM74.83362 141.5422L74.83362 130.1399L74.29065 130.1399L74.29065 141.5422zM74.83362 153.4875L74.83362 142.0852L74.29065 142.0852L74.29065 153.4875zM74.83362 165.4329L74.83362 154.0305L74.29065 154.0305L74.29065 165.4329zM74.83362 177.3782L74.83362 165.9758L74.29065 165.9758L74.29065 177.3782zM74.83362 208.3274L74.83362 177.9211L74.29065 177.9211L74.29065 208.3274zM74.83362 220.2727L74.83362 208.8704L74.29065 208.8704L74.29065 220.2727zM74.83362 232.218L74.83362 220.8157L74.29065 220.8157L74.29065 232.218zM74.83362 244.1633L74.83362 232.761L74.29065 232.761L74.29065 244.1633zM74.83362 256.1086L74.83362 244.7063L74.29065 244.7063L74.29065 256.1086zM74.83362 277.8274L74.83362 256.6516L74.29065 256.6516L74.29065 277.8274zM74.83362 289.7727L74.83362 278.3704L74.29065 278.3704L74.29065 289.7727zM74.83362 301.7183L74.83362 290.3157L74.29065 290.3157L74.29065 301.7183zM74.83362 313.6636L74.83362 302.2612L74.29065 302.2612L74.29065 313.6636zM74.83362 325.6089L74.83362 314.2065L74.29065 314.2065L74.29065 325.6089zM74.83362 337.5542L74.83362 326.1519L74.29065 326.1519L74.29065 337.5542zM74.83362 349.4995L74.83362 338.0972L74.29065 338.0972L74.29065 349.4995zM74.83362 361.4448L74.83362 350.0425L74.29065 350.0425L74.29065 361.4448zM74.83362 373.3901L74.83362 361.9878L74.29065 361.9878L74.29065 373.3901zM74.83362 385.3354L74.83362 373.9331L74.29065 373.9331L74.29065 385.3354zM74.83362 397.2808L74.83362 385.8784L74.29065 385.8784L74.29065 397.2808zM74.83362 409.2261L74.83362 397.8237L74.29065 397.8237L74.29065 409.2261zM74.83362 421.1714L74.83362 409.769L74.29065 409.769L74.29065 421.1714zM74.83362 442.8901L74.83362 421.7144L74.29065 421.7144L74.29065 442.8901zM74.83362 454.8354L74.83362 443.4331L74.29065 443.4331L74.29065 454.8354zM74.83362 466.7808L74.83362 455.3784L74.29065 455.3784L74.29065 466.7808zM74.83362 488.4995L74.83362 467.3237L74.29065 467.3237L74.29065 488.4995zM74.83362 500.4448L74.83362 489.0425L74.29065 489.0425L74.29065 500.4448zM74.83362 522.1638L74.83362 500.9878L74.29065 500.9878L74.29065 522.1638zM74.83362 534.1091L74.83362 522.7068L74.29065 522.7068L74.29065 534.1091zM74.83362 546.0544L74.83362 534.6521L74.29065 534.6521L74.29065 546.0544zM74.83362 557.9998L74.83362 546.5974L74.29065 546.5974L74.29065 557.9998zM50.39999 81.81543L50.39999 60.63965L49.85703 60.63965L49.85703 81.81543zM50.39999 93.76074L50.39999 82.3584L49.85703 82.3584L49.85703 93.76074zM50.39999 105.7063L50.39999 94.30371L49.85703 94.30371L49.85703 105.7063zM50.39999 117.6516L50.39999 106.2493L49.85703 106.2493L49.85703 117.6516zM50.39999 129.5969L50.39999 118.1946L49.85703 118.1946L49.85703 129.5969zM50.39999 141.5422L50.39999 130.1399L49.85703 130.1399L49.85703 141.5422zM50.39999 153.4875L50.39999 142.0852L49.85703 142.0852L49.85703 153.4875zM50.39999 165.4329L50.39999 154.0305L49.85703 154.0305L49.85703 165.4329zM50.39999 177.3782L50.39999 165.9758L49.85703 165.9758L49.85703 177.3782zM50.39999 208.3274L50.39999 177.9211L49.85703 177.9211L49.85703 208.3274zM50.39999 220.2727L50.39999 208.8704L49.85703 208.8704L49.85703 220.2727zM50.39999 232.218L50.39999 220.8157L49.85703 220.8157L49.85703 232.218zM50.39999 244.1633L50.39999 232.761L49.85703 232.761L49.85703 244.1633zM50.39999 256.1086L50.39999 244.7063L49.85703 244.7063L49.85703 256.1086zM50.39999 277.8274L50.39999 256.6516L49.85703 256.6516L49.85703 277.8274zM50.39999 289.7727L50.39999 278.3704L49.85703 278.3704L49.85703 289.7727zM50.39999 301.7183L50.39999 290.3157L49.85703 290.3157L49.85703 301.7183zM50.39999 313.6636L50.39999 302.2612L49.85703 302.2612L49.85703 313.6636zM50.39999 325.6089L50.39999 314.2065L49.85703 314.2065L49.85703 325.6089zM50.39999 337.5542L50.39999 326.1519L49.85703 326.1519L49.85703 337.5542zM50.39999 349.4995L50.39999 338.0972L49.85703 338.0972L49.85703 349.4995zM50.39999 361.4448L50.39999 350.0425L49.85703 350.0425L49.85703 361.4448zM50.39999 373.3901L50.39999 361.9878L49.85703 361.9878L49.85703 373.3901zM50.39999 385.3354L50.39999 373.9331L49.85703 373.9331L49.85703 385.3354zM50.39999 397.2808L50.39999 385.8784L49.85703 385.8784L49.85703 397.2808zM50.39999 409.2261L50.39999 397.8237L49.85703 397.8237L49.85703 409.2261zM50.39999 421.1714L50.39999 409.769L49.85703 409.769L49.85703 421.1714zM50.39999 442.8901L50.39999 421.7144L49.85703 421.7144L49.85703 442.8901zM50.39999 454.8354L50.39999 443.4331L49.85703 443.4331L49.85703 454.8354zM50.39999 466.7808L50.39999 455.3784L49.85703 455.3784L49.85703 466.7808zM50.39999 488.4995L50.39999 467.3237L49.85703 467.3237L49.85703 488.4995zM50.39999 500.4448L50.39999 489.0425L49.85703 489.0425L49.85703 500.4448zM50.39999 522.1638L50.39999 500.9878L49.85703 500.9878L49.85703 522.1638zM50.39999 534.1091L50.39999 522.7068L49.85703 522.7068L49.85703 534.1091zM50.39999 546.0544L50.39999 534.6521L49.85703 534.6521L49.85703 546.0544zM50.39999 557.9998L50.39999 546.5974L49.85703 546.5974L49.85703 557.9998z" stroke="none" fill="#000000" fill-rule="nonzero" fill-opacity="0.1490196" /><path id="282" transform="matrix(1 0 0 -1 0 612)" d="M419.6191 548.7444L624.8092 548.7444" stroke="#000000" stroke-width="0.5080263" fill="none" /><path id="471" transform="matrix(1 0 0 -1 0 612)" d="M419.6191 536.7991L664.9459 536.7991" stroke="#000000" stroke-width="0.5080263" fill="none" /><path id="567" transform="matrix(1 0 0 -1 0 612)" d="M419.6191 524.8538L546.3326 524.8538" stroke="#000000" stroke-width="0.5080263" fill="none" /><path id="749" transform="matrix(1 0 0 -1 0 612)" d="M419.6191 512.6108L676.34 512.6108" stroke="#000000" stroke-width="0.5080263" fill="none" /><path id="764" transform="matrix(1 0 0 -1 0 612)" d="M419.6191 503.1348L467.5299 503.1348" stroke="#000000" stroke-width="0.5080263" fill="none" /><path id="924" transform="matrix(1 0 0 -1 0 612)" d="M419.6191 491.1895L655.2804 491.1895" stroke="#000000" stroke-width="0.5080263" fill="none" /><path id="1112" transform="matrix(1 0 0 -1 0 612)" d="M419.6191 478.9468L672.9095 478.9468" stroke="#000000" stroke-width="0.5080263" fill="none" /><path id="1124" transform="matrix(1 0 0 -1 0 612)" d="M419.6191 469.4707L456.9698 469.4707" stroke="#000000" stroke-width="0.5080263" fill="none" /><path id="1274" transform="matrix(1 0 0 -1 0 612)" d="M419.6191 457.5254L613.9231 457.5254" stroke="#000000" stroke-width="0.5080263" fill="none" /><path id="1334" transform="matrix(1 0 0 -1 0 612)" d="M419.6191 445.5801L487.5927 445.5801" stroke="#000000" stroke-width="0.5080263" fill="none" /><path id="1548" transform="matrix(1 0 0 -1 0 612)" d="M419.6191 433.3374L688.7269 433.3374" stroke="#000000" stroke-width="0.5080263" fill="none" /><path id="1556" transform="matrix(1 0 0 -1 0 612)" d="M419.6191 423.8613L441.3041 423.8613" stroke="#000000" stroke-width="0.5080263" fill="none" /><path id="1678" transform="matrix(1 0 0 -1 0 612)" d="M419.6191 411.916L562.385 411.916" stroke="#000000" stroke-width="0.5080263" fill="none" /><path id="1810" transform="matrix(1 0 0 -1 0 612)" d="M419.6191 399.9707L590.6122 399.9707" stroke="#000000" stroke-width="0.5080263" fill="none" /><path id="1984" transform="matrix(1 0 0 -1 0 612)" d="M419.6191 388.0254L661.042 388.0254" stroke="#000000" stroke-width="0.5080263" fill="none" /><path id="2154" transform="matrix(1 0 0 -1 0 612)" d="M419.6191 376.0801L656.5881 376.0801" stroke="#000000" stroke-width="0.5080263" fill="none" /><path id="2314" transform="matrix(1 0 0 -1 0 612)" d="M419.6191 364.1348L634.3572 364.1348" stroke="#000000" stroke-width="0.5080263" fill="none" /><path id="2387" transform="matrix(1 0 0 -1 0 612)" d="M419.6191 352.1895L520.4744 352.1895" stroke="#000000" stroke-width="0.5080263" fill="none" /><path id="2555" transform="matrix(1 0 0 -1 0 612)" d="M419.6191 340.2441L651.2892 340.2441" stroke="#000000" stroke-width="0.5080263" fill="none" /><path id="2726" transform="matrix(1 0 0 -1 0 612)" d="M419.6191 328.2988L663.934 328.2988" stroke="#000000" stroke-width="0.5080263" fill="none" /><path id="2914" transform="matrix(1 0 0 -1 0 612)" d="M419.6191 316.3533L673.2963 316.3533" stroke="#000000" stroke-width="0.5080263" fill="none" /><path id="3051" transform="matrix(1 0 0 -1 0 612)" d="M419.6191 304.408L605.3076 304.408" stroke="#000000" stroke-width="0.5080263" fill="none" /><path id="3137" transform="matrix(1 0 0 -1 0 612)" d="M419.6191 292.4626L528.6769 292.4626" stroke="#000000" stroke-width="0.5080263" fill="none" /><path id="3326" transform="matrix(1 0 0 -1 0 612)" d="M419.6191 280.5173L671.5944 280.5173" stroke="#000000" stroke-width="0.5080263" fill="none" /><path id="3513" transform="matrix(1 0 0 -1 0 612)" d="M419.6191 268.2747L684.3529 268.2747" stroke="#000000" stroke-width="0.5080263" fill="none" /><path id="3523" transform="matrix(1 0 0 -1 0 612)" d="M419.6191 258.7986L446.0686 258.7986" stroke="#000000" stroke-width="0.5080263" fill="none" /><path id="3648" transform="matrix(1 0 0 -1 0 612)" d="M419.6191 246.8533L594.9408 246.8533" stroke="#000000" stroke-width="0.5080263" fill="none" /><path id="3796" transform="matrix(1 0 0 -1 0 612)" d="M419.6191 234.908L622.5653 234.908" stroke="#000000" stroke-width="0.5080263" fill="none" /><path id="3958" transform="matrix(1 0 0 -1 0 612)" d="M419.6191 222.9626L637.4049 222.9626" stroke="#000000" stroke-width="0.5080263" fill="none" /><path id="4104" transform="matrix(1 0 0 -1 0 612)" d="M419.6191 211.0173L623.8655 211.0173" stroke="#000000" stroke-width="0.5080263" fill="none" /><path id="4272" transform="matrix(1 0 0 -1 0 612)" d="M419.6191 180.0681L617.8424 180.0681" stroke="#000000" stroke-width="0.5080263" fill="none" /><path id="4435" transform="matrix(1 0 0 -1 0 612)" d="M419.6191 168.1228L654.8484 168.1228" stroke="#000000" stroke-width="0.5080263" fill="none" /><path id="4576" transform="matrix(1 0 0 -1 0 612)" d="M419.6191 156.1775L630.0553 156.1775" stroke="#000000" stroke-width="0.5080263" fill="none" /><path id="4751" transform="matrix(1 0 0 -1 0 612)" d="M419.6191 144.2322L657.3689 144.2322" stroke="#000000" stroke-width="0.5080263" fill="none" /><path id="4804" transform="matrix(1 0 0 -1 0 612)" d="M419.6191 132.2869L474.7128 132.2869" stroke="#000000" stroke-width="0.5080263" fill="none" /><path id="4935" transform="matrix(1 0 0 -1 0 612)" d="M419.6191 120.3416L600.9258 120.3416" stroke="#000000" stroke-width="0.5080263" fill="none" /><path id="5094" transform="matrix(1 0 0 -1 0 612)" d="M419.6191 108.396L641.3127 108.396" stroke="#000000" stroke-width="0.5080263" fill="none" /><path id="5217" transform="matrix(1 0 0 -1 0 612)" d="M419.6191 96.45068L588.3455 96.45068" stroke="#000000" stroke-width="0.5080263" fill="none" /><path id="5261" transform="matrix(1 0 0 -1 0 612)" d="M419.6191 84.50537L469.319 84.50537" stroke="#000000" stroke-width="0.5080263" fill="none" /><path id="5487" transform="matrix(1 0 0 -1 0 612)" d="M419.6191 72.2627L678.311 72.2627" stroke="#000000" stroke-width="0.5080263" fill="none" /><path id="5512" transform="matrix(1 0 0 -1 0 612)" d="M419.6191 62.78662L490.3672 62.78662" stroke="#000000" stroke-width="0.5080263" fill="none" /></g></g></g></svg>