<svg xmlns="http://www.w3.org/2000/svg" xmlns:xlink="http://www.w3.org/1999/xlink" id="body_2" preserveAspectRatio="xMinYMin meet" viewBox="0 0 1056 816"><defs><clipPath id="1"><path id="" clip-rule="evenodd" transform="matrix(1 0 0 1 0 0)" d="M0 612L0 0L0 0L792 0L792 0L792 612L792 612L0 612z" /></clipPath><clipPath id="2"><path id="" clip-rule="evenodd" transform="matrix(1 0 0 1 0 0)" d="M49.31406 52.91418L742.6859 52.91418L742.6859 52.91418L742.6859 554.075L742.6859 554.075L49.31406 554.075L49.31406 554.075L49.31406 52.91418z" /></clipPath></defs><g transform="matrix(1.333333 0 0 1.333333 0 0)"><g clip-path="url(#1)"><g clip-path="url(#2)"><path id="101" transform="matrix(1 0 0 -1 0 612)" d="M49.85703 558.5428L742.1429 558.5428L742.1429 546.0546L49.85703 546.0546L49.85703 558.5428z" stroke="none" fill="#E0F7FA" fill-rule="nonzero" /><path id="102" transform="matrix(1 0 0 -1 0 612)" d="M49.85703 546.5975L742.1429 546.5975L742.1429 534.1093L49.85703 534.1093L49.85703 546.5975z" stroke="none" fill="#FFFFFF" fill-rule="nonzero" /><path id="103" transform="matrix(1 0 0 -1 0 612)" d="M49.85703 534.6522L742.1429 534.6522L742.1429 522.1639L49.85703 522.1639L49.85703 534.6522z" stroke="none" fill="#E0F7FA" fill-rule="nonzero" /><path id="104" transform="matrix(1 0 0 -1 0 612)" d="M49.85703 522.7069L742.1429 522.7069L742.1429 510.2186L49.85703 510.2186L49.85703 522.7069z" stroke="none" fill="#FFFFFF" fill-rule="nonzero" /><path id="105" transform="matrix(1 0 0 -1 0 612)" d="M49.85703 510.7615L742.1429 510.7615L742.1429 488.4998L49.85703 488.4998L49.85703 510.7615z" stroke="none" fill="#E0F7FA" fill-rule="nonzero" /><path id="106" transform="matrix(1 0 0 -1 0 612)" d="M49.85703 489.0428L742.1429 489.0428L742.1429 466.781L49.85703 466.781L49.85703 489.0428z" stroke="none" fill="#FFFFFF" fill-rule="nonzero" /><path id="107" transform="matrix(1 0 0 -1 0 612)" d="M49.85703 467.324L742.1429 467.324L742.1429 445.0623L49.85703 445.0623L49.85703 467.324z" stroke="none" fill="#E0F7FA" fill-rule="nonzero" /><path id="108" transform="matrix(1 0 0 -1 0 612)" d="M49.85703 445.6052L742.1429 445.6052L742.1429 433.1169L49.85703 433.1169L49.85703 445.6052z" stroke="none" fill="#FFFFFF" fill-rule="nonzero" /><path id="109" transform="matrix(1 0 0 -1 0 612)" d="M49.85703 433.6599L742.1429 433.6599L742.1429 411.3981L49.85703 411.3981L49.85703 433.6599z" stroke="none" fill="#E0F7FA" fill-rule="nonzero" /><path id="110" transform="matrix(1 0 0 -1 0 612)" d="M49.85703 411.9411L742.1429 411.9411L742.1429 399.4528L49.85703 399.4528L49.85703 411.9411z" stroke="none" fill="#FFFFFF" fill-rule="nonzero" /><path id="111" transform="matrix(1 0 0 -1 0 612)" d="M49.85703 399.9958L742.1429 399.9958L742.1429 387.5075L49.85703 387.5075L49.85703 399.9958z" stroke="none" fill="#E0F7FA" fill-rule="nonzero" /><path id="112" transform="matrix(1 0 0 -1 0 612)" d="M49.85703 388.0505L742.1429 388.0505L742.1429 365.7887L49.85703 365.7887L49.85703 388.0505z" stroke="none" fill="#FFFFFF" fill-rule="nonzero" /><path id="113" transform="matrix(1 0 0 -1 0 612)" d="M49.85703 366.3317L742.1429 366.3317L742.1429 353.8434L49.85703 353.8434L49.85703 366.3317z" stroke="none" fill="#E0F7FA" fill-rule="nonzero" /><path id="114" transform="matrix(1 0 0 -1 0 612)" d="M49.85703 354.3864L742.1429 354.3864L742.1429 341.8981L49.85703 341.8981L49.85703 354.3864z" stroke="none" fill="#FFFFFF" fill-rule="nonzero" /><path id="115" transform="matrix(1 0 0 -1 0 612)" d="M49.85703 342.441L742.1429 342.441L742.1429 320.1793L49.85703 320.1793L49.85703 342.441z" stroke="none" fill="#E0F7FA" fill-rule="nonzero" /><path id="116" transform="matrix(1 0 0 -1 0 612)" d="M49.85703 320.7223L742.1429 320.7223L742.1429 308.2339L49.85703 308.2339L49.85703 320.7223z" stroke="none" fill="#FFFFFF" fill-rule="nonzero" /><path id="117" transform="matrix(1 0 0 -1 0 612)" d="M49.85703 308.7769L742.1429 308.7769L742.1429 296.2886L49.85703 296.2886L49.85703 308.7769z" stroke="none" fill="#E0F7FA" fill-rule="nonzero" /><path id="118" transform="matrix(1 0 0 -1 0 612)" d="M49.85703 296.8316L742.1429 296.8316L742.1429 274.5699L49.85703 274.5699L49.85703 296.8316z" stroke="none" fill="#FFFFFF" fill-rule="nonzero" /><path id="119" transform="matrix(1 0 0 -1 0 612)" d="M49.85703 275.1129L742.1429 275.1129L742.1429 262.6245L49.85703 262.6245L49.85703 275.1129z" stroke="none" fill="#E0F7FA" fill-rule="nonzero" /><path id="120" transform="matrix(1 0 0 -1 0 612)" d="M49.85703 263.1675L742.1429 263.1675L742.1429 250.6792L49.85703 250.6792L49.85703 263.1675z" stroke="none" fill="#FFFFFF" fill-rule="nonzero" /><path id="121" transform="matrix(1 0 0 -1 0 612)" d="M49.85703 251.2222L742.1429 251.2222L742.1429 238.7339L49.85703 238.7339L49.85703 251.2222z" stroke="none" fill="#E0F7FA" fill-rule="nonzero" /><path id="122" transform="matrix(1 0 0 -1 0 612)" d="M49.85703 239.2769L742.1429 239.2769L742.1429 226.7886L49.85703 226.7886L49.85703 239.2769z" stroke="none" fill="#FFFFFF" fill-rule="nonzero" /><path id="123" transform="matrix(1 0 0 -1 0 612)" d="M49.85703 227.3315L742.1429 227.3315L742.1429 205.0698L49.85703 205.0698L49.85703 227.3315z" stroke="none" fill="#E0F7FA" fill-rule="nonzero" /><path id="124" transform="matrix(1 0 0 -1 0 612)" d="M49.85703 205.6127L742.1429 205.6127L742.1429 193.1245L49.85703 193.1245L49.85703 205.6127z" stroke="none" fill="#FFFFFF" fill-rule="nonzero" /><path id="125" transform="matrix(1 0 0 -1 0 612)" d="M49.85703 193.6674L742.1429 193.6674L742.1429 181.1791L49.85703 181.1791L49.85703 193.6674z" stroke="none" fill="#E0F7FA" fill-rule="nonzero" /><path id="126" transform="matrix(1 0 0 -1 0 612)" d="M49.85703 181.7221L742.1429 181.7221L742.1429 159.4603L49.85703 159.4603L49.85703 181.7221z" stroke="none" fill="#FFFFFF" fill-rule="nonzero" /><path id="127" transform="matrix(1 0 0 -1 0 612)" d="M49.85703 160.0033L742.1429 160.0033L742.1429 147.515L49.85703 147.515L49.85703 160.0033z" stroke="none" fill="#E0F7FA" fill-rule="nonzero" /><path id="128" transform="matrix(1 0 0 -1 0 612)" d="M49.85703 148.058L742.1429 148.058L742.1429 125.7963L49.85703 125.7963L49.85703 148.058z" stroke="none" fill="#FFFFFF" fill-rule="nonzero" /><path id="129" transform="matrix(1 0 0 -1 0 612)" d="M49.85703 126.3392L742.1429 126.3392L742.1429 113.8509L49.85703 113.8509L49.85703 126.3392z" stroke="none" fill="#E0F7FA" fill-rule="nonzero" /><path id="130" transform="matrix(1 0 0 -1 0 612)" d="M49.85703 114.3939L742.1429 114.3939L742.1429 92.13214L49.85703 92.13214L49.85703 114.3939z" stroke="none" fill="#FFFFFF" fill-rule="nonzero" /><path id="131" transform="matrix(1 0 0 -1 0 612)" d="M49.85703 92.67511L742.1429 92.67511L742.1429 70.41339L49.85703 70.41339L49.85703 92.67511z" stroke="none" fill="#E0F7FA" fill-rule="nonzero" /><path id="132" transform="matrix(1 0 0 -1 0 612)" d="M49.85703 70.95636L742.1429 70.95636L742.1429 58.46802L49.85703 58.46802L49.85703 70.95636z" stroke="none" fill="#FFFFFF" fill-rule="nonzero" /><path id="133" transform="matrix(1 0 0 -1 0 612)" d="M49.85703 59.01099L742.1429 59.01099L742.1429 58.46802L49.85703 58.46802zM49.85703 70.95636L742.1429 70.95636L742.1429 70.41339L49.85703 70.41339zM49.85703 92.67511L742.1429 92.67511L742.1429 92.13214L49.85703 92.13214zM49.85703 114.3939L742.1429 114.3939L742.1429 113.8509L49.85703 113.8509zM49.85703 126.3392L742.1429 126.3392L742.1429 125.7963L49.85703 125.7963zM49.85703 148.058L742.1429 148.058L742.1429 147.515L49.85703 147.515zM49.85703 160.0033L742.1429 160.0033L742.1429 159.4603L49.85703 159.4603zM49.85703 181.7221L742.1429 181.7221L742.1429 181.1791L49.85703 181.1791zM49.85703 193.6674L742.1429 193.6674L742.1429 193.1245L49.85703 193.1245zM49.85703 205.6127L742.1429 205.6127L742.1429 205.0698L49.85703 205.0698zM49.85703 227.3315L742.1429 227.3315L742.1429 226.7886L49.85703 226.7886zM49.85703 239.2769L742.1429 239.2769L742.1429 238.7339L49.85703 238.7339zM49.85703 251.2222L742.1429 251.2222L742.1429 250.6792L49.85703 250.6792zM49.85703 263.1675L742.1429 263.1675L742.1429 262.6245L49.85703 262.6245zM49.85703 275.1129L742.1429 275.1129L742.1429 274.5699L49.85703 274.5699zM49.85703 296.8316L742.1429 296.8316L742.1429 296.2886L49.85703 296.2886zM49.85703 308.7769L742.1429 308.7769L742.1429 308.2339L49.85703 308.2339zM49.85703 320.7223L742.1429 320.7223L742.1429 320.1793L49.85703 320.1793zM49.85703 342.441L742.1429 342.441L742.1429 341.8981L49.85703 341.8981zM49.85703 354.3864L742.1429 354.3864L742.1429 353.8434L49.85703 353.8434zM49.85703 366.3317L742.1429 366.3317L742.1429 365.7887L49.85703 365.7887zM49.85703 388.0505L742.1429 388.0505L742.1429 387.5075L49.85703 387.5075zM49.85703 399.9958L742.1429 399.9958L742.1429 399.4528L49.85703 399.4528zM49.85703 411.9411L742.1429 411.9411L742.1429 411.3981L49.85703 411.3981zM49.85703 433.6599L742.1429 433.6599L742.1429 433.1169L49.85703 433.1169zM49.85703 445.6052L742.1429 445.6052L742.1429 445.0623L49.85703 445.0623zM49.85703 467.324L742.1429 467.324L742.1429 466.781L49.85703 466.781zM49.85703 489.0428L742.1429 489.0428L742.1429 488.4998L49.85703 488.4998zM49.85703 510.7615L742.1429 510.7615L742.1429 510.2186L49.85703 510.2186zM49.85703 522.7069L742.1429 522.7069L742.1429 522.1639L49.85703 522.1639zM49.85703 534.6522L742.1429 534.6522L742.1429 534.1093L49.85703 534.1093zM49.85703 546.5975L742.1429 546.5975L742.1429 546.0546L49.85703 546.0546zM49.85703 558.5428L742.1429 558.5428L742.1429 557.9999L49.85703 557.9999zM742.1429 70.41339L742.1429 59.01099L741.6 59.01099L741.6 70.41339zM742.1429 92.13214L742.1429 70.95636L741.6 70.95636L741.6 92.13214zM742.1429 113.8509L742.1429 92.67511L741.6 92.67511L741.6 113.8509zM742.1429 125.7963L742.1429 114.3939L741.6 114.3939L741.6 125.7963zM742.1429 147.515L742.1429 126.3392L741.6 126.3392L741.6 147.515zM742.1429 159.4603L742.1429 148.058L741.6 148.058L741.6 159.4603zM742.1429 181.1791L742.1429 160.0033L741.6 160.0033L741.6 181.1791zM742.1429 193.1245L742.1429 181.7221L741.6 181.7221L741.6 193.1245zM742.1429 205.0698L742.1429 193.6674L741.6 193.6674L741.6 205.0698zM742.1429 226.7886L742.1429 205.6127L741.6 205.6127L741.6 226.7886zM742.1429 238.7339L742.1429 227.3315L741.6 227.3315L741.6 238.7339zM742.1429 250.6792L742.1429 239.2769L741.6 239.2769L741.6 250.6792zM742.1429 262.6245L742.1429 251.2222L741.6 251.2222L741.6 262.6245zM742.1429 274.5699L742.1429 263.1675L741.6 263.1675L741.6 274.5699zM742.1429 296.2886L742.1429 275.1129L741.6 275.1129L741.6 296.2886zM742.1429 308.2339L742.1429 296.8316L741.6 296.8316L741.6 308.2339zM742.1429 320.1793L742.1429 308.7769L741.6 308.7769L741.6 320.1793zM742.1429 341.8981L742.1429 320.7223L741.6 320.7223L741.6 341.8981zM742.1429 353.8434L742.1429 342.441L741.6 342.441L741.6 353.8434zM742.1429 365.7887L742.1429 354.3864L741.6 354.3864L741.6 365.7887zM742.1429 387.5075L742.1429 366.3317L741.6 366.3317L741.6 387.5075zM742.1429 399.4528L742.1429 388.0505L741.6 388.0505L741.6 399.4528zM742.1429 411.3981L742.1429 399.9958L741.6 399.9958L741.6 411.3981zM742.1429 433.1169L742.1429 411.9411L741.6 411.9411L741.6 433.1169zM742.1429 445.0623L742.1429 433.6599L741.6 433.6599L741.6 445.0623zM742.1429 466.781L742.1429 445.6052L741.6 445.6052L741.6 466.781zM742.1429 488.4998L742.1429 467.324L741.6 467.324L741.6 488.4998zM742.1429 510.2186L742.1429 489.0428L741.6 489.0428L741.6 510.2186zM742.1429 522.1639L742.1429 510.7615L741.6 510.7615L741.6 522.1639zM742.1429 534.1093L742.1429 522.7069L741.6 522.7069L741.6 534.1093zM742.1429 546.0546L742.1429 534.6522L741.6 534.6522L741.6 546.0546zM742.1429 557.9999L742.1429 546.5975L741.6 546.5975L741.6 557.9999zM691.1039 70.41339L691.1039 59.01099L690.5609 59.01099L690.5609 70.41339zM691.1039 92.13214L691.1039 70.95636L690.5609 70.95636L690.5609 92.13214zM691.1039 113.8509L691.1039 92.67511L690.5609 92.67511L690.5609 113.8509zM691.1039 125.7963L691.1039 114.3939L690.5609 114.3939L690.5609 125.7963zM691.1039 147.515L691.1039 126.3392L690.5609 126.3392L690.5609 147.515zM691.1039 159.4603L691.1039 148.058L690.5609 148.058L690.5609 159.4603zM691.1039 181.1791L691.1039 160.0033L690.5609 160.0033L690.5609 181.1791zM691.1039 193.1245L691.1039 181.7221L690.5609 181.7221L690.5609 193.1245zM691.1039 205.0698L691.1039 193.6674L690.5609 193.6674L690.5609 205.0698zM691.1039 226.7886L691.1039 205.6127L690.5609 205.6127L690.5609 226.7886zM691.1039 238.7339L691.1039 227.3315L690.5609 227.3315L690.5609 238.7339zM691.1039 250.6792L691.1039 239.2769L690.5609 239.2769L690.5609 250.6792zM691.1039 262.6245L691.1039 251.2222L690.5609 251.2222L690.5609 262.6245zM691.1039 274.5699L691.1039 263.1675L690.5609 263.1675L690.5609 274.5699zM691.1039 296.2886L691.1039 275.1129L690.5609 275.1129L690.5609 296.2886zM691.1039 308.2339L691.1039 296.8316L690.5609 296.8316L690.5609 308.2339zM691.1039 320.1793L691.1039 308.7769L690.5609 308.7769L690.5609 320.1793zM691.1039 341.8981L691.1039 320.7223L690.5609 320.7223L690.5609 341.8981zM691.1039 353.8434L691.1039 342.441L690.5609 342.441L690.5609 353.8434zM691.1039 365.7887L691.1039 354.3864L690.5609 354.3864L690.5609 365.7887zM691.1039 387.5075L691.1039 366.3317L690.5609 366.3317L690.5609 387.5075zM691.1039 399.4528L691.1039 388.0505L690.5609 388.0505L690.5609 399.4528zM691.1039 411.3981L691.1039 399.9958L690.5609 399.9958L690.5609 411.3981zM691.1039 433.1169L691.1039 411.9411L690.5609 411.9411L690.5609 433.1169zM691.1039 445.0623L691.1039 433.6599L690.5609 433.6599L690.5609 445.0623zM691.1039 466.781L691.1039 445.6052L690.5609 445.6052L690.5609 466.781zM691.1039 488.4998L691.1039 467.324L690.5609 467.324L690.5609 488.4998zM691.1039 510.2186L691.1039 489.0428L690.5609 489.0428L690.5609 510.2186zM691.1039 522.1639L691.1039 510.7615L690.5609 510.7615L690.5609 522.1639zM691.1039 534.1093L691.1039 522.7069L690.5609 522.7069L690.5609 534.1093zM691.1039 546.0546L691.1039 534.6522L690.5609 534.6522L690.5609 546.0546zM691.1039 557.9999L691.1039 546.5975L690.5609 546.5975L690.5609 557.9999zM417.9902 70.41339L417.9902 59.01099L417.4473 59.01099L417.4473 70.41339zM417.9902 92.13214L417.9902 70.95636L417.4473 70.95636L417.4473 92.13214zM417.9902 113.8509L417.9902 92.67511L417.4473 92.67511L417.4473 113.8509zM417.9902 125.7963L417.9902 114.3939L417.4473 114.3939L417.4473 125.7963zM417.9902 147.515L417.9902 126.3392L417.4473 126.3392L417.4473 147.515zM417.9902 159.4603L417.9902 148.058L417.4473 148.058L417.4473 159.4603zM417.9902 181.1791L417.9902 160.0033L417.4473 160.0033L417.4473 181.1791zM417.9902 193.1245L417.9902 181.7221L417.4473 181.7221L417.4473 193.1245zM417.9902 205.0698L417.9902 193.6674L417.4473 193.6674L417.4473 205.0698zM417.9902 226.7886L417.9902 205.6127L417.4473 205.6127L417.4473 226.7886zM417.9902 238.7339L417.9902 227.3315L417.4473 227.3315L417.4473 238.7339zM417.9902 250.6792L417.9902 239.2769L417.4473 239.2769L417.4473 250.6792zM417.9902 262.6245L417.9902 251.2222L417.4473 251.2222L417.4473 262.6245zM417.9902 274.5699L417.9902 263.1675L417.4473 263.1675L417.4473 274.5699zM417.9902 296.2886L417.9902 275.1129L417.4473 275.1129L417.4473 296.2886zM417.9902 308.2339L417.9902 296.8316L417.4473 296.8316L417.4473 308.2339zM417.9902 320.1793L417.9902 308.7769L417.4473 308.7769L417.4473 320.1793zM417.9902 341.8981L417.9902 320.7223L417.4473 320.7223L417.4473 341.8981zM417.9902 353.8434L417.9902 342.441L417.4473 342.441L417.4473 353.8434zM417.9902 365.7887L417.9902 354.3864L417.4473 354.3864L417.4473 365.7887zM417.9902 387.5075L417.9902 366.3317L417.4473 366.3317L417.4473 387.5075zM417.9902 399.4528L417.9902 388.0505L417.4473 388.0505L417.4473 399.4528zM417.9902 411.3981L417.9902 399.9958L417.4473 399.9958L417.4473 411.3981zM417.9902 433.1169L417.9902 411.9411L417.4473 411.9411L417.4473 433.1169zM417.9902 445.0623L417.9902 433.6599L417.4473 433.6599L417.4473 445.0623zM417.9902 466.781L417.9902 445.6052L417.4473 445.6052L417.4473 466.781zM417.9902 488.4998L417.9902 467.324L417.4473 467.324L417.4473 488.4998zM417.9902 510.2186L417.9902 489.0428L417.4473 489.0428L417.4473 510.2186zM417.9902 522.1639L417.9902 510.7615L417.4473 510.7615L417.4473 522.1639zM417.9902 534.1093L417.9902 522.7069L417.4473 522.7069L417.4473 534.1093zM417.9902 546.0546L417.9902 534.6522L417.4473 534.6522L417.4473 546.0546zM417.9902 557.9999L417.9902 546.5975L417.4473 546.5975L417.4473 557.9999zM144.8767 70.41339L144.8767 59.01099L144.3337 59.01099L144.3337 70.41339zM144.8767 92.13214L144.8767 70.95636L144.3337 70.95636L144.3337 92.13214zM144.8767 113.8509L144.8767 92.67511L144.3337 92.67511L144.3337 113.8509zM144.8767 125.7963L144.8767 114.3939L144.3337 114.3939L144.3337 125.7963zM144.8767 147.515L144.8767 126.3392L144.3337 126.3392L144.3337 147.515zM144.8767 159.4603L144.8767 148.058L144.3337 148.058L144.3337 159.4603zM144.8767 181.1791L144.8767 160.0033L144.3337 160.0033L144.3337 181.1791zM144.8767 193.1245L144.8767 181.7221L144.3337 181.7221L144.3337 193.1245zM144.8767 205.0698L144.8767 193.6674L144.3337 193.6674L144.3337 205.0698zM144.8767 226.7886L144.8767 205.6127L144.3337 205.6127L144.3337 226.7886zM144.8767 238.7339L144.8767 227.3315L144.3337 227.3315L144.3337 238.7339zM144.8767 250.6792L144.8767 239.2769L144.3337 239.2769L144.3337 250.6792zM144.8767 262.6245L144.8767 251.2222L144.3337 251.2222L144.3337 262.6245zM144.8767 274.5699L144.8767 263.1675L144.3337 263.1675L144.3337 274.5699zM144.8767 296.2886L144.8767 275.1129L144.3337 275.1129L144.3337 296.2886zM144.8767 308.2339L144.8767 296.8316L144.3337 296.8316L144.3337 308.2339zM144.8767 320.1793L144.8767 308.7769L144.3337 308.7769L144.3337 320.1793zM144.8767 341.8981L144.8767 320.7223L144.3337 320.7223L144.3337 341.8981zM144.8767 353.8434L144.8767 342.441L144.3337 342.441L144.3337 353.8434zM144.8767 365.7887L144.8767 354.3864L144.3337 354.3864L144.3337 365.7887zM144.8767 387.5075L144.8767 366.3317L144.3337 366.3317L144.3337 387.5075zM144.8767 399.4528L144.8767 388.0505L144.3337 388.0505L144.3337 399.4528zM144.8767 411.3981L144.8767 399.9958L144.3337 399.9958L144.3337 411.3981zM144.8767 433.1169L144.8767 411.9411L144.3337 411.9411L144.3337 433.1169zM144.8767 445.0623L144.8767 433.6599L144.3337 433.6599L144.3337 445.0623zM144.8767 466.781L144.8767 445.6052L144.3337 445.6052L144.3337 466.781zM144.8767 488.4998L144.8767 467.324L144.3337 467.324L144.3337 488.4998zM144.8767 510.2186L144.8767 489.0428L144.3337 489.0428L144.3337 510.2186zM144.8767 522.1639L144.8767 510.7615L144.3337 510.7615L144.3337 522.1639zM144.8767 534.1093L144.8767 522.7069L144.3337 522.7069L144.3337 534.1093zM144.8767 546.0546L144.8767 534.6522L144.3337 534.6522L144.3337 546.0546zM144.8767 557.9999L144.8767 546.5975L144.3337 546.5975L144.3337 557.9999zM74.83362 70.41339L74.83362 59.01099L74.29065 59.01099L74.29065 70.41339zM74.83362 92.13214L74.83362 70.95636L74.29065 70.95636L74.29065 92.13214zM74.83362 113.8509L74.83362 92.67511L74.29065 92.67511L74.29065 113.8509zM74.83362 125.7963L74.83362 114.3939L74.29065 114.3939L74.29065 125.7963zM74.83362 147.515L74.83362 126.3392L74.29065 126.3392L74.29065 147.515zM74.83362 159.4603L74.83362 148.058L74.29065 148.058L74.29065 159.4603zM74.83362 181.1791L74.83362 160.0033L74.29065 160.0033L74.29065 181.1791zM74.83362 193.1245L74.83362 181.7221L74.29065 181.7221L74.29065 193.1245zM74.83362 205.0698L74.83362 193.6674L74.29065 193.6674L74.29065 205.0698zM74.83362 226.7886L74.83362 205.6127L74.29065 205.6127L74.29065 226.7886zM74.83362 238.7339L74.83362 227.3315L74.29065 227.3315L74.29065 238.7339zM74.83362 250.6792L74.83362 239.2769L74.29065 239.2769L74.29065 250.6792zM74.83362 262.6245L74.83362 251.2222L74.29065 251.2222L74.29065 262.6245zM74.83362 274.5699L74.83362 263.1675L74.29065 263.1675L74.29065 274.5699zM74.83362 296.2886L74.83362 275.1129L74.29065 275.1129L74.29065 296.2886zM74.83362 308.2339L74.83362 296.8316L74.29065 296.8316L74.29065 308.2339zM74.83362 320.1793L74.83362 308.7769L74.29065 308.7769L74.29065 320.1793zM74.83362 341.8981L74.83362 320.7223L74.29065 320.7223L74.29065 341.8981zM74.83362 353.8434L74.83362 342.441L74.29065 342.441L74.29065 353.8434zM74.83362 365.7887L74.83362 354.3864L74.29065 354.3864L74.29065 365.7887zM74.83362 387.5075L74.83362 366.3317L74.29065 366.3317L74.29065 387.5075zM74.83362 399.4528L74.83362 388.0505L74.29065 388.0505L74.29065 399.4528zM74.83362 411.3981L74.83362 399.9958L74.29065 399.9958L74.29065 411.3981zM74.83362 433.1169L74.83362 411.9411L74.29065 411.9411L74.29065 433.1169zM74.83362 445.0623L74.83362 433.6599L74.29065 433.6599L74.29065 445.0623zM74.83362 466.781L74.83362 445.6052L74.29065 445.6052L74.29065 466.781zM74.83362 488.4998L74.83362 467.324L74.29065 467.324L74.29065 488.4998zM74.83362 510.2186L74.83362 489.0428L74.29065 489.0428L74.29065 510.2186zM74.83362 522.1639L74.83362 510.7615L74.29065 510.7615L74.29065 522.1639zM74.83362 534.1093L74.83362 522.7069L74.29065 522.7069L74.29065 534.1093zM74.83362 546.0546L74.83362 534.6522L74.29065 534.6522L74.29065 546.0546zM74.83362 557.9999L74.83362 546.5975L74.29065 546.5975L74.29065 557.9999zM50.39999 70.41339L50.39999 59.01099L49.85703 59.01099L49.85703 70.41339zM50.39999 92.13214L50.39999 70.95636L49.85703 70.95636L49.85703 92.13214zM50.39999 113.8509L50.39999 92.67511L49.85703 92.67511L49.85703 113.8509zM50.39999 125.7963L50.39999 114.3939L49.85703 114.3939L49.85703 125.7963zM50.39999 147.515L50.39999 126.3392L49.85703 126.3392L49.85703 147.515zM50.39999 159.4603L50.39999 148.058L49.85703 148.058L49.85703 159.4603zM50.39999 181.1791L50.39999 160.0033L49.85703 160.0033L49.85703 181.1791zM50.39999 193.1245L50.39999 181.7221L49.85703 181.7221L49.85703 193.1245zM50.39999 205.0698L50.39999 193.6674L49.85703 193.6674L49.85703 205.0698zM50.39999 226.7886L50.39999 205.6127L49.85703 205.6127L49.85703 226.7886zM50.39999 238.7339L50.39999 227.3315L49.85703 227.3315L49.85703 238.7339zM50.39999 250.6792L50.39999 239.2769L49.85703 239.2769L49.85703 250.6792zM50.39999 262.6245L50.39999 251.2222L49.85703 251.2222L49.85703 262.6245zM50.39999 274.5699L50.39999 263.1675L49.85703 263.1675L49.85703 274.5699zM50.39999 296.2886L50.39999 275.1129L49.85703 275.1129L49.85703 296.2886zM50.39999 308.2339L50.39999 296.8316L49.85703 296.8316L49.85703 308.2339zM50.39999 320.1793L50.39999 308.7769L49.85703 308.7769L49.85703 320.1793zM50.39999 341.8981L50.39999 320.7223L49.85703 320.7223L49.85703 341.8981zM50.39999 353.8434L50.39999 342.441L49.85703 342.441L49.85703 353.8434zM50.39999 365.7887L50.39999 354.3864L49.85703 354.3864L49.85703 365.7887zM50.39999 387.5075L50.39999 366.3317L49.85703 366.3317L49.85703 387.5075zM50.39999 399.4528L50.39999 388.0505L49.85703 388.0505L49.85703 399.4528zM50.39999 411.3981L50.39999 399.9958L49.85703 399.9958L49.85703 411.3981zM50.39999 433.1169L50.39999 411.9411L49.85703 411.9411L49.85703 433.1169zM50.39999 445.0623L50.39999 433.6599L49.85703 433.6599L49.85703 445.0623zM50.39999 466.781L50.39999 445.6052L49.85703 445.6052L49.85703 466.781zM50.39999 488.4998L50.39999 467.324L49.85703 467.324L49.85703 488.4998zM50.39999 510.2186L50.39999 489.0428L49.85703 489.0428L49.85703 510.2186zM50.39999 522.1639L50.39999 510.7615L49.85703 510.7615L49.85703 522.1639zM50.39999 534.1093L50.39999 522.7069L49.85703 522.7069L49.85703 534.1093zM50.39999 546.0546L50.39999 534.6522L49.85703 534.6522L49.85703 546.0546zM50.39999 557.9999L50.39999 546.5975L49.85703 546.5975L49.85703 557.9999z" stroke="none" fill="#000000" fill-rule="nonzero" fill-opacity="0.1490196" /><path id="303" transform="matrix(1 0 0 -1 0 612)" d="M419.6191 548.7446L661.1666 548.7446" stroke="#000000" stroke-width="0.5080263" fill="none" /><path id="480" transform="matrix(1 0 0 -1 0 612)" d="M419.6191 536.7993L681.2408 536.7993" stroke="#000000" stroke-width="0.5080263" fill="none" /><path id="639" transform="matrix(1 0 0 -1 0 612)" d="M419.6191 524.8539L646.8998 524.8539" stroke="#000000" stroke-width="0.5080263" fill="none" /><path id="784" transform="matrix(1 0 0 -1 0 612)" d="M419.6191 512.9086L614.196 512.9086" stroke="#000000" stroke-width="0.5080263" fill="none" /><path id="847" transform="matrix(1 0 0 -1 0 612)" d="M419.6191 491.1899L474.8151 491.1899" stroke="#000000" stroke-width="0.5080263" fill="none" /><path id="1037" transform="matrix(1 0 0 -1 0 612)" d="M419.6191 478.9471L662.9711 478.9471" stroke="#000000" stroke-width="0.5080263" fill="none" /><path id="1059" transform="matrix(1 0 0 -1 0 612)" d="M419.6191 469.4711L500.5824 469.4711" stroke="#000000" stroke-width="0.5080263" fill="none" /><path id="1147" transform="matrix(1 0 0 -1 0 612)" d="M419.6191 447.7523L505.0058 447.7523" stroke="#000000" stroke-width="0.5080263" fill="none" /><path id="1309" transform="matrix(1 0 0 -1 0 612)" d="M419.6191 435.807L647.0325 435.807" stroke="#000000" stroke-width="0.5080263" fill="none" /><path id="1494" transform="matrix(1 0 0 -1 0 612)" d="M419.6191 423.5643L683.9285 423.5643" stroke="#000000" stroke-width="0.5080263" fill="none" /><path id="1499" transform="matrix(1 0 0 -1 0 612)" d="M419.6191 414.0882L435.3569 414.0882" stroke="#000000" stroke-width="0.5080263" fill="none" /><path id="1589" transform="matrix(1 0 0 -1 0 612)" d="M419.6191 402.1429L513.0945 402.1429" stroke="#000000" stroke-width="0.5080263" fill="none" /><path id="1673" transform="matrix(1 0 0 -1 0 612)" d="M419.6191 390.1976L517.1274 390.1976" stroke="#000000" stroke-width="0.5080263" fill="none" /><path id="1870" transform="matrix(1 0 0 -1 0 612)" d="M419.6191 377.9548L686.9834 377.9548" stroke="#000000" stroke-width="0.5080263" fill="none" /><path id="1885" transform="matrix(1 0 0 -1 0 612)" d="M419.6191 368.4788L464.85 368.4788" stroke="#000000" stroke-width="0.5080263" fill="none" /><path id="2029" transform="matrix(1 0 0 -1 0 612)" d="M419.6191 356.5334L614.8821 356.5334" stroke="#000000" stroke-width="0.5080263" fill="none" /><path id="2177" transform="matrix(1 0 0 -1 0 612)" d="M419.6191 344.5881L624.2823 344.5881" stroke="#000000" stroke-width="0.5080263" fill="none" /><path id="2317" transform="matrix(1 0 0 -1 0 612)" d="M419.6191 322.8693L587.974 322.8693" stroke="#000000" stroke-width="0.5080263" fill="none" /><path id="2469" transform="matrix(1 0 0 -1 0 612)" d="M419.6191 310.924L611.6906 310.924" stroke="#000000" stroke-width="0.5080263" fill="none" /><path id="2608" transform="matrix(1 0 0 -1 0 612)" d="M419.6191 298.9787L617.9297 298.9787" stroke="#000000" stroke-width="0.5080263" fill="none" /><path id="2811" transform="matrix(1 0 0 -1 0 612)" d="M419.6191 286.736L660.8068 286.736" stroke="#000000" stroke-width="0.5080263" fill="none" /><path id="2847" transform="matrix(1 0 0 -1 0 612)" d="M419.6191 277.2599L534.7074 277.2599" stroke="#000000" stroke-width="0.5080263" fill="none" /><path id="3028" transform="matrix(1 0 0 -1 0 612)" d="M419.6191 265.3146L686.3427 265.3146" stroke="#000000" stroke-width="0.5080263" fill="none" /><path id="3160" transform="matrix(1 0 0 -1 0 612)" d="M419.6191 253.3693L593.6333 253.3693" stroke="#000000" stroke-width="0.5080263" fill="none" /><path id="3208" transform="matrix(1 0 0 -1 0 612)" d="M419.6191 241.424L476.7369 241.424" stroke="#000000" stroke-width="0.5080263" fill="none" /><path id="3291" transform="matrix(1 0 0 -1 0 612)" d="M419.6191 229.4786L523.7683 229.4786" stroke="#000000" stroke-width="0.5080263" fill="none" /><path id="3499" transform="matrix(1 0 0 -1 0 612)" d="M419.6191 217.2359L668.9789 217.2359" stroke="#000000" stroke-width="0.5080263" fill="none" /><path id="3518" transform="matrix(1 0 0 -1 0 612)" d="M419.6191 207.7598L481.4142 207.7598" stroke="#000000" stroke-width="0.5080263" fill="none" /><path id="3692" transform="matrix(1 0 0 -1 0 612)" d="M419.6191 195.8145L666.61 195.8145" stroke="#000000" stroke-width="0.5080263" fill="none" /><path id="3873" transform="matrix(1 0 0 -1 0 612)" d="M419.6191 183.8692L677.0677 183.8692" stroke="#000000" stroke-width="0.5080263" fill="none" /><path id="4056" transform="matrix(1 0 0 -1 0 612)" d="M419.6191 171.6265L659.0747 171.6265" stroke="#000000" stroke-width="0.5080263" fill="none" /><path id="4068" transform="matrix(1 0 0 -1 0 612)" d="M419.6191 162.1504L451.7164 162.1504" stroke="#000000" stroke-width="0.5080263" fill="none" /><path id="4172" transform="matrix(1 0 0 -1 0 612)" d="M419.6191 150.2051L564.8599 150.2051" stroke="#000000" stroke-width="0.5080263" fill="none" /><path id="4262" transform="matrix(1 0 0 -1 0 612)" d="M419.6191 128.4863L510.8506 128.4863" stroke="#000000" stroke-width="0.5080263" fill="none" /><path id="4444" transform="matrix(1 0 0 -1 0 612)" d="M419.6191 116.541L674.4598 116.541" stroke="#000000" stroke-width="0.5080263" fill="none" /><path id="4548" transform="matrix(1 0 0 -1 0 612)" d="M419.6191 94.8222L536.4547 94.8222" stroke="#000000" stroke-width="0.5080263" fill="none" /><path id="4744" transform="matrix(1 0 0 -1 0 612)" d="M419.6191 82.57947L671.2874 82.57947" stroke="#000000" stroke-width="0.5080263" fill="none" /><path id="4764" transform="matrix(1 0 0 -1 0 612)" d="M419.6191 73.10345L481.8008 73.10345" stroke="#000000" stroke-width="0.5080263" fill="none" /><path id="4912" transform="matrix(1 0 0 -1 0 612)" d="M419.6191 61.15808L619.2109 61.15808" stroke="#000000" stroke-width="0.5080263" fill="none" /></g></g></g></svg>