<svg xmlns="http://www.w3.org/2000/svg" xmlns:xlink="http://www.w3.org/1999/xlink" id="body_5" preserveAspectRatio="xMinYMin meet" viewBox="0 0 1056 816"><defs><clipPath id="1"><path id="" clip-rule="evenodd" transform="matrix(1 0 0 1 0 0)" d="M0 612L0 0L0 0L792 0L792 0L792 612L792 612L0 612z" /></clipPath><clipPath id="2"><path id="" clip-rule="evenodd" transform="matrix(1 0 0 1 0 0)" d="M49.31406 52.91431L742.6859 52.91431L742.6859 52.91431L742.6859 557.8757L742.6859 557.8757L49.31406 557.8757L49.31406 557.8757L49.31406 52.91431z" /></clipPath></defs><g transform="matrix(1.333333 0 0 1.333333 0 0)"><g clip-path="url(#1)"><g clip-path="url(#2)"><path id="101" transform="matrix(1 0 0 -1 0 612)" d="M49.85703 558.5427L742.1429 558.5427L742.1429 546.0544L49.85703 546.0544L49.85703 558.5427z" stroke="none" fill="#E0F7FA" fill-rule="nonzero" /><path id="102" transform="matrix(1 0 0 -1 0 612)" d="M49.85703 546.5974L742.1429 546.5974L742.1429 534.1091L49.85703 534.1091L49.85703 546.5974z" stroke="none" fill="#FFFFFF" fill-rule="nonzero" /><path id="103" transform="matrix(1 0 0 -1 0 612)" d="M49.85703 534.6521L742.1429 534.6521L742.1429 522.1638L49.85703 522.1638L49.85703 534.6521z" stroke="none" fill="#E0F7FA" fill-rule="nonzero" /><path id="104" transform="matrix(1 0 0 -1 0 612)" d="M49.85703 522.7068L742.1429 522.7068L742.1429 510.2185L49.85703 510.2185L49.85703 522.7068z" stroke="none" fill="#FFFFFF" fill-rule="nonzero" /><path id="105" transform="matrix(1 0 0 -1 0 612)" d="M49.85703 510.7615L742.1429 510.7615L742.1429 488.4998L49.85703 488.4998L49.85703 510.7615z" stroke="none" fill="#E0F7FA" fill-rule="nonzero" /><path id="106" transform="matrix(1 0 0 -1 0 612)" d="M49.85703 489.0427L742.1429 489.0427L742.1429 476.5544L49.85703 476.5544L49.85703 489.0427z" stroke="none" fill="#FFFFFF" fill-rule="nonzero" /><path id="107" transform="matrix(1 0 0 -1 0 612)" d="M49.85703 477.0974L742.1429 477.0974L742.1429 464.6091L49.85703 464.6091L49.85703 477.0974z" stroke="none" fill="#E0F7FA" fill-rule="nonzero" /><path id="108" transform="matrix(1 0 0 -1 0 612)" d="M49.85703 465.1521L742.1429 465.1521L742.1429 452.6638L49.85703 452.6638L49.85703 465.1521z" stroke="none" fill="#FFFFFF" fill-rule="nonzero" /><path id="109" transform="matrix(1 0 0 -1 0 612)" d="M49.85703 453.2068L742.1429 453.2068L742.1429 440.7185L49.85703 440.7185L49.85703 453.2068z" stroke="none" fill="#E0F7FA" fill-rule="nonzero" /><path id="110" transform="matrix(1 0 0 -1 0 612)" d="M49.85703 441.2615L742.1429 441.2615L742.1429 428.7732L49.85703 428.7732L49.85703 441.2615z" stroke="none" fill="#FFFFFF" fill-rule="nonzero" /><path id="111" transform="matrix(1 0 0 -1 0 612)" d="M49.85703 429.3162L742.1429 429.3162L742.1429 416.8276L49.85703 416.8276L49.85703 429.3162z" stroke="none" fill="#E0F7FA" fill-rule="nonzero" /><path id="112" transform="matrix(1 0 0 -1 0 612)" d="M49.85703 417.3706L742.1429 417.3706L742.1429 395.1089L49.85703 395.1089L49.85703 417.3706z" stroke="none" fill="#FFFFFF" fill-rule="nonzero" /><path id="113" transform="matrix(1 0 0 -1 0 612)" d="M49.85703 395.6519L742.1429 395.6519L742.1429 364.1597L49.85703 364.1597L49.85703 395.6519z" stroke="none" fill="#E0F7FA" fill-rule="nonzero" /><path id="114" transform="matrix(1 0 0 -1 0 612)" d="M49.85703 364.7026L742.1429 364.7026L742.1429 352.2144L49.85703 352.2144L49.85703 364.7026z" stroke="none" fill="#FFFFFF" fill-rule="nonzero" /><path id="115" transform="matrix(1 0 0 -1 0 612)" d="M49.85703 352.7573L742.1429 352.7573L742.1429 330.4956L49.85703 330.4956L49.85703 352.7573z" stroke="none" fill="#E0F7FA" fill-rule="nonzero" /><path id="116" transform="matrix(1 0 0 -1 0 612)" d="M49.85703 331.0386L742.1429 331.0386L742.1429 318.5503L49.85703 318.5503L49.85703 331.0386z" stroke="none" fill="#FFFFFF" fill-rule="nonzero" /><path id="117" transform="matrix(1 0 0 -1 0 612)" d="M49.85703 319.0933L742.1429 319.0933L742.1429 306.605L49.85703 306.605L49.85703 319.0933z" stroke="none" fill="#E0F7FA" fill-rule="nonzero" /><path id="118" transform="matrix(1 0 0 -1 0 612)" d="M49.85703 307.1479L742.1429 307.1479L742.1429 294.6597L49.85703 294.6597L49.85703 307.1479z" stroke="none" fill="#FFFFFF" fill-rule="nonzero" /><path id="119" transform="matrix(1 0 0 -1 0 612)" d="M49.85703 295.2026L742.1429 295.2026L742.1429 282.7144L49.85703 282.7144L49.85703 295.2026z" stroke="none" fill="#E0F7FA" fill-rule="nonzero" /><path id="120" transform="matrix(1 0 0 -1 0 612)" d="M49.85703 283.2573L742.1429 283.2573L742.1429 270.769L49.85703 270.769L49.85703 283.2573z" stroke="none" fill="#FFFFFF" fill-rule="nonzero" /><path id="121" transform="matrix(1 0 0 -1 0 612)" d="M49.85703 271.312L742.1429 271.312L742.1429 258.8237L49.85703 258.8237L49.85703 271.312z" stroke="none" fill="#E0F7FA" fill-rule="nonzero" /><path id="122" transform="matrix(1 0 0 -1 0 612)" d="M49.85703 259.3667L742.1429 259.3667L742.1429 246.8784L49.85703 246.8784L49.85703 259.3667z" stroke="none" fill="#FFFFFF" fill-rule="nonzero" /><path id="123" transform="matrix(1 0 0 -1 0 612)" d="M49.85703 247.4214L742.1429 247.4214L742.1429 234.9331L49.85703 234.9331L49.85703 247.4214z" stroke="none" fill="#E0F7FA" fill-rule="nonzero" /><path id="124" transform="matrix(1 0 0 -1 0 612)" d="M49.85703 235.4761L742.1429 235.4761L742.1429 222.9878L49.85703 222.9878L49.85703 235.4761z" stroke="none" fill="#FFFFFF" fill-rule="nonzero" /><path id="125" transform="matrix(1 0 0 -1 0 612)" d="M49.85703 223.5308L742.1429 223.5308L742.1429 201.2688L49.85703 201.2688L49.85703 223.5308z" stroke="none" fill="#E0F7FA" fill-rule="nonzero" /><path id="126" transform="matrix(1 0 0 -1 0 612)" d="M49.85703 201.8118L742.1429 201.8118L742.1429 189.3235L49.85703 189.3235L49.85703 201.8118z" stroke="none" fill="#FFFFFF" fill-rule="nonzero" /><path id="127" transform="matrix(1 0 0 -1 0 612)" d="M49.85703 189.8665L742.1429 189.8665L742.1429 177.3782L49.85703 177.3782L49.85703 189.8665z" stroke="none" fill="#E0F7FA" fill-rule="nonzero" /><path id="128" transform="matrix(1 0 0 -1 0 612)" d="M49.85703 177.9211L742.1429 177.9211L742.1429 165.4329L49.85703 165.4329L49.85703 177.9211z" stroke="none" fill="#FFFFFF" fill-rule="nonzero" /><path id="129" transform="matrix(1 0 0 -1 0 612)" d="M49.85703 165.9758L742.1429 165.9758L742.1429 143.7141L49.85703 143.7141L49.85703 165.9758z" stroke="none" fill="#E0F7FA" fill-rule="nonzero" /><path id="130" transform="matrix(1 0 0 -1 0 612)" d="M49.85703 144.2571L742.1429 144.2571L742.1429 131.7688L49.85703 131.7688L49.85703 144.2571z" stroke="none" fill="#FFFFFF" fill-rule="nonzero" /><path id="131" transform="matrix(1 0 0 -1 0 612)" d="M49.85703 132.3118L742.1429 132.3118L742.1429 119.8235L49.85703 119.8235L49.85703 132.3118z" stroke="none" fill="#E0F7FA" fill-rule="nonzero" /><path id="132" transform="matrix(1 0 0 -1 0 612)" d="M49.85703 120.3665L742.1429 120.3665L742.1429 98.10474L49.85703 98.10474L49.85703 120.3665z" stroke="none" fill="#FFFFFF" fill-rule="nonzero" /><path id="133" transform="matrix(1 0 0 -1 0 612)" d="M49.85703 98.64771L742.1429 98.64771L742.1429 76.38599L49.85703 76.38599L49.85703 98.64771z" stroke="none" fill="#E0F7FA" fill-rule="nonzero" /><path id="134" transform="matrix(1 0 0 -1 0 612)" d="M49.85703 76.92896L742.1429 76.92896L742.1429 54.66724L49.85703 54.66724L49.85703 76.92896z" stroke="none" fill="#FFFFFF" fill-rule="nonzero" /><path id="135" transform="matrix(1 0 0 -1 0 612)" d="M49.85703 55.21021L742.1429 55.21021L742.1429 54.66724L49.85703 54.66724zM49.85703 76.92896L742.1429 76.92896L742.1429 76.38599L49.85703 76.38599zM49.85703 98.64771L742.1429 98.64771L742.1429 98.10474L49.85703 98.10474zM49.85703 120.3665L742.1429 120.3665L742.1429 119.8235L49.85703 119.8235zM49.85703 132.3118L742.1429 132.3118L742.1429 131.7688L49.85703 131.7688zM49.85703 144.2571L742.1429 144.2571L742.1429 143.7141L49.85703 143.7141zM49.85703 165.9758L742.1429 165.9758L742.1429 165.4329L49.85703 165.4329zM49.85703 177.9211L742.1429 177.9211L742.1429 177.3782L49.85703 177.3782zM49.85703 189.8665L742.1429 189.8665L742.1429 189.3235L49.85703 189.3235zM49.85703 201.8118L742.1429 201.8118L742.1429 201.2688L49.85703 201.2688zM49.85703 223.5308L742.1429 223.5308L742.1429 222.9878L49.85703 222.9878zM49.85703 235.4761L742.1429 235.4761L742.1429 234.9331L49.85703 234.9331zM49.85703 247.4214L742.1429 247.4214L742.1429 246.8784L49.85703 246.8784zM49.85703 259.3667L742.1429 259.3667L742.1429 258.8237L49.85703 258.8237zM49.85703 271.312L742.1429 271.312L742.1429 270.769L49.85703 270.769zM49.85703 283.2573L742.1429 283.2573L742.1429 282.7144L49.85703 282.7144zM49.85703 295.2026L742.1429 295.2026L742.1429 294.6597L49.85703 294.6597zM49.85703 307.1479L742.1429 307.1479L742.1429 306.605L49.85703 306.605zM49.85703 319.0933L742.1429 319.0933L742.1429 318.5503L49.85703 318.5503zM49.85703 331.0386L742.1429 331.0386L742.1429 330.4956L49.85703 330.4956zM49.85703 352.7573L742.1429 352.7573L742.1429 352.2144L49.85703 352.2144zM49.85703 364.7026L742.1429 364.7026L742.1429 364.1597L49.85703 364.1597zM49.85703 395.6519L742.1429 395.6519L742.1429 395.1089L49.85703 395.1089zM49.85703 417.3706L742.1429 417.3706L742.1429 416.8276L49.85703 416.8276zM49.85703 429.3162L742.1429 429.3162L742.1429 428.7732L49.85703 428.7732zM49.85703 441.2615L742.1429 441.2615L742.1429 440.7185L49.85703 440.7185zM49.85703 453.2068L742.1429 453.2068L742.1429 452.6638L49.85703 452.6638zM49.85703 465.1521L742.1429 465.1521L742.1429 464.6091L49.85703 464.6091zM49.85703 477.0974L742.1429 477.0974L742.1429 476.5544L49.85703 476.5544zM49.85703 489.0427L742.1429 489.0427L742.1429 488.4998L49.85703 488.4998zM49.85703 510.7615L742.1429 510.7615L742.1429 510.2185L49.85703 510.2185zM49.85703 522.7068L742.1429 522.7068L742.1429 522.1638L49.85703 522.1638zM49.85703 534.6521L742.1429 534.6521L742.1429 534.1091L49.85703 534.1091zM49.85703 546.5974L742.1429 546.5974L742.1429 546.0544L49.85703 546.0544zM49.85703 558.5427L742.1429 558.5427L742.1429 557.9998L49.85703 557.9998zM742.1429 76.38599L742.1429 55.21021L741.6 55.21021L741.6 76.38599zM742.1429 98.10474L742.1429 76.92896L741.6 76.92896L741.6 98.10474zM742.1429 119.8235L742.1429 98.64771L741.6 98.64771L741.6 119.8235zM742.1429 131.7688L742.1429 120.3665L741.6 120.3665L741.6 131.7688zM742.1429 143.7141L742.1429 132.3118L741.6 132.3118L741.6 143.7141zM742.1429 165.4329L742.1429 144.2571L741.6 144.2571L741.6 165.4329zM742.1429 177.3782L742.1429 165.9758L741.6 165.9758L741.6 177.3782zM742.1429 189.3235L742.1429 177.9211L741.6 177.9211L741.6 189.3235zM742.1429 201.2688L742.1429 189.8665L741.6 189.8665L741.6 201.2688zM742.1429 222.9878L742.1429 201.8118L741.6 201.8118L741.6 222.9878zM742.1429 234.9331L742.1429 223.5308L741.6 223.5308L741.6 234.9331zM742.1429 246.8784L742.1429 235.4761L741.6 235.4761L741.6 246.8784zM742.1429 258.8237L742.1429 247.4214L741.6 247.4214L741.6 258.8237zM742.1429 270.769L742.1429 259.3667L741.6 259.3667L741.6 270.769zM742.1429 282.7144L742.1429 271.312L741.6 271.312L741.6 282.7144zM742.1429 294.6597L742.1429 283.2573L741.6 283.2573L741.6 294.6597zM742.1429 306.605L742.1429 295.2026L741.6 295.2026L741.6 306.605zM742.1429 318.5503L742.1429 307.1479L741.6 307.1479L741.6 318.5503zM742.1429 330.4956L742.1429 319.0933L741.6 319.0933L741.6 330.4956zM742.1429 352.2144L742.1429 331.0386L741.6 331.0386L741.6 352.2144zM742.1429 364.1597L742.1429 352.7573L741.6 352.7573L741.6 364.1597zM742.1429 395.1089L742.1429 364.7026L741.6 364.7026L741.6 395.1089zM742.1429 416.8276L742.1429 395.6519L741.6 395.6519L741.6 416.8276zM742.1429 428.7732L742.1429 417.3706L741.6 417.3706L741.6 428.7732zM742.1429 440.7185L742.1429 429.3162L741.6 429.3162L741.6 440.7185zM742.1429 452.6638L742.1429 441.2615L741.6 441.2615L741.6 452.6638zM742.1429 464.6091L742.1429 453.2068L741.6 453.2068L741.6 464.6091zM742.1429 476.5544L742.1429 465.1521L741.6 465.1521L741.6 476.5544zM742.1429 488.4998L742.1429 477.0974L741.6 477.0974L741.6 488.4998zM742.1429 510.2185L742.1429 489.0427L741.6 489.0427L741.6 510.2185zM742.1429 522.1638L742.1429 510.7615L741.6 510.7615L741.6 522.1638zM742.1429 534.1091L742.1429 522.7068L741.6 522.7068L741.6 534.1091zM742.1429 546.0544L742.1429 534.6521L741.6 534.6521L741.6 546.0544zM742.1429 557.9998L742.1429 546.5974L741.6 546.5974L741.6 557.9998zM691.1039 76.38599L691.1039 55.21021L690.5609 55.21021L690.5609 76.38599zM691.1039 98.10474L691.1039 76.92896L690.5609 76.92896L690.5609 98.10474zM691.1039 119.8235L691.1039 98.64771L690.5609 98.64771L690.5609 119.8235zM691.1039 131.7688L691.1039 120.3665L690.5609 120.3665L690.5609 131.7688zM691.1039 143.7141L691.1039 132.3118L690.5609 132.3118L690.5609 143.7141zM691.1039 165.4329L691.1039 144.2571L690.5609 144.2571L690.5609 165.4329zM691.1039 177.3782L691.1039 165.9758L690.5609 165.9758L690.5609 177.3782zM691.1039 189.3235L691.1039 177.9211L690.5609 177.9211L690.5609 189.3235zM691.1039 201.2688L691.1039 189.8665L690.5609 189.8665L690.5609 201.2688zM691.1039 222.9878L691.1039 201.8118L690.5609 201.8118L690.5609 222.9878zM691.1039 234.9331L691.1039 223.5308L690.5609 223.5308L690.5609 234.9331zM691.1039 246.8784L691.1039 235.4761L690.5609 235.4761L690.5609 246.8784zM691.1039 258.8237L691.1039 247.4214L690.5609 247.4214L690.5609 258.8237zM691.1039 270.769L691.1039 259.3667L690.5609 259.3667L690.5609 270.769zM691.1039 282.7144L691.1039 271.312L690.5609 271.312L690.5609 282.7144zM691.1039 294.6597L691.1039 283.2573L690.5609 283.2573L690.5609 294.6597zM691.1039 306.605L691.1039 295.2026L690.5609 295.2026L690.5609 306.605zM691.1039 318.5503L691.1039 307.1479L690.5609 307.1479L690.5609 318.5503zM691.1039 330.4956L691.1039 319.0933L690.5609 319.0933L690.5609 330.4956zM691.1039 352.2144L691.1039 331.0386L690.5609 331.0386L690.5609 352.2144zM691.1039 364.1597L691.1039 352.7573L690.5609 352.7573L690.5609 364.1597zM691.1039 395.1089L691.1039 364.7026L690.5609 364.7026L690.5609 395.1089zM691.1039 416.8276L691.1039 395.6519L690.5609 395.6519L690.5609 416.8276zM691.1039 428.7732L691.1039 417.3706L690.5609 417.3706L690.5609 428.7732zM691.1039 440.7185L691.1039 429.3162L690.5609 429.3162L690.5609 440.7185zM691.1039 452.6638L691.1039 441.2615L690.5609 441.2615L690.5609 452.6638zM691.1039 464.6091L691.1039 453.2068L690.5609 453.2068L690.5609 464.6091zM691.1039 476.5544L691.1039 465.1521L690.5609 465.1521L690.5609 476.5544zM691.1039 488.4998L691.1039 477.0974L690.5609 477.0974L690.5609 488.4998zM691.1039 510.2185L691.1039 489.0427L690.5609 489.0427L690.5609 510.2185zM691.1039 522.1638L691.1039 510.7615L690.5609 510.7615L690.5609 522.1638zM691.1039 534.1091L691.1039 522.7068L690.5609 522.7068L690.5609 534.1091zM691.1039 546.0544L691.1039 534.6521L690.5609 534.6521L690.5609 546.0544zM691.1039 557.9998L691.1039 546.5974L690.5609 546.5974L690.5609 557.9998zM417.9902 76.38599L417.9902 55.21021L417.4473 55.21021L417.4473 76.38599zM417.9902 98.10474L417.9902 76.92896L417.4473 76.92896L417.4473 98.10474zM417.9902 119.8235L417.9902 98.64771L417.4473 98.64771L417.4473 119.8235zM417.9902 131.7688L417.9902 120.3665L417.4473 120.3665L417.4473 131.7688zM417.9902 143.7141L417.9902 132.3118L417.4473 132.3118L417.4473 143.7141zM417.9902 165.4329L417.9902 144.2571L417.4473 144.2571L417.4473 165.4329zM417.9902 177.3782L417.9902 165.9758L417.4473 165.9758L417.4473 177.3782zM417.9902 189.3235L417.9902 177.9211L417.4473 177.9211L417.4473 189.3235zM417.9902 201.2688L417.9902 189.8665L417.4473 189.8665L417.4473 201.2688zM417.9902 222.9878L417.9902 201.8118L417.4473 201.8118L417.4473 222.9878zM417.9902 234.9331L417.9902 223.5308L417.4473 223.5308L417.4473 234.9331zM417.9902 246.8784L417.9902 235.4761L417.4473 235.4761L417.4473 246.8784zM417.9902 258.8237L417.9902 247.4214L417.4473 247.4214L417.4473 258.8237zM417.9902 270.769L417.9902 259.3667L417.4473 259.3667L417.4473 270.769zM417.9902 282.7144L417.9902 271.312L417.4473 271.312L417.4473 282.7144zM417.9902 294.6597L417.9902 283.2573L417.4473 283.2573L417.4473 294.6597zM417.9902 306.605L417.9902 295.2026L417.4473 295.2026L417.4473 306.605zM417.9902 318.5503L417.9902 307.1479L417.4473 307.1479L417.4473 318.5503zM417.9902 330.4956L417.9902 319.0933L417.4473 319.0933L417.4473 330.4956zM417.9902 352.2144L417.9902 331.0386L417.4473 331.0386L417.4473 352.2144zM417.9902 364.1597L417.9902 352.7573L417.4473 352.7573L417.4473 364.1597zM417.9902 395.1089L417.9902 364.7026L417.4473 364.7026L417.4473 395.1089zM417.9902 416.8276L417.9902 395.6519L417.4473 395.6519L417.4473 416.8276zM417.9902 428.7732L417.9902 417.3706L417.4473 417.3706L417.4473 428.7732zM417.9902 440.7185L417.9902 429.3162L417.4473 429.3162L417.4473 440.7185zM417.9902 452.6638L417.9902 441.2615L417.4473 441.2615L417.4473 452.6638zM417.9902 464.6091L417.9902 453.2068L417.4473 453.2068L417.4473 464.6091zM417.9902 476.5544L417.9902 465.1521L417.4473 465.1521L417.4473 476.5544zM417.9902 488.4998L417.9902 477.0974L417.4473 477.0974L417.4473 488.4998zM417.9902 510.2185L417.9902 489.0427L417.4473 489.0427L417.4473 510.2185zM417.9902 522.1638L417.9902 510.7615L417.4473 510.7615L417.4473 522.1638zM417.9902 534.1091L417.9902 522.7068L417.4473 522.7068L417.4473 534.1091zM417.9902 546.0544L417.9902 534.6521L417.4473 534.6521L417.4473 546.0544zM417.9902 557.9998L417.9902 546.5974L417.4473 546.5974L417.4473 557.9998zM144.8767 76.38599L144.8767 55.21021L144.3337 55.21021L144.3337 76.38599zM144.8767 98.10474L144.8767 76.92896L144.3337 76.92896L144.3337 98.10474zM144.8767 119.8235L144.8767 98.64771L144.3337 98.64771L144.3337 119.8235zM144.8767 131.7688L144.8767 120.3665L144.3337 120.3665L144.3337 131.7688zM144.8767 143.7141L144.8767 132.3118L144.3337 132.3118L144.3337 143.7141zM144.8767 165.4329L144.8767 144.2571L144.3337 144.2571L144.3337 165.4329zM144.8767 177.3782L144.8767 165.9758L144.3337 165.9758L144.3337 177.3782zM144.8767 189.3235L144.8767 177.9211L144.3337 177.9211L144.3337 189.3235zM144.8767 201.2688L144.8767 189.8665L144.3337 189.8665L144.3337 201.2688zM144.8767 222.9878L144.8767 201.8118L144.3337 201.8118L144.3337 222.9878zM144.8767 234.9331L144.8767 223.5308L144.3337 223.5308L144.3337 234.9331zM144.8767 246.8784L144.8767 235.4761L144.3337 235.4761L144.3337 246.8784zM144.8767 258.8237L144.8767 247.4214L144.3337 247.4214L144.3337 258.8237zM144.8767 270.769L144.8767 259.3667L144.3337 259.3667L144.3337 270.769zM144.8767 282.7144L144.8767 271.312L144.3337 271.312L144.3337 282.7144zM144.8767 294.6597L144.8767 283.2573L144.3337 283.2573L144.3337 294.6597zM144.8767 306.605L144.8767 295.2026L144.3337 295.2026L144.3337 306.605zM144.8767 318.5503L144.8767 307.1479L144.3337 307.1479L144.3337 318.5503zM144.8767 330.4956L144.8767 319.0933L144.3337 319.0933L144.3337 330.4956zM144.8767 352.2144L144.8767 331.0386L144.3337 331.0386L144.3337 352.2144zM144.8767 364.1597L144.8767 352.7573L144.3337 352.7573L144.3337 364.1597zM144.8767 395.1089L144.8767 364.7026L144.3337 364.7026L144.3337 395.1089zM144.8767 416.8276L144.8767 395.6519L144.3337 395.6519L144.3337 416.8276zM144.8767 428.7732L144.8767 417.3706L144.3337 417.3706L144.3337 428.7732zM144.8767 440.7185L144.8767 429.3162L144.3337 429.3162L144.3337 440.7185zM144.8767 452.6638L144.8767 441.2615L144.3337 441.2615L144.3337 452.6638zM144.8767 464.6091L144.8767 453.2068L144.3337 453.2068L144.3337 464.6091zM144.8767 476.5544L144.8767 465.1521L144.3337 465.1521L144.3337 476.5544zM144.8767 488.4998L144.8767 477.0974L144.3337 477.0974L144.3337 488.4998zM144.8767 510.2185L144.8767 489.0427L144.3337 489.0427L144.3337 510.2185zM144.8767 522.1638L144.8767 510.7615L144.3337 510.7615L144.3337 522.1638zM144.8767 534.1091L144.8767 522.7068L144.3337 522.7068L144.3337 534.1091zM144.8767 546.0544L144.8767 534.6521L144.3337 534.6521L144.3337 546.0544zM144.8767 557.9998L144.8767 546.5974L144.3337 546.5974L144.3337 557.9998zM74.83362 76.38599L74.83362 55.21021L74.29065 55.21021L74.29065 76.38599zM74.83362 98.10474L74.83362 76.92896L74.29065 76.92896L74.29065 98.10474zM74.83362 119.8235L74.83362 98.64771L74.29065 98.64771L74.29065 119.8235zM74.83362 131.7688L74.83362 120.3665L74.29065 120.3665L74.29065 131.7688zM74.83362 143.7141L74.83362 132.3118L74.29065 132.3118L74.29065 143.7141zM74.83362 165.4329L74.83362 144.2571L74.29065 144.2571L74.29065 165.4329zM74.83362 177.3782L74.83362 165.9758L74.29065 165.9758L74.29065 177.3782zM74.83362 189.3235L74.83362 177.9211L74.29065 177.9211L74.29065 189.3235zM74.83362 201.2688L74.83362 189.8665L74.29065 189.8665L74.29065 201.2688zM74.83362 222.9878L74.83362 201.8118L74.29065 201.8118L74.29065 222.9878zM74.83362 234.9331L74.83362 223.5308L74.29065 223.5308L74.29065 234.9331zM74.83362 246.8784L74.83362 235.4761L74.29065 235.4761L74.29065 246.8784zM74.83362 258.8237L74.83362 247.4214L74.29065 247.4214L74.29065 258.8237zM74.83362 270.769L74.83362 259.3667L74.29065 259.3667L74.29065 270.769zM74.83362 282.7144L74.83362 271.312L74.29065 271.312L74.29065 282.7144zM74.83362 294.6597L74.83362 283.2573L74.29065 283.2573L74.29065 294.6597zM74.83362 306.605L74.83362 295.2026L74.29065 295.2026L74.29065 306.605zM74.83362 318.5503L74.83362 307.1479L74.29065 307.1479L74.29065 318.5503zM74.83362 330.4956L74.83362 319.0933L74.29065 319.0933L74.29065 330.4956zM74.83362 352.2144L74.83362 331.0386L74.29065 331.0386L74.29065 352.2144zM74.83362 364.1597L74.83362 352.7573L74.29065 352.7573L74.29065 364.1597zM74.83362 395.1089L74.83362 364.7026L74.29065 364.7026L74.29065 395.1089zM74.83362 416.8276L74.83362 395.6519L74.29065 395.6519L74.29065 416.8276zM74.83362 428.7732L74.83362 417.3706L74.29065 417.3706L74.29065 428.7732zM74.83362 440.7185L74.83362 429.3162L74.29065 429.3162L74.29065 440.7185zM74.83362 452.6638L74.83362 441.2615L74.29065 441.2615L74.29065 452.6638zM74.83362 464.6091L74.83362 453.2068L74.29065 453.2068L74.29065 464.6091zM74.83362 476.5544L74.83362 465.1521L74.29065 465.1521L74.29065 476.5544zM74.83362 488.4998L74.83362 477.0974L74.29065 477.0974L74.29065 488.4998zM74.83362 510.2185L74.83362 489.0427L74.29065 489.0427L74.29065 510.2185zM74.83362 522.1638L74.83362 510.7615L74.29065 510.7615L74.29065 522.1638zM74.83362 534.1091L74.83362 522.7068L74.29065 522.7068L74.29065 534.1091zM74.83362 546.0544L74.83362 534.6521L74.29065 534.6521L74.29065 546.0544zM74.83362 557.9998L74.83362 546.5974L74.29065 546.5974L74.29065 557.9998zM50.39999 76.38599L50.39999 55.21021L49.85703 55.21021L49.85703 76.38599zM50.39999 98.10474L50.39999 76.92896L49.85703 76.92896L49.85703 98.10474zM50.39999 119.8235L50.39999 98.64771L49.85703 98.64771L49.85703 119.8235zM50.39999 131.7688L50.39999 120.3665L49.85703 120.3665L49.85703 131.7688zM50.39999 143.7141L50.39999 132.3118L49.85703 132.3118L49.85703 143.7141zM50.39999 165.4329L50.39999 144.2571L49.85703 144.2571L49.85703 165.4329zM50.39999 177.3782L50.39999 165.9758L49.85703 165.9758L49.85703 177.3782zM50.39999 189.3235L50.39999 177.9211L49.85703 177.9211L49.85703 189.3235zM50.39999 201.2688L50.39999 189.8665L49.85703 189.8665L49.85703 201.2688zM50.39999 222.9878L50.39999 201.8118L49.85703 201.8118L49.85703 222.9878zM50.39999 234.9331L50.39999 223.5308L49.85703 223.5308L49.85703 234.9331zM50.39999 246.8784L50.39999 235.4761L49.85703 235.4761L49.85703 246.8784zM50.39999 258.8237L50.39999 247.4214L49.85703 247.4214L49.85703 258.8237zM50.39999 270.769L50.39999 259.3667L49.85703 259.3667L49.85703 270.769zM50.39999 282.7144L50.39999 271.312L49.85703 271.312L49.85703 282.7144zM50.39999 294.6597L50.39999 283.2573L49.85703 283.2573L49.85703 294.6597zM50.39999 306.605L50.39999 295.2026L49.85703 295.2026L49.85703 306.605zM50.39999 318.5503L50.39999 307.1479L49.85703 307.1479L49.85703 318.5503zM50.39999 330.4956L50.39999 319.0933L49.85703 319.0933L49.85703 330.4956zM50.39999 352.2144L50.39999 331.0386L49.85703 331.0386L49.85703 352.2144zM50.39999 364.1597L50.39999 352.7573L49.85703 352.7573L49.85703 364.1597zM50.39999 395.1089L50.39999 364.7026L49.85703 364.7026L49.85703 395.1089zM50.39999 416.8276L50.39999 395.6519L49.85703 395.6519L49.85703 416.8276zM50.39999 428.7732L50.39999 417.3706L49.85703 417.3706L49.85703 428.7732zM50.39999 440.7185L50.39999 429.3162L49.85703 429.3162L49.85703 440.7185zM50.39999 452.6638L50.39999 441.2615L49.85703 441.2615L49.85703 452.6638zM50.39999 464.6091L50.39999 453.2068L49.85703 453.2068L49.85703 464.6091zM50.39999 476.5544L50.39999 465.1521L49.85703 465.1521L49.85703 476.5544zM50.39999 488.4998L50.39999 477.0974L49.85703 477.0974L49.85703 488.4998zM50.39999 510.2185L50.39999 489.0427L49.85703 489.0427L49.85703 510.2185zM50.39999 522.1638L50.39999 510.7615L49.85703 510.7615L49.85703 522.1638zM50.39999 534.1091L50.39999 522.7068L49.85703 522.7068L49.85703 534.1091zM50.39999 546.0544L50.39999 534.6521L49.85703 534.6521L49.85703 546.0544zM50.39999 557.9998L50.39999 546.5974L49.85703 546.5974L49.85703 557.9998z" stroke="none" fill="#000000" fill-rule="nonzero" fill-opacity="0.1490196" /><path id="287" transform="matrix(1 0 0 -1 0 612)" d="M419.6191 548.7445L634.4066 548.7445" stroke="#000000" stroke-width="0.5080263" fill="none" /><path id="374" transform="matrix(1 0 0 -1 0 612)" d="M419.6191 536.7992L529.8368 536.7992" stroke="#000000" stroke-width="0.5080263" fill="none" /><path id="536" transform="matrix(1 0 0 -1 0 612)" d="M419.6191 524.8539L646.2517 524.8539" stroke="#000000" stroke-width="0.5080263" fill="none" /><path id="691" transform="matrix(1 0 0 -1 0 612)" d="M419.6191 512.9086L623.6267 512.9086" stroke="#000000" stroke-width="0.5080263" fill="none" /><path id="888" transform="matrix(1 0 0 -1 0 612)" d="M419.6191 500.6658L668.528 500.6658" stroke="#000000" stroke-width="0.5080263" fill="none" /><path id="911" transform="matrix(1 0 0 -1 0 612)" d="M419.6191 491.1897L491.2882 491.1897" stroke="#000000" stroke-width="0.5080263" fill="none" /><path id="1020" transform="matrix(1 0 0 -1 0 612)" d="M419.6191 479.2444L567.828 479.2444" stroke="#000000" stroke-width="0.5080263" fill="none" /><path id="1128" transform="matrix(1 0 0 -1 0 612)" d="M419.6191 467.2991L556.5479 467.2991" stroke="#000000" stroke-width="0.5080263" fill="none" /><path id="1271" transform="matrix(1 0 0 -1 0 612)" d="M419.6191 455.3538L624.0021 455.3538" stroke="#000000" stroke-width="0.5080263" fill="none" /><path id="1377" transform="matrix(1 0 0 -1 0 612)" d="M419.6191 443.4084L562.9916 443.4084" stroke="#000000" stroke-width="0.5080263" fill="none" /><path id="1524" transform="matrix(1 0 0 -1 0 612)" d="M419.6191 431.4631L622.031 431.4631" stroke="#000000" stroke-width="0.5080263" fill="none" /><path id="1594" transform="matrix(1 0 0 -1 0 612)" d="M419.6191 419.5178L512.651 419.5178" stroke="#000000" stroke-width="0.5080263" fill="none" /><path id="1757" transform="matrix(1 0 0 -1 0 612)" d="M419.6191 397.7991L618.3956 397.7991" stroke="#000000" stroke-width="0.5080263" fill="none" /><path id="1908" transform="matrix(1 0 0 -1 0 612)" d="M419.6191 366.8499L592.1738 366.8499" stroke="#000000" stroke-width="0.5080263" fill="none" /><path id="2036" transform="matrix(1 0 0 -1 0 612)" d="M419.6191 354.9045L593.3071 354.9045" stroke="#000000" stroke-width="0.5080263" fill="none" /><path id="2260" transform="matrix(1 0 0 -1 0 612)" d="M419.6191 342.6616L671.1813 342.6616" stroke="#000000" stroke-width="0.5080263" fill="none" /><path id="2302" transform="matrix(1 0 0 -1 0 612)" d="M419.6191 333.1858L551.7302 333.1858" stroke="#000000" stroke-width="0.5080263" fill="none" /><path id="2389" transform="matrix(1 0 0 -1 0 612)" d="M419.6191 321.2402L522.6198 321.2402" stroke="#000000" stroke-width="0.5080263" fill="none" /><path id="2546" transform="matrix(1 0 0 -1 0 612)" d="M419.6191 309.2949L630.0439 309.2949" stroke="#000000" stroke-width="0.5080263" fill="none" /><path id="2737" transform="matrix(1 0 0 -1 0 612)" d="M419.6191 297.3496L672.6365 297.3496" stroke="#000000" stroke-width="0.5080263" fill="none" /><path id="2780" transform="matrix(1 0 0 -1 0 612)" d="M419.6191 285.4043L462.6706 285.4043" stroke="#000000" stroke-width="0.5080263" fill="none" /><path id="2895" transform="matrix(1 0 0 -1 0 612)" d="M419.6191 273.459L574.8593 273.459" stroke="#000000" stroke-width="0.5080263" fill="none" /><path id="3020" transform="matrix(1 0 0 -1 0 612)" d="M419.6191 261.5137L577.4823 261.5137" stroke="#000000" stroke-width="0.5080263" fill="none" /><path id="3164" transform="matrix(1 0 0 -1 0 612)" d="M419.6191 249.5684L605.5577 249.5684" stroke="#000000" stroke-width="0.5080263" fill="none" /><path id="3315" transform="matrix(1 0 0 -1 0 612)" d="M419.6191 237.623L630.29 237.623" stroke="#000000" stroke-width="0.5080263" fill="none" /><path id="3393" transform="matrix(1 0 0 -1 0 612)" d="M419.6191 225.6775L504.0581 225.6775" stroke="#000000" stroke-width="0.5080263" fill="none" /><path id="3602" transform="matrix(1 0 0 -1 0 612)" d="M419.6191 213.4348L672.974 213.4348" stroke="#000000" stroke-width="0.5080263" fill="none" /><path id="3635" transform="matrix(1 0 0 -1 0 612)" d="M419.6191 203.9587L519.8187 203.9587" stroke="#000000" stroke-width="0.5080263" fill="none" /><path id="3825" transform="matrix(1 0 0 -1 0 612)" d="M419.6191 192.0134L681.0779 192.0134" stroke="#000000" stroke-width="0.5080263" fill="none" /><path id="3903" transform="matrix(1 0 0 -1 0 612)" d="M419.6191 180.0681L517.1616 180.0681" stroke="#000000" stroke-width="0.5080263" fill="none" /><path id="3997" transform="matrix(1 0 0 -1 0 612)" d="M419.6191 168.1228L535.708 168.1228" stroke="#000000" stroke-width="0.5080263" fill="none" /><path id="4198" transform="matrix(1 0 0 -1 0 612)" d="M419.6191 155.8801L656.0499 155.8801" stroke="#000000" stroke-width="0.5080263" fill="none" /><path id="4230" transform="matrix(1 0 0 -1 0 612)" d="M419.6191 146.4041L526.7247 146.4041" stroke="#000000" stroke-width="0.5080263" fill="none" /><path id="4416" transform="matrix(1 0 0 -1 0 612)" d="M419.6191 134.4587L674.3044 134.4587" stroke="#000000" stroke-width="0.5080263" fill="none" /><path id="4568" transform="matrix(1 0 0 -1 0 612)" d="M419.6191 122.5134L604.4396 122.5134" stroke="#000000" stroke-width="0.5080263" fill="none" /><path id="4769" transform="matrix(1 0 0 -1 0 612)" d="M419.6191 110.2705L669.6044 110.2705" stroke="#000000" stroke-width="0.5080263" fill="none" /><path id="4793" transform="matrix(1 0 0 -1 0 612)" d="M419.6191 100.7947L497.1368 100.7947" stroke="#000000" stroke-width="0.5080263" fill="none" /><path id="5046" transform="matrix(1 0 0 -1 0 612)" d="M419.6191 88.55176L670.7225 88.55176" stroke="#000000" stroke-width="0.5080263" fill="none" /><path id="5107" transform="matrix(1 0 0 -1 0 612)" d="M419.6191 79.07593L603.0106 79.07593" stroke="#000000" stroke-width="0.5080263" fill="none" /><path id="5165" transform="matrix(1 0 0 -1 0 612)" d="M419.6191 57.35718L467.4845 57.35718" stroke="#000000" stroke-width="0.5080263" fill="none" /></g></g></g></svg>