<svg xmlns="http://www.w3.org/2000/svg" xmlns:xlink="http://www.w3.org/1999/xlink" id="body_1" preserveAspectRatio="xMinYMin meet" viewBox="0 0 1056 816"><defs><clipPath id="1"><path id="" clip-rule="evenodd" transform="matrix(1 0 0 1 0 0)" d="M0 612L0 0L0 0L792 0L792 0L792 612L792 612L0 612z" /></clipPath><clipPath id="2"><path id="" clip-rule="evenodd" transform="matrix(1 0 0 1 0 0)" d="M49.31406 52.91412L742.6859 52.91412L742.6859 52.91412L742.6859 548.1022L742.6859 548.1022L49.31406 548.1022L49.31406 548.1022L49.31406 52.91412z" /></clipPath></defs><g transform="matrix(1.333333 0 0 1.333333 0 0)"><g clip-path="url(#1)"><g clip-path="url(#2)"><path id="101" transform="matrix(1 0 0 -1 0 612)" d="M49.85703 558.5429L742.1429 558.5429L742.1429 546.0546L49.85703 546.0546L49.85703 558.5429z" stroke="none" fill="#4DD0E1" fill-rule="nonzero" /><path id="102" transform="matrix(1 0 0 -1 0 612)" d="M49.85703 546.5976L742.1429 546.5976L742.1429 524.3358L49.85703 524.3358L49.85703 546.5976z" stroke="none" fill="#FFFFFF" fill-rule="nonzero" /><path id="103" transform="matrix(1 0 0 -1 0 612)" d="M49.85703 524.8788L742.1429 524.8788L742.1429 512.3905L49.85703 512.3905L49.85703 524.8788z" stroke="none" fill="#E0F7FA" fill-rule="nonzero" /><path id="104" transform="matrix(1 0 0 -1 0 612)" d="M49.85703 512.9335L742.1429 512.9335L742.1429 500.4452L49.85703 500.4452L49.85703 512.9335z" stroke="none" fill="#FFFFFF" fill-rule="nonzero" /><path id="105" transform="matrix(1 0 0 -1 0 612)" d="M49.85703 500.9882L742.1429 500.9882L742.1429 488.4998L49.85703 488.4998L49.85703 500.9882z" stroke="none" fill="#E0F7FA" fill-rule="nonzero" /><path id="106" transform="matrix(1 0 0 -1 0 612)" d="M49.85703 489.0428L742.1429 489.0428L742.1429 466.7811L49.85703 466.7811L49.85703 489.0428z" stroke="none" fill="#FFFFFF" fill-rule="nonzero" /><path id="107" transform="matrix(1 0 0 -1 0 612)" d="M49.85703 467.324L742.1429 467.324L742.1429 454.8358L49.85703 454.8358L49.85703 467.324z" stroke="none" fill="#E0F7FA" fill-rule="nonzero" /><path id="108" transform="matrix(1 0 0 -1 0 612)" d="M49.85703 455.3787L742.1429 455.3787L742.1429 442.8904L49.85703 442.8904L49.85703 455.3787z" stroke="none" fill="#FFFFFF" fill-rule="nonzero" /><path id="109" transform="matrix(1 0 0 -1 0 612)" d="M49.85703 443.4334L742.1429 443.4334L742.1429 430.9451L49.85703 430.9451L49.85703 443.4334z" stroke="none" fill="#E0F7FA" fill-rule="nonzero" /><path id="110" transform="matrix(1 0 0 -1 0 612)" d="M49.85703 431.4881L742.1429 431.4881L742.1429 418.9998L49.85703 418.9998L49.85703 431.4881z" stroke="none" fill="#FFFFFF" fill-rule="nonzero" /><path id="111" transform="matrix(1 0 0 -1 0 612)" d="M49.85703 419.5427L742.1429 419.5427L742.1429 407.0544L49.85703 407.0544L49.85703 419.5427z" stroke="none" fill="#E0F7FA" fill-rule="nonzero" /><path id="112" transform="matrix(1 0 0 -1 0 612)" d="M49.85703 407.5974L742.1429 407.5974L742.1429 395.1091L49.85703 395.1091L49.85703 407.5974z" stroke="none" fill="#FFFFFF" fill-rule="nonzero" /><path id="113" transform="matrix(1 0 0 -1 0 612)" d="M49.85703 395.6521L742.1429 395.6521L742.1429 383.1638L49.85703 383.1638L49.85703 395.6521z" stroke="none" fill="#E0F7FA" fill-rule="nonzero" /><path id="114" transform="matrix(1 0 0 -1 0 612)" d="M49.85703 383.7068L742.1429 383.7068L742.1429 361.445L49.85703 361.445L49.85703 383.7068z" stroke="none" fill="#FFFFFF" fill-rule="nonzero" /><path id="115" transform="matrix(1 0 0 -1 0 612)" d="M49.85703 361.988L742.1429 361.988L742.1429 349.4997L49.85703 349.4997L49.85703 361.988z" stroke="none" fill="#E0F7FA" fill-rule="nonzero" /><path id="116" transform="matrix(1 0 0 -1 0 612)" d="M49.85703 350.0427L742.1429 350.0427L742.1429 327.7809L49.85703 327.7809L49.85703 350.0427z" stroke="none" fill="#FFFFFF" fill-rule="nonzero" /><path id="117" transform="matrix(1 0 0 -1 0 612)" d="M49.85703 328.3239L742.1429 328.3239L742.1429 315.8356L49.85703 315.8356L49.85703 328.3239z" stroke="none" fill="#E0F7FA" fill-rule="nonzero" /><path id="118" transform="matrix(1 0 0 -1 0 612)" d="M49.85703 316.3785L742.1429 316.3785L742.1429 303.8903L49.85703 303.8903L49.85703 316.3785z" stroke="none" fill="#FFFFFF" fill-rule="nonzero" /><path id="119" transform="matrix(1 0 0 -1 0 612)" d="M49.85703 304.4332L742.1429 304.4332L742.1429 291.9449L49.85703 291.9449L49.85703 304.4332z" stroke="none" fill="#E0F7FA" fill-rule="nonzero" /><path id="120" transform="matrix(1 0 0 -1 0 612)" d="M49.85703 292.4879L742.1429 292.4879L742.1429 279.9996L49.85703 279.9996L49.85703 292.4879z" stroke="none" fill="#FFFFFF" fill-rule="nonzero" /><path id="121" transform="matrix(1 0 0 -1 0 612)" d="M49.85703 280.5426L742.1429 280.5426L742.1429 268.0543L49.85703 268.0543L49.85703 280.5426z" stroke="none" fill="#E0F7FA" fill-rule="nonzero" /><path id="122" transform="matrix(1 0 0 -1 0 612)" d="M49.85703 268.5973L742.1429 268.5973L742.1429 237.105L49.85703 237.105L49.85703 268.5973z" stroke="none" fill="#FFFFFF" fill-rule="nonzero" /><path id="123" transform="matrix(1 0 0 -1 0 612)" d="M49.85703 237.648L742.1429 237.648L742.1429 225.1597L49.85703 225.1597L49.85703 237.648z" stroke="none" fill="#E0F7FA" fill-rule="nonzero" /><path id="124" transform="matrix(1 0 0 -1 0 612)" d="M49.85703 225.7027L742.1429 225.7027L742.1429 213.2144L49.85703 213.2144L49.85703 225.7027z" stroke="none" fill="#FFFFFF" fill-rule="nonzero" /><path id="125" transform="matrix(1 0 0 -1 0 612)" d="M49.85703 213.7573L742.1429 213.7573L742.1429 201.269L49.85703 201.269L49.85703 213.7573z" stroke="none" fill="#E0F7FA" fill-rule="nonzero" /><path id="126" transform="matrix(1 0 0 -1 0 612)" d="M49.85703 201.812L742.1429 201.812L742.1429 189.3237L49.85703 189.3237L49.85703 201.812z" stroke="none" fill="#FFFFFF" fill-rule="nonzero" /><path id="127" transform="matrix(1 0 0 -1 0 612)" d="M49.85703 189.8667L742.1429 189.8667L742.1429 167.6049L49.85703 167.6049L49.85703 189.8667z" stroke="none" fill="#E0F7FA" fill-rule="nonzero" /><path id="128" transform="matrix(1 0 0 -1 0 612)" d="M49.85703 168.1479L742.1429 168.1479L742.1429 145.8862L49.85703 145.8862L49.85703 168.1479z" stroke="none" fill="#FFFFFF" fill-rule="nonzero" /><path id="129" transform="matrix(1 0 0 -1 0 612)" d="M49.85703 146.4291L742.1429 146.4291L742.1429 133.9408L49.85703 133.9408L49.85703 146.4291z" stroke="none" fill="#E0F7FA" fill-rule="nonzero" /><path id="130" transform="matrix(1 0 0 -1 0 612)" d="M49.85703 134.4838L742.1429 134.4838L742.1429 121.9955L49.85703 121.9955L49.85703 134.4838z" stroke="none" fill="#FFFFFF" fill-rule="nonzero" /><path id="131" transform="matrix(1 0 0 -1 0 612)" d="M49.85703 122.5385L742.1429 122.5385L742.1429 110.0502L49.85703 110.0502L49.85703 122.5385z" stroke="none" fill="#E0F7FA" fill-rule="nonzero" /><path id="132" transform="matrix(1 0 0 -1 0 612)" d="M49.85703 110.5931L742.1429 110.5931L742.1429 98.10486L49.85703 98.10486L49.85703 110.5931z" stroke="none" fill="#FFFFFF" fill-rule="nonzero" /><path id="133" transform="matrix(1 0 0 -1 0 612)" d="M49.85703 98.64783L742.1429 98.64783L742.1429 86.15952L49.85703 86.15952L49.85703 98.64783z" stroke="none" fill="#E0F7FA" fill-rule="nonzero" /><path id="134" transform="matrix(1 0 0 -1 0 612)" d="M49.85703 86.70248L742.1429 86.70248L742.1429 64.44073L49.85703 64.44073L49.85703 86.70248z" stroke="none" fill="#FFFFFF" fill-rule="nonzero" /><path id="135" transform="matrix(1 0 0 -1 0 612)" d="M49.85703 64.9837L742.1429 64.9837L742.1429 64.44073L49.85703 64.44073zM49.85703 86.70248L742.1429 86.70248L742.1429 86.15952L49.85703 86.15952zM49.85703 98.64783L742.1429 98.64783L742.1429 98.10486L49.85703 98.10486zM49.85703 110.5931L742.1429 110.5931L742.1429 110.0502L49.85703 110.0502zM49.85703 122.5385L742.1429 122.5385L742.1429 121.9955L49.85703 121.9955zM49.85703 134.4838L742.1429 134.4838L742.1429 133.9408L49.85703 133.9408zM49.85703 146.4291L742.1429 146.4291L742.1429 145.8862L49.85703 145.8862zM49.85703 168.1479L742.1429 168.1479L742.1429 167.6049L49.85703 167.6049zM49.85703 189.8667L742.1429 189.8667L742.1429 189.3237L49.85703 189.3237zM49.85703 201.812L742.1429 201.812L742.1429 201.269L49.85703 201.269zM49.85703 213.7573L742.1429 213.7573L742.1429 213.2144L49.85703 213.2144zM49.85703 225.7027L742.1429 225.7027L742.1429 225.1597L49.85703 225.1597zM49.85703 237.648L742.1429 237.648L742.1429 237.105L49.85703 237.105zM49.85703 268.5973L742.1429 268.5973L742.1429 268.0543L49.85703 268.0543zM49.85703 280.5426L742.1429 280.5426L742.1429 279.9996L49.85703 279.9996zM49.85703 292.4879L742.1429 292.4879L742.1429 291.9449L49.85703 291.9449zM49.85703 304.4332L742.1429 304.4332L742.1429 303.8903L49.85703 303.8903zM49.85703 316.3785L742.1429 316.3785L742.1429 315.8356L49.85703 315.8356zM49.85703 328.3239L742.1429 328.3239L742.1429 327.7809L49.85703 327.7809zM49.85703 350.0427L742.1429 350.0427L742.1429 349.4997L49.85703 349.4997zM49.85703 361.988L742.1429 361.988L742.1429 361.445L49.85703 361.445zM49.85703 383.7068L742.1429 383.7068L742.1429 383.1638L49.85703 383.1638zM49.85703 395.6521L742.1429 395.6521L742.1429 395.1091L49.85703 395.1091zM49.85703 407.5974L742.1429 407.5974L742.1429 407.0544L49.85703 407.0544zM49.85703 419.5427L742.1429 419.5427L742.1429 418.9998L49.85703 418.9998zM49.85703 431.4881L742.1429 431.4881L742.1429 430.9451L49.85703 430.9451zM49.85703 443.4334L742.1429 443.4334L742.1429 442.8904L49.85703 442.8904zM49.85703 455.3787L742.1429 455.3787L742.1429 454.8358L49.85703 454.8358zM49.85703 467.324L742.1429 467.324L742.1429 466.7811L49.85703 466.7811zM49.85703 489.0428L742.1429 489.0428L742.1429 488.4998L49.85703 488.4998zM49.85703 500.9882L742.1429 500.9882L742.1429 500.4452L49.85703 500.4452zM49.85703 512.9335L742.1429 512.9335L742.1429 512.3905L49.85703 512.3905zM49.85703 524.8788L742.1429 524.8788L742.1429 524.3358L49.85703 524.3358zM49.85703 546.5976L742.1429 546.5976L742.1429 546.0546L49.85703 546.0546zM49.85703 558.5429L742.1429 558.5429L742.1429 557.9999L49.85703 557.9999zM742.1429 86.15952L742.1429 64.9837L741.6 64.9837L741.6 86.15952zM742.1429 98.10486L742.1429 86.70248L741.6 86.70248L741.6 98.10486zM742.1429 110.0502L742.1429 98.64783L741.6 98.64783L741.6 110.0502zM742.1429 121.9955L742.1429 110.5931L741.6 110.5931L741.6 121.9955zM742.1429 133.9408L742.1429 122.5385L741.6 122.5385L741.6 133.9408zM742.1429 145.8862L742.1429 134.4838L741.6 134.4838L741.6 145.8862zM742.1429 167.6049L742.1429 146.4291L741.6 146.4291L741.6 167.6049zM742.1429 189.3237L742.1429 168.1479L741.6 168.1479L741.6 189.3237zM742.1429 201.269L742.1429 189.8667L741.6 189.8667L741.6 201.269zM742.1429 213.2144L742.1429 201.812L741.6 201.812L741.6 213.2144zM742.1429 225.1597L742.1429 213.7573L741.6 213.7573L741.6 225.1597zM742.1429 237.105L742.1429 225.7027L741.6 225.7027L741.6 237.105zM742.1429 268.0543L742.1429 237.648L741.6 237.648L741.6 268.0543zM742.1429 279.9996L742.1429 268.5973L741.6 268.5973L741.6 279.9996zM742.1429 291.9449L742.1429 280.5426L741.6 280.5426L741.6 291.9449zM742.1429 303.8903L742.1429 292.4879L741.6 292.4879L741.6 303.8903zM742.1429 315.8356L742.1429 304.4332L741.6 304.4332L741.6 315.8356zM742.1429 327.7809L742.1429 316.3785L741.6 316.3785L741.6 327.7809zM742.1429 349.4997L742.1429 328.3239L741.6 328.3239L741.6 349.4997zM742.1429 361.445L742.1429 350.0427L741.6 350.0427L741.6 361.445zM742.1429 383.1638L742.1429 361.988L741.6 361.988L741.6 383.1638zM742.1429 395.1091L742.1429 383.7068L741.6 383.7068L741.6 395.1091zM742.1429 407.0544L742.1429 395.6521L741.6 395.6521L741.6 407.0544zM742.1429 418.9998L742.1429 407.5974L741.6 407.5974L741.6 418.9998zM742.1429 430.9451L742.1429 419.5427L741.6 419.5427L741.6 430.9451zM742.1429 442.8904L742.1429 431.4881L741.6 431.4881L741.6 442.8904zM742.1429 454.8358L742.1429 443.4334L741.6 443.4334L741.6 454.8358zM742.1429 466.7811L742.1429 455.3787L741.6 455.3787L741.6 466.7811zM742.1429 488.4998L742.1429 467.324L741.6 467.324L741.6 488.4998zM742.1429 500.4452L742.1429 489.0428L741.6 489.0428L741.6 500.4452zM742.1429 512.3905L742.1429 500.9882L741.6 500.9882L741.6 512.3905zM742.1429 524.3358L742.1429 512.9335L741.6 512.9335L741.6 524.3358zM742.1429 546.0546L742.1429 524.8788L741.6 524.8788L741.6 546.0546zM742.1429 557.9999L742.1429 546.5976L741.6 546.5976L741.6 557.9999zM691.1039 86.15952L691.1039 64.9837L690.5609 64.9837L690.5609 86.15952zM691.1039 98.10486L691.1039 86.70248L690.5609 86.70248L690.5609 98.10486zM691.1039 110.0502L691.1039 98.64783L690.5609 98.64783L690.5609 110.0502zM691.1039 121.9955L691.1039 110.5931L690.5609 110.5931L690.5609 121.9955zM691.1039 133.9408L691.1039 122.5385L690.5609 122.5385L690.5609 133.9408zM691.1039 145.8862L691.1039 134.4838L690.5609 134.4838L690.5609 145.8862zM691.1039 167.6049L691.1039 146.4291L690.5609 146.4291L690.5609 167.6049zM691.1039 189.3237L691.1039 168.1479L690.5609 168.1479L690.5609 189.3237zM691.1039 201.269L691.1039 189.8667L690.5609 189.8667L690.5609 201.269zM691.1039 213.2144L691.1039 201.812L690.5609 201.812L690.5609 213.2144zM691.1039 225.1597L691.1039 213.7573L690.5609 213.7573L690.5609 225.1597zM691.1039 237.105L691.1039 225.7027L690.5609 225.7027L690.5609 237.105zM691.1039 268.0543L691.1039 237.648L690.5609 237.648L690.5609 268.0543zM691.1039 279.9996L691.1039 268.5973L690.5609 268.5973L690.5609 279.9996zM691.1039 291.9449L691.1039 280.5426L690.5609 280.5426L690.5609 291.9449zM691.1039 303.8903L691.1039 292.4879L690.5609 292.4879L690.5609 303.8903zM691.1039 315.8356L691.1039 304.4332L690.5609 304.4332L690.5609 315.8356zM691.1039 327.7809L691.1039 316.3785L690.5609 316.3785L690.5609 327.7809zM691.1039 349.4997L691.1039 328.3239L690.5609 328.3239L690.5609 349.4997zM691.1039 361.445L691.1039 350.0427L690.5609 350.0427L690.5609 361.445zM691.1039 383.1638L691.1039 361.988L690.5609 361.988L690.5609 383.1638zM691.1039 395.1091L691.1039 383.7068L690.5609 383.7068L690.5609 395.1091zM691.1039 407.0544L691.1039 395.6521L690.5609 395.6521L690.5609 407.0544zM691.1039 418.9998L691.1039 407.5974L690.5609 407.5974L690.5609 418.9998zM691.1039 430.9451L691.1039 419.5427L690.5609 419.5427L690.5609 430.9451zM691.1039 442.8904L691.1039 431.4881L690.5609 431.4881L690.5609 442.8904zM691.1039 454.8358L691.1039 443.4334L690.5609 443.4334L690.5609 454.8358zM691.1039 466.7811L691.1039 455.3787L690.5609 455.3787L690.5609 466.7811zM691.1039 488.4998L691.1039 467.324L690.5609 467.324L690.5609 488.4998zM691.1039 500.4452L691.1039 489.0428L690.5609 489.0428L690.5609 500.4452zM691.1039 512.3905L691.1039 500.9882L690.5609 500.9882L690.5609 512.3905zM691.1039 524.3358L691.1039 512.9335L690.5609 512.9335L690.5609 524.3358zM691.1039 546.0546L691.1039 524.8788L690.5609 524.8788L690.5609 546.0546zM691.1039 557.9999L691.1039 546.5976L690.5609 546.5976L690.5609 557.9999zM417.9902 86.15952L417.9902 64.9837L417.4473 64.9837L417.4473 86.15952zM417.9902 98.10486L417.9902 86.70248L417.4473 86.70248L417.4473 98.10486zM417.9902 110.0502L417.9902 98.64783L417.4473 98.64783L417.4473 110.0502zM417.9902 121.9955L417.9902 110.5931L417.4473 110.5931L417.4473 121.9955zM417.9902 133.9408L417.9902 122.5385L417.4473 122.5385L417.4473 133.9408zM417.9902 145.8862L417.9902 134.4838L417.4473 134.4838L417.4473 145.8862zM417.9902 167.6049L417.9902 146.4291L417.4473 146.4291L417.4473 167.6049zM417.9902 189.3237L417.9902 168.1479L417.4473 168.1479L417.4473 189.3237zM417.9902 201.269L417.9902 189.8667L417.4473 189.8667L417.4473 201.269zM417.9902 213.2144L417.9902 201.812L417.4473 201.812L417.4473 213.2144zM417.9902 225.1597L417.9902 213.7573L417.4473 213.7573L417.4473 225.1597zM417.9902 237.105L417.9902 225.7027L417.4473 225.7027L417.4473 237.105zM417.9902 268.0543L417.9902 237.648L417.4473 237.648L417.4473 268.0543zM417.9902 279.9996L417.9902 268.5973L417.4473 268.5973L417.4473 279.9996zM417.9902 291.9449L417.9902 280.5426L417.4473 280.5426L417.4473 291.9449zM417.9902 303.8903L417.9902 292.4879L417.4473 292.4879L417.4473 303.8903zM417.9902 315.8356L417.9902 304.4332L417.4473 304.4332L417.4473 315.8356zM417.9902 327.7809L417.9902 316.3785L417.4473 316.3785L417.4473 327.7809zM417.9902 349.4997L417.9902 328.3239L417.4473 328.3239L417.4473 349.4997zM417.9902 361.445L417.9902 350.0427L417.4473 350.0427L417.4473 361.445zM417.9902 383.1638L417.9902 361.988L417.4473 361.988L417.4473 383.1638zM417.9902 395.1091L417.9902 383.7068L417.4473 383.7068L417.4473 395.1091zM417.9902 407.0544L417.9902 395.6521L417.4473 395.6521L417.4473 407.0544zM417.9902 418.9998L417.9902 407.5974L417.4473 407.5974L417.4473 418.9998zM417.9902 430.9451L417.9902 419.5427L417.4473 419.5427L417.4473 430.9451zM417.9902 442.8904L417.9902 431.4881L417.4473 431.4881L417.4473 442.8904zM417.9902 454.8358L417.9902 443.4334L417.4473 443.4334L417.4473 454.8358zM417.9902 466.7811L417.9902 455.3787L417.4473 455.3787L417.4473 466.7811zM417.9902 488.4998L417.9902 467.324L417.4473 467.324L417.4473 488.4998zM417.9902 500.4452L417.9902 489.0428L417.4473 489.0428L417.4473 500.4452zM417.9902 512.3905L417.9902 500.9882L417.4473 500.9882L417.4473 512.3905zM417.9902 524.3358L417.9902 512.9335L417.4473 512.9335L417.4473 524.3358zM417.9902 546.0546L417.9902 524.8788L417.4473 524.8788L417.4473 546.0546zM417.9902 557.9999L417.9902 546.5976L417.4473 546.5976L417.4473 557.9999zM144.8767 86.15952L144.8767 64.9837L144.3337 64.9837L144.3337 86.15952zM144.8767 98.10486L144.8767 86.70248L144.3337 86.70248L144.3337 98.10486zM144.8767 110.0502L144.8767 98.64783L144.3337 98.64783L144.3337 110.0502zM144.8767 121.9955L144.8767 110.5931L144.3337 110.5931L144.3337 121.9955zM144.8767 133.9408L144.8767 122.5385L144.3337 122.5385L144.3337 133.9408zM144.8767 145.8862L144.8767 134.4838L144.3337 134.4838L144.3337 145.8862zM144.8767 167.6049L144.8767 146.4291L144.3337 146.4291L144.3337 167.6049zM144.8767 189.3237L144.8767 168.1479L144.3337 168.1479L144.3337 189.3237zM144.8767 201.269L144.8767 189.8667L144.3337 189.8667L144.3337 201.269zM144.8767 213.2144L144.8767 201.812L144.3337 201.812L144.3337 213.2144zM144.8767 225.1597L144.8767 213.7573L144.3337 213.7573L144.3337 225.1597zM144.8767 237.105L144.8767 225.7027L144.3337 225.7027L144.3337 237.105zM144.8767 268.0543L144.8767 237.648L144.3337 237.648L144.3337 268.0543zM144.8767 279.9996L144.8767 268.5973L144.3337 268.5973L144.3337 279.9996zM144.8767 291.9449L144.8767 280.5426L144.3337 280.5426L144.3337 291.9449zM144.8767 303.8903L144.8767 292.4879L144.3337 292.4879L144.3337 303.8903zM144.8767 315.8356L144.8767 304.4332L144.3337 304.4332L144.3337 315.8356zM144.8767 327.7809L144.8767 316.3785L144.3337 316.3785L144.3337 327.7809zM144.8767 349.4997L144.8767 328.3239L144.3337 328.3239L144.3337 349.4997zM144.8767 361.445L144.8767 350.0427L144.3337 350.0427L144.3337 361.445zM144.8767 383.1638L144.8767 361.988L144.3337 361.988L144.3337 383.1638zM144.8767 395.1091L144.8767 383.7068L144.3337 383.7068L144.3337 395.1091zM144.8767 407.0544L144.8767 395.6521L144.3337 395.6521L144.3337 407.0544zM144.8767 418.9998L144.8767 407.5974L144.3337 407.5974L144.3337 418.9998zM144.8767 430.9451L144.8767 419.5427L144.3337 419.5427L144.3337 430.9451zM144.8767 442.8904L144.8767 431.4881L144.3337 431.4881L144.3337 442.8904zM144.8767 454.8358L144.8767 443.4334L144.3337 443.4334L144.3337 454.8358zM144.8767 466.7811L144.8767 455.3787L144.3337 455.3787L144.3337 466.7811zM144.8767 488.4998L144.8767 467.324L144.3337 467.324L144.3337 488.4998zM144.8767 500.4452L144.8767 489.0428L144.3337 489.0428L144.3337 500.4452zM144.8767 512.3905L144.8767 500.9882L144.3337 500.9882L144.3337 512.3905zM144.8767 524.3358L144.8767 512.9335L144.3337 512.9335L144.3337 524.3358zM144.8767 546.0546L144.8767 524.8788L144.3337 524.8788L144.3337 546.0546zM144.8767 557.9999L144.8767 546.5976L144.3337 546.5976L144.3337 557.9999zM74.83362 86.15952L74.83362 64.9837L74.29065 64.9837L74.29065 86.15952zM74.83362 98.10486L74.83362 86.70248L74.29065 86.70248L74.29065 98.10486zM74.83362 110.0502L74.83362 98.64783L74.29065 98.64783L74.29065 110.0502zM74.83362 121.9955L74.83362 110.5931L74.29065 110.5931L74.29065 121.9955zM74.83362 133.9408L74.83362 122.5385L74.29065 122.5385L74.29065 133.9408zM74.83362 145.8862L74.83362 134.4838L74.29065 134.4838L74.29065 145.8862zM74.83362 167.6049L74.83362 146.4291L74.29065 146.4291L74.29065 167.6049zM74.83362 189.3237L74.83362 168.1479L74.29065 168.1479L74.29065 189.3237zM74.83362 201.269L74.83362 189.8667L74.29065 189.8667L74.29065 201.269zM74.83362 213.2144L74.83362 201.812L74.29065 201.812L74.29065 213.2144zM74.83362 225.1597L74.83362 213.7573L74.29065 213.7573L74.29065 225.1597zM74.83362 237.105L74.83362 225.7027L74.29065 225.7027L74.29065 237.105zM74.83362 268.0543L74.83362 237.648L74.29065 237.648L74.29065 268.0543zM74.83362 279.9996L74.83362 268.5973L74.29065 268.5973L74.29065 279.9996zM74.83362 291.9449L74.83362 280.5426L74.29065 280.5426L74.29065 291.9449zM74.83362 303.8903L74.83362 292.4879L74.29065 292.4879L74.29065 303.8903zM74.83362 315.8356L74.83362 304.4332L74.29065 304.4332L74.29065 315.8356zM74.83362 327.7809L74.83362 316.3785L74.29065 316.3785L74.29065 327.7809zM74.83362 349.4997L74.83362 328.3239L74.29065 328.3239L74.29065 349.4997zM74.83362 361.445L74.83362 350.0427L74.29065 350.0427L74.29065 361.445zM74.83362 383.1638L74.83362 361.988L74.29065 361.988L74.29065 383.1638zM74.83362 395.1091L74.83362 383.7068L74.29065 383.7068L74.29065 395.1091zM74.83362 407.0544L74.83362 395.6521L74.29065 395.6521L74.29065 407.0544zM74.83362 418.9998L74.83362 407.5974L74.29065 407.5974L74.29065 418.9998zM74.83362 430.9451L74.83362 419.5427L74.29065 419.5427L74.29065 430.9451zM74.83362 442.8904L74.83362 431.4881L74.29065 431.4881L74.29065 442.8904zM74.83362 454.8358L74.83362 443.4334L74.29065 443.4334L74.29065 454.8358zM74.83362 466.7811L74.83362 455.3787L74.29065 455.3787L74.29065 466.7811zM74.83362 488.4998L74.83362 467.324L74.29065 467.324L74.29065 488.4998zM74.83362 500.4452L74.83362 489.0428L74.29065 489.0428L74.29065 500.4452zM74.83362 512.3905L74.83362 500.9882L74.29065 500.9882L74.29065 512.3905zM74.83362 524.3358L74.83362 512.9335L74.29065 512.9335L74.29065 524.3358zM74.83362 546.0546L74.83362 524.8788L74.29065 524.8788L74.29065 546.0546zM74.83362 557.9999L74.83362 546.5976L74.29065 546.5976L74.29065 557.9999zM50.39999 86.15952L50.39999 64.9837L49.85703 64.9837L49.85703 86.15952zM50.39999 98.10486L50.39999 86.70248L49.85703 86.70248L49.85703 98.10486zM50.39999 110.0502L50.39999 98.64783L49.85703 98.64783L49.85703 110.0502zM50.39999 121.9955L50.39999 110.5931L49.85703 110.5931L49.85703 121.9955zM50.39999 133.9408L50.39999 122.5385L49.85703 122.5385L49.85703 133.9408zM50.39999 145.8862L50.39999 134.4838L49.85703 134.4838L49.85703 145.8862zM50.39999 167.6049L50.39999 146.4291L49.85703 146.4291L49.85703 167.6049zM50.39999 189.3237L50.39999 168.1479L49.85703 168.1479L49.85703 189.3237zM50.39999 201.269L50.39999 189.8667L49.85703 189.8667L49.85703 201.269zM50.39999 213.2144L50.39999 201.812L49.85703 201.812L49.85703 213.2144zM50.39999 225.1597L50.39999 213.7573L49.85703 213.7573L49.85703 225.1597zM50.39999 237.105L50.39999 225.7027L49.85703 225.7027L49.85703 237.105zM50.39999 268.0543L50.39999 237.648L49.85703 237.648L49.85703 268.0543zM50.39999 279.9996L50.39999 268.5973L49.85703 268.5973L49.85703 279.9996zM50.39999 291.9449L50.39999 280.5426L49.85703 280.5426L49.85703 291.9449zM50.39999 303.8903L50.39999 292.4879L49.85703 292.4879L49.85703 303.8903zM50.39999 315.8356L50.39999 304.4332L49.85703 304.4332L49.85703 315.8356zM50.39999 327.7809L50.39999 316.3785L49.85703 316.3785L49.85703 327.7809zM50.39999 349.4997L50.39999 328.3239L49.85703 328.3239L49.85703 349.4997zM50.39999 361.445L50.39999 350.0427L49.85703 350.0427L49.85703 361.445zM50.39999 383.1638L50.39999 361.988L49.85703 361.988L49.85703 383.1638zM50.39999 395.1091L50.39999 383.7068L49.85703 383.7068L49.85703 395.1091zM50.39999 407.0544L50.39999 395.6521L49.85703 395.6521L49.85703 407.0544zM50.39999 418.9998L50.39999 407.5974L49.85703 407.5974L49.85703 418.9998zM50.39999 430.9451L50.39999 419.5427L49.85703 419.5427L49.85703 430.9451zM50.39999 442.8904L50.39999 431.4881L49.85703 431.4881L49.85703 442.8904zM50.39999 454.8358L50.39999 443.4334L49.85703 443.4334L49.85703 454.8358zM50.39999 466.7811L50.39999 455.3787L49.85703 455.3787L49.85703 466.7811zM50.39999 488.4998L50.39999 467.324L49.85703 467.324L49.85703 488.4998zM50.39999 500.4452L50.39999 489.0428L49.85703 489.0428L49.85703 500.4452zM50.39999 512.3905L50.39999 500.9882L49.85703 500.9882L49.85703 512.3905zM50.39999 524.3358L50.39999 512.9335L49.85703 512.9335L49.85703 524.3358zM50.39999 546.0546L50.39999 524.8788L49.85703 524.8788L49.85703 546.0546zM50.39999 557.9999L50.39999 546.5976L49.85703 546.5976L49.85703 557.9999z" stroke="none" fill="#000000" fill-rule="nonzero" fill-opacity="0.1490196" /><path id="383" transform="matrix(1 0 0 -1 0 612)" d="M419.6191 536.5019L684.152 536.5019" stroke="#000000" stroke-width="0.5080263" fill="none" /><path id="417" transform="matrix(1 0 0 -1 0 612)" d="M419.6191 527.0259L530.5 527.0259" stroke="#000000" stroke-width="0.5080263" fill="none" /><path id="506" transform="matrix(1 0 0 -1 0 612)" d="M419.6191 515.0806L522.7638 515.0806" stroke="#000000" stroke-width="0.5080263" fill="none" /><path id="611" transform="matrix(1 0 0 -1 0 612)" d="M419.6191 503.1352L559.8417 503.1352" stroke="#000000" stroke-width="0.5080263" fill="none" /><path id="703" transform="matrix(1 0 0 -1 0 612)" d="M419.6191 491.1899L529.4462 491.1899" stroke="#000000" stroke-width="0.5080263" fill="none" /><path id="901" transform="matrix(1 0 0 -1 0 612)" d="M419.6191 478.9471L686.3956 478.9471" stroke="#000000" stroke-width="0.5080263" fill="none" /><path id="919" transform="matrix(1 0 0 -1 0 612)" d="M419.6191 469.4711L469.5616 469.4711" stroke="#000000" stroke-width="0.5080263" fill="none" /><path id="1059" transform="matrix(1 0 0 -1 0 612)" d="M419.6191 457.5258L616.3225 457.5258" stroke="#000000" stroke-width="0.5080263" fill="none" /><path id="1213" transform="matrix(1 0 0 -1 0 612)" d="M419.6191 445.5804L635.3655 445.5804" stroke="#000000" stroke-width="0.5080263" fill="none" /><path id="1355" transform="matrix(1 0 0 -1 0 612)" d="M419.6191 433.6351L603.3518 433.6351" stroke="#000000" stroke-width="0.5080263" fill="none" /><path id="1464" transform="matrix(1 0 0 -1 0 612)" d="M419.6191 421.6898L562.9043 421.6898" stroke="#000000" stroke-width="0.5080263" fill="none" /><path id="1548" transform="matrix(1 0 0 -1 0 612)" d="M419.6191 409.7445L524.822 409.7445" stroke="#000000" stroke-width="0.5080263" fill="none" /><path id="1630" transform="matrix(1 0 0 -1 0 612)" d="M419.6191 397.7991L521.911 397.7991" stroke="#000000" stroke-width="0.5080263" fill="none" /><path id="1776" transform="matrix(1 0 0 -1 0 612)" d="M419.6191 385.8538L637.3024 385.8538" stroke="#000000" stroke-width="0.5080263" fill="none" /><path id="1967" transform="matrix(1 0 0 -1 0 612)" d="M419.6191 373.6111L671.3479 373.6111" stroke="#000000" stroke-width="0.5080263" fill="none" /><path id="1987" transform="matrix(1 0 0 -1 0 612)" d="M419.6191 364.135L478.5904 364.135" stroke="#000000" stroke-width="0.5080263" fill="none" /><path id="2141" transform="matrix(1 0 0 -1 0 612)" d="M419.6191 352.1897L642.8137 352.1897" stroke="#000000" stroke-width="0.5080263" fill="none" /><path id="2328" transform="matrix(1 0 0 -1 0 612)" d="M419.6191 339.947L661.5305 339.947" stroke="#000000" stroke-width="0.5080263" fill="none" /><path id="2348" transform="matrix(1 0 0 -1 0 612)" d="M419.6191 330.4709L481.5961 330.4709" stroke="#000000" stroke-width="0.5080263" fill="none" /><path id="2466" transform="matrix(1 0 0 -1 0 612)" d="M419.6191 318.5256L572.0923 318.5256" stroke="#000000" stroke-width="0.5080263" fill="none" /><path id="2631" transform="matrix(1 0 0 -1 0 612)" d="M419.6191 306.5803L658.942 306.5803" stroke="#000000" stroke-width="0.5080263" fill="none" /><path id="2721" transform="matrix(1 0 0 -1 0 612)" d="M419.6191 294.6349L538.6949 294.6349" stroke="#000000" stroke-width="0.5080263" fill="none" /><path id="2806" transform="matrix(1 0 0 -1 0 612)" d="M419.6191 282.6896L528.3167 282.6896" stroke="#000000" stroke-width="0.5080263" fill="none" /><path id="2949" transform="matrix(1 0 0 -1 0 612)" d="M419.6191 270.7443L619.5862 270.7443" stroke="#000000" stroke-width="0.5080263" fill="none" /><path id="3126" transform="matrix(1 0 0 -1 0 612)" d="M419.6191 239.795L632.0984 239.795" stroke="#000000" stroke-width="0.5080263" fill="none" /><path id="3205" transform="matrix(1 0 0 -1 0 612)" d="M419.6191 227.8497L501.1888 227.8497" stroke="#000000" stroke-width="0.5080263" fill="none" /><path id="3373" transform="matrix(1 0 0 -1 0 612)" d="M419.6191 215.9044L659.2375 215.9044" stroke="#000000" stroke-width="0.5080263" fill="none" /><path id="3531" transform="matrix(1 0 0 -1 0 612)" d="M419.6191 203.9591L620.1813 203.9591" stroke="#000000" stroke-width="0.5080263" fill="none" /><path id="3635" transform="matrix(1 0 0 -1 0 612)" d="M419.6191 192.0137L556.3318 192.0137" stroke="#000000" stroke-width="0.5080263" fill="none" /><path id="3774" transform="matrix(1 0 0 -1 0 612)" d="M419.6191 170.295L585.332 170.295" stroke="#000000" stroke-width="0.5080263" fill="none" /><path id="3961" transform="matrix(1 0 0 -1 0 612)" d="M419.6191 148.5762L651.687 148.5762" stroke="#000000" stroke-width="0.5080263" fill="none" /><path id="4070" transform="matrix(1 0 0 -1 0 612)" d="M419.6191 136.6309L562.3699 136.6309" stroke="#000000" stroke-width="0.5080263" fill="none" /><path id="4192" transform="matrix(1 0 0 -1 0 612)" d="M419.6191 124.6855L590.2633 124.6855" stroke="#000000" stroke-width="0.5080263" fill="none" /><path id="4302" transform="matrix(1 0 0 -1 0 612)" d="M419.6191 112.7402L568.4231 112.7402" stroke="#000000" stroke-width="0.5080263" fill="none" /><path id="4427" transform="matrix(1 0 0 -1 0 612)" d="M419.6191 100.7949L601.0662 100.7949" stroke="#000000" stroke-width="0.5080263" fill="none" /><path id="4489" transform="matrix(1 0 0 -1 0 612)" d="M419.6191 88.84955L491.4702 88.84955" stroke="#000000" stroke-width="0.5080263" fill="none" /><path id="4677" transform="matrix(1 0 0 -1 0 612)" d="M419.6191 76.60681L673.3833 76.60681" stroke="#000000" stroke-width="0.5080263" fill="none" /><path id="4683" transform="matrix(1 0 0 -1 0 612)" d="M419.6191 67.13077L439.8107 67.13077" stroke="#000000" stroke-width="0.5080263" fill="none" /></g></g></g></svg>