<svg xmlns="http://www.w3.org/2000/svg" xmlns:xlink="http://www.w3.org/1999/xlink" id="body_6" preserveAspectRatio="xMinYMin meet" viewBox="0 0 1056 816"><defs><clipPath id="1"><path id="" clip-rule="evenodd" transform="matrix(1 0 0 1 0 0)" d="M0 612L0 0L0 0L792 0L792 0L792 612L792 612L0 612z" /></clipPath><clipPath id="2"><path id="" clip-rule="evenodd" transform="matrix(1 0 0 1 0 0)" d="M49.31406 52.91406L742.6859 52.91406L742.6859 52.91406L742.6859 554.075L742.6859 554.075L49.31406 554.075L49.31406 554.075L49.31406 52.91406z" /></clipPath></defs><g transform="matrix(1.333333 0 0 1.333333 0 0)"><g clip-path="url(#1)"><g clip-path="url(#2)"><path id="101" transform="matrix(1 0 0 -1 0 612)" d="M49.85703 558.543L742.1429 558.543L742.1429 546.0547L49.85703 546.0547L49.85703 558.543z" stroke="none" fill="#E0F7FA" fill-rule="nonzero" /><path id="102" transform="matrix(1 0 0 -1 0 612)" d="M49.85703 546.5977L742.1429 546.5977L742.1429 534.1094L49.85703 534.1094L49.85703 546.5977z" stroke="none" fill="#FFFFFF" fill-rule="nonzero" /><path id="103" transform="matrix(1 0 0 -1 0 612)" d="M49.85703 534.6523L742.1429 534.6523L742.1429 512.3904L49.85703 512.3904L49.85703 534.6523z" stroke="none" fill="#E0F7FA" fill-rule="nonzero" /><path id="104" transform="matrix(1 0 0 -1 0 612)" d="M49.85703 512.9333L742.1429 512.9333L742.1429 500.4451L49.85703 500.4451L49.85703 512.9333z" stroke="none" fill="#FFFFFF" fill-rule="nonzero" /><path id="105" transform="matrix(1 0 0 -1 0 612)" d="M49.85703 500.988L742.1429 500.988L742.1429 488.4998L49.85703 488.4998L49.85703 500.988z" stroke="none" fill="#E0F7FA" fill-rule="nonzero" /><path id="106" transform="matrix(1 0 0 -1 0 612)" d="M49.85703 489.0427L742.1429 489.0427L742.1429 466.781L49.85703 466.781L49.85703 489.0427z" stroke="none" fill="#FFFFFF" fill-rule="nonzero" /><path id="107" transform="matrix(1 0 0 -1 0 612)" d="M49.85703 467.324L742.1429 467.324L742.1429 454.8357L49.85703 454.8357L49.85703 467.324z" stroke="none" fill="#E0F7FA" fill-rule="nonzero" /><path id="108" transform="matrix(1 0 0 -1 0 612)" d="M49.85703 455.3787L742.1429 455.3787L742.1429 442.8904L49.85703 442.8904L49.85703 455.3787z" stroke="none" fill="#FFFFFF" fill-rule="nonzero" /><path id="109" transform="matrix(1 0 0 -1 0 612)" d="M49.85703 443.4333L742.1429 443.4333L742.1429 430.9451L49.85703 430.9451L49.85703 443.4333z" stroke="none" fill="#E0F7FA" fill-rule="nonzero" /><path id="110" transform="matrix(1 0 0 -1 0 612)" d="M49.85703 431.488L742.1429 431.488L742.1429 418.9998L49.85703 418.9998L49.85703 431.488z" stroke="none" fill="#FFFFFF" fill-rule="nonzero" /><path id="111" transform="matrix(1 0 0 -1 0 612)" d="M49.85703 419.5427L742.1429 419.5427L742.1429 407.0544L49.85703 407.0544L49.85703 419.5427z" stroke="none" fill="#E0F7FA" fill-rule="nonzero" /><path id="112" transform="matrix(1 0 0 -1 0 612)" d="M49.85703 407.5974L742.1429 407.5974L742.1429 395.1091L49.85703 395.1091L49.85703 407.5974z" stroke="none" fill="#FFFFFF" fill-rule="nonzero" /><path id="113" transform="matrix(1 0 0 -1 0 612)" d="M49.85703 395.6521L742.1429 395.6521L742.1429 383.1638L49.85703 383.1638L49.85703 395.6521z" stroke="none" fill="#E0F7FA" fill-rule="nonzero" /><path id="114" transform="matrix(1 0 0 -1 0 612)" d="M49.85703 383.7068L742.1429 383.7068L742.1429 371.2185L49.85703 371.2185L49.85703 383.7068z" stroke="none" fill="#FFFFFF" fill-rule="nonzero" /><path id="115" transform="matrix(1 0 0 -1 0 612)" d="M49.85703 371.7615L742.1429 371.7615L742.1429 359.2732L49.85703 359.2732L49.85703 371.7615z" stroke="none" fill="#E0F7FA" fill-rule="nonzero" /><path id="116" transform="matrix(1 0 0 -1 0 612)" d="M49.85703 359.8162L742.1429 359.8162L742.1429 337.5544L49.85703 337.5544L49.85703 359.8162z" stroke="none" fill="#FFFFFF" fill-rule="nonzero" /><path id="117" transform="matrix(1 0 0 -1 0 612)" d="M49.85703 338.0974L742.1429 338.0974L742.1429 306.605L49.85703 306.605L49.85703 338.0974z" stroke="none" fill="#E0F7FA" fill-rule="nonzero" /><path id="118" transform="matrix(1 0 0 -1 0 612)" d="M49.85703 307.1479L742.1429 307.1479L742.1429 284.8862L49.85703 284.8862L49.85703 307.1479z" stroke="none" fill="#FFFFFF" fill-rule="nonzero" /><path id="119" transform="matrix(1 0 0 -1 0 612)" d="M49.85703 285.4292L742.1429 285.4292L742.1429 262.0815L49.85703 262.0815L49.85703 285.4292z" stroke="none" fill="#E0F7FA" fill-rule="nonzero" /><path id="120" transform="matrix(1 0 0 -1 0 612)" d="M49.85703 262.6245L742.1429 262.6245L742.1429 250.1362L49.85703 250.1362L49.85703 262.6245z" stroke="none" fill="#FFFFFF" fill-rule="nonzero" /><path id="121" transform="matrix(1 0 0 -1 0 612)" d="M49.85703 250.6792L742.1429 250.6792L742.1429 238.1909L49.85703 238.1909L49.85703 250.6792z" stroke="none" fill="#E0F7FA" fill-rule="nonzero" /><path id="122" transform="matrix(1 0 0 -1 0 612)" d="M49.85703 238.7339L742.1429 238.7339L742.1429 226.2456L49.85703 226.2456L49.85703 238.7339z" stroke="none" fill="#FFFFFF" fill-rule="nonzero" /><path id="123" transform="matrix(1 0 0 -1 0 612)" d="M49.85703 226.7886L742.1429 226.7886L742.1429 214.3003L49.85703 214.3003L49.85703 226.7886z" stroke="none" fill="#E0F7FA" fill-rule="nonzero" /><path id="124" transform="matrix(1 0 0 -1 0 612)" d="M49.85703 214.8433L742.1429 214.8433L742.1429 192.5815L49.85703 192.5815L49.85703 214.8433z" stroke="none" fill="#FFFFFF" fill-rule="nonzero" /><path id="125" transform="matrix(1 0 0 -1 0 612)" d="M49.85703 193.1245L742.1429 193.1245L742.1429 180.6362L49.85703 180.6362L49.85703 193.1245z" stroke="none" fill="#E0F7FA" fill-rule="nonzero" /><path id="126" transform="matrix(1 0 0 -1 0 612)" d="M49.85703 181.1792L742.1429 181.1792L742.1429 168.6909L49.85703 168.6909L49.85703 181.1792z" stroke="none" fill="#FFFFFF" fill-rule="nonzero" /><path id="127" transform="matrix(1 0 0 -1 0 612)" d="M49.85703 169.2339L742.1429 169.2339L742.1429 156.7456L49.85703 156.7456L49.85703 169.2339z" stroke="none" fill="#E0F7FA" fill-rule="nonzero" /><path id="128" transform="matrix(1 0 0 -1 0 612)" d="M49.85703 157.2886L742.1429 157.2886L742.1429 125.7964L49.85703 125.7964L49.85703 157.2886z" stroke="none" fill="#FFFFFF" fill-rule="nonzero" /><path id="129" transform="matrix(1 0 0 -1 0 612)" d="M49.85703 126.3394L742.1429 126.3394L742.1429 113.8508L49.85703 113.8508L49.85703 126.3394z" stroke="none" fill="#E0F7FA" fill-rule="nonzero" /><path id="130" transform="matrix(1 0 0 -1 0 612)" d="M49.85703 114.3938L742.1429 114.3938L742.1429 92.13208L49.85703 92.13208L49.85703 114.3938z" stroke="none" fill="#FFFFFF" fill-rule="nonzero" /><path id="131" transform="matrix(1 0 0 -1 0 612)" d="M49.85703 92.67505L742.1429 92.67505L742.1429 70.41333L49.85703 70.41333L49.85703 92.67505z" stroke="none" fill="#E0F7FA" fill-rule="nonzero" /><path id="132" transform="matrix(1 0 0 -1 0 612)" d="M49.85703 70.9563L742.1429 70.9563L742.1429 58.46802L49.85703 58.46802L49.85703 70.9563z" stroke="none" fill="#FFFFFF" fill-rule="nonzero" /><path id="133" transform="matrix(1 0 0 -1 0 612)" d="M49.85703 59.01099L742.1429 59.01099L742.1429 58.46802L49.85703 58.46802zM49.85703 70.9563L742.1429 70.9563L742.1429 70.41333L49.85703 70.41333zM49.85703 92.67505L742.1429 92.67505L742.1429 92.13208L49.85703 92.13208zM49.85703 114.3938L742.1429 114.3938L742.1429 113.8508L49.85703 113.8508zM49.85703 126.3394L742.1429 126.3394L742.1429 125.7964L49.85703 125.7964zM49.85703 157.2886L742.1429 157.2886L742.1429 156.7456L49.85703 156.7456zM49.85703 169.2339L742.1429 169.2339L742.1429 168.6909L49.85703 168.6909zM49.85703 181.1792L742.1429 181.1792L742.1429 180.6362L49.85703 180.6362zM49.85703 193.1245L742.1429 193.1245L742.1429 192.5815L49.85703 192.5815zM49.85703 214.8433L742.1429 214.8433L742.1429 214.3003L49.85703 214.3003zM49.85703 226.7886L742.1429 226.7886L742.1429 226.2456L49.85703 226.2456zM49.85703 238.7339L742.1429 238.7339L742.1429 238.1909L49.85703 238.1909zM49.85703 250.6792L742.1429 250.6792L742.1429 250.1362L49.85703 250.1362zM49.85703 262.6245L742.1429 262.6245L742.1429 262.0815L49.85703 262.0815zM49.85703 285.4292L742.1429 285.4292L742.1429 284.8862L49.85703 284.8862zM49.85703 307.1479L742.1429 307.1479L742.1429 306.605L49.85703 306.605zM49.85703 338.0974L742.1429 338.0974L742.1429 337.5544L49.85703 337.5544zM49.85703 359.8162L742.1429 359.8162L742.1429 359.2732L49.85703 359.2732zM49.85703 371.7615L742.1429 371.7615L742.1429 371.2185L49.85703 371.2185zM49.85703 383.7068L742.1429 383.7068L742.1429 383.1638L49.85703 383.1638zM49.85703 395.6521L742.1429 395.6521L742.1429 395.1091L49.85703 395.1091zM49.85703 407.5974L742.1429 407.5974L742.1429 407.0544L49.85703 407.0544zM49.85703 419.5427L742.1429 419.5427L742.1429 418.9998L49.85703 418.9998zM49.85703 431.488L742.1429 431.488L742.1429 430.9451L49.85703 430.9451zM49.85703 443.4333L742.1429 443.4333L742.1429 442.8904L49.85703 442.8904zM49.85703 455.3787L742.1429 455.3787L742.1429 454.8357L49.85703 454.8357zM49.85703 467.324L742.1429 467.324L742.1429 466.781L49.85703 466.781zM49.85703 489.0427L742.1429 489.0427L742.1429 488.4998L49.85703 488.4998zM49.85703 500.988L742.1429 500.988L742.1429 500.4451L49.85703 500.4451zM49.85703 512.9333L742.1429 512.9333L742.1429 512.3904L49.85703 512.3904zM49.85703 534.6523L742.1429 534.6523L742.1429 534.1094L49.85703 534.1094zM49.85703 546.5977L742.1429 546.5977L742.1429 546.0547L49.85703 546.0547zM49.85703 558.543L742.1429 558.543L742.1429 558L49.85703 558zM742.1429 70.41333L742.1429 59.01099L741.6 59.01099L741.6 70.41333zM742.1429 92.13208L742.1429 70.9563L741.6 70.9563L741.6 92.13208zM742.1429 113.8508L742.1429 92.67505L741.6 92.67505L741.6 113.8508zM742.1429 125.7964L742.1429 114.3938L741.6 114.3938L741.6 125.7964zM742.1429 156.7456L742.1429 126.3394L741.6 126.3394L741.6 156.7456zM742.1429 168.6909L742.1429 157.2886L741.6 157.2886L741.6 168.6909zM742.1429 180.6362L742.1429 169.2339L741.6 169.2339L741.6 180.6362zM742.1429 192.5815L742.1429 181.1792L741.6 181.1792L741.6 192.5815zM742.1429 214.3003L742.1429 193.1245L741.6 193.1245L741.6 214.3003zM742.1429 226.2456L742.1429 214.8433L741.6 214.8433L741.6 226.2456zM742.1429 238.1909L742.1429 226.7886L741.6 226.7886L741.6 238.1909zM742.1429 250.1362L742.1429 238.7339L741.6 238.7339L741.6 250.1362zM742.1429 262.0815L742.1429 250.6792L741.6 250.6792L741.6 262.0815zM742.1429 284.8862L742.1429 262.6245L741.6 262.6245L741.6 284.8862zM742.1429 306.605L742.1429 285.4292L741.6 285.4292L741.6 306.605zM742.1429 337.5544L742.1429 307.1479L741.6 307.1479L741.6 337.5544zM742.1429 359.2732L742.1429 338.0974L741.6 338.0974L741.6 359.2732zM742.1429 371.2185L742.1429 359.8162L741.6 359.8162L741.6 371.2185zM742.1429 383.1638L742.1429 371.7615L741.6 371.7615L741.6 383.1638zM742.1429 395.1091L742.1429 383.7068L741.6 383.7068L741.6 395.1091zM742.1429 407.0544L742.1429 395.6521L741.6 395.6521L741.6 407.0544zM742.1429 418.9998L742.1429 407.5974L741.6 407.5974L741.6 418.9998zM742.1429 430.9451L742.1429 419.5427L741.6 419.5427L741.6 430.9451zM742.1429 442.8904L742.1429 431.488L741.6 431.488L741.6 442.8904zM742.1429 454.8357L742.1429 443.4333L741.6 443.4333L741.6 454.8357zM742.1429 466.781L742.1429 455.3787L741.6 455.3787L741.6 466.781zM742.1429 488.4998L742.1429 467.324L741.6 467.324L741.6 488.4998zM742.1429 500.4451L742.1429 489.0427L741.6 489.0427L741.6 500.4451zM742.1429 512.3904L742.1429 500.988L741.6 500.988L741.6 512.3904zM742.1429 534.1094L742.1429 512.9333L741.6 512.9333L741.6 534.1094zM742.1429 546.0547L742.1429 534.6523L741.6 534.6523L741.6 546.0547zM742.1429 558L742.1429 546.5977L741.6 546.5977L741.6 558zM691.1039 70.41333L691.1039 59.01099L690.5609 59.01099L690.5609 70.41333zM691.1039 92.13208L691.1039 70.9563L690.5609 70.9563L690.5609 92.13208zM691.1039 113.8508L691.1039 92.67505L690.5609 92.67505L690.5609 113.8508zM691.1039 125.7964L691.1039 114.3938L690.5609 114.3938L690.5609 125.7964zM691.1039 156.7456L691.1039 126.3394L690.5609 126.3394L690.5609 156.7456zM691.1039 168.6909L691.1039 157.2886L690.5609 157.2886L690.5609 168.6909zM691.1039 180.6362L691.1039 169.2339L690.5609 169.2339L690.5609 180.6362zM691.1039 192.5815L691.1039 181.1792L690.5609 181.1792L690.5609 192.5815zM691.1039 214.3003L691.1039 193.1245L690.5609 193.1245L690.5609 214.3003zM691.1039 226.2456L691.1039 214.8433L690.5609 214.8433L690.5609 226.2456zM691.1039 238.1909L691.1039 226.7886L690.5609 226.7886L690.5609 238.1909zM691.1039 250.1362L691.1039 238.7339L690.5609 238.7339L690.5609 250.1362zM691.1039 262.0815L691.1039 250.6792L690.5609 250.6792L690.5609 262.0815zM691.1039 284.8862L691.1039 262.6245L690.5609 262.6245L690.5609 284.8862zM691.1039 306.605L691.1039 285.4292L690.5609 285.4292L690.5609 306.605zM691.1039 337.5544L691.1039 307.1479L690.5609 307.1479L690.5609 337.5544zM691.1039 359.2732L691.1039 338.0974L690.5609 338.0974L690.5609 359.2732zM691.1039 371.2185L691.1039 359.8162L690.5609 359.8162L690.5609 371.2185zM691.1039 383.1638L691.1039 371.7615L690.5609 371.7615L690.5609 383.1638zM691.1039 395.1091L691.1039 383.7068L690.5609 383.7068L690.5609 395.1091zM691.1039 407.0544L691.1039 395.6521L690.5609 395.6521L690.5609 407.0544zM691.1039 418.9998L691.1039 407.5974L690.5609 407.5974L690.5609 418.9998zM691.1039 430.9451L691.1039 419.5427L690.5609 419.5427L690.5609 430.9451zM691.1039 442.8904L691.1039 431.488L690.5609 431.488L690.5609 442.8904zM691.1039 454.8357L691.1039 443.4333L690.5609 443.4333L690.5609 454.8357zM691.1039 466.781L691.1039 455.3787L690.5609 455.3787L690.5609 466.781zM691.1039 488.4998L691.1039 467.324L690.5609 467.324L690.5609 488.4998zM691.1039 500.4451L691.1039 489.0427L690.5609 489.0427L690.5609 500.4451zM691.1039 512.3904L691.1039 500.988L690.5609 500.988L690.5609 512.3904zM691.1039 534.1094L691.1039 512.9333L690.5609 512.9333L690.5609 534.1094zM691.1039 546.0547L691.1039 534.6523L690.5609 534.6523L690.5609 546.0547zM691.1039 558L691.1039 546.5977L690.5609 546.5977L690.5609 558zM417.9902 70.41333L417.9902 59.01099L417.4473 59.01099L417.4473 70.41333zM417.9902 92.13208L417.9902 70.9563L417.4473 70.9563L417.4473 92.13208zM417.9902 113.8508L417.9902 92.67505L417.4473 92.67505L417.4473 113.8508zM417.9902 125.7964L417.9902 114.3938L417.4473 114.3938L417.4473 125.7964zM417.9902 156.7456L417.9902 126.3394L417.4473 126.3394L417.4473 156.7456zM417.9902 168.6909L417.9902 157.2886L417.4473 157.2886L417.4473 168.6909zM417.9902 180.6362L417.9902 169.2339L417.4473 169.2339L417.4473 180.6362zM417.9902 192.5815L417.9902 181.1792L417.4473 181.1792L417.4473 192.5815zM417.9902 214.3003L417.9902 193.1245L417.4473 193.1245L417.4473 214.3003zM417.9902 226.2456L417.9902 214.8433L417.4473 214.8433L417.4473 226.2456zM417.9902 238.1909L417.9902 226.7886L417.4473 226.7886L417.4473 238.1909zM417.9902 250.1362L417.9902 238.7339L417.4473 238.7339L417.4473 250.1362zM417.9902 262.0815L417.9902 250.6792L417.4473 250.6792L417.4473 262.0815zM417.9902 284.8862L417.9902 262.6245L417.4473 262.6245L417.4473 284.8862zM417.9902 306.605L417.9902 285.4292L417.4473 285.4292L417.4473 306.605zM417.9902 337.5544L417.9902 307.1479L417.4473 307.1479L417.4473 337.5544zM417.9902 359.2732L417.9902 338.0974L417.4473 338.0974L417.4473 359.2732zM417.9902 371.2185L417.9902 359.8162L417.4473 359.8162L417.4473 371.2185zM417.9902 383.1638L417.9902 371.7615L417.4473 371.7615L417.4473 383.1638zM417.9902 395.1091L417.9902 383.7068L417.4473 383.7068L417.4473 395.1091zM417.9902 407.0544L417.9902 395.6521L417.4473 395.6521L417.4473 407.0544zM417.9902 418.9998L417.9902 407.5974L417.4473 407.5974L417.4473 418.9998zM417.9902 430.9451L417.9902 419.5427L417.4473 419.5427L417.4473 430.9451zM417.9902 442.8904L417.9902 431.488L417.4473 431.488L417.4473 442.8904zM417.9902 454.8357L417.9902 443.4333L417.4473 443.4333L417.4473 454.8357zM417.9902 466.781L417.9902 455.3787L417.4473 455.3787L417.4473 466.781zM417.9902 488.4998L417.9902 467.324L417.4473 467.324L417.4473 488.4998zM417.9902 500.4451L417.9902 489.0427L417.4473 489.0427L417.4473 500.4451zM417.9902 512.3904L417.9902 500.988L417.4473 500.988L417.4473 512.3904zM417.9902 534.1094L417.9902 512.9333L417.4473 512.9333L417.4473 534.1094zM417.9902 546.0547L417.9902 534.6523L417.4473 534.6523L417.4473 546.0547zM417.9902 558L417.9902 546.5977L417.4473 546.5977L417.4473 558zM144.8767 70.41333L144.8767 59.01099L144.3337 59.01099L144.3337 70.41333zM144.8767 92.13208L144.8767 70.9563L144.3337 70.9563L144.3337 92.13208zM144.8767 113.8508L144.8767 92.67505L144.3337 92.67505L144.3337 113.8508zM144.8767 125.7964L144.8767 114.3938L144.3337 114.3938L144.3337 125.7964zM144.8767 156.7456L144.8767 126.3394L144.3337 126.3394L144.3337 156.7456zM144.8767 168.6909L144.8767 157.2886L144.3337 157.2886L144.3337 168.6909zM144.8767 180.6362L144.8767 169.2339L144.3337 169.2339L144.3337 180.6362zM144.8767 192.5815L144.8767 181.1792L144.3337 181.1792L144.3337 192.5815zM144.8767 214.3003L144.8767 193.1245L144.3337 193.1245L144.3337 214.3003zM144.8767 226.2456L144.8767 214.8433L144.3337 214.8433L144.3337 226.2456zM144.8767 238.1909L144.8767 226.7886L144.3337 226.7886L144.3337 238.1909zM144.8767 250.1362L144.8767 238.7339L144.3337 238.7339L144.3337 250.1362zM144.8767 262.0815L144.8767 250.6792L144.3337 250.6792L144.3337 262.0815zM144.8767 284.8862L144.8767 262.6245L144.3337 262.6245L144.3337 284.8862zM144.8767 306.605L144.8767 285.4292L144.3337 285.4292L144.3337 306.605zM144.8767 337.5544L144.8767 307.1479L144.3337 307.1479L144.3337 337.5544zM144.8767 359.2732L144.8767 338.0974L144.3337 338.0974L144.3337 359.2732zM144.8767 371.2185L144.8767 359.8162L144.3337 359.8162L144.3337 371.2185zM144.8767 383.1638L144.8767 371.7615L144.3337 371.7615L144.3337 383.1638zM144.8767 395.1091L144.8767 383.7068L144.3337 383.7068L144.3337 395.1091zM144.8767 407.0544L144.8767 395.6521L144.3337 395.6521L144.3337 407.0544zM144.8767 418.9998L144.8767 407.5974L144.3337 407.5974L144.3337 418.9998zM144.8767 430.9451L144.8767 419.5427L144.3337 419.5427L144.3337 430.9451zM144.8767 442.8904L144.8767 431.488L144.3337 431.488L144.3337 442.8904zM144.8767 454.8357L144.8767 443.4333L144.3337 443.4333L144.3337 454.8357zM144.8767 466.781L144.8767 455.3787L144.3337 455.3787L144.3337 466.781zM144.8767 488.4998L144.8767 467.324L144.3337 467.324L144.3337 488.4998zM144.8767 500.4451L144.8767 489.0427L144.3337 489.0427L144.3337 500.4451zM144.8767 512.3904L144.8767 500.988L144.3337 500.988L144.3337 512.3904zM144.8767 534.1094L144.8767 512.9333L144.3337 512.9333L144.3337 534.1094zM144.8767 546.0547L144.8767 534.6523L144.3337 534.6523L144.3337 546.0547zM144.8767 558L144.8767 546.5977L144.3337 546.5977L144.3337 558zM74.83362 70.41333L74.83362 59.01099L74.29065 59.01099L74.29065 70.41333zM74.83362 92.13208L74.83362 70.9563L74.29065 70.9563L74.29065 92.13208zM74.83362 113.8508L74.83362 92.67505L74.29065 92.67505L74.29065 113.8508zM74.83362 125.7964L74.83362 114.3938L74.29065 114.3938L74.29065 125.7964zM74.83362 156.7456L74.83362 126.3394L74.29065 126.3394L74.29065 156.7456zM74.83362 168.6909L74.83362 157.2886L74.29065 157.2886L74.29065 168.6909zM74.83362 180.6362L74.83362 169.2339L74.29065 169.2339L74.29065 180.6362zM74.83362 192.5815L74.83362 181.1792L74.29065 181.1792L74.29065 192.5815zM74.83362 214.3003L74.83362 193.1245L74.29065 193.1245L74.29065 214.3003zM74.83362 226.2456L74.83362 214.8433L74.29065 214.8433L74.29065 226.2456zM74.83362 238.1909L74.83362 226.7886L74.29065 226.7886L74.29065 238.1909zM74.83362 250.1362L74.83362 238.7339L74.29065 238.7339L74.29065 250.1362zM74.83362 262.0815L74.83362 250.6792L74.29065 250.6792L74.29065 262.0815zM74.83362 284.8862L74.83362 262.6245L74.29065 262.6245L74.29065 284.8862zM74.83362 306.605L74.83362 285.4292L74.29065 285.4292L74.29065 306.605zM74.83362 337.5544L74.83362 307.1479L74.29065 307.1479L74.29065 337.5544zM74.83362 359.2732L74.83362 338.0974L74.29065 338.0974L74.29065 359.2732zM74.83362 371.2185L74.83362 359.8162L74.29065 359.8162L74.29065 371.2185zM74.83362 383.1638L74.83362 371.7615L74.29065 371.7615L74.29065 383.1638zM74.83362 395.1091L74.83362 383.7068L74.29065 383.7068L74.29065 395.1091zM74.83362 407.0544L74.83362 395.6521L74.29065 395.6521L74.29065 407.0544zM74.83362 418.9998L74.83362 407.5974L74.29065 407.5974L74.29065 418.9998zM74.83362 430.9451L74.83362 419.5427L74.29065 419.5427L74.29065 430.9451zM74.83362 442.8904L74.83362 431.488L74.29065 431.488L74.29065 442.8904zM74.83362 454.8357L74.83362 443.4333L74.29065 443.4333L74.29065 454.8357zM74.83362 466.781L74.83362 455.3787L74.29065 455.3787L74.29065 466.781zM74.83362 488.4998L74.83362 467.324L74.29065 467.324L74.29065 488.4998zM74.83362 500.4451L74.83362 489.0427L74.29065 489.0427L74.29065 500.4451zM74.83362 512.3904L74.83362 500.988L74.29065 500.988L74.29065 512.3904zM74.83362 534.1094L74.83362 512.9333L74.29065 512.9333L74.29065 534.1094zM74.83362 546.0547L74.83362 534.6523L74.29065 534.6523L74.29065 546.0547zM74.83362 558L74.83362 546.5977L74.29065 546.5977L74.29065 558zM50.39999 70.41333L50.39999 59.01099L49.85703 59.01099L49.85703 70.41333zM50.39999 92.13208L50.39999 70.9563L49.85703 70.9563L49.85703 92.13208zM50.39999 113.8508L50.39999 92.67505L49.85703 92.67505L49.85703 113.8508zM50.39999 125.7964L50.39999 114.3938L49.85703 114.3938L49.85703 125.7964zM50.39999 156.7456L50.39999 126.3394L49.85703 126.3394L49.85703 156.7456zM50.39999 168.6909L50.39999 157.2886L49.85703 157.2886L49.85703 168.6909zM50.39999 180.6362L50.39999 169.2339L49.85703 169.2339L49.85703 180.6362zM50.39999 192.5815L50.39999 181.1792L49.85703 181.1792L49.85703 192.5815zM50.39999 214.3003L50.39999 193.1245L49.85703 193.1245L49.85703 214.3003zM50.39999 226.2456L50.39999 214.8433L49.85703 214.8433L49.85703 226.2456zM50.39999 238.1909L50.39999 226.7886L49.85703 226.7886L49.85703 238.1909zM50.39999 250.1362L50.39999 238.7339L49.85703 238.7339L49.85703 250.1362zM50.39999 262.0815L50.39999 250.6792L49.85703 250.6792L49.85703 262.0815zM50.39999 284.8862L50.39999 262.6245L49.85703 262.6245L49.85703 284.8862zM50.39999 306.605L50.39999 285.4292L49.85703 285.4292L49.85703 306.605zM50.39999 337.5544L50.39999 307.1479L49.85703 307.1479L49.85703 337.5544zM50.39999 359.2732L50.39999 338.0974L49.85703 338.0974L49.85703 359.2732zM50.39999 371.2185L50.39999 359.8162L49.85703 359.8162L49.85703 371.2185zM50.39999 383.1638L50.39999 371.7615L49.85703 371.7615L49.85703 383.1638zM50.39999 395.1091L50.39999 383.7068L49.85703 383.7068L49.85703 395.1091zM50.39999 407.0544L50.39999 395.6521L49.85703 395.6521L49.85703 407.0544zM50.39999 418.9998L50.39999 407.5974L49.85703 407.5974L49.85703 418.9998zM50.39999 430.9451L50.39999 419.5427L49.85703 419.5427L49.85703 430.9451zM50.39999 442.8904L50.39999 431.488L49.85703 431.488L49.85703 442.8904zM50.39999 454.8357L50.39999 443.4333L49.85703 443.4333L49.85703 454.8357zM50.39999 466.781L50.39999 455.3787L49.85703 455.3787L49.85703 466.781zM50.39999 488.4998L50.39999 467.324L49.85703 467.324L49.85703 488.4998zM50.39999 500.4451L50.39999 489.0427L49.85703 489.0427L49.85703 500.4451zM50.39999 512.3904L50.39999 500.988L49.85703 500.988L49.85703 512.3904zM50.39999 534.1094L50.39999 512.9333L49.85703 512.9333L49.85703 534.1094zM50.39999 546.0547L50.39999 534.6523L49.85703 534.6523L49.85703 546.0547zM50.39999 558L50.39999 546.5977L49.85703 546.5977L49.85703 558z" stroke="none" fill="#000000" fill-rule="nonzero" fill-opacity="0.1490196" /><path id="184" transform="matrix(1 0 0 -1 0 612)" d="M419.6191 548.7446L475.4936 548.7446" stroke="#000000" stroke-width="0.5080263" fill="none" /><path id="309" transform="matrix(1 0 0 -1 0 612)" d="M419.6191 536.7993L598.9166 536.7993" stroke="#000000" stroke-width="0.5080263" fill="none" /><path id="433" transform="matrix(1 0 0 -1 0 612)" d="M419.6191 515.0803L568.6959 515.0803" stroke="#000000" stroke-width="0.5080263" fill="none" /><path id="542" transform="matrix(1 0 0 -1 0 612)" d="M419.6191 503.135L570.4093 503.135" stroke="#000000" stroke-width="0.5080263" fill="none" /><path id="729" transform="matrix(1 0 0 -1 0 612)" d="M419.6191 491.1897L679.0614 491.1897" stroke="#000000" stroke-width="0.5080263" fill="none" /><path id="914" transform="matrix(1 0 0 -1 0 612)" d="M419.6191 478.947L679.8726 478.947" stroke="#000000" stroke-width="0.5080263" fill="none" /><path id="918" transform="matrix(1 0 0 -1 0 612)" d="M419.6191 469.4709L429.7471 469.4709" stroke="#000000" stroke-width="0.5080263" fill="none" /><path id="1035" transform="matrix(1 0 0 -1 0 612)" d="M419.6191 457.5256L571.9331 457.5256" stroke="#000000" stroke-width="0.5080263" fill="none" /><path id="1197" transform="matrix(1 0 0 -1 0 612)" d="M419.6191 445.5803L644.6293 445.5803" stroke="#000000" stroke-width="0.5080263" fill="none" /><path id="1361" transform="matrix(1 0 0 -1 0 612)" d="M419.6191 433.635L663.1263 433.635" stroke="#000000" stroke-width="0.5080263" fill="none" /><path id="1520" transform="matrix(1 0 0 -1 0 612)" d="M419.6191 421.6897L641.9646 421.6897" stroke="#000000" stroke-width="0.5080263" fill="none" /><path id="1678" transform="matrix(1 0 0 -1 0 612)" d="M419.6191 409.7444L643.0526 409.7444" stroke="#000000" stroke-width="0.5080263" fill="none" /><path id="1823" transform="matrix(1 0 0 -1 0 612)" d="M419.6191 397.7991L616.6599 397.7991" stroke="#000000" stroke-width="0.5080263" fill="none" /><path id="1921" transform="matrix(1 0 0 -1 0 612)" d="M419.6191 385.8538L547.2802 385.8538" stroke="#000000" stroke-width="0.5080263" fill="none" /><path id="2002" transform="matrix(1 0 0 -1 0 612)" d="M419.6191 373.9084L522.6461 373.9084" stroke="#000000" stroke-width="0.5080263" fill="none" /><path id="2163" transform="matrix(1 0 0 -1 0 612)" d="M419.6191 361.9631L644.8984 361.9631" stroke="#000000" stroke-width="0.5080263" fill="none" /><path id="2359" transform="matrix(1 0 0 -1 0 612)" d="M419.6191 349.7202L674.3577 349.7202" stroke="#000000" stroke-width="0.5080263" fill="none" /><path id="2367" transform="matrix(1 0 0 -1 0 612)" d="M419.6191 340.2444L445.5986 340.2444" stroke="#000000" stroke-width="0.5080263" fill="none" /><path id="2554" transform="matrix(1 0 0 -1 0 612)" d="M419.6191 309.2949L623.1075 309.2949" stroke="#000000" stroke-width="0.5080263" fill="none" /><path id="2736" transform="matrix(1 0 0 -1 0 612)" d="M419.6191 297.0522L666.2802 297.0522" stroke="#000000" stroke-width="0.5080263" fill="none" /><path id="2748" transform="matrix(1 0 0 -1 0 612)" d="M419.6191 287.5762L455.5522 287.5762" stroke="#000000" stroke-width="0.5080263" fill="none" /><path id="2936" transform="matrix(1 0 0 -1 0 612)" d="M419.6191 274.2476L682.0558 274.2476" stroke="#000000" stroke-width="0.5080263" fill="none" /><path id="2941" transform="matrix(1 0 0 -1 0 612)" d="M419.6191 264.7715L435.3569 264.7715" stroke="#000000" stroke-width="0.5080263" fill="none" /><path id="3032" transform="matrix(1 0 0 -1 0 612)" d="M419.6191 252.8262L529.9694 252.8262" stroke="#000000" stroke-width="0.5080263" fill="none" /><path id="3111" transform="matrix(1 0 0 -1 0 612)" d="M419.6191 240.8809L514.7964 240.8809" stroke="#000000" stroke-width="0.5080263" fill="none" /><path id="3269" transform="matrix(1 0 0 -1 0 612)" d="M419.6191 228.9355L628.4292 228.9355" stroke="#000000" stroke-width="0.5080263" fill="none" /><path id="3374" transform="matrix(1 0 0 -1 0 612)" d="M419.6191 216.9902L552.1509 216.9902" stroke="#000000" stroke-width="0.5080263" fill="none" /><path id="3575" transform="matrix(1 0 0 -1 0 612)" d="M419.6191 204.7473L680.8011 204.7473" stroke="#000000" stroke-width="0.5080263" fill="none" /><path id="3593" transform="matrix(1 0 0 -1 0 612)" d="M419.6191 195.2715L479.303 195.2715" stroke="#000000" stroke-width="0.5080263" fill="none" /><path id="3764" transform="matrix(1 0 0 -1 0 612)" d="M419.6191 183.3262L656.2014 183.3262" stroke="#000000" stroke-width="0.5080263" fill="none" /><path id="3939" transform="matrix(1 0 0 -1 0 612)" d="M419.6191 171.3809L646.5547 171.3809" stroke="#000000" stroke-width="0.5080263" fill="none" /><path id="4133" transform="matrix(1 0 0 -1 0 612)" d="M419.6191 159.4355L681.1576 159.4355" stroke="#000000" stroke-width="0.5080263" fill="none" /><path id="4297" transform="matrix(1 0 0 -1 0 612)" d="M419.6191 128.4861L610.4095 128.4861" stroke="#000000" stroke-width="0.5080263" fill="none" /><path id="4413" transform="matrix(1 0 0 -1 0 612)" d="M419.6191 116.5408L571.2811 116.5408" stroke="#000000" stroke-width="0.5080263" fill="none" /><path id="4580" transform="matrix(1 0 0 -1 0 612)" d="M419.6191 94.82202L627.6217 94.82202" stroke="#000000" stroke-width="0.5080263" fill="none" /><path id="4797" transform="matrix(1 0 0 -1 0 612)" d="M419.6191 82.57935L680.0735 82.57935" stroke="#000000" stroke-width="0.5080263" fill="none" /><path id="4826" transform="matrix(1 0 0 -1 0 612)" d="M419.6191 73.10327L509.2396 73.10327" stroke="#000000" stroke-width="0.5080263" fill="none" /><path id="4968" transform="matrix(1 0 0 -1 0 612)" d="M419.6191 61.15796L608.2717 61.15796" stroke="#000000" stroke-width="0.5080263" fill="none" /></g></g></g></svg>