<svg xmlns="http://www.w3.org/2000/svg" xmlns:xlink="http://www.w3.org/1999/xlink" id="body_12" preserveAspectRatio="xMinYMin meet" viewBox="0 0 1056 816"><defs><clipPath id="1"><path id="" clip-rule="evenodd" transform="matrix(1 0 0 1 0 0)" d="M0 612L0 0L0 0L792 0L792 0L792 612L792 612L0 612z" /></clipPath><clipPath id="2"><path id="" clip-rule="evenodd" transform="matrix(1 0 0 1 0 0)" d="M49.31406 52.91455L742.6859 52.91455L742.6859 52.91455L742.6859 552.9893L742.6859 552.9893L49.31406 552.9893L49.31406 552.9893L49.31406 52.91455z" /></clipPath></defs><g transform="matrix(1.333333 0 0 1.333333 0 0)"><g clip-path="url(#1)"><g clip-path="url(#2)"><path id="102" transform="matrix(1 0 0 -1 0 612)" d="M49.85703 558.5425L742.1429 558.5425L742.1429 546.0542L49.85703 546.0542L49.85703 558.5425z" stroke="none" fill="#FFFFFF" fill-rule="nonzero" /><path id="103" transform="matrix(1 0 0 -1 0 612)" d="M49.85703 546.5972L742.1429 546.5972L742.1429 534.1089L49.85703 534.1089L49.85703 546.5972z" stroke="none" fill="#E0F7FA" fill-rule="nonzero" /><path id="104" transform="matrix(1 0 0 -1 0 612)" d="M49.85703 534.6519L742.1429 534.6519L742.1429 522.1636L49.85703 522.1636L49.85703 534.6519z" stroke="none" fill="#FFFFFF" fill-rule="nonzero" /><path id="105" transform="matrix(1 0 0 -1 0 612)" d="M49.85703 522.7065L742.1429 522.7065L742.1429 510.2183L49.85703 510.2183L49.85703 522.7065z" stroke="none" fill="#E0F7FA" fill-rule="nonzero" /><path id="106" transform="matrix(1 0 0 -1 0 612)" d="M49.85703 510.7612L742.1429 510.7612L742.1429 488.4995L49.85703 488.4995L49.85703 510.7612z" stroke="none" fill="#FFFFFF" fill-rule="nonzero" /><path id="107" transform="matrix(1 0 0 -1 0 612)" d="M49.85703 489.0425L742.1429 489.0425L742.1429 476.5542L49.85703 476.5542L49.85703 489.0425z" stroke="none" fill="#E0F7FA" fill-rule="nonzero" /><path id="108" transform="matrix(1 0 0 -1 0 612)" d="M49.85703 477.0972L742.1429 477.0972L742.1429 464.6089L49.85703 464.6089L49.85703 477.0972z" stroke="none" fill="#FFFFFF" fill-rule="nonzero" /><path id="109" transform="matrix(1 0 0 -1 0 612)" d="M49.85703 465.1519L742.1429 465.1519L742.1429 452.6636L49.85703 452.6636L49.85703 465.1519z" stroke="none" fill="#E0F7FA" fill-rule="nonzero" /><path id="110" transform="matrix(1 0 0 -1 0 612)" d="M49.85703 453.2065L742.1429 453.2065L742.1429 430.9448L49.85703 430.9448L49.85703 453.2065z" stroke="none" fill="#FFFFFF" fill-rule="nonzero" /><path id="111" transform="matrix(1 0 0 -1 0 612)" d="M49.85703 431.4878L742.1429 431.4878L742.1429 418.9995L49.85703 418.9995L49.85703 431.4878z" stroke="none" fill="#E0F7FA" fill-rule="nonzero" /><path id="112" transform="matrix(1 0 0 -1 0 612)" d="M49.85703 419.5425L742.1429 419.5425L742.1429 407.0542L49.85703 407.0542L49.85703 419.5425z" stroke="none" fill="#FFFFFF" fill-rule="nonzero" /><path id="113" transform="matrix(1 0 0 -1 0 612)" d="M49.85703 407.5972L742.1429 407.5972L742.1429 395.1089L49.85703 395.1089L49.85703 407.5972z" stroke="none" fill="#E0F7FA" fill-rule="nonzero" /><path id="114" transform="matrix(1 0 0 -1 0 612)" d="M49.85703 395.6519L742.1429 395.6519L742.1429 383.1636L49.85703 383.1636L49.85703 395.6519z" stroke="none" fill="#FFFFFF" fill-rule="nonzero" /><path id="115" transform="matrix(1 0 0 -1 0 612)" d="M49.85703 383.7065L742.1429 383.7065L742.1429 371.2183L49.85703 371.2183L49.85703 383.7065z" stroke="none" fill="#E0F7FA" fill-rule="nonzero" /><path id="116" transform="matrix(1 0 0 -1 0 612)" d="M49.85703 371.7612L742.1429 371.7612L742.1429 359.2729L49.85703 359.2729L49.85703 371.7612z" stroke="none" fill="#FFFFFF" fill-rule="nonzero" /><path id="117" transform="matrix(1 0 0 -1 0 612)" d="M49.85703 359.8159L742.1429 359.8159L742.1429 347.3276L49.85703 347.3276L49.85703 359.8159z" stroke="none" fill="#E0F7FA" fill-rule="nonzero" /><path id="118" transform="matrix(1 0 0 -1 0 612)" d="M49.85703 347.8706L742.1429 347.8706L742.1429 325.6089L49.85703 325.6089L49.85703 347.8706z" stroke="none" fill="#FFFFFF" fill-rule="nonzero" /><path id="119" transform="matrix(1 0 0 -1 0 612)" d="M49.85703 326.1519L742.1429 326.1519L742.1429 313.6636L49.85703 313.6636L49.85703 326.1519z" stroke="none" fill="#E0F7FA" fill-rule="nonzero" /><path id="120" transform="matrix(1 0 0 -1 0 612)" d="M49.85703 314.2065L742.1429 314.2065L742.1429 301.7183L49.85703 301.7183L49.85703 314.2065z" stroke="none" fill="#FFFFFF" fill-rule="nonzero" /><path id="121" transform="matrix(1 0 0 -1 0 612)" d="M49.85703 302.2612L742.1429 302.2612L742.1429 289.7729L49.85703 289.7729L49.85703 302.2612z" stroke="none" fill="#E0F7FA" fill-rule="nonzero" /><path id="122" transform="matrix(1 0 0 -1 0 612)" d="M49.85703 290.3159L742.1429 290.3159L742.1429 277.8276L49.85703 277.8276L49.85703 290.3159z" stroke="none" fill="#FFFFFF" fill-rule="nonzero" /><path id="123" transform="matrix(1 0 0 -1 0 612)" d="M49.85703 278.3706L742.1429 278.3706L742.1429 265.8823L49.85703 265.8823L49.85703 278.3706z" stroke="none" fill="#E0F7FA" fill-rule="nonzero" /><path id="124" transform="matrix(1 0 0 -1 0 612)" d="M49.85703 266.4253L742.1429 266.4253L742.1429 244.1636L49.85703 244.1636L49.85703 266.4253z" stroke="none" fill="#FFFFFF" fill-rule="nonzero" /><path id="125" transform="matrix(1 0 0 -1 0 612)" d="M49.85703 244.7065L742.1429 244.7065L742.1429 232.2183L49.85703 232.2183L49.85703 244.7065z" stroke="none" fill="#E0F7FA" fill-rule="nonzero" /><path id="126" transform="matrix(1 0 0 -1 0 612)" d="M49.85703 232.7612L742.1429 232.7612L742.1429 220.2729L49.85703 220.2729L49.85703 232.7612z" stroke="none" fill="#FFFFFF" fill-rule="nonzero" /><path id="127" transform="matrix(1 0 0 -1 0 612)" d="M49.85703 220.8159L742.1429 220.8159L742.1429 208.3276L49.85703 208.3276L49.85703 220.8159z" stroke="none" fill="#E0F7FA" fill-rule="nonzero" /><path id="128" transform="matrix(1 0 0 -1 0 612)" d="M49.85703 208.8706L742.1429 208.8706L742.1429 196.3823L49.85703 196.3823L49.85703 208.8706z" stroke="none" fill="#FFFFFF" fill-rule="nonzero" /><path id="129" transform="matrix(1 0 0 -1 0 612)" d="M49.85703 196.9253L742.1429 196.9253L742.1429 184.437L49.85703 184.437L49.85703 196.9253z" stroke="none" fill="#E0F7FA" fill-rule="nonzero" /><path id="130" transform="matrix(1 0 0 -1 0 612)" d="M49.85703 184.98L742.1429 184.98L742.1429 162.7183L49.85703 162.7183L49.85703 184.98z" stroke="none" fill="#FFFFFF" fill-rule="nonzero" /><path id="131" transform="matrix(1 0 0 -1 0 612)" d="M49.85703 163.2612L742.1429 163.2612L742.1429 150.7725L49.85703 150.7725L49.85703 163.2612z" stroke="none" fill="#E0F7FA" fill-rule="nonzero" /><path id="132" transform="matrix(1 0 0 -1 0 612)" d="M49.85703 151.3154L742.1429 151.3154L742.1429 129.0537L49.85703 129.0537L49.85703 151.3154z" stroke="none" fill="#FFFFFF" fill-rule="nonzero" /><path id="133" transform="matrix(1 0 0 -1 0 612)" d="M49.85703 129.5967L742.1429 129.5967L742.1429 117.1084L49.85703 117.1084L49.85703 129.5967z" stroke="none" fill="#E0F7FA" fill-rule="nonzero" /><path id="134" transform="matrix(1 0 0 -1 0 612)" d="M49.85703 117.6514L742.1429 117.6514L742.1429 105.1631L49.85703 105.1631L49.85703 117.6514z" stroke="none" fill="#FFFFFF" fill-rule="nonzero" /><path id="135" transform="matrix(1 0 0 -1 0 612)" d="M49.85703 105.7061L742.1429 105.7061L742.1429 83.44434L49.85703 83.44434L49.85703 105.7061z" stroke="none" fill="#E0F7FA" fill-rule="nonzero" /><path id="136" transform="matrix(1 0 0 -1 0 612)" d="M49.85703 83.9873L742.1429 83.9873L742.1429 71.49902L49.85703 71.49902L49.85703 83.9873z" stroke="none" fill="#FFFFFF" fill-rule="nonzero" /><path id="137" transform="matrix(1 0 0 -1 0 612)" d="M49.85703 72.04199L742.1429 72.04199L742.1429 59.55371L49.85703 59.55371L49.85703 72.04199z" stroke="none" fill="#E0F7FA" fill-rule="nonzero" /><path id="138" transform="matrix(1 0 0 -1 0 612)" d="M49.85703 60.09668L742.1429 60.09668L742.1429 59.55371L49.85703 59.55371zM49.85703 72.04199L742.1429 72.04199L742.1429 71.49902L49.85703 71.49902zM49.85703 83.9873L742.1429 83.9873L742.1429 83.44434L49.85703 83.44434zM49.85703 105.7061L742.1429 105.7061L742.1429 105.1631L49.85703 105.1631zM49.85703 117.6514L742.1429 117.6514L742.1429 117.1084L49.85703 117.1084zM49.85703 129.5967L742.1429 129.5967L742.1429 129.0537L49.85703 129.0537zM49.85703 151.3154L742.1429 151.3154L742.1429 150.7725L49.85703 150.7725zM49.85703 163.2612L742.1429 163.2612L742.1429 162.7183L49.85703 162.7183zM49.85703 184.98L742.1429 184.98L742.1429 184.437L49.85703 184.437zM49.85703 196.9253L742.1429 196.9253L742.1429 196.3823L49.85703 196.3823zM49.85703 208.8706L742.1429 208.8706L742.1429 208.3276L49.85703 208.3276zM49.85703 220.8159L742.1429 220.8159L742.1429 220.2729L49.85703 220.2729zM49.85703 232.7612L742.1429 232.7612L742.1429 232.2183L49.85703 232.2183zM49.85703 244.7065L742.1429 244.7065L742.1429 244.1636L49.85703 244.1636zM49.85703 266.4253L742.1429 266.4253L742.1429 265.8823L49.85703 265.8823zM49.85703 278.3706L742.1429 278.3706L742.1429 277.8276L49.85703 277.8276zM49.85703 290.3159L742.1429 290.3159L742.1429 289.7729L49.85703 289.7729zM49.85703 302.2612L742.1429 302.2612L742.1429 301.7183L49.85703 301.7183zM49.85703 314.2065L742.1429 314.2065L742.1429 313.6636L49.85703 313.6636zM49.85703 326.1519L742.1429 326.1519L742.1429 325.6089L49.85703 325.6089zM49.85703 347.8706L742.1429 347.8706L742.1429 347.3276L49.85703 347.3276zM49.85703 359.8159L742.1429 359.8159L742.1429 359.2729L49.85703 359.2729zM49.85703 371.7612L742.1429 371.7612L742.1429 371.2183L49.85703 371.2183zM49.85703 383.7065L742.1429 383.7065L742.1429 383.1636L49.85703 383.1636zM49.85703 395.6519L742.1429 395.6519L742.1429 395.1089L49.85703 395.1089zM49.85703 407.5972L742.1429 407.5972L742.1429 407.0542L49.85703 407.0542zM49.85703 419.5425L742.1429 419.5425L742.1429 418.9995L49.85703 418.9995zM49.85703 431.4878L742.1429 431.4878L742.1429 430.9448L49.85703 430.9448zM49.85703 453.2065L742.1429 453.2065L742.1429 452.6636L49.85703 452.6636zM49.85703 465.1519L742.1429 465.1519L742.1429 464.6089L49.85703 464.6089zM49.85703 477.0972L742.1429 477.0972L742.1429 476.5542L49.85703 476.5542zM49.85703 489.0425L742.1429 489.0425L742.1429 488.4995L49.85703 488.4995zM49.85703 510.7612L742.1429 510.7612L742.1429 510.2183L49.85703 510.2183zM49.85703 522.7065L742.1429 522.7065L742.1429 522.1636L49.85703 522.1636zM49.85703 534.6519L742.1429 534.6519L742.1429 534.1089L49.85703 534.1089zM49.85703 546.5972L742.1429 546.5972L742.1429 546.0542L49.85703 546.0542zM49.85703 558.5425L742.1429 558.5425L742.1429 557.9995L49.85703 557.9995zM742.1429 71.49902L742.1429 60.09668L741.6 60.09668L741.6 71.49902zM742.1429 83.44434L742.1429 72.04199L741.6 72.04199L741.6 83.44434zM742.1429 105.1631L742.1429 83.9873L741.6 83.9873L741.6 105.1631zM742.1429 117.1084L742.1429 105.7061L741.6 105.7061L741.6 117.1084zM742.1429 129.0537L742.1429 117.6514L741.6 117.6514L741.6 129.0537zM742.1429 150.7725L742.1429 129.5967L741.6 129.5967L741.6 150.7725zM742.1429 162.7183L742.1429 151.3154L741.6 151.3154L741.6 162.7183zM742.1429 184.437L742.1429 163.2612L741.6 163.2612L741.6 184.437zM742.1429 196.3823L742.1429 184.98L741.6 184.98L741.6 196.3823zM742.1429 208.3276L742.1429 196.9253L741.6 196.9253L741.6 208.3276zM742.1429 220.2729L742.1429 208.8706L741.6 208.8706L741.6 220.2729zM742.1429 232.2183L742.1429 220.8159L741.6 220.8159L741.6 232.2183zM742.1429 244.1636L742.1429 232.7612L741.6 232.7612L741.6 244.1636zM742.1429 265.8823L742.1429 244.7065L741.6 244.7065L741.6 265.8823zM742.1429 277.8276L742.1429 266.4253L741.6 266.4253L741.6 277.8276zM742.1429 289.7729L742.1429 278.3706L741.6 278.3706L741.6 289.7729zM742.1429 301.7183L742.1429 290.3159L741.6 290.3159L741.6 301.7183zM742.1429 313.6636L742.1429 302.2612L741.6 302.2612L741.6 313.6636zM742.1429 325.6089L742.1429 314.2065L741.6 314.2065L741.6 325.6089zM742.1429 347.3276L742.1429 326.1519L741.6 326.1519L741.6 347.3276zM742.1429 359.2729L742.1429 347.8706L741.6 347.8706L741.6 359.2729zM742.1429 371.2183L742.1429 359.8159L741.6 359.8159L741.6 371.2183zM742.1429 383.1636L742.1429 371.7612L741.6 371.7612L741.6 383.1636zM742.1429 395.1089L742.1429 383.7065L741.6 383.7065L741.6 395.1089zM742.1429 407.0542L742.1429 395.6519L741.6 395.6519L741.6 407.0542zM742.1429 418.9995L742.1429 407.5972L741.6 407.5972L741.6 418.9995zM742.1429 430.9448L742.1429 419.5425L741.6 419.5425L741.6 430.9448zM742.1429 452.6636L742.1429 431.4878L741.6 431.4878L741.6 452.6636zM742.1429 464.6089L742.1429 453.2065L741.6 453.2065L741.6 464.6089zM742.1429 476.5542L742.1429 465.1519L741.6 465.1519L741.6 476.5542zM742.1429 488.4995L742.1429 477.0972L741.6 477.0972L741.6 488.4995zM742.1429 510.2183L742.1429 489.0425L741.6 489.0425L741.6 510.2183zM742.1429 522.1636L742.1429 510.7612L741.6 510.7612L741.6 522.1636zM742.1429 534.1089L742.1429 522.7065L741.6 522.7065L741.6 534.1089zM742.1429 546.0542L742.1429 534.6519L741.6 534.6519L741.6 546.0542zM742.1429 557.9995L742.1429 546.5972L741.6 546.5972L741.6 557.9995zM691.1039 71.49902L691.1039 60.09668L690.5609 60.09668L690.5609 71.49902zM691.1039 83.44434L691.1039 72.04199L690.5609 72.04199L690.5609 83.44434zM691.1039 105.1631L691.1039 83.9873L690.5609 83.9873L690.5609 105.1631zM691.1039 117.1084L691.1039 105.7061L690.5609 105.7061L690.5609 117.1084zM691.1039 129.0537L691.1039 117.6514L690.5609 117.6514L690.5609 129.0537zM691.1039 150.7725L691.1039 129.5967L690.5609 129.5967L690.5609 150.7725zM691.1039 162.7183L691.1039 151.3154L690.5609 151.3154L690.5609 162.7183zM691.1039 184.437L691.1039 163.2612L690.5609 163.2612L690.5609 184.437zM691.1039 196.3823L691.1039 184.98L690.5609 184.98L690.5609 196.3823zM691.1039 208.3276L691.1039 196.9253L690.5609 196.9253L690.5609 208.3276zM691.1039 220.2729L691.1039 208.8706L690.5609 208.8706L690.5609 220.2729zM691.1039 232.2183L691.1039 220.8159L690.5609 220.8159L690.5609 232.2183zM691.1039 244.1636L691.1039 232.7612L690.5609 232.7612L690.5609 244.1636zM691.1039 265.8823L691.1039 244.7065L690.5609 244.7065L690.5609 265.8823zM691.1039 277.8276L691.1039 266.4253L690.5609 266.4253L690.5609 277.8276zM691.1039 289.7729L691.1039 278.3706L690.5609 278.3706L690.5609 289.7729zM691.1039 301.7183L691.1039 290.3159L690.5609 290.3159L690.5609 301.7183zM691.1039 313.6636L691.1039 302.2612L690.5609 302.2612L690.5609 313.6636zM691.1039 325.6089L691.1039 314.2065L690.5609 314.2065L690.5609 325.6089zM691.1039 347.3276L691.1039 326.1519L690.5609 326.1519L690.5609 347.3276zM691.1039 359.2729L691.1039 347.8706L690.5609 347.8706L690.5609 359.2729zM691.1039 371.2183L691.1039 359.8159L690.5609 359.8159L690.5609 371.2183zM691.1039 383.1636L691.1039 371.7612L690.5609 371.7612L690.5609 383.1636zM691.1039 395.1089L691.1039 383.7065L690.5609 383.7065L690.5609 395.1089zM691.1039 407.0542L691.1039 395.6519L690.5609 395.6519L690.5609 407.0542zM691.1039 418.9995L691.1039 407.5972L690.5609 407.5972L690.5609 418.9995zM691.1039 430.9448L691.1039 419.5425L690.5609 419.5425L690.5609 430.9448zM691.1039 452.6636L691.1039 431.4878L690.5609 431.4878L690.5609 452.6636zM691.1039 464.6089L691.1039 453.2065L690.5609 453.2065L690.5609 464.6089zM691.1039 476.5542L691.1039 465.1519L690.5609 465.1519L690.5609 476.5542zM691.1039 488.4995L691.1039 477.0972L690.5609 477.0972L690.5609 488.4995zM691.1039 510.2183L691.1039 489.0425L690.5609 489.0425L690.5609 510.2183zM691.1039 522.1636L691.1039 510.7612L690.5609 510.7612L690.5609 522.1636zM691.1039 534.1089L691.1039 522.7065L690.5609 522.7065L690.5609 534.1089zM691.1039 546.0542L691.1039 534.6519L690.5609 534.6519L690.5609 546.0542zM691.1039 557.9995L691.1039 546.5972L690.5609 546.5972L690.5609 557.9995zM417.9902 71.49902L417.9902 60.09668L417.4473 60.09668L417.4473 71.49902zM417.9902 83.44434L417.9902 72.04199L417.4473 72.04199L417.4473 83.44434zM417.9902 105.1631L417.9902 83.9873L417.4473 83.9873L417.4473 105.1631zM417.9902 117.1084L417.9902 105.7061L417.4473 105.7061L417.4473 117.1084zM417.9902 129.0537L417.9902 117.6514L417.4473 117.6514L417.4473 129.0537zM417.9902 150.7725L417.9902 129.5967L417.4473 129.5967L417.4473 150.7725zM417.9902 162.7183L417.9902 151.3154L417.4473 151.3154L417.4473 162.7183zM417.9902 184.437L417.9902 163.2612L417.4473 163.2612L417.4473 184.437zM417.9902 196.3823L417.9902 184.98L417.4473 184.98L417.4473 196.3823zM417.9902 208.3276L417.9902 196.9253L417.4473 196.9253L417.4473 208.3276zM417.9902 220.2729L417.9902 208.8706L417.4473 208.8706L417.4473 220.2729zM417.9902 232.2183L417.9902 220.8159L417.4473 220.8159L417.4473 232.2183zM417.9902 244.1636L417.9902 232.7612L417.4473 232.7612L417.4473 244.1636zM417.9902 265.8823L417.9902 244.7065L417.4473 244.7065L417.4473 265.8823zM417.9902 277.8276L417.9902 266.4253L417.4473 266.4253L417.4473 277.8276zM417.9902 289.7729L417.9902 278.3706L417.4473 278.3706L417.4473 289.7729zM417.9902 301.7183L417.9902 290.3159L417.4473 290.3159L417.4473 301.7183zM417.9902 313.6636L417.9902 302.2612L417.4473 302.2612L417.4473 313.6636zM417.9902 325.6089L417.9902 314.2065L417.4473 314.2065L417.4473 325.6089zM417.9902 347.3276L417.9902 326.1519L417.4473 326.1519L417.4473 347.3276zM417.9902 359.2729L417.9902 347.8706L417.4473 347.8706L417.4473 359.2729zM417.9902 371.2183L417.9902 359.8159L417.4473 359.8159L417.4473 371.2183zM417.9902 383.1636L417.9902 371.7612L417.4473 371.7612L417.4473 383.1636zM417.9902 395.1089L417.9902 383.7065L417.4473 383.7065L417.4473 395.1089zM417.9902 407.0542L417.9902 395.6519L417.4473 395.6519L417.4473 407.0542zM417.9902 418.9995L417.9902 407.5972L417.4473 407.5972L417.4473 418.9995zM417.9902 430.9448L417.9902 419.5425L417.4473 419.5425L417.4473 430.9448zM417.9902 452.6636L417.9902 431.4878L417.4473 431.4878L417.4473 452.6636zM417.9902 464.6089L417.9902 453.2065L417.4473 453.2065L417.4473 464.6089zM417.9902 476.5542L417.9902 465.1519L417.4473 465.1519L417.4473 476.5542zM417.9902 488.4995L417.9902 477.0972L417.4473 477.0972L417.4473 488.4995zM417.9902 510.2183L417.9902 489.0425L417.4473 489.0425L417.4473 510.2183zM417.9902 522.1636L417.9902 510.7612L417.4473 510.7612L417.4473 522.1636zM417.9902 534.1089L417.9902 522.7065L417.4473 522.7065L417.4473 534.1089zM417.9902 546.0542L417.9902 534.6519L417.4473 534.6519L417.4473 546.0542zM417.9902 557.9995L417.9902 546.5972L417.4473 546.5972L417.4473 557.9995zM144.8767 71.49902L144.8767 60.09668L144.3337 60.09668L144.3337 71.49902zM144.8767 83.44434L144.8767 72.04199L144.3337 72.04199L144.3337 83.44434zM144.8767 105.1631L144.8767 83.9873L144.3337 83.9873L144.3337 105.1631zM144.8767 117.1084L144.8767 105.7061L144.3337 105.7061L144.3337 117.1084zM144.8767 129.0537L144.8767 117.6514L144.3337 117.6514L144.3337 129.0537zM144.8767 150.7725L144.8767 129.5967L144.3337 129.5967L144.3337 150.7725zM144.8767 162.7183L144.8767 151.3154L144.3337 151.3154L144.3337 162.7183zM144.8767 184.437L144.8767 163.2612L144.3337 163.2612L144.3337 184.437zM144.8767 196.3823L144.8767 184.98L144.3337 184.98L144.3337 196.3823zM144.8767 208.3276L144.8767 196.9253L144.3337 196.9253L144.3337 208.3276zM144.8767 220.2729L144.8767 208.8706L144.3337 208.8706L144.3337 220.2729zM144.8767 232.2183L144.8767 220.8159L144.3337 220.8159L144.3337 232.2183zM144.8767 244.1636L144.8767 232.7612L144.3337 232.7612L144.3337 244.1636zM144.8767 265.8823L144.8767 244.7065L144.3337 244.7065L144.3337 265.8823zM144.8767 277.8276L144.8767 266.4253L144.3337 266.4253L144.3337 277.8276zM144.8767 289.7729L144.8767 278.3706L144.3337 278.3706L144.3337 289.7729zM144.8767 301.7183L144.8767 290.3159L144.3337 290.3159L144.3337 301.7183zM144.8767 313.6636L144.8767 302.2612L144.3337 302.2612L144.3337 313.6636zM144.8767 325.6089L144.8767 314.2065L144.3337 314.2065L144.3337 325.6089zM144.8767 347.3276L144.8767 326.1519L144.3337 326.1519L144.3337 347.3276zM144.8767 359.2729L144.8767 347.8706L144.3337 347.8706L144.3337 359.2729zM144.8767 371.2183L144.8767 359.8159L144.3337 359.8159L144.3337 371.2183zM144.8767 383.1636L144.8767 371.7612L144.3337 371.7612L144.3337 383.1636zM144.8767 395.1089L144.8767 383.7065L144.3337 383.7065L144.3337 395.1089zM144.8767 407.0542L144.8767 395.6519L144.3337 395.6519L144.3337 407.0542zM144.8767 418.9995L144.8767 407.5972L144.3337 407.5972L144.3337 418.9995zM144.8767 430.9448L144.8767 419.5425L144.3337 419.5425L144.3337 430.9448zM144.8767 452.6636L144.8767 431.4878L144.3337 431.4878L144.3337 452.6636zM144.8767 464.6089L144.8767 453.2065L144.3337 453.2065L144.3337 464.6089zM144.8767 476.5542L144.8767 465.1519L144.3337 465.1519L144.3337 476.5542zM144.8767 488.4995L144.8767 477.0972L144.3337 477.0972L144.3337 488.4995zM144.8767 510.2183L144.8767 489.0425L144.3337 489.0425L144.3337 510.2183zM144.8767 522.1636L144.8767 510.7612L144.3337 510.7612L144.3337 522.1636zM144.8767 534.1089L144.8767 522.7065L144.3337 522.7065L144.3337 534.1089zM144.8767 546.0542L144.8767 534.6519L144.3337 534.6519L144.3337 546.0542zM144.8767 557.9995L144.8767 546.5972L144.3337 546.5972L144.3337 557.9995zM74.83362 71.49902L74.83362 60.09668L74.29065 60.09668L74.29065 71.49902zM74.83362 83.44434L74.83362 72.04199L74.29065 72.04199L74.29065 83.44434zM74.83362 105.1631L74.83362 83.9873L74.29065 83.9873L74.29065 105.1631zM74.83362 117.1084L74.83362 105.7061L74.29065 105.7061L74.29065 117.1084zM74.83362 129.0537L74.83362 117.6514L74.29065 117.6514L74.29065 129.0537zM74.83362 150.7725L74.83362 129.5967L74.29065 129.5967L74.29065 150.7725zM74.83362 162.7183L74.83362 151.3154L74.29065 151.3154L74.29065 162.7183zM74.83362 184.437L74.83362 163.2612L74.29065 163.2612L74.29065 184.437zM74.83362 196.3823L74.83362 184.98L74.29065 184.98L74.29065 196.3823zM74.83362 208.3276L74.83362 196.9253L74.29065 196.9253L74.29065 208.3276zM74.83362 220.2729L74.83362 208.8706L74.29065 208.8706L74.29065 220.2729zM74.83362 232.2183L74.83362 220.8159L74.29065 220.8159L74.29065 232.2183zM74.83362 244.1636L74.83362 232.7612L74.29065 232.7612L74.29065 244.1636zM74.83362 265.8823L74.83362 244.7065L74.29065 244.7065L74.29065 265.8823zM74.83362 277.8276L74.83362 266.4253L74.29065 266.4253L74.29065 277.8276zM74.83362 289.7729L74.83362 278.3706L74.29065 278.3706L74.29065 289.7729zM74.83362 301.7183L74.83362 290.3159L74.29065 290.3159L74.29065 301.7183zM74.83362 313.6636L74.83362 302.2612L74.29065 302.2612L74.29065 313.6636zM74.83362 325.6089L74.83362 314.2065L74.29065 314.2065L74.29065 325.6089zM74.83362 347.3276L74.83362 326.1519L74.29065 326.1519L74.29065 347.3276zM74.83362 359.2729L74.83362 347.8706L74.29065 347.8706L74.29065 359.2729zM74.83362 371.2183L74.83362 359.8159L74.29065 359.8159L74.29065 371.2183zM74.83362 383.1636L74.83362 371.7612L74.29065 371.7612L74.29065 383.1636zM74.83362 395.1089L74.83362 383.7065L74.29065 383.7065L74.29065 395.1089zM74.83362 407.0542L74.83362 395.6519L74.29065 395.6519L74.29065 407.0542zM74.83362 418.9995L74.83362 407.5972L74.29065 407.5972L74.29065 418.9995zM74.83362 430.9448L74.83362 419.5425L74.29065 419.5425L74.29065 430.9448zM74.83362 452.6636L74.83362 431.4878L74.29065 431.4878L74.29065 452.6636zM74.83362 464.6089L74.83362 453.2065L74.29065 453.2065L74.29065 464.6089zM74.83362 476.5542L74.83362 465.1519L74.29065 465.1519L74.29065 476.5542zM74.83362 488.4995L74.83362 477.0972L74.29065 477.0972L74.29065 488.4995zM74.83362 510.2183L74.83362 489.0425L74.29065 489.0425L74.29065 510.2183zM74.83362 522.1636L74.83362 510.7612L74.29065 510.7612L74.29065 522.1636zM74.83362 534.1089L74.83362 522.7065L74.29065 522.7065L74.29065 534.1089zM74.83362 546.0542L74.83362 534.6519L74.29065 534.6519L74.29065 546.0542zM74.83362 557.9995L74.83362 546.5972L74.29065 546.5972L74.29065 557.9995zM50.39999 71.49902L50.39999 60.09668L49.85703 60.09668L49.85703 71.49902zM50.39999 83.44434L50.39999 72.04199L49.85703 72.04199L49.85703 83.44434zM50.39999 105.1631L50.39999 83.9873L49.85703 83.9873L49.85703 105.1631zM50.39999 117.1084L50.39999 105.7061L49.85703 105.7061L49.85703 117.1084zM50.39999 129.0537L50.39999 117.6514L49.85703 117.6514L49.85703 129.0537zM50.39999 150.7725L50.39999 129.5967L49.85703 129.5967L49.85703 150.7725zM50.39999 162.7183L50.39999 151.3154L49.85703 151.3154L49.85703 162.7183zM50.39999 184.437L50.39999 163.2612L49.85703 163.2612L49.85703 184.437zM50.39999 196.3823L50.39999 184.98L49.85703 184.98L49.85703 196.3823zM50.39999 208.3276L50.39999 196.9253L49.85703 196.9253L49.85703 208.3276zM50.39999 220.2729L50.39999 208.8706L49.85703 208.8706L49.85703 220.2729zM50.39999 232.2183L50.39999 220.8159L49.85703 220.8159L49.85703 232.2183zM50.39999 244.1636L50.39999 232.7612L49.85703 232.7612L49.85703 244.1636zM50.39999 265.8823L50.39999 244.7065L49.85703 244.7065L49.85703 265.8823zM50.39999 277.8276L50.39999 266.4253L49.85703 266.4253L49.85703 277.8276zM50.39999 289.7729L50.39999 278.3706L49.85703 278.3706L49.85703 289.7729zM50.39999 301.7183L50.39999 290.3159L49.85703 290.3159L49.85703 301.7183zM50.39999 313.6636L50.39999 302.2612L49.85703 302.2612L49.85703 313.6636zM50.39999 325.6089L50.39999 314.2065L49.85703 314.2065L49.85703 325.6089zM50.39999 347.3276L50.39999 326.1519L49.85703 326.1519L49.85703 347.3276zM50.39999 359.2729L50.39999 347.8706L49.85703 347.8706L49.85703 359.2729zM50.39999 371.2183L50.39999 359.8159L49.85703 359.8159L49.85703 371.2183zM50.39999 383.1636L50.39999 371.7612L49.85703 371.7612L49.85703 383.1636zM50.39999 395.1089L50.39999 383.7065L49.85703 383.7065L49.85703 395.1089zM50.39999 407.0542L50.39999 395.6519L49.85703 395.6519L49.85703 407.0542zM50.39999 418.9995L50.39999 407.5972L49.85703 407.5972L49.85703 418.9995zM50.39999 430.9448L50.39999 419.5425L49.85703 419.5425L49.85703 430.9448zM50.39999 452.6636L50.39999 431.4878L49.85703 431.4878L49.85703 452.6636zM50.39999 464.6089L50.39999 453.2065L49.85703 453.2065L49.85703 464.6089zM50.39999 476.5542L50.39999 465.1519L49.85703 465.1519L49.85703 476.5542zM50.39999 488.4995L50.39999 477.0972L49.85703 477.0972L49.85703 488.4995zM50.39999 510.2183L50.39999 489.0425L49.85703 489.0425L49.85703 510.2183zM50.39999 522.1636L50.39999 510.7612L49.85703 510.7612L49.85703 522.1636zM50.39999 534.1089L50.39999 522.7065L49.85703 522.7065L49.85703 534.1089zM50.39999 546.0542L50.39999 534.6519L49.85703 534.6519L49.85703 546.0542zM50.39999 557.9995L50.39999 546.5972L49.85703 546.5972L49.85703 557.9995z" stroke="none" fill="#000000" fill-rule="nonzero" fill-opacity="0.1490196" /><path id="205" transform="matrix(1 0 0 -1 0 612)" d="M419.6191 548.7441L495.8898 548.7441" stroke="#000000" stroke-width="0.5080263" fill="none" /><path id="347" transform="matrix(1 0 0 -1 0 612)" d="M419.6191 536.7988L621.7959 536.7988" stroke="#000000" stroke-width="0.5080263" fill="none" /><path id="420" transform="matrix(1 0 0 -1 0 612)" d="M419.6191 524.8535L527.7557 524.8535" stroke="#000000" stroke-width="0.5080263" fill="none" /><path id="521" transform="matrix(1 0 0 -1 0 612)" d="M419.6191 512.9082L553.2311 512.9082" stroke="#000000" stroke-width="0.5080263" fill="none" /><path id="732" transform="matrix(1 0 0 -1 0 612)" d="M419.6191 500.6655L669.3048 500.6655" stroke="#000000" stroke-width="0.5080263" fill="none" /><path id="743" transform="matrix(1 0 0 -1 0 612)" d="M419.6191 491.1895L458.0274 491.1895" stroke="#000000" stroke-width="0.5080263" fill="none" /><path id="821" transform="matrix(1 0 0 -1 0 612)" d="M419.6191 479.2441L508.997 479.2441" stroke="#000000" stroke-width="0.5080263" fill="none" /><path id="972" transform="matrix(1 0 0 -1 0 612)" d="M419.6191 467.2988L632.7728 467.2988" stroke="#000000" stroke-width="0.5080263" fill="none" /><path id="1061" transform="matrix(1 0 0 -1 0 612)" d="M419.6191 455.3535L536.394 455.3535" stroke="#000000" stroke-width="0.5080263" fill="none" /><path id="1244" transform="matrix(1 0 0 -1 0 612)" d="M419.6191 443.1108L668.7365 443.1108" stroke="#000000" stroke-width="0.5080263" fill="none" /><path id="1252" transform="matrix(1 0 0 -1 0 612)" d="M419.6191 433.6348L441.9067 433.6348" stroke="#000000" stroke-width="0.5080263" fill="none" /><path id="1398" transform="matrix(1 0 0 -1 0 612)" d="M419.6191 421.6895L620.0107 421.6895" stroke="#000000" stroke-width="0.5080263" fill="none" /><path id="1529" transform="matrix(1 0 0 -1 0 612)" d="M419.6191 409.7441L593.0419 409.7441" stroke="#000000" stroke-width="0.5080263" fill="none" /><path id="1674" transform="matrix(1 0 0 -1 0 612)" d="M419.6191 397.7988L619.1615 397.7988" stroke="#000000" stroke-width="0.5080263" fill="none" /><path id="1793" transform="matrix(1 0 0 -1 0 612)" d="M419.6191 385.8535L576.0685 385.8535" stroke="#000000" stroke-width="0.5080263" fill="none" /><path id="1879" transform="matrix(1 0 0 -1 0 612)" d="M419.6191 373.9082L518.746 373.9082" stroke="#000000" stroke-width="0.5080263" fill="none" /><path id="2017" transform="matrix(1 0 0 -1 0 612)" d="M419.6191 361.9629L617.0654 361.9629" stroke="#000000" stroke-width="0.5080263" fill="none" /><path id="2149" transform="matrix(1 0 0 -1 0 612)" d="M419.6191 350.0176L597.3553 350.0176" stroke="#000000" stroke-width="0.5080263" fill="none" /><path id="2331" transform="matrix(1 0 0 -1 0 612)" d="M419.6191 337.7749L668.1072 337.7749" stroke="#000000" stroke-width="0.5080263" fill="none" /><path id="2340" transform="matrix(1 0 0 -1 0 612)" d="M419.6191 328.2988L444.2113 328.2988" stroke="#000000" stroke-width="0.5080263" fill="none" /><path id="2449" transform="matrix(1 0 0 -1 0 612)" d="M419.6191 316.3535L563.397 316.3535" stroke="#000000" stroke-width="0.5080263" fill="none" /><path id="2488" transform="matrix(1 0 0 -1 0 612)" d="M419.6191 304.4082L456.841 304.4082" stroke="#000000" stroke-width="0.5080263" fill="none" /><path id="2615" transform="matrix(1 0 0 -1 0 612)" d="M419.6191 292.4629L584.7977 292.4629" stroke="#000000" stroke-width="0.5080263" fill="none" /><path id="2742" transform="matrix(1 0 0 -1 0 612)" d="M419.6191 280.5176L589.3083 280.5176" stroke="#000000" stroke-width="0.5080263" fill="none" /><path id="2873" transform="matrix(1 0 0 -1 0 612)" d="M419.6191 268.5723L592.7689 268.5723" stroke="#000000" stroke-width="0.5080263" fill="none" /><path id="3081" transform="matrix(1 0 0 -1 0 612)" d="M419.6191 256.3291L673.6526 256.3291" stroke="#000000" stroke-width="0.5080263" fill="none" /><path id="3097" transform="matrix(1 0 0 -1 0 612)" d="M419.6191 246.8535L474.2958 246.8535" stroke="#000000" stroke-width="0.5080263" fill="none" /><path id="3174" transform="matrix(1 0 0 -1 0 612)" d="M419.6191 234.9082L518.8444 234.9082" stroke="#000000" stroke-width="0.5080263" fill="none" /><path id="3311" transform="matrix(1 0 0 -1 0 612)" d="M419.6191 222.9629L597.9921 222.9629" stroke="#000000" stroke-width="0.5080263" fill="none" /><path id="3493" transform="matrix(1 0 0 -1 0 612)" d="M419.6191 211.0176L679.1563 211.0176" stroke="#000000" stroke-width="0.5080263" fill="none" /><path id="3626" transform="matrix(1 0 0 -1 0 612)" d="M419.6191 199.0723L610.5536 199.0723" stroke="#000000" stroke-width="0.5080263" fill="none" /><path id="3748" transform="matrix(1 0 0 -1 0 612)" d="M419.6191 187.127L577.6906 187.127" stroke="#000000" stroke-width="0.5080263" fill="none" /><path id="3939" transform="matrix(1 0 0 -1 0 612)" d="M419.6191 174.8838L654.4845 174.8838" stroke="#000000" stroke-width="0.5080263" fill="none" /><path id="3950" transform="matrix(1 0 0 -1 0 612)" d="M419.6191 165.4077L454.4681 165.4077" stroke="#000000" stroke-width="0.5080263" fill="none" /><path id="4137" transform="matrix(1 0 0 -1 0 612)" d="M419.6191 153.4624L684.5764 153.4624" stroke="#000000" stroke-width="0.5080263" fill="none" /><path id="4371" transform="matrix(1 0 0 -1 0 612)" d="M419.6191 141.2197L671.8293 141.2197" stroke="#000000" stroke-width="0.5080263" fill="none" /><path id="4423" transform="matrix(1 0 0 -1 0 612)" d="M419.6191 131.7437L571.7207 131.7437" stroke="#000000" stroke-width="0.5080263" fill="none" /><path id="4570" transform="matrix(1 0 0 -1 0 612)" d="M419.6191 119.7983L601.6802 119.7983" stroke="#000000" stroke-width="0.5080263" fill="none" /><path id="4682" transform="matrix(1 0 0 -1 0 612)" d="M419.6191 107.853L552.7762 107.853" stroke="#000000" stroke-width="0.5080263" fill="none" /><path id="4815" transform="matrix(1 0 0 -1 0 612)" d="M419.6191 86.13428L595.6307 86.13428" stroke="#000000" stroke-width="0.5080263" fill="none" /><path id="4886" transform="matrix(1 0 0 -1 0 612)" d="M419.6191 74.18896L503.8193 74.18896" stroke="#000000" stroke-width="0.5080263" fill="none" /><path id="4943" transform="matrix(1 0 0 -1 0 612)" d="M419.6191 62.24365L491.5573 62.24365" stroke="#000000" stroke-width="0.5080263" fill="none" /></g></g></g></svg>