<svg xmlns="http://www.w3.org/2000/svg" xmlns:xlink="http://www.w3.org/1999/xlink" id="body_13" preserveAspectRatio="xMinYMin meet" viewBox="0 0 1056 816"><defs><clipPath id="1"><path id="" clip-rule="evenodd" transform="matrix(1 0 0 1 0 0)" d="M0 612L0 0L0 0L792 0L792 0L792 612L792 612L0 612z" /></clipPath><clipPath id="2"><path id="" clip-rule="evenodd" transform="matrix(1 0 0 1 0 0)" d="M49.31406 52.91455L742.6859 52.91455L742.6859 52.91455L742.6859 552.9893L742.6859 552.9893L49.31406 552.9893L49.31406 552.9893L49.31406 52.91455z" /></clipPath></defs><g transform="matrix(1.333333 0 0 1.333333 0 0)"><g clip-path="url(#1)"><g clip-path="url(#2)"><path id="102" transform="matrix(1 0 0 -1 0 612)" d="M49.85703 558.5425L742.1429 558.5425L742.1429 546.0542L49.85703 546.0542L49.85703 558.5425z" stroke="none" fill="#FFFFFF" fill-rule="nonzero" /><path id="103" transform="matrix(1 0 0 -1 0 612)" d="M49.85703 546.5972L742.1429 546.5972L742.1429 524.3354L49.85703 524.3354L49.85703 546.5972z" stroke="none" fill="#E0F7FA" fill-rule="nonzero" /><path id="104" transform="matrix(1 0 0 -1 0 612)" d="M49.85703 524.8784L742.1429 524.8784L742.1429 512.3901L49.85703 512.3901L49.85703 524.8784z" stroke="none" fill="#FFFFFF" fill-rule="nonzero" /><path id="105" transform="matrix(1 0 0 -1 0 612)" d="M49.85703 512.9331L742.1429 512.9331L742.1429 500.4448L49.85703 500.4448L49.85703 512.9331z" stroke="none" fill="#E0F7FA" fill-rule="nonzero" /><path id="106" transform="matrix(1 0 0 -1 0 612)" d="M49.85703 500.9878L742.1429 500.9878L742.1429 488.4995L49.85703 488.4995L49.85703 500.9878z" stroke="none" fill="#FFFFFF" fill-rule="nonzero" /><path id="107" transform="matrix(1 0 0 -1 0 612)" d="M49.85703 489.0425L742.1429 489.0425L742.1429 476.5542L49.85703 476.5542L49.85703 489.0425z" stroke="none" fill="#E0F7FA" fill-rule="nonzero" /><path id="108" transform="matrix(1 0 0 -1 0 612)" d="M49.85703 477.0972L742.1429 477.0972L742.1429 454.8354L49.85703 454.8354L49.85703 477.0972z" stroke="none" fill="#FFFFFF" fill-rule="nonzero" /><path id="109" transform="matrix(1 0 0 -1 0 612)" d="M49.85703 455.3784L742.1429 455.3784L742.1429 442.8901L49.85703 442.8901L49.85703 455.3784z" stroke="none" fill="#E0F7FA" fill-rule="nonzero" /><path id="110" transform="matrix(1 0 0 -1 0 612)" d="M49.85703 443.4331L742.1429 443.4331L742.1429 421.1714L49.85703 421.1714L49.85703 443.4331z" stroke="none" fill="#FFFFFF" fill-rule="nonzero" /><path id="111" transform="matrix(1 0 0 -1 0 612)" d="M49.85703 421.7144L742.1429 421.7144L742.1429 409.2261L49.85703 409.2261L49.85703 421.7144z" stroke="none" fill="#E0F7FA" fill-rule="nonzero" /><path id="112" transform="matrix(1 0 0 -1 0 612)" d="M49.85703 409.769L742.1429 409.769L742.1429 397.2808L49.85703 397.2808L49.85703 409.769z" stroke="none" fill="#FFFFFF" fill-rule="nonzero" /><path id="113" transform="matrix(1 0 0 -1 0 612)" d="M49.85703 397.8237L742.1429 397.8237L742.1429 385.3354L49.85703 385.3354L49.85703 397.8237z" stroke="none" fill="#E0F7FA" fill-rule="nonzero" /><path id="114" transform="matrix(1 0 0 -1 0 612)" d="M49.85703 385.8784L742.1429 385.8784L742.1429 373.3901L49.85703 373.3901L49.85703 385.8784z" stroke="none" fill="#FFFFFF" fill-rule="nonzero" /><path id="115" transform="matrix(1 0 0 -1 0 612)" d="M49.85703 373.9331L742.1429 373.9331L742.1429 361.4448L49.85703 361.4448L49.85703 373.9331z" stroke="none" fill="#E0F7FA" fill-rule="nonzero" /><path id="116" transform="matrix(1 0 0 -1 0 612)" d="M49.85703 361.9878L742.1429 361.9878L742.1429 349.4995L49.85703 349.4995L49.85703 361.9878z" stroke="none" fill="#FFFFFF" fill-rule="nonzero" /><path id="117" transform="matrix(1 0 0 -1 0 612)" d="M49.85703 350.0425L742.1429 350.0425L742.1429 337.5542L49.85703 337.5542L49.85703 350.0425z" stroke="none" fill="#E0F7FA" fill-rule="nonzero" /><path id="118" transform="matrix(1 0 0 -1 0 612)" d="M49.85703 338.0972L742.1429 338.0972L742.1429 325.6089L49.85703 325.6089L49.85703 338.0972z" stroke="none" fill="#FFFFFF" fill-rule="nonzero" /><path id="119" transform="matrix(1 0 0 -1 0 612)" d="M49.85703 326.1519L742.1429 326.1519L742.1429 313.6636L49.85703 313.6636L49.85703 326.1519z" stroke="none" fill="#E0F7FA" fill-rule="nonzero" /><path id="120" transform="matrix(1 0 0 -1 0 612)" d="M49.85703 314.2065L742.1429 314.2065L742.1429 301.7183L49.85703 301.7183L49.85703 314.2065z" stroke="none" fill="#FFFFFF" fill-rule="nonzero" /><path id="121" transform="matrix(1 0 0 -1 0 612)" d="M49.85703 302.2612L742.1429 302.2612L742.1429 289.7729L49.85703 289.7729L49.85703 302.2612z" stroke="none" fill="#E0F7FA" fill-rule="nonzero" /><path id="122" transform="matrix(1 0 0 -1 0 612)" d="M49.85703 290.3159L742.1429 290.3159L742.1429 268.0542L49.85703 268.0542L49.85703 290.3159z" stroke="none" fill="#FFFFFF" fill-rule="nonzero" /><path id="123" transform="matrix(1 0 0 -1 0 612)" d="M49.85703 268.5972L742.1429 268.5972L742.1429 246.335L49.85703 246.335L49.85703 268.5972z" stroke="none" fill="#E0F7FA" fill-rule="nonzero" /><path id="124" transform="matrix(1 0 0 -1 0 612)" d="M49.85703 246.8779L742.1429 246.8779L742.1429 234.3896L49.85703 234.3896L49.85703 246.8779z" stroke="none" fill="#FFFFFF" fill-rule="nonzero" /><path id="125" transform="matrix(1 0 0 -1 0 612)" d="M49.85703 234.9326L742.1429 234.9326L742.1429 222.4443L49.85703 222.4443L49.85703 234.9326z" stroke="none" fill="#E0F7FA" fill-rule="nonzero" /><path id="126" transform="matrix(1 0 0 -1 0 612)" d="M49.85703 222.9873L742.1429 222.9873L742.1429 200.7256L49.85703 200.7256L49.85703 222.9873z" stroke="none" fill="#FFFFFF" fill-rule="nonzero" /><path id="127" transform="matrix(1 0 0 -1 0 612)" d="M49.85703 201.2686L742.1429 201.2686L742.1429 188.7803L49.85703 188.7803L49.85703 201.2686z" stroke="none" fill="#E0F7FA" fill-rule="nonzero" /><path id="128" transform="matrix(1 0 0 -1 0 612)" d="M49.85703 189.3232L742.1429 189.3232L742.1429 167.0615L49.85703 167.0615L49.85703 189.3232z" stroke="none" fill="#FFFFFF" fill-rule="nonzero" /><path id="129" transform="matrix(1 0 0 -1 0 612)" d="M49.85703 167.6045L742.1429 167.6045L742.1429 155.1162L49.85703 155.1162L49.85703 167.6045z" stroke="none" fill="#E0F7FA" fill-rule="nonzero" /><path id="130" transform="matrix(1 0 0 -1 0 612)" d="M49.85703 155.6592L742.1429 155.6592L742.1429 143.1709L49.85703 143.1709L49.85703 155.6592z" stroke="none" fill="#FFFFFF" fill-rule="nonzero" /><path id="131" transform="matrix(1 0 0 -1 0 612)" d="M49.85703 143.7139L742.1429 143.7139L742.1429 131.2256L49.85703 131.2256L49.85703 143.7139z" stroke="none" fill="#E0F7FA" fill-rule="nonzero" /><path id="132" transform="matrix(1 0 0 -1 0 612)" d="M49.85703 131.7686L742.1429 131.7686L742.1429 119.2803L49.85703 119.2803L49.85703 131.7686z" stroke="none" fill="#FFFFFF" fill-rule="nonzero" /><path id="133" transform="matrix(1 0 0 -1 0 612)" d="M49.85703 119.8232L742.1429 119.8232L742.1429 107.335L49.85703 107.335L49.85703 119.8232z" stroke="none" fill="#E0F7FA" fill-rule="nonzero" /><path id="134" transform="matrix(1 0 0 -1 0 612)" d="M49.85703 107.8779L742.1429 107.8779L742.1429 95.38965L49.85703 95.38965L49.85703 107.8779z" stroke="none" fill="#FFFFFF" fill-rule="nonzero" /><path id="135" transform="matrix(1 0 0 -1 0 612)" d="M49.85703 95.93262L742.1429 95.93262L742.1429 83.44434L49.85703 83.44434L49.85703 95.93262z" stroke="none" fill="#E0F7FA" fill-rule="nonzero" /><path id="136" transform="matrix(1 0 0 -1 0 612)" d="M49.85703 83.9873L742.1429 83.9873L742.1429 71.49902L49.85703 71.49902L49.85703 83.9873z" stroke="none" fill="#FFFFFF" fill-rule="nonzero" /><path id="137" transform="matrix(1 0 0 -1 0 612)" d="M49.85703 72.04199L742.1429 72.04199L742.1429 59.55371L49.85703 59.55371L49.85703 72.04199z" stroke="none" fill="#E0F7FA" fill-rule="nonzero" /><path id="138" transform="matrix(1 0 0 -1 0 612)" d="M49.85703 60.09668L742.1429 60.09668L742.1429 59.55371L49.85703 59.55371zM49.85703 72.04199L742.1429 72.04199L742.1429 71.49902L49.85703 71.49902zM49.85703 83.9873L742.1429 83.9873L742.1429 83.44434L49.85703 83.44434zM49.85703 95.93262L742.1429 95.93262L742.1429 95.38965L49.85703 95.38965zM49.85703 107.8779L742.1429 107.8779L742.1429 107.335L49.85703 107.335zM49.85703 119.8232L742.1429 119.8232L742.1429 119.2803L49.85703 119.2803zM49.85703 131.7686L742.1429 131.7686L742.1429 131.2256L49.85703 131.2256zM49.85703 143.7139L742.1429 143.7139L742.1429 143.1709L49.85703 143.1709zM49.85703 155.6592L742.1429 155.6592L742.1429 155.1162L49.85703 155.1162zM49.85703 167.6045L742.1429 167.6045L742.1429 167.0615L49.85703 167.0615zM49.85703 189.3232L742.1429 189.3232L742.1429 188.7803L49.85703 188.7803zM49.85703 201.2686L742.1429 201.2686L742.1429 200.7256L49.85703 200.7256zM49.85703 222.9873L742.1429 222.9873L742.1429 222.4443L49.85703 222.4443zM49.85703 234.9326L742.1429 234.9326L742.1429 234.3896L49.85703 234.3896zM49.85703 246.8779L742.1429 246.8779L742.1429 246.335L49.85703 246.335zM49.85703 268.5972L742.1429 268.5972L742.1429 268.0542L49.85703 268.0542zM49.85703 290.3159L742.1429 290.3159L742.1429 289.7729L49.85703 289.7729zM49.85703 302.2612L742.1429 302.2612L742.1429 301.7183L49.85703 301.7183zM49.85703 314.2065L742.1429 314.2065L742.1429 313.6636L49.85703 313.6636zM49.85703 326.1519L742.1429 326.1519L742.1429 325.6089L49.85703 325.6089zM49.85703 338.0972L742.1429 338.0972L742.1429 337.5542L49.85703 337.5542zM49.85703 350.0425L742.1429 350.0425L742.1429 349.4995L49.85703 349.4995zM49.85703 361.9878L742.1429 361.9878L742.1429 361.4448L49.85703 361.4448zM49.85703 373.9331L742.1429 373.9331L742.1429 373.3901L49.85703 373.3901zM49.85703 385.8784L742.1429 385.8784L742.1429 385.3354L49.85703 385.3354zM49.85703 397.8237L742.1429 397.8237L742.1429 397.2808L49.85703 397.2808zM49.85703 409.769L742.1429 409.769L742.1429 409.2261L49.85703 409.2261zM49.85703 421.7144L742.1429 421.7144L742.1429 421.1714L49.85703 421.1714zM49.85703 443.4331L742.1429 443.4331L742.1429 442.8901L49.85703 442.8901zM49.85703 455.3784L742.1429 455.3784L742.1429 454.8354L49.85703 454.8354zM49.85703 477.0972L742.1429 477.0972L742.1429 476.5542L49.85703 476.5542zM49.85703 489.0425L742.1429 489.0425L742.1429 488.4995L49.85703 488.4995zM49.85703 500.9878L742.1429 500.9878L742.1429 500.4448L49.85703 500.4448zM49.85703 512.9331L742.1429 512.9331L742.1429 512.3901L49.85703 512.3901zM49.85703 524.8784L742.1429 524.8784L742.1429 524.3354L49.85703 524.3354zM49.85703 546.5972L742.1429 546.5972L742.1429 546.0542L49.85703 546.0542zM49.85703 558.5425L742.1429 558.5425L742.1429 557.9995L49.85703 557.9995zM742.1429 71.49902L742.1429 60.09668L741.6 60.09668L741.6 71.49902zM742.1429 83.44434L742.1429 72.04199L741.6 72.04199L741.6 83.44434zM742.1429 95.38965L742.1429 83.9873L741.6 83.9873L741.6 95.38965zM742.1429 107.335L742.1429 95.93262L741.6 95.93262L741.6 107.335zM742.1429 119.2803L742.1429 107.8779L741.6 107.8779L741.6 119.2803zM742.1429 131.2256L742.1429 119.8232L741.6 119.8232L741.6 131.2256zM742.1429 143.1709L742.1429 131.7686L741.6 131.7686L741.6 143.1709zM742.1429 155.1162L742.1429 143.7139L741.6 143.7139L741.6 155.1162zM742.1429 167.0615L742.1429 155.6592L741.6 155.6592L741.6 167.0615zM742.1429 188.7803L742.1429 167.6045L741.6 167.6045L741.6 188.7803zM742.1429 200.7256L742.1429 189.3232L741.6 189.3232L741.6 200.7256zM742.1429 222.4443L742.1429 201.2686L741.6 201.2686L741.6 222.4443zM742.1429 234.3896L742.1429 222.9873L741.6 222.9873L741.6 234.3896zM742.1429 246.335L742.1429 234.9326L741.6 234.9326L741.6 246.335zM742.1429 268.0542L742.1429 246.8779L741.6 246.8779L741.6 268.0542zM742.1429 289.7729L742.1429 268.5972L741.6 268.5972L741.6 289.7729zM742.1429 301.7183L742.1429 290.3159L741.6 290.3159L741.6 301.7183zM742.1429 313.6636L742.1429 302.2612L741.6 302.2612L741.6 313.6636zM742.1429 325.6089L742.1429 314.2065L741.6 314.2065L741.6 325.6089zM742.1429 337.5542L742.1429 326.1519L741.6 326.1519L741.6 337.5542zM742.1429 349.4995L742.1429 338.0972L741.6 338.0972L741.6 349.4995zM742.1429 361.4448L742.1429 350.0425L741.6 350.0425L741.6 361.4448zM742.1429 373.3901L742.1429 361.9878L741.6 361.9878L741.6 373.3901zM742.1429 385.3354L742.1429 373.9331L741.6 373.9331L741.6 385.3354zM742.1429 397.2808L742.1429 385.8784L741.6 385.8784L741.6 397.2808zM742.1429 409.2261L742.1429 397.8237L741.6 397.8237L741.6 409.2261zM742.1429 421.1714L742.1429 409.769L741.6 409.769L741.6 421.1714zM742.1429 442.8901L742.1429 421.7144L741.6 421.7144L741.6 442.8901zM742.1429 454.8354L742.1429 443.4331L741.6 443.4331L741.6 454.8354zM742.1429 476.5542L742.1429 455.3784L741.6 455.3784L741.6 476.5542zM742.1429 488.4995L742.1429 477.0972L741.6 477.0972L741.6 488.4995zM742.1429 500.4448L742.1429 489.0425L741.6 489.0425L741.6 500.4448zM742.1429 512.3901L742.1429 500.9878L741.6 500.9878L741.6 512.3901zM742.1429 524.3354L742.1429 512.9331L741.6 512.9331L741.6 524.3354zM742.1429 546.0542L742.1429 524.8784L741.6 524.8784L741.6 546.0542zM742.1429 557.9995L742.1429 546.5972L741.6 546.5972L741.6 557.9995zM691.1039 71.49902L691.1039 60.09668L690.5609 60.09668L690.5609 71.49902zM691.1039 83.44434L691.1039 72.04199L690.5609 72.04199L690.5609 83.44434zM691.1039 95.38965L691.1039 83.9873L690.5609 83.9873L690.5609 95.38965zM691.1039 107.335L691.1039 95.93262L690.5609 95.93262L690.5609 107.335zM691.1039 119.2803L691.1039 107.8779L690.5609 107.8779L690.5609 119.2803zM691.1039 131.2256L691.1039 119.8232L690.5609 119.8232L690.5609 131.2256zM691.1039 143.1709L691.1039 131.7686L690.5609 131.7686L690.5609 143.1709zM691.1039 155.1162L691.1039 143.7139L690.5609 143.7139L690.5609 155.1162zM691.1039 167.0615L691.1039 155.6592L690.5609 155.6592L690.5609 167.0615zM691.1039 188.7803L691.1039 167.6045L690.5609 167.6045L690.5609 188.7803zM691.1039 200.7256L691.1039 189.3232L690.5609 189.3232L690.5609 200.7256zM691.1039 222.4443L691.1039 201.2686L690.5609 201.2686L690.5609 222.4443zM691.1039 234.3896L691.1039 222.9873L690.5609 222.9873L690.5609 234.3896zM691.1039 246.335L691.1039 234.9326L690.5609 234.9326L690.5609 246.335zM691.1039 268.0542L691.1039 246.8779L690.5609 246.8779L690.5609 268.0542zM691.1039 289.7729L691.1039 268.5972L690.5609 268.5972L690.5609 289.7729zM691.1039 301.7183L691.1039 290.3159L690.5609 290.3159L690.5609 301.7183zM691.1039 313.6636L691.1039 302.2612L690.5609 302.2612L690.5609 313.6636zM691.1039 325.6089L691.1039 314.2065L690.5609 314.2065L690.5609 325.6089zM691.1039 337.5542L691.1039 326.1519L690.5609 326.1519L690.5609 337.5542zM691.1039 349.4995L691.1039 338.0972L690.5609 338.0972L690.5609 349.4995zM691.1039 361.4448L691.1039 350.0425L690.5609 350.0425L690.5609 361.4448zM691.1039 373.3901L691.1039 361.9878L690.5609 361.9878L690.5609 373.3901zM691.1039 385.3354L691.1039 373.9331L690.5609 373.9331L690.5609 385.3354zM691.1039 397.2808L691.1039 385.8784L690.5609 385.8784L690.5609 397.2808zM691.1039 409.2261L691.1039 397.8237L690.5609 397.8237L690.5609 409.2261zM691.1039 421.1714L691.1039 409.769L690.5609 409.769L690.5609 421.1714zM691.1039 442.8901L691.1039 421.7144L690.5609 421.7144L690.5609 442.8901zM691.1039 454.8354L691.1039 443.4331L690.5609 443.4331L690.5609 454.8354zM691.1039 476.5542L691.1039 455.3784L690.5609 455.3784L690.5609 476.5542zM691.1039 488.4995L691.1039 477.0972L690.5609 477.0972L690.5609 488.4995zM691.1039 500.4448L691.1039 489.0425L690.5609 489.0425L690.5609 500.4448zM691.1039 512.3901L691.1039 500.9878L690.5609 500.9878L690.5609 512.3901zM691.1039 524.3354L691.1039 512.9331L690.5609 512.9331L690.5609 524.3354zM691.1039 546.0542L691.1039 524.8784L690.5609 524.8784L690.5609 546.0542zM691.1039 557.9995L691.1039 546.5972L690.5609 546.5972L690.5609 557.9995zM417.9902 71.49902L417.9902 60.09668L417.4473 60.09668L417.4473 71.49902zM417.9902 83.44434L417.9902 72.04199L417.4473 72.04199L417.4473 83.44434zM417.9902 95.38965L417.9902 83.9873L417.4473 83.9873L417.4473 95.38965zM417.9902 107.335L417.9902 95.93262L417.4473 95.93262L417.4473 107.335zM417.9902 119.2803L417.9902 107.8779L417.4473 107.8779L417.4473 119.2803zM417.9902 131.2256L417.9902 119.8232L417.4473 119.8232L417.4473 131.2256zM417.9902 143.1709L417.9902 131.7686L417.4473 131.7686L417.4473 143.1709zM417.9902 155.1162L417.9902 143.7139L417.4473 143.7139L417.4473 155.1162zM417.9902 167.0615L417.9902 155.6592L417.4473 155.6592L417.4473 167.0615zM417.9902 188.7803L417.9902 167.6045L417.4473 167.6045L417.4473 188.7803zM417.9902 200.7256L417.9902 189.3232L417.4473 189.3232L417.4473 200.7256zM417.9902 222.4443L417.9902 201.2686L417.4473 201.2686L417.4473 222.4443zM417.9902 234.3896L417.9902 222.9873L417.4473 222.9873L417.4473 234.3896zM417.9902 246.335L417.9902 234.9326L417.4473 234.9326L417.4473 246.335zM417.9902 268.0542L417.9902 246.8779L417.4473 246.8779L417.4473 268.0542zM417.9902 289.7729L417.9902 268.5972L417.4473 268.5972L417.4473 289.7729zM417.9902 301.7183L417.9902 290.3159L417.4473 290.3159L417.4473 301.7183zM417.9902 313.6636L417.9902 302.2612L417.4473 302.2612L417.4473 313.6636zM417.9902 325.6089L417.9902 314.2065L417.4473 314.2065L417.4473 325.6089zM417.9902 337.5542L417.9902 326.1519L417.4473 326.1519L417.4473 337.5542zM417.9902 349.4995L417.9902 338.0972L417.4473 338.0972L417.4473 349.4995zM417.9902 361.4448L417.9902 350.0425L417.4473 350.0425L417.4473 361.4448zM417.9902 373.3901L417.9902 361.9878L417.4473 361.9878L417.4473 373.3901zM417.9902 385.3354L417.9902 373.9331L417.4473 373.9331L417.4473 385.3354zM417.9902 397.2808L417.9902 385.8784L417.4473 385.8784L417.4473 397.2808zM417.9902 409.2261L417.9902 397.8237L417.4473 397.8237L417.4473 409.2261zM417.9902 421.1714L417.9902 409.769L417.4473 409.769L417.4473 421.1714zM417.9902 442.8901L417.9902 421.7144L417.4473 421.7144L417.4473 442.8901zM417.9902 454.8354L417.9902 443.4331L417.4473 443.4331L417.4473 454.8354zM417.9902 476.5542L417.9902 455.3784L417.4473 455.3784L417.4473 476.5542zM417.9902 488.4995L417.9902 477.0972L417.4473 477.0972L417.4473 488.4995zM417.9902 500.4448L417.9902 489.0425L417.4473 489.0425L417.4473 500.4448zM417.9902 512.3901L417.9902 500.9878L417.4473 500.9878L417.4473 512.3901zM417.9902 524.3354L417.9902 512.9331L417.4473 512.9331L417.4473 524.3354zM417.9902 546.0542L417.9902 524.8784L417.4473 524.8784L417.4473 546.0542zM417.9902 557.9995L417.9902 546.5972L417.4473 546.5972L417.4473 557.9995zM144.8767 71.49902L144.8767 60.09668L144.3337 60.09668L144.3337 71.49902zM144.8767 83.44434L144.8767 72.04199L144.3337 72.04199L144.3337 83.44434zM144.8767 95.38965L144.8767 83.9873L144.3337 83.9873L144.3337 95.38965zM144.8767 107.335L144.8767 95.93262L144.3337 95.93262L144.3337 107.335zM144.8767 119.2803L144.8767 107.8779L144.3337 107.8779L144.3337 119.2803zM144.8767 131.2256L144.8767 119.8232L144.3337 119.8232L144.3337 131.2256zM144.8767 143.1709L144.8767 131.7686L144.3337 131.7686L144.3337 143.1709zM144.8767 155.1162L144.8767 143.7139L144.3337 143.7139L144.3337 155.1162zM144.8767 167.0615L144.8767 155.6592L144.3337 155.6592L144.3337 167.0615zM144.8767 188.7803L144.8767 167.6045L144.3337 167.6045L144.3337 188.7803zM144.8767 200.7256L144.8767 189.3232L144.3337 189.3232L144.3337 200.7256zM144.8767 222.4443L144.8767 201.2686L144.3337 201.2686L144.3337 222.4443zM144.8767 234.3896L144.8767 222.9873L144.3337 222.9873L144.3337 234.3896zM144.8767 246.335L144.8767 234.9326L144.3337 234.9326L144.3337 246.335zM144.8767 268.0542L144.8767 246.8779L144.3337 246.8779L144.3337 268.0542zM144.8767 289.7729L144.8767 268.5972L144.3337 268.5972L144.3337 289.7729zM144.8767 301.7183L144.8767 290.3159L144.3337 290.3159L144.3337 301.7183zM144.8767 313.6636L144.8767 302.2612L144.3337 302.2612L144.3337 313.6636zM144.8767 325.6089L144.8767 314.2065L144.3337 314.2065L144.3337 325.6089zM144.8767 337.5542L144.8767 326.1519L144.3337 326.1519L144.3337 337.5542zM144.8767 349.4995L144.8767 338.0972L144.3337 338.0972L144.3337 349.4995zM144.8767 361.4448L144.8767 350.0425L144.3337 350.0425L144.3337 361.4448zM144.8767 373.3901L144.8767 361.9878L144.3337 361.9878L144.3337 373.3901zM144.8767 385.3354L144.8767 373.9331L144.3337 373.9331L144.3337 385.3354zM144.8767 397.2808L144.8767 385.8784L144.3337 385.8784L144.3337 397.2808zM144.8767 409.2261L144.8767 397.8237L144.3337 397.8237L144.3337 409.2261zM144.8767 421.1714L144.8767 409.769L144.3337 409.769L144.3337 421.1714zM144.8767 442.8901L144.8767 421.7144L144.3337 421.7144L144.3337 442.8901zM144.8767 454.8354L144.8767 443.4331L144.3337 443.4331L144.3337 454.8354zM144.8767 476.5542L144.8767 455.3784L144.3337 455.3784L144.3337 476.5542zM144.8767 488.4995L144.8767 477.0972L144.3337 477.0972L144.3337 488.4995zM144.8767 500.4448L144.8767 489.0425L144.3337 489.0425L144.3337 500.4448zM144.8767 512.3901L144.8767 500.9878L144.3337 500.9878L144.3337 512.3901zM144.8767 524.3354L144.8767 512.9331L144.3337 512.9331L144.3337 524.3354zM144.8767 546.0542L144.8767 524.8784L144.3337 524.8784L144.3337 546.0542zM144.8767 557.9995L144.8767 546.5972L144.3337 546.5972L144.3337 557.9995zM74.83362 71.49902L74.83362 60.09668L74.29065 60.09668L74.29065 71.49902zM74.83362 83.44434L74.83362 72.04199L74.29065 72.04199L74.29065 83.44434zM74.83362 95.38965L74.83362 83.9873L74.29065 83.9873L74.29065 95.38965zM74.83362 107.335L74.83362 95.93262L74.29065 95.93262L74.29065 107.335zM74.83362 119.2803L74.83362 107.8779L74.29065 107.8779L74.29065 119.2803zM74.83362 131.2256L74.83362 119.8232L74.29065 119.8232L74.29065 131.2256zM74.83362 143.1709L74.83362 131.7686L74.29065 131.7686L74.29065 143.1709zM74.83362 155.1162L74.83362 143.7139L74.29065 143.7139L74.29065 155.1162zM74.83362 167.0615L74.83362 155.6592L74.29065 155.6592L74.29065 167.0615zM74.83362 188.7803L74.83362 167.6045L74.29065 167.6045L74.29065 188.7803zM74.83362 200.7256L74.83362 189.3232L74.29065 189.3232L74.29065 200.7256zM74.83362 222.4443L74.83362 201.2686L74.29065 201.2686L74.29065 222.4443zM74.83362 234.3896L74.83362 222.9873L74.29065 222.9873L74.29065 234.3896zM74.83362 246.335L74.83362 234.9326L74.29065 234.9326L74.29065 246.335zM74.83362 268.0542L74.83362 246.8779L74.29065 246.8779L74.29065 268.0542zM74.83362 289.7729L74.83362 268.5972L74.29065 268.5972L74.29065 289.7729zM74.83362 301.7183L74.83362 290.3159L74.29065 290.3159L74.29065 301.7183zM74.83362 313.6636L74.83362 302.2612L74.29065 302.2612L74.29065 313.6636zM74.83362 325.6089L74.83362 314.2065L74.29065 314.2065L74.29065 325.6089zM74.83362 337.5542L74.83362 326.1519L74.29065 326.1519L74.29065 337.5542zM74.83362 349.4995L74.83362 338.0972L74.29065 338.0972L74.29065 349.4995zM74.83362 361.4448L74.83362 350.0425L74.29065 350.0425L74.29065 361.4448zM74.83362 373.3901L74.83362 361.9878L74.29065 361.9878L74.29065 373.3901zM74.83362 385.3354L74.83362 373.9331L74.29065 373.9331L74.29065 385.3354zM74.83362 397.2808L74.83362 385.8784L74.29065 385.8784L74.29065 397.2808zM74.83362 409.2261L74.83362 397.8237L74.29065 397.8237L74.29065 409.2261zM74.83362 421.1714L74.83362 409.769L74.29065 409.769L74.29065 421.1714zM74.83362 442.8901L74.83362 421.7144L74.29065 421.7144L74.29065 442.8901zM74.83362 454.8354L74.83362 443.4331L74.29065 443.4331L74.29065 454.8354zM74.83362 476.5542L74.83362 455.3784L74.29065 455.3784L74.29065 476.5542zM74.83362 488.4995L74.83362 477.0972L74.29065 477.0972L74.29065 488.4995zM74.83362 500.4448L74.83362 489.0425L74.29065 489.0425L74.29065 500.4448zM74.83362 512.3901L74.83362 500.9878L74.29065 500.9878L74.29065 512.3901zM74.83362 524.3354L74.83362 512.9331L74.29065 512.9331L74.29065 524.3354zM74.83362 546.0542L74.83362 524.8784L74.29065 524.8784L74.29065 546.0542zM74.83362 557.9995L74.83362 546.5972L74.29065 546.5972L74.29065 557.9995zM50.39999 71.49902L50.39999 60.09668L49.85703 60.09668L49.85703 71.49902zM50.39999 83.44434L50.39999 72.04199L49.85703 72.04199L49.85703 83.44434zM50.39999 95.38965L50.39999 83.9873L49.85703 83.9873L49.85703 95.38965zM50.39999 107.335L50.39999 95.93262L49.85703 95.93262L49.85703 107.335zM50.39999 119.2803L50.39999 107.8779L49.85703 107.8779L49.85703 119.2803zM50.39999 131.2256L50.39999 119.8232L49.85703 119.8232L49.85703 131.2256zM50.39999 143.1709L50.39999 131.7686L49.85703 131.7686L49.85703 143.1709zM50.39999 155.1162L50.39999 143.7139L49.85703 143.7139L49.85703 155.1162zM50.39999 167.0615L50.39999 155.6592L49.85703 155.6592L49.85703 167.0615zM50.39999 188.7803L50.39999 167.6045L49.85703 167.6045L49.85703 188.7803zM50.39999 200.7256L50.39999 189.3232L49.85703 189.3232L49.85703 200.7256zM50.39999 222.4443L50.39999 201.2686L49.85703 201.2686L49.85703 222.4443zM50.39999 234.3896L50.39999 222.9873L49.85703 222.9873L49.85703 234.3896zM50.39999 246.335L50.39999 234.9326L49.85703 234.9326L49.85703 246.335zM50.39999 268.0542L50.39999 246.8779L49.85703 246.8779L49.85703 268.0542zM50.39999 289.7729L50.39999 268.5972L49.85703 268.5972L49.85703 289.7729zM50.39999 301.7183L50.39999 290.3159L49.85703 290.3159L49.85703 301.7183zM50.39999 313.6636L50.39999 302.2612L49.85703 302.2612L49.85703 313.6636zM50.39999 325.6089L50.39999 314.2065L49.85703 314.2065L49.85703 325.6089zM50.39999 337.5542L50.39999 326.1519L49.85703 326.1519L49.85703 337.5542zM50.39999 349.4995L50.39999 338.0972L49.85703 338.0972L49.85703 349.4995zM50.39999 361.4448L50.39999 350.0425L49.85703 350.0425L49.85703 361.4448zM50.39999 373.3901L50.39999 361.9878L49.85703 361.9878L49.85703 373.3901zM50.39999 385.3354L50.39999 373.9331L49.85703 373.9331L49.85703 385.3354zM50.39999 397.2808L50.39999 385.8784L49.85703 385.8784L49.85703 397.2808zM50.39999 409.2261L50.39999 397.8237L49.85703 397.8237L49.85703 409.2261zM50.39999 421.1714L50.39999 409.769L49.85703 409.769L49.85703 421.1714zM50.39999 442.8901L50.39999 421.7144L49.85703 421.7144L49.85703 442.8901zM50.39999 454.8354L50.39999 443.4331L49.85703 443.4331L49.85703 454.8354zM50.39999 476.5542L50.39999 455.3784L49.85703 455.3784L49.85703 476.5542zM50.39999 488.4995L50.39999 477.0972L49.85703 477.0972L49.85703 488.4995zM50.39999 500.4448L50.39999 489.0425L49.85703 489.0425L49.85703 500.4448zM50.39999 512.3901L50.39999 500.9878L49.85703 500.9878L49.85703 512.3901zM50.39999 524.3354L50.39999 512.9331L49.85703 512.9331L49.85703 524.3354zM50.39999 546.0542L50.39999 524.8784L49.85703 524.8784L49.85703 546.0542zM50.39999 557.9995L50.39999 546.5972L49.85703 546.5972L49.85703 557.9995z" stroke="none" fill="#000000" fill-rule="nonzero" fill-opacity="0.1490196" /><path id="201" transform="matrix(1 0 0 -1 0 612)" d="M419.6191 548.7441L498.85 548.7441" stroke="#000000" stroke-width="0.5080263" fill="none" /><path id="406" transform="matrix(1 0 0 -1 0 612)" d="M419.6191 536.5015L673.3302 536.5015" stroke="#000000" stroke-width="0.5080263" fill="none" /><path id="419" transform="matrix(1 0 0 -1 0 612)" d="M419.6191 527.0254L452.7701 527.0254" stroke="#000000" stroke-width="0.5080263" fill="none" /><path id="467" transform="matrix(1 0 0 -1 0 612)" d="M419.6191 515.0801L466.1767 515.0801" stroke="#000000" stroke-width="0.5080263" fill="none" /><path id="591" transform="matrix(1 0 0 -1 0 612)" d="M419.6191 503.1348L575.8068 503.1348" stroke="#000000" stroke-width="0.5080263" fill="none" /><path id="673" transform="matrix(1 0 0 -1 0 612)" d="M419.6191 491.1895L523.5258 491.1895" stroke="#000000" stroke-width="0.5080263" fill="none" /><path id="844" transform="matrix(1 0 0 -1 0 612)" d="M419.6191 479.2441L650.6675 479.2441" stroke="#000000" stroke-width="0.5080263" fill="none" /><path id="990" transform="matrix(1 0 0 -1 0 612)" d="M419.6191 457.5254L593.326 457.5254" stroke="#000000" stroke-width="0.5080263" fill="none" /><path id="1054" transform="matrix(1 0 0 -1 0 612)" d="M419.6191 445.5801L490.5833 445.5801" stroke="#000000" stroke-width="0.5080263" fill="none" /><path id="1264" transform="matrix(1 0 0 -1 0 612)" d="M419.6191 433.3374L652.1989 433.3374" stroke="#000000" stroke-width="0.5080263" fill="none" /><path id="1288" transform="matrix(1 0 0 -1 0 612)" d="M419.6191 423.8613L497.0003 423.8613" stroke="#000000" stroke-width="0.5080263" fill="none" /><path id="1424" transform="matrix(1 0 0 -1 0 612)" d="M419.6191 411.916L605.1711 411.916" stroke="#000000" stroke-width="0.5080263" fill="none" /><path id="1542" transform="matrix(1 0 0 -1 0 612)" d="M419.6191 399.9707L589.8768 399.9707" stroke="#000000" stroke-width="0.5080263" fill="none" /><path id="1700" transform="matrix(1 0 0 -1 0 612)" d="M419.6191 388.0254L641.0663 388.0254" stroke="#000000" stroke-width="0.5080263" fill="none" /><path id="1825" transform="matrix(1 0 0 -1 0 612)" d="M419.6191 376.0801L592.9319 376.0801" stroke="#000000" stroke-width="0.5080263" fill="none" /><path id="1995" transform="matrix(1 0 0 -1 0 612)" d="M419.6191 364.1348L661.6521 364.1348" stroke="#000000" stroke-width="0.5080263" fill="none" /><path id="2161" transform="matrix(1 0 0 -1 0 612)" d="M419.6191 352.1895L652.1418 352.1895" stroke="#000000" stroke-width="0.5080263" fill="none" /><path id="2246" transform="matrix(1 0 0 -1 0 612)" d="M419.6191 340.2441L525.4133 340.2441" stroke="#000000" stroke-width="0.5080263" fill="none" /><path id="2336" transform="matrix(1 0 0 -1 0 612)" d="M419.6191 328.2988L533.1759 328.2988" stroke="#000000" stroke-width="0.5080263" fill="none" /><path id="2517" transform="matrix(1 0 0 -1 0 612)" d="M419.6191 316.3535L657.8958 316.3535" stroke="#000000" stroke-width="0.5080263" fill="none" /><path id="2615" transform="matrix(1 0 0 -1 0 612)" d="M419.6191 304.4082L542.2959 304.4082" stroke="#000000" stroke-width="0.5080263" fill="none" /><path id="2745" transform="matrix(1 0 0 -1 0 612)" d="M419.6191 292.4629L593.2996 292.4629" stroke="#000000" stroke-width="0.5080263" fill="none" /><path id="2954" transform="matrix(1 0 0 -1 0 612)" d="M419.6191 280.2197L676.5751 280.2197" stroke="#000000" stroke-width="0.5080263" fill="none" /><path id="2977" transform="matrix(1 0 0 -1 0 612)" d="M419.6191 270.7437L492.4822 270.7437" stroke="#000000" stroke-width="0.5080263" fill="none" /><path id="3109" transform="matrix(1 0 0 -1 0 612)" d="M419.6191 249.0249L575.678 249.0249" stroke="#000000" stroke-width="0.5080263" fill="none" /><path id="3291" transform="matrix(1 0 0 -1 0 612)" d="M419.6191 237.0796L681.9763 237.0796" stroke="#000000" stroke-width="0.5080263" fill="none" /><path id="3438" transform="matrix(1 0 0 -1 0 612)" d="M419.6191 225.1343L614.598 225.1343" stroke="#000000" stroke-width="0.5080263" fill="none" /><path id="3660" transform="matrix(1 0 0 -1 0 612)" d="M419.6191 212.8916L686.7826 212.8916" stroke="#000000" stroke-width="0.5080263" fill="none" /><path id="3687" transform="matrix(1 0 0 -1 0 612)" d="M419.6191 203.4155L503.319 203.4155" stroke="#000000" stroke-width="0.5080263" fill="none" /><path id="3734" transform="matrix(1 0 0 -1 0 612)" d="M419.6191 191.4702L462.826 191.4702" stroke="#000000" stroke-width="0.5080263" fill="none" /><path id="3922" transform="matrix(1 0 0 -1 0 612)" d="M419.6191 179.2275L672.9059 179.2275" stroke="#000000" stroke-width="0.5080263" fill="none" /><path id="3928" transform="matrix(1 0 0 -1 0 612)" d="M419.6191 169.7515L439.8107 169.7515" stroke="#000000" stroke-width="0.5080263" fill="none" /><path id="4058" transform="matrix(1 0 0 -1 0 612)" d="M419.6191 157.8062L585.4724 157.8062" stroke="#000000" stroke-width="0.5080263" fill="none" /><path id="4149" transform="matrix(1 0 0 -1 0 612)" d="M419.6191 145.8608L523.9654 145.8608" stroke="#000000" stroke-width="0.5080263" fill="none" /><path id="4235" transform="matrix(1 0 0 -1 0 612)" d="M419.6191 133.9155L523.3173 133.9155" stroke="#000000" stroke-width="0.5080263" fill="none" /><path id="4363" transform="matrix(1 0 0 -1 0 612)" d="M419.6191 121.9702L586.2267 121.9702" stroke="#000000" stroke-width="0.5080263" fill="none" /><path id="4471" transform="matrix(1 0 0 -1 0 612)" d="M419.6191 110.0249L559.9175 110.0249" stroke="#000000" stroke-width="0.5080263" fill="none" /><path id="4595" transform="matrix(1 0 0 -1 0 612)" d="M419.6191 98.07959L587.7314 98.07959" stroke="#000000" stroke-width="0.5080263" fill="none" /><path id="4714" transform="matrix(1 0 0 -1 0 612)" d="M419.6191 86.13428L577.2283 86.13428" stroke="#000000" stroke-width="0.5080263" fill="none" /><path id="4861" transform="matrix(1 0 0 -1 0 612)" d="M419.6191 74.18896L611.4633 74.18896" stroke="#000000" stroke-width="0.5080263" fill="none" /><path id="4913" transform="matrix(1 0 0 -1 0 612)" d="M419.6191 62.24365L473.6325 62.24365" stroke="#000000" stroke-width="0.5080263" fill="none" /></g></g></g></svg>