<svg xmlns="http://www.w3.org/2000/svg" xmlns:xlink="http://www.w3.org/1999/xlink" id="body_10" preserveAspectRatio="xMinYMin meet" viewBox="0 0 1056 816"><defs><clipPath id="1"><path id="" clip-rule="evenodd" transform="matrix(1 0 0 1 0 0)" d="M0 612L0 0L0 0L792 0L792 0L792 612L792 612L0 612z" /></clipPath><clipPath id="2"><path id="" clip-rule="evenodd" transform="matrix(1 0 0 1 0 0)" d="M49.31406 52.91455L742.6859 52.91455L742.6859 52.91455L742.6859 554.0752L742.6859 554.0752L49.31406 554.0752L49.31406 554.0752L49.31406 52.91455z" /></clipPath></defs><g transform="matrix(1.333333 0 0 1.333333 0 0)"><g clip-path="url(#1)"><g clip-path="url(#2)"><path id="102" transform="matrix(1 0 0 -1 0 612)" d="M49.85703 558.5425L742.1429 558.5425L742.1429 536.2808L49.85703 536.2808L49.85703 558.5425z" stroke="none" fill="#E0F7FA" fill-rule="nonzero" /><path id="103" transform="matrix(1 0 0 -1 0 612)" d="M49.85703 536.8237L742.1429 536.8237L742.1429 524.3354L49.85703 524.3354L49.85703 536.8237z" stroke="none" fill="#FFFFFF" fill-rule="nonzero" /><path id="104" transform="matrix(1 0 0 -1 0 612)" d="M49.85703 524.8784L742.1429 524.8784L742.1429 512.3901L49.85703 512.3901L49.85703 524.8784z" stroke="none" fill="#E0F7FA" fill-rule="nonzero" /><path id="105" transform="matrix(1 0 0 -1 0 612)" d="M49.85703 512.9331L742.1429 512.9331L742.1429 500.4448L49.85703 500.4448L49.85703 512.9331z" stroke="none" fill="#FFFFFF" fill-rule="nonzero" /><path id="106" transform="matrix(1 0 0 -1 0 612)" d="M49.85703 500.9878L742.1429 500.9878L742.1429 488.4995L49.85703 488.4995L49.85703 500.9878z" stroke="none" fill="#E0F7FA" fill-rule="nonzero" /><path id="107" transform="matrix(1 0 0 -1 0 612)" d="M49.85703 489.0425L742.1429 489.0425L742.1429 476.5542L49.85703 476.5542L49.85703 489.0425z" stroke="none" fill="#FFFFFF" fill-rule="nonzero" /><path id="108" transform="matrix(1 0 0 -1 0 612)" d="M49.85703 477.0972L742.1429 477.0972L742.1429 454.8354L49.85703 454.8354L49.85703 477.0972z" stroke="none" fill="#E0F7FA" fill-rule="nonzero" /><path id="109" transform="matrix(1 0 0 -1 0 612)" d="M49.85703 455.3784L742.1429 455.3784L742.1429 433.1167L49.85703 433.1167L49.85703 455.3784z" stroke="none" fill="#FFFFFF" fill-rule="nonzero" /><path id="110" transform="matrix(1 0 0 -1 0 612)" d="M49.85703 433.6597L742.1429 433.6597L742.1429 411.3979L49.85703 411.3979L49.85703 433.6597z" stroke="none" fill="#E0F7FA" fill-rule="nonzero" /><path id="111" transform="matrix(1 0 0 -1 0 612)" d="M49.85703 411.9409L742.1429 411.9409L742.1429 399.4526L49.85703 399.4526L49.85703 411.9409z" stroke="none" fill="#FFFFFF" fill-rule="nonzero" /><path id="112" transform="matrix(1 0 0 -1 0 612)" d="M49.85703 399.9956L742.1429 399.9956L742.1429 377.7334L49.85703 377.7334L49.85703 399.9956z" stroke="none" fill="#E0F7FA" fill-rule="nonzero" /><path id="113" transform="matrix(1 0 0 -1 0 612)" d="M49.85703 378.2764L742.1429 378.2764L742.1429 365.7881L49.85703 365.7881L49.85703 378.2764z" stroke="none" fill="#FFFFFF" fill-rule="nonzero" /><path id="114" transform="matrix(1 0 0 -1 0 612)" d="M49.85703 366.3311L742.1429 366.3311L742.1429 353.8428L49.85703 353.8428L49.85703 366.3311z" stroke="none" fill="#E0F7FA" fill-rule="nonzero" /><path id="115" transform="matrix(1 0 0 -1 0 612)" d="M49.85703 354.3857L742.1429 354.3857L742.1429 341.8975L49.85703 341.8975L49.85703 354.3857z" stroke="none" fill="#FFFFFF" fill-rule="nonzero" /><path id="116" transform="matrix(1 0 0 -1 0 612)" d="M49.85703 342.4404L742.1429 342.4404L742.1429 329.9521L49.85703 329.9521L49.85703 342.4404z" stroke="none" fill="#E0F7FA" fill-rule="nonzero" /><path id="117" transform="matrix(1 0 0 -1 0 612)" d="M49.85703 330.4951L742.1429 330.4951L742.1429 308.2334L49.85703 308.2334L49.85703 330.4951z" stroke="none" fill="#FFFFFF" fill-rule="nonzero" /><path id="118" transform="matrix(1 0 0 -1 0 612)" d="M49.85703 308.7764L742.1429 308.7764L742.1429 286.5146L49.85703 286.5146L49.85703 308.7764z" stroke="none" fill="#E0F7FA" fill-rule="nonzero" /><path id="119" transform="matrix(1 0 0 -1 0 612)" d="M49.85703 287.0576L742.1429 287.0576L742.1429 264.7959L49.85703 264.7959L49.85703 287.0576z" stroke="none" fill="#FFFFFF" fill-rule="nonzero" /><path id="120" transform="matrix(1 0 0 -1 0 612)" d="M49.85703 265.3389L742.1429 265.3389L742.1429 252.8506L49.85703 252.8506L49.85703 265.3389z" stroke="none" fill="#E0F7FA" fill-rule="nonzero" /><path id="121" transform="matrix(1 0 0 -1 0 612)" d="M49.85703 253.3936L742.1429 253.3936L742.1429 231.1318L49.85703 231.1318L49.85703 253.3936z" stroke="none" fill="#FFFFFF" fill-rule="nonzero" /><path id="122" transform="matrix(1 0 0 -1 0 612)" d="M49.85703 231.6748L742.1429 231.6748L742.1429 209.4131L49.85703 209.4131L49.85703 231.6748z" stroke="none" fill="#E0F7FA" fill-rule="nonzero" /><path id="123" transform="matrix(1 0 0 -1 0 612)" d="M49.85703 209.9561L742.1429 209.9561L742.1429 197.4678L49.85703 197.4678L49.85703 209.9561z" stroke="none" fill="#FFFFFF" fill-rule="nonzero" /><path id="124" transform="matrix(1 0 0 -1 0 612)" d="M49.85703 198.0107L742.1429 198.0107L742.1429 185.5225L49.85703 185.5225L49.85703 198.0107z" stroke="none" fill="#E0F7FA" fill-rule="nonzero" /><path id="125" transform="matrix(1 0 0 -1 0 612)" d="M49.85703 186.0654L742.1429 186.0654L742.1429 173.5771L49.85703 173.5771L49.85703 186.0654z" stroke="none" fill="#FFFFFF" fill-rule="nonzero" /><path id="126" transform="matrix(1 0 0 -1 0 612)" d="M49.85703 174.1201L742.1429 174.1201L742.1429 151.8584L49.85703 151.8584L49.85703 174.1201z" stroke="none" fill="#E0F7FA" fill-rule="nonzero" /><path id="127" transform="matrix(1 0 0 -1 0 612)" d="M49.85703 152.4014L742.1429 152.4014L742.1429 139.9131L49.85703 139.9131L49.85703 152.4014z" stroke="none" fill="#FFFFFF" fill-rule="nonzero" /><path id="128" transform="matrix(1 0 0 -1 0 612)" d="M49.85703 140.4561L742.1429 140.4561L742.1429 118.1943L49.85703 118.1943L49.85703 140.4561z" stroke="none" fill="#E0F7FA" fill-rule="nonzero" /><path id="129" transform="matrix(1 0 0 -1 0 612)" d="M49.85703 118.7373L742.1429 118.7373L742.1429 106.249L49.85703 106.249L49.85703 118.7373z" stroke="none" fill="#FFFFFF" fill-rule="nonzero" /><path id="130" transform="matrix(1 0 0 -1 0 612)" d="M49.85703 106.792L742.1429 106.792L742.1429 94.30371L49.85703 94.30371L49.85703 106.792z" stroke="none" fill="#E0F7FA" fill-rule="nonzero" /><path id="131" transform="matrix(1 0 0 -1 0 612)" d="M49.85703 94.84668L742.1429 94.84668L742.1429 82.3584L49.85703 82.3584L49.85703 94.84668z" stroke="none" fill="#FFFFFF" fill-rule="nonzero" /><path id="132" transform="matrix(1 0 0 -1 0 612)" d="M49.85703 82.90137L742.1429 82.90137L742.1429 70.41309L49.85703 70.41309L49.85703 82.90137z" stroke="none" fill="#E0F7FA" fill-rule="nonzero" /><path id="133" transform="matrix(1 0 0 -1 0 612)" d="M49.85703 70.95605L742.1429 70.95605L742.1429 58.46777L49.85703 58.46777L49.85703 70.95605z" stroke="none" fill="#FFFFFF" fill-rule="nonzero" /><path id="134" transform="matrix(1 0 0 -1 0 612)" d="M49.85703 59.01074L742.1429 59.01074L742.1429 58.46777L49.85703 58.46777zM49.85703 70.95605L742.1429 70.95605L742.1429 70.41309L49.85703 70.41309zM49.85703 82.90137L742.1429 82.90137L742.1429 82.3584L49.85703 82.3584zM49.85703 94.84668L742.1429 94.84668L742.1429 94.30371L49.85703 94.30371zM49.85703 106.792L742.1429 106.792L742.1429 106.249L49.85703 106.249zM49.85703 118.7373L742.1429 118.7373L742.1429 118.1943L49.85703 118.1943zM49.85703 140.4561L742.1429 140.4561L742.1429 139.9131L49.85703 139.9131zM49.85703 152.4014L742.1429 152.4014L742.1429 151.8584L49.85703 151.8584zM49.85703 174.1201L742.1429 174.1201L742.1429 173.5771L49.85703 173.5771zM49.85703 186.0654L742.1429 186.0654L742.1429 185.5225L49.85703 185.5225zM49.85703 198.0107L742.1429 198.0107L742.1429 197.4678L49.85703 197.4678zM49.85703 209.9561L742.1429 209.9561L742.1429 209.4131L49.85703 209.4131zM49.85703 231.6748L742.1429 231.6748L742.1429 231.1318L49.85703 231.1318zM49.85703 253.3936L742.1429 253.3936L742.1429 252.8506L49.85703 252.8506zM49.85703 265.3389L742.1429 265.3389L742.1429 264.7959L49.85703 264.7959zM49.85703 287.0576L742.1429 287.0576L742.1429 286.5146L49.85703 286.5146zM49.85703 308.7764L742.1429 308.7764L742.1429 308.2334L49.85703 308.2334zM49.85703 330.4951L742.1429 330.4951L742.1429 329.9521L49.85703 329.9521zM49.85703 342.4404L742.1429 342.4404L742.1429 341.8975L49.85703 341.8975zM49.85703 354.3857L742.1429 354.3857L742.1429 353.8428L49.85703 353.8428zM49.85703 366.3311L742.1429 366.3311L742.1429 365.7881L49.85703 365.7881zM49.85703 378.2764L742.1429 378.2764L742.1429 377.7334L49.85703 377.7334zM49.85703 399.9956L742.1429 399.9956L742.1429 399.4526L49.85703 399.4526zM49.85703 411.9409L742.1429 411.9409L742.1429 411.3979L49.85703 411.3979zM49.85703 433.6597L742.1429 433.6597L742.1429 433.1167L49.85703 433.1167zM49.85703 455.3784L742.1429 455.3784L742.1429 454.8354L49.85703 454.8354zM49.85703 477.0972L742.1429 477.0972L742.1429 476.5542L49.85703 476.5542zM49.85703 489.0425L742.1429 489.0425L742.1429 488.4995L49.85703 488.4995zM49.85703 500.9878L742.1429 500.9878L742.1429 500.4448L49.85703 500.4448zM49.85703 512.9331L742.1429 512.9331L742.1429 512.3901L49.85703 512.3901zM49.85703 524.8784L742.1429 524.8784L742.1429 524.3354L49.85703 524.3354zM49.85703 536.8237L742.1429 536.8237L742.1429 536.2808L49.85703 536.2808zM49.85703 558.5425L742.1429 558.5425L742.1429 557.9995L49.85703 557.9995zM742.1429 70.41309L742.1429 59.01074L741.6 59.01074L741.6 70.41309zM742.1429 82.3584L742.1429 70.95605L741.6 70.95605L741.6 82.3584zM742.1429 94.30371L742.1429 82.90137L741.6 82.90137L741.6 94.30371zM742.1429 106.249L742.1429 94.84668L741.6 94.84668L741.6 106.249zM742.1429 118.1943L742.1429 106.792L741.6 106.792L741.6 118.1943zM742.1429 139.9131L742.1429 118.7373L741.6 118.7373L741.6 139.9131zM742.1429 151.8584L742.1429 140.4561L741.6 140.4561L741.6 151.8584zM742.1429 173.5771L742.1429 152.4014L741.6 152.4014L741.6 173.5771zM742.1429 185.5225L742.1429 174.1201L741.6 174.1201L741.6 185.5225zM742.1429 197.4678L742.1429 186.0654L741.6 186.0654L741.6 197.4678zM742.1429 209.4131L742.1429 198.0107L741.6 198.0107L741.6 209.4131zM742.1429 231.1318L742.1429 209.9561L741.6 209.9561L741.6 231.1318zM742.1429 252.8506L742.1429 231.6748L741.6 231.6748L741.6 252.8506zM742.1429 264.7959L742.1429 253.3936L741.6 253.3936L741.6 264.7959zM742.1429 286.5146L742.1429 265.3389L741.6 265.3389L741.6 286.5146zM742.1429 308.2334L742.1429 287.0576L741.6 287.0576L741.6 308.2334zM742.1429 329.9521L742.1429 308.7764L741.6 308.7764L741.6 329.9521zM742.1429 341.8975L742.1429 330.4951L741.6 330.4951L741.6 341.8975zM742.1429 353.8428L742.1429 342.4404L741.6 342.4404L741.6 353.8428zM742.1429 365.7881L742.1429 354.3857L741.6 354.3857L741.6 365.7881zM742.1429 377.7334L742.1429 366.3311L741.6 366.3311L741.6 377.7334zM742.1429 399.4526L742.1429 378.2764L741.6 378.2764L741.6 399.4526zM742.1429 411.3979L742.1429 399.9956L741.6 399.9956L741.6 411.3979zM742.1429 433.1167L742.1429 411.9409L741.6 411.9409L741.6 433.1167zM742.1429 454.8354L742.1429 433.6597L741.6 433.6597L741.6 454.8354zM742.1429 476.5542L742.1429 455.3784L741.6 455.3784L741.6 476.5542zM742.1429 488.4995L742.1429 477.0972L741.6 477.0972L741.6 488.4995zM742.1429 500.4448L742.1429 489.0425L741.6 489.0425L741.6 500.4448zM742.1429 512.3901L742.1429 500.9878L741.6 500.9878L741.6 512.3901zM742.1429 524.3354L742.1429 512.9331L741.6 512.9331L741.6 524.3354zM742.1429 536.2808L742.1429 524.8784L741.6 524.8784L741.6 536.2808zM742.1429 557.9995L742.1429 536.8237L741.6 536.8237L741.6 557.9995zM691.1039 70.41309L691.1039 59.01074L690.5609 59.01074L690.5609 70.41309zM691.1039 82.3584L691.1039 70.95605L690.5609 70.95605L690.5609 82.3584zM691.1039 94.30371L691.1039 82.90137L690.5609 82.90137L690.5609 94.30371zM691.1039 106.249L691.1039 94.84668L690.5609 94.84668L690.5609 106.249zM691.1039 118.1943L691.1039 106.792L690.5609 106.792L690.5609 118.1943zM691.1039 139.9131L691.1039 118.7373L690.5609 118.7373L690.5609 139.9131zM691.1039 151.8584L691.1039 140.4561L690.5609 140.4561L690.5609 151.8584zM691.1039 173.5771L691.1039 152.4014L690.5609 152.4014L690.5609 173.5771zM691.1039 185.5225L691.1039 174.1201L690.5609 174.1201L690.5609 185.5225zM691.1039 197.4678L691.1039 186.0654L690.5609 186.0654L690.5609 197.4678zM691.1039 209.4131L691.1039 198.0107L690.5609 198.0107L690.5609 209.4131zM691.1039 231.1318L691.1039 209.9561L690.5609 209.9561L690.5609 231.1318zM691.1039 252.8506L691.1039 231.6748L690.5609 231.6748L690.5609 252.8506zM691.1039 264.7959L691.1039 253.3936L690.5609 253.3936L690.5609 264.7959zM691.1039 286.5146L691.1039 265.3389L690.5609 265.3389L690.5609 286.5146zM691.1039 308.2334L691.1039 287.0576L690.5609 287.0576L690.5609 308.2334zM691.1039 329.9521L691.1039 308.7764L690.5609 308.7764L690.5609 329.9521zM691.1039 341.8975L691.1039 330.4951L690.5609 330.4951L690.5609 341.8975zM691.1039 353.8428L691.1039 342.4404L690.5609 342.4404L690.5609 353.8428zM691.1039 365.7881L691.1039 354.3857L690.5609 354.3857L690.5609 365.7881zM691.1039 377.7334L691.1039 366.3311L690.5609 366.3311L690.5609 377.7334zM691.1039 399.4526L691.1039 378.2764L690.5609 378.2764L690.5609 399.4526zM691.1039 411.3979L691.1039 399.9956L690.5609 399.9956L690.5609 411.3979zM691.1039 433.1167L691.1039 411.9409L690.5609 411.9409L690.5609 433.1167zM691.1039 454.8354L691.1039 433.6597L690.5609 433.6597L690.5609 454.8354zM691.1039 476.5542L691.1039 455.3784L690.5609 455.3784L690.5609 476.5542zM691.1039 488.4995L691.1039 477.0972L690.5609 477.0972L690.5609 488.4995zM691.1039 500.4448L691.1039 489.0425L690.5609 489.0425L690.5609 500.4448zM691.1039 512.3901L691.1039 500.9878L690.5609 500.9878L690.5609 512.3901zM691.1039 524.3354L691.1039 512.9331L690.5609 512.9331L690.5609 524.3354zM691.1039 536.2808L691.1039 524.8784L690.5609 524.8784L690.5609 536.2808zM691.1039 557.9995L691.1039 536.8237L690.5609 536.8237L690.5609 557.9995zM417.9902 70.41309L417.9902 59.01074L417.4473 59.01074L417.4473 70.41309zM417.9902 82.3584L417.9902 70.95605L417.4473 70.95605L417.4473 82.3584zM417.9902 94.30371L417.9902 82.90137L417.4473 82.90137L417.4473 94.30371zM417.9902 106.249L417.9902 94.84668L417.4473 94.84668L417.4473 106.249zM417.9902 118.1943L417.9902 106.792L417.4473 106.792L417.4473 118.1943zM417.9902 139.9131L417.9902 118.7373L417.4473 118.7373L417.4473 139.9131zM417.9902 151.8584L417.9902 140.4561L417.4473 140.4561L417.4473 151.8584zM417.9902 173.5771L417.9902 152.4014L417.4473 152.4014L417.4473 173.5771zM417.9902 185.5225L417.9902 174.1201L417.4473 174.1201L417.4473 185.5225zM417.9902 197.4678L417.9902 186.0654L417.4473 186.0654L417.4473 197.4678zM417.9902 209.4131L417.9902 198.0107L417.4473 198.0107L417.4473 209.4131zM417.9902 231.1318L417.9902 209.9561L417.4473 209.9561L417.4473 231.1318zM417.9902 252.8506L417.9902 231.6748L417.4473 231.6748L417.4473 252.8506zM417.9902 264.7959L417.9902 253.3936L417.4473 253.3936L417.4473 264.7959zM417.9902 286.5146L417.9902 265.3389L417.4473 265.3389L417.4473 286.5146zM417.9902 308.2334L417.9902 287.0576L417.4473 287.0576L417.4473 308.2334zM417.9902 329.9521L417.9902 308.7764L417.4473 308.7764L417.4473 329.9521zM417.9902 341.8975L417.9902 330.4951L417.4473 330.4951L417.4473 341.8975zM417.9902 353.8428L417.9902 342.4404L417.4473 342.4404L417.4473 353.8428zM417.9902 365.7881L417.9902 354.3857L417.4473 354.3857L417.4473 365.7881zM417.9902 377.7334L417.9902 366.3311L417.4473 366.3311L417.4473 377.7334zM417.9902 399.4526L417.9902 378.2764L417.4473 378.2764L417.4473 399.4526zM417.9902 411.3979L417.9902 399.9956L417.4473 399.9956L417.4473 411.3979zM417.9902 433.1167L417.9902 411.9409L417.4473 411.9409L417.4473 433.1167zM417.9902 454.8354L417.9902 433.6597L417.4473 433.6597L417.4473 454.8354zM417.9902 476.5542L417.9902 455.3784L417.4473 455.3784L417.4473 476.5542zM417.9902 488.4995L417.9902 477.0972L417.4473 477.0972L417.4473 488.4995zM417.9902 500.4448L417.9902 489.0425L417.4473 489.0425L417.4473 500.4448zM417.9902 512.3901L417.9902 500.9878L417.4473 500.9878L417.4473 512.3901zM417.9902 524.3354L417.9902 512.9331L417.4473 512.9331L417.4473 524.3354zM417.9902 536.2808L417.9902 524.8784L417.4473 524.8784L417.4473 536.2808zM417.9902 557.9995L417.9902 536.8237L417.4473 536.8237L417.4473 557.9995zM144.8767 70.41309L144.8767 59.01074L144.3337 59.01074L144.3337 70.41309zM144.8767 82.3584L144.8767 70.95605L144.3337 70.95605L144.3337 82.3584zM144.8767 94.30371L144.8767 82.90137L144.3337 82.90137L144.3337 94.30371zM144.8767 106.249L144.8767 94.84668L144.3337 94.84668L144.3337 106.249zM144.8767 118.1943L144.8767 106.792L144.3337 106.792L144.3337 118.1943zM144.8767 139.9131L144.8767 118.7373L144.3337 118.7373L144.3337 139.9131zM144.8767 151.8584L144.8767 140.4561L144.3337 140.4561L144.3337 151.8584zM144.8767 173.5771L144.8767 152.4014L144.3337 152.4014L144.3337 173.5771zM144.8767 185.5225L144.8767 174.1201L144.3337 174.1201L144.3337 185.5225zM144.8767 197.4678L144.8767 186.0654L144.3337 186.0654L144.3337 197.4678zM144.8767 209.4131L144.8767 198.0107L144.3337 198.0107L144.3337 209.4131zM144.8767 231.1318L144.8767 209.9561L144.3337 209.9561L144.3337 231.1318zM144.8767 252.8506L144.8767 231.6748L144.3337 231.6748L144.3337 252.8506zM144.8767 264.7959L144.8767 253.3936L144.3337 253.3936L144.3337 264.7959zM144.8767 286.5146L144.8767 265.3389L144.3337 265.3389L144.3337 286.5146zM144.8767 308.2334L144.8767 287.0576L144.3337 287.0576L144.3337 308.2334zM144.8767 329.9521L144.8767 308.7764L144.3337 308.7764L144.3337 329.9521zM144.8767 341.8975L144.8767 330.4951L144.3337 330.4951L144.3337 341.8975zM144.8767 353.8428L144.8767 342.4404L144.3337 342.4404L144.3337 353.8428zM144.8767 365.7881L144.8767 354.3857L144.3337 354.3857L144.3337 365.7881zM144.8767 377.7334L144.8767 366.3311L144.3337 366.3311L144.3337 377.7334zM144.8767 399.4526L144.8767 378.2764L144.3337 378.2764L144.3337 399.4526zM144.8767 411.3979L144.8767 399.9956L144.3337 399.9956L144.3337 411.3979zM144.8767 433.1167L144.8767 411.9409L144.3337 411.9409L144.3337 433.1167zM144.8767 454.8354L144.8767 433.6597L144.3337 433.6597L144.3337 454.8354zM144.8767 476.5542L144.8767 455.3784L144.3337 455.3784L144.3337 476.5542zM144.8767 488.4995L144.8767 477.0972L144.3337 477.0972L144.3337 488.4995zM144.8767 500.4448L144.8767 489.0425L144.3337 489.0425L144.3337 500.4448zM144.8767 512.3901L144.8767 500.9878L144.3337 500.9878L144.3337 512.3901zM144.8767 524.3354L144.8767 512.9331L144.3337 512.9331L144.3337 524.3354zM144.8767 536.2808L144.8767 524.8784L144.3337 524.8784L144.3337 536.2808zM144.8767 557.9995L144.8767 536.8237L144.3337 536.8237L144.3337 557.9995zM74.83362 70.41309L74.83362 59.01074L74.29065 59.01074L74.29065 70.41309zM74.83362 82.3584L74.83362 70.95605L74.29065 70.95605L74.29065 82.3584zM74.83362 94.30371L74.83362 82.90137L74.29065 82.90137L74.29065 94.30371zM74.83362 106.249L74.83362 94.84668L74.29065 94.84668L74.29065 106.249zM74.83362 118.1943L74.83362 106.792L74.29065 106.792L74.29065 118.1943zM74.83362 139.9131L74.83362 118.7373L74.29065 118.7373L74.29065 139.9131zM74.83362 151.8584L74.83362 140.4561L74.29065 140.4561L74.29065 151.8584zM74.83362 173.5771L74.83362 152.4014L74.29065 152.4014L74.29065 173.5771zM74.83362 185.5225L74.83362 174.1201L74.29065 174.1201L74.29065 185.5225zM74.83362 197.4678L74.83362 186.0654L74.29065 186.0654L74.29065 197.4678zM74.83362 209.4131L74.83362 198.0107L74.29065 198.0107L74.29065 209.4131zM74.83362 231.1318L74.83362 209.9561L74.29065 209.9561L74.29065 231.1318zM74.83362 252.8506L74.83362 231.6748L74.29065 231.6748L74.29065 252.8506zM74.83362 264.7959L74.83362 253.3936L74.29065 253.3936L74.29065 264.7959zM74.83362 286.5146L74.83362 265.3389L74.29065 265.3389L74.29065 286.5146zM74.83362 308.2334L74.83362 287.0576L74.29065 287.0576L74.29065 308.2334zM74.83362 329.9521L74.83362 308.7764L74.29065 308.7764L74.29065 329.9521zM74.83362 341.8975L74.83362 330.4951L74.29065 330.4951L74.29065 341.8975zM74.83362 353.8428L74.83362 342.4404L74.29065 342.4404L74.29065 353.8428zM74.83362 365.7881L74.83362 354.3857L74.29065 354.3857L74.29065 365.7881zM74.83362 377.7334L74.83362 366.3311L74.29065 366.3311L74.29065 377.7334zM74.83362 399.4526L74.83362 378.2764L74.29065 378.2764L74.29065 399.4526zM74.83362 411.3979L74.83362 399.9956L74.29065 399.9956L74.29065 411.3979zM74.83362 433.1167L74.83362 411.9409L74.29065 411.9409L74.29065 433.1167zM74.83362 454.8354L74.83362 433.6597L74.29065 433.6597L74.29065 454.8354zM74.83362 476.5542L74.83362 455.3784L74.29065 455.3784L74.29065 476.5542zM74.83362 488.4995L74.83362 477.0972L74.29065 477.0972L74.29065 488.4995zM74.83362 500.4448L74.83362 489.0425L74.29065 489.0425L74.29065 500.4448zM74.83362 512.3901L74.83362 500.9878L74.29065 500.9878L74.29065 512.3901zM74.83362 524.3354L74.83362 512.9331L74.29065 512.9331L74.29065 524.3354zM74.83362 536.2808L74.83362 524.8784L74.29065 524.8784L74.29065 536.2808zM74.83362 557.9995L74.83362 536.8237L74.29065 536.8237L74.29065 557.9995zM50.39999 70.41309L50.39999 59.01074L49.85703 59.01074L49.85703 70.41309zM50.39999 82.3584L50.39999 70.95605L49.85703 70.95605L49.85703 82.3584zM50.39999 94.30371L50.39999 82.90137L49.85703 82.90137L49.85703 94.30371zM50.39999 106.249L50.39999 94.84668L49.85703 94.84668L49.85703 106.249zM50.39999 118.1943L50.39999 106.792L49.85703 106.792L49.85703 118.1943zM50.39999 139.9131L50.39999 118.7373L49.85703 118.7373L49.85703 139.9131zM50.39999 151.8584L50.39999 140.4561L49.85703 140.4561L49.85703 151.8584zM50.39999 173.5771L50.39999 152.4014L49.85703 152.4014L49.85703 173.5771zM50.39999 185.5225L50.39999 174.1201L49.85703 174.1201L49.85703 185.5225zM50.39999 197.4678L50.39999 186.0654L49.85703 186.0654L49.85703 197.4678zM50.39999 209.4131L50.39999 198.0107L49.85703 198.0107L49.85703 209.4131zM50.39999 231.1318L50.39999 209.9561L49.85703 209.9561L49.85703 231.1318zM50.39999 252.8506L50.39999 231.6748L49.85703 231.6748L49.85703 252.8506zM50.39999 264.7959L50.39999 253.3936L49.85703 253.3936L49.85703 264.7959zM50.39999 286.5146L50.39999 265.3389L49.85703 265.3389L49.85703 286.5146zM50.39999 308.2334L50.39999 287.0576L49.85703 287.0576L49.85703 308.2334zM50.39999 329.9521L50.39999 308.7764L49.85703 308.7764L49.85703 329.9521zM50.39999 341.8975L50.39999 330.4951L49.85703 330.4951L49.85703 341.8975zM50.39999 353.8428L50.39999 342.4404L49.85703 342.4404L49.85703 353.8428zM50.39999 365.7881L50.39999 354.3857L49.85703 354.3857L49.85703 365.7881zM50.39999 377.7334L50.39999 366.3311L49.85703 366.3311L49.85703 377.7334zM50.39999 399.4526L50.39999 378.2764L49.85703 378.2764L49.85703 399.4526zM50.39999 411.3979L50.39999 399.9956L49.85703 399.9956L49.85703 411.3979zM50.39999 433.1167L50.39999 411.9409L49.85703 411.9409L49.85703 433.1167zM50.39999 454.8354L50.39999 433.6597L49.85703 433.6597L49.85703 454.8354zM50.39999 476.5542L50.39999 455.3784L49.85703 455.3784L49.85703 476.5542zM50.39999 488.4995L50.39999 477.0972L49.85703 477.0972L49.85703 488.4995zM50.39999 500.4448L50.39999 489.0425L49.85703 489.0425L49.85703 500.4448zM50.39999 512.3901L50.39999 500.9878L49.85703 500.9878L49.85703 512.3901zM50.39999 524.3354L50.39999 512.9331L49.85703 512.9331L49.85703 524.3354zM50.39999 536.2808L50.39999 524.8784L49.85703 524.8784L49.85703 536.2808zM50.39999 557.9995L50.39999 536.8237L49.85703 536.8237L49.85703 557.9995z" stroke="none" fill="#000000" fill-rule="nonzero" fill-opacity="0.1490196" /><path id="254" transform="matrix(1 0 0 -1 0 612)" d="M419.6191 538.9707L558.0902 538.9707" stroke="#000000" stroke-width="0.5080263" fill="none" /><path id="407" transform="matrix(1 0 0 -1 0 612)" d="M419.6191 527.0254L630.8247 527.0254" stroke="#000000" stroke-width="0.5080263" fill="none" /><path id="533" transform="matrix(1 0 0 -1 0 612)" d="M419.6191 515.0801L599.3037 515.0801" stroke="#000000" stroke-width="0.5080263" fill="none" /><path id="601" transform="matrix(1 0 0 -1 0 612)" d="M419.6191 503.1348L479.9739 503.1348" stroke="#000000" stroke-width="0.5080263" fill="none" /><path id="748" transform="matrix(1 0 0 -1 0 612)" d="M419.6191 491.1895L615.5115 491.1895" stroke="#000000" stroke-width="0.5080263" fill="none" /><path id="891" transform="matrix(1 0 0 -1 0 612)" d="M419.6191 479.2441L613.7299 479.2441" stroke="#000000" stroke-width="0.5080263" fill="none" /><path id="1078" transform="matrix(1 0 0 -1 0 612)" d="M419.6191 467.001L670.3096 467.001" stroke="#000000" stroke-width="0.5080263" fill="none" /><path id="1088" transform="matrix(1 0 0 -1 0 612)" d="M419.6191 457.5254L453.4713 457.5254" stroke="#000000" stroke-width="0.5080263" fill="none" /><path id="1162" transform="matrix(1 0 0 -1 0 612)" d="M419.6191 435.8066L475.6035 435.8066" stroke="#000000" stroke-width="0.5080263" fill="none" /><path id="1387" transform="matrix(1 0 0 -1 0 612)" d="M419.6191 423.5635L666.5453 423.5635" stroke="#000000" stroke-width="0.5080263" fill="none" /><path id="1433" transform="matrix(1 0 0 -1 0 612)" d="M419.6191 414.0879L568.4609 414.0879" stroke="#000000" stroke-width="0.5080263" fill="none" /><path id="1567" transform="matrix(1 0 0 -1 0 612)" d="M419.6191 402.1426L598.3937 402.1426" stroke="#000000" stroke-width="0.5080263" fill="none" /><path id="1769" transform="matrix(1 0 0 -1 0 612)" d="M419.6191 389.8994L660.6703 389.8994" stroke="#000000" stroke-width="0.5080263" fill="none" /><path id="1808" transform="matrix(1 0 0 -1 0 612)" d="M419.6191 380.4233L538.6605 380.4233" stroke="#000000" stroke-width="0.5080263" fill="none" /><path id="1964" transform="matrix(1 0 0 -1 0 612)" d="M419.6191 368.478L646.0054 368.478" stroke="#000000" stroke-width="0.5080263" fill="none" /><path id="2147" transform="matrix(1 0 0 -1 0 612)" d="M419.6191 356.5327L685.0352 356.5327" stroke="#000000" stroke-width="0.5080263" fill="none" /><path id="2320" transform="matrix(1 0 0 -1 0 612)" d="M419.6191 344.5874L667.3983 344.5874" stroke="#000000" stroke-width="0.5080263" fill="none" /><path id="2483" transform="matrix(1 0 0 -1 0 612)" d="M419.6191 332.6421L648.7153 332.6421" stroke="#000000" stroke-width="0.5080263" fill="none" /><path id="2643" transform="matrix(1 0 0 -1 0 612)" d="M419.6191 310.9233L613.5253 310.9233" stroke="#000000" stroke-width="0.5080263" fill="none" /><path id="2822" transform="matrix(1 0 0 -1 0 612)" d="M419.6191 298.6807L647.3545 298.6807" stroke="#000000" stroke-width="0.5080263" fill="none" /><path id="2840" transform="matrix(1 0 0 -1 0 612)" d="M419.6191 289.2046L474.7545 289.2046" stroke="#000000" stroke-width="0.5080263" fill="none" /><path id="3035" transform="matrix(1 0 0 -1 0 612)" d="M419.6191 276.9619L677.6781 276.9619" stroke="#000000" stroke-width="0.5080263" fill="none" /><path id="3045" transform="matrix(1 0 0 -1 0 612)" d="M419.6191 267.4858L453.4713 267.4858" stroke="#000000" stroke-width="0.5080263" fill="none" /><path id="3117" transform="matrix(1 0 0 -1 0 612)" d="M419.6191 255.5405L502.5912 255.5405" stroke="#000000" stroke-width="0.5080263" fill="none" /><path id="3343" transform="matrix(1 0 0 -1 0 612)" d="M419.6191 243.2979L675.9419 243.2979" stroke="#000000" stroke-width="0.5080263" fill="none" /><path id="3383" transform="matrix(1 0 0 -1 0 612)" d="M419.6191 233.8218L544.8884 233.8218" stroke="#000000" stroke-width="0.5080263" fill="none" /><path id="3517" transform="matrix(1 0 0 -1 0 612)" d="M419.6191 212.103L585.0857 212.103" stroke="#000000" stroke-width="0.5080263" fill="none" /><path id="3633" transform="matrix(1 0 0 -1 0 612)" d="M419.6191 200.1577L578.934 200.1577" stroke="#000000" stroke-width="0.5080263" fill="none" /><path id="3777" transform="matrix(1 0 0 -1 0 612)" d="M419.6191 188.2124L611.9333 188.2124" stroke="#000000" stroke-width="0.5080263" fill="none" /><path id="3846" transform="matrix(1 0 0 -1 0 612)" d="M419.6191 176.2671L501.9848 176.2671" stroke="#000000" stroke-width="0.5080263" fill="none" /><path id="3936" transform="matrix(1 0 0 -1 0 612)" d="M419.6191 154.5483L503.4176 154.5483" stroke="#000000" stroke-width="0.5080263" fill="none" /><path id="4082" transform="matrix(1 0 0 -1 0 612)" d="M419.6191 142.603L609.5112 142.603" stroke="#000000" stroke-width="0.5080263" fill="none" /><path id="4277" transform="matrix(1 0 0 -1 0 612)" d="M419.6191 130.3604L650.7964 130.3604" stroke="#000000" stroke-width="0.5080263" fill="none" /><path id="4302" transform="matrix(1 0 0 -1 0 612)" d="M419.6191 120.8843L490.6628 120.8843" stroke="#000000" stroke-width="0.5080263" fill="none" /><path id="4393" transform="matrix(1 0 0 -1 0 612)" d="M419.6191 108.939L542.0532 108.939" stroke="#000000" stroke-width="0.5080263" fill="none" /><path id="4499" transform="matrix(1 0 0 -1 0 612)" d="M419.6191 96.99365L554.2621 96.99365" stroke="#000000" stroke-width="0.5080263" fill="none" /><path id="4567" transform="matrix(1 0 0 -1 0 612)" d="M419.6191 85.04834L495.8026 85.04834" stroke="#000000" stroke-width="0.5080263" fill="none" /><path id="4659" transform="matrix(1 0 0 -1 0 612)" d="M419.6191 73.10303L543.8271 73.10303" stroke="#000000" stroke-width="0.5080263" fill="none" /><path id="4800" transform="matrix(1 0 0 -1 0 612)" d="M419.6191 61.15771L608.1958 61.15771" stroke="#000000" stroke-width="0.5080263" fill="none" /></g></g></g></svg>