<svg xmlns="http://www.w3.org/2000/svg" xmlns:xlink="http://www.w3.org/1999/xlink" id="body_3" preserveAspectRatio="xMinYMin meet" viewBox="0 0 1056 816"><defs><clipPath id="1"><path id="" clip-rule="evenodd" transform="matrix(1 0 0 1 0 0)" d="M0 612L0 0L0 0L792 0L792 0L792 612L792 612L0 612z" /></clipPath><clipPath id="2"><path id="" clip-rule="evenodd" transform="matrix(1 0 0 1 0 0)" d="M49.31406 52.91418L742.6859 52.91418L742.6859 52.91418L742.6859 551.9031L742.6859 551.9031L49.31406 551.9031L49.31406 551.9031L49.31406 52.91418z" /></clipPath></defs><g transform="matrix(1.333333 0 0 1.333333 0 0)"><g clip-path="url(#1)"><g clip-path="url(#2)"><path id="101" transform="matrix(1 0 0 -1 0 612)" d="M49.85703 558.5428L742.1429 558.5428L742.1429 546.0546L49.85703 546.0546L49.85703 558.5428z" stroke="none" fill="#E0F7FA" fill-rule="nonzero" /><path id="102" transform="matrix(1 0 0 -1 0 612)" d="M49.85703 546.5975L742.1429 546.5975L742.1429 534.1093L49.85703 534.1093L49.85703 546.5975z" stroke="none" fill="#FFFFFF" fill-rule="nonzero" /><path id="103" transform="matrix(1 0 0 -1 0 612)" d="M49.85703 534.6522L742.1429 534.6522L742.1429 503.16L49.85703 503.16L49.85703 534.6522z" stroke="none" fill="#E0F7FA" fill-rule="nonzero" /><path id="104" transform="matrix(1 0 0 -1 0 612)" d="M49.85703 503.703L742.1429 503.703L742.1429 480.3552L49.85703 480.3552L49.85703 503.703z" stroke="none" fill="#FFFFFF" fill-rule="nonzero" /><path id="105" transform="matrix(1 0 0 -1 0 612)" d="M49.85703 480.8982L742.1429 480.8982L742.1429 468.4099L49.85703 468.4099L49.85703 480.8982z" stroke="none" fill="#E0F7FA" fill-rule="nonzero" /><path id="106" transform="matrix(1 0 0 -1 0 612)" d="M49.85703 468.9529L742.1429 468.9529L742.1429 456.4646L49.85703 456.4646L49.85703 468.9529z" stroke="none" fill="#FFFFFF" fill-rule="nonzero" /><path id="107" transform="matrix(1 0 0 -1 0 612)" d="M49.85703 457.0076L742.1429 457.0076L742.1429 444.5193L49.85703 444.5193L49.85703 457.0076z" stroke="none" fill="#E0F7FA" fill-rule="nonzero" /><path id="108" transform="matrix(1 0 0 -1 0 612)" d="M49.85703 445.0623L742.1429 445.0623L742.1429 432.574L49.85703 432.574L49.85703 445.0623z" stroke="none" fill="#FFFFFF" fill-rule="nonzero" /><path id="109" transform="matrix(1 0 0 -1 0 612)" d="M49.85703 433.1169L742.1429 433.1169L742.1429 410.8552L49.85703 410.8552L49.85703 433.1169z" stroke="none" fill="#E0F7FA" fill-rule="nonzero" /><path id="110" transform="matrix(1 0 0 -1 0 612)" d="M49.85703 411.3982L742.1429 411.3982L742.1429 398.9099L49.85703 398.9099L49.85703 411.3982z" stroke="none" fill="#FFFFFF" fill-rule="nonzero" /><path id="111" transform="matrix(1 0 0 -1 0 612)" d="M49.85703 399.4529L742.1429 399.4529L742.1429 377.191L49.85703 377.191L49.85703 399.4529z" stroke="none" fill="#E0F7FA" fill-rule="nonzero" /><path id="112" transform="matrix(1 0 0 -1 0 612)" d="M49.85703 377.734L742.1429 377.734L742.1429 355.4723L49.85703 355.4723L49.85703 377.734z" stroke="none" fill="#FFFFFF" fill-rule="nonzero" /><path id="113" transform="matrix(1 0 0 -1 0 612)" d="M49.85703 356.0153L742.1429 356.0153L742.1429 343.527L49.85703 343.527L49.85703 356.0153z" stroke="none" fill="#E0F7FA" fill-rule="nonzero" /><path id="114" transform="matrix(1 0 0 -1 0 612)" d="M49.85703 344.0699L742.1429 344.0699L742.1429 321.8082L49.85703 321.8082L49.85703 344.0699z" stroke="none" fill="#FFFFFF" fill-rule="nonzero" /><path id="115" transform="matrix(1 0 0 -1 0 612)" d="M49.85703 322.3512L742.1429 322.3512L742.1429 309.8629L49.85703 309.8629L49.85703 322.3512z" stroke="none" fill="#E0F7FA" fill-rule="nonzero" /><path id="116" transform="matrix(1 0 0 -1 0 612)" d="M49.85703 310.4059L742.1429 310.4059L742.1429 297.9176L49.85703 297.9176L49.85703 310.4059z" stroke="none" fill="#FFFFFF" fill-rule="nonzero" /><path id="117" transform="matrix(1 0 0 -1 0 612)" d="M49.85703 298.4606L742.1429 298.4606L742.1429 285.9722L49.85703 285.9722L49.85703 298.4606z" stroke="none" fill="#E0F7FA" fill-rule="nonzero" /><path id="118" transform="matrix(1 0 0 -1 0 612)" d="M49.85703 286.5151L742.1429 286.5151L742.1429 274.0269L49.85703 274.0269L49.85703 286.5151z" stroke="none" fill="#FFFFFF" fill-rule="nonzero" /><path id="119" transform="matrix(1 0 0 -1 0 612)" d="M49.85703 274.5698L742.1429 274.5698L742.1429 252.3081L49.85703 252.3081L49.85703 274.5698z" stroke="none" fill="#E0F7FA" fill-rule="nonzero" /><path id="120" transform="matrix(1 0 0 -1 0 612)" d="M49.85703 252.8511L742.1429 252.8511L742.1429 221.3589L49.85703 221.3589L49.85703 252.8511z" stroke="none" fill="#FFFFFF" fill-rule="nonzero" /><path id="121" transform="matrix(1 0 0 -1 0 612)" d="M49.85703 221.9019L742.1429 221.9019L742.1429 209.4136L49.85703 209.4136L49.85703 221.9019z" stroke="none" fill="#E0F7FA" fill-rule="nonzero" /><path id="122" transform="matrix(1 0 0 -1 0 612)" d="M49.85703 209.9565L742.1429 209.9565L742.1429 197.4683L49.85703 197.4683L49.85703 209.9565z" stroke="none" fill="#FFFFFF" fill-rule="nonzero" /><path id="123" transform="matrix(1 0 0 -1 0 612)" d="M49.85703 198.0112L742.1429 198.0112L742.1429 185.5228L49.85703 185.5228L49.85703 198.0112z" stroke="none" fill="#E0F7FA" fill-rule="nonzero" /><path id="124" transform="matrix(1 0 0 -1 0 612)" d="M49.85703 186.0658L742.1429 186.0658L742.1429 173.5775L49.85703 173.5775L49.85703 186.0658z" stroke="none" fill="#FFFFFF" fill-rule="nonzero" /><path id="125" transform="matrix(1 0 0 -1 0 612)" d="M49.85703 174.1205L742.1429 174.1205L742.1429 161.6322L49.85703 161.6322L49.85703 174.1205z" stroke="none" fill="#E0F7FA" fill-rule="nonzero" /><path id="126" transform="matrix(1 0 0 -1 0 612)" d="M49.85703 162.1752L742.1429 162.1752L742.1429 139.9135L49.85703 139.9135L49.85703 162.1752z" stroke="none" fill="#FFFFFF" fill-rule="nonzero" /><path id="127" transform="matrix(1 0 0 -1 0 612)" d="M49.85703 140.4564L742.1429 140.4564L742.1429 118.1947L49.85703 118.1947L49.85703 140.4564z" stroke="none" fill="#E0F7FA" fill-rule="nonzero" /><path id="128" transform="matrix(1 0 0 -1 0 612)" d="M49.85703 118.7377L742.1429 118.7377L742.1429 96.47595L49.85703 96.47595L49.85703 118.7377z" stroke="none" fill="#FFFFFF" fill-rule="nonzero" /><path id="129" transform="matrix(1 0 0 -1 0 612)" d="M49.85703 97.01892L742.1429 97.01892L742.1429 84.53052L49.85703 84.53052L49.85703 97.01892z" stroke="none" fill="#E0F7FA" fill-rule="nonzero" /><path id="130" transform="matrix(1 0 0 -1 0 612)" d="M49.85703 85.07349L742.1429 85.07349L742.1429 72.58521L49.85703 72.58521L49.85703 85.07349z" stroke="none" fill="#FFFFFF" fill-rule="nonzero" /><path id="131" transform="matrix(1 0 0 -1 0 612)" d="M49.85703 73.12817L742.1429 73.12817L742.1429 60.63989L49.85703 60.63989L49.85703 73.12817z" stroke="none" fill="#E0F7FA" fill-rule="nonzero" /><path id="132" transform="matrix(1 0 0 -1 0 612)" d="M49.85703 61.18286L742.1429 61.18286L742.1429 60.63989L49.85703 60.63989zM49.85703 73.12817L742.1429 73.12817L742.1429 72.58521L49.85703 72.58521zM49.85703 85.07349L742.1429 85.07349L742.1429 84.53052L49.85703 84.53052zM49.85703 97.01892L742.1429 97.01892L742.1429 96.47595L49.85703 96.47595zM49.85703 118.7377L742.1429 118.7377L742.1429 118.1947L49.85703 118.1947zM49.85703 140.4564L742.1429 140.4564L742.1429 139.9135L49.85703 139.9135zM49.85703 162.1752L742.1429 162.1752L742.1429 161.6322L49.85703 161.6322zM49.85703 174.1205L742.1429 174.1205L742.1429 173.5775L49.85703 173.5775zM49.85703 186.0658L742.1429 186.0658L742.1429 185.5228L49.85703 185.5228zM49.85703 198.0112L742.1429 198.0112L742.1429 197.4683L49.85703 197.4683zM49.85703 209.9565L742.1429 209.9565L742.1429 209.4136L49.85703 209.4136zM49.85703 221.9019L742.1429 221.9019L742.1429 221.3589L49.85703 221.3589zM49.85703 252.8511L742.1429 252.8511L742.1429 252.3081L49.85703 252.3081zM49.85703 274.5698L742.1429 274.5698L742.1429 274.0269L49.85703 274.0269zM49.85703 286.5151L742.1429 286.5151L742.1429 285.9722L49.85703 285.9722zM49.85703 298.4606L742.1429 298.4606L742.1429 297.9176L49.85703 297.9176zM49.85703 310.4059L742.1429 310.4059L742.1429 309.8629L49.85703 309.8629zM49.85703 322.3512L742.1429 322.3512L742.1429 321.8082L49.85703 321.8082zM49.85703 344.0699L742.1429 344.0699L742.1429 343.527L49.85703 343.527zM49.85703 356.0153L742.1429 356.0153L742.1429 355.4723L49.85703 355.4723zM49.85703 377.734L742.1429 377.734L742.1429 377.191L49.85703 377.191zM49.85703 399.4529L742.1429 399.4529L742.1429 398.9099L49.85703 398.9099zM49.85703 411.3982L742.1429 411.3982L742.1429 410.8552L49.85703 410.8552zM49.85703 433.1169L742.1429 433.1169L742.1429 432.574L49.85703 432.574zM49.85703 445.0623L742.1429 445.0623L742.1429 444.5193L49.85703 444.5193zM49.85703 457.0076L742.1429 457.0076L742.1429 456.4646L49.85703 456.4646zM49.85703 468.9529L742.1429 468.9529L742.1429 468.4099L49.85703 468.4099zM49.85703 480.8982L742.1429 480.8982L742.1429 480.3552L49.85703 480.3552zM49.85703 503.703L742.1429 503.703L742.1429 503.16L49.85703 503.16zM49.85703 534.6522L742.1429 534.6522L742.1429 534.1093L49.85703 534.1093zM49.85703 546.5975L742.1429 546.5975L742.1429 546.0546L49.85703 546.0546zM49.85703 558.5428L742.1429 558.5428L742.1429 557.9999L49.85703 557.9999zM742.1429 72.58521L742.1429 61.18286L741.6 61.18286L741.6 72.58521zM742.1429 84.53052L742.1429 73.12817L741.6 73.12817L741.6 84.53052zM742.1429 96.47595L742.1429 85.07349L741.6 85.07349L741.6 96.47595zM742.1429 118.1947L742.1429 97.01892L741.6 97.01892L741.6 118.1947zM742.1429 139.9135L742.1429 118.7377L741.6 118.7377L741.6 139.9135zM742.1429 161.6322L742.1429 140.4564L741.6 140.4564L741.6 161.6322zM742.1429 173.5775L742.1429 162.1752L741.6 162.1752L741.6 173.5775zM742.1429 185.5228L742.1429 174.1205L741.6 174.1205L741.6 185.5228zM742.1429 197.4683L742.1429 186.0658L741.6 186.0658L741.6 197.4683zM742.1429 209.4136L742.1429 198.0112L741.6 198.0112L741.6 209.4136zM742.1429 221.3589L742.1429 209.9565L741.6 209.9565L741.6 221.3589zM742.1429 252.3081L742.1429 221.9019L741.6 221.9019L741.6 252.3081zM742.1429 274.0269L742.1429 252.8511L741.6 252.8511L741.6 274.0269zM742.1429 285.9722L742.1429 274.5698L741.6 274.5698L741.6 285.9722zM742.1429 297.9176L742.1429 286.5151L741.6 286.5151L741.6 297.9176zM742.1429 309.8629L742.1429 298.4606L741.6 298.4606L741.6 309.8629zM742.1429 321.8082L742.1429 310.4059L741.6 310.4059L741.6 321.8082zM742.1429 343.527L742.1429 322.3512L741.6 322.3512L741.6 343.527zM742.1429 355.4723L742.1429 344.0699L741.6 344.0699L741.6 355.4723zM742.1429 377.191L742.1429 356.0153L741.6 356.0153L741.6 377.191zM742.1429 398.9099L742.1429 377.734L741.6 377.734L741.6 398.9099zM742.1429 410.8552L742.1429 399.4529L741.6 399.4529L741.6 410.8552zM742.1429 432.574L742.1429 411.3982L741.6 411.3982L741.6 432.574zM742.1429 444.5193L742.1429 433.1169L741.6 433.1169L741.6 444.5193zM742.1429 456.4646L742.1429 445.0623L741.6 445.0623L741.6 456.4646zM742.1429 468.4099L742.1429 457.0076L741.6 457.0076L741.6 468.4099zM742.1429 480.3552L742.1429 468.9529L741.6 468.9529L741.6 480.3552zM742.1429 503.16L742.1429 480.8982L741.6 480.8982L741.6 503.16zM742.1429 534.1093L742.1429 503.703L741.6 503.703L741.6 534.1093zM742.1429 546.0546L742.1429 534.6522L741.6 534.6522L741.6 546.0546zM742.1429 557.9999L742.1429 546.5975L741.6 546.5975L741.6 557.9999zM691.1039 72.58521L691.1039 61.18286L690.5609 61.18286L690.5609 72.58521zM691.1039 84.53052L691.1039 73.12817L690.5609 73.12817L690.5609 84.53052zM691.1039 96.47595L691.1039 85.07349L690.5609 85.07349L690.5609 96.47595zM691.1039 118.1947L691.1039 97.01892L690.5609 97.01892L690.5609 118.1947zM691.1039 139.9135L691.1039 118.7377L690.5609 118.7377L690.5609 139.9135zM691.1039 161.6322L691.1039 140.4564L690.5609 140.4564L690.5609 161.6322zM691.1039 173.5775L691.1039 162.1752L690.5609 162.1752L690.5609 173.5775zM691.1039 185.5228L691.1039 174.1205L690.5609 174.1205L690.5609 185.5228zM691.1039 197.4683L691.1039 186.0658L690.5609 186.0658L690.5609 197.4683zM691.1039 209.4136L691.1039 198.0112L690.5609 198.0112L690.5609 209.4136zM691.1039 221.3589L691.1039 209.9565L690.5609 209.9565L690.5609 221.3589zM691.1039 252.3081L691.1039 221.9019L690.5609 221.9019L690.5609 252.3081zM691.1039 274.0269L691.1039 252.8511L690.5609 252.8511L690.5609 274.0269zM691.1039 285.9722L691.1039 274.5698L690.5609 274.5698L690.5609 285.9722zM691.1039 297.9176L691.1039 286.5151L690.5609 286.5151L690.5609 297.9176zM691.1039 309.8629L691.1039 298.4606L690.5609 298.4606L690.5609 309.8629zM691.1039 321.8082L691.1039 310.4059L690.5609 310.4059L690.5609 321.8082zM691.1039 343.527L691.1039 322.3512L690.5609 322.3512L690.5609 343.527zM691.1039 355.4723L691.1039 344.0699L690.5609 344.0699L690.5609 355.4723zM691.1039 377.191L691.1039 356.0153L690.5609 356.0153L690.5609 377.191zM691.1039 398.9099L691.1039 377.734L690.5609 377.734L690.5609 398.9099zM691.1039 410.8552L691.1039 399.4529L690.5609 399.4529L690.5609 410.8552zM691.1039 432.574L691.1039 411.3982L690.5609 411.3982L690.5609 432.574zM691.1039 444.5193L691.1039 433.1169L690.5609 433.1169L690.5609 444.5193zM691.1039 456.4646L691.1039 445.0623L690.5609 445.0623L690.5609 456.4646zM691.1039 468.4099L691.1039 457.0076L690.5609 457.0076L690.5609 468.4099zM691.1039 480.3552L691.1039 468.9529L690.5609 468.9529L690.5609 480.3552zM691.1039 503.16L691.1039 480.8982L690.5609 480.8982L690.5609 503.16zM691.1039 534.1093L691.1039 503.703L690.5609 503.703L690.5609 534.1093zM691.1039 546.0546L691.1039 534.6522L690.5609 534.6522L690.5609 546.0546zM691.1039 557.9999L691.1039 546.5975L690.5609 546.5975L690.5609 557.9999zM417.9902 72.58521L417.9902 61.18286L417.4473 61.18286L417.4473 72.58521zM417.9902 84.53052L417.9902 73.12817L417.4473 73.12817L417.4473 84.53052zM417.9902 96.47595L417.9902 85.07349L417.4473 85.07349L417.4473 96.47595zM417.9902 118.1947L417.9902 97.01892L417.4473 97.01892L417.4473 118.1947zM417.9902 139.9135L417.9902 118.7377L417.4473 118.7377L417.4473 139.9135zM417.9902 161.6322L417.9902 140.4564L417.4473 140.4564L417.4473 161.6322zM417.9902 173.5775L417.9902 162.1752L417.4473 162.1752L417.4473 173.5775zM417.9902 185.5228L417.9902 174.1205L417.4473 174.1205L417.4473 185.5228zM417.9902 197.4683L417.9902 186.0658L417.4473 186.0658L417.4473 197.4683zM417.9902 209.4136L417.9902 198.0112L417.4473 198.0112L417.4473 209.4136zM417.9902 221.3589L417.9902 209.9565L417.4473 209.9565L417.4473 221.3589zM417.9902 252.3081L417.9902 221.9019L417.4473 221.9019L417.4473 252.3081zM417.9902 274.0269L417.9902 252.8511L417.4473 252.8511L417.4473 274.0269zM417.9902 285.9722L417.9902 274.5698L417.4473 274.5698L417.4473 285.9722zM417.9902 297.9176L417.9902 286.5151L417.4473 286.5151L417.4473 297.9176zM417.9902 309.8629L417.9902 298.4606L417.4473 298.4606L417.4473 309.8629zM417.9902 321.8082L417.9902 310.4059L417.4473 310.4059L417.4473 321.8082zM417.9902 343.527L417.9902 322.3512L417.4473 322.3512L417.4473 343.527zM417.9902 355.4723L417.9902 344.0699L417.4473 344.0699L417.4473 355.4723zM417.9902 377.191L417.9902 356.0153L417.4473 356.0153L417.4473 377.191zM417.9902 398.9099L417.9902 377.734L417.4473 377.734L417.4473 398.9099zM417.9902 410.8552L417.9902 399.4529L417.4473 399.4529L417.4473 410.8552zM417.9902 432.574L417.9902 411.3982L417.4473 411.3982L417.4473 432.574zM417.9902 444.5193L417.9902 433.1169L417.4473 433.1169L417.4473 444.5193zM417.9902 456.4646L417.9902 445.0623L417.4473 445.0623L417.4473 456.4646zM417.9902 468.4099L417.9902 457.0076L417.4473 457.0076L417.4473 468.4099zM417.9902 480.3552L417.9902 468.9529L417.4473 468.9529L417.4473 480.3552zM417.9902 503.16L417.9902 480.8982L417.4473 480.8982L417.4473 503.16zM417.9902 534.1093L417.9902 503.703L417.4473 503.703L417.4473 534.1093zM417.9902 546.0546L417.9902 534.6522L417.4473 534.6522L417.4473 546.0546zM417.9902 557.9999L417.9902 546.5975L417.4473 546.5975L417.4473 557.9999zM144.8767 72.58521L144.8767 61.18286L144.3337 61.18286L144.3337 72.58521zM144.8767 84.53052L144.8767 73.12817L144.3337 73.12817L144.3337 84.53052zM144.8767 96.47595L144.8767 85.07349L144.3337 85.07349L144.3337 96.47595zM144.8767 118.1947L144.8767 97.01892L144.3337 97.01892L144.3337 118.1947zM144.8767 139.9135L144.8767 118.7377L144.3337 118.7377L144.3337 139.9135zM144.8767 161.6322L144.8767 140.4564L144.3337 140.4564L144.3337 161.6322zM144.8767 173.5775L144.8767 162.1752L144.3337 162.1752L144.3337 173.5775zM144.8767 185.5228L144.8767 174.1205L144.3337 174.1205L144.3337 185.5228zM144.8767 197.4683L144.8767 186.0658L144.3337 186.0658L144.3337 197.4683zM144.8767 209.4136L144.8767 198.0112L144.3337 198.0112L144.3337 209.4136zM144.8767 221.3589L144.8767 209.9565L144.3337 209.9565L144.3337 221.3589zM144.8767 252.3081L144.8767 221.9019L144.3337 221.9019L144.3337 252.3081zM144.8767 274.0269L144.8767 252.8511L144.3337 252.8511L144.3337 274.0269zM144.8767 285.9722L144.8767 274.5698L144.3337 274.5698L144.3337 285.9722zM144.8767 297.9176L144.8767 286.5151L144.3337 286.5151L144.3337 297.9176zM144.8767 309.8629L144.8767 298.4606L144.3337 298.4606L144.3337 309.8629zM144.8767 321.8082L144.8767 310.4059L144.3337 310.4059L144.3337 321.8082zM144.8767 343.527L144.8767 322.3512L144.3337 322.3512L144.3337 343.527zM144.8767 355.4723L144.8767 344.0699L144.3337 344.0699L144.3337 355.4723zM144.8767 377.191L144.8767 356.0153L144.3337 356.0153L144.3337 377.191zM144.8767 398.9099L144.8767 377.734L144.3337 377.734L144.3337 398.9099zM144.8767 410.8552L144.8767 399.4529L144.3337 399.4529L144.3337 410.8552zM144.8767 432.574L144.8767 411.3982L144.3337 411.3982L144.3337 432.574zM144.8767 444.5193L144.8767 433.1169L144.3337 433.1169L144.3337 444.5193zM144.8767 456.4646L144.8767 445.0623L144.3337 445.0623L144.3337 456.4646zM144.8767 468.4099L144.8767 457.0076L144.3337 457.0076L144.3337 468.4099zM144.8767 480.3552L144.8767 468.9529L144.3337 468.9529L144.3337 480.3552zM144.8767 503.16L144.8767 480.8982L144.3337 480.8982L144.3337 503.16zM144.8767 534.1093L144.8767 503.703L144.3337 503.703L144.3337 534.1093zM144.8767 546.0546L144.8767 534.6522L144.3337 534.6522L144.3337 546.0546zM144.8767 557.9999L144.8767 546.5975L144.3337 546.5975L144.3337 557.9999zM74.83362 72.58521L74.83362 61.18286L74.29065 61.18286L74.29065 72.58521zM74.83362 84.53052L74.83362 73.12817L74.29065 73.12817L74.29065 84.53052zM74.83362 96.47595L74.83362 85.07349L74.29065 85.07349L74.29065 96.47595zM74.83362 118.1947L74.83362 97.01892L74.29065 97.01892L74.29065 118.1947zM74.83362 139.9135L74.83362 118.7377L74.29065 118.7377L74.29065 139.9135zM74.83362 161.6322L74.83362 140.4564L74.29065 140.4564L74.29065 161.6322zM74.83362 173.5775L74.83362 162.1752L74.29065 162.1752L74.29065 173.5775zM74.83362 185.5228L74.83362 174.1205L74.29065 174.1205L74.29065 185.5228zM74.83362 197.4683L74.83362 186.0658L74.29065 186.0658L74.29065 197.4683zM74.83362 209.4136L74.83362 198.0112L74.29065 198.0112L74.29065 209.4136zM74.83362 221.3589L74.83362 209.9565L74.29065 209.9565L74.29065 221.3589zM74.83362 252.3081L74.83362 221.9019L74.29065 221.9019L74.29065 252.3081zM74.83362 274.0269L74.83362 252.8511L74.29065 252.8511L74.29065 274.0269zM74.83362 285.9722L74.83362 274.5698L74.29065 274.5698L74.29065 285.9722zM74.83362 297.9176L74.83362 286.5151L74.29065 286.5151L74.29065 297.9176zM74.83362 309.8629L74.83362 298.4606L74.29065 298.4606L74.29065 309.8629zM74.83362 321.8082L74.83362 310.4059L74.29065 310.4059L74.29065 321.8082zM74.83362 343.527L74.83362 322.3512L74.29065 322.3512L74.29065 343.527zM74.83362 355.4723L74.83362 344.0699L74.29065 344.0699L74.29065 355.4723zM74.83362 377.191L74.83362 356.0153L74.29065 356.0153L74.29065 377.191zM74.83362 398.9099L74.83362 377.734L74.29065 377.734L74.29065 398.9099zM74.83362 410.8552L74.83362 399.4529L74.29065 399.4529L74.29065 410.8552zM74.83362 432.574L74.83362 411.3982L74.29065 411.3982L74.29065 432.574zM74.83362 444.5193L74.83362 433.1169L74.29065 433.1169L74.29065 444.5193zM74.83362 456.4646L74.83362 445.0623L74.29065 445.0623L74.29065 456.4646zM74.83362 468.4099L74.83362 457.0076L74.29065 457.0076L74.29065 468.4099zM74.83362 480.3552L74.83362 468.9529L74.29065 468.9529L74.29065 480.3552zM74.83362 503.16L74.83362 480.8982L74.29065 480.8982L74.29065 503.16zM74.83362 534.1093L74.83362 503.703L74.29065 503.703L74.29065 534.1093zM74.83362 546.0546L74.83362 534.6522L74.29065 534.6522L74.29065 546.0546zM74.83362 557.9999L74.83362 546.5975L74.29065 546.5975L74.29065 557.9999zM50.39999 72.58521L50.39999 61.18286L49.85703 61.18286L49.85703 72.58521zM50.39999 84.53052L50.39999 73.12817L49.85703 73.12817L49.85703 84.53052zM50.39999 96.47595L50.39999 85.07349L49.85703 85.07349L49.85703 96.47595zM50.39999 118.1947L50.39999 97.01892L49.85703 97.01892L49.85703 118.1947zM50.39999 139.9135L50.39999 118.7377L49.85703 118.7377L49.85703 139.9135zM50.39999 161.6322L50.39999 140.4564L49.85703 140.4564L49.85703 161.6322zM50.39999 173.5775L50.39999 162.1752L49.85703 162.1752L49.85703 173.5775zM50.39999 185.5228L50.39999 174.1205L49.85703 174.1205L49.85703 185.5228zM50.39999 197.4683L50.39999 186.0658L49.85703 186.0658L49.85703 197.4683zM50.39999 209.4136L50.39999 198.0112L49.85703 198.0112L49.85703 209.4136zM50.39999 221.3589L50.39999 209.9565L49.85703 209.9565L49.85703 221.3589zM50.39999 252.3081L50.39999 221.9019L49.85703 221.9019L49.85703 252.3081zM50.39999 274.0269L50.39999 252.8511L49.85703 252.8511L49.85703 274.0269zM50.39999 285.9722L50.39999 274.5698L49.85703 274.5698L49.85703 285.9722zM50.39999 297.9176L50.39999 286.5151L49.85703 286.5151L49.85703 297.9176zM50.39999 309.8629L50.39999 298.4606L49.85703 298.4606L49.85703 309.8629zM50.39999 321.8082L50.39999 310.4059L49.85703 310.4059L49.85703 321.8082zM50.39999 343.527L50.39999 322.3512L49.85703 322.3512L49.85703 343.527zM50.39999 355.4723L50.39999 344.0699L49.85703 344.0699L49.85703 355.4723zM50.39999 377.191L50.39999 356.0153L49.85703 356.0153L49.85703 377.191zM50.39999 398.9099L50.39999 377.734L49.85703 377.734L49.85703 398.9099zM50.39999 410.8552L50.39999 399.4529L49.85703 399.4529L49.85703 410.8552zM50.39999 432.574L50.39999 411.3982L49.85703 411.3982L49.85703 432.574zM50.39999 444.5193L50.39999 433.1169L49.85703 433.1169L49.85703 444.5193zM50.39999 456.4646L50.39999 445.0623L49.85703 445.0623L49.85703 456.4646zM50.39999 468.4099L50.39999 457.0076L49.85703 457.0076L49.85703 468.4099zM50.39999 480.3552L50.39999 468.9529L49.85703 468.9529L49.85703 480.3552zM50.39999 503.16L50.39999 480.8982L49.85703 480.8982L49.85703 503.16zM50.39999 534.1093L50.39999 503.703L49.85703 503.703L49.85703 534.1093zM50.39999 546.0546L50.39999 534.6522L49.85703 534.6522L49.85703 546.0546zM50.39999 557.9999L50.39999 546.5975L49.85703 546.5975L49.85703 557.9999z" stroke="none" fill="#000000" fill-rule="nonzero" fill-opacity="0.1490196" /><path id="289" transform="matrix(1 0 0 -1 0 612)" d="M419.6191 548.7446L645.937 548.7446" stroke="#000000" stroke-width="0.5080263" fill="none" /><path id="447" transform="matrix(1 0 0 -1 0 612)" d="M419.6191 536.7993L624.1006 536.7993" stroke="#000000" stroke-width="0.5080263" fill="none" /><path id="663" transform="matrix(1 0 0 -1 0 612)" d="M419.6191 515.326L674.6455 515.326" stroke="#000000" stroke-width="0.5080263" fill="none" /><path id="671" transform="matrix(1 0 0 -1 0 612)" d="M419.6191 505.8501L442.5587 505.8501" stroke="#000000" stroke-width="0.5080263" fill="none" /><path id="931" transform="matrix(1 0 0 -1 0 612)" d="M419.6191 493.7267L676.7377 493.7267" stroke="#000000" stroke-width="0.5080263" fill="none" /><path id="1008" transform="matrix(1 0 0 -1 0 612)" d="M419.6191 483.0453L657.5281 483.0453" stroke="#000000" stroke-width="0.5080263" fill="none" /><path id="1010" transform="matrix(1 0 0 -1 0 612)" d="M657.5281 483.1022L665.2909 483.1022" stroke="#000000" stroke-width="0.5686861" fill="none" /><path id="1100" transform="matrix(1 0 0 -1 0 612)" d="M419.6191 471.1L540.5864 471.1" stroke="#000000" stroke-width="0.5080263" fill="none" /><path id="1255" transform="matrix(1 0 0 -1 0 612)" d="M419.6191 459.1547L639.228 459.1547" stroke="#000000" stroke-width="0.5080263" fill="none" /><path id="1420" transform="matrix(1 0 0 -1 0 612)" d="M419.6191 447.2094L648.0863 447.2094" stroke="#000000" stroke-width="0.5080263" fill="none" /><path id="1497" transform="matrix(1 0 0 -1 0 612)" d="M419.6191 435.264L513.03 435.264" stroke="#000000" stroke-width="0.5080263" fill="none" /><path id="1685" transform="matrix(1 0 0 -1 0 612)" d="M419.6191 423.0212L667.4969 423.0212" stroke="#000000" stroke-width="0.5080263" fill="none" /><path id="1694" transform="matrix(1 0 0 -1 0 612)" d="M419.6191 413.5453L450.7081 413.5453" stroke="#000000" stroke-width="0.5080263" fill="none" /><path id="1805" transform="matrix(1 0 0 -1 0 612)" d="M419.6191 401.6L569.8977 401.6" stroke="#000000" stroke-width="0.5080263" fill="none" /><path id="2025" transform="matrix(1 0 0 -1 0 612)" d="M419.6191 389.3572L681.6993 389.3572" stroke="#000000" stroke-width="0.5080263" fill="none" /><path id="2051" transform="matrix(1 0 0 -1 0 612)" d="M419.6191 379.8811L502.6178 379.8811" stroke="#000000" stroke-width="0.5080263" fill="none" /><path id="2236" transform="matrix(1 0 0 -1 0 612)" d="M419.6191 367.6383L666.735 367.6383" stroke="#000000" stroke-width="0.5080263" fill="none" /><path id="2246" transform="matrix(1 0 0 -1 0 612)" d="M419.6191 358.1624L450.3253 358.1624" stroke="#000000" stroke-width="0.5080263" fill="none" /><path id="2348" transform="matrix(1 0 0 -1 0 612)" d="M419.6191 346.217L560.5011 346.217" stroke="#000000" stroke-width="0.5080263" fill="none" /><path id="2537" transform="matrix(1 0 0 -1 0 612)" d="M419.6191 333.9742L686.6648 333.9742" stroke="#000000" stroke-width="0.5080263" fill="none" /><path id="2555" transform="matrix(1 0 0 -1 0 612)" d="M419.6191 324.4983L475.1259 324.4983" stroke="#000000" stroke-width="0.5080263" fill="none" /><path id="2733" transform="matrix(1 0 0 -1 0 612)" d="M419.6191 312.553L663.1075 312.553" stroke="#000000" stroke-width="0.5080263" fill="none" /><path id="2863" transform="matrix(1 0 0 -1 0 612)" d="M419.6191 300.6077L600.6036 300.6077" stroke="#000000" stroke-width="0.5080263" fill="none" /><path id="2985" transform="matrix(1 0 0 -1 0 612)" d="M419.6191 288.6622L578.8772 288.6622" stroke="#000000" stroke-width="0.5080263" fill="none" /><path id="3135" transform="matrix(1 0 0 -1 0 612)" d="M419.6191 276.7169L627.2087 276.7169" stroke="#000000" stroke-width="0.5080263" fill="none" /><path id="3290" transform="matrix(1 0 0 -1 0 612)" d="M419.6191 254.9982L616.3376 254.9982" stroke="#000000" stroke-width="0.5080263" fill="none" /><path id="3490" transform="matrix(1 0 0 -1 0 612)" d="M419.6191 224.049L663.009 224.049" stroke="#000000" stroke-width="0.5080263" fill="none" /><path id="3557" transform="matrix(1 0 0 -1 0 612)" d="M419.6191 212.1036L499.9075 212.1036" stroke="#000000" stroke-width="0.5080263" fill="none" /><path id="3698" transform="matrix(1 0 0 -1 0 612)" d="M419.6191 200.1583L609.2837 200.1583" stroke="#000000" stroke-width="0.5080263" fill="none" /><path id="3819" transform="matrix(1 0 0 -1 0 612)" d="M419.6191 188.2129L587.8944 188.2129" stroke="#000000" stroke-width="0.5080263" fill="none" /><path id="3952" transform="matrix(1 0 0 -1 0 612)" d="M419.6191 176.2676L576.3489 176.2676" stroke="#000000" stroke-width="0.5080263" fill="none" /><path id="4123" transform="matrix(1 0 0 -1 0 612)" d="M419.6191 164.3223L670.8704 164.3223" stroke="#000000" stroke-width="0.5080263" fill="none" /><path id="4327" transform="matrix(1 0 0 -1 0 612)" d="M419.6191 152.0795L687.2524 152.0795" stroke="#000000" stroke-width="0.5080263" fill="none" /><path id="4335" transform="matrix(1 0 0 -1 0 612)" d="M419.6191 142.6035L447.4673 142.6035" stroke="#000000" stroke-width="0.5080263" fill="none" /><path id="4472" transform="matrix(1 0 0 -1 0 612)" d="M419.6191 120.8848L585.9802 120.8848" stroke="#000000" stroke-width="0.5080263" fill="none" /><path id="4646" transform="matrix(1 0 0 -1 0 612)" d="M419.6191 108.642L669.2594 108.642" stroke="#000000" stroke-width="0.5080263" fill="none" /><path id="4654" transform="matrix(1 0 0 -1 0 612)" d="M419.6191 99.16602L442.0622 99.16602" stroke="#000000" stroke-width="0.5080263" fill="none" /><path id="4742" transform="matrix(1 0 0 -1 0 612)" d="M419.6191 87.22058L531.4287 87.22058" stroke="#000000" stroke-width="0.5080263" fill="none" /><path id="4897" transform="matrix(1 0 0 -1 0 612)" d="M419.6191 75.27527L631.7457 75.27527" stroke="#000000" stroke-width="0.5080263" fill="none" /><path id="5080" transform="matrix(1 0 0 -1 0 612)" d="M419.6191 63.32996L675.7638 63.32996" stroke="#000000" stroke-width="0.5080263" fill="none" /></g></g></g></svg>