<svg xmlns="http://www.w3.org/2000/svg" xmlns:xlink="http://www.w3.org/1999/xlink" id="body_12" preserveAspectRatio="xMinYMin meet" viewBox="0 0 1056 816"><defs><clipPath id="1"><path id="" clip-rule="evenodd" transform="matrix(1 0 0 1 0 0)" d="M0 612L0 0L0 0L792 0L792 0L792 612L792 612L0 612z" /></clipPath><clipPath id="2"><path id="" clip-rule="evenodd" transform="matrix(1 0 0 1 0 0)" d="M205.125 52.5L586.875 52.5L586.875 52.5L586.875 69.75L586.875 69.75L205.125 69.75L205.125 69.75L205.125 52.5z" /></clipPath><clipPath id="3"><path id="" clip-rule="evenodd" transform="matrix(1 0 0 1 0 0)" d="M205.125 69L586.875 69L586.875 69L586.875 530.25L586.875 530.25L205.125 530.25L205.125 530.25L205.125 69z" /></clipPath></defs><g transform="matrix(1.333333 0 0 1.333333 0 0)"><g clip-path="url(#1)"><g clip-path="url(#2)"><path id="1" transform="matrix(1 0 0 -1 0 612)" d="M205.875 558.75L586.125 558.75L586.125 541.5L205.875 541.5L205.875 558.75z" stroke="none" fill="#4DD0E1" fill-rule="nonzero" /><path id="2" transform="matrix(1 0 0 -1 0 612)" d="M205.875 542.25L586.125 542.25L586.125 541.5L205.875 541.5zM205.875 558.75L586.125 558.75L586.125 558L205.875 558zM586.125 558L586.125 542.25L585.375 542.25L585.375 558zM544.125 558L544.125 542.25L543.375 542.25L543.375 558zM313.875 558L313.875 542.25L313.125 542.25L313.125 558zM251.625 558L251.625 542.25L250.875 542.25L250.875 558zM206.625 558L206.625 542.25L205.875 542.25L205.875 558z" stroke="none" fill="#000000" fill-rule="nonzero" fill-opacity="0.1490196" /></g><g clip-path="url(#3)"><path id="24" transform="matrix(1 0 0 -1 0 612)" d="M205.875 542.25L586.125 542.25L586.125 511.5L205.875 511.5L205.875 542.25z" stroke="none" fill="#FFFFFF" fill-rule="nonzero" /><path id="25" transform="matrix(1 0 0 -1 0 612)" d="M205.875 512.25L586.125 512.25L586.125 481.5L205.875 481.5L205.875 512.25z" stroke="none" fill="#E0F7FA" fill-rule="nonzero" /><path id="26" transform="matrix(1 0 0 -1 0 612)" d="M205.875 482.25L586.125 482.25L586.125 451.5L205.875 451.5L205.875 482.25z" stroke="none" fill="#FFFFFF" fill-rule="nonzero" /><path id="27" transform="matrix(1 0 0 -1 0 612)" d="M205.875 452.25L586.125 452.25L586.125 435L205.875 435L205.875 452.25z" stroke="none" fill="#E0F7FA" fill-rule="nonzero" /><path id="28" transform="matrix(1 0 0 -1 0 612)" d="M205.875 435.75L586.125 435.75L586.125 405L205.875 405L205.875 435.75z" stroke="none" fill="#FFFFFF" fill-rule="nonzero" /><path id="29" transform="matrix(1 0 0 -1 0 612)" d="M205.875 405.75L586.125 405.75L586.125 375L205.875 375L205.875 405.75z" stroke="none" fill="#E0F7FA" fill-rule="nonzero" /><path id="30" transform="matrix(1 0 0 -1 0 612)" d="M205.875 375.75L586.125 375.75L586.125 343.5L205.875 343.5L205.875 375.75z" stroke="none" fill="#FFFFFF" fill-rule="nonzero" /><path id="31" transform="matrix(1 0 0 -1 0 612)" d="M205.875 344.25L586.125 344.25L586.125 300.75L205.875 300.75L205.875 344.25z" stroke="none" fill="#E0F7FA" fill-rule="nonzero" /><path id="32" transform="matrix(1 0 0 -1 0 612)" d="M205.875 301.5L586.125 301.5L586.125 270.75L205.875 270.75L205.875 301.5z" stroke="none" fill="#FFFFFF" fill-rule="nonzero" /><path id="33" transform="matrix(1 0 0 -1 0 612)" d="M205.875 271.5L586.125 271.5L586.125 240.75L205.875 240.75L205.875 271.5z" stroke="none" fill="#E0F7FA" fill-rule="nonzero" /><path id="34" transform="matrix(1 0 0 -1 0 612)" d="M205.875 241.5L586.125 241.5L586.125 198L205.875 198L205.875 241.5z" stroke="none" fill="#FFFFFF" fill-rule="nonzero" /><path id="35" transform="matrix(1 0 0 -1 0 612)" d="M205.875 198.75L586.125 198.75L586.125 155.25L205.875 155.25L205.875 198.75z" stroke="none" fill="#E0F7FA" fill-rule="nonzero" /><path id="36" transform="matrix(1 0 0 -1 0 612)" d="M205.875 156L586.125 156L586.125 112.5L205.875 112.5L205.875 156z" stroke="none" fill="#FFFFFF" fill-rule="nonzero" /><path id="37" transform="matrix(1 0 0 -1 0 612)" d="M205.875 113.25L586.125 113.25L586.125 82.5L205.875 82.5L205.875 113.25z" stroke="none" fill="#E0F7FA" fill-rule="nonzero" /><path id="38" transform="matrix(1 0 0 -1 0 612)" d="M205.875 83.25L586.125 83.25L586.125 82.5L205.875 82.5zM205.875 113.25L586.125 113.25L586.125 112.5L205.875 112.5zM205.875 156L586.125 156L586.125 155.25L205.875 155.25zM205.875 198.75L586.125 198.75L586.125 198L205.875 198zM205.875 241.5L586.125 241.5L586.125 240.75L205.875 240.75zM205.875 271.5L586.125 271.5L586.125 270.75L205.875 270.75zM205.875 301.5L586.125 301.5L586.125 300.75L205.875 300.75zM205.875 344.25L586.125 344.25L586.125 343.5L205.875 343.5zM205.875 375.75L586.125 375.75L586.125 375L205.875 375zM205.875 405.75L586.125 405.75L586.125 405L205.875 405zM205.875 435.75L586.125 435.75L586.125 435L205.875 435zM205.875 452.25L586.125 452.25L586.125 451.5L205.875 451.5zM205.875 482.25L586.125 482.25L586.125 481.5L205.875 481.5zM205.875 512.25L586.125 512.25L586.125 511.5L205.875 511.5zM205.875 542.25L586.125 542.25L586.125 541.5L205.875 541.5zM586.125 112.5L586.125 83.25L585.375 83.25L585.375 112.5zM586.125 155.25L586.125 113.25L585.375 113.25L585.375 155.25zM586.125 198L586.125 156L585.375 156L585.375 198zM586.125 240.75L586.125 198.75L585.375 198.75L585.375 240.75zM586.125 270.75L586.125 241.5L585.375 241.5L585.375 270.75zM586.125 300.75L586.125 271.5L585.375 271.5L585.375 300.75zM586.125 343.5L586.125 301.5L585.375 301.5L585.375 343.5zM586.125 375L586.125 344.25L585.375 344.25L585.375 375zM586.125 405L586.125 375.75L585.375 375.75L585.375 405zM586.125 435L586.125 405.75L585.375 405.75L585.375 435zM586.125 451.5L586.125 435.75L585.375 435.75L585.375 451.5zM586.125 481.5L586.125 452.25L585.375 452.25L585.375 481.5zM586.125 511.5L586.125 482.25L585.375 482.25L585.375 511.5zM586.125 541.5L586.125 512.25L585.375 512.25L585.375 541.5zM544.125 112.5L544.125 83.25L543.375 83.25L543.375 112.5zM544.125 155.25L544.125 113.25L543.375 113.25L543.375 155.25zM544.125 198L544.125 156L543.375 156L543.375 198zM544.125 240.75L544.125 198.75L543.375 198.75L543.375 240.75zM544.125 270.75L544.125 241.5L543.375 241.5L543.375 270.75zM544.125 300.75L544.125 271.5L543.375 271.5L543.375 300.75zM544.125 343.5L544.125 301.5L543.375 301.5L543.375 343.5zM544.125 375L544.125 344.25L543.375 344.25L543.375 375zM544.125 405L544.125 375.75L543.375 375.75L543.375 405zM544.125 435L544.125 405.75L543.375 405.75L543.375 435zM544.125 451.5L544.125 435.75L543.375 435.75L543.375 451.5zM544.125 481.5L544.125 452.25L543.375 452.25L543.375 481.5zM544.125 511.5L544.125 482.25L543.375 482.25L543.375 511.5zM544.125 541.5L544.125 512.25L543.375 512.25L543.375 541.5zM313.875 112.5L313.875 83.25L313.125 83.25L313.125 112.5zM313.875 155.25L313.875 113.25L313.125 113.25L313.125 155.25zM313.875 198L313.875 156L313.125 156L313.125 198zM313.875 240.75L313.875 198.75L313.125 198.75L313.125 240.75zM313.875 270.75L313.875 241.5L313.125 241.5L313.125 270.75zM313.875 300.75L313.875 271.5L313.125 271.5L313.125 300.75zM313.875 343.5L313.875 301.5L313.125 301.5L313.125 343.5zM313.875 375L313.875 344.25L313.125 344.25L313.125 375zM313.875 405L313.875 375.75L313.125 375.75L313.125 405zM313.875 435L313.875 405.75L313.125 405.75L313.125 435zM313.875 451.5L313.875 435.75L313.125 435.75L313.125 451.5zM313.875 481.5L313.875 452.25L313.125 452.25L313.125 481.5zM313.875 511.5L313.875 482.25L313.125 482.25L313.125 511.5zM313.875 541.5L313.875 512.25L313.125 512.25L313.125 541.5zM251.625 112.5L251.625 83.25L250.875 83.25L250.875 112.5zM251.625 155.25L251.625 113.25L250.875 113.25L250.875 155.25zM251.625 198L251.625 156L250.875 156L250.875 198zM251.625 240.75L251.625 198.75L250.875 198.75L250.875 240.75zM251.625 270.75L251.625 241.5L250.875 241.5L250.875 270.75zM251.625 300.75L251.625 271.5L250.875 271.5L250.875 300.75zM251.625 343.5L251.625 301.5L250.875 301.5L250.875 343.5zM251.625 375L251.625 344.25L250.875 344.25L250.875 375zM251.625 405L251.625 375.75L250.875 375.75L250.875 405zM251.625 435L251.625 405.75L250.875 405.75L250.875 435zM251.625 451.5L251.625 435.75L250.875 435.75L250.875 451.5zM251.625 481.5L251.625 452.25L250.875 452.25L250.875 481.5zM251.625 511.5L251.625 482.25L250.875 482.25L250.875 511.5zM251.625 541.5L251.625 512.25L250.875 512.25L250.875 541.5zM206.625 112.5L206.625 83.25L205.875 83.25L205.875 112.5zM206.625 155.25L206.625 113.25L205.875 113.25L205.875 155.25zM206.625 198L206.625 156L205.875 156L205.875 198zM206.625 240.75L206.625 198.75L205.875 198.75L205.875 240.75zM206.625 270.75L206.625 241.5L205.875 241.5L205.875 270.75zM206.625 300.75L206.625 271.5L205.875 271.5L205.875 300.75zM206.625 343.5L206.625 301.5L205.875 301.5L205.875 343.5zM206.625 375L206.625 344.25L205.875 344.25L205.875 375zM206.625 405L206.625 375.75L205.875 375.75L205.875 405zM206.625 435L206.625 405.75L205.875 405.75L205.875 435zM206.625 451.5L206.625 435.75L205.875 435.75L205.875 451.5zM206.625 481.5L206.625 452.25L205.875 452.25L205.875 481.5zM206.625 511.5L206.625 482.25L205.875 482.25L205.875 511.5zM206.625 541.5L206.625 512.25L205.875 512.25L205.875 541.5z" stroke="none" fill="#000000" fill-rule="nonzero" fill-opacity="0.1490196" /><path id="91" transform="matrix(1 0 0 -1 0 612)" d="M316.125 528.3047L524.1434 528.3047" stroke="#000000" stroke-width="0.7017334" fill="none" /><path id="109" transform="matrix(1 0 0 -1 0 612)" d="M316.125 515.2158L398.9113 515.2158" stroke="#000000" stroke-width="0.7017334" fill="none" /><path id="166" transform="matrix(1 0 0 -1 0 612)" d="M316.125 498.3047L532.8818 498.3047" stroke="#000000" stroke-width="0.7017334" fill="none" /><path id="201" transform="matrix(1 0 0 -1 0 612)" d="M316.125 485.2158L475.2108 485.2158" stroke="#000000" stroke-width="0.7017334" fill="none" /><path id="260" transform="matrix(1 0 0 -1 0 612)" d="M316.125 468.3047L526.7718 468.3047" stroke="#000000" stroke-width="0.7017334" fill="none" /><path id="289" transform="matrix(1 0 0 -1 0 612)" d="M316.125 455.2158L453.6293 455.2158" stroke="#000000" stroke-width="0.7017334" fill="none" /><path id="335" transform="matrix(1 0 0 -1 0 612)" d="M316.125 438.7158L467.1008 438.7158" stroke="#000000" stroke-width="0.7017334" fill="none" /><path id="388" transform="matrix(1 0 0 -1 0 612)" d="M316.125 421.8047L528.8555 421.8047" stroke="#000000" stroke-width="0.7017334" fill="none" /><path id="422" transform="matrix(1 0 0 -1 0 612)" d="M316.125 408.7158L490.6037 408.7158" stroke="#000000" stroke-width="0.7017334" fill="none" /><path id="469" transform="matrix(1 0 0 -1 0 612)" d="M316.125 391.8047L481.6506 391.8047" stroke="#000000" stroke-width="0.7017334" fill="none" /><path id="483" transform="matrix(1 0 0 -1 0 612)" d="M316.125 378.7158L377.885 378.7158" stroke="#000000" stroke-width="0.7017334" fill="none" /><path id="538" transform="matrix(1 0 0 -1 0 612)" d="M316.125 361.9697L510.2583 361.9697" stroke="#000000" stroke-width="0.7017334" fill="none" /><path id="555" transform="matrix(1 0 0 -1 0 612)" d="M316.125 347.2158L398.1837 347.2158" stroke="#000000" stroke-width="0.7017334" fill="none" /><path id="557" transform="matrix(1 0 0 -1 0 612)" d="M398.1837 347.2944L404.1472 347.2944" stroke="#000000" stroke-width="0.7855225" fill="none" /><path id="560" transform="matrix(1 0 0 -1 0 612)" d="M404.1472 347.2158L415.1735 347.2158" stroke="#000000" stroke-width="0.7017334" fill="none" /><path id="562" transform="matrix(1 0 0 -1 0 612)" d="M415.1735 347.2944L418.1526 347.2944" stroke="#000000" stroke-width="0.7855225" fill="none" /><path id="574" transform="matrix(1 0 0 -1 0 612)" d="M418.1526 347.2158L466.9176 347.2158" stroke="#000000" stroke-width="0.7017334" fill="none" /><path id="578" transform="matrix(1 0 0 -1 0 612)" d="M466.9176 347.2944L484.8079 347.2944" stroke="#000000" stroke-width="0.7855225" fill="none" /><path id="580" transform="matrix(1 0 0 -1 0 612)" d="M484.8079 347.2158L489.9441 347.2158" stroke="#000000" stroke-width="0.7017334" fill="none" /><path id="631" transform="matrix(1 0 0 -1 0 612)" d="M316.125 330.6436L507.2217 330.6436" stroke="#000000" stroke-width="0.7017334" fill="none" /><path id="671" transform="matrix(1 0 0 -1 0 612)" d="M316.125 317.5547L502.4781 317.5547" stroke="#000000" stroke-width="0.7017334" fill="none" /><path id="685" transform="matrix(1 0 0 -1 0 612)" d="M316.125 304.4658L379.1573 304.4658" stroke="#000000" stroke-width="0.7017334" fill="none" /><path id="735" transform="matrix(1 0 0 -1 0 612)" d="M316.125 287.5547L525.0178 287.5547" stroke="#000000" stroke-width="0.7017334" fill="none" /><path id="769" transform="matrix(1 0 0 -1 0 612)" d="M316.125 274.4658L467.6715 274.4658" stroke="#000000" stroke-width="0.7017334" fill="none" /><path id="830" transform="matrix(1 0 0 -1 0 612)" d="M316.125 257.5547L520.9496 257.5547" stroke="#000000" stroke-width="0.7017334" fill="none" /><path id="869" transform="matrix(1 0 0 -1 0 612)" d="M316.125 244.4658L506.9965 244.4658" stroke="#000000" stroke-width="0.7017334" fill="none" /><path id="921" transform="matrix(1 0 0 -1 0 612)" d="M316.125 227.8936L501.8969 227.8936" stroke="#000000" stroke-width="0.7017334" fill="none" /><path id="963" transform="matrix(1 0 0 -1 0 612)" d="M316.125 214.8047L528.6201 214.8047" stroke="#000000" stroke-width="0.7017334" fill="none" /><path id="968" transform="matrix(1 0 0 -1 0 612)" d="M316.125 201.7158L336.1566 201.7158" stroke="#000000" stroke-width="0.7017334" fill="none" /><path id="1017" transform="matrix(1 0 0 -1 0 612)" d="M316.125 185.1436L510.7661 185.1436" stroke="#000000" stroke-width="0.7017334" fill="none" /><path id="1063" transform="matrix(1 0 0 -1 0 612)" d="M316.125 172.0547L530.5257 172.0547" stroke="#000000" stroke-width="0.7017334" fill="none" /><path id="1075" transform="matrix(1 0 0 -1 0 612)" d="M316.125 158.9658L370.7383 158.9658" stroke="#000000" stroke-width="0.7017334" fill="none" /><path id="1135" transform="matrix(1 0 0 -1 0 612)" d="M316.125 129.3047L500.3631 129.3047" stroke="#000000" stroke-width="0.7017334" fill="none" /><path id="1169" transform="matrix(1 0 0 -1 0 612)" d="M316.125 116.2158L472.5669 116.2158" stroke="#000000" stroke-width="0.7017334" fill="none" /><path id="1223" transform="matrix(1 0 0 -1 0 612)" d="M316.125 99.30469L516.1695 99.30469" stroke="#000000" stroke-width="0.7017334" fill="none" /><path id="1253" transform="matrix(1 0 0 -1 0 612)" d="M316.125 86.21582L456.352 86.21582" stroke="#000000" stroke-width="0.7017334" fill="none" /></g></g></g></svg>