<svg xmlns="http://www.w3.org/2000/svg" xmlns:xlink="http://www.w3.org/1999/xlink" id="body_25" preserveAspectRatio="xMinYMin meet" viewBox="0 0 1056 816"><defs><clipPath id="1"><path id="" clip-rule="evenodd" transform="matrix(1 0 0 1 0 0)" d="M0 612L0 0L0 0L792 0L792 0L792 612L792 612L0 612z" /></clipPath><clipPath id="2"><path id="" clip-rule="evenodd" transform="matrix(1 0 0 1 0 0)" d="M205.125 52.5L586.875 52.5L586.875 52.5L586.875 69.75L586.875 69.75L205.125 69.75L205.125 69.75L205.125 52.5z" /></clipPath><clipPath id="3"><path id="" clip-rule="evenodd" transform="matrix(1 0 0 1 0 0)" d="M205.125 69L586.875 69L586.875 69L586.875 557.25L586.875 557.25L205.125 557.25L205.125 557.25L205.125 69z" /></clipPath></defs><g transform="matrix(1.333333 0 0 1.333333 0 0)"><g clip-path="url(#1)"><g clip-path="url(#2)"><path id="1" transform="matrix(1 0 0 -1 0 612)" d="M205.875 558.75L586.125 558.75L586.125 541.5L205.875 541.5L205.875 558.75z" stroke="none" fill="#4DD0E1" fill-rule="nonzero" /><path id="2" transform="matrix(1 0 0 -1 0 612)" d="M205.875 542.25L586.125 542.25L586.125 541.5L205.875 541.5zM205.875 558.75L586.125 558.75L586.125 558L205.875 558zM586.125 558L586.125 542.25L585.375 542.25L585.375 558zM544.125 558L544.125 542.25L543.375 542.25L543.375 558zM313.875 558L313.875 542.25L313.125 542.25L313.125 558zM251.625 558L251.625 542.25L250.875 542.25L250.875 558zM206.625 558L206.625 542.25L205.875 542.25L205.875 558z" stroke="none" fill="#000000" fill-rule="nonzero" fill-opacity="0.1490196" /></g><g clip-path="url(#3)"><path id="24" transform="matrix(1 0 0 -1 0 612)" d="M205.875 542.25L586.125 542.25L586.125 511.5L205.875 511.5L205.875 542.25z" stroke="none" fill="#E0F7FA" fill-rule="nonzero" /><path id="25" transform="matrix(1 0 0 -1 0 612)" d="M205.875 512.25L586.125 512.25L586.125 441L205.875 441L205.875 512.25z" stroke="none" fill="#FFFFFF" fill-rule="nonzero" /><path id="26" transform="matrix(1 0 0 -1 0 612)" d="M205.875 441.75L586.125 441.75L586.125 411L205.875 411L205.875 441.75z" stroke="none" fill="#E0F7FA" fill-rule="nonzero" /><path id="27" transform="matrix(1 0 0 -1 0 612)" d="M205.875 411.75L586.125 411.75L586.125 381L205.875 381L205.875 411.75z" stroke="none" fill="#FFFFFF" fill-rule="nonzero" /><path id="28" transform="matrix(1 0 0 -1 0 612)" d="M205.875 381.75L586.125 381.75L586.125 351L205.875 351L205.875 381.75z" stroke="none" fill="#E0F7FA" fill-rule="nonzero" /><path id="29" transform="matrix(1 0 0 -1 0 612)" d="M205.875 351.75L586.125 351.75L586.125 321L205.875 321L205.875 351.75z" stroke="none" fill="#FFFFFF" fill-rule="nonzero" /><path id="30" transform="matrix(1 0 0 -1 0 612)" d="M205.875 321.75L586.125 321.75L586.125 291L205.875 291L205.875 321.75z" stroke="none" fill="#E0F7FA" fill-rule="nonzero" /><path id="31" transform="matrix(1 0 0 -1 0 612)" d="M205.875 291.75L586.125 291.75L586.125 248.25L205.875 248.25L205.875 291.75z" stroke="none" fill="#FFFFFF" fill-rule="nonzero" /><path id="32" transform="matrix(1 0 0 -1 0 612)" d="M205.875 249L586.125 249L586.125 218.25L205.875 218.25L205.875 249z" stroke="none" fill="#E0F7FA" fill-rule="nonzero" /><path id="33" transform="matrix(1 0 0 -1 0 612)" d="M205.875 219L586.125 219L586.125 188.25L205.875 188.25L205.875 219z" stroke="none" fill="#FFFFFF" fill-rule="nonzero" /><path id="34" transform="matrix(1 0 0 -1 0 612)" d="M205.875 189L586.125 189L586.125 158.25L205.875 158.25L205.875 189z" stroke="none" fill="#E0F7FA" fill-rule="nonzero" /><path id="35" transform="matrix(1 0 0 -1 0 612)" d="M205.875 159L586.125 159L586.125 128.25L205.875 128.25L205.875 159z" stroke="none" fill="#FFFFFF" fill-rule="nonzero" /><path id="36" transform="matrix(1 0 0 -1 0 612)" d="M205.875 129L586.125 129L586.125 98.25L205.875 98.25L205.875 129z" stroke="none" fill="#E0F7FA" fill-rule="nonzero" /><path id="37" transform="matrix(1 0 0 -1 0 612)" d="M205.875 99L586.125 99L586.125 55.5L205.875 55.5L205.875 99z" stroke="none" fill="#FFFFFF" fill-rule="nonzero" /><path id="38" transform="matrix(1 0 0 -1 0 612)" d="M205.875 56.25L586.125 56.25L586.125 55.5L205.875 55.5zM205.875 99L586.125 99L586.125 98.25L205.875 98.25zM205.875 129L586.125 129L586.125 128.25L205.875 128.25zM205.875 159L586.125 159L586.125 158.25L205.875 158.25zM205.875 189L586.125 189L586.125 188.25L205.875 188.25zM205.875 219L586.125 219L586.125 218.25L205.875 218.25zM205.875 249L586.125 249L586.125 248.25L205.875 248.25zM205.875 291.75L586.125 291.75L586.125 291L205.875 291zM205.875 321.75L586.125 321.75L586.125 321L205.875 321zM205.875 351.75L586.125 351.75L586.125 351L205.875 351zM205.875 381.75L586.125 381.75L586.125 381L205.875 381zM205.875 411.75L586.125 411.75L586.125 411L205.875 411zM205.875 441.75L586.125 441.75L586.125 441L205.875 441zM205.875 512.25L586.125 512.25L586.125 511.5L205.875 511.5zM205.875 542.25L586.125 542.25L586.125 541.5L205.875 541.5zM586.125 98.25L586.125 56.25L585.375 56.25L585.375 98.25zM586.125 128.25L586.125 99L585.375 99L585.375 128.25zM586.125 158.25L586.125 129L585.375 129L585.375 158.25zM586.125 188.25L586.125 159L585.375 159L585.375 188.25zM586.125 218.25L586.125 189L585.375 189L585.375 218.25zM586.125 248.25L586.125 219L585.375 219L585.375 248.25zM586.125 291L586.125 249L585.375 249L585.375 291zM586.125 321L586.125 291.75L585.375 291.75L585.375 321zM586.125 351L586.125 321.75L585.375 321.75L585.375 351zM586.125 381L586.125 351.75L585.375 351.75L585.375 381zM586.125 411L586.125 381.75L585.375 381.75L585.375 411zM586.125 441L586.125 411.75L585.375 411.75L585.375 441zM586.125 511.5L586.125 441.75L585.375 441.75L585.375 511.5zM586.125 541.5L586.125 512.25L585.375 512.25L585.375 541.5zM544.125 98.25L544.125 56.25L543.375 56.25L543.375 98.25zM544.125 128.25L544.125 99L543.375 99L543.375 128.25zM544.125 158.25L544.125 129L543.375 129L543.375 158.25zM544.125 188.25L544.125 159L543.375 159L543.375 188.25zM544.125 218.25L544.125 189L543.375 189L543.375 218.25zM544.125 248.25L544.125 219L543.375 219L543.375 248.25zM544.125 291L544.125 249L543.375 249L543.375 291zM544.125 321L544.125 291.75L543.375 291.75L543.375 321zM544.125 351L544.125 321.75L543.375 321.75L543.375 351zM544.125 381L544.125 351.75L543.375 351.75L543.375 381zM544.125 411L544.125 381.75L543.375 381.75L543.375 411zM544.125 441L544.125 411.75L543.375 411.75L543.375 441zM544.125 511.5L544.125 441.75L543.375 441.75L543.375 511.5zM544.125 541.5L544.125 512.25L543.375 512.25L543.375 541.5zM313.875 98.25L313.875 56.25L313.125 56.25L313.125 98.25zM313.875 128.25L313.875 99L313.125 99L313.125 128.25zM313.875 158.25L313.875 129L313.125 129L313.125 158.25zM313.875 188.25L313.875 159L313.125 159L313.125 188.25zM313.875 218.25L313.875 189L313.125 189L313.125 218.25zM313.875 248.25L313.875 219L313.125 219L313.125 248.25zM313.875 291L313.875 249L313.125 249L313.125 291zM313.875 321L313.875 291.75L313.125 291.75L313.125 321zM313.875 351L313.875 321.75L313.125 321.75L313.125 351zM313.875 381L313.875 351.75L313.125 351.75L313.125 381zM313.875 411L313.875 381.75L313.125 381.75L313.125 411zM313.875 441L313.875 411.75L313.125 411.75L313.125 441zM313.875 511.5L313.875 441.75L313.125 441.75L313.125 511.5zM313.875 541.5L313.875 512.25L313.125 512.25L313.125 541.5zM251.625 98.25L251.625 56.25L250.875 56.25L250.875 98.25zM251.625 128.25L251.625 99L250.875 99L250.875 128.25zM251.625 158.25L251.625 129L250.875 129L250.875 158.25zM251.625 188.25L251.625 159L250.875 159L250.875 188.25zM251.625 218.25L251.625 189L250.875 189L250.875 218.25zM251.625 248.25L251.625 219L250.875 219L250.875 248.25zM251.625 291L251.625 249L250.875 249L250.875 291zM251.625 321L251.625 291.75L250.875 291.75L250.875 321zM251.625 351L251.625 321.75L250.875 321.75L250.875 351zM251.625 381L251.625 351.75L250.875 351.75L250.875 381zM251.625 411L251.625 381.75L250.875 381.75L250.875 411zM251.625 441L251.625 411.75L250.875 411.75L250.875 441zM251.625 511.5L251.625 441.75L250.875 441.75L250.875 511.5zM251.625 541.5L251.625 512.25L250.875 512.25L250.875 541.5zM206.625 98.25L206.625 56.25L205.875 56.25L205.875 98.25zM206.625 128.25L206.625 99L205.875 99L205.875 128.25zM206.625 158.25L206.625 129L205.875 129L205.875 158.25zM206.625 188.25L206.625 159L205.875 159L205.875 188.25zM206.625 218.25L206.625 189L205.875 189L205.875 218.25zM206.625 248.25L206.625 219L205.875 219L205.875 248.25zM206.625 291L206.625 249L205.875 249L205.875 291zM206.625 321L206.625 291.75L205.875 291.75L205.875 321zM206.625 351L206.625 321.75L205.875 321.75L205.875 351zM206.625 381L206.625 351.75L205.875 351.75L205.875 381zM206.625 411L206.625 381.75L205.875 381.75L205.875 411zM206.625 441L206.625 411.75L205.875 411.75L205.875 441zM206.625 511.5L206.625 441.75L205.875 441.75L205.875 511.5zM206.625 541.5L206.625 512.25L205.875 512.25L205.875 541.5z" stroke="none" fill="#000000" fill-rule="nonzero" fill-opacity="0.1490196" /><path id="90" transform="matrix(1 0 0 -1 0 612)" d="M316.125 528.3047L523.3739 528.3047" stroke="#000000" stroke-width="0.7017334" fill="none" /><path id="102" transform="matrix(1 0 0 -1 0 612)" d="M316.125 515.2158L368.3822 515.2158" stroke="#000000" stroke-width="0.7017334" fill="none" /><path id="196" transform="matrix(1 0 0 -1 0 612)" d="M316.125 472.5586L536.6462 472.5586" stroke="#000000" stroke-width="0.7017334" fill="none" /><path id="240" transform="matrix(1 0 0 -1 0 612)" d="M316.125 459.4697L530.3949 459.4697" stroke="#000000" stroke-width="0.7017334" fill="none" /><path id="247" transform="matrix(1 0 0 -1 0 612)" d="M316.125 444.7158L350.471 444.7158" stroke="#000000" stroke-width="0.7017334" fill="none" /><path id="255" transform="matrix(1 0 0 -1 0 612)" d="M350.471 444.7939L392.4035 444.7939" stroke="#000000" stroke-width="0.7855225" fill="none" /><path id="274" transform="matrix(1 0 0 -1 0 612)" d="M392.4035 444.7158L481.5512 444.7158" stroke="#000000" stroke-width="0.7017334" fill="none" /><path id="333" transform="matrix(1 0 0 -1 0 612)" d="M316.125 427.8047L513.3894 427.8047" stroke="#000000" stroke-width="0.7017334" fill="none" /><path id="367" transform="matrix(1 0 0 -1 0 612)" d="M316.125 414.7158L485.7032 414.7158" stroke="#000000" stroke-width="0.7017334" fill="none" /><path id="411" transform="matrix(1 0 0 -1 0 612)" d="M316.125 384.7158L459.9856 384.7158" stroke="#000000" stroke-width="0.7017334" fill="none" /><path id="476" transform="matrix(1 0 0 -1 0 612)" d="M316.125 367.8047L542.4893 367.8047" stroke="#000000" stroke-width="0.7017334" fill="none" /><path id="510" transform="matrix(1 0 0 -1 0 612)" d="M316.125 354.7158L483.7869 354.7158" stroke="#000000" stroke-width="0.7017334" fill="none" /><path id="565" transform="matrix(1 0 0 -1 0 612)" d="M316.125 337.8047L515.7611 337.8047" stroke="#000000" stroke-width="0.7017334" fill="none" /><path id="581" transform="matrix(1 0 0 -1 0 612)" d="M316.125 324.7158L383.0369 324.7158" stroke="#000000" stroke-width="0.7017334" fill="none" /><path id="630" transform="matrix(1 0 0 -1 0 612)" d="M316.125 307.8047L510.5831 307.8047" stroke="#000000" stroke-width="0.7017334" fill="none" /><path id="665" transform="matrix(1 0 0 -1 0 612)" d="M316.125 294.7158L477.9648 294.7158" stroke="#000000" stroke-width="0.7017334" fill="none" /><path id="723" transform="matrix(1 0 0 -1 0 612)" d="M316.125 278.1436L529.2324 278.1436" stroke="#000000" stroke-width="0.7017334" fill="none" /><path id="763" transform="matrix(1 0 0 -1 0 612)" d="M316.125 265.0547L521.6095 265.0547" stroke="#000000" stroke-width="0.7017334" fill="none" /><path id="781" transform="matrix(1 0 0 -1 0 612)" d="M316.125 251.9658L389.6181 251.9658" stroke="#000000" stroke-width="0.7017334" fill="none" /><path id="832" transform="matrix(1 0 0 -1 0 612)" d="M316.125 235.0547L499.3736 235.0547" stroke="#000000" stroke-width="0.7017334" fill="none" /><path id="846" transform="matrix(1 0 0 -1 0 612)" d="M316.125 221.9658L377.885 221.9658" stroke="#000000" stroke-width="0.7017334" fill="none" /><path id="911" transform="matrix(1 0 0 -1 0 612)" d="M316.125 205.0547L528.4891 205.0547" stroke="#000000" stroke-width="0.7017334" fill="none" /><path id="947" transform="matrix(1 0 0 -1 0 612)" d="M316.125 191.9658L489.6979 191.9658" stroke="#000000" stroke-width="0.7017334" fill="none" /><path id="1002" transform="matrix(1 0 0 -1 0 612)" d="M316.125 175.0547L504.9233 175.0547" stroke="#000000" stroke-width="0.7017334" fill="none" /><path id="1045" transform="matrix(1 0 0 -1 0 612)" d="M316.125 161.9658L525.8555 161.9658" stroke="#000000" stroke-width="0.7017334" fill="none" /><path id="1096" transform="matrix(1 0 0 -1 0 612)" d="M316.125 145.0547L539.264 145.0547" stroke="#000000" stroke-width="0.7017334" fill="none" /><path id="1115" transform="matrix(1 0 0 -1 0 612)" d="M316.125 131.9658L426.3723 131.9658" stroke="#000000" stroke-width="0.7017334" fill="none" /><path id="1173" transform="matrix(1 0 0 -1 0 612)" d="M316.125 115.0547L531.6252 115.0547" stroke="#000000" stroke-width="0.7017334" fill="none" /><path id="1197" transform="matrix(1 0 0 -1 0 612)" d="M316.125 101.9658L437.2102 101.9658" stroke="#000000" stroke-width="0.7017334" fill="none" /><path id="1255" transform="matrix(1 0 0 -1 0 612)" d="M316.125 85.39355L540.484 85.39355" stroke="#000000" stroke-width="0.7017334" fill="none" /><path id="1295" transform="matrix(1 0 0 -1 0 612)" d="M316.125 72.30469L502.8287 72.30469" stroke="#000000" stroke-width="0.7017334" fill="none" /><path id="1307" transform="matrix(1 0 0 -1 0 612)" d="M316.125 59.21582L374.8535 59.21582" stroke="#000000" stroke-width="0.7017334" fill="none" /></g></g></g></svg>