<svg xmlns="http://www.w3.org/2000/svg" xmlns:xlink="http://www.w3.org/1999/xlink" id="body_16" preserveAspectRatio="xMinYMin meet" viewBox="0 0 1056 816"><defs><clipPath id="1"><path id="" clip-rule="evenodd" transform="matrix(1 0 0 1 0 0)" d="M0 612L0 0L0 0L792 0L792 0L792 612L792 612L0 612z" /></clipPath><clipPath id="2"><path id="" clip-rule="evenodd" transform="matrix(1 0 0 1 0 0)" d="M205.125 52.5L586.875 52.5L586.875 52.5L586.875 69.75L586.875 69.75L205.125 69.75L205.125 69.75L205.125 52.5z" /></clipPath><clipPath id="3"><path id="" clip-rule="evenodd" transform="matrix(1 0 0 1 0 0)" d="M205.125 69L586.875 69L586.875 69L586.875 521.25L586.875 521.25L205.125 521.25L205.125 521.25L205.125 69z" /></clipPath></defs><g transform="matrix(1.333333 0 0 1.333333 0 0)"><g clip-path="url(#1)"><g clip-path="url(#2)"><path id="1" transform="matrix(1 0 0 -1 0 612)" d="M205.875 558.75L586.125 558.75L586.125 541.5L205.875 541.5L205.875 558.75z" stroke="none" fill="#4DD0E1" fill-rule="nonzero" /><path id="2" transform="matrix(1 0 0 -1 0 612)" d="M205.875 542.25L586.125 542.25L586.125 541.5L205.875 541.5zM205.875 558.75L586.125 558.75L586.125 558L205.875 558zM586.125 558L586.125 542.25L585.375 542.25L585.375 558zM544.125 558L544.125 542.25L543.375 542.25L543.375 558zM313.875 558L313.875 542.25L313.125 542.25L313.125 558zM251.625 558L251.625 542.25L250.875 542.25L250.875 558zM206.625 558L206.625 542.25L205.875 542.25L205.875 558z" stroke="none" fill="#000000" fill-rule="nonzero" fill-opacity="0.1490196" /></g><g clip-path="url(#3)"><path id="24" transform="matrix(1 0 0 -1 0 612)" d="M205.875 542.25L586.125 542.25L586.125 511.5L205.875 511.5L205.875 542.25z" stroke="none" fill="#E0F7FA" fill-rule="nonzero" /><path id="25" transform="matrix(1 0 0 -1 0 612)" d="M205.875 512.25L586.125 512.25L586.125 481.5L205.875 481.5L205.875 512.25z" stroke="none" fill="#FFFFFF" fill-rule="nonzero" /><path id="26" transform="matrix(1 0 0 -1 0 612)" d="M205.875 482.25L586.125 482.25L586.125 438.75L205.875 438.75L205.875 482.25z" stroke="none" fill="#E0F7FA" fill-rule="nonzero" /><path id="27" transform="matrix(1 0 0 -1 0 612)" d="M205.875 439.5L586.125 439.5L586.125 408.75L205.875 408.75L205.875 439.5z" stroke="none" fill="#FFFFFF" fill-rule="nonzero" /><path id="28" transform="matrix(1 0 0 -1 0 612)" d="M205.875 409.5L586.125 409.5L586.125 378.75L205.875 378.75L205.875 409.5z" stroke="none" fill="#E0F7FA" fill-rule="nonzero" /><path id="29" transform="matrix(1 0 0 -1 0 612)" d="M205.875 379.5L586.125 379.5L586.125 322.5L205.875 322.5L205.875 379.5z" stroke="none" fill="#FFFFFF" fill-rule="nonzero" /><path id="30" transform="matrix(1 0 0 -1 0 612)" d="M205.875 323.25L586.125 323.25L586.125 279.75L205.875 279.75L205.875 323.25z" stroke="none" fill="#E0F7FA" fill-rule="nonzero" /><path id="31" transform="matrix(1 0 0 -1 0 612)" d="M205.875 280.5L586.125 280.5L586.125 249.75L205.875 249.75L205.875 280.5z" stroke="none" fill="#FFFFFF" fill-rule="nonzero" /><path id="32" transform="matrix(1 0 0 -1 0 612)" d="M205.875 250.5L586.125 250.5L586.125 207L205.875 207L205.875 250.5z" stroke="none" fill="#E0F7FA" fill-rule="nonzero" /><path id="33" transform="matrix(1 0 0 -1 0 612)" d="M205.875 207.75L586.125 207.75L586.125 177L205.875 177L205.875 207.75z" stroke="none" fill="#FFFFFF" fill-rule="nonzero" /><path id="34" transform="matrix(1 0 0 -1 0 612)" d="M205.875 177.75L586.125 177.75L586.125 134.25L205.875 134.25L205.875 177.75z" stroke="none" fill="#E0F7FA" fill-rule="nonzero" /><path id="35" transform="matrix(1 0 0 -1 0 612)" d="M205.875 135L586.125 135L586.125 91.5L205.875 91.5L205.875 135z" stroke="none" fill="#FFFFFF" fill-rule="nonzero" /><path id="36" transform="matrix(1 0 0 -1 0 612)" d="M205.875 92.25L586.125 92.25L586.125 91.5L205.875 91.5zM205.875 135L586.125 135L586.125 134.25L205.875 134.25zM205.875 177.75L586.125 177.75L586.125 177L205.875 177zM205.875 207.75L586.125 207.75L586.125 207L205.875 207zM205.875 250.5L586.125 250.5L586.125 249.75L205.875 249.75zM205.875 280.5L586.125 280.5L586.125 279.75L205.875 279.75zM205.875 323.25L586.125 323.25L586.125 322.5L205.875 322.5zM205.875 379.5L586.125 379.5L586.125 378.75L205.875 378.75zM205.875 409.5L586.125 409.5L586.125 408.75L205.875 408.75zM205.875 439.5L586.125 439.5L586.125 438.75L205.875 438.75zM205.875 482.25L586.125 482.25L586.125 481.5L205.875 481.5zM205.875 512.25L586.125 512.25L586.125 511.5L205.875 511.5zM205.875 542.25L586.125 542.25L586.125 541.5L205.875 541.5zM586.125 134.25L586.125 92.25L585.375 92.25L585.375 134.25zM586.125 177L586.125 135L585.375 135L585.375 177zM586.125 207L586.125 177.75L585.375 177.75L585.375 207zM586.125 249.75L586.125 207.75L585.375 207.75L585.375 249.75zM586.125 279.75L586.125 250.5L585.375 250.5L585.375 279.75zM586.125 322.5L586.125 280.5L585.375 280.5L585.375 322.5zM586.125 378.75L586.125 323.25L585.375 323.25L585.375 378.75zM586.125 408.75L586.125 379.5L585.375 379.5L585.375 408.75zM586.125 438.75L586.125 409.5L585.375 409.5L585.375 438.75zM586.125 481.5L586.125 439.5L585.375 439.5L585.375 481.5zM586.125 511.5L586.125 482.25L585.375 482.25L585.375 511.5zM586.125 541.5L586.125 512.25L585.375 512.25L585.375 541.5zM544.125 134.25L544.125 92.25L543.375 92.25L543.375 134.25zM544.125 177L544.125 135L543.375 135L543.375 177zM544.125 207L544.125 177.75L543.375 177.75L543.375 207zM544.125 249.75L544.125 207.75L543.375 207.75L543.375 249.75zM544.125 279.75L544.125 250.5L543.375 250.5L543.375 279.75zM544.125 322.5L544.125 280.5L543.375 280.5L543.375 322.5zM544.125 378.75L544.125 323.25L543.375 323.25L543.375 378.75zM544.125 408.75L544.125 379.5L543.375 379.5L543.375 408.75zM544.125 438.75L544.125 409.5L543.375 409.5L543.375 438.75zM544.125 481.5L544.125 439.5L543.375 439.5L543.375 481.5zM544.125 511.5L544.125 482.25L543.375 482.25L543.375 511.5zM544.125 541.5L544.125 512.25L543.375 512.25L543.375 541.5zM313.875 134.25L313.875 92.25L313.125 92.25L313.125 134.25zM313.875 177L313.875 135L313.125 135L313.125 177zM313.875 207L313.875 177.75L313.125 177.75L313.125 207zM313.875 249.75L313.875 207.75L313.125 207.75L313.125 249.75zM313.875 279.75L313.875 250.5L313.125 250.5L313.125 279.75zM313.875 322.5L313.875 280.5L313.125 280.5L313.125 322.5zM313.875 378.75L313.875 323.25L313.125 323.25L313.125 378.75zM313.875 408.75L313.875 379.5L313.125 379.5L313.125 408.75zM313.875 438.75L313.875 409.5L313.125 409.5L313.125 438.75zM313.875 481.5L313.875 439.5L313.125 439.5L313.125 481.5zM313.875 511.5L313.875 482.25L313.125 482.25L313.125 511.5zM313.875 541.5L313.875 512.25L313.125 512.25L313.125 541.5zM251.625 134.25L251.625 92.25L250.875 92.25L250.875 134.25zM251.625 177L251.625 135L250.875 135L250.875 177zM251.625 207L251.625 177.75L250.875 177.75L250.875 207zM251.625 249.75L251.625 207.75L250.875 207.75L250.875 249.75zM251.625 279.75L251.625 250.5L250.875 250.5L250.875 279.75zM251.625 322.5L251.625 280.5L250.875 280.5L250.875 322.5zM251.625 378.75L251.625 323.25L250.875 323.25L250.875 378.75zM251.625 408.75L251.625 379.5L250.875 379.5L250.875 408.75zM251.625 438.75L251.625 409.5L250.875 409.5L250.875 438.75zM251.625 481.5L251.625 439.5L250.875 439.5L250.875 481.5zM251.625 511.5L251.625 482.25L250.875 482.25L250.875 511.5zM251.625 541.5L251.625 512.25L250.875 512.25L250.875 541.5zM206.625 134.25L206.625 92.25L205.875 92.25L205.875 134.25zM206.625 177L206.625 135L205.875 135L205.875 177zM206.625 207L206.625 177.75L205.875 177.75L205.875 207zM206.625 249.75L206.625 207.75L205.875 207.75L205.875 249.75zM206.625 279.75L206.625 250.5L205.875 250.5L205.875 279.75zM206.625 322.5L206.625 280.5L205.875 280.5L205.875 322.5zM206.625 378.75L206.625 323.25L205.875 323.25L205.875 378.75zM206.625 408.75L206.625 379.5L205.875 379.5L205.875 408.75zM206.625 438.75L206.625 409.5L205.875 409.5L205.875 438.75zM206.625 481.5L206.625 439.5L205.875 439.5L205.875 481.5zM206.625 511.5L206.625 482.25L205.875 482.25L205.875 511.5zM206.625 541.5L206.625 512.25L205.875 512.25L205.875 541.5z" stroke="none" fill="#000000" fill-rule="nonzero" fill-opacity="0.1490196" /><path id="95" transform="matrix(1 0 0 -1 0 612)" d="M316.125 528.3047L508.5203 528.3047" stroke="#000000" stroke-width="0.7017334" fill="none" /><path id="131" transform="matrix(1 0 0 -1 0 612)" d="M316.125 515.2158L489.6455 515.2158" stroke="#000000" stroke-width="0.7017334" fill="none" /><path id="194" transform="matrix(1 0 0 -1 0 612)" d="M316.125 498.3047L539.0807 498.3047" stroke="#000000" stroke-width="0.7017334" fill="none" /><path id="225" transform="matrix(1 0 0 -1 0 612)" d="M316.125 485.2158L452.6451 485.2158" stroke="#000000" stroke-width="0.7017334" fill="none" /><path id="277" transform="matrix(1 0 0 -1 0 612)" d="M316.125 468.6436L523.3842 468.6436" stroke="#000000" stroke-width="0.7017334" fill="none" /><path id="322" transform="matrix(1 0 0 -1 0 612)" d="M316.125 455.5547L532.8188 455.5547" stroke="#000000" stroke-width="0.7017334" fill="none" /><path id="339" transform="matrix(1 0 0 -1 0 612)" d="M316.125 442.4658L391.2202 442.4658" stroke="#000000" stroke-width="0.7017334" fill="none" /><path id="392" transform="matrix(1 0 0 -1 0 612)" d="M316.125 425.5547L494.4363 425.5547" stroke="#000000" stroke-width="0.7017334" fill="none" /><path id="432" transform="matrix(1 0 0 -1 0 612)" d="M316.125 412.4658L509.981 412.4658" stroke="#000000" stroke-width="0.7017334" fill="none" /><path id="493" transform="matrix(1 0 0 -1 0 612)" d="M316.125 395.5547L535.5625 395.5547" stroke="#000000" stroke-width="0.7017334" fill="none" /><path id="501" transform="matrix(1 0 0 -1 0 612)" d="M316.125 382.4658L351.5808 382.4658" stroke="#000000" stroke-width="0.7017334" fill="none" /><path id="586" transform="matrix(1 0 0 -1 0 612)" d="M316.125 326.2158L521.1068 326.2158" stroke="#000000" stroke-width="0.7017334" fill="none" /><path id="638" transform="matrix(1 0 0 -1 0 612)" d="M316.125 309.6436L509.2111 309.6436" stroke="#000000" stroke-width="0.7017334" fill="none" /><path id="680" transform="matrix(1 0 0 -1 0 612)" d="M316.125 296.5547L520.6512 296.5547" stroke="#000000" stroke-width="0.7017334" fill="none" /><path id="685" transform="matrix(1 0 0 -1 0 612)" d="M316.125 283.4658L337.8635 283.4658" stroke="#000000" stroke-width="0.7017334" fill="none" /><path id="736" transform="matrix(1 0 0 -1 0 612)" d="M316.125 266.5547L519.0701 266.5547" stroke="#000000" stroke-width="0.7017334" fill="none" /><path id="771" transform="matrix(1 0 0 -1 0 612)" d="M316.125 253.4658L494.0069 253.4658" stroke="#000000" stroke-width="0.7017334" fill="none" /><path id="819" transform="matrix(1 0 0 -1 0 612)" d="M316.125 236.8936L502.7192 236.8936" stroke="#000000" stroke-width="0.7017334" fill="none" /><path id="864" transform="matrix(1 0 0 -1 0 612)" d="M316.125 223.8047L534.9446 223.8047" stroke="#000000" stroke-width="0.7017334" fill="none" /><path id="878" transform="matrix(1 0 0 -1 0 612)" d="M316.125 210.7158L379.1573 210.7158" stroke="#000000" stroke-width="0.7017334" fill="none" /><path id="933" transform="matrix(1 0 0 -1 0 612)" d="M316.125 193.8047L516.3528 193.8047" stroke="#000000" stroke-width="0.7017334" fill="none" /><path id="973" transform="matrix(1 0 0 -1 0 612)" d="M316.125 180.7158L526.3317 180.7158" stroke="#000000" stroke-width="0.7017334" fill="none" /><path id="1041" transform="matrix(1 0 0 -1 0 612)" d="M316.125 164.1436L537.7091 164.1436" stroke="#000000" stroke-width="0.7017334" fill="none" /><path id="1083" transform="matrix(1 0 0 -1 0 612)" d="M316.125 151.0547L525.2848 151.0547" stroke="#000000" stroke-width="0.7017334" fill="none" /><path id="1110" transform="matrix(1 0 0 -1 0 612)" d="M316.125 137.9658L446.4043 137.9658" stroke="#000000" stroke-width="0.7017334" fill="none" /><path id="1166" transform="matrix(1 0 0 -1 0 612)" d="M316.125 121.3936L504.0644 121.3936" stroke="#000000" stroke-width="0.7017334" fill="none" /><path id="1209" transform="matrix(1 0 0 -1 0 612)" d="M316.125 108.3047L524.9026 108.3047" stroke="#000000" stroke-width="0.7017334" fill="none" /><path id="1215" transform="matrix(1 0 0 -1 0 612)" d="M316.125 95.21582L342.9735 95.21582" stroke="#000000" stroke-width="0.7017334" fill="none" /></g></g></g></svg>