<svg xmlns="http://www.w3.org/2000/svg" xmlns:xlink="http://www.w3.org/1999/xlink" id="body_9" preserveAspectRatio="xMinYMin meet" viewBox="0 0 1056 816"><defs><clipPath id="1"><path id="" clip-rule="evenodd" transform="matrix(1 0 0 1 0 0)" d="M0 612L0 0L0 0L792 0L792 0L792 612L792 612L0 612z" /></clipPath><clipPath id="2"><path id="" clip-rule="evenodd" transform="matrix(1 0 0 1 0 0)" d="M205.125 52.5L586.875 52.5L586.875 52.5L586.875 69.75L586.875 69.75L205.125 69.75L205.125 69.75L205.125 52.5z" /></clipPath><clipPath id="3"><path id="" clip-rule="evenodd" transform="matrix(1 0 0 1 0 0)" d="M205.125 69L586.875 69L586.875 69L586.875 555L586.875 555L205.125 555L205.125 555L205.125 69z" /></clipPath></defs><g transform="matrix(1.333333 0 0 1.333333 0 0)"><g clip-path="url(#1)"><g clip-path="url(#2)"><path id="1" transform="matrix(1 0 0 -1 0 612)" d="M205.875 558.75L586.125 558.75L586.125 541.5L205.875 541.5L205.875 558.75z" stroke="none" fill="#4DD0E1" fill-rule="nonzero" /><path id="2" transform="matrix(1 0 0 -1 0 612)" d="M205.875 542.25L586.125 542.25L586.125 541.5L205.875 541.5zM205.875 558.75L586.125 558.75L586.125 558L205.875 558zM586.125 558L586.125 542.25L585.375 542.25L585.375 558zM544.125 558L544.125 542.25L543.375 542.25L543.375 558zM313.875 558L313.875 542.25L313.125 542.25L313.125 558zM251.625 558L251.625 542.25L250.875 542.25L250.875 558zM206.625 558L206.625 542.25L205.875 542.25L205.875 558z" stroke="none" fill="#000000" fill-rule="nonzero" fill-opacity="0.1490196" /></g><g clip-path="url(#3)"><path id="24" transform="matrix(1 0 0 -1 0 612)" d="M205.875 542.25L586.125 542.25L586.125 498.75L205.875 498.75L205.875 542.25z" stroke="none" fill="#E0F7FA" fill-rule="nonzero" /><path id="25" transform="matrix(1 0 0 -1 0 612)" d="M205.875 499.5L586.125 499.5L586.125 468.75L205.875 468.75L205.875 499.5z" stroke="none" fill="#FFFFFF" fill-rule="nonzero" /><path id="26" transform="matrix(1 0 0 -1 0 612)" d="M205.875 469.5L586.125 469.5L586.125 438.75L205.875 438.75L205.875 469.5z" stroke="none" fill="#E0F7FA" fill-rule="nonzero" /><path id="27" transform="matrix(1 0 0 -1 0 612)" d="M205.875 439.5L586.125 439.5L586.125 396L205.875 396L205.875 439.5z" stroke="none" fill="#FFFFFF" fill-rule="nonzero" /><path id="28" transform="matrix(1 0 0 -1 0 612)" d="M205.875 396.75L586.125 396.75L586.125 353.25L205.875 353.25L205.875 396.75z" stroke="none" fill="#E0F7FA" fill-rule="nonzero" /><path id="29" transform="matrix(1 0 0 -1 0 612)" d="M205.875 354L586.125 354L586.125 323.25L205.875 323.25L205.875 354z" stroke="none" fill="#FFFFFF" fill-rule="nonzero" /><path id="30" transform="matrix(1 0 0 -1 0 612)" d="M205.875 324L586.125 324L586.125 293.25L205.875 293.25L205.875 324z" stroke="none" fill="#E0F7FA" fill-rule="nonzero" /><path id="31" transform="matrix(1 0 0 -1 0 612)" d="M205.875 294L586.125 294L586.125 263.25L205.875 263.25L205.875 294z" stroke="none" fill="#FFFFFF" fill-rule="nonzero" /><path id="32" transform="matrix(1 0 0 -1 0 612)" d="M205.875 264L586.125 264L586.125 233.25L205.875 233.25L205.875 264z" stroke="none" fill="#E0F7FA" fill-rule="nonzero" /><path id="33" transform="matrix(1 0 0 -1 0 612)" d="M205.875 234L586.125 234L586.125 190.5L205.875 190.5L205.875 234z" stroke="none" fill="#FFFFFF" fill-rule="nonzero" /><path id="34" transform="matrix(1 0 0 -1 0 612)" d="M205.875 191.25L586.125 191.25L586.125 160.5L205.875 160.5L205.875 191.25z" stroke="none" fill="#E0F7FA" fill-rule="nonzero" /><path id="35" transform="matrix(1 0 0 -1 0 612)" d="M205.875 161.25L586.125 161.25L586.125 117.75L205.875 117.75L205.875 161.25z" stroke="none" fill="#FFFFFF" fill-rule="nonzero" /><path id="36" transform="matrix(1 0 0 -1 0 612)" d="M205.875 118.5L586.125 118.5L586.125 87.75L205.875 87.75L205.875 118.5z" stroke="none" fill="#E0F7FA" fill-rule="nonzero" /><path id="37" transform="matrix(1 0 0 -1 0 612)" d="M205.875 88.5L586.125 88.5L586.125 57.75L205.875 57.75L205.875 88.5z" stroke="none" fill="#FFFFFF" fill-rule="nonzero" /><path id="38" transform="matrix(1 0 0 -1 0 612)" d="M205.875 58.5L586.125 58.5L586.125 57.75L205.875 57.75zM205.875 88.5L586.125 88.5L586.125 87.75L205.875 87.75zM205.875 118.5L586.125 118.5L586.125 117.75L205.875 117.75zM205.875 161.25L586.125 161.25L586.125 160.5L205.875 160.5zM205.875 191.25L586.125 191.25L586.125 190.5L205.875 190.5zM205.875 234L586.125 234L586.125 233.25L205.875 233.25zM205.875 264L586.125 264L586.125 263.25L205.875 263.25zM205.875 294L586.125 294L586.125 293.25L205.875 293.25zM205.875 324L586.125 324L586.125 323.25L205.875 323.25zM205.875 354L586.125 354L586.125 353.25L205.875 353.25zM205.875 396.75L586.125 396.75L586.125 396L205.875 396zM205.875 439.5L586.125 439.5L586.125 438.75L205.875 438.75zM205.875 469.5L586.125 469.5L586.125 468.75L205.875 468.75zM205.875 499.5L586.125 499.5L586.125 498.75L205.875 498.75zM205.875 542.25L586.125 542.25L586.125 541.5L205.875 541.5zM586.125 87.75L586.125 58.5L585.375 58.5L585.375 87.75zM586.125 117.75L586.125 88.5L585.375 88.5L585.375 117.75zM586.125 160.5L586.125 118.5L585.375 118.5L585.375 160.5zM586.125 190.5L586.125 161.25L585.375 161.25L585.375 190.5zM586.125 233.25L586.125 191.25L585.375 191.25L585.375 233.25zM586.125 263.25L586.125 234L585.375 234L585.375 263.25zM586.125 293.25L586.125 264L585.375 264L585.375 293.25zM586.125 323.25L586.125 294L585.375 294L585.375 323.25zM586.125 353.25L586.125 324L585.375 324L585.375 353.25zM586.125 396L586.125 354L585.375 354L585.375 396zM586.125 438.75L586.125 396.75L585.375 396.75L585.375 438.75zM586.125 468.75L586.125 439.5L585.375 439.5L585.375 468.75zM586.125 498.75L586.125 469.5L585.375 469.5L585.375 498.75zM586.125 541.5L586.125 499.5L585.375 499.5L585.375 541.5zM544.125 87.75L544.125 58.5L543.375 58.5L543.375 87.75zM544.125 117.75L544.125 88.5L543.375 88.5L543.375 117.75zM544.125 160.5L544.125 118.5L543.375 118.5L543.375 160.5zM544.125 190.5L544.125 161.25L543.375 161.25L543.375 190.5zM544.125 233.25L544.125 191.25L543.375 191.25L543.375 233.25zM544.125 263.25L544.125 234L543.375 234L543.375 263.25zM544.125 293.25L544.125 264L543.375 264L543.375 293.25zM544.125 323.25L544.125 294L543.375 294L543.375 323.25zM544.125 353.25L544.125 324L543.375 324L543.375 353.25zM544.125 396L544.125 354L543.375 354L543.375 396zM544.125 438.75L544.125 396.75L543.375 396.75L543.375 438.75zM544.125 468.75L544.125 439.5L543.375 439.5L543.375 468.75zM544.125 498.75L544.125 469.5L543.375 469.5L543.375 498.75zM544.125 541.5L544.125 499.5L543.375 499.5L543.375 541.5zM313.875 87.75L313.875 58.5L313.125 58.5L313.125 87.75zM313.875 117.75L313.875 88.5L313.125 88.5L313.125 117.75zM313.875 160.5L313.875 118.5L313.125 118.5L313.125 160.5zM313.875 190.5L313.875 161.25L313.125 161.25L313.125 190.5zM313.875 233.25L313.875 191.25L313.125 191.25L313.125 233.25zM313.875 263.25L313.875 234L313.125 234L313.125 263.25zM313.875 293.25L313.875 264L313.125 264L313.125 293.25zM313.875 323.25L313.875 294L313.125 294L313.125 323.25zM313.875 353.25L313.875 324L313.125 324L313.125 353.25zM313.875 396L313.875 354L313.125 354L313.125 396zM313.875 438.75L313.875 396.75L313.125 396.75L313.125 438.75zM313.875 468.75L313.875 439.5L313.125 439.5L313.125 468.75zM313.875 498.75L313.875 469.5L313.125 469.5L313.125 498.75zM313.875 541.5L313.875 499.5L313.125 499.5L313.125 541.5zM251.625 87.75L251.625 58.5L250.875 58.5L250.875 87.75zM251.625 117.75L251.625 88.5L250.875 88.5L250.875 117.75zM251.625 160.5L251.625 118.5L250.875 118.5L250.875 160.5zM251.625 190.5L251.625 161.25L250.875 161.25L250.875 190.5zM251.625 233.25L251.625 191.25L250.875 191.25L250.875 233.25zM251.625 263.25L251.625 234L250.875 234L250.875 263.25zM251.625 293.25L251.625 264L250.875 264L250.875 293.25zM251.625 323.25L251.625 294L250.875 294L250.875 323.25zM251.625 353.25L251.625 324L250.875 324L250.875 353.25zM251.625 396L251.625 354L250.875 354L250.875 396zM251.625 438.75L251.625 396.75L250.875 396.75L250.875 438.75zM251.625 468.75L251.625 439.5L250.875 439.5L250.875 468.75zM251.625 498.75L251.625 469.5L250.875 469.5L250.875 498.75zM251.625 541.5L251.625 499.5L250.875 499.5L250.875 541.5zM206.625 87.75L206.625 58.5L205.875 58.5L205.875 87.75zM206.625 117.75L206.625 88.5L205.875 88.5L205.875 117.75zM206.625 160.5L206.625 118.5L205.875 118.5L205.875 160.5zM206.625 190.5L206.625 161.25L205.875 161.25L205.875 190.5zM206.625 233.25L206.625 191.25L205.875 191.25L205.875 233.25zM206.625 263.25L206.625 234L205.875 234L205.875 263.25zM206.625 293.25L206.625 264L205.875 264L205.875 293.25zM206.625 323.25L206.625 294L205.875 294L205.875 323.25zM206.625 353.25L206.625 324L205.875 324L205.875 353.25zM206.625 396L206.625 354L205.875 354L205.875 396zM206.625 438.75L206.625 396.75L205.875 396.75L205.875 438.75zM206.625 468.75L206.625 439.5L205.875 439.5L205.875 468.75zM206.625 498.75L206.625 469.5L205.875 469.5L205.875 498.75zM206.625 541.5L206.625 499.5L205.875 499.5L205.875 541.5z" stroke="none" fill="#000000" fill-rule="nonzero" fill-opacity="0.1490196" /><path id="85" transform="matrix(1 0 0 -1 0 612)" d="M316.125 528.6438L526.6462 528.6438" stroke="#000000" stroke-width="0.7017334" fill="none" /><path id="131" transform="matrix(1 0 0 -1 0 612)" d="M316.125 515.5547L541.3165 515.5547" stroke="#000000" stroke-width="0.7017334" fill="none" /><path id="140" transform="matrix(1 0 0 -1 0 612)" d="M316.125 502.4656L363.6492 502.4656" stroke="#000000" stroke-width="0.7017334" fill="none" /><path id="198" transform="matrix(1 0 0 -1 0 612)" d="M316.125 485.5547L532.5415 485.5547" stroke="#000000" stroke-width="0.7017334" fill="none" /><path id="213" transform="matrix(1 0 0 -1 0 612)" d="M316.125 472.4656L390.6234 472.4656" stroke="#000000" stroke-width="0.7017334" fill="none" /><path id="270" transform="matrix(1 0 0 -1 0 612)" d="M316.125 455.5547L539.463 455.5547" stroke="#000000" stroke-width="0.7017334" fill="none" /><path id="286" transform="matrix(1 0 0 -1 0 612)" d="M316.125 442.4656L400.8748 442.4656" stroke="#000000" stroke-width="0.7017334" fill="none" /><path id="365" transform="matrix(1 0 0 -1 0 612)" d="M316.125 425.8938L535.3319 425.8938" stroke="#000000" stroke-width="0.7017334" fill="none" /><path id="405" transform="matrix(1 0 0 -1 0 612)" d="M316.125 412.8047L520.4995 412.8047" stroke="#000000" stroke-width="0.7017334" fill="none" /><path id="436" transform="matrix(1 0 0 -1 0 612)" d="M316.125 399.7156L472.8026 399.7156" stroke="#000000" stroke-width="0.7017334" fill="none" /><path id="486" transform="matrix(1 0 0 -1 0 612)" d="M316.125 383.1438L512.3894 383.1438" stroke="#000000" stroke-width="0.7017334" fill="none" /><path id="530" transform="matrix(1 0 0 -1 0 612)" d="M316.125 370.0547L539.6935 370.0547" stroke="#000000" stroke-width="0.7017334" fill="none" /><path id="536" transform="matrix(1 0 0 -1 0 612)" d="M316.125 356.9656L342.0573 356.9656" stroke="#000000" stroke-width="0.7017334" fill="none" /><path id="594" transform="matrix(1 0 0 -1 0 612)" d="M316.125 340.0547L536.2797 340.0547" stroke="#000000" stroke-width="0.7017334" fill="none" /><path id="622" transform="matrix(1 0 0 -1 0 612)" d="M316.125 326.9656L451.797 326.9656" stroke="#000000" stroke-width="0.7017334" fill="none" /><path id="680" transform="matrix(1 0 0 -1 0 612)" d="M316.125 310.0547L526.688 310.0547" stroke="#000000" stroke-width="0.7017334" fill="none" /><path id="690" transform="matrix(1 0 0 -1 0 612)" d="M316.125 296.9656L362.8848 296.9656" stroke="#000000" stroke-width="0.7017334" fill="none" /><path id="737" transform="matrix(1 0 0 -1 0 612)" d="M316.125 280.0547L486.7817 280.0547" stroke="#000000" stroke-width="0.7017334" fill="none" /><path id="777" transform="matrix(1 0 0 -1 0 612)" d="M316.125 266.9656L522.8346 266.9656" stroke="#000000" stroke-width="0.7017334" fill="none" /><path id="836" transform="matrix(1 0 0 -1 0 612)" d="M316.125 250.0547L518.6775 250.0547" stroke="#000000" stroke-width="0.7017334" fill="none" /><path id="852" transform="matrix(1 0 0 -1 0 612)" d="M316.125 236.9656L389.5501 236.9656" stroke="#000000" stroke-width="0.7017334" fill="none" /><path id="903" transform="matrix(1 0 0 -1 0 612)" d="M316.125 220.3938L510.4886 220.3938" stroke="#000000" stroke-width="0.7017334" fill="none" /><path id="941" transform="matrix(1 0 0 -1 0 612)" d="M316.125 207.3047L512.2898 207.3047" stroke="#000000" stroke-width="0.7017334" fill="none" /><path id="964" transform="matrix(1 0 0 -1 0 612)" d="M316.125 194.2156L414.6132 194.2156" stroke="#000000" stroke-width="0.7017334" fill="none" /><path id="1022" transform="matrix(1 0 0 -1 0 612)" d="M316.125 177.3047L525.4734 177.3047" stroke="#000000" stroke-width="0.7017334" fill="none" /><path id="1056" transform="matrix(1 0 0 -1 0 612)" d="M316.125 164.2158L489.5617 164.2158" stroke="#000000" stroke-width="0.7017334" fill="none" /><path id="1114" transform="matrix(1 0 0 -1 0 612)" d="M316.125 147.6436L513.0701 147.6436" stroke="#000000" stroke-width="0.7017334" fill="none" /><path id="1157" transform="matrix(1 0 0 -1 0 612)" d="M316.125 134.5547L538.4628 134.5547" stroke="#000000" stroke-width="0.7017334" fill="none" /><path id="1171" transform="matrix(1 0 0 -1 0 612)" d="M316.125 121.4658L387.4817 121.4658" stroke="#000000" stroke-width="0.7017334" fill="none" /><path id="1229" transform="matrix(1 0 0 -1 0 612)" d="M316.125 104.5547L534.7772 104.5547" stroke="#000000" stroke-width="0.7017334" fill="none" /><path id="1259" transform="matrix(1 0 0 -1 0 612)" d="M316.125 91.46582L455.4095 91.46582" stroke="#000000" stroke-width="0.7017334" fill="none" /><path id="1315" transform="matrix(1 0 0 -1 0 612)" d="M316.125 74.55469L520.6774 74.55469" stroke="#000000" stroke-width="0.7017334" fill="none" /><path id="1356" transform="matrix(1 0 0 -1 0 612)" d="M316.125 61.46582L506.2689 61.46582" stroke="#000000" stroke-width="0.7017334" fill="none" /></g></g></g></svg>