<svg xmlns="http://www.w3.org/2000/svg" xmlns:xlink="http://www.w3.org/1999/xlink" id="body_32" preserveAspectRatio="xMinYMin meet" viewBox="0 0 1056 816"><defs><clipPath id="1"><path id="" clip-rule="evenodd" transform="matrix(1 0 0 1 0 0)" d="M0 612L0 0L0 0L792 0L792 0L792 612L792 612L0 612z" /></clipPath><clipPath id="2"><path id="" clip-rule="evenodd" transform="matrix(1 0 0 1 0 0)" d="M205.125 52.5L586.875 52.5L586.875 52.5L586.875 69.75L586.875 69.75L205.125 69.75L205.125 69.75L205.125 52.5z" /></clipPath><clipPath id="3"><path id="" clip-rule="evenodd" transform="matrix(1 0 0 1 0 0)" d="M205.125 69L586.875 69L586.875 69L586.875 543L586.875 543L205.125 543L205.125 543L205.125 69z" /></clipPath></defs><g transform="matrix(1.333333 0 0 1.333333 0 0)"><g clip-path="url(#1)"><g clip-path="url(#2)"><path id="1" transform="matrix(1 0 0 -1 0 612)" d="M205.875 558.75L586.125 558.75L586.125 541.5L205.875 541.5L205.875 558.75z" stroke="none" fill="#4DD0E1" fill-rule="nonzero" /><path id="2" transform="matrix(1 0 0 -1 0 612)" d="M205.875 542.25L586.125 542.25L586.125 541.5L205.875 541.5zM205.875 558.75L586.125 558.75L586.125 558L205.875 558zM586.125 558L586.125 542.25L585.375 542.25L585.375 558zM544.125 558L544.125 542.25L543.375 542.25L543.375 558zM313.875 558L313.875 542.25L313.125 542.25L313.125 558zM251.625 558L251.625 542.25L250.875 542.25L250.875 558zM206.625 558L206.625 542.25L205.875 542.25L205.875 558z" stroke="none" fill="#000000" fill-rule="nonzero" fill-opacity="0.1490196" /></g><g clip-path="url(#3)"><path id="24" transform="matrix(1 0 0 -1 0 612)" d="M205.875 542.25L586.125 542.25L586.125 498.75L205.875 498.75L205.875 542.25z" stroke="none" fill="#E0F7FA" fill-rule="nonzero" /><path id="25" transform="matrix(1 0 0 -1 0 612)" d="M205.875 499.5L586.125 499.5L586.125 482.25L205.875 482.25L205.875 499.5z" stroke="none" fill="#FFFFFF" fill-rule="nonzero" /><path id="26" transform="matrix(1 0 0 -1 0 612)" d="M205.875 483L586.125 483L586.125 439.5L205.875 439.5L205.875 483z" stroke="none" fill="#E0F7FA" fill-rule="nonzero" /><path id="27" transform="matrix(1 0 0 -1 0 612)" d="M205.875 440.25L586.125 440.25L586.125 396.75L205.875 396.75L205.875 440.25z" stroke="none" fill="#FFFFFF" fill-rule="nonzero" /><path id="28" transform="matrix(1 0 0 -1 0 612)" d="M205.875 397.5L586.125 397.5L586.125 354L205.875 354L205.875 397.5z" stroke="none" fill="#E0F7FA" fill-rule="nonzero" /><path id="29" transform="matrix(1 0 0 -1 0 612)" d="M205.875 354.75L586.125 354.75L586.125 324L205.875 324L205.875 354.75z" stroke="none" fill="#FFFFFF" fill-rule="nonzero" /><path id="30" transform="matrix(1 0 0 -1 0 612)" d="M205.875 324.75L586.125 324.75L586.125 307.5L205.875 307.5L205.875 324.75z" stroke="none" fill="#E0F7FA" fill-rule="nonzero" /><path id="31" transform="matrix(1 0 0 -1 0 612)" d="M205.875 308.25L586.125 308.25L586.125 277.5L205.875 277.5L205.875 308.25z" stroke="none" fill="#FFFFFF" fill-rule="nonzero" /><path id="32" transform="matrix(1 0 0 -1 0 612)" d="M205.875 278.25L586.125 278.25L586.125 247.5L205.875 247.5L205.875 278.25z" stroke="none" fill="#E0F7FA" fill-rule="nonzero" /><path id="33" transform="matrix(1 0 0 -1 0 612)" d="M205.875 248.25L586.125 248.25L586.125 217.5L205.875 217.5L205.875 248.25z" stroke="none" fill="#FFFFFF" fill-rule="nonzero" /><path id="34" transform="matrix(1 0 0 -1 0 612)" d="M205.875 218.25L586.125 218.25L586.125 174.75L205.875 174.75L205.875 218.25z" stroke="none" fill="#E0F7FA" fill-rule="nonzero" /><path id="35" transform="matrix(1 0 0 -1 0 612)" d="M205.875 175.5L586.125 175.5L586.125 129.75L205.875 129.75L205.875 175.5z" stroke="none" fill="#FFFFFF" fill-rule="nonzero" /><path id="36" transform="matrix(1 0 0 -1 0 612)" d="M205.875 130.5L586.125 130.5L586.125 99.75L205.875 99.75L205.875 130.5z" stroke="none" fill="#E0F7FA" fill-rule="nonzero" /><path id="37" transform="matrix(1 0 0 -1 0 612)" d="M205.875 100.5L586.125 100.5L586.125 69.75L205.875 69.75L205.875 100.5z" stroke="none" fill="#FFFFFF" fill-rule="nonzero" /><path id="38" transform="matrix(1 0 0 -1 0 612)" d="M205.875 70.5L586.125 70.5L586.125 69.75L205.875 69.75zM205.875 100.5L586.125 100.5L586.125 99.75L205.875 99.75zM205.875 130.5L586.125 130.5L586.125 129.75L205.875 129.75zM205.875 175.5L586.125 175.5L586.125 174.75L205.875 174.75zM205.875 218.25L586.125 218.25L586.125 217.5L205.875 217.5zM205.875 248.25L586.125 248.25L586.125 247.5L205.875 247.5zM205.875 278.25L586.125 278.25L586.125 277.5L205.875 277.5zM205.875 308.25L586.125 308.25L586.125 307.5L205.875 307.5zM205.875 324.75L586.125 324.75L586.125 324L205.875 324zM205.875 354.75L586.125 354.75L586.125 354L205.875 354zM205.875 397.5L586.125 397.5L586.125 396.75L205.875 396.75zM205.875 440.25L586.125 440.25L586.125 439.5L205.875 439.5zM205.875 483L586.125 483L586.125 482.25L205.875 482.25zM205.875 499.5L586.125 499.5L586.125 498.75L205.875 498.75zM205.875 542.25L586.125 542.25L586.125 541.5L205.875 541.5zM586.125 99.75L586.125 70.5L585.375 70.5L585.375 99.75zM586.125 129.75L586.125 100.5L585.375 100.5L585.375 129.75zM586.125 174.75L586.125 130.5L585.375 130.5L585.375 174.75zM586.125 217.5L586.125 175.5L585.375 175.5L585.375 217.5zM586.125 247.5L586.125 218.25L585.375 218.25L585.375 247.5zM586.125 277.5L586.125 248.25L585.375 248.25L585.375 277.5zM586.125 307.5L586.125 278.25L585.375 278.25L585.375 307.5zM586.125 324L586.125 308.25L585.375 308.25L585.375 324zM586.125 354L586.125 324.75L585.375 324.75L585.375 354zM586.125 396.75L586.125 354.75L585.375 354.75L585.375 396.75zM586.125 439.5L586.125 397.5L585.375 397.5L585.375 439.5zM586.125 482.25L586.125 440.25L585.375 440.25L585.375 482.25zM586.125 498.75L586.125 483L585.375 483L585.375 498.75zM586.125 541.5L586.125 499.5L585.375 499.5L585.375 541.5zM544.125 99.75L544.125 70.5L543.375 70.5L543.375 99.75zM544.125 129.75L544.125 100.5L543.375 100.5L543.375 129.75zM544.125 174.75L544.125 130.5L543.375 130.5L543.375 174.75zM544.125 217.5L544.125 175.5L543.375 175.5L543.375 217.5zM544.125 247.5L544.125 218.25L543.375 218.25L543.375 247.5zM544.125 277.5L544.125 248.25L543.375 248.25L543.375 277.5zM544.125 307.5L544.125 278.25L543.375 278.25L543.375 307.5zM544.125 324L544.125 308.25L543.375 308.25L543.375 324zM544.125 354L544.125 324.75L543.375 324.75L543.375 354zM544.125 396.75L544.125 354.75L543.375 354.75L543.375 396.75zM544.125 439.5L544.125 397.5L543.375 397.5L543.375 439.5zM544.125 482.25L544.125 440.25L543.375 440.25L543.375 482.25zM544.125 498.75L544.125 483L543.375 483L543.375 498.75zM544.125 541.5L544.125 499.5L543.375 499.5L543.375 541.5zM313.875 99.75L313.875 70.5L313.125 70.5L313.125 99.75zM313.875 129.75L313.875 100.5L313.125 100.5L313.125 129.75zM313.875 174.75L313.875 130.5L313.125 130.5L313.125 174.75zM313.875 217.5L313.875 175.5L313.125 175.5L313.125 217.5zM313.875 247.5L313.875 218.25L313.125 218.25L313.125 247.5zM313.875 277.5L313.875 248.25L313.125 248.25L313.125 277.5zM313.875 307.5L313.875 278.25L313.125 278.25L313.125 307.5zM313.875 324L313.875 308.25L313.125 308.25L313.125 324zM313.875 354L313.875 324.75L313.125 324.75L313.125 354zM313.875 396.75L313.875 354.75L313.125 354.75L313.125 396.75zM313.875 439.5L313.875 397.5L313.125 397.5L313.125 439.5zM313.875 482.25L313.875 440.25L313.125 440.25L313.125 482.25zM313.875 498.75L313.875 483L313.125 483L313.125 498.75zM313.875 541.5L313.875 499.5L313.125 499.5L313.125 541.5zM251.625 99.75L251.625 70.5L250.875 70.5L250.875 99.75zM251.625 129.75L251.625 100.5L250.875 100.5L250.875 129.75zM251.625 174.75L251.625 130.5L250.875 130.5L250.875 174.75zM251.625 217.5L251.625 175.5L250.875 175.5L250.875 217.5zM251.625 247.5L251.625 218.25L250.875 218.25L250.875 247.5zM251.625 277.5L251.625 248.25L250.875 248.25L250.875 277.5zM251.625 307.5L251.625 278.25L250.875 278.25L250.875 307.5zM251.625 324L251.625 308.25L250.875 308.25L250.875 324zM251.625 354L251.625 324.75L250.875 324.75L250.875 354zM251.625 396.75L251.625 354.75L250.875 354.75L250.875 396.75zM251.625 439.5L251.625 397.5L250.875 397.5L250.875 439.5zM251.625 482.25L251.625 440.25L250.875 440.25L250.875 482.25zM251.625 498.75L251.625 483L250.875 483L250.875 498.75zM251.625 541.5L251.625 499.5L250.875 499.5L250.875 541.5zM206.625 99.75L206.625 70.5L205.875 70.5L205.875 99.75zM206.625 129.75L206.625 100.5L205.875 100.5L205.875 129.75zM206.625 174.75L206.625 130.5L205.875 130.5L205.875 174.75zM206.625 217.5L206.625 175.5L205.875 175.5L205.875 217.5zM206.625 247.5L206.625 218.25L205.875 218.25L205.875 247.5zM206.625 277.5L206.625 248.25L205.875 248.25L205.875 277.5zM206.625 307.5L206.625 278.25L205.875 278.25L205.875 307.5zM206.625 324L206.625 308.25L205.875 308.25L205.875 324zM206.625 354L206.625 324.75L205.875 324.75L205.875 354zM206.625 396.75L206.625 354.75L205.875 354.75L205.875 396.75zM206.625 439.5L206.625 397.5L205.875 397.5L205.875 439.5zM206.625 482.25L206.625 440.25L205.875 440.25L205.875 482.25zM206.625 498.75L206.625 483L205.875 483L205.875 498.75zM206.625 541.5L206.625 499.5L205.875 499.5L205.875 541.5z" stroke="none" fill="#000000" fill-rule="nonzero" fill-opacity="0.1490196" /><path id="90" transform="matrix(1 0 0 -1 0 612)" d="M316.125 528.6445L527.4368 528.6445" stroke="#000000" stroke-width="0.7017334" fill="none" /><path id="127" transform="matrix(1 0 0 -1 0 612)" d="M316.125 515.5566L513.0858 515.5566" stroke="#000000" stroke-width="0.7017334" fill="none" /><path id="136" transform="matrix(1 0 0 -1 0 612)" d="M316.125 502.4668L363.3979 502.4668" stroke="#000000" stroke-width="0.7017334" fill="none" /><path id="190" transform="matrix(1 0 0 -1 0 612)" d="M316.125 485.9668L500.1747 485.9668" stroke="#000000" stroke-width="0.7017334" fill="none" /><path id="254" transform="matrix(1 0 0 -1 0 612)" d="M316.125 469.3945L542.264 469.3945" stroke="#000000" stroke-width="0.7017334" fill="none" /><path id="297" transform="matrix(1 0 0 -1 0 612)" d="M316.125 456.3066L525.7507 456.3066" stroke="#000000" stroke-width="0.7017334" fill="none" /><path id="320" transform="matrix(1 0 0 -1 0 612)" d="M316.125 443.2168L438.3985 443.2168" stroke="#000000" stroke-width="0.7017334" fill="none" /><path id="375" transform="matrix(1 0 0 -1 0 612)" d="M316.125 426.6445L528.7979 426.6445" stroke="#000000" stroke-width="0.7017334" fill="none" /><path id="421" transform="matrix(1 0 0 -1 0 612)" d="M316.125 413.5566L541.2484 413.5566" stroke="#000000" stroke-width="0.7017334" fill="none" /><path id="435" transform="matrix(1 0 0 -1 0 612)" d="M316.125 400.4668L384.0106 400.4668" stroke="#000000" stroke-width="0.7017334" fill="none" /><path id="491" transform="matrix(1 0 0 -1 0 612)" d="M316.125 383.8945L535.6462 383.8945" stroke="#000000" stroke-width="0.7017334" fill="none" /><path id="537" transform="matrix(1 0 0 -1 0 612)" d="M316.125 370.8066L539.1333 370.8066" stroke="#000000" stroke-width="0.7017334" fill="none" /><path id="550" transform="matrix(1 0 0 -1 0 612)" d="M316.125 357.7168L374.2096 357.7168" stroke="#000000" stroke-width="0.7017334" fill="none" /><path id="610" transform="matrix(1 0 0 -1 0 612)" d="M316.125 340.8066L529.3372 340.8066" stroke="#000000" stroke-width="0.7017334" fill="none" /><path id="617" transform="matrix(1 0 0 -1 0 612)" d="M316.125 327.7168L345.4605 327.7168" stroke="#000000" stroke-width="0.7017334" fill="none" /><path id="673" transform="matrix(1 0 0 -1 0 612)" d="M316.125 311.2168L512.3212 311.2168" stroke="#000000" stroke-width="0.7017334" fill="none" /><path id="722" transform="matrix(1 0 0 -1 0 612)" d="M316.125 294.3066L507.3784 294.3066" stroke="#000000" stroke-width="0.7017334" fill="none" /><path id="752" transform="matrix(1 0 0 -1 0 612)" d="M316.125 281.2168L465.0796 281.2168" stroke="#000000" stroke-width="0.7017334" fill="none" /><path id="808" transform="matrix(1 0 0 -1 0 612)" d="M316.125 264.3066L534.6986 264.3066" stroke="#000000" stroke-width="0.7017334" fill="none" /><path id="826" transform="matrix(1 0 0 -1 0 612)" d="M316.125 251.2168L401.079 251.2168" stroke="#000000" stroke-width="0.7017334" fill="none" /><path id="876" transform="matrix(1 0 0 -1 0 612)" d="M316.125 234.3066L487.3889 234.3066" stroke="#000000" stroke-width="0.7017334" fill="none" /><path id="910" transform="matrix(1 0 0 -1 0 612)" d="M316.125 221.2168L489.185 221.2168" stroke="#000000" stroke-width="0.7017334" fill="none" /><path id="976" transform="matrix(1 0 0 -1 0 612)" d="M316.125 204.6445L522.5884 204.6445" stroke="#000000" stroke-width="0.7017334" fill="none" /><path id="1016" transform="matrix(1 0 0 -1 0 612)" d="M316.125 191.5566L507.8815 191.5566" stroke="#000000" stroke-width="0.7017334" fill="none" /><path id="1026" transform="matrix(1 0 0 -1 0 612)" d="M316.125 178.4668L355.0627 178.4668" stroke="#000000" stroke-width="0.7017334" fill="none" /><path id="1063" transform="matrix(1 0 0 -1 0 612)" d="M316.125 159.6445L462.7604 159.6445" stroke="#000000" stroke-width="0.7017334" fill="none" /><path id="1065" transform="matrix(1 0 0 -1 0 612)" d="M462.7604 159.7227L468.7239 159.7227" stroke="#000000" stroke-width="0.7855225" fill="none" /><path id="1069" transform="matrix(1 0 0 -1 0 612)" d="M468.7239 159.6445L488.4832 159.6445" stroke="#000000" stroke-width="0.7017334" fill="none" /><path id="1111" transform="matrix(1 0 0 -1 0 612)" d="M316.125 146.5566L528.955 146.5566" stroke="#000000" stroke-width="0.7017334" fill="none" /><path id="1134" transform="matrix(1 0 0 -1 0 612)" d="M316.125 133.4668L415.5766 133.4668" stroke="#000000" stroke-width="0.7017334" fill="none" /><path id="1182" transform="matrix(1 0 0 -1 0 612)" d="M316.125 116.5566L525.295 116.5566" stroke="#000000" stroke-width="0.7017334" fill="none" /><path id="1213" transform="matrix(1 0 0 -1 0 612)" d="M316.125 103.4668L479.2633 103.4668" stroke="#000000" stroke-width="0.7017334" fill="none" /><path id="1269" transform="matrix(1 0 0 -1 0 612)" d="M316.125 86.55664L510.1275 86.55664" stroke="#000000" stroke-width="0.7017334" fill="none" /><path id="1302" transform="matrix(1 0 0 -1 0 612)" d="M316.125 73.4668L479.9332 73.4668" stroke="#000000" stroke-width="0.7017334" fill="none" /></g></g></g></svg>