<svg xmlns="http://www.w3.org/2000/svg" xmlns:xlink="http://www.w3.org/1999/xlink" id="body_22" preserveAspectRatio="xMinYMin meet" viewBox="0 0 1056 816"><defs><clipPath id="1"><path id="" clip-rule="evenodd" transform="matrix(1 0 0 1 0 0)" d="M0 612L0 0L0 0L792 0L792 0L792 612L792 612L0 612z" /></clipPath><clipPath id="2"><path id="" clip-rule="evenodd" transform="matrix(1 0 0 1 0 0)" d="M205.125 52.5L586.875 52.5L586.875 52.5L586.875 69.75L586.875 69.75L205.125 69.75L205.125 69.75L205.125 52.5z" /></clipPath><clipPath id="3"><path id="" clip-rule="evenodd" transform="matrix(1 0 0 1 0 0)" d="M205.125 69L586.875 69L586.875 69L586.875 554.25L586.875 554.25L205.125 554.25L205.125 554.25L205.125 69z" /></clipPath></defs><g transform="matrix(1.333333 0 0 1.333333 0 0)"><g clip-path="url(#1)"><g clip-path="url(#2)"><path id="1" transform="matrix(1 0 0 -1 0 612)" d="M205.875 558.75L586.125 558.75L586.125 541.5L205.875 541.5L205.875 558.75z" stroke="none" fill="#4DD0E1" fill-rule="nonzero" /><path id="2" transform="matrix(1 0 0 -1 0 612)" d="M205.875 542.25L586.125 542.25L586.125 541.5L205.875 541.5zM205.875 558.75L586.125 558.75L586.125 558L205.875 558zM586.125 558L586.125 542.25L585.375 542.25L585.375 558zM544.125 558L544.125 542.25L543.375 542.25L543.375 558zM313.875 558L313.875 542.25L313.125 542.25L313.125 558zM251.625 558L251.625 542.25L250.875 542.25L250.875 558zM206.625 558L206.625 542.25L205.875 542.25L205.875 558z" stroke="none" fill="#000000" fill-rule="nonzero" fill-opacity="0.1490196" /></g><g clip-path="url(#3)"><path id="24" transform="matrix(1 0 0 -1 0 612)" d="M205.875 542.25L586.125 542.25L586.125 511.5L205.875 511.5L205.875 542.25z" stroke="none" fill="#FFFFFF" fill-rule="nonzero" /><path id="25" transform="matrix(1 0 0 -1 0 612)" d="M205.875 512.25L586.125 512.25L586.125 481.5L205.875 481.5L205.875 512.25z" stroke="none" fill="#E0F7FA" fill-rule="nonzero" /><path id="26" transform="matrix(1 0 0 -1 0 612)" d="M205.875 482.25L586.125 482.25L586.125 451.5L205.875 451.5L205.875 482.25z" stroke="none" fill="#FFFFFF" fill-rule="nonzero" /><path id="27" transform="matrix(1 0 0 -1 0 612)" d="M205.875 452.25L586.125 452.25L586.125 421.5L205.875 421.5L205.875 452.25z" stroke="none" fill="#E0F7FA" fill-rule="nonzero" /><path id="28" transform="matrix(1 0 0 -1 0 612)" d="M205.875 422.25L586.125 422.25L586.125 378.75L205.875 378.75L205.875 422.25z" stroke="none" fill="#FFFFFF" fill-rule="nonzero" /><path id="29" transform="matrix(1 0 0 -1 0 612)" d="M205.875 379.5L586.125 379.5L586.125 336L205.875 336L205.875 379.5z" stroke="none" fill="#E0F7FA" fill-rule="nonzero" /><path id="30" transform="matrix(1 0 0 -1 0 612)" d="M205.875 336.75L586.125 336.75L586.125 306L205.875 306L205.875 336.75z" stroke="none" fill="#FFFFFF" fill-rule="nonzero" /><path id="31" transform="matrix(1 0 0 -1 0 612)" d="M205.875 306.75L586.125 306.75L586.125 263.25L205.875 263.25L205.875 306.75z" stroke="none" fill="#E0F7FA" fill-rule="nonzero" /><path id="32" transform="matrix(1 0 0 -1 0 612)" d="M205.875 264L586.125 264L586.125 220.5L205.875 220.5L205.875 264z" stroke="none" fill="#FFFFFF" fill-rule="nonzero" /><path id="33" transform="matrix(1 0 0 -1 0 612)" d="M205.875 221.25L586.125 221.25L586.125 190.5L205.875 190.5L205.875 221.25z" stroke="none" fill="#E0F7FA" fill-rule="nonzero" /><path id="34" transform="matrix(1 0 0 -1 0 612)" d="M205.875 191.25L586.125 191.25L586.125 174L205.875 174L205.875 191.25z" stroke="none" fill="#FFFFFF" fill-rule="nonzero" /><path id="35" transform="matrix(1 0 0 -1 0 612)" d="M205.875 174.75L586.125 174.75L586.125 131.25L205.875 131.25L205.875 174.75z" stroke="none" fill="#E0F7FA" fill-rule="nonzero" /><path id="36" transform="matrix(1 0 0 -1 0 612)" d="M205.875 132L586.125 132L586.125 88.5L205.875 88.5L205.875 132z" stroke="none" fill="#FFFFFF" fill-rule="nonzero" /><path id="37" transform="matrix(1 0 0 -1 0 612)" d="M205.875 89.25L586.125 89.25L586.125 58.5L205.875 58.5L205.875 89.25z" stroke="none" fill="#E0F7FA" fill-rule="nonzero" /><path id="38" transform="matrix(1 0 0 -1 0 612)" d="M205.875 59.25L586.125 59.25L586.125 58.5L205.875 58.5zM205.875 89.25L586.125 89.25L586.125 88.5L205.875 88.5zM205.875 132L586.125 132L586.125 131.25L205.875 131.25zM205.875 174.75L586.125 174.75L586.125 174L205.875 174zM205.875 191.25L586.125 191.25L586.125 190.5L205.875 190.5zM205.875 221.25L586.125 221.25L586.125 220.5L205.875 220.5zM205.875 264L586.125 264L586.125 263.25L205.875 263.25zM205.875 306.75L586.125 306.75L586.125 306L205.875 306zM205.875 336.75L586.125 336.75L586.125 336L205.875 336zM205.875 379.5L586.125 379.5L586.125 378.75L205.875 378.75zM205.875 422.25L586.125 422.25L586.125 421.5L205.875 421.5zM205.875 452.25L586.125 452.25L586.125 451.5L205.875 451.5zM205.875 482.25L586.125 482.25L586.125 481.5L205.875 481.5zM205.875 512.25L586.125 512.25L586.125 511.5L205.875 511.5zM205.875 542.25L586.125 542.25L586.125 541.5L205.875 541.5zM586.125 88.5L586.125 59.25L585.375 59.25L585.375 88.5zM586.125 131.25L586.125 89.25L585.375 89.25L585.375 131.25zM586.125 174L586.125 132L585.375 132L585.375 174zM586.125 190.5L586.125 174.75L585.375 174.75L585.375 190.5zM586.125 220.5L586.125 191.25L585.375 191.25L585.375 220.5zM586.125 263.25L586.125 221.25L585.375 221.25L585.375 263.25zM586.125 306L586.125 264L585.375 264L585.375 306zM586.125 336L586.125 306.75L585.375 306.75L585.375 336zM586.125 378.75L586.125 336.75L585.375 336.75L585.375 378.75zM586.125 421.5L586.125 379.5L585.375 379.5L585.375 421.5zM586.125 451.5L586.125 422.25L585.375 422.25L585.375 451.5zM586.125 481.5L586.125 452.25L585.375 452.25L585.375 481.5zM586.125 511.5L586.125 482.25L585.375 482.25L585.375 511.5zM586.125 541.5L586.125 512.25L585.375 512.25L585.375 541.5zM544.125 88.5L544.125 59.25L543.375 59.25L543.375 88.5zM544.125 131.25L544.125 89.25L543.375 89.25L543.375 131.25zM544.125 174L544.125 132L543.375 132L543.375 174zM544.125 190.5L544.125 174.75L543.375 174.75L543.375 190.5zM544.125 220.5L544.125 191.25L543.375 191.25L543.375 220.5zM544.125 263.25L544.125 221.25L543.375 221.25L543.375 263.25zM544.125 306L544.125 264L543.375 264L543.375 306zM544.125 336L544.125 306.75L543.375 306.75L543.375 336zM544.125 378.75L544.125 336.75L543.375 336.75L543.375 378.75zM544.125 421.5L544.125 379.5L543.375 379.5L543.375 421.5zM544.125 451.5L544.125 422.25L543.375 422.25L543.375 451.5zM544.125 481.5L544.125 452.25L543.375 452.25L543.375 481.5zM544.125 511.5L544.125 482.25L543.375 482.25L543.375 511.5zM544.125 541.5L544.125 512.25L543.375 512.25L543.375 541.5zM313.875 88.5L313.875 59.25L313.125 59.25L313.125 88.5zM313.875 131.25L313.875 89.25L313.125 89.25L313.125 131.25zM313.875 174L313.875 132L313.125 132L313.125 174zM313.875 190.5L313.875 174.75L313.125 174.75L313.125 190.5zM313.875 220.5L313.875 191.25L313.125 191.25L313.125 220.5zM313.875 263.25L313.875 221.25L313.125 221.25L313.125 263.25zM313.875 306L313.875 264L313.125 264L313.125 306zM313.875 336L313.875 306.75L313.125 306.75L313.125 336zM313.875 378.75L313.875 336.75L313.125 336.75L313.125 378.75zM313.875 421.5L313.875 379.5L313.125 379.5L313.125 421.5zM313.875 451.5L313.875 422.25L313.125 422.25L313.125 451.5zM313.875 481.5L313.875 452.25L313.125 452.25L313.125 481.5zM313.875 511.5L313.875 482.25L313.125 482.25L313.125 511.5zM313.875 541.5L313.875 512.25L313.125 512.25L313.125 541.5zM251.625 88.5L251.625 59.25L250.875 59.25L250.875 88.5zM251.625 131.25L251.625 89.25L250.875 89.25L250.875 131.25zM251.625 174L251.625 132L250.875 132L250.875 174zM251.625 190.5L251.625 174.75L250.875 174.75L250.875 190.5zM251.625 220.5L251.625 191.25L250.875 191.25L250.875 220.5zM251.625 263.25L251.625 221.25L250.875 221.25L250.875 263.25zM251.625 306L251.625 264L250.875 264L250.875 306zM251.625 336L251.625 306.75L250.875 306.75L250.875 336zM251.625 378.75L251.625 336.75L250.875 336.75L250.875 378.75zM251.625 421.5L251.625 379.5L250.875 379.5L250.875 421.5zM251.625 451.5L251.625 422.25L250.875 422.25L250.875 451.5zM251.625 481.5L251.625 452.25L250.875 452.25L250.875 481.5zM251.625 511.5L251.625 482.25L250.875 482.25L250.875 511.5zM251.625 541.5L251.625 512.25L250.875 512.25L250.875 541.5zM206.625 88.5L206.625 59.25L205.875 59.25L205.875 88.5zM206.625 131.25L206.625 89.25L205.875 89.25L205.875 131.25zM206.625 174L206.625 132L205.875 132L205.875 174zM206.625 190.5L206.625 174.75L205.875 174.75L205.875 190.5zM206.625 220.5L206.625 191.25L205.875 191.25L205.875 220.5zM206.625 263.25L206.625 221.25L205.875 221.25L205.875 263.25zM206.625 306L206.625 264L205.875 264L205.875 306zM206.625 336L206.625 306.75L205.875 306.75L205.875 336zM206.625 378.75L206.625 336.75L205.875 336.75L205.875 378.75zM206.625 421.5L206.625 379.5L205.875 379.5L205.875 421.5zM206.625 451.5L206.625 422.25L205.875 422.25L205.875 451.5zM206.625 481.5L206.625 452.25L205.875 452.25L205.875 481.5zM206.625 511.5L206.625 482.25L205.875 482.25L205.875 511.5zM206.625 541.5L206.625 512.25L205.875 512.25L205.875 541.5z" stroke="none" fill="#000000" fill-rule="nonzero" fill-opacity="0.1490196" /><path id="89" transform="matrix(1 0 0 -1 0 612)" d="M316.125 528.3047L524.6095 528.3047" stroke="#000000" stroke-width="0.7017334" fill="none" /><path id="107" transform="matrix(1 0 0 -1 0 612)" d="M316.125 515.2158L397.859 515.2158" stroke="#000000" stroke-width="0.7017334" fill="none" /><path id="159" transform="matrix(1 0 0 -1 0 612)" d="M316.125 498.3047L510.5884 498.3047" stroke="#000000" stroke-width="0.7017334" fill="none" /><path id="173" transform="matrix(1 0 0 -1 0 612)" d="M316.125 485.2158L389.927 485.2158" stroke="#000000" stroke-width="0.7017334" fill="none" /><path id="223" transform="matrix(1 0 0 -1 0 612)" d="M316.125 468.3047L488.4415 468.3047" stroke="#000000" stroke-width="0.7017334" fill="none" /><path id="257" transform="matrix(1 0 0 -1 0 612)" d="M316.125 455.2158L472.6925 455.2158" stroke="#000000" stroke-width="0.7017334" fill="none" /><path id="311" transform="matrix(1 0 0 -1 0 612)" d="M316.125 438.3047L534.0232 438.3047" stroke="#000000" stroke-width="0.7017334" fill="none" /><path id="349" transform="matrix(1 0 0 -1 0 612)" d="M316.125 425.2158L493.3419 425.2158" stroke="#000000" stroke-width="0.7017334" fill="none" /><path id="402" transform="matrix(1 0 0 -1 0 612)" d="M316.125 408.6436L515.9232 408.6436" stroke="#000000" stroke-width="0.7017334" fill="none" /><path id="446" transform="matrix(1 0 0 -1 0 612)" d="M316.125 395.5547L519.8868 395.5547" stroke="#000000" stroke-width="0.7017334" fill="none" /><path id="472" transform="matrix(1 0 0 -1 0 612)" d="M316.125 382.4658L450.9905 382.4658" stroke="#000000" stroke-width="0.7017334" fill="none" /><path id="539" transform="matrix(1 0 0 -1 0 612)" d="M316.125 365.8936L540.1854 365.8936" stroke="#000000" stroke-width="0.7017334" fill="none" /><path id="581" transform="matrix(1 0 0 -1 0 612)" d="M316.125 352.8047L527.489 352.8047" stroke="#000000" stroke-width="0.7017334" fill="none" /><path id="611" transform="matrix(1 0 0 -1 0 612)" d="M316.125 339.7158L450.0796 339.7158" stroke="#000000" stroke-width="0.7017334" fill="none" /><path id="663" transform="matrix(1 0 0 -1 0 612)" d="M316.125 322.8047L493.1326 322.8047" stroke="#000000" stroke-width="0.7017334" fill="none" /><path id="677" transform="matrix(1 0 0 -1 0 612)" d="M316.125 309.7158L371.6912 309.7158" stroke="#000000" stroke-width="0.7017334" fill="none" /><path id="741" transform="matrix(1 0 0 -1 0 612)" d="M316.125 293.1436L541.704 293.1436" stroke="#000000" stroke-width="0.7017334" fill="none" /><path id="782" transform="matrix(1 0 0 -1 0 612)" d="M316.125 280.0547L520.3948 280.0547" stroke="#000000" stroke-width="0.7017334" fill="none" /><path id="787" transform="matrix(1 0 0 -1 0 612)" d="M316.125 266.9658L337.8635 266.9658" stroke="#000000" stroke-width="0.7017334" fill="none" /><path id="846" transform="matrix(1 0 0 -1 0 612)" d="M316.125 250.3936L537.9866 250.3936" stroke="#000000" stroke-width="0.7017334" fill="none" /><path id="883" transform="matrix(1 0 0 -1 0 612)" d="M316.125 237.3047L502.2897 237.3047" stroke="#000000" stroke-width="0.7017334" fill="none" /><path id="916" transform="matrix(1 0 0 -1 0 612)" d="M316.125 224.2158L481.2686 224.2158" stroke="#000000" stroke-width="0.7017334" fill="none" /><path id="967" transform="matrix(1 0 0 -1 0 612)" d="M316.125 207.3047L489.4673 207.3047" stroke="#000000" stroke-width="0.7017334" fill="none" /><path id="1008" transform="matrix(1 0 0 -1 0 612)" d="M316.125 194.2158L516.0387 194.2158" stroke="#000000" stroke-width="0.7017334" fill="none" /><path id="1062" transform="matrix(1 0 0 -1 0 612)" d="M316.125 177.7158L527.2639 177.7158" stroke="#000000" stroke-width="0.7017334" fill="none" /><path id="1119" transform="matrix(1 0 0 -1 0 612)" d="M316.125 161.1436L506.7139 161.1436" stroke="#000000" stroke-width="0.7017334" fill="none" /><path id="1160" transform="matrix(1 0 0 -1 0 612)" d="M316.125 148.0547L513.8135 148.0547" stroke="#000000" stroke-width="0.7017334" fill="none" /><path id="1192" transform="matrix(1 0 0 -1 0 612)" d="M316.125 134.9658L486.9229 134.9658" stroke="#000000" stroke-width="0.7017334" fill="none" /><path id="1243" transform="matrix(1 0 0 -1 0 612)" d="M316.125 118.3936L518.515 118.3936" stroke="#000000" stroke-width="0.7017334" fill="none" /><path id="1287" transform="matrix(1 0 0 -1 0 612)" d="M316.125 105.3047L539.1385 105.3047" stroke="#000000" stroke-width="0.7017334" fill="none" /><path id="1302" transform="matrix(1 0 0 -1 0 612)" d="M316.125 92.21582L376.3247 92.21582" stroke="#000000" stroke-width="0.7017334" fill="none" /><path id="1361" transform="matrix(1 0 0 -1 0 612)" d="M316.125 75.30469L525.6879 75.30469" stroke="#000000" stroke-width="0.7017334" fill="none" /><path id="1401" transform="matrix(1 0 0 -1 0 612)" d="M316.125 62.21582L513.7769 62.21582" stroke="#000000" stroke-width="0.7017334" fill="none" /></g></g></g></svg>