<svg xmlns="http://www.w3.org/2000/svg" xmlns:xlink="http://www.w3.org/1999/xlink" id="body_18" preserveAspectRatio="xMinYMin meet" viewBox="0 0 1056 816"><defs><clipPath id="1"><path id="" clip-rule="evenodd" transform="matrix(1 0 0 1 0 0)" d="M0 612L0 0L0 0L792 0L792 0L792 612L792 612L0 612z" /></clipPath><clipPath id="2"><path id="" clip-rule="evenodd" transform="matrix(1 0 0 1 0 0)" d="M205.125 52.5L586.875 52.5L586.875 52.5L586.875 69.75L586.875 69.75L205.125 69.75L205.125 69.75L205.125 52.5z" /></clipPath><clipPath id="3"><path id="" clip-rule="evenodd" transform="matrix(1 0 0 1 0 0)" d="M205.125 69L586.875 69L586.875 69L586.875 554.25L586.875 554.25L205.125 554.25L205.125 554.25L205.125 69z" /></clipPath></defs><g transform="matrix(1.333333 0 0 1.333333 0 0)"><g clip-path="url(#1)"><g clip-path="url(#2)"><path id="1" transform="matrix(1 0 0 -1 0 612)" d="M205.875 558.75L586.125 558.75L586.125 541.5L205.875 541.5L205.875 558.75z" stroke="none" fill="#4DD0E1" fill-rule="nonzero" /><path id="2" transform="matrix(1 0 0 -1 0 612)" d="M205.875 542.25L586.125 542.25L586.125 541.5L205.875 541.5zM205.875 558.75L586.125 558.75L586.125 558L205.875 558zM586.125 558L586.125 542.25L585.375 542.25L585.375 558zM544.125 558L544.125 542.25L543.375 542.25L543.375 558zM313.875 558L313.875 542.25L313.125 542.25L313.125 558zM251.625 558L251.625 542.25L250.875 542.25L250.875 558zM206.625 558L206.625 542.25L205.875 542.25L205.875 558z" stroke="none" fill="#000000" fill-rule="nonzero" fill-opacity="0.1490196" /></g><g clip-path="url(#3)"><path id="24" transform="matrix(1 0 0 -1 0 612)" d="M205.875 542.25L586.125 542.25L586.125 498.75L205.875 498.75L205.875 542.25z" stroke="none" fill="#E0F7FA" fill-rule="nonzero" /><path id="25" transform="matrix(1 0 0 -1 0 612)" d="M205.875 499.5L586.125 499.5L586.125 468.75L205.875 468.75L205.875 499.5z" stroke="none" fill="#FFFFFF" fill-rule="nonzero" /><path id="26" transform="matrix(1 0 0 -1 0 612)" d="M205.875 469.5L586.125 469.5L586.125 438.75L205.875 438.75L205.875 469.5z" stroke="none" fill="#E0F7FA" fill-rule="nonzero" /><path id="27" transform="matrix(1 0 0 -1 0 612)" d="M205.875 439.5L586.125 439.5L586.125 408.75L205.875 408.75L205.875 439.5z" stroke="none" fill="#FFFFFF" fill-rule="nonzero" /><path id="28" transform="matrix(1 0 0 -1 0 612)" d="M205.875 409.5L586.125 409.5L586.125 366L205.875 366L205.875 409.5z" stroke="none" fill="#E0F7FA" fill-rule="nonzero" /><path id="29" transform="matrix(1 0 0 -1 0 612)" d="M205.875 366.75L586.125 366.75L586.125 323.25L205.875 323.25L205.875 366.75z" stroke="none" fill="#FFFFFF" fill-rule="nonzero" /><path id="30" transform="matrix(1 0 0 -1 0 612)" d="M205.875 324L586.125 324L586.125 293.25L205.875 293.25L205.875 324z" stroke="none" fill="#E0F7FA" fill-rule="nonzero" /><path id="31" transform="matrix(1 0 0 -1 0 612)" d="M205.875 294L586.125 294L586.125 263.25L205.875 263.25L205.875 294z" stroke="none" fill="#FFFFFF" fill-rule="nonzero" /><path id="32" transform="matrix(1 0 0 -1 0 612)" d="M205.875 264L586.125 264L586.125 233.25L205.875 233.25L205.875 264z" stroke="none" fill="#E0F7FA" fill-rule="nonzero" /><path id="33" transform="matrix(1 0 0 -1 0 612)" d="M205.875 234L586.125 234L586.125 190.5L205.875 190.5L205.875 234z" stroke="none" fill="#FFFFFF" fill-rule="nonzero" /><path id="34" transform="matrix(1 0 0 -1 0 612)" d="M205.875 191.25L586.125 191.25L586.125 131.25L205.875 131.25L205.875 191.25z" stroke="none" fill="#E0F7FA" fill-rule="nonzero" /><path id="35" transform="matrix(1 0 0 -1 0 612)" d="M205.875 132L586.125 132L586.125 101.25L205.875 101.25L205.875 132z" stroke="none" fill="#FFFFFF" fill-rule="nonzero" /><path id="36" transform="matrix(1 0 0 -1 0 612)" d="M205.875 102L586.125 102L586.125 58.5L205.875 58.5L205.875 102z" stroke="none" fill="#E0F7FA" fill-rule="nonzero" /><path id="37" transform="matrix(1 0 0 -1 0 612)" d="M205.875 59.25L586.125 59.25L586.125 58.5L205.875 58.5zM205.875 102L586.125 102L586.125 101.25L205.875 101.25zM205.875 132L586.125 132L586.125 131.25L205.875 131.25zM205.875 191.25L586.125 191.25L586.125 190.5L205.875 190.5zM205.875 234L586.125 234L586.125 233.25L205.875 233.25zM205.875 264L586.125 264L586.125 263.25L205.875 263.25zM205.875 294L586.125 294L586.125 293.25L205.875 293.25zM205.875 324L586.125 324L586.125 323.25L205.875 323.25zM205.875 366.75L586.125 366.75L586.125 366L205.875 366zM205.875 409.5L586.125 409.5L586.125 408.75L205.875 408.75zM205.875 439.5L586.125 439.5L586.125 438.75L205.875 438.75zM205.875 469.5L586.125 469.5L586.125 468.75L205.875 468.75zM205.875 499.5L586.125 499.5L586.125 498.75L205.875 498.75zM205.875 542.25L586.125 542.25L586.125 541.5L205.875 541.5zM586.125 101.25L586.125 59.25L585.375 59.25L585.375 101.25zM586.125 131.25L586.125 102L585.375 102L585.375 131.25zM586.125 190.5L586.125 132L585.375 132L585.375 190.5zM586.125 233.25L586.125 191.25L585.375 191.25L585.375 233.25zM586.125 263.25L586.125 234L585.375 234L585.375 263.25zM586.125 293.25L586.125 264L585.375 264L585.375 293.25zM586.125 323.25L586.125 294L585.375 294L585.375 323.25zM586.125 366L586.125 324L585.375 324L585.375 366zM586.125 408.75L586.125 366.75L585.375 366.75L585.375 408.75zM586.125 438.75L586.125 409.5L585.375 409.5L585.375 438.75zM586.125 468.75L586.125 439.5L585.375 439.5L585.375 468.75zM586.125 498.75L586.125 469.5L585.375 469.5L585.375 498.75zM586.125 541.5L586.125 499.5L585.375 499.5L585.375 541.5zM544.125 101.25L544.125 59.25L543.375 59.25L543.375 101.25zM544.125 131.25L544.125 102L543.375 102L543.375 131.25zM544.125 190.5L544.125 132L543.375 132L543.375 190.5zM544.125 233.25L544.125 191.25L543.375 191.25L543.375 233.25zM544.125 263.25L544.125 234L543.375 234L543.375 263.25zM544.125 293.25L544.125 264L543.375 264L543.375 293.25zM544.125 323.25L544.125 294L543.375 294L543.375 323.25zM544.125 366L544.125 324L543.375 324L543.375 366zM544.125 408.75L544.125 366.75L543.375 366.75L543.375 408.75zM544.125 438.75L544.125 409.5L543.375 409.5L543.375 438.75zM544.125 468.75L544.125 439.5L543.375 439.5L543.375 468.75zM544.125 498.75L544.125 469.5L543.375 469.5L543.375 498.75zM544.125 541.5L544.125 499.5L543.375 499.5L543.375 541.5zM313.875 101.25L313.875 59.25L313.125 59.25L313.125 101.25zM313.875 131.25L313.875 102L313.125 102L313.125 131.25zM313.875 190.5L313.875 132L313.125 132L313.125 190.5zM313.875 233.25L313.875 191.25L313.125 191.25L313.125 233.25zM313.875 263.25L313.875 234L313.125 234L313.125 263.25zM313.875 293.25L313.875 264L313.125 264L313.125 293.25zM313.875 323.25L313.875 294L313.125 294L313.125 323.25zM313.875 366L313.875 324L313.125 324L313.125 366zM313.875 408.75L313.875 366.75L313.125 366.75L313.125 408.75zM313.875 438.75L313.875 409.5L313.125 409.5L313.125 438.75zM313.875 468.75L313.875 439.5L313.125 439.5L313.125 468.75zM313.875 498.75L313.875 469.5L313.125 469.5L313.125 498.75zM313.875 541.5L313.875 499.5L313.125 499.5L313.125 541.5zM251.625 101.25L251.625 59.25L250.875 59.25L250.875 101.25zM251.625 131.25L251.625 102L250.875 102L250.875 131.25zM251.625 190.5L251.625 132L250.875 132L250.875 190.5zM251.625 233.25L251.625 191.25L250.875 191.25L250.875 233.25zM251.625 263.25L251.625 234L250.875 234L250.875 263.25zM251.625 293.25L251.625 264L250.875 264L250.875 293.25zM251.625 323.25L251.625 294L250.875 294L250.875 323.25zM251.625 366L251.625 324L250.875 324L250.875 366zM251.625 408.75L251.625 366.75L250.875 366.75L250.875 408.75zM251.625 438.75L251.625 409.5L250.875 409.5L250.875 438.75zM251.625 468.75L251.625 439.5L250.875 439.5L250.875 468.75zM251.625 498.75L251.625 469.5L250.875 469.5L250.875 498.75zM251.625 541.5L251.625 499.5L250.875 499.5L250.875 541.5zM206.625 101.25L206.625 59.25L205.875 59.25L205.875 101.25zM206.625 131.25L206.625 102L205.875 102L205.875 131.25zM206.625 190.5L206.625 132L205.875 132L205.875 190.5zM206.625 233.25L206.625 191.25L205.875 191.25L205.875 233.25zM206.625 263.25L206.625 234L205.875 234L205.875 263.25zM206.625 293.25L206.625 264L205.875 264L205.875 293.25zM206.625 323.25L206.625 294L205.875 294L205.875 323.25zM206.625 366L206.625 324L205.875 324L205.875 366zM206.625 408.75L206.625 366.75L205.875 366.75L205.875 408.75zM206.625 438.75L206.625 409.5L205.875 409.5L205.875 438.75zM206.625 468.75L206.625 439.5L205.875 439.5L205.875 468.75zM206.625 498.75L206.625 469.5L205.875 469.5L205.875 498.75zM206.625 541.5L206.625 499.5L205.875 499.5L205.875 541.5z" stroke="none" fill="#000000" fill-rule="nonzero" fill-opacity="0.1490196" /><path id="93" transform="matrix(1 0 0 -1 0 612)" d="M316.125 528.6436L526.5833 528.6436" stroke="#000000" stroke-width="0.7017334" fill="none" /><path id="135" transform="matrix(1 0 0 -1 0 612)" d="M316.125 515.5547L524.2219 515.5547" stroke="#000000" stroke-width="0.7017334" fill="none" /><path id="154" transform="matrix(1 0 0 -1 0 612)" d="M316.125 502.4658L401.0267 502.4658" stroke="#000000" stroke-width="0.7017334" fill="none" /><path id="213" transform="matrix(1 0 0 -1 0 612)" d="M316.125 485.5547L542.5364 485.5547" stroke="#000000" stroke-width="0.7017334" fill="none" /><path id="245" transform="matrix(1 0 0 -1 0 612)" d="M316.125 472.4658L461.8547 472.4658" stroke="#000000" stroke-width="0.7017334" fill="none" /><path id="306" transform="matrix(1 0 0 -1 0 612)" d="M316.125 455.5547L530.5306 455.5547" stroke="#000000" stroke-width="0.7017334" fill="none" /><path id="328" transform="matrix(1 0 0 -1 0 612)" d="M316.125 442.4658L418.7075 442.4658" stroke="#000000" stroke-width="0.7017334" fill="none" /><path id="373" transform="matrix(1 0 0 -1 0 612)" d="M316.125 412.4658L442.09 412.4658" stroke="#000000" stroke-width="0.7017334" fill="none" /><path id="434" transform="matrix(1 0 0 -1 0 612)" d="M316.125 395.8936L536.3634 395.8936" stroke="#000000" stroke-width="0.7017334" fill="none" /><path id="477" transform="matrix(1 0 0 -1 0 612)" d="M316.125 382.8047L527.8137 382.8047" stroke="#000000" stroke-width="0.7017334" fill="none" /><path id="491" transform="matrix(1 0 0 -1 0 612)" d="M316.125 369.7158L371.3403 369.7158" stroke="#000000" stroke-width="0.7017334" fill="none" /><path id="537" transform="matrix(1 0 0 -1 0 612)" d="M316.125 353.1436L498.4731 353.1436" stroke="#000000" stroke-width="0.7017334" fill="none" /><path id="573" transform="matrix(1 0 0 -1 0 612)" d="M316.125 340.0547L521.6719 340.0547" stroke="#000000" stroke-width="0.7017334" fill="none" /><path id="607" transform="matrix(1 0 0 -1 0 612)" d="M316.125 326.9658L502.8186 326.9658" stroke="#000000" stroke-width="0.7017334" fill="none" /><path id="671" transform="matrix(1 0 0 -1 0 612)" d="M316.125 310.0547L522.6879 310.0547" stroke="#000000" stroke-width="0.7017334" fill="none" /><path id="697" transform="matrix(1 0 0 -1 0 612)" d="M316.125 296.9658L434.4774 296.9658" stroke="#000000" stroke-width="0.7017334" fill="none" /><path id="750" transform="matrix(1 0 0 -1 0 612)" d="M316.125 280.0547L536.4107 280.0547" stroke="#000000" stroke-width="0.7017334" fill="none" /><path id="783" transform="matrix(1 0 0 -1 0 612)" d="M316.125 266.9658L466.4726 266.9658" stroke="#000000" stroke-width="0.7017334" fill="none" /><path id="837" transform="matrix(1 0 0 -1 0 612)" d="M316.125 250.0547L506.8342 250.0547" stroke="#000000" stroke-width="0.7017334" fill="none" /><path id="851" transform="matrix(1 0 0 -1 0 612)" d="M316.125 236.9658L379.1573 236.9658" stroke="#000000" stroke-width="0.7017334" fill="none" /><path id="901" transform="matrix(1 0 0 -1 0 612)" d="M316.125 220.3936L522.5519 220.3936" stroke="#000000" stroke-width="0.7017334" fill="none" /><path id="936" transform="matrix(1 0 0 -1 0 612)" d="M316.125 207.3047L510.2737 207.3047" stroke="#000000" stroke-width="0.7017334" fill="none" /><path id="946" transform="matrix(1 0 0 -1 0 612)" d="M316.125 194.2158L359.4867 194.2158" stroke="#000000" stroke-width="0.7017334" fill="none" /><path id="961" transform="matrix(1 0 0 -1 0 612)" d="M316.125 175.9766L326.8477 175.9766" stroke="#000000" stroke-width="0.7855225" fill="none" /><path id="991" transform="matrix(1 0 0 -1 0 612)" d="M326.8477 175.8975L471.3574 175.8975" stroke="#000000" stroke-width="0.7017334" fill="none" /><path id="993" transform="matrix(1 0 0 -1 0 612)" d="M471.3574 175.9766L482.08 175.9766" stroke="#000000" stroke-width="0.7855225" fill="none" /><path id="1005" transform="matrix(1 0 0 -1 0 612)" d="M482.08 175.8975L535.421 175.8975" stroke="#000000" stroke-width="0.7017334" fill="none" /><path id="1048" transform="matrix(1 0 0 -1 0 612)" d="M316.125 162.8086L528.0283 162.8086" stroke="#000000" stroke-width="0.7017334" fill="none" /><path id="1090" transform="matrix(1 0 0 -1 0 612)" d="M316.125 149.7197L524.1539 149.7197" stroke="#000000" stroke-width="0.7017334" fill="none" /><path id="1101" transform="matrix(1 0 0 -1 0 612)" d="M316.125 134.9658L366.3351 134.9658" stroke="#000000" stroke-width="0.7017334" fill="none" /><path id="1103" transform="matrix(1 0 0 -1 0 612)" d="M366.3351 135.0439L377.0578 135.0439" stroke="#000000" stroke-width="0.7855225" fill="none" /><path id="1173" transform="matrix(1 0 0 -1 0 612)" d="M316.125 118.0547L541.6777 118.0547" stroke="#000000" stroke-width="0.7017334" fill="none" /><path id="1187" transform="matrix(1 0 0 -1 0 612)" d="M316.125 104.9658L377.885 104.9658" stroke="#000000" stroke-width="0.7017334" fill="none" /><path id="1241" transform="matrix(1 0 0 -1 0 612)" d="M316.125 88.39355L536.6566 88.39355" stroke="#000000" stroke-width="0.7017334" fill="none" /><path id="1278" transform="matrix(1 0 0 -1 0 612)" d="M316.125 75.30469L534.2742 75.30469" stroke="#000000" stroke-width="0.7017334" fill="none" /><path id="1285" transform="matrix(1 0 0 -1 0 612)" d="M316.125 62.21582L345.5181 62.21582" stroke="#000000" stroke-width="0.7017334" fill="none" /></g></g></g></svg>