<svg xmlns="http://www.w3.org/2000/svg" xmlns:xlink="http://www.w3.org/1999/xlink" id="body_10" preserveAspectRatio="xMinYMin meet" viewBox="0 0 1056 816"><defs><clipPath id="1"><path id="" clip-rule="evenodd" transform="matrix(1 0 0 1 0 0)" d="M0 612L0 0L0 0L792 0L792 0L792 612L792 612L0 612z" /></clipPath><clipPath id="2"><path id="" clip-rule="evenodd" transform="matrix(1 0 0 1 0 0)" d="M205.125 52.5L586.875 52.5L586.875 52.5L586.875 69.75L586.875 69.75L205.125 69.75L205.125 69.75L205.125 52.5z" /></clipPath><clipPath id="3"><path id="" clip-rule="evenodd" transform="matrix(1 0 0 1 0 0)" d="M205.125 69L586.875 69L586.875 69L586.875 521.25L586.875 521.25L205.125 521.25L205.125 521.25L205.125 69z" /></clipPath></defs><g transform="matrix(1.333333 0 0 1.333333 0 0)"><g clip-path="url(#1)"><g clip-path="url(#2)"><path id="1" transform="matrix(1 0 0 -1 0 612)" d="M205.875 558.75L586.125 558.75L586.125 541.5L205.875 541.5L205.875 558.75z" stroke="none" fill="#4DD0E1" fill-rule="nonzero" /><path id="2" transform="matrix(1 0 0 -1 0 612)" d="M205.875 542.25L586.125 542.25L586.125 541.5L205.875 541.5zM205.875 558.75L586.125 558.75L586.125 558L205.875 558zM586.125 558L586.125 542.25L585.375 542.25L585.375 558zM544.125 558L544.125 542.25L543.375 542.25L543.375 558zM313.875 558L313.875 542.25L313.125 542.25L313.125 558zM251.625 558L251.625 542.25L250.875 542.25L250.875 558zM206.625 558L206.625 542.25L205.875 542.25L205.875 558z" stroke="none" fill="#000000" fill-rule="nonzero" fill-opacity="0.1490196" /></g><g clip-path="url(#3)"><path id="24" transform="matrix(1 0 0 -1 0 612)" d="M205.875 542.25L586.125 542.25L586.125 485.25L205.875 485.25L205.875 542.25z" stroke="none" fill="#E0F7FA" fill-rule="nonzero" /><path id="25" transform="matrix(1 0 0 -1 0 612)" d="M205.875 486L586.125 486L586.125 442.5L205.875 442.5L205.875 486z" stroke="none" fill="#FFFFFF" fill-rule="nonzero" /><path id="26" transform="matrix(1 0 0 -1 0 612)" d="M205.875 443.25L586.125 443.25L586.125 412.5L205.875 412.5L205.875 443.25z" stroke="none" fill="#E0F7FA" fill-rule="nonzero" /><path id="27" transform="matrix(1 0 0 -1 0 612)" d="M205.875 413.25L586.125 413.25L586.125 382.5L205.875 382.5L205.875 413.25z" stroke="none" fill="#FFFFFF" fill-rule="nonzero" /><path id="28" transform="matrix(1 0 0 -1 0 612)" d="M205.875 383.25L586.125 383.25L586.125 339.75L205.875 339.75L205.875 383.25z" stroke="none" fill="#E0F7FA" fill-rule="nonzero" /><path id="29" transform="matrix(1 0 0 -1 0 612)" d="M205.875 340.5L586.125 340.5L586.125 297L205.875 297L205.875 340.5z" stroke="none" fill="#FFFFFF" fill-rule="nonzero" /><path id="30" transform="matrix(1 0 0 -1 0 612)" d="M205.875 297.75L586.125 297.75L586.125 267L205.875 267L205.875 297.75z" stroke="none" fill="#E0F7FA" fill-rule="nonzero" /><path id="31" transform="matrix(1 0 0 -1 0 612)" d="M205.875 267.75L586.125 267.75L586.125 224.25L205.875 224.25L205.875 267.75z" stroke="none" fill="#FFFFFF" fill-rule="nonzero" /><path id="32" transform="matrix(1 0 0 -1 0 612)" d="M205.875 225L586.125 225L586.125 194.25L205.875 194.25L205.875 225z" stroke="none" fill="#E0F7FA" fill-rule="nonzero" /><path id="33" transform="matrix(1 0 0 -1 0 612)" d="M205.875 195L586.125 195L586.125 164.25L205.875 164.25L205.875 195z" stroke="none" fill="#FFFFFF" fill-rule="nonzero" /><path id="34" transform="matrix(1 0 0 -1 0 612)" d="M205.875 165L586.125 165L586.125 134.25L205.875 134.25L205.875 165z" stroke="none" fill="#E0F7FA" fill-rule="nonzero" /><path id="35" transform="matrix(1 0 0 -1 0 612)" d="M205.875 135L586.125 135L586.125 91.5L205.875 91.5L205.875 135z" stroke="none" fill="#FFFFFF" fill-rule="nonzero" /><path id="36" transform="matrix(1 0 0 -1 0 612)" d="M205.875 92.25L586.125 92.25L586.125 91.5L205.875 91.5zM205.875 135L586.125 135L586.125 134.25L205.875 134.25zM205.875 165L586.125 165L586.125 164.25L205.875 164.25zM205.875 195L586.125 195L586.125 194.25L205.875 194.25zM205.875 225L586.125 225L586.125 224.25L205.875 224.25zM205.875 267.75L586.125 267.75L586.125 267L205.875 267zM205.875 297.75L586.125 297.75L586.125 297L205.875 297zM205.875 340.5L586.125 340.5L586.125 339.75L205.875 339.75zM205.875 383.25L586.125 383.25L586.125 382.5L205.875 382.5zM205.875 413.25L586.125 413.25L586.125 412.5L205.875 412.5zM205.875 443.25L586.125 443.25L586.125 442.5L205.875 442.5zM205.875 486L586.125 486L586.125 485.25L205.875 485.25zM205.875 542.25L586.125 542.25L586.125 541.5L205.875 541.5zM586.125 134.25L586.125 92.25L585.375 92.25L585.375 134.25zM586.125 164.25L586.125 135L585.375 135L585.375 164.25zM586.125 194.25L586.125 165L585.375 165L585.375 194.25zM586.125 224.25L586.125 195L585.375 195L585.375 224.25zM586.125 267L586.125 225L585.375 225L585.375 267zM586.125 297L586.125 267.75L585.375 267.75L585.375 297zM586.125 339.75L586.125 297.75L585.375 297.75L585.375 339.75zM586.125 382.5L586.125 340.5L585.375 340.5L585.375 382.5zM586.125 412.5L586.125 383.25L585.375 383.25L585.375 412.5zM586.125 442.5L586.125 413.25L585.375 413.25L585.375 442.5zM586.125 485.25L586.125 443.25L585.375 443.25L585.375 485.25zM586.125 541.5L586.125 486L585.375 486L585.375 541.5zM544.125 134.25L544.125 92.25L543.375 92.25L543.375 134.25zM544.125 164.25L544.125 135L543.375 135L543.375 164.25zM544.125 194.25L544.125 165L543.375 165L543.375 194.25zM544.125 224.25L544.125 195L543.375 195L543.375 224.25zM544.125 267L544.125 225L543.375 225L543.375 267zM544.125 297L544.125 267.75L543.375 267.75L543.375 297zM544.125 339.75L544.125 297.75L543.375 297.75L543.375 339.75zM544.125 382.5L544.125 340.5L543.375 340.5L543.375 382.5zM544.125 412.5L544.125 383.25L543.375 383.25L543.375 412.5zM544.125 442.5L544.125 413.25L543.375 413.25L543.375 442.5zM544.125 485.25L544.125 443.25L543.375 443.25L543.375 485.25zM544.125 541.5L544.125 486L543.375 486L543.375 541.5zM313.875 134.25L313.875 92.25L313.125 92.25L313.125 134.25zM313.875 164.25L313.875 135L313.125 135L313.125 164.25zM313.875 194.25L313.875 165L313.125 165L313.125 194.25zM313.875 224.25L313.875 195L313.125 195L313.125 224.25zM313.875 267L313.875 225L313.125 225L313.125 267zM313.875 297L313.875 267.75L313.125 267.75L313.125 297zM313.875 339.75L313.875 297.75L313.125 297.75L313.125 339.75zM313.875 382.5L313.875 340.5L313.125 340.5L313.125 382.5zM313.875 412.5L313.875 383.25L313.125 383.25L313.125 412.5zM313.875 442.5L313.875 413.25L313.125 413.25L313.125 442.5zM313.875 485.25L313.875 443.25L313.125 443.25L313.125 485.25zM313.875 541.5L313.875 486L313.125 486L313.125 541.5zM251.625 134.25L251.625 92.25L250.875 92.25L250.875 134.25zM251.625 164.25L251.625 135L250.875 135L250.875 164.25zM251.625 194.25L251.625 165L250.875 165L250.875 194.25zM251.625 224.25L251.625 195L250.875 195L250.875 224.25zM251.625 267L251.625 225L250.875 225L250.875 267zM251.625 297L251.625 267.75L250.875 267.75L250.875 297zM251.625 339.75L251.625 297.75L250.875 297.75L250.875 339.75zM251.625 382.5L251.625 340.5L250.875 340.5L250.875 382.5zM251.625 412.5L251.625 383.25L250.875 383.25L250.875 412.5zM251.625 442.5L251.625 413.25L250.875 413.25L250.875 442.5zM251.625 485.25L251.625 443.25L250.875 443.25L250.875 485.25zM251.625 541.5L251.625 486L250.875 486L250.875 541.5zM206.625 134.25L206.625 92.25L205.875 92.25L205.875 134.25zM206.625 164.25L206.625 135L205.875 135L205.875 164.25zM206.625 194.25L206.625 165L205.875 165L205.875 194.25zM206.625 224.25L206.625 195L205.875 195L205.875 224.25zM206.625 267L206.625 225L205.875 225L205.875 267zM206.625 297L206.625 267.75L205.875 267.75L205.875 297zM206.625 339.75L206.625 297.75L205.875 297.75L205.875 339.75zM206.625 382.5L206.625 340.5L205.875 340.5L205.875 382.5zM206.625 412.5L206.625 383.25L205.875 383.25L205.875 412.5zM206.625 442.5L206.625 413.25L205.875 413.25L205.875 442.5zM206.625 485.25L206.625 443.25L205.875 443.25L205.875 485.25zM206.625 541.5L206.625 486L205.875 486L205.875 541.5z" stroke="none" fill="#000000" fill-rule="nonzero" fill-opacity="0.1490196" /><path id="90" transform="matrix(1 0 0 -1 0 612)" d="M316.125 528.2334L527.3686 528.2334" stroke="#000000" stroke-width="0.7017334" fill="none" /><path id="132" transform="matrix(1 0 0 -1 0 612)" d="M316.125 515.1436L537.1804 515.1436" stroke="#000000" stroke-width="0.7017334" fill="none" /><path id="176" transform="matrix(1 0 0 -1 0 612)" d="M316.125 502.0547L530.1959 502.0547" stroke="#000000" stroke-width="0.7017334" fill="none" /><path id="186" transform="matrix(1 0 0 -1 0 612)" d="M316.125 488.9658L357.2512 488.9658" stroke="#000000" stroke-width="0.7017334" fill="none" /><path id="236" transform="matrix(1 0 0 -1 0 612)" d="M316.125 472.3936L509.3945 472.3936" stroke="#000000" stroke-width="0.7017334" fill="none" /><path id="272" transform="matrix(1 0 0 -1 0 612)" d="M316.125 459.3047L520.7351 459.3047" stroke="#000000" stroke-width="0.7017334" fill="none" /><path id="297" transform="matrix(1 0 0 -1 0 612)" d="M316.125 446.2158L466.5562 446.2158" stroke="#000000" stroke-width="0.7017334" fill="none" /><path id="355" transform="matrix(1 0 0 -1 0 612)" d="M316.125 429.3047L536.4995 429.3047" stroke="#000000" stroke-width="0.7017334" fill="none" /><path id="388" transform="matrix(1 0 0 -1 0 612)" d="M316.125 416.2158L470.8705 416.2158" stroke="#000000" stroke-width="0.7017334" fill="none" /><path id="444" transform="matrix(1 0 0 -1 0 612)" d="M316.125 399.3047L530.5466 399.3047" stroke="#000000" stroke-width="0.7017334" fill="none" /><path id="453" transform="matrix(1 0 0 -1 0 612)" d="M316.125 386.2158L366.1152 386.2158" stroke="#000000" stroke-width="0.7017334" fill="none" /><path id="504" transform="matrix(1 0 0 -1 0 612)" d="M316.125 369.6436L499.342 369.6436" stroke="#000000" stroke-width="0.7017334" fill="none" /><path id="543" transform="matrix(1 0 0 -1 0 612)" d="M316.125 356.5547L513.6931 356.5547" stroke="#000000" stroke-width="0.7017334" fill="none" /><path id="559" transform="matrix(1 0 0 -1 0 612)" d="M316.125 343.4658L389.6231 343.4658" stroke="#000000" stroke-width="0.7017334" fill="none" /><path id="631" transform="matrix(1 0 0 -1 0 612)" d="M316.125 313.8047L537.5155 313.8047" stroke="#000000" stroke-width="0.7017334" fill="none" /><path id="669" transform="matrix(1 0 0 -1 0 612)" d="M316.125 300.7158L496.5201 300.7158" stroke="#000000" stroke-width="0.7017334" fill="none" /><path id="722" transform="matrix(1 0 0 -1 0 612)" d="M316.125 283.8047L541.1176 283.8047" stroke="#000000" stroke-width="0.7017334" fill="none" /><path id="762" transform="matrix(1 0 0 -1 0 612)" d="M316.125 270.7158L513.6878 270.7158" stroke="#000000" stroke-width="0.7017334" fill="none" /><path id="820" transform="matrix(1 0 0 -1 0 612)" d="M316.125 254.1436L536.5886 254.1436" stroke="#000000" stroke-width="0.7017334" fill="none" /><path id="854" transform="matrix(1 0 0 -1 0 612)" d="M316.125 241.0547L498.2008 241.0547" stroke="#000000" stroke-width="0.7017334" fill="none" /><path id="875" transform="matrix(1 0 0 -1 0 612)" d="M316.125 227.9658L427.1526 227.9658" stroke="#000000" stroke-width="0.7017334" fill="none" /><path id="934" transform="matrix(1 0 0 -1 0 612)" d="M316.125 211.0547L534.8661 211.0547" stroke="#000000" stroke-width="0.7017334" fill="none" /><path id="962" transform="matrix(1 0 0 -1 0 612)" d="M316.125 197.9658L460.6872 197.9658" stroke="#000000" stroke-width="0.7017334" fill="none" /><path id="1019" transform="matrix(1 0 0 -1 0 612)" d="M316.125 181.0547L526.4366 181.0547" stroke="#000000" stroke-width="0.7017334" fill="none" /><path id="1040" transform="matrix(1 0 0 -1 0 612)" d="M316.125 167.9658L418.0112 167.9658" stroke="#000000" stroke-width="0.7017334" fill="none" /><path id="1102" transform="matrix(1 0 0 -1 0 612)" d="M316.125 151.0547L537.3321 151.0547" stroke="#000000" stroke-width="0.7017334" fill="none" /><path id="1134" transform="matrix(1 0 0 -1 0 612)" d="M316.125 137.9658L466.0014 137.9658" stroke="#000000" stroke-width="0.7017334" fill="none" /><path id="1185" transform="matrix(1 0 0 -1 0 612)" d="M316.125 108.3047L514.6041 108.3047" stroke="#000000" stroke-width="0.7017334" fill="none" /><path id="1209" transform="matrix(1 0 0 -1 0 612)" d="M316.125 95.21582L439.2628 95.21582" stroke="#000000" stroke-width="0.7017334" fill="none" /></g></g></g></svg>