<svg xmlns="http://www.w3.org/2000/svg" xmlns:xlink="http://www.w3.org/1999/xlink" id="body_23" preserveAspectRatio="xMinYMin meet" viewBox="0 0 1056 816"><defs><clipPath id="1"><path id="" clip-rule="evenodd" transform="matrix(1 0 0 1 0 0)" d="M0 612L0 0L0 0L792 0L792 0L792 612L792 612L0 612z" /></clipPath><clipPath id="2"><path id="" clip-rule="evenodd" transform="matrix(1 0 0 1 0 0)" d="M205.125 52.5L586.875 52.5L586.875 52.5L586.875 69.75L586.875 69.75L205.125 69.75L205.125 69.75L205.125 52.5z" /></clipPath><clipPath id="3"><path id="" clip-rule="evenodd" transform="matrix(1 0 0 1 0 0)" d="M205.125 69L586.875 69L586.875 69L586.875 519L586.875 519L205.125 519L205.125 519L205.125 69z" /></clipPath></defs><g transform="matrix(1.333333 0 0 1.333333 0 0)"><g clip-path="url(#1)"><g clip-path="url(#2)"><path id="1" transform="matrix(1 0 0 -1 0 612)" d="M205.875 558.75L586.125 558.75L586.125 541.5L205.875 541.5L205.875 558.75z" stroke="none" fill="#4DD0E1" fill-rule="nonzero" /><path id="2" transform="matrix(1 0 0 -1 0 612)" d="M205.875 542.25L586.125 542.25L586.125 541.5L205.875 541.5zM205.875 558.75L586.125 558.75L586.125 558L205.875 558zM586.125 558L586.125 542.25L585.375 542.25L585.375 558zM544.125 558L544.125 542.25L543.375 542.25L543.375 558zM313.875 558L313.875 542.25L313.125 542.25L313.125 558zM251.625 558L251.625 542.25L250.875 542.25L250.875 558zM206.625 558L206.625 542.25L205.875 542.25L205.875 558z" stroke="none" fill="#000000" fill-rule="nonzero" fill-opacity="0.1490196" /></g><g clip-path="url(#3)"><path id="24" transform="matrix(1 0 0 -1 0 612)" d="M205.875 542.25L586.125 542.25L586.125 511.5L205.875 511.5L205.875 542.25z" stroke="none" fill="#FFFFFF" fill-rule="nonzero" /><path id="25" transform="matrix(1 0 0 -1 0 612)" d="M205.875 512.25L586.125 512.25L586.125 468.75L205.875 468.75L205.875 512.25z" stroke="none" fill="#E0F7FA" fill-rule="nonzero" /><path id="26" transform="matrix(1 0 0 -1 0 612)" d="M205.875 469.5L586.125 469.5L586.125 412.5L205.875 412.5L205.875 469.5z" stroke="none" fill="#FFFFFF" fill-rule="nonzero" /><path id="27" transform="matrix(1 0 0 -1 0 612)" d="M205.875 413.25L586.125 413.25L586.125 369.75L205.875 369.75L205.875 413.25z" stroke="none" fill="#E0F7FA" fill-rule="nonzero" /><path id="28" transform="matrix(1 0 0 -1 0 612)" d="M205.875 370.5L586.125 370.5L586.125 339.75L205.875 339.75L205.875 370.5z" stroke="none" fill="#FFFFFF" fill-rule="nonzero" /><path id="29" transform="matrix(1 0 0 -1 0 612)" d="M205.875 340.5L586.125 340.5L586.125 309.75L205.875 309.75L205.875 340.5z" stroke="none" fill="#E0F7FA" fill-rule="nonzero" /><path id="30" transform="matrix(1 0 0 -1 0 612)" d="M205.875 310.5L586.125 310.5L586.125 267L205.875 267L205.875 310.5z" stroke="none" fill="#FFFFFF" fill-rule="nonzero" /><path id="31" transform="matrix(1 0 0 -1 0 612)" d="M205.875 267.75L586.125 267.75L586.125 224.25L205.875 224.25L205.875 267.75z" stroke="none" fill="#E0F7FA" fill-rule="nonzero" /><path id="32" transform="matrix(1 0 0 -1 0 612)" d="M205.875 225L586.125 225L586.125 194.25L205.875 194.25L205.875 225z" stroke="none" fill="#FFFFFF" fill-rule="nonzero" /><path id="33" transform="matrix(1 0 0 -1 0 612)" d="M205.875 195L586.125 195L586.125 151.5L205.875 151.5L205.875 195z" stroke="none" fill="#E0F7FA" fill-rule="nonzero" /><path id="34" transform="matrix(1 0 0 -1 0 612)" d="M205.875 152.25L586.125 152.25L586.125 93.75L205.875 93.75L205.875 152.25z" stroke="none" fill="#FFFFFF" fill-rule="nonzero" /><path id="35" transform="matrix(1 0 0 -1 0 612)" d="M205.875 94.5L586.125 94.5L586.125 93.75L205.875 93.75zM205.875 152.25L586.125 152.25L586.125 151.5L205.875 151.5zM205.875 195L586.125 195L586.125 194.25L205.875 194.25zM205.875 225L586.125 225L586.125 224.25L205.875 224.25zM205.875 267.75L586.125 267.75L586.125 267L205.875 267zM205.875 310.5L586.125 310.5L586.125 309.75L205.875 309.75zM205.875 340.5L586.125 340.5L586.125 339.75L205.875 339.75zM205.875 370.5L586.125 370.5L586.125 369.75L205.875 369.75zM205.875 413.25L586.125 413.25L586.125 412.5L205.875 412.5zM205.875 469.5L586.125 469.5L586.125 468.75L205.875 468.75zM205.875 512.25L586.125 512.25L586.125 511.5L205.875 511.5zM205.875 542.25L586.125 542.25L586.125 541.5L205.875 541.5zM586.125 151.5L586.125 94.5L585.375 94.5L585.375 151.5zM586.125 194.25L586.125 152.25L585.375 152.25L585.375 194.25zM586.125 224.25L586.125 195L585.375 195L585.375 224.25zM586.125 267L586.125 225L585.375 225L585.375 267zM586.125 309.75L586.125 267.75L585.375 267.75L585.375 309.75zM586.125 339.75L586.125 310.5L585.375 310.5L585.375 339.75zM586.125 369.75L586.125 340.5L585.375 340.5L585.375 369.75zM586.125 412.5L586.125 370.5L585.375 370.5L585.375 412.5zM586.125 468.75L586.125 413.25L585.375 413.25L585.375 468.75zM586.125 511.5L586.125 469.5L585.375 469.5L585.375 511.5zM586.125 541.5L586.125 512.25L585.375 512.25L585.375 541.5zM544.125 151.5L544.125 94.5L543.375 94.5L543.375 151.5zM544.125 194.25L544.125 152.25L543.375 152.25L543.375 194.25zM544.125 224.25L544.125 195L543.375 195L543.375 224.25zM544.125 267L544.125 225L543.375 225L543.375 267zM544.125 309.75L544.125 267.75L543.375 267.75L543.375 309.75zM544.125 339.75L544.125 310.5L543.375 310.5L543.375 339.75zM544.125 369.75L544.125 340.5L543.375 340.5L543.375 369.75zM544.125 412.5L544.125 370.5L543.375 370.5L543.375 412.5zM544.125 468.75L544.125 413.25L543.375 413.25L543.375 468.75zM544.125 511.5L544.125 469.5L543.375 469.5L543.375 511.5zM544.125 541.5L544.125 512.25L543.375 512.25L543.375 541.5zM313.875 151.5L313.875 94.5L313.125 94.5L313.125 151.5zM313.875 194.25L313.875 152.25L313.125 152.25L313.125 194.25zM313.875 224.25L313.875 195L313.125 195L313.125 224.25zM313.875 267L313.875 225L313.125 225L313.125 267zM313.875 309.75L313.875 267.75L313.125 267.75L313.125 309.75zM313.875 339.75L313.875 310.5L313.125 310.5L313.125 339.75zM313.875 369.75L313.875 340.5L313.125 340.5L313.125 369.75zM313.875 412.5L313.875 370.5L313.125 370.5L313.125 412.5zM313.875 468.75L313.875 413.25L313.125 413.25L313.125 468.75zM313.875 511.5L313.875 469.5L313.125 469.5L313.125 511.5zM313.875 541.5L313.875 512.25L313.125 512.25L313.125 541.5zM251.625 151.5L251.625 94.5L250.875 94.5L250.875 151.5zM251.625 194.25L251.625 152.25L250.875 152.25L250.875 194.25zM251.625 224.25L251.625 195L250.875 195L250.875 224.25zM251.625 267L251.625 225L250.875 225L250.875 267zM251.625 309.75L251.625 267.75L250.875 267.75L250.875 309.75zM251.625 339.75L251.625 310.5L250.875 310.5L250.875 339.75zM251.625 369.75L251.625 340.5L250.875 340.5L250.875 369.75zM251.625 412.5L251.625 370.5L250.875 370.5L250.875 412.5zM251.625 468.75L251.625 413.25L250.875 413.25L250.875 468.75zM251.625 511.5L251.625 469.5L250.875 469.5L250.875 511.5zM251.625 541.5L251.625 512.25L250.875 512.25L250.875 541.5zM206.625 151.5L206.625 94.5L205.875 94.5L205.875 151.5zM206.625 194.25L206.625 152.25L205.875 152.25L205.875 194.25zM206.625 224.25L206.625 195L205.875 195L205.875 224.25zM206.625 267L206.625 225L205.875 225L205.875 267zM206.625 309.75L206.625 267.75L205.875 267.75L205.875 309.75zM206.625 339.75L206.625 310.5L205.875 310.5L205.875 339.75zM206.625 369.75L206.625 340.5L205.875 340.5L205.875 369.75zM206.625 412.5L206.625 370.5L205.875 370.5L205.875 412.5zM206.625 468.75L206.625 413.25L205.875 413.25L205.875 468.75zM206.625 511.5L206.625 469.5L205.875 469.5L205.875 511.5zM206.625 541.5L206.625 512.25L205.875 512.25L205.875 541.5z" stroke="none" fill="#000000" fill-rule="nonzero" fill-opacity="0.1490196" /><path id="91" transform="matrix(1 0 0 -1 0 612)" d="M316.125 528.3047L542.1646 528.3047" stroke="#000000" stroke-width="0.7017334" fill="none" /><path id="105" transform="matrix(1 0 0 -1 0 612)" d="M316.125 515.2158L382.2725 515.2158" stroke="#000000" stroke-width="0.7017334" fill="none" /><path id="160" transform="matrix(1 0 0 -1 0 612)" d="M316.125 498.6436L510.1643 498.6436" stroke="#000000" stroke-width="0.7017334" fill="none" /><path id="194" transform="matrix(1 0 0 -1 0 612)" d="M316.125 485.5547L489.2266 485.5547" stroke="#000000" stroke-width="0.7017334" fill="none" /><path id="208" transform="matrix(1 0 0 -1 0 612)" d="M316.125 472.4658L379.1573 472.4658" stroke="#000000" stroke-width="0.7017334" fill="none" /><path id="265" transform="matrix(1 0 0 -1 0 612)" d="M316.125 455.4824L539.4839 455.4824" stroke="#000000" stroke-width="0.7017334" fill="none" /><path id="302" transform="matrix(1 0 0 -1 0 612)" d="M316.125 442.3936L506.9704 442.3936" stroke="#000000" stroke-width="0.7017334" fill="none" /><path id="347" transform="matrix(1 0 0 -1 0 612)" d="M316.125 429.3047L531.2168 429.3047" stroke="#000000" stroke-width="0.7017334" fill="none" /><path id="355" transform="matrix(1 0 0 -1 0 612)" d="M316.125 416.2158L355.9527 416.2158" stroke="#000000" stroke-width="0.7017334" fill="none" /><path id="408" transform="matrix(1 0 0 -1 0 612)" d="M316.125 399.6436L493.4624 399.6436" stroke="#000000" stroke-width="0.7017334" fill="none" /><path id="452" transform="matrix(1 0 0 -1 0 612)" d="M316.125 386.5547L521.1276 386.5547" stroke="#000000" stroke-width="0.7017334" fill="none" /><path id="485" transform="matrix(1 0 0 -1 0 612)" d="M316.125 373.4658L465.5511 373.4658" stroke="#000000" stroke-width="0.7017334" fill="none" /><path id="549" transform="matrix(1 0 0 -1 0 612)" d="M316.125 356.5547L508.1955 356.5547" stroke="#000000" stroke-width="0.7017334" fill="none" /><path id="563" transform="matrix(1 0 0 -1 0 612)" d="M316.125 343.4658L377.885 343.4658" stroke="#000000" stroke-width="0.7017334" fill="none" /><path id="610" transform="matrix(1 0 0 -1 0 612)" d="M316.125 326.5547L486.3469 326.5547" stroke="#000000" stroke-width="0.7017334" fill="none" /><path id="624" transform="matrix(1 0 0 -1 0 612)" d="M316.125 313.4658L377.885 313.4658" stroke="#000000" stroke-width="0.7017334" fill="none" /><path id="690" transform="matrix(1 0 0 -1 0 612)" d="M316.125 283.8047L529.6986 283.8047" stroke="#000000" stroke-width="0.7017334" fill="none" /><path id="715" transform="matrix(1 0 0 -1 0 612)" d="M316.125 270.7158L443.9172 270.7158" stroke="#000000" stroke-width="0.7017334" fill="none" /><path id="794" transform="matrix(1 0 0 -1 0 612)" d="M316.125 241.0547L531.0964 241.0547" stroke="#000000" stroke-width="0.7017334" fill="none" /><path id="824" transform="matrix(1 0 0 -1 0 612)" d="M316.125 227.9658L475.3418 227.9658" stroke="#000000" stroke-width="0.7017334" fill="none" /><path id="881" transform="matrix(1 0 0 -1 0 612)" d="M316.125 211.0547L535.3636 211.0547" stroke="#000000" stroke-width="0.7017334" fill="none" /><path id="904" transform="matrix(1 0 0 -1 0 612)" d="M316.125 197.9658L439.7286 197.9658" stroke="#000000" stroke-width="0.7017334" fill="none" /><path id="962" transform="matrix(1 0 0 -1 0 612)" d="M316.125 181.3936L531.4315 181.3936" stroke="#000000" stroke-width="0.7017334" fill="none" /><path id="1003" transform="matrix(1 0 0 -1 0 612)" d="M316.125 168.3047L509.8082 168.3047" stroke="#000000" stroke-width="0.7017334" fill="none" /><path id="1045" transform="matrix(1 0 0 -1 0 612)" d="M316.125 155.2158L524.4261 155.2158" stroke="#000000" stroke-width="0.7017334" fill="none" /><path id="1101" transform="matrix(1 0 0 -1 0 612)" d="M316.125 138.3975L533.1645 138.3975" stroke="#000000" stroke-width="0.7017334" fill="none" /><path id="1143" transform="matrix(1 0 0 -1 0 612)" d="M316.125 125.3086L536.8923 125.3086" stroke="#000000" stroke-width="0.7017334" fill="none" /><path id="1187" transform="matrix(1 0 0 -1 0 612)" d="M316.125 112.2197L523.3424 112.2197" stroke="#000000" stroke-width="0.7017334" fill="none" /><path id="1193" transform="matrix(1 0 0 -1 0 612)" d="M316.125 97.46582L342.6384 97.46582" stroke="#000000" stroke-width="0.7017334" fill="none" /><path id="1195" transform="matrix(1 0 0 -1 0 612)" d="M342.6384 97.54395L353.3611 97.54395" stroke="#000000" stroke-width="0.7855225" fill="none" /></g></g></g></svg>