<svg xmlns="http://www.w3.org/2000/svg" xmlns:xlink="http://www.w3.org/1999/xlink" id="body_21" preserveAspectRatio="xMinYMin meet" viewBox="0 0 1056 816"><defs><clipPath id="1"><path id="" clip-rule="evenodd" transform="matrix(1 0 0 1 0 0)" d="M0 612L0 0L0 0L792 0L792 0L792 612L792 612L0 612z" /></clipPath><clipPath id="2"><path id="" clip-rule="evenodd" transform="matrix(1 0 0 1 0 0)" d="M205.125 52.5L586.875 52.5L586.875 52.5L586.875 69.75L586.875 69.75L205.125 69.75L205.125 69.75L205.125 52.5z" /></clipPath><clipPath id="3"><path id="" clip-rule="evenodd" transform="matrix(1 0 0 1 0 0)" d="M205.125 69L586.875 69L586.875 69L586.875 540.75L586.875 540.75L205.125 540.75L205.125 540.75L205.125 69z" /></clipPath></defs><g transform="matrix(1.333333 0 0 1.333333 0 0)"><g clip-path="url(#1)"><g clip-path="url(#2)"><path id="1" transform="matrix(1 0 0 -1 0 612)" d="M205.875 558.75L586.125 558.75L586.125 541.5L205.875 541.5L205.875 558.75z" stroke="none" fill="#4DD0E1" fill-rule="nonzero" /><path id="2" transform="matrix(1 0 0 -1 0 612)" d="M205.875 542.25L586.125 542.25L586.125 541.5L205.875 541.5zM205.875 558.75L586.125 558.75L586.125 558L205.875 558zM586.125 558L586.125 542.25L585.375 542.25L585.375 558zM544.125 558L544.125 542.25L543.375 542.25L543.375 558zM313.875 558L313.875 542.25L313.125 542.25L313.125 558zM251.625 558L251.625 542.25L250.875 542.25L250.875 558zM206.625 558L206.625 542.25L205.875 542.25L205.875 558z" stroke="none" fill="#000000" fill-rule="nonzero" fill-opacity="0.1490196" /></g><g clip-path="url(#3)"><path id="24" transform="matrix(1 0 0 -1 0 612)" d="M205.875 542.25L586.125 542.25L586.125 511.5L205.875 511.5L205.875 542.25z" stroke="none" fill="#FFFFFF" fill-rule="nonzero" /><path id="25" transform="matrix(1 0 0 -1 0 612)" d="M205.875 512.25L586.125 512.25L586.125 481.5L205.875 481.5L205.875 512.25z" stroke="none" fill="#E0F7FA" fill-rule="nonzero" /><path id="26" transform="matrix(1 0 0 -1 0 612)" d="M205.875 482.25L586.125 482.25L586.125 438.75L205.875 438.75L205.875 482.25z" stroke="none" fill="#FFFFFF" fill-rule="nonzero" /><path id="27" transform="matrix(1 0 0 -1 0 612)" d="M205.875 439.5L586.125 439.5L586.125 408.75L205.875 408.75L205.875 439.5z" stroke="none" fill="#E0F7FA" fill-rule="nonzero" /><path id="28" transform="matrix(1 0 0 -1 0 612)" d="M205.875 409.5L586.125 409.5L586.125 378.75L205.875 378.75L205.875 409.5z" stroke="none" fill="#FFFFFF" fill-rule="nonzero" /><path id="29" transform="matrix(1 0 0 -1 0 612)" d="M205.875 379.5L586.125 379.5L586.125 362.25L205.875 362.25L205.875 379.5z" stroke="none" fill="#E0F7FA" fill-rule="nonzero" /><path id="30" transform="matrix(1 0 0 -1 0 612)" d="M205.875 363L586.125 363L586.125 319.5L205.875 319.5L205.875 363z" stroke="none" fill="#FFFFFF" fill-rule="nonzero" /><path id="31" transform="matrix(1 0 0 -1 0 612)" d="M205.875 320.25L586.125 320.25L586.125 276.75L205.875 276.75L205.875 320.25z" stroke="none" fill="#E0F7FA" fill-rule="nonzero" /><path id="32" transform="matrix(1 0 0 -1 0 612)" d="M205.875 277.5L586.125 277.5L586.125 234L205.875 234L205.875 277.5z" stroke="none" fill="#FFFFFF" fill-rule="nonzero" /><path id="33" transform="matrix(1 0 0 -1 0 612)" d="M205.875 234.75L586.125 234.75L586.125 204L205.875 204L205.875 234.75z" stroke="none" fill="#E0F7FA" fill-rule="nonzero" /><path id="34" transform="matrix(1 0 0 -1 0 612)" d="M205.875 204.75L586.125 204.75L586.125 161.25L205.875 161.25L205.875 204.75z" stroke="none" fill="#FFFFFF" fill-rule="nonzero" /><path id="35" transform="matrix(1 0 0 -1 0 612)" d="M205.875 162L586.125 162L586.125 144.75L205.875 144.75L205.875 162z" stroke="none" fill="#E0F7FA" fill-rule="nonzero" /><path id="36" transform="matrix(1 0 0 -1 0 612)" d="M205.875 145.5L586.125 145.5L586.125 114.75L205.875 114.75L205.875 145.5z" stroke="none" fill="#FFFFFF" fill-rule="nonzero" /><path id="37" transform="matrix(1 0 0 -1 0 612)" d="M205.875 115.5L586.125 115.5L586.125 72L205.875 72L205.875 115.5z" stroke="none" fill="#E0F7FA" fill-rule="nonzero" /><path id="38" transform="matrix(1 0 0 -1 0 612)" d="M205.875 72.75L586.125 72.75L586.125 72L205.875 72zM205.875 115.5L586.125 115.5L586.125 114.75L205.875 114.75zM205.875 145.5L586.125 145.5L586.125 144.75L205.875 144.75zM205.875 162L586.125 162L586.125 161.25L205.875 161.25zM205.875 204.75L586.125 204.75L586.125 204L205.875 204zM205.875 234.75L586.125 234.75L586.125 234L205.875 234zM205.875 277.5L586.125 277.5L586.125 276.75L205.875 276.75zM205.875 320.25L586.125 320.25L586.125 319.5L205.875 319.5zM205.875 363L586.125 363L586.125 362.25L205.875 362.25zM205.875 379.5L586.125 379.5L586.125 378.75L205.875 378.75zM205.875 409.5L586.125 409.5L586.125 408.75L205.875 408.75zM205.875 439.5L586.125 439.5L586.125 438.75L205.875 438.75zM205.875 482.25L586.125 482.25L586.125 481.5L205.875 481.5zM205.875 512.25L586.125 512.25L586.125 511.5L205.875 511.5zM205.875 542.25L586.125 542.25L586.125 541.5L205.875 541.5zM586.125 114.75L586.125 72.75L585.375 72.75L585.375 114.75zM586.125 144.75L586.125 115.5L585.375 115.5L585.375 144.75zM586.125 161.25L586.125 145.5L585.375 145.5L585.375 161.25zM586.125 204L586.125 162L585.375 162L585.375 204zM586.125 234L586.125 204.75L585.375 204.75L585.375 234zM586.125 276.75L586.125 234.75L585.375 234.75L585.375 276.75zM586.125 319.5L586.125 277.5L585.375 277.5L585.375 319.5zM586.125 362.25L586.125 320.25L585.375 320.25L585.375 362.25zM586.125 378.75L586.125 363L585.375 363L585.375 378.75zM586.125 408.75L586.125 379.5L585.375 379.5L585.375 408.75zM586.125 438.75L586.125 409.5L585.375 409.5L585.375 438.75zM586.125 481.5L586.125 439.5L585.375 439.5L585.375 481.5zM586.125 511.5L586.125 482.25L585.375 482.25L585.375 511.5zM586.125 541.5L586.125 512.25L585.375 512.25L585.375 541.5zM544.125 114.75L544.125 72.75L543.375 72.75L543.375 114.75zM544.125 144.75L544.125 115.5L543.375 115.5L543.375 144.75zM544.125 161.25L544.125 145.5L543.375 145.5L543.375 161.25zM544.125 204L544.125 162L543.375 162L543.375 204zM544.125 234L544.125 204.75L543.375 204.75L543.375 234zM544.125 276.75L544.125 234.75L543.375 234.75L543.375 276.75zM544.125 319.5L544.125 277.5L543.375 277.5L543.375 319.5zM544.125 362.25L544.125 320.25L543.375 320.25L543.375 362.25zM544.125 378.75L544.125 363L543.375 363L543.375 378.75zM544.125 408.75L544.125 379.5L543.375 379.5L543.375 408.75zM544.125 438.75L544.125 409.5L543.375 409.5L543.375 438.75zM544.125 481.5L544.125 439.5L543.375 439.5L543.375 481.5zM544.125 511.5L544.125 482.25L543.375 482.25L543.375 511.5zM544.125 541.5L544.125 512.25L543.375 512.25L543.375 541.5zM313.875 114.75L313.875 72.75L313.125 72.75L313.125 114.75zM313.875 144.75L313.875 115.5L313.125 115.5L313.125 144.75zM313.875 161.25L313.875 145.5L313.125 145.5L313.125 161.25zM313.875 204L313.875 162L313.125 162L313.125 204zM313.875 234L313.875 204.75L313.125 204.75L313.125 234zM313.875 276.75L313.875 234.75L313.125 234.75L313.125 276.75zM313.875 319.5L313.875 277.5L313.125 277.5L313.125 319.5zM313.875 362.25L313.875 320.25L313.125 320.25L313.125 362.25zM313.875 378.75L313.875 363L313.125 363L313.125 378.75zM313.875 408.75L313.875 379.5L313.125 379.5L313.125 408.75zM313.875 438.75L313.875 409.5L313.125 409.5L313.125 438.75zM313.875 481.5L313.875 439.5L313.125 439.5L313.125 481.5zM313.875 511.5L313.875 482.25L313.125 482.25L313.125 511.5zM313.875 541.5L313.875 512.25L313.125 512.25L313.125 541.5zM251.625 114.75L251.625 72.75L250.875 72.75L250.875 114.75zM251.625 144.75L251.625 115.5L250.875 115.5L250.875 144.75zM251.625 161.25L251.625 145.5L250.875 145.5L250.875 161.25zM251.625 204L251.625 162L250.875 162L250.875 204zM251.625 234L251.625 204.75L250.875 204.75L250.875 234zM251.625 276.75L251.625 234.75L250.875 234.75L250.875 276.75zM251.625 319.5L251.625 277.5L250.875 277.5L250.875 319.5zM251.625 362.25L251.625 320.25L250.875 320.25L250.875 362.25zM251.625 378.75L251.625 363L250.875 363L250.875 378.75zM251.625 408.75L251.625 379.5L250.875 379.5L250.875 408.75zM251.625 438.75L251.625 409.5L250.875 409.5L250.875 438.75zM251.625 481.5L251.625 439.5L250.875 439.5L250.875 481.5zM251.625 511.5L251.625 482.25L250.875 482.25L250.875 511.5zM251.625 541.5L251.625 512.25L250.875 512.25L250.875 541.5zM206.625 114.75L206.625 72.75L205.875 72.75L205.875 114.75zM206.625 144.75L206.625 115.5L205.875 115.5L205.875 144.75zM206.625 161.25L206.625 145.5L205.875 145.5L205.875 161.25zM206.625 204L206.625 162L205.875 162L205.875 204zM206.625 234L206.625 204.75L205.875 204.75L205.875 234zM206.625 276.75L206.625 234.75L205.875 234.75L205.875 276.75zM206.625 319.5L206.625 277.5L205.875 277.5L205.875 319.5zM206.625 362.25L206.625 320.25L205.875 320.25L205.875 362.25zM206.625 378.75L206.625 363L205.875 363L205.875 378.75zM206.625 408.75L206.625 379.5L205.875 379.5L205.875 408.75zM206.625 438.75L206.625 409.5L205.875 409.5L205.875 438.75zM206.625 481.5L206.625 439.5L205.875 439.5L205.875 481.5zM206.625 511.5L206.625 482.25L205.875 482.25L205.875 511.5zM206.625 541.5L206.625 512.25L205.875 512.25L205.875 541.5z" stroke="none" fill="#000000" fill-rule="nonzero" fill-opacity="0.1490196" /><path id="82" transform="matrix(1 0 0 -1 0 612)" d="M316.125 528.3047L497.9547 528.3047" stroke="#000000" stroke-width="0.7017334" fill="none" /><path id="96" transform="matrix(1 0 0 -1 0 612)" d="M316.125 515.2158L377.885 515.2158" stroke="#000000" stroke-width="0.7017334" fill="none" /><path id="161" transform="matrix(1 0 0 -1 0 612)" d="M316.125 498.3047L540.6045 498.3047" stroke="#000000" stroke-width="0.7017334" fill="none" /><path id="173" transform="matrix(1 0 0 -1 0 612)" d="M316.125 485.2158L366.5341 485.2158" stroke="#000000" stroke-width="0.7017334" fill="none" /><path id="216" transform="matrix(1 0 0 -1 0 612)" d="M316.125 468.6436L483.5669 468.6436" stroke="#000000" stroke-width="0.7017334" fill="none" /><path id="257" transform="matrix(1 0 0 -1 0 612)" d="M316.125 455.5547L519.4628 455.5547" stroke="#000000" stroke-width="0.7017334" fill="none" /><path id="290" transform="matrix(1 0 0 -1 0 612)" d="M316.125 442.4658L485.8914 442.4658" stroke="#000000" stroke-width="0.7017334" fill="none" /><path id="343" transform="matrix(1 0 0 -1 0 612)" d="M316.125 425.5547L538.6673 425.5547" stroke="#000000" stroke-width="0.7017334" fill="none" /><path id="376" transform="matrix(1 0 0 -1 0 612)" d="M316.125 412.4658L482.9439 412.4658" stroke="#000000" stroke-width="0.7017334" fill="none" /><path id="433" transform="matrix(1 0 0 -1 0 612)" d="M316.125 395.5547L527.5258 395.5547" stroke="#000000" stroke-width="0.7017334" fill="none" /><path id="459" transform="matrix(1 0 0 -1 0 612)" d="M316.125 382.4658L444.1739 382.4658" stroke="#000000" stroke-width="0.7017334" fill="none" /><path id="507" transform="matrix(1 0 0 -1 0 612)" d="M316.125 365.9658L464.9909 365.9658" stroke="#000000" stroke-width="0.7017334" fill="none" /><path id="563" transform="matrix(1 0 0 -1 0 612)" d="M316.125 349.3936L515.5464 349.3936" stroke="#000000" stroke-width="0.7017334" fill="none" /><path id="598" transform="matrix(1 0 0 -1 0 612)" d="M316.125 336.3047L500.0699 336.3047" stroke="#000000" stroke-width="0.7017334" fill="none" /><path id="609" transform="matrix(1 0 0 -1 0 612)" d="M316.125 323.2158L363.3926 323.2158" stroke="#000000" stroke-width="0.7017334" fill="none" /><path id="672" transform="matrix(1 0 0 -1 0 612)" d="M316.125 306.6436L537.4369 306.6436" stroke="#000000" stroke-width="0.7017334" fill="none" /><path id="709" transform="matrix(1 0 0 -1 0 612)" d="M316.125 293.5547L510.5096 293.5547" stroke="#000000" stroke-width="0.7017334" fill="none" /><path id="720" transform="matrix(1 0 0 -1 0 612)" d="M316.125 280.4658L361.7905 280.4658" stroke="#000000" stroke-width="0.7017334" fill="none" /><path id="774" transform="matrix(1 0 0 -1 0 612)" d="M316.125 263.8936L526.798 263.8936" stroke="#000000" stroke-width="0.7017334" fill="none" /><path id="819" transform="matrix(1 0 0 -1 0 612)" d="M316.125 250.8047L526.8189 250.8047" stroke="#000000" stroke-width="0.7017334" fill="none" /><path id="829" transform="matrix(1 0 0 -1 0 612)" d="M316.125 237.7158L365.5288 237.7158" stroke="#000000" stroke-width="0.7017334" fill="none" /><path id="880" transform="matrix(1 0 0 -1 0 612)" d="M316.125 220.8047L501.9809 220.8047" stroke="#000000" stroke-width="0.7017334" fill="none" /><path id="904" transform="matrix(1 0 0 -1 0 612)" d="M316.125 207.7158L422.6657 207.7158" stroke="#000000" stroke-width="0.7017334" fill="none" /><path id="960" transform="matrix(1 0 0 -1 0 612)" d="M316.125 191.1436L539.2012 191.1436" stroke="#000000" stroke-width="0.7017334" fill="none" /><path id="992" transform="matrix(1 0 0 -1 0 612)" d="M316.125 178.0547L487.0801 178.0547" stroke="#000000" stroke-width="0.7017334" fill="none" /><path id="1011" transform="matrix(1 0 0 -1 0 612)" d="M316.125 164.9658L404.8487 164.9658" stroke="#000000" stroke-width="0.7017334" fill="none" /><path id="1071" transform="matrix(1 0 0 -1 0 612)" d="M316.125 148.4658L538.6568 148.4658" stroke="#000000" stroke-width="0.7017334" fill="none" /><path id="1120" transform="matrix(1 0 0 -1 0 612)" d="M316.125 131.5547L533.0284 131.5547" stroke="#000000" stroke-width="0.7017334" fill="none" /><path id="1137" transform="matrix(1 0 0 -1 0 612)" d="M316.125 118.4658L402.236 118.4658" stroke="#000000" stroke-width="0.7017334" fill="none" /><path id="1195" transform="matrix(1 0 0 -1 0 612)" d="M316.125 101.8936L529.8713 101.8936" stroke="#000000" stroke-width="0.7017334" fill="none" /><path id="1229" transform="matrix(1 0 0 -1 0 612)" d="M316.125 88.80469L495.5464 88.80469" stroke="#000000" stroke-width="0.7017334" fill="none" /><path id="1273" transform="matrix(1 0 0 -1 0 612)" d="M316.125 75.71582L522.8397 75.71582" stroke="#000000" stroke-width="0.7017334" fill="none" /></g></g></g></svg>