<svg xmlns="http://www.w3.org/2000/svg" xmlns:xlink="http://www.w3.org/1999/xlink" id="body_20" preserveAspectRatio="xMinYMin meet" viewBox="0 0 1056 816"><defs><clipPath id="1"><path id="" clip-rule="evenodd" transform="matrix(1 0 0 1 0 0)" d="M0 612L0 0L0 0L792 0L792 0L792 612L792 612L0 612z" /></clipPath><clipPath id="2"><path id="" clip-rule="evenodd" transform="matrix(1 0 0 1 0 0)" d="M205.125 52.5L586.875 52.5L586.875 52.5L586.875 69.75L586.875 69.75L205.125 69.75L205.125 69.75L205.125 52.5z" /></clipPath><clipPath id="3"><path id="" clip-rule="evenodd" transform="matrix(1 0 0 1 0 0)" d="M205.125 69L586.875 69L586.875 69L586.875 555L586.875 555L205.125 555L205.125 555L205.125 69z" /></clipPath><clipPath id="4"><path id="" clip-rule="evenodd" transform="matrix(1 0 0 1 0 0)" d="M205.125 69L586.875 69L586.875 69L586.875 555L586.875 555L205.125 555L205.125 555L205.125 69z" /></clipPath><clipPath id="5"><path id="" clip-rule="evenodd" transform="matrix(1 0 0 1 0 0)" d="M251.625 352.5L313.125 352.5L313.125 352.5L313.125 381.75L313.125 381.75L251.625 381.75L251.625 381.75L251.625 352.5z" /></clipPath><clipPath id="6"><path id="" clip-rule="evenodd" transform="matrix(1 0 0 1 0 0)" d="M205.125 69L586.875 69L586.875 69L586.875 555L586.875 555L205.125 555L205.125 555L205.125 69z" /></clipPath></defs><g transform="matrix(1.333333 0 0 1.333333 0 0)"><g clip-path="url(#1)"><g clip-path="url(#2)"><path id="1" transform="matrix(1 0 0 -1 0 612)" d="M205.875 558.75L586.125 558.75L586.125 541.5L205.875 541.5L205.875 558.75z" stroke="none" fill="#4DD0E1" fill-rule="nonzero" /><path id="2" transform="matrix(1 0 0 -1 0 612)" d="M205.875 542.25L586.125 542.25L586.125 541.5L205.875 541.5zM205.875 558.75L586.125 558.75L586.125 558L205.875 558zM586.125 558L586.125 542.25L585.375 542.25L585.375 558zM544.125 558L544.125 542.25L543.375 542.25L543.375 558zM313.875 558L313.875 542.25L313.125 542.25L313.125 558zM251.625 558L251.625 542.25L250.875 542.25L250.875 558zM206.625 558L206.625 542.25L205.875 542.25L205.875 558z" stroke="none" fill="#000000" fill-rule="nonzero" fill-opacity="0.1490196" /></g><g clip-path="url(#3)"><path id="24" transform="matrix(1 0 0 -1 0 612)" d="M205.875 542.25L586.125 542.25L586.125 498.75L205.875 498.75L205.875 542.25z" stroke="none" fill="#FFFFFF" fill-rule="nonzero" /><path id="25" transform="matrix(1 0 0 -1 0 612)" d="M205.875 499.5L586.125 499.5L586.125 468.75L205.875 468.75L205.875 499.5z" stroke="none" fill="#E0F7FA" fill-rule="nonzero" /><path id="26" transform="matrix(1 0 0 -1 0 612)" d="M205.875 469.5L586.125 469.5L586.125 438.75L205.875 438.75L205.875 469.5z" stroke="none" fill="#FFFFFF" fill-rule="nonzero" /><path id="27" transform="matrix(1 0 0 -1 0 612)" d="M205.875 439.5L586.125 439.5L586.125 396L205.875 396L205.875 439.5z" stroke="none" fill="#E0F7FA" fill-rule="nonzero" /><path id="28" transform="matrix(1 0 0 -1 0 612)" d="M205.875 396.75L586.125 396.75L586.125 379.5L205.875 379.5L205.875 396.75z" stroke="none" fill="#FFFFFF" fill-rule="nonzero" /><path id="29" transform="matrix(1 0 0 -1 0 612)" d="M205.875 380.25L586.125 380.25L586.125 349.5L205.875 349.5L205.875 380.25z" stroke="none" fill="#E0F7FA" fill-rule="nonzero" /><path id="30" transform="matrix(1 0 0 -1 0 612)" d="M205.875 350.25L586.125 350.25L586.125 319.5L205.875 319.5L205.875 350.25z" stroke="none" fill="#FFFFFF" fill-rule="nonzero" /><path id="31" transform="matrix(1 0 0 -1 0 612)" d="M205.875 320.25L586.125 320.25L586.125 289.5L205.875 289.5L205.875 320.25z" stroke="none" fill="#E0F7FA" fill-rule="nonzero" /><path id="32" transform="matrix(1 0 0 -1 0 612)" d="M205.875 290.25L586.125 290.25L586.125 259.5L205.875 259.5L205.875 290.25z" stroke="none" fill="#FFFFFF" fill-rule="nonzero" /><path id="33" transform="matrix(1 0 0 -1 0 612)" d="M205.875 260.25L586.125 260.25L586.125 229.5L205.875 229.5L205.875 260.25z" stroke="none" fill="#E0F7FA" fill-rule="nonzero" /><path id="34" transform="matrix(1 0 0 -1 0 612)" d="M205.875 230.25L586.125 230.25L586.125 173.25L205.875 173.25L205.875 230.25z" stroke="none" fill="#FFFFFF" fill-rule="nonzero" /><path id="35" transform="matrix(1 0 0 -1 0 612)" d="M205.875 174L586.125 174L586.125 130.5L205.875 130.5L205.875 174z" stroke="none" fill="#E0F7FA" fill-rule="nonzero" /><path id="36" transform="matrix(1 0 0 -1 0 612)" d="M205.875 131.25L586.125 131.25L586.125 100.5L205.875 100.5L205.875 131.25z" stroke="none" fill="#FFFFFF" fill-rule="nonzero" /><path id="37" transform="matrix(1 0 0 -1 0 612)" d="M205.875 101.25L586.125 101.25L586.125 57.75L205.875 57.75L205.875 101.25z" stroke="none" fill="#E0F7FA" fill-rule="nonzero" /><path id="38" transform="matrix(1 0 0 -1 0 612)" d="M205.875 58.5L586.125 58.5L586.125 57.75L205.875 57.75zM205.875 101.25L586.125 101.25L586.125 100.5L205.875 100.5zM205.875 131.25L586.125 131.25L586.125 130.5L205.875 130.5zM205.875 174L586.125 174L586.125 173.25L205.875 173.25zM205.875 230.25L586.125 230.25L586.125 229.5L205.875 229.5zM205.875 260.25L586.125 260.25L586.125 259.5L205.875 259.5zM205.875 290.25L586.125 290.25L586.125 289.5L205.875 289.5zM205.875 320.25L586.125 320.25L586.125 319.5L205.875 319.5zM205.875 350.25L586.125 350.25L586.125 349.5L205.875 349.5zM205.875 380.25L586.125 380.25L586.125 379.5L205.875 379.5zM205.875 396.75L586.125 396.75L586.125 396L205.875 396zM205.875 439.5L586.125 439.5L586.125 438.75L205.875 438.75zM205.875 469.5L586.125 469.5L586.125 468.75L205.875 468.75zM205.875 499.5L586.125 499.5L586.125 498.75L205.875 498.75zM205.875 542.25L586.125 542.25L586.125 541.5L205.875 541.5zM586.125 100.5L586.125 58.5L585.375 58.5L585.375 100.5zM586.125 130.5L586.125 101.25L585.375 101.25L585.375 130.5zM586.125 173.25L586.125 131.25L585.375 131.25L585.375 173.25zM586.125 229.5L586.125 174L585.375 174L585.375 229.5zM586.125 259.5L586.125 230.25L585.375 230.25L585.375 259.5zM586.125 289.5L586.125 260.25L585.375 260.25L585.375 289.5zM586.125 319.5L586.125 290.25L585.375 290.25L585.375 319.5zM586.125 349.5L586.125 320.25L585.375 320.25L585.375 349.5zM586.125 379.5L586.125 350.25L585.375 350.25L585.375 379.5zM586.125 396L586.125 380.25L585.375 380.25L585.375 396zM586.125 438.75L586.125 396.75L585.375 396.75L585.375 438.75zM586.125 468.75L586.125 439.5L585.375 439.5L585.375 468.75zM586.125 498.75L586.125 469.5L585.375 469.5L585.375 498.75zM586.125 541.5L586.125 499.5L585.375 499.5L585.375 541.5zM544.125 100.5L544.125 58.5L543.375 58.5L543.375 100.5zM544.125 130.5L544.125 101.25L543.375 101.25L543.375 130.5zM544.125 173.25L544.125 131.25L543.375 131.25L543.375 173.25zM544.125 229.5L544.125 174L543.375 174L543.375 229.5zM544.125 259.5L544.125 230.25L543.375 230.25L543.375 259.5zM544.125 289.5L544.125 260.25L543.375 260.25L543.375 289.5zM544.125 319.5L544.125 290.25L543.375 290.25L543.375 319.5zM544.125 349.5L544.125 320.25L543.375 320.25L543.375 349.5zM544.125 379.5L544.125 350.25L543.375 350.25L543.375 379.5zM544.125 396L544.125 380.25L543.375 380.25L543.375 396zM544.125 438.75L544.125 396.75L543.375 396.75L543.375 438.75zM544.125 468.75L544.125 439.5L543.375 439.5L543.375 468.75zM544.125 498.75L544.125 469.5L543.375 469.5L543.375 498.75zM544.125 541.5L544.125 499.5L543.375 499.5L543.375 541.5zM313.875 100.5L313.875 58.5L313.125 58.5L313.125 100.5zM313.875 130.5L313.875 101.25L313.125 101.25L313.125 130.5zM313.875 173.25L313.875 131.25L313.125 131.25L313.125 173.25zM313.875 229.5L313.875 174L313.125 174L313.125 229.5zM313.875 259.5L313.875 230.25L313.125 230.25L313.125 259.5zM313.875 289.5L313.875 260.25L313.125 260.25L313.125 289.5zM313.875 319.5L313.875 290.25L313.125 290.25L313.125 319.5zM313.875 349.5L313.875 320.25L313.125 320.25L313.125 349.5zM313.875 379.5L313.875 350.25L313.125 350.25L313.125 379.5zM313.875 396L313.875 380.25L313.125 380.25L313.125 396zM313.875 438.75L313.875 396.75L313.125 396.75L313.125 438.75zM313.875 468.75L313.875 439.5L313.125 439.5L313.125 468.75zM313.875 498.75L313.875 469.5L313.125 469.5L313.125 498.75zM313.875 541.5L313.875 499.5L313.125 499.5L313.125 541.5zM251.625 100.5L251.625 58.5L250.875 58.5L250.875 100.5zM251.625 130.5L251.625 101.25L250.875 101.25L250.875 130.5zM251.625 173.25L251.625 131.25L250.875 131.25L250.875 173.25zM251.625 229.5L251.625 174L250.875 174L250.875 229.5zM251.625 259.5L251.625 230.25L250.875 230.25L250.875 259.5zM251.625 289.5L251.625 260.25L250.875 260.25L250.875 289.5zM251.625 319.5L251.625 290.25L250.875 290.25L250.875 319.5zM251.625 349.5L251.625 320.25L250.875 320.25L250.875 349.5zM251.625 379.5L251.625 350.25L250.875 350.25L250.875 379.5zM251.625 396L251.625 380.25L250.875 380.25L250.875 396zM251.625 438.75L251.625 396.75L250.875 396.75L250.875 438.75zM251.625 468.75L251.625 439.5L250.875 439.5L250.875 468.75zM251.625 498.75L251.625 469.5L250.875 469.5L250.875 498.75zM251.625 541.5L251.625 499.5L250.875 499.5L250.875 541.5zM206.625 100.5L206.625 58.5L205.875 58.5L205.875 100.5zM206.625 130.5L206.625 101.25L205.875 101.25L205.875 130.5zM206.625 173.25L206.625 131.25L205.875 131.25L205.875 173.25zM206.625 229.5L206.625 174L205.875 174L205.875 229.5zM206.625 259.5L206.625 230.25L205.875 230.25L205.875 259.5zM206.625 289.5L206.625 260.25L205.875 260.25L205.875 289.5zM206.625 319.5L206.625 290.25L205.875 290.25L205.875 319.5zM206.625 349.5L206.625 320.25L205.875 320.25L205.875 349.5zM206.625 379.5L206.625 350.25L205.875 350.25L205.875 379.5zM206.625 396L206.625 380.25L205.875 380.25L205.875 396zM206.625 438.75L206.625 396.75L205.875 396.75L205.875 438.75zM206.625 468.75L206.625 439.5L205.875 439.5L205.875 468.75zM206.625 498.75L206.625 469.5L205.875 469.5L205.875 498.75zM206.625 541.5L206.625 499.5L205.875 499.5L205.875 541.5z" stroke="none" fill="#000000" fill-rule="nonzero" fill-opacity="0.1490196" /><path id="88" transform="matrix(1 0 0 -1 0 612)" d="M316.125 528.6436L531.0807 528.6436" stroke="#000000" stroke-width="0.7017334" fill="none" /><path id="129" transform="matrix(1 0 0 -1 0 612)" d="M316.125 515.5547L529.2902 515.5547" stroke="#000000" stroke-width="0.7017334" fill="none" /><path id="145" transform="matrix(1 0 0 -1 0 612)" d="M316.125 502.4658L399.8641 502.4658" stroke="#000000" stroke-width="0.7017334" fill="none" /><path id="195" transform="matrix(1 0 0 -1 0 612)" d="M316.125 472.4658L473.3051 472.4658" stroke="#000000" stroke-width="0.7017334" fill="none" /><path id="252" transform="matrix(1 0 0 -1 0 612)" d="M316.125 455.5547L532.4577 455.5547" stroke="#000000" stroke-width="0.7017334" fill="none" /><path id="297" transform="matrix(1 0 0 -1 0 612)" d="M316.125 442.4658L537.5101 442.4658" stroke="#000000" stroke-width="0.7017334" fill="none" /><path id="366" transform="matrix(1 0 0 -1 0 612)" d="M316.125 412.8047L517.5724 412.8047" stroke="#000000" stroke-width="0.7017334" fill="none" /><path id="391" transform="matrix(1 0 0 -1 0 612)" d="M316.125 399.7158L428.4301 399.7158" stroke="#000000" stroke-width="0.7017334" fill="none" /><path id="441" transform="matrix(1 0 0 -1 0 612)" d="M316.125 383.2158L498.6301 383.2158" stroke="#000000" stroke-width="0.7017334" fill="none" /><path id="492" transform="matrix(1 0 0 -1 0 612)" d="M316.125 366.3047L509.8659 366.3047" stroke="#000000" stroke-width="0.7017334" fill="none" /><path id="535" transform="matrix(1 0 0 -1 0 612)" d="M316.125 353.2158L526.1801 353.2158" stroke="#000000" stroke-width="0.7017334" fill="none" /><path id="588" transform="matrix(1 0 0 -1 0 612)" d="M316.125 336.3047L513.6564 336.3047" stroke="#000000" stroke-width="0.7017334" fill="none" /><path id="617" transform="matrix(1 0 0 -1 0 612)" d="M316.125 323.2158L446.6974 323.2158" stroke="#000000" stroke-width="0.7017334" fill="none" /><path id="678" transform="matrix(1 0 0 -1 0 612)" d="M316.125 306.3047L535.1122 306.3047" stroke="#000000" stroke-width="0.7017334" fill="none" /><path id="711" transform="matrix(1 0 0 -1 0 612)" d="M316.125 293.2158L482.9281 293.2158" stroke="#000000" stroke-width="0.7017334" fill="none" /><path id="767" transform="matrix(1 0 0 -1 0 612)" d="M316.125 276.3047L535.1646 276.3047" stroke="#000000" stroke-width="0.7017334" fill="none" /><path id="794" transform="matrix(1 0 0 -1 0 612)" d="M316.125 263.2158L448.9644 263.2158" stroke="#000000" stroke-width="0.7017334" fill="none" /></g><g clip-path="url(#4)"><g clip-path="url(#5)"></g></g><g clip-path="url(#6)"><path id="858" transform="matrix(1 0 0 -1 0 612)" d="M316.125 246.3047L527.8607 246.3047" stroke="#000000" stroke-width="0.7017334" fill="none" /><path id="891" transform="matrix(1 0 0 -1 0 612)" d="M316.125 233.2158L466.5142 233.2158" stroke="#000000" stroke-width="0.7017334" fill="none" /><path id="943" transform="matrix(1 0 0 -1 0 612)" d="M316.125 216.2324L499.5201 216.2324" stroke="#000000" stroke-width="0.7017334" fill="none" /><path id="985" transform="matrix(1 0 0 -1 0 612)" d="M316.125 203.1436L520.4838 203.1436" stroke="#000000" stroke-width="0.7017334" fill="none" /><path id="1022" transform="matrix(1 0 0 -1 0 612)" d="M316.125 190.0547L503.227 190.0547" stroke="#000000" stroke-width="0.7017334" fill="none" /><path id="1054" transform="matrix(1 0 0 -1 0 612)" d="M316.125 176.9658L461.0274 176.9658" stroke="#000000" stroke-width="0.7017334" fill="none" /><path id="1103" transform="matrix(1 0 0 -1 0 612)" d="M316.125 160.3936L500.4731 160.3936" stroke="#000000" stroke-width="0.7017334" fill="none" /><path id="1137" transform="matrix(1 0 0 -1 0 612)" d="M316.125 147.3047L509.2218 147.3047" stroke="#000000" stroke-width="0.7017334" fill="none" /><path id="1150" transform="matrix(1 0 0 -1 0 612)" d="M316.125 134.2158L376.3457 134.2158" stroke="#000000" stroke-width="0.7017334" fill="none" /><path id="1203" transform="matrix(1 0 0 -1 0 612)" d="M316.125 117.3047L512.7086 117.3047" stroke="#000000" stroke-width="0.7017334" fill="none" /><path id="1229" transform="matrix(1 0 0 -1 0 612)" d="M316.125 104.2158L438.7287 104.2158" stroke="#000000" stroke-width="0.7017334" fill="none" /><path id="1286" transform="matrix(1 0 0 -1 0 612)" d="M316.125 87.64355L539.1593 87.64355" stroke="#000000" stroke-width="0.7017334" fill="none" /><path id="1326" transform="matrix(1 0 0 -1 0 612)" d="M316.125 74.55469L513.9131 74.55469" stroke="#000000" stroke-width="0.7017334" fill="none" /><path id="1351" transform="matrix(1 0 0 -1 0 612)" d="M316.125 61.46582L435.7755 61.46582" stroke="#000000" stroke-width="0.7017334" fill="none" /></g></g></g></svg>