<svg xmlns="http://www.w3.org/2000/svg" xmlns:xlink="http://www.w3.org/1999/xlink" id="body_24" preserveAspectRatio="xMinYMin meet" viewBox="0 0 1056 816"><defs><clipPath id="1"><path id="" clip-rule="evenodd" transform="matrix(1 0 0 1 0 0)" d="M0 612L0 0L0 0L792 0L792 0L792 612L792 612L0 612z" /></clipPath><clipPath id="2"><path id="" clip-rule="evenodd" transform="matrix(1 0 0 1 0 0)" d="M205.125 52.5L586.875 52.5L586.875 52.5L586.875 69.75L586.875 69.75L205.125 69.75L205.125 69.75L205.125 52.5z" /></clipPath><clipPath id="3"><path id="" clip-rule="evenodd" transform="matrix(1 0 0 1 0 0)" d="M205.125 69L586.875 69L586.875 69L586.875 534L586.875 534L205.125 534L205.125 534L205.125 69z" /></clipPath></defs><g transform="matrix(1.333333 0 0 1.333333 0 0)"><g clip-path="url(#1)"><g clip-path="url(#2)"><path id="1" transform="matrix(1 0 0 -1 0 612)" d="M205.875 558.75L586.125 558.75L586.125 541.5L205.875 541.5L205.875 558.75z" stroke="none" fill="#4DD0E1" fill-rule="nonzero" /><path id="2" transform="matrix(1 0 0 -1 0 612)" d="M205.875 542.25L586.125 542.25L586.125 541.5L205.875 541.5zM205.875 558.75L586.125 558.75L586.125 558L205.875 558zM586.125 558L586.125 542.25L585.375 542.25L585.375 558zM544.125 558L544.125 542.25L543.375 542.25L543.375 558zM313.875 558L313.875 542.25L313.125 542.25L313.125 558zM251.625 558L251.625 542.25L250.875 542.25L250.875 558zM206.625 558L206.625 542.25L205.875 542.25L205.875 558z" stroke="none" fill="#000000" fill-rule="nonzero" fill-opacity="0.1490196" /></g><g clip-path="url(#3)"><path id="24" transform="matrix(1 0 0 -1 0 612)" d="M205.875 542.25L586.125 542.25L586.125 498.75L205.875 498.75L205.875 542.25z" stroke="none" fill="#E0F7FA" fill-rule="nonzero" /><path id="25" transform="matrix(1 0 0 -1 0 612)" d="M205.875 499.5L586.125 499.5L586.125 442.5L205.875 442.5L205.875 499.5z" stroke="none" fill="#FFFFFF" fill-rule="nonzero" /><path id="26" transform="matrix(1 0 0 -1 0 612)" d="M205.875 443.25L586.125 443.25L586.125 412.5L205.875 412.5L205.875 443.25z" stroke="none" fill="#E0F7FA" fill-rule="nonzero" /><path id="27" transform="matrix(1 0 0 -1 0 612)" d="M205.875 413.25L586.125 413.25L586.125 369.75L205.875 369.75L205.875 413.25z" stroke="none" fill="#FFFFFF" fill-rule="nonzero" /><path id="28" transform="matrix(1 0 0 -1 0 612)" d="M205.875 370.5L586.125 370.5L586.125 327L205.875 327L205.875 370.5z" stroke="none" fill="#E0F7FA" fill-rule="nonzero" /><path id="29" transform="matrix(1 0 0 -1 0 612)" d="M205.875 327.75L586.125 327.75L586.125 310.5L205.875 310.5L205.875 327.75z" stroke="none" fill="#FFFFFF" fill-rule="nonzero" /><path id="30" transform="matrix(1 0 0 -1 0 612)" d="M205.875 311.25L586.125 311.25L586.125 294L205.875 294L205.875 311.25z" stroke="none" fill="#E0F7FA" fill-rule="nonzero" /><path id="31" transform="matrix(1 0 0 -1 0 612)" d="M205.875 294.75L586.125 294.75L586.125 251.25L205.875 251.25L205.875 294.75z" stroke="none" fill="#FFFFFF" fill-rule="nonzero" /><path id="32" transform="matrix(1 0 0 -1 0 612)" d="M205.875 252L586.125 252L586.125 207.75L205.875 207.75L205.875 252z" stroke="none" fill="#E0F7FA" fill-rule="nonzero" /><path id="33" transform="matrix(1 0 0 -1 0 612)" d="M205.875 208.5L586.125 208.5L586.125 151.5L205.875 151.5L205.875 208.5z" stroke="none" fill="#FFFFFF" fill-rule="nonzero" /><path id="34" transform="matrix(1 0 0 -1 0 612)" d="M205.875 152.25L586.125 152.25L586.125 121.5L205.875 121.5L205.875 152.25z" stroke="none" fill="#E0F7FA" fill-rule="nonzero" /><path id="35" transform="matrix(1 0 0 -1 0 612)" d="M205.875 122.25L586.125 122.25L586.125 78.75L205.875 78.75L205.875 122.25z" stroke="none" fill="#FFFFFF" fill-rule="nonzero" /><path id="36" transform="matrix(1 0 0 -1 0 612)" d="M205.875 79.5L586.125 79.5L586.125 78.75L205.875 78.75zM205.875 122.25L586.125 122.25L586.125 121.5L205.875 121.5zM205.875 152.25L586.125 152.25L586.125 151.5L205.875 151.5zM205.875 208.5L586.125 208.5L586.125 207.75L205.875 207.75zM205.875 252L586.125 252L586.125 251.25L205.875 251.25zM205.875 294.75L586.125 294.75L586.125 294L205.875 294zM205.875 311.25L586.125 311.25L586.125 310.5L205.875 310.5zM205.875 327.75L586.125 327.75L586.125 327L205.875 327zM205.875 370.5L586.125 370.5L586.125 369.75L205.875 369.75zM205.875 413.25L586.125 413.25L586.125 412.5L205.875 412.5zM205.875 443.25L586.125 443.25L586.125 442.5L205.875 442.5zM205.875 499.5L586.125 499.5L586.125 498.75L205.875 498.75zM205.875 542.25L586.125 542.25L586.125 541.5L205.875 541.5zM586.125 121.5L586.125 79.5L585.375 79.5L585.375 121.5zM586.125 151.5L586.125 122.25L585.375 122.25L585.375 151.5zM586.125 207.75L586.125 152.25L585.375 152.25L585.375 207.75zM586.125 251.25L586.125 208.5L585.375 208.5L585.375 251.25zM586.125 294L586.125 252L585.375 252L585.375 294zM586.125 310.5L586.125 294.75L585.375 294.75L585.375 310.5zM586.125 327L586.125 311.25L585.375 311.25L585.375 327zM586.125 369.75L586.125 327.75L585.375 327.75L585.375 369.75zM586.125 412.5L586.125 370.5L585.375 370.5L585.375 412.5zM586.125 442.5L586.125 413.25L585.375 413.25L585.375 442.5zM586.125 498.75L586.125 443.25L585.375 443.25L585.375 498.75zM586.125 541.5L586.125 499.5L585.375 499.5L585.375 541.5zM544.125 121.5L544.125 79.5L543.375 79.5L543.375 121.5zM544.125 151.5L544.125 122.25L543.375 122.25L543.375 151.5zM544.125 207.75L544.125 152.25L543.375 152.25L543.375 207.75zM544.125 251.25L544.125 208.5L543.375 208.5L543.375 251.25zM544.125 294L544.125 252L543.375 252L543.375 294zM544.125 310.5L544.125 294.75L543.375 294.75L543.375 310.5zM544.125 327L544.125 311.25L543.375 311.25L543.375 327zM544.125 369.75L544.125 327.75L543.375 327.75L543.375 369.75zM544.125 412.5L544.125 370.5L543.375 370.5L543.375 412.5zM544.125 442.5L544.125 413.25L543.375 413.25L543.375 442.5zM544.125 498.75L544.125 443.25L543.375 443.25L543.375 498.75zM544.125 541.5L544.125 499.5L543.375 499.5L543.375 541.5zM313.875 121.5L313.875 79.5L313.125 79.5L313.125 121.5zM313.875 151.5L313.875 122.25L313.125 122.25L313.125 151.5zM313.875 207.75L313.875 152.25L313.125 152.25L313.125 207.75zM313.875 251.25L313.875 208.5L313.125 208.5L313.125 251.25zM313.875 294L313.875 252L313.125 252L313.125 294zM313.875 310.5L313.875 294.75L313.125 294.75L313.125 310.5zM313.875 327L313.875 311.25L313.125 311.25L313.125 327zM313.875 369.75L313.875 327.75L313.125 327.75L313.125 369.75zM313.875 412.5L313.875 370.5L313.125 370.5L313.125 412.5zM313.875 442.5L313.875 413.25L313.125 413.25L313.125 442.5zM313.875 498.75L313.875 443.25L313.125 443.25L313.125 498.75zM313.875 541.5L313.875 499.5L313.125 499.5L313.125 541.5zM251.625 121.5L251.625 79.5L250.875 79.5L250.875 121.5zM251.625 151.5L251.625 122.25L250.875 122.25L250.875 151.5zM251.625 207.75L251.625 152.25L250.875 152.25L250.875 207.75zM251.625 251.25L251.625 208.5L250.875 208.5L250.875 251.25zM251.625 294L251.625 252L250.875 252L250.875 294zM251.625 310.5L251.625 294.75L250.875 294.75L250.875 310.5zM251.625 327L251.625 311.25L250.875 311.25L250.875 327zM251.625 369.75L251.625 327.75L250.875 327.75L250.875 369.75zM251.625 412.5L251.625 370.5L250.875 370.5L250.875 412.5zM251.625 442.5L251.625 413.25L250.875 413.25L250.875 442.5zM251.625 498.75L251.625 443.25L250.875 443.25L250.875 498.75zM251.625 541.5L251.625 499.5L250.875 499.5L250.875 541.5zM206.625 121.5L206.625 79.5L205.875 79.5L205.875 121.5zM206.625 151.5L206.625 122.25L205.875 122.25L205.875 151.5zM206.625 207.75L206.625 152.25L205.875 152.25L205.875 207.75zM206.625 251.25L206.625 208.5L205.875 208.5L205.875 251.25zM206.625 294L206.625 252L205.875 252L205.875 294zM206.625 310.5L206.625 294.75L205.875 294.75L205.875 310.5zM206.625 327L206.625 311.25L205.875 311.25L205.875 327zM206.625 369.75L206.625 327.75L205.875 327.75L205.875 369.75zM206.625 412.5L206.625 370.5L205.875 370.5L205.875 412.5zM206.625 442.5L206.625 413.25L205.875 413.25L205.875 442.5zM206.625 498.75L206.625 443.25L205.875 443.25L205.875 498.75zM206.625 541.5L206.625 499.5L205.875 499.5L205.875 541.5z" stroke="none" fill="#000000" fill-rule="nonzero" fill-opacity="0.1490196" /><path id="85" transform="matrix(1 0 0 -1 0 612)" d="M316.125 528.6436L524.2377 528.6436" stroke="#000000" stroke-width="0.7017334" fill="none" /><path id="114" transform="matrix(1 0 0 -1 0 612)" d="M316.125 515.5547L502.3054 515.5547" stroke="#000000" stroke-width="0.7017334" fill="none" /><path id="141" transform="matrix(1 0 0 -1 0 612)" d="M316.125 502.4658L458.8442 502.4658" stroke="#000000" stroke-width="0.7017334" fill="none" /><path id="224" transform="matrix(1 0 0 -1 0 612)" d="M316.125 459.3047L527.7718 459.3047" stroke="#000000" stroke-width="0.7017334" fill="none" /><path id="245" transform="matrix(1 0 0 -1 0 612)" d="M316.125 446.2158L413.5766 446.2158" stroke="#000000" stroke-width="0.7017334" fill="none" /><path id="300" transform="matrix(1 0 0 -1 0 612)" d="M316.125 416.2158L493.3419 416.2158" stroke="#000000" stroke-width="0.7017334" fill="none" /><path id="358" transform="matrix(1 0 0 -1 0 612)" d="M316.125 399.6436L516.2949 399.6436" stroke="#000000" stroke-width="0.7017334" fill="none" /><path id="404" transform="matrix(1 0 0 -1 0 612)" d="M316.125 386.5547L536.5834 386.5547" stroke="#000000" stroke-width="0.7017334" fill="none" /><path id="416" transform="matrix(1 0 0 -1 0 612)" d="M316.125 373.4658L369.3875 373.4658" stroke="#000000" stroke-width="0.7017334" fill="none" /><path id="480" transform="matrix(1 0 0 -1 0 612)" d="M316.125 356.8936L537.3112 356.8936" stroke="#000000" stroke-width="0.7017334" fill="none" /><path id="520" transform="matrix(1 0 0 -1 0 612)" d="M316.125 343.8047L527.8658 343.8047" stroke="#000000" stroke-width="0.7017334" fill="none" /><path id="540" transform="matrix(1 0 0 -1 0 612)" d="M316.125 330.7158L411.477 330.7158" stroke="#000000" stroke-width="0.7017334" fill="none" /><path id="581" transform="matrix(1 0 0 -1 0 612)" d="M316.125 314.2158L448.755 314.2158" stroke="#000000" stroke-width="0.7017334" fill="none" /><path id="630" transform="matrix(1 0 0 -1 0 612)" d="M316.125 297.7158L479.8549 297.7158" stroke="#000000" stroke-width="0.7017334" fill="none" /><path id="685" transform="matrix(1 0 0 -1 0 612)" d="M316.125 281.1436L490.6979 281.1436" stroke="#000000" stroke-width="0.7017334" fill="none" /><path id="729" transform="matrix(1 0 0 -1 0 612)" d="M316.125 268.0547L517.4261 268.0547" stroke="#000000" stroke-width="0.7017334" fill="none" /><path id="744" transform="matrix(1 0 0 -1 0 612)" d="M316.125 254.9658L376.021 254.9658" stroke="#000000" stroke-width="0.7017334" fill="none" /><path id="798" transform="matrix(1 0 0 -1 0 612)" d="M316.125 237.6436L534.8553 237.6436" stroke="#000000" stroke-width="0.7017334" fill="none" /><path id="824" transform="matrix(1 0 0 -1 0 612)" d="M316.125 224.5547L468.3888 224.5547" stroke="#000000" stroke-width="0.7017334" fill="none" /><path id="856" transform="matrix(1 0 0 -1 0 612)" d="M316.125 211.4658L503.4835 211.4658" stroke="#000000" stroke-width="0.7017334" fill="none" /><path id="911" transform="matrix(1 0 0 -1 0 612)" d="M316.125 194.4824L537.4001 194.4824" stroke="#000000" stroke-width="0.7017334" fill="none" /><path id="953" transform="matrix(1 0 0 -1 0 612)" d="M316.125 181.3936L535.4998 181.3936" stroke="#000000" stroke-width="0.7017334" fill="none" /><path id="998" transform="matrix(1 0 0 -1 0 612)" d="M316.125 168.3047L540.6411 168.3047" stroke="#000000" stroke-width="0.7017334" fill="none" /><path id="1002" transform="matrix(1 0 0 -1 0 612)" d="M316.125 155.2158L326.1199 155.2158" stroke="#000000" stroke-width="0.7017334" fill="none" /><path id="1059" transform="matrix(1 0 0 -1 0 612)" d="M316.125 138.3047L532.4315 138.3047" stroke="#000000" stroke-width="0.7017334" fill="none" /><path id="1074" transform="matrix(1 0 0 -1 0 612)" d="M316.125 125.2158L384.3247 125.2158" stroke="#000000" stroke-width="0.7017334" fill="none" /><path id="1133" transform="matrix(1 0 0 -1 0 612)" d="M316.125 108.6436L540.0807 108.6436" stroke="#000000" stroke-width="0.7017334" fill="none" /><path id="1171" transform="matrix(1 0 0 -1 0 612)" d="M316.125 95.55469L536.8081 95.55469" stroke="#000000" stroke-width="0.7017334" fill="none" /><path id="1179" transform="matrix(1 0 0 -1 0 612)" d="M316.125 82.46582L355.1831 82.46582" stroke="#000000" stroke-width="0.7017334" fill="none" /></g></g></g></svg>