<svg xmlns="http://www.w3.org/2000/svg" xmlns:xlink="http://www.w3.org/1999/xlink" id="body_27" preserveAspectRatio="xMinYMin meet" viewBox="0 0 1056 816"><defs><clipPath id="1"><path id="" clip-rule="evenodd" transform="matrix(1 0 0 1 0 0)" d="M0 612L0 0L0 0L792 0L792 0L792 612L792 612L0 612z" /></clipPath><clipPath id="2"><path id="" clip-rule="evenodd" transform="matrix(1 0 0 1 0 0)" d="M205.125 52.5L586.875 52.5L586.875 52.5L586.875 69.75L586.875 69.75L205.125 69.75L205.125 69.75L205.125 52.5z" /></clipPath><clipPath id="3"><path id="" clip-rule="evenodd" transform="matrix(1 0 0 1 0 0)" d="M205.125 69L586.875 69L586.875 69L586.875 550.5L586.875 550.5L205.125 550.5L205.125 550.5L205.125 69z" /></clipPath></defs><g transform="matrix(1.333333 0 0 1.333333 0 0)"><g clip-path="url(#1)"><g clip-path="url(#2)"><path id="1" transform="matrix(1 0 0 -1 0 612)" d="M205.875 558.75L586.125 558.75L586.125 541.5L205.875 541.5L205.875 558.75z" stroke="none" fill="#4DD0E1" fill-rule="nonzero" /><path id="2" transform="matrix(1 0 0 -1 0 612)" d="M205.875 542.25L586.125 542.25L586.125 541.5L205.875 541.5zM205.875 558.75L586.125 558.75L586.125 558L205.875 558zM586.125 558L586.125 542.25L585.375 542.25L585.375 558zM544.125 558L544.125 542.25L543.375 542.25L543.375 558zM313.875 558L313.875 542.25L313.125 542.25L313.125 558zM251.625 558L251.625 542.25L250.875 542.25L250.875 558zM206.625 558L206.625 542.25L205.875 542.25L205.875 558z" stroke="none" fill="#000000" fill-rule="nonzero" fill-opacity="0.1490196" /></g><g clip-path="url(#3)"><path id="24" transform="matrix(1 0 0 -1 0 612)" d="M205.875 542.25L586.125 542.25L586.125 511.5L205.875 511.5L205.875 542.25z" stroke="none" fill="#E0F7FA" fill-rule="nonzero" /><path id="25" transform="matrix(1 0 0 -1 0 612)" d="M205.875 512.25L586.125 512.25L586.125 481.5L205.875 481.5L205.875 512.25z" stroke="none" fill="#FFFFFF" fill-rule="nonzero" /><path id="26" transform="matrix(1 0 0 -1 0 612)" d="M205.875 482.25L586.125 482.25L586.125 438.75L205.875 438.75L205.875 482.25z" stroke="none" fill="#E0F7FA" fill-rule="nonzero" /><path id="27" transform="matrix(1 0 0 -1 0 612)" d="M205.875 439.5L586.125 439.5L586.125 342L205.875 342L205.875 439.5z" stroke="none" fill="#FFFFFF" fill-rule="nonzero" /><path id="28" transform="matrix(1 0 0 -1 0 612)" d="M205.875 342.75L586.125 342.75L586.125 323.25L205.875 323.25L205.875 342.75z" stroke="none" fill="#E0F7FA" fill-rule="nonzero" /><path id="29" transform="matrix(1 0 0 -1 0 612)" d="M205.875 324L586.125 324L586.125 280.5L205.875 280.5L205.875 324z" stroke="none" fill="#FFFFFF" fill-rule="nonzero" /><path id="30" transform="matrix(1 0 0 -1 0 612)" d="M205.875 281.25L586.125 281.25L586.125 237.75L205.875 237.75L205.875 281.25z" stroke="none" fill="#E0F7FA" fill-rule="nonzero" /><path id="31" transform="matrix(1 0 0 -1 0 612)" d="M205.875 238.5L586.125 238.5L586.125 207.75L205.875 207.75L205.875 238.5z" stroke="none" fill="#FFFFFF" fill-rule="nonzero" /><path id="32" transform="matrix(1 0 0 -1 0 612)" d="M205.875 208.5L586.125 208.5L586.125 165L205.875 165L205.875 208.5z" stroke="none" fill="#E0F7FA" fill-rule="nonzero" /><path id="33" transform="matrix(1 0 0 -1 0 612)" d="M205.875 165.75L586.125 165.75L586.125 135L205.875 135L205.875 165.75z" stroke="none" fill="#FFFFFF" fill-rule="nonzero" /><path id="34" transform="matrix(1 0 0 -1 0 612)" d="M205.875 135.75L586.125 135.75L586.125 78.75L205.875 78.75L205.875 135.75z" stroke="none" fill="#E0F7FA" fill-rule="nonzero" /><path id="35" transform="matrix(1 0 0 -1 0 612)" d="M205.875 79.5L586.125 79.5L586.125 62.25L205.875 62.25L205.875 79.5z" stroke="none" fill="#FFFFFF" fill-rule="nonzero" /><path id="36" transform="matrix(1 0 0 -1 0 612)" d="M205.875 63L586.125 63L586.125 62.25L205.875 62.25zM205.875 79.5L586.125 79.5L586.125 78.75L205.875 78.75zM205.875 135.75L586.125 135.75L586.125 135L205.875 135zM205.875 165.75L586.125 165.75L586.125 165L205.875 165zM205.875 208.5L586.125 208.5L586.125 207.75L205.875 207.75zM205.875 238.5L586.125 238.5L586.125 237.75L205.875 237.75zM205.875 281.25L586.125 281.25L586.125 280.5L205.875 280.5zM205.875 324L586.125 324L586.125 323.25L205.875 323.25zM205.875 342.75L586.125 342.75L586.125 342L205.875 342zM205.875 439.5L586.125 439.5L586.125 438.75L205.875 438.75zM205.875 482.25L586.125 482.25L586.125 481.5L205.875 481.5zM205.875 512.25L586.125 512.25L586.125 511.5L205.875 511.5zM205.875 542.25L586.125 542.25L586.125 541.5L205.875 541.5zM586.125 78.75L586.125 63L585.375 63L585.375 78.75zM586.125 135L586.125 79.5L585.375 79.5L585.375 135zM586.125 165L586.125 135.75L585.375 135.75L585.375 165zM586.125 207.75L586.125 165.75L585.375 165.75L585.375 207.75zM586.125 237.75L586.125 208.5L585.375 208.5L585.375 237.75zM586.125 280.5L586.125 238.5L585.375 238.5L585.375 280.5zM586.125 323.25L586.125 281.25L585.375 281.25L585.375 323.25zM586.125 342L586.125 324L585.375 324L585.375 342zM586.125 438.75L586.125 342.75L585.375 342.75L585.375 438.75zM586.125 481.5L586.125 439.5L585.375 439.5L585.375 481.5zM586.125 511.5L586.125 482.25L585.375 482.25L585.375 511.5zM586.125 541.5L586.125 512.25L585.375 512.25L585.375 541.5zM544.125 78.75L544.125 63L543.375 63L543.375 78.75zM544.125 135L544.125 79.5L543.375 79.5L543.375 135zM544.125 165L544.125 135.75L543.375 135.75L543.375 165zM544.125 207.75L544.125 165.75L543.375 165.75L543.375 207.75zM544.125 237.75L544.125 208.5L543.375 208.5L543.375 237.75zM544.125 280.5L544.125 238.5L543.375 238.5L543.375 280.5zM544.125 323.25L544.125 281.25L543.375 281.25L543.375 323.25zM544.125 342L544.125 324L543.375 324L543.375 342zM544.125 438.75L544.125 342.75L543.375 342.75L543.375 438.75zM544.125 481.5L544.125 439.5L543.375 439.5L543.375 481.5zM544.125 511.5L544.125 482.25L543.375 482.25L543.375 511.5zM544.125 541.5L544.125 512.25L543.375 512.25L543.375 541.5zM313.875 78.75L313.875 63L313.125 63L313.125 78.75zM313.875 135L313.875 79.5L313.125 79.5L313.125 135zM313.875 165L313.875 135.75L313.125 135.75L313.125 165zM313.875 207.75L313.875 165.75L313.125 165.75L313.125 207.75zM313.875 237.75L313.875 208.5L313.125 208.5L313.125 237.75zM313.875 280.5L313.875 238.5L313.125 238.5L313.125 280.5zM313.875 323.25L313.875 281.25L313.125 281.25L313.125 323.25zM313.875 342L313.875 324L313.125 324L313.125 342zM313.875 438.75L313.875 342.75L313.125 342.75L313.125 438.75zM313.875 481.5L313.875 439.5L313.125 439.5L313.125 481.5zM313.875 511.5L313.875 482.25L313.125 482.25L313.125 511.5zM313.875 541.5L313.875 512.25L313.125 512.25L313.125 541.5zM251.625 78.75L251.625 63L250.875 63L250.875 78.75zM251.625 135L251.625 79.5L250.875 79.5L250.875 135zM251.625 165L251.625 135.75L250.875 135.75L250.875 165zM251.625 207.75L251.625 165.75L250.875 165.75L250.875 207.75zM251.625 237.75L251.625 208.5L250.875 208.5L250.875 237.75zM251.625 280.5L251.625 238.5L250.875 238.5L250.875 280.5zM251.625 323.25L251.625 281.25L250.875 281.25L250.875 323.25zM251.625 342L251.625 324L250.875 324L250.875 342zM251.625 438.75L251.625 342.75L250.875 342.75L250.875 438.75zM251.625 481.5L251.625 439.5L250.875 439.5L250.875 481.5zM251.625 511.5L251.625 482.25L250.875 482.25L250.875 511.5zM251.625 541.5L251.625 512.25L250.875 512.25L250.875 541.5zM206.625 78.75L206.625 63L205.875 63L205.875 78.75zM206.625 135L206.625 79.5L205.875 79.5L205.875 135zM206.625 165L206.625 135.75L205.875 135.75L205.875 165zM206.625 207.75L206.625 165.75L205.875 165.75L205.875 207.75zM206.625 237.75L206.625 208.5L205.875 208.5L205.875 237.75zM206.625 280.5L206.625 238.5L205.875 238.5L205.875 280.5zM206.625 323.25L206.625 281.25L205.875 281.25L205.875 323.25zM206.625 342L206.625 324L205.875 324L205.875 342zM206.625 438.75L206.625 342.75L205.875 342.75L205.875 438.75zM206.625 481.5L206.625 439.5L205.875 439.5L205.875 481.5zM206.625 511.5L206.625 482.25L205.875 482.25L205.875 511.5zM206.625 541.5L206.625 512.25L205.875 512.25L205.875 541.5z" stroke="none" fill="#000000" fill-rule="nonzero" fill-opacity="0.1490196" /><path id="102" transform="matrix(1 0 0 -1 0 612)" d="M316.125 528.3047L540.9238 528.3047" stroke="#000000" stroke-width="0.7017334" fill="none" /><path id="125" transform="matrix(1 0 0 -1 0 612)" d="M316.125 515.2158L425.8071 515.2158" stroke="#000000" stroke-width="0.7017334" fill="none" /><path id="182" transform="matrix(1 0 0 -1 0 612)" d="M316.125 498.3047L539.6568 498.3047" stroke="#000000" stroke-width="0.7017334" fill="none" /><path id="229" transform="matrix(1 0 0 -1 0 612)" d="M316.125 485.2158L539.0963 485.2158" stroke="#000000" stroke-width="0.7017334" fill="none" /><path id="299" transform="matrix(1 0 0 -1 0 612)" d="M316.125 468.6436L523.6248 468.6436" stroke="#000000" stroke-width="0.7017334" fill="none" /><path id="344" transform="matrix(1 0 0 -1 0 612)" d="M316.125 455.5566L540.2744 455.5566" stroke="#000000" stroke-width="0.7017334" fill="none" /><path id="353" transform="matrix(1 0 0 -1 0 612)" d="M316.125 442.4668L352.4239 442.4668" stroke="#000000" stroke-width="0.7017334" fill="none" /><path id="447" transform="matrix(1 0 0 -1 0 612)" d="M316.125 384.9844L531.0281 384.9844" stroke="#000000" stroke-width="0.7017334" fill="none" /><path id="487" transform="matrix(1 0 0 -1 0 612)" d="M316.125 371.8945L518.7612 371.8945" stroke="#000000" stroke-width="0.7017334" fill="none" /><path id="535" transform="matrix(1 0 0 -1 0 612)" d="M316.125 358.8066L539.1592 358.8066" stroke="#000000" stroke-width="0.7017334" fill="none" /><path id="543" transform="matrix(1 0 0 -1 0 612)" d="M316.125 345.7168L348.7433 345.7168" stroke="#000000" stroke-width="0.7017334" fill="none" /><path id="601" transform="matrix(1 0 0 -1 0 612)" d="M316.125 326.9668L520.7665 326.9668" stroke="#000000" stroke-width="0.7017334" fill="none" /><path id="653" transform="matrix(1 0 0 -1 0 612)" d="M316.125 310.3945L533.8085 310.3945" stroke="#000000" stroke-width="0.7017334" fill="none" /><path id="690" transform="matrix(1 0 0 -1 0 612)" d="M316.125 297.3066L530.5153 297.3066" stroke="#000000" stroke-width="0.7017334" fill="none" /><path id="698" transform="matrix(1 0 0 -1 0 612)" d="M316.125 284.2168L352.2616 284.2168" stroke="#000000" stroke-width="0.7017334" fill="none" /><path id="752" transform="matrix(1 0 0 -1 0 612)" d="M316.125 267.6445L519.9705 267.6445" stroke="#000000" stroke-width="0.7017334" fill="none" /><path id="797" transform="matrix(1 0 0 -1 0 612)" d="M316.125 254.5566L529.1801 254.5566" stroke="#000000" stroke-width="0.7017334" fill="none" /><path id="821" transform="matrix(1 0 0 -1 0 612)" d="M316.125 241.4668L421.3254 241.4668" stroke="#000000" stroke-width="0.7017334" fill="none" /><path id="871" transform="matrix(1 0 0 -1 0 612)" d="M316.125 224.5566L499.6353 224.5566" stroke="#000000" stroke-width="0.7017334" fill="none" /><path id="913" transform="matrix(1 0 0 -1 0 612)" d="M316.125 211.4668L513.405 211.4668" stroke="#000000" stroke-width="0.7017334" fill="none" /><path id="961" transform="matrix(1 0 0 -1 0 612)" d="M316.125 194.8945L506.7925 194.8945" stroke="#000000" stroke-width="0.7017334" fill="none" /><path id="997" transform="matrix(1 0 0 -1 0 612)" d="M316.125 181.8066L487.059 181.8066" stroke="#000000" stroke-width="0.7017334" fill="none" /><path id="1031" transform="matrix(1 0 0 -1 0 612)" d="M316.125 168.7168L474.1219 168.7168" stroke="#000000" stroke-width="0.7017334" fill="none" /><path id="1091" transform="matrix(1 0 0 -1 0 612)" d="M316.125 151.8066L540.2693 151.8066" stroke="#000000" stroke-width="0.7017334" fill="none" /><path id="1136" transform="matrix(1 0 0 -1 0 612)" d="M316.125 138.7168L520.5884 138.7168" stroke="#000000" stroke-width="0.7017334" fill="none" /><path id="1214" transform="matrix(1 0 0 -1 0 612)" d="M316.125 121.7344L533.4943 121.7344" stroke="#000000" stroke-width="0.7017334" fill="none" /><path id="1255" transform="matrix(1 0 0 -1 0 612)" d="M316.125 108.6445L512.9914 108.6445" stroke="#000000" stroke-width="0.7017334" fill="none" /><path id="1296" transform="matrix(1 0 0 -1 0 612)" d="M316.125 95.55664L541.8716 95.55664" stroke="#000000" stroke-width="0.7017334" fill="none" /><path id="1306" transform="matrix(1 0 0 -1 0 612)" d="M316.125 82.4668L360.2198 82.4668" stroke="#000000" stroke-width="0.7017334" fill="none" /><path id="1352" transform="matrix(1 0 0 -1 0 612)" d="M316.125 65.9668L491.9913 65.9668" stroke="#000000" stroke-width="0.7017334" fill="none" /></g></g></g></svg>