<svg xmlns="http://www.w3.org/2000/svg" xmlns:xlink="http://www.w3.org/1999/xlink" id="body_33" preserveAspectRatio="xMinYMin meet" viewBox="0 0 1056 816"><defs><clipPath id="1"><path id="" clip-rule="evenodd" transform="matrix(1 0 0 1 0 0)" d="M0 612L0 0L0 0L792 0L792 0L792 612L792 612L0 612z" /></clipPath><clipPath id="2"><path id="" clip-rule="evenodd" transform="matrix(1 0 0 1 0 0)" d="M205.125 52.5L586.875 52.5L586.875 52.5L586.875 69.75L586.875 69.75L205.125 69.75L205.125 69.75L205.125 52.5z" /></clipPath><clipPath id="3"><path id="" clip-rule="evenodd" transform="matrix(1 0 0 1 0 0)" d="M205.125 69L586.875 69L586.875 69L586.875 543.75L586.875 543.75L205.125 543.75L205.125 543.75L205.125 69z" /></clipPath></defs><g transform="matrix(1.333333 0 0 1.333333 0 0)"><g clip-path="url(#1)"><g clip-path="url(#2)"><path id="1" transform="matrix(1 0 0 -1 0 612)" d="M205.875 558.75L586.125 558.75L586.125 541.5L205.875 541.5L205.875 558.75z" stroke="none" fill="#4DD0E1" fill-rule="nonzero" /><path id="2" transform="matrix(1 0 0 -1 0 612)" d="M205.875 542.25L586.125 542.25L586.125 541.5L205.875 541.5zM205.875 558.75L586.125 558.75L586.125 558L205.875 558zM586.125 558L586.125 542.25L585.375 542.25L585.375 558zM544.125 558L544.125 542.25L543.375 542.25L543.375 558zM313.875 558L313.875 542.25L313.125 542.25L313.125 558zM251.625 558L251.625 542.25L250.875 542.25L250.875 558zM206.625 558L206.625 542.25L205.875 542.25L205.875 558z" stroke="none" fill="#000000" fill-rule="nonzero" fill-opacity="0.1490196" /></g><g clip-path="url(#3)"><path id="24" transform="matrix(1 0 0 -1 0 612)" d="M205.875 542.25L586.125 542.25L586.125 498.75L205.875 498.75L205.875 542.25z" stroke="none" fill="#E0F7FA" fill-rule="nonzero" /><path id="25" transform="matrix(1 0 0 -1 0 612)" d="M205.875 499.5L586.125 499.5L586.125 468.75L205.875 468.75L205.875 499.5z" stroke="none" fill="#FFFFFF" fill-rule="nonzero" /><path id="26" transform="matrix(1 0 0 -1 0 612)" d="M205.875 469.5L586.125 469.5L586.125 438.75L205.875 438.75L205.875 469.5z" stroke="none" fill="#E0F7FA" fill-rule="nonzero" /><path id="27" transform="matrix(1 0 0 -1 0 612)" d="M205.875 439.5L586.125 439.5L586.125 408.75L205.875 408.75L205.875 439.5z" stroke="none" fill="#FFFFFF" fill-rule="nonzero" /><path id="28" transform="matrix(1 0 0 -1 0 612)" d="M205.875 409.5L586.125 409.5L586.125 378.75L205.875 378.75L205.875 409.5z" stroke="none" fill="#E0F7FA" fill-rule="nonzero" /><path id="29" transform="matrix(1 0 0 -1 0 612)" d="M205.875 379.5L586.125 379.5L586.125 348.75L205.875 348.75L205.875 379.5z" stroke="none" fill="#FFFFFF" fill-rule="nonzero" /><path id="30" transform="matrix(1 0 0 -1 0 612)" d="M205.875 349.5L586.125 349.5L586.125 289.5L205.875 289.5L205.875 349.5z" stroke="none" fill="#E0F7FA" fill-rule="nonzero" /><path id="31" transform="matrix(1 0 0 -1 0 612)" d="M205.875 290.25L586.125 290.25L586.125 259.5L205.875 259.5L205.875 290.25z" stroke="none" fill="#FFFFFF" fill-rule="nonzero" /><path id="32" transform="matrix(1 0 0 -1 0 612)" d="M205.875 260.25L586.125 260.25L586.125 229.5L205.875 229.5L205.875 260.25z" stroke="none" fill="#E0F7FA" fill-rule="nonzero" /><path id="33" transform="matrix(1 0 0 -1 0 612)" d="M205.875 230.25L586.125 230.25L586.125 199.5L205.875 199.5L205.875 230.25z" stroke="none" fill="#FFFFFF" fill-rule="nonzero" /><path id="34" transform="matrix(1 0 0 -1 0 612)" d="M205.875 200.25L586.125 200.25L586.125 169.5L205.875 169.5L205.875 200.25z" stroke="none" fill="#E0F7FA" fill-rule="nonzero" /><path id="35" transform="matrix(1 0 0 -1 0 612)" d="M205.875 170.25L586.125 170.25L586.125 126.75L205.875 126.75L205.875 170.25z" stroke="none" fill="#FFFFFF" fill-rule="nonzero" /><path id="36" transform="matrix(1 0 0 -1 0 612)" d="M205.875 127.5L586.125 127.5L586.125 69L205.875 69L205.875 127.5z" stroke="none" fill="#E0F7FA" fill-rule="nonzero" /><path id="37" transform="matrix(1 0 0 -1 0 612)" d="M205.875 69.75L586.125 69.75L586.125 69L205.875 69zM205.875 127.5L586.125 127.5L586.125 126.75L205.875 126.75zM205.875 170.25L586.125 170.25L586.125 169.5L205.875 169.5zM205.875 200.25L586.125 200.25L586.125 199.5L205.875 199.5zM205.875 230.25L586.125 230.25L586.125 229.5L205.875 229.5zM205.875 260.25L586.125 260.25L586.125 259.5L205.875 259.5zM205.875 290.25L586.125 290.25L586.125 289.5L205.875 289.5zM205.875 349.5L586.125 349.5L586.125 348.75L205.875 348.75zM205.875 379.5L586.125 379.5L586.125 378.75L205.875 378.75zM205.875 409.5L586.125 409.5L586.125 408.75L205.875 408.75zM205.875 439.5L586.125 439.5L586.125 438.75L205.875 438.75zM205.875 469.5L586.125 469.5L586.125 468.75L205.875 468.75zM205.875 499.5L586.125 499.5L586.125 498.75L205.875 498.75zM205.875 542.25L586.125 542.25L586.125 541.5L205.875 541.5zM586.125 126.75L586.125 69.75L585.375 69.75L585.375 126.75zM586.125 169.5L586.125 127.5L585.375 127.5L585.375 169.5zM586.125 199.5L586.125 170.25L585.375 170.25L585.375 199.5zM586.125 229.5L586.125 200.25L585.375 200.25L585.375 229.5zM586.125 259.5L586.125 230.25L585.375 230.25L585.375 259.5zM586.125 289.5L586.125 260.25L585.375 260.25L585.375 289.5zM586.125 348.75L586.125 290.25L585.375 290.25L585.375 348.75zM586.125 378.75L586.125 349.5L585.375 349.5L585.375 378.75zM586.125 408.75L586.125 379.5L585.375 379.5L585.375 408.75zM586.125 438.75L586.125 409.5L585.375 409.5L585.375 438.75zM586.125 468.75L586.125 439.5L585.375 439.5L585.375 468.75zM586.125 498.75L586.125 469.5L585.375 469.5L585.375 498.75zM586.125 541.5L586.125 499.5L585.375 499.5L585.375 541.5zM544.125 126.75L544.125 69.75L543.375 69.75L543.375 126.75zM544.125 169.5L544.125 127.5L543.375 127.5L543.375 169.5zM544.125 199.5L544.125 170.25L543.375 170.25L543.375 199.5zM544.125 229.5L544.125 200.25L543.375 200.25L543.375 229.5zM544.125 259.5L544.125 230.25L543.375 230.25L543.375 259.5zM544.125 289.5L544.125 260.25L543.375 260.25L543.375 289.5zM544.125 348.75L544.125 290.25L543.375 290.25L543.375 348.75zM544.125 378.75L544.125 349.5L543.375 349.5L543.375 378.75zM544.125 408.75L544.125 379.5L543.375 379.5L543.375 408.75zM544.125 438.75L544.125 409.5L543.375 409.5L543.375 438.75zM544.125 468.75L544.125 439.5L543.375 439.5L543.375 468.75zM544.125 498.75L544.125 469.5L543.375 469.5L543.375 498.75zM544.125 541.5L544.125 499.5L543.375 499.5L543.375 541.5zM313.875 126.75L313.875 69.75L313.125 69.75L313.125 126.75zM313.875 169.5L313.875 127.5L313.125 127.5L313.125 169.5zM313.875 199.5L313.875 170.25L313.125 170.25L313.125 199.5zM313.875 229.5L313.875 200.25L313.125 200.25L313.125 229.5zM313.875 259.5L313.875 230.25L313.125 230.25L313.125 259.5zM313.875 289.5L313.875 260.25L313.125 260.25L313.125 289.5zM313.875 348.75L313.875 290.25L313.125 290.25L313.125 348.75zM313.875 378.75L313.875 349.5L313.125 349.5L313.125 378.75zM313.875 408.75L313.875 379.5L313.125 379.5L313.125 408.75zM313.875 438.75L313.875 409.5L313.125 409.5L313.125 438.75zM313.875 468.75L313.875 439.5L313.125 439.5L313.125 468.75zM313.875 498.75L313.875 469.5L313.125 469.5L313.125 498.75zM313.875 541.5L313.875 499.5L313.125 499.5L313.125 541.5zM251.625 126.75L251.625 69.75L250.875 69.75L250.875 126.75zM251.625 169.5L251.625 127.5L250.875 127.5L250.875 169.5zM251.625 199.5L251.625 170.25L250.875 170.25L250.875 199.5zM251.625 229.5L251.625 200.25L250.875 200.25L250.875 229.5zM251.625 259.5L251.625 230.25L250.875 230.25L250.875 259.5zM251.625 289.5L251.625 260.25L250.875 260.25L250.875 289.5zM251.625 348.75L251.625 290.25L250.875 290.25L250.875 348.75zM251.625 378.75L251.625 349.5L250.875 349.5L250.875 378.75zM251.625 408.75L251.625 379.5L250.875 379.5L250.875 408.75zM251.625 438.75L251.625 409.5L250.875 409.5L250.875 438.75zM251.625 468.75L251.625 439.5L250.875 439.5L250.875 468.75zM251.625 498.75L251.625 469.5L250.875 469.5L250.875 498.75zM251.625 541.5L251.625 499.5L250.875 499.5L250.875 541.5zM206.625 126.75L206.625 69.75L205.875 69.75L205.875 126.75zM206.625 169.5L206.625 127.5L205.875 127.5L205.875 169.5zM206.625 199.5L206.625 170.25L205.875 170.25L205.875 199.5zM206.625 229.5L206.625 200.25L205.875 200.25L205.875 229.5zM206.625 259.5L206.625 230.25L205.875 230.25L205.875 259.5zM206.625 289.5L206.625 260.25L205.875 260.25L205.875 289.5zM206.625 348.75L206.625 290.25L205.875 290.25L205.875 348.75zM206.625 378.75L206.625 349.5L205.875 349.5L205.875 378.75zM206.625 408.75L206.625 379.5L205.875 379.5L205.875 408.75zM206.625 438.75L206.625 409.5L205.875 409.5L205.875 438.75zM206.625 468.75L206.625 439.5L205.875 439.5L205.875 468.75zM206.625 498.75L206.625 469.5L205.875 469.5L205.875 498.75zM206.625 541.5L206.625 499.5L205.875 499.5L205.875 541.5z" stroke="none" fill="#000000" fill-rule="nonzero" fill-opacity="0.1490196" /><path id="84" transform="matrix(1 0 0 -1 0 612)" d="M316.125 528.6445L507.5726 528.6445" stroke="#000000" stroke-width="0.7017334" fill="none" /><path id="131" transform="matrix(1 0 0 -1 0 612)" d="M316.125 515.5566L534.6044 515.5566" stroke="#000000" stroke-width="0.7017334" fill="none" /><path id="167" transform="matrix(1 0 0 -1 0 612)" d="M316.125 502.4668L501.5463 502.4668" stroke="#000000" stroke-width="0.7017334" fill="none" /><path id="222" transform="matrix(1 0 0 -1 0 612)" d="M316.125 485.5566L525.2378 485.5566" stroke="#000000" stroke-width="0.7017334" fill="none" /><path id="242" transform="matrix(1 0 0 -1 0 612)" d="M316.125 472.4668L407.8435 472.4668" stroke="#000000" stroke-width="0.7017334" fill="none" /><path id="297" transform="matrix(1 0 0 -1 0 612)" d="M316.125 455.5566L526.5938 455.5566" stroke="#000000" stroke-width="0.7017334" fill="none" /><path id="308" transform="matrix(1 0 0 -1 0 612)" d="M316.125 442.4668L363.9476 442.4668" stroke="#000000" stroke-width="0.7017334" fill="none" /><path id="369" transform="matrix(1 0 0 -1 0 612)" d="M316.125 425.5566L536.7562 425.5566" stroke="#000000" stroke-width="0.7017334" fill="none" /><path id="411" transform="matrix(1 0 0 -1 0 612)" d="M316.125 412.4668L520.6773 412.4668" stroke="#000000" stroke-width="0.7017334" fill="none" /><path id="458" transform="matrix(1 0 0 -1 0 612)" d="M316.125 395.5566L509.782 395.5566" stroke="#000000" stroke-width="0.7017334" fill="none" /><path id="503" transform="matrix(1 0 0 -1 0 612)" d="M316.125 382.4668L525.1853 382.4668" stroke="#000000" stroke-width="0.7017334" fill="none" /><path id="556" transform="matrix(1 0 0 -1 0 612)" d="M316.125 352.4668L470.8234 352.4668" stroke="#000000" stroke-width="0.7017334" fill="none" /><path id="612" transform="matrix(1 0 0 -1 0 612)" d="M316.125 335.8145L524.1226 335.8145" stroke="#000000" stroke-width="0.7017334" fill="none" /><path id="627" transform="matrix(1 0 0 -1 0 612)" d="M316.125 321.0605L385.0841 321.0605" stroke="#000000" stroke-width="0.7017334" fill="none" /><path id="629" transform="matrix(1 0 0 -1 0 612)" d="M385.0841 321.1377L391.0475 321.1377" stroke="#000000" stroke-width="0.7855225" fill="none" /><path id="636" transform="matrix(1 0 0 -1 0 612)" d="M391.0475 321.0605L423.6133 321.0605" stroke="#000000" stroke-width="0.7017334" fill="none" /><path id="638" transform="matrix(1 0 0 -1 0 612)" d="M423.6133 321.1377L429.5768 321.1377" stroke="#000000" stroke-width="0.7855225" fill="none" /><path id="640" transform="matrix(1 0 0 -1 0 612)" d="M429.5768 321.0605L435.2104 321.0605" stroke="#000000" stroke-width="0.7017334" fill="none" /><path id="642" transform="matrix(1 0 0 -1 0 612)" d="M435.2104 321.1377L438.1895 321.1377" stroke="#000000" stroke-width="0.7855225" fill="none" /><path id="654" transform="matrix(1 0 0 -1 0 612)" d="M438.1895 321.0605L512.0439 321.0605" stroke="#000000" stroke-width="0.7017334" fill="none" /><path id="693" transform="matrix(1 0 0 -1 0 612)" d="M316.125 307.9707L504.3632 307.9707" stroke="#000000" stroke-width="0.7017334" fill="none" /><path id="710" transform="matrix(1 0 0 -1 0 612)" d="M316.125 293.2168L395.8693 293.2168" stroke="#000000" stroke-width="0.7017334" fill="none" /><path id="712" transform="matrix(1 0 0 -1 0 612)" d="M395.8693 293.2939L406.592 293.2939" stroke="#000000" stroke-width="0.7855225" fill="none" /><path id="774" transform="matrix(1 0 0 -1 0 612)" d="M316.125 276.3066L537.6985 276.3066" stroke="#000000" stroke-width="0.7017334" fill="none" /><path id="812" transform="matrix(1 0 0 -1 0 612)" d="M316.125 263.2168L489.8394 263.2168" stroke="#000000" stroke-width="0.7017334" fill="none" /><path id="867" transform="matrix(1 0 0 -1 0 612)" d="M316.125 246.3066L507.3784 246.3066" stroke="#000000" stroke-width="0.7017334" fill="none" /><path id="897" transform="matrix(1 0 0 -1 0 612)" d="M316.125 233.2168L465.0796 233.2168" stroke="#000000" stroke-width="0.7017334" fill="none" /><path id="958" transform="matrix(1 0 0 -1 0 612)" d="M316.125 216.3066L496.6772 216.3066" stroke="#000000" stroke-width="0.7017334" fill="none" /><path id="988" transform="matrix(1 0 0 -1 0 612)" d="M316.125 203.2168L465.7499 203.2168" stroke="#000000" stroke-width="0.7017334" fill="none" /><path id="1042" transform="matrix(1 0 0 -1 0 612)" d="M316.125 186.3066L511.3419 186.3066" stroke="#000000" stroke-width="0.7017334" fill="none" /><path id="1085" transform="matrix(1 0 0 -1 0 612)" d="M316.125 173.2168L513.1171 173.2168" stroke="#000000" stroke-width="0.7017334" fill="none" /><path id="1135" transform="matrix(1 0 0 -1 0 612)" d="M316.125 156.6445L516.337 156.6445" stroke="#000000" stroke-width="0.7017334" fill="none" /><path id="1172" transform="matrix(1 0 0 -1 0 612)" d="M316.125 143.5566L515.2062 143.5566" stroke="#000000" stroke-width="0.7017334" fill="none" /><path id="1191" transform="matrix(1 0 0 -1 0 612)" d="M316.125 130.4668L405.8434 130.4668" stroke="#000000" stroke-width="0.7017334" fill="none" /><path id="1247" transform="matrix(1 0 0 -1 0 612)" d="M316.125 113.6484L501.3055 113.6484" stroke="#000000" stroke-width="0.7017334" fill="none" /><path id="1282" transform="matrix(1 0 0 -1 0 612)" d="M316.125 100.5605L519.7347 100.5605" stroke="#000000" stroke-width="0.7017334" fill="none" /><path id="1316" transform="matrix(1 0 0 -1 0 612)" d="M316.125 87.4707L521.3941 87.4707" stroke="#000000" stroke-width="0.7017334" fill="none" /><path id="1322" transform="matrix(1 0 0 -1 0 612)" d="M316.125 72.7168L343.6172 72.7168" stroke="#000000" stroke-width="0.7017334" fill="none" /><path id="1324" transform="matrix(1 0 0 -1 0 612)" d="M343.6172 72.79395L354.3398 72.79395" stroke="#000000" stroke-width="0.7855225" fill="none" /></g></g></g></svg>