<svg xmlns="http://www.w3.org/2000/svg" xmlns:xlink="http://www.w3.org/1999/xlink" id="body_8" preserveAspectRatio="xMinYMin meet" viewBox="0 0 1056 816"><defs><clipPath id="1"><path id="" clip-rule="evenodd" transform="matrix(1 0 0 1 0 0)" d="M0 612L0 0L0 0L792 0L792 0L792 612L792 612L0 612z" /></clipPath><clipPath id="2"><path id="" clip-rule="evenodd" transform="matrix(1 0 0 1 0 0)" d="M205.125 52.5L586.875 52.5L586.875 52.5L586.875 69.75L586.875 69.75L205.125 69.75L205.125 69.75L205.125 52.5z" /></clipPath><clipPath id="3"><path id="" clip-rule="evenodd" transform="matrix(1 0 0 1 0 0)" d="M205.125 69L586.875 69L586.875 69L586.875 521.25L586.875 521.25L205.125 521.25L205.125 521.25L205.125 69z" /></clipPath></defs><g transform="matrix(1.333333 0 0 1.333333 0 0)"><g clip-path="url(#1)"><g clip-path="url(#2)"><path id="1" transform="matrix(1 0 0 -1 0 612)" d="M205.875 558.75L586.125 558.75L586.125 541.5L205.875 541.5L205.875 558.75z" stroke="none" fill="#4DD0E1" fill-rule="nonzero" /><path id="2" transform="matrix(1 0 0 -1 0 612)" d="M205.875 542.25L586.125 542.25L586.125 541.5L205.875 541.5zM205.875 558.75L586.125 558.75L586.125 558L205.875 558zM586.125 558L586.125 542.25L585.375 542.25L585.375 558zM544.125 558L544.125 542.25L543.375 542.25L543.375 558zM313.875 558L313.875 542.25L313.125 542.25L313.125 558zM251.625 558L251.625 542.25L250.875 542.25L250.875 558zM206.625 558L206.625 542.25L205.875 542.25L205.875 558z" stroke="none" fill="#000000" fill-rule="nonzero" fill-opacity="0.1490196" /></g><g clip-path="url(#3)"><path id="24" transform="matrix(1 0 0 -1 0 612)" d="M205.875 542.25L586.125 542.25L586.125 485.25L205.875 485.25L205.875 542.25z" stroke="none" fill="#E0F7FA" fill-rule="nonzero" /><path id="25" transform="matrix(1 0 0 -1 0 612)" d="M205.875 486L586.125 486L586.125 455.25L205.875 455.25L205.875 486z" stroke="none" fill="#FFFFFF" fill-rule="nonzero" /><path id="26" transform="matrix(1 0 0 -1 0 612)" d="M205.875 456L586.125 456L586.125 425.25L205.875 425.25L205.875 456z" stroke="none" fill="#E0F7FA" fill-rule="nonzero" /><path id="27" transform="matrix(1 0 0 -1 0 612)" d="M205.875 426L586.125 426L586.125 395.25L205.875 395.25L205.875 426z" stroke="none" fill="#FFFFFF" fill-rule="nonzero" /><path id="28" transform="matrix(1 0 0 -1 0 612)" d="M205.875 396L586.125 396L586.125 352.5L205.875 352.5L205.875 396z" stroke="none" fill="#E0F7FA" fill-rule="nonzero" /><path id="29" transform="matrix(1 0 0 -1 0 612)" d="M205.875 353.25L586.125 353.25L586.125 322.5L205.875 322.5L205.875 353.25z" stroke="none" fill="#FFFFFF" fill-rule="nonzero" /><path id="30" transform="matrix(1 0 0 -1 0 612)" d="M205.875 323.25L586.125 323.25L586.125 279.75L205.875 279.75L205.875 323.25z" stroke="none" fill="#E0F7FA" fill-rule="nonzero" /><path id="31" transform="matrix(1 0 0 -1 0 612)" d="M205.875 280.5L586.125 280.5L586.125 223.5L205.875 223.5L205.875 280.5z" stroke="none" fill="#FFFFFF" fill-rule="nonzero" /><path id="32" transform="matrix(1 0 0 -1 0 612)" d="M205.875 224.25L586.125 224.25L586.125 193.5L205.875 193.5L205.875 224.25z" stroke="none" fill="#E0F7FA" fill-rule="nonzero" /><path id="33" transform="matrix(1 0 0 -1 0 612)" d="M205.875 194.25L586.125 194.25L586.125 150.75L205.875 150.75L205.875 194.25z" stroke="none" fill="#FFFFFF" fill-rule="nonzero" /><path id="34" transform="matrix(1 0 0 -1 0 612)" d="M205.875 151.5L586.125 151.5L586.125 108L205.875 108L205.875 151.5z" stroke="none" fill="#E0F7FA" fill-rule="nonzero" /><path id="35" transform="matrix(1 0 0 -1 0 612)" d="M205.875 108.75L586.125 108.75L586.125 91.5L205.875 91.5L205.875 108.75z" stroke="none" fill="#FFFFFF" fill-rule="nonzero" /><path id="36" transform="matrix(1 0 0 -1 0 612)" d="M205.875 92.25L586.125 92.25L586.125 91.5L205.875 91.5zM205.875 108.75L586.125 108.75L586.125 108L205.875 108zM205.875 151.5L586.125 151.5L586.125 150.75L205.875 150.75zM205.875 194.25L586.125 194.25L586.125 193.5L205.875 193.5zM205.875 224.25L586.125 224.25L586.125 223.5L205.875 223.5zM205.875 280.5L586.125 280.5L586.125 279.75L205.875 279.75zM205.875 323.25L586.125 323.25L586.125 322.5L205.875 322.5zM205.875 353.25L586.125 353.25L586.125 352.5L205.875 352.5zM205.875 396L586.125 396L586.125 395.25L205.875 395.25zM205.875 426L586.125 426L586.125 425.25L205.875 425.25zM205.875 456L586.125 456L586.125 455.25L205.875 455.25zM205.875 486L586.125 486L586.125 485.25L205.875 485.25zM205.875 542.25L586.125 542.25L586.125 541.5L205.875 541.5zM586.125 108L586.125 92.25L585.375 92.25L585.375 108zM586.125 150.75L586.125 108.75L585.375 108.75L585.375 150.75zM586.125 193.5L586.125 151.5L585.375 151.5L585.375 193.5zM586.125 223.5L586.125 194.25L585.375 194.25L585.375 223.5zM586.125 279.75L586.125 224.25L585.375 224.25L585.375 279.75zM586.125 322.5L586.125 280.5L585.375 280.5L585.375 322.5zM586.125 352.5L586.125 323.25L585.375 323.25L585.375 352.5zM586.125 395.25L586.125 353.25L585.375 353.25L585.375 395.25zM586.125 425.25L586.125 396L585.375 396L585.375 425.25zM586.125 455.25L586.125 426L585.375 426L585.375 455.25zM586.125 485.25L586.125 456L585.375 456L585.375 485.25zM586.125 541.5L586.125 486L585.375 486L585.375 541.5zM544.125 108L544.125 92.25L543.375 92.25L543.375 108zM544.125 150.75L544.125 108.75L543.375 108.75L543.375 150.75zM544.125 193.5L544.125 151.5L543.375 151.5L543.375 193.5zM544.125 223.5L544.125 194.25L543.375 194.25L543.375 223.5zM544.125 279.75L544.125 224.25L543.375 224.25L543.375 279.75zM544.125 322.5L544.125 280.5L543.375 280.5L543.375 322.5zM544.125 352.5L544.125 323.25L543.375 323.25L543.375 352.5zM544.125 395.25L544.125 353.25L543.375 353.25L543.375 395.25zM544.125 425.25L544.125 396L543.375 396L543.375 425.25zM544.125 455.25L544.125 426L543.375 426L543.375 455.25zM544.125 485.25L544.125 456L543.375 456L543.375 485.25zM544.125 541.5L544.125 486L543.375 486L543.375 541.5zM313.875 108L313.875 92.25L313.125 92.25L313.125 108zM313.875 150.75L313.875 108.75L313.125 108.75L313.125 150.75zM313.875 193.5L313.875 151.5L313.125 151.5L313.125 193.5zM313.875 223.5L313.875 194.25L313.125 194.25L313.125 223.5zM313.875 279.75L313.875 224.25L313.125 224.25L313.125 279.75zM313.875 322.5L313.875 280.5L313.125 280.5L313.125 322.5zM313.875 352.5L313.875 323.25L313.125 323.25L313.125 352.5zM313.875 395.25L313.875 353.25L313.125 353.25L313.125 395.25zM313.875 425.25L313.875 396L313.125 396L313.125 425.25zM313.875 455.25L313.875 426L313.125 426L313.125 455.25zM313.875 485.25L313.875 456L313.125 456L313.125 485.25zM313.875 541.5L313.875 486L313.125 486L313.125 541.5zM251.625 108L251.625 92.25L250.875 92.25L250.875 108zM251.625 150.75L251.625 108.75L250.875 108.75L250.875 150.75zM251.625 193.5L251.625 151.5L250.875 151.5L250.875 193.5zM251.625 223.5L251.625 194.25L250.875 194.25L250.875 223.5zM251.625 279.75L251.625 224.25L250.875 224.25L250.875 279.75zM251.625 322.5L251.625 280.5L250.875 280.5L250.875 322.5zM251.625 352.5L251.625 323.25L250.875 323.25L250.875 352.5zM251.625 395.25L251.625 353.25L250.875 353.25L250.875 395.25zM251.625 425.25L251.625 396L250.875 396L250.875 425.25zM251.625 455.25L251.625 426L250.875 426L250.875 455.25zM251.625 485.25L251.625 456L250.875 456L250.875 485.25zM251.625 541.5L251.625 486L250.875 486L250.875 541.5zM206.625 108L206.625 92.25L205.875 92.25L205.875 108zM206.625 150.75L206.625 108.75L205.875 108.75L205.875 150.75zM206.625 193.5L206.625 151.5L205.875 151.5L205.875 193.5zM206.625 223.5L206.625 194.25L205.875 194.25L205.875 223.5zM206.625 279.75L206.625 224.25L205.875 224.25L205.875 279.75zM206.625 322.5L206.625 280.5L205.875 280.5L205.875 322.5zM206.625 352.5L206.625 323.25L205.875 323.25L205.875 352.5zM206.625 395.25L206.625 353.25L205.875 353.25L205.875 395.25zM206.625 425.25L206.625 396L205.875 396L205.875 425.25zM206.625 455.25L206.625 426L205.875 426L205.875 455.25zM206.625 485.25L206.625 456L205.875 456L205.875 485.25zM206.625 541.5L206.625 486L205.875 486L205.875 541.5z" stroke="none" fill="#000000" fill-rule="nonzero" fill-opacity="0.1490196" /><path id="87" transform="matrix(1 0 0 -1 0 612)" d="M316.125 528.2334L500.8133 528.2334" stroke="#000000" stroke-width="0.7017334" fill="none" /><path id="134" transform="matrix(1 0 0 -1 0 612)" d="M316.125 515.1438L525.269 515.1438" stroke="#000000" stroke-width="0.7017334" fill="none" /><path id="176" transform="matrix(1 0 0 -1 0 612)" d="M316.125 502.0547L523.3947 502.0547" stroke="#000000" stroke-width="0.7017334" fill="none" /><path id="190" transform="matrix(1 0 0 -1 0 612)" d="M316.125 488.9656L371.9582 488.9656" stroke="#000000" stroke-width="0.7017334" fill="none" /><path id="247" transform="matrix(1 0 0 -1 0 612)" d="M316.125 472.0547L525.9968 472.0547" stroke="#000000" stroke-width="0.7017334" fill="none" /><path id="290" transform="matrix(1 0 0 -1 0 612)" d="M316.125 458.9656L506.5778 458.9656" stroke="#000000" stroke-width="0.7017334" fill="none" /><path id="337" transform="matrix(1 0 0 -1 0 612)" d="M316.125 442.0547L518.578 442.0547" stroke="#000000" stroke-width="0.7017334" fill="none" /><path id="360" transform="matrix(1 0 0 -1 0 612)" d="M316.125 428.9656L414.6132 428.9656" stroke="#000000" stroke-width="0.7017334" fill="none" /><path id="417" transform="matrix(1 0 0 -1 0 612)" d="M316.125 412.0547L531.2272 412.0547" stroke="#000000" stroke-width="0.7017334" fill="none" /><path id="430" transform="matrix(1 0 0 -1 0 612)" d="M316.125 398.9656L379.3613 398.9656" stroke="#000000" stroke-width="0.7017334" fill="none" /><path id="506" transform="matrix(1 0 0 -1 0 612)" d="M316.125 382.3938L527.3266 382.3938" stroke="#000000" stroke-width="0.7017334" fill="none" /><path id="551" transform="matrix(1 0 0 -1 0 612)" d="M316.125 369.3047L523.9602 369.3047" stroke="#000000" stroke-width="0.7017334" fill="none" /><path id="568" transform="matrix(1 0 0 -1 0 612)" d="M316.125 356.2156L395.6234 356.2156" stroke="#000000" stroke-width="0.7017334" fill="none" /><path id="624" transform="matrix(1 0 0 -1 0 612)" d="M316.125 339.3047L532.5939 339.3047" stroke="#000000" stroke-width="0.7017334" fill="none" /><path id="650" transform="matrix(1 0 0 -1 0 612)" d="M316.125 326.2156L429.849 326.2156" stroke="#000000" stroke-width="0.7017334" fill="none" /><path id="724" transform="matrix(1 0 0 -1 0 612)" d="M316.125 296.5547L540.0023 296.5547" stroke="#000000" stroke-width="0.7017334" fill="none" /><path id="731" transform="matrix(1 0 0 -1 0 612)" d="M316.125 283.4656L343.5652 283.4656" stroke="#000000" stroke-width="0.7017334" fill="none" /><path id="782" transform="matrix(1 0 0 -1 0 612)" d="M316.125 266.4834L519.1068 266.4834" stroke="#000000" stroke-width="0.7017334" fill="none" /><path id="819" transform="matrix(1 0 0 -1 0 612)" d="M316.125 253.3938L500.0069 253.3938" stroke="#000000" stroke-width="0.7017334" fill="none" /><path id="864" transform="matrix(1 0 0 -1 0 612)" d="M316.125 240.3047L536.0074 240.3047" stroke="#000000" stroke-width="0.7017334" fill="none" /><path id="882" transform="matrix(1 0 0 -1 0 612)" d="M316.125 227.2156L405.7545 227.2156" stroke="#000000" stroke-width="0.7017334" fill="none" /><path id="938" transform="matrix(1 0 0 -1 0 612)" d="M316.125 210.3047L527.777 210.3047" stroke="#000000" stroke-width="0.7017334" fill="none" /><path id="971" transform="matrix(1 0 0 -1 0 612)" d="M316.125 197.2156L464.4829 197.2156" stroke="#000000" stroke-width="0.7017334" fill="none" /><path id="1031" transform="matrix(1 0 0 -1 0 612)" d="M316.125 180.6438L526.0231 180.6438" stroke="#000000" stroke-width="0.7017334" fill="none" /><path id="1075" transform="matrix(1 0 0 -1 0 612)" d="M316.125 167.5547L531.7666 167.5547" stroke="#000000" stroke-width="0.7017334" fill="none" /><path id="1110" transform="matrix(1 0 0 -1 0 612)" d="M316.125 154.4656L490.0382 154.4656" stroke="#000000" stroke-width="0.7017334" fill="none" /><path id="1185" transform="matrix(1 0 0 -1 0 612)" d="M316.125 124.8047L516.4314 124.8047" stroke="#000000" stroke-width="0.7017334" fill="none" /><path id="1222" transform="matrix(1 0 0 -1 0 612)" d="M316.125 111.7156L501.4729 111.7156" stroke="#000000" stroke-width="0.7017334" fill="none" /><path id="1276" transform="matrix(1 0 0 -1 0 612)" d="M316.125 95.21558L500.0908 95.21558" stroke="#000000" stroke-width="0.7017334" fill="none" /></g></g></g></svg>