<svg xmlns="http://www.w3.org/2000/svg" xmlns:xlink="http://www.w3.org/1999/xlink" id="body_31" preserveAspectRatio="xMinYMin meet" viewBox="0 0 1056 816"><defs><clipPath id="1"><path id="" clip-rule="evenodd" transform="matrix(1 0 0 1 0 0)" d="M0 612L0 0L0 0L792 0L792 0L792 612L792 612L0 612z" /></clipPath><clipPath id="2"><path id="" clip-rule="evenodd" transform="matrix(1 0 0 1 0 0)" d="M205.125 52.5L586.875 52.5L586.875 52.5L586.875 69.75L586.875 69.75L205.125 69.75L205.125 69.75L205.125 52.5z" /></clipPath><clipPath id="3"><path id="" clip-rule="evenodd" transform="matrix(1 0 0 1 0 0)" d="M205.125 69L586.875 69L586.875 69L586.875 520.5L586.875 520.5L205.125 520.5L205.125 520.5L205.125 69z" /></clipPath></defs><g transform="matrix(1.333333 0 0 1.333333 0 0)"><g clip-path="url(#1)"><g clip-path="url(#2)"><path id="1" transform="matrix(1 0 0 -1 0 612)" d="M205.875 558.75L586.125 558.75L586.125 541.5L205.875 541.5L205.875 558.75z" stroke="none" fill="#4DD0E1" fill-rule="nonzero" /><path id="2" transform="matrix(1 0 0 -1 0 612)" d="M205.875 542.25L586.125 542.25L586.125 541.5L205.875 541.5zM205.875 558.75L586.125 558.75L586.125 558L205.875 558zM586.125 558L586.125 542.25L585.375 542.25L585.375 558zM544.125 558L544.125 542.25L543.375 542.25L543.375 558zM313.875 558L313.875 542.25L313.125 542.25L313.125 558zM251.625 558L251.625 542.25L250.875 542.25L250.875 558zM206.625 558L206.625 542.25L205.875 542.25L205.875 558z" stroke="none" fill="#000000" fill-rule="nonzero" fill-opacity="0.1490196" /></g><g clip-path="url(#3)"><path id="24" transform="matrix(1 0 0 -1 0 612)" d="M205.875 542.25L586.125 542.25L586.125 498.75L205.875 498.75L205.875 542.25z" stroke="none" fill="#E0F7FA" fill-rule="nonzero" /><path id="25" transform="matrix(1 0 0 -1 0 612)" d="M205.875 499.5L586.125 499.5L586.125 456L205.875 456L205.875 499.5z" stroke="none" fill="#FFFFFF" fill-rule="nonzero" /><path id="26" transform="matrix(1 0 0 -1 0 612)" d="M205.875 456.75L586.125 456.75L586.125 413.25L205.875 413.25L205.875 456.75z" stroke="none" fill="#E0F7FA" fill-rule="nonzero" /><path id="27" transform="matrix(1 0 0 -1 0 612)" d="M205.875 414L586.125 414L586.125 383.25L205.875 383.25L205.875 414z" stroke="none" fill="#FFFFFF" fill-rule="nonzero" /><path id="28" transform="matrix(1 0 0 -1 0 612)" d="M205.875 384L586.125 384L586.125 340.5L205.875 340.5L205.875 384z" stroke="none" fill="#E0F7FA" fill-rule="nonzero" /><path id="29" transform="matrix(1 0 0 -1 0 612)" d="M205.875 341.25L586.125 341.25L586.125 310.5L205.875 310.5L205.875 341.25z" stroke="none" fill="#FFFFFF" fill-rule="nonzero" /><path id="30" transform="matrix(1 0 0 -1 0 612)" d="M205.875 311.25L586.125 311.25L586.125 280.5L205.875 280.5L205.875 311.25z" stroke="none" fill="#E0F7FA" fill-rule="nonzero" /><path id="31" transform="matrix(1 0 0 -1 0 612)" d="M205.875 281.25L586.125 281.25L586.125 237.75L205.875 237.75L205.875 281.25z" stroke="none" fill="#FFFFFF" fill-rule="nonzero" /><path id="32" transform="matrix(1 0 0 -1 0 612)" d="M205.875 238.5L586.125 238.5L586.125 195L205.875 195L205.875 238.5z" stroke="none" fill="#E0F7FA" fill-rule="nonzero" /><path id="33" transform="matrix(1 0 0 -1 0 612)" d="M205.875 195.75L586.125 195.75L586.125 165L205.875 165L205.875 195.75z" stroke="none" fill="#FFFFFF" fill-rule="nonzero" /><path id="34" transform="matrix(1 0 0 -1 0 612)" d="M205.875 165.75L586.125 165.75L586.125 122.25L205.875 122.25L205.875 165.75z" stroke="none" fill="#E0F7FA" fill-rule="nonzero" /><path id="35" transform="matrix(1 0 0 -1 0 612)" d="M205.875 123L586.125 123L586.125 92.25L205.875 92.25L205.875 123z" stroke="none" fill="#FFFFFF" fill-rule="nonzero" /><path id="36" transform="matrix(1 0 0 -1 0 612)" d="M205.875 93L586.125 93L586.125 92.25L205.875 92.25zM205.875 123L586.125 123L586.125 122.25L205.875 122.25zM205.875 165.75L586.125 165.75L586.125 165L205.875 165zM205.875 195.75L586.125 195.75L586.125 195L205.875 195zM205.875 238.5L586.125 238.5L586.125 237.75L205.875 237.75zM205.875 281.25L586.125 281.25L586.125 280.5L205.875 280.5zM205.875 311.25L586.125 311.25L586.125 310.5L205.875 310.5zM205.875 341.25L586.125 341.25L586.125 340.5L205.875 340.5zM205.875 384L586.125 384L586.125 383.25L205.875 383.25zM205.875 414L586.125 414L586.125 413.25L205.875 413.25zM205.875 456.75L586.125 456.75L586.125 456L205.875 456zM205.875 499.5L586.125 499.5L586.125 498.75L205.875 498.75zM205.875 542.25L586.125 542.25L586.125 541.5L205.875 541.5zM586.125 122.25L586.125 93L585.375 93L585.375 122.25zM586.125 165L586.125 123L585.375 123L585.375 165zM586.125 195L586.125 165.75L585.375 165.75L585.375 195zM586.125 237.75L586.125 195.75L585.375 195.75L585.375 237.75zM586.125 280.5L586.125 238.5L585.375 238.5L585.375 280.5zM586.125 310.5L586.125 281.25L585.375 281.25L585.375 310.5zM586.125 340.5L586.125 311.25L585.375 311.25L585.375 340.5zM586.125 383.25L586.125 341.25L585.375 341.25L585.375 383.25zM586.125 413.25L586.125 384L585.375 384L585.375 413.25zM586.125 456L586.125 414L585.375 414L585.375 456zM586.125 498.75L586.125 456.75L585.375 456.75L585.375 498.75zM586.125 541.5L586.125 499.5L585.375 499.5L585.375 541.5zM544.125 122.25L544.125 93L543.375 93L543.375 122.25zM544.125 165L544.125 123L543.375 123L543.375 165zM544.125 195L544.125 165.75L543.375 165.75L543.375 195zM544.125 237.75L544.125 195.75L543.375 195.75L543.375 237.75zM544.125 280.5L544.125 238.5L543.375 238.5L543.375 280.5zM544.125 310.5L544.125 281.25L543.375 281.25L543.375 310.5zM544.125 340.5L544.125 311.25L543.375 311.25L543.375 340.5zM544.125 383.25L544.125 341.25L543.375 341.25L543.375 383.25zM544.125 413.25L544.125 384L543.375 384L543.375 413.25zM544.125 456L544.125 414L543.375 414L543.375 456zM544.125 498.75L544.125 456.75L543.375 456.75L543.375 498.75zM544.125 541.5L544.125 499.5L543.375 499.5L543.375 541.5zM313.875 122.25L313.875 93L313.125 93L313.125 122.25zM313.875 165L313.875 123L313.125 123L313.125 165zM313.875 195L313.875 165.75L313.125 165.75L313.125 195zM313.875 237.75L313.875 195.75L313.125 195.75L313.125 237.75zM313.875 280.5L313.875 238.5L313.125 238.5L313.125 280.5zM313.875 310.5L313.875 281.25L313.125 281.25L313.125 310.5zM313.875 340.5L313.875 311.25L313.125 311.25L313.125 340.5zM313.875 383.25L313.875 341.25L313.125 341.25L313.125 383.25zM313.875 413.25L313.875 384L313.125 384L313.125 413.25zM313.875 456L313.875 414L313.125 414L313.125 456zM313.875 498.75L313.875 456.75L313.125 456.75L313.125 498.75zM313.875 541.5L313.875 499.5L313.125 499.5L313.125 541.5zM251.625 122.25L251.625 93L250.875 93L250.875 122.25zM251.625 165L251.625 123L250.875 123L250.875 165zM251.625 195L251.625 165.75L250.875 165.75L250.875 195zM251.625 237.75L251.625 195.75L250.875 195.75L250.875 237.75zM251.625 280.5L251.625 238.5L250.875 238.5L250.875 280.5zM251.625 310.5L251.625 281.25L250.875 281.25L250.875 310.5zM251.625 340.5L251.625 311.25L250.875 311.25L250.875 340.5zM251.625 383.25L251.625 341.25L250.875 341.25L250.875 383.25zM251.625 413.25L251.625 384L250.875 384L250.875 413.25zM251.625 456L251.625 414L250.875 414L250.875 456zM251.625 498.75L251.625 456.75L250.875 456.75L250.875 498.75zM251.625 541.5L251.625 499.5L250.875 499.5L250.875 541.5zM206.625 122.25L206.625 93L205.875 93L205.875 122.25zM206.625 165L206.625 123L205.875 123L205.875 165zM206.625 195L206.625 165.75L205.875 165.75L205.875 195zM206.625 237.75L206.625 195.75L205.875 195.75L205.875 237.75zM206.625 280.5L206.625 238.5L205.875 238.5L205.875 280.5zM206.625 310.5L206.625 281.25L205.875 281.25L205.875 310.5zM206.625 340.5L206.625 311.25L205.875 311.25L205.875 340.5zM206.625 383.25L206.625 341.25L205.875 341.25L205.875 383.25zM206.625 413.25L206.625 384L205.875 384L205.875 413.25zM206.625 456L206.625 414L205.875 414L205.875 456zM206.625 498.75L206.625 456.75L205.875 456.75L205.875 498.75zM206.625 541.5L206.625 499.5L205.875 499.5L205.875 541.5z" stroke="none" fill="#000000" fill-rule="nonzero" fill-opacity="0.1490196" /><path id="84" transform="matrix(1 0 0 -1 0 612)" d="M316.125 528.6445L518.8867 528.6445" stroke="#000000" stroke-width="0.7017334" fill="none" /><path id="124" transform="matrix(1 0 0 -1 0 612)" d="M316.125 515.5566L521.8031 515.5566" stroke="#000000" stroke-width="0.7017334" fill="none" /><path id="149" transform="matrix(1 0 0 -1 0 612)" d="M316.125 502.4668L436.1632 502.4668" stroke="#000000" stroke-width="0.7017334" fill="none" /><path id="212" transform="matrix(1 0 0 -1 0 612)" d="M316.125 472.8066L525.4208 472.8066" stroke="#000000" stroke-width="0.7017334" fill="none" /><path id="240" transform="matrix(1 0 0 -1 0 612)" d="M316.125 459.7168L472.0637 459.7168" stroke="#000000" stroke-width="0.7017334" fill="none" /><path id="296" transform="matrix(1 0 0 -1 0 612)" d="M316.125 443.1445L521.7454 443.1445" stroke="#000000" stroke-width="0.7017334" fill="none" /><path id="339" transform="matrix(1 0 0 -1 0 612)" d="M316.125 430.0566L514.7926 430.0566" stroke="#000000" stroke-width="0.7017334" fill="none" /><path id="359" transform="matrix(1 0 0 -1 0 612)" d="M316.125 416.9668L409.2466 416.9668" stroke="#000000" stroke-width="0.7017334" fill="none" /><path id="414" transform="matrix(1 0 0 -1 0 612)" d="M316.125 400.0566L516.8083 400.0566" stroke="#000000" stroke-width="0.7017334" fill="none" /><path id="444" transform="matrix(1 0 0 -1 0 612)" d="M316.125 386.9668L462.9593 386.9668" stroke="#000000" stroke-width="0.7017334" fill="none" /><path id="516" transform="matrix(1 0 0 -1 0 612)" d="M316.125 357.3066L516.3055 357.3066" stroke="#000000" stroke-width="0.7017334" fill="none" /><path id="539" transform="matrix(1 0 0 -1 0 612)" d="M316.125 344.2168L423.6918 344.2168" stroke="#000000" stroke-width="0.7017334" fill="none" /><path id="595" transform="matrix(1 0 0 -1 0 612)" d="M316.125 327.3066L529.421 327.3066" stroke="#000000" stroke-width="0.7017334" fill="none" /><path id="626" transform="matrix(1 0 0 -1 0 612)" d="M316.125 314.2168L459.5196 314.2168" stroke="#000000" stroke-width="0.7017334" fill="none" /><path id="681" transform="matrix(1 0 0 -1 0 612)" d="M316.125 297.3066L540.9391 297.3066" stroke="#000000" stroke-width="0.7017334" fill="none" /><path id="711" transform="matrix(1 0 0 -1 0 612)" d="M316.125 284.2168L484.1953 284.2168" stroke="#000000" stroke-width="0.7017334" fill="none" /><path id="759" transform="matrix(1 0 0 -1 0 612)" d="M316.125 267.6445L518.0229 267.6445" stroke="#000000" stroke-width="0.7017334" fill="none" /><path id="796" transform="matrix(1 0 0 -1 0 612)" d="M316.125 254.5566L522.9183 254.5566" stroke="#000000" stroke-width="0.7017334" fill="none" /><path id="832" transform="matrix(1 0 0 -1 0 612)" d="M316.125 241.4668L499.9174 241.4668" stroke="#000000" stroke-width="0.7017334" fill="none" /><path id="885" transform="matrix(1 0 0 -1 0 612)" d="M316.125 224.8945L520.5989 224.8945" stroke="#000000" stroke-width="0.7017334" fill="none" /><path id="923" transform="matrix(1 0 0 -1 0 612)" d="M316.125 211.8066L496.0959 211.8066" stroke="#000000" stroke-width="0.7017334" fill="none" /><path id="952" transform="matrix(1 0 0 -1 0 612)" d="M316.125 198.7168L460.7814 198.7168" stroke="#000000" stroke-width="0.7017334" fill="none" /><path id="1003" transform="matrix(1 0 0 -1 0 612)" d="M316.125 181.8066L516.5308 181.8066" stroke="#000000" stroke-width="0.7017334" fill="none" /><path id="1049" transform="matrix(1 0 0 -1 0 612)" d="M316.125 168.7168L534.2274 168.7168" stroke="#000000" stroke-width="0.7017334" fill="none" /><path id="1112" transform="matrix(1 0 0 -1 0 612)" d="M316.125 152.1445L533.3948 152.1445" stroke="#000000" stroke-width="0.7017334" fill="none" /><path id="1157" transform="matrix(1 0 0 -1 0 612)" d="M316.125 139.0566L540.9028 139.0566" stroke="#000000" stroke-width="0.7017334" fill="none" /><path id="1186" transform="matrix(1 0 0 -1 0 612)" d="M316.125 125.9668L460.9438 125.9668" stroke="#000000" stroke-width="0.7017334" fill="none" /><path id="1239" transform="matrix(1 0 0 -1 0 612)" d="M316.125 109.0566L516.3108 109.0566" stroke="#000000" stroke-width="0.7017334" fill="none" /><path id="1287" transform="matrix(1 0 0 -1 0 612)" d="M316.125 95.9668L535.2798 95.9668" stroke="#000000" stroke-width="0.7017334" fill="none" /></g></g></g></svg>