<svg xmlns="http://www.w3.org/2000/svg" xmlns:xlink="http://www.w3.org/1999/xlink" id="body_17" preserveAspectRatio="xMinYMin meet" viewBox="0 0 1056 816"><defs><clipPath id="1"><path id="" clip-rule="evenodd" transform="matrix(1 0 0 1 0 0)" d="M0 612L0 0L0 0L792 0L792 0L792 612L792 612L0 612z" /></clipPath><clipPath id="2"><path id="" clip-rule="evenodd" transform="matrix(1 0 0 1 0 0)" d="M205.125 52.5L586.875 52.5L586.875 52.5L586.875 69.75L586.875 69.75L205.125 69.75L205.125 69.75L205.125 52.5z" /></clipPath><clipPath id="3"><path id="" clip-rule="evenodd" transform="matrix(1 0 0 1 0 0)" d="M205.125 69L586.875 69L586.875 69L586.875 555.75L586.875 555.75L205.125 555.75L205.125 555.75L205.125 69z" /></clipPath></defs><g transform="matrix(1.333333 0 0 1.333333 0 0)"><g clip-path="url(#1)"><g clip-path="url(#2)"><path id="1" transform="matrix(1 0 0 -1 0 612)" d="M205.875 558.75L586.125 558.75L586.125 541.5L205.875 541.5L205.875 558.75z" stroke="none" fill="#4DD0E1" fill-rule="nonzero" /><path id="2" transform="matrix(1 0 0 -1 0 612)" d="M205.875 542.25L586.125 542.25L586.125 541.5L205.875 541.5zM205.875 558.75L586.125 558.75L586.125 558L205.875 558zM586.125 558L586.125 542.25L585.375 542.25L585.375 558zM544.125 558L544.125 542.25L543.375 542.25L543.375 558zM313.875 558L313.875 542.25L313.125 542.25L313.125 558zM251.625 558L251.625 542.25L250.875 542.25L250.875 558zM206.625 558L206.625 542.25L205.875 542.25L205.875 558z" stroke="none" fill="#000000" fill-rule="nonzero" fill-opacity="0.1490196" /></g><g clip-path="url(#3)"><path id="24" transform="matrix(1 0 0 -1 0 612)" d="M205.875 542.25L586.125 542.25L586.125 498.75L205.875 498.75L205.875 542.25z" stroke="none" fill="#E0F7FA" fill-rule="nonzero" /><path id="25" transform="matrix(1 0 0 -1 0 612)" d="M205.875 499.5L586.125 499.5L586.125 468.75L205.875 468.75L205.875 499.5z" stroke="none" fill="#FFFFFF" fill-rule="nonzero" /><path id="26" transform="matrix(1 0 0 -1 0 612)" d="M205.875 469.5L586.125 469.5L586.125 426L205.875 426L205.875 469.5z" stroke="none" fill="#E0F7FA" fill-rule="nonzero" /><path id="27" transform="matrix(1 0 0 -1 0 612)" d="M205.875 426.75L586.125 426.75L586.125 396L205.875 396L205.875 426.75z" stroke="none" fill="#FFFFFF" fill-rule="nonzero" /><path id="28" transform="matrix(1 0 0 -1 0 612)" d="M205.875 396.75L586.125 396.75L586.125 366L205.875 366L205.875 396.75z" stroke="none" fill="#E0F7FA" fill-rule="nonzero" /><path id="29" transform="matrix(1 0 0 -1 0 612)" d="M205.875 366.75L586.125 366.75L586.125 349.5L205.875 349.5L205.875 366.75z" stroke="none" fill="#FFFFFF" fill-rule="nonzero" /><path id="30" transform="matrix(1 0 0 -1 0 612)" d="M205.875 350.25L586.125 350.25L586.125 319.5L205.875 319.5L205.875 350.25z" stroke="none" fill="#E0F7FA" fill-rule="nonzero" /><path id="31" transform="matrix(1 0 0 -1 0 612)" d="M205.875 320.25L586.125 320.25L586.125 303L205.875 303L205.875 320.25z" stroke="none" fill="#FFFFFF" fill-rule="nonzero" /><path id="32" transform="matrix(1 0 0 -1 0 612)" d="M205.875 303.75L586.125 303.75L586.125 273L205.875 273L205.875 303.75z" stroke="none" fill="#E0F7FA" fill-rule="nonzero" /><path id="33" transform="matrix(1 0 0 -1 0 612)" d="M205.875 273.75L586.125 273.75L586.125 215.25L205.875 215.25L205.875 273.75z" stroke="none" fill="#FFFFFF" fill-rule="nonzero" /><path id="34" transform="matrix(1 0 0 -1 0 612)" d="M205.875 216L586.125 216L586.125 172.5L205.875 172.5L205.875 216z" stroke="none" fill="#E0F7FA" fill-rule="nonzero" /><path id="35" transform="matrix(1 0 0 -1 0 612)" d="M205.875 173.25L586.125 173.25L586.125 129.75L205.875 129.75L205.875 173.25z" stroke="none" fill="#FFFFFF" fill-rule="nonzero" /><path id="36" transform="matrix(1 0 0 -1 0 612)" d="M205.875 130.5L586.125 130.5L586.125 99.75L205.875 99.75L205.875 130.5z" stroke="none" fill="#E0F7FA" fill-rule="nonzero" /><path id="37" transform="matrix(1 0 0 -1 0 612)" d="M205.875 100.5L586.125 100.5L586.125 57L205.875 57L205.875 100.5z" stroke="none" fill="#FFFFFF" fill-rule="nonzero" /><path id="38" transform="matrix(1 0 0 -1 0 612)" d="M205.875 57.75L586.125 57.75L586.125 57L205.875 57zM205.875 100.5L586.125 100.5L586.125 99.75L205.875 99.75zM205.875 130.5L586.125 130.5L586.125 129.75L205.875 129.75zM205.875 173.25L586.125 173.25L586.125 172.5L205.875 172.5zM205.875 216L586.125 216L586.125 215.25L205.875 215.25zM205.875 273.75L586.125 273.75L586.125 273L205.875 273zM205.875 303.75L586.125 303.75L586.125 303L205.875 303zM205.875 320.25L586.125 320.25L586.125 319.5L205.875 319.5zM205.875 350.25L586.125 350.25L586.125 349.5L205.875 349.5zM205.875 366.75L586.125 366.75L586.125 366L205.875 366zM205.875 396.75L586.125 396.75L586.125 396L205.875 396zM205.875 426.75L586.125 426.75L586.125 426L205.875 426zM205.875 469.5L586.125 469.5L586.125 468.75L205.875 468.75zM205.875 499.5L586.125 499.5L586.125 498.75L205.875 498.75zM205.875 542.25L586.125 542.25L586.125 541.5L205.875 541.5zM586.125 99.75L586.125 57.75L585.375 57.75L585.375 99.75zM586.125 129.75L586.125 100.5L585.375 100.5L585.375 129.75zM586.125 172.5L586.125 130.5L585.375 130.5L585.375 172.5zM586.125 215.25L586.125 173.25L585.375 173.25L585.375 215.25zM586.125 273L586.125 216L585.375 216L585.375 273zM586.125 303L586.125 273.75L585.375 273.75L585.375 303zM586.125 319.5L586.125 303.75L585.375 303.75L585.375 319.5zM586.125 349.5L586.125 320.25L585.375 320.25L585.375 349.5zM586.125 366L586.125 350.25L585.375 350.25L585.375 366zM586.125 396L586.125 366.75L585.375 366.75L585.375 396zM586.125 426L586.125 396.75L585.375 396.75L585.375 426zM586.125 468.75L586.125 426.75L585.375 426.75L585.375 468.75zM586.125 498.75L586.125 469.5L585.375 469.5L585.375 498.75zM586.125 541.5L586.125 499.5L585.375 499.5L585.375 541.5zM544.125 99.75L544.125 57.75L543.375 57.75L543.375 99.75zM544.125 129.75L544.125 100.5L543.375 100.5L543.375 129.75zM544.125 172.5L544.125 130.5L543.375 130.5L543.375 172.5zM544.125 215.25L544.125 173.25L543.375 173.25L543.375 215.25zM544.125 273L544.125 216L543.375 216L543.375 273zM544.125 303L544.125 273.75L543.375 273.75L543.375 303zM544.125 319.5L544.125 303.75L543.375 303.75L543.375 319.5zM544.125 349.5L544.125 320.25L543.375 320.25L543.375 349.5zM544.125 366L544.125 350.25L543.375 350.25L543.375 366zM544.125 396L544.125 366.75L543.375 366.75L543.375 396zM544.125 426L544.125 396.75L543.375 396.75L543.375 426zM544.125 468.75L544.125 426.75L543.375 426.75L543.375 468.75zM544.125 498.75L544.125 469.5L543.375 469.5L543.375 498.75zM544.125 541.5L544.125 499.5L543.375 499.5L543.375 541.5zM313.875 99.75L313.875 57.75L313.125 57.75L313.125 99.75zM313.875 129.75L313.875 100.5L313.125 100.5L313.125 129.75zM313.875 172.5L313.875 130.5L313.125 130.5L313.125 172.5zM313.875 215.25L313.875 173.25L313.125 173.25L313.125 215.25zM313.875 273L313.875 216L313.125 216L313.125 273zM313.875 303L313.875 273.75L313.125 273.75L313.125 303zM313.875 319.5L313.875 303.75L313.125 303.75L313.125 319.5zM313.875 349.5L313.875 320.25L313.125 320.25L313.125 349.5zM313.875 366L313.875 350.25L313.125 350.25L313.125 366zM313.875 396L313.875 366.75L313.125 366.75L313.125 396zM313.875 426L313.875 396.75L313.125 396.75L313.125 426zM313.875 468.75L313.875 426.75L313.125 426.75L313.125 468.75zM313.875 498.75L313.875 469.5L313.125 469.5L313.125 498.75zM313.875 541.5L313.875 499.5L313.125 499.5L313.125 541.5zM251.625 99.75L251.625 57.75L250.875 57.75L250.875 99.75zM251.625 129.75L251.625 100.5L250.875 100.5L250.875 129.75zM251.625 172.5L251.625 130.5L250.875 130.5L250.875 172.5zM251.625 215.25L251.625 173.25L250.875 173.25L250.875 215.25zM251.625 273L251.625 216L250.875 216L250.875 273zM251.625 303L251.625 273.75L250.875 273.75L250.875 303zM251.625 319.5L251.625 303.75L250.875 303.75L250.875 319.5zM251.625 349.5L251.625 320.25L250.875 320.25L250.875 349.5zM251.625 366L251.625 350.25L250.875 350.25L250.875 366zM251.625 396L251.625 366.75L250.875 366.75L250.875 396zM251.625 426L251.625 396.75L250.875 396.75L250.875 426zM251.625 468.75L251.625 426.75L250.875 426.75L250.875 468.75zM251.625 498.75L251.625 469.5L250.875 469.5L250.875 498.75zM251.625 541.5L251.625 499.5L250.875 499.5L250.875 541.5zM206.625 99.75L206.625 57.75L205.875 57.75L205.875 99.75zM206.625 129.75L206.625 100.5L205.875 100.5L205.875 129.75zM206.625 172.5L206.625 130.5L205.875 130.5L205.875 172.5zM206.625 215.25L206.625 173.25L205.875 173.25L205.875 215.25zM206.625 273L206.625 216L205.875 216L205.875 273zM206.625 303L206.625 273.75L205.875 273.75L205.875 303zM206.625 319.5L206.625 303.75L205.875 303.75L205.875 319.5zM206.625 349.5L206.625 320.25L205.875 320.25L205.875 349.5zM206.625 366L206.625 350.25L205.875 350.25L205.875 366zM206.625 396L206.625 366.75L205.875 366.75L205.875 396zM206.625 426L206.625 396.75L205.875 396.75L205.875 426zM206.625 468.75L206.625 426.75L205.875 426.75L205.875 468.75zM206.625 498.75L206.625 469.5L205.875 469.5L205.875 498.75zM206.625 541.5L206.625 499.5L205.875 499.5L205.875 541.5z" stroke="none" fill="#000000" fill-rule="nonzero" fill-opacity="0.1490196" /><path id="101" transform="matrix(1 0 0 -1 0 612)" d="M316.125 502.4658L493.9965 502.4658" stroke="#000000" stroke-width="0.7017334" fill="none" /><path id="156" transform="matrix(1 0 0 -1 0 612)" d="M316.125 485.5547L522.3268 485.5547" stroke="#000000" stroke-width="0.7017334" fill="none" /><path id="183" transform="matrix(1 0 0 -1 0 612)" d="M316.125 472.4658L450.7131 472.4658" stroke="#000000" stroke-width="0.7017334" fill="none" /><path id="237" transform="matrix(1 0 0 -1 0 612)" d="M316.125 455.8936L526.6407 455.8936" stroke="#000000" stroke-width="0.7017334" fill="none" /><path id="272" transform="matrix(1 0 0 -1 0 612)" d="M316.125 442.8047L480.0591 442.8047" stroke="#000000" stroke-width="0.7017334" fill="none" /><path id="291" transform="matrix(1 0 0 -1 0 612)" d="M316.125 429.7158L405.6236 429.7158" stroke="#000000" stroke-width="0.7017334" fill="none" /><path id="352" transform="matrix(1 0 0 -1 0 612)" d="M316.125 412.8047L537.4474 412.8047" stroke="#000000" stroke-width="0.7017334" fill="none" /><path id="392" transform="matrix(1 0 0 -1 0 612)" d="M316.125 399.7158L505.7034 399.7158" stroke="#000000" stroke-width="0.7017334" fill="none" /><path id="452" transform="matrix(1 0 0 -1 0 612)" d="M316.125 382.8047L520.3109 382.8047" stroke="#000000" stroke-width="0.7017334" fill="none" /><path id="472" transform="matrix(1 0 0 -1 0 612)" d="M316.125 369.7158L413.8384 369.7158" stroke="#000000" stroke-width="0.7017334" fill="none" /><path id="522" transform="matrix(1 0 0 -1 0 612)" d="M316.125 353.2158L511.5831 353.2158" stroke="#000000" stroke-width="0.7017334" fill="none" /><path id="578" transform="matrix(1 0 0 -1 0 612)" d="M316.125 336.3047L522.5884 336.3047" stroke="#000000" stroke-width="0.7017334" fill="none" /><path id="621" transform="matrix(1 0 0 -1 0 612)" d="M316.125 323.2158L527.1906 323.2158" stroke="#000000" stroke-width="0.7017334" fill="none" /><path id="656" transform="matrix(1 0 0 -1 0 612)" d="M316.125 306.7158L403.7806 306.7158" stroke="#000000" stroke-width="0.7017334" fill="none" /><path id="712" transform="matrix(1 0 0 -1 0 612)" d="M316.125 289.8047L525.5205 289.8047" stroke="#000000" stroke-width="0.7017334" fill="none" /><path id="726" transform="matrix(1 0 0 -1 0 612)" d="M316.125 276.7158L378.042 276.7158" stroke="#000000" stroke-width="0.7017334" fill="none" /><path id="777" transform="matrix(1 0 0 -1 0 612)" d="M316.125 259.8975L515.6823 259.8975" stroke="#000000" stroke-width="0.7017334" fill="none" /><path id="818" transform="matrix(1 0 0 -1 0 612)" d="M316.125 246.8086L517.2585 246.8086" stroke="#000000" stroke-width="0.7017334" fill="none" /><path id="866" transform="matrix(1 0 0 -1 0 612)" d="M316.125 233.7197L542.2799 233.7197" stroke="#000000" stroke-width="0.7017334" fill="none" /><path id="883" transform="matrix(1 0 0 -1 0 612)" d="M316.125 218.9658L393.3198 218.9658" stroke="#000000" stroke-width="0.7017334" fill="none" /><path id="885" transform="matrix(1 0 0 -1 0 612)" d="M393.3198 219.0439L404.0424 219.0439" stroke="#000000" stroke-width="0.7855225" fill="none" /><path id="945" transform="matrix(1 0 0 -1 0 612)" d="M316.125 202.3936L542.0757 202.3936" stroke="#000000" stroke-width="0.7017334" fill="none" /><path id="982" transform="matrix(1 0 0 -1 0 612)" d="M316.125 189.3047L487.0435 189.3047" stroke="#000000" stroke-width="0.7017334" fill="none" /><path id="996" transform="matrix(1 0 0 -1 0 612)" d="M316.125 176.2158L377.885 176.2158" stroke="#000000" stroke-width="0.7017334" fill="none" /><path id="1055" transform="matrix(1 0 0 -1 0 612)" d="M316.125 159.6436L535.1172 159.6436" stroke="#000000" stroke-width="0.7017334" fill="none" /><path id="1095" transform="matrix(1 0 0 -1 0 612)" d="M316.125 146.5547L521.2325 146.5547" stroke="#000000" stroke-width="0.7017334" fill="none" /><path id="1101" transform="matrix(1 0 0 -1 0 612)" d="M316.125 133.4658L341.1149 133.4658" stroke="#000000" stroke-width="0.7017334" fill="none" /><path id="1156" transform="matrix(1 0 0 -1 0 612)" d="M316.125 116.5547L525.7299 116.5547" stroke="#000000" stroke-width="0.7017334" fill="none" /><path id="1170" transform="matrix(1 0 0 -1 0 612)" d="M316.125 103.4658L375.7488 103.4658" stroke="#000000" stroke-width="0.7017334" fill="none" /><path id="1230" transform="matrix(1 0 0 -1 0 612)" d="M316.125 86.89355L535.929 86.89355" stroke="#000000" stroke-width="0.7017334" fill="none" /><path id="1268" transform="matrix(1 0 0 -1 0 612)" d="M316.125 73.80469L499.8916 73.80469" stroke="#000000" stroke-width="0.7017334" fill="none" /><path id="1277" transform="matrix(1 0 0 -1 0 612)" d="M316.125 60.71582L356.869 60.71582" stroke="#000000" stroke-width="0.7017334" fill="none" /></g></g></g></svg>