<svg xmlns="http://www.w3.org/2000/svg" xmlns:xlink="http://www.w3.org/1999/xlink" id="body_28" preserveAspectRatio="xMinYMin meet" viewBox="0 0 1056 816"><defs><clipPath id="1"><path id="" clip-rule="evenodd" transform="matrix(1 0 0 1 0 0)" d="M0 612L0 0L0 0L792 0L792 0L792 612L792 612L0 612z" /></clipPath><clipPath id="2"><path id="" clip-rule="evenodd" transform="matrix(1 0 0 1 0 0)" d="M205.125 52.5L586.875 52.5L586.875 52.5L586.875 69.75L586.875 69.75L205.125 69.75L205.125 69.75L205.125 52.5z" /></clipPath><clipPath id="3"><path id="" clip-rule="evenodd" transform="matrix(1 0 0 1 0 0)" d="M205.125 69L586.875 69L586.875 69L586.875 552.75L586.875 552.75L205.125 552.75L205.125 552.75L205.125 69z" /></clipPath></defs><g transform="matrix(1.333333 0 0 1.333333 0 0)"><g clip-path="url(#1)"><g clip-path="url(#2)"><path id="1" transform="matrix(1 0 0 -1 0 612)" d="M205.875 558.75L586.125 558.75L586.125 541.5L205.875 541.5L205.875 558.75z" stroke="none" fill="#4DD0E1" fill-rule="nonzero" /><path id="2" transform="matrix(1 0 0 -1 0 612)" d="M205.875 542.25L586.125 542.25L586.125 541.5L205.875 541.5zM205.875 558.75L586.125 558.75L586.125 558L205.875 558zM586.125 558L586.125 542.25L585.375 542.25L585.375 558zM544.125 558L544.125 542.25L543.375 542.25L543.375 558zM313.875 558L313.875 542.25L313.125 542.25L313.125 558zM251.625 558L251.625 542.25L250.875 542.25L250.875 558zM206.625 558L206.625 542.25L205.875 542.25L205.875 558z" stroke="none" fill="#000000" fill-rule="nonzero" fill-opacity="0.1490196" /></g><g clip-path="url(#3)"><path id="24" transform="matrix(1 0 0 -1 0 612)" d="M205.875 542.25L586.125 542.25L586.125 511.5L205.875 511.5L205.875 542.25z" stroke="none" fill="#E0F7FA" fill-rule="nonzero" /><path id="25" transform="matrix(1 0 0 -1 0 612)" d="M205.875 512.25L586.125 512.25L586.125 468.75L205.875 468.75L205.875 512.25z" stroke="none" fill="#FFFFFF" fill-rule="nonzero" /><path id="26" transform="matrix(1 0 0 -1 0 612)" d="M205.875 469.5L586.125 469.5L586.125 438.75L205.875 438.75L205.875 469.5z" stroke="none" fill="#E0F7FA" fill-rule="nonzero" /><path id="27" transform="matrix(1 0 0 -1 0 612)" d="M205.875 439.5L586.125 439.5L586.125 396L205.875 396L205.875 439.5z" stroke="none" fill="#FFFFFF" fill-rule="nonzero" /><path id="28" transform="matrix(1 0 0 -1 0 612)" d="M205.875 396.75L586.125 396.75L586.125 338.25L205.875 338.25L205.875 396.75z" stroke="none" fill="#E0F7FA" fill-rule="nonzero" /><path id="29" transform="matrix(1 0 0 -1 0 612)" d="M205.875 339L586.125 339L586.125 308.25L205.875 308.25L205.875 339z" stroke="none" fill="#FFFFFF" fill-rule="nonzero" /><path id="30" transform="matrix(1 0 0 -1 0 612)" d="M205.875 309L586.125 309L586.125 265.5L205.875 265.5L205.875 309z" stroke="none" fill="#E0F7FA" fill-rule="nonzero" /><path id="31" transform="matrix(1 0 0 -1 0 612)" d="M205.875 266.25L586.125 266.25L586.125 209.25L205.875 209.25L205.875 266.25z" stroke="none" fill="#FFFFFF" fill-rule="nonzero" /><path id="32" transform="matrix(1 0 0 -1 0 612)" d="M205.875 210L586.125 210L586.125 192.75L205.875 192.75L205.875 210z" stroke="none" fill="#E0F7FA" fill-rule="nonzero" /><path id="33" transform="matrix(1 0 0 -1 0 612)" d="M205.875 193.5L586.125 193.5L586.125 162.75L205.875 162.75L205.875 193.5z" stroke="none" fill="#FFFFFF" fill-rule="nonzero" /><path id="34" transform="matrix(1 0 0 -1 0 612)" d="M205.875 163.5L586.125 163.5L586.125 106.5L205.875 106.5L205.875 163.5z" stroke="none" fill="#E0F7FA" fill-rule="nonzero" /><path id="35" transform="matrix(1 0 0 -1 0 612)" d="M205.875 107.25L586.125 107.25L586.125 76.5L205.875 76.5L205.875 107.25z" stroke="none" fill="#FFFFFF" fill-rule="nonzero" /><path id="36" transform="matrix(1 0 0 -1 0 612)" d="M205.875 77.25L586.125 77.25L586.125 60L205.875 60L205.875 77.25z" stroke="none" fill="#E0F7FA" fill-rule="nonzero" /><path id="37" transform="matrix(1 0 0 -1 0 612)" d="M205.875 60.75L586.125 60.75L586.125 60L205.875 60zM205.875 77.25L586.125 77.25L586.125 76.5L205.875 76.5zM205.875 107.25L586.125 107.25L586.125 106.5L205.875 106.5zM205.875 163.5L586.125 163.5L586.125 162.75L205.875 162.75zM205.875 193.5L586.125 193.5L586.125 192.75L205.875 192.75zM205.875 210L586.125 210L586.125 209.25L205.875 209.25zM205.875 266.25L586.125 266.25L586.125 265.5L205.875 265.5zM205.875 309L586.125 309L586.125 308.25L205.875 308.25zM205.875 339L586.125 339L586.125 338.25L205.875 338.25zM205.875 396.75L586.125 396.75L586.125 396L205.875 396zM205.875 439.5L586.125 439.5L586.125 438.75L205.875 438.75zM205.875 469.5L586.125 469.5L586.125 468.75L205.875 468.75zM205.875 512.25L586.125 512.25L586.125 511.5L205.875 511.5zM205.875 542.25L586.125 542.25L586.125 541.5L205.875 541.5zM586.125 76.5L586.125 60.75L585.375 60.75L585.375 76.5zM586.125 106.5L586.125 77.25L585.375 77.25L585.375 106.5zM586.125 162.75L586.125 107.25L585.375 107.25L585.375 162.75zM586.125 192.75L586.125 163.5L585.375 163.5L585.375 192.75zM586.125 209.25L586.125 193.5L585.375 193.5L585.375 209.25zM586.125 265.5L586.125 210L585.375 210L585.375 265.5zM586.125 308.25L586.125 266.25L585.375 266.25L585.375 308.25zM586.125 338.25L586.125 309L585.375 309L585.375 338.25zM586.125 396L586.125 339L585.375 339L585.375 396zM586.125 438.75L586.125 396.75L585.375 396.75L585.375 438.75zM586.125 468.75L586.125 439.5L585.375 439.5L585.375 468.75zM586.125 511.5L586.125 469.5L585.375 469.5L585.375 511.5zM586.125 541.5L586.125 512.25L585.375 512.25L585.375 541.5zM544.125 76.5L544.125 60.75L543.375 60.75L543.375 76.5zM544.125 106.5L544.125 77.25L543.375 77.25L543.375 106.5zM544.125 162.75L544.125 107.25L543.375 107.25L543.375 162.75zM544.125 192.75L544.125 163.5L543.375 163.5L543.375 192.75zM544.125 209.25L544.125 193.5L543.375 193.5L543.375 209.25zM544.125 265.5L544.125 210L543.375 210L543.375 265.5zM544.125 308.25L544.125 266.25L543.375 266.25L543.375 308.25zM544.125 338.25L544.125 309L543.375 309L543.375 338.25zM544.125 396L544.125 339L543.375 339L543.375 396zM544.125 438.75L544.125 396.75L543.375 396.75L543.375 438.75zM544.125 468.75L544.125 439.5L543.375 439.5L543.375 468.75zM544.125 511.5L544.125 469.5L543.375 469.5L543.375 511.5zM544.125 541.5L544.125 512.25L543.375 512.25L543.375 541.5zM313.875 76.5L313.875 60.75L313.125 60.75L313.125 76.5zM313.875 106.5L313.875 77.25L313.125 77.25L313.125 106.5zM313.875 162.75L313.875 107.25L313.125 107.25L313.125 162.75zM313.875 192.75L313.875 163.5L313.125 163.5L313.125 192.75zM313.875 209.25L313.875 193.5L313.125 193.5L313.125 209.25zM313.875 265.5L313.875 210L313.125 210L313.125 265.5zM313.875 308.25L313.875 266.25L313.125 266.25L313.125 308.25zM313.875 338.25L313.875 309L313.125 309L313.125 338.25zM313.875 396L313.875 339L313.125 339L313.125 396zM313.875 438.75L313.875 396.75L313.125 396.75L313.125 438.75zM313.875 468.75L313.875 439.5L313.125 439.5L313.125 468.75zM313.875 511.5L313.875 469.5L313.125 469.5L313.125 511.5zM313.875 541.5L313.875 512.25L313.125 512.25L313.125 541.5zM251.625 76.5L251.625 60.75L250.875 60.75L250.875 76.5zM251.625 106.5L251.625 77.25L250.875 77.25L250.875 106.5zM251.625 162.75L251.625 107.25L250.875 107.25L250.875 162.75zM251.625 192.75L251.625 163.5L250.875 163.5L250.875 192.75zM251.625 209.25L251.625 193.5L250.875 193.5L250.875 209.25zM251.625 265.5L251.625 210L250.875 210L250.875 265.5zM251.625 308.25L251.625 266.25L250.875 266.25L250.875 308.25zM251.625 338.25L251.625 309L250.875 309L250.875 338.25zM251.625 396L251.625 339L250.875 339L250.875 396zM251.625 438.75L251.625 396.75L250.875 396.75L250.875 438.75zM251.625 468.75L251.625 439.5L250.875 439.5L250.875 468.75zM251.625 511.5L251.625 469.5L250.875 469.5L250.875 511.5zM251.625 541.5L251.625 512.25L250.875 512.25L250.875 541.5zM206.625 76.5L206.625 60.75L205.875 60.75L205.875 76.5zM206.625 106.5L206.625 77.25L205.875 77.25L205.875 106.5zM206.625 162.75L206.625 107.25L205.875 107.25L205.875 162.75zM206.625 192.75L206.625 163.5L205.875 163.5L205.875 192.75zM206.625 209.25L206.625 193.5L205.875 193.5L205.875 209.25zM206.625 265.5L206.625 210L205.875 210L205.875 265.5zM206.625 308.25L206.625 266.25L205.875 266.25L205.875 308.25zM206.625 338.25L206.625 309L205.875 309L205.875 338.25zM206.625 396L206.625 339L205.875 339L205.875 396zM206.625 438.75L206.625 396.75L205.875 396.75L205.875 438.75zM206.625 468.75L206.625 439.5L205.875 439.5L205.875 468.75zM206.625 511.5L206.625 469.5L205.875 469.5L205.875 511.5zM206.625 541.5L206.625 512.25L205.875 512.25L205.875 541.5z" stroke="none" fill="#000000" fill-rule="nonzero" fill-opacity="0.1490196" /><path id="89" transform="matrix(1 0 0 -1 0 612)" d="M316.125 515.2168L452.6609 515.2168" stroke="#000000" stroke-width="0.7017334" fill="none" /><path id="145" transform="matrix(1 0 0 -1 0 612)" d="M316.125 498.6445L526.7614 498.6445" stroke="#000000" stroke-width="0.7017334" fill="none" /><path id="184" transform="matrix(1 0 0 -1 0 612)" d="M316.125 485.5566L516.7086 485.5566" stroke="#000000" stroke-width="0.7017334" fill="none" /><path id="203" transform="matrix(1 0 0 -1 0 612)" d="M316.125 472.4668L399.6549 472.4668" stroke="#000000" stroke-width="0.7017334" fill="none" /><path id="257" transform="matrix(1 0 0 -1 0 612)" d="M316.125 455.5566L507.2478 455.5566" stroke="#000000" stroke-width="0.7017334" fill="none" /><path id="295" transform="matrix(1 0 0 -1 0 612)" d="M316.125 442.4668L500.74 442.4668" stroke="#000000" stroke-width="0.7017334" fill="none" /><path id="340" transform="matrix(1 0 0 -1 0 612)" d="M316.125 425.8945L493.1379 425.8945" stroke="#000000" stroke-width="0.7017334" fill="none" /><path id="379" transform="matrix(1 0 0 -1 0 612)" d="M316.125 412.8066L541.4628 412.8066" stroke="#000000" stroke-width="0.7017334" fill="none" /><path id="395" transform="matrix(1 0 0 -1 0 612)" d="M316.125 399.7168L407.0058 399.7168" stroke="#000000" stroke-width="0.7017334" fill="none" /><path id="455" transform="matrix(1 0 0 -1 0 612)" d="M316.125 382.8984L542.1646 382.8984" stroke="#000000" stroke-width="0.7017334" fill="none" /><path id="495" transform="matrix(1 0 0 -1 0 612)" d="M316.125 369.8105L515.6984 369.8105" stroke="#000000" stroke-width="0.7017334" fill="none" /><path id="536" transform="matrix(1 0 0 -1 0 612)" d="M316.125 356.7207L521.2428 356.7207" stroke="#000000" stroke-width="0.7017334" fill="none" /><path id="552" transform="matrix(1 0 0 -1 0 612)" d="M316.125 341.9668L392.2778 341.9668" stroke="#000000" stroke-width="0.7017334" fill="none" /><path id="554" transform="matrix(1 0 0 -1 0 612)" d="M392.2778 342.0439L403.0004 342.0439" stroke="#000000" stroke-width="0.7855225" fill="none" /><path id="604" transform="matrix(1 0 0 -1 0 612)" d="M316.125 325.0566L509.4364 325.0566" stroke="#000000" stroke-width="0.7017334" fill="none" /><path id="617" transform="matrix(1 0 0 -1 0 612)" d="M316.125 311.9668L367.445 311.9668" stroke="#000000" stroke-width="0.7017334" fill="none" /><path id="669" transform="matrix(1 0 0 -1 0 612)" d="M316.125 295.3945L534.8505 295.3945" stroke="#000000" stroke-width="0.7017334" fill="none" /><path id="706" transform="matrix(1 0 0 -1 0 612)" d="M316.125 282.3066L527.2064 282.3066" stroke="#000000" stroke-width="0.7017334" fill="none" /><path id="714" transform="matrix(1 0 0 -1 0 612)" d="M316.125 269.2168L360.9162 269.2168" stroke="#000000" stroke-width="0.7017334" fill="none" /><path id="789" transform="matrix(1 0 0 -1 0 612)" d="M316.125 252.2344L487.9807 252.2344" stroke="#000000" stroke-width="0.7017334" fill="none" /><path id="838" transform="matrix(1 0 0 -1 0 612)" d="M316.125 239.1445L534.9337 239.1445" stroke="#000000" stroke-width="0.7017334" fill="none" /><path id="881" transform="matrix(1 0 0 -1 0 612)" d="M316.125 226.0566L521.5568 226.0566" stroke="#000000" stroke-width="0.7017334" fill="none" /><path id="891" transform="matrix(1 0 0 -1 0 612)" d="M316.125 212.9668L358.5078 212.9668" stroke="#000000" stroke-width="0.7017334" fill="none" /><path id="951" transform="matrix(1 0 0 -1 0 612)" d="M316.125 196.4668L537.4631 196.4668" stroke="#000000" stroke-width="0.7017334" fill="none" /><path id="1016" transform="matrix(1 0 0 -1 0 612)" d="M316.125 179.5566L533.0756 179.5566" stroke="#000000" stroke-width="0.7017334" fill="none" /><path id="1047" transform="matrix(1 0 0 -1 0 612)" d="M316.125 166.4668L476.012 166.4668" stroke="#000000" stroke-width="0.7017334" fill="none" /><path id="1125" transform="matrix(1 0 0 -1 0 612)" d="M316.125 136.3945L537.7091 136.3945" stroke="#000000" stroke-width="0.7017334" fill="none" /><path id="1167" transform="matrix(1 0 0 -1 0 612)" d="M316.125 123.3066L525.2848 123.3066" stroke="#000000" stroke-width="0.7017334" fill="none" /><path id="1194" transform="matrix(1 0 0 -1 0 612)" d="M316.125 110.2168L446.4043 110.2168" stroke="#000000" stroke-width="0.7017334" fill="none" /><path id="1248" transform="matrix(1 0 0 -1 0 612)" d="M316.125 93.30664L524.8817 93.30664" stroke="#000000" stroke-width="0.7017334" fill="none" /><path id="1280" transform="matrix(1 0 0 -1 0 612)" d="M316.125 80.2168L476.0486 80.2168" stroke="#000000" stroke-width="0.7017334" fill="none" /><path id="1341" transform="matrix(1 0 0 -1 0 612)" d="M316.125 63.7168L537.2798 63.7168" stroke="#000000" stroke-width="0.7017334" fill="none" /></g></g></g></svg>