<svg xmlns="http://www.w3.org/2000/svg" xmlns:xlink="http://www.w3.org/1999/xlink" id="body_30" preserveAspectRatio="xMinYMin meet" viewBox="0 0 1056 816"><defs><clipPath id="1"><path id="" clip-rule="evenodd" transform="matrix(1 0 0 1 0 0)" d="M0 612L0 0L0 0L792 0L792 0L792 612L792 612L0 612z" /></clipPath><clipPath id="2"><path id="" clip-rule="evenodd" transform="matrix(1 0 0 1 0 0)" d="M205.125 52.5L586.875 52.5L586.875 52.5L586.875 69.75L586.875 69.75L205.125 69.75L205.125 69.75L205.125 52.5z" /></clipPath><clipPath id="3"><path id="" clip-rule="evenodd" transform="matrix(1 0 0 1 0 0)" d="M205.125 69L586.875 69L586.875 69L586.875 545.25L586.875 545.25L205.125 545.25L205.125 545.25L205.125 69z" /></clipPath></defs><g transform="matrix(1.333333 0 0 1.333333 0 0)"><g clip-path="url(#1)"><g clip-path="url(#2)"><path id="1" transform="matrix(1 0 0 -1 0 612)" d="M205.875 558.75L586.125 558.75L586.125 541.5L205.875 541.5L205.875 558.75z" stroke="none" fill="#4DD0E1" fill-rule="nonzero" /><path id="2" transform="matrix(1 0 0 -1 0 612)" d="M205.875 542.25L586.125 542.25L586.125 541.5L205.875 541.5zM205.875 558.75L586.125 558.75L586.125 558L205.875 558zM586.125 558L586.125 542.25L585.375 542.25L585.375 558zM544.125 558L544.125 542.25L543.375 542.25L543.375 558zM313.875 558L313.875 542.25L313.125 542.25L313.125 558zM251.625 558L251.625 542.25L250.875 542.25L250.875 558zM206.625 558L206.625 542.25L205.875 542.25L205.875 558z" stroke="none" fill="#000000" fill-rule="nonzero" fill-opacity="0.1490196" /></g><g clip-path="url(#3)"><path id="24" transform="matrix(1 0 0 -1 0 612)" d="M205.875 542.25L586.125 542.25L586.125 511.5L205.875 511.5L205.875 542.25z" stroke="none" fill="#E0F7FA" fill-rule="nonzero" /><path id="25" transform="matrix(1 0 0 -1 0 612)" d="M205.875 512.25L586.125 512.25L586.125 481.5L205.875 481.5L205.875 512.25z" stroke="none" fill="#FFFFFF" fill-rule="nonzero" /><path id="26" transform="matrix(1 0 0 -1 0 612)" d="M205.875 482.25L586.125 482.25L586.125 438.75L205.875 438.75L205.875 482.25z" stroke="none" fill="#E0F7FA" fill-rule="nonzero" /><path id="27" transform="matrix(1 0 0 -1 0 612)" d="M205.875 439.5L586.125 439.5L586.125 381L205.875 381L205.875 439.5z" stroke="none" fill="#FFFFFF" fill-rule="nonzero" /><path id="28" transform="matrix(1 0 0 -1 0 612)" d="M205.875 381.75L586.125 381.75L586.125 336L205.875 336L205.875 381.75z" stroke="none" fill="#E0F7FA" fill-rule="nonzero" /><path id="29" transform="matrix(1 0 0 -1 0 612)" d="M205.875 336.75L586.125 336.75L586.125 306L205.875 306L205.875 336.75z" stroke="none" fill="#FFFFFF" fill-rule="nonzero" /><path id="30" transform="matrix(1 0 0 -1 0 612)" d="M205.875 306.75L586.125 306.75L586.125 276L205.875 276L205.875 306.75z" stroke="none" fill="#E0F7FA" fill-rule="nonzero" /><path id="31" transform="matrix(1 0 0 -1 0 612)" d="M205.875 276.75L586.125 276.75L586.125 246L205.875 246L205.875 276.75z" stroke="none" fill="#FFFFFF" fill-rule="nonzero" /><path id="32" transform="matrix(1 0 0 -1 0 612)" d="M205.875 246.75L586.125 246.75L586.125 216L205.875 216L205.875 246.75z" stroke="none" fill="#E0F7FA" fill-rule="nonzero" /><path id="33" transform="matrix(1 0 0 -1 0 612)" d="M205.875 216.75L586.125 216.75L586.125 173.25L205.875 173.25L205.875 216.75z" stroke="none" fill="#FFFFFF" fill-rule="nonzero" /><path id="34" transform="matrix(1 0 0 -1 0 612)" d="M205.875 174L586.125 174L586.125 130.5L205.875 130.5L205.875 174z" stroke="none" fill="#E0F7FA" fill-rule="nonzero" /><path id="35" transform="matrix(1 0 0 -1 0 612)" d="M205.875 131.25L586.125 131.25L586.125 100.5L205.875 100.5L205.875 131.25z" stroke="none" fill="#FFFFFF" fill-rule="nonzero" /><path id="36" transform="matrix(1 0 0 -1 0 612)" d="M205.875 101.25L586.125 101.25L586.125 84L205.875 84L205.875 101.25z" stroke="none" fill="#E0F7FA" fill-rule="nonzero" /><path id="37" transform="matrix(1 0 0 -1 0 612)" d="M205.875 84.75L586.125 84.75L586.125 67.5L205.875 67.5L205.875 84.75z" stroke="none" fill="#FFFFFF" fill-rule="nonzero" /><path id="38" transform="matrix(1 0 0 -1 0 612)" d="M205.875 68.25L586.125 68.25L586.125 67.5L205.875 67.5zM205.875 84.75L586.125 84.75L586.125 84L205.875 84zM205.875 101.25L586.125 101.25L586.125 100.5L205.875 100.5zM205.875 131.25L586.125 131.25L586.125 130.5L205.875 130.5zM205.875 174L586.125 174L586.125 173.25L205.875 173.25zM205.875 216.75L586.125 216.75L586.125 216L205.875 216zM205.875 246.75L586.125 246.75L586.125 246L205.875 246zM205.875 276.75L586.125 276.75L586.125 276L205.875 276zM205.875 306.75L586.125 306.75L586.125 306L205.875 306zM205.875 336.75L586.125 336.75L586.125 336L205.875 336zM205.875 381.75L586.125 381.75L586.125 381L205.875 381zM205.875 439.5L586.125 439.5L586.125 438.75L205.875 438.75zM205.875 482.25L586.125 482.25L586.125 481.5L205.875 481.5zM205.875 512.25L586.125 512.25L586.125 511.5L205.875 511.5zM205.875 542.25L586.125 542.25L586.125 541.5L205.875 541.5zM586.125 84L586.125 68.25L585.375 68.25L585.375 84zM586.125 100.5L586.125 84.75L585.375 84.75L585.375 100.5zM586.125 130.5L586.125 101.25L585.375 101.25L585.375 130.5zM586.125 173.25L586.125 131.25L585.375 131.25L585.375 173.25zM586.125 216L586.125 174L585.375 174L585.375 216zM586.125 246L586.125 216.75L585.375 216.75L585.375 246zM586.125 276L586.125 246.75L585.375 246.75L585.375 276zM586.125 306L586.125 276.75L585.375 276.75L585.375 306zM586.125 336L586.125 306.75L585.375 306.75L585.375 336zM586.125 381L586.125 336.75L585.375 336.75L585.375 381zM586.125 438.75L586.125 381.75L585.375 381.75L585.375 438.75zM586.125 481.5L586.125 439.5L585.375 439.5L585.375 481.5zM586.125 511.5L586.125 482.25L585.375 482.25L585.375 511.5zM586.125 541.5L586.125 512.25L585.375 512.25L585.375 541.5zM544.125 84L544.125 68.25L543.375 68.25L543.375 84zM544.125 100.5L544.125 84.75L543.375 84.75L543.375 100.5zM544.125 130.5L544.125 101.25L543.375 101.25L543.375 130.5zM544.125 173.25L544.125 131.25L543.375 131.25L543.375 173.25zM544.125 216L544.125 174L543.375 174L543.375 216zM544.125 246L544.125 216.75L543.375 216.75L543.375 246zM544.125 276L544.125 246.75L543.375 246.75L543.375 276zM544.125 306L544.125 276.75L543.375 276.75L543.375 306zM544.125 336L544.125 306.75L543.375 306.75L543.375 336zM544.125 381L544.125 336.75L543.375 336.75L543.375 381zM544.125 438.75L544.125 381.75L543.375 381.75L543.375 438.75zM544.125 481.5L544.125 439.5L543.375 439.5L543.375 481.5zM544.125 511.5L544.125 482.25L543.375 482.25L543.375 511.5zM544.125 541.5L544.125 512.25L543.375 512.25L543.375 541.5zM313.875 84L313.875 68.25L313.125 68.25L313.125 84zM313.875 100.5L313.875 84.75L313.125 84.75L313.125 100.5zM313.875 130.5L313.875 101.25L313.125 101.25L313.125 130.5zM313.875 173.25L313.875 131.25L313.125 131.25L313.125 173.25zM313.875 216L313.875 174L313.125 174L313.125 216zM313.875 246L313.875 216.75L313.125 216.75L313.125 246zM313.875 276L313.875 246.75L313.125 246.75L313.125 276zM313.875 306L313.875 276.75L313.125 276.75L313.125 306zM313.875 336L313.875 306.75L313.125 306.75L313.125 336zM313.875 381L313.875 336.75L313.125 336.75L313.125 381zM313.875 438.75L313.875 381.75L313.125 381.75L313.125 438.75zM313.875 481.5L313.875 439.5L313.125 439.5L313.125 481.5zM313.875 511.5L313.875 482.25L313.125 482.25L313.125 511.5zM313.875 541.5L313.875 512.25L313.125 512.25L313.125 541.5zM251.625 84L251.625 68.25L250.875 68.25L250.875 84zM251.625 100.5L251.625 84.75L250.875 84.75L250.875 100.5zM251.625 130.5L251.625 101.25L250.875 101.25L250.875 130.5zM251.625 173.25L251.625 131.25L250.875 131.25L250.875 173.25zM251.625 216L251.625 174L250.875 174L250.875 216zM251.625 246L251.625 216.75L250.875 216.75L250.875 246zM251.625 276L251.625 246.75L250.875 246.75L250.875 276zM251.625 306L251.625 276.75L250.875 276.75L250.875 306zM251.625 336L251.625 306.75L250.875 306.75L250.875 336zM251.625 381L251.625 336.75L250.875 336.75L250.875 381zM251.625 438.75L251.625 381.75L250.875 381.75L250.875 438.75zM251.625 481.5L251.625 439.5L250.875 439.5L250.875 481.5zM251.625 511.5L251.625 482.25L250.875 482.25L250.875 511.5zM251.625 541.5L251.625 512.25L250.875 512.25L250.875 541.5zM206.625 84L206.625 68.25L205.875 68.25L205.875 84zM206.625 100.5L206.625 84.75L205.875 84.75L205.875 100.5zM206.625 130.5L206.625 101.25L205.875 101.25L205.875 130.5zM206.625 173.25L206.625 131.25L205.875 131.25L205.875 173.25zM206.625 216L206.625 174L205.875 174L205.875 216zM206.625 246L206.625 216.75L205.875 216.75L205.875 246zM206.625 276L206.625 246.75L205.875 246.75L205.875 276zM206.625 306L206.625 276.75L205.875 276.75L205.875 306zM206.625 336L206.625 306.75L205.875 306.75L205.875 336zM206.625 381L206.625 336.75L205.875 336.75L205.875 381zM206.625 438.75L206.625 381.75L205.875 381.75L205.875 438.75zM206.625 481.5L206.625 439.5L205.875 439.5L205.875 481.5zM206.625 511.5L206.625 482.25L205.875 482.25L205.875 511.5zM206.625 541.5L206.625 512.25L205.875 512.25L205.875 541.5z" stroke="none" fill="#000000" fill-rule="nonzero" fill-opacity="0.1490196" /><path id="87" transform="matrix(1 0 0 -1 0 612)" d="M316.125 528.3066L514.5046 528.3066" stroke="#000000" stroke-width="0.7017334" fill="none" /><path id="103" transform="matrix(1 0 0 -1 0 612)" d="M316.125 515.2168L405.7859 515.2168" stroke="#000000" stroke-width="0.7017334" fill="none" /><path id="162" transform="matrix(1 0 0 -1 0 612)" d="M316.125 498.3066L535.4159 498.3066" stroke="#000000" stroke-width="0.7017334" fill="none" /><path id="207" transform="matrix(1 0 0 -1 0 612)" d="M316.125 485.2168L528.7717 485.2168" stroke="#000000" stroke-width="0.7017334" fill="none" /><path id="263" transform="matrix(1 0 0 -1 0 612)" d="M316.125 468.6445L535.3896 468.6445" stroke="#000000" stroke-width="0.7017334" fill="none" /><path id="304" transform="matrix(1 0 0 -1 0 612)" d="M316.125 455.5566L521.3634 455.5566" stroke="#000000" stroke-width="0.7017334" fill="none" /><path id="315" transform="matrix(1 0 0 -1 0 612)" d="M316.125 442.4668L363.9476 442.4668" stroke="#000000" stroke-width="0.7017334" fill="none" /><path id="369" transform="matrix(1 0 0 -1 0 612)" d="M316.125 425.6484L522.1221 425.6484" stroke="#000000" stroke-width="0.7017334" fill="none" /><path id="414" transform="matrix(1 0 0 -1 0 612)" d="M316.125 412.5605L524.5569 412.5605" stroke="#000000" stroke-width="0.7017334" fill="none" /><path id="460" transform="matrix(1 0 0 -1 0 612)" d="M316.125 399.4707L534.2587 399.4707" stroke="#000000" stroke-width="0.7017334" fill="none" /><path id="467" transform="matrix(1 0 0 -1 0 612)" d="M316.125 384.7168L349.9422 384.7168" stroke="#000000" stroke-width="0.7017334" fill="none" /><path id="469" transform="matrix(1 0 0 -1 0 612)" d="M349.9422 384.7939L360.6648 384.7939" stroke="#000000" stroke-width="0.7855225" fill="none" /><path id="540" transform="matrix(1 0 0 -1 0 612)" d="M316.125 365.8945L538.7562 365.8945" stroke="#000000" stroke-width="0.7017334" fill="none" /><path id="583" transform="matrix(1 0 0 -1 0 612)" d="M316.125 352.8066L523.0596 352.8066" stroke="#000000" stroke-width="0.7017334" fill="none" /><path id="610" transform="matrix(1 0 0 -1 0 612)" d="M316.125 339.7168L433.4092 339.7168" stroke="#000000" stroke-width="0.7017334" fill="none" /><path id="676" transform="matrix(1 0 0 -1 0 612)" d="M316.125 322.8066L531.7928 322.8066" stroke="#000000" stroke-width="0.7017334" fill="none" /><path id="686" transform="matrix(1 0 0 -1 0 612)" d="M316.125 309.7168L362.445 309.7168" stroke="#000000" stroke-width="0.7017334" fill="none" /><path id="742" transform="matrix(1 0 0 -1 0 612)" d="M316.125 292.8066L515.9388 292.8066" stroke="#000000" stroke-width="0.7017334" fill="none" /><path id="777" transform="matrix(1 0 0 -1 0 612)" d="M316.125 279.7168L499.0176 279.7168" stroke="#000000" stroke-width="0.7017334" fill="none" /><path id="825" transform="matrix(1 0 0 -1 0 612)" d="M316.125 262.8066L487.6298 262.8066" stroke="#000000" stroke-width="0.7017334" fill="none" /><path id="865" transform="matrix(1 0 0 -1 0 612)" d="M316.125 249.7168L509.5672 249.7168" stroke="#000000" stroke-width="0.7017334" fill="none" /><path id="926" transform="matrix(1 0 0 -1 0 612)" d="M316.125 232.8066L540.578 232.8066" stroke="#000000" stroke-width="0.7017334" fill="none" /><path id="958" transform="matrix(1 0 0 -1 0 612)" d="M316.125 219.7168L462.8757 219.7168" stroke="#000000" stroke-width="0.7017334" fill="none" /><path id="1003" transform="matrix(1 0 0 -1 0 612)" d="M316.125 203.1445L496.096 203.1445" stroke="#000000" stroke-width="0.7017334" fill="none" /><path id="1037" transform="matrix(1 0 0 -1 0 612)" d="M316.125 190.0566L507.9129 190.0566" stroke="#000000" stroke-width="0.7017334" fill="none" /><path id="1067" transform="matrix(1 0 0 -1 0 612)" d="M316.125 176.9668L495.8813 176.9668" stroke="#000000" stroke-width="0.7017334" fill="none" /><path id="1129" transform="matrix(1 0 0 -1 0 612)" d="M316.125 160.3945L542.1176 160.3945" stroke="#000000" stroke-width="0.7017334" fill="none" /><path id="1170" transform="matrix(1 0 0 -1 0 612)" d="M316.125 147.3066L516.4733 147.3066" stroke="#000000" stroke-width="0.7017334" fill="none" /><path id="1186" transform="matrix(1 0 0 -1 0 612)" d="M316.125 134.2168L388.3615 134.2168" stroke="#000000" stroke-width="0.7017334" fill="none" /><path id="1242" transform="matrix(1 0 0 -1 0 612)" d="M316.125 117.3066L535.2641 117.3066" stroke="#000000" stroke-width="0.7017334" fill="none" /><path id="1285" transform="matrix(1 0 0 -1 0 612)" d="M316.125 104.2168L517.782 104.2168" stroke="#000000" stroke-width="0.7017334" fill="none" /><path id="1329" transform="matrix(1 0 0 -1 0 612)" d="M316.125 87.7168L450.8546 87.7168" stroke="#000000" stroke-width="0.7017334" fill="none" /><path id="1382" transform="matrix(1 0 0 -1 0 612)" d="M316.125 71.2168L501.2165 71.2168" stroke="#000000" stroke-width="0.7017334" fill="none" /></g></g></g></svg>