<svg xmlns="http://www.w3.org/2000/svg" xmlns:xlink="http://www.w3.org/1999/xlink" id="body_2" preserveAspectRatio="xMinYMin meet" viewBox="0 0 1056 816"><defs><clipPath id="1"><path id="" clip-rule="evenodd" transform="matrix(1 0 0 1 0 0)" d="M0 612L0 0L0 0L792 0L792 0L792 612L792 612L0 612z" /></clipPath><clipPath id="2"><path id="" clip-rule="evenodd" transform="matrix(1 0 0 1 0 0)" d="M205.125 52.5L586.875 52.5L586.875 52.5L586.875 69.75L586.875 69.75L205.125 69.75L205.125 69.75L205.125 52.5z" /></clipPath><clipPath id="3"><path id="" clip-rule="evenodd" transform="matrix(1 0 0 1 0 0)" d="M205.125 69L586.875 69L586.875 69L586.875 544.5L586.875 544.5L205.125 544.5L205.125 544.5L205.125 69z" /></clipPath></defs><g transform="matrix(1.333333 0 0 1.333333 0 0)"><g clip-path="url(#1)"><g clip-path="url(#2)"><path id="1" transform="matrix(1 0 0 -1 0 612)" d="M205.875 558.75L586.125 558.75L586.125 541.5L205.875 541.5L205.875 558.75z" stroke="none" fill="#4DD0E1" fill-rule="nonzero" /><path id="2" transform="matrix(1 0 0 -1 0 612)" d="M205.875 542.25L586.125 542.25L586.125 541.5L205.875 541.5zM205.875 558.75L586.125 558.75L586.125 558L205.875 558zM586.125 558L586.125 542.25L585.375 542.25L585.375 558zM544.125 558L544.125 542.25L543.375 542.25L543.375 558zM313.875 558L313.875 542.25L313.125 542.25L313.125 558zM251.625 558L251.625 542.25L250.875 542.25L250.875 558zM206.625 558L206.625 542.25L205.875 542.25L205.875 558z" stroke="none" fill="#000000" fill-rule="nonzero" fill-opacity="0.1490196" /></g><g clip-path="url(#3)"><path id="24" transform="matrix(1 0 0 -1 0 612)" d="M205.875 542.25L586.125 542.25L586.125 483.75L205.875 483.75L205.875 542.25z" stroke="none" fill="#E0F7FA" fill-rule="nonzero" /><path id="25" transform="matrix(1 0 0 -1 0 612)" d="M205.875 484.5L586.125 484.5L586.125 441L205.875 441L205.875 484.5z" stroke="none" fill="#FFFFFF" fill-rule="nonzero" /><path id="26" transform="matrix(1 0 0 -1 0 612)" d="M205.875 441.75L586.125 441.75L586.125 411L205.875 411L205.875 441.75z" stroke="none" fill="#E0F7FA" fill-rule="nonzero" /><path id="27" transform="matrix(1 0 0 -1 0 612)" d="M205.875 411.75L586.125 411.75L586.125 368.25L205.875 368.25L205.875 411.75z" stroke="none" fill="#FFFFFF" fill-rule="nonzero" /><path id="28" transform="matrix(1 0 0 -1 0 612)" d="M205.875 369L586.125 369L586.125 325.5L205.875 325.5L205.875 369z" stroke="none" fill="#E0F7FA" fill-rule="nonzero" /><path id="29" transform="matrix(1 0 0 -1 0 612)" d="M205.875 326.25L586.125 326.25L586.125 309L205.875 309L205.875 326.25z" stroke="none" fill="#FFFFFF" fill-rule="nonzero" /><path id="30" transform="matrix(1 0 0 -1 0 612)" d="M205.875 309.75L586.125 309.75L586.125 266.25L205.875 266.25L205.875 309.75z" stroke="none" fill="#E0F7FA" fill-rule="nonzero" /><path id="31" transform="matrix(1 0 0 -1 0 612)" d="M205.875 267L586.125 267L586.125 236.25L205.875 236.25L205.875 267z" stroke="none" fill="#FFFFFF" fill-rule="nonzero" /><path id="32" transform="matrix(1 0 0 -1 0 612)" d="M205.875 237L586.125 237L586.125 219.75L205.875 219.75L205.875 237z" stroke="none" fill="#E0F7FA" fill-rule="nonzero" /><path id="33" transform="matrix(1 0 0 -1 0 612)" d="M205.875 220.5L586.125 220.5L586.125 189.75L205.875 189.75L205.875 220.5z" stroke="none" fill="#FFFFFF" fill-rule="nonzero" /><path id="34" transform="matrix(1 0 0 -1 0 612)" d="M205.875 190.5L586.125 190.5L586.125 159.75L205.875 159.75L205.875 190.5z" stroke="none" fill="#E0F7FA" fill-rule="nonzero" /><path id="35" transform="matrix(1 0 0 -1 0 612)" d="M205.875 160.5L586.125 160.5L586.125 129.75L205.875 129.75L205.875 160.5z" stroke="none" fill="#FFFFFF" fill-rule="nonzero" /><path id="36" transform="matrix(1 0 0 -1 0 612)" d="M205.875 130.5L586.125 130.5L586.125 98.25L205.875 98.25L205.875 130.5z" stroke="none" fill="#E0F7FA" fill-rule="nonzero" /><path id="37" transform="matrix(1 0 0 -1 0 612)" d="M205.875 99L586.125 99L586.125 68.25L205.875 68.25L205.875 99z" stroke="none" fill="#FFFFFF" fill-rule="nonzero" /><path id="38" transform="matrix(1 0 0 -1 0 612)" d="M205.875 69L586.125 69L586.125 68.25L205.875 68.25zM205.875 99L586.125 99L586.125 98.25L205.875 98.25zM205.875 130.5L586.125 130.5L586.125 129.75L205.875 129.75zM205.875 160.5L586.125 160.5L586.125 159.75L205.875 159.75zM205.875 190.5L586.125 190.5L586.125 189.75L205.875 189.75zM205.875 220.5L586.125 220.5L586.125 219.75L205.875 219.75zM205.875 237L586.125 237L586.125 236.25L205.875 236.25zM205.875 267L586.125 267L586.125 266.25L205.875 266.25zM205.875 309.75L586.125 309.75L586.125 309L205.875 309zM205.875 326.25L586.125 326.25L586.125 325.5L205.875 325.5zM205.875 369L586.125 369L586.125 368.25L205.875 368.25zM205.875 411.75L586.125 411.75L586.125 411L205.875 411zM205.875 441.75L586.125 441.75L586.125 441L205.875 441zM205.875 484.5L586.125 484.5L586.125 483.75L205.875 483.75zM205.875 542.25L586.125 542.25L586.125 541.5L205.875 541.5zM586.125 98.25L586.125 69L585.375 69L585.375 98.25zM586.125 129.75L586.125 99L585.375 99L585.375 129.75zM586.125 159.75L586.125 130.5L585.375 130.5L585.375 159.75zM586.125 189.75L586.125 160.5L585.375 160.5L585.375 189.75zM586.125 219.75L586.125 190.5L585.375 190.5L585.375 219.75zM586.125 236.25L586.125 220.5L585.375 220.5L585.375 236.25zM586.125 266.25L586.125 237L585.375 237L585.375 266.25zM586.125 309L586.125 267L585.375 267L585.375 309zM586.125 325.5L586.125 309.75L585.375 309.75L585.375 325.5zM586.125 368.25L586.125 326.25L585.375 326.25L585.375 368.25zM586.125 411L586.125 369L585.375 369L585.375 411zM586.125 441L586.125 411.75L585.375 411.75L585.375 441zM586.125 483.75L586.125 441.75L585.375 441.75L585.375 483.75zM586.125 541.5L586.125 484.5L585.375 484.5L585.375 541.5zM544.125 98.25L544.125 69L543.375 69L543.375 98.25zM544.125 129.75L544.125 99L543.375 99L543.375 129.75zM544.125 159.75L544.125 130.5L543.375 130.5L543.375 159.75zM544.125 189.75L544.125 160.5L543.375 160.5L543.375 189.75zM544.125 219.75L544.125 190.5L543.375 190.5L543.375 219.75zM544.125 236.25L544.125 220.5L543.375 220.5L543.375 236.25zM544.125 266.25L544.125 237L543.375 237L543.375 266.25zM544.125 309L544.125 267L543.375 267L543.375 309zM544.125 325.5L544.125 309.75L543.375 309.75L543.375 325.5zM544.125 368.25L544.125 326.25L543.375 326.25L543.375 368.25zM544.125 411L544.125 369L543.375 369L543.375 411zM544.125 441L544.125 411.75L543.375 411.75L543.375 441zM544.125 483.75L544.125 441.75L543.375 441.75L543.375 483.75zM544.125 541.5L544.125 484.5L543.375 484.5L543.375 541.5zM313.875 98.25L313.875 69L313.125 69L313.125 98.25zM313.875 129.75L313.875 99L313.125 99L313.125 129.75zM313.875 159.75L313.875 130.5L313.125 130.5L313.125 159.75zM313.875 189.75L313.875 160.5L313.125 160.5L313.125 189.75zM313.875 219.75L313.875 190.5L313.125 190.5L313.125 219.75zM313.875 236.25L313.875 220.5L313.125 220.5L313.125 236.25zM313.875 266.25L313.875 237L313.125 237L313.125 266.25zM313.875 309L313.875 267L313.125 267L313.125 309zM313.875 325.5L313.875 309.75L313.125 309.75L313.125 325.5zM313.875 368.25L313.875 326.25L313.125 326.25L313.125 368.25zM313.875 411L313.875 369L313.125 369L313.125 411zM313.875 441L313.875 411.75L313.125 411.75L313.125 441zM313.875 483.75L313.875 441.75L313.125 441.75L313.125 483.75zM313.875 541.5L313.875 484.5L313.125 484.5L313.125 541.5zM251.625 98.25L251.625 69L250.875 69L250.875 98.25zM251.625 129.75L251.625 99L250.875 99L250.875 129.75zM251.625 159.75L251.625 130.5L250.875 130.5L250.875 159.75zM251.625 189.75L251.625 160.5L250.875 160.5L250.875 189.75zM251.625 219.75L251.625 190.5L250.875 190.5L250.875 219.75zM251.625 236.25L251.625 220.5L250.875 220.5L250.875 236.25zM251.625 266.25L251.625 237L250.875 237L250.875 266.25zM251.625 309L251.625 267L250.875 267L250.875 309zM251.625 325.5L251.625 309.75L250.875 309.75L250.875 325.5zM251.625 368.25L251.625 326.25L250.875 326.25L250.875 368.25zM251.625 411L251.625 369L250.875 369L250.875 411zM251.625 441L251.625 411.75L250.875 411.75L250.875 441zM251.625 483.75L251.625 441.75L250.875 441.75L250.875 483.75zM251.625 541.5L251.625 484.5L250.875 484.5L250.875 541.5zM206.625 98.25L206.625 69L205.875 69L205.875 98.25zM206.625 129.75L206.625 99L205.875 99L205.875 129.75zM206.625 159.75L206.625 130.5L205.875 130.5L205.875 159.75zM206.625 189.75L206.625 160.5L205.875 160.5L205.875 189.75zM206.625 219.75L206.625 190.5L205.875 190.5L205.875 219.75zM206.625 236.25L206.625 220.5L205.875 220.5L205.875 236.25zM206.625 266.25L206.625 237L205.875 237L205.875 266.25zM206.625 309L206.625 267L205.875 267L205.875 309zM206.625 325.5L206.625 309.75L205.875 309.75L205.875 325.5zM206.625 368.25L206.625 326.25L205.875 326.25L205.875 368.25zM206.625 411L206.625 369L205.875 369L205.875 411zM206.625 441L206.625 411.75L205.875 411.75L205.875 441zM206.625 483.75L206.625 441.75L205.875 441.75L205.875 483.75zM206.625 541.5L206.625 484.5L205.875 484.5L205.875 541.5z" stroke="none" fill="#000000" fill-rule="nonzero" fill-opacity="0.1490196" /><path id="108" transform="matrix(1 0 0 -1 0 612)" d="M316.125 500.5549L527.0231 500.5549" stroke="#000000" stroke-width="0.7017334" fill="none" /><path id="120" transform="matrix(1 0 0 -1 0 612)" d="M316.125 487.4657L369.9948 487.4657" stroke="#000000" stroke-width="0.7017334" fill="none" /><path id="184" transform="matrix(1 0 0 -1 0 612)" d="M316.125 470.894L512.5779 470.894" stroke="#000000" stroke-width="0.7017334" fill="none" /><path id="230" transform="matrix(1 0 0 -1 0 612)" d="M316.125 457.8049L526.421 457.8049" stroke="#000000" stroke-width="0.7017334" fill="none" /><path id="255" transform="matrix(1 0 0 -1 0 612)" d="M316.125 444.7157L429.9274 444.7157" stroke="#000000" stroke-width="0.7017334" fill="none" /><path id="323" transform="matrix(1 0 0 -1 0 612)" d="M316.125 427.8049L541.971 427.8049" stroke="#000000" stroke-width="0.7017334" fill="none" /><path id="331" transform="matrix(1 0 0 -1 0 612)" d="M316.125 414.7157L344.5076 414.7157" stroke="#000000" stroke-width="0.7017334" fill="none" /><path id="399" transform="matrix(1 0 0 -1 0 612)" d="M316.125 398.144L538.8818 398.144" stroke="#000000" stroke-width="0.7017334" fill="none" /><path id="437" transform="matrix(1 0 0 -1 0 612)" d="M316.125 385.0549L507.6355 385.0549" stroke="#000000" stroke-width="0.7017334" fill="none" /><path id="474" transform="matrix(1 0 0 -1 0 612)" d="M316.125 371.9657L501.2478 371.9657" stroke="#000000" stroke-width="0.7017334" fill="none" /><path id="526" transform="matrix(1 0 0 -1 0 612)" d="M316.125 355.394L490.9754 355.394" stroke="#000000" stroke-width="0.7017334" fill="none" /><path id="565" transform="matrix(1 0 0 -1 0 612)" d="M316.125 342.3049L509.6511 342.3049" stroke="#000000" stroke-width="0.7017334" fill="none" /><path id="579" transform="matrix(1 0 0 -1 0 612)" d="M316.125 329.2157L392.8224 329.2157" stroke="#000000" stroke-width="0.7017334" fill="none" /><path id="638" transform="matrix(1 0 0 -1 0 612)" d="M316.125 312.7157L535.8086 312.7157" stroke="#000000" stroke-width="0.7017334" fill="none" /><path id="686" transform="matrix(1 0 0 -1 0 612)" d="M316.125 296.144L479.1271 296.144" stroke="#000000" stroke-width="0.7017334" fill="none" /><path id="731" transform="matrix(1 0 0 -1 0 612)" d="M316.125 283.0549L538.7824 283.0549" stroke="#000000" stroke-width="0.7017334" fill="none" /><path id="771" transform="matrix(1 0 0 -1 0 612)" d="M316.125 269.9657L514.9181 269.9657" stroke="#000000" stroke-width="0.7017334" fill="none" /><path id="830" transform="matrix(1 0 0 -1 0 612)" d="M316.125 253.0549L512.8606 253.0549" stroke="#000000" stroke-width="0.7017334" fill="none" /><path id="853" transform="matrix(1 0 0 -1 0 612)" d="M316.125 239.9658L416.8854 239.9658" stroke="#000000" stroke-width="0.7017334" fill="none" /><path id="910" transform="matrix(1 0 0 -1 0 612)" d="M316.125 223.4658L527.976 223.4658" stroke="#000000" stroke-width="0.7017334" fill="none" /><path id="967" transform="matrix(1 0 0 -1 0 612)" d="M316.125 206.5549L521.1434 206.5549" stroke="#000000" stroke-width="0.7017334" fill="none" /><path id="984" transform="matrix(1 0 0 -1 0 612)" d="M316.125 193.4658L388.105 193.4658" stroke="#000000" stroke-width="0.7017334" fill="none" /><path id="1041" transform="matrix(1 0 0 -1 0 612)" d="M316.125 176.5549L526.0701 176.5549" stroke="#000000" stroke-width="0.7017334" fill="none" /><path id="1060" transform="matrix(1 0 0 -1 0 612)" d="M316.125 163.4658L412.5504 163.4658" stroke="#000000" stroke-width="0.7017334" fill="none" /><path id="1112" transform="matrix(1 0 0 -1 0 612)" d="M316.125 146.5549L507.7244 146.5549" stroke="#000000" stroke-width="0.7017334" fill="none" /><path id="1135" transform="matrix(1 0 0 -1 0 612)" d="M316.125 133.4658L414.6132 133.4658" stroke="#000000" stroke-width="0.7017334" fill="none" /><path id="1189" transform="matrix(1 0 0 -1 0 612)" d="M316.125 116.7198L513.604 116.7198" stroke="#000000" stroke-width="0.7017334" fill="none" /><path id="1211" transform="matrix(1 0 0 -1 0 612)" d="M316.125 101.9658L426.3203 101.9658" stroke="#000000" stroke-width="0.7017334" fill="none" /><path id="1213" transform="matrix(1 0 0 -1 0 612)" d="M426.3203 102.0443L431.1004 102.0443" stroke="#000000" stroke-width="0.7855225" fill="none" /><path id="1220" transform="matrix(1 0 0 -1 0 612)" d="M431.1004 101.9658L466.1114 101.9658" stroke="#000000" stroke-width="0.7017334" fill="none" /><path id="1274" transform="matrix(1 0 0 -1 0 612)" d="M316.125 85.05493L513.2479 85.05493" stroke="#000000" stroke-width="0.7017334" fill="none" /><path id="1297" transform="matrix(1 0 0 -1 0 612)" d="M316.125 71.96576L420.6969 71.96576" stroke="#000000" stroke-width="0.7017334" fill="none" /></g></g></g></svg>