<svg xmlns="http://www.w3.org/2000/svg" xmlns:xlink="http://www.w3.org/1999/xlink" id="body_35" preserveAspectRatio="xMinYMin meet" viewBox="0 0 1056 816"><defs><clipPath id="1"><path id="" clip-rule="evenodd" transform="matrix(1 0 0 1 0 0)" d="M0 612L0 0L0 0L792 0L792 0L792 612L792 612L0 612z" /></clipPath><clipPath id="2"><path id="" clip-rule="evenodd" transform="matrix(1 0 0 1 0 0)" d="M205.125 52.5L586.875 52.5L586.875 52.5L586.875 69.75L586.875 69.75L205.125 69.75L205.125 69.75L205.125 52.5z" /></clipPath><clipPath id="3"><path id="" clip-rule="evenodd" transform="matrix(1 0 0 1 0 0)" d="M205.125 69L586.875 69L586.875 69L586.875 523.5L586.875 523.5L205.125 523.5L205.125 523.5L205.125 69z" /></clipPath></defs><g transform="matrix(1.333333 0 0 1.333333 0 0)"><g clip-path="url(#1)"><g clip-path="url(#2)"><path id="1" transform="matrix(1 0 0 -1 0 612)" d="M205.875 558.75L586.125 558.75L586.125 541.5L205.875 541.5L205.875 558.75z" stroke="none" fill="#4DD0E1" fill-rule="nonzero" /><path id="2" transform="matrix(1 0 0 -1 0 612)" d="M205.875 542.25L586.125 542.25L586.125 541.5L205.875 541.5zM205.875 558.75L586.125 558.75L586.125 558L205.875 558zM586.125 558L586.125 542.25L585.375 542.25L585.375 558zM544.125 558L544.125 542.25L543.375 542.25L543.375 558zM313.875 558L313.875 542.25L313.125 542.25L313.125 558zM251.625 558L251.625 542.25L250.875 542.25L250.875 558zM206.625 558L206.625 542.25L205.875 542.25L205.875 558z" stroke="none" fill="#000000" fill-rule="nonzero" fill-opacity="0.1490196" /></g><g clip-path="url(#3)"><path id="24" transform="matrix(1 0 0 -1 0 612)" d="M205.875 542.25L586.125 542.25L586.125 498.75L205.875 498.75L205.875 542.25z" stroke="none" fill="#E0F7FA" fill-rule="nonzero" /><path id="25" transform="matrix(1 0 0 -1 0 612)" d="M205.875 499.5L586.125 499.5L586.125 468.75L205.875 468.75L205.875 499.5z" stroke="none" fill="#FFFFFF" fill-rule="nonzero" /><path id="26" transform="matrix(1 0 0 -1 0 612)" d="M205.875 469.5L586.125 469.5L586.125 426L205.875 426L205.875 469.5z" stroke="none" fill="#E0F7FA" fill-rule="nonzero" /><path id="27" transform="matrix(1 0 0 -1 0 612)" d="M205.875 426.75L586.125 426.75L586.125 380.25L205.875 380.25L205.875 426.75z" stroke="none" fill="#FFFFFF" fill-rule="nonzero" /><path id="28" transform="matrix(1 0 0 -1 0 612)" d="M205.875 381L586.125 381L586.125 337.5L205.875 337.5L205.875 381z" stroke="none" fill="#E0F7FA" fill-rule="nonzero" /><path id="29" transform="matrix(1 0 0 -1 0 612)" d="M205.875 338.25L586.125 338.25L586.125 307.5L205.875 307.5L205.875 338.25z" stroke="none" fill="#FFFFFF" fill-rule="nonzero" /><path id="30" transform="matrix(1 0 0 -1 0 612)" d="M205.875 308.25L586.125 308.25L586.125 264.75L205.875 264.75L205.875 308.25z" stroke="none" fill="#E0F7FA" fill-rule="nonzero" /><path id="31" transform="matrix(1 0 0 -1 0 612)" d="M205.875 265.5L586.125 265.5L586.125 234.75L205.875 234.75L205.875 265.5z" stroke="none" fill="#FFFFFF" fill-rule="nonzero" /><path id="32" transform="matrix(1 0 0 -1 0 612)" d="M205.875 235.5L586.125 235.5L586.125 192L205.875 192L205.875 235.5z" stroke="none" fill="#E0F7FA" fill-rule="nonzero" /><path id="33" transform="matrix(1 0 0 -1 0 612)" d="M205.875 192.75L586.125 192.75L586.125 162L205.875 162L205.875 192.75z" stroke="none" fill="#FFFFFF" fill-rule="nonzero" /><path id="34" transform="matrix(1 0 0 -1 0 612)" d="M205.875 162.75L586.125 162.75L586.125 132L205.875 132L205.875 162.75z" stroke="none" fill="#E0F7FA" fill-rule="nonzero" /><path id="35" transform="matrix(1 0 0 -1 0 612)" d="M205.875 132.75L586.125 132.75L586.125 89.25L205.875 89.25L205.875 132.75z" stroke="none" fill="#FFFFFF" fill-rule="nonzero" /><path id="36" transform="matrix(1 0 0 -1 0 612)" d="M205.875 90L586.125 90L586.125 89.25L205.875 89.25zM205.875 132.75L586.125 132.75L586.125 132L205.875 132zM205.875 162.75L586.125 162.75L586.125 162L205.875 162zM205.875 192.75L586.125 192.75L586.125 192L205.875 192zM205.875 235.5L586.125 235.5L586.125 234.75L205.875 234.75zM205.875 265.5L586.125 265.5L586.125 264.75L205.875 264.75zM205.875 308.25L586.125 308.25L586.125 307.5L205.875 307.5zM205.875 338.25L586.125 338.25L586.125 337.5L205.875 337.5zM205.875 381L586.125 381L586.125 380.25L205.875 380.25zM205.875 426.75L586.125 426.75L586.125 426L205.875 426zM205.875 469.5L586.125 469.5L586.125 468.75L205.875 468.75zM205.875 499.5L586.125 499.5L586.125 498.75L205.875 498.75zM205.875 542.25L586.125 542.25L586.125 541.5L205.875 541.5zM586.125 132L586.125 90L585.375 90L585.375 132zM586.125 162L586.125 132.75L585.375 132.75L585.375 162zM586.125 192L586.125 162.75L585.375 162.75L585.375 192zM586.125 234.75L586.125 192.75L585.375 192.75L585.375 234.75zM586.125 264.75L586.125 235.5L585.375 235.5L585.375 264.75zM586.125 307.5L586.125 265.5L585.375 265.5L585.375 307.5zM586.125 337.5L586.125 308.25L585.375 308.25L585.375 337.5zM586.125 380.25L586.125 338.25L585.375 338.25L585.375 380.25zM586.125 426L586.125 381L585.375 381L585.375 426zM586.125 468.75L586.125 426.75L585.375 426.75L585.375 468.75zM586.125 498.75L586.125 469.5L585.375 469.5L585.375 498.75zM586.125 541.5L586.125 499.5L585.375 499.5L585.375 541.5zM544.125 132L544.125 90L543.375 90L543.375 132zM544.125 162L544.125 132.75L543.375 132.75L543.375 162zM544.125 192L544.125 162.75L543.375 162.75L543.375 192zM544.125 234.75L544.125 192.75L543.375 192.75L543.375 234.75zM544.125 264.75L544.125 235.5L543.375 235.5L543.375 264.75zM544.125 307.5L544.125 265.5L543.375 265.5L543.375 307.5zM544.125 337.5L544.125 308.25L543.375 308.25L543.375 337.5zM544.125 380.25L544.125 338.25L543.375 338.25L543.375 380.25zM544.125 426L544.125 381L543.375 381L543.375 426zM544.125 468.75L544.125 426.75L543.375 426.75L543.375 468.75zM544.125 498.75L544.125 469.5L543.375 469.5L543.375 498.75zM544.125 541.5L544.125 499.5L543.375 499.5L543.375 541.5zM313.875 132L313.875 90L313.125 90L313.125 132zM313.875 162L313.875 132.75L313.125 132.75L313.125 162zM313.875 192L313.875 162.75L313.125 162.75L313.125 192zM313.875 234.75L313.875 192.75L313.125 192.75L313.125 234.75zM313.875 264.75L313.875 235.5L313.125 235.5L313.125 264.75zM313.875 307.5L313.875 265.5L313.125 265.5L313.125 307.5zM313.875 337.5L313.875 308.25L313.125 308.25L313.125 337.5zM313.875 380.25L313.875 338.25L313.125 338.25L313.125 380.25zM313.875 426L313.875 381L313.125 381L313.125 426zM313.875 468.75L313.875 426.75L313.125 426.75L313.125 468.75zM313.875 498.75L313.875 469.5L313.125 469.5L313.125 498.75zM313.875 541.5L313.875 499.5L313.125 499.5L313.125 541.5zM251.625 132L251.625 90L250.875 90L250.875 132zM251.625 162L251.625 132.75L250.875 132.75L250.875 162zM251.625 192L251.625 162.75L250.875 162.75L250.875 192zM251.625 234.75L251.625 192.75L250.875 192.75L250.875 234.75zM251.625 264.75L251.625 235.5L250.875 235.5L250.875 264.75zM251.625 307.5L251.625 265.5L250.875 265.5L250.875 307.5zM251.625 337.5L251.625 308.25L250.875 308.25L250.875 337.5zM251.625 380.25L251.625 338.25L250.875 338.25L250.875 380.25zM251.625 426L251.625 381L250.875 381L250.875 426zM251.625 468.75L251.625 426.75L250.875 426.75L250.875 468.75zM251.625 498.75L251.625 469.5L250.875 469.5L250.875 498.75zM251.625 541.5L251.625 499.5L250.875 499.5L250.875 541.5zM206.625 132L206.625 90L205.875 90L205.875 132zM206.625 162L206.625 132.75L205.875 132.75L205.875 162zM206.625 192L206.625 162.75L205.875 162.75L205.875 192zM206.625 234.75L206.625 192.75L205.875 192.75L205.875 234.75zM206.625 264.75L206.625 235.5L205.875 235.5L205.875 264.75zM206.625 307.5L206.625 265.5L205.875 265.5L205.875 307.5zM206.625 337.5L206.625 308.25L205.875 308.25L205.875 337.5zM206.625 380.25L206.625 338.25L205.875 338.25L205.875 380.25zM206.625 426L206.625 381L205.875 381L205.875 426zM206.625 468.75L206.625 426.75L205.875 426.75L205.875 468.75zM206.625 498.75L206.625 469.5L205.875 469.5L205.875 498.75zM206.625 541.5L206.625 499.5L205.875 499.5L205.875 541.5z" stroke="none" fill="#000000" fill-rule="nonzero" fill-opacity="0.1490196" /><path id="84" transform="matrix(1 0 0 -1 0 612)" d="M316.125 528.6445L506.5255 528.6445" stroke="#000000" stroke-width="0.7017334" fill="none" /><path id="125" transform="matrix(1 0 0 -1 0 612)" d="M316.125 515.5566L525.4054 515.5566" stroke="#000000" stroke-width="0.7017334" fill="none" /><path id="136" transform="matrix(1 0 0 -1 0 612)" d="M316.125 502.4668L362.8743 502.4668" stroke="#000000" stroke-width="0.7017334" fill="none" /><path id="199" transform="matrix(1 0 0 -1 0 612)" d="M316.125 485.5566L542.4003 485.5566" stroke="#000000" stroke-width="0.7017334" fill="none" /><path id="236" transform="matrix(1 0 0 -1 0 612)" d="M316.125 472.4668L512.6616 472.4668" stroke="#000000" stroke-width="0.7017334" fill="none" /><path id="283" transform="matrix(1 0 0 -1 0 612)" d="M316.125 455.8945L506.5255 455.8945" stroke="#000000" stroke-width="0.7017334" fill="none" /><path id="324" transform="matrix(1 0 0 -1 0 612)" d="M316.125 442.8066L525.4054 442.8066" stroke="#000000" stroke-width="0.7017334" fill="none" /><path id="335" transform="matrix(1 0 0 -1 0 612)" d="M316.125 429.7168L362.8743 429.7168" stroke="#000000" stroke-width="0.7017334" fill="none" /><path id="392" transform="matrix(1 0 0 -1 0 612)" d="M316.125 397.0566L527.8607 397.0566" stroke="#000000" stroke-width="0.7017334" fill="none" /><path id="414" transform="matrix(1 0 0 -1 0 612)" d="M316.125 383.9668L437.2992 383.9668" stroke="#000000" stroke-width="0.7017334" fill="none" /><path id="473" transform="matrix(1 0 0 -1 0 612)" d="M316.125 367.3945L526.0703 367.3945" stroke="#000000" stroke-width="0.7017334" fill="none" /><path id="520" transform="matrix(1 0 0 -1 0 612)" d="M316.125 354.3066L533.8766 354.3066" stroke="#000000" stroke-width="0.7017334" fill="none" /><path id="531" transform="matrix(1 0 0 -1 0 612)" d="M316.125 341.2168L373.5917 341.2168" stroke="#000000" stroke-width="0.7017334" fill="none" /><path id="590" transform="matrix(1 0 0 -1 0 612)" d="M316.125 324.3066L530.9969 324.3066" stroke="#000000" stroke-width="0.7017334" fill="none" /><path id="624" transform="matrix(1 0 0 -1 0 612)" d="M316.125 311.2168L489.5566 311.2168" stroke="#000000" stroke-width="0.7017334" fill="none" /><path id="672" transform="matrix(1 0 0 -1 0 612)" d="M316.125 294.6445L516.7507 294.6445" stroke="#000000" stroke-width="0.7017334" fill="none" /><path id="709" transform="matrix(1 0 0 -1 0 612)" d="M316.125 281.5566L498.6457 281.5566" stroke="#000000" stroke-width="0.7017334" fill="none" /><path id="723" transform="matrix(1 0 0 -1 0 612)" d="M316.125 268.4668L379.1573 268.4668" stroke="#000000" stroke-width="0.7017334" fill="none" /><path id="773" transform="matrix(1 0 0 -1 0 612)" d="M316.125 251.5566L486.8393 251.5566" stroke="#000000" stroke-width="0.7017334" fill="none" /><path id="802" transform="matrix(1 0 0 -1 0 612)" d="M316.125 238.4668L455.7341 238.4668" stroke="#000000" stroke-width="0.7017334" fill="none" /><path id="861" transform="matrix(1 0 0 -1 0 612)" d="M316.125 221.8945L528.8817 221.8945" stroke="#000000" stroke-width="0.7017334" fill="none" /><path id="905" transform="matrix(1 0 0 -1 0 612)" d="M316.125 208.8066L538.662 208.8066" stroke="#000000" stroke-width="0.7017334" fill="none" /><path id="919" transform="matrix(1 0 0 -1 0 612)" d="M316.125 195.7168L379.1573 195.7168" stroke="#000000" stroke-width="0.7017334" fill="none" /><path id="976" transform="matrix(1 0 0 -1 0 612)" d="M316.125 178.8066L519.2375 178.8066" stroke="#000000" stroke-width="0.7017334" fill="none" /><path id="992" transform="matrix(1 0 0 -1 0 612)" d="M316.125 165.7168L378.8641 165.7168" stroke="#000000" stroke-width="0.7017334" fill="none" /><path id="1049" transform="matrix(1 0 0 -1 0 612)" d="M316.125 148.8066L507.8814 148.8066" stroke="#000000" stroke-width="0.7017334" fill="none" /><path id="1081" transform="matrix(1 0 0 -1 0 612)" d="M316.125 135.7168L464.106 135.7168" stroke="#000000" stroke-width="0.7017334" fill="none" /><path id="1137" transform="matrix(1 0 0 -1 0 612)" d="M316.125 119.1445L495.808 119.1445" stroke="#000000" stroke-width="0.7017334" fill="none" /><path id="1179" transform="matrix(1 0 0 -1 0 612)" d="M316.125 106.0566L535.5466 106.0566" stroke="#000000" stroke-width="0.7017334" fill="none" /><path id="1194" transform="matrix(1 0 0 -1 0 612)" d="M316.125 92.9668L386.3563 92.9668" stroke="#000000" stroke-width="0.7017334" fill="none" /></g></g></g></svg>