<svg xmlns="http://www.w3.org/2000/svg" xmlns:xlink="http://www.w3.org/1999/xlink" id="body_3" preserveAspectRatio="xMinYMin meet" viewBox="0 0 1056 816"><defs><clipPath id="1"><path id="" clip-rule="evenodd" transform="matrix(1 0 0 1 0 0)" d="M0 612L0 0L0 0L792 0L792 0L792 612L792 612L0 612z" /></clipPath><clipPath id="2"><path id="" clip-rule="evenodd" transform="matrix(1 0 0 1 0 0)" d="M205.125 52.5L586.875 52.5L586.875 52.5L586.875 69.75L586.875 69.75L205.125 69.75L205.125 69.75L205.125 52.5z" /></clipPath><clipPath id="3"><path id="" clip-rule="evenodd" transform="matrix(1 0 0 1 0 0)" d="M205.125 69L586.875 69L586.875 69L586.875 531.75L586.875 531.75L205.125 531.75L205.125 531.75L205.125 69z" /></clipPath></defs><g transform="matrix(1.333333 0 0 1.333333 0 0)"><g clip-path="url(#1)"><g clip-path="url(#2)"><path id="1" transform="matrix(1 0 0 -1 0 612)" d="M205.875 558.75L586.125 558.75L586.125 541.5L205.875 541.5L205.875 558.75z" stroke="none" fill="#4DD0E1" fill-rule="nonzero" /><path id="2" transform="matrix(1 0 0 -1 0 612)" d="M205.875 542.25L586.125 542.25L586.125 541.5L205.875 541.5zM205.875 558.75L586.125 558.75L586.125 558L205.875 558zM586.125 558L586.125 542.25L585.375 542.25L585.375 558zM544.125 558L544.125 542.25L543.375 542.25L543.375 558zM313.875 558L313.875 542.25L313.125 542.25L313.125 558zM251.625 558L251.625 542.25L250.875 542.25L250.875 558zM206.625 558L206.625 542.25L205.875 542.25L205.875 558z" stroke="none" fill="#000000" fill-rule="nonzero" fill-opacity="0.1490196" /></g><g clip-path="url(#3)"><path id="24" transform="matrix(1 0 0 -1 0 612)" d="M205.875 542.25L586.125 542.25L586.125 511.5L205.875 511.5L205.875 542.25z" stroke="none" fill="#E0F7FA" fill-rule="nonzero" /><path id="25" transform="matrix(1 0 0 -1 0 612)" d="M205.875 512.25L586.125 512.25L586.125 481.5L205.875 481.5L205.875 512.25z" stroke="none" fill="#FFFFFF" fill-rule="nonzero" /><path id="26" transform="matrix(1 0 0 -1 0 612)" d="M205.875 482.25L586.125 482.25L586.125 451.5L205.875 451.5L205.875 482.25z" stroke="none" fill="#E0F7FA" fill-rule="nonzero" /><path id="27" transform="matrix(1 0 0 -1 0 612)" d="M205.875 452.25L586.125 452.25L586.125 421.5L205.875 421.5L205.875 452.25z" stroke="none" fill="#FFFFFF" fill-rule="nonzero" /><path id="28" transform="matrix(1 0 0 -1 0 612)" d="M205.875 422.25L586.125 422.25L586.125 391.5L205.875 391.5L205.875 422.25z" stroke="none" fill="#E0F7FA" fill-rule="nonzero" /><path id="29" transform="matrix(1 0 0 -1 0 612)" d="M205.875 392.25L586.125 392.25L586.125 361.5L205.875 361.5L205.875 392.25z" stroke="none" fill="#FFFFFF" fill-rule="nonzero" /><path id="30" transform="matrix(1 0 0 -1 0 612)" d="M205.875 362.25L586.125 362.25L586.125 331.5L205.875 331.5L205.875 362.25z" stroke="none" fill="#E0F7FA" fill-rule="nonzero" /><path id="31" transform="matrix(1 0 0 -1 0 612)" d="M205.875 332.25L586.125 332.25L586.125 301.5L205.875 301.5L205.875 332.25z" stroke="none" fill="#FFFFFF" fill-rule="nonzero" /><path id="32" transform="matrix(1 0 0 -1 0 612)" d="M205.875 302.25L586.125 302.25L586.125 271.5L205.875 271.5L205.875 302.25z" stroke="none" fill="#E0F7FA" fill-rule="nonzero" /><path id="33" transform="matrix(1 0 0 -1 0 612)" d="M205.875 272.25L586.125 272.25L586.125 241.5L205.875 241.5L205.875 272.25z" stroke="none" fill="#FFFFFF" fill-rule="nonzero" /><path id="34" transform="matrix(1 0 0 -1 0 612)" d="M205.875 242.25L586.125 242.25L586.125 211.5L205.875 211.5L205.875 242.25z" stroke="none" fill="#E0F7FA" fill-rule="nonzero" /><path id="35" transform="matrix(1 0 0 -1 0 612)" d="M205.875 212.25L586.125 212.25L586.125 153.75L205.875 153.75L205.875 212.25z" stroke="none" fill="#FFFFFF" fill-rule="nonzero" /><path id="36" transform="matrix(1 0 0 -1 0 612)" d="M205.875 154.5L586.125 154.5L586.125 123.75L205.875 123.75L205.875 154.5z" stroke="none" fill="#E0F7FA" fill-rule="nonzero" /><path id="37" transform="matrix(1 0 0 -1 0 612)" d="M205.875 124.5L586.125 124.5L586.125 81L205.875 81L205.875 124.5z" stroke="none" fill="#FFFFFF" fill-rule="nonzero" /><path id="38" transform="matrix(1 0 0 -1 0 612)" d="M205.875 81.75L586.125 81.75L586.125 81L205.875 81zM205.875 124.5L586.125 124.5L586.125 123.75L205.875 123.75zM205.875 154.5L586.125 154.5L586.125 153.75L205.875 153.75zM205.875 212.25L586.125 212.25L586.125 211.5L205.875 211.5zM205.875 242.25L586.125 242.25L586.125 241.5L205.875 241.5zM205.875 272.25L586.125 272.25L586.125 271.5L205.875 271.5zM205.875 302.25L586.125 302.25L586.125 301.5L205.875 301.5zM205.875 332.25L586.125 332.25L586.125 331.5L205.875 331.5zM205.875 362.25L586.125 362.25L586.125 361.5L205.875 361.5zM205.875 392.25L586.125 392.25L586.125 391.5L205.875 391.5zM205.875 422.25L586.125 422.25L586.125 421.5L205.875 421.5zM205.875 452.25L586.125 452.25L586.125 451.5L205.875 451.5zM205.875 482.25L586.125 482.25L586.125 481.5L205.875 481.5zM205.875 512.25L586.125 512.25L586.125 511.5L205.875 511.5zM205.875 542.25L586.125 542.25L586.125 541.5L205.875 541.5zM586.125 123.75L586.125 81.75L585.375 81.75L585.375 123.75zM586.125 153.75L586.125 124.5L585.375 124.5L585.375 153.75zM586.125 211.5L586.125 154.5L585.375 154.5L585.375 211.5zM586.125 241.5L586.125 212.25L585.375 212.25L585.375 241.5zM586.125 271.5L586.125 242.25L585.375 242.25L585.375 271.5zM586.125 301.5L586.125 272.25L585.375 272.25L585.375 301.5zM586.125 331.5L586.125 302.25L585.375 302.25L585.375 331.5zM586.125 361.5L586.125 332.25L585.375 332.25L585.375 361.5zM586.125 391.5L586.125 362.25L585.375 362.25L585.375 391.5zM586.125 421.5L586.125 392.25L585.375 392.25L585.375 421.5zM586.125 451.5L586.125 422.25L585.375 422.25L585.375 451.5zM586.125 481.5L586.125 452.25L585.375 452.25L585.375 481.5zM586.125 511.5L586.125 482.25L585.375 482.25L585.375 511.5zM586.125 541.5L586.125 512.25L585.375 512.25L585.375 541.5zM544.125 123.75L544.125 81.75L543.375 81.75L543.375 123.75zM544.125 153.75L544.125 124.5L543.375 124.5L543.375 153.75zM544.125 211.5L544.125 154.5L543.375 154.5L543.375 211.5zM544.125 241.5L544.125 212.25L543.375 212.25L543.375 241.5zM544.125 271.5L544.125 242.25L543.375 242.25L543.375 271.5zM544.125 301.5L544.125 272.25L543.375 272.25L543.375 301.5zM544.125 331.5L544.125 302.25L543.375 302.25L543.375 331.5zM544.125 361.5L544.125 332.25L543.375 332.25L543.375 361.5zM544.125 391.5L544.125 362.25L543.375 362.25L543.375 391.5zM544.125 421.5L544.125 392.25L543.375 392.25L543.375 421.5zM544.125 451.5L544.125 422.25L543.375 422.25L543.375 451.5zM544.125 481.5L544.125 452.25L543.375 452.25L543.375 481.5zM544.125 511.5L544.125 482.25L543.375 482.25L543.375 511.5zM544.125 541.5L544.125 512.25L543.375 512.25L543.375 541.5zM313.875 123.75L313.875 81.75L313.125 81.75L313.125 123.75zM313.875 153.75L313.875 124.5L313.125 124.5L313.125 153.75zM313.875 211.5L313.875 154.5L313.125 154.5L313.125 211.5zM313.875 241.5L313.875 212.25L313.125 212.25L313.125 241.5zM313.875 271.5L313.875 242.25L313.125 242.25L313.125 271.5zM313.875 301.5L313.875 272.25L313.125 272.25L313.125 301.5zM313.875 331.5L313.875 302.25L313.125 302.25L313.125 331.5zM313.875 361.5L313.875 332.25L313.125 332.25L313.125 361.5zM313.875 391.5L313.875 362.25L313.125 362.25L313.125 391.5zM313.875 421.5L313.875 392.25L313.125 392.25L313.125 421.5zM313.875 451.5L313.875 422.25L313.125 422.25L313.125 451.5zM313.875 481.5L313.875 452.25L313.125 452.25L313.125 481.5zM313.875 511.5L313.875 482.25L313.125 482.25L313.125 511.5zM313.875 541.5L313.875 512.25L313.125 512.25L313.125 541.5zM251.625 123.75L251.625 81.75L250.875 81.75L250.875 123.75zM251.625 153.75L251.625 124.5L250.875 124.5L250.875 153.75zM251.625 211.5L251.625 154.5L250.875 154.5L250.875 211.5zM251.625 241.5L251.625 212.25L250.875 212.25L250.875 241.5zM251.625 271.5L251.625 242.25L250.875 242.25L250.875 271.5zM251.625 301.5L251.625 272.25L250.875 272.25L250.875 301.5zM251.625 331.5L251.625 302.25L250.875 302.25L250.875 331.5zM251.625 361.5L251.625 332.25L250.875 332.25L250.875 361.5zM251.625 391.5L251.625 362.25L250.875 362.25L250.875 391.5zM251.625 421.5L251.625 392.25L250.875 392.25L250.875 421.5zM251.625 451.5L251.625 422.25L250.875 422.25L250.875 451.5zM251.625 481.5L251.625 452.25L250.875 452.25L250.875 481.5zM251.625 511.5L251.625 482.25L250.875 482.25L250.875 511.5zM251.625 541.5L251.625 512.25L250.875 512.25L250.875 541.5zM206.625 123.75L206.625 81.75L205.875 81.75L205.875 123.75zM206.625 153.75L206.625 124.5L205.875 124.5L205.875 153.75zM206.625 211.5L206.625 154.5L205.875 154.5L205.875 211.5zM206.625 241.5L206.625 212.25L205.875 212.25L205.875 241.5zM206.625 271.5L206.625 242.25L205.875 242.25L205.875 271.5zM206.625 301.5L206.625 272.25L205.875 272.25L205.875 301.5zM206.625 331.5L206.625 302.25L205.875 302.25L205.875 331.5zM206.625 361.5L206.625 332.25L205.875 332.25L205.875 361.5zM206.625 391.5L206.625 362.25L205.875 362.25L205.875 391.5zM206.625 421.5L206.625 392.25L205.875 392.25L205.875 421.5zM206.625 451.5L206.625 422.25L205.875 422.25L205.875 451.5zM206.625 481.5L206.625 452.25L205.875 452.25L205.875 481.5zM206.625 511.5L206.625 482.25L205.875 482.25L205.875 511.5zM206.625 541.5L206.625 512.25L205.875 512.25L205.875 541.5z" stroke="none" fill="#000000" fill-rule="nonzero" fill-opacity="0.1490196" /><path id="93" transform="matrix(1 0 0 -1 0 612)" d="M316.125 528.3049L541.1436 528.3049" stroke="#000000" stroke-width="0.7017334" fill="none" /><path id="100" transform="matrix(1 0 0 -1 0 612)" d="M316.125 515.2158L343.3034 515.2158" stroke="#000000" stroke-width="0.7017334" fill="none" /><path id="158" transform="matrix(1 0 0 -1 0 612)" d="M316.125 498.3049L541.9186 498.3049" stroke="#000000" stroke-width="0.7017334" fill="none" /><path id="164" transform="matrix(1 0 0 -1 0 612)" d="M316.125 485.2158L343.0887 485.2158" stroke="#000000" stroke-width="0.7017334" fill="none" /><path id="228" transform="matrix(1 0 0 -1 0 612)" d="M316.125 468.3049L540.4946 468.3049" stroke="#000000" stroke-width="0.7017334" fill="none" /><path id="262" transform="matrix(1 0 0 -1 0 612)" d="M316.125 455.2158L482.4099 455.2158" stroke="#000000" stroke-width="0.7017334" fill="none" /><path id="315" transform="matrix(1 0 0 -1 0 612)" d="M316.125 438.3049L531.7927 438.3049" stroke="#000000" stroke-width="0.7017334" fill="none" /><path id="355" transform="matrix(1 0 0 -1 0 612)" d="M316.125 425.2158L509.6355 425.2158" stroke="#000000" stroke-width="0.7017334" fill="none" /><path id="420" transform="matrix(1 0 0 -1 0 612)" d="M316.125 408.3049L541.348 408.3049" stroke="#000000" stroke-width="0.7017334" fill="none" /><path id="447" transform="matrix(1 0 0 -1 0 612)" d="M316.125 395.2158L434.1945 395.2158" stroke="#000000" stroke-width="0.7017334" fill="none" /><path id="501" transform="matrix(1 0 0 -1 0 612)" d="M316.125 378.3049L518.2167 378.3049" stroke="#000000" stroke-width="0.7017334" fill="none" /><path id="528" transform="matrix(1 0 0 -1 0 612)" d="M316.125 365.2158L452.8544 365.2158" stroke="#000000" stroke-width="0.7017334" fill="none" /><path id="583" transform="matrix(1 0 0 -1 0 612)" d="M316.125 348.3049L520.4992 348.3049" stroke="#000000" stroke-width="0.7017334" fill="none" /><path id="623" transform="matrix(1 0 0 -1 0 612)" d="M316.125 335.2158L516.4575 335.2158" stroke="#000000" stroke-width="0.7017334" fill="none" /><path id="690" transform="matrix(1 0 0 -1 0 612)" d="M316.125 318.3049L525.9182 318.3049" stroke="#000000" stroke-width="0.7017334" fill="none" /><path id="724" transform="matrix(1 0 0 -1 0 612)" d="M316.125 305.2158L469.326 305.2158" stroke="#000000" stroke-width="0.7017334" fill="none" /><path id="782" transform="matrix(1 0 0 -1 0 612)" d="M316.125 288.3049L533.0283 288.3049" stroke="#000000" stroke-width="0.7017334" fill="none" /><path id="807" transform="matrix(1 0 0 -1 0 612)" d="M316.125 275.2158L440.4722 275.2158" stroke="#000000" stroke-width="0.7017334" fill="none" /><path id="865" transform="matrix(1 0 0 -1 0 612)" d="M316.125 258.3049L522.4524 258.3049" stroke="#000000" stroke-width="0.7017334" fill="none" /><path id="877" transform="matrix(1 0 0 -1 0 612)" d="M316.125 245.2158L369.2462 245.2158" stroke="#000000" stroke-width="0.7017334" fill="none" /><path id="939" transform="matrix(1 0 0 -1 0 612)" d="M316.125 228.3049L538.1908 228.3049" stroke="#000000" stroke-width="0.7017334" fill="none" /><path id="978" transform="matrix(1 0 0 -1 0 612)" d="M316.125 215.2158L493.7451 215.2158" stroke="#000000" stroke-width="0.7017334" fill="none" /><path id="1041" transform="matrix(1 0 0 -1 0 612)" d="M316.125 198.3982L536.6776 198.3982" stroke="#000000" stroke-width="0.7017334" fill="none" /><path id="1087" transform="matrix(1 0 0 -1 0 612)" d="M316.125 185.3091L542.6516 185.3091" stroke="#000000" stroke-width="0.7017334" fill="none" /><path id="1128" transform="matrix(1 0 0 -1 0 612)" d="M316.125 172.2198L530.3164 172.2198" stroke="#000000" stroke-width="0.7017334" fill="none" /><path id="1139" transform="matrix(1 0 0 -1 0 612)" d="M316.125 157.4658L367.4922 157.4658" stroke="#000000" stroke-width="0.7017334" fill="none" /><path id="1141" transform="matrix(1 0 0 -1 0 612)" d="M367.4922 157.5443L378.2148 157.5443" stroke="#000000" stroke-width="0.7855225" fill="none" /><path id="1201" transform="matrix(1 0 0 -1 0 612)" d="M316.125 140.5549L524.0961 140.5549" stroke="#000000" stroke-width="0.7017334" fill="none" /><path id="1223" transform="matrix(1 0 0 -1 0 612)" d="M316.125 127.4658L422.294 127.4658" stroke="#000000" stroke-width="0.7017334" fill="none" /><path id="1291" transform="matrix(1 0 0 -1 0 612)" d="M316.125 110.8942L524.8084 110.8942" stroke="#000000" stroke-width="0.7017334" fill="none" /><path id="1331" transform="matrix(1 0 0 -1 0 612)" d="M316.125 97.80493L521.2377 97.80493" stroke="#000000" stroke-width="0.7017334" fill="none" /><path id="1351" transform="matrix(1 0 0 -1 0 612)" d="M316.125 84.71582L410.1262 84.71582" stroke="#000000" stroke-width="0.7017334" fill="none" /></g></g></g></svg>