<svg xmlns="http://www.w3.org/2000/svg" xmlns:xlink="http://www.w3.org/1999/xlink" id="body_29" preserveAspectRatio="xMinYMin meet" viewBox="0 0 1056 816"><defs><clipPath id="1"><path id="" clip-rule="evenodd" transform="matrix(1 0 0 1 0 0)" d="M0 612L0 0L0 0L792 0L792 0L792 612L792 612L0 612z" /></clipPath><clipPath id="2"><path id="" clip-rule="evenodd" transform="matrix(1 0 0 1 0 0)" d="M205.125 52.5L586.875 52.5L586.875 52.5L586.875 69.75L586.875 69.75L205.125 69.75L205.125 69.75L205.125 52.5z" /></clipPath><clipPath id="3"><path id="" clip-rule="evenodd" transform="matrix(1 0 0 1 0 0)" d="M205.125 69L586.875 69L586.875 69L586.875 537L586.875 537L205.125 537L205.125 537L205.125 69z" /></clipPath></defs><g transform="matrix(1.333333 0 0 1.333333 0 0)"><g clip-path="url(#1)"><g clip-path="url(#2)"><path id="1" transform="matrix(1 0 0 -1 0 612)" d="M205.875 558.75L586.125 558.75L586.125 541.5L205.875 541.5L205.875 558.75z" stroke="none" fill="#4DD0E1" fill-rule="nonzero" /><path id="2" transform="matrix(1 0 0 -1 0 612)" d="M205.875 542.25L586.125 542.25L586.125 541.5L205.875 541.5zM205.875 558.75L586.125 558.75L586.125 558L205.875 558zM586.125 558L586.125 542.25L585.375 542.25L585.375 558zM544.125 558L544.125 542.25L543.375 542.25L543.375 558zM313.875 558L313.875 542.25L313.125 542.25L313.125 558zM251.625 558L251.625 542.25L250.875 542.25L250.875 558zM206.625 558L206.625 542.25L205.875 542.25L205.875 558z" stroke="none" fill="#000000" fill-rule="nonzero" fill-opacity="0.1490196" /></g><g clip-path="url(#3)"><path id="24" transform="matrix(1 0 0 -1 0 612)" d="M205.875 542.25L586.125 542.25L586.125 511.5L205.875 511.5L205.875 542.25z" stroke="none" fill="#FFFFFF" fill-rule="nonzero" /><path id="25" transform="matrix(1 0 0 -1 0 612)" d="M205.875 512.25L586.125 512.25L586.125 468.75L205.875 468.75L205.875 512.25z" stroke="none" fill="#E0F7FA" fill-rule="nonzero" /><path id="26" transform="matrix(1 0 0 -1 0 612)" d="M205.875 469.5L586.125 469.5L586.125 438.75L205.875 438.75L205.875 469.5z" stroke="none" fill="#FFFFFF" fill-rule="nonzero" /><path id="27" transform="matrix(1 0 0 -1 0 612)" d="M205.875 439.5L586.125 439.5L586.125 396L205.875 396L205.875 439.5z" stroke="none" fill="#E0F7FA" fill-rule="nonzero" /><path id="28" transform="matrix(1 0 0 -1 0 612)" d="M205.875 396.75L586.125 396.75L586.125 353.25L205.875 353.25L205.875 396.75z" stroke="none" fill="#FFFFFF" fill-rule="nonzero" /><path id="29" transform="matrix(1 0 0 -1 0 612)" d="M205.875 354L586.125 354L586.125 323.25L205.875 323.25L205.875 354z" stroke="none" fill="#E0F7FA" fill-rule="nonzero" /><path id="30" transform="matrix(1 0 0 -1 0 612)" d="M205.875 324L586.125 324L586.125 280.5L205.875 280.5L205.875 324z" stroke="none" fill="#FFFFFF" fill-rule="nonzero" /><path id="31" transform="matrix(1 0 0 -1 0 612)" d="M205.875 281.25L586.125 281.25L586.125 237.75L205.875 237.75L205.875 281.25z" stroke="none" fill="#E0F7FA" fill-rule="nonzero" /><path id="32" transform="matrix(1 0 0 -1 0 612)" d="M205.875 238.5L586.125 238.5L586.125 207.75L205.875 207.75L205.875 238.5z" stroke="none" fill="#FFFFFF" fill-rule="nonzero" /><path id="33" transform="matrix(1 0 0 -1 0 612)" d="M205.875 208.5L586.125 208.5L586.125 177.75L205.875 177.75L205.875 208.5z" stroke="none" fill="#E0F7FA" fill-rule="nonzero" /><path id="34" transform="matrix(1 0 0 -1 0 612)" d="M205.875 178.5L586.125 178.5L586.125 161.25L205.875 161.25L205.875 178.5z" stroke="none" fill="#FFFFFF" fill-rule="nonzero" /><path id="35" transform="matrix(1 0 0 -1 0 612)" d="M205.875 162L586.125 162L586.125 118.5L205.875 118.5L205.875 162z" stroke="none" fill="#E0F7FA" fill-rule="nonzero" /><path id="36" transform="matrix(1 0 0 -1 0 612)" d="M205.875 119.25L586.125 119.25L586.125 75.75L205.875 75.75L205.875 119.25z" stroke="none" fill="#FFFFFF" fill-rule="nonzero" /><path id="37" transform="matrix(1 0 0 -1 0 612)" d="M205.875 76.5L586.125 76.5L586.125 75.75L205.875 75.75zM205.875 119.25L586.125 119.25L586.125 118.5L205.875 118.5zM205.875 162L586.125 162L586.125 161.25L205.875 161.25zM205.875 178.5L586.125 178.5L586.125 177.75L205.875 177.75zM205.875 208.5L586.125 208.5L586.125 207.75L205.875 207.75zM205.875 238.5L586.125 238.5L586.125 237.75L205.875 237.75zM205.875 281.25L586.125 281.25L586.125 280.5L205.875 280.5zM205.875 324L586.125 324L586.125 323.25L205.875 323.25zM205.875 354L586.125 354L586.125 353.25L205.875 353.25zM205.875 396.75L586.125 396.75L586.125 396L205.875 396zM205.875 439.5L586.125 439.5L586.125 438.75L205.875 438.75zM205.875 469.5L586.125 469.5L586.125 468.75L205.875 468.75zM205.875 512.25L586.125 512.25L586.125 511.5L205.875 511.5zM205.875 542.25L586.125 542.25L586.125 541.5L205.875 541.5zM586.125 118.5L586.125 76.5L585.375 76.5L585.375 118.5zM586.125 161.25L586.125 119.25L585.375 119.25L585.375 161.25zM586.125 177.75L586.125 162L585.375 162L585.375 177.75zM586.125 207.75L586.125 178.5L585.375 178.5L585.375 207.75zM586.125 237.75L586.125 208.5L585.375 208.5L585.375 237.75zM586.125 280.5L586.125 238.5L585.375 238.5L585.375 280.5zM586.125 323.25L586.125 281.25L585.375 281.25L585.375 323.25zM586.125 353.25L586.125 324L585.375 324L585.375 353.25zM586.125 396L586.125 354L585.375 354L585.375 396zM586.125 438.75L586.125 396.75L585.375 396.75L585.375 438.75zM586.125 468.75L586.125 439.5L585.375 439.5L585.375 468.75zM586.125 511.5L586.125 469.5L585.375 469.5L585.375 511.5zM586.125 541.5L586.125 512.25L585.375 512.25L585.375 541.5zM544.125 118.5L544.125 76.5L543.375 76.5L543.375 118.5zM544.125 161.25L544.125 119.25L543.375 119.25L543.375 161.25zM544.125 177.75L544.125 162L543.375 162L543.375 177.75zM544.125 207.75L544.125 178.5L543.375 178.5L543.375 207.75zM544.125 237.75L544.125 208.5L543.375 208.5L543.375 237.75zM544.125 280.5L544.125 238.5L543.375 238.5L543.375 280.5zM544.125 323.25L544.125 281.25L543.375 281.25L543.375 323.25zM544.125 353.25L544.125 324L543.375 324L543.375 353.25zM544.125 396L544.125 354L543.375 354L543.375 396zM544.125 438.75L544.125 396.75L543.375 396.75L543.375 438.75zM544.125 468.75L544.125 439.5L543.375 439.5L543.375 468.75zM544.125 511.5L544.125 469.5L543.375 469.5L543.375 511.5zM544.125 541.5L544.125 512.25L543.375 512.25L543.375 541.5zM313.875 118.5L313.875 76.5L313.125 76.5L313.125 118.5zM313.875 161.25L313.875 119.25L313.125 119.25L313.125 161.25zM313.875 177.75L313.875 162L313.125 162L313.125 177.75zM313.875 207.75L313.875 178.5L313.125 178.5L313.125 207.75zM313.875 237.75L313.875 208.5L313.125 208.5L313.125 237.75zM313.875 280.5L313.875 238.5L313.125 238.5L313.125 280.5zM313.875 323.25L313.875 281.25L313.125 281.25L313.125 323.25zM313.875 353.25L313.875 324L313.125 324L313.125 353.25zM313.875 396L313.875 354L313.125 354L313.125 396zM313.875 438.75L313.875 396.75L313.125 396.75L313.125 438.75zM313.875 468.75L313.875 439.5L313.125 439.5L313.125 468.75zM313.875 511.5L313.875 469.5L313.125 469.5L313.125 511.5zM313.875 541.5L313.875 512.25L313.125 512.25L313.125 541.5zM251.625 118.5L251.625 76.5L250.875 76.5L250.875 118.5zM251.625 161.25L251.625 119.25L250.875 119.25L250.875 161.25zM251.625 177.75L251.625 162L250.875 162L250.875 177.75zM251.625 207.75L251.625 178.5L250.875 178.5L250.875 207.75zM251.625 237.75L251.625 208.5L250.875 208.5L250.875 237.75zM251.625 280.5L251.625 238.5L250.875 238.5L250.875 280.5zM251.625 323.25L251.625 281.25L250.875 281.25L250.875 323.25zM251.625 353.25L251.625 324L250.875 324L250.875 353.25zM251.625 396L251.625 354L250.875 354L250.875 396zM251.625 438.75L251.625 396.75L250.875 396.75L250.875 438.75zM251.625 468.75L251.625 439.5L250.875 439.5L250.875 468.75zM251.625 511.5L251.625 469.5L250.875 469.5L250.875 511.5zM251.625 541.5L251.625 512.25L250.875 512.25L250.875 541.5zM206.625 118.5L206.625 76.5L205.875 76.5L205.875 118.5zM206.625 161.25L206.625 119.25L205.875 119.25L205.875 161.25zM206.625 177.75L206.625 162L205.875 162L205.875 177.75zM206.625 207.75L206.625 178.5L205.875 178.5L205.875 207.75zM206.625 237.75L206.625 208.5L205.875 208.5L205.875 237.75zM206.625 280.5L206.625 238.5L205.875 238.5L205.875 280.5zM206.625 323.25L206.625 281.25L205.875 281.25L205.875 323.25zM206.625 353.25L206.625 324L205.875 324L205.875 353.25zM206.625 396L206.625 354L205.875 354L205.875 396zM206.625 438.75L206.625 396.75L205.875 396.75L205.875 438.75zM206.625 468.75L206.625 439.5L205.875 439.5L205.875 468.75zM206.625 511.5L206.625 469.5L205.875 469.5L205.875 511.5zM206.625 541.5L206.625 512.25L205.875 512.25L205.875 541.5z" stroke="none" fill="#000000" fill-rule="nonzero" fill-opacity="0.1490196" /><path id="87" transform="matrix(1 0 0 -1 0 612)" d="M316.125 528.3066L534.7039 528.3066" stroke="#000000" stroke-width="0.7017334" fill="none" /><path id="102" transform="matrix(1 0 0 -1 0 612)" d="M316.125 515.2168L385.0159 515.2168" stroke="#000000" stroke-width="0.7017334" fill="none" /><path id="155" transform="matrix(1 0 0 -1 0 612)" d="M316.125 498.6445L527.6724 498.6445" stroke="#000000" stroke-width="0.7017334" fill="none" /><path id="201" transform="matrix(1 0 0 -1 0 612)" d="M316.125 485.5566L539.3845 485.5566" stroke="#000000" stroke-width="0.7017334" fill="none" /><path id="207" transform="matrix(1 0 0 -1 0 612)" d="M316.125 472.4668L343.8584 472.4668" stroke="#000000" stroke-width="0.7017334" fill="none" /><path id="264" transform="matrix(1 0 0 -1 0 612)" d="M316.125 455.5566L540.1594 455.5566" stroke="#000000" stroke-width="0.7017334" fill="none" /><path id="279" transform="matrix(1 0 0 -1 0 612)" d="M316.125 442.4668L397.0737 442.4668" stroke="#000000" stroke-width="0.7017334" fill="none" /><path id="330" transform="matrix(1 0 0 -1 0 612)" d="M316.125 425.8945L507.2114 425.8945" stroke="#000000" stroke-width="0.7017334" fill="none" /><path id="370" transform="matrix(1 0 0 -1 0 612)" d="M316.125 412.8066L503.2425 412.8066" stroke="#000000" stroke-width="0.7017334" fill="none" /><path id="390" transform="matrix(1 0 0 -1 0 612)" d="M316.125 399.7168L412.8383 399.7168" stroke="#000000" stroke-width="0.7017334" fill="none" /><path id="436" transform="matrix(1 0 0 -1 0 612)" d="M316.125 383.1445L529.6565 383.1445" stroke="#000000" stroke-width="0.7017334" fill="none" /><path id="468" transform="matrix(1 0 0 -1 0 612)" d="M316.125 370.0566L499.7191 370.0566" stroke="#000000" stroke-width="0.7017334" fill="none" /><path id="479" transform="matrix(1 0 0 -1 0 612)" d="M316.125 356.9668L376.0838 356.9668" stroke="#000000" stroke-width="0.7017334" fill="none" /><path id="528" transform="matrix(1 0 0 -1 0 612)" d="M316.125 340.0566L504.7557 340.0566" stroke="#000000" stroke-width="0.7017334" fill="none" /><path id="562" transform="matrix(1 0 0 -1 0 612)" d="M316.125 326.9668L482.9074 326.9668" stroke="#000000" stroke-width="0.7017334" fill="none" /><path id="605" transform="matrix(1 0 0 -1 0 612)" d="M316.125 310.3945L515.2744 310.3945" stroke="#000000" stroke-width="0.7017334" fill="none" /><path id="639" transform="matrix(1 0 0 -1 0 612)" d="M316.125 297.3066L506.6668 297.3066" stroke="#000000" stroke-width="0.7017334" fill="none" /><path id="666" transform="matrix(1 0 0 -1 0 612)" d="M316.125 284.2168L458.1584 284.2168" stroke="#000000" stroke-width="0.7017334" fill="none" /><path id="721" transform="matrix(1 0 0 -1 0 612)" d="M316.125 254.5566L475.8916 254.5566" stroke="#000000" stroke-width="0.7017334" fill="none" /><path id="757" transform="matrix(1 0 0 -1 0 612)" d="M316.125 241.4668L515.0851 241.4668" stroke="#000000" stroke-width="0.7017334" fill="none" /><path id="815" transform="matrix(1 0 0 -1 0 612)" d="M316.125 224.5566L521.2952 224.5566" stroke="#000000" stroke-width="0.7017334" fill="none" /><path id="845" transform="matrix(1 0 0 -1 0 612)" d="M316.125 211.4668L446.7131 211.4668" stroke="#000000" stroke-width="0.7017334" fill="none" /><path id="891" transform="matrix(1 0 0 -1 0 612)" d="M316.125 194.5566L500.1275 194.5566" stroke="#000000" stroke-width="0.7017334" fill="none" /><path id="908" transform="matrix(1 0 0 -1 0 612)" d="M316.125 181.4668L404.257 181.4668" stroke="#000000" stroke-width="0.7017334" fill="none" /><path id="953" transform="matrix(1 0 0 -1 0 612)" d="M316.125 164.9668L483.0226 164.9668" stroke="#000000" stroke-width="0.7017334" fill="none" /><path id="1008" transform="matrix(1 0 0 -1 0 612)" d="M316.125 148.3945L529.0965 148.3945" stroke="#000000" stroke-width="0.7017334" fill="none" /><path id="1047" transform="matrix(1 0 0 -1 0 612)" d="M316.125 135.3066L506.6564 135.3066" stroke="#000000" stroke-width="0.7017334" fill="none" /><path id="1074" transform="matrix(1 0 0 -1 0 612)" d="M316.125 122.2168L446.5142 122.2168" stroke="#000000" stroke-width="0.7017334" fill="none" /><path id="1125" transform="matrix(1 0 0 -1 0 612)" d="M316.125 79.4668L461.7027 79.4668" stroke="#000000" stroke-width="0.7017334" fill="none" /></g></g></g></svg>