<svg xmlns="http://www.w3.org/2000/svg" xmlns:xlink="http://www.w3.org/1999/xlink" id="body_19" preserveAspectRatio="xMinYMin meet" viewBox="0 0 1056 816"><defs><clipPath id="1"><path id="" clip-rule="evenodd" transform="matrix(1 0 0 1 0 0)" d="M0 612L0 0L0 0L792 0L792 0L792 612L792 612L0 612z" /></clipPath><clipPath id="2"><path id="" clip-rule="evenodd" transform="matrix(1 0 0 1 0 0)" d="M205.125 52.5L586.875 52.5L586.875 52.5L586.875 69.75L586.875 69.75L205.125 69.75L205.125 69.75L205.125 52.5z" /></clipPath><clipPath id="3"><path id="" clip-rule="evenodd" transform="matrix(1 0 0 1 0 0)" d="M205.125 69L586.875 69L586.875 69L586.875 542.25L586.875 542.25L205.125 542.25L205.125 542.25L205.125 69z" /></clipPath></defs><g transform="matrix(1.333333 0 0 1.333333 0 0)"><g clip-path="url(#1)"><g clip-path="url(#2)"><path id="1" transform="matrix(1 0 0 -1 0 612)" d="M205.875 558.75L586.125 558.75L586.125 541.5L205.875 541.5L205.875 558.75z" stroke="none" fill="#4DD0E1" fill-rule="nonzero" /><path id="2" transform="matrix(1 0 0 -1 0 612)" d="M205.875 542.25L586.125 542.25L586.125 541.5L205.875 541.5zM205.875 558.75L586.125 558.75L586.125 558L205.875 558zM586.125 558L586.125 542.25L585.375 542.25L585.375 558zM544.125 558L544.125 542.25L543.375 542.25L543.375 558zM313.875 558L313.875 542.25L313.125 542.25L313.125 558zM251.625 558L251.625 542.25L250.875 542.25L250.875 558zM206.625 558L206.625 542.25L205.875 542.25L205.875 558z" stroke="none" fill="#000000" fill-rule="nonzero" fill-opacity="0.1490196" /></g><g clip-path="url(#3)"><path id="24" transform="matrix(1 0 0 -1 0 612)" d="M205.875 542.25L586.125 542.25L586.125 511.5L205.875 511.5L205.875 542.25z" stroke="none" fill="#FFFFFF" fill-rule="nonzero" /><path id="25" transform="matrix(1 0 0 -1 0 612)" d="M205.875 512.25L586.125 512.25L586.125 481.5L205.875 481.5L205.875 512.25z" stroke="none" fill="#E0F7FA" fill-rule="nonzero" /><path id="26" transform="matrix(1 0 0 -1 0 612)" d="M205.875 482.25L586.125 482.25L586.125 451.5L205.875 451.5L205.875 482.25z" stroke="none" fill="#FFFFFF" fill-rule="nonzero" /><path id="27" transform="matrix(1 0 0 -1 0 612)" d="M205.875 452.25L586.125 452.25L586.125 408.75L205.875 408.75L205.875 452.25z" stroke="none" fill="#E0F7FA" fill-rule="nonzero" /><path id="28" transform="matrix(1 0 0 -1 0 612)" d="M205.875 409.5L586.125 409.5L586.125 378.75L205.875 378.75L205.875 409.5z" stroke="none" fill="#FFFFFF" fill-rule="nonzero" /><path id="29" transform="matrix(1 0 0 -1 0 612)" d="M205.875 379.5L586.125 379.5L586.125 336L205.875 336L205.875 379.5z" stroke="none" fill="#E0F7FA" fill-rule="nonzero" /><path id="30" transform="matrix(1 0 0 -1 0 612)" d="M205.875 336.75L586.125 336.75L586.125 306L205.875 306L205.875 336.75z" stroke="none" fill="#FFFFFF" fill-rule="nonzero" /><path id="31" transform="matrix(1 0 0 -1 0 612)" d="M205.875 306.75L586.125 306.75L586.125 263.25L205.875 263.25L205.875 306.75z" stroke="none" fill="#E0F7FA" fill-rule="nonzero" /><path id="32" transform="matrix(1 0 0 -1 0 612)" d="M205.875 264L586.125 264L586.125 233.25L205.875 233.25L205.875 264z" stroke="none" fill="#FFFFFF" fill-rule="nonzero" /><path id="33" transform="matrix(1 0 0 -1 0 612)" d="M205.875 234L586.125 234L586.125 203.25L205.875 203.25L205.875 234z" stroke="none" fill="#E0F7FA" fill-rule="nonzero" /><path id="34" transform="matrix(1 0 0 -1 0 612)" d="M205.875 204L586.125 204L586.125 173.25L205.875 173.25L205.875 204z" stroke="none" fill="#FFFFFF" fill-rule="nonzero" /><path id="35" transform="matrix(1 0 0 -1 0 612)" d="M205.875 174L586.125 174L586.125 130.5L205.875 130.5L205.875 174z" stroke="none" fill="#E0F7FA" fill-rule="nonzero" /><path id="36" transform="matrix(1 0 0 -1 0 612)" d="M205.875 131.25L586.125 131.25L586.125 100.5L205.875 100.5L205.875 131.25z" stroke="none" fill="#FFFFFF" fill-rule="nonzero" /><path id="37" transform="matrix(1 0 0 -1 0 612)" d="M205.875 101.25L586.125 101.25L586.125 70.5L205.875 70.5L205.875 101.25z" stroke="none" fill="#E0F7FA" fill-rule="nonzero" /><path id="38" transform="matrix(1 0 0 -1 0 612)" d="M205.875 71.25L586.125 71.25L586.125 70.5L205.875 70.5zM205.875 101.25L586.125 101.25L586.125 100.5L205.875 100.5zM205.875 131.25L586.125 131.25L586.125 130.5L205.875 130.5zM205.875 174L586.125 174L586.125 173.25L205.875 173.25zM205.875 204L586.125 204L586.125 203.25L205.875 203.25zM205.875 234L586.125 234L586.125 233.25L205.875 233.25zM205.875 264L586.125 264L586.125 263.25L205.875 263.25zM205.875 306.75L586.125 306.75L586.125 306L205.875 306zM205.875 336.75L586.125 336.75L586.125 336L205.875 336zM205.875 379.5L586.125 379.5L586.125 378.75L205.875 378.75zM205.875 409.5L586.125 409.5L586.125 408.75L205.875 408.75zM205.875 452.25L586.125 452.25L586.125 451.5L205.875 451.5zM205.875 482.25L586.125 482.25L586.125 481.5L205.875 481.5zM205.875 512.25L586.125 512.25L586.125 511.5L205.875 511.5zM205.875 542.25L586.125 542.25L586.125 541.5L205.875 541.5zM586.125 100.5L586.125 71.25L585.375 71.25L585.375 100.5zM586.125 130.5L586.125 101.25L585.375 101.25L585.375 130.5zM586.125 173.25L586.125 131.25L585.375 131.25L585.375 173.25zM586.125 203.25L586.125 174L585.375 174L585.375 203.25zM586.125 233.25L586.125 204L585.375 204L585.375 233.25zM586.125 263.25L586.125 234L585.375 234L585.375 263.25zM586.125 306L586.125 264L585.375 264L585.375 306zM586.125 336L586.125 306.75L585.375 306.75L585.375 336zM586.125 378.75L586.125 336.75L585.375 336.75L585.375 378.75zM586.125 408.75L586.125 379.5L585.375 379.5L585.375 408.75zM586.125 451.5L586.125 409.5L585.375 409.5L585.375 451.5zM586.125 481.5L586.125 452.25L585.375 452.25L585.375 481.5zM586.125 511.5L586.125 482.25L585.375 482.25L585.375 511.5zM586.125 541.5L586.125 512.25L585.375 512.25L585.375 541.5zM544.125 100.5L544.125 71.25L543.375 71.25L543.375 100.5zM544.125 130.5L544.125 101.25L543.375 101.25L543.375 130.5zM544.125 173.25L544.125 131.25L543.375 131.25L543.375 173.25zM544.125 203.25L544.125 174L543.375 174L543.375 203.25zM544.125 233.25L544.125 204L543.375 204L543.375 233.25zM544.125 263.25L544.125 234L543.375 234L543.375 263.25zM544.125 306L544.125 264L543.375 264L543.375 306zM544.125 336L544.125 306.75L543.375 306.75L543.375 336zM544.125 378.75L544.125 336.75L543.375 336.75L543.375 378.75zM544.125 408.75L544.125 379.5L543.375 379.5L543.375 408.75zM544.125 451.5L544.125 409.5L543.375 409.5L543.375 451.5zM544.125 481.5L544.125 452.25L543.375 452.25L543.375 481.5zM544.125 511.5L544.125 482.25L543.375 482.25L543.375 511.5zM544.125 541.5L544.125 512.25L543.375 512.25L543.375 541.5zM313.875 100.5L313.875 71.25L313.125 71.25L313.125 100.5zM313.875 130.5L313.875 101.25L313.125 101.25L313.125 130.5zM313.875 173.25L313.875 131.25L313.125 131.25L313.125 173.25zM313.875 203.25L313.875 174L313.125 174L313.125 203.25zM313.875 233.25L313.875 204L313.125 204L313.125 233.25zM313.875 263.25L313.875 234L313.125 234L313.125 263.25zM313.875 306L313.875 264L313.125 264L313.125 306zM313.875 336L313.875 306.75L313.125 306.75L313.125 336zM313.875 378.75L313.875 336.75L313.125 336.75L313.125 378.75zM313.875 408.75L313.875 379.5L313.125 379.5L313.125 408.75zM313.875 451.5L313.875 409.5L313.125 409.5L313.125 451.5zM313.875 481.5L313.875 452.25L313.125 452.25L313.125 481.5zM313.875 511.5L313.875 482.25L313.125 482.25L313.125 511.5zM313.875 541.5L313.875 512.25L313.125 512.25L313.125 541.5zM251.625 100.5L251.625 71.25L250.875 71.25L250.875 100.5zM251.625 130.5L251.625 101.25L250.875 101.25L250.875 130.5zM251.625 173.25L251.625 131.25L250.875 131.25L250.875 173.25zM251.625 203.25L251.625 174L250.875 174L250.875 203.25zM251.625 233.25L251.625 204L250.875 204L250.875 233.25zM251.625 263.25L251.625 234L250.875 234L250.875 263.25zM251.625 306L251.625 264L250.875 264L250.875 306zM251.625 336L251.625 306.75L250.875 306.75L250.875 336zM251.625 378.75L251.625 336.75L250.875 336.75L250.875 378.75zM251.625 408.75L251.625 379.5L250.875 379.5L250.875 408.75zM251.625 451.5L251.625 409.5L250.875 409.5L250.875 451.5zM251.625 481.5L251.625 452.25L250.875 452.25L250.875 481.5zM251.625 511.5L251.625 482.25L250.875 482.25L250.875 511.5zM251.625 541.5L251.625 512.25L250.875 512.25L250.875 541.5zM206.625 100.5L206.625 71.25L205.875 71.25L205.875 100.5zM206.625 130.5L206.625 101.25L205.875 101.25L205.875 130.5zM206.625 173.25L206.625 131.25L205.875 131.25L205.875 173.25zM206.625 203.25L206.625 174L205.875 174L205.875 203.25zM206.625 233.25L206.625 204L205.875 204L205.875 233.25zM206.625 263.25L206.625 234L205.875 234L205.875 263.25zM206.625 306L206.625 264L205.875 264L205.875 306zM206.625 336L206.625 306.75L205.875 306.75L205.875 336zM206.625 378.75L206.625 336.75L205.875 336.75L205.875 378.75zM206.625 408.75L206.625 379.5L205.875 379.5L205.875 408.75zM206.625 451.5L206.625 409.5L205.875 409.5L205.875 451.5zM206.625 481.5L206.625 452.25L205.875 452.25L205.875 481.5zM206.625 511.5L206.625 482.25L205.875 482.25L205.875 511.5zM206.625 541.5L206.625 512.25L205.875 512.25L205.875 541.5z" stroke="none" fill="#000000" fill-rule="nonzero" fill-opacity="0.1490196" /><path id="93" transform="matrix(1 0 0 -1 0 612)" d="M316.125 528.3047L539.9814 528.3047" stroke="#000000" stroke-width="0.7017334" fill="none" /><path id="117" transform="matrix(1 0 0 -1 0 612)" d="M316.125 515.2158L423.0322 515.2158" stroke="#000000" stroke-width="0.7017334" fill="none" /><path id="167" transform="matrix(1 0 0 -1 0 612)" d="M316.125 498.3047L483.8549 498.3047" stroke="#000000" stroke-width="0.7017334" fill="none" /><path id="208" transform="matrix(1 0 0 -1 0 612)" d="M316.125 485.2158L510.0173 485.2158" stroke="#000000" stroke-width="0.7017334" fill="none" /><path id="260" transform="matrix(1 0 0 -1 0 612)" d="M316.125 468.3047L510.6354 468.3047" stroke="#000000" stroke-width="0.7017334" fill="none" /><path id="273" transform="matrix(1 0 0 -1 0 612)" d="M316.125 455.2158L363.691 455.2158" stroke="#000000" stroke-width="0.7017334" fill="none" /><path id="332" transform="matrix(1 0 0 -1 0 612)" d="M316.125 438.6436L531.9132 438.6436" stroke="#000000" stroke-width="0.7017334" fill="none" /><path id="372" transform="matrix(1 0 0 -1 0 612)" d="M316.125 425.5547L519.0805 425.5547" stroke="#000000" stroke-width="0.7017334" fill="none" /><path id="389" transform="matrix(1 0 0 -1 0 612)" d="M316.125 412.4658L392.9952 412.4658" stroke="#000000" stroke-width="0.7017334" fill="none" /><path id="445" transform="matrix(1 0 0 -1 0 612)" d="M316.125 382.4658L461.462 382.4658" stroke="#000000" stroke-width="0.7017334" fill="none" /><path id="505" transform="matrix(1 0 0 -1 0 612)" d="M316.125 365.8936L524.5047 365.8936" stroke="#000000" stroke-width="0.7017334" fill="none" /><path id="548" transform="matrix(1 0 0 -1 0 612)" d="M316.125 352.8047L533.1174 352.8047" stroke="#000000" stroke-width="0.7017334" fill="none" /><path id="554" transform="matrix(1 0 0 -1 0 612)" d="M316.125 339.7158L341.1777 339.7158" stroke="#000000" stroke-width="0.7017334" fill="none" /><path id="605" transform="matrix(1 0 0 -1 0 612)" d="M316.125 322.8047L520.6199 322.8047" stroke="#000000" stroke-width="0.7017334" fill="none" /><path id="612" transform="matrix(1 0 0 -1 0 612)" d="M316.125 309.7158L345.3348 309.7158" stroke="#000000" stroke-width="0.7017334" fill="none" /><path id="661" transform="matrix(1 0 0 -1 0 612)" d="M316.125 293.1436L503.9804 293.1436" stroke="#000000" stroke-width="0.7017334" fill="none" /><path id="693" transform="matrix(1 0 0 -1 0 612)" d="M316.125 280.0547L516.9497 280.0547" stroke="#000000" stroke-width="0.7017334" fill="none" /><path id="701" transform="matrix(1 0 0 -1 0 612)" d="M316.125 266.9658L353.2302 266.9658" stroke="#000000" stroke-width="0.7017334" fill="none" /><path id="755" transform="matrix(1 0 0 -1 0 612)" d="M316.125 250.0547L516.1224 250.0547" stroke="#000000" stroke-width="0.7017334" fill="none" /><path id="764" transform="matrix(1 0 0 -1 0 612)" d="M316.125 236.9658L353.225 236.9658" stroke="#000000" stroke-width="0.7017334" fill="none" /><path id="820" transform="matrix(1 0 0 -1 0 612)" d="M316.125 220.0547L526.3896 220.0547" stroke="#000000" stroke-width="0.7017334" fill="none" /><path id="843" transform="matrix(1 0 0 -1 0 612)" d="M316.125 206.9658L433.5821 206.9658" stroke="#000000" stroke-width="0.7017334" fill="none" /><path id="901" transform="matrix(1 0 0 -1 0 612)" d="M316.125 190.0547L530.4054 190.0547" stroke="#000000" stroke-width="0.7017334" fill="none" /><path id="917" transform="matrix(1 0 0 -1 0 612)" d="M316.125 176.9658L390.4872 176.9658" stroke="#000000" stroke-width="0.7017334" fill="none" /><path id="982" transform="matrix(1 0 0 -1 0 612)" d="M316.125 147.3047L507.3998 147.3047" stroke="#000000" stroke-width="0.7017334" fill="none" /><path id="996" transform="matrix(1 0 0 -1 0 612)" d="M316.125 134.2158L377.885 134.2158" stroke="#000000" stroke-width="0.7017334" fill="none" /><path id="1055" transform="matrix(1 0 0 -1 0 612)" d="M316.125 117.3047L518.9392 117.3047" stroke="#000000" stroke-width="0.7017334" fill="none" /><path id="1062" transform="matrix(1 0 0 -1 0 612)" d="M316.125 104.2158L343.1358 104.2158" stroke="#000000" stroke-width="0.7017334" fill="none" /><path id="1121" transform="matrix(1 0 0 -1 0 612)" d="M316.125 87.30469L531.5468 87.30469" stroke="#000000" stroke-width="0.7017334" fill="none" /><path id="1160" transform="matrix(1 0 0 -1 0 612)" d="M316.125 74.21582L509.9076 74.21582" stroke="#000000" stroke-width="0.7017334" fill="none" /></g></g></g></svg>