<svg xmlns="http://www.w3.org/2000/svg" xmlns:xlink="http://www.w3.org/1999/xlink" id="body_1" preserveAspectRatio="xMinYMin meet" viewBox="0 0 1056 816"><defs><clipPath id="1"><path id="" clip-rule="evenodd" transform="matrix(1 0 0 1 0 0)" d="M0 612L0 0L0 0L792 0L792 0L792 612L792 612L0 612z" /></clipPath><clipPath id="2"><path id="" clip-rule="evenodd" transform="matrix(1 0 0 1 0 0)" d="M205.125 52.5L586.875 52.5L586.875 52.5L586.875 524.25L586.875 524.25L205.125 524.25L205.125 524.25L205.125 52.5z" /></clipPath></defs><g transform="matrix(1.333333 0 0 1.333333 0 0)"><g clip-path="url(#1)"><g clip-path="url(#2)"><path id="1" transform="matrix(1 0 0 -1 0 612)" d="M205.875 558.75L586.125 558.75L586.125 541.5L205.875 541.5L205.875 558.75z" stroke="none" fill="#4DD0E1" fill-rule="nonzero" /><path id="2" transform="matrix(1 0 0 -1 0 612)" d="M205.875 542.25L586.125 542.25L586.125 525L205.875 525L205.875 542.25z" stroke="none" fill="#FFFFFF" fill-rule="nonzero" /><path id="3" transform="matrix(1 0 0 -1 0 612)" d="M205.875 525.75L586.125 525.75L586.125 482.25L205.875 482.25L205.875 525.75z" stroke="none" fill="#E0F7FA" fill-rule="nonzero" /><path id="4" transform="matrix(1 0 0 -1 0 612)" d="M205.875 483L586.125 483L586.125 465.75L205.875 465.75L205.875 483z" stroke="none" fill="#FFFFFF" fill-rule="nonzero" /><path id="5" transform="matrix(1 0 0 -1 0 612)" d="M205.875 466.5L586.125 466.5L586.125 435.75L205.875 435.75L205.875 466.5z" stroke="none" fill="#E0F7FA" fill-rule="nonzero" /><path id="6" transform="matrix(1 0 0 -1 0 612)" d="M205.875 436.5L586.125 436.5L586.125 393L205.875 393L205.875 436.5z" stroke="none" fill="#FFFFFF" fill-rule="nonzero" /><path id="7" transform="matrix(1 0 0 -1 0 612)" d="M205.875 393.75L586.125 393.75L586.125 363L205.875 363L205.875 393.75z" stroke="none" fill="#E0F7FA" fill-rule="nonzero" /><path id="8" transform="matrix(1 0 0 -1 0 612)" d="M205.875 363.75L586.125 363.75L586.125 320.25L205.875 320.25L205.875 363.75z" stroke="none" fill="#FFFFFF" fill-rule="nonzero" /><path id="9" transform="matrix(1 0 0 -1 0 612)" d="M205.875 321L586.125 321L586.125 290.25L205.875 290.25L205.875 321z" stroke="none" fill="#E0F7FA" fill-rule="nonzero" /><path id="10" transform="matrix(1 0 0 -1 0 612)" d="M205.875 291L586.125 291L586.125 247.5L205.875 247.5L205.875 291z" stroke="none" fill="#FFFFFF" fill-rule="nonzero" /><path id="11" transform="matrix(1 0 0 -1 0 612)" d="M205.875 248.25L586.125 248.25L586.125 191.25L205.875 191.25L205.875 248.25z" stroke="none" fill="#E0F7FA" fill-rule="nonzero" /><path id="12" transform="matrix(1 0 0 -1 0 612)" d="M205.875 192L586.125 192L586.125 161.25L205.875 161.25L205.875 192z" stroke="none" fill="#FFFFFF" fill-rule="nonzero" /><path id="13" transform="matrix(1 0 0 -1 0 612)" d="M205.875 162L586.125 162L586.125 131.25L205.875 131.25L205.875 162z" stroke="none" fill="#E0F7FA" fill-rule="nonzero" /><path id="14" transform="matrix(1 0 0 -1 0 612)" d="M205.875 132L586.125 132L586.125 88.5L205.875 88.5L205.875 132z" stroke="none" fill="#FFFFFF" fill-rule="nonzero" /><path id="15" transform="matrix(1 0 0 -1 0 612)" d="M205.875 89.25L586.125 89.25L586.125 88.5L205.875 88.5zM205.875 132L586.125 132L586.125 131.25L205.875 131.25zM205.875 162L586.125 162L586.125 161.25L205.875 161.25zM205.875 192L586.125 192L586.125 191.25L205.875 191.25zM205.875 248.25L586.125 248.25L586.125 247.5L205.875 247.5zM205.875 291L586.125 291L586.125 290.25L205.875 290.25zM205.875 321L586.125 321L586.125 320.25L205.875 320.25zM205.875 363.75L586.125 363.75L586.125 363L205.875 363zM205.875 393.75L586.125 393.75L586.125 393L205.875 393zM205.875 436.5L586.125 436.5L586.125 435.75L205.875 435.75zM205.875 466.5L586.125 466.5L586.125 465.75L205.875 465.75zM205.875 483L586.125 483L586.125 482.25L205.875 482.25zM205.875 525.75L586.125 525.75L586.125 525L205.875 525zM205.875 542.25L586.125 542.25L586.125 541.5L205.875 541.5zM205.875 558.75L586.125 558.75L586.125 558L205.875 558zM586.125 131.25L586.125 89.25L585.375 89.25L585.375 131.25zM586.125 161.25L586.125 132L585.375 132L585.375 161.25zM586.125 191.25L586.125 162L585.375 162L585.375 191.25zM586.125 247.5L586.125 192L585.375 192L585.375 247.5zM586.125 290.25L586.125 248.25L585.375 248.25L585.375 290.25zM586.125 320.25L586.125 291L585.375 291L585.375 320.25zM586.125 363L586.125 321L585.375 321L585.375 363zM586.125 393L586.125 363.75L585.375 363.75L585.375 393zM586.125 435.75L586.125 393.75L585.375 393.75L585.375 435.75zM586.125 465.75L586.125 436.5L585.375 436.5L585.375 465.75zM586.125 482.25L586.125 466.5L585.375 466.5L585.375 482.25zM586.125 525L586.125 483L585.375 483L585.375 525zM586.125 541.5L586.125 525.75L585.375 525.75L585.375 541.5zM586.125 558L586.125 542.25L585.375 542.25L585.375 558zM544.125 131.25L544.125 89.25L543.375 89.25L543.375 131.25zM544.125 161.25L544.125 132L543.375 132L543.375 161.25zM544.125 191.25L544.125 162L543.375 162L543.375 191.25zM544.125 247.5L544.125 192L543.375 192L543.375 247.5zM544.125 290.25L544.125 248.25L543.375 248.25L543.375 290.25zM544.125 320.25L544.125 291L543.375 291L543.375 320.25zM544.125 363L544.125 321L543.375 321L543.375 363zM544.125 393L544.125 363.75L543.375 363.75L543.375 393zM544.125 435.75L544.125 393.75L543.375 393.75L543.375 435.75zM544.125 465.75L544.125 436.5L543.375 436.5L543.375 465.75zM544.125 482.25L544.125 466.5L543.375 466.5L543.375 482.25zM544.125 525L544.125 483L543.375 483L543.375 525zM544.125 541.5L544.125 525.75L543.375 525.75L543.375 541.5zM544.125 558L544.125 542.25L543.375 542.25L543.375 558zM313.875 131.25L313.875 89.25L313.125 89.25L313.125 131.25zM313.875 161.25L313.875 132L313.125 132L313.125 161.25zM313.875 191.25L313.875 162L313.125 162L313.125 191.25zM313.875 247.5L313.875 192L313.125 192L313.125 247.5zM313.875 290.25L313.875 248.25L313.125 248.25L313.125 290.25zM313.875 320.25L313.875 291L313.125 291L313.125 320.25zM313.875 363L313.875 321L313.125 321L313.125 363zM313.875 393L313.875 363.75L313.125 363.75L313.125 393zM313.875 435.75L313.875 393.75L313.125 393.75L313.125 435.75zM313.875 465.75L313.875 436.5L313.125 436.5L313.125 465.75zM313.875 482.25L313.875 466.5L313.125 466.5L313.125 482.25zM313.875 525L313.875 483L313.125 483L313.125 525zM313.875 541.5L313.875 525.75L313.125 525.75L313.125 541.5zM313.875 558L313.875 542.25L313.125 542.25L313.125 558zM251.625 131.25L251.625 89.25L250.875 89.25L250.875 131.25zM251.625 161.25L251.625 132L250.875 132L250.875 161.25zM251.625 191.25L251.625 162L250.875 162L250.875 191.25zM251.625 247.5L251.625 192L250.875 192L250.875 247.5zM251.625 290.25L251.625 248.25L250.875 248.25L250.875 290.25zM251.625 320.25L251.625 291L250.875 291L250.875 320.25zM251.625 363L251.625 321L250.875 321L250.875 363zM251.625 393L251.625 363.75L250.875 363.75L250.875 393zM251.625 435.75L251.625 393.75L250.875 393.75L250.875 435.75zM251.625 465.75L251.625 436.5L250.875 436.5L250.875 465.75zM251.625 482.25L251.625 466.5L250.875 466.5L250.875 482.25zM251.625 525L251.625 483L250.875 483L250.875 525zM251.625 541.5L251.625 525.75L250.875 525.75L250.875 541.5zM251.625 558L251.625 542.25L250.875 542.25L250.875 558zM206.625 131.25L206.625 89.25L205.875 89.25L205.875 131.25zM206.625 161.25L206.625 132L205.875 132L205.875 161.25zM206.625 191.25L206.625 162L205.875 162L205.875 191.25zM206.625 247.5L206.625 192L205.875 192L205.875 247.5zM206.625 290.25L206.625 248.25L205.875 248.25L205.875 290.25zM206.625 320.25L206.625 291L205.875 291L205.875 320.25zM206.625 363L206.625 321L205.875 321L205.875 363zM206.625 393L206.625 363.75L205.875 363.75L205.875 393zM206.625 435.75L206.625 393.75L205.875 393.75L205.875 435.75zM206.625 465.75L206.625 436.5L205.875 436.5L205.875 465.75zM206.625 482.25L206.625 466.5L205.875 466.5L205.875 482.25zM206.625 525L206.625 483L205.875 483L205.875 525zM206.625 541.5L206.625 525.75L205.875 525.75L205.875 541.5zM206.625 558L206.625 542.25L205.875 542.25L205.875 558z" stroke="none" fill="#000000" fill-rule="nonzero" fill-opacity="0.1490196" /><path id="75" transform="matrix(1 0 0 -1 0 612)" d="M316.125 528.7157L452.4724 528.7157" stroke="#000000" stroke-width="0.7017334" fill="none" /><path id="135" transform="matrix(1 0 0 -1 0 612)" d="M316.125 512.1441L529.9969 512.1441" stroke="#000000" stroke-width="0.7017334" fill="none" /><path id="178" transform="matrix(1 0 0 -1 0 612)" d="M316.125 499.0549L519.3947 499.0549" stroke="#000000" stroke-width="0.7017334" fill="none" /><path id="193" transform="matrix(1 0 0 -1 0 612)" d="M316.125 485.9657L380.5919 485.9657" stroke="#000000" stroke-width="0.7017334" fill="none" /><path id="250" transform="matrix(1 0 0 -1 0 612)" d="M316.125 469.4657L506.0071 469.4657" stroke="#000000" stroke-width="0.7017334" fill="none" /><path id="309" transform="matrix(1 0 0 -1 0 612)" d="M316.125 452.5549L538.0388 452.5549" stroke="#000000" stroke-width="0.7017334" fill="none" /><path id="352" transform="matrix(1 0 0 -1 0 612)" d="M316.125 439.4657L525.8763 439.4657" stroke="#000000" stroke-width="0.7017334" fill="none" /><path id="406" transform="matrix(1 0 0 -1 0 612)" d="M316.125 422.8941L509.2111 422.8941" stroke="#000000" stroke-width="0.7017334" fill="none" /><path id="448" transform="matrix(1 0 0 -1 0 612)" d="M316.125 409.8049L520.6512 409.8049" stroke="#000000" stroke-width="0.7017334" fill="none" /><path id="453" transform="matrix(1 0 0 -1 0 612)" d="M316.125 396.7157L337.8635 396.7157" stroke="#000000" stroke-width="0.7017334" fill="none" /><path id="520" transform="matrix(1 0 0 -1 0 612)" d="M316.125 379.8049L493.6508 379.8049" stroke="#000000" stroke-width="0.7017334" fill="none" /><path id="555" transform="matrix(1 0 0 -1 0 612)" d="M316.125 366.7157L474.3261 366.7157" stroke="#000000" stroke-width="0.7017334" fill="none" /><path id="618" transform="matrix(1 0 0 -1 0 612)" d="M316.125 337.0549L526.243 337.0549" stroke="#000000" stroke-width="0.7017334" fill="none" /><path id="624" transform="matrix(1 0 0 -1 0 612)" d="M316.125 323.9657L341.6122 323.9657" stroke="#000000" stroke-width="0.7017334" fill="none" /><path id="680" transform="matrix(1 0 0 -1 0 612)" d="M316.125 307.0549L493.1272 307.0549" stroke="#000000" stroke-width="0.7017334" fill="none" /><path id="717" transform="matrix(1 0 0 -1 0 612)" d="M316.125 293.9657L497.0855 293.9657" stroke="#000000" stroke-width="0.7017334" fill="none" /><path id="785" transform="matrix(1 0 0 -1 0 612)" d="M316.125 277.3941L540.1332 277.3941" stroke="#000000" stroke-width="0.7017334" fill="none" /><path id="832" transform="matrix(1 0 0 -1 0 612)" d="M316.125 264.3049L535.4733 264.3049" stroke="#000000" stroke-width="0.7017334" fill="none" /><path id="839" transform="matrix(1 0 0 -1 0 612)" d="M316.125 251.2157L345.8008 251.2157" stroke="#000000" stroke-width="0.7017334" fill="none" /><path id="911" transform="matrix(1 0 0 -1 0 612)" d="M316.125 194.9657L520.1747 194.9657" stroke="#000000" stroke-width="0.7017334" fill="none" /><path id="973" transform="matrix(1 0 0 -1 0 612)" d="M316.125 178.0549L539.9553 178.0549" stroke="#000000" stroke-width="0.7017334" fill="none" /><path id="1012" transform="matrix(1 0 0 -1 0 612)" d="M316.125 164.9657L515.3634 164.9657" stroke="#000000" stroke-width="0.7017334" fill="none" /><path id="1075" transform="matrix(1 0 0 -1 0 612)" d="M316.125 148.0549L536.0128 148.0549" stroke="#000000" stroke-width="0.7017334" fill="none" /><path id="1094" transform="matrix(1 0 0 -1 0 612)" d="M316.125 134.9657L404.1889 134.9657" stroke="#000000" stroke-width="0.7017334" fill="none" /><path id="1157" transform="matrix(1 0 0 -1 0 612)" d="M316.125 105.3049L532.9708 105.3049" stroke="#000000" stroke-width="0.7017334" fill="none" /><path id="1166" transform="matrix(1 0 0 -1 0 612)" d="M316.125 92.2157L358.6963 92.2157" stroke="#000000" stroke-width="0.7017334" fill="none" /></g></g></g></svg>