<svg xmlns="http://www.w3.org/2000/svg" xmlns:xlink="http://www.w3.org/1999/xlink" id="body_36" preserveAspectRatio="xMinYMin meet" viewBox="0 0 1056 816"><defs><clipPath id="1"><path id="" clip-rule="evenodd" transform="matrix(1 0 0 1 0 0)" d="M0 612L0 0L0 0L792 0L792 0L792 612L792 612L0 612z" /></clipPath><clipPath id="2"><path id="" clip-rule="evenodd" transform="matrix(1 0 0 1 0 0)" d="M205.125 52.5L586.875 52.5L586.875 52.5L586.875 69.75L586.875 69.75L205.125 69.75L205.125 69.75L205.125 52.5z" /></clipPath><clipPath id="3"><path id="" clip-rule="evenodd" transform="matrix(1 0 0 1 0 0)" d="M205.125 69L586.875 69L586.875 69L586.875 537.75L586.875 537.75L205.125 537.75L205.125 537.75L205.125 69z" /></clipPath></defs><g transform="matrix(1.333333 0 0 1.333333 0 0)"><g clip-path="url(#1)"><g clip-path="url(#2)"><path id="1" transform="matrix(1 0 0 -1 0 612)" d="M205.875 558.75L586.125 558.75L586.125 541.5L205.875 541.5L205.875 558.75z" stroke="none" fill="#4DD0E1" fill-rule="nonzero" /><path id="2" transform="matrix(1 0 0 -1 0 612)" d="M205.875 542.25L586.125 542.25L586.125 541.5L205.875 541.5zM205.875 558.75L586.125 558.75L586.125 558L205.875 558zM586.125 558L586.125 542.25L585.375 542.25L585.375 558zM544.125 558L544.125 542.25L543.375 542.25L543.375 558zM313.875 558L313.875 542.25L313.125 542.25L313.125 558zM251.625 558L251.625 542.25L250.875 542.25L250.875 558zM206.625 558L206.625 542.25L205.875 542.25L205.875 558z" stroke="none" fill="#000000" fill-rule="nonzero" fill-opacity="0.1490196" /></g><g clip-path="url(#3)"><path id="24" transform="matrix(1 0 0 -1 0 612)" d="M205.875 542.25L586.125 542.25L586.125 498.75L205.875 498.75L205.875 542.25z" stroke="none" fill="#E0F7FA" fill-rule="nonzero" /><path id="25" transform="matrix(1 0 0 -1 0 612)" d="M205.875 499.5L586.125 499.5L586.125 456L205.875 456L205.875 499.5z" stroke="none" fill="#FFFFFF" fill-rule="nonzero" /><path id="26" transform="matrix(1 0 0 -1 0 612)" d="M205.875 456.75L586.125 456.75L586.125 439.5L205.875 439.5L205.875 456.75z" stroke="none" fill="#E0F7FA" fill-rule="nonzero" /><path id="27" transform="matrix(1 0 0 -1 0 612)" d="M205.875 440.25L586.125 440.25L586.125 409.5L205.875 409.5L205.875 440.25z" stroke="none" fill="#FFFFFF" fill-rule="nonzero" /><path id="28" transform="matrix(1 0 0 -1 0 612)" d="M205.875 410.25L586.125 410.25L586.125 379.5L205.875 379.5L205.875 410.25z" stroke="none" fill="#E0F7FA" fill-rule="nonzero" /><path id="29" transform="matrix(1 0 0 -1 0 612)" d="M205.875 380.25L586.125 380.25L586.125 349.5L205.875 349.5L205.875 380.25z" stroke="none" fill="#FFFFFF" fill-rule="nonzero" /><path id="30" transform="matrix(1 0 0 -1 0 612)" d="M205.875 350.25L586.125 350.25L586.125 293.25L205.875 293.25L205.875 350.25z" stroke="none" fill="#E0F7FA" fill-rule="nonzero" /><path id="31" transform="matrix(1 0 0 -1 0 612)" d="M205.875 294L586.125 294L586.125 263.25L205.875 263.25L205.875 294z" stroke="none" fill="#FFFFFF" fill-rule="nonzero" /><path id="32" transform="matrix(1 0 0 -1 0 612)" d="M205.875 264L586.125 264L586.125 220.5L205.875 220.5L205.875 264z" stroke="none" fill="#E0F7FA" fill-rule="nonzero" /><path id="33" transform="matrix(1 0 0 -1 0 612)" d="M205.875 221.25L586.125 221.25L586.125 177.75L205.875 177.75L205.875 221.25z" stroke="none" fill="#FFFFFF" fill-rule="nonzero" /><path id="34" transform="matrix(1 0 0 -1 0 612)" d="M205.875 178.5L586.125 178.5L586.125 147.75L205.875 147.75L205.875 178.5z" stroke="none" fill="#E0F7FA" fill-rule="nonzero" /><path id="35" transform="matrix(1 0 0 -1 0 612)" d="M205.875 148.5L586.125 148.5L586.125 105L205.875 105L205.875 148.5z" stroke="none" fill="#FFFFFF" fill-rule="nonzero" /><path id="36" transform="matrix(1 0 0 -1 0 612)" d="M205.875 105.75L586.125 105.75L586.125 75L205.875 75L205.875 105.75z" stroke="none" fill="#E0F7FA" fill-rule="nonzero" /><path id="37" transform="matrix(1 0 0 -1 0 612)" d="M205.875 75.75L586.125 75.75L586.125 75L205.875 75zM205.875 105.75L586.125 105.75L586.125 105L205.875 105zM205.875 148.5L586.125 148.5L586.125 147.75L205.875 147.75zM205.875 178.5L586.125 178.5L586.125 177.75L205.875 177.75zM205.875 221.25L586.125 221.25L586.125 220.5L205.875 220.5zM205.875 264L586.125 264L586.125 263.25L205.875 263.25zM205.875 294L586.125 294L586.125 293.25L205.875 293.25zM205.875 350.25L586.125 350.25L586.125 349.5L205.875 349.5zM205.875 380.25L586.125 380.25L586.125 379.5L205.875 379.5zM205.875 410.25L586.125 410.25L586.125 409.5L205.875 409.5zM205.875 440.25L586.125 440.25L586.125 439.5L205.875 439.5zM205.875 456.75L586.125 456.75L586.125 456L205.875 456zM205.875 499.5L586.125 499.5L586.125 498.75L205.875 498.75zM205.875 542.25L586.125 542.25L586.125 541.5L205.875 541.5zM586.125 105L586.125 75.75L585.375 75.75L585.375 105zM586.125 147.75L586.125 105.75L585.375 105.75L585.375 147.75zM586.125 177.75L586.125 148.5L585.375 148.5L585.375 177.75zM586.125 220.5L586.125 178.5L585.375 178.5L585.375 220.5zM586.125 263.25L586.125 221.25L585.375 221.25L585.375 263.25zM586.125 293.25L586.125 264L585.375 264L585.375 293.25zM586.125 349.5L586.125 294L585.375 294L585.375 349.5zM586.125 379.5L586.125 350.25L585.375 350.25L585.375 379.5zM586.125 409.5L586.125 380.25L585.375 380.25L585.375 409.5zM586.125 439.5L586.125 410.25L585.375 410.25L585.375 439.5zM586.125 456L586.125 440.25L585.375 440.25L585.375 456zM586.125 498.75L586.125 456.75L585.375 456.75L585.375 498.75zM586.125 541.5L586.125 499.5L585.375 499.5L585.375 541.5zM544.125 105L544.125 75.75L543.375 75.75L543.375 105zM544.125 147.75L544.125 105.75L543.375 105.75L543.375 147.75zM544.125 177.75L544.125 148.5L543.375 148.5L543.375 177.75zM544.125 220.5L544.125 178.5L543.375 178.5L543.375 220.5zM544.125 263.25L544.125 221.25L543.375 221.25L543.375 263.25zM544.125 293.25L544.125 264L543.375 264L543.375 293.25zM544.125 349.5L544.125 294L543.375 294L543.375 349.5zM544.125 379.5L544.125 350.25L543.375 350.25L543.375 379.5zM544.125 409.5L544.125 380.25L543.375 380.25L543.375 409.5zM544.125 439.5L544.125 410.25L543.375 410.25L543.375 439.5zM544.125 456L544.125 440.25L543.375 440.25L543.375 456zM544.125 498.75L544.125 456.75L543.375 456.75L543.375 498.75zM544.125 541.5L544.125 499.5L543.375 499.5L543.375 541.5zM313.875 105L313.875 75.75L313.125 75.75L313.125 105zM313.875 147.75L313.875 105.75L313.125 105.75L313.125 147.75zM313.875 177.75L313.875 148.5L313.125 148.5L313.125 177.75zM313.875 220.5L313.875 178.5L313.125 178.5L313.125 220.5zM313.875 263.25L313.875 221.25L313.125 221.25L313.125 263.25zM313.875 293.25L313.875 264L313.125 264L313.125 293.25zM313.875 349.5L313.875 294L313.125 294L313.125 349.5zM313.875 379.5L313.875 350.25L313.125 350.25L313.125 379.5zM313.875 409.5L313.875 380.25L313.125 380.25L313.125 409.5zM313.875 439.5L313.875 410.25L313.125 410.25L313.125 439.5zM313.875 456L313.875 440.25L313.125 440.25L313.125 456zM313.875 498.75L313.875 456.75L313.125 456.75L313.125 498.75zM313.875 541.5L313.875 499.5L313.125 499.5L313.125 541.5zM251.625 105L251.625 75.75L250.875 75.75L250.875 105zM251.625 147.75L251.625 105.75L250.875 105.75L250.875 147.75zM251.625 177.75L251.625 148.5L250.875 148.5L250.875 177.75zM251.625 220.5L251.625 178.5L250.875 178.5L250.875 220.5zM251.625 263.25L251.625 221.25L250.875 221.25L250.875 263.25zM251.625 293.25L251.625 264L250.875 264L250.875 293.25zM251.625 349.5L251.625 294L250.875 294L250.875 349.5zM251.625 379.5L251.625 350.25L250.875 350.25L250.875 379.5zM251.625 409.5L251.625 380.25L250.875 380.25L250.875 409.5zM251.625 439.5L251.625 410.25L250.875 410.25L250.875 439.5zM251.625 456L251.625 440.25L250.875 440.25L250.875 456zM251.625 498.75L251.625 456.75L250.875 456.75L250.875 498.75zM251.625 541.5L251.625 499.5L250.875 499.5L250.875 541.5zM206.625 105L206.625 75.75L205.875 75.75L205.875 105zM206.625 147.75L206.625 105.75L205.875 105.75L205.875 147.75zM206.625 177.75L206.625 148.5L205.875 148.5L205.875 177.75zM206.625 220.5L206.625 178.5L205.875 178.5L205.875 220.5zM206.625 263.25L206.625 221.25L205.875 221.25L205.875 263.25zM206.625 293.25L206.625 264L205.875 264L205.875 293.25zM206.625 349.5L206.625 294L205.875 294L205.875 349.5zM206.625 379.5L206.625 350.25L205.875 350.25L205.875 379.5zM206.625 409.5L206.625 380.25L205.875 380.25L205.875 409.5zM206.625 439.5L206.625 410.25L205.875 410.25L205.875 439.5zM206.625 456L206.625 440.25L205.875 440.25L205.875 456zM206.625 498.75L206.625 456.75L205.875 456.75L205.875 498.75zM206.625 541.5L206.625 499.5L205.875 499.5L205.875 541.5z" stroke="none" fill="#000000" fill-rule="nonzero" fill-opacity="0.1490196" /><path id="86" transform="matrix(1 0 0 -1 0 612)" d="M316.125 528.6445L502.3893 528.6445" stroke="#000000" stroke-width="0.7017334" fill="none" /><path id="128" transform="matrix(1 0 0 -1 0 612)" d="M316.125 515.5566L515.6879 515.5566" stroke="#000000" stroke-width="0.7017334" fill="none" /><path id="134" transform="matrix(1 0 0 -1 0 612)" d="M316.125 502.4668L343.2982 502.4668" stroke="#000000" stroke-width="0.7017334" fill="none" /><path id="176" transform="matrix(1 0 0 -1 0 612)" d="M316.125 485.8945L474.5668 485.8945" stroke="#000000" stroke-width="0.7017334" fill="none" /><path id="213" transform="matrix(1 0 0 -1 0 612)" d="M316.125 472.8066L538.1958 472.8066" stroke="#000000" stroke-width="0.7017334" fill="none" /><path id="221" transform="matrix(1 0 0 -1 0 612)" d="M316.125 459.7168L353.0365 459.7168" stroke="#000000" stroke-width="0.7017334" fill="none" /><path id="269" transform="matrix(1 0 0 -1 0 612)" d="M316.125 443.2168L501.8342 443.2168" stroke="#000000" stroke-width="0.7017334" fill="none" /><path id="333" transform="matrix(1 0 0 -1 0 612)" d="M316.125 426.3066L534.0964 426.3066" stroke="#000000" stroke-width="0.7017334" fill="none" /><path id="355" transform="matrix(1 0 0 -1 0 612)" d="M316.125 413.2168L428.5557 413.2168" stroke="#000000" stroke-width="0.7017334" fill="none" /><path id="413" transform="matrix(1 0 0 -1 0 612)" d="M316.125 396.3066L524.4681 396.3066" stroke="#000000" stroke-width="0.7017334" fill="none" /><path id="431" transform="matrix(1 0 0 -1 0 612)" d="M316.125 383.2168L397.6444 383.2168" stroke="#000000" stroke-width="0.7017334" fill="none" /><path id="490" transform="matrix(1 0 0 -1 0 612)" d="M316.125 366.3066L522.7716 366.3066" stroke="#000000" stroke-width="0.7017334" fill="none" /><path id="509" transform="matrix(1 0 0 -1 0 612)" d="M316.125 353.2168L399.1418 353.2168" stroke="#000000" stroke-width="0.7017334" fill="none" /><path id="579" transform="matrix(1 0 0 -1 0 612)" d="M316.125 336.2344L484.0905 336.2344" stroke="#000000" stroke-width="0.7017334" fill="none" /><path id="613" transform="matrix(1 0 0 -1 0 612)" d="M316.125 323.1445L484.8392 323.1445" stroke="#000000" stroke-width="0.7017334" fill="none" /><path id="652" transform="matrix(1 0 0 -1 0 612)" d="M316.125 310.0566L528.1487 310.0566" stroke="#000000" stroke-width="0.7017334" fill="none" /><path id="670" transform="matrix(1 0 0 -1 0 612)" d="M316.125 296.9668L405.4927 296.9668" stroke="#000000" stroke-width="0.7017334" fill="none" /><path id="727" transform="matrix(1 0 0 -1 0 612)" d="M316.125 280.0566L538.8871 280.0566" stroke="#000000" stroke-width="0.7017334" fill="none" /><path id="761" transform="matrix(1 0 0 -1 0 612)" d="M316.125 266.9668L461.6347 266.9668" stroke="#000000" stroke-width="0.7017334" fill="none" /><path id="829" transform="matrix(1 0 0 -1 0 612)" d="M316.125 250.3945L534.7823 250.3945" stroke="#000000" stroke-width="0.7017334" fill="none" /><path id="870" transform="matrix(1 0 0 -1 0 612)" d="M316.125 237.3066L530.6145 237.3066" stroke="#000000" stroke-width="0.7017334" fill="none" /><path id="892" transform="matrix(1 0 0 -1 0 612)" d="M316.125 224.2168L422.2206 224.2168" stroke="#000000" stroke-width="0.7017334" fill="none" /><path id="951" transform="matrix(1 0 0 -1 0 612)" d="M316.125 207.6445L536.5886 207.6445" stroke="#000000" stroke-width="0.7017334" fill="none" /><path id="986" transform="matrix(1 0 0 -1 0 612)" d="M316.125 194.5566L489.4046 194.5566" stroke="#000000" stroke-width="0.7017334" fill="none" /><path id="1001" transform="matrix(1 0 0 -1 0 612)" d="M316.125 181.4668L384.4977 181.4668" stroke="#000000" stroke-width="0.7017334" fill="none" /><path id="1054" transform="matrix(1 0 0 -1 0 612)" d="M316.125 164.5566L510.5985 164.5566" stroke="#000000" stroke-width="0.7017334" fill="none" /><path id="1080" transform="matrix(1 0 0 -1 0 612)" d="M316.125 151.4668L443.2681 151.4668" stroke="#000000" stroke-width="0.7017334" fill="none" /><path id="1151" transform="matrix(1 0 0 -1 0 612)" d="M316.125 134.8945L537.5416 134.8945" stroke="#000000" stroke-width="0.7017334" fill="none" /><path id="1195" transform="matrix(1 0 0 -1 0 612)" d="M316.125 121.8066L542.2904 121.8066" stroke="#000000" stroke-width="0.7017334" fill="none" /><path id="1209" transform="matrix(1 0 0 -1 0 612)" d="M316.125 108.7168L376.8011 108.7168" stroke="#000000" stroke-width="0.7017334" fill="none" /><path id="1275" transform="matrix(1 0 0 -1 0 612)" d="M316.125 91.80664L492.9178 91.80664" stroke="#000000" stroke-width="0.7017334" fill="none" /><path id="1310" transform="matrix(1 0 0 -1 0 612)" d="M316.125 78.7168L474.3261 78.7168" stroke="#000000" stroke-width="0.7017334" fill="none" /></g></g></g></svg>