<svg xmlns="http://www.w3.org/2000/svg" xmlns:xlink="http://www.w3.org/1999/xlink" id="body_38" preserveAspectRatio="xMinYMin meet" viewBox="0 0 1056 816"><defs><clipPath id="1"><path id="" clip-rule="evenodd" transform="matrix(1 0 0 1 0 0)" d="M0 612L0 0L0 0L792 0L792 0L792 612L792 612L0 612z" /></clipPath><clipPath id="2"><path id="" clip-rule="evenodd" transform="matrix(1 0 0 1 0 0)" d="M205.125 52.5L586.875 52.5L586.875 52.5L586.875 69.75L586.875 69.75L205.125 69.75L205.125 69.75L205.125 52.5z" /></clipPath><clipPath id="3"><path id="" clip-rule="evenodd" transform="matrix(1 0 0 1 0 0)" d="M205.125 69L586.875 69L586.875 69L586.875 533.25L586.875 533.25L205.125 533.25L205.125 533.25L205.125 69z" /></clipPath></defs><g transform="matrix(1.333333 0 0 1.333333 0 0)"><g clip-path="url(#1)"><g clip-path="url(#2)"><path id="1" transform="matrix(1 0 0 -1 0 612)" d="M205.875 558.75L586.125 558.75L586.125 541.5L205.875 541.5L205.875 558.75z" stroke="none" fill="#4DD0E1" fill-rule="nonzero" /><path id="2" transform="matrix(1 0 0 -1 0 612)" d="M205.875 542.25L586.125 542.25L586.125 541.5L205.875 541.5zM205.875 558.75L586.125 558.75L586.125 558L205.875 558zM586.125 558L586.125 542.25L585.375 542.25L585.375 558zM544.125 558L544.125 542.25L543.375 542.25L543.375 558zM313.875 558L313.875 542.25L313.125 542.25L313.125 558zM251.625 558L251.625 542.25L250.875 542.25L250.875 558zM206.625 558L206.625 542.25L205.875 542.25L205.875 558z" stroke="none" fill="#000000" fill-rule="nonzero" fill-opacity="0.1490196" /></g><g clip-path="url(#3)"><path id="24" transform="matrix(1 0 0 -1 0 612)" d="M205.875 542.25L586.125 542.25L586.125 511.5L205.875 511.5L205.875 542.25z" stroke="none" fill="#E0F7FA" fill-rule="nonzero" /><path id="25" transform="matrix(1 0 0 -1 0 612)" d="M205.875 512.25L586.125 512.25L586.125 468.75L205.875 468.75L205.875 512.25z" stroke="none" fill="#FFFFFF" fill-rule="nonzero" /><path id="26" transform="matrix(1 0 0 -1 0 612)" d="M205.875 469.5L586.125 469.5L586.125 426L205.875 426L205.875 469.5z" stroke="none" fill="#E0F7FA" fill-rule="nonzero" /><path id="27" transform="matrix(1 0 0 -1 0 612)" d="M205.875 426.75L586.125 426.75L586.125 409.5L205.875 409.5L205.875 426.75z" stroke="none" fill="#FFFFFF" fill-rule="nonzero" /><path id="28" transform="matrix(1 0 0 -1 0 612)" d="M205.875 410.25L586.125 410.25L586.125 353.25L205.875 353.25L205.875 410.25z" stroke="none" fill="#E0F7FA" fill-rule="nonzero" /><path id="29" transform="matrix(1 0 0 -1 0 612)" d="M205.875 354L586.125 354L586.125 310.5L205.875 310.5L205.875 354z" stroke="none" fill="#FFFFFF" fill-rule="nonzero" /><path id="30" transform="matrix(1 0 0 -1 0 612)" d="M205.875 311.25L586.125 311.25L586.125 267.75L205.875 267.75L205.875 311.25z" stroke="none" fill="#E0F7FA" fill-rule="nonzero" /><path id="31" transform="matrix(1 0 0 -1 0 612)" d="M205.875 268.5L586.125 268.5L586.125 237.75L205.875 237.75L205.875 268.5z" stroke="none" fill="#FFFFFF" fill-rule="nonzero" /><path id="32" transform="matrix(1 0 0 -1 0 612)" d="M205.875 238.5L586.125 238.5L586.125 180L205.875 180L205.875 238.5z" stroke="none" fill="#E0F7FA" fill-rule="nonzero" /><path id="33" transform="matrix(1 0 0 -1 0 612)" d="M205.875 180.75L586.125 180.75L586.125 137.25L205.875 137.25L205.875 180.75z" stroke="none" fill="#FFFFFF" fill-rule="nonzero" /><path id="34" transform="matrix(1 0 0 -1 0 612)" d="M205.875 138L586.125 138L586.125 79.5L205.875 79.5L205.875 138z" stroke="none" fill="#E0F7FA" fill-rule="nonzero" /><path id="35" transform="matrix(1 0 0 -1 0 612)" d="M205.875 80.25L586.125 80.25L586.125 79.5L205.875 79.5zM205.875 138L586.125 138L586.125 137.25L205.875 137.25zM205.875 180.75L586.125 180.75L586.125 180L205.875 180zM205.875 238.5L586.125 238.5L586.125 237.75L205.875 237.75zM205.875 268.5L586.125 268.5L586.125 267.75L205.875 267.75zM205.875 311.25L586.125 311.25L586.125 310.5L205.875 310.5zM205.875 354L586.125 354L586.125 353.25L205.875 353.25zM205.875 410.25L586.125 410.25L586.125 409.5L205.875 409.5zM205.875 426.75L586.125 426.75L586.125 426L205.875 426zM205.875 469.5L586.125 469.5L586.125 468.75L205.875 468.75zM205.875 512.25L586.125 512.25L586.125 511.5L205.875 511.5zM205.875 542.25L586.125 542.25L586.125 541.5L205.875 541.5zM586.125 137.25L586.125 80.25L585.375 80.25L585.375 137.25zM586.125 180L586.125 138L585.375 138L585.375 180zM586.125 237.75L586.125 180.75L585.375 180.75L585.375 237.75zM586.125 267.75L586.125 238.5L585.375 238.5L585.375 267.75zM586.125 310.5L586.125 268.5L585.375 268.5L585.375 310.5zM586.125 353.25L586.125 311.25L585.375 311.25L585.375 353.25zM586.125 409.5L586.125 354L585.375 354L585.375 409.5zM586.125 426L586.125 410.25L585.375 410.25L585.375 426zM586.125 468.75L586.125 426.75L585.375 426.75L585.375 468.75zM586.125 511.5L586.125 469.5L585.375 469.5L585.375 511.5zM586.125 541.5L586.125 512.25L585.375 512.25L585.375 541.5zM544.125 137.25L544.125 80.25L543.375 80.25L543.375 137.25zM544.125 180L544.125 138L543.375 138L543.375 180zM544.125 237.75L544.125 180.75L543.375 180.75L543.375 237.75zM544.125 267.75L544.125 238.5L543.375 238.5L543.375 267.75zM544.125 310.5L544.125 268.5L543.375 268.5L543.375 310.5zM544.125 353.25L544.125 311.25L543.375 311.25L543.375 353.25zM544.125 409.5L544.125 354L543.375 354L543.375 409.5zM544.125 426L544.125 410.25L543.375 410.25L543.375 426zM544.125 468.75L544.125 426.75L543.375 426.75L543.375 468.75zM544.125 511.5L544.125 469.5L543.375 469.5L543.375 511.5zM544.125 541.5L544.125 512.25L543.375 512.25L543.375 541.5zM313.875 137.25L313.875 80.25L313.125 80.25L313.125 137.25zM313.875 180L313.875 138L313.125 138L313.125 180zM313.875 237.75L313.875 180.75L313.125 180.75L313.125 237.75zM313.875 267.75L313.875 238.5L313.125 238.5L313.125 267.75zM313.875 310.5L313.875 268.5L313.125 268.5L313.125 310.5zM313.875 353.25L313.875 311.25L313.125 311.25L313.125 353.25zM313.875 409.5L313.875 354L313.125 354L313.125 409.5zM313.875 426L313.875 410.25L313.125 410.25L313.125 426zM313.875 468.75L313.875 426.75L313.125 426.75L313.125 468.75zM313.875 511.5L313.875 469.5L313.125 469.5L313.125 511.5zM313.875 541.5L313.875 512.25L313.125 512.25L313.125 541.5zM251.625 137.25L251.625 80.25L250.875 80.25L250.875 137.25zM251.625 180L251.625 138L250.875 138L250.875 180zM251.625 237.75L251.625 180.75L250.875 180.75L250.875 237.75zM251.625 267.75L251.625 238.5L250.875 238.5L250.875 267.75zM251.625 310.5L251.625 268.5L250.875 268.5L250.875 310.5zM251.625 353.25L251.625 311.25L250.875 311.25L250.875 353.25zM251.625 409.5L251.625 354L250.875 354L250.875 409.5zM251.625 426L251.625 410.25L250.875 410.25L250.875 426zM251.625 468.75L251.625 426.75L250.875 426.75L250.875 468.75zM251.625 511.5L251.625 469.5L250.875 469.5L250.875 511.5zM251.625 541.5L251.625 512.25L250.875 512.25L250.875 541.5zM206.625 137.25L206.625 80.25L205.875 80.25L205.875 137.25zM206.625 180L206.625 138L205.875 138L205.875 180zM206.625 237.75L206.625 180.75L205.875 180.75L205.875 237.75zM206.625 267.75L206.625 238.5L205.875 238.5L205.875 267.75zM206.625 310.5L206.625 268.5L205.875 268.5L205.875 310.5zM206.625 353.25L206.625 311.25L205.875 311.25L205.875 353.25zM206.625 409.5L206.625 354L205.875 354L205.875 409.5zM206.625 426L206.625 410.25L205.875 410.25L205.875 426zM206.625 468.75L206.625 426.75L205.875 426.75L205.875 468.75zM206.625 511.5L206.625 469.5L205.875 469.5L205.875 511.5zM206.625 541.5L206.625 512.25L205.875 512.25L205.875 541.5z" stroke="none" fill="#000000" fill-rule="nonzero" fill-opacity="0.1490196" /><path id="90" transform="matrix(1 0 0 -1 0 612)" d="M316.125 528.3066L507.5254 528.3066" stroke="#000000" stroke-width="0.7017334" fill="none" /><path id="134" transform="matrix(1 0 0 -1 0 612)" d="M316.125 515.2168L530.5781 515.2168" stroke="#000000" stroke-width="0.7017334" fill="none" /><path id="196" transform="matrix(1 0 0 -1 0 612)" d="M316.125 498.6445L535.0442 498.6445" stroke="#000000" stroke-width="0.7017334" fill="none" /><path id="236" transform="matrix(1 0 0 -1 0 612)" d="M316.125 485.5566L508.2846 485.5566" stroke="#000000" stroke-width="0.7017334" fill="none" /><path id="244" transform="matrix(1 0 0 -1 0 612)" d="M316.125 472.4668L350.9056 472.4668" stroke="#000000" stroke-width="0.7017334" fill="none" /><path id="301" transform="matrix(1 0 0 -1 0 612)" d="M316.125 455.8945L538.882 455.8945" stroke="#000000" stroke-width="0.7017334" fill="none" /><path id="346" transform="matrix(1 0 0 -1 0 612)" d="M316.125 442.8066L537.128 442.8066" stroke="#000000" stroke-width="0.7017334" fill="none" /><path id="380" transform="matrix(1 0 0 -1 0 612)" d="M316.125 429.7168L475.0537 429.7168" stroke="#000000" stroke-width="0.7017334" fill="none" /><path id="432" transform="matrix(1 0 0 -1 0 612)" d="M316.125 413.2168L502.2112 413.2168" stroke="#000000" stroke-width="0.7017334" fill="none" /><path id="504" transform="matrix(1 0 0 -1 0 612)" d="M316.125 370.0566L524.934 370.0566" stroke="#000000" stroke-width="0.7017334" fill="none" /><path id="518" transform="matrix(1 0 0 -1 0 612)" d="M316.125 356.9668L377.885 356.9668" stroke="#000000" stroke-width="0.7017334" fill="none" /><path id="568" transform="matrix(1 0 0 -1 0 612)" d="M316.125 340.3945L496.1639 340.3945" stroke="#000000" stroke-width="0.7017334" fill="none" /><path id="610" transform="matrix(1 0 0 -1 0 612)" d="M316.125 327.3066L526.9761 327.3066" stroke="#000000" stroke-width="0.7017334" fill="none" /><path id="619" transform="matrix(1 0 0 -1 0 612)" d="M316.125 314.2168L347.1149 314.2168" stroke="#000000" stroke-width="0.7017334" fill="none" /><path id="685" transform="matrix(1 0 0 -1 0 612)" d="M316.125 297.6445L532.8557 297.6445" stroke="#000000" stroke-width="0.7017334" fill="none" /><path id="725" transform="matrix(1 0 0 -1 0 612)" d="M316.125 284.5566L517.4155 284.5566" stroke="#000000" stroke-width="0.7017334" fill="none" /><path id="748" transform="matrix(1 0 0 -1 0 612)" d="M316.125 271.4668L420.2887 271.4668" stroke="#000000" stroke-width="0.7017334" fill="none" /><path id="795" transform="matrix(1 0 0 -1 0 612)" d="M316.125 241.4668L444.4722 241.4668" stroke="#000000" stroke-width="0.7017334" fill="none" /><path id="851" transform="matrix(1 0 0 -1 0 612)" d="M316.125 224.6484L532.0332 224.6484" stroke="#000000" stroke-width="0.7017334" fill="none" /><path id="898" transform="matrix(1 0 0 -1 0 612)" d="M316.125 211.5605L536.2795 211.5605" stroke="#000000" stroke-width="0.7017334" fill="none" /><path id="941" transform="matrix(1 0 0 -1 0 612)" d="M316.125 198.4707L515.5567 198.4707" stroke="#000000" stroke-width="0.7017334" fill="none" /><path id="956" transform="matrix(1 0 0 -1 0 612)" d="M316.125 183.7168L389.681 183.7168" stroke="#000000" stroke-width="0.7017334" fill="none" /><path id="958" transform="matrix(1 0 0 -1 0 612)" d="M389.681 183.793L400.4036 183.793" stroke="#000000" stroke-width="0.7855225" fill="none" /><path id="1016" transform="matrix(1 0 0 -1 0 612)" d="M316.125 167.1445L540.7249 167.1445" stroke="#000000" stroke-width="0.7017334" fill="none" /><path id="1061" transform="matrix(1 0 0 -1 0 612)" d="M316.125 154.0566L540.8557 154.0566" stroke="#000000" stroke-width="0.7017334" fill="none" /><path id="1072" transform="matrix(1 0 0 -1 0 612)" d="M316.125 140.9668L361.424 140.9668" stroke="#000000" stroke-width="0.7017334" fill="none" /><path id="1125" transform="matrix(1 0 0 -1 0 612)" d="M316.125 124.1484L528.5464 124.1484" stroke="#000000" stroke-width="0.7017334" fill="none" /><path id="1164" transform="matrix(1 0 0 -1 0 612)" d="M316.125 111.0605L503.6144 111.0605" stroke="#000000" stroke-width="0.7017334" fill="none" /><path id="1208" transform="matrix(1 0 0 -1 0 612)" d="M316.125 97.9707L528.3268 97.9707" stroke="#000000" stroke-width="0.7017334" fill="none" /><path id="1222" transform="matrix(1 0 0 -1 0 612)" d="M316.125 83.2168L382.2777 83.2168" stroke="#000000" stroke-width="0.7017334" fill="none" /><path id="1224" transform="matrix(1 0 0 -1 0 612)" d="M382.2777 83.29297L393.0004 83.29297" stroke="#000000" stroke-width="0.7855225" fill="none" /></g></g></g></svg>