<svg xmlns="http://www.w3.org/2000/svg" xmlns:xlink="http://www.w3.org/1999/xlink" id="body_14" preserveAspectRatio="xMinYMin meet" viewBox="0 0 1056 816"><defs><clipPath id="1"><path id="" clip-rule="evenodd" transform="matrix(1 0 0 1 0 0)" d="M0 612L0 0L0 0L792 0L792 0L792 612L792 612L0 612z" /></clipPath><clipPath id="2"><path id="" clip-rule="evenodd" transform="matrix(1 0 0 1 0 0)" d="M205.125 52.5L586.875 52.5L586.875 52.5L586.875 69.75L586.875 69.75L205.125 69.75L205.125 69.75L205.125 52.5z" /></clipPath><clipPath id="3"><path id="" clip-rule="evenodd" transform="matrix(1 0 0 1 0 0)" d="M205.125 69L586.875 69L586.875 69L586.875 552L586.875 552L205.125 552L205.125 552L205.125 69z" /></clipPath></defs><g transform="matrix(1.333333 0 0 1.333333 0 0)"><g clip-path="url(#1)"><g clip-path="url(#2)"><path id="1" transform="matrix(1 0 0 -1 0 612)" d="M205.875 558.75L586.125 558.75L586.125 541.5L205.875 541.5L205.875 558.75z" stroke="none" fill="#4DD0E1" fill-rule="nonzero" /><path id="2" transform="matrix(1 0 0 -1 0 612)" d="M205.875 542.25L586.125 542.25L586.125 541.5L205.875 541.5zM205.875 558.75L586.125 558.75L586.125 558L205.875 558zM586.125 558L586.125 542.25L585.375 542.25L585.375 558zM544.125 558L544.125 542.25L543.375 542.25L543.375 558zM313.875 558L313.875 542.25L313.125 542.25L313.125 558zM251.625 558L251.625 542.25L250.875 542.25L250.875 558zM206.625 558L206.625 542.25L205.875 542.25L205.875 558z" stroke="none" fill="#000000" fill-rule="nonzero" fill-opacity="0.1490196" /></g><g clip-path="url(#3)"><path id="24" transform="matrix(1 0 0 -1 0 612)" d="M205.875 542.25L586.125 542.25L586.125 483.75L205.875 483.75L205.875 542.25z" stroke="none" fill="#E0F7FA" fill-rule="nonzero" /><path id="25" transform="matrix(1 0 0 -1 0 612)" d="M205.875 484.5L586.125 484.5L586.125 441L205.875 441L205.875 484.5z" stroke="none" fill="#FFFFFF" fill-rule="nonzero" /><path id="26" transform="matrix(1 0 0 -1 0 612)" d="M205.875 441.75L586.125 441.75L586.125 411L205.875 411L205.875 441.75z" stroke="none" fill="#E0F7FA" fill-rule="nonzero" /><path id="27" transform="matrix(1 0 0 -1 0 612)" d="M205.875 411.75L586.125 411.75L586.125 381L205.875 381L205.875 411.75z" stroke="none" fill="#FFFFFF" fill-rule="nonzero" /><path id="28" transform="matrix(1 0 0 -1 0 612)" d="M205.875 381.75L586.125 381.75L586.125 338.25L205.875 338.25L205.875 381.75z" stroke="none" fill="#E0F7FA" fill-rule="nonzero" /><path id="29" transform="matrix(1 0 0 -1 0 612)" d="M205.875 339L586.125 339L586.125 295.5L205.875 295.5L205.875 339z" stroke="none" fill="#FFFFFF" fill-rule="nonzero" /><path id="30" transform="matrix(1 0 0 -1 0 612)" d="M205.875 296.25L586.125 296.25L586.125 265.5L205.875 265.5L205.875 296.25z" stroke="none" fill="#E0F7FA" fill-rule="nonzero" /><path id="31" transform="matrix(1 0 0 -1 0 612)" d="M205.875 266.25L586.125 266.25L586.125 249L205.875 249L205.875 266.25z" stroke="none" fill="#FFFFFF" fill-rule="nonzero" /><path id="32" transform="matrix(1 0 0 -1 0 612)" d="M205.875 249.75L586.125 249.75L586.125 219L205.875 219L205.875 249.75z" stroke="none" fill="#E0F7FA" fill-rule="nonzero" /><path id="33" transform="matrix(1 0 0 -1 0 612)" d="M205.875 219.75L586.125 219.75L586.125 176.25L205.875 176.25L205.875 219.75z" stroke="none" fill="#FFFFFF" fill-rule="nonzero" /><path id="34" transform="matrix(1 0 0 -1 0 612)" d="M205.875 177L586.125 177L586.125 146.25L205.875 146.25L205.875 177z" stroke="none" fill="#E0F7FA" fill-rule="nonzero" /><path id="35" transform="matrix(1 0 0 -1 0 612)" d="M205.875 147L586.125 147L586.125 103.5L205.875 103.5L205.875 147z" stroke="none" fill="#FFFFFF" fill-rule="nonzero" /><path id="36" transform="matrix(1 0 0 -1 0 612)" d="M205.875 104.25L586.125 104.25L586.125 60.75L205.875 60.75L205.875 104.25z" stroke="none" fill="#E0F7FA" fill-rule="nonzero" /><path id="37" transform="matrix(1 0 0 -1 0 612)" d="M205.875 61.5L586.125 61.5L586.125 60.75L205.875 60.75zM205.875 104.25L586.125 104.25L586.125 103.5L205.875 103.5zM205.875 147L586.125 147L586.125 146.25L205.875 146.25zM205.875 177L586.125 177L586.125 176.25L205.875 176.25zM205.875 219.75L586.125 219.75L586.125 219L205.875 219zM205.875 249.75L586.125 249.75L586.125 249L205.875 249zM205.875 266.25L586.125 266.25L586.125 265.5L205.875 265.5zM205.875 296.25L586.125 296.25L586.125 295.5L205.875 295.5zM205.875 339L586.125 339L586.125 338.25L205.875 338.25zM205.875 381.75L586.125 381.75L586.125 381L205.875 381zM205.875 411.75L586.125 411.75L586.125 411L205.875 411zM205.875 441.75L586.125 441.75L586.125 441L205.875 441zM205.875 484.5L586.125 484.5L586.125 483.75L205.875 483.75zM205.875 542.25L586.125 542.25L586.125 541.5L205.875 541.5zM586.125 103.5L586.125 61.5L585.375 61.5L585.375 103.5zM586.125 146.25L586.125 104.25L585.375 104.25L585.375 146.25zM586.125 176.25L586.125 147L585.375 147L585.375 176.25zM586.125 219L586.125 177L585.375 177L585.375 219zM586.125 249L586.125 219.75L585.375 219.75L585.375 249zM586.125 265.5L586.125 249.75L585.375 249.75L585.375 265.5zM586.125 295.5L586.125 266.25L585.375 266.25L585.375 295.5zM586.125 338.25L586.125 296.25L585.375 296.25L585.375 338.25zM586.125 381L586.125 339L585.375 339L585.375 381zM586.125 411L586.125 381.75L585.375 381.75L585.375 411zM586.125 441L586.125 411.75L585.375 411.75L585.375 441zM586.125 483.75L586.125 441.75L585.375 441.75L585.375 483.75zM586.125 541.5L586.125 484.5L585.375 484.5L585.375 541.5zM544.125 103.5L544.125 61.5L543.375 61.5L543.375 103.5zM544.125 146.25L544.125 104.25L543.375 104.25L543.375 146.25zM544.125 176.25L544.125 147L543.375 147L543.375 176.25zM544.125 219L544.125 177L543.375 177L543.375 219zM544.125 249L544.125 219.75L543.375 219.75L543.375 249zM544.125 265.5L544.125 249.75L543.375 249.75L543.375 265.5zM544.125 295.5L544.125 266.25L543.375 266.25L543.375 295.5zM544.125 338.25L544.125 296.25L543.375 296.25L543.375 338.25zM544.125 381L544.125 339L543.375 339L543.375 381zM544.125 411L544.125 381.75L543.375 381.75L543.375 411zM544.125 441L544.125 411.75L543.375 411.75L543.375 441zM544.125 483.75L544.125 441.75L543.375 441.75L543.375 483.75zM544.125 541.5L544.125 484.5L543.375 484.5L543.375 541.5zM313.875 103.5L313.875 61.5L313.125 61.5L313.125 103.5zM313.875 146.25L313.875 104.25L313.125 104.25L313.125 146.25zM313.875 176.25L313.875 147L313.125 147L313.125 176.25zM313.875 219L313.875 177L313.125 177L313.125 219zM313.875 249L313.875 219.75L313.125 219.75L313.125 249zM313.875 265.5L313.875 249.75L313.125 249.75L313.125 265.5zM313.875 295.5L313.875 266.25L313.125 266.25L313.125 295.5zM313.875 338.25L313.875 296.25L313.125 296.25L313.125 338.25zM313.875 381L313.875 339L313.125 339L313.125 381zM313.875 411L313.875 381.75L313.125 381.75L313.125 411zM313.875 441L313.875 411.75L313.125 411.75L313.125 441zM313.875 483.75L313.875 441.75L313.125 441.75L313.125 483.75zM313.875 541.5L313.875 484.5L313.125 484.5L313.125 541.5zM251.625 103.5L251.625 61.5L250.875 61.5L250.875 103.5zM251.625 146.25L251.625 104.25L250.875 104.25L250.875 146.25zM251.625 176.25L251.625 147L250.875 147L250.875 176.25zM251.625 219L251.625 177L250.875 177L250.875 219zM251.625 249L251.625 219.75L250.875 219.75L250.875 249zM251.625 265.5L251.625 249.75L250.875 249.75L250.875 265.5zM251.625 295.5L251.625 266.25L250.875 266.25L250.875 295.5zM251.625 338.25L251.625 296.25L250.875 296.25L250.875 338.25zM251.625 381L251.625 339L250.875 339L250.875 381zM251.625 411L251.625 381.75L250.875 381.75L250.875 411zM251.625 441L251.625 411.75L250.875 411.75L250.875 441zM251.625 483.75L251.625 441.75L250.875 441.75L250.875 483.75zM251.625 541.5L251.625 484.5L250.875 484.5L250.875 541.5zM206.625 103.5L206.625 61.5L205.875 61.5L205.875 103.5zM206.625 146.25L206.625 104.25L205.875 104.25L205.875 146.25zM206.625 176.25L206.625 147L205.875 147L205.875 176.25zM206.625 219L206.625 177L205.875 177L205.875 219zM206.625 249L206.625 219.75L205.875 219.75L205.875 249zM206.625 265.5L206.625 249.75L205.875 249.75L205.875 265.5zM206.625 295.5L206.625 266.25L205.875 266.25L205.875 295.5zM206.625 338.25L206.625 296.25L205.875 296.25L205.875 338.25zM206.625 381L206.625 339L205.875 339L205.875 381zM206.625 411L206.625 381.75L205.875 381.75L205.875 411zM206.625 441L206.625 411.75L205.875 411.75L205.875 441zM206.625 483.75L206.625 441.75L205.875 441.75L205.875 483.75zM206.625 541.5L206.625 484.5L205.875 484.5L205.875 541.5z" stroke="none" fill="#000000" fill-rule="nonzero" fill-opacity="0.1490196" /><path id="96" transform="matrix(1 0 0 -1 0 612)" d="M316.125 500.5547L497.9912 500.5547" stroke="#000000" stroke-width="0.7017334" fill="none" /><path id="134" transform="matrix(1 0 0 -1 0 612)" d="M316.125 487.4658L538.5521 487.4658" stroke="#000000" stroke-width="0.7017334" fill="none" /><path id="197" transform="matrix(1 0 0 -1 0 612)" d="M316.125 470.8936L535.8868 470.8936" stroke="#000000" stroke-width="0.7017334" fill="none" /><path id="237" transform="matrix(1 0 0 -1 0 612)" d="M316.125 457.8047L506.871 457.8047" stroke="#000000" stroke-width="0.7017334" fill="none" /><path id="248" transform="matrix(1 0 0 -1 0 612)" d="M316.125 444.7158L362.8743 444.7158" stroke="#000000" stroke-width="0.7017334" fill="none" /><path id="300" transform="matrix(1 0 0 -1 0 612)" d="M316.125 427.8047L510.96 427.8047" stroke="#000000" stroke-width="0.7017334" fill="none" /><path id="321" transform="matrix(1 0 0 -1 0 612)" d="M316.125 414.7158L417.7127 414.7158" stroke="#000000" stroke-width="0.7017334" fill="none" /><path id="366" transform="matrix(1 0 0 -1 0 612)" d="M316.125 397.8047L482.326 397.8047" stroke="#000000" stroke-width="0.7017334" fill="none" /><path id="380" transform="matrix(1 0 0 -1 0 612)" d="M316.125 384.7158L379.1573 384.7158" stroke="#000000" stroke-width="0.7017334" fill="none" /><path id="433" transform="matrix(1 0 0 -1 0 612)" d="M316.125 368.1436L514.604 368.1436" stroke="#000000" stroke-width="0.7017334" fill="none" /><path id="478" transform="matrix(1 0 0 -1 0 612)" d="M316.125 355.0547L536.6882 355.0547" stroke="#000000" stroke-width="0.7017334" fill="none" /><path id="495" transform="matrix(1 0 0 -1 0 612)" d="M316.125 341.9658L400.7177 341.9658" stroke="#000000" stroke-width="0.7017334" fill="none" /><path id="545" transform="matrix(1 0 0 -1 0 612)" d="M316.125 325.3936L499.4888 325.3936" stroke="#000000" stroke-width="0.7017334" fill="none" /><path id="582" transform="matrix(1 0 0 -1 0 612)" d="M316.125 312.3047L510.6407 312.3047" stroke="#000000" stroke-width="0.7017334" fill="none" /><path id="616" transform="matrix(1 0 0 -1 0 612)" d="M316.125 299.2158L483.6404 299.2158" stroke="#000000" stroke-width="0.7017334" fill="none" /><path id="676" transform="matrix(1 0 0 -1 0 612)" d="M316.125 282.3047L538.1017 282.3047" stroke="#000000" stroke-width="0.7017334" fill="none" /><path id="720" transform="matrix(1 0 0 -1 0 612)" d="M316.125 269.2158L536.4841 269.2158" stroke="#000000" stroke-width="0.7017334" fill="none" /><path id="771" transform="matrix(1 0 0 -1 0 612)" d="M316.125 252.7158L510.1119 252.7158" stroke="#000000" stroke-width="0.7017334" fill="none" /><path id="829" transform="matrix(1 0 0 -1 0 612)" d="M316.125 235.8047L532.9185 235.8047" stroke="#000000" stroke-width="0.7017334" fill="none" /><path id="843" transform="matrix(1 0 0 -1 0 612)" d="M316.125 222.7158L373.9268 222.7158" stroke="#000000" stroke-width="0.7017334" fill="none" /><path id="908" transform="matrix(1 0 0 -1 0 612)" d="M316.125 193.0547L515.4784 193.0547" stroke="#000000" stroke-width="0.7017334" fill="none" /><path id="948" transform="matrix(1 0 0 -1 0 612)" d="M316.125 179.9658L501.7139 179.9658" stroke="#000000" stroke-width="0.7017334" fill="none" /><path id="1004" transform="matrix(1 0 0 -1 0 612)" d="M316.125 163.0547L531.6618 163.0547" stroke="#000000" stroke-width="0.7017334" fill="none" /><path id="1024" transform="matrix(1 0 0 -1 0 612)" d="M316.125 149.9658L408.0948 149.9658" stroke="#000000" stroke-width="0.7017334" fill="none" /><path id="1089" transform="matrix(1 0 0 -1 0 612)" d="M316.125 120.3047L526.1436 120.3047" stroke="#000000" stroke-width="0.7017334" fill="none" /><path id="1102" transform="matrix(1 0 0 -1 0 612)" d="M316.125 107.2158L377.1833 107.2158" stroke="#000000" stroke-width="0.7017334" fill="none" /><path id="1148" transform="matrix(1 0 0 -1 0 612)" d="M316.125 90.64355L493.6874 90.64355" stroke="#000000" stroke-width="0.7017334" fill="none" /><path id="1187" transform="matrix(1 0 0 -1 0 612)" d="M316.125 77.55469L511.5411 77.55469" stroke="#000000" stroke-width="0.7017334" fill="none" /><path id="1224" transform="matrix(1 0 0 -1 0 612)" d="M316.125 64.46582L499.6248 64.46582" stroke="#000000" stroke-width="0.7017334" fill="none" /></g></g></g></svg>