<svg xmlns="http://www.w3.org/2000/svg" xmlns:xlink="http://www.w3.org/1999/xlink" id="body_37" preserveAspectRatio="xMinYMin meet" viewBox="0 0 1056 816"><defs><clipPath id="1"><path id="" clip-rule="evenodd" transform="matrix(1 0 0 1 0 0)" d="M0 612L0 0L0 0L792 0L792 0L792 612L792 612L0 612z" /></clipPath><clipPath id="2"><path id="" clip-rule="evenodd" transform="matrix(1 0 0 1 0 0)" d="M205.125 52.5L586.875 52.5L586.875 52.5L586.875 69.75L586.875 69.75L205.125 69.75L205.125 69.75L205.125 52.5z" /></clipPath><clipPath id="3"><path id="" clip-rule="evenodd" transform="matrix(1 0 0 1 0 0)" d="M205.125 69L586.875 69L586.875 69L586.875 533.25L586.875 533.25L205.125 533.25L205.125 533.25L205.125 69z" /></clipPath></defs><g transform="matrix(1.333333 0 0 1.333333 0 0)"><g clip-path="url(#1)"><g clip-path="url(#2)"><path id="1" transform="matrix(1 0 0 -1 0 612)" d="M205.875 558.75L586.125 558.75L586.125 541.5L205.875 541.5L205.875 558.75z" stroke="none" fill="#4DD0E1" fill-rule="nonzero" /><path id="2" transform="matrix(1 0 0 -1 0 612)" d="M205.875 542.25L586.125 542.25L586.125 541.5L205.875 541.5zM205.875 558.75L586.125 558.75L586.125 558L205.875 558zM586.125 558L586.125 542.25L585.375 542.25L585.375 558zM544.125 558L544.125 542.25L543.375 542.25L543.375 558zM313.875 558L313.875 542.25L313.125 542.25L313.125 558zM251.625 558L251.625 542.25L250.875 542.25L250.875 558zM206.625 558L206.625 542.25L205.875 542.25L205.875 558z" stroke="none" fill="#000000" fill-rule="nonzero" fill-opacity="0.1490196" /></g><g clip-path="url(#3)"><path id="24" transform="matrix(1 0 0 -1 0 612)" d="M205.875 542.25L586.125 542.25L586.125 496.5L205.875 496.5L205.875 542.25z" stroke="none" fill="#FFFFFF" fill-rule="nonzero" /><path id="25" transform="matrix(1 0 0 -1 0 612)" d="M205.875 497.25L586.125 497.25L586.125 466.5L205.875 466.5L205.875 497.25z" stroke="none" fill="#E0F7FA" fill-rule="nonzero" /><path id="26" transform="matrix(1 0 0 -1 0 612)" d="M205.875 467.25L586.125 467.25L586.125 423.75L205.875 423.75L205.875 467.25z" stroke="none" fill="#FFFFFF" fill-rule="nonzero" /><path id="27" transform="matrix(1 0 0 -1 0 612)" d="M205.875 424.5L586.125 424.5L586.125 381L205.875 381L205.875 424.5z" stroke="none" fill="#E0F7FA" fill-rule="nonzero" /><path id="28" transform="matrix(1 0 0 -1 0 612)" d="M205.875 381.75L586.125 381.75L586.125 351L205.875 351L205.875 381.75z" stroke="none" fill="#FFFFFF" fill-rule="nonzero" /><path id="29" transform="matrix(1 0 0 -1 0 612)" d="M205.875 351.75L586.125 351.75L586.125 321L205.875 321L205.875 351.75z" stroke="none" fill="#E0F7FA" fill-rule="nonzero" /><path id="30" transform="matrix(1 0 0 -1 0 612)" d="M205.875 321.75L586.125 321.75L586.125 278.25L205.875 278.25L205.875 321.75z" stroke="none" fill="#FFFFFF" fill-rule="nonzero" /><path id="31" transform="matrix(1 0 0 -1 0 612)" d="M205.875 279L586.125 279L586.125 207.75L205.875 207.75L205.875 279z" stroke="none" fill="#E0F7FA" fill-rule="nonzero" /><path id="32" transform="matrix(1 0 0 -1 0 612)" d="M205.875 208.5L586.125 208.5L586.125 165L205.875 165L205.875 208.5z" stroke="none" fill="#FFFFFF" fill-rule="nonzero" /><path id="33" transform="matrix(1 0 0 -1 0 612)" d="M205.875 165.75L586.125 165.75L586.125 122.25L205.875 122.25L205.875 165.75z" stroke="none" fill="#E0F7FA" fill-rule="nonzero" /><path id="34" transform="matrix(1 0 0 -1 0 612)" d="M205.875 123L586.125 123L586.125 79.5L205.875 79.5L205.875 123z" stroke="none" fill="#FFFFFF" fill-rule="nonzero" /><path id="35" transform="matrix(1 0 0 -1 0 612)" d="M205.875 80.25L586.125 80.25L586.125 79.5L205.875 79.5zM205.875 123L586.125 123L586.125 122.25L205.875 122.25zM205.875 165.75L586.125 165.75L586.125 165L205.875 165zM205.875 208.5L586.125 208.5L586.125 207.75L205.875 207.75zM205.875 279L586.125 279L586.125 278.25L205.875 278.25zM205.875 321.75L586.125 321.75L586.125 321L205.875 321zM205.875 351.75L586.125 351.75L586.125 351L205.875 351zM205.875 381.75L586.125 381.75L586.125 381L205.875 381zM205.875 424.5L586.125 424.5L586.125 423.75L205.875 423.75zM205.875 467.25L586.125 467.25L586.125 466.5L205.875 466.5zM205.875 497.25L586.125 497.25L586.125 496.5L205.875 496.5zM205.875 542.25L586.125 542.25L586.125 541.5L205.875 541.5zM586.125 122.25L586.125 80.25L585.375 80.25L585.375 122.25zM586.125 165L586.125 123L585.375 123L585.375 165zM586.125 207.75L586.125 165.75L585.375 165.75L585.375 207.75zM586.125 278.25L586.125 208.5L585.375 208.5L585.375 278.25zM586.125 321L586.125 279L585.375 279L585.375 321zM586.125 351L586.125 321.75L585.375 321.75L585.375 351zM586.125 381L586.125 351.75L585.375 351.75L585.375 381zM586.125 423.75L586.125 381.75L585.375 381.75L585.375 423.75zM586.125 466.5L586.125 424.5L585.375 424.5L585.375 466.5zM586.125 496.5L586.125 467.25L585.375 467.25L585.375 496.5zM586.125 541.5L586.125 497.25L585.375 497.25L585.375 541.5zM544.125 122.25L544.125 80.25L543.375 80.25L543.375 122.25zM544.125 165L544.125 123L543.375 123L543.375 165zM544.125 207.75L544.125 165.75L543.375 165.75L543.375 207.75zM544.125 278.25L544.125 208.5L543.375 208.5L543.375 278.25zM544.125 321L544.125 279L543.375 279L543.375 321zM544.125 351L544.125 321.75L543.375 321.75L543.375 351zM544.125 381L544.125 351.75L543.375 351.75L543.375 381zM544.125 423.75L544.125 381.75L543.375 381.75L543.375 423.75zM544.125 466.5L544.125 424.5L543.375 424.5L543.375 466.5zM544.125 496.5L544.125 467.25L543.375 467.25L543.375 496.5zM544.125 541.5L544.125 497.25L543.375 497.25L543.375 541.5zM313.875 122.25L313.875 80.25L313.125 80.25L313.125 122.25zM313.875 165L313.875 123L313.125 123L313.125 165zM313.875 207.75L313.875 165.75L313.125 165.75L313.125 207.75zM313.875 278.25L313.875 208.5L313.125 208.5L313.125 278.25zM313.875 321L313.875 279L313.125 279L313.125 321zM313.875 351L313.875 321.75L313.125 321.75L313.125 351zM313.875 381L313.875 351.75L313.125 351.75L313.125 381zM313.875 423.75L313.875 381.75L313.125 381.75L313.125 423.75zM313.875 466.5L313.875 424.5L313.125 424.5L313.125 466.5zM313.875 496.5L313.875 467.25L313.125 467.25L313.125 496.5zM313.875 541.5L313.875 497.25L313.125 497.25L313.125 541.5zM251.625 122.25L251.625 80.25L250.875 80.25L250.875 122.25zM251.625 165L251.625 123L250.875 123L250.875 165zM251.625 207.75L251.625 165.75L250.875 165.75L250.875 207.75zM251.625 278.25L251.625 208.5L250.875 208.5L250.875 278.25zM251.625 321L251.625 279L250.875 279L250.875 321zM251.625 351L251.625 321.75L250.875 321.75L250.875 351zM251.625 381L251.625 351.75L250.875 351.75L250.875 381zM251.625 423.75L251.625 381.75L250.875 381.75L250.875 423.75zM251.625 466.5L251.625 424.5L250.875 424.5L250.875 466.5zM251.625 496.5L251.625 467.25L250.875 467.25L250.875 496.5zM251.625 541.5L251.625 497.25L250.875 497.25L250.875 541.5zM206.625 122.25L206.625 80.25L205.875 80.25L205.875 122.25zM206.625 165L206.625 123L205.875 123L205.875 165zM206.625 207.75L206.625 165.75L205.875 165.75L205.875 207.75zM206.625 278.25L206.625 208.5L205.875 208.5L205.875 278.25zM206.625 321L206.625 279L205.875 279L205.875 321zM206.625 351L206.625 321.75L205.875 321.75L205.875 351zM206.625 381L206.625 351.75L205.875 351.75L205.875 381zM206.625 423.75L206.625 381.75L205.875 381.75L205.875 423.75zM206.625 466.5L206.625 424.5L205.875 424.5L205.875 466.5zM206.625 496.5L206.625 467.25L205.875 467.25L205.875 496.5zM206.625 541.5L206.625 497.25L205.875 497.25L205.875 541.5z" stroke="none" fill="#000000" fill-rule="nonzero" fill-opacity="0.1490196" /><path id="76" transform="matrix(1 0 0 -1 0 612)" d="M316.125 528.0605L527.9289 528.0605" stroke="#000000" stroke-width="0.7017334" fill="none" /><path id="114" transform="matrix(1 0 0 -1 0 612)" d="M316.125 514.9707L531.1174 514.9707" stroke="#000000" stroke-width="0.7017334" fill="none" /><path id="150" transform="matrix(1 0 0 -1 0 612)" d="M316.125 500.2168L511.1276 500.2168" stroke="#000000" stroke-width="0.7017334" fill="none" /><path id="152" transform="matrix(1 0 0 -1 0 612)" d="M511.1276 500.293L521.8503 500.293" stroke="#000000" stroke-width="0.7855225" fill="none" /><path id="206" transform="matrix(1 0 0 -1 0 612)" d="M316.125 483.3066L533.4105 483.3066" stroke="#000000" stroke-width="0.7017334" fill="none" /><path id="238" transform="matrix(1 0 0 -1 0 612)" d="M316.125 470.2168L477.4361 470.2168" stroke="#000000" stroke-width="0.7017334" fill="none" /><path id="288" transform="matrix(1 0 0 -1 0 612)" d="M316.125 453.6445L503.6926 453.6445" stroke="#000000" stroke-width="0.7017334" fill="none" /><path id="330" transform="matrix(1 0 0 -1 0 612)" d="M316.125 440.5566L526.1173 440.5566" stroke="#000000" stroke-width="0.7017334" fill="none" /><path id="372" transform="matrix(1 0 0 -1 0 612)" d="M316.125 427.4668L527.5674 427.4668" stroke="#000000" stroke-width="0.7017334" fill="none" /><path id="426" transform="matrix(1 0 0 -1 0 612)" d="M316.125 410.8945L533.0388 410.8945" stroke="#000000" stroke-width="0.7017334" fill="none" /><path id="462" transform="matrix(1 0 0 -1 0 612)" d="M316.125 397.8066L507.7294 397.8066" stroke="#000000" stroke-width="0.7017334" fill="none" /><path id="495" transform="matrix(1 0 0 -1 0 612)" d="M316.125 384.7168L494.8499 384.7168" stroke="#000000" stroke-width="0.7017334" fill="none" /><path id="561" transform="matrix(1 0 0 -1 0 612)" d="M316.125 367.8066L540.4525 367.8066" stroke="#000000" stroke-width="0.7017334" fill="none" /><path id="592" transform="matrix(1 0 0 -1 0 612)" d="M316.125 354.7168L452.0692 354.7168" stroke="#000000" stroke-width="0.7017334" fill="none" /><path id="640" transform="matrix(1 0 0 -1 0 612)" d="M316.125 337.8066L478.8967 337.8066" stroke="#000000" stroke-width="0.7017334" fill="none" /><path id="661" transform="matrix(1 0 0 -1 0 612)" d="M316.125 324.7168L416.6133 324.7168" stroke="#000000" stroke-width="0.7017334" fill="none" /><path id="712" transform="matrix(1 0 0 -1 0 612)" d="M316.125 308.1445L518.0125 308.1445" stroke="#000000" stroke-width="0.7017334" fill="none" /><path id="754" transform="matrix(1 0 0 -1 0 612)" d="M316.125 295.0566L518.9968 295.0566" stroke="#000000" stroke-width="0.7017334" fill="none" /><path id="763" transform="matrix(1 0 0 -1 0 612)" d="M316.125 281.9668L352.7642 281.9668" stroke="#000000" stroke-width="0.7017334" fill="none" /><path id="843" transform="matrix(1 0 0 -1 0 612)" d="M316.125 224.5566L519.8135 224.5566" stroke="#000000" stroke-width="0.7017334" fill="none" /><path id="860" transform="matrix(1 0 0 -1 0 612)" d="M316.125 211.4668L392.77 211.4668" stroke="#000000" stroke-width="0.7017334" fill="none" /><path id="913" transform="matrix(1 0 0 -1 0 612)" d="M316.125 194.8945L482.5304 194.8945" stroke="#000000" stroke-width="0.7017334" fill="none" /><path id="955" transform="matrix(1 0 0 -1 0 612)" d="M316.125 181.8066L514.5674 181.8066" stroke="#000000" stroke-width="0.7017334" fill="none" /><path id="976" transform="matrix(1 0 0 -1 0 612)" d="M316.125 168.7168L412.7546 168.7168" stroke="#000000" stroke-width="0.7017334" fill="none" /><path id="1037" transform="matrix(1 0 0 -1 0 612)" d="M316.125 152.1445L538.4525 152.1445" stroke="#000000" stroke-width="0.7017334" fill="none" /><path id="1084" transform="matrix(1 0 0 -1 0 612)" d="M316.125 139.0566L527.5309 139.0566" stroke="#000000" stroke-width="0.7017334" fill="none" /><path id="1101" transform="matrix(1 0 0 -1 0 612)" d="M316.125 125.9668L392.0264 125.9668" stroke="#000000" stroke-width="0.7017334" fill="none" /><path id="1159" transform="matrix(1 0 0 -1 0 612)" d="M316.125 109.3945L542.2065 109.3945" stroke="#000000" stroke-width="0.7017334" fill="none" /><path id="1198" transform="matrix(1 0 0 -1 0 612)" d="M316.125 96.30664L506.6563 96.30664" stroke="#000000" stroke-width="0.7017334" fill="none" /><path id="1229" transform="matrix(1 0 0 -1 0 612)" d="M316.125 83.2168L466.9016 83.2168" stroke="#000000" stroke-width="0.7017334" fill="none" /></g></g></g></svg>