<svg xmlns="http://www.w3.org/2000/svg" xmlns:xlink="http://www.w3.org/1999/xlink" id="body_15" preserveAspectRatio="xMinYMin meet" viewBox="0 0 1056 816"><defs><clipPath id="1"><path id="" clip-rule="evenodd" transform="matrix(1 0 0 1 0 0)" d="M0 612L0 0L0 0L792 0L792 0L792 612L792 612L0 612z" /></clipPath><clipPath id="2"><path id="" clip-rule="evenodd" transform="matrix(1 0 0 1 0 0)" d="M205.125 52.5L586.875 52.5L586.875 52.5L586.875 69.75L586.875 69.75L205.125 69.75L205.125 69.75L205.125 52.5z" /></clipPath><clipPath id="3"><path id="" clip-rule="evenodd" transform="matrix(1 0 0 1 0 0)" d="M205.125 69L586.875 69L586.875 69L586.875 547.5L586.875 547.5L205.125 547.5L205.125 547.5L205.125 69z" /></clipPath></defs><g transform="matrix(1.333333 0 0 1.333333 0 0)"><g clip-path="url(#1)"><g clip-path="url(#2)"><path id="1" transform="matrix(1 0 0 -1 0 612)" d="M205.875 558.75L586.125 558.75L586.125 541.5L205.875 541.5L205.875 558.75z" stroke="none" fill="#4DD0E1" fill-rule="nonzero" /><path id="2" transform="matrix(1 0 0 -1 0 612)" d="M205.875 542.25L586.125 542.25L586.125 541.5L205.875 541.5zM205.875 558.75L586.125 558.75L586.125 558L205.875 558zM586.125 558L586.125 542.25L585.375 542.25L585.375 558zM544.125 558L544.125 542.25L543.375 542.25L543.375 558zM313.875 558L313.875 542.25L313.125 542.25L313.125 558zM251.625 558L251.625 542.25L250.875 542.25L250.875 558zM206.625 558L206.625 542.25L205.875 542.25L205.875 558z" stroke="none" fill="#000000" fill-rule="nonzero" fill-opacity="0.1490196" /></g><g clip-path="url(#3)"><path id="24" transform="matrix(1 0 0 -1 0 612)" d="M205.875 542.25L586.125 542.25L586.125 498.75L205.875 498.75L205.875 542.25z" stroke="none" fill="#FFFFFF" fill-rule="nonzero" /><path id="25" transform="matrix(1 0 0 -1 0 612)" d="M205.875 499.5L586.125 499.5L586.125 468.75L205.875 468.75L205.875 499.5z" stroke="none" fill="#E0F7FA" fill-rule="nonzero" /><path id="26" transform="matrix(1 0 0 -1 0 612)" d="M205.875 469.5L586.125 469.5L586.125 438.75L205.875 438.75L205.875 469.5z" stroke="none" fill="#FFFFFF" fill-rule="nonzero" /><path id="27" transform="matrix(1 0 0 -1 0 612)" d="M205.875 439.5L586.125 439.5L586.125 408.75L205.875 408.75L205.875 439.5z" stroke="none" fill="#E0F7FA" fill-rule="nonzero" /><path id="28" transform="matrix(1 0 0 -1 0 612)" d="M205.875 409.5L586.125 409.5L586.125 366L205.875 366L205.875 409.5z" stroke="none" fill="#FFFFFF" fill-rule="nonzero" /><path id="29" transform="matrix(1 0 0 -1 0 612)" d="M205.875 366.75L586.125 366.75L586.125 336L205.875 336L205.875 366.75z" stroke="none" fill="#E0F7FA" fill-rule="nonzero" /><path id="30" transform="matrix(1 0 0 -1 0 612)" d="M205.875 336.75L586.125 336.75L586.125 306L205.875 306L205.875 336.75z" stroke="none" fill="#FFFFFF" fill-rule="nonzero" /><path id="31" transform="matrix(1 0 0 -1 0 612)" d="M205.875 306.75L586.125 306.75L586.125 276L205.875 276L205.875 306.75z" stroke="none" fill="#E0F7FA" fill-rule="nonzero" /><path id="32" transform="matrix(1 0 0 -1 0 612)" d="M205.875 276.75L586.125 276.75L586.125 259.5L205.875 259.5L205.875 276.75z" stroke="none" fill="#FFFFFF" fill-rule="nonzero" /><path id="33" transform="matrix(1 0 0 -1 0 612)" d="M205.875 260.25L586.125 260.25L586.125 228L205.875 228L205.875 260.25z" stroke="none" fill="#E0F7FA" fill-rule="nonzero" /><path id="34" transform="matrix(1 0 0 -1 0 612)" d="M205.875 228.75L586.125 228.75L586.125 198L205.875 198L205.875 228.75z" stroke="none" fill="#FFFFFF" fill-rule="nonzero" /><path id="35" transform="matrix(1 0 0 -1 0 612)" d="M205.875 198.75L586.125 198.75L586.125 155.25L205.875 155.25L205.875 198.75z" stroke="none" fill="#E0F7FA" fill-rule="nonzero" /><path id="36" transform="matrix(1 0 0 -1 0 612)" d="M205.875 156L586.125 156L586.125 125.25L205.875 125.25L205.875 156z" stroke="none" fill="#FFFFFF" fill-rule="nonzero" /><path id="37" transform="matrix(1 0 0 -1 0 612)" d="M205.875 126L586.125 126L586.125 95.25L205.875 95.25L205.875 126z" stroke="none" fill="#E0F7FA" fill-rule="nonzero" /><path id="38" transform="matrix(1 0 0 -1 0 612)" d="M205.875 96L586.125 96L586.125 65.25L205.875 65.25L205.875 96z" stroke="none" fill="#FFFFFF" fill-rule="nonzero" /><path id="39" transform="matrix(1 0 0 -1 0 612)" d="M205.875 66L586.125 66L586.125 65.25L205.875 65.25zM205.875 96L586.125 96L586.125 95.25L205.875 95.25zM205.875 126L586.125 126L586.125 125.25L205.875 125.25zM205.875 156L586.125 156L586.125 155.25L205.875 155.25zM205.875 198.75L586.125 198.75L586.125 198L205.875 198zM205.875 228.75L586.125 228.75L586.125 228L205.875 228zM205.875 260.25L586.125 260.25L586.125 259.5L205.875 259.5zM205.875 276.75L586.125 276.75L586.125 276L205.875 276zM205.875 306.75L586.125 306.75L586.125 306L205.875 306zM205.875 336.75L586.125 336.75L586.125 336L205.875 336zM205.875 366.75L586.125 366.75L586.125 366L205.875 366zM205.875 409.5L586.125 409.5L586.125 408.75L205.875 408.75zM205.875 439.5L586.125 439.5L586.125 438.75L205.875 438.75zM205.875 469.5L586.125 469.5L586.125 468.75L205.875 468.75zM205.875 499.5L586.125 499.5L586.125 498.75L205.875 498.75zM205.875 542.25L586.125 542.25L586.125 541.5L205.875 541.5zM586.125 95.25L586.125 66L585.375 66L585.375 95.25zM586.125 125.25L586.125 96L585.375 96L585.375 125.25zM586.125 155.25L586.125 126L585.375 126L585.375 155.25zM586.125 198L586.125 156L585.375 156L585.375 198zM586.125 228L586.125 198.75L585.375 198.75L585.375 228zM586.125 259.5L586.125 228.75L585.375 228.75L585.375 259.5zM586.125 276L586.125 260.25L585.375 260.25L585.375 276zM586.125 306L586.125 276.75L585.375 276.75L585.375 306zM586.125 336L586.125 306.75L585.375 306.75L585.375 336zM586.125 366L586.125 336.75L585.375 336.75L585.375 366zM586.125 408.75L586.125 366.75L585.375 366.75L585.375 408.75zM586.125 438.75L586.125 409.5L585.375 409.5L585.375 438.75zM586.125 468.75L586.125 439.5L585.375 439.5L585.375 468.75zM586.125 498.75L586.125 469.5L585.375 469.5L585.375 498.75zM586.125 541.5L586.125 499.5L585.375 499.5L585.375 541.5zM544.125 95.25L544.125 66L543.375 66L543.375 95.25zM544.125 125.25L544.125 96L543.375 96L543.375 125.25zM544.125 155.25L544.125 126L543.375 126L543.375 155.25zM544.125 198L544.125 156L543.375 156L543.375 198zM544.125 228L544.125 198.75L543.375 198.75L543.375 228zM544.125 259.5L544.125 228.75L543.375 228.75L543.375 259.5zM544.125 276L544.125 260.25L543.375 260.25L543.375 276zM544.125 306L544.125 276.75L543.375 276.75L543.375 306zM544.125 336L544.125 306.75L543.375 306.75L543.375 336zM544.125 366L544.125 336.75L543.375 336.75L543.375 366zM544.125 408.75L544.125 366.75L543.375 366.75L543.375 408.75zM544.125 438.75L544.125 409.5L543.375 409.5L543.375 438.75zM544.125 468.75L544.125 439.5L543.375 439.5L543.375 468.75zM544.125 498.75L544.125 469.5L543.375 469.5L543.375 498.75zM544.125 541.5L544.125 499.5L543.375 499.5L543.375 541.5zM313.875 95.25L313.875 66L313.125 66L313.125 95.25zM313.875 125.25L313.875 96L313.125 96L313.125 125.25zM313.875 155.25L313.875 126L313.125 126L313.125 155.25zM313.875 198L313.875 156L313.125 156L313.125 198zM313.875 228L313.875 198.75L313.125 198.75L313.125 228zM313.875 259.5L313.875 228.75L313.125 228.75L313.125 259.5zM313.875 276L313.875 260.25L313.125 260.25L313.125 276zM313.875 306L313.875 276.75L313.125 276.75L313.125 306zM313.875 336L313.875 306.75L313.125 306.75L313.125 336zM313.875 366L313.875 336.75L313.125 336.75L313.125 366zM313.875 408.75L313.875 366.75L313.125 366.75L313.125 408.75zM313.875 438.75L313.875 409.5L313.125 409.5L313.125 438.75zM313.875 468.75L313.875 439.5L313.125 439.5L313.125 468.75zM313.875 498.75L313.875 469.5L313.125 469.5L313.125 498.75zM313.875 541.5L313.875 499.5L313.125 499.5L313.125 541.5zM251.625 95.25L251.625 66L250.875 66L250.875 95.25zM251.625 125.25L251.625 96L250.875 96L250.875 125.25zM251.625 155.25L251.625 126L250.875 126L250.875 155.25zM251.625 198L251.625 156L250.875 156L250.875 198zM251.625 228L251.625 198.75L250.875 198.75L250.875 228zM251.625 259.5L251.625 228.75L250.875 228.75L250.875 259.5zM251.625 276L251.625 260.25L250.875 260.25L250.875 276zM251.625 306L251.625 276.75L250.875 276.75L250.875 306zM251.625 336L251.625 306.75L250.875 306.75L250.875 336zM251.625 366L251.625 336.75L250.875 336.75L250.875 366zM251.625 408.75L251.625 366.75L250.875 366.75L250.875 408.75zM251.625 438.75L251.625 409.5L250.875 409.5L250.875 438.75zM251.625 468.75L251.625 439.5L250.875 439.5L250.875 468.75zM251.625 498.75L251.625 469.5L250.875 469.5L250.875 498.75zM251.625 541.5L251.625 499.5L250.875 499.5L250.875 541.5zM206.625 95.25L206.625 66L205.875 66L205.875 95.25zM206.625 125.25L206.625 96L205.875 96L205.875 125.25zM206.625 155.25L206.625 126L205.875 126L205.875 155.25zM206.625 198L206.625 156L205.875 156L205.875 198zM206.625 228L206.625 198.75L205.875 198.75L205.875 228zM206.625 259.5L206.625 228.75L205.875 228.75L205.875 259.5zM206.625 276L206.625 260.25L205.875 260.25L205.875 276zM206.625 306L206.625 276.75L205.875 276.75L205.875 306zM206.625 336L206.625 306.75L205.875 306.75L205.875 336zM206.625 366L206.625 336.75L205.875 336.75L205.875 366zM206.625 408.75L206.625 366.75L205.875 366.75L205.875 408.75zM206.625 438.75L206.625 409.5L205.875 409.5L205.875 438.75zM206.625 468.75L206.625 439.5L205.875 439.5L205.875 468.75zM206.625 498.75L206.625 469.5L205.875 469.5L205.875 498.75zM206.625 541.5L206.625 499.5L205.875 499.5L205.875 541.5z" stroke="none" fill="#000000" fill-rule="nonzero" fill-opacity="0.1490196" /><path id="86" transform="matrix(1 0 0 -1 0 612)" d="M316.125 528.6436L497.672 528.6436" stroke="#000000" stroke-width="0.7017334" fill="none" /><path id="131" transform="matrix(1 0 0 -1 0 612)" d="M316.125 515.5547L527.7141 515.5547" stroke="#000000" stroke-width="0.7017334" fill="none" /><path id="146" transform="matrix(1 0 0 -1 0 612)" d="M316.125 502.4658L386.0631 502.4658" stroke="#000000" stroke-width="0.7017334" fill="none" /><path id="201" transform="matrix(1 0 0 -1 0 612)" d="M316.125 485.5547L529.421 485.5547" stroke="#000000" stroke-width="0.7017334" fill="none" /><path id="232" transform="matrix(1 0 0 -1 0 612)" d="M316.125 472.4658L459.5196 472.4658" stroke="#000000" stroke-width="0.7017334" fill="none" /><path id="289" transform="matrix(1 0 0 -1 0 612)" d="M316.125 455.5547L535.2378 455.5547" stroke="#000000" stroke-width="0.7017334" fill="none" /><path id="323" transform="matrix(1 0 0 -1 0 612)" d="M316.125 442.4658L467.504 442.4658" stroke="#000000" stroke-width="0.7017334" fill="none" /><path id="374" transform="matrix(1 0 0 -1 0 612)" d="M316.125 425.5547L502.0591 425.5547" stroke="#000000" stroke-width="0.7017334" fill="none" /><path id="388" transform="matrix(1 0 0 -1 0 612)" d="M316.125 412.4658L379.1573 412.4658" stroke="#000000" stroke-width="0.7017334" fill="none" /><path id="443" transform="matrix(1 0 0 -1 0 612)" d="M316.125 395.8936L516.4468 395.8936" stroke="#000000" stroke-width="0.7017334" fill="none" /><path id="478" transform="matrix(1 0 0 -1 0 612)" d="M316.125 382.8047L505.3055 382.8047" stroke="#000000" stroke-width="0.7017334" fill="none" /><path id="487" transform="matrix(1 0 0 -1 0 612)" d="M316.125 369.7158L354.3716 369.7158" stroke="#000000" stroke-width="0.7017334" fill="none" /><path id="540" transform="matrix(1 0 0 -1 0 612)" d="M316.125 352.8047L509.7401 352.8047" stroke="#000000" stroke-width="0.7017334" fill="none" /><path id="563" transform="matrix(1 0 0 -1 0 612)" d="M316.125 339.7158L428.1159 339.7158" stroke="#000000" stroke-width="0.7017334" fill="none" /><path id="615" transform="matrix(1 0 0 -1 0 612)" d="M316.125 322.8047L488.7765 322.8047" stroke="#000000" stroke-width="0.7017334" fill="none" /><path id="655" transform="matrix(1 0 0 -1 0 612)" d="M316.125 309.7158L520.4314 309.7158" stroke="#000000" stroke-width="0.7017334" fill="none" /><path id="708" transform="matrix(1 0 0 -1 0 612)" d="M316.125 292.8047L519.8237 292.8047" stroke="#000000" stroke-width="0.7017334" fill="none" /><path id="757" transform="matrix(1 0 0 -1 0 612)" d="M316.125 279.7158L536.8556 279.7158" stroke="#000000" stroke-width="0.7017334" fill="none" /><path id="812" transform="matrix(1 0 0 -1 0 612)" d="M316.125 263.2158L525.2168 263.2158" stroke="#000000" stroke-width="0.7017334" fill="none" /><path id="866" transform="matrix(1 0 0 -1 0 612)" d="M316.125 246.4697L522.8503 246.4697" stroke="#000000" stroke-width="0.7017334" fill="none" /><path id="881" transform="matrix(1 0 0 -1 0 612)" d="M316.125 231.7158L383.4296 231.7158" stroke="#000000" stroke-width="0.7017334" fill="none" /><path id="883" transform="matrix(1 0 0 -1 0 612)" d="M383.4296 231.7939L389.393 231.7939" stroke="#000000" stroke-width="0.7855225" fill="none" /><path id="890" transform="matrix(1 0 0 -1 0 612)" d="M389.393 231.7158L421.9589 231.7158" stroke="#000000" stroke-width="0.7017334" fill="none" /><path id="892" transform="matrix(1 0 0 -1 0 612)" d="M421.9589 231.7939L427.9223 231.7939" stroke="#000000" stroke-width="0.7855225" fill="none" /><path id="894" transform="matrix(1 0 0 -1 0 612)" d="M427.9223 231.7158L433.5559 231.7158" stroke="#000000" stroke-width="0.7017334" fill="none" /><path id="896" transform="matrix(1 0 0 -1 0 612)" d="M433.5559 231.7939L436.535 231.7939" stroke="#000000" stroke-width="0.7855225" fill="none" /><path id="953" transform="matrix(1 0 0 -1 0 612)" d="M316.125 214.8047L541.971 214.8047" stroke="#000000" stroke-width="0.7017334" fill="none" /><path id="961" transform="matrix(1 0 0 -1 0 612)" d="M316.125 201.7158L344.5076 201.7158" stroke="#000000" stroke-width="0.7017334" fill="none" /><path id="1022" transform="matrix(1 0 0 -1 0 612)" d="M316.125 185.1436L534.5204 185.1436" stroke="#000000" stroke-width="0.7017334" fill="none" /><path id="1068" transform="matrix(1 0 0 -1 0 612)" d="M316.125 172.0547L530.3582 172.0547" stroke="#000000" stroke-width="0.7017334" fill="none" /><path id="1077" transform="matrix(1 0 0 -1 0 612)" d="M316.125 158.9658L351.916 158.9658" stroke="#000000" stroke-width="0.7017334" fill="none" /><path id="1133" transform="matrix(1 0 0 -1 0 612)" d="M316.125 142.0547L508.1537 142.0547" stroke="#000000" stroke-width="0.7017334" fill="none" /><path id="1174" transform="matrix(1 0 0 -1 0 612)" d="M316.125 128.9658L510.0908 128.9658" stroke="#000000" stroke-width="0.7017334" fill="none" /><path id="1228" transform="matrix(1 0 0 -1 0 612)" d="M316.125 112.0547L523.1903 112.0547" stroke="#000000" stroke-width="0.7017334" fill="none" /><path id="1271" transform="matrix(1 0 0 -1 0 612)" d="M316.125 98.96582L531.0127 98.96582" stroke="#000000" stroke-width="0.7017334" fill="none" /><path id="1327" transform="matrix(1 0 0 -1 0 612)" d="M316.125 82.05469L507.227 82.05469" stroke="#000000" stroke-width="0.7017334" fill="none" /><path id="1359" transform="matrix(1 0 0 -1 0 612)" d="M316.125 68.96582L474.8915 68.96582" stroke="#000000" stroke-width="0.7017334" fill="none" /></g></g></g></svg>