<svg xmlns="http://www.w3.org/2000/svg" xmlns:xlink="http://www.w3.org/1999/xlink" id="body_26" preserveAspectRatio="xMinYMin meet" viewBox="0 0 1056 816"><defs><clipPath id="1"><path id="" clip-rule="evenodd" transform="matrix(1 0 0 1 0 0)" d="M0 612L0 0L0 0L792 0L792 0L792 612L792 612L0 612z" /></clipPath><clipPath id="2"><path id="" clip-rule="evenodd" transform="matrix(1 0 0 1 0 0)" d="M205.125 52.5L586.875 52.5L586.875 52.5L586.875 69.75L586.875 69.75L205.125 69.75L205.125 69.75L205.125 52.5z" /></clipPath><clipPath id="3"><path id="" clip-rule="evenodd" transform="matrix(1 0 0 1 0 0)" d="M205.125 69L586.875 69L586.875 69L586.875 541.5L586.875 541.5L205.125 541.5L205.125 541.5L205.125 69z" /></clipPath></defs><g transform="matrix(1.333333 0 0 1.333333 0 0)"><g clip-path="url(#1)"><g clip-path="url(#2)"><path id="1" transform="matrix(1 0 0 -1 0 612)" d="M205.875 558.75L586.125 558.75L586.125 541.5L205.875 541.5L205.875 558.75z" stroke="none" fill="#4DD0E1" fill-rule="nonzero" /><path id="2" transform="matrix(1 0 0 -1 0 612)" d="M205.875 542.25L586.125 542.25L586.125 541.5L205.875 541.5zM205.875 558.75L586.125 558.75L586.125 558L205.875 558zM586.125 558L586.125 542.25L585.375 542.25L585.375 558zM544.125 558L544.125 542.25L543.375 542.25L543.375 558zM313.875 558L313.875 542.25L313.125 542.25L313.125 558zM251.625 558L251.625 542.25L250.875 542.25L250.875 558zM206.625 558L206.625 542.25L205.875 542.25L205.875 558z" stroke="none" fill="#000000" fill-rule="nonzero" fill-opacity="0.1490196" /></g><g clip-path="url(#3)"><path id="24" transform="matrix(1 0 0 -1 0 612)" d="M205.875 542.25L586.125 542.25L586.125 498.75L205.875 498.75L205.875 542.25z" stroke="none" fill="#E0F7FA" fill-rule="nonzero" /><path id="25" transform="matrix(1 0 0 -1 0 612)" d="M205.875 499.5L586.125 499.5L586.125 468.75L205.875 468.75L205.875 499.5z" stroke="none" fill="#FFFFFF" fill-rule="nonzero" /><path id="26" transform="matrix(1 0 0 -1 0 612)" d="M205.875 469.5L586.125 469.5L586.125 426L205.875 426L205.875 469.5z" stroke="none" fill="#E0F7FA" fill-rule="nonzero" /><path id="27" transform="matrix(1 0 0 -1 0 612)" d="M205.875 426.75L586.125 426.75L586.125 396L205.875 396L205.875 426.75z" stroke="none" fill="#FFFFFF" fill-rule="nonzero" /><path id="28" transform="matrix(1 0 0 -1 0 612)" d="M205.875 396.75L586.125 396.75L586.125 353.25L205.875 353.25L205.875 396.75z" stroke="none" fill="#E0F7FA" fill-rule="nonzero" /><path id="29" transform="matrix(1 0 0 -1 0 612)" d="M205.875 354L586.125 354L586.125 323.25L205.875 323.25L205.875 354z" stroke="none" fill="#FFFFFF" fill-rule="nonzero" /><path id="30" transform="matrix(1 0 0 -1 0 612)" d="M205.875 324L586.125 324L586.125 280.5L205.875 280.5L205.875 324z" stroke="none" fill="#E0F7FA" fill-rule="nonzero" /><path id="31" transform="matrix(1 0 0 -1 0 612)" d="M205.875 281.25L586.125 281.25L586.125 250.5L205.875 250.5L205.875 281.25z" stroke="none" fill="#FFFFFF" fill-rule="nonzero" /><path id="32" transform="matrix(1 0 0 -1 0 612)" d="M205.875 251.25L586.125 251.25L586.125 220.5L205.875 220.5L205.875 251.25z" stroke="none" fill="#E0F7FA" fill-rule="nonzero" /><path id="33" transform="matrix(1 0 0 -1 0 612)" d="M205.875 221.25L586.125 221.25L586.125 190.5L205.875 190.5L205.875 221.25z" stroke="none" fill="#FFFFFF" fill-rule="nonzero" /><path id="34" transform="matrix(1 0 0 -1 0 612)" d="M205.875 191.25L586.125 191.25L586.125 160.5L205.875 160.5L205.875 191.25z" stroke="none" fill="#E0F7FA" fill-rule="nonzero" /><path id="35" transform="matrix(1 0 0 -1 0 612)" d="M205.875 161.25L586.125 161.25L586.125 117.75L205.875 117.75L205.875 161.25z" stroke="none" fill="#FFFFFF" fill-rule="nonzero" /><path id="36" transform="matrix(1 0 0 -1 0 612)" d="M205.875 118.5L586.125 118.5L586.125 87.75L205.875 87.75L205.875 118.5z" stroke="none" fill="#E0F7FA" fill-rule="nonzero" /><path id="37" transform="matrix(1 0 0 -1 0 612)" d="M205.875 88.5L586.125 88.5L586.125 71.25L205.875 71.25L205.875 88.5z" stroke="none" fill="#FFFFFF" fill-rule="nonzero" /><path id="38" transform="matrix(1 0 0 -1 0 612)" d="M205.875 72L586.125 72L586.125 71.25L205.875 71.25zM205.875 88.5L586.125 88.5L586.125 87.75L205.875 87.75zM205.875 118.5L586.125 118.5L586.125 117.75L205.875 117.75zM205.875 161.25L586.125 161.25L586.125 160.5L205.875 160.5zM205.875 191.25L586.125 191.25L586.125 190.5L205.875 190.5zM205.875 221.25L586.125 221.25L586.125 220.5L205.875 220.5zM205.875 251.25L586.125 251.25L586.125 250.5L205.875 250.5zM205.875 281.25L586.125 281.25L586.125 280.5L205.875 280.5zM205.875 324L586.125 324L586.125 323.25L205.875 323.25zM205.875 354L586.125 354L586.125 353.25L205.875 353.25zM205.875 396.75L586.125 396.75L586.125 396L205.875 396zM205.875 426.75L586.125 426.75L586.125 426L205.875 426zM205.875 469.5L586.125 469.5L586.125 468.75L205.875 468.75zM205.875 499.5L586.125 499.5L586.125 498.75L205.875 498.75zM205.875 542.25L586.125 542.25L586.125 541.5L205.875 541.5zM586.125 87.75L586.125 72L585.375 72L585.375 87.75zM586.125 117.75L586.125 88.5L585.375 88.5L585.375 117.75zM586.125 160.5L586.125 118.5L585.375 118.5L585.375 160.5zM586.125 190.5L586.125 161.25L585.375 161.25L585.375 190.5zM586.125 220.5L586.125 191.25L585.375 191.25L585.375 220.5zM586.125 250.5L586.125 221.25L585.375 221.25L585.375 250.5zM586.125 280.5L586.125 251.25L585.375 251.25L585.375 280.5zM586.125 323.25L586.125 281.25L585.375 281.25L585.375 323.25zM586.125 353.25L586.125 324L585.375 324L585.375 353.25zM586.125 396L586.125 354L585.375 354L585.375 396zM586.125 426L586.125 396.75L585.375 396.75L585.375 426zM586.125 468.75L586.125 426.75L585.375 426.75L585.375 468.75zM586.125 498.75L586.125 469.5L585.375 469.5L585.375 498.75zM586.125 541.5L586.125 499.5L585.375 499.5L585.375 541.5zM544.125 87.75L544.125 72L543.375 72L543.375 87.75zM544.125 117.75L544.125 88.5L543.375 88.5L543.375 117.75zM544.125 160.5L544.125 118.5L543.375 118.5L543.375 160.5zM544.125 190.5L544.125 161.25L543.375 161.25L543.375 190.5zM544.125 220.5L544.125 191.25L543.375 191.25L543.375 220.5zM544.125 250.5L544.125 221.25L543.375 221.25L543.375 250.5zM544.125 280.5L544.125 251.25L543.375 251.25L543.375 280.5zM544.125 323.25L544.125 281.25L543.375 281.25L543.375 323.25zM544.125 353.25L544.125 324L543.375 324L543.375 353.25zM544.125 396L544.125 354L543.375 354L543.375 396zM544.125 426L544.125 396.75L543.375 396.75L543.375 426zM544.125 468.75L544.125 426.75L543.375 426.75L543.375 468.75zM544.125 498.75L544.125 469.5L543.375 469.5L543.375 498.75zM544.125 541.5L544.125 499.5L543.375 499.5L543.375 541.5zM313.875 87.75L313.875 72L313.125 72L313.125 87.75zM313.875 117.75L313.875 88.5L313.125 88.5L313.125 117.75zM313.875 160.5L313.875 118.5L313.125 118.5L313.125 160.5zM313.875 190.5L313.875 161.25L313.125 161.25L313.125 190.5zM313.875 220.5L313.875 191.25L313.125 191.25L313.125 220.5zM313.875 250.5L313.875 221.25L313.125 221.25L313.125 250.5zM313.875 280.5L313.875 251.25L313.125 251.25L313.125 280.5zM313.875 323.25L313.875 281.25L313.125 281.25L313.125 323.25zM313.875 353.25L313.875 324L313.125 324L313.125 353.25zM313.875 396L313.875 354L313.125 354L313.125 396zM313.875 426L313.875 396.75L313.125 396.75L313.125 426zM313.875 468.75L313.875 426.75L313.125 426.75L313.125 468.75zM313.875 498.75L313.875 469.5L313.125 469.5L313.125 498.75zM313.875 541.5L313.875 499.5L313.125 499.5L313.125 541.5zM251.625 87.75L251.625 72L250.875 72L250.875 87.75zM251.625 117.75L251.625 88.5L250.875 88.5L250.875 117.75zM251.625 160.5L251.625 118.5L250.875 118.5L250.875 160.5zM251.625 190.5L251.625 161.25L250.875 161.25L250.875 190.5zM251.625 220.5L251.625 191.25L250.875 191.25L250.875 220.5zM251.625 250.5L251.625 221.25L250.875 221.25L250.875 250.5zM251.625 280.5L251.625 251.25L250.875 251.25L250.875 280.5zM251.625 323.25L251.625 281.25L250.875 281.25L250.875 323.25zM251.625 353.25L251.625 324L250.875 324L250.875 353.25zM251.625 396L251.625 354L250.875 354L250.875 396zM251.625 426L251.625 396.75L250.875 396.75L250.875 426zM251.625 468.75L251.625 426.75L250.875 426.75L250.875 468.75zM251.625 498.75L251.625 469.5L250.875 469.5L250.875 498.75zM251.625 541.5L251.625 499.5L250.875 499.5L250.875 541.5zM206.625 87.75L206.625 72L205.875 72L205.875 87.75zM206.625 117.75L206.625 88.5L205.875 88.5L205.875 117.75zM206.625 160.5L206.625 118.5L205.875 118.5L205.875 160.5zM206.625 190.5L206.625 161.25L205.875 161.25L205.875 190.5zM206.625 220.5L206.625 191.25L205.875 191.25L205.875 220.5zM206.625 250.5L206.625 221.25L205.875 221.25L205.875 250.5zM206.625 280.5L206.625 251.25L205.875 251.25L205.875 280.5zM206.625 323.25L206.625 281.25L205.875 281.25L205.875 323.25zM206.625 353.25L206.625 324L205.875 324L205.875 353.25zM206.625 396L206.625 354L205.875 354L205.875 396zM206.625 426L206.625 396.75L205.875 396.75L205.875 426zM206.625 468.75L206.625 426.75L205.875 426.75L205.875 468.75zM206.625 498.75L206.625 469.5L205.875 469.5L205.875 498.75zM206.625 541.5L206.625 499.5L205.875 499.5L205.875 541.5z" stroke="none" fill="#000000" fill-rule="nonzero" fill-opacity="0.1490196" /><path id="104" transform="matrix(1 0 0 -1 0 612)" d="M316.125 528.6436L541.5677 528.6436" stroke="#000000" stroke-width="0.7017334" fill="none" /><path id="146" transform="matrix(1 0 0 -1 0 612)" d="M316.125 515.5547L507.7504 515.5547" stroke="#000000" stroke-width="0.7017334" fill="none" /><path id="170" transform="matrix(1 0 0 -1 0 612)" d="M316.125 502.4658L425.6081 502.4658" stroke="#000000" stroke-width="0.7017334" fill="none" /><path id="222" transform="matrix(1 0 0 -1 0 612)" d="M316.125 485.5547L521.866 485.5547" stroke="#000000" stroke-width="0.7017334" fill="none" /><path id="253" transform="matrix(1 0 0 -1 0 612)" d="M316.125 472.4658L450.8389 472.4658" stroke="#000000" stroke-width="0.7017334" fill="none" /><path id="306" transform="matrix(1 0 0 -1 0 612)" d="M316.125 455.8936L490.5933 455.8936" stroke="#000000" stroke-width="0.7017334" fill="none" /><path id="351" transform="matrix(1 0 0 -1 0 612)" d="M316.125 442.8047L537.1907 442.8047" stroke="#000000" stroke-width="0.7017334" fill="none" /><path id="384" transform="matrix(1 0 0 -1 0 612)" d="M316.125 429.7158L478.0379 429.7158" stroke="#000000" stroke-width="0.7017334" fill="none" /><path id="435" transform="matrix(1 0 0 -1 0 612)" d="M316.125 412.8047L537.4421 412.8047" stroke="#000000" stroke-width="0.7017334" fill="none" /><path id="469" transform="matrix(1 0 0 -1 0 612)" d="M316.125 399.7158L479.1743 399.7158" stroke="#000000" stroke-width="0.7017334" fill="none" /><path id="525" transform="matrix(1 0 0 -1 0 612)" d="M316.125 383.1436L533.5101 383.1436" stroke="#000000" stroke-width="0.7017334" fill="none" /><path id="566" transform="matrix(1 0 0 -1 0 612)" d="M316.125 370.0547L525.4054 370.0547" stroke="#000000" stroke-width="0.7017334" fill="none" /><path id="577" transform="matrix(1 0 0 -1 0 612)" d="M316.125 356.9658L362.8743 356.9658" stroke="#000000" stroke-width="0.7017334" fill="none" /><path id="633" transform="matrix(1 0 0 -1 0 612)" d="M316.125 340.0547L517.0072 340.0547" stroke="#000000" stroke-width="0.7017334" fill="none" /><path id="673" transform="matrix(1 0 0 -1 0 612)" d="M316.125 326.9658L510.0805 326.9658" stroke="#000000" stroke-width="0.7017334" fill="none" /><path id="736" transform="matrix(1 0 0 -1 0 612)" d="M316.125 310.3936L541.4579 310.3936" stroke="#000000" stroke-width="0.7017334" fill="none" /><path id="777" transform="matrix(1 0 0 -1 0 612)" d="M316.125 297.3047L526.6722 297.3047" stroke="#000000" stroke-width="0.7017334" fill="none" /><path id="791" transform="matrix(1 0 0 -1 0 612)" d="M316.125 284.2158L385.194 284.2158" stroke="#000000" stroke-width="0.7017334" fill="none" /><path id="844" transform="matrix(1 0 0 -1 0 612)" d="M316.125 267.3047L540.5207 267.3047" stroke="#000000" stroke-width="0.7017334" fill="none" /><path id="857" transform="matrix(1 0 0 -1 0 612)" d="M316.125 254.2158L385.7018 254.2158" stroke="#000000" stroke-width="0.7017334" fill="none" /><path id="918" transform="matrix(1 0 0 -1 0 612)" d="M316.125 237.3047L540.4996 237.3047" stroke="#000000" stroke-width="0.7017334" fill="none" /><path id="952" transform="matrix(1 0 0 -1 0 612)" d="M316.125 224.2158L483.7607 224.2158" stroke="#000000" stroke-width="0.7017334" fill="none" /><path id="1003" transform="matrix(1 0 0 -1 0 612)" d="M316.125 207.3047L515.6932 207.3047" stroke="#000000" stroke-width="0.7017334" fill="none" /><path id="1036" transform="matrix(1 0 0 -1 0 612)" d="M316.125 194.2158L466.0799 194.2158" stroke="#000000" stroke-width="0.7017334" fill="none" /><path id="1085" transform="matrix(1 0 0 -1 0 612)" d="M316.125 164.2158L495.4938 164.2158" stroke="#000000" stroke-width="0.7017334" fill="none" /><path id="1143" transform="matrix(1 0 0 -1 0 612)" d="M316.125 147.6436L521.1068 147.6436" stroke="#000000" stroke-width="0.7017334" fill="none" /><path id="1180" transform="matrix(1 0 0 -1 0 612)" d="M316.125 134.5547L490.9702 134.5547" stroke="#000000" stroke-width="0.7017334" fill="none" /><path id="1194" transform="matrix(1 0 0 -1 0 612)" d="M316.125 121.4658L377.885 121.4658" stroke="#000000" stroke-width="0.7017334" fill="none" /><path id="1252" transform="matrix(1 0 0 -1 0 612)" d="M316.125 104.5547L519.0648 104.5547" stroke="#000000" stroke-width="0.7017334" fill="none" /><path id="1288" transform="matrix(1 0 0 -1 0 612)" d="M316.125 91.46582L496.007 91.46582" stroke="#000000" stroke-width="0.7017334" fill="none" /><path id="1341" transform="matrix(1 0 0 -1 0 612)" d="M316.125 74.96582L507.1589 74.96582" stroke="#000000" stroke-width="0.7017334" fill="none" /></g></g></g></svg>