<svg xmlns="http://www.w3.org/2000/svg" xmlns:xlink="http://www.w3.org/1999/xlink" id="body_6" preserveAspectRatio="xMinYMin meet" viewBox="0 0 1056 816"><defs><clipPath id="1"><path id="" clip-rule="evenodd" transform="matrix(1 0 0 1 0 0)" d="M0 612L0 0L0 0L792 0L792 0L792 612L792 612L0 612z" /></clipPath><clipPath id="2"><path id="" clip-rule="evenodd" transform="matrix(1 0 0 1 0 0)" d="M205.125 52.5L586.875 52.5L586.875 52.5L586.875 69.75L586.875 69.75L205.125 69.75L205.125 69.75L205.125 52.5z" /></clipPath><clipPath id="3"><path id="" clip-rule="evenodd" transform="matrix(1 0 0 1 0 0)" d="M205.125 69L586.875 69L586.875 69L586.875 537L586.875 537L205.125 537L205.125 537L205.125 69z" /></clipPath></defs><g transform="matrix(1.333333 0 0 1.333333 0 0)"><g clip-path="url(#1)"><g clip-path="url(#2)"><path id="1" transform="matrix(1 0 0 -1 0 612)" d="M205.875 558.75L586.125 558.75L586.125 541.5L205.875 541.5L205.875 558.75z" stroke="none" fill="#4DD0E1" fill-rule="nonzero" /><path id="2" transform="matrix(1 0 0 -1 0 612)" d="M205.875 542.25L586.125 542.25L586.125 541.5L205.875 541.5zM205.875 558.75L586.125 558.75L586.125 558L205.875 558zM586.125 558L586.125 542.25L585.375 542.25L585.375 558zM544.125 558L544.125 542.25L543.375 542.25L543.375 558zM313.875 558L313.875 542.25L313.125 542.25L313.125 558zM251.625 558L251.625 542.25L250.875 542.25L250.875 558zM206.625 558L206.625 542.25L205.875 542.25L205.875 558z" stroke="none" fill="#000000" fill-rule="nonzero" fill-opacity="0.1490196" /></g><g clip-path="url(#3)"><path id="24" transform="matrix(1 0 0 -1 0 612)" d="M205.875 542.25L586.125 542.25L586.125 498.75L205.875 498.75L205.875 542.25z" stroke="none" fill="#FFFFFF" fill-rule="nonzero" /><path id="25" transform="matrix(1 0 0 -1 0 612)" d="M205.875 499.5L586.125 499.5L586.125 468.75L205.875 468.75L205.875 499.5z" stroke="none" fill="#E0F7FA" fill-rule="nonzero" /><path id="26" transform="matrix(1 0 0 -1 0 612)" d="M205.875 469.5L586.125 469.5L586.125 452.25L205.875 452.25L205.875 469.5z" stroke="none" fill="#FFFFFF" fill-rule="nonzero" /><path id="27" transform="matrix(1 0 0 -1 0 612)" d="M205.875 453L586.125 453L586.125 409.5L205.875 409.5L205.875 453z" stroke="none" fill="#E0F7FA" fill-rule="nonzero" /><path id="28" transform="matrix(1 0 0 -1 0 612)" d="M205.875 410.25L586.125 410.25L586.125 379.5L205.875 379.5L205.875 410.25z" stroke="none" fill="#FFFFFF" fill-rule="nonzero" /><path id="29" transform="matrix(1 0 0 -1 0 612)" d="M205.875 380.25L586.125 380.25L586.125 336.75L205.875 336.75L205.875 380.25z" stroke="none" fill="#E0F7FA" fill-rule="nonzero" /><path id="30" transform="matrix(1 0 0 -1 0 612)" d="M205.875 337.5L586.125 337.5L586.125 306.75L205.875 306.75L205.875 337.5z" stroke="none" fill="#FFFFFF" fill-rule="nonzero" /><path id="31" transform="matrix(1 0 0 -1 0 612)" d="M205.875 307.5L586.125 307.5L586.125 264L205.875 264L205.875 307.5z" stroke="none" fill="#E0F7FA" fill-rule="nonzero" /><path id="32" transform="matrix(1 0 0 -1 0 612)" d="M205.875 264.75L586.125 264.75L586.125 234L205.875 234L205.875 264.75z" stroke="none" fill="#FFFFFF" fill-rule="nonzero" /><path id="33" transform="matrix(1 0 0 -1 0 612)" d="M205.875 234.75L586.125 234.75L586.125 191.25L205.875 191.25L205.875 234.75z" stroke="none" fill="#E0F7FA" fill-rule="nonzero" /><path id="34" transform="matrix(1 0 0 -1 0 612)" d="M205.875 192L586.125 192L586.125 148.5L205.875 148.5L205.875 192z" stroke="none" fill="#FFFFFF" fill-rule="nonzero" /><path id="35" transform="matrix(1 0 0 -1 0 612)" d="M205.875 149.25L586.125 149.25L586.125 118.5L205.875 118.5L205.875 149.25z" stroke="none" fill="#E0F7FA" fill-rule="nonzero" /><path id="36" transform="matrix(1 0 0 -1 0 612)" d="M205.875 119.25L586.125 119.25L586.125 75.75L205.875 75.75L205.875 119.25z" stroke="none" fill="#FFFFFF" fill-rule="nonzero" /><path id="37" transform="matrix(1 0 0 -1 0 612)" d="M205.875 76.5L586.125 76.5L586.125 75.75L205.875 75.75zM205.875 119.25L586.125 119.25L586.125 118.5L205.875 118.5zM205.875 149.25L586.125 149.25L586.125 148.5L205.875 148.5zM205.875 192L586.125 192L586.125 191.25L205.875 191.25zM205.875 234.75L586.125 234.75L586.125 234L205.875 234zM205.875 264.75L586.125 264.75L586.125 264L205.875 264zM205.875 307.5L586.125 307.5L586.125 306.75L205.875 306.75zM205.875 337.5L586.125 337.5L586.125 336.75L205.875 336.75zM205.875 380.25L586.125 380.25L586.125 379.5L205.875 379.5zM205.875 410.25L586.125 410.25L586.125 409.5L205.875 409.5zM205.875 453L586.125 453L586.125 452.25L205.875 452.25zM205.875 469.5L586.125 469.5L586.125 468.75L205.875 468.75zM205.875 499.5L586.125 499.5L586.125 498.75L205.875 498.75zM205.875 542.25L586.125 542.25L586.125 541.5L205.875 541.5zM586.125 118.5L586.125 76.5L585.375 76.5L585.375 118.5zM586.125 148.5L586.125 119.25L585.375 119.25L585.375 148.5zM586.125 191.25L586.125 149.25L585.375 149.25L585.375 191.25zM586.125 234L586.125 192L585.375 192L585.375 234zM586.125 264L586.125 234.75L585.375 234.75L585.375 264zM586.125 306.75L586.125 264.75L585.375 264.75L585.375 306.75zM586.125 336.75L586.125 307.5L585.375 307.5L585.375 336.75zM586.125 379.5L586.125 337.5L585.375 337.5L585.375 379.5zM586.125 409.5L586.125 380.25L585.375 380.25L585.375 409.5zM586.125 452.25L586.125 410.25L585.375 410.25L585.375 452.25zM586.125 468.75L586.125 453L585.375 453L585.375 468.75zM586.125 498.75L586.125 469.5L585.375 469.5L585.375 498.75zM586.125 541.5L586.125 499.5L585.375 499.5L585.375 541.5zM544.125 118.5L544.125 76.5L543.375 76.5L543.375 118.5zM544.125 148.5L544.125 119.25L543.375 119.25L543.375 148.5zM544.125 191.25L544.125 149.25L543.375 149.25L543.375 191.25zM544.125 234L544.125 192L543.375 192L543.375 234zM544.125 264L544.125 234.75L543.375 234.75L543.375 264zM544.125 306.75L544.125 264.75L543.375 264.75L543.375 306.75zM544.125 336.75L544.125 307.5L543.375 307.5L543.375 336.75zM544.125 379.5L544.125 337.5L543.375 337.5L543.375 379.5zM544.125 409.5L544.125 380.25L543.375 380.25L543.375 409.5zM544.125 452.25L544.125 410.25L543.375 410.25L543.375 452.25zM544.125 468.75L544.125 453L543.375 453L543.375 468.75zM544.125 498.75L544.125 469.5L543.375 469.5L543.375 498.75zM544.125 541.5L544.125 499.5L543.375 499.5L543.375 541.5zM313.875 118.5L313.875 76.5L313.125 76.5L313.125 118.5zM313.875 148.5L313.875 119.25L313.125 119.25L313.125 148.5zM313.875 191.25L313.875 149.25L313.125 149.25L313.125 191.25zM313.875 234L313.875 192L313.125 192L313.125 234zM313.875 264L313.875 234.75L313.125 234.75L313.125 264zM313.875 306.75L313.875 264.75L313.125 264.75L313.125 306.75zM313.875 336.75L313.875 307.5L313.125 307.5L313.125 336.75zM313.875 379.5L313.875 337.5L313.125 337.5L313.125 379.5zM313.875 409.5L313.875 380.25L313.125 380.25L313.125 409.5zM313.875 452.25L313.875 410.25L313.125 410.25L313.125 452.25zM313.875 468.75L313.875 453L313.125 453L313.125 468.75zM313.875 498.75L313.875 469.5L313.125 469.5L313.125 498.75zM313.875 541.5L313.875 499.5L313.125 499.5L313.125 541.5zM251.625 118.5L251.625 76.5L250.875 76.5L250.875 118.5zM251.625 148.5L251.625 119.25L250.875 119.25L250.875 148.5zM251.625 191.25L251.625 149.25L250.875 149.25L250.875 191.25zM251.625 234L251.625 192L250.875 192L250.875 234zM251.625 264L251.625 234.75L250.875 234.75L250.875 264zM251.625 306.75L251.625 264.75L250.875 264.75L250.875 306.75zM251.625 336.75L251.625 307.5L250.875 307.5L250.875 336.75zM251.625 379.5L251.625 337.5L250.875 337.5L250.875 379.5zM251.625 409.5L251.625 380.25L250.875 380.25L250.875 409.5zM251.625 452.25L251.625 410.25L250.875 410.25L250.875 452.25zM251.625 468.75L251.625 453L250.875 453L250.875 468.75zM251.625 498.75L251.625 469.5L250.875 469.5L250.875 498.75zM251.625 541.5L251.625 499.5L250.875 499.5L250.875 541.5zM206.625 118.5L206.625 76.5L205.875 76.5L205.875 118.5zM206.625 148.5L206.625 119.25L205.875 119.25L205.875 148.5zM206.625 191.25L206.625 149.25L205.875 149.25L205.875 191.25zM206.625 234L206.625 192L205.875 192L205.875 234zM206.625 264L206.625 234.75L205.875 234.75L205.875 264zM206.625 306.75L206.625 264.75L205.875 264.75L205.875 306.75zM206.625 336.75L206.625 307.5L205.875 307.5L205.875 336.75zM206.625 379.5L206.625 337.5L205.875 337.5L205.875 379.5zM206.625 409.5L206.625 380.25L205.875 380.25L205.875 409.5zM206.625 452.25L206.625 410.25L205.875 410.25L205.875 452.25zM206.625 468.75L206.625 453L205.875 453L205.875 468.75zM206.625 498.75L206.625 469.5L205.875 469.5L205.875 498.75zM206.625 541.5L206.625 499.5L205.875 499.5L205.875 541.5z" stroke="none" fill="#000000" fill-rule="nonzero" fill-opacity="0.1490196" /><path id="100" transform="matrix(1 0 0 -1 0 612)" d="M316.125 528.644L510.3579 528.644" stroke="#000000" stroke-width="0.7017334" fill="none" /><path id="144" transform="matrix(1 0 0 -1 0 612)" d="M316.125 515.5549L535.0703 515.5549" stroke="#000000" stroke-width="0.7017334" fill="none" /><path id="168" transform="matrix(1 0 0 -1 0 612)" d="M316.125 502.4658L431.0847 502.4658" stroke="#000000" stroke-width="0.7017334" fill="none" /><path id="226" transform="matrix(1 0 0 -1 0 612)" d="M316.125 485.5549L521.709 485.5549" stroke="#000000" stroke-width="0.7017334" fill="none" /><path id="248" transform="matrix(1 0 0 -1 0 612)" d="M316.125 472.4658L425.5506 472.4658" stroke="#000000" stroke-width="0.7017334" fill="none" /><path id="282" transform="matrix(1 0 0 -1 0 612)" d="M316.125 455.9658L416.0478 455.9658" stroke="#000000" stroke-width="0.7017334" fill="none" /><path id="343" transform="matrix(1 0 0 -1 0 612)" d="M316.125 439.394L532.4158 439.394" stroke="#000000" stroke-width="0.7017334" fill="none" /><path id="383" transform="matrix(1 0 0 -1 0 612)" d="M316.125 426.3049L513.2324 426.3049" stroke="#000000" stroke-width="0.7017334" fill="none" /><path id="404" transform="matrix(1 0 0 -1 0 612)" d="M316.125 413.2158L406.5189 413.2158" stroke="#000000" stroke-width="0.7017334" fill="none" /><path id="460" transform="matrix(1 0 0 -1 0 612)" d="M316.125 396.3049L524.1697 396.3049" stroke="#000000" stroke-width="0.7017334" fill="none" /><path id="501" transform="matrix(1 0 0 -1 0 612)" d="M316.125 383.2158L497.1796 383.2158" stroke="#000000" stroke-width="0.7017334" fill="none" /><path id="560" transform="matrix(1 0 0 -1 0 612)" d="M316.125 366.644L525.1539 366.644" stroke="#000000" stroke-width="0.7017334" fill="none" /><path id="596" transform="matrix(1 0 0 -1 0 612)" d="M316.125 353.5549L508.7506 353.5549" stroke="#000000" stroke-width="0.7017334" fill="none" /><path id="636" transform="matrix(1 0 0 -1 0 612)" d="M316.125 340.4658L523.3058 340.4658" stroke="#000000" stroke-width="0.7017334" fill="none" /><path id="694" transform="matrix(1 0 0 -1 0 612)" d="M316.125 323.5549L510.1955 323.5549" stroke="#000000" stroke-width="0.7017334" fill="none" /><path id="731" transform="matrix(1 0 0 -1 0 612)" d="M316.125 310.4658L497.986 310.4658" stroke="#000000" stroke-width="0.7017334" fill="none" /><path id="790" transform="matrix(1 0 0 -1 0 612)" d="M316.125 293.894L540.9238 293.894" stroke="#000000" stroke-width="0.7017334" fill="none" /><path id="836" transform="matrix(1 0 0 -1 0 612)" d="M316.125 280.8049L524.0544 280.8049" stroke="#000000" stroke-width="0.7017334" fill="none" /><path id="875" transform="matrix(1 0 0 -1 0 612)" d="M316.125 267.7158L516.8345 267.7158" stroke="#000000" stroke-width="0.7017334" fill="none" /><path id="920" transform="matrix(1 0 0 -1 0 612)" d="M316.125 250.8049L483.9859 250.8049" stroke="#000000" stroke-width="0.7017334" fill="none" /><path id="952" transform="matrix(1 0 0 -1 0 612)" d="M316.125 237.7158L466.2578 237.7158" stroke="#000000" stroke-width="0.7017334" fill="none" /><path id="1014" transform="matrix(1 0 0 -1 0 612)" d="M316.125 221.144L539.9707 221.144" stroke="#000000" stroke-width="0.7017334" fill="none" /><path id="1059" transform="matrix(1 0 0 -1 0 612)" d="M316.125 208.0549L538.6672 208.0549" stroke="#000000" stroke-width="0.7017334" fill="none" /><path id="1066" transform="matrix(1 0 0 -1 0 612)" d="M316.125 194.9658L342.9002 194.9658" stroke="#000000" stroke-width="0.7017334" fill="none" /><path id="1120" transform="matrix(1 0 0 -1 0 612)" d="M316.125 178.394L497.6353 178.394" stroke="#000000" stroke-width="0.7017334" fill="none" /><path id="1158" transform="matrix(1 0 0 -1 0 612)" d="M316.125 165.3049L501.4311 165.3049" stroke="#000000" stroke-width="0.7017334" fill="none" /><path id="1195" transform="matrix(1 0 0 -1 0 612)" d="M316.125 152.2158L479.1691 152.2158" stroke="#000000" stroke-width="0.7017334" fill="none" /><path id="1251" transform="matrix(1 0 0 -1 0 612)" d="M316.125 135.3049L512.0543 135.3049" stroke="#000000" stroke-width="0.7017334" fill="none" /><path id="1296" transform="matrix(1 0 0 -1 0 612)" d="M316.125 122.2158L521.1016 122.2158" stroke="#000000" stroke-width="0.7017334" fill="none" /><path id="1354" transform="matrix(1 0 0 -1 0 612)" d="M316.125 105.644L531.7246 105.644" stroke="#000000" stroke-width="0.7017334" fill="none" /><path id="1403" transform="matrix(1 0 0 -1 0 612)" d="M316.125 92.55493L539.95 92.55493" stroke="#000000" stroke-width="0.7017334" fill="none" /><path id="1418" transform="matrix(1 0 0 -1 0 612)" d="M316.125 79.46582L386.6024 79.46582" stroke="#000000" stroke-width="0.7017334" fill="none" /></g></g></g></svg>