<svg xmlns="http://www.w3.org/2000/svg" xmlns:xlink="http://www.w3.org/1999/xlink" id="body_5" preserveAspectRatio="xMinYMin meet" viewBox="0 0 1056 816"><defs><clipPath id="1"><path id="" clip-rule="evenodd" transform="matrix(1 0 0 1 0 0)" d="M0 612L0 0L0 0L792 0L792 0L792 612L792 612L0 612z" /></clipPath><clipPath id="2"><path id="" clip-rule="evenodd" transform="matrix(1 0 0 1 0 0)" d="M205.125 52.5L586.875 52.5L586.875 52.5L586.875 69.75L586.875 69.75L205.125 69.75L205.125 69.75L205.125 52.5z" /></clipPath><clipPath id="3"><path id="" clip-rule="evenodd" transform="matrix(1 0 0 1 0 0)" d="M205.125 69L586.875 69L586.875 69L586.875 532.5L586.875 532.5L205.125 532.5L205.125 532.5L205.125 69z" /></clipPath></defs><g transform="matrix(1.333333 0 0 1.333333 0 0)"><g clip-path="url(#1)"><g clip-path="url(#2)"><path id="1" transform="matrix(1 0 0 -1 0 612)" d="M205.875 558.75L586.125 558.75L586.125 541.5L205.875 541.5L205.875 558.75z" stroke="none" fill="#4DD0E1" fill-rule="nonzero" /><path id="2" transform="matrix(1 0 0 -1 0 612)" d="M205.875 542.25L586.125 542.25L586.125 541.5L205.875 541.5zM205.875 558.75L586.125 558.75L586.125 558L205.875 558zM586.125 558L586.125 542.25L585.375 542.25L585.375 558zM544.125 558L544.125 542.25L543.375 542.25L543.375 558zM313.875 558L313.875 542.25L313.125 542.25L313.125 558zM251.625 558L251.625 542.25L250.875 542.25L250.875 558zM206.625 558L206.625 542.25L205.875 542.25L205.875 558z" stroke="none" fill="#000000" fill-rule="nonzero" fill-opacity="0.1490196" /></g><g clip-path="url(#3)"><path id="24" transform="matrix(1 0 0 -1 0 612)" d="M205.875 542.25L586.125 542.25L586.125 511.5L205.875 511.5L205.875 542.25z" stroke="none" fill="#E0F7FA" fill-rule="nonzero" /><path id="25" transform="matrix(1 0 0 -1 0 612)" d="M205.875 512.25L586.125 512.25L586.125 468.75L205.875 468.75L205.875 512.25z" stroke="none" fill="#FFFFFF" fill-rule="nonzero" /><path id="26" transform="matrix(1 0 0 -1 0 612)" d="M205.875 469.5L586.125 469.5L586.125 438.75L205.875 438.75L205.875 469.5z" stroke="none" fill="#E0F7FA" fill-rule="nonzero" /><path id="27" transform="matrix(1 0 0 -1 0 612)" d="M205.875 439.5L586.125 439.5L586.125 408.75L205.875 408.75L205.875 439.5z" stroke="none" fill="#FFFFFF" fill-rule="nonzero" /><path id="28" transform="matrix(1 0 0 -1 0 612)" d="M205.875 409.5L586.125 409.5L586.125 366L205.875 366L205.875 409.5z" stroke="none" fill="#E0F7FA" fill-rule="nonzero" /><path id="29" transform="matrix(1 0 0 -1 0 612)" d="M205.875 366.75L586.125 366.75L586.125 336L205.875 336L205.875 366.75z" stroke="none" fill="#FFFFFF" fill-rule="nonzero" /><path id="30" transform="matrix(1 0 0 -1 0 612)" d="M205.875 336.75L586.125 336.75L586.125 293.25L205.875 293.25L205.875 336.75z" stroke="none" fill="#E0F7FA" fill-rule="nonzero" /><path id="31" transform="matrix(1 0 0 -1 0 612)" d="M205.875 294L586.125 294L586.125 263.25L205.875 263.25L205.875 294z" stroke="none" fill="#FFFFFF" fill-rule="nonzero" /><path id="32" transform="matrix(1 0 0 -1 0 612)" d="M205.875 264L586.125 264L586.125 233.25L205.875 233.25L205.875 264z" stroke="none" fill="#E0F7FA" fill-rule="nonzero" /><path id="33" transform="matrix(1 0 0 -1 0 612)" d="M205.875 234L586.125 234L586.125 203.25L205.875 203.25L205.875 234z" stroke="none" fill="#FFFFFF" fill-rule="nonzero" /><path id="34" transform="matrix(1 0 0 -1 0 612)" d="M205.875 204L586.125 204L586.125 186.75L205.875 186.75L205.875 204z" stroke="none" fill="#E0F7FA" fill-rule="nonzero" /><path id="35" transform="matrix(1 0 0 -1 0 612)" d="M205.875 187.5L586.125 187.5L586.125 156.75L205.875 156.75L205.875 187.5z" stroke="none" fill="#FFFFFF" fill-rule="nonzero" /><path id="36" transform="matrix(1 0 0 -1 0 612)" d="M205.875 157.5L586.125 157.5L586.125 126.75L205.875 126.75L205.875 157.5z" stroke="none" fill="#E0F7FA" fill-rule="nonzero" /><path id="37" transform="matrix(1 0 0 -1 0 612)" d="M205.875 127.5L586.125 127.5L586.125 96.75L205.875 96.75L205.875 127.5z" stroke="none" fill="#FFFFFF" fill-rule="nonzero" /><path id="38" transform="matrix(1 0 0 -1 0 612)" d="M205.875 97.5L586.125 97.5L586.125 80.25L205.875 80.25L205.875 97.5z" stroke="none" fill="#E0F7FA" fill-rule="nonzero" /><path id="39" transform="matrix(1 0 0 -1 0 612)" d="M205.875 81L586.125 81L586.125 80.25L205.875 80.25zM205.875 97.5L586.125 97.5L586.125 96.75L205.875 96.75zM205.875 127.5L586.125 127.5L586.125 126.75L205.875 126.75zM205.875 157.5L586.125 157.5L586.125 156.75L205.875 156.75zM205.875 187.5L586.125 187.5L586.125 186.75L205.875 186.75zM205.875 204L586.125 204L586.125 203.25L205.875 203.25zM205.875 234L586.125 234L586.125 233.25L205.875 233.25zM205.875 264L586.125 264L586.125 263.25L205.875 263.25zM205.875 294L586.125 294L586.125 293.25L205.875 293.25zM205.875 336.75L586.125 336.75L586.125 336L205.875 336zM205.875 366.75L586.125 366.75L586.125 366L205.875 366zM205.875 409.5L586.125 409.5L586.125 408.75L205.875 408.75zM205.875 439.5L586.125 439.5L586.125 438.75L205.875 438.75zM205.875 469.5L586.125 469.5L586.125 468.75L205.875 468.75zM205.875 512.25L586.125 512.25L586.125 511.5L205.875 511.5zM205.875 542.25L586.125 542.25L586.125 541.5L205.875 541.5zM586.125 96.75L586.125 81L585.375 81L585.375 96.75zM586.125 126.75L586.125 97.5L585.375 97.5L585.375 126.75zM586.125 156.75L586.125 127.5L585.375 127.5L585.375 156.75zM586.125 186.75L586.125 157.5L585.375 157.5L585.375 186.75zM586.125 203.25L586.125 187.5L585.375 187.5L585.375 203.25zM586.125 233.25L586.125 204L585.375 204L585.375 233.25zM586.125 263.25L586.125 234L585.375 234L585.375 263.25zM586.125 293.25L586.125 264L585.375 264L585.375 293.25zM586.125 336L586.125 294L585.375 294L585.375 336zM586.125 366L586.125 336.75L585.375 336.75L585.375 366zM586.125 408.75L586.125 366.75L585.375 366.75L585.375 408.75zM586.125 438.75L586.125 409.5L585.375 409.5L585.375 438.75zM586.125 468.75L586.125 439.5L585.375 439.5L585.375 468.75zM586.125 511.5L586.125 469.5L585.375 469.5L585.375 511.5zM586.125 541.5L586.125 512.25L585.375 512.25L585.375 541.5zM544.125 96.75L544.125 81L543.375 81L543.375 96.75zM544.125 126.75L544.125 97.5L543.375 97.5L543.375 126.75zM544.125 156.75L544.125 127.5L543.375 127.5L543.375 156.75zM544.125 186.75L544.125 157.5L543.375 157.5L543.375 186.75zM544.125 203.25L544.125 187.5L543.375 187.5L543.375 203.25zM544.125 233.25L544.125 204L543.375 204L543.375 233.25zM544.125 263.25L544.125 234L543.375 234L543.375 263.25zM544.125 293.25L544.125 264L543.375 264L543.375 293.25zM544.125 336L544.125 294L543.375 294L543.375 336zM544.125 366L544.125 336.75L543.375 336.75L543.375 366zM544.125 408.75L544.125 366.75L543.375 366.75L543.375 408.75zM544.125 438.75L544.125 409.5L543.375 409.5L543.375 438.75zM544.125 468.75L544.125 439.5L543.375 439.5L543.375 468.75zM544.125 511.5L544.125 469.5L543.375 469.5L543.375 511.5zM544.125 541.5L544.125 512.25L543.375 512.25L543.375 541.5zM313.875 96.75L313.875 81L313.125 81L313.125 96.75zM313.875 126.75L313.875 97.5L313.125 97.5L313.125 126.75zM313.875 156.75L313.875 127.5L313.125 127.5L313.125 156.75zM313.875 186.75L313.875 157.5L313.125 157.5L313.125 186.75zM313.875 203.25L313.875 187.5L313.125 187.5L313.125 203.25zM313.875 233.25L313.875 204L313.125 204L313.125 233.25zM313.875 263.25L313.875 234L313.125 234L313.125 263.25zM313.875 293.25L313.875 264L313.125 264L313.125 293.25zM313.875 336L313.875 294L313.125 294L313.125 336zM313.875 366L313.875 336.75L313.125 336.75L313.125 366zM313.875 408.75L313.875 366.75L313.125 366.75L313.125 408.75zM313.875 438.75L313.875 409.5L313.125 409.5L313.125 438.75zM313.875 468.75L313.875 439.5L313.125 439.5L313.125 468.75zM313.875 511.5L313.875 469.5L313.125 469.5L313.125 511.5zM313.875 541.5L313.875 512.25L313.125 512.25L313.125 541.5zM251.625 96.75L251.625 81L250.875 81L250.875 96.75zM251.625 126.75L251.625 97.5L250.875 97.5L250.875 126.75zM251.625 156.75L251.625 127.5L250.875 127.5L250.875 156.75zM251.625 186.75L251.625 157.5L250.875 157.5L250.875 186.75zM251.625 203.25L251.625 187.5L250.875 187.5L250.875 203.25zM251.625 233.25L251.625 204L250.875 204L250.875 233.25zM251.625 263.25L251.625 234L250.875 234L250.875 263.25zM251.625 293.25L251.625 264L250.875 264L250.875 293.25zM251.625 336L251.625 294L250.875 294L250.875 336zM251.625 366L251.625 336.75L250.875 336.75L250.875 366zM251.625 408.75L251.625 366.75L250.875 366.75L250.875 408.75zM251.625 438.75L251.625 409.5L250.875 409.5L250.875 438.75zM251.625 468.75L251.625 439.5L250.875 439.5L250.875 468.75zM251.625 511.5L251.625 469.5L250.875 469.5L250.875 511.5zM251.625 541.5L251.625 512.25L250.875 512.25L250.875 541.5zM206.625 96.75L206.625 81L205.875 81L205.875 96.75zM206.625 126.75L206.625 97.5L205.875 97.5L205.875 126.75zM206.625 156.75L206.625 127.5L205.875 127.5L205.875 156.75zM206.625 186.75L206.625 157.5L205.875 157.5L205.875 186.75zM206.625 203.25L206.625 187.5L205.875 187.5L205.875 203.25zM206.625 233.25L206.625 204L205.875 204L205.875 233.25zM206.625 263.25L206.625 234L205.875 234L205.875 263.25zM206.625 293.25L206.625 264L205.875 264L205.875 293.25zM206.625 336L206.625 294L205.875 294L205.875 336zM206.625 366L206.625 336.75L205.875 336.75L205.875 366zM206.625 408.75L206.625 366.75L205.875 366.75L205.875 408.75zM206.625 438.75L206.625 409.5L205.875 409.5L205.875 438.75zM206.625 468.75L206.625 439.5L205.875 439.5L205.875 468.75zM206.625 511.5L206.625 469.5L205.875 469.5L205.875 511.5zM206.625 541.5L206.625 512.25L205.875 512.25L205.875 541.5z" stroke="none" fill="#000000" fill-rule="nonzero" fill-opacity="0.1490196" /><path id="96" transform="matrix(1 0 0 -1 0 612)" d="M316.125 528.3049L531.0859 528.3049" stroke="#000000" stroke-width="0.7017334" fill="none" /><path id="118" transform="matrix(1 0 0 -1 0 612)" d="M316.125 515.2158L425.7966 515.2158" stroke="#000000" stroke-width="0.7017334" fill="none" /><path id="169" transform="matrix(1 0 0 -1 0 612)" d="M316.125 498.6442L490.2948 498.6442" stroke="#000000" stroke-width="0.7017334" fill="none" /><path id="209" transform="matrix(1 0 0 -1 0 612)" d="M316.125 485.5549L514.5726 485.5549" stroke="#000000" stroke-width="0.7017334" fill="none" /><path id="216" transform="matrix(1 0 0 -1 0 612)" d="M316.125 472.4658L342.764 472.4658" stroke="#000000" stroke-width="0.7017334" fill="none" /><path id="279" transform="matrix(1 0 0 -1 0 612)" d="M316.125 455.5549L534.2012 455.5549" stroke="#000000" stroke-width="0.7017334" fill="none" /><path id="295" transform="matrix(1 0 0 -1 0 612)" d="M316.125 442.4658L395.0737 442.4658" stroke="#000000" stroke-width="0.7017334" fill="none" /><path id="355" transform="matrix(1 0 0 -1 0 612)" d="M316.125 425.5549L524.6827 425.5549" stroke="#000000" stroke-width="0.7017334" fill="none" /><path id="399" transform="matrix(1 0 0 -1 0 612)" d="M316.125 412.4658L537.4473 412.4658" stroke="#000000" stroke-width="0.7017334" fill="none" /><path id="456" transform="matrix(1 0 0 -1 0 612)" d="M316.125 395.8942L520.5832 395.8942" stroke="#000000" stroke-width="0.7017334" fill="none" /><path id="499" transform="matrix(1 0 0 -1 0 612)" d="M316.125 382.8049L515.6041 382.8049" stroke="#000000" stroke-width="0.7017334" fill="none" /><path id="519" transform="matrix(1 0 0 -1 0 612)" d="M316.125 369.7158L409.0058 369.7158" stroke="#000000" stroke-width="0.7017334" fill="none" /><path id="575" transform="matrix(1 0 0 -1 0 612)" d="M316.125 352.8049L520.1591 352.8049" stroke="#000000" stroke-width="0.7017334" fill="none" /><path id="617" transform="matrix(1 0 0 -1 0 612)" d="M316.125 339.7158L524.2272 339.7158" stroke="#000000" stroke-width="0.7017334" fill="none" /><path id="678" transform="matrix(1 0 0 -1 0 612)" d="M316.125 323.144L511.7402 323.144" stroke="#000000" stroke-width="0.7017334" fill="none" /><path id="717" transform="matrix(1 0 0 -1 0 612)" d="M316.125 310.0549L520.4313 310.0549" stroke="#000000" stroke-width="0.7017334" fill="none" /><path id="731" transform="matrix(1 0 0 -1 0 612)" d="M316.125 296.9658L371.9634 296.9658" stroke="#000000" stroke-width="0.7017334" fill="none" /><path id="791" transform="matrix(1 0 0 -1 0 612)" d="M316.125 280.0549L541.7983 280.0549" stroke="#000000" stroke-width="0.7017334" fill="none" /><path id="830" transform="matrix(1 0 0 -1 0 612)" d="M316.125 266.9658L518.4783 266.9658" stroke="#000000" stroke-width="0.7017334" fill="none" /><path id="888" transform="matrix(1 0 0 -1 0 612)" d="M316.125 250.0549L528.7927 250.0549" stroke="#000000" stroke-width="0.7017334" fill="none" /><path id="933" transform="matrix(1 0 0 -1 0 612)" d="M316.125 236.9658L535.0859 236.9658" stroke="#000000" stroke-width="0.7017334" fill="none" /><path id="993" transform="matrix(1 0 0 -1 0 612)" d="M316.125 220.0549L539.8558 220.0549" stroke="#000000" stroke-width="0.7017334" fill="none" /><path id="1015" transform="matrix(1 0 0 -1 0 612)" d="M316.125 206.9658L408.0477 206.9658" stroke="#000000" stroke-width="0.7017334" fill="none" /><path id="1063" transform="matrix(1 0 0 -1 0 612)" d="M316.125 190.4658L471.2579 190.4658" stroke="#000000" stroke-width="0.7017334" fill="none" /><path id="1120" transform="matrix(1 0 0 -1 0 612)" d="M316.125 173.5549L533.8661 173.5549" stroke="#000000" stroke-width="0.7017334" fill="none" /><path id="1143" transform="matrix(1 0 0 -1 0 612)" d="M316.125 160.4658L425.3254 160.4658" stroke="#000000" stroke-width="0.7017334" fill="none" /><path id="1207" transform="matrix(1 0 0 -1 0 612)" d="M316.125 143.5549L533.285 143.5549" stroke="#000000" stroke-width="0.7017334" fill="none" /><path id="1239" transform="matrix(1 0 0 -1 0 612)" d="M316.125 130.4658L468.703 130.4658" stroke="#000000" stroke-width="0.7017334" fill="none" /><path id="1290" transform="matrix(1 0 0 -1 0 612)" d="M316.125 113.5549L493.677 113.5549" stroke="#000000" stroke-width="0.7017334" fill="none" /><path id="1324" transform="matrix(1 0 0 -1 0 612)" d="M316.125 100.4658L483.7922 100.4658" stroke="#000000" stroke-width="0.7017334" fill="none" /><path id="1383" transform="matrix(1 0 0 -1 0 612)" d="M316.125 83.96582L524.955 83.96582" stroke="#000000" stroke-width="0.7017334" fill="none" /></g></g></g></svg>