<svg xmlns="http://www.w3.org/2000/svg" xmlns:xlink="http://www.w3.org/1999/xlink" id="body_13" preserveAspectRatio="xMinYMin meet" viewBox="0 0 1056 816"><defs><clipPath id="1"><path id="" clip-rule="evenodd" transform="matrix(1 0 0 1 0 0)" d="M0 612L0 0L0 0L792 0L792 0L792 612L792 612L0 612z" /></clipPath><clipPath id="2"><path id="" clip-rule="evenodd" transform="matrix(1 0 0 1 0 0)" d="M205.125 52.5L586.875 52.5L586.875 52.5L586.875 69.75L586.875 69.75L205.125 69.75L205.125 69.75L205.125 52.5z" /></clipPath><clipPath id="3"><path id="" clip-rule="evenodd" transform="matrix(1 0 0 1 0 0)" d="M205.125 69L586.875 69L586.875 69L586.875 524.25L586.875 524.25L205.125 524.25L205.125 524.25L205.125 69z" /></clipPath></defs><g transform="matrix(1.333333 0 0 1.333333 0 0)"><g clip-path="url(#1)"><g clip-path="url(#2)"><path id="1" transform="matrix(1 0 0 -1 0 612)" d="M205.875 558.75L586.125 558.75L586.125 541.5L205.875 541.5L205.875 558.75z" stroke="none" fill="#4DD0E1" fill-rule="nonzero" /><path id="2" transform="matrix(1 0 0 -1 0 612)" d="M205.875 542.25L586.125 542.25L586.125 541.5L205.875 541.5zM205.875 558.75L586.125 558.75L586.125 558L205.875 558zM586.125 558L586.125 542.25L585.375 542.25L585.375 558zM544.125 558L544.125 542.25L543.375 542.25L543.375 558zM313.875 558L313.875 542.25L313.125 542.25L313.125 558zM251.625 558L251.625 542.25L250.875 542.25L250.875 558zM206.625 558L206.625 542.25L205.875 542.25L205.875 558z" stroke="none" fill="#000000" fill-rule="nonzero" fill-opacity="0.1490196" /></g><g clip-path="url(#3)"><path id="24" transform="matrix(1 0 0 -1 0 612)" d="M205.875 542.25L586.125 542.25L586.125 498.75L205.875 498.75L205.875 542.25z" stroke="none" fill="#FFFFFF" fill-rule="nonzero" /><path id="25" transform="matrix(1 0 0 -1 0 612)" d="M205.875 499.5L586.125 499.5L586.125 468.75L205.875 468.75L205.875 499.5z" stroke="none" fill="#E0F7FA" fill-rule="nonzero" /><path id="26" transform="matrix(1 0 0 -1 0 612)" d="M205.875 469.5L586.125 469.5L586.125 438.75L205.875 438.75L205.875 469.5z" stroke="none" fill="#FFFFFF" fill-rule="nonzero" /><path id="27" transform="matrix(1 0 0 -1 0 612)" d="M205.875 439.5L586.125 439.5L586.125 396L205.875 396L205.875 439.5z" stroke="none" fill="#E0F7FA" fill-rule="nonzero" /><path id="28" transform="matrix(1 0 0 -1 0 612)" d="M205.875 396.75L586.125 396.75L586.125 353.25L205.875 353.25L205.875 396.75z" stroke="none" fill="#FFFFFF" fill-rule="nonzero" /><path id="29" transform="matrix(1 0 0 -1 0 612)" d="M205.875 354L586.125 354L586.125 336.75L205.875 336.75L205.875 354z" stroke="none" fill="#E0F7FA" fill-rule="nonzero" /><path id="30" transform="matrix(1 0 0 -1 0 612)" d="M205.875 337.5L586.125 337.5L586.125 306.75L205.875 306.75L205.875 337.5z" stroke="none" fill="#FFFFFF" fill-rule="nonzero" /><path id="31" transform="matrix(1 0 0 -1 0 612)" d="M205.875 307.5L586.125 307.5L586.125 264L205.875 264L205.875 307.5z" stroke="none" fill="#E0F7FA" fill-rule="nonzero" /><path id="32" transform="matrix(1 0 0 -1 0 612)" d="M205.875 264.75L586.125 264.75L586.125 234L205.875 234L205.875 264.75z" stroke="none" fill="#FFFFFF" fill-rule="nonzero" /><path id="33" transform="matrix(1 0 0 -1 0 612)" d="M205.875 234.75L586.125 234.75L586.125 204L205.875 204L205.875 234.75z" stroke="none" fill="#E0F7FA" fill-rule="nonzero" /><path id="34" transform="matrix(1 0 0 -1 0 612)" d="M205.875 204.75L586.125 204.75L586.125 161.25L205.875 161.25L205.875 204.75z" stroke="none" fill="#FFFFFF" fill-rule="nonzero" /><path id="35" transform="matrix(1 0 0 -1 0 612)" d="M205.875 162L586.125 162L586.125 131.25L205.875 131.25L205.875 162z" stroke="none" fill="#E0F7FA" fill-rule="nonzero" /><path id="36" transform="matrix(1 0 0 -1 0 612)" d="M205.875 132L586.125 132L586.125 88.5L205.875 88.5L205.875 132z" stroke="none" fill="#FFFFFF" fill-rule="nonzero" /><path id="37" transform="matrix(1 0 0 -1 0 612)" d="M205.875 89.25L586.125 89.25L586.125 88.5L205.875 88.5zM205.875 132L586.125 132L586.125 131.25L205.875 131.25zM205.875 162L586.125 162L586.125 161.25L205.875 161.25zM205.875 204.75L586.125 204.75L586.125 204L205.875 204zM205.875 234.75L586.125 234.75L586.125 234L205.875 234zM205.875 264.75L586.125 264.75L586.125 264L205.875 264zM205.875 307.5L586.125 307.5L586.125 306.75L205.875 306.75zM205.875 337.5L586.125 337.5L586.125 336.75L205.875 336.75zM205.875 354L586.125 354L586.125 353.25L205.875 353.25zM205.875 396.75L586.125 396.75L586.125 396L205.875 396zM205.875 439.5L586.125 439.5L586.125 438.75L205.875 438.75zM205.875 469.5L586.125 469.5L586.125 468.75L205.875 468.75zM205.875 499.5L586.125 499.5L586.125 498.75L205.875 498.75zM205.875 542.25L586.125 542.25L586.125 541.5L205.875 541.5zM586.125 131.25L586.125 89.25L585.375 89.25L585.375 131.25zM586.125 161.25L586.125 132L585.375 132L585.375 161.25zM586.125 204L586.125 162L585.375 162L585.375 204zM586.125 234L586.125 204.75L585.375 204.75L585.375 234zM586.125 264L586.125 234.75L585.375 234.75L585.375 264zM586.125 306.75L586.125 264.75L585.375 264.75L585.375 306.75zM586.125 336.75L586.125 307.5L585.375 307.5L585.375 336.75zM586.125 353.25L586.125 337.5L585.375 337.5L585.375 353.25zM586.125 396L586.125 354L585.375 354L585.375 396zM586.125 438.75L586.125 396.75L585.375 396.75L585.375 438.75zM586.125 468.75L586.125 439.5L585.375 439.5L585.375 468.75zM586.125 498.75L586.125 469.5L585.375 469.5L585.375 498.75zM586.125 541.5L586.125 499.5L585.375 499.5L585.375 541.5zM544.125 131.25L544.125 89.25L543.375 89.25L543.375 131.25zM544.125 161.25L544.125 132L543.375 132L543.375 161.25zM544.125 204L544.125 162L543.375 162L543.375 204zM544.125 234L544.125 204.75L543.375 204.75L543.375 234zM544.125 264L544.125 234.75L543.375 234.75L543.375 264zM544.125 306.75L544.125 264.75L543.375 264.75L543.375 306.75zM544.125 336.75L544.125 307.5L543.375 307.5L543.375 336.75zM544.125 353.25L544.125 337.5L543.375 337.5L543.375 353.25zM544.125 396L544.125 354L543.375 354L543.375 396zM544.125 438.75L544.125 396.75L543.375 396.75L543.375 438.75zM544.125 468.75L544.125 439.5L543.375 439.5L543.375 468.75zM544.125 498.75L544.125 469.5L543.375 469.5L543.375 498.75zM544.125 541.5L544.125 499.5L543.375 499.5L543.375 541.5zM313.875 131.25L313.875 89.25L313.125 89.25L313.125 131.25zM313.875 161.25L313.875 132L313.125 132L313.125 161.25zM313.875 204L313.875 162L313.125 162L313.125 204zM313.875 234L313.875 204.75L313.125 204.75L313.125 234zM313.875 264L313.875 234.75L313.125 234.75L313.125 264zM313.875 306.75L313.875 264.75L313.125 264.75L313.125 306.75zM313.875 336.75L313.875 307.5L313.125 307.5L313.125 336.75zM313.875 353.25L313.875 337.5L313.125 337.5L313.125 353.25zM313.875 396L313.875 354L313.125 354L313.125 396zM313.875 438.75L313.875 396.75L313.125 396.75L313.125 438.75zM313.875 468.75L313.875 439.5L313.125 439.5L313.125 468.75zM313.875 498.75L313.875 469.5L313.125 469.5L313.125 498.75zM313.875 541.5L313.875 499.5L313.125 499.5L313.125 541.5zM251.625 131.25L251.625 89.25L250.875 89.25L250.875 131.25zM251.625 161.25L251.625 132L250.875 132L250.875 161.25zM251.625 204L251.625 162L250.875 162L250.875 204zM251.625 234L251.625 204.75L250.875 204.75L250.875 234zM251.625 264L251.625 234.75L250.875 234.75L250.875 264zM251.625 306.75L251.625 264.75L250.875 264.75L250.875 306.75zM251.625 336.75L251.625 307.5L250.875 307.5L250.875 336.75zM251.625 353.25L251.625 337.5L250.875 337.5L250.875 353.25zM251.625 396L251.625 354L250.875 354L250.875 396zM251.625 438.75L251.625 396.75L250.875 396.75L250.875 438.75zM251.625 468.75L251.625 439.5L250.875 439.5L250.875 468.75zM251.625 498.75L251.625 469.5L250.875 469.5L250.875 498.75zM251.625 541.5L251.625 499.5L250.875 499.5L250.875 541.5zM206.625 131.25L206.625 89.25L205.875 89.25L205.875 131.25zM206.625 161.25L206.625 132L205.875 132L205.875 161.25zM206.625 204L206.625 162L205.875 162L205.875 204zM206.625 234L206.625 204.75L205.875 204.75L205.875 234zM206.625 264L206.625 234.75L205.875 234.75L205.875 264zM206.625 306.75L206.625 264.75L205.875 264.75L205.875 306.75zM206.625 336.75L206.625 307.5L205.875 307.5L205.875 336.75zM206.625 353.25L206.625 337.5L205.875 337.5L205.875 353.25zM206.625 396L206.625 354L205.875 354L205.875 396zM206.625 438.75L206.625 396.75L205.875 396.75L205.875 438.75zM206.625 468.75L206.625 439.5L205.875 439.5L205.875 468.75zM206.625 498.75L206.625 469.5L205.875 469.5L205.875 498.75zM206.625 541.5L206.625 499.5L205.875 499.5L205.875 541.5z" stroke="none" fill="#000000" fill-rule="nonzero" fill-opacity="0.1490196" /><path id="88" transform="matrix(1 0 0 -1 0 612)" d="M316.125 528.6436L522.1958 528.6436" stroke="#000000" stroke-width="0.7017334" fill="none" /><path id="130" transform="matrix(1 0 0 -1 0 612)" d="M316.125 515.5547L537.6829 515.5547" stroke="#000000" stroke-width="0.7017334" fill="none" /><path id="160" transform="matrix(1 0 0 -1 0 612)" d="M316.125 502.4658L445.3989 502.4658" stroke="#000000" stroke-width="0.7017334" fill="none" /><path id="216" transform="matrix(1 0 0 -1 0 612)" d="M316.125 485.5547L532.0702 485.5547" stroke="#000000" stroke-width="0.7017334" fill="none" /><path id="229" transform="matrix(1 0 0 -1 0 612)" d="M316.125 472.4658L384.2882 472.4658" stroke="#000000" stroke-width="0.7017334" fill="none" /><path id="280" transform="matrix(1 0 0 -1 0 612)" d="M316.125 455.5547L487.0956 455.5547" stroke="#000000" stroke-width="0.7017334" fill="none" /><path id="321" transform="matrix(1 0 0 -1 0 612)" d="M316.125 442.4658L512.824 442.4658" stroke="#000000" stroke-width="0.7017334" fill="none" /><path id="378" transform="matrix(1 0 0 -1 0 612)" d="M316.125 425.8936L541.3635 425.8936" stroke="#000000" stroke-width="0.7017334" fill="none" /><path id="416" transform="matrix(1 0 0 -1 0 612)" d="M316.125 412.8047L503.028 412.8047" stroke="#000000" stroke-width="0.7017334" fill="none" /><path id="442" transform="matrix(1 0 0 -1 0 612)" d="M316.125 399.7158L441.666 399.7158" stroke="#000000" stroke-width="0.7017334" fill="none" /><path id="494" transform="matrix(1 0 0 -1 0 612)" d="M316.125 383.1436L495.1692 383.1436" stroke="#000000" stroke-width="0.7017334" fill="none" /><path id="533" transform="matrix(1 0 0 -1 0 612)" d="M316.125 370.0547L509.6511 370.0547" stroke="#000000" stroke-width="0.7017334" fill="none" /><path id="547" transform="matrix(1 0 0 -1 0 612)" d="M316.125 356.9658L392.8224 356.9658" stroke="#000000" stroke-width="0.7017334" fill="none" /><path id="586" transform="matrix(1 0 0 -1 0 612)" d="M316.125 340.4658L418.1525 340.4658" stroke="#000000" stroke-width="0.7017334" fill="none" /><path id="652" transform="matrix(1 0 0 -1 0 612)" d="M316.125 323.5547L525.2584 323.5547" stroke="#000000" stroke-width="0.7017334" fill="none" /><path id="672" transform="matrix(1 0 0 -1 0 612)" d="M316.125 310.4658L407.5137 310.4658" stroke="#000000" stroke-width="0.7017334" fill="none" /><path id="720" transform="matrix(1 0 0 -1 0 612)" d="M316.125 293.8936L490.3944 293.8936" stroke="#000000" stroke-width="0.7017334" fill="none" /><path id="764" transform="matrix(1 0 0 -1 0 612)" d="M316.125 280.8047L524.468 280.8047" stroke="#000000" stroke-width="0.7017334" fill="none" /><path id="788" transform="matrix(1 0 0 -1 0 612)" d="M316.125 267.7158L439.2941 267.7158" stroke="#000000" stroke-width="0.7017334" fill="none" /><path id="838" transform="matrix(1 0 0 -1 0 612)" d="M316.125 250.8047L488.9229 250.8047" stroke="#000000" stroke-width="0.7017334" fill="none" /><path id="868" transform="matrix(1 0 0 -1 0 612)" d="M316.125 237.7158L458.6085 237.7158" stroke="#000000" stroke-width="0.7017334" fill="none" /><path id="919" transform="matrix(1 0 0 -1 0 612)" d="M316.125 220.8047L508.7035 220.8047" stroke="#000000" stroke-width="0.7017334" fill="none" /><path id="942" transform="matrix(1 0 0 -1 0 612)" d="M316.125 207.7158L415.5766 207.7158" stroke="#000000" stroke-width="0.7017334" fill="none" /><path id="1001" transform="matrix(1 0 0 -1 0 612)" d="M316.125 191.1436L541.1436 191.1436" stroke="#000000" stroke-width="0.7017334" fill="none" /><path id="1035" transform="matrix(1 0 0 -1 0 612)" d="M316.125 178.0547L480.012 178.0547" stroke="#000000" stroke-width="0.7017334" fill="none" /><path id="1049" transform="matrix(1 0 0 -1 0 612)" d="M316.125 164.9658L379.1573 164.9658" stroke="#000000" stroke-width="0.7017334" fill="none" /><path id="1103" transform="matrix(1 0 0 -1 0 612)" d="M316.125 148.0547L520.002 148.0547" stroke="#000000" stroke-width="0.7017334" fill="none" /><path id="1117" transform="matrix(1 0 0 -1 0 612)" d="M316.125 134.9658L377.885 134.9658" stroke="#000000" stroke-width="0.7017334" fill="none" /><path id="1169" transform="matrix(1 0 0 -1 0 612)" d="M316.125 118.3936L506.5255 118.3936" stroke="#000000" stroke-width="0.7017334" fill="none" /><path id="1210" transform="matrix(1 0 0 -1 0 612)" d="M316.125 105.3047L525.4054 105.3047" stroke="#000000" stroke-width="0.7017334" fill="none" /><path id="1221" transform="matrix(1 0 0 -1 0 612)" d="M316.125 92.21582L362.8743 92.21582" stroke="#000000" stroke-width="0.7017334" fill="none" /></g></g></g></svg>