<svg xmlns="http://www.w3.org/2000/svg" xmlns:xlink="http://www.w3.org/1999/xlink" id="body_34" preserveAspectRatio="xMinYMin meet" viewBox="0 0 1056 816"><defs><clipPath id="1"><path id="" clip-rule="evenodd" transform="matrix(1 0 0 1 0 0)" d="M0 612L0 0L0 0L792 0L792 0L792 612L792 612L0 612z" /></clipPath><clipPath id="2"><path id="" clip-rule="evenodd" transform="matrix(1 0 0 1 0 0)" d="M205.125 52.5L586.875 52.5L586.875 52.5L586.875 69.75L586.875 69.75L205.125 69.75L205.125 69.75L205.125 52.5z" /></clipPath><clipPath id="3"><path id="" clip-rule="evenodd" transform="matrix(1 0 0 1 0 0)" d="M205.125 69L586.875 69L586.875 69L586.875 530.25L586.875 530.25L205.125 530.25L205.125 530.25L205.125 69z" /></clipPath></defs><g transform="matrix(1.333333 0 0 1.333333 0 0)"><g clip-path="url(#1)"><g clip-path="url(#2)"><path id="1" transform="matrix(1 0 0 -1 0 612)" d="M205.875 558.75L586.125 558.75L586.125 541.5L205.875 541.5L205.875 558.75z" stroke="none" fill="#4DD0E1" fill-rule="nonzero" /><path id="2" transform="matrix(1 0 0 -1 0 612)" d="M205.875 542.25L586.125 542.25L586.125 541.5L205.875 541.5zM205.875 558.75L586.125 558.75L586.125 558L205.875 558zM586.125 558L586.125 542.25L585.375 542.25L585.375 558zM544.125 558L544.125 542.25L543.375 542.25L543.375 558zM313.875 558L313.875 542.25L313.125 542.25L313.125 558zM251.625 558L251.625 542.25L250.875 542.25L250.875 558zM206.625 558L206.625 542.25L205.875 542.25L205.875 558z" stroke="none" fill="#000000" fill-rule="nonzero" fill-opacity="0.1490196" /></g><g clip-path="url(#3)"><path id="24" transform="matrix(1 0 0 -1 0 612)" d="M205.875 542.25L586.125 542.25L586.125 511.5L205.875 511.5L205.875 542.25z" stroke="none" fill="#FFFFFF" fill-rule="nonzero" /><path id="25" transform="matrix(1 0 0 -1 0 612)" d="M205.875 512.25L586.125 512.25L586.125 468.75L205.875 468.75L205.875 512.25z" stroke="none" fill="#E0F7FA" fill-rule="nonzero" /><path id="26" transform="matrix(1 0 0 -1 0 612)" d="M205.875 469.5L586.125 469.5L586.125 423.75L205.875 423.75L205.875 469.5z" stroke="none" fill="#FFFFFF" fill-rule="nonzero" /><path id="27" transform="matrix(1 0 0 -1 0 612)" d="M205.875 424.5L586.125 424.5L586.125 393.75L205.875 393.75L205.875 424.5z" stroke="none" fill="#E0F7FA" fill-rule="nonzero" /><path id="28" transform="matrix(1 0 0 -1 0 612)" d="M205.875 394.5L586.125 394.5L586.125 351L205.875 351L205.875 394.5z" stroke="none" fill="#FFFFFF" fill-rule="nonzero" /><path id="29" transform="matrix(1 0 0 -1 0 612)" d="M205.875 351.75L586.125 351.75L586.125 321L205.875 321L205.875 351.75z" stroke="none" fill="#E0F7FA" fill-rule="nonzero" /><path id="30" transform="matrix(1 0 0 -1 0 612)" d="M205.875 321.75L586.125 321.75L586.125 278.25L205.875 278.25L205.875 321.75z" stroke="none" fill="#FFFFFF" fill-rule="nonzero" /><path id="31" transform="matrix(1 0 0 -1 0 612)" d="M205.875 279L586.125 279L586.125 219L205.875 219L205.875 279z" stroke="none" fill="#E0F7FA" fill-rule="nonzero" /><path id="32" transform="matrix(1 0 0 -1 0 612)" d="M205.875 219.75L586.125 219.75L586.125 189L205.875 189L205.875 219.75z" stroke="none" fill="#FFFFFF" fill-rule="nonzero" /><path id="33" transform="matrix(1 0 0 -1 0 612)" d="M205.875 189.75L586.125 189.75L586.125 172.5L205.875 172.5L205.875 189.75z" stroke="none" fill="#E0F7FA" fill-rule="nonzero" /><path id="34" transform="matrix(1 0 0 -1 0 612)" d="M205.875 173.25L586.125 173.25L586.125 142.5L205.875 142.5L205.875 173.25z" stroke="none" fill="#FFFFFF" fill-rule="nonzero" /><path id="35" transform="matrix(1 0 0 -1 0 612)" d="M205.875 143.25L586.125 143.25L586.125 112.5L205.875 112.5L205.875 143.25z" stroke="none" fill="#E0F7FA" fill-rule="nonzero" /><path id="36" transform="matrix(1 0 0 -1 0 612)" d="M205.875 113.25L586.125 113.25L586.125 82.5L205.875 82.5L205.875 113.25z" stroke="none" fill="#FFFFFF" fill-rule="nonzero" /><path id="37" transform="matrix(1 0 0 -1 0 612)" d="M205.875 83.25L586.125 83.25L586.125 82.5L205.875 82.5zM205.875 113.25L586.125 113.25L586.125 112.5L205.875 112.5zM205.875 143.25L586.125 143.25L586.125 142.5L205.875 142.5zM205.875 173.25L586.125 173.25L586.125 172.5L205.875 172.5zM205.875 189.75L586.125 189.75L586.125 189L205.875 189zM205.875 219.75L586.125 219.75L586.125 219L205.875 219zM205.875 279L586.125 279L586.125 278.25L205.875 278.25zM205.875 321.75L586.125 321.75L586.125 321L205.875 321zM205.875 351.75L586.125 351.75L586.125 351L205.875 351zM205.875 394.5L586.125 394.5L586.125 393.75L205.875 393.75zM205.875 424.5L586.125 424.5L586.125 423.75L205.875 423.75zM205.875 469.5L586.125 469.5L586.125 468.75L205.875 468.75zM205.875 512.25L586.125 512.25L586.125 511.5L205.875 511.5zM205.875 542.25L586.125 542.25L586.125 541.5L205.875 541.5zM586.125 112.5L586.125 83.25L585.375 83.25L585.375 112.5zM586.125 142.5L586.125 113.25L585.375 113.25L585.375 142.5zM586.125 172.5L586.125 143.25L585.375 143.25L585.375 172.5zM586.125 189L586.125 173.25L585.375 173.25L585.375 189zM586.125 219L586.125 189.75L585.375 189.75L585.375 219zM586.125 278.25L586.125 219.75L585.375 219.75L585.375 278.25zM586.125 321L586.125 279L585.375 279L585.375 321zM586.125 351L586.125 321.75L585.375 321.75L585.375 351zM586.125 393.75L586.125 351.75L585.375 351.75L585.375 393.75zM586.125 423.75L586.125 394.5L585.375 394.5L585.375 423.75zM586.125 468.75L586.125 424.5L585.375 424.5L585.375 468.75zM586.125 511.5L586.125 469.5L585.375 469.5L585.375 511.5zM586.125 541.5L586.125 512.25L585.375 512.25L585.375 541.5zM544.125 112.5L544.125 83.25L543.375 83.25L543.375 112.5zM544.125 142.5L544.125 113.25L543.375 113.25L543.375 142.5zM544.125 172.5L544.125 143.25L543.375 143.25L543.375 172.5zM544.125 189L544.125 173.25L543.375 173.25L543.375 189zM544.125 219L544.125 189.75L543.375 189.75L543.375 219zM544.125 278.25L544.125 219.75L543.375 219.75L543.375 278.25zM544.125 321L544.125 279L543.375 279L543.375 321zM544.125 351L544.125 321.75L543.375 321.75L543.375 351zM544.125 393.75L544.125 351.75L543.375 351.75L543.375 393.75zM544.125 423.75L544.125 394.5L543.375 394.5L543.375 423.75zM544.125 468.75L544.125 424.5L543.375 424.5L543.375 468.75zM544.125 511.5L544.125 469.5L543.375 469.5L543.375 511.5zM544.125 541.5L544.125 512.25L543.375 512.25L543.375 541.5zM313.875 112.5L313.875 83.25L313.125 83.25L313.125 112.5zM313.875 142.5L313.875 113.25L313.125 113.25L313.125 142.5zM313.875 172.5L313.875 143.25L313.125 143.25L313.125 172.5zM313.875 189L313.875 173.25L313.125 173.25L313.125 189zM313.875 219L313.875 189.75L313.125 189.75L313.125 219zM313.875 278.25L313.875 219.75L313.125 219.75L313.125 278.25zM313.875 321L313.875 279L313.125 279L313.125 321zM313.875 351L313.875 321.75L313.125 321.75L313.125 351zM313.875 393.75L313.875 351.75L313.125 351.75L313.125 393.75zM313.875 423.75L313.875 394.5L313.125 394.5L313.125 423.75zM313.875 468.75L313.875 424.5L313.125 424.5L313.125 468.75zM313.875 511.5L313.875 469.5L313.125 469.5L313.125 511.5zM313.875 541.5L313.875 512.25L313.125 512.25L313.125 541.5zM251.625 112.5L251.625 83.25L250.875 83.25L250.875 112.5zM251.625 142.5L251.625 113.25L250.875 113.25L250.875 142.5zM251.625 172.5L251.625 143.25L250.875 143.25L250.875 172.5zM251.625 189L251.625 173.25L250.875 173.25L250.875 189zM251.625 219L251.625 189.75L250.875 189.75L250.875 219zM251.625 278.25L251.625 219.75L250.875 219.75L250.875 278.25zM251.625 321L251.625 279L250.875 279L250.875 321zM251.625 351L251.625 321.75L250.875 321.75L250.875 351zM251.625 393.75L251.625 351.75L250.875 351.75L250.875 393.75zM251.625 423.75L251.625 394.5L250.875 394.5L250.875 423.75zM251.625 468.75L251.625 424.5L250.875 424.5L250.875 468.75zM251.625 511.5L251.625 469.5L250.875 469.5L250.875 511.5zM251.625 541.5L251.625 512.25L250.875 512.25L250.875 541.5zM206.625 112.5L206.625 83.25L205.875 83.25L205.875 112.5zM206.625 142.5L206.625 113.25L205.875 113.25L205.875 142.5zM206.625 172.5L206.625 143.25L205.875 143.25L205.875 172.5zM206.625 189L206.625 173.25L205.875 173.25L205.875 189zM206.625 219L206.625 189.75L205.875 189.75L205.875 219zM206.625 278.25L206.625 219.75L205.875 219.75L205.875 278.25zM206.625 321L206.625 279L205.875 279L205.875 321zM206.625 351L206.625 321.75L205.875 321.75L205.875 351zM206.625 393.75L206.625 351.75L205.875 351.75L205.875 393.75zM206.625 423.75L206.625 394.5L205.875 394.5L205.875 423.75zM206.625 468.75L206.625 424.5L205.875 424.5L205.875 468.75zM206.625 511.5L206.625 469.5L205.875 469.5L205.875 511.5zM206.625 541.5L206.625 512.25L205.875 512.25L205.875 541.5z" stroke="none" fill="#000000" fill-rule="nonzero" fill-opacity="0.1490196" /><path id="83" transform="matrix(1 0 0 -1 0 612)" d="M316.125 528.3066L503.8867 528.3066" stroke="#000000" stroke-width="0.7017334" fill="none" /><path id="103" transform="matrix(1 0 0 -1 0 612)" d="M316.125 515.2168L408.1001 515.2168" stroke="#000000" stroke-width="0.7017334" fill="none" /><path id="155" transform="matrix(1 0 0 -1 0 612)" d="M316.125 498.6445L487.6769 498.6445" stroke="#000000" stroke-width="0.7017334" fill="none" /><path id="196" transform="matrix(1 0 0 -1 0 612)" d="M316.125 485.5566L522.0441 485.5566" stroke="#000000" stroke-width="0.7017334" fill="none" /><path id="208" transform="matrix(1 0 0 -1 0 612)" d="M316.125 472.4668L366.4398 472.4668" stroke="#000000" stroke-width="0.7017334" fill="none" /><path id="277" transform="matrix(1 0 0 -1 0 612)" d="M316.125 453.6445L521.9025 453.6445" stroke="#000000" stroke-width="0.7017334" fill="none" /><path id="321" transform="matrix(1 0 0 -1 0 612)" d="M316.125 440.5566L522.4733 440.5566" stroke="#000000" stroke-width="0.7017334" fill="none" /><path id="360" transform="matrix(1 0 0 -1 0 612)" d="M316.125 427.4668L507.185 427.4668" stroke="#000000" stroke-width="0.7017334" fill="none" /><path id="415" transform="matrix(1 0 0 -1 0 612)" d="M316.125 410.5566L514.2585 410.5566" stroke="#000000" stroke-width="0.7017334" fill="none" /><path id="428" transform="matrix(1 0 0 -1 0 612)" d="M316.125 397.4668L368.0262 397.4668" stroke="#000000" stroke-width="0.7017334" fill="none" /><path id="482" transform="matrix(1 0 0 -1 0 612)" d="M316.125 380.8945L497.5463 380.8945" stroke="#000000" stroke-width="0.7017334" fill="none" /><path id="528" transform="matrix(1 0 0 -1 0 612)" d="M316.125 367.8066L533.4839 367.8066" stroke="#000000" stroke-width="0.7017334" fill="none" /><path id="560" transform="matrix(1 0 0 -1 0 612)" d="M316.125 354.7168L484.8079 354.7168" stroke="#000000" stroke-width="0.7017334" fill="none" /><path id="625" transform="matrix(1 0 0 -1 0 612)" d="M316.125 337.8066L509.7297 337.8066" stroke="#000000" stroke-width="0.7017334" fill="none" /><path id="655" transform="matrix(1 0 0 -1 0 612)" d="M316.125 324.7168L450.1582 324.7168" stroke="#000000" stroke-width="0.7017334" fill="none" /><path id="708" transform="matrix(1 0 0 -1 0 612)" d="M316.125 308.1445L506.4415 308.1445" stroke="#000000" stroke-width="0.7017334" fill="none" /><path id="743" transform="matrix(1 0 0 -1 0 612)" d="M316.125 295.0566L493.5305 295.0566" stroke="#000000" stroke-width="0.7017334" fill="none" /><path id="752" transform="matrix(1 0 0 -1 0 612)" d="M316.125 281.9668L363.3979 281.9668" stroke="#000000" stroke-width="0.7017334" fill="none" /><path id="783" transform="matrix(1 0 0 -1 0 612)" d="M316.125 263.6484L392.4402 263.6484" stroke="#000000" stroke-width="0.7017334" fill="none" /><path id="785" transform="matrix(1 0 0 -1 0 612)" d="M392.4402 263.7266L398.4036 263.7266" stroke="#000000" stroke-width="0.7855225" fill="none" /><path id="808" transform="matrix(1 0 0 -1 0 612)" d="M398.4036 263.6484L502.8134 263.6484" stroke="#000000" stroke-width="0.7017334" fill="none" /><path id="827" transform="matrix(1 0 0 -1 0 612)" d="M316.125 248.8945L405.0948 248.8945" stroke="#000000" stroke-width="0.7017334" fill="none" /><path id="829" transform="matrix(1 0 0 -1 0 612)" d="M405.0948 248.9727L411.0582 248.9727" stroke="#000000" stroke-width="0.7855225" fill="none" /><path id="846" transform="matrix(1 0 0 -1 0 612)" d="M411.0582 248.8945L505.5517 248.8945" stroke="#000000" stroke-width="0.7017334" fill="none" /><path id="888" transform="matrix(1 0 0 -1 0 612)" d="M316.125 235.8066L527.8083 235.8066" stroke="#000000" stroke-width="0.7017334" fill="none" /><path id="892" transform="matrix(1 0 0 -1 0 612)" d="M316.125 222.7168L330.099 222.7168" stroke="#000000" stroke-width="0.7017334" fill="none" /><path id="950" transform="matrix(1 0 0 -1 0 612)" d="M316.125 205.8066L536.0125 205.8066" stroke="#000000" stroke-width="0.7017334" fill="none" /><path id="955" transform="matrix(1 0 0 -1 0 612)" d="M316.125 192.7168L336.1566 192.7168" stroke="#000000" stroke-width="0.7017334" fill="none" /><path id="1006" transform="matrix(1 0 0 -1 0 612)" d="M316.125 176.2168L498.1903 176.2168" stroke="#000000" stroke-width="0.7017334" fill="none" /><path id="1062" transform="matrix(1 0 0 -1 0 612)" d="M316.125 159.3066L519.3162 159.3066" stroke="#000000" stroke-width="0.7017334" fill="none" /><path id="1102" transform="matrix(1 0 0 -1 0 612)" d="M316.125 146.2168L518.2167 146.2168" stroke="#000000" stroke-width="0.7017334" fill="none" /><path id="1161" transform="matrix(1 0 0 -1 0 612)" d="M316.125 129.3066L526.3423 129.3066" stroke="#000000" stroke-width="0.7017334" fill="none" /><path id="1199" transform="matrix(1 0 0 -1 0 612)" d="M316.125 116.2168L498.1378 116.2168" stroke="#000000" stroke-width="0.7017334" fill="none" /><path id="1257" transform="matrix(1 0 0 -1 0 612)" d="M316.125 99.30664L526.688 99.30664" stroke="#000000" stroke-width="0.7017334" fill="none" /><path id="1291" transform="matrix(1 0 0 -1 0 612)" d="M316.125 86.2168L486.923 86.2168" stroke="#000000" stroke-width="0.7017334" fill="none" /></g></g></g></svg>