<svg xmlns="http://www.w3.org/2000/svg" xmlns:xlink="http://www.w3.org/1999/xlink" id="body_4" preserveAspectRatio="xMinYMin meet" viewBox="0 0 1056 816"><defs><clipPath id="1"><path id="" clip-rule="evenodd" transform="matrix(1 0 0 1 0 0)" d="M0 612L0 0L0 0L792 0L792 0L792 612L792 612L0 612z" /></clipPath><clipPath id="2"><path id="" clip-rule="evenodd" transform="matrix(1 0 0 1 0 0)" d="M205.125 52.5L586.875 52.5L586.875 52.5L586.875 69.75L586.875 69.75L205.125 69.75L205.125 69.75L205.125 52.5z" /></clipPath><clipPath id="3"><path id="" clip-rule="evenodd" transform="matrix(1 0 0 1 0 0)" d="M205.125 69L586.875 69L586.875 69L586.875 540L586.875 540L205.125 540L205.125 540L205.125 69z" /></clipPath></defs><g transform="matrix(1.333333 0 0 1.333333 0 0)"><g clip-path="url(#1)"><g clip-path="url(#2)"><path id="1" transform="matrix(1 0 0 -1 0 612)" d="M205.875 558.75L586.125 558.75L586.125 541.5L205.875 541.5L205.875 558.75z" stroke="none" fill="#4DD0E1" fill-rule="nonzero" /><path id="2" transform="matrix(1 0 0 -1 0 612)" d="M205.875 542.25L586.125 542.25L586.125 541.5L205.875 541.5zM205.875 558.75L586.125 558.75L586.125 558L205.875 558zM586.125 558L586.125 542.25L585.375 542.25L585.375 558zM544.125 558L544.125 542.25L543.375 542.25L543.375 558zM313.875 558L313.875 542.25L313.125 542.25L313.125 558zM251.625 558L251.625 542.25L250.875 542.25L250.875 558zM206.625 558L206.625 542.25L205.875 542.25L205.875 558z" stroke="none" fill="#000000" fill-rule="nonzero" fill-opacity="0.1490196" /></g><g clip-path="url(#3)"><path id="24" transform="matrix(1 0 0 -1 0 612)" d="M205.875 542.25L586.125 542.25L586.125 511.5L205.875 511.5L205.875 542.25z" stroke="none" fill="#E0F7FA" fill-rule="nonzero" /><path id="25" transform="matrix(1 0 0 -1 0 612)" d="M205.875 512.25L586.125 512.25L586.125 481.5L205.875 481.5L205.875 512.25z" stroke="none" fill="#FFFFFF" fill-rule="nonzero" /><path id="26" transform="matrix(1 0 0 -1 0 612)" d="M205.875 482.25L586.125 482.25L586.125 423.75L205.875 423.75L205.875 482.25z" stroke="none" fill="#E0F7FA" fill-rule="nonzero" /><path id="27" transform="matrix(1 0 0 -1 0 612)" d="M205.875 424.5L586.125 424.5L586.125 378.75L205.875 378.75L205.875 424.5z" stroke="none" fill="#FFFFFF" fill-rule="nonzero" /><path id="28" transform="matrix(1 0 0 -1 0 612)" d="M205.875 379.5L586.125 379.5L586.125 348.75L205.875 348.75L205.875 379.5z" stroke="none" fill="#E0F7FA" fill-rule="nonzero" /><path id="29" transform="matrix(1 0 0 -1 0 612)" d="M205.875 349.5L586.125 349.5L586.125 318.75L205.875 318.75L205.875 349.5z" stroke="none" fill="#FFFFFF" fill-rule="nonzero" /><path id="30" transform="matrix(1 0 0 -1 0 612)" d="M205.875 319.5L586.125 319.5L586.125 276L205.875 276L205.875 319.5z" stroke="none" fill="#E0F7FA" fill-rule="nonzero" /><path id="31" transform="matrix(1 0 0 -1 0 612)" d="M205.875 276.75L586.125 276.75L586.125 233.25L205.875 233.25L205.875 276.75z" stroke="none" fill="#FFFFFF" fill-rule="nonzero" /><path id="32" transform="matrix(1 0 0 -1 0 612)" d="M205.875 234L586.125 234L586.125 190.5L205.875 190.5L205.875 234z" stroke="none" fill="#E0F7FA" fill-rule="nonzero" /><path id="33" transform="matrix(1 0 0 -1 0 612)" d="M205.875 191.25L586.125 191.25L586.125 147.75L205.875 147.75L205.875 191.25z" stroke="none" fill="#FFFFFF" fill-rule="nonzero" /><path id="34" transform="matrix(1 0 0 -1 0 612)" d="M205.875 148.5L586.125 148.5L586.125 117.75L205.875 117.75L205.875 148.5z" stroke="none" fill="#E0F7FA" fill-rule="nonzero" /><path id="35" transform="matrix(1 0 0 -1 0 612)" d="M205.875 118.5L586.125 118.5L586.125 72.75L205.875 72.75L205.875 118.5z" stroke="none" fill="#FFFFFF" fill-rule="nonzero" /><path id="36" transform="matrix(1 0 0 -1 0 612)" d="M205.875 73.5L586.125 73.5L586.125 72.75L205.875 72.75zM205.875 118.5L586.125 118.5L586.125 117.75L205.875 117.75zM205.875 148.5L586.125 148.5L586.125 147.75L205.875 147.75zM205.875 191.25L586.125 191.25L586.125 190.5L205.875 190.5zM205.875 234L586.125 234L586.125 233.25L205.875 233.25zM205.875 276.75L586.125 276.75L586.125 276L205.875 276zM205.875 319.5L586.125 319.5L586.125 318.75L205.875 318.75zM205.875 349.5L586.125 349.5L586.125 348.75L205.875 348.75zM205.875 379.5L586.125 379.5L586.125 378.75L205.875 378.75zM205.875 424.5L586.125 424.5L586.125 423.75L205.875 423.75zM205.875 482.25L586.125 482.25L586.125 481.5L205.875 481.5zM205.875 512.25L586.125 512.25L586.125 511.5L205.875 511.5zM205.875 542.25L586.125 542.25L586.125 541.5L205.875 541.5zM586.125 117.75L586.125 73.5L585.375 73.5L585.375 117.75zM586.125 147.75L586.125 118.5L585.375 118.5L585.375 147.75zM586.125 190.5L586.125 148.5L585.375 148.5L585.375 190.5zM586.125 233.25L586.125 191.25L585.375 191.25L585.375 233.25zM586.125 276L586.125 234L585.375 234L585.375 276zM586.125 318.75L586.125 276.75L585.375 276.75L585.375 318.75zM586.125 348.75L586.125 319.5L585.375 319.5L585.375 348.75zM586.125 378.75L586.125 349.5L585.375 349.5L585.375 378.75zM586.125 423.75L586.125 379.5L585.375 379.5L585.375 423.75zM586.125 481.5L586.125 424.5L585.375 424.5L585.375 481.5zM586.125 511.5L586.125 482.25L585.375 482.25L585.375 511.5zM586.125 541.5L586.125 512.25L585.375 512.25L585.375 541.5zM544.125 117.75L544.125 73.5L543.375 73.5L543.375 117.75zM544.125 147.75L544.125 118.5L543.375 118.5L543.375 147.75zM544.125 190.5L544.125 148.5L543.375 148.5L543.375 190.5zM544.125 233.25L544.125 191.25L543.375 191.25L543.375 233.25zM544.125 276L544.125 234L543.375 234L543.375 276zM544.125 318.75L544.125 276.75L543.375 276.75L543.375 318.75zM544.125 348.75L544.125 319.5L543.375 319.5L543.375 348.75zM544.125 378.75L544.125 349.5L543.375 349.5L543.375 378.75zM544.125 423.75L544.125 379.5L543.375 379.5L543.375 423.75zM544.125 481.5L544.125 424.5L543.375 424.5L543.375 481.5zM544.125 511.5L544.125 482.25L543.375 482.25L543.375 511.5zM544.125 541.5L544.125 512.25L543.375 512.25L543.375 541.5zM313.875 117.75L313.875 73.5L313.125 73.5L313.125 117.75zM313.875 147.75L313.875 118.5L313.125 118.5L313.125 147.75zM313.875 190.5L313.875 148.5L313.125 148.5L313.125 190.5zM313.875 233.25L313.875 191.25L313.125 191.25L313.125 233.25zM313.875 276L313.875 234L313.125 234L313.125 276zM313.875 318.75L313.875 276.75L313.125 276.75L313.125 318.75zM313.875 348.75L313.875 319.5L313.125 319.5L313.125 348.75zM313.875 378.75L313.875 349.5L313.125 349.5L313.125 378.75zM313.875 423.75L313.875 379.5L313.125 379.5L313.125 423.75zM313.875 481.5L313.875 424.5L313.125 424.5L313.125 481.5zM313.875 511.5L313.875 482.25L313.125 482.25L313.125 511.5zM313.875 541.5L313.875 512.25L313.125 512.25L313.125 541.5zM251.625 117.75L251.625 73.5L250.875 73.5L250.875 117.75zM251.625 147.75L251.625 118.5L250.875 118.5L250.875 147.75zM251.625 190.5L251.625 148.5L250.875 148.5L250.875 190.5zM251.625 233.25L251.625 191.25L250.875 191.25L250.875 233.25zM251.625 276L251.625 234L250.875 234L250.875 276zM251.625 318.75L251.625 276.75L250.875 276.75L250.875 318.75zM251.625 348.75L251.625 319.5L250.875 319.5L250.875 348.75zM251.625 378.75L251.625 349.5L250.875 349.5L250.875 378.75zM251.625 423.75L251.625 379.5L250.875 379.5L250.875 423.75zM251.625 481.5L251.625 424.5L250.875 424.5L250.875 481.5zM251.625 511.5L251.625 482.25L250.875 482.25L250.875 511.5zM251.625 541.5L251.625 512.25L250.875 512.25L250.875 541.5zM206.625 117.75L206.625 73.5L205.875 73.5L205.875 117.75zM206.625 147.75L206.625 118.5L205.875 118.5L205.875 147.75zM206.625 190.5L206.625 148.5L205.875 148.5L205.875 190.5zM206.625 233.25L206.625 191.25L205.875 191.25L205.875 233.25zM206.625 276L206.625 234L205.875 234L205.875 276zM206.625 318.75L206.625 276.75L205.875 276.75L205.875 318.75zM206.625 348.75L206.625 319.5L205.875 319.5L205.875 348.75zM206.625 378.75L206.625 349.5L205.875 349.5L205.875 378.75zM206.625 423.75L206.625 379.5L205.875 379.5L205.875 423.75zM206.625 481.5L206.625 424.5L205.875 424.5L205.875 481.5zM206.625 511.5L206.625 482.25L205.875 482.25L205.875 511.5zM206.625 541.5L206.625 512.25L205.875 512.25L205.875 541.5z" stroke="none" fill="#000000" fill-rule="nonzero" fill-opacity="0.1490196" /><path id="91" transform="matrix(1 0 0 -1 0 612)" d="M316.125 528.3049L532.6306 528.3049" stroke="#000000" stroke-width="0.7017334" fill="none" /><path id="99" transform="matrix(1 0 0 -1 0 612)" d="M316.125 515.2158L347.0469 515.2158" stroke="#000000" stroke-width="0.7017334" fill="none" /><path id="155" transform="matrix(1 0 0 -1 0 612)" d="M316.125 498.3049L533.1226 498.3049" stroke="#000000" stroke-width="0.7017334" fill="none" /><path id="183" transform="matrix(1 0 0 -1 0 612)" d="M316.125 485.2158L457.1426 485.2158" stroke="#000000" stroke-width="0.7017334" fill="none" /><path id="257" transform="matrix(1 0 0 -1 0 612)" d="M316.125 440.5549L516.85 440.5549" stroke="#000000" stroke-width="0.7017334" fill="none" /><path id="283" transform="matrix(1 0 0 -1 0 612)" d="M316.125 427.4658L455.3309 427.4658" stroke="#000000" stroke-width="0.7017334" fill="none" /><path id="361" transform="matrix(1 0 0 -1 0 612)" d="M316.125 410.3091L534.3792 410.3091" stroke="#000000" stroke-width="0.7017334" fill="none" /><path id="406" transform="matrix(1 0 0 -1 0 612)" d="M316.125 397.2198L517.7141 397.2198" stroke="#000000" stroke-width="0.7017334" fill="none" /><path id="432" transform="matrix(1 0 0 -1 0 612)" d="M316.125 382.4658L454.1843 382.4658" stroke="#000000" stroke-width="0.7017334" fill="none" /><path id="434" transform="matrix(1 0 0 -1 0 612)" d="M454.1843 382.5443L460.1477 382.5443" stroke="#000000" stroke-width="0.7855225" fill="none" /><path id="439" transform="matrix(1 0 0 -1 0 612)" d="M460.1477 382.4658L476.9699 382.4658" stroke="#000000" stroke-width="0.7017334" fill="none" /><path id="488" transform="matrix(1 0 0 -1 0 612)" d="M316.125 365.5549L520.363 365.5549" stroke="#000000" stroke-width="0.7017334" fill="none" /><path id="522" transform="matrix(1 0 0 -1 0 612)" d="M316.125 352.4658L474.771 352.4658" stroke="#000000" stroke-width="0.7017334" fill="none" /><path id="580" transform="matrix(1 0 0 -1 0 612)" d="M316.125 335.5549L541.0965 335.5549" stroke="#000000" stroke-width="0.7017334" fill="none" /><path id="586" transform="matrix(1 0 0 -1 0 612)" d="M316.125 322.4658L337.6907 322.4658" stroke="#000000" stroke-width="0.7017334" fill="none" /><path id="637" transform="matrix(1 0 0 -1 0 612)" d="M316.125 305.8942L530.0964 305.8942" stroke="#000000" stroke-width="0.7017334" fill="none" /><path id="680" transform="matrix(1 0 0 -1 0 612)" d="M316.125 292.8049L526.7561 292.8049" stroke="#000000" stroke-width="0.7017334" fill="none" /><path id="710" transform="matrix(1 0 0 -1 0 612)" d="M316.125 279.7158L469.0275 279.7158" stroke="#000000" stroke-width="0.7017334" fill="none" /><path id="775" transform="matrix(1 0 0 -1 0 612)" d="M316.125 236.9658L482.4047 236.9658" stroke="#000000" stroke-width="0.7017334" fill="none" /><path id="833" transform="matrix(1 0 0 -1 0 612)" d="M316.125 220.3942L520.4001 220.3942" stroke="#000000" stroke-width="0.7017334" fill="none" /><path id="868" transform="matrix(1 0 0 -1 0 612)" d="M316.125 207.3049L480.1481 207.3049" stroke="#000000" stroke-width="0.7017334" fill="none" /><path id="892" transform="matrix(1 0 0 -1 0 612)" d="M316.125 194.2158L431.802 194.2158" stroke="#000000" stroke-width="0.7017334" fill="none" /><path id="950" transform="matrix(1 0 0 -1 0 612)" d="M316.125 177.6442L525.0807 177.6442" stroke="#000000" stroke-width="0.7017334" fill="none" /><path id="987" transform="matrix(1 0 0 -1 0 612)" d="M316.125 164.5549L509.0647 164.5549" stroke="#000000" stroke-width="0.7017334" fill="none" /><path id="1013" transform="matrix(1 0 0 -1 0 612)" d="M316.125 151.4658L432.6605 151.4658" stroke="#000000" stroke-width="0.7017334" fill="none" /><path id="1073" transform="matrix(1 0 0 -1 0 612)" d="M316.125 134.5549L514.1486 134.5549" stroke="#000000" stroke-width="0.7017334" fill="none" /><path id="1103" transform="matrix(1 0 0 -1 0 612)" d="M316.125 121.4658L465.8757 121.4658" stroke="#000000" stroke-width="0.7017334" fill="none" /><path id="1183" transform="matrix(1 0 0 -1 0 612)" d="M316.125 102.6442L524.269 102.6442" stroke="#000000" stroke-width="0.7017334" fill="none" /><path id="1228" transform="matrix(1 0 0 -1 0 612)" d="M316.125 89.55493L530.0074 89.55493" stroke="#000000" stroke-width="0.7017334" fill="none" /><path id="1266" transform="matrix(1 0 0 -1 0 612)" d="M316.125 76.46582L492.4153 76.46582" stroke="#000000" stroke-width="0.7017334" fill="none" /></g></g></g></svg>