<svg xmlns="http://www.w3.org/2000/svg" xmlns:xlink="http://www.w3.org/1999/xlink" id="body_7" preserveAspectRatio="xMinYMin meet" viewBox="0 0 1056 816"><defs><clipPath id="1"><path id="" clip-rule="evenodd" transform="matrix(1 0 0 1 0 0)" d="M0 612L0 0L0 0L792 0L792 0L792 612L792 612L0 612z" /></clipPath><clipPath id="2"><path id="" clip-rule="evenodd" transform="matrix(1 0 0 1 0 0)" d="M205.125 52.5L586.875 52.5L586.875 52.5L586.875 69.75L586.875 69.75L205.125 69.75L205.125 69.75L205.125 52.5z" /></clipPath><clipPath id="3"><path id="" clip-rule="evenodd" transform="matrix(1 0 0 1 0 0)" d="M205.125 69L586.875 69L586.875 69L586.875 555L586.875 555L205.125 555L205.125 555L205.125 69z" /></clipPath></defs><g transform="matrix(1.333333 0 0 1.333333 0 0)"><g clip-path="url(#1)"><g clip-path="url(#2)"><path id="1" transform="matrix(1 0 0 -1 0 612)" d="M205.875 558.75L586.125 558.75L586.125 541.5L205.875 541.5L205.875 558.75z" stroke="none" fill="#4DD0E1" fill-rule="nonzero" /><path id="2" transform="matrix(1 0 0 -1 0 612)" d="M205.875 542.25L586.125 542.25L586.125 541.5L205.875 541.5zM205.875 558.75L586.125 558.75L586.125 558L205.875 558zM586.125 558L586.125 542.25L585.375 542.25L585.375 558zM544.125 558L544.125 542.25L543.375 542.25L543.375 558zM313.875 558L313.875 542.25L313.125 542.25L313.125 558zM251.625 558L251.625 542.25L250.875 542.25L250.875 558zM206.625 558L206.625 542.25L205.875 542.25L205.875 558z" stroke="none" fill="#000000" fill-rule="nonzero" fill-opacity="0.1490196" /></g><g clip-path="url(#3)"><path id="24" transform="matrix(1 0 0 -1 0 612)" d="M205.875 542.25L586.125 542.25L586.125 511.5L205.875 511.5L205.875 542.25z" stroke="none" fill="#E0F7FA" fill-rule="nonzero" /><path id="25" transform="matrix(1 0 0 -1 0 612)" d="M205.875 512.25L586.125 512.25L586.125 481.5L205.875 481.5L205.875 512.25z" stroke="none" fill="#FFFFFF" fill-rule="nonzero" /><path id="26" transform="matrix(1 0 0 -1 0 612)" d="M205.875 482.25L586.125 482.25L586.125 451.5L205.875 451.5L205.875 482.25z" stroke="none" fill="#E0F7FA" fill-rule="nonzero" /><path id="27" transform="matrix(1 0 0 -1 0 612)" d="M205.875 452.25L586.125 452.25L586.125 421.5L205.875 421.5L205.875 452.25z" stroke="none" fill="#FFFFFF" fill-rule="nonzero" /><path id="28" transform="matrix(1 0 0 -1 0 612)" d="M205.875 422.25L586.125 422.25L586.125 378.75L205.875 378.75L205.875 422.25z" stroke="none" fill="#E0F7FA" fill-rule="nonzero" /><path id="29" transform="matrix(1 0 0 -1 0 612)" d="M205.875 379.5L586.125 379.5L586.125 336L205.875 336L205.875 379.5z" stroke="none" fill="#FFFFFF" fill-rule="nonzero" /><path id="30" transform="matrix(1 0 0 -1 0 612)" d="M205.875 336.75L586.125 336.75L586.125 306L205.875 306L205.875 336.75z" stroke="none" fill="#E0F7FA" fill-rule="nonzero" /><path id="31" transform="matrix(1 0 0 -1 0 612)" d="M205.875 306.75L586.125 306.75L586.125 263.25L205.875 263.25L205.875 306.75z" stroke="none" fill="#FFFFFF" fill-rule="nonzero" /><path id="32" transform="matrix(1 0 0 -1 0 612)" d="M205.875 264L586.125 264L586.125 233.25L205.875 233.25L205.875 264z" stroke="none" fill="#E0F7FA" fill-rule="nonzero" /><path id="33" transform="matrix(1 0 0 -1 0 612)" d="M205.875 234L586.125 234L586.125 203.25L205.875 203.25L205.875 234z" stroke="none" fill="#FFFFFF" fill-rule="nonzero" /><path id="34" transform="matrix(1 0 0 -1 0 612)" d="M205.875 204L586.125 204L586.125 173.25L205.875 173.25L205.875 204z" stroke="none" fill="#E0F7FA" fill-rule="nonzero" /><path id="35" transform="matrix(1 0 0 -1 0 612)" d="M205.875 174L586.125 174L586.125 143.25L205.875 143.25L205.875 174z" stroke="none" fill="#FFFFFF" fill-rule="nonzero" /><path id="36" transform="matrix(1 0 0 -1 0 612)" d="M205.875 144L586.125 144L586.125 100.5L205.875 100.5L205.875 144z" stroke="none" fill="#E0F7FA" fill-rule="nonzero" /><path id="37" transform="matrix(1 0 0 -1 0 612)" d="M205.875 101.25L586.125 101.25L586.125 57.75L205.875 57.75L205.875 101.25z" stroke="none" fill="#FFFFFF" fill-rule="nonzero" /><path id="38" transform="matrix(1 0 0 -1 0 612)" d="M205.875 58.5L586.125 58.5L586.125 57.75L205.875 57.75zM205.875 101.25L586.125 101.25L586.125 100.5L205.875 100.5zM205.875 144L586.125 144L586.125 143.25L205.875 143.25zM205.875 174L586.125 174L586.125 173.25L205.875 173.25zM205.875 204L586.125 204L586.125 203.25L205.875 203.25zM205.875 234L586.125 234L586.125 233.25L205.875 233.25zM205.875 264L586.125 264L586.125 263.25L205.875 263.25zM205.875 306.75L586.125 306.75L586.125 306L205.875 306zM205.875 336.75L586.125 336.75L586.125 336L205.875 336zM205.875 379.5L586.125 379.5L586.125 378.75L205.875 378.75zM205.875 422.25L586.125 422.25L586.125 421.5L205.875 421.5zM205.875 452.25L586.125 452.25L586.125 451.5L205.875 451.5zM205.875 482.25L586.125 482.25L586.125 481.5L205.875 481.5zM205.875 512.25L586.125 512.25L586.125 511.5L205.875 511.5zM205.875 542.25L586.125 542.25L586.125 541.5L205.875 541.5zM586.125 100.5L586.125 58.5L585.375 58.5L585.375 100.5zM586.125 143.25L586.125 101.25L585.375 101.25L585.375 143.25zM586.125 173.25L586.125 144L585.375 144L585.375 173.25zM586.125 203.25L586.125 174L585.375 174L585.375 203.25zM586.125 233.25L586.125 204L585.375 204L585.375 233.25zM586.125 263.25L586.125 234L585.375 234L585.375 263.25zM586.125 306L586.125 264L585.375 264L585.375 306zM586.125 336L586.125 306.75L585.375 306.75L585.375 336zM586.125 378.75L586.125 336.75L585.375 336.75L585.375 378.75zM586.125 421.5L586.125 379.5L585.375 379.5L585.375 421.5zM586.125 451.5L586.125 422.25L585.375 422.25L585.375 451.5zM586.125 481.5L586.125 452.25L585.375 452.25L585.375 481.5zM586.125 511.5L586.125 482.25L585.375 482.25L585.375 511.5zM586.125 541.5L586.125 512.25L585.375 512.25L585.375 541.5zM544.125 100.5L544.125 58.5L543.375 58.5L543.375 100.5zM544.125 143.25L544.125 101.25L543.375 101.25L543.375 143.25zM544.125 173.25L544.125 144L543.375 144L543.375 173.25zM544.125 203.25L544.125 174L543.375 174L543.375 203.25zM544.125 233.25L544.125 204L543.375 204L543.375 233.25zM544.125 263.25L544.125 234L543.375 234L543.375 263.25zM544.125 306L544.125 264L543.375 264L543.375 306zM544.125 336L544.125 306.75L543.375 306.75L543.375 336zM544.125 378.75L544.125 336.75L543.375 336.75L543.375 378.75zM544.125 421.5L544.125 379.5L543.375 379.5L543.375 421.5zM544.125 451.5L544.125 422.25L543.375 422.25L543.375 451.5zM544.125 481.5L544.125 452.25L543.375 452.25L543.375 481.5zM544.125 511.5L544.125 482.25L543.375 482.25L543.375 511.5zM544.125 541.5L544.125 512.25L543.375 512.25L543.375 541.5zM313.875 100.5L313.875 58.5L313.125 58.5L313.125 100.5zM313.875 143.25L313.875 101.25L313.125 101.25L313.125 143.25zM313.875 173.25L313.875 144L313.125 144L313.125 173.25zM313.875 203.25L313.875 174L313.125 174L313.125 203.25zM313.875 233.25L313.875 204L313.125 204L313.125 233.25zM313.875 263.25L313.875 234L313.125 234L313.125 263.25zM313.875 306L313.875 264L313.125 264L313.125 306zM313.875 336L313.875 306.75L313.125 306.75L313.125 336zM313.875 378.75L313.875 336.75L313.125 336.75L313.125 378.75zM313.875 421.5L313.875 379.5L313.125 379.5L313.125 421.5zM313.875 451.5L313.875 422.25L313.125 422.25L313.125 451.5zM313.875 481.5L313.875 452.25L313.125 452.25L313.125 481.5zM313.875 511.5L313.875 482.25L313.125 482.25L313.125 511.5zM313.875 541.5L313.875 512.25L313.125 512.25L313.125 541.5zM251.625 100.5L251.625 58.5L250.875 58.5L250.875 100.5zM251.625 143.25L251.625 101.25L250.875 101.25L250.875 143.25zM251.625 173.25L251.625 144L250.875 144L250.875 173.25zM251.625 203.25L251.625 174L250.875 174L250.875 203.25zM251.625 233.25L251.625 204L250.875 204L250.875 233.25zM251.625 263.25L251.625 234L250.875 234L250.875 263.25zM251.625 306L251.625 264L250.875 264L250.875 306zM251.625 336L251.625 306.75L250.875 306.75L250.875 336zM251.625 378.75L251.625 336.75L250.875 336.75L250.875 378.75zM251.625 421.5L251.625 379.5L250.875 379.5L250.875 421.5zM251.625 451.5L251.625 422.25L250.875 422.25L250.875 451.5zM251.625 481.5L251.625 452.25L250.875 452.25L250.875 481.5zM251.625 511.5L251.625 482.25L250.875 482.25L250.875 511.5zM251.625 541.5L251.625 512.25L250.875 512.25L250.875 541.5zM206.625 100.5L206.625 58.5L205.875 58.5L205.875 100.5zM206.625 143.25L206.625 101.25L205.875 101.25L205.875 143.25zM206.625 173.25L206.625 144L205.875 144L205.875 173.25zM206.625 203.25L206.625 174L205.875 174L205.875 203.25zM206.625 233.25L206.625 204L205.875 204L205.875 233.25zM206.625 263.25L206.625 234L205.875 234L205.875 263.25zM206.625 306L206.625 264L205.875 264L205.875 306zM206.625 336L206.625 306.75L205.875 306.75L205.875 336zM206.625 378.75L206.625 336.75L205.875 336.75L205.875 378.75zM206.625 421.5L206.625 379.5L205.875 379.5L205.875 421.5zM206.625 451.5L206.625 422.25L205.875 422.25L205.875 451.5zM206.625 481.5L206.625 452.25L205.875 452.25L205.875 481.5zM206.625 511.5L206.625 482.25L205.875 482.25L205.875 511.5zM206.625 541.5L206.625 512.25L205.875 512.25L205.875 541.5z" stroke="none" fill="#000000" fill-rule="nonzero" fill-opacity="0.1490196" /><path id="103" transform="matrix(1 0 0 -1 0 612)" d="M316.125 528.3049L525.9026 528.3049" stroke="#000000" stroke-width="0.7017334" fill="none" /><path id="144" transform="matrix(1 0 0 -1 0 612)" d="M316.125 515.2158L502.0647 515.2158" stroke="#000000" stroke-width="0.7017334" fill="none" /><path id="201" transform="matrix(1 0 0 -1 0 612)" d="M316.125 498.3049L538.065 498.3049" stroke="#000000" stroke-width="0.7017334" fill="none" /><path id="240" transform="matrix(1 0 0 -1 0 612)" d="M316.125 485.2158L511.1486 485.2158" stroke="#000000" stroke-width="0.7017334" fill="none" /><path id="292" transform="matrix(1 0 0 -1 0 612)" d="M316.125 468.3049L497.7818 468.3049" stroke="#000000" stroke-width="0.7017334" fill="none" /><path id="313" transform="matrix(1 0 0 -1 0 612)" d="M316.125 455.2158L412.4352 455.2158" stroke="#000000" stroke-width="0.7017334" fill="none" /><path id="365" transform="matrix(1 0 0 -1 0 612)" d="M316.125 438.3049L508.3214 438.3049" stroke="#000000" stroke-width="0.7017334" fill="none" /><path id="378" transform="matrix(1 0 0 -1 0 612)" d="M316.125 425.2158L369.932 425.2158" stroke="#000000" stroke-width="0.7017334" fill="none" /><path id="436" transform="matrix(1 0 0 -1 0 612)" d="M316.125 408.644L525.0859 408.644" stroke="#000000" stroke-width="0.7017334" fill="none" /><path id="477" transform="matrix(1 0 0 -1 0 612)" d="M316.125 395.5549L504.405 395.5549" stroke="#000000" stroke-width="0.7017334" fill="none" /><path id="491" transform="matrix(1 0 0 -1 0 612)" d="M316.125 382.4658L377.885 382.4658" stroke="#000000" stroke-width="0.7017334" fill="none" /><path id="562" transform="matrix(1 0 0 -1 0 612)" d="M316.125 365.894L520.5833 365.894" stroke="#000000" stroke-width="0.7017334" fill="none" /><path id="602" transform="matrix(1 0 0 -1 0 612)" d="M316.125 352.8049L505.8709 352.8049" stroke="#000000" stroke-width="0.7017334" fill="none" /><path id="638" transform="matrix(1 0 0 -1 0 612)" d="M316.125 339.7158L489.5512 339.7158" stroke="#000000" stroke-width="0.7017334" fill="none" /><path id="689" transform="matrix(1 0 0 -1 0 612)" d="M316.125 322.8049L495.1588 322.8049" stroke="#000000" stroke-width="0.7017334" fill="none" /><path id="705" transform="matrix(1 0 0 -1 0 612)" d="M316.125 309.7158L384.906 309.7158" stroke="#000000" stroke-width="0.7017334" fill="none" /><path id="773" transform="matrix(1 0 0 -1 0 612)" d="M316.125 293.144L542.1384 293.144" stroke="#000000" stroke-width="0.7017334" fill="none" /><path id="813" transform="matrix(1 0 0 -1 0 612)" d="M316.125 280.0549L528.0544 280.0549" stroke="#000000" stroke-width="0.7017334" fill="none" /><path id="823" transform="matrix(1 0 0 -1 0 612)" d="M316.125 266.9656L363.89 266.9656" stroke="#000000" stroke-width="0.7017334" fill="none" /><path id="873" transform="matrix(1 0 0 -1 0 612)" d="M316.125 250.0547L502.1274 250.0547" stroke="#000000" stroke-width="0.7017334" fill="none" /><path id="899" transform="matrix(1 0 0 -1 0 612)" d="M316.125 236.9656L443.7916 236.9656" stroke="#000000" stroke-width="0.7017334" fill="none" /><path id="958" transform="matrix(1 0 0 -1 0 612)" d="M316.125 220.0547L540.1436 220.0547" stroke="#000000" stroke-width="0.7017334" fill="none" /><path id="1000" transform="matrix(1 0 0 -1 0 612)" d="M316.125 206.9656L519.1434 206.9656" stroke="#000000" stroke-width="0.7017334" fill="none" /><path id="1057" transform="matrix(1 0 0 -1 0 612)" d="M316.125 190.0547L524.0492 190.0547" stroke="#000000" stroke-width="0.7017334" fill="none" /><path id="1069" transform="matrix(1 0 0 -1 0 612)" d="M316.125 176.9656L371.7226 176.9656" stroke="#000000" stroke-width="0.7017334" fill="none" /><path id="1132" transform="matrix(1 0 0 -1 0 612)" d="M316.125 146.9656L526.7247 146.9656" stroke="#000000" stroke-width="0.7017334" fill="none" /><path id="1186" transform="matrix(1 0 0 -1 0 612)" d="M316.125 130.3938L500.4521 130.3938" stroke="#000000" stroke-width="0.7017334" fill="none" /><path id="1231" transform="matrix(1 0 0 -1 0 612)" d="M316.125 117.3047L540.4839 117.3047" stroke="#000000" stroke-width="0.7017334" fill="none" /><path id="1254" transform="matrix(1 0 0 -1 0 612)" d="M316.125 104.2156L437.1528 104.2156" stroke="#000000" stroke-width="0.7017334" fill="none" /><path id="1318" transform="matrix(1 0 0 -1 0 612)" d="M316.125 87.6438L514.6146 87.6438" stroke="#000000" stroke-width="0.7017334" fill="none" /><path id="1359" transform="matrix(1 0 0 -1 0 612)" d="M316.125 74.55469L527.8922 74.55469" stroke="#000000" stroke-width="0.7017334" fill="none" /><path id="1381" transform="matrix(1 0 0 -1 0 612)" d="M316.125 61.46558L425.0269 61.46558" stroke="#000000" stroke-width="0.7017334" fill="none" /></g></g></g></svg>