<svg xmlns="http://www.w3.org/2000/svg" xmlns:xlink="http://www.w3.org/1999/xlink" id="body_11" preserveAspectRatio="xMinYMin meet" viewBox="0 0 1056 816"><defs><clipPath id="1"><path id="" clip-rule="evenodd" transform="matrix(1 0 0 1 0 0)" d="M0 612L0 0L0 0L792 0L792 0L792 612L792 612L0 612z" /></clipPath><clipPath id="2"><path id="" clip-rule="evenodd" transform="matrix(1 0 0 1 0 0)" d="M205.125 52.5L586.875 52.5L586.875 52.5L586.875 69.75L586.875 69.75L205.125 69.75L205.125 69.75L205.125 52.5z" /></clipPath><clipPath id="3"><path id="" clip-rule="evenodd" transform="matrix(1 0 0 1 0 0)" d="M205.125 69L586.875 69L586.875 69L586.875 558L586.875 558L205.125 558L205.125 558L205.125 69z" /></clipPath></defs><g transform="matrix(1.333333 0 0 1.333333 0 0)"><g clip-path="url(#1)"><g clip-path="url(#2)"><path id="1" transform="matrix(1 0 0 -1 0 612)" d="M205.875 558.75L586.125 558.75L586.125 541.5L205.875 541.5L205.875 558.75z" stroke="none" fill="#4DD0E1" fill-rule="nonzero" /><path id="2" transform="matrix(1 0 0 -1 0 612)" d="M205.875 542.25L586.125 542.25L586.125 541.5L205.875 541.5zM205.875 558.75L586.125 558.75L586.125 558L205.875 558zM586.125 558L586.125 542.25L585.375 542.25L585.375 558zM544.125 558L544.125 542.25L543.375 542.25L543.375 558zM313.875 558L313.875 542.25L313.125 542.25L313.125 558zM251.625 558L251.625 542.25L250.875 542.25L250.875 558zM206.625 558L206.625 542.25L205.875 542.25L205.875 558z" stroke="none" fill="#000000" fill-rule="nonzero" fill-opacity="0.1490196" /></g><g clip-path="url(#3)"><path id="24" transform="matrix(1 0 0 -1 0 612)" d="M205.875 542.25L586.125 542.25L586.125 498.75L205.875 498.75L205.875 542.25z" stroke="none" fill="#E0F7FA" fill-rule="nonzero" /><path id="25" transform="matrix(1 0 0 -1 0 612)" d="M205.875 499.5L586.125 499.5L586.125 482.25L205.875 482.25L205.875 499.5z" stroke="none" fill="#FFFFFF" fill-rule="nonzero" /><path id="26" transform="matrix(1 0 0 -1 0 612)" d="M205.875 483L586.125 483L586.125 452.25L205.875 452.25L205.875 483z" stroke="none" fill="#E0F7FA" fill-rule="nonzero" /><path id="27" transform="matrix(1 0 0 -1 0 612)" d="M205.875 453L586.125 453L586.125 422.25L205.875 422.25L205.875 453z" stroke="none" fill="#FFFFFF" fill-rule="nonzero" /><path id="28" transform="matrix(1 0 0 -1 0 612)" d="M205.875 423L586.125 423L586.125 379.5L205.875 379.5L205.875 423z" stroke="none" fill="#E0F7FA" fill-rule="nonzero" /><path id="29" transform="matrix(1 0 0 -1 0 612)" d="M205.875 380.25L586.125 380.25L586.125 336.75L205.875 336.75L205.875 380.25z" stroke="none" fill="#FFFFFF" fill-rule="nonzero" /><path id="30" transform="matrix(1 0 0 -1 0 612)" d="M205.875 337.5L586.125 337.5L586.125 294L205.875 294L205.875 337.5z" stroke="none" fill="#E0F7FA" fill-rule="nonzero" /><path id="31" transform="matrix(1 0 0 -1 0 612)" d="M205.875 294.75L586.125 294.75L586.125 264L205.875 264L205.875 294.75z" stroke="none" fill="#FFFFFF" fill-rule="nonzero" /><path id="32" transform="matrix(1 0 0 -1 0 612)" d="M205.875 264.75L586.125 264.75L586.125 247.5L205.875 247.5L205.875 264.75z" stroke="none" fill="#E0F7FA" fill-rule="nonzero" /><path id="33" transform="matrix(1 0 0 -1 0 612)" d="M205.875 248.25L586.125 248.25L586.125 204.75L205.875 204.75L205.875 248.25z" stroke="none" fill="#FFFFFF" fill-rule="nonzero" /><path id="34" transform="matrix(1 0 0 -1 0 612)" d="M205.875 205.5L586.125 205.5L586.125 174.75L205.875 174.75L205.875 205.5z" stroke="none" fill="#E0F7FA" fill-rule="nonzero" /><path id="35" transform="matrix(1 0 0 -1 0 612)" d="M205.875 175.5L586.125 175.5L586.125 144.75L205.875 144.75L205.875 175.5z" stroke="none" fill="#FFFFFF" fill-rule="nonzero" /><path id="36" transform="matrix(1 0 0 -1 0 612)" d="M205.875 145.5L586.125 145.5L586.125 114.75L205.875 114.75L205.875 145.5z" stroke="none" fill="#E0F7FA" fill-rule="nonzero" /><path id="37" transform="matrix(1 0 0 -1 0 612)" d="M205.875 115.5L586.125 115.5L586.125 84.75L205.875 84.75L205.875 115.5z" stroke="none" fill="#FFFFFF" fill-rule="nonzero" /><path id="38" transform="matrix(1 0 0 -1 0 612)" d="M205.875 85.5L586.125 85.5L586.125 54.75L205.875 54.75L205.875 85.5z" stroke="none" fill="#E0F7FA" fill-rule="nonzero" /><path id="39" transform="matrix(1 0 0 -1 0 612)" d="M205.875 55.5L586.125 55.5L586.125 54.75L205.875 54.75zM205.875 85.5L586.125 85.5L586.125 84.75L205.875 84.75zM205.875 115.5L586.125 115.5L586.125 114.75L205.875 114.75zM205.875 145.5L586.125 145.5L586.125 144.75L205.875 144.75zM205.875 175.5L586.125 175.5L586.125 174.75L205.875 174.75zM205.875 205.5L586.125 205.5L586.125 204.75L205.875 204.75zM205.875 248.25L586.125 248.25L586.125 247.5L205.875 247.5zM205.875 264.75L586.125 264.75L586.125 264L205.875 264zM205.875 294.75L586.125 294.75L586.125 294L205.875 294zM205.875 337.5L586.125 337.5L586.125 336.75L205.875 336.75zM205.875 380.25L586.125 380.25L586.125 379.5L205.875 379.5zM205.875 423L586.125 423L586.125 422.25L205.875 422.25zM205.875 453L586.125 453L586.125 452.25L205.875 452.25zM205.875 483L586.125 483L586.125 482.25L205.875 482.25zM205.875 499.5L586.125 499.5L586.125 498.75L205.875 498.75zM205.875 542.25L586.125 542.25L586.125 541.5L205.875 541.5zM586.125 84.75L586.125 55.5L585.375 55.5L585.375 84.75zM586.125 114.75L586.125 85.5L585.375 85.5L585.375 114.75zM586.125 144.75L586.125 115.5L585.375 115.5L585.375 144.75zM586.125 174.75L586.125 145.5L585.375 145.5L585.375 174.75zM586.125 204.75L586.125 175.5L585.375 175.5L585.375 204.75zM586.125 247.5L586.125 205.5L585.375 205.5L585.375 247.5zM586.125 264L586.125 248.25L585.375 248.25L585.375 264zM586.125 294L586.125 264.75L585.375 264.75L585.375 294zM586.125 336.75L586.125 294.75L585.375 294.75L585.375 336.75zM586.125 379.5L586.125 337.5L585.375 337.5L585.375 379.5zM586.125 422.25L586.125 380.25L585.375 380.25L585.375 422.25zM586.125 452.25L586.125 423L585.375 423L585.375 452.25zM586.125 482.25L586.125 453L585.375 453L585.375 482.25zM586.125 498.75L586.125 483L585.375 483L585.375 498.75zM586.125 541.5L586.125 499.5L585.375 499.5L585.375 541.5zM544.125 84.75L544.125 55.5L543.375 55.5L543.375 84.75zM544.125 114.75L544.125 85.5L543.375 85.5L543.375 114.75zM544.125 144.75L544.125 115.5L543.375 115.5L543.375 144.75zM544.125 174.75L544.125 145.5L543.375 145.5L543.375 174.75zM544.125 204.75L544.125 175.5L543.375 175.5L543.375 204.75zM544.125 247.5L544.125 205.5L543.375 205.5L543.375 247.5zM544.125 264L544.125 248.25L543.375 248.25L543.375 264zM544.125 294L544.125 264.75L543.375 264.75L543.375 294zM544.125 336.75L544.125 294.75L543.375 294.75L543.375 336.75zM544.125 379.5L544.125 337.5L543.375 337.5L543.375 379.5zM544.125 422.25L544.125 380.25L543.375 380.25L543.375 422.25zM544.125 452.25L544.125 423L543.375 423L543.375 452.25zM544.125 482.25L544.125 453L543.375 453L543.375 482.25zM544.125 498.75L544.125 483L543.375 483L543.375 498.75zM544.125 541.5L544.125 499.5L543.375 499.5L543.375 541.5zM313.875 84.75L313.875 55.5L313.125 55.5L313.125 84.75zM313.875 114.75L313.875 85.5L313.125 85.5L313.125 114.75zM313.875 144.75L313.875 115.5L313.125 115.5L313.125 144.75zM313.875 174.75L313.875 145.5L313.125 145.5L313.125 174.75zM313.875 204.75L313.875 175.5L313.125 175.5L313.125 204.75zM313.875 247.5L313.875 205.5L313.125 205.5L313.125 247.5zM313.875 264L313.875 248.25L313.125 248.25L313.125 264zM313.875 294L313.875 264.75L313.125 264.75L313.125 294zM313.875 336.75L313.875 294.75L313.125 294.75L313.125 336.75zM313.875 379.5L313.875 337.5L313.125 337.5L313.125 379.5zM313.875 422.25L313.875 380.25L313.125 380.25L313.125 422.25zM313.875 452.25L313.875 423L313.125 423L313.125 452.25zM313.875 482.25L313.875 453L313.125 453L313.125 482.25zM313.875 498.75L313.875 483L313.125 483L313.125 498.75zM313.875 541.5L313.875 499.5L313.125 499.5L313.125 541.5zM251.625 84.75L251.625 55.5L250.875 55.5L250.875 84.75zM251.625 114.75L251.625 85.5L250.875 85.5L250.875 114.75zM251.625 144.75L251.625 115.5L250.875 115.5L250.875 144.75zM251.625 174.75L251.625 145.5L250.875 145.5L250.875 174.75zM251.625 204.75L251.625 175.5L250.875 175.5L250.875 204.75zM251.625 247.5L251.625 205.5L250.875 205.5L250.875 247.5zM251.625 264L251.625 248.25L250.875 248.25L250.875 264zM251.625 294L251.625 264.75L250.875 264.75L250.875 294zM251.625 336.75L251.625 294.75L250.875 294.75L250.875 336.75zM251.625 379.5L251.625 337.5L250.875 337.5L250.875 379.5zM251.625 422.25L251.625 380.25L250.875 380.25L250.875 422.25zM251.625 452.25L251.625 423L250.875 423L250.875 452.25zM251.625 482.25L251.625 453L250.875 453L250.875 482.25zM251.625 498.75L251.625 483L250.875 483L250.875 498.75zM251.625 541.5L251.625 499.5L250.875 499.5L250.875 541.5zM206.625 84.75L206.625 55.5L205.875 55.5L205.875 84.75zM206.625 114.75L206.625 85.5L205.875 85.5L205.875 114.75zM206.625 144.75L206.625 115.5L205.875 115.5L205.875 144.75zM206.625 174.75L206.625 145.5L205.875 145.5L205.875 174.75zM206.625 204.75L206.625 175.5L205.875 175.5L205.875 204.75zM206.625 247.5L206.625 205.5L205.875 205.5L205.875 247.5zM206.625 264L206.625 248.25L205.875 248.25L205.875 264zM206.625 294L206.625 264.75L205.875 264.75L205.875 294zM206.625 336.75L206.625 294.75L205.875 294.75L205.875 336.75zM206.625 379.5L206.625 337.5L205.875 337.5L205.875 379.5zM206.625 422.25L206.625 380.25L205.875 380.25L205.875 422.25zM206.625 452.25L206.625 423L205.875 423L205.875 452.25zM206.625 482.25L206.625 453L205.875 453L205.875 482.25zM206.625 498.75L206.625 483L205.875 483L205.875 498.75zM206.625 541.5L206.625 499.5L205.875 499.5L205.875 541.5z" stroke="none" fill="#000000" fill-rule="nonzero" fill-opacity="0.1490196" /><path id="101" transform="matrix(1 0 0 -1 0 612)" d="M316.125 528.6436L526.447 528.6436" stroke="#000000" stroke-width="0.7017334" fill="none" /><path id="143" transform="matrix(1 0 0 -1 0 612)" d="M316.125 515.5547L509.4728 515.5547" stroke="#000000" stroke-width="0.7017334" fill="none" /><path id="157" transform="matrix(1 0 0 -1 0 612)" d="M316.125 502.4658L377.885 502.4658" stroke="#000000" stroke-width="0.7017334" fill="none" /><path id="197" transform="matrix(1 0 0 -1 0 612)" d="M316.125 485.9658L454.2053 485.9658" stroke="#000000" stroke-width="0.7017334" fill="none" /><path id="252" transform="matrix(1 0 0 -1 0 612)" d="M316.125 469.0547L540.4159 469.0547" stroke="#000000" stroke-width="0.7017334" fill="none" /><path id="277" transform="matrix(1 0 0 -1 0 612)" d="M316.125 455.9658L426.9275 455.9658" stroke="#000000" stroke-width="0.7017334" fill="none" /><path id="329" transform="matrix(1 0 0 -1 0 612)" d="M316.125 439.0547L508.5935 439.0547" stroke="#000000" stroke-width="0.7017334" fill="none" /><path id="354" transform="matrix(1 0 0 -1 0 612)" d="M316.125 425.9658L439.8805 425.9658" stroke="#000000" stroke-width="0.7017334" fill="none" /><path id="411" transform="matrix(1 0 0 -1 0 612)" d="M316.125 409.3936L526.044 409.3936" stroke="#000000" stroke-width="0.7017334" fill="none" /><path id="448" transform="matrix(1 0 0 -1 0 612)" d="M316.125 396.3047L508.1902 396.3047" stroke="#000000" stroke-width="0.7017334" fill="none" /><path id="474" transform="matrix(1 0 0 -1 0 612)" d="M316.125 383.2158L434.1318 383.2158" stroke="#000000" stroke-width="0.7017334" fill="none" /><path id="530" transform="matrix(1 0 0 -1 0 612)" d="M316.125 366.6436L527.8242 366.6436" stroke="#000000" stroke-width="0.7017334" fill="none" /><path id="569" transform="matrix(1 0 0 -1 0 612)" d="M316.125 353.5547L521.9601 353.5547" stroke="#000000" stroke-width="0.7017334" fill="none" /><path id="603" transform="matrix(1 0 0 -1 0 612)" d="M316.125 340.4658L494.6613 340.4658" stroke="#000000" stroke-width="0.7017334" fill="none" /><path id="680" transform="matrix(1 0 0 -1 0 612)" d="M316.125 297.7158L530.1907 297.7158" stroke="#000000" stroke-width="0.7017334" fill="none" /><path id="736" transform="matrix(1 0 0 -1 0 612)" d="M316.125 280.8047L531.5415 280.8047" stroke="#000000" stroke-width="0.7017334" fill="none" /><path id="744" transform="matrix(1 0 0 -1 0 612)" d="M316.125 267.7158L348.806 267.7158" stroke="#000000" stroke-width="0.7017334" fill="none" /><path id="789" transform="matrix(1 0 0 -1 0 612)" d="M316.125 251.2158L458.5981 251.2158" stroke="#000000" stroke-width="0.7017334" fill="none" /><path id="853" transform="matrix(1 0 0 -1 0 612)" d="M316.125 221.5547L533.6566 221.5547" stroke="#000000" stroke-width="0.7017334" fill="none" /><path id="863" transform="matrix(1 0 0 -1 0 612)" d="M316.125 208.4658L370.5237 208.4658" stroke="#000000" stroke-width="0.7017334" fill="none" /><path id="920" transform="matrix(1 0 0 -1 0 612)" d="M316.125 191.5547L521.5309 191.5547" stroke="#000000" stroke-width="0.7017334" fill="none" /><path id="940" transform="matrix(1 0 0 -1 0 612)" d="M316.125 178.4658L419.1105 178.4658" stroke="#000000" stroke-width="0.7017334" fill="none" /><path id="993" transform="matrix(1 0 0 -1 0 612)" d="M316.125 161.5547L488.4464 161.5547" stroke="#000000" stroke-width="0.7017334" fill="none" /><path id="1020" transform="matrix(1 0 0 -1 0 612)" d="M316.125 148.4658L454.9698 148.4658" stroke="#000000" stroke-width="0.7017334" fill="none" /><path id="1073" transform="matrix(1 0 0 -1 0 612)" d="M316.125 131.5547L505.7242 131.5547" stroke="#000000" stroke-width="0.7017334" fill="none" /><path id="1109" transform="matrix(1 0 0 -1 0 612)" d="M316.125 118.4658L478.7083 118.4658" stroke="#000000" stroke-width="0.7017334" fill="none" /><path id="1168" transform="matrix(1 0 0 -1 0 612)" d="M316.125 101.5547L513.248 101.5547" stroke="#000000" stroke-width="0.7017334" fill="none" /><path id="1208" transform="matrix(1 0 0 -1 0 612)" d="M316.125 88.46582L511.693 88.46582" stroke="#000000" stroke-width="0.7017334" fill="none" /><path id="1263" transform="matrix(1 0 0 -1 0 612)" d="M316.125 71.55469L526.489 71.55469" stroke="#000000" stroke-width="0.7017334" fill="none" /><path id="1300" transform="matrix(1 0 0 -1 0 612)" d="M316.125 58.46582L491.41 58.46582" stroke="#000000" stroke-width="0.7017334" fill="none" /></g></g></g></svg>