<svg xmlns="http://www.w3.org/2000/svg" xmlns:xlink="http://www.w3.org/1999/xlink" id="body_6" preserveAspectRatio="xMinYMin meet" viewBox="0 0 1056 816"><defs><clipPath id="1"><path id="" clip-rule="evenodd" transform="matrix(1 0 0 1 0 0)" d="M0 612L0 0L0 0L792 0L792 0L792 612L792 612L0 612z" /></clipPath><clipPath id="2"><path id="" clip-rule="evenodd" transform="matrix(1 0 0 1 0 0)" d="M144 558L648 558L648 558L648 54L648 54L144 54z" /></clipPath><clipPath id="3"><path id="" clip-rule="evenodd" transform="matrix(1 0 0 1 0 0)" d="M144 558L648 558L648 558L648 54L648 54L144 54z" /></clipPath><clipPath id="4"><path id="" clip-rule="evenodd" transform="matrix(1 0 0 1 0 0)" d="M144 558L648 558L648 558L648 54L648 54L144 54z" /></clipPath><clipPath id="5"><path id="" clip-rule="evenodd" transform="matrix(1 0 0 1 0 0)" d="M144 558L648 558L648 558L648 54L648 54L144 54z" /></clipPath><clipPath id="6"><path id="" clip-rule="evenodd" transform="matrix(1 0 0 1 0 0)" d="M144 558L648 558L648 558L648 54L648 54L144 54z" /></clipPath><clipPath id="7"><path id="" clip-rule="evenodd" transform="matrix(1 0 0 1 0 0)" d="M144 558L648 558L648 558L648 54L648 54L144 54z" /></clipPath><clipPath id="8"><path id="" clip-rule="evenodd" transform="matrix(1 0 0 1 0 0)" d="M144 558L648 558L648 558L648 54L648 54L144 54z" /></clipPath><clipPath id="9"><path id="" clip-rule="evenodd" transform="matrix(1 0 0 1 0 0)" d="M144 558L648 558L648 558L648 54L648 54L144 54z" /></clipPath><clipPath id="10"><path id="" clip-rule="evenodd" transform="matrix(1 0 0 1 0 0)" d="M144 558L648 558L648 558L648 54L648 54L144 54z" /></clipPath><clipPath id="11"><path id="" clip-rule="evenodd" transform="matrix(1 0 0 1 0 0)" d="M144 558L648 558L648 558L648 54L648 54L144 54z" /></clipPath><clipPath id="12"><path id="" clip-rule="evenodd" transform="matrix(1 0 0 1 0 0)" d="M206.27 526.09L642.52 526.09L642.52 526.09L642.52 59.47998L642.52 59.47998L206.27 59.47998z" /></clipPath><clipPath id="13"><path id="" clip-rule="evenodd" transform="matrix(1 0 0 1 0 0)" d="M144 558L648 558L648 558L648 54L648 54L144 54z" /></clipPath><clipPath id="14"><path id="" clip-rule="evenodd" transform="matrix(1 0 0 1 0 0)" d="M144 558L648 558L648 558L648 54L648 54L144 54z" /></clipPath><clipPath id="15"><path id="" clip-rule="evenodd" transform="matrix(1 0 0 1 0 0)" d="M144 558L648 558L648 558L648 54L648 54L144 54z" /></clipPath><clipPath id="16"><path id="" clip-rule="evenodd" transform="matrix(1 0 0 1 0 0)" d="M144 558L648 558L648 558L648 54L648 54L144 54z" /></clipPath><clipPath id="17"><path id="" clip-rule="evenodd" transform="matrix(1 0 0 1 0 0)" d="M144 558L648 558L648 558L648 54L648 54L144 54z" /></clipPath><clipPath id="18"><path id="" clip-rule="evenodd" transform="matrix(1 0 0 1 0 0)" d="M144 558L648 558L648 558L648 54L648 54L144 54z" /></clipPath><clipPath id="19"><path id="" clip-rule="evenodd" transform="matrix(1 0 0 1 0 0)" d="M144 558L648 558L648 558L648 54L648 54L144 54z" /></clipPath><clipPath id="20"><path id="" clip-rule="evenodd" transform="matrix(1 0 0 1 0 0)" d="M144 558L648 558L648 558L648 54L648 54L144 54z" /></clipPath><clipPath id="21"><path id="" clip-rule="evenodd" transform="matrix(1 0 0 1 0 0)" d="M144 558L648 558L648 558L648 54L648 54L144 54z" /></clipPath><clipPath id="22"><path id="" clip-rule="evenodd" transform="matrix(1 0 0 1 0 0)" d="M144 558L648 558L648 558L648 54L648 54L144 54z" /></clipPath><clipPath id="23"><path id="" clip-rule="evenodd" transform="matrix(1 0 0 1 0 0)" d="M144 558L648 558L648 558L648 54L648 54L144 54z" /></clipPath><clipPath id="24"><path id="" clip-rule="evenodd" transform="matrix(1 0 0 1 0 0)" d="M144 558L648 558L648 558L648 54L648 54L144 54z" /></clipPath><clipPath id="25"><path id="" clip-rule="evenodd" transform="matrix(1 0 0 1 0 0)" d="M144 558L648 558L648 558L648 54L648 54L144 54z" /></clipPath><clipPath id="26"><path id="" clip-rule="evenodd" transform="matrix(1 0 0 1 0 0)" d="M144 558L648 558L648 558L648 54L648 54L144 54z" /></clipPath><clipPath id="27"><path id="" clip-rule="evenodd" transform="matrix(1 0 0 1 0 0)" d="M144 558L648 558L648 558L648 54L648 54L144 54z" /></clipPath><clipPath id="28"><path id="" clip-rule="evenodd" transform="matrix(1 0 0 1 0 0)" d="M144 558L648 558L648 558L648 54L648 54L144 54z" /></clipPath><clipPath id="29"><path id="" clip-rule="evenodd" transform="matrix(1 0 0 1 0 0)" d="M144 558L648 558L648 558L648 54L648 54L144 54z" /></clipPath><clipPath id="30"><path id="" clip-rule="evenodd" transform="matrix(1 0 0 1 0 0)" d="M144 558L648 558L648 558L648 54L648 54L144 54z" /></clipPath><clipPath id="31"><path id="" clip-rule="evenodd" transform="matrix(1 0 0 1 0 0)" d="M144 558L648 558L648 558L648 54L648 54L144 54z" /></clipPath><clipPath id="32"><path id="" clip-rule="evenodd" transform="matrix(1 0 0 1 0 0)" d="M144 558L648 558L648 558L648 54L648 54L144 54z" /></clipPath><clipPath id="33"><path id="" clip-rule="evenodd" transform="matrix(1 0 0 1 0 0)" d="M144 558L648 558L648 558L648 54L648 54L144 54z" /></clipPath><clipPath id="34"><path id="" clip-rule="evenodd" transform="matrix(1 0 0 1 0 0)" d="M144 558L648 558L648 558L648 54L648 54L144 54z" /></clipPath><clipPath id="35"><path id="" clip-rule="evenodd" transform="matrix(1 0 0 1 0 0)" d="M144 558L648 558L648 558L648 54L648 54L144 54z" /></clipPath><clipPath id="36"><path id="" clip-rule="evenodd" transform="matrix(1 0 0 1 0 0)" d="M144 558L648 558L648 558L648 54L648 54L144 54z" /></clipPath><clipPath id="37"><path id="" clip-rule="evenodd" transform="matrix(1 0 0 1 0 0)" d="M144 558L648 558L648 558L648 54L648 54L144 54z" /></clipPath><clipPath id="38"><path id="" clip-rule="evenodd" transform="matrix(1 0 0 1 0 0)" d="M144 558L648 558L648 558L648 54L648 54L144 54z" /></clipPath><clipPath id="39"><path id="" clip-rule="evenodd" transform="matrix(1 0 0 1 0 0)" d="M144 558L648 558L648 558L648 54L648 54L144 54z" /></clipPath><clipPath id="40"><path id="" clip-rule="evenodd" transform="matrix(1 0 0 1 0 0)" d="M144 558L648 558L648 558L648 54L648 54L144 54z" /></clipPath><clipPath id="41"><path id="" clip-rule="evenodd" transform="matrix(1 0 0 1 0 0)" d="M144 558L648 558L648 558L648 54L648 54L144 54z" /></clipPath><clipPath id="42"><path id="" clip-rule="evenodd" transform="matrix(1 0 0 1 0 0)" d="M144 558L648 558L648 558L648 54L648 54L144 54z" /></clipPath><clipPath id="43"><path id="" clip-rule="evenodd" transform="matrix(1 0 0 1 0 0)" d="M144 558L648 558L648 558L648 54L648 54L144 54z" /></clipPath><clipPath id="44"><path id="" clip-rule="evenodd" transform="matrix(1 0 0 1 0 0)" d="M144 558L648 558L648 558L648 54L648 54L144 54z" /></clipPath><clipPath id="45"><path id="" clip-rule="evenodd" transform="matrix(1 0 0 1 0 0)" d="M144 558L648 558L648 558L648 54L648 54L144 54z" /></clipPath><clipPath id="46"><path id="" clip-rule="evenodd" transform="matrix(1 0 0 1 0 0)" d="M144 558L648 558L648 558L648 54L648 54L144 54z" /></clipPath><clipPath id="47"><path id="" clip-rule="evenodd" transform="matrix(1 0 0 1 0 0)" d="M144 558L648 558L648 558L648 54L648 54L144 54z" /></clipPath><clipPath id="48"><path id="" clip-rule="evenodd" transform="matrix(1 0 0 1 0 0)" d="M144 558L648 558L648 558L648 54L648 54L144 54z" /></clipPath><clipPath id="49"><path id="" clip-rule="evenodd" transform="matrix(1 0 0 1 0 0)" d="M144 558L648 558L648 558L648 54L648 54L144 54z" /></clipPath><clipPath id="50"><path id="" clip-rule="evenodd" transform="matrix(1 0 0 1 0 0)" d="M144 558L648 558L648 558L648 54L648 54L144 54z" /></clipPath><clipPath id="51"><path id="" clip-rule="evenodd" transform="matrix(1 0 0 1 0 0)" d="M144 558L648 558L648 558L648 54L648 54L144 54z" /></clipPath><clipPath id="52"><path id="" clip-rule="evenodd" transform="matrix(1 0 0 1 0 0)" d="M144 558L648 558L648 558L648 54L648 54L144 54z" /></clipPath><clipPath id="53"><path id="" clip-rule="evenodd" transform="matrix(1 0 0 1 0 0)" d="M144 558L648 558L648 558L648 54L648 54L144 54z" /></clipPath><clipPath id="54"><path id="" clip-rule="evenodd" transform="matrix(1 0 0 1 0 0)" d="M144 558L648 558L648 558L648 54L648 54L144 54z" /></clipPath><clipPath id="55"><path id="" clip-rule="evenodd" transform="matrix(1 0 0 1 0 0)" d="M144 558L648 558L648 558L648 54L648 54L144 54z" /></clipPath><clipPath id="56"><path id="" clip-rule="evenodd" transform="matrix(1 0 0 1 0 0)" d="M144 558L648 558L648 558L648 54L648 54L144 54z" /></clipPath><clipPath id="57"><path id="" clip-rule="evenodd" transform="matrix(1 0 0 1 0 0)" d="M144 558L648 558L648 558L648 54L648 54L144 54z" /></clipPath><clipPath id="58"><path id="" clip-rule="evenodd" transform="matrix(1 0 0 1 0 0)" d="M144 558L648 558L648 558L648 54L648 54L144 54z" /></clipPath><clipPath id="59"><path id="" clip-rule="evenodd" transform="matrix(1 0 0 1 0 0)" d="M144 558L648 558L648 558L648 54L648 54L144 54z" /></clipPath><clipPath id="60"><path id="" clip-rule="evenodd" transform="matrix(1 0 0 1 0 0)" d="M144 558L648 558L648 558L648 54L648 54L144 54z" /></clipPath><clipPath id="61"><path id="" clip-rule="evenodd" transform="matrix(1 0 0 1 0 0)" d="M144 558L648 558L648 558L648 54L648 54L144 54z" /></clipPath><clipPath id="62"><path id="" clip-rule="evenodd" transform="matrix(1 0 0 1 0 0)" d="M144 558L648 558L648 558L648 54L648 54L144 54z" /></clipPath></defs><g transform="matrix(1.333333 0 0 1.333333 0 0)"><g clip-path="url(#1)"><g clip-path="url(#2)"></g><g clip-path="url(#3)"></g><g clip-path="url(#4)"></g><g clip-path="url(#5)"></g><g clip-path="url(#6)"></g><g clip-path="url(#7)"></g><g clip-path="url(#8)"></g><g clip-path="url(#9)"></g><g clip-path="url(#10)"><path id="1" transform="matrix(1 0 0 -1 0 612)" d="M144 54L648 54L648 54L648 558L648 558L144 558z" stroke="#FFFFFF" stroke-width="1.07" fill="#FFFFFF" fill-rule="nonzero" /></g><g clip-path="url(#11)"></g><g clip-path="url(#12)"><path id="2" transform="matrix(1 0 0 -1 0 612)" d="M206.27 85.91L642.52 85.91L642.52 552.52L206.27 552.52z" stroke="none" fill="#FFFFFF" fill-rule="nonzero" /><path id="3" transform="matrix(1 0 0 -1 0 612)" d="M259.15 85.91L259.15 552.52" stroke="#EBEBEB" stroke-width="0.53" fill="none" /><path id="4" transform="matrix(1 0 0 -1 0 612)" d="M341.77 85.91L341.77 552.52" stroke="#EBEBEB" stroke-width="0.53" fill="none" /><path id="5" transform="matrix(1 0 0 -1 0 612)" d="M424.39 85.91L424.39 552.52" stroke="#EBEBEB" stroke-width="0.53" fill="none" /><path id="6" transform="matrix(1 0 0 -1 0 612)" d="M507.02 85.91L507.02 552.52" stroke="#EBEBEB" stroke-width="0.53" fill="none" /><path id="7" transform="matrix(1 0 0 -1 0 612)" d="M589.64 85.91L589.64 552.52" stroke="#EBEBEB" stroke-width="0.53" fill="none" /><path id="8" transform="matrix(1 0 0 -1 0 612)" d="M206.27 99.77L642.52 99.77" stroke="#EBEBEB" stroke-width="1.07" fill="none" /><path id="9" transform="matrix(1 0 0 -1 0 612)" d="M206.27 122.87L642.52 122.87" stroke="#EBEBEB" stroke-width="1.07" fill="none" /><path id="10" transform="matrix(1 0 0 -1 0 612)" d="M206.27 145.97L642.52 145.97" stroke="#EBEBEB" stroke-width="1.07" fill="none" /><path id="11" transform="matrix(1 0 0 -1 0 612)" d="M206.27 169.07L642.52 169.07" stroke="#EBEBEB" stroke-width="1.07" fill="none" /><path id="12" transform="matrix(1 0 0 -1 0 612)" d="M206.27 192.17L642.52 192.17" stroke="#EBEBEB" stroke-width="1.07" fill="none" /><path id="13" transform="matrix(1 0 0 -1 0 612)" d="M206.27 215.27L642.52 215.27" stroke="#EBEBEB" stroke-width="1.07" fill="none" /><path id="14" transform="matrix(1 0 0 -1 0 612)" d="M206.27 238.37L642.52 238.37" stroke="#EBEBEB" stroke-width="1.07" fill="none" /><path id="15" transform="matrix(1 0 0 -1 0 612)" d="M206.27 261.47L642.52 261.47" stroke="#EBEBEB" stroke-width="1.07" fill="none" /><path id="16" transform="matrix(1 0 0 -1 0 612)" d="M206.27 284.57L642.52 284.57" stroke="#EBEBEB" stroke-width="1.07" fill="none" /><path id="17" transform="matrix(1 0 0 -1 0 612)" d="M206.27 307.67L642.52 307.67" stroke="#EBEBEB" stroke-width="1.07" fill="none" /><path id="18" transform="matrix(1 0 0 -1 0 612)" d="M206.27 330.77L642.52 330.77" stroke="#EBEBEB" stroke-width="1.07" fill="none" /><path id="19" transform="matrix(1 0 0 -1 0 612)" d="M206.27 353.86L642.52 353.86" stroke="#EBEBEB" stroke-width="1.07" fill="none" /><path id="20" transform="matrix(1 0 0 -1 0 612)" d="M206.27 376.96L642.52 376.96" stroke="#EBEBEB" stroke-width="1.07" fill="none" /><path id="21" transform="matrix(1 0 0 -1 0 612)" d="M206.27 400.06L642.52 400.06" stroke="#EBEBEB" stroke-width="1.07" fill="none" /><path id="22" transform="matrix(1 0 0 -1 0 612)" d="M206.27 423.16L642.52 423.16" stroke="#EBEBEB" stroke-width="1.07" fill="none" /><path id="23" transform="matrix(1 0 0 -1 0 612)" d="M206.27 446.26L642.52 446.26" stroke="#EBEBEB" stroke-width="1.07" fill="none" /><path id="24" transform="matrix(1 0 0 -1 0 612)" d="M206.27 469.36L642.52 469.36" stroke="#EBEBEB" stroke-width="1.07" fill="none" /><path id="25" transform="matrix(1 0 0 -1 0 612)" d="M206.27 492.46L642.52 492.46" stroke="#EBEBEB" stroke-width="1.07" fill="none" /><path id="26" transform="matrix(1 0 0 -1 0 612)" d="M206.27 515.56L642.52 515.56" stroke="#EBEBEB" stroke-width="1.07" fill="none" /><path id="27" transform="matrix(1 0 0 -1 0 612)" d="M206.27 538.66L642.52 538.66" stroke="#EBEBEB" stroke-width="1.07" fill="none" /><path id="28" transform="matrix(1 0 0 -1 0 612)" d="M217.83 85.91L217.83 552.52" stroke="#EBEBEB" stroke-width="1.07" fill="none" /><path id="29" transform="matrix(1 0 0 -1 0 612)" d="M300.46 85.91L300.46 552.52" stroke="#EBEBEB" stroke-width="1.07" fill="none" /><path id="30" transform="matrix(1 0 0 -1 0 612)" d="M383.08 85.91L383.08 552.52" stroke="#EBEBEB" stroke-width="1.07" fill="none" /><path id="31" transform="matrix(1 0 0 -1 0 612)" d="M465.71 85.91L465.71 552.52" stroke="#EBEBEB" stroke-width="1.07" fill="none" /><path id="32" transform="matrix(1 0 0 -1 0 612)" d="M548.33 85.91L548.33 552.52" stroke="#EBEBEB" stroke-width="1.07" fill="none" /><path id="33" transform="matrix(1 0 0 -1 0 612)" d="M630.95 85.91L630.95 552.52" stroke="#EBEBEB" stroke-width="1.07" fill="none" /><path id="34" transform="matrix(1 0 0 -1 0 612)" d="M548.33 528.27L622.69 528.27L622.69 549.06L548.33 549.06z" stroke="none" fill="#00BFC4" fill-rule="nonzero" /><path id="35" transform="matrix(1 0 0 -1 0 612)" d="M515.28 158.67L548.33 158.67L548.33 179.46L515.28 179.46z" stroke="none" fill="#F8766D" fill-rule="nonzero" /><path id="36" transform="matrix(1 0 0 -1 0 612)" d="M523.54 204.87L548.33 204.87L548.33 225.66L523.54 225.66z" stroke="none" fill="#F8766D" fill-rule="nonzero" /><path id="37" transform="matrix(1 0 0 -1 0 612)" d="M523.54 227.97L548.33 227.97L548.33 248.76L523.54 248.76z" stroke="none" fill="#F8766D" fill-rule="nonzero" /><path id="38" transform="matrix(1 0 0 -1 0 612)" d="M515.28 181.77L548.33 181.77L548.33 202.56L515.28 202.56z" stroke="none" fill="#F8766D" fill-rule="nonzero" /><path id="39" transform="matrix(1 0 0 -1 0 612)" d="M482.23 135.57L548.33 135.57L548.33 156.36L482.23 156.36z" stroke="none" fill="#F8766D" fill-rule="nonzero" /><path id="40" transform="matrix(1 0 0 -1 0 612)" d="M374.82 112.48L548.33 112.48L548.33 133.27L374.82 133.27z" stroke="none" fill="#F8766D" fill-rule="nonzero" /><path id="41" transform="matrix(1 0 0 -1 0 612)" d="M523.54 251.07L548.33 251.07L548.33 271.86L523.54 271.86z" stroke="none" fill="#F8766D" fill-rule="nonzero" /><path id="42" transform="matrix(1 0 0 -1 0 612)" d="M226.1 89.38L548.33 89.38L548.33 110.17L226.1 110.17z" stroke="none" fill="#F8766D" fill-rule="nonzero" /><path id="43" transform="matrix(1 0 0 -1 0 612)" d="M523.54 274.17L548.33 274.17L548.33 294.96L523.54 294.96z" stroke="none" fill="#F8766D" fill-rule="nonzero" /><path id="44" transform="matrix(1 0 0 -1 0 612)" d="M523.54 297.27L548.33 297.27L548.33 318.06L523.54 318.06z" stroke="none" fill="#F8766D" fill-rule="nonzero" /><path id="45" transform="matrix(1 0 0 -1 0 612)" d="M548.33 458.97L581.38 458.97L581.38 479.76L548.33 479.76z" stroke="none" fill="#00BEC4" fill-rule="nonzero" /><path id="46" transform="matrix(1 0 0 -1 0 612)" d="M548.33 366.57L573.12 366.57L573.12 387.36L548.33 387.36z" stroke="none" fill="#00BEC4" fill-rule="nonzero" /><path id="47" transform="matrix(1 0 0 -1 0 612)" d="M548.33 389.67L573.12 389.67L573.12 410.46L548.33 410.46z" stroke="none" fill="#00BEC4" fill-rule="nonzero" /><path id="48" transform="matrix(1 0 0 -1 0 612)" d="M548.33 482.07L589.64 482.07L589.64 502.86L548.33 502.86z" stroke="none" fill="#00BEC4" fill-rule="nonzero" /><path id="49" transform="matrix(1 0 0 -1 0 612)" d="M523.54 320.37L548.33 320.37L548.33 341.16L523.54 341.16z" stroke="none" fill="#F8766C" fill-rule="nonzero" /><path id="50" transform="matrix(1 0 0 -1 0 612)" d="M548.33 412.77L573.12 412.77L573.12 433.56L548.33 433.56z" stroke="none" fill="#00BEC4" fill-rule="nonzero" /><path id="51" transform="matrix(1 0 0 -1 0 612)" d="M523.54 343.47L548.33 343.47L548.33 364.26L523.54 364.26z" stroke="none" fill="#F8766C" fill-rule="nonzero" /><path id="52" transform="matrix(1 0 0 -1 0 612)" d="M548.33 435.87L573.12 435.87L573.12 456.66L548.33 456.66z" stroke="none" fill="#00BEC4" fill-rule="nonzero" /><path id="53" transform="matrix(1 0 0 -1 0 612)" d="M548.33 505.17L597.9 505.17L597.9 525.96L548.33 525.96z" stroke="none" fill="#00BEC4" fill-rule="nonzero" /><path id="54" transform="matrix(1 0 0 -1 0 612)" d="M206.27 85.91L642.52 85.91L642.52 85.91L642.52 552.52L642.52 552.52L206.27 552.52z" stroke="#323232" stroke-width="1.07" stroke-linecap="round" fill="none" /></g><g clip-path="url(#13)"></g><g clip-path="url(#14)"></g><g clip-path="url(#15)"></g><g clip-path="url(#16)"></g><g clip-path="url(#17)"></g><g clip-path="url(#18)"></g><g clip-path="url(#19)"></g><g clip-path="url(#20)"></g><g clip-path="url(#21)"></g><g clip-path="url(#22)"></g><g clip-path="url(#23)"></g><g clip-path="url(#24)"></g><g clip-path="url(#25)"></g><g clip-path="url(#26)"></g><g clip-path="url(#27)"></g><g clip-path="url(#28)"></g><g clip-path="url(#29)"></g><g clip-path="url(#30)"><path id="176" transform="matrix(1 0 0 -1 0 612)" d="M203.53 99.77L206.27 99.77" stroke="#323232" stroke-width="1.07" fill="none" /><path id="177" transform="matrix(1 0 0 -1 0 612)" d="M203.53 122.87L206.27 122.87" stroke="#323232" stroke-width="1.07" fill="none" /><path id="178" transform="matrix(1 0 0 -1 0 612)" d="M203.53 145.97L206.27 145.97" stroke="#323232" stroke-width="1.07" fill="none" /><path id="179" transform="matrix(1 0 0 -1 0 612)" d="M203.53 169.07L206.27 169.07" stroke="#323232" stroke-width="1.07" fill="none" /><path id="180" transform="matrix(1 0 0 -1 0 612)" d="M203.53 192.17L206.27 192.17" stroke="#323232" stroke-width="1.07" fill="none" /><path id="181" transform="matrix(1 0 0 -1 0 612)" d="M203.53 215.27L206.27 215.27" stroke="#323232" stroke-width="1.07" fill="none" /><path id="182" transform="matrix(1 0 0 -1 0 612)" d="M203.53 238.37L206.27 238.37" stroke="#323232" stroke-width="1.07" fill="none" /><path id="183" transform="matrix(1 0 0 -1 0 612)" d="M203.53 261.47L206.27 261.47" stroke="#323232" stroke-width="1.07" fill="none" /><path id="184" transform="matrix(1 0 0 -1 0 612)" d="M203.53 284.57L206.27 284.57" stroke="#323232" stroke-width="1.07" fill="none" /><path id="185" transform="matrix(1 0 0 -1 0 612)" d="M203.53 307.67L206.27 307.67" stroke="#323232" stroke-width="1.07" fill="none" /><path id="186" transform="matrix(1 0 0 -1 0 612)" d="M203.53 330.77L206.27 330.77" stroke="#323232" stroke-width="1.07" fill="none" /><path id="187" transform="matrix(1 0 0 -1 0 612)" d="M203.53 353.86L206.27 353.86" stroke="#323232" stroke-width="1.07" fill="none" /><path id="188" transform="matrix(1 0 0 -1 0 612)" d="M203.53 376.96L206.27 376.96" stroke="#323232" stroke-width="1.07" fill="none" /><path id="189" transform="matrix(1 0 0 -1 0 612)" d="M203.53 400.06L206.27 400.06" stroke="#323232" stroke-width="1.07" fill="none" /><path id="190" transform="matrix(1 0 0 -1 0 612)" d="M203.53 423.16L206.27 423.16" stroke="#323232" stroke-width="1.07" fill="none" /><path id="191" transform="matrix(1 0 0 -1 0 612)" d="M203.53 446.26L206.27 446.26" stroke="#323232" stroke-width="1.07" fill="none" /><path id="192" transform="matrix(1 0 0 -1 0 612)" d="M203.53 469.36L206.27 469.36" stroke="#323232" stroke-width="1.07" fill="none" /><path id="193" transform="matrix(1 0 0 -1 0 612)" d="M203.53 492.46L206.27 492.46" stroke="#323232" stroke-width="1.07" fill="none" /><path id="194" transform="matrix(1 0 0 -1 0 612)" d="M203.53 515.56L206.27 515.56" stroke="#323232" stroke-width="1.07" fill="none" /><path id="195" transform="matrix(1 0 0 -1 0 612)" d="M203.53 538.66L206.27 538.66" stroke="#323232" stroke-width="1.07" fill="none" /></g><g clip-path="url(#31)"></g><g clip-path="url(#32)"></g><g clip-path="url(#33)"></g><g clip-path="url(#34)"></g><g clip-path="url(#35)"></g><g clip-path="url(#36)"></g><g clip-path="url(#37)"></g><g clip-path="url(#38)"></g><g clip-path="url(#39)"></g><g clip-path="url(#40)"><path id="196" transform="matrix(1 0 0 -1 0 612)" d="M217.83 83.17L217.83 85.91" stroke="#323232" stroke-width="1.07" fill="none" /><path id="197" transform="matrix(1 0 0 -1 0 612)" d="M300.46 83.17L300.46 85.91" stroke="#323232" stroke-width="1.07" fill="none" /><path id="198" transform="matrix(1 0 0 -1 0 612)" d="M383.08 83.17L383.08 85.91" stroke="#323232" stroke-width="1.07" fill="none" /><path id="199" transform="matrix(1 0 0 -1 0 612)" d="M465.71 83.17L465.71 85.91" stroke="#323232" stroke-width="1.07" fill="none" /><path id="200" transform="matrix(1 0 0 -1 0 612)" d="M548.33 83.17L548.33 85.91" stroke="#323232" stroke-width="1.07" fill="none" /><path id="201" transform="matrix(1 0 0 -1 0 612)" d="M630.95 83.17L630.95 85.91" stroke="#323232" stroke-width="1.07" fill="none" /></g><g clip-path="url(#41)"></g><g clip-path="url(#42)"></g><g clip-path="url(#43)"></g><g clip-path="url(#44)"></g><g clip-path="url(#45)"></g><g clip-path="url(#46)"></g><g clip-path="url(#47)"></g><g clip-path="url(#48)"></g><g clip-path="url(#49)"></g><g clip-path="url(#50)"><path id="229" transform="matrix(1 0 0 -1 0 612)" d="M157.38 309.1278L151.6759 307.3822L151.6759 307.3822L151.6759 308.3813L151.6759 308.3813L154.9684 309.289L154.9684 309.289L156.193 309.6273C 156.1321 309.6417 155.74 309.7401 155.0167 309.9228L155.0167 309.9228L151.6759 310.8305L151.6759 310.8305L151.6759 311.8241L151.6759 311.8241L154.9845 312.6781L154.9845 312.6781L156.0748 312.9628L156.0748 312.9628L154.9738 313.2904L154.9738 313.2904L151.6759 314.268L151.6759 314.268L151.6759 315.2079L151.6759 315.2079L157.38 313.4247L157.38 313.4247L157.38 312.4203L157.38 312.4203L153.964 311.5126L153.964 311.5126L152.9918 311.2924L152.9918 311.2924L157.38 310.1376z" stroke="none" fill="#000000" fill-rule="evenodd" /><path id="230" transform="matrix(1 0 0 -1 0 612)" d="M154.528 315.5472C 153.4716 315.5472 152.6893 315.8409 152.1808 316.4281C 151.7583 316.9187 151.547 317.5166 151.547 318.222C 151.547 319.7904 152.6355 320.8915 154.4474 320.8915C 155.1814 320.8915 155.7588 320.7814 156.1796 320.5612C 156.6003 320.3409 156.927 320.0205 157.1598 319.5997C 157.3925 319.179 157.5089 318.7198 157.5089 318.222C 157.5089 316.625 156.4544 315.5472 154.528 315.5472zM154.528 316.5409C 155.9889 316.5409 156.714 317.2552 156.714 318.222C 156.714 319.1817 155.9925 319.8978 154.4957 319.8978C 153.0849 319.8978 152.3473 319.1745 152.3473 318.222C 152.3473 317.2552 153.067 316.5409 154.528 316.5409z" stroke="none" fill="#000000" fill-rule="evenodd" /><path id="231" transform="matrix(1 0 0 -1 0 612)" d="M157.38 322.0124L151.6759 322.0124L151.6759 322.0124L151.6759 322.8825L151.6759 322.8825L152.5406 322.8825C 151.7314 323.3265 151.547 323.6667 151.547 324.1178C 151.547 324.4437 151.6508 324.7749 151.8585 325.1115L151.8585 325.1115L152.7555 324.7785C 152.6158 324.5421 152.546 324.3058 152.546 324.0695C 152.546 323.647 152.8146 323.2835 153.2657 323.1403C 153.6095 323.0329 153.9855 322.9792 154.3937 322.9792L154.3937 322.9792L157.38 322.9792z" stroke="none" fill="#000000" fill-rule="evenodd" /><path id="232" transform="matrix(1 0 0 -1 0 612)" d="M157.38 329.3868L156.6603 329.3868C 157.226 329.0251 157.5089 328.4934 157.5089 327.7916C 157.5089 327.3368 157.3836 326.9188 157.1329 326.5374C 156.8823 326.1561 156.5323 325.8607 156.0829 325.6512C 155.6335 325.4417 155.117 325.337 154.5333 325.337C 153.964 325.337 153.4475 325.4319 152.9838 325.6216C 152.5201 325.8114 152.1647 326.0961 151.9176 326.4756C 151.6705 326.8552 151.547 327.2795 151.547 327.7486C 151.547 328.4361 151.8657 328.9857 152.3312 329.3223L152.3312 329.3223L149.506 329.3223L149.506 329.3223L149.506 330.2838L149.506 330.2838L157.38 330.2838zM154.5333 326.3306C 155.9943 326.3306 156.714 327.045 156.714 327.8829C 156.714 328.7279 156.0319 329.4029 154.6139 329.4029C 153.0527 329.4029 152.3473 328.7208 152.3473 327.8399C 152.3473 326.9805 153.0223 326.3306 154.5333 326.3306z" stroke="none" fill="#000000" fill-rule="evenodd" /></g><g clip-path="url(#51)"></g><g clip-path="url(#52)"></g><g clip-path="url(#53)"></g><g clip-path="url(#54)"></g><g clip-path="url(#55)"></g><g clip-path="url(#56)"></g><g clip-path="url(#57)"></g><g clip-path="url(#58)"></g><g clip-path="url(#59)"></g><g clip-path="url(#60)"></g><g clip-path="url(#61)"></g><g clip-path="url(#62)"></g></g></g></svg>