<svg xmlns="http://www.w3.org/2000/svg" xmlns:xlink="http://www.w3.org/1999/xlink" id="body_3" preserveAspectRatio="xMinYMin meet" viewBox="0 0 1056 816"><defs><clipPath id="1"><path id="" clip-rule="evenodd" transform="matrix(1 0 0 1 0 0)" d="M0 612L0 0L0 0L792 0L792 0L792 612L792 612L0 612z" /></clipPath><clipPath id="2"><path id="" clip-rule="evenodd" transform="matrix(1 0 0 1 0 0)" d="M144 558L648 558L648 558L648 54L648 54L144 54z" /></clipPath><clipPath id="3"><path id="" clip-rule="evenodd" transform="matrix(1 0 0 1 0 0)" d="M144 558L648 558L648 558L648 54L648 54L144 54z" /></clipPath><clipPath id="4"><path id="" clip-rule="evenodd" transform="matrix(1 0 0 1 0 0)" d="M144 558L648 558L648 558L648 54L648 54L144 54z" /></clipPath><clipPath id="5"><path id="" clip-rule="evenodd" transform="matrix(1 0 0 1 0 0)" d="M144 558L648 558L648 558L648 54L648 54L144 54z" /></clipPath><clipPath id="6"><path id="" clip-rule="evenodd" transform="matrix(1 0 0 1 0 0)" d="M144 558L648 558L648 558L648 54L648 54L144 54z" /></clipPath><clipPath id="7"><path id="" clip-rule="evenodd" transform="matrix(1 0 0 1 0 0)" d="M144 558L648 558L648 558L648 54L648 54L144 54z" /></clipPath><clipPath id="8"><path id="" clip-rule="evenodd" transform="matrix(1 0 0 1 0 0)" d="M144 558L648 558L648 558L648 54L648 54L144 54z" /></clipPath><clipPath id="9"><path id="" clip-rule="evenodd" transform="matrix(1 0 0 1 0 0)" d="M144 558L648 558L648 558L648 54L648 54L144 54z" /></clipPath><clipPath id="10"><path id="" clip-rule="evenodd" transform="matrix(1 0 0 1 0 0)" d="M219.43 526.09L642.52 526.09L642.52 526.09L642.52 59.47998L642.52 59.47998L219.43 59.47998z" /></clipPath><clipPath id="11"><path id="" clip-rule="evenodd" transform="matrix(1 0 0 1 0 0)" d="M144 558L648 558L648 558L648 54L648 54L144 54z" /></clipPath><clipPath id="12"><path id="" clip-rule="evenodd" transform="matrix(1 0 0 1 0 0)" d="M144 558L648 558L648 558L648 54L648 54L144 54z" /></clipPath><clipPath id="13"><path id="" clip-rule="evenodd" transform="matrix(1 0 0 1 0 0)" d="M144 558L648 558L648 558L648 54L648 54L144 54z" /></clipPath><clipPath id="14"><path id="" clip-rule="evenodd" transform="matrix(1 0 0 1 0 0)" d="M144 558L648 558L648 558L648 54L648 54L144 54z" /></clipPath><clipPath id="15"><path id="" clip-rule="evenodd" transform="matrix(1 0 0 1 0 0)" d="M144 558L648 558L648 558L648 54L648 54L144 54z" /></clipPath><clipPath id="16"><path id="" clip-rule="evenodd" transform="matrix(1 0 0 1 0 0)" d="M144 558L648 558L648 558L648 54L648 54L144 54z" /></clipPath><clipPath id="17"><path id="" clip-rule="evenodd" transform="matrix(1 0 0 1 0 0)" d="M144 558L648 558L648 558L648 54L648 54L144 54z" /></clipPath><clipPath id="18"><path id="" clip-rule="evenodd" transform="matrix(1 0 0 1 0 0)" d="M144 558L648 558L648 558L648 54L648 54L144 54z" /></clipPath><clipPath id="19"><path id="" clip-rule="evenodd" transform="matrix(1 0 0 1 0 0)" d="M144 558L648 558L648 558L648 54L648 54L144 54z" /></clipPath><clipPath id="20"><path id="" clip-rule="evenodd" transform="matrix(1 0 0 1 0 0)" d="M144 558L648 558L648 558L648 54L648 54L144 54z" /></clipPath><clipPath id="21"><path id="" clip-rule="evenodd" transform="matrix(1 0 0 1 0 0)" d="M144 558L648 558L648 558L648 54L648 54L144 54z" /></clipPath><clipPath id="22"><path id="" clip-rule="evenodd" transform="matrix(1 0 0 1 0 0)" d="M144 558L648 558L648 558L648 54L648 54L144 54z" /></clipPath><clipPath id="23"><path id="" clip-rule="evenodd" transform="matrix(1 0 0 1 0 0)" d="M144 558L648 558L648 558L648 54L648 54L144 54z" /></clipPath><clipPath id="24"><path id="" clip-rule="evenodd" transform="matrix(1 0 0 1 0 0)" d="M144 558L648 558L648 558L648 54L648 54L144 54z" /></clipPath><clipPath id="25"><path id="" clip-rule="evenodd" transform="matrix(1 0 0 1 0 0)" d="M144 558L648 558L648 558L648 54L648 54L144 54z" /></clipPath><clipPath id="26"><path id="" clip-rule="evenodd" transform="matrix(1 0 0 1 0 0)" d="M144 558L648 558L648 558L648 54L648 54L144 54z" /></clipPath><clipPath id="27"><path id="" clip-rule="evenodd" transform="matrix(1 0 0 1 0 0)" d="M144 558L648 558L648 558L648 54L648 54L144 54z" /></clipPath><clipPath id="28"><path id="" clip-rule="evenodd" transform="matrix(1 0 0 1 0 0)" d="M144 558L648 558L648 558L648 54L648 54L144 54z" /></clipPath><clipPath id="29"><path id="" clip-rule="evenodd" transform="matrix(1 0 0 1 0 0)" d="M144 558L648 558L648 558L648 54L648 54L144 54z" /></clipPath><clipPath id="30"><path id="" clip-rule="evenodd" transform="matrix(1 0 0 1 0 0)" d="M144 558L648 558L648 558L648 54L648 54L144 54z" /></clipPath><clipPath id="31"><path id="" clip-rule="evenodd" transform="matrix(1 0 0 1 0 0)" d="M144 558L648 558L648 558L648 54L648 54L144 54z" /></clipPath><clipPath id="32"><path id="" clip-rule="evenodd" transform="matrix(1 0 0 1 0 0)" d="M144 558L648 558L648 558L648 54L648 54L144 54z" /></clipPath><clipPath id="33"><path id="" clip-rule="evenodd" transform="matrix(1 0 0 1 0 0)" d="M144 558L648 558L648 558L648 54L648 54L144 54z" /></clipPath><clipPath id="34"><path id="" clip-rule="evenodd" transform="matrix(1 0 0 1 0 0)" d="M144 558L648 558L648 558L648 54L648 54L144 54z" /></clipPath><clipPath id="35"><path id="" clip-rule="evenodd" transform="matrix(1 0 0 1 0 0)" d="M144 558L648 558L648 558L648 54L648 54L144 54z" /></clipPath><clipPath id="36"><path id="" clip-rule="evenodd" transform="matrix(1 0 0 1 0 0)" d="M144 558L648 558L648 558L648 54L648 54L144 54z" /></clipPath><clipPath id="37"><path id="" clip-rule="evenodd" transform="matrix(1 0 0 1 0 0)" d="M144 558L648 558L648 558L648 54L648 54L144 54z" /></clipPath><clipPath id="38"><path id="" clip-rule="evenodd" transform="matrix(1 0 0 1 0 0)" d="M144 558L648 558L648 558L648 54L648 54L144 54z" /></clipPath><clipPath id="39"><path id="" clip-rule="evenodd" transform="matrix(1 0 0 1 0 0)" d="M144 558L648 558L648 558L648 54L648 54L144 54z" /></clipPath><clipPath id="40"><path id="" clip-rule="evenodd" transform="matrix(1 0 0 1 0 0)" d="M144 558L648 558L648 558L648 54L648 54L144 54z" /></clipPath><clipPath id="41"><path id="" clip-rule="evenodd" transform="matrix(1 0 0 1 0 0)" d="M144 558L648 558L648 558L648 54L648 54L144 54z" /></clipPath><clipPath id="42"><path id="" clip-rule="evenodd" transform="matrix(1 0 0 1 0 0)" d="M144 558L648 558L648 558L648 54L648 54L144 54z" /></clipPath><clipPath id="43"><path id="" clip-rule="evenodd" transform="matrix(1 0 0 1 0 0)" d="M144 558L648 558L648 558L648 54L648 54L144 54z" /></clipPath><clipPath id="44"><path id="" clip-rule="evenodd" transform="matrix(1 0 0 1 0 0)" d="M144 558L648 558L648 558L648 54L648 54L144 54z" /></clipPath><clipPath id="45"><path id="" clip-rule="evenodd" transform="matrix(1 0 0 1 0 0)" d="M144 558L648 558L648 558L648 54L648 54L144 54z" /></clipPath><clipPath id="46"><path id="" clip-rule="evenodd" transform="matrix(1 0 0 1 0 0)" d="M144 558L648 558L648 558L648 54L648 54L144 54z" /></clipPath><clipPath id="47"><path id="" clip-rule="evenodd" transform="matrix(1 0 0 1 0 0)" d="M144 558L648 558L648 558L648 54L648 54L144 54z" /></clipPath><clipPath id="48"><path id="" clip-rule="evenodd" transform="matrix(1 0 0 1 0 0)" d="M144 558L648 558L648 558L648 54L648 54L144 54z" /></clipPath><clipPath id="49"><path id="" clip-rule="evenodd" transform="matrix(1 0 0 1 0 0)" d="M144 558L648 558L648 558L648 54L648 54L144 54z" /></clipPath><clipPath id="50"><path id="" clip-rule="evenodd" transform="matrix(1 0 0 1 0 0)" d="M144 558L648 558L648 558L648 54L648 54L144 54z" /></clipPath><clipPath id="51"><path id="" clip-rule="evenodd" transform="matrix(1 0 0 1 0 0)" d="M144 558L648 558L648 558L648 54L648 54L144 54z" /></clipPath><clipPath id="52"><path id="" clip-rule="evenodd" transform="matrix(1 0 0 1 0 0)" d="M144 558L648 558L648 558L648 54L648 54L144 54z" /></clipPath><clipPath id="53"><path id="" clip-rule="evenodd" transform="matrix(1 0 0 1 0 0)" d="M144 558L648 558L648 558L648 54L648 54L144 54z" /></clipPath><clipPath id="54"><path id="" clip-rule="evenodd" transform="matrix(1 0 0 1 0 0)" d="M144 558L648 558L648 558L648 54L648 54L144 54z" /></clipPath><clipPath id="55"><path id="" clip-rule="evenodd" transform="matrix(1 0 0 1 0 0)" d="M144 558L648 558L648 558L648 54L648 54L144 54z" /></clipPath><clipPath id="56"><path id="" clip-rule="evenodd" transform="matrix(1 0 0 1 0 0)" d="M144 558L648 558L648 558L648 54L648 54L144 54z" /></clipPath><clipPath id="57"><path id="" clip-rule="evenodd" transform="matrix(1 0 0 1 0 0)" d="M144 558L648 558L648 558L648 54L648 54L144 54z" /></clipPath><clipPath id="58"><path id="" clip-rule="evenodd" transform="matrix(1 0 0 1 0 0)" d="M144 558L648 558L648 558L648 54L648 54L144 54z" /></clipPath><clipPath id="59"><path id="" clip-rule="evenodd" transform="matrix(1 0 0 1 0 0)" d="M144 558L648 558L648 558L648 54L648 54L144 54z" /></clipPath><clipPath id="60"><path id="" clip-rule="evenodd" transform="matrix(1 0 0 1 0 0)" d="M144 558L648 558L648 558L648 54L648 54L144 54z" /></clipPath></defs><g transform="matrix(1.333333 0 0 1.333333 0 0)"><g clip-path="url(#1)"><g clip-path="url(#2)"></g><g clip-path="url(#3)"></g><g clip-path="url(#4)"></g><g clip-path="url(#5)"></g><g clip-path="url(#6)"></g><g clip-path="url(#7)"></g><g clip-path="url(#8)"><path id="1" transform="matrix(1 0 0 -1 0 612)" d="M144 54L648 54L648 54L648 558L648 558L144 558z" stroke="#FFFFFF" stroke-width="1.07" fill="#FFFFFF" fill-rule="nonzero" /></g><g clip-path="url(#9)"></g><g clip-path="url(#10)"><path id="2" transform="matrix(1 0 0 -1 0 612)" d="M219.43 85.91L642.52 85.91L642.52 552.52L219.43 552.52z" stroke="none" fill="#FFFFFF" fill-rule="nonzero" /><path id="3" transform="matrix(1 0 0 -1 0 612)" d="M292.65 85.91L292.65 552.52" stroke="#EBEBEB" stroke-width="0.53" fill="none" /><path id="4" transform="matrix(1 0 0 -1 0 612)" d="M400.63 85.91L400.63 552.52" stroke="#EBEBEB" stroke-width="0.53" fill="none" /><path id="5" transform="matrix(1 0 0 -1 0 612)" d="M508.61 85.91L508.61 552.52" stroke="#EBEBEB" stroke-width="0.53" fill="none" /><path id="6" transform="matrix(1 0 0 -1 0 612)" d="M616.59 85.91L616.59 552.52" stroke="#EBEBEB" stroke-width="0.53" fill="none" /><path id="7" transform="matrix(1 0 0 -1 0 612)" d="M219.43 90.56L642.52 90.56" stroke="#EBEBEB" stroke-width="1.07" fill="none" /><path id="8" transform="matrix(1 0 0 -1 0 612)" d="M219.43 98.31L642.52 98.31" stroke="#EBEBEB" stroke-width="1.07" fill="none" /><path id="9" transform="matrix(1 0 0 -1 0 612)" d="M219.43 106.06L642.52 106.06" stroke="#EBEBEB" stroke-width="1.07" fill="none" /><path id="10" transform="matrix(1 0 0 -1 0 612)" d="M219.43 113.81L642.52 113.81" stroke="#EBEBEB" stroke-width="1.07" fill="none" /><path id="11" transform="matrix(1 0 0 -1 0 612)" d="M219.43 121.57L642.52 121.57" stroke="#EBEBEB" stroke-width="1.07" fill="none" /><path id="12" transform="matrix(1 0 0 -1 0 612)" d="M219.43 129.32L642.52 129.32" stroke="#EBEBEB" stroke-width="1.07" fill="none" /><path id="13" transform="matrix(1 0 0 -1 0 612)" d="M219.43 137.07L642.52 137.07" stroke="#EBEBEB" stroke-width="1.07" fill="none" /><path id="14" transform="matrix(1 0 0 -1 0 612)" d="M219.43 144.82L642.52 144.82" stroke="#EBEBEB" stroke-width="1.07" fill="none" /><path id="15" transform="matrix(1 0 0 -1 0 612)" d="M219.43 152.57L642.52 152.57" stroke="#EBEBEB" stroke-width="1.07" fill="none" /><path id="16" transform="matrix(1 0 0 -1 0 612)" d="M219.43 160.32L642.52 160.32" stroke="#EBEBEB" stroke-width="1.07" fill="none" /><path id="17" transform="matrix(1 0 0 -1 0 612)" d="M219.43 168.07L642.52 168.07" stroke="#EBEBEB" stroke-width="1.07" fill="none" /><path id="18" transform="matrix(1 0 0 -1 0 612)" d="M219.43 175.82L642.52 175.82" stroke="#EBEBEB" stroke-width="1.07" fill="none" /><path id="19" transform="matrix(1 0 0 -1 0 612)" d="M219.43 183.57L642.52 183.57" stroke="#EBEBEB" stroke-width="1.07" fill="none" /><path id="20" transform="matrix(1 0 0 -1 0 612)" d="M219.43 191.32L642.52 191.32" stroke="#EBEBEB" stroke-width="1.07" fill="none" /><path id="21" transform="matrix(1 0 0 -1 0 612)" d="M219.43 199.08L642.52 199.08" stroke="#EBEBEB" stroke-width="1.07" fill="none" /><path id="22" transform="matrix(1 0 0 -1 0 612)" d="M219.43 206.83L642.52 206.83" stroke="#EBEBEB" stroke-width="1.07" fill="none" /><path id="23" transform="matrix(1 0 0 -1 0 612)" d="M219.43 214.58L642.52 214.58" stroke="#EBEBEB" stroke-width="1.07" fill="none" /><path id="24" transform="matrix(1 0 0 -1 0 612)" d="M219.43 222.33L642.52 222.33" stroke="#EBEBEB" stroke-width="1.07" fill="none" /><path id="25" transform="matrix(1 0 0 -1 0 612)" d="M219.43 230.08L642.52 230.08" stroke="#EBEBEB" stroke-width="1.07" fill="none" /><path id="26" transform="matrix(1 0 0 -1 0 612)" d="M219.43 237.83L642.52 237.83" stroke="#EBEBEB" stroke-width="1.07" fill="none" /><path id="27" transform="matrix(1 0 0 -1 0 612)" d="M219.43 245.58L642.52 245.58" stroke="#EBEBEB" stroke-width="1.07" fill="none" /><path id="28" transform="matrix(1 0 0 -1 0 612)" d="M219.43 253.33L642.52 253.33" stroke="#EBEBEB" stroke-width="1.07" fill="none" /><path id="29" transform="matrix(1 0 0 -1 0 612)" d="M219.43 261.08L642.52 261.08" stroke="#EBEBEB" stroke-width="1.07" fill="none" /><path id="30" transform="matrix(1 0 0 -1 0 612)" d="M219.43 268.83L642.52 268.83" stroke="#EBEBEB" stroke-width="1.07" fill="none" /><path id="31" transform="matrix(1 0 0 -1 0 612)" d="M219.43 276.59L642.52 276.59" stroke="#EBEBEB" stroke-width="1.07" fill="none" /><path id="32" transform="matrix(1 0 0 -1 0 612)" d="M219.43 284.34L642.52 284.34" stroke="#EBEBEB" stroke-width="1.07" fill="none" /><path id="33" transform="matrix(1 0 0 -1 0 612)" d="M219.43 292.09L642.52 292.09" stroke="#EBEBEB" stroke-width="1.07" fill="none" /><path id="34" transform="matrix(1 0 0 -1 0 612)" d="M219.43 299.84L642.52 299.84" stroke="#EBEBEB" stroke-width="1.07" fill="none" /><path id="35" transform="matrix(1 0 0 -1 0 612)" d="M219.43 307.59L642.52 307.59" stroke="#EBEBEB" stroke-width="1.07" fill="none" /><path id="36" transform="matrix(1 0 0 -1 0 612)" d="M219.43 315.34L642.52 315.34" stroke="#EBEBEB" stroke-width="1.07" fill="none" /><path id="37" transform="matrix(1 0 0 -1 0 612)" d="M219.43 323.09L642.52 323.09" stroke="#EBEBEB" stroke-width="1.07" fill="none" /><path id="38" transform="matrix(1 0 0 -1 0 612)" d="M219.43 330.84L642.52 330.84" stroke="#EBEBEB" stroke-width="1.07" fill="none" /><path id="39" transform="matrix(1 0 0 -1 0 612)" d="M219.43 338.59L642.52 338.59" stroke="#EBEBEB" stroke-width="1.07" fill="none" /><path id="40" transform="matrix(1 0 0 -1 0 612)" d="M219.43 346.34L642.52 346.34" stroke="#EBEBEB" stroke-width="1.07" fill="none" /><path id="41" transform="matrix(1 0 0 -1 0 612)" d="M219.43 354.1L642.52 354.1" stroke="#EBEBEB" stroke-width="1.07" fill="none" /><path id="42" transform="matrix(1 0 0 -1 0 612)" d="M219.43 361.85L642.52 361.85" stroke="#EBEBEB" stroke-width="1.07" fill="none" /><path id="43" transform="matrix(1 0 0 -1 0 612)" d="M219.43 369.6L642.52 369.6" stroke="#EBEBEB" stroke-width="1.07" fill="none" /><path id="44" transform="matrix(1 0 0 -1 0 612)" d="M219.43 377.35L642.52 377.35" stroke="#EBEBEB" stroke-width="1.07" fill="none" /><path id="45" transform="matrix(1 0 0 -1 0 612)" d="M219.43 385.1L642.52 385.1" stroke="#EBEBEB" stroke-width="1.07" fill="none" /><path id="46" transform="matrix(1 0 0 -1 0 612)" d="M219.43 392.85L642.52 392.85" stroke="#EBEBEB" stroke-width="1.07" fill="none" /><path id="47" transform="matrix(1 0 0 -1 0 612)" d="M219.43 400.6L642.52 400.6" stroke="#EBEBEB" stroke-width="1.07" fill="none" /><path id="48" transform="matrix(1 0 0 -1 0 612)" d="M219.43 408.35L642.52 408.35" stroke="#EBEBEB" stroke-width="1.07" fill="none" /><path id="49" transform="matrix(1 0 0 -1 0 612)" d="M219.43 416.1L642.52 416.1" stroke="#EBEBEB" stroke-width="1.07" fill="none" /><path id="50" transform="matrix(1 0 0 -1 0 612)" d="M219.43 423.85L642.52 423.85" stroke="#EBEBEB" stroke-width="1.07" fill="none" /><path id="51" transform="matrix(1 0 0 -1 0 612)" d="M219.43 431.61L642.52 431.61" stroke="#EBEBEB" stroke-width="1.07" fill="none" /><path id="52" transform="matrix(1 0 0 -1 0 612)" d="M219.43 439.36L642.52 439.36" stroke="#EBEBEB" stroke-width="1.07" fill="none" /><path id="53" transform="matrix(1 0 0 -1 0 612)" d="M219.43 447.11L642.52 447.11" stroke="#EBEBEB" stroke-width="1.07" fill="none" /><path id="54" transform="matrix(1 0 0 -1 0 612)" d="M219.43 454.86L642.52 454.86" stroke="#EBEBEB" stroke-width="1.07" fill="none" /><path id="55" transform="matrix(1 0 0 -1 0 612)" d="M219.43 462.61L642.52 462.61" stroke="#EBEBEB" stroke-width="1.07" fill="none" /><path id="56" transform="matrix(1 0 0 -1 0 612)" d="M219.43 470.36L642.52 470.36" stroke="#EBEBEB" stroke-width="1.07" fill="none" /><path id="57" transform="matrix(1 0 0 -1 0 612)" d="M219.43 478.11L642.52 478.11" stroke="#EBEBEB" stroke-width="1.07" fill="none" /><path id="58" transform="matrix(1 0 0 -1 0 612)" d="M219.43 485.86L642.52 485.86" stroke="#EBEBEB" stroke-width="1.07" fill="none" /><path id="59" transform="matrix(1 0 0 -1 0 612)" d="M219.43 493.61L642.52 493.61" stroke="#EBEBEB" stroke-width="1.07" fill="none" /><path id="60" transform="matrix(1 0 0 -1 0 612)" d="M219.43 501.36L642.52 501.36" stroke="#EBEBEB" stroke-width="1.07" fill="none" /><path id="61" transform="matrix(1 0 0 -1 0 612)" d="M219.43 509.11L642.52 509.11" stroke="#EBEBEB" stroke-width="1.07" fill="none" /><path id="62" transform="matrix(1 0 0 -1 0 612)" d="M219.43 516.87L642.52 516.87" stroke="#EBEBEB" stroke-width="1.07" fill="none" /><path id="63" transform="matrix(1 0 0 -1 0 612)" d="M219.43 524.62L642.52 524.62" stroke="#EBEBEB" stroke-width="1.07" fill="none" /><path id="64" transform="matrix(1 0 0 -1 0 612)" d="M219.43 532.37L642.52 532.37" stroke="#EBEBEB" stroke-width="1.07" fill="none" /><path id="65" transform="matrix(1 0 0 -1 0 612)" d="M219.43 540.12L642.52 540.12" stroke="#EBEBEB" stroke-width="1.07" fill="none" /><path id="66" transform="matrix(1 0 0 -1 0 612)" d="M219.43 547.87L642.52 547.87" stroke="#EBEBEB" stroke-width="1.07" fill="none" /><path id="67" transform="matrix(1 0 0 -1 0 612)" d="M238.66 85.91L238.66 552.52" stroke="#EBEBEB" stroke-width="1.07" fill="none" /><path id="68" transform="matrix(1 0 0 -1 0 612)" d="M346.64 85.91L346.64 552.52" stroke="#EBEBEB" stroke-width="1.07" fill="none" /><path id="69" transform="matrix(1 0 0 -1 0 612)" d="M454.62 85.91L454.62 552.52" stroke="#EBEBEB" stroke-width="1.07" fill="none" /><path id="70" transform="matrix(1 0 0 -1 0 612)" d="M562.6 85.91L562.6 552.52" stroke="#EBEBEB" stroke-width="1.07" fill="none" /><path id="71" transform="matrix(1 0 0 -1 0 612)" d="M238.66 544.38L623.29 544.38L623.29 551.36L238.66 551.36z" stroke="none" fill="#85C1E9" fill-rule="nonzero" /><path id="72" transform="matrix(1 0 0 -1 0 612)" d="M238.66 536.63L623.29 536.63L623.29 543.61L238.66 543.61z" stroke="none" fill="#85C1E9" fill-rule="nonzero" /><path id="73" transform="matrix(1 0 0 -1 0 612)" d="M238.66 528.88L558.54 528.88L558.54 535.86L238.66 535.86z" stroke="none" fill="#85C1E9" fill-rule="nonzero" /><path id="74" transform="matrix(1 0 0 -1 0 612)" d="M238.66 521.13L517.84 521.13L517.84 528.11L238.66 528.11z" stroke="none" fill="#85C1E9" fill-rule="nonzero" /><path id="75" transform="matrix(1 0 0 -1 0 612)" d="M238.66 513.38L500.91 513.38L500.91 520.36L238.66 520.36z" stroke="none" fill="#85C1E9" fill-rule="nonzero" /><path id="76" transform="matrix(1 0 0 -1 0 612)" d="M238.66 505.63L493.19 505.63L493.19 512.61L238.66 512.61z" stroke="none" fill="#85C1E9" fill-rule="nonzero" /><path id="77" transform="matrix(1 0 0 -1 0 612)" d="M238.66 497.88L479.05 497.88L479.05 504.86L238.66 504.86z" stroke="none" fill="#85C1E9" fill-rule="nonzero" /><path id="78" transform="matrix(1 0 0 -1 0 612)" d="M238.66 490.13L479.05 490.13L479.05 497.11L238.66 497.11z" stroke="none" fill="#85C1E9" fill-rule="nonzero" /><path id="79" transform="matrix(1 0 0 -1 0 612)" d="M238.66 482.37L479.05 482.37L479.05 489.35L238.66 489.35z" stroke="none" fill="#85C1E9" fill-rule="nonzero" /><path id="80" transform="matrix(1 0 0 -1 0 612)" d="M238.66 474.62L479.05 474.62L479.05 481.6L238.66 481.6z" stroke="none" fill="#85C1E9" fill-rule="nonzero" /><path id="81" transform="matrix(1 0 0 -1 0 612)" d="M238.66 466.87L479.05 466.87L479.05 473.85L238.66 473.85z" stroke="none" fill="#85C1E9" fill-rule="nonzero" /><path id="82" transform="matrix(1 0 0 -1 0 612)" d="M238.66 459.12L479.05 459.12L479.05 466.1L238.66 466.1z" stroke="none" fill="#85C1E9" fill-rule="nonzero" /><path id="83" transform="matrix(1 0 0 -1 0 612)" d="M238.66 451.37L479.05 451.37L479.05 458.35L238.66 458.35z" stroke="none" fill="#85C1E9" fill-rule="nonzero" /><path id="84" transform="matrix(1 0 0 -1 0 612)" d="M238.66 443.62L479.05 443.62L479.05 450.6L238.66 450.6z" stroke="none" fill="#85C1E9" fill-rule="nonzero" /><path id="85" transform="matrix(1 0 0 -1 0 612)" d="M238.66 435.87L463.44 435.87L463.44 442.85L238.66 442.85z" stroke="none" fill="#85C1E9" fill-rule="nonzero" /><path id="86" transform="matrix(1 0 0 -1 0 612)" d="M238.66 428.12L463.44 428.12L463.44 435.1L238.66 435.1z" stroke="none" fill="#85C1E9" fill-rule="nonzero" /><path id="87" transform="matrix(1 0 0 -1 0 612)" d="M238.66 420.37L463.44 420.37L463.44 427.35L238.66 427.35z" stroke="none" fill="#85C1E9" fill-rule="nonzero" /><path id="88" transform="matrix(1 0 0 -1 0 612)" d="M238.66 412.62L463.44 412.62L463.44 419.6L238.66 419.6z" stroke="none" fill="#85C1E9" fill-rule="nonzero" /><path id="89" transform="matrix(1 0 0 -1 0 612)" d="M238.66 404.86L463.44 404.86L463.44 411.84L238.66 411.84z" stroke="none" fill="#85C1E9" fill-rule="nonzero" /><path id="90" transform="matrix(1 0 0 -1 0 612)" d="M238.66 397.11L463.44 397.11L463.44 404.09L238.66 404.09z" stroke="none" fill="#85C1E9" fill-rule="nonzero" /><path id="91" transform="matrix(1 0 0 -1 0 612)" d="M238.66 389.36L463.44 389.36L463.44 396.34L238.66 396.34z" stroke="none" fill="#85C1E9" fill-rule="nonzero" /><path id="92" transform="matrix(1 0 0 -1 0 612)" d="M238.66 381.61L463.44 381.61L463.44 388.59L238.66 388.59z" stroke="none" fill="#85C1E9" fill-rule="nonzero" /><path id="93" transform="matrix(1 0 0 -1 0 612)" d="M238.66 373.86L463.44 373.86L463.44 380.84L238.66 380.84z" stroke="none" fill="#85C1E9" fill-rule="nonzero" /><path id="94" transform="matrix(1 0 0 -1 0 612)" d="M238.66 366.11L463.44 366.11L463.44 373.09L238.66 373.09z" stroke="none" fill="#85C1E9" fill-rule="nonzero" /><path id="95" transform="matrix(1 0 0 -1 0 612)" d="M238.66 358.36L463.44 358.36L463.44 365.34L238.66 365.34z" stroke="none" fill="#85C1E9" fill-rule="nonzero" /><path id="96" transform="matrix(1 0 0 -1 0 612)" d="M238.66 350.61L463.44 350.61L463.44 357.59L238.66 357.59z" stroke="none" fill="#85C1E9" fill-rule="nonzero" /><path id="97" transform="matrix(1 0 0 -1 0 612)" d="M238.66 342.86L463.44 342.86L463.44 349.84L238.66 349.84z" stroke="none" fill="#85C1E9" fill-rule="nonzero" /><path id="98" transform="matrix(1 0 0 -1 0 612)" d="M238.66 335.11L463.44 335.11L463.44 342.09L238.66 342.09z" stroke="none" fill="#85C1E9" fill-rule="nonzero" /><path id="99" transform="matrix(1 0 0 -1 0 612)" d="M238.66 327.35L456.83 327.35L456.83 334.33L238.66 334.33z" stroke="none" fill="#85C1E9" fill-rule="nonzero" /><path id="100" transform="matrix(1 0 0 -1 0 612)" d="M238.66 319.6L453.67 319.6L453.67 326.58L238.66 326.58z" stroke="none" fill="#85C1E9" fill-rule="nonzero" /><path id="101" transform="matrix(1 0 0 -1 0 612)" d="M238.66 311.85L453.67 311.85L453.67 318.83L238.66 318.83z" stroke="none" fill="#85C1E9" fill-rule="nonzero" /><path id="102" transform="matrix(1 0 0 -1 0 612)" d="M238.66 304.1L447.19 304.1L447.19 311.08L238.66 311.08z" stroke="none" fill="#85C1E9" fill-rule="nonzero" /><path id="103" transform="matrix(1 0 0 -1 0 612)" d="M238.66 296.35L447.19 296.35L447.19 303.33L238.66 303.33z" stroke="none" fill="#85C1E9" fill-rule="nonzero" /><path id="104" transform="matrix(1 0 0 -1 0 612)" d="M238.66 288.6L439.92 288.6L439.92 295.58L238.66 295.58z" stroke="none" fill="#85C1E9" fill-rule="nonzero" /><path id="105" transform="matrix(1 0 0 -1 0 612)" d="M238.66 280.85L437.47 280.85L437.47 287.83L238.66 287.83z" stroke="none" fill="#85C1E9" fill-rule="nonzero" /><path id="106" transform="matrix(1 0 0 -1 0 612)" d="M238.66 273.1L436.52 273.1L436.52 280.08L238.66 280.08z" stroke="none" fill="#85C1E9" fill-rule="nonzero" /><path id="107" transform="matrix(1 0 0 -1 0 612)" d="M238.66 265.35L430.98 265.35L430.98 272.33L238.66 272.33z" stroke="none" fill="#85C1E9" fill-rule="nonzero" /><path id="108" transform="matrix(1 0 0 -1 0 612)" d="M238.66 257.6L430.98 257.6L430.98 264.58L238.66 264.58z" stroke="none" fill="#85C1E9" fill-rule="nonzero" /><path id="109" transform="matrix(1 0 0 -1 0 612)" d="M238.66 249.84L429.01 249.84L429.01 256.82L238.66 256.82z" stroke="none" fill="#85C1E9" fill-rule="nonzero" /><path id="110" transform="matrix(1 0 0 -1 0 612)" d="M238.66 242.09L426.79 242.09L426.79 249.07L238.66 249.07z" stroke="none" fill="#85C1E9" fill-rule="nonzero" /><path id="111" transform="matrix(1 0 0 -1 0 612)" d="M238.66 234.34L424.74 234.34L424.74 241.32L238.66 241.32z" stroke="none" fill="#85C1E9" fill-rule="nonzero" /><path id="112" transform="matrix(1 0 0 -1 0 612)" d="M238.66 226.59L424.56 226.59L424.56 233.57L238.66 233.57z" stroke="none" fill="#85C1E9" fill-rule="nonzero" /><path id="113" transform="matrix(1 0 0 -1 0 612)" d="M238.66 218.84L424.56 218.84L424.56 225.82L238.66 225.82z" stroke="none" fill="#85C1E9" fill-rule="nonzero" /><path id="114" transform="matrix(1 0 0 -1 0 612)" d="M238.66 211.09L424.56 211.09L424.56 218.07L238.66 218.07z" stroke="none" fill="#85C1E9" fill-rule="nonzero" /><path id="115" transform="matrix(1 0 0 -1 0 612)" d="M238.66 203.34L424.56 203.34L424.56 210.32L238.66 210.32z" stroke="none" fill="#85C1E9" fill-rule="nonzero" /><path id="116" transform="matrix(1 0 0 -1 0 612)" d="M238.66 195.59L424.56 195.59L424.56 202.57L238.66 202.57z" stroke="none" fill="#85C1E9" fill-rule="nonzero" /><path id="117" transform="matrix(1 0 0 -1 0 612)" d="M238.66 187.84L423.7 187.84L423.7 194.82L238.66 194.82z" stroke="none" fill="#85C1E9" fill-rule="nonzero" /><path id="118" transform="matrix(1 0 0 -1 0 612)" d="M238.66 180.09L418.96 180.09L418.96 187.07L238.66 187.07z" stroke="none" fill="#85C1E9" fill-rule="nonzero" /><path id="119" transform="matrix(1 0 0 -1 0 612)" d="M238.66 172.33L418.96 172.33L418.96 179.31L238.66 179.31z" stroke="none" fill="#85C1E9" fill-rule="nonzero" /><path id="120" transform="matrix(1 0 0 -1 0 612)" d="M238.66 164.58L418.96 164.58L418.96 171.56L238.66 171.56z" stroke="none" fill="#85C1E9" fill-rule="nonzero" /><path id="121" transform="matrix(1 0 0 -1 0 612)" d="M238.66 156.83L418.96 156.83L418.96 163.81L238.66 163.81z" stroke="none" fill="#85C1E9" fill-rule="nonzero" /><path id="122" transform="matrix(1 0 0 -1 0 612)" d="M238.66 149.08L418.96 149.08L418.96 156.06L238.66 156.06z" stroke="none" fill="#85C1E9" fill-rule="nonzero" /><path id="123" transform="matrix(1 0 0 -1 0 612)" d="M238.66 141.33L418.96 141.33L418.96 148.31L238.66 148.31z" stroke="none" fill="#85C1E9" fill-rule="nonzero" /><path id="124" transform="matrix(1 0 0 -1 0 612)" d="M238.66 133.58L418.96 133.58L418.96 140.56L238.66 140.56z" stroke="none" fill="#85C1E9" fill-rule="nonzero" /><path id="125" transform="matrix(1 0 0 -1 0 612)" d="M238.66 125.83L418.96 125.83L418.96 132.81L238.66 132.81z" stroke="none" fill="#85C1E9" fill-rule="nonzero" /><path id="126" transform="matrix(1 0 0 -1 0 612)" d="M238.66 118.08L418.96 118.08L418.96 125.06L238.66 125.06z" stroke="none" fill="#85C1E9" fill-rule="nonzero" /><path id="127" transform="matrix(1 0 0 -1 0 612)" d="M238.66 110.33L418.96 110.33L418.96 117.31L238.66 117.31z" stroke="none" fill="#85C1E9" fill-rule="nonzero" /><path id="128" transform="matrix(1 0 0 -1 0 612)" d="M238.66 102.58L418.96 102.58L418.96 109.56L238.66 109.56z" stroke="none" fill="#85C1E9" fill-rule="nonzero" /><path id="129" transform="matrix(1 0 0 -1 0 612)" d="M238.66 94.82L418.96 94.82L418.96 101.8L238.66 101.8z" stroke="none" fill="#85C1E9" fill-rule="nonzero" /><path id="130" transform="matrix(1 0 0 -1 0 612)" d="M238.66 87.07L418.96 87.07L418.96 94.05L238.66 94.05z" stroke="none" fill="#85C1E9" fill-rule="nonzero" /><path id="131" transform="matrix(1 0 0 -1 0 612)" d="M219.43 85.91L642.52 85.91L642.52 85.91L642.52 552.52L642.52 552.52L219.43 552.52z" stroke="#323232" stroke-width="1.07" stroke-linecap="round" fill="none" /></g><g clip-path="url(#11)"></g><g clip-path="url(#12)"></g><g clip-path="url(#13)"></g><g clip-path="url(#14)"></g><g clip-path="url(#15)"></g><g clip-path="url(#16)"></g><g clip-path="url(#17)"></g><g clip-path="url(#18)"></g><g clip-path="url(#19)"></g><g clip-path="url(#20)"></g><g clip-path="url(#21)"></g><g clip-path="url(#22)"></g><g clip-path="url(#23)"></g><g clip-path="url(#24)"></g><g clip-path="url(#25)"></g><g clip-path="url(#26)"></g><g clip-path="url(#27)"></g><g clip-path="url(#28)"><path id="558" transform="matrix(1 0 0 -1 0 612)" d="M216.69 90.56L219.43 90.56" stroke="#323232" stroke-width="1.07" fill="none" /><path id="559" transform="matrix(1 0 0 -1 0 612)" d="M216.69 98.31L219.43 98.31" stroke="#323232" stroke-width="1.07" fill="none" /><path id="560" transform="matrix(1 0 0 -1 0 612)" d="M216.69 106.06L219.43 106.06" stroke="#323232" stroke-width="1.07" fill="none" /><path id="561" transform="matrix(1 0 0 -1 0 612)" d="M216.69 113.81L219.43 113.81" stroke="#323232" stroke-width="1.07" fill="none" /><path id="562" transform="matrix(1 0 0 -1 0 612)" d="M216.69 121.57L219.43 121.57" stroke="#323232" stroke-width="1.07" fill="none" /><path id="563" transform="matrix(1 0 0 -1 0 612)" d="M216.69 129.32L219.43 129.32" stroke="#323232" stroke-width="1.07" fill="none" /><path id="564" transform="matrix(1 0 0 -1 0 612)" d="M216.69 137.07L219.43 137.07" stroke="#323232" stroke-width="1.07" fill="none" /><path id="565" transform="matrix(1 0 0 -1 0 612)" d="M216.69 144.82L219.43 144.82" stroke="#323232" stroke-width="1.07" fill="none" /><path id="566" transform="matrix(1 0 0 -1 0 612)" d="M216.69 152.57L219.43 152.57" stroke="#323232" stroke-width="1.07" fill="none" /><path id="567" transform="matrix(1 0 0 -1 0 612)" d="M216.69 160.32L219.43 160.32" stroke="#323232" stroke-width="1.07" fill="none" /><path id="568" transform="matrix(1 0 0 -1 0 612)" d="M216.69 168.07L219.43 168.07" stroke="#323232" stroke-width="1.07" fill="none" /><path id="569" transform="matrix(1 0 0 -1 0 612)" d="M216.69 175.82L219.43 175.82" stroke="#323232" stroke-width="1.07" fill="none" /><path id="570" transform="matrix(1 0 0 -1 0 612)" d="M216.69 183.57L219.43 183.57" stroke="#323232" stroke-width="1.07" fill="none" /><path id="571" transform="matrix(1 0 0 -1 0 612)" d="M216.69 191.32L219.43 191.32" stroke="#323232" stroke-width="1.07" fill="none" /><path id="572" transform="matrix(1 0 0 -1 0 612)" d="M216.69 199.08L219.43 199.08" stroke="#323232" stroke-width="1.07" fill="none" /><path id="573" transform="matrix(1 0 0 -1 0 612)" d="M216.69 206.83L219.43 206.83" stroke="#323232" stroke-width="1.07" fill="none" /><path id="574" transform="matrix(1 0 0 -1 0 612)" d="M216.69 214.58L219.43 214.58" stroke="#323232" stroke-width="1.07" fill="none" /><path id="575" transform="matrix(1 0 0 -1 0 612)" d="M216.69 222.33L219.43 222.33" stroke="#323232" stroke-width="1.07" fill="none" /><path id="576" transform="matrix(1 0 0 -1 0 612)" d="M216.69 230.08L219.43 230.08" stroke="#323232" stroke-width="1.07" fill="none" /><path id="577" transform="matrix(1 0 0 -1 0 612)" d="M216.69 237.83L219.43 237.83" stroke="#323232" stroke-width="1.07" fill="none" /><path id="578" transform="matrix(1 0 0 -1 0 612)" d="M216.69 245.58L219.43 245.58" stroke="#323232" stroke-width="1.07" fill="none" /><path id="579" transform="matrix(1 0 0 -1 0 612)" d="M216.69 253.33L219.43 253.33" stroke="#323232" stroke-width="1.07" fill="none" /><path id="580" transform="matrix(1 0 0 -1 0 612)" d="M216.69 261.08L219.43 261.08" stroke="#323232" stroke-width="1.07" fill="none" /><path id="581" transform="matrix(1 0 0 -1 0 612)" d="M216.69 268.83L219.43 268.83" stroke="#323232" stroke-width="1.07" fill="none" /><path id="582" transform="matrix(1 0 0 -1 0 612)" d="M216.69 276.59L219.43 276.59" stroke="#323232" stroke-width="1.07" fill="none" /><path id="583" transform="matrix(1 0 0 -1 0 612)" d="M216.69 284.34L219.43 284.34" stroke="#323232" stroke-width="1.07" fill="none" /><path id="584" transform="matrix(1 0 0 -1 0 612)" d="M216.69 292.09L219.43 292.09" stroke="#323232" stroke-width="1.07" fill="none" /><path id="585" transform="matrix(1 0 0 -1 0 612)" d="M216.69 299.84L219.43 299.84" stroke="#323232" stroke-width="1.07" fill="none" /><path id="586" transform="matrix(1 0 0 -1 0 612)" d="M216.69 307.59L219.43 307.59" stroke="#323232" stroke-width="1.07" fill="none" /><path id="587" transform="matrix(1 0 0 -1 0 612)" d="M216.69 315.34L219.43 315.34" stroke="#323232" stroke-width="1.07" fill="none" /><path id="588" transform="matrix(1 0 0 -1 0 612)" d="M216.69 323.09L219.43 323.09" stroke="#323232" stroke-width="1.07" fill="none" /><path id="589" transform="matrix(1 0 0 -1 0 612)" d="M216.69 330.84L219.43 330.84" stroke="#323232" stroke-width="1.07" fill="none" /><path id="590" transform="matrix(1 0 0 -1 0 612)" d="M216.69 338.59L219.43 338.59" stroke="#323232" stroke-width="1.07" fill="none" /><path id="591" transform="matrix(1 0 0 -1 0 612)" d="M216.69 346.34L219.43 346.34" stroke="#323232" stroke-width="1.07" fill="none" /><path id="592" transform="matrix(1 0 0 -1 0 612)" d="M216.69 354.1L219.43 354.1" stroke="#323232" stroke-width="1.07" fill="none" /><path id="593" transform="matrix(1 0 0 -1 0 612)" d="M216.69 361.85L219.43 361.85" stroke="#323232" stroke-width="1.07" fill="none" /><path id="594" transform="matrix(1 0 0 -1 0 612)" d="M216.69 369.6L219.43 369.6" stroke="#323232" stroke-width="1.07" fill="none" /><path id="595" transform="matrix(1 0 0 -1 0 612)" d="M216.69 377.35L219.43 377.35" stroke="#323232" stroke-width="1.07" fill="none" /><path id="596" transform="matrix(1 0 0 -1 0 612)" d="M216.69 385.1L219.43 385.1" stroke="#323232" stroke-width="1.07" fill="none" /><path id="597" transform="matrix(1 0 0 -1 0 612)" d="M216.69 392.85L219.43 392.85" stroke="#323232" stroke-width="1.07" fill="none" /><path id="598" transform="matrix(1 0 0 -1 0 612)" d="M216.69 400.6L219.43 400.6" stroke="#323232" stroke-width="1.07" fill="none" /><path id="599" transform="matrix(1 0 0 -1 0 612)" d="M216.69 408.35L219.43 408.35" stroke="#323232" stroke-width="1.07" fill="none" /><path id="600" transform="matrix(1 0 0 -1 0 612)" d="M216.69 416.1L219.43 416.1" stroke="#323232" stroke-width="1.07" fill="none" /><path id="601" transform="matrix(1 0 0 -1 0 612)" d="M216.69 423.85L219.43 423.85" stroke="#323232" stroke-width="1.07" fill="none" /><path id="602" transform="matrix(1 0 0 -1 0 612)" d="M216.69 431.61L219.43 431.61" stroke="#323232" stroke-width="1.07" fill="none" /><path id="603" transform="matrix(1 0 0 -1 0 612)" d="M216.69 439.36L219.43 439.36" stroke="#323232" stroke-width="1.07" fill="none" /><path id="604" transform="matrix(1 0 0 -1 0 612)" d="M216.69 447.11L219.43 447.11" stroke="#323232" stroke-width="1.07" fill="none" /><path id="605" transform="matrix(1 0 0 -1 0 612)" d="M216.69 454.86L219.43 454.86" stroke="#323232" stroke-width="1.07" fill="none" /><path id="606" transform="matrix(1 0 0 -1 0 612)" d="M216.69 462.61L219.43 462.61" stroke="#323232" stroke-width="1.07" fill="none" /><path id="607" transform="matrix(1 0 0 -1 0 612)" d="M216.69 470.36L219.43 470.36" stroke="#323232" stroke-width="1.07" fill="none" /><path id="608" transform="matrix(1 0 0 -1 0 612)" d="M216.69 478.11L219.43 478.11" stroke="#323232" stroke-width="1.07" fill="none" /><path id="609" transform="matrix(1 0 0 -1 0 612)" d="M216.69 485.86L219.43 485.86" stroke="#323232" stroke-width="1.07" fill="none" /><path id="610" transform="matrix(1 0 0 -1 0 612)" d="M216.69 493.61L219.43 493.61" stroke="#323232" stroke-width="1.07" fill="none" /><path id="611" transform="matrix(1 0 0 -1 0 612)" d="M216.69 501.36L219.43 501.36" stroke="#323232" stroke-width="1.07" fill="none" /><path id="612" transform="matrix(1 0 0 -1 0 612)" d="M216.69 509.11L219.43 509.11" stroke="#323232" stroke-width="1.07" fill="none" /><path id="613" transform="matrix(1 0 0 -1 0 612)" d="M216.69 516.87L219.43 516.87" stroke="#323232" stroke-width="1.07" fill="none" /><path id="614" transform="matrix(1 0 0 -1 0 612)" d="M216.69 524.62L219.43 524.62" stroke="#323232" stroke-width="1.07" fill="none" /><path id="615" transform="matrix(1 0 0 -1 0 612)" d="M216.69 532.37L219.43 532.37" stroke="#323232" stroke-width="1.07" fill="none" /><path id="616" transform="matrix(1 0 0 -1 0 612)" d="M216.69 540.12L219.43 540.12" stroke="#323232" stroke-width="1.07" fill="none" /><path id="617" transform="matrix(1 0 0 -1 0 612)" d="M216.69 547.87L219.43 547.87" stroke="#323232" stroke-width="1.07" fill="none" /></g><g clip-path="url(#29)"></g><g clip-path="url(#30)"></g><g clip-path="url(#31)"></g><g clip-path="url(#32)"></g><g clip-path="url(#33)"></g><g clip-path="url(#34)"></g><g clip-path="url(#35)"></g><g clip-path="url(#36)"></g><g clip-path="url(#37)"></g><g clip-path="url(#38)"><path id="618" transform="matrix(1 0 0 -1 0 612)" d="M238.66 83.17L238.66 85.91" stroke="#323232" stroke-width="1.07" fill="none" /><path id="619" transform="matrix(1 0 0 -1 0 612)" d="M346.64 83.17L346.64 85.91" stroke="#323232" stroke-width="1.07" fill="none" /><path id="620" transform="matrix(1 0 0 -1 0 612)" d="M454.62 83.17L454.62 85.91" stroke="#323232" stroke-width="1.07" fill="none" /><path id="621" transform="matrix(1 0 0 -1 0 612)" d="M562.6 83.17L562.6 85.91" stroke="#323232" stroke-width="1.07" fill="none" /></g><g clip-path="url(#39)"></g><g clip-path="url(#40)"></g><g clip-path="url(#41)"></g><g clip-path="url(#42)"></g><g clip-path="url(#43)"></g><g clip-path="url(#44)"></g><g clip-path="url(#45)"></g><g clip-path="url(#46)"></g><g clip-path="url(#47)"></g><g clip-path="url(#48)"></g><g clip-path="url(#49)"></g><g clip-path="url(#50)"></g><g clip-path="url(#51)"></g><g clip-path="url(#52)"></g><g clip-path="url(#53)"></g><g clip-path="url(#54)"></g><g clip-path="url(#55)"></g><g clip-path="url(#56)"></g><g clip-path="url(#57)"></g><g clip-path="url(#58)"></g><g clip-path="url(#59)"></g><g clip-path="url(#60)"></g></g></g></svg>