<svg xmlns="http://www.w3.org/2000/svg" xmlns:xlink="http://www.w3.org/1999/xlink" id="body_4" preserveAspectRatio="xMinYMin meet" viewBox="0 0 1056 816"><defs><clipPath id="1"><path id="" clip-rule="evenodd" transform="matrix(1 0 0 1 0 0)" d="M0 612L0 0L0 0L792 0L792 0L792 612L792 612L0 612z" /></clipPath><clipPath id="2"><path id="" clip-rule="evenodd" transform="matrix(1 0 0 1 0 0)" d="M144 558L648 558L648 558L648 54L648 54L144 54z" /></clipPath><clipPath id="3"><path id="" clip-rule="evenodd" transform="matrix(1 0 0 1 0 0)" d="M144 558L648 558L648 558L648 54L648 54L144 54z" /></clipPath><clipPath id="4"><path id="" clip-rule="evenodd" transform="matrix(1 0 0 1 0 0)" d="M144 558L648 558L648 558L648 54L648 54L144 54z" /></clipPath><clipPath id="5"><path id="" clip-rule="evenodd" transform="matrix(1 0 0 1 0 0)" d="M144 558L648 558L648 558L648 54L648 54L144 54z" /></clipPath><clipPath id="6"><path id="" clip-rule="evenodd" transform="matrix(1 0 0 1 0 0)" d="M144 558L648 558L648 558L648 54L648 54L144 54z" /></clipPath><clipPath id="7"><path id="" clip-rule="evenodd" transform="matrix(1 0 0 1 0 0)" d="M144 558L648 558L648 558L648 54L648 54L144 54z" /></clipPath><clipPath id="8"><path id="" clip-rule="evenodd" transform="matrix(1 0 0 1 0 0)" d="M144 558L648 558L648 558L648 54L648 54L144 54z" /></clipPath><clipPath id="9"><path id="" clip-rule="evenodd" transform="matrix(1 0 0 1 0 0)" d="M144 558L648 558L648 558L648 54L648 54L144 54z" /></clipPath><clipPath id="10"><path id="" clip-rule="evenodd" transform="matrix(1 0 0 1 0 0)" d="M144 558L648 558L648 558L648 54L648 54L144 54z" /></clipPath><clipPath id="11"><path id="" clip-rule="evenodd" transform="matrix(1 0 0 1 0 0)" d="M144 558L648 558L648 558L648 54L648 54L144 54z" /></clipPath><clipPath id="12"><path id="" clip-rule="evenodd" transform="matrix(1 0 0 1 0 0)" d="M144 558L648 558L648 558L648 54L648 54L144 54z" /></clipPath><clipPath id="13"><path id="" clip-rule="evenodd" transform="matrix(1 0 0 1 0 0)" d="M144 558L648 558L648 558L648 54L648 54L144 54z" /></clipPath><clipPath id="14"><path id="" clip-rule="evenodd" transform="matrix(1 0 0 1 0 0)" d="M274.9 526.09L642.52 526.09L642.52 526.09L642.52 77.15002L642.52 77.15002L274.9 77.15002z" /></clipPath><clipPath id="15"><path id="" clip-rule="evenodd" transform="matrix(1 0 0 1 0 0)" d="M144 558L648 558L648 558L648 54L648 54L144 54z" /></clipPath><clipPath id="16"><path id="" clip-rule="evenodd" transform="matrix(1 0 0 1 0 0)" d="M144 558L648 558L648 558L648 54L648 54L144 54z" /></clipPath><clipPath id="17"><path id="" clip-rule="evenodd" transform="matrix(1 0 0 1 0 0)" d="M144 558L648 558L648 558L648 54L648 54L144 54z" /></clipPath><clipPath id="18"><path id="" clip-rule="evenodd" transform="matrix(1 0 0 1 0 0)" d="M144 558L648 558L648 558L648 54L648 54L144 54z" /></clipPath><clipPath id="19"><path id="" clip-rule="evenodd" transform="matrix(1 0 0 1 0 0)" d="M144 558L648 558L648 558L648 54L648 54L144 54z" /></clipPath><clipPath id="20"><path id="" clip-rule="evenodd" transform="matrix(1 0 0 1 0 0)" d="M144 558L648 558L648 558L648 54L648 54L144 54z" /></clipPath><clipPath id="21"><path id="" clip-rule="evenodd" transform="matrix(1 0 0 1 0 0)" d="M144 558L648 558L648 558L648 54L648 54L144 54z" /></clipPath><clipPath id="22"><path id="" clip-rule="evenodd" transform="matrix(1 0 0 1 0 0)" d="M144 558L648 558L648 558L648 54L648 54L144 54z" /></clipPath><clipPath id="23"><path id="" clip-rule="evenodd" transform="matrix(1 0 0 1 0 0)" d="M144 558L648 558L648 558L648 54L648 54L144 54z" /></clipPath><clipPath id="24"><path id="" clip-rule="evenodd" transform="matrix(1 0 0 1 0 0)" d="M144 558L648 558L648 558L648 54L648 54L144 54z" /></clipPath><clipPath id="25"><path id="" clip-rule="evenodd" transform="matrix(1 0 0 1 0 0)" d="M144 558L648 558L648 558L648 54L648 54L144 54z" /></clipPath><clipPath id="26"><path id="" clip-rule="evenodd" transform="matrix(1 0 0 1 0 0)" d="M144 558L648 558L648 558L648 54L648 54L144 54z" /></clipPath><clipPath id="27"><path id="" clip-rule="evenodd" transform="matrix(1 0 0 1 0 0)" d="M144 558L648 558L648 558L648 54L648 54L144 54z" /></clipPath><clipPath id="28"><path id="" clip-rule="evenodd" transform="matrix(1 0 0 1 0 0)" d="M144 558L648 558L648 558L648 54L648 54L144 54z" /></clipPath><clipPath id="29"><path id="" clip-rule="evenodd" transform="matrix(1 0 0 1 0 0)" d="M144 558L648 558L648 558L648 54L648 54L144 54z" /></clipPath><clipPath id="30"><path id="" clip-rule="evenodd" transform="matrix(1 0 0 1 0 0)" d="M144 558L648 558L648 558L648 54L648 54L144 54z" /></clipPath><clipPath id="31"><path id="" clip-rule="evenodd" transform="matrix(1 0 0 1 0 0)" d="M144 558L648 558L648 558L648 54L648 54L144 54z" /></clipPath><clipPath id="32"><path id="" clip-rule="evenodd" transform="matrix(1 0 0 1 0 0)" d="M144 558L648 558L648 558L648 54L648 54L144 54z" /></clipPath><clipPath id="33"><path id="" clip-rule="evenodd" transform="matrix(1 0 0 1 0 0)" d="M144 558L648 558L648 558L648 54L648 54L144 54z" /></clipPath><clipPath id="34"><path id="" clip-rule="evenodd" transform="matrix(1 0 0 1 0 0)" d="M144 558L648 558L648 558L648 54L648 54L144 54z" /></clipPath><clipPath id="35"><path id="" clip-rule="evenodd" transform="matrix(1 0 0 1 0 0)" d="M144 558L648 558L648 558L648 54L648 54L144 54z" /></clipPath><clipPath id="36"><path id="" clip-rule="evenodd" transform="matrix(1 0 0 1 0 0)" d="M144 558L648 558L648 558L648 54L648 54L144 54z" /></clipPath><clipPath id="37"><path id="" clip-rule="evenodd" transform="matrix(1 0 0 1 0 0)" d="M144 558L648 558L648 558L648 54L648 54L144 54z" /></clipPath><clipPath id="38"><path id="" clip-rule="evenodd" transform="matrix(1 0 0 1 0 0)" d="M144 558L648 558L648 558L648 54L648 54L144 54z" /></clipPath><clipPath id="39"><path id="" clip-rule="evenodd" transform="matrix(1 0 0 1 0 0)" d="M144 558L648 558L648 558L648 54L648 54L144 54z" /></clipPath><clipPath id="40"><path id="" clip-rule="evenodd" transform="matrix(1 0 0 1 0 0)" d="M144 558L648 558L648 558L648 54L648 54L144 54z" /></clipPath><clipPath id="41"><path id="" clip-rule="evenodd" transform="matrix(1 0 0 1 0 0)" d="M144 558L648 558L648 558L648 54L648 54L144 54z" /></clipPath><clipPath id="42"><path id="" clip-rule="evenodd" transform="matrix(1 0 0 1 0 0)" d="M144 558L648 558L648 558L648 54L648 54L144 54z" /></clipPath><clipPath id="43"><path id="" clip-rule="evenodd" transform="matrix(1 0 0 1 0 0)" d="M144 558L648 558L648 558L648 54L648 54L144 54z" /></clipPath><clipPath id="44"><path id="" clip-rule="evenodd" transform="matrix(1 0 0 1 0 0)" d="M144 558L648 558L648 558L648 54L648 54L144 54z" /></clipPath><clipPath id="45"><path id="" clip-rule="evenodd" transform="matrix(1 0 0 1 0 0)" d="M144 558L648 558L648 558L648 54L648 54L144 54z" /></clipPath><clipPath id="46"><path id="" clip-rule="evenodd" transform="matrix(1 0 0 1 0 0)" d="M144 558L648 558L648 558L648 54L648 54L144 54z" /></clipPath><clipPath id="47"><path id="" clip-rule="evenodd" transform="matrix(1 0 0 1 0 0)" d="M144 558L648 558L648 558L648 54L648 54L144 54z" /></clipPath><clipPath id="48"><path id="" clip-rule="evenodd" transform="matrix(1 0 0 1 0 0)" d="M144 558L648 558L648 558L648 54L648 54L144 54z" /></clipPath><clipPath id="49"><path id="" clip-rule="evenodd" transform="matrix(1 0 0 1 0 0)" d="M144 558L648 558L648 558L648 54L648 54L144 54z" /></clipPath><clipPath id="50"><path id="" clip-rule="evenodd" transform="matrix(1 0 0 1 0 0)" d="M144 558L648 558L648 558L648 54L648 54L144 54z" /></clipPath><clipPath id="51"><path id="" clip-rule="evenodd" transform="matrix(1 0 0 1 0 0)" d="M144 558L648 558L648 558L648 54L648 54L144 54z" /></clipPath><clipPath id="52"><path id="" clip-rule="evenodd" transform="matrix(1 0 0 1 0 0)" d="M144 558L648 558L648 558L648 54L648 54L144 54z" /></clipPath><clipPath id="53"><path id="" clip-rule="evenodd" transform="matrix(1 0 0 1 0 0)" d="M144 558L648 558L648 558L648 54L648 54L144 54z" /></clipPath><clipPath id="54"><path id="" clip-rule="evenodd" transform="matrix(1 0 0 1 0 0)" d="M144 558L648 558L648 558L648 54L648 54L144 54z" /></clipPath><clipPath id="55"><path id="" clip-rule="evenodd" transform="matrix(1 0 0 1 0 0)" d="M144 558L648 558L648 558L648 54L648 54L144 54z" /></clipPath><clipPath id="56"><path id="" clip-rule="evenodd" transform="matrix(1 0 0 1 0 0)" d="M144 558L648 558L648 558L648 54L648 54L144 54z" /></clipPath><clipPath id="57"><path id="" clip-rule="evenodd" transform="matrix(1 0 0 1 0 0)" d="M144 558L648 558L648 558L648 54L648 54L144 54z" /></clipPath><clipPath id="58"><path id="" clip-rule="evenodd" transform="matrix(1 0 0 1 0 0)" d="M144 558L648 558L648 558L648 54L648 54L144 54z" /></clipPath><clipPath id="59"><path id="" clip-rule="evenodd" transform="matrix(1 0 0 1 0 0)" d="M144 558L648 558L648 558L648 54L648 54L144 54z" /></clipPath><clipPath id="60"><path id="" clip-rule="evenodd" transform="matrix(1 0 0 1 0 0)" d="M144 558L648 558L648 558L648 54L648 54L144 54z" /></clipPath><clipPath id="61"><path id="" clip-rule="evenodd" transform="matrix(1 0 0 1 0 0)" d="M144 558L648 558L648 558L648 54L648 54L144 54z" /></clipPath><clipPath id="62"><path id="" clip-rule="evenodd" transform="matrix(1 0 0 1 0 0)" d="M144 558L648 558L648 558L648 54L648 54L144 54z" /></clipPath><clipPath id="63"><path id="" clip-rule="evenodd" transform="matrix(1 0 0 1 0 0)" d="M144 558L648 558L648 558L648 54L648 54L144 54z" /></clipPath><clipPath id="64"><path id="" clip-rule="evenodd" transform="matrix(1 0 0 1 0 0)" d="M144 558L648 558L648 558L648 54L648 54L144 54z" /></clipPath></defs><g transform="matrix(1.333333 0 0 1.333333 0 0)"><g clip-path="url(#1)"><g clip-path="url(#2)"></g><g clip-path="url(#3)"></g><g clip-path="url(#4)"></g><g clip-path="url(#5)"></g><g clip-path="url(#6)"></g><g clip-path="url(#7)"></g><g clip-path="url(#8)"></g><g clip-path="url(#9)"></g><g clip-path="url(#10)"></g><g clip-path="url(#11)"></g><g clip-path="url(#12)"><path id="1" transform="matrix(1 0 0 -1 0 612)" d="M144 54L648 54L648 54L648 558L648 558L144 558z" stroke="#FFFFFF" stroke-width="1.07" fill="#FFFFFF" fill-rule="nonzero" /></g><g clip-path="url(#13)"></g><g clip-path="url(#14)"><path id="2" transform="matrix(1 0 0 -1 0 612)" d="M274.9 85.91L642.52 85.91L642.52 534.85L274.9 534.85z" stroke="none" fill="#FFFFFF" fill-rule="nonzero" /><path id="3" transform="matrix(1 0 0 -1 0 612)" d="M332.37 85.91L332.37 534.85" stroke="#EBEBEB" stroke-width="0.53" fill="none" /><path id="4" transform="matrix(1 0 0 -1 0 612)" d="M413.88 85.91L413.88 534.85" stroke="#EBEBEB" stroke-width="0.53" fill="none" /><path id="5" transform="matrix(1 0 0 -1 0 612)" d="M495.39 85.91L495.39 534.85" stroke="#EBEBEB" stroke-width="0.53" fill="none" /><path id="6" transform="matrix(1 0 0 -1 0 612)" d="M576.9 85.91L576.9 534.85" stroke="#EBEBEB" stroke-width="0.53" fill="none" /><path id="7" transform="matrix(1 0 0 -1 0 612)" d="M274.9 91.28L642.52 91.28" stroke="#EBEBEB" stroke-width="1.07" fill="none" /><path id="8" transform="matrix(1 0 0 -1 0 612)" d="M274.9 100.22L642.52 100.22" stroke="#EBEBEB" stroke-width="1.07" fill="none" /><path id="9" transform="matrix(1 0 0 -1 0 612)" d="M274.9 109.16L642.52 109.16" stroke="#EBEBEB" stroke-width="1.07" fill="none" /><path id="10" transform="matrix(1 0 0 -1 0 612)" d="M274.9 118.11L642.52 118.11" stroke="#EBEBEB" stroke-width="1.07" fill="none" /><path id="11" transform="matrix(1 0 0 -1 0 612)" d="M274.9 127.05L642.52 127.05" stroke="#EBEBEB" stroke-width="1.07" fill="none" /><path id="12" transform="matrix(1 0 0 -1 0 612)" d="M274.9 135.99L642.52 135.99" stroke="#EBEBEB" stroke-width="1.07" fill="none" /><path id="13" transform="matrix(1 0 0 -1 0 612)" d="M274.9 144.93L642.52 144.93" stroke="#EBEBEB" stroke-width="1.07" fill="none" /><path id="14" transform="matrix(1 0 0 -1 0 612)" d="M274.9 153.88L642.52 153.88" stroke="#EBEBEB" stroke-width="1.07" fill="none" /><path id="15" transform="matrix(1 0 0 -1 0 612)" d="M274.9 162.82L642.52 162.82" stroke="#EBEBEB" stroke-width="1.07" fill="none" /><path id="16" transform="matrix(1 0 0 -1 0 612)" d="M274.9 171.76L642.52 171.76" stroke="#EBEBEB" stroke-width="1.07" fill="none" /><path id="17" transform="matrix(1 0 0 -1 0 612)" d="M274.9 180.71L642.52 180.71" stroke="#EBEBEB" stroke-width="1.07" fill="none" /><path id="18" transform="matrix(1 0 0 -1 0 612)" d="M274.9 189.65L642.52 189.65" stroke="#EBEBEB" stroke-width="1.07" fill="none" /><path id="19" transform="matrix(1 0 0 -1 0 612)" d="M274.9 198.59L642.52 198.59" stroke="#EBEBEB" stroke-width="1.07" fill="none" /><path id="20" transform="matrix(1 0 0 -1 0 612)" d="M274.9 207.53L642.52 207.53" stroke="#EBEBEB" stroke-width="1.07" fill="none" /><path id="21" transform="matrix(1 0 0 -1 0 612)" d="M274.9 216.48L642.52 216.48" stroke="#EBEBEB" stroke-width="1.07" fill="none" /><path id="22" transform="matrix(1 0 0 -1 0 612)" d="M274.9 225.42L642.52 225.42" stroke="#EBEBEB" stroke-width="1.07" fill="none" /><path id="23" transform="matrix(1 0 0 -1 0 612)" d="M274.9 234.36L642.52 234.36" stroke="#EBEBEB" stroke-width="1.07" fill="none" /><path id="24" transform="matrix(1 0 0 -1 0 612)" d="M274.9 243.31L642.52 243.31" stroke="#EBEBEB" stroke-width="1.07" fill="none" /><path id="25" transform="matrix(1 0 0 -1 0 612)" d="M274.9 252.25L642.52 252.25" stroke="#EBEBEB" stroke-width="1.07" fill="none" /><path id="26" transform="matrix(1 0 0 -1 0 612)" d="M274.9 261.19L642.52 261.19" stroke="#EBEBEB" stroke-width="1.07" fill="none" /><path id="27" transform="matrix(1 0 0 -1 0 612)" d="M274.9 270.14L642.52 270.14" stroke="#EBEBEB" stroke-width="1.07" fill="none" /><path id="28" transform="matrix(1 0 0 -1 0 612)" d="M274.9 279.08L642.52 279.08" stroke="#EBEBEB" stroke-width="1.07" fill="none" /><path id="29" transform="matrix(1 0 0 -1 0 612)" d="M274.9 288.02L642.52 288.02" stroke="#EBEBEB" stroke-width="1.07" fill="none" /><path id="30" transform="matrix(1 0 0 -1 0 612)" d="M274.9 296.96L642.52 296.96" stroke="#EBEBEB" stroke-width="1.07" fill="none" /><path id="31" transform="matrix(1 0 0 -1 0 612)" d="M274.9 305.91L642.52 305.91" stroke="#EBEBEB" stroke-width="1.07" fill="none" /><path id="32" transform="matrix(1 0 0 -1 0 612)" d="M274.9 314.85L642.52 314.85" stroke="#EBEBEB" stroke-width="1.07" fill="none" /><path id="33" transform="matrix(1 0 0 -1 0 612)" d="M274.9 323.79L642.52 323.79" stroke="#EBEBEB" stroke-width="1.07" fill="none" /><path id="34" transform="matrix(1 0 0 -1 0 612)" d="M274.9 332.74L642.52 332.74" stroke="#EBEBEB" stroke-width="1.07" fill="none" /><path id="35" transform="matrix(1 0 0 -1 0 612)" d="M274.9 341.68L642.52 341.68" stroke="#EBEBEB" stroke-width="1.07" fill="none" /><path id="36" transform="matrix(1 0 0 -1 0 612)" d="M274.9 350.62L642.52 350.62" stroke="#EBEBEB" stroke-width="1.07" fill="none" /><path id="37" transform="matrix(1 0 0 -1 0 612)" d="M274.9 359.57L642.52 359.57" stroke="#EBEBEB" stroke-width="1.07" fill="none" /><path id="38" transform="matrix(1 0 0 -1 0 612)" d="M274.9 368.51L642.52 368.51" stroke="#EBEBEB" stroke-width="1.07" fill="none" /><path id="39" transform="matrix(1 0 0 -1 0 612)" d="M274.9 377.45L642.52 377.45" stroke="#EBEBEB" stroke-width="1.07" fill="none" /><path id="40" transform="matrix(1 0 0 -1 0 612)" d="M274.9 386.39L642.52 386.39" stroke="#EBEBEB" stroke-width="1.07" fill="none" /><path id="41" transform="matrix(1 0 0 -1 0 612)" d="M274.9 395.34L642.52 395.34" stroke="#EBEBEB" stroke-width="1.07" fill="none" /><path id="42" transform="matrix(1 0 0 -1 0 612)" d="M274.9 404.28L642.52 404.28" stroke="#EBEBEB" stroke-width="1.07" fill="none" /><path id="43" transform="matrix(1 0 0 -1 0 612)" d="M274.9 413.22L642.52 413.22" stroke="#EBEBEB" stroke-width="1.07" fill="none" /><path id="44" transform="matrix(1 0 0 -1 0 612)" d="M274.9 422.17L642.52 422.17" stroke="#EBEBEB" stroke-width="1.07" fill="none" /><path id="45" transform="matrix(1 0 0 -1 0 612)" d="M274.9 431.11L642.52 431.11" stroke="#EBEBEB" stroke-width="1.07" fill="none" /><path id="46" transform="matrix(1 0 0 -1 0 612)" d="M274.9 440.05L642.52 440.05" stroke="#EBEBEB" stroke-width="1.07" fill="none" /><path id="47" transform="matrix(1 0 0 -1 0 612)" d="M274.9 448.99L642.52 448.99" stroke="#EBEBEB" stroke-width="1.07" fill="none" /><path id="48" transform="matrix(1 0 0 -1 0 612)" d="M274.9 457.94L642.52 457.94" stroke="#EBEBEB" stroke-width="1.07" fill="none" /><path id="49" transform="matrix(1 0 0 -1 0 612)" d="M274.9 466.88L642.52 466.88" stroke="#EBEBEB" stroke-width="1.07" fill="none" /><path id="50" transform="matrix(1 0 0 -1 0 612)" d="M274.9 475.82L642.52 475.82" stroke="#EBEBEB" stroke-width="1.07" fill="none" /><path id="51" transform="matrix(1 0 0 -1 0 612)" d="M274.9 484.77L642.52 484.77" stroke="#EBEBEB" stroke-width="1.07" fill="none" /><path id="52" transform="matrix(1 0 0 -1 0 612)" d="M274.9 493.71L642.52 493.71" stroke="#EBEBEB" stroke-width="1.07" fill="none" /><path id="53" transform="matrix(1 0 0 -1 0 612)" d="M274.9 502.65L642.52 502.65" stroke="#EBEBEB" stroke-width="1.07" fill="none" /><path id="54" transform="matrix(1 0 0 -1 0 612)" d="M274.9 511.6L642.52 511.6" stroke="#EBEBEB" stroke-width="1.07" fill="none" /><path id="55" transform="matrix(1 0 0 -1 0 612)" d="M274.9 520.54L642.52 520.54" stroke="#EBEBEB" stroke-width="1.07" fill="none" /><path id="56" transform="matrix(1 0 0 -1 0 612)" d="M274.9 529.48L642.52 529.48" stroke="#EBEBEB" stroke-width="1.07" fill="none" /><path id="57" transform="matrix(1 0 0 -1 0 612)" d="M291.61 85.91L291.61 534.85" stroke="#EBEBEB" stroke-width="1.07" fill="none" /><path id="58" transform="matrix(1 0 0 -1 0 612)" d="M373.12 85.91L373.12 534.85" stroke="#EBEBEB" stroke-width="1.07" fill="none" /><path id="59" transform="matrix(1 0 0 -1 0 612)" d="M454.64 85.91L454.64 534.85" stroke="#EBEBEB" stroke-width="1.07" fill="none" /><path id="60" transform="matrix(1 0 0 -1 0 612)" d="M536.15 85.91L536.15 534.85" stroke="#EBEBEB" stroke-width="1.07" fill="none" /><path id="61" transform="matrix(1 0 0 -1 0 612)" d="M617.66 85.91L617.66 534.85" stroke="#EBEBEB" stroke-width="1.07" fill="none" /><path id="62" transform="matrix(1 0 0 -1 0 612)" d="M291.61 525.46L625.81 525.46L625.81 525.46L625.81 533.51L625.81 533.51L291.61 533.51z" stroke="#FFFFFF" stroke-width="1.07" fill="#F4D03E" fill-rule="nonzero" /><path id="63" transform="matrix(1 0 0 -1 0 612)" d="M291.61 516.51L552.45 516.51L552.45 516.51L552.45 524.56L552.45 524.56L291.61 524.56z" stroke="#FFFFFF" stroke-width="1.07" fill="#F4D03E" fill-rule="nonzero" /><path id="64" transform="matrix(1 0 0 -1 0 612)" d="M291.61 507.57L519.84 507.57L519.84 507.57L519.84 515.62L519.84 515.62L291.61 515.62z" stroke="#FFFFFF" stroke-width="1.07" fill="#F4D03E" fill-rule="nonzero" /><path id="65" transform="matrix(1 0 0 -1 0 612)" d="M291.61 498.63L487.24 498.63L487.24 498.63L487.24 506.68L487.24 506.68L291.61 506.68z" stroke="#FFFFFF" stroke-width="1.07" fill="#F4D03E" fill-rule="nonzero" /><path id="66" transform="matrix(1 0 0 -1 0 612)" d="M291.61 489.69L454.63 489.69L454.63 489.69L454.63 497.74L454.63 497.74L291.61 497.74z" stroke="#FFFFFF" stroke-width="1.07" fill="#F4D03E" fill-rule="nonzero" /><path id="67" transform="matrix(1 0 0 -1 0 612)" d="M291.61 462.86L438.33 462.86L438.33 462.86L438.33 470.91L438.33 470.91L291.61 470.91z" stroke="#FFFFFF" stroke-width="1.07" fill="#F4D03E" fill-rule="nonzero" /><path id="68" transform="matrix(1 0 0 -1 0 612)" d="M291.61 471.8L438.33 471.8L438.33 471.8L438.33 479.85L438.33 479.85L291.61 479.85z" stroke="#FFFFFF" stroke-width="1.07" fill="#F4D03E" fill-rule="nonzero" /><path id="69" transform="matrix(1 0 0 -1 0 612)" d="M291.61 480.74L438.33 480.74L438.33 480.74L438.33 488.79L438.33 488.79L291.61 488.79z" stroke="#FFFFFF" stroke-width="1.07" fill="#F4D03E" fill-rule="nonzero" /><path id="70" transform="matrix(1 0 0 -1 0 612)" d="M291.61 444.97L430.18 444.97L430.18 444.97L430.18 453.02L430.18 453.02L291.61 453.02z" stroke="#FFFFFF" stroke-width="1.07" fill="#F4D03E" fill-rule="nonzero" /><path id="71" transform="matrix(1 0 0 -1 0 612)" d="M291.61 453.91L430.18 453.91L430.18 453.91L430.18 461.96L430.18 461.96L291.61 461.96z" stroke="#FFFFFF" stroke-width="1.07" fill="#F4D03E" fill-rule="nonzero" /><path id="72" transform="matrix(1 0 0 -1 0 612)" d="M291.61 436.03L422.03 436.03L422.03 436.03L422.03 444.08L422.03 444.08L291.61 444.08z" stroke="#FFFFFF" stroke-width="1.07" fill="#F4D03E" fill-rule="nonzero" /><path id="73" transform="matrix(1 0 0 -1 0 612)" d="M291.61 427.08L413.88 427.08L413.88 427.08L413.88 435.13L413.88 435.13L291.61 435.13z" stroke="#FFFFFF" stroke-width="1.07" fill="#F4D03E" fill-rule="nonzero" /><path id="74" transform="matrix(1 0 0 -1 0 612)" d="M291.61 409.2L397.58 409.2L397.58 409.2L397.58 417.25L397.58 417.25L291.61 417.25z" stroke="#FFFFFF" stroke-width="1.07" fill="#F4D03E" fill-rule="nonzero" /><path id="75" transform="matrix(1 0 0 -1 0 612)" d="M291.61 418.14L397.58 418.14L397.58 418.14L397.58 426.19L397.58 426.19L291.61 426.19z" stroke="#FFFFFF" stroke-width="1.07" fill="#F4D03E" fill-rule="nonzero" /><path id="76" transform="matrix(1 0 0 -1 0 612)" d="M291.61 400.26L389.42 400.26L389.42 400.26L389.42 408.31L389.42 408.31L291.61 408.31z" stroke="#FFFFFF" stroke-width="1.07" fill="#F4D03E" fill-rule="nonzero" /><path id="77" transform="matrix(1 0 0 -1 0 612)" d="M291.61 382.37L381.27 382.37L381.27 382.37L381.27 390.42L381.27 390.42L291.61 390.42z" stroke="#FFFFFF" stroke-width="1.07" fill="#F4D03E" fill-rule="nonzero" /><path id="78" transform="matrix(1 0 0 -1 0 612)" d="M291.61 391.31L381.27 391.31L381.27 391.31L381.27 399.36L381.27 399.36L291.61 399.36z" stroke="#FFFFFF" stroke-width="1.07" fill="#F4D03E" fill-rule="nonzero" /><path id="79" transform="matrix(1 0 0 -1 0 612)" d="M291.61 364.48L373.12 364.48L373.12 364.48L373.12 372.53L373.12 372.53L291.61 372.53z" stroke="#FFFFFF" stroke-width="1.07" fill="#F4D03E" fill-rule="nonzero" /><path id="80" transform="matrix(1 0 0 -1 0 612)" d="M291.61 373.43L373.12 373.43L373.12 373.43L373.12 381.48L373.12 381.48L291.61 381.48z" stroke="#FFFFFF" stroke-width="1.07" fill="#F4D03E" fill-rule="nonzero" /><path id="81" transform="matrix(1 0 0 -1 0 612)" d="M291.61 337.65L364.97 337.65L364.97 337.65L364.97 345.7L364.97 345.7L291.61 345.7z" stroke="#FFFFFF" stroke-width="1.07" fill="#F4D03E" fill-rule="nonzero" /><path id="82" transform="matrix(1 0 0 -1 0 612)" d="M291.61 346.6L364.97 346.6L364.97 346.6L364.97 354.65L364.97 354.65L291.61 354.65z" stroke="#FFFFFF" stroke-width="1.07" fill="#F4D03E" fill-rule="nonzero" /><path id="83" transform="matrix(1 0 0 -1 0 612)" d="M291.61 355.54L364.97 355.54L364.97 355.54L364.97 363.59L364.97 363.59L291.61 363.59z" stroke="#FFFFFF" stroke-width="1.07" fill="#F4D03E" fill-rule="nonzero" /><path id="84" transform="matrix(1 0 0 -1 0 612)" d="M291.61 301.88L356.82 301.88L356.82 301.88L356.82 309.93L356.82 309.93L291.61 309.93z" stroke="#FFFFFF" stroke-width="1.07" fill="#F4D03E" fill-rule="nonzero" /><path id="85" transform="matrix(1 0 0 -1 0 612)" d="M291.61 310.83L356.82 310.83L356.82 310.83L356.82 318.88L356.82 318.88L291.61 318.88z" stroke="#FFFFFF" stroke-width="1.07" fill="#F4D03E" fill-rule="nonzero" /><path id="86" transform="matrix(1 0 0 -1 0 612)" d="M291.61 319.77L356.82 319.77L356.82 319.77L356.82 327.82L356.82 327.82L291.61 327.82z" stroke="#FFFFFF" stroke-width="1.07" fill="#F4D03E" fill-rule="nonzero" /><path id="87" transform="matrix(1 0 0 -1 0 612)" d="M291.61 328.71L356.82 328.71L356.82 328.71L356.82 336.76L356.82 336.76L291.61 336.76z" stroke="#FFFFFF" stroke-width="1.07" fill="#F4D03E" fill-rule="nonzero" /><path id="88" transform="matrix(1 0 0 -1 0 612)" d="M291.61 275.05L348.67 275.05L348.67 275.05L348.67 283.1L348.67 283.1L291.61 283.1z" stroke="#FFFFFF" stroke-width="1.07" fill="#F4D03E" fill-rule="nonzero" /><path id="89" transform="matrix(1 0 0 -1 0 612)" d="M291.61 284L348.67 284L348.67 284L348.67 292.05L348.67 292.05L291.61 292.05z" stroke="#FFFFFF" stroke-width="1.07" fill="#F4D03E" fill-rule="nonzero" /><path id="90" transform="matrix(1 0 0 -1 0 612)" d="M291.61 292.94L348.67 292.94L348.67 292.94L348.67 300.99L348.67 300.99L291.61 300.99z" stroke="#FFFFFF" stroke-width="1.07" fill="#F4D03E" fill-rule="nonzero" /><path id="91" transform="matrix(1 0 0 -1 0 612)" d="M291.61 149.85L340.52 149.85L340.52 149.85L340.52 157.9L340.52 157.9L291.61 157.9z" stroke="#FFFFFF" stroke-width="1.07" fill="#F4D03E" fill-rule="nonzero" /><path id="92" transform="matrix(1 0 0 -1 0 612)" d="M291.61 158.8L340.52 158.8L340.52 158.8L340.52 166.85L340.52 166.85L291.61 166.85z" stroke="#FFFFFF" stroke-width="1.07" fill="#F4D03E" fill-rule="nonzero" /><path id="93" transform="matrix(1 0 0 -1 0 612)" d="M291.61 167.74L340.52 167.74L340.52 167.74L340.52 175.79L340.52 175.79L291.61 175.79z" stroke="#FFFFFF" stroke-width="1.07" fill="#F4D03E" fill-rule="nonzero" /><path id="94" transform="matrix(1 0 0 -1 0 612)" d="M291.61 176.68L340.52 176.68L340.52 176.68L340.52 184.73L340.52 184.73L291.61 184.73z" stroke="#FFFFFF" stroke-width="1.07" fill="#F4D03E" fill-rule="nonzero" /><path id="95" transform="matrix(1 0 0 -1 0 612)" d="M291.61 185.62L340.52 185.62L340.52 185.62L340.52 193.67L340.52 193.67L291.61 193.67z" stroke="#FFFFFF" stroke-width="1.07" fill="#F4D03E" fill-rule="nonzero" /><path id="96" transform="matrix(1 0 0 -1 0 612)" d="M291.61 194.57L340.52 194.57L340.52 194.57L340.52 202.62L340.52 202.62L291.61 202.62z" stroke="#FFFFFF" stroke-width="1.07" fill="#F4D03E" fill-rule="nonzero" /><path id="97" transform="matrix(1 0 0 -1 0 612)" d="M291.61 203.51L340.52 203.51L340.52 203.51L340.52 211.56L340.52 211.56L291.61 211.56z" stroke="#FFFFFF" stroke-width="1.07" fill="#F4D03E" fill-rule="nonzero" /><path id="98" transform="matrix(1 0 0 -1 0 612)" d="M291.61 212.45L340.52 212.45L340.52 212.45L340.52 220.5L340.52 220.5L291.61 220.5z" stroke="#FFFFFF" stroke-width="1.07" fill="#F4D03E" fill-rule="nonzero" /><path id="99" transform="matrix(1 0 0 -1 0 612)" d="M291.61 221.4L340.52 221.4L340.52 221.4L340.52 229.45L340.52 229.45L291.61 229.45z" stroke="#FFFFFF" stroke-width="1.07" fill="#F4D03E" fill-rule="nonzero" /><path id="100" transform="matrix(1 0 0 -1 0 612)" d="M291.61 230.34L340.52 230.34L340.52 230.34L340.52 238.39L340.52 238.39L291.61 238.39z" stroke="#FFFFFF" stroke-width="1.07" fill="#F4D03E" fill-rule="nonzero" /><path id="101" transform="matrix(1 0 0 -1 0 612)" d="M291.61 239.28L340.52 239.28L340.52 239.28L340.52 247.33L340.52 247.33L291.61 247.33z" stroke="#FFFFFF" stroke-width="1.07" fill="#F4D03E" fill-rule="nonzero" /><path id="102" transform="matrix(1 0 0 -1 0 612)" d="M291.61 248.23L340.52 248.23L340.52 248.23L340.52 256.28L340.52 256.28L291.61 256.28z" stroke="#FFFFFF" stroke-width="1.07" fill="#F4D03E" fill-rule="nonzero" /><path id="103" transform="matrix(1 0 0 -1 0 612)" d="M291.61 257.17L340.52 257.17L340.52 257.17L340.52 265.22L340.52 265.22L291.61 265.22z" stroke="#FFFFFF" stroke-width="1.07" fill="#F4D03E" fill-rule="nonzero" /><path id="104" transform="matrix(1 0 0 -1 0 612)" d="M291.61 266.11L340.52 266.11L340.52 266.11L340.52 274.16L340.52 274.16L291.61 274.16z" stroke="#FFFFFF" stroke-width="1.07" fill="#F4D03E" fill-rule="nonzero" /><path id="105" transform="matrix(1 0 0 -1 0 612)" d="M291.61 87.25L332.37 87.25L332.37 87.25L332.37 95.3L332.37 95.3L291.61 95.3z" stroke="#FFFFFF" stroke-width="1.07" fill="#F4D03E" fill-rule="nonzero" /><path id="106" transform="matrix(1 0 0 -1 0 612)" d="M291.61 96.2L332.37 96.2L332.37 96.2L332.37 104.25L332.37 104.25L291.61 104.25z" stroke="#FFFFFF" stroke-width="1.07" fill="#F4D03E" fill-rule="nonzero" /><path id="107" transform="matrix(1 0 0 -1 0 612)" d="M291.61 105.14L332.37 105.14L332.37 105.14L332.37 113.19L332.37 113.19L291.61 113.19z" stroke="#FFFFFF" stroke-width="1.07" fill="#F4D03E" fill-rule="nonzero" /><path id="108" transform="matrix(1 0 0 -1 0 612)" d="M291.61 114.08L332.37 114.08L332.37 114.08L332.37 122.13L332.37 122.13L291.61 122.13z" stroke="#FFFFFF" stroke-width="1.07" fill="#F4D03E" fill-rule="nonzero" /><path id="109" transform="matrix(1 0 0 -1 0 612)" d="M291.61 123.02L332.37 123.02L332.37 123.02L332.37 131.07L332.37 131.07L291.61 131.07z" stroke="#FFFFFF" stroke-width="1.07" fill="#F4D03E" fill-rule="nonzero" /><path id="110" transform="matrix(1 0 0 -1 0 612)" d="M291.61 131.97L332.37 131.97L332.37 131.97L332.37 140.02L332.37 140.02L291.61 140.02z" stroke="#FFFFFF" stroke-width="1.07" fill="#F4D03E" fill-rule="nonzero" /><path id="111" transform="matrix(1 0 0 -1 0 612)" d="M291.61 140.91L332.37 140.91L332.37 140.91L332.37 148.96L332.37 148.96L291.61 148.96z" stroke="#FFFFFF" stroke-width="1.07" fill="#F4D03E" fill-rule="nonzero" /><path id="281" transform="matrix(1 0 0 -1 0 612)" d="M274.9 85.91L642.52 85.91L642.52 85.91L642.52 534.85L642.52 534.85L274.9 534.85z" stroke="#323232" stroke-width="1.07" stroke-linecap="round" fill="none" /></g><g clip-path="url(#15)"></g><g clip-path="url(#16)"></g><g clip-path="url(#17)"></g><g clip-path="url(#18)"></g><g clip-path="url(#19)"></g><g clip-path="url(#20)"></g><g clip-path="url(#21)"></g><g clip-path="url(#22)"></g><g clip-path="url(#23)"></g><g clip-path="url(#24)"></g><g clip-path="url(#25)"></g><g clip-path="url(#26)"></g><g clip-path="url(#27)"></g><g clip-path="url(#28)"></g><g clip-path="url(#29)"></g><g clip-path="url(#30)"></g><g clip-path="url(#31)"></g><g clip-path="url(#32)"><path id="1064" transform="matrix(1 0 0 -1 0 612)" d="M272.16 91.28L274.9 91.28" stroke="#323232" stroke-width="1.07" fill="none" /><path id="1065" transform="matrix(1 0 0 -1 0 612)" d="M272.16 100.22L274.9 100.22" stroke="#323232" stroke-width="1.07" fill="none" /><path id="1066" transform="matrix(1 0 0 -1 0 612)" d="M272.16 109.16L274.9 109.16" stroke="#323232" stroke-width="1.07" fill="none" /><path id="1067" transform="matrix(1 0 0 -1 0 612)" d="M272.16 118.11L274.9 118.11" stroke="#323232" stroke-width="1.07" fill="none" /><path id="1068" transform="matrix(1 0 0 -1 0 612)" d="M272.16 127.05L274.9 127.05" stroke="#323232" stroke-width="1.07" fill="none" /><path id="1069" transform="matrix(1 0 0 -1 0 612)" d="M272.16 135.99L274.9 135.99" stroke="#323232" stroke-width="1.07" fill="none" /><path id="1070" transform="matrix(1 0 0 -1 0 612)" d="M272.16 144.93L274.9 144.93" stroke="#323232" stroke-width="1.07" fill="none" /><path id="1071" transform="matrix(1 0 0 -1 0 612)" d="M272.16 153.88L274.9 153.88" stroke="#323232" stroke-width="1.07" fill="none" /><path id="1072" transform="matrix(1 0 0 -1 0 612)" d="M272.16 162.82L274.9 162.82" stroke="#323232" stroke-width="1.07" fill="none" /><path id="1073" transform="matrix(1 0 0 -1 0 612)" d="M272.16 171.76L274.9 171.76" stroke="#323232" stroke-width="1.07" fill="none" /><path id="1074" transform="matrix(1 0 0 -1 0 612)" d="M272.16 180.71L274.9 180.71" stroke="#323232" stroke-width="1.07" fill="none" /><path id="1075" transform="matrix(1 0 0 -1 0 612)" d="M272.16 189.65L274.9 189.65" stroke="#323232" stroke-width="1.07" fill="none" /><path id="1076" transform="matrix(1 0 0 -1 0 612)" d="M272.16 198.59L274.9 198.59" stroke="#323232" stroke-width="1.07" fill="none" /><path id="1077" transform="matrix(1 0 0 -1 0 612)" d="M272.16 207.53L274.9 207.53" stroke="#323232" stroke-width="1.07" fill="none" /><path id="1078" transform="matrix(1 0 0 -1 0 612)" d="M272.16 216.48L274.9 216.48" stroke="#323232" stroke-width="1.07" fill="none" /><path id="1079" transform="matrix(1 0 0 -1 0 612)" d="M272.16 225.42L274.9 225.42" stroke="#323232" stroke-width="1.07" fill="none" /><path id="1080" transform="matrix(1 0 0 -1 0 612)" d="M272.16 234.36L274.9 234.36" stroke="#323232" stroke-width="1.07" fill="none" /><path id="1081" transform="matrix(1 0 0 -1 0 612)" d="M272.16 243.31L274.9 243.31" stroke="#323232" stroke-width="1.07" fill="none" /><path id="1082" transform="matrix(1 0 0 -1 0 612)" d="M272.16 252.25L274.9 252.25" stroke="#323232" stroke-width="1.07" fill="none" /><path id="1083" transform="matrix(1 0 0 -1 0 612)" d="M272.16 261.19L274.9 261.19" stroke="#323232" stroke-width="1.07" fill="none" /><path id="1084" transform="matrix(1 0 0 -1 0 612)" d="M272.16 270.14L274.9 270.14" stroke="#323232" stroke-width="1.07" fill="none" /><path id="1085" transform="matrix(1 0 0 -1 0 612)" d="M272.16 279.08L274.9 279.08" stroke="#323232" stroke-width="1.07" fill="none" /><path id="1086" transform="matrix(1 0 0 -1 0 612)" d="M272.16 288.02L274.9 288.02" stroke="#323232" stroke-width="1.07" fill="none" /><path id="1087" transform="matrix(1 0 0 -1 0 612)" d="M272.16 296.96L274.9 296.96" stroke="#323232" stroke-width="1.07" fill="none" /><path id="1088" transform="matrix(1 0 0 -1 0 612)" d="M272.16 305.91L274.9 305.91" stroke="#323232" stroke-width="1.07" fill="none" /><path id="1089" transform="matrix(1 0 0 -1 0 612)" d="M272.16 314.85L274.9 314.85" stroke="#323232" stroke-width="1.07" fill="none" /><path id="1090" transform="matrix(1 0 0 -1 0 612)" d="M272.16 323.79L274.9 323.79" stroke="#323232" stroke-width="1.07" fill="none" /><path id="1091" transform="matrix(1 0 0 -1 0 612)" d="M272.16 332.74L274.9 332.74" stroke="#323232" stroke-width="1.07" fill="none" /><path id="1092" transform="matrix(1 0 0 -1 0 612)" d="M272.16 341.68L274.9 341.68" stroke="#323232" stroke-width="1.07" fill="none" /><path id="1093" transform="matrix(1 0 0 -1 0 612)" d="M272.16 350.62L274.9 350.62" stroke="#323232" stroke-width="1.07" fill="none" /><path id="1094" transform="matrix(1 0 0 -1 0 612)" d="M272.16 359.57L274.9 359.57" stroke="#323232" stroke-width="1.07" fill="none" /><path id="1095" transform="matrix(1 0 0 -1 0 612)" d="M272.16 368.51L274.9 368.51" stroke="#323232" stroke-width="1.07" fill="none" /><path id="1096" transform="matrix(1 0 0 -1 0 612)" d="M272.16 377.45L274.9 377.45" stroke="#323232" stroke-width="1.07" fill="none" /><path id="1097" transform="matrix(1 0 0 -1 0 612)" d="M272.16 386.39L274.9 386.39" stroke="#323232" stroke-width="1.07" fill="none" /><path id="1098" transform="matrix(1 0 0 -1 0 612)" d="M272.16 395.34L274.9 395.34" stroke="#323232" stroke-width="1.07" fill="none" /><path id="1099" transform="matrix(1 0 0 -1 0 612)" d="M272.16 404.28L274.9 404.28" stroke="#323232" stroke-width="1.07" fill="none" /><path id="1100" transform="matrix(1 0 0 -1 0 612)" d="M272.16 413.22L274.9 413.22" stroke="#323232" stroke-width="1.07" fill="none" /><path id="1101" transform="matrix(1 0 0 -1 0 612)" d="M272.16 422.17L274.9 422.17" stroke="#323232" stroke-width="1.07" fill="none" /><path id="1102" transform="matrix(1 0 0 -1 0 612)" d="M272.16 431.11L274.9 431.11" stroke="#323232" stroke-width="1.07" fill="none" /><path id="1103" transform="matrix(1 0 0 -1 0 612)" d="M272.16 440.05L274.9 440.05" stroke="#323232" stroke-width="1.07" fill="none" /><path id="1104" transform="matrix(1 0 0 -1 0 612)" d="M272.16 448.99L274.9 448.99" stroke="#323232" stroke-width="1.07" fill="none" /><path id="1105" transform="matrix(1 0 0 -1 0 612)" d="M272.16 457.94L274.9 457.94" stroke="#323232" stroke-width="1.07" fill="none" /><path id="1106" transform="matrix(1 0 0 -1 0 612)" d="M272.16 466.88L274.9 466.88" stroke="#323232" stroke-width="1.07" fill="none" /><path id="1107" transform="matrix(1 0 0 -1 0 612)" d="M272.16 475.82L274.9 475.82" stroke="#323232" stroke-width="1.07" fill="none" /><path id="1108" transform="matrix(1 0 0 -1 0 612)" d="M272.16 484.77L274.9 484.77" stroke="#323232" stroke-width="1.07" fill="none" /><path id="1109" transform="matrix(1 0 0 -1 0 612)" d="M272.16 493.71L274.9 493.71" stroke="#323232" stroke-width="1.07" fill="none" /><path id="1110" transform="matrix(1 0 0 -1 0 612)" d="M272.16 502.65L274.9 502.65" stroke="#323232" stroke-width="1.07" fill="none" /><path id="1111" transform="matrix(1 0 0 -1 0 612)" d="M272.16 511.6L274.9 511.6" stroke="#323232" stroke-width="1.07" fill="none" /><path id="1112" transform="matrix(1 0 0 -1 0 612)" d="M272.16 520.54L274.9 520.54" stroke="#323232" stroke-width="1.07" fill="none" /><path id="1113" transform="matrix(1 0 0 -1 0 612)" d="M272.16 529.48L274.9 529.48" stroke="#323232" stroke-width="1.07" fill="none" /></g><g clip-path="url(#33)"></g><g clip-path="url(#34)"></g><g clip-path="url(#35)"></g><g clip-path="url(#36)"></g><g clip-path="url(#37)"></g><g clip-path="url(#38)"></g><g clip-path="url(#39)"></g><g clip-path="url(#40)"></g><g clip-path="url(#41)"></g><g clip-path="url(#42)"><path id="1114" transform="matrix(1 0 0 -1 0 612)" d="M291.61 83.17L291.61 85.91" stroke="#323232" stroke-width="1.07" fill="none" /><path id="1115" transform="matrix(1 0 0 -1 0 612)" d="M373.12 83.17L373.12 85.91" stroke="#323232" stroke-width="1.07" fill="none" /><path id="1116" transform="matrix(1 0 0 -1 0 612)" d="M454.64 83.17L454.64 85.91" stroke="#323232" stroke-width="1.07" fill="none" /><path id="1117" transform="matrix(1 0 0 -1 0 612)" d="M536.15 83.17L536.15 85.91" stroke="#323232" stroke-width="1.07" fill="none" /><path id="1118" transform="matrix(1 0 0 -1 0 612)" d="M617.66 83.17L617.66 85.91" stroke="#323232" stroke-width="1.07" fill="none" /></g><g clip-path="url(#43)"></g><g clip-path="url(#44)"></g><g clip-path="url(#45)"></g><g clip-path="url(#46)"></g><g clip-path="url(#47)"></g><g clip-path="url(#48)"></g><g clip-path="url(#49)"></g><g clip-path="url(#50)"></g><g clip-path="url(#51)"></g><g clip-path="url(#52)"><path id="1133" transform="matrix(1 0 0 -1 0 612)" d="M157.38 293.8257L149.506 293.8257L149.506 293.8257L149.506 296.7798C 149.506 297.3813 149.5856 297.8638 149.745 298.2273C 149.9043 298.5907 150.1496 298.8754 150.4808 299.0813C 150.8121 299.2872 151.1585 299.3901 151.5201 299.3901C 152.1933 299.3901 152.8253 299.0267 153.1906 298.289C 153.4698 299.2415 154.1806 299.7715 155.0973 299.7715C 155.4661 299.7715 155.809 299.6936 156.1259 299.5378C 156.4427 299.382 156.6871 299.1896 156.859 298.9604C 157.0309 298.7313 157.1607 298.4439 157.2484 298.0984C 157.3361 297.7528 157.38 297.3294 157.38 296.8281zM152.8146 294.8676L152.8146 296.5703C 152.8146 297.0322 152.7841 297.3634 152.7233 297.5639C 152.5657 298.0939 152.1951 298.3642 151.6437 298.3642C 151.3823 298.3642 151.1522 298.3016 150.9535 298.1762C 150.7548 298.0509 150.6187 297.8719 150.5453 297.6391C 150.4719 297.4064 150.4352 297.0071 150.4352 296.4414L150.4352 296.4414L150.4352 294.8676zM156.4508 294.8676L156.4508 296.8281C 156.4508 297.1647 156.4383 297.401 156.4132 297.5371C 156.3702 297.777 156.2986 297.9775 156.1984 298.1386C 156.0981 298.2998 155.9522 298.4323 155.7606 298.5361C 155.569 298.64 155.3479 298.6919 155.0973 298.6919C 154.8037 298.6919 154.5485 298.6167 154.3319 298.4663C 154.1153 298.3159 153.9631 298.1073 153.8754 297.8405C 153.7876 297.5738 153.7438 297.1898 153.7438 296.6884L153.7438 296.6884L153.7438 294.8676z" stroke="none" fill="#000000" fill-rule="evenodd" /><path id="1134" transform="matrix(1 0 0 -1 0 612)" d="M150.6178 301.0875L149.506 301.0875L149.506 301.0875L149.506 302.0543L149.506 302.0543L150.6178 302.0543zM157.38 301.0875L151.6759 301.0875L151.6759 301.0875L151.6759 302.0543L151.6759 302.0543L157.38 302.0543z" stroke="none" fill="#000000" fill-rule="evenodd" /><path id="1135" transform="matrix(1 0 0 -1 0 612)" d="M157.8527 303.3468L157.9923 304.2868C 158.2823 304.3262 158.4936 304.4354 158.6261 304.6144C 158.8051 304.8543 158.8947 305.182 158.8947 305.5973C 158.8947 306.4925 158.5187 306.9562 157.8741 307.1281C 157.6772 307.1782 157.2636 307.2015 156.6334 307.1979C 157.1311 306.7754 157.38 306.249 157.38 305.6188C 157.38 304.0504 156.0784 303.1535 154.4957 303.1535C 153.9515 303.1535 153.4493 303.252 152.9891 303.4489C 152.529 303.6458 152.1736 303.9314 151.923 304.3056C 151.6723 304.6798 151.547 305.1193 151.547 305.6242C 151.547 306.2974 151.8191 306.8524 152.3634 307.2892L152.3634 307.2892L151.6759 307.2892L151.6759 307.2892L151.6759 308.1808L151.6759 308.1808L156.6066 308.1808C 157.4946 308.1808 158.1239 308.0904 158.4945 307.9096C 158.8651 307.7288 159.1578 307.4423 159.3727 307.0502C 159.5875 306.6581 159.6949 306.1756 159.6949 305.6027C 159.6949 304.242 159.0844 303.3182 157.8527 303.3468zM154.4259 304.1471C 155.9227 304.1471 156.5797 304.8149 156.5797 305.7101C 156.5797 306.5981 155.9191 307.2785 154.4581 307.2785C 153.0616 307.2785 152.3473 306.5677 152.3473 305.694C 152.3473 304.8346 153.0509 304.1471 154.4259 304.1471z" stroke="none" fill="#000000" fill-rule="evenodd" /><path id="1136" transform="matrix(1 0 0 -1 0 612)" d="M157.38 309.6293L151.6759 309.6293L151.6759 309.6293L151.6759 310.4995L151.6759 310.4995L152.5406 310.4995C 151.7314 310.9435 151.547 311.2836 151.547 311.7348C 151.547 312.0607 151.6508 312.3919 151.8585 312.7285L151.8585 312.7285L152.7555 312.3954C 152.6158 312.1591 152.546 311.9228 152.546 311.6865C 152.546 311.2639 152.8146 310.9005 153.2657 310.7573C 153.6095 310.6498 153.9855 310.5961 154.3937 310.5961L154.3937 310.5961L157.38 310.5961z" stroke="none" fill="#000000" fill-rule="evenodd" /><path id="1137" transform="matrix(1 0 0 -1 0 612)" d="M156.6764 316.9153C 157.2851 316.1991 157.5089 315.5743 157.5089 314.8152C 157.5089 313.5619 156.8286 312.8654 155.8761 312.8654C 155.5968 312.8654 155.3417 312.929 155.1107 313.0561C 154.8798 313.1832 154.6945 313.3497 154.5548 313.5556C 154.4152 313.7615 154.3095 313.9934 154.2379 314.2512C 154.1878 314.441 154.1395 314.7274 154.0929 315.1106C 153.9998 315.8912 153.8888 316.4659 153.7599 316.8347C 153.6274 316.8383 153.5433 316.8401 153.5074 316.8401C 153.1136 316.8401 152.8361 316.7487 152.6749 316.5661C 152.4565 316.3191 152.3473 315.952 152.3473 315.4651C 152.3473 314.5555 152.623 314.1849 153.4323 313.9773L153.4323 313.9773L153.3033 313.032C 152.8987 313.1179 152.572 313.2593 152.3231 313.4563C 152.0743 313.6532 151.8827 313.9379 151.7484 314.3103C 151.6141 314.6827 151.547 315.1141 151.547 315.6047C 151.547 316.0917 151.6043 316.4874 151.7189 316.7917C 151.8335 317.0961 151.9776 317.3199 152.1512 317.4631C 152.3249 317.6063 152.5442 317.7066 152.8092 317.7639C 152.9739 317.7961 153.2711 317.8122 153.7008 317.8122L153.7008 317.8122L154.9899 317.8122C 156.7874 317.8122 156.9432 317.8749 157.38 318.1184L157.38 318.1184L157.38 317.1086C 157.1795 317.0084 156.9449 316.9439 156.6764 316.9153zM154.5172 316.8347C 154.6604 316.4838 154.7822 315.9574 154.8824 315.2556C 154.9397 314.8581 155.0042 314.577 155.0758 314.4123C 155.1474 314.2476 155.2522 314.1205 155.39 314.031C 155.5279 313.9415 155.681 313.8967 155.8492 313.8967C 156.3649 313.8967 156.7516 314.2942 156.7516 315.0461C 156.7516 315.7909 156.4043 316.4068 155.8385 316.6789C 155.6201 316.7828 155.2978 316.8347 154.8717 316.8347z" stroke="none" fill="#000000" fill-rule="evenodd" /><path id="1138" transform="matrix(1 0 0 -1 0 612)" d="M157.38 319.3091L151.6759 319.3091L151.6759 319.3091L151.6759 320.1738L151.6759 320.1738L152.4762 320.1738C 151.9176 320.5319 151.547 321.1442 151.547 321.9033C 151.547 322.7484 151.9158 323.2926 152.546 323.5146C 151.88 323.9658 151.547 324.5531 151.547 325.2764C 151.547 326.4079 152.1611 327.0381 153.4645 327.0381L153.4645 327.0381L157.38 327.0381L157.38 327.0381L157.38 326.0767L157.38 326.0767L153.7867 326.0767C 153.4 326.0767 153.1216 326.0453 152.9515 325.9827C 152.7814 325.92 152.6445 325.8063 152.5406 325.6416C 152.4368 325.4769 152.3849 325.2835 152.3849 325.0615C 152.3849 324.2594 152.8916 323.665 154.066 323.665L154.066 323.665L157.38 323.665L157.38 323.665L157.38 322.6982L157.38 322.6982L153.674 322.6982C 152.8146 322.6982 152.3849 322.4046 152.3849 321.6885C 152.3849 321.4164 152.4565 321.1648 152.5997 320.9338C 152.743 320.7029 152.9524 320.5355 153.2281 320.4316C 153.5039 320.3278 153.9013 320.2759 154.4205 320.2759L154.4205 320.2759L157.38 320.2759z" stroke="none" fill="#000000" fill-rule="evenodd" /></g><g clip-path="url(#53)"></g><g clip-path="url(#54)"></g><g clip-path="url(#55)"></g><g clip-path="url(#56)"></g><g clip-path="url(#57)"></g><g clip-path="url(#58)"></g><g clip-path="url(#59)"></g><g clip-path="url(#60)"></g><g clip-path="url(#61)"></g><g clip-path="url(#62)"></g><g clip-path="url(#63)"></g><g clip-path="url(#64)"></g></g></g></svg>