<svg xmlns="http://www.w3.org/2000/svg" xmlns:xlink="http://www.w3.org/1999/xlink" id="body_7" preserveAspectRatio="xMinYMin meet" viewBox="0 0 1056 816"><defs><clipPath id="1"><path id="" clip-rule="evenodd" transform="matrix(1 0 0 1 0 0)" d="M0 612L0 0L0 0L792 0L792 0L792 612L792 612L0 612z" /></clipPath><clipPath id="2"><path id="" clip-rule="evenodd" transform="matrix(1 0 0 1 0 0)" d="M144 558L648 558L648 558L648 54L648 54L144 54z" /></clipPath><clipPath id="3"><path id="" clip-rule="evenodd" transform="matrix(1 0 0 1 0 0)" d="M144 558L648 558L648 558L648 54L648 54L144 54z" /></clipPath><clipPath id="4"><path id="" clip-rule="evenodd" transform="matrix(1 0 0 1 0 0)" d="M144 558L648 558L648 558L648 54L648 54L144 54z" /></clipPath><clipPath id="5"><path id="" clip-rule="evenodd" transform="matrix(1 0 0 1 0 0)" d="M144 558L648 558L648 558L648 54L648 54L144 54z" /></clipPath><clipPath id="6"><path id="" clip-rule="evenodd" transform="matrix(1 0 0 1 0 0)" d="M144 558L648 558L648 558L648 54L648 54L144 54z" /></clipPath><clipPath id="7"><path id="" clip-rule="evenodd" transform="matrix(1 0 0 1 0 0)" d="M144 558L648 558L648 558L648 54L648 54L144 54z" /></clipPath><clipPath id="8"><path id="" clip-rule="evenodd" transform="matrix(1 0 0 1 0 0)" d="M144 558L648 558L648 558L648 54L648 54L144 54z" /></clipPath><clipPath id="9"><path id="" clip-rule="evenodd" transform="matrix(1 0 0 1 0 0)" d="M144 558L648 558L648 558L648 54L648 54L144 54z" /></clipPath><clipPath id="10"><path id="" clip-rule="evenodd" transform="matrix(1 0 0 1 0 0)" d="M144 558L648 558L648 558L648 54L648 54L144 54z" /></clipPath><clipPath id="11"><path id="" clip-rule="evenodd" transform="matrix(1 0 0 1 0 0)" d="M144 558L648 558L648 558L648 54L648 54L144 54z" /></clipPath><clipPath id="12"><path id="" clip-rule="evenodd" transform="matrix(1 0 0 1 0 0)" d="M144 558L648 558L648 558L648 54L648 54L144 54z" /></clipPath><clipPath id="13"><path id="" clip-rule="evenodd" transform="matrix(1 0 0 1 0 0)" d="M144 558L648 558L648 558L648 54L648 54L144 54z" /></clipPath><clipPath id="14"><path id="" clip-rule="evenodd" transform="matrix(1 0 0 1 0 0)" d="M144 558L648 558L648 558L648 54L648 54L144 54z" /></clipPath><clipPath id="15"><path id="" clip-rule="evenodd" transform="matrix(1 0 0 1 0 0)" d="M144 558L648 558L648 558L648 54L648 54L144 54z" /></clipPath><clipPath id="16"><path id="" clip-rule="evenodd" transform="matrix(1 0 0 1 0 0)" d="M144 558L648 558L648 558L648 54L648 54L144 54z" /></clipPath><clipPath id="17"><path id="" clip-rule="evenodd" transform="matrix(1 0 0 1 0 0)" d="M144 558L648 558L648 558L648 54L648 54L144 54z" /></clipPath><clipPath id="18"><path id="" clip-rule="evenodd" transform="matrix(1 0 0 1 0 0)" d="M144 558L648 558L648 558L648 54L648 54L144 54z" /></clipPath><clipPath id="19"><path id="" clip-rule="evenodd" transform="matrix(1 0 0 1 0 0)" d="M213.43 283.36L393.26 283.36L393.26 283.36L393.26 76.69L393.26 76.69L213.43 76.69z" /></clipPath><clipPath id="20"><path id="" clip-rule="evenodd" transform="matrix(1 0 0 1 0 0)" d="M144 558L648 558L648 558L648 54L648 54L144 54z" /></clipPath><clipPath id="21"><path id="" clip-rule="evenodd" transform="matrix(1 0 0 1 0 0)" d="M213.43 526.09L393.26 526.09L393.26 526.09L393.26 319.42L393.26 319.42L213.43 319.42z" /></clipPath><clipPath id="22"><path id="" clip-rule="evenodd" transform="matrix(1 0 0 1 0 0)" d="M144 558L648 558L648 558L648 54L648 54L144 54z" /></clipPath><clipPath id="23"><path id="" clip-rule="evenodd" transform="matrix(1 0 0 1 0 0)" d="M462.69 283.36L642.52 283.36L642.52 283.36L642.52 76.69L642.52 76.69L462.69 76.69z" /></clipPath><clipPath id="24"><path id="" clip-rule="evenodd" transform="matrix(1 0 0 1 0 0)" d="M144 558L648 558L648 558L648 54L648 54L144 54z" /></clipPath><clipPath id="25"><path id="" clip-rule="evenodd" transform="matrix(1 0 0 1 0 0)" d="M462.69 526.09L642.52 526.09L642.52 526.09L642.52 319.42L642.52 319.42L462.69 319.42z" /></clipPath><clipPath id="26"><path id="" clip-rule="evenodd" transform="matrix(1 0 0 1 0 0)" d="M144 558L648 558L648 558L648 54L648 54L144 54z" /></clipPath><clipPath id="27"><path id="" clip-rule="evenodd" transform="matrix(1 0 0 1 0 0)" d="M213.43 319.42L393.26 319.42L393.26 319.42L393.26 302.21L393.26 302.21L213.43 302.21z" /></clipPath><clipPath id="28"><path id="" clip-rule="evenodd" transform="matrix(1 0 0 1 0 0)" d="M213.43 319.42L393.26 319.42L393.26 319.42L393.26 302.21L393.26 302.21L213.43 302.21z" /></clipPath><clipPath id="29"><path id="" clip-rule="evenodd" transform="matrix(1 0 0 1 0 0)" d="M213.43 319.42L393.26 319.42L393.26 319.42L393.26 302.21L393.26 302.21L213.43 302.21z" /></clipPath><clipPath id="30"><path id="" clip-rule="evenodd" transform="matrix(1 0 0 1 0 0)" d="M213.43 319.42L393.26 319.42L393.26 319.42L393.26 302.21L393.26 302.21L213.43 302.21z" /></clipPath><clipPath id="31"><path id="" clip-rule="evenodd" transform="matrix(1 0 0 1 0 0)" d="M144 558L648 558L648 558L648 54L648 54L144 54z" /></clipPath><clipPath id="32"><path id="" clip-rule="evenodd" transform="matrix(1 0 0 1 0 0)" d="M462.69 319.42L642.52 319.42L642.52 319.42L642.52 302.21L642.52 302.21L462.69 302.21z" /></clipPath><clipPath id="33"><path id="" clip-rule="evenodd" transform="matrix(1 0 0 1 0 0)" d="M462.69 319.42L642.52 319.42L642.52 319.42L642.52 302.21L642.52 302.21L462.69 302.21z" /></clipPath><clipPath id="34"><path id="" clip-rule="evenodd" transform="matrix(1 0 0 1 0 0)" d="M462.69 319.42L642.52 319.42L642.52 319.42L642.52 302.21L642.52 302.21L462.69 302.21z" /></clipPath><clipPath id="35"><path id="" clip-rule="evenodd" transform="matrix(1 0 0 1 0 0)" d="M462.69 319.42L642.52 319.42L642.52 319.42L642.52 302.21L642.52 302.21L462.69 302.21z" /></clipPath><clipPath id="36"><path id="" clip-rule="evenodd" transform="matrix(1 0 0 1 0 0)" d="M144 558L648 558L648 558L648 54L648 54L144 54z" /></clipPath><clipPath id="37"><path id="" clip-rule="evenodd" transform="matrix(1 0 0 1 0 0)" d="M213.43 76.69L393.26 76.69L393.26 76.69L393.26 59.47998L393.26 59.47998L213.43 59.47998z" /></clipPath><clipPath id="38"><path id="" clip-rule="evenodd" transform="matrix(1 0 0 1 0 0)" d="M213.43 76.69L393.26 76.69L393.26 76.69L393.26 59.47998L393.26 59.47998L213.43 59.47998z" /></clipPath><clipPath id="39"><path id="" clip-rule="evenodd" transform="matrix(1 0 0 1 0 0)" d="M213.43 76.69L393.26 76.69L393.26 76.69L393.26 59.47998L393.26 59.47998L213.43 59.47998z" /></clipPath><clipPath id="40"><path id="" clip-rule="evenodd" transform="matrix(1 0 0 1 0 0)" d="M213.43 76.69L393.26 76.69L393.26 76.69L393.26 59.47998L393.26 59.47998L213.43 59.47998z" /></clipPath><clipPath id="41"><path id="" clip-rule="evenodd" transform="matrix(1 0 0 1 0 0)" d="M144 558L648 558L648 558L648 54L648 54L144 54z" /></clipPath><clipPath id="42"><path id="" clip-rule="evenodd" transform="matrix(1 0 0 1 0 0)" d="M462.69 76.69L642.52 76.69L642.52 76.69L642.52 59.47998L642.52 59.47998L462.69 59.47998z" /></clipPath><clipPath id="43"><path id="" clip-rule="evenodd" transform="matrix(1 0 0 1 0 0)" d="M462.69 76.69L642.52 76.69L642.52 76.69L642.52 59.47998L642.52 59.47998L462.69 59.47998z" /></clipPath><clipPath id="44"><path id="" clip-rule="evenodd" transform="matrix(1 0 0 1 0 0)" d="M462.69 76.69L642.52 76.69L642.52 76.69L642.52 59.47998L642.52 59.47998L462.69 59.47998z" /></clipPath><clipPath id="45"><path id="" clip-rule="evenodd" transform="matrix(1 0 0 1 0 0)" d="M462.69 76.69L642.52 76.69L642.52 76.69L642.52 59.47998L642.52 59.47998L462.69 59.47998z" /></clipPath><clipPath id="46"><path id="" clip-rule="evenodd" transform="matrix(1 0 0 1 0 0)" d="M144 558L648 558L648 558L648 54L648 54L144 54z" /></clipPath><clipPath id="47"><path id="" clip-rule="evenodd" transform="matrix(1 0 0 1 0 0)" d="M144 558L648 558L648 558L648 54L648 54L144 54z" /></clipPath><clipPath id="48"><path id="" clip-rule="evenodd" transform="matrix(1 0 0 1 0 0)" d="M144 558L648 558L648 558L648 54L648 54L144 54z" /></clipPath><clipPath id="49"><path id="" clip-rule="evenodd" transform="matrix(1 0 0 1 0 0)" d="M144 558L648 558L648 558L648 54L648 54L144 54z" /></clipPath><clipPath id="50"><path id="" clip-rule="evenodd" transform="matrix(1 0 0 1 0 0)" d="M144 558L648 558L648 558L648 54L648 54L144 54z" /></clipPath><clipPath id="51"><path id="" clip-rule="evenodd" transform="matrix(1 0 0 1 0 0)" d="M144 558L648 558L648 558L648 54L648 54L144 54z" /></clipPath><clipPath id="52"><path id="" clip-rule="evenodd" transform="matrix(1 0 0 1 0 0)" d="M144 558L648 558L648 558L648 54L648 54L144 54z" /></clipPath><clipPath id="53"><path id="" clip-rule="evenodd" transform="matrix(1 0 0 1 0 0)" d="M144 558L648 558L648 558L648 54L648 54L144 54z" /></clipPath><clipPath id="54"><path id="" clip-rule="evenodd" transform="matrix(1 0 0 1 0 0)" d="M144 558L648 558L648 558L648 54L648 54L144 54z" /></clipPath><clipPath id="55"><path id="" clip-rule="evenodd" transform="matrix(1 0 0 1 0 0)" d="M144 558L648 558L648 558L648 54L648 54L144 54z" /></clipPath><clipPath id="56"><path id="" clip-rule="evenodd" transform="matrix(1 0 0 1 0 0)" d="M144 558L648 558L648 558L648 54L648 54L144 54z" /></clipPath><clipPath id="57"><path id="" clip-rule="evenodd" transform="matrix(1 0 0 1 0 0)" d="M144 558L648 558L648 558L648 54L648 54L144 54z" /></clipPath><clipPath id="58"><path id="" clip-rule="evenodd" transform="matrix(1 0 0 1 0 0)" d="M144 558L648 558L648 558L648 54L648 54L144 54z" /></clipPath><clipPath id="59"><path id="" clip-rule="evenodd" transform="matrix(1 0 0 1 0 0)" d="M144 558L648 558L648 558L648 54L648 54L144 54z" /></clipPath><clipPath id="60"><path id="" clip-rule="evenodd" transform="matrix(1 0 0 1 0 0)" d="M144 558L648 558L648 558L648 54L648 54L144 54z" /></clipPath><clipPath id="61"><path id="" clip-rule="evenodd" transform="matrix(1 0 0 1 0 0)" d="M144 558L648 558L648 558L648 54L648 54L144 54z" /></clipPath><clipPath id="62"><path id="" clip-rule="evenodd" transform="matrix(1 0 0 1 0 0)" d="M144 558L648 558L648 558L648 54L648 54L144 54z" /></clipPath><clipPath id="63"><path id="" clip-rule="evenodd" transform="matrix(1 0 0 1 0 0)" d="M144 558L648 558L648 558L648 54L648 54L144 54z" /></clipPath><clipPath id="64"><path id="" clip-rule="evenodd" transform="matrix(1 0 0 1 0 0)" d="M144 558L648 558L648 558L648 54L648 54L144 54z" /></clipPath><clipPath id="65"><path id="" clip-rule="evenodd" transform="matrix(1 0 0 1 0 0)" d="M144 558L648 558L648 558L648 54L648 54L144 54z" /></clipPath><clipPath id="66"><path id="" clip-rule="evenodd" transform="matrix(1 0 0 1 0 0)" d="M144 558L648 558L648 558L648 54L648 54L144 54z" /></clipPath><clipPath id="67"><path id="" clip-rule="evenodd" transform="matrix(1 0 0 1 0 0)" d="M144 558L648 558L648 558L648 54L648 54L144 54z" /></clipPath><clipPath id="68"><path id="" clip-rule="evenodd" transform="matrix(1 0 0 1 0 0)" d="M144 558L648 558L648 558L648 54L648 54L144 54z" /></clipPath><clipPath id="69"><path id="" clip-rule="evenodd" transform="matrix(1 0 0 1 0 0)" d="M144 558L648 558L648 558L648 54L648 54L144 54z" /></clipPath><clipPath id="70"><path id="" clip-rule="evenodd" transform="matrix(1 0 0 1 0 0)" d="M144 558L648 558L648 558L648 54L648 54L144 54z" /></clipPath><clipPath id="71"><path id="" clip-rule="evenodd" transform="matrix(1 0 0 1 0 0)" d="M144 558L648 558L648 558L648 54L648 54L144 54z" /></clipPath><clipPath id="72"><path id="" clip-rule="evenodd" transform="matrix(1 0 0 1 0 0)" d="M144 558L648 558L648 558L648 54L648 54L144 54z" /></clipPath><clipPath id="73"><path id="" clip-rule="evenodd" transform="matrix(1 0 0 1 0 0)" d="M144 558L648 558L648 558L648 54L648 54L144 54z" /></clipPath><clipPath id="74"><path id="" clip-rule="evenodd" transform="matrix(1 0 0 1 0 0)" d="M144 558L648 558L648 558L648 54L648 54L144 54z" /></clipPath><clipPath id="75"><path id="" clip-rule="evenodd" transform="matrix(1 0 0 1 0 0)" d="M144 558L648 558L648 558L648 54L648 54L144 54z" /></clipPath><clipPath id="76"><path id="" clip-rule="evenodd" transform="matrix(1 0 0 1 0 0)" d="M144 558L648 558L648 558L648 54L648 54L144 54z" /></clipPath><clipPath id="77"><path id="" clip-rule="evenodd" transform="matrix(1 0 0 1 0 0)" d="M144 558L648 558L648 558L648 54L648 54L144 54z" /></clipPath><clipPath id="78"><path id="" clip-rule="evenodd" transform="matrix(1 0 0 1 0 0)" d="M144 558L648 558L648 558L648 54L648 54L144 54z" /></clipPath><clipPath id="79"><path id="" clip-rule="evenodd" transform="matrix(1 0 0 1 0 0)" d="M144 558L648 558L648 558L648 54L648 54L144 54z" /></clipPath><clipPath id="80"><path id="" clip-rule="evenodd" transform="matrix(1 0 0 1 0 0)" d="M144 558L648 558L648 558L648 54L648 54L144 54z" /></clipPath><clipPath id="81"><path id="" clip-rule="evenodd" transform="matrix(1 0 0 1 0 0)" d="M144 558L648 558L648 558L648 54L648 54L144 54z" /></clipPath><clipPath id="82"><path id="" clip-rule="evenodd" transform="matrix(1 0 0 1 0 0)" d="M144 558L648 558L648 558L648 54L648 54L144 54z" /></clipPath><clipPath id="83"><path id="" clip-rule="evenodd" transform="matrix(1 0 0 1 0 0)" d="M144 558L648 558L648 558L648 54L648 54L144 54z" /></clipPath><clipPath id="84"><path id="" clip-rule="evenodd" transform="matrix(1 0 0 1 0 0)" d="M144 558L648 558L648 558L648 54L648 54L144 54z" /></clipPath><clipPath id="85"><path id="" clip-rule="evenodd" transform="matrix(1 0 0 1 0 0)" d="M144 558L648 558L648 558L648 54L648 54L144 54z" /></clipPath><clipPath id="86"><path id="" clip-rule="evenodd" transform="matrix(1 0 0 1 0 0)" d="M144 558L648 558L648 558L648 54L648 54L144 54z" /></clipPath><clipPath id="87"><path id="" clip-rule="evenodd" transform="matrix(1 0 0 1 0 0)" d="M144 558L648 558L648 558L648 54L648 54L144 54z" /></clipPath><clipPath id="88"><path id="" clip-rule="evenodd" transform="matrix(1 0 0 1 0 0)" d="M144 558L648 558L648 558L648 54L648 54L144 54z" /></clipPath><clipPath id="89"><path id="" clip-rule="evenodd" transform="matrix(1 0 0 1 0 0)" d="M144 558L648 558L648 558L648 54L648 54L144 54z" /></clipPath><clipPath id="90"><path id="" clip-rule="evenodd" transform="matrix(1 0 0 1 0 0)" d="M144 558L648 558L648 558L648 54L648 54L144 54z" /></clipPath><clipPath id="91"><path id="" clip-rule="evenodd" transform="matrix(1 0 0 1 0 0)" d="M144 558L648 558L648 558L648 54L648 54L144 54z" /></clipPath><clipPath id="92"><path id="" clip-rule="evenodd" transform="matrix(1 0 0 1 0 0)" d="M144 558L648 558L648 558L648 54L648 54L144 54z" /></clipPath><clipPath id="93"><path id="" clip-rule="evenodd" transform="matrix(1 0 0 1 0 0)" d="M144 558L648 558L648 558L648 54L648 54L144 54z" /></clipPath><clipPath id="94"><path id="" clip-rule="evenodd" transform="matrix(1 0 0 1 0 0)" d="M144 558L648 558L648 558L648 54L648 54L144 54z" /></clipPath><clipPath id="95"><path id="" clip-rule="evenodd" transform="matrix(1 0 0 1 0 0)" d="M144 558L648 558L648 558L648 54L648 54L144 54z" /></clipPath><clipPath id="96"><path id="" clip-rule="evenodd" transform="matrix(1 0 0 1 0 0)" d="M144 558L648 558L648 558L648 54L648 54L144 54z" /></clipPath><clipPath id="97"><path id="" clip-rule="evenodd" transform="matrix(1 0 0 1 0 0)" d="M144 558L648 558L648 558L648 54L648 54L144 54z" /></clipPath><clipPath id="98"><path id="" clip-rule="evenodd" transform="matrix(1 0 0 1 0 0)" d="M144 558L648 558L648 558L648 54L648 54L144 54z" /></clipPath><clipPath id="99"><path id="" clip-rule="evenodd" transform="matrix(1 0 0 1 0 0)" d="M144 558L648 558L648 558L648 54L648 54L144 54z" /></clipPath><clipPath id="100"><path id="" clip-rule="evenodd" transform="matrix(1 0 0 1 0 0)" d="M144 558L648 558L648 558L648 54L648 54L144 54z" /></clipPath><clipPath id="101"><path id="" clip-rule="evenodd" transform="matrix(1 0 0 1 0 0)" d="M144 558L648 558L648 558L648 54L648 54L144 54z" /></clipPath><clipPath id="102"><path id="" clip-rule="evenodd" transform="matrix(1 0 0 1 0 0)" d="M144 558L648 558L648 558L648 54L648 54L144 54z" /></clipPath><clipPath id="103"><path id="" clip-rule="evenodd" transform="matrix(1 0 0 1 0 0)" d="M144 558L648 558L648 558L648 54L648 54L144 54z" /></clipPath><clipPath id="104"><path id="" clip-rule="evenodd" transform="matrix(1 0 0 1 0 0)" d="M144 558L648 558L648 558L648 54L648 54L144 54z" /></clipPath><clipPath id="105"><path id="" clip-rule="evenodd" transform="matrix(1 0 0 1 0 0)" d="M144 558L648 558L648 558L648 54L648 54L144 54z" /></clipPath><clipPath id="106"><path id="" clip-rule="evenodd" transform="matrix(1 0 0 1 0 0)" d="M144 558L648 558L648 558L648 54L648 54L144 54z" /></clipPath><clipPath id="107"><path id="" clip-rule="evenodd" transform="matrix(1 0 0 1 0 0)" d="M144 558L648 558L648 558L648 54L648 54L144 54z" /></clipPath><clipPath id="108"><path id="" clip-rule="evenodd" transform="matrix(1 0 0 1 0 0)" d="M144 558L648 558L648 558L648 54L648 54L144 54z" /></clipPath><clipPath id="109"><path id="" clip-rule="evenodd" transform="matrix(1 0 0 1 0 0)" d="M144 558L648 558L648 558L648 54L648 54L144 54z" /></clipPath><clipPath id="110"><path id="" clip-rule="evenodd" transform="matrix(1 0 0 1 0 0)" d="M144 558L648 558L648 558L648 54L648 54L144 54z" /></clipPath><clipPath id="111"><path id="" clip-rule="evenodd" transform="matrix(1 0 0 1 0 0)" d="M144 558L648 558L648 558L648 54L648 54L144 54z" /></clipPath><clipPath id="112"><path id="" clip-rule="evenodd" transform="matrix(1 0 0 1 0 0)" d="M144 558L648 558L648 558L648 54L648 54L144 54z" /></clipPath><clipPath id="113"><path id="" clip-rule="evenodd" transform="matrix(1 0 0 1 0 0)" d="M144 558L648 558L648 558L648 54L648 54L144 54z" /></clipPath><clipPath id="114"><path id="" clip-rule="evenodd" transform="matrix(1 0 0 1 0 0)" d="M144 558L648 558L648 558L648 54L648 54L144 54z" /></clipPath><clipPath id="115"><path id="" clip-rule="evenodd" transform="matrix(1 0 0 1 0 0)" d="M144 558L648 558L648 558L648 54L648 54L144 54z" /></clipPath><clipPath id="116"><path id="" clip-rule="evenodd" transform="matrix(1 0 0 1 0 0)" d="M144 558L648 558L648 558L648 54L648 54L144 54z" /></clipPath><clipPath id="117"><path id="" clip-rule="evenodd" transform="matrix(1 0 0 1 0 0)" d="M144 558L648 558L648 558L648 54L648 54L144 54z" /></clipPath><clipPath id="118"><path id="" clip-rule="evenodd" transform="matrix(1 0 0 1 0 0)" d="M144 558L648 558L648 558L648 54L648 54L144 54z" /></clipPath><clipPath id="119"><path id="" clip-rule="evenodd" transform="matrix(1 0 0 1 0 0)" d="M144 558L648 558L648 558L648 54L648 54L144 54z" /></clipPath><clipPath id="120"><path id="" clip-rule="evenodd" transform="matrix(1 0 0 1 0 0)" d="M144 558L648 558L648 558L648 54L648 54L144 54z" /></clipPath><clipPath id="121"><path id="" clip-rule="evenodd" transform="matrix(1 0 0 1 0 0)" d="M144 558L648 558L648 558L648 54L648 54L144 54z" /></clipPath><clipPath id="122"><path id="" clip-rule="evenodd" transform="matrix(1 0 0 1 0 0)" d="M144 558L648 558L648 558L648 54L648 54L144 54z" /></clipPath><clipPath id="123"><path id="" clip-rule="evenodd" transform="matrix(1 0 0 1 0 0)" d="M144 558L648 558L648 558L648 54L648 54L144 54z" /></clipPath><clipPath id="124"><path id="" clip-rule="evenodd" transform="matrix(1 0 0 1 0 0)" d="M144 558L648 558L648 558L648 54L648 54L144 54z" /></clipPath><clipPath id="125"><path id="" clip-rule="evenodd" transform="matrix(1 0 0 1 0 0)" d="M144 558L648 558L648 558L648 54L648 54L144 54z" /></clipPath><clipPath id="126"><path id="" clip-rule="evenodd" transform="matrix(1 0 0 1 0 0)" d="M144 558L648 558L648 558L648 54L648 54L144 54z" /></clipPath><clipPath id="127"><path id="" clip-rule="evenodd" transform="matrix(1 0 0 1 0 0)" d="M144 558L648 558L648 558L648 54L648 54L144 54z" /></clipPath><clipPath id="128"><path id="" clip-rule="evenodd" transform="matrix(1 0 0 1 0 0)" d="M144 558L648 558L648 558L648 54L648 54L144 54z" /></clipPath><clipPath id="129"><path id="" clip-rule="evenodd" transform="matrix(1 0 0 1 0 0)" d="M144 558L648 558L648 558L648 54L648 54L144 54z" /></clipPath><clipPath id="130"><path id="" clip-rule="evenodd" transform="matrix(1 0 0 1 0 0)" d="M144 558L648 558L648 558L648 54L648 54L144 54z" /></clipPath><clipPath id="131"><path id="" clip-rule="evenodd" transform="matrix(1 0 0 1 0 0)" d="M144 558L648 558L648 558L648 54L648 54L144 54z" /></clipPath><clipPath id="132"><path id="" clip-rule="evenodd" transform="matrix(1 0 0 1 0 0)" d="M144 558L648 558L648 558L648 54L648 54L144 54z" /></clipPath><clipPath id="133"><path id="" clip-rule="evenodd" transform="matrix(1 0 0 1 0 0)" d="M144 558L648 558L648 558L648 54L648 54L144 54z" /></clipPath><clipPath id="134"><path id="" clip-rule="evenodd" transform="matrix(1 0 0 1 0 0)" d="M144 558L648 558L648 558L648 54L648 54L144 54z" /></clipPath><clipPath id="135"><path id="" clip-rule="evenodd" transform="matrix(1 0 0 1 0 0)" d="M144 558L648 558L648 558L648 54L648 54L144 54z" /></clipPath><clipPath id="136"><path id="" clip-rule="evenodd" transform="matrix(1 0 0 1 0 0)" d="M144 558L648 558L648 558L648 54L648 54L144 54z" /></clipPath><clipPath id="137"><path id="" clip-rule="evenodd" transform="matrix(1 0 0 1 0 0)" d="M144 558L648 558L648 558L648 54L648 54L144 54z" /></clipPath><clipPath id="138"><path id="" clip-rule="evenodd" transform="matrix(1 0 0 1 0 0)" d="M144 558L648 558L648 558L648 54L648 54L144 54z" /></clipPath><clipPath id="139"><path id="" clip-rule="evenodd" transform="matrix(1 0 0 1 0 0)" d="M144 558L648 558L648 558L648 54L648 54L144 54z" /></clipPath><clipPath id="140"><path id="" clip-rule="evenodd" transform="matrix(1 0 0 1 0 0)" d="M144 558L648 558L648 558L648 54L648 54L144 54z" /></clipPath><clipPath id="141"><path id="" clip-rule="evenodd" transform="matrix(1 0 0 1 0 0)" d="M144 558L648 558L648 558L648 54L648 54L144 54z" /></clipPath><clipPath id="142"><path id="" clip-rule="evenodd" transform="matrix(1 0 0 1 0 0)" d="M144 558L648 558L648 558L648 54L648 54L144 54z" /></clipPath><clipPath id="143"><path id="" clip-rule="evenodd" transform="matrix(1 0 0 1 0 0)" d="M144 558L648 558L648 558L648 54L648 54L144 54z" /></clipPath><clipPath id="144"><path id="" clip-rule="evenodd" transform="matrix(1 0 0 1 0 0)" d="M144 558L648 558L648 558L648 54L648 54L144 54z" /></clipPath><clipPath id="145"><path id="" clip-rule="evenodd" transform="matrix(1 0 0 1 0 0)" d="M144 558L648 558L648 558L648 54L648 54L144 54z" /></clipPath><clipPath id="146"><path id="" clip-rule="evenodd" transform="matrix(1 0 0 1 0 0)" d="M144 558L648 558L648 558L648 54L648 54L144 54z" /></clipPath><clipPath id="147"><path id="" clip-rule="evenodd" transform="matrix(1 0 0 1 0 0)" d="M144 558L648 558L648 558L648 54L648 54L144 54z" /></clipPath><clipPath id="148"><path id="" clip-rule="evenodd" transform="matrix(1 0 0 1 0 0)" d="M144 558L648 558L648 558L648 54L648 54L144 54z" /></clipPath><clipPath id="149"><path id="" clip-rule="evenodd" transform="matrix(1 0 0 1 0 0)" d="M144 558L648 558L648 558L648 54L648 54L144 54z" /></clipPath><clipPath id="150"><path id="" clip-rule="evenodd" transform="matrix(1 0 0 1 0 0)" d="M144 558L648 558L648 558L648 54L648 54L144 54z" /></clipPath><clipPath id="151"><path id="" clip-rule="evenodd" transform="matrix(1 0 0 1 0 0)" d="M144 558L648 558L648 558L648 54L648 54L144 54z" /></clipPath><clipPath id="152"><path id="" clip-rule="evenodd" transform="matrix(1 0 0 1 0 0)" d="M144 558L648 558L648 558L648 54L648 54L144 54z" /></clipPath><clipPath id="153"><path id="" clip-rule="evenodd" transform="matrix(1 0 0 1 0 0)" d="M144 558L648 558L648 558L648 54L648 54L144 54z" /></clipPath><clipPath id="154"><path id="" clip-rule="evenodd" transform="matrix(1 0 0 1 0 0)" d="M144 558L648 558L648 558L648 54L648 54L144 54z" /></clipPath><clipPath id="155"><path id="" clip-rule="evenodd" transform="matrix(1 0 0 1 0 0)" d="M144 558L648 558L648 558L648 54L648 54L144 54z" /></clipPath><clipPath id="156"><path id="" clip-rule="evenodd" transform="matrix(1 0 0 1 0 0)" d="M144 558L648 558L648 558L648 54L648 54L144 54z" /></clipPath><clipPath id="157"><path id="" clip-rule="evenodd" transform="matrix(1 0 0 1 0 0)" d="M144 558L648 558L648 558L648 54L648 54L144 54z" /></clipPath><clipPath id="158"><path id="" clip-rule="evenodd" transform="matrix(1 0 0 1 0 0)" d="M144 558L648 558L648 558L648 54L648 54L144 54z" /></clipPath><clipPath id="159"><path id="" clip-rule="evenodd" transform="matrix(1 0 0 1 0 0)" d="M144 558L648 558L648 558L648 54L648 54L144 54z" /></clipPath></defs><g transform="matrix(1.333333 0 0 1.333333 0 0)"><g clip-path="url(#1)"><g clip-path="url(#2)"></g><g clip-path="url(#3)"></g><g clip-path="url(#4)"></g><g clip-path="url(#5)"></g><g clip-path="url(#6)"></g><g clip-path="url(#7)"></g><g clip-path="url(#8)"></g><g clip-path="url(#9)"></g><g clip-path="url(#10)"></g><g clip-path="url(#11)"></g><g clip-path="url(#12)"></g><g clip-path="url(#13)"></g><g clip-path="url(#14)"></g><g clip-path="url(#15)"></g><g clip-path="url(#16)"></g><g clip-path="url(#17)"><path id="1" transform="matrix(1 0 0 -1 0 612)" d="M144 54L648 54L648 54L648 558L648 558L144 558z" stroke="#FFFFFF" stroke-width="1.07" fill="#FFFFFF" fill-rule="nonzero" /></g><g clip-path="url(#18)"></g><g clip-path="url(#19)"><path id="2" transform="matrix(1 0 0 -1 0 612)" d="M213.43 328.64L393.26 328.64L393.26 535.31L213.43 535.31z" stroke="none" fill="#EBEBEB" fill-rule="nonzero" /><path id="3" transform="matrix(1 0 0 -1 0 612)" d="M249.29 328.64L249.29 535.31" stroke="#FFFFFF" stroke-width="0.53" fill="none" /><path id="4" transform="matrix(1 0 0 -1 0 612)" d="M304.67 328.64L304.67 535.31" stroke="#FFFFFF" stroke-width="0.53" fill="none" /><path id="5" transform="matrix(1 0 0 -1 0 612)" d="M360.05 328.64L360.05 535.31" stroke="#FFFFFF" stroke-width="0.53" fill="none" /><path id="6" transform="matrix(1 0 0 -1 0 612)" d="M213.43 340.8L393.26 340.8" stroke="#FFFFFF" stroke-width="1.07" fill="none" /><path id="7" transform="matrix(1 0 0 -1 0 612)" d="M213.43 361.06L393.26 361.06" stroke="#FFFFFF" stroke-width="1.07" fill="none" /><path id="8" transform="matrix(1 0 0 -1 0 612)" d="M213.43 381.32L393.26 381.32" stroke="#FFFFFF" stroke-width="1.07" fill="none" /><path id="9" transform="matrix(1 0 0 -1 0 612)" d="M213.43 401.58L393.26 401.58" stroke="#FFFFFF" stroke-width="1.07" fill="none" /><path id="10" transform="matrix(1 0 0 -1 0 612)" d="M213.43 421.85L393.26 421.85" stroke="#FFFFFF" stroke-width="1.07" fill="none" /><path id="11" transform="matrix(1 0 0 -1 0 612)" d="M213.43 442.11L393.26 442.11" stroke="#FFFFFF" stroke-width="1.07" fill="none" /><path id="12" transform="matrix(1 0 0 -1 0 612)" d="M213.43 462.37L393.26 462.37" stroke="#FFFFFF" stroke-width="1.07" fill="none" /><path id="13" transform="matrix(1 0 0 -1 0 612)" d="M213.43 482.63L393.26 482.63" stroke="#FFFFFF" stroke-width="1.07" fill="none" /><path id="14" transform="matrix(1 0 0 -1 0 612)" d="M213.43 502.89L393.26 502.89" stroke="#FFFFFF" stroke-width="1.07" fill="none" /><path id="15" transform="matrix(1 0 0 -1 0 612)" d="M213.43 523.15L393.26 523.15" stroke="#FFFFFF" stroke-width="1.07" fill="none" /><path id="16" transform="matrix(1 0 0 -1 0 612)" d="M221.61 328.64L221.61 535.31" stroke="#FFFFFF" stroke-width="1.07" fill="none" /><path id="17" transform="matrix(1 0 0 -1 0 612)" d="M276.98 328.64L276.98 535.31" stroke="#FFFFFF" stroke-width="1.07" fill="none" /><path id="18" transform="matrix(1 0 0 -1 0 612)" d="M332.36 328.64L332.36 535.31" stroke="#FFFFFF" stroke-width="1.07" fill="none" /><path id="19" transform="matrix(1 0 0 -1 0 612)" d="M387.74 328.64L387.74 535.31" stroke="#FFFFFF" stroke-width="1.07" fill="none" /><path id="20" transform="matrix(1 0 0 -1 0 612)" d="M221.61 493.77L385.09 493.77L385.09 512.01L221.61 512.01z" stroke="none" fill="#F8766C" fill-rule="nonzero" /><path id="21" transform="matrix(1 0 0 -1 0 612)" d="M221.61 473.51L361.64 473.51L361.64 491.75L221.61 491.75z" stroke="none" fill="#F8766C" fill-rule="nonzero" /><path id="22" transform="matrix(1 0 0 -1 0 612)" d="M221.61 514.04L343.01 514.04L343.01 532.28L221.61 532.28z" stroke="none" fill="#F8766C" fill-rule="nonzero" /><path id="23" transform="matrix(1 0 0 -1 0 612)" d="M221.61 412.73L306 412.73L306 430.97L221.61 430.97z" stroke="none" fill="#F8766C" fill-rule="nonzero" /><path id="24" transform="matrix(1 0 0 -1 0 612)" d="M221.61 392.47L298.1 392.47L298.1 410.71L221.61 410.71z" stroke="none" fill="#F8766C" fill-rule="nonzero" /><path id="25" transform="matrix(1 0 0 -1 0 612)" d="M221.61 432.99L297.12 432.99L297.12 451.23L221.61 451.23z" stroke="none" fill="#F8766C" fill-rule="nonzero" /><path id="26" transform="matrix(1 0 0 -1 0 612)" d="M221.61 453.25L285.09 453.25L285.09 471.49L221.61 471.49z" stroke="none" fill="#F8766C" fill-rule="nonzero" /><path id="27" transform="matrix(1 0 0 -1 0 612)" d="M221.61 351.94L282.79 351.94L282.79 370.18L221.61 370.18z" stroke="none" fill="#F8766C" fill-rule="nonzero" /><path id="28" transform="matrix(1 0 0 -1 0 612)" d="M221.61 372.2L280.09 372.2L280.09 390.44L221.61 390.44z" stroke="none" fill="#F8766C" fill-rule="nonzero" /><path id="29" transform="matrix(1 0 0 -1 0 612)" d="M221.61 331.68L269.38 331.68L269.38 349.92L221.61 349.92z" stroke="none" fill="#F8766C" fill-rule="nonzero" /></g><g clip-path="url(#20)"></g><g clip-path="url(#21)"><path id="30" transform="matrix(1 0 0 -1 0 612)" d="M213.43 85.91L393.26 85.91L393.26 292.58L213.43 292.58z" stroke="none" fill="#EBEBEB" fill-rule="nonzero" /><path id="31" transform="matrix(1 0 0 -1 0 612)" d="M244.22 85.91L244.22 292.58" stroke="#FFFFFF" stroke-width="0.53" fill="none" /><path id="32" transform="matrix(1 0 0 -1 0 612)" d="M289.45 85.91L289.45 292.58" stroke="#FFFFFF" stroke-width="0.53" fill="none" /><path id="33" transform="matrix(1 0 0 -1 0 612)" d="M334.68 85.91L334.68 292.58" stroke="#FFFFFF" stroke-width="0.53" fill="none" /><path id="34" transform="matrix(1 0 0 -1 0 612)" d="M379.91 85.91L379.91 292.58" stroke="#FFFFFF" stroke-width="0.53" fill="none" /><path id="35" transform="matrix(1 0 0 -1 0 612)" d="M213.43 98.07L393.26 98.07" stroke="#FFFFFF" stroke-width="1.07" fill="none" /><path id="36" transform="matrix(1 0 0 -1 0 612)" d="M213.43 118.33L393.26 118.33" stroke="#FFFFFF" stroke-width="1.07" fill="none" /><path id="37" transform="matrix(1 0 0 -1 0 612)" d="M213.43 138.59L393.26 138.59" stroke="#FFFFFF" stroke-width="1.07" fill="none" /><path id="38" transform="matrix(1 0 0 -1 0 612)" d="M213.43 158.85L393.26 158.85" stroke="#FFFFFF" stroke-width="1.07" fill="none" /><path id="39" transform="matrix(1 0 0 -1 0 612)" d="M213.43 179.11L393.26 179.11" stroke="#FFFFFF" stroke-width="1.07" fill="none" /><path id="40" transform="matrix(1 0 0 -1 0 612)" d="M213.43 199.38L393.26 199.38" stroke="#FFFFFF" stroke-width="1.07" fill="none" /><path id="41" transform="matrix(1 0 0 -1 0 612)" d="M213.43 219.64L393.26 219.64" stroke="#FFFFFF" stroke-width="1.07" fill="none" /><path id="42" transform="matrix(1 0 0 -1 0 612)" d="M213.43 239.9L393.26 239.9" stroke="#FFFFFF" stroke-width="1.07" fill="none" /><path id="43" transform="matrix(1 0 0 -1 0 612)" d="M213.43 260.16L393.26 260.16" stroke="#FFFFFF" stroke-width="1.07" fill="none" /><path id="44" transform="matrix(1 0 0 -1 0 612)" d="M213.43 280.42L393.26 280.42" stroke="#FFFFFF" stroke-width="1.07" fill="none" /><path id="45" transform="matrix(1 0 0 -1 0 612)" d="M221.61 85.91L221.61 292.58" stroke="#FFFFFF" stroke-width="1.07" fill="none" /><path id="46" transform="matrix(1 0 0 -1 0 612)" d="M266.84 85.91L266.84 292.58" stroke="#FFFFFF" stroke-width="1.07" fill="none" /><path id="47" transform="matrix(1 0 0 -1 0 612)" d="M312.07 85.91L312.07 292.58" stroke="#FFFFFF" stroke-width="1.07" fill="none" /><path id="48" transform="matrix(1 0 0 -1 0 612)" d="M357.3 85.91L357.3 292.58" stroke="#FFFFFF" stroke-width="1.07" fill="none" /><path id="49" transform="matrix(1 0 0 -1 0 612)" d="M221.61 271.31L385.09 271.31L385.09 289.55L221.61 289.55z" stroke="none" fill="#00BEC4" fill-rule="nonzero" /><path id="50" transform="matrix(1 0 0 -1 0 612)" d="M221.61 251.04L326.54 251.04L326.54 269.28L221.61 269.28z" stroke="none" fill="#00BEC4" fill-rule="nonzero" /><path id="51" transform="matrix(1 0 0 -1 0 612)" d="M221.61 230.78L294.36 230.78L294.36 249.02L221.61 249.02z" stroke="none" fill="#00BEC4" fill-rule="nonzero" /><path id="52" transform="matrix(1 0 0 -1 0 612)" d="M221.61 210.52L262.15 210.52L262.15 228.76L221.61 228.76z" stroke="none" fill="#00BEC4" fill-rule="nonzero" /><path id="53" transform="matrix(1 0 0 -1 0 612)" d="M221.61 170L251.4 170L251.4 188.24L221.61 188.24z" stroke="none" fill="#00BEC4" fill-rule="nonzero" /><path id="54" transform="matrix(1 0 0 -1 0 612)" d="M221.61 149.74L246.78 149.74L246.78 167.98L221.61 167.98z" stroke="none" fill="#00BEC4" fill-rule="nonzero" /><path id="55" transform="matrix(1 0 0 -1 0 612)" d="M221.61 190.26L243.92 190.26L243.92 208.5L221.61 208.5z" stroke="none" fill="#00BEC4" fill-rule="nonzero" /><path id="56" transform="matrix(1 0 0 -1 0 612)" d="M221.61 129.47L243.7 129.47L243.7 147.71L221.61 147.71z" stroke="none" fill="#00BEC4" fill-rule="nonzero" /><path id="57" transform="matrix(1 0 0 -1 0 612)" d="M221.61 88.95L241.65 88.95L241.65 107.19L221.61 107.19z" stroke="none" fill="#00BEC4" fill-rule="nonzero" /><path id="58" transform="matrix(1 0 0 -1 0 612)" d="M221.61 109.21L241.59 109.21L241.59 127.45L221.61 127.45z" stroke="none" fill="#00BEC4" fill-rule="nonzero" /></g><g clip-path="url(#22)"></g><g clip-path="url(#23)"><path id="59" transform="matrix(1 0 0 -1 0 612)" d="M462.69 328.64L642.52 328.64L642.52 535.31L462.69 535.31z" stroke="none" fill="#EBEBEB" fill-rule="nonzero" /><path id="60" transform="matrix(1 0 0 -1 0 612)" d="M489.64 328.64L489.64 535.31" stroke="#FFFFFF" stroke-width="0.53" fill="none" /><path id="61" transform="matrix(1 0 0 -1 0 612)" d="M527.19 328.64L527.19 535.31" stroke="#FFFFFF" stroke-width="0.53" fill="none" /><path id="62" transform="matrix(1 0 0 -1 0 612)" d="M564.74 328.64L564.74 535.31" stroke="#FFFFFF" stroke-width="0.53" fill="none" /><path id="63" transform="matrix(1 0 0 -1 0 612)" d="M602.29 328.64L602.29 535.31" stroke="#FFFFFF" stroke-width="0.53" fill="none" /><path id="64" transform="matrix(1 0 0 -1 0 612)" d="M639.84 328.64L639.84 535.31" stroke="#FFFFFF" stroke-width="0.53" fill="none" /><path id="65" transform="matrix(1 0 0 -1 0 612)" d="M462.69 340.8L642.52 340.8" stroke="#FFFFFF" stroke-width="1.07" fill="none" /><path id="66" transform="matrix(1 0 0 -1 0 612)" d="M462.69 361.06L642.52 361.06" stroke="#FFFFFF" stroke-width="1.07" fill="none" /><path id="67" transform="matrix(1 0 0 -1 0 612)" d="M462.69 381.32L642.52 381.32" stroke="#FFFFFF" stroke-width="1.07" fill="none" /><path id="68" transform="matrix(1 0 0 -1 0 612)" d="M462.69 401.58L642.52 401.58" stroke="#FFFFFF" stroke-width="1.07" fill="none" /><path id="69" transform="matrix(1 0 0 -1 0 612)" d="M462.69 421.85L642.52 421.85" stroke="#FFFFFF" stroke-width="1.07" fill="none" /><path id="70" transform="matrix(1 0 0 -1 0 612)" d="M462.69 442.11L642.52 442.11" stroke="#FFFFFF" stroke-width="1.07" fill="none" /><path id="71" transform="matrix(1 0 0 -1 0 612)" d="M462.69 462.37L642.52 462.37" stroke="#FFFFFF" stroke-width="1.07" fill="none" /><path id="72" transform="matrix(1 0 0 -1 0 612)" d="M462.69 482.63L642.52 482.63" stroke="#FFFFFF" stroke-width="1.07" fill="none" /><path id="73" transform="matrix(1 0 0 -1 0 612)" d="M462.69 502.89L642.52 502.89" stroke="#FFFFFF" stroke-width="1.07" fill="none" /><path id="74" transform="matrix(1 0 0 -1 0 612)" d="M462.69 523.15L642.52 523.15" stroke="#FFFFFF" stroke-width="1.07" fill="none" /><path id="75" transform="matrix(1 0 0 -1 0 612)" d="M470.87 328.64L470.87 535.31" stroke="#FFFFFF" stroke-width="1.07" fill="none" /><path id="76" transform="matrix(1 0 0 -1 0 612)" d="M508.42 328.64L508.42 535.31" stroke="#FFFFFF" stroke-width="1.07" fill="none" /><path id="77" transform="matrix(1 0 0 -1 0 612)" d="M545.97 328.64L545.97 535.31" stroke="#FFFFFF" stroke-width="1.07" fill="none" /><path id="78" transform="matrix(1 0 0 -1 0 612)" d="M583.52 328.64L583.52 535.31" stroke="#FFFFFF" stroke-width="1.07" fill="none" /><path id="79" transform="matrix(1 0 0 -1 0 612)" d="M621.07 328.64L621.07 535.31" stroke="#FFFFFF" stroke-width="1.07" fill="none" /><path id="80" transform="matrix(1 0 0 -1 0 612)" d="M470.87 514.04L634.35 514.04L634.35 532.28L470.87 532.28z" stroke="none" fill="#7CAE00" fill-rule="nonzero" /><path id="81" transform="matrix(1 0 0 -1 0 612)" d="M470.87 473.51L588.47 473.51L588.47 491.75L470.87 491.75z" stroke="none" fill="#7CAE00" fill-rule="nonzero" /><path id="82" transform="matrix(1 0 0 -1 0 612)" d="M470.87 453.25L569.83 453.25L569.83 471.49L470.87 471.49z" stroke="none" fill="#7CAE00" fill-rule="nonzero" /><path id="83" transform="matrix(1 0 0 -1 0 612)" d="M470.87 432.99L560.1 432.99L560.1 451.23L470.87 451.23z" stroke="none" fill="#7CAE00" fill-rule="nonzero" /><path id="84" transform="matrix(1 0 0 -1 0 612)" d="M470.87 412.73L542.3 412.73L542.3 430.97L470.87 430.97z" stroke="none" fill="#7CAE00" fill-rule="nonzero" /><path id="85" transform="matrix(1 0 0 -1 0 612)" d="M470.87 372.2L514.81 372.2L514.81 390.44L470.87 390.44z" stroke="none" fill="#7CAE00" fill-rule="nonzero" /><path id="86" transform="matrix(1 0 0 -1 0 612)" d="M470.87 392.47L512 392.47L512 410.71L470.87 410.71z" stroke="none" fill="#7CAE00" fill-rule="nonzero" /><path id="87" transform="matrix(1 0 0 -1 0 612)" d="M470.87 351.94L507.08 351.94L507.08 370.18L470.87 370.18z" stroke="none" fill="#7CAE00" fill-rule="nonzero" /><path id="88" transform="matrix(1 0 0 -1 0 612)" d="M470.87 493.77L504.16 493.77L504.16 512.01L470.87 512.01z" stroke="none" fill="#7CAE00" fill-rule="nonzero" /><path id="89" transform="matrix(1 0 0 -1 0 612)" d="M470.87 331.68L502.42 331.68L502.42 349.92L470.87 349.92z" stroke="none" fill="#7CAE00" fill-rule="nonzero" /></g><g clip-path="url(#24)"></g><g clip-path="url(#25)"><path id="90" transform="matrix(1 0 0 -1 0 612)" d="M462.69 85.91L642.52 85.91L642.52 292.58L462.69 292.58z" stroke="none" fill="#EBEBEB" fill-rule="nonzero" /><path id="91" transform="matrix(1 0 0 -1 0 612)" d="M501.7 85.91L501.7 292.58" stroke="#FFFFFF" stroke-width="0.53" fill="none" /><path id="92" transform="matrix(1 0 0 -1 0 612)" d="M563.37 85.91L563.37 292.58" stroke="#FFFFFF" stroke-width="0.53" fill="none" /><path id="93" transform="matrix(1 0 0 -1 0 612)" d="M625.04 85.91L625.04 292.58" stroke="#FFFFFF" stroke-width="0.53" fill="none" /><path id="94" transform="matrix(1 0 0 -1 0 612)" d="M462.69 98.07L642.52 98.07" stroke="#FFFFFF" stroke-width="1.07" fill="none" /><path id="95" transform="matrix(1 0 0 -1 0 612)" d="M462.69 118.33L642.52 118.33" stroke="#FFFFFF" stroke-width="1.07" fill="none" /><path id="96" transform="matrix(1 0 0 -1 0 612)" d="M462.69 138.59L642.52 138.59" stroke="#FFFFFF" stroke-width="1.07" fill="none" /><path id="97" transform="matrix(1 0 0 -1 0 612)" d="M462.69 158.85L642.52 158.85" stroke="#FFFFFF" stroke-width="1.07" fill="none" /><path id="98" transform="matrix(1 0 0 -1 0 612)" d="M462.69 179.11L642.52 179.11" stroke="#FFFFFF" stroke-width="1.07" fill="none" /><path id="99" transform="matrix(1 0 0 -1 0 612)" d="M462.69 199.38L642.52 199.38" stroke="#FFFFFF" stroke-width="1.07" fill="none" /><path id="100" transform="matrix(1 0 0 -1 0 612)" d="M462.69 219.64L642.52 219.64" stroke="#FFFFFF" stroke-width="1.07" fill="none" /><path id="101" transform="matrix(1 0 0 -1 0 612)" d="M462.69 239.9L642.52 239.9" stroke="#FFFFFF" stroke-width="1.07" fill="none" /><path id="102" transform="matrix(1 0 0 -1 0 612)" d="M462.69 260.16L642.52 260.16" stroke="#FFFFFF" stroke-width="1.07" fill="none" /><path id="103" transform="matrix(1 0 0 -1 0 612)" d="M462.69 280.42L642.52 280.42" stroke="#FFFFFF" stroke-width="1.07" fill="none" /><path id="104" transform="matrix(1 0 0 -1 0 612)" d="M470.87 85.91L470.87 292.58" stroke="#FFFFFF" stroke-width="1.07" fill="none" /><path id="105" transform="matrix(1 0 0 -1 0 612)" d="M532.54 85.91L532.54 292.58" stroke="#FFFFFF" stroke-width="1.07" fill="none" /><path id="106" transform="matrix(1 0 0 -1 0 612)" d="M594.21 85.91L594.21 292.58" stroke="#FFFFFF" stroke-width="1.07" fill="none" /><path id="107" transform="matrix(1 0 0 -1 0 612)" d="M470.87 271.31L634.35 271.31L634.35 289.55L470.87 289.55z" stroke="none" fill="#C77CFF" fill-rule="nonzero" /><path id="108" transform="matrix(1 0 0 -1 0 612)" d="M470.87 230.78L579.86 230.78L579.86 249.02L470.87 249.02z" stroke="none" fill="#C77CFF" fill-rule="nonzero" /><path id="109" transform="matrix(1 0 0 -1 0 612)" d="M470.87 251.04L526.49 251.04L526.49 269.28L470.87 269.28z" stroke="none" fill="#C77CFF" fill-rule="nonzero" /><path id="110" transform="matrix(1 0 0 -1 0 612)" d="M470.87 210.52L512.38 210.52L512.38 228.76L470.87 228.76z" stroke="none" fill="#C77CFF" fill-rule="nonzero" /><path id="111" transform="matrix(1 0 0 -1 0 612)" d="M470.87 170L502 170L502 188.24L470.87 188.24z" stroke="none" fill="#C77CFF" fill-rule="nonzero" /><path id="112" transform="matrix(1 0 0 -1 0 612)" d="M470.87 149.74L496.66 149.74L496.66 167.98L470.87 167.98z" stroke="none" fill="#C77CFF" fill-rule="nonzero" /><path id="113" transform="matrix(1 0 0 -1 0 612)" d="M470.87 190.26L496.43 190.26L496.43 208.5L470.87 208.5z" stroke="none" fill="#C77CFF" fill-rule="nonzero" /><path id="114" transform="matrix(1 0 0 -1 0 612)" d="M470.87 109.21L496.05 109.21L496.05 127.45L470.87 127.45z" stroke="none" fill="#C77CFF" fill-rule="nonzero" /><path id="115" transform="matrix(1 0 0 -1 0 612)" d="M470.87 129.47L495.59 129.47L495.59 147.71L470.87 147.71z" stroke="none" fill="#C77CFF" fill-rule="nonzero" /><path id="116" transform="matrix(1 0 0 -1 0 612)" d="M470.87 88.95L493.14 88.95L493.14 107.19L470.87 107.19z" stroke="none" fill="#C77CFF" fill-rule="nonzero" /></g><g clip-path="url(#26)"></g><g clip-path="url(#27)"></g><g clip-path="url(#28)"><path id="117" transform="matrix(1 0 0 -1 0 612)" d="M213.43 292.58L393.26 292.58L393.26 309.79L213.43 309.79z" stroke="none" fill="#D9D9D9" fill-rule="nonzero" /></g><g clip-path="url(#29)"></g><g clip-path="url(#30)"></g><g clip-path="url(#31)"></g><g clip-path="url(#32)"></g><g clip-path="url(#33)"><path id="119" transform="matrix(1 0 0 -1 0 612)" d="M462.69 292.58L642.52 292.58L642.52 309.79L462.69 309.79z" stroke="none" fill="#D9D9D9" fill-rule="nonzero" /></g><g clip-path="url(#34)"></g><g clip-path="url(#35)"></g><g clip-path="url(#36)"></g><g clip-path="url(#37)"></g><g clip-path="url(#38)"><path id="121" transform="matrix(1 0 0 -1 0 612)" d="M213.43 535.31L393.26 535.31L393.26 552.52L213.43 552.52z" stroke="none" fill="#D9D9D9" fill-rule="nonzero" /></g><g clip-path="url(#39)"></g><g clip-path="url(#40)"></g><g clip-path="url(#41)"></g><g clip-path="url(#42)"></g><g clip-path="url(#43)"><path id="123" transform="matrix(1 0 0 -1 0 612)" d="M462.69 535.31L642.52 535.31L642.52 552.52L462.69 552.52z" stroke="none" fill="#D9D9D9" fill-rule="nonzero" /></g><g clip-path="url(#44)"></g><g clip-path="url(#45)"></g><g clip-path="url(#46)"></g><g clip-path="url(#47)"></g><g clip-path="url(#48)"></g><g clip-path="url(#49)"></g><g clip-path="url(#50)"></g><g clip-path="url(#51)"></g><g clip-path="url(#52)"></g><g clip-path="url(#53)"></g><g clip-path="url(#54)"></g><g clip-path="url(#55)"></g><g clip-path="url(#56)"></g><g clip-path="url(#57)"></g><g clip-path="url(#58)"></g><g clip-path="url(#59)"><path id="125" transform="matrix(1 0 0 -1 0 612)" d="M221.61 83.17L221.61 85.91" stroke="#323232" stroke-width="1.07" fill="none" /><path id="126" transform="matrix(1 0 0 -1 0 612)" d="M266.84 83.17L266.84 85.91" stroke="#323232" stroke-width="1.07" fill="none" /><path id="127" transform="matrix(1 0 0 -1 0 612)" d="M312.07 83.17L312.07 85.91" stroke="#323232" stroke-width="1.07" fill="none" /><path id="128" transform="matrix(1 0 0 -1 0 612)" d="M357.3 83.17L357.3 85.91" stroke="#323232" stroke-width="1.07" fill="none" /></g><g clip-path="url(#60)"></g><g clip-path="url(#61)"></g><g clip-path="url(#62)"></g><g clip-path="url(#63)"></g><g clip-path="url(#64)"></g><g clip-path="url(#65)"></g><g clip-path="url(#66)"></g><g clip-path="url(#67)"></g><g clip-path="url(#68)"></g><g clip-path="url(#69)"><path id="145" transform="matrix(1 0 0 -1 0 612)" d="M470.87 83.17L470.87 85.91" stroke="#323232" stroke-width="1.07" fill="none" /><path id="146" transform="matrix(1 0 0 -1 0 612)" d="M532.54 83.17L532.54 85.91" stroke="#323232" stroke-width="1.07" fill="none" /><path id="147" transform="matrix(1 0 0 -1 0 612)" d="M594.21 83.17L594.21 85.91" stroke="#323232" stroke-width="1.07" fill="none" /></g><g clip-path="url(#70)"></g><g clip-path="url(#71)"></g><g clip-path="url(#72)"></g><g clip-path="url(#73)"></g><g clip-path="url(#74)"></g><g clip-path="url(#75)"></g><g clip-path="url(#76)"></g><g clip-path="url(#77)"></g><g clip-path="url(#78)"></g><g clip-path="url(#79)"><path id="160" transform="matrix(1 0 0 -1 0 612)" d="M221.61 325.9L221.61 328.64" stroke="#323232" stroke-width="1.07" fill="none" /><path id="161" transform="matrix(1 0 0 -1 0 612)" d="M276.98 325.9L276.98 328.64" stroke="#323232" stroke-width="1.07" fill="none" /><path id="162" transform="matrix(1 0 0 -1 0 612)" d="M332.36 325.9L332.36 328.64" stroke="#323232" stroke-width="1.07" fill="none" /><path id="163" transform="matrix(1 0 0 -1 0 612)" d="M387.74 325.9L387.74 328.64" stroke="#323232" stroke-width="1.07" fill="none" /></g><g clip-path="url(#80)"></g><g clip-path="url(#81)"></g><g clip-path="url(#82)"></g><g clip-path="url(#83)"></g><g clip-path="url(#84)"></g><g clip-path="url(#85)"></g><g clip-path="url(#86)"></g><g clip-path="url(#87)"></g><g clip-path="url(#88)"></g><g clip-path="url(#89)"><path id="180" transform="matrix(1 0 0 -1 0 612)" d="M470.87 325.9L470.87 328.64" stroke="#323232" stroke-width="1.07" fill="none" /><path id="181" transform="matrix(1 0 0 -1 0 612)" d="M508.42 325.9L508.42 328.64" stroke="#323232" stroke-width="1.07" fill="none" /><path id="182" transform="matrix(1 0 0 -1 0 612)" d="M545.97 325.9L545.97 328.64" stroke="#323232" stroke-width="1.07" fill="none" /><path id="183" transform="matrix(1 0 0 -1 0 612)" d="M583.52 325.9L583.52 328.64" stroke="#323232" stroke-width="1.07" fill="none" /><path id="184" transform="matrix(1 0 0 -1 0 612)" d="M621.07 325.9L621.07 328.64" stroke="#323232" stroke-width="1.07" fill="none" /></g><g clip-path="url(#90)"></g><g clip-path="url(#91)"></g><g clip-path="url(#92)"></g><g clip-path="url(#93)"></g><g clip-path="url(#94)"></g><g clip-path="url(#95)"></g><g clip-path="url(#96)"></g><g clip-path="url(#97)"></g><g clip-path="url(#98)"></g><g clip-path="url(#99)"></g><g clip-path="url(#100)"></g><g clip-path="url(#101)"><path id="287" transform="matrix(1 0 0 -1 0 612)" d="M459.95 340.8L462.69 340.8" stroke="#323232" stroke-width="1.07" fill="none" /><path id="288" transform="matrix(1 0 0 -1 0 612)" d="M459.95 361.06L462.69 361.06" stroke="#323232" stroke-width="1.07" fill="none" /><path id="289" transform="matrix(1 0 0 -1 0 612)" d="M459.95 381.32L462.69 381.32" stroke="#323232" stroke-width="1.07" fill="none" /><path id="290" transform="matrix(1 0 0 -1 0 612)" d="M459.95 401.58L462.69 401.58" stroke="#323232" stroke-width="1.07" fill="none" /><path id="291" transform="matrix(1 0 0 -1 0 612)" d="M459.95 421.85L462.69 421.85" stroke="#323232" stroke-width="1.07" fill="none" /><path id="292" transform="matrix(1 0 0 -1 0 612)" d="M459.95 442.11L462.69 442.11" stroke="#323232" stroke-width="1.07" fill="none" /><path id="293" transform="matrix(1 0 0 -1 0 612)" d="M459.95 462.37L462.69 462.37" stroke="#323232" stroke-width="1.07" fill="none" /><path id="294" transform="matrix(1 0 0 -1 0 612)" d="M459.95 482.63L462.69 482.63" stroke="#323232" stroke-width="1.07" fill="none" /><path id="295" transform="matrix(1 0 0 -1 0 612)" d="M459.95 502.89L462.69 502.89" stroke="#323232" stroke-width="1.07" fill="none" /><path id="296" transform="matrix(1 0 0 -1 0 612)" d="M459.95 523.15L462.69 523.15" stroke="#323232" stroke-width="1.07" fill="none" /></g><g clip-path="url(#102)"></g><g clip-path="url(#103)"></g><g clip-path="url(#104)"></g><g clip-path="url(#105)"></g><g clip-path="url(#106)"></g><g clip-path="url(#107)"></g><g clip-path="url(#108)"></g><g clip-path="url(#109)"></g><g clip-path="url(#110)"></g><g clip-path="url(#111)"><path id="374" transform="matrix(1 0 0 -1 0 612)" d="M459.95 98.07L462.69 98.07" stroke="#323232" stroke-width="1.07" fill="none" /><path id="375" transform="matrix(1 0 0 -1 0 612)" d="M459.95 118.33L462.69 118.33" stroke="#323232" stroke-width="1.07" fill="none" /><path id="376" transform="matrix(1 0 0 -1 0 612)" d="M459.95 138.59L462.69 138.59" stroke="#323232" stroke-width="1.07" fill="none" /><path id="377" transform="matrix(1 0 0 -1 0 612)" d="M459.95 158.85L462.69 158.85" stroke="#323232" stroke-width="1.07" fill="none" /><path id="378" transform="matrix(1 0 0 -1 0 612)" d="M459.95 179.11L462.69 179.11" stroke="#323232" stroke-width="1.07" fill="none" /><path id="379" transform="matrix(1 0 0 -1 0 612)" d="M459.95 199.38L462.69 199.38" stroke="#323232" stroke-width="1.07" fill="none" /><path id="380" transform="matrix(1 0 0 -1 0 612)" d="M459.95 219.64L462.69 219.64" stroke="#323232" stroke-width="1.07" fill="none" /><path id="381" transform="matrix(1 0 0 -1 0 612)" d="M459.95 239.9L462.69 239.9" stroke="#323232" stroke-width="1.07" fill="none" /><path id="382" transform="matrix(1 0 0 -1 0 612)" d="M459.95 260.16L462.69 260.16" stroke="#323232" stroke-width="1.07" fill="none" /><path id="383" transform="matrix(1 0 0 -1 0 612)" d="M459.95 280.42L462.69 280.42" stroke="#323232" stroke-width="1.07" fill="none" /></g><g clip-path="url(#112)"></g><g clip-path="url(#113)"></g><g clip-path="url(#114)"></g><g clip-path="url(#115)"></g><g clip-path="url(#116)"></g><g clip-path="url(#117)"></g><g clip-path="url(#118)"></g><g clip-path="url(#119)"></g><g clip-path="url(#120)"></g><g clip-path="url(#121)"><path id="468" transform="matrix(1 0 0 -1 0 612)" d="M210.69 340.8L213.43 340.8" stroke="#323232" stroke-width="1.07" fill="none" /><path id="469" transform="matrix(1 0 0 -1 0 612)" d="M210.69 361.06L213.43 361.06" stroke="#323232" stroke-width="1.07" fill="none" /><path id="470" transform="matrix(1 0 0 -1 0 612)" d="M210.69 381.32L213.43 381.32" stroke="#323232" stroke-width="1.07" fill="none" /><path id="471" transform="matrix(1 0 0 -1 0 612)" d="M210.69 401.58L213.43 401.58" stroke="#323232" stroke-width="1.07" fill="none" /><path id="472" transform="matrix(1 0 0 -1 0 612)" d="M210.69 421.85L213.43 421.85" stroke="#323232" stroke-width="1.07" fill="none" /><path id="473" transform="matrix(1 0 0 -1 0 612)" d="M210.69 442.11L213.43 442.11" stroke="#323232" stroke-width="1.07" fill="none" /><path id="474" transform="matrix(1 0 0 -1 0 612)" d="M210.69 462.37L213.43 462.37" stroke="#323232" stroke-width="1.07" fill="none" /><path id="475" transform="matrix(1 0 0 -1 0 612)" d="M210.69 482.63L213.43 482.63" stroke="#323232" stroke-width="1.07" fill="none" /><path id="476" transform="matrix(1 0 0 -1 0 612)" d="M210.69 502.89L213.43 502.89" stroke="#323232" stroke-width="1.07" fill="none" /><path id="477" transform="matrix(1 0 0 -1 0 612)" d="M210.69 523.15L213.43 523.15" stroke="#323232" stroke-width="1.07" fill="none" /></g><g clip-path="url(#122)"></g><g clip-path="url(#123)"></g><g clip-path="url(#124)"></g><g clip-path="url(#125)"></g><g clip-path="url(#126)"></g><g clip-path="url(#127)"></g><g clip-path="url(#128)"></g><g clip-path="url(#129)"></g><g clip-path="url(#130)"></g><g clip-path="url(#131)"><path id="555" transform="matrix(1 0 0 -1 0 612)" d="M210.69 98.07L213.43 98.07" stroke="#323232" stroke-width="1.07" fill="none" /><path id="556" transform="matrix(1 0 0 -1 0 612)" d="M210.69 118.33L213.43 118.33" stroke="#323232" stroke-width="1.07" fill="none" /><path id="557" transform="matrix(1 0 0 -1 0 612)" d="M210.69 138.59L213.43 138.59" stroke="#323232" stroke-width="1.07" fill="none" /><path id="558" transform="matrix(1 0 0 -1 0 612)" d="M210.69 158.85L213.43 158.85" stroke="#323232" stroke-width="1.07" fill="none" /><path id="559" transform="matrix(1 0 0 -1 0 612)" d="M210.69 179.11L213.43 179.11" stroke="#323232" stroke-width="1.07" fill="none" /><path id="560" transform="matrix(1 0 0 -1 0 612)" d="M210.69 199.38L213.43 199.38" stroke="#323232" stroke-width="1.07" fill="none" /><path id="561" transform="matrix(1 0 0 -1 0 612)" d="M210.69 219.64L213.43 219.64" stroke="#323232" stroke-width="1.07" fill="none" /><path id="562" transform="matrix(1 0 0 -1 0 612)" d="M210.69 239.9L213.43 239.9" stroke="#323232" stroke-width="1.07" fill="none" /><path id="563" transform="matrix(1 0 0 -1 0 612)" d="M210.69 260.16L213.43 260.16" stroke="#323232" stroke-width="1.07" fill="none" /><path id="564" transform="matrix(1 0 0 -1 0 612)" d="M210.69 280.42L213.43 280.42" stroke="#323232" stroke-width="1.07" fill="none" /></g><g clip-path="url(#132)"></g><g clip-path="url(#133)"></g><g clip-path="url(#134)"></g><g clip-path="url(#135)"></g><g clip-path="url(#136)"></g><g clip-path="url(#137)"></g><g clip-path="url(#138)"></g><g clip-path="url(#139)"></g><g clip-path="url(#140)"></g><g clip-path="url(#141)"></g><g clip-path="url(#142)"></g><g clip-path="url(#143)"></g><g clip-path="url(#144)"></g><g clip-path="url(#145)"></g><g clip-path="url(#146)"></g><g clip-path="url(#147)"></g><g clip-path="url(#148)"></g><g clip-path="url(#149)"></g><g clip-path="url(#150)"></g><g clip-path="url(#151)"></g><g clip-path="url(#152)"></g><g clip-path="url(#153)"></g><g clip-path="url(#154)"></g><g clip-path="url(#155)"></g><g clip-path="url(#156)"></g><g clip-path="url(#157)"></g><g clip-path="url(#158)"></g><g clip-path="url(#159)"></g></g></g></svg>