<svg xmlns="http://www.w3.org/2000/svg" xmlns:xlink="http://www.w3.org/1999/xlink" id="body_2" preserveAspectRatio="xMinYMin meet" viewBox="0 0 1056 816"><defs><clipPath id="1"><path id="" clip-rule="evenodd" transform="matrix(1 0 0 1 0 0)" d="M0 612L0 0L0 0L792 0L792 0L792 612L792 612L0 612z" /></clipPath><clipPath id="2"><path id="" clip-rule="evenodd" transform="matrix(1 0 0 1 0 0)" d="M144 558L648 558L648 558L648 54L648 54L144 54z" /></clipPath><clipPath id="3"><path id="" clip-rule="evenodd" transform="matrix(1 0 0 1 0 0)" d="M144 558L648 558L648 558L648 54L648 54L144 54z" /></clipPath><clipPath id="4"><path id="" clip-rule="evenodd" transform="matrix(1 0 0 1 0 0)" d="M144 558L648 558L648 558L648 54L648 54L144 54z" /></clipPath><clipPath id="5"><path id="" clip-rule="evenodd" transform="matrix(1 0 0 1 0 0)" d="M144 558L648 558L648 558L648 54L648 54L144 54z" /></clipPath><clipPath id="6"><path id="" clip-rule="evenodd" transform="matrix(1 0 0 1 0 0)" d="M144 558L648 558L648 558L648 54L648 54L144 54z" /></clipPath><clipPath id="7"><path id="" clip-rule="evenodd" transform="matrix(1 0 0 1 0 0)" d="M144 558L648 558L648 558L648 54L648 54L144 54z" /></clipPath><clipPath id="8"><path id="" clip-rule="evenodd" transform="matrix(1 0 0 1 0 0)" d="M144 558L648 558L648 558L648 54L648 54L144 54z" /></clipPath><clipPath id="9"><path id="" clip-rule="evenodd" transform="matrix(1 0 0 1 0 0)" d="M144 558L648 558L648 558L648 54L648 54L144 54z" /></clipPath><clipPath id="10"><path id="" clip-rule="evenodd" transform="matrix(1 0 0 1 0 0)" d="M144 558L648 558L648 558L648 54L648 54L144 54z" /></clipPath><clipPath id="11"><path id="" clip-rule="evenodd" transform="matrix(1 0 0 1 0 0)" d="M144 558L648 558L648 558L648 54L648 54L144 54z" /></clipPath><clipPath id="12"><path id="" clip-rule="evenodd" transform="matrix(1 0 0 1 0 0)" d="M144 558L648 558L648 558L648 54L648 54L144 54z" /></clipPath><clipPath id="13"><path id="" clip-rule="evenodd" transform="matrix(1 0 0 1 0 0)" d="M144 558L648 558L648 558L648 54L648 54L144 54z" /></clipPath><clipPath id="14"><path id="" clip-rule="evenodd" transform="matrix(1 0 0 1 0 0)" d="M226.49 526.09L642.52 526.09L642.52 526.09L642.52 77.15002L642.52 77.15002L226.49 77.15002z" /></clipPath><clipPath id="15"><path id="" clip-rule="evenodd" transform="matrix(1 0 0 1 0 0)" d="M144 558L648 558L648 558L648 54L648 54L144 54z" /></clipPath><clipPath id="16"><path id="" clip-rule="evenodd" transform="matrix(1 0 0 1 0 0)" d="M144 558L648 558L648 558L648 54L648 54L144 54z" /></clipPath><clipPath id="17"><path id="" clip-rule="evenodd" transform="matrix(1 0 0 1 0 0)" d="M144 558L648 558L648 558L648 54L648 54L144 54z" /></clipPath><clipPath id="18"><path id="" clip-rule="evenodd" transform="matrix(1 0 0 1 0 0)" d="M144 558L648 558L648 558L648 54L648 54L144 54z" /></clipPath><clipPath id="19"><path id="" clip-rule="evenodd" transform="matrix(1 0 0 1 0 0)" d="M144 558L648 558L648 558L648 54L648 54L144 54z" /></clipPath><clipPath id="20"><path id="" clip-rule="evenodd" transform="matrix(1 0 0 1 0 0)" d="M144 558L648 558L648 558L648 54L648 54L144 54z" /></clipPath><clipPath id="21"><path id="" clip-rule="evenodd" transform="matrix(1 0 0 1 0 0)" d="M144 558L648 558L648 558L648 54L648 54L144 54z" /></clipPath><clipPath id="22"><path id="" clip-rule="evenodd" transform="matrix(1 0 0 1 0 0)" d="M144 558L648 558L648 558L648 54L648 54L144 54z" /></clipPath><clipPath id="23"><path id="" clip-rule="evenodd" transform="matrix(1 0 0 1 0 0)" d="M144 558L648 558L648 558L648 54L648 54L144 54z" /></clipPath><clipPath id="24"><path id="" clip-rule="evenodd" transform="matrix(1 0 0 1 0 0)" d="M144 558L648 558L648 558L648 54L648 54L144 54z" /></clipPath><clipPath id="25"><path id="" clip-rule="evenodd" transform="matrix(1 0 0 1 0 0)" d="M144 558L648 558L648 558L648 54L648 54L144 54z" /></clipPath><clipPath id="26"><path id="" clip-rule="evenodd" transform="matrix(1 0 0 1 0 0)" d="M144 558L648 558L648 558L648 54L648 54L144 54z" /></clipPath><clipPath id="27"><path id="" clip-rule="evenodd" transform="matrix(1 0 0 1 0 0)" d="M144 558L648 558L648 558L648 54L648 54L144 54z" /></clipPath><clipPath id="28"><path id="" clip-rule="evenodd" transform="matrix(1 0 0 1 0 0)" d="M144 558L648 558L648 558L648 54L648 54L144 54z" /></clipPath><clipPath id="29"><path id="" clip-rule="evenodd" transform="matrix(1 0 0 1 0 0)" d="M144 558L648 558L648 558L648 54L648 54L144 54z" /></clipPath><clipPath id="30"><path id="" clip-rule="evenodd" transform="matrix(1 0 0 1 0 0)" d="M144 558L648 558L648 558L648 54L648 54L144 54z" /></clipPath><clipPath id="31"><path id="" clip-rule="evenodd" transform="matrix(1 0 0 1 0 0)" d="M144 558L648 558L648 558L648 54L648 54L144 54z" /></clipPath><clipPath id="32"><path id="" clip-rule="evenodd" transform="matrix(1 0 0 1 0 0)" d="M144 558L648 558L648 558L648 54L648 54L144 54z" /></clipPath><clipPath id="33"><path id="" clip-rule="evenodd" transform="matrix(1 0 0 1 0 0)" d="M144 558L648 558L648 558L648 54L648 54L144 54z" /></clipPath><clipPath id="34"><path id="" clip-rule="evenodd" transform="matrix(1 0 0 1 0 0)" d="M144 558L648 558L648 558L648 54L648 54L144 54z" /></clipPath><clipPath id="35"><path id="" clip-rule="evenodd" transform="matrix(1 0 0 1 0 0)" d="M144 558L648 558L648 558L648 54L648 54L144 54z" /></clipPath><clipPath id="36"><path id="" clip-rule="evenodd" transform="matrix(1 0 0 1 0 0)" d="M144 558L648 558L648 558L648 54L648 54L144 54z" /></clipPath><clipPath id="37"><path id="" clip-rule="evenodd" transform="matrix(1 0 0 1 0 0)" d="M144 558L648 558L648 558L648 54L648 54L144 54z" /></clipPath><clipPath id="38"><path id="" clip-rule="evenodd" transform="matrix(1 0 0 1 0 0)" d="M144 558L648 558L648 558L648 54L648 54L144 54z" /></clipPath><clipPath id="39"><path id="" clip-rule="evenodd" transform="matrix(1 0 0 1 0 0)" d="M144 558L648 558L648 558L648 54L648 54L144 54z" /></clipPath><clipPath id="40"><path id="" clip-rule="evenodd" transform="matrix(1 0 0 1 0 0)" d="M144 558L648 558L648 558L648 54L648 54L144 54z" /></clipPath><clipPath id="41"><path id="" clip-rule="evenodd" transform="matrix(1 0 0 1 0 0)" d="M144 558L648 558L648 558L648 54L648 54L144 54z" /></clipPath><clipPath id="42"><path id="" clip-rule="evenodd" transform="matrix(1 0 0 1 0 0)" d="M144 558L648 558L648 558L648 54L648 54L144 54z" /></clipPath><clipPath id="43"><path id="" clip-rule="evenodd" transform="matrix(1 0 0 1 0 0)" d="M144 558L648 558L648 558L648 54L648 54L144 54z" /></clipPath><clipPath id="44"><path id="" clip-rule="evenodd" transform="matrix(1 0 0 1 0 0)" d="M144 558L648 558L648 558L648 54L648 54L144 54z" /></clipPath><clipPath id="45"><path id="" clip-rule="evenodd" transform="matrix(1 0 0 1 0 0)" d="M144 558L648 558L648 558L648 54L648 54L144 54z" /></clipPath><clipPath id="46"><path id="" clip-rule="evenodd" transform="matrix(1 0 0 1 0 0)" d="M144 558L648 558L648 558L648 54L648 54L144 54z" /></clipPath><clipPath id="47"><path id="" clip-rule="evenodd" transform="matrix(1 0 0 1 0 0)" d="M144 558L648 558L648 558L648 54L648 54L144 54z" /></clipPath><clipPath id="48"><path id="" clip-rule="evenodd" transform="matrix(1 0 0 1 0 0)" d="M144 558L648 558L648 558L648 54L648 54L144 54z" /></clipPath><clipPath id="49"><path id="" clip-rule="evenodd" transform="matrix(1 0 0 1 0 0)" d="M144 558L648 558L648 558L648 54L648 54L144 54z" /></clipPath><clipPath id="50"><path id="" clip-rule="evenodd" transform="matrix(1 0 0 1 0 0)" d="M144 558L648 558L648 558L648 54L648 54L144 54z" /></clipPath><clipPath id="51"><path id="" clip-rule="evenodd" transform="matrix(1 0 0 1 0 0)" d="M144 558L648 558L648 558L648 54L648 54L144 54z" /></clipPath><clipPath id="52"><path id="" clip-rule="evenodd" transform="matrix(1 0 0 1 0 0)" d="M144 558L648 558L648 558L648 54L648 54L144 54z" /></clipPath><clipPath id="53"><path id="" clip-rule="evenodd" transform="matrix(1 0 0 1 0 0)" d="M144 558L648 558L648 558L648 54L648 54L144 54z" /></clipPath><clipPath id="54"><path id="" clip-rule="evenodd" transform="matrix(1 0 0 1 0 0)" d="M144 558L648 558L648 558L648 54L648 54L144 54z" /></clipPath><clipPath id="55"><path id="" clip-rule="evenodd" transform="matrix(1 0 0 1 0 0)" d="M144 558L648 558L648 558L648 54L648 54L144 54z" /></clipPath><clipPath id="56"><path id="" clip-rule="evenodd" transform="matrix(1 0 0 1 0 0)" d="M144 558L648 558L648 558L648 54L648 54L144 54z" /></clipPath><clipPath id="57"><path id="" clip-rule="evenodd" transform="matrix(1 0 0 1 0 0)" d="M144 558L648 558L648 558L648 54L648 54L144 54z" /></clipPath><clipPath id="58"><path id="" clip-rule="evenodd" transform="matrix(1 0 0 1 0 0)" d="M144 558L648 558L648 558L648 54L648 54L144 54z" /></clipPath><clipPath id="59"><path id="" clip-rule="evenodd" transform="matrix(1 0 0 1 0 0)" d="M144 558L648 558L648 558L648 54L648 54L144 54z" /></clipPath><clipPath id="60"><path id="" clip-rule="evenodd" transform="matrix(1 0 0 1 0 0)" d="M144 558L648 558L648 558L648 54L648 54L144 54z" /></clipPath><clipPath id="61"><path id="" clip-rule="evenodd" transform="matrix(1 0 0 1 0 0)" d="M144 558L648 558L648 558L648 54L648 54L144 54z" /></clipPath><clipPath id="62"><path id="" clip-rule="evenodd" transform="matrix(1 0 0 1 0 0)" d="M144 558L648 558L648 558L648 54L648 54L144 54z" /></clipPath><clipPath id="63"><path id="" clip-rule="evenodd" transform="matrix(1 0 0 1 0 0)" d="M144 558L648 558L648 558L648 54L648 54L144 54z" /></clipPath><clipPath id="64"><path id="" clip-rule="evenodd" transform="matrix(1 0 0 1 0 0)" d="M144 558L648 558L648 558L648 54L648 54L144 54z" /></clipPath></defs><g transform="matrix(1.333333 0 0 1.333333 0 0)"><g clip-path="url(#1)"><g clip-path="url(#2)"></g><g clip-path="url(#3)"></g><g clip-path="url(#4)"></g><g clip-path="url(#5)"></g><g clip-path="url(#6)"></g><g clip-path="url(#7)"></g><g clip-path="url(#8)"></g><g clip-path="url(#9)"></g><g clip-path="url(#10)"></g><g clip-path="url(#11)"></g><g clip-path="url(#12)"><path id="1" transform="matrix(1 0 0 -1 0 612)" d="M144 54L648 54L648 54L648 558L648 558L144 558z" stroke="#FFFFFF" stroke-width="1.07" fill="#FFFFFF" fill-rule="nonzero" /></g><g clip-path="url(#13)"></g><g clip-path="url(#14)"><path id="2" transform="matrix(1 0 0 -1 0 612)" d="M226.49 85.91L642.52 85.91L642.52 534.85L226.49 534.85z" stroke="none" fill="#FFFFFF" fill-rule="nonzero" /><path id="3" transform="matrix(1 0 0 -1 0 612)" d="M306.01 85.91L306.01 534.85" stroke="#EBEBEB" stroke-width="0.53" fill="none" /><path id="4" transform="matrix(1 0 0 -1 0 612)" d="M427.23 85.91L427.23 534.85" stroke="#EBEBEB" stroke-width="0.53" fill="none" /><path id="5" transform="matrix(1 0 0 -1 0 612)" d="M548.45 85.91L548.45 534.85" stroke="#EBEBEB" stroke-width="0.53" fill="none" /><path id="6" transform="matrix(1 0 0 -1 0 612)" d="M226.49 91.28L642.52 91.28" stroke="#EBEBEB" stroke-width="1.07" fill="none" /><path id="7" transform="matrix(1 0 0 -1 0 612)" d="M226.49 100.22L642.52 100.22" stroke="#EBEBEB" stroke-width="1.07" fill="none" /><path id="8" transform="matrix(1 0 0 -1 0 612)" d="M226.49 109.16L642.52 109.16" stroke="#EBEBEB" stroke-width="1.07" fill="none" /><path id="9" transform="matrix(1 0 0 -1 0 612)" d="M226.49 118.11L642.52 118.11" stroke="#EBEBEB" stroke-width="1.07" fill="none" /><path id="10" transform="matrix(1 0 0 -1 0 612)" d="M226.49 127.05L642.52 127.05" stroke="#EBEBEB" stroke-width="1.07" fill="none" /><path id="11" transform="matrix(1 0 0 -1 0 612)" d="M226.49 135.99L642.52 135.99" stroke="#EBEBEB" stroke-width="1.07" fill="none" /><path id="12" transform="matrix(1 0 0 -1 0 612)" d="M226.49 144.93L642.52 144.93" stroke="#EBEBEB" stroke-width="1.07" fill="none" /><path id="13" transform="matrix(1 0 0 -1 0 612)" d="M226.49 153.88L642.52 153.88" stroke="#EBEBEB" stroke-width="1.07" fill="none" /><path id="14" transform="matrix(1 0 0 -1 0 612)" d="M226.49 162.82L642.52 162.82" stroke="#EBEBEB" stroke-width="1.07" fill="none" /><path id="15" transform="matrix(1 0 0 -1 0 612)" d="M226.49 171.76L642.52 171.76" stroke="#EBEBEB" stroke-width="1.07" fill="none" /><path id="16" transform="matrix(1 0 0 -1 0 612)" d="M226.49 180.71L642.52 180.71" stroke="#EBEBEB" stroke-width="1.07" fill="none" /><path id="17" transform="matrix(1 0 0 -1 0 612)" d="M226.49 189.65L642.52 189.65" stroke="#EBEBEB" stroke-width="1.07" fill="none" /><path id="18" transform="matrix(1 0 0 -1 0 612)" d="M226.49 198.59L642.52 198.59" stroke="#EBEBEB" stroke-width="1.07" fill="none" /><path id="19" transform="matrix(1 0 0 -1 0 612)" d="M226.49 207.53L642.52 207.53" stroke="#EBEBEB" stroke-width="1.07" fill="none" /><path id="20" transform="matrix(1 0 0 -1 0 612)" d="M226.49 216.48L642.52 216.48" stroke="#EBEBEB" stroke-width="1.07" fill="none" /><path id="21" transform="matrix(1 0 0 -1 0 612)" d="M226.49 225.42L642.52 225.42" stroke="#EBEBEB" stroke-width="1.07" fill="none" /><path id="22" transform="matrix(1 0 0 -1 0 612)" d="M226.49 234.36L642.52 234.36" stroke="#EBEBEB" stroke-width="1.07" fill="none" /><path id="23" transform="matrix(1 0 0 -1 0 612)" d="M226.49 243.31L642.52 243.31" stroke="#EBEBEB" stroke-width="1.07" fill="none" /><path id="24" transform="matrix(1 0 0 -1 0 612)" d="M226.49 252.25L642.52 252.25" stroke="#EBEBEB" stroke-width="1.07" fill="none" /><path id="25" transform="matrix(1 0 0 -1 0 612)" d="M226.49 261.19L642.52 261.19" stroke="#EBEBEB" stroke-width="1.07" fill="none" /><path id="26" transform="matrix(1 0 0 -1 0 612)" d="M226.49 270.14L642.52 270.14" stroke="#EBEBEB" stroke-width="1.07" fill="none" /><path id="27" transform="matrix(1 0 0 -1 0 612)" d="M226.49 279.08L642.52 279.08" stroke="#EBEBEB" stroke-width="1.07" fill="none" /><path id="28" transform="matrix(1 0 0 -1 0 612)" d="M226.49 288.02L642.52 288.02" stroke="#EBEBEB" stroke-width="1.07" fill="none" /><path id="29" transform="matrix(1 0 0 -1 0 612)" d="M226.49 296.96L642.52 296.96" stroke="#EBEBEB" stroke-width="1.07" fill="none" /><path id="30" transform="matrix(1 0 0 -1 0 612)" d="M226.49 305.91L642.52 305.91" stroke="#EBEBEB" stroke-width="1.07" fill="none" /><path id="31" transform="matrix(1 0 0 -1 0 612)" d="M226.49 314.85L642.52 314.85" stroke="#EBEBEB" stroke-width="1.07" fill="none" /><path id="32" transform="matrix(1 0 0 -1 0 612)" d="M226.49 323.79L642.52 323.79" stroke="#EBEBEB" stroke-width="1.07" fill="none" /><path id="33" transform="matrix(1 0 0 -1 0 612)" d="M226.49 332.74L642.52 332.74" stroke="#EBEBEB" stroke-width="1.07" fill="none" /><path id="34" transform="matrix(1 0 0 -1 0 612)" d="M226.49 341.68L642.52 341.68" stroke="#EBEBEB" stroke-width="1.07" fill="none" /><path id="35" transform="matrix(1 0 0 -1 0 612)" d="M226.49 350.62L642.52 350.62" stroke="#EBEBEB" stroke-width="1.07" fill="none" /><path id="36" transform="matrix(1 0 0 -1 0 612)" d="M226.49 359.57L642.52 359.57" stroke="#EBEBEB" stroke-width="1.07" fill="none" /><path id="37" transform="matrix(1 0 0 -1 0 612)" d="M226.49 368.51L642.52 368.51" stroke="#EBEBEB" stroke-width="1.07" fill="none" /><path id="38" transform="matrix(1 0 0 -1 0 612)" d="M226.49 377.45L642.52 377.45" stroke="#EBEBEB" stroke-width="1.07" fill="none" /><path id="39" transform="matrix(1 0 0 -1 0 612)" d="M226.49 386.39L642.52 386.39" stroke="#EBEBEB" stroke-width="1.07" fill="none" /><path id="40" transform="matrix(1 0 0 -1 0 612)" d="M226.49 395.34L642.52 395.34" stroke="#EBEBEB" stroke-width="1.07" fill="none" /><path id="41" transform="matrix(1 0 0 -1 0 612)" d="M226.49 404.28L642.52 404.28" stroke="#EBEBEB" stroke-width="1.07" fill="none" /><path id="42" transform="matrix(1 0 0 -1 0 612)" d="M226.49 413.22L642.52 413.22" stroke="#EBEBEB" stroke-width="1.07" fill="none" /><path id="43" transform="matrix(1 0 0 -1 0 612)" d="M226.49 422.17L642.52 422.17" stroke="#EBEBEB" stroke-width="1.07" fill="none" /><path id="44" transform="matrix(1 0 0 -1 0 612)" d="M226.49 431.11L642.52 431.11" stroke="#EBEBEB" stroke-width="1.07" fill="none" /><path id="45" transform="matrix(1 0 0 -1 0 612)" d="M226.49 440.05L642.52 440.05" stroke="#EBEBEB" stroke-width="1.07" fill="none" /><path id="46" transform="matrix(1 0 0 -1 0 612)" d="M226.49 448.99L642.52 448.99" stroke="#EBEBEB" stroke-width="1.07" fill="none" /><path id="47" transform="matrix(1 0 0 -1 0 612)" d="M226.49 457.94L642.52 457.94" stroke="#EBEBEB" stroke-width="1.07" fill="none" /><path id="48" transform="matrix(1 0 0 -1 0 612)" d="M226.49 466.88L642.52 466.88" stroke="#EBEBEB" stroke-width="1.07" fill="none" /><path id="49" transform="matrix(1 0 0 -1 0 612)" d="M226.49 475.82L642.52 475.82" stroke="#EBEBEB" stroke-width="1.07" fill="none" /><path id="50" transform="matrix(1 0 0 -1 0 612)" d="M226.49 484.77L642.52 484.77" stroke="#EBEBEB" stroke-width="1.07" fill="none" /><path id="51" transform="matrix(1 0 0 -1 0 612)" d="M226.49 493.71L642.52 493.71" stroke="#EBEBEB" stroke-width="1.07" fill="none" /><path id="52" transform="matrix(1 0 0 -1 0 612)" d="M226.49 502.65L642.52 502.65" stroke="#EBEBEB" stroke-width="1.07" fill="none" /><path id="53" transform="matrix(1 0 0 -1 0 612)" d="M226.49 511.6L642.52 511.6" stroke="#EBEBEB" stroke-width="1.07" fill="none" /><path id="54" transform="matrix(1 0 0 -1 0 612)" d="M226.49 520.54L642.52 520.54" stroke="#EBEBEB" stroke-width="1.07" fill="none" /><path id="55" transform="matrix(1 0 0 -1 0 612)" d="M226.49 529.48L642.52 529.48" stroke="#EBEBEB" stroke-width="1.07" fill="none" /><path id="56" transform="matrix(1 0 0 -1 0 612)" d="M245.4 85.91L245.4 534.85" stroke="#EBEBEB" stroke-width="1.07" fill="none" /><path id="57" transform="matrix(1 0 0 -1 0 612)" d="M366.62 85.91L366.62 534.85" stroke="#EBEBEB" stroke-width="1.07" fill="none" /><path id="58" transform="matrix(1 0 0 -1 0 612)" d="M487.84 85.91L487.84 534.85" stroke="#EBEBEB" stroke-width="1.07" fill="none" /><path id="59" transform="matrix(1 0 0 -1 0 612)" d="M609.06 85.91L609.06 534.85" stroke="#EBEBEB" stroke-width="1.07" fill="none" /><path id="60" transform="matrix(1 0 0 -1 0 612)" d="M245.4 525.46L623.61 525.46L623.61 525.46L623.61 533.51L623.61 533.51L245.4 533.51z" stroke="#FFFFFF" stroke-width="1.07" fill="#85C1E9" fill-rule="nonzero" /><path id="61" transform="matrix(1 0 0 -1 0 612)" d="M245.4 516.51L556.94 516.51L556.94 516.51L556.94 524.56L556.94 524.56L245.4 524.56z" stroke="#FFFFFF" stroke-width="1.07" fill="#85C1E9" fill-rule="nonzero" /><path id="62" transform="matrix(1 0 0 -1 0 612)" d="M245.4 507.57L548.45 507.57L548.45 507.57L548.45 515.62L548.45 515.62L245.4 515.62z" stroke="#FFFFFF" stroke-width="1.07" fill="#85C1E9" fill-rule="nonzero" /><path id="63" transform="matrix(1 0 0 -1 0 612)" d="M245.4 498.63L428.44 498.63L428.44 498.63L428.44 506.68L428.44 506.68L245.4 506.68z" stroke="#FFFFFF" stroke-width="1.07" fill="#85C1E9" fill-rule="nonzero" /><path id="64" transform="matrix(1 0 0 -1 0 612)" d="M245.4 489.69L356.92 489.69L356.92 489.69L356.92 497.74L356.92 497.74L245.4 497.74z" stroke="#FFFFFF" stroke-width="1.07" fill="#85C1E9" fill-rule="nonzero" /><path id="65" transform="matrix(1 0 0 -1 0 612)" d="M245.4 480.74L355.71 480.74L355.71 480.74L355.71 488.79L355.71 488.79L245.4 488.79z" stroke="#FFFFFF" stroke-width="1.07" fill="#85C1E9" fill-rule="nonzero" /><path id="66" transform="matrix(1 0 0 -1 0 612)" d="M245.4 471.8L353.29 471.8L353.29 471.8L353.29 479.85L353.29 479.85L245.4 479.85z" stroke="#FFFFFF" stroke-width="1.07" fill="#85C1E9" fill-rule="nonzero" /><path id="67" transform="matrix(1 0 0 -1 0 612)" d="M245.4 462.86L336.32 462.86L336.32 462.86L336.32 470.91L336.32 470.91L245.4 470.91z" stroke="#FFFFFF" stroke-width="1.07" fill="#85C1E9" fill-rule="nonzero" /><path id="68" transform="matrix(1 0 0 -1 0 612)" d="M245.4 453.91L308.43 453.91L308.43 453.91L308.43 461.96L308.43 461.96L245.4 461.96z" stroke="#FFFFFF" stroke-width="1.07" fill="#85C1E9" fill-rule="nonzero" /><path id="69" transform="matrix(1 0 0 -1 0 612)" d="M245.4 444.97L303.59 444.97L303.59 444.97L303.59 453.02L303.59 453.02L245.4 453.02z" stroke="#FFFFFF" stroke-width="1.07" fill="#85C1E9" fill-rule="nonzero" /><path id="70" transform="matrix(1 0 0 -1 0 612)" d="M245.4 436.03L296.31 436.03L296.31 436.03L296.31 444.08L296.31 444.08L245.4 444.08z" stroke="#FFFFFF" stroke-width="1.07" fill="#85C1E9" fill-rule="nonzero" /><path id="71" transform="matrix(1 0 0 -1 0 612)" d="M245.4 427.08L293.89 427.08L293.89 427.08L293.89 435.13L293.89 435.13L245.4 435.13z" stroke="#FFFFFF" stroke-width="1.07" fill="#85C1E9" fill-rule="nonzero" /><path id="72" transform="matrix(1 0 0 -1 0 612)" d="M245.4 418.14L289.04 418.14L289.04 418.14L289.04 426.19L289.04 426.19L245.4 426.19z" stroke="#FFFFFF" stroke-width="1.07" fill="#85C1E9" fill-rule="nonzero" /><path id="73" transform="matrix(1 0 0 -1 0 612)" d="M245.4 409.2L284.19 409.2L284.19 409.2L284.19 417.25L284.19 417.25L245.4 417.25z" stroke="#FFFFFF" stroke-width="1.07" fill="#85C1E9" fill-rule="nonzero" /><path id="74" transform="matrix(1 0 0 -1 0 612)" d="M245.4 400.26L281.77 400.26L281.77 400.26L281.77 408.31L281.77 408.31L245.4 408.31z" stroke="#FFFFFF" stroke-width="1.07" fill="#85C1E9" fill-rule="nonzero" /><path id="75" transform="matrix(1 0 0 -1 0 612)" d="M245.4 391.31L281.77 391.31L281.77 391.31L281.77 399.36L281.77 399.36L245.4 399.36z" stroke="#FFFFFF" stroke-width="1.07" fill="#85C1E9" fill-rule="nonzero" /><path id="76" transform="matrix(1 0 0 -1 0 612)" d="M245.4 382.37L279.34 382.37L279.34 382.37L279.34 390.42L279.34 390.42L245.4 390.42z" stroke="#FFFFFF" stroke-width="1.07" fill="#85C1E9" fill-rule="nonzero" /><path id="77" transform="matrix(1 0 0 -1 0 612)" d="M245.4 373.43L279.34 373.43L279.34 373.43L279.34 381.48L279.34 381.48L245.4 381.48z" stroke="#FFFFFF" stroke-width="1.07" fill="#85C1E9" fill-rule="nonzero" /><path id="78" transform="matrix(1 0 0 -1 0 612)" d="M245.4 364.48L279.34 364.48L279.34 364.48L279.34 372.53L279.34 372.53L245.4 372.53z" stroke="#FFFFFF" stroke-width="1.07" fill="#85C1E9" fill-rule="nonzero" /><path id="79" transform="matrix(1 0 0 -1 0 612)" d="M245.4 355.54L278.13 355.54L278.13 355.54L278.13 363.59L278.13 363.59L245.4 363.59z" stroke="#FFFFFF" stroke-width="1.07" fill="#85C1E9" fill-rule="nonzero" /><path id="80" transform="matrix(1 0 0 -1 0 612)" d="M245.4 346.6L278.13 346.6L278.13 346.6L278.13 354.65L278.13 354.65L245.4 354.65z" stroke="#FFFFFF" stroke-width="1.07" fill="#85C1E9" fill-rule="nonzero" /><path id="81" transform="matrix(1 0 0 -1 0 612)" d="M245.4 337.65L276.92 337.65L276.92 337.65L276.92 345.7L276.92 345.7L245.4 345.7z" stroke="#FFFFFF" stroke-width="1.07" fill="#85C1E9" fill-rule="nonzero" /><path id="82" transform="matrix(1 0 0 -1 0 612)" d="M245.4 328.71L276.92 328.71L276.92 328.71L276.92 336.76L276.92 336.76L245.4 336.76z" stroke="#FFFFFF" stroke-width="1.07" fill="#85C1E9" fill-rule="nonzero" /><path id="83" transform="matrix(1 0 0 -1 0 612)" d="M245.4 319.77L276.92 319.77L276.92 319.77L276.92 327.82L276.92 327.82L245.4 327.82z" stroke="#FFFFFF" stroke-width="1.07" fill="#85C1E9" fill-rule="nonzero" /><path id="84" transform="matrix(1 0 0 -1 0 612)" d="M245.4 310.83L275.71 310.83L275.71 310.83L275.71 318.88L275.71 318.88L245.4 318.88z" stroke="#FFFFFF" stroke-width="1.07" fill="#85C1E9" fill-rule="nonzero" /><path id="85" transform="matrix(1 0 0 -1 0 612)" d="M245.4 301.88L274.49 301.88L274.49 301.88L274.49 309.93L274.49 309.93L245.4 309.93z" stroke="#FFFFFF" stroke-width="1.07" fill="#85C1E9" fill-rule="nonzero" /><path id="86" transform="matrix(1 0 0 -1 0 612)" d="M245.4 292.94L274.49 292.94L274.49 292.94L274.49 300.99L274.49 300.99L245.4 300.99z" stroke="#FFFFFF" stroke-width="1.07" fill="#85C1E9" fill-rule="nonzero" /><path id="87" transform="matrix(1 0 0 -1 0 612)" d="M245.4 284L274.49 284L274.49 284L274.49 292.05L274.49 292.05L245.4 292.05z" stroke="#FFFFFF" stroke-width="1.07" fill="#85C1E9" fill-rule="nonzero" /><path id="88" transform="matrix(1 0 0 -1 0 612)" d="M245.4 275.05L274.49 275.05L274.49 275.05L274.49 283.1L274.49 283.1L245.4 283.1z" stroke="#FFFFFF" stroke-width="1.07" fill="#85C1E9" fill-rule="nonzero" /><path id="89" transform="matrix(1 0 0 -1 0 612)" d="M245.4 266.11L274.49 266.11L274.49 266.11L274.49 274.16L274.49 274.16L245.4 274.16z" stroke="#FFFFFF" stroke-width="1.07" fill="#85C1E9" fill-rule="nonzero" /><path id="90" transform="matrix(1 0 0 -1 0 612)" d="M245.4 257.17L273.28 257.17L273.28 257.17L273.28 265.22L273.28 265.22L245.4 265.22z" stroke="#FFFFFF" stroke-width="1.07" fill="#85C1E9" fill-rule="nonzero" /><path id="91" transform="matrix(1 0 0 -1 0 612)" d="M245.4 248.23L272.07 248.23L272.07 248.23L272.07 256.28L272.07 256.28L245.4 256.28z" stroke="#FFFFFF" stroke-width="1.07" fill="#85C1E9" fill-rule="nonzero" /><path id="92" transform="matrix(1 0 0 -1 0 612)" d="M245.4 239.28L270.86 239.28L270.86 239.28L270.86 247.33L270.86 247.33L245.4 247.33z" stroke="#FFFFFF" stroke-width="1.07" fill="#85C1E9" fill-rule="nonzero" /><path id="93" transform="matrix(1 0 0 -1 0 612)" d="M245.4 230.34L269.64 230.34L269.64 230.34L269.64 238.39L269.64 238.39L245.4 238.39z" stroke="#FFFFFF" stroke-width="1.07" fill="#85C1E9" fill-rule="nonzero" /><path id="94" transform="matrix(1 0 0 -1 0 612)" d="M245.4 221.4L269.64 221.4L269.64 221.4L269.64 229.45L269.64 229.45L245.4 229.45z" stroke="#FFFFFF" stroke-width="1.07" fill="#85C1E9" fill-rule="nonzero" /><path id="95" transform="matrix(1 0 0 -1 0 612)" d="M245.4 212.45L269.64 212.45L269.64 212.45L269.64 220.5L269.64 220.5L245.4 220.5z" stroke="#FFFFFF" stroke-width="1.07" fill="#85C1E9" fill-rule="nonzero" /><path id="96" transform="matrix(1 0 0 -1 0 612)" d="M245.4 203.51L269.64 203.51L269.64 203.51L269.64 211.56L269.64 211.56L245.4 211.56z" stroke="#FFFFFF" stroke-width="1.07" fill="#85C1E9" fill-rule="nonzero" /><path id="97" transform="matrix(1 0 0 -1 0 612)" d="M245.4 194.57L269.64 194.57L269.64 194.57L269.64 202.62L269.64 202.62L245.4 202.62z" stroke="#FFFFFF" stroke-width="1.07" fill="#85C1E9" fill-rule="nonzero" /><path id="98" transform="matrix(1 0 0 -1 0 612)" d="M245.4 185.62L268.43 185.62L268.43 185.62L268.43 193.67L268.43 193.67L245.4 193.67z" stroke="#FFFFFF" stroke-width="1.07" fill="#85C1E9" fill-rule="nonzero" /><path id="99" transform="matrix(1 0 0 -1 0 612)" d="M245.4 176.68L267.22 176.68L267.22 176.68L267.22 184.73L267.22 184.73L245.4 184.73z" stroke="#FFFFFF" stroke-width="1.07" fill="#85C1E9" fill-rule="nonzero" /><path id="100" transform="matrix(1 0 0 -1 0 612)" d="M245.4 167.74L267.22 167.74L267.22 167.74L267.22 175.79L267.22 175.79L245.4 175.79z" stroke="#FFFFFF" stroke-width="1.07" fill="#85C1E9" fill-rule="nonzero" /><path id="101" transform="matrix(1 0 0 -1 0 612)" d="M245.4 158.8L267.22 158.8L267.22 158.8L267.22 166.85L267.22 166.85L245.4 166.85z" stroke="#FFFFFF" stroke-width="1.07" fill="#85C1E9" fill-rule="nonzero" /><path id="102" transform="matrix(1 0 0 -1 0 612)" d="M245.4 149.85L267.22 149.85L267.22 149.85L267.22 157.9L267.22 157.9L245.4 157.9z" stroke="#FFFFFF" stroke-width="1.07" fill="#85C1E9" fill-rule="nonzero" /><path id="103" transform="matrix(1 0 0 -1 0 612)" d="M245.4 140.91L267.22 140.91L267.22 140.91L267.22 148.96L267.22 148.96L245.4 148.96z" stroke="#FFFFFF" stroke-width="1.07" fill="#85C1E9" fill-rule="nonzero" /><path id="104" transform="matrix(1 0 0 -1 0 612)" d="M245.4 131.97L267.22 131.97L267.22 131.97L267.22 140.02L267.22 140.02L245.4 140.02z" stroke="#FFFFFF" stroke-width="1.07" fill="#85C1E9" fill-rule="nonzero" /><path id="105" transform="matrix(1 0 0 -1 0 612)" d="M245.4 123.02L267.22 123.02L267.22 123.02L267.22 131.07L267.22 131.07L245.4 131.07z" stroke="#FFFFFF" stroke-width="1.07" fill="#85C1E9" fill-rule="nonzero" /><path id="106" transform="matrix(1 0 0 -1 0 612)" d="M245.4 114.08L266.01 114.08L266.01 114.08L266.01 122.13L266.01 122.13L245.4 122.13z" stroke="#FFFFFF" stroke-width="1.07" fill="#85C1E9" fill-rule="nonzero" /><path id="107" transform="matrix(1 0 0 -1 0 612)" d="M245.4 105.14L266.01 105.14L266.01 105.14L266.01 113.19L266.01 113.19L245.4 113.19z" stroke="#FFFFFF" stroke-width="1.07" fill="#85C1E9" fill-rule="nonzero" /><path id="108" transform="matrix(1 0 0 -1 0 612)" d="M245.4 96.2L266.01 96.2L266.01 96.2L266.01 104.25L266.01 104.25L245.4 104.25z" stroke="#FFFFFF" stroke-width="1.07" fill="#85C1E9" fill-rule="nonzero" /><path id="109" transform="matrix(1 0 0 -1 0 612)" d="M245.4 87.25L266.01 87.25L266.01 87.25L266.01 95.3L266.01 95.3L245.4 95.3z" stroke="#FFFFFF" stroke-width="1.07" fill="#85C1E9" fill-rule="nonzero" /><path id="314" transform="matrix(1 0 0 -1 0 612)" d="M226.49 85.91L642.52 85.91L642.52 85.91L642.52 534.85L642.52 534.85L226.49 534.85z" stroke="#323232" stroke-width="1.07" stroke-linecap="round" fill="none" /></g><g clip-path="url(#15)"></g><g clip-path="url(#16)"></g><g clip-path="url(#17)"></g><g clip-path="url(#18)"></g><g clip-path="url(#19)"></g><g clip-path="url(#20)"></g><g clip-path="url(#21)"></g><g clip-path="url(#22)"></g><g clip-path="url(#23)"></g><g clip-path="url(#24)"></g><g clip-path="url(#25)"></g><g clip-path="url(#26)"></g><g clip-path="url(#27)"></g><g clip-path="url(#28)"></g><g clip-path="url(#29)"></g><g clip-path="url(#30)"></g><g clip-path="url(#31)"></g><g clip-path="url(#32)"><path id="707" transform="matrix(1 0 0 -1 0 612)" d="M223.75 91.28L226.49 91.28" stroke="#323232" stroke-width="1.07" fill="none" /><path id="708" transform="matrix(1 0 0 -1 0 612)" d="M223.75 100.22L226.49 100.22" stroke="#323232" stroke-width="1.07" fill="none" /><path id="709" transform="matrix(1 0 0 -1 0 612)" d="M223.75 109.16L226.49 109.16" stroke="#323232" stroke-width="1.07" fill="none" /><path id="710" transform="matrix(1 0 0 -1 0 612)" d="M223.75 118.11L226.49 118.11" stroke="#323232" stroke-width="1.07" fill="none" /><path id="711" transform="matrix(1 0 0 -1 0 612)" d="M223.75 127.05L226.49 127.05" stroke="#323232" stroke-width="1.07" fill="none" /><path id="712" transform="matrix(1 0 0 -1 0 612)" d="M223.75 135.99L226.49 135.99" stroke="#323232" stroke-width="1.07" fill="none" /><path id="713" transform="matrix(1 0 0 -1 0 612)" d="M223.75 144.93L226.49 144.93" stroke="#323232" stroke-width="1.07" fill="none" /><path id="714" transform="matrix(1 0 0 -1 0 612)" d="M223.75 153.88L226.49 153.88" stroke="#323232" stroke-width="1.07" fill="none" /><path id="715" transform="matrix(1 0 0 -1 0 612)" d="M223.75 162.82L226.49 162.82" stroke="#323232" stroke-width="1.07" fill="none" /><path id="716" transform="matrix(1 0 0 -1 0 612)" d="M223.75 171.76L226.49 171.76" stroke="#323232" stroke-width="1.07" fill="none" /><path id="717" transform="matrix(1 0 0 -1 0 612)" d="M223.75 180.71L226.49 180.71" stroke="#323232" stroke-width="1.07" fill="none" /><path id="718" transform="matrix(1 0 0 -1 0 612)" d="M223.75 189.65L226.49 189.65" stroke="#323232" stroke-width="1.07" fill="none" /><path id="719" transform="matrix(1 0 0 -1 0 612)" d="M223.75 198.59L226.49 198.59" stroke="#323232" stroke-width="1.07" fill="none" /><path id="720" transform="matrix(1 0 0 -1 0 612)" d="M223.75 207.53L226.49 207.53" stroke="#323232" stroke-width="1.07" fill="none" /><path id="721" transform="matrix(1 0 0 -1 0 612)" d="M223.75 216.48L226.49 216.48" stroke="#323232" stroke-width="1.07" fill="none" /><path id="722" transform="matrix(1 0 0 -1 0 612)" d="M223.75 225.42L226.49 225.42" stroke="#323232" stroke-width="1.07" fill="none" /><path id="723" transform="matrix(1 0 0 -1 0 612)" d="M223.75 234.36L226.49 234.36" stroke="#323232" stroke-width="1.07" fill="none" /><path id="724" transform="matrix(1 0 0 -1 0 612)" d="M223.75 243.31L226.49 243.31" stroke="#323232" stroke-width="1.07" fill="none" /><path id="725" transform="matrix(1 0 0 -1 0 612)" d="M223.75 252.25L226.49 252.25" stroke="#323232" stroke-width="1.07" fill="none" /><path id="726" transform="matrix(1 0 0 -1 0 612)" d="M223.75 261.19L226.49 261.19" stroke="#323232" stroke-width="1.07" fill="none" /><path id="727" transform="matrix(1 0 0 -1 0 612)" d="M223.75 270.14L226.49 270.14" stroke="#323232" stroke-width="1.07" fill="none" /><path id="728" transform="matrix(1 0 0 -1 0 612)" d="M223.75 279.08L226.49 279.08" stroke="#323232" stroke-width="1.07" fill="none" /><path id="729" transform="matrix(1 0 0 -1 0 612)" d="M223.75 288.02L226.49 288.02" stroke="#323232" stroke-width="1.07" fill="none" /><path id="730" transform="matrix(1 0 0 -1 0 612)" d="M223.75 296.96L226.49 296.96" stroke="#323232" stroke-width="1.07" fill="none" /><path id="731" transform="matrix(1 0 0 -1 0 612)" d="M223.75 305.91L226.49 305.91" stroke="#323232" stroke-width="1.07" fill="none" /><path id="732" transform="matrix(1 0 0 -1 0 612)" d="M223.75 314.85L226.49 314.85" stroke="#323232" stroke-width="1.07" fill="none" /><path id="733" transform="matrix(1 0 0 -1 0 612)" d="M223.75 323.79L226.49 323.79" stroke="#323232" stroke-width="1.07" fill="none" /><path id="734" transform="matrix(1 0 0 -1 0 612)" d="M223.75 332.74L226.49 332.74" stroke="#323232" stroke-width="1.07" fill="none" /><path id="735" transform="matrix(1 0 0 -1 0 612)" d="M223.75 341.68L226.49 341.68" stroke="#323232" stroke-width="1.07" fill="none" /><path id="736" transform="matrix(1 0 0 -1 0 612)" d="M223.75 350.62L226.49 350.62" stroke="#323232" stroke-width="1.07" fill="none" /><path id="737" transform="matrix(1 0 0 -1 0 612)" d="M223.75 359.57L226.49 359.57" stroke="#323232" stroke-width="1.07" fill="none" /><path id="738" transform="matrix(1 0 0 -1 0 612)" d="M223.75 368.51L226.49 368.51" stroke="#323232" stroke-width="1.07" fill="none" /><path id="739" transform="matrix(1 0 0 -1 0 612)" d="M223.75 377.45L226.49 377.45" stroke="#323232" stroke-width="1.07" fill="none" /><path id="740" transform="matrix(1 0 0 -1 0 612)" d="M223.75 386.39L226.49 386.39" stroke="#323232" stroke-width="1.07" fill="none" /><path id="741" transform="matrix(1 0 0 -1 0 612)" d="M223.75 395.34L226.49 395.34" stroke="#323232" stroke-width="1.07" fill="none" /><path id="742" transform="matrix(1 0 0 -1 0 612)" d="M223.75 404.28L226.49 404.28" stroke="#323232" stroke-width="1.07" fill="none" /><path id="743" transform="matrix(1 0 0 -1 0 612)" d="M223.75 413.22L226.49 413.22" stroke="#323232" stroke-width="1.07" fill="none" /><path id="744" transform="matrix(1 0 0 -1 0 612)" d="M223.75 422.17L226.49 422.17" stroke="#323232" stroke-width="1.07" fill="none" /><path id="745" transform="matrix(1 0 0 -1 0 612)" d="M223.75 431.11L226.49 431.11" stroke="#323232" stroke-width="1.07" fill="none" /><path id="746" transform="matrix(1 0 0 -1 0 612)" d="M223.75 440.05L226.49 440.05" stroke="#323232" stroke-width="1.07" fill="none" /><path id="747" transform="matrix(1 0 0 -1 0 612)" d="M223.75 448.99L226.49 448.99" stroke="#323232" stroke-width="1.07" fill="none" /><path id="748" transform="matrix(1 0 0 -1 0 612)" d="M223.75 457.94L226.49 457.94" stroke="#323232" stroke-width="1.07" fill="none" /><path id="749" transform="matrix(1 0 0 -1 0 612)" d="M223.75 466.88L226.49 466.88" stroke="#323232" stroke-width="1.07" fill="none" /><path id="750" transform="matrix(1 0 0 -1 0 612)" d="M223.75 475.82L226.49 475.82" stroke="#323232" stroke-width="1.07" fill="none" /><path id="751" transform="matrix(1 0 0 -1 0 612)" d="M223.75 484.77L226.49 484.77" stroke="#323232" stroke-width="1.07" fill="none" /><path id="752" transform="matrix(1 0 0 -1 0 612)" d="M223.75 493.71L226.49 493.71" stroke="#323232" stroke-width="1.07" fill="none" /><path id="753" transform="matrix(1 0 0 -1 0 612)" d="M223.75 502.65L226.49 502.65" stroke="#323232" stroke-width="1.07" fill="none" /><path id="754" transform="matrix(1 0 0 -1 0 612)" d="M223.75 511.6L226.49 511.6" stroke="#323232" stroke-width="1.07" fill="none" /><path id="755" transform="matrix(1 0 0 -1 0 612)" d="M223.75 520.54L226.49 520.54" stroke="#323232" stroke-width="1.07" fill="none" /><path id="756" transform="matrix(1 0 0 -1 0 612)" d="M223.75 529.48L226.49 529.48" stroke="#323232" stroke-width="1.07" fill="none" /></g><g clip-path="url(#33)"></g><g clip-path="url(#34)"></g><g clip-path="url(#35)"></g><g clip-path="url(#36)"></g><g clip-path="url(#37)"></g><g clip-path="url(#38)"></g><g clip-path="url(#39)"></g><g clip-path="url(#40)"></g><g clip-path="url(#41)"></g><g clip-path="url(#42)"><path id="757" transform="matrix(1 0 0 -1 0 612)" d="M245.4 83.17L245.4 85.91" stroke="#323232" stroke-width="1.07" fill="none" /><path id="758" transform="matrix(1 0 0 -1 0 612)" d="M366.62 83.17L366.62 85.91" stroke="#323232" stroke-width="1.07" fill="none" /><path id="759" transform="matrix(1 0 0 -1 0 612)" d="M487.84 83.17L487.84 85.91" stroke="#323232" stroke-width="1.07" fill="none" /><path id="760" transform="matrix(1 0 0 -1 0 612)" d="M609.06 83.17L609.06 85.91" stroke="#323232" stroke-width="1.07" fill="none" /></g><g clip-path="url(#43)"></g><g clip-path="url(#44)"></g><g clip-path="url(#45)"></g><g clip-path="url(#46)"></g><g clip-path="url(#47)"></g><g clip-path="url(#48)"></g><g clip-path="url(#49)"></g><g clip-path="url(#50)"></g><g clip-path="url(#51)"></g><g clip-path="url(#52)"><path id="780" transform="matrix(1 0 0 -1 0 612)" d="M157.38 299.6236L149.506 297.5343L149.506 297.5343L149.506 298.6031L149.506 298.6031L154.6676 299.8009C 155.2083 299.9298 155.7454 300.0408 156.2789 300.1339C 155.4375 300.3344 154.9523 300.4526 154.8234 300.4884L154.8234 300.4884L149.506 301.9869L149.506 301.9869L149.506 303.2437L149.506 303.2437L153.4913 304.3717C 154.4796 304.6545 155.4088 304.8586 156.2789 304.984C 155.7812 305.0842 155.2101 305.2149 154.5656 305.3761L154.5656 305.3761L149.506 306.6114L149.506 306.6114L149.506 307.6588L149.506 307.6588L157.38 305.4996L157.38 305.4996L157.38 304.4952L157.38 304.4952L151.3805 302.8355C 150.8792 302.6959 150.5712 302.6135 150.4567 302.5885C 150.8183 302.5061 151.1263 302.4291 151.3805 302.3575L151.3805 302.3575L157.38 300.6871z" stroke="none" fill="#000000" fill-rule="evenodd" /><path id="781" transform="matrix(1 0 0 -1 0 612)" d="M154.528 307.8192C 153.4716 307.8192 152.6893 308.1128 152.1808 308.7001C 151.7583 309.1906 151.547 309.7886 151.547 310.494C 151.547 312.0624 152.6355 313.1635 154.4474 313.1635C 155.1814 313.1635 155.7588 313.0533 156.1796 312.8331C 156.6003 312.6129 156.927 312.2924 157.1598 311.8717C 157.3925 311.451 157.5089 310.9917 157.5089 310.494C 157.5089 308.897 156.4544 307.8192 154.528 307.8192zM154.528 308.8129C 155.9889 308.8129 156.714 309.5272 156.714 310.494C 156.714 311.4536 155.9925 312.1698 154.4957 312.1698C 153.0849 312.1698 152.3473 311.4465 152.3473 310.494C 152.3473 309.5272 153.067 308.8129 154.528 308.8129z" stroke="none" fill="#000000" fill-rule="evenodd" /><path id="782" transform="matrix(1 0 0 -1 0 612)" d="M157.38 314.2843L151.6759 314.2843L151.6759 314.2843L151.6759 315.1544L151.6759 315.1544L152.5406 315.1544C 151.7314 315.5984 151.547 315.9386 151.547 316.3898C 151.547 316.7156 151.6508 317.0469 151.8585 317.3835L151.8585 317.3835L152.7555 317.0504C 152.6158 316.8141 152.546 316.5778 152.546 316.3415C 152.546 315.9189 152.8146 315.5555 153.2657 315.4123C 153.6095 315.3048 153.9855 315.2511 154.3937 315.2511L154.3937 315.2511L157.38 315.2511z" stroke="none" fill="#000000" fill-rule="evenodd" /><path id="783" transform="matrix(1 0 0 -1 0 612)" d="M157.38 321.6588L156.6603 321.6588C 157.226 321.2971 157.5089 320.7654 157.5089 320.0635C 157.5089 319.6088 157.3836 319.1907 157.1329 318.8094C 156.8823 318.428 156.5323 318.1326 156.0829 317.9232C 155.6335 317.7137 155.117 317.6089 154.5333 317.6089C 153.964 317.6089 153.4475 317.7039 152.9838 317.8936C 152.5201 318.0834 152.1647 318.3681 151.9176 318.7476C 151.6705 319.1272 151.547 319.5515 151.547 320.0206C 151.547 320.7081 151.8657 321.2577 152.3312 321.5943L152.3312 321.5943L149.506 321.5943L149.506 321.5943L149.506 322.5557L149.506 322.5557L157.38 322.5557zM154.5333 318.6026C 155.9943 318.6026 156.714 319.317 156.714 320.1548C 156.714 320.9999 156.0319 321.6749 154.6139 321.6749C 153.0527 321.6749 152.3473 320.9927 152.3473 320.1119C 152.3473 319.2525 153.0223 318.6026 154.5333 318.6026z" stroke="none" fill="#000000" fill-rule="evenodd" /></g><g clip-path="url(#53)"></g><g clip-path="url(#54)"></g><g clip-path="url(#55)"></g><g clip-path="url(#56)"></g><g clip-path="url(#57)"></g><g clip-path="url(#58)"></g><g clip-path="url(#59)"></g><g clip-path="url(#60)"></g><g clip-path="url(#61)"></g><g clip-path="url(#62)"></g><g clip-path="url(#63)"></g><g clip-path="url(#64)"></g></g></g></svg>