<svg xmlns="http://www.w3.org/2000/svg" xmlns:xlink="http://www.w3.org/1999/xlink" id="body_8" preserveAspectRatio="xMinYMin meet" viewBox="0 0 1056 816"><defs><clipPath id="1"><path id="" clip-rule="evenodd" transform="matrix(1 0 0 1 0 0)" d="M0 612L0 0L0 0L792 0L792 0L792 612L792 612L0 612z" /></clipPath><clipPath id="2"><path id="" clip-rule="evenodd" transform="matrix(1 0 0 1 0 0)" d="M144 558L648 558L648 558L648 54L648 54L144 54z" /></clipPath><clipPath id="3"><path id="" clip-rule="evenodd" transform="matrix(1 0 0 1 0 0)" d="M144 558L648 558L648 558L648 54L648 54L144 54z" /></clipPath><clipPath id="4"><path id="" clip-rule="evenodd" transform="matrix(1 0 0 1 0 0)" d="M144 558L648 558L648 558L648 54L648 54L144 54z" /></clipPath><clipPath id="5"><path id="" clip-rule="evenodd" transform="matrix(1 0 0 1 0 0)" d="M144 558L648 558L648 558L648 54L648 54L144 54z" /></clipPath><clipPath id="6"><path id="" clip-rule="evenodd" transform="matrix(1 0 0 1 0 0)" d="M144 558L648 558L648 558L648 54L648 54L144 54z" /></clipPath><clipPath id="7"><path id="" clip-rule="evenodd" transform="matrix(1 0 0 1 0 0)" d="M144 558L648 558L648 558L648 54L648 54L144 54z" /></clipPath><clipPath id="8"><path id="" clip-rule="evenodd" transform="matrix(1 0 0 1 0 0)" d="M144 558L648 558L648 558L648 54L648 54L144 54z" /></clipPath><clipPath id="9"><path id="" clip-rule="evenodd" transform="matrix(1 0 0 1 0 0)" d="M144 558L648 558L648 558L648 54L648 54L144 54z" /></clipPath><clipPath id="10"><path id="" clip-rule="evenodd" transform="matrix(1 0 0 1 0 0)" d="M144 558L648 558L648 558L648 54L648 54L144 54z" /></clipPath><clipPath id="11"><path id="" clip-rule="evenodd" transform="matrix(1 0 0 1 0 0)" d="M144 558L648 558L648 558L648 54L648 54L144 54z" /></clipPath><clipPath id="12"><path id="" clip-rule="evenodd" transform="matrix(1 0 0 1 0 0)" d="M144 558L648 558L648 558L648 54L648 54L144 54z" /></clipPath><clipPath id="13"><path id="" clip-rule="evenodd" transform="matrix(1 0 0 1 0 0)" d="M144 558L648 558L648 558L648 54L648 54L144 54z" /></clipPath><clipPath id="14"><path id="" clip-rule="evenodd" transform="matrix(1 0 0 1 0 0)" d="M220.03 526.09L642.52 526.09L642.52 526.09L642.52 77.15002L642.52 77.15002L220.03 77.15002z" /></clipPath><clipPath id="15"><path id="" clip-rule="evenodd" transform="matrix(1 0 0 1 0 0)" d="M144 558L648 558L648 558L648 54L648 54L144 54z" /></clipPath><clipPath id="16"><path id="" clip-rule="evenodd" transform="matrix(1 0 0 1 0 0)" d="M144 558L648 558L648 558L648 54L648 54L144 54z" /></clipPath><clipPath id="17"><path id="" clip-rule="evenodd" transform="matrix(1 0 0 1 0 0)" d="M144 558L648 558L648 558L648 54L648 54L144 54z" /></clipPath><clipPath id="18"><path id="" clip-rule="evenodd" transform="matrix(1 0 0 1 0 0)" d="M144 558L648 558L648 558L648 54L648 54L144 54z" /></clipPath><clipPath id="19"><path id="" clip-rule="evenodd" transform="matrix(1 0 0 1 0 0)" d="M144 558L648 558L648 558L648 54L648 54L144 54z" /></clipPath><clipPath id="20"><path id="" clip-rule="evenodd" transform="matrix(1 0 0 1 0 0)" d="M144 558L648 558L648 558L648 54L648 54L144 54z" /></clipPath><clipPath id="21"><path id="" clip-rule="evenodd" transform="matrix(1 0 0 1 0 0)" d="M144 558L648 558L648 558L648 54L648 54L144 54z" /></clipPath><clipPath id="22"><path id="" clip-rule="evenodd" transform="matrix(1 0 0 1 0 0)" d="M144 558L648 558L648 558L648 54L648 54L144 54z" /></clipPath><clipPath id="23"><path id="" clip-rule="evenodd" transform="matrix(1 0 0 1 0 0)" d="M144 558L648 558L648 558L648 54L648 54L144 54z" /></clipPath><clipPath id="24"><path id="" clip-rule="evenodd" transform="matrix(1 0 0 1 0 0)" d="M144 558L648 558L648 558L648 54L648 54L144 54z" /></clipPath><clipPath id="25"><path id="" clip-rule="evenodd" transform="matrix(1 0 0 1 0 0)" d="M144 558L648 558L648 558L648 54L648 54L144 54z" /></clipPath><clipPath id="26"><path id="" clip-rule="evenodd" transform="matrix(1 0 0 1 0 0)" d="M144 558L648 558L648 558L648 54L648 54L144 54z" /></clipPath><clipPath id="27"><path id="" clip-rule="evenodd" transform="matrix(1 0 0 1 0 0)" d="M144 558L648 558L648 558L648 54L648 54L144 54z" /></clipPath><clipPath id="28"><path id="" clip-rule="evenodd" transform="matrix(1 0 0 1 0 0)" d="M144 558L648 558L648 558L648 54L648 54L144 54z" /></clipPath><clipPath id="29"><path id="" clip-rule="evenodd" transform="matrix(1 0 0 1 0 0)" d="M144 558L648 558L648 558L648 54L648 54L144 54z" /></clipPath><clipPath id="30"><path id="" clip-rule="evenodd" transform="matrix(1 0 0 1 0 0)" d="M144 558L648 558L648 558L648 54L648 54L144 54z" /></clipPath><clipPath id="31"><path id="" clip-rule="evenodd" transform="matrix(1 0 0 1 0 0)" d="M144 558L648 558L648 558L648 54L648 54L144 54z" /></clipPath><clipPath id="32"><path id="" clip-rule="evenodd" transform="matrix(1 0 0 1 0 0)" d="M144 558L648 558L648 558L648 54L648 54L144 54z" /></clipPath><clipPath id="33"><path id="" clip-rule="evenodd" transform="matrix(1 0 0 1 0 0)" d="M144 558L648 558L648 558L648 54L648 54L144 54z" /></clipPath><clipPath id="34"><path id="" clip-rule="evenodd" transform="matrix(1 0 0 1 0 0)" d="M144 558L648 558L648 558L648 54L648 54L144 54z" /></clipPath><clipPath id="35"><path id="" clip-rule="evenodd" transform="matrix(1 0 0 1 0 0)" d="M144 558L648 558L648 558L648 54L648 54L144 54z" /></clipPath><clipPath id="36"><path id="" clip-rule="evenodd" transform="matrix(1 0 0 1 0 0)" d="M144 558L648 558L648 558L648 54L648 54L144 54z" /></clipPath><clipPath id="37"><path id="" clip-rule="evenodd" transform="matrix(1 0 0 1 0 0)" d="M144 558L648 558L648 558L648 54L648 54L144 54z" /></clipPath><clipPath id="38"><path id="" clip-rule="evenodd" transform="matrix(1 0 0 1 0 0)" d="M144 558L648 558L648 558L648 54L648 54L144 54z" /></clipPath><clipPath id="39"><path id="" clip-rule="evenodd" transform="matrix(1 0 0 1 0 0)" d="M144 558L648 558L648 558L648 54L648 54L144 54z" /></clipPath><clipPath id="40"><path id="" clip-rule="evenodd" transform="matrix(1 0 0 1 0 0)" d="M144 558L648 558L648 558L648 54L648 54L144 54z" /></clipPath><clipPath id="41"><path id="" clip-rule="evenodd" transform="matrix(1 0 0 1 0 0)" d="M144 558L648 558L648 558L648 54L648 54L144 54z" /></clipPath><clipPath id="42"><path id="" clip-rule="evenodd" transform="matrix(1 0 0 1 0 0)" d="M144 558L648 558L648 558L648 54L648 54L144 54z" /></clipPath><clipPath id="43"><path id="" clip-rule="evenodd" transform="matrix(1 0 0 1 0 0)" d="M144 558L648 558L648 558L648 54L648 54L144 54z" /></clipPath><clipPath id="44"><path id="" clip-rule="evenodd" transform="matrix(1 0 0 1 0 0)" d="M144 558L648 558L648 558L648 54L648 54L144 54z" /></clipPath><clipPath id="45"><path id="" clip-rule="evenodd" transform="matrix(1 0 0 1 0 0)" d="M144 558L648 558L648 558L648 54L648 54L144 54z" /></clipPath><clipPath id="46"><path id="" clip-rule="evenodd" transform="matrix(1 0 0 1 0 0)" d="M144 558L648 558L648 558L648 54L648 54L144 54z" /></clipPath><clipPath id="47"><path id="" clip-rule="evenodd" transform="matrix(1 0 0 1 0 0)" d="M144 558L648 558L648 558L648 54L648 54L144 54z" /></clipPath><clipPath id="48"><path id="" clip-rule="evenodd" transform="matrix(1 0 0 1 0 0)" d="M144 558L648 558L648 558L648 54L648 54L144 54z" /></clipPath><clipPath id="49"><path id="" clip-rule="evenodd" transform="matrix(1 0 0 1 0 0)" d="M144 558L648 558L648 558L648 54L648 54L144 54z" /></clipPath><clipPath id="50"><path id="" clip-rule="evenodd" transform="matrix(1 0 0 1 0 0)" d="M144 558L648 558L648 558L648 54L648 54L144 54z" /></clipPath><clipPath id="51"><path id="" clip-rule="evenodd" transform="matrix(1 0 0 1 0 0)" d="M144 558L648 558L648 558L648 54L648 54L144 54z" /></clipPath><clipPath id="52"><path id="" clip-rule="evenodd" transform="matrix(1 0 0 1 0 0)" d="M144 558L648 558L648 558L648 54L648 54L144 54z" /></clipPath><clipPath id="53"><path id="" clip-rule="evenodd" transform="matrix(1 0 0 1 0 0)" d="M144 558L648 558L648 558L648 54L648 54L144 54z" /></clipPath><clipPath id="54"><path id="" clip-rule="evenodd" transform="matrix(1 0 0 1 0 0)" d="M144 558L648 558L648 558L648 54L648 54L144 54z" /></clipPath><clipPath id="55"><path id="" clip-rule="evenodd" transform="matrix(1 0 0 1 0 0)" d="M144 558L648 558L648 558L648 54L648 54L144 54z" /></clipPath><clipPath id="56"><path id="" clip-rule="evenodd" transform="matrix(1 0 0 1 0 0)" d="M144 558L648 558L648 558L648 54L648 54L144 54z" /></clipPath><clipPath id="57"><path id="" clip-rule="evenodd" transform="matrix(1 0 0 1 0 0)" d="M144 558L648 558L648 558L648 54L648 54L144 54z" /></clipPath><clipPath id="58"><path id="" clip-rule="evenodd" transform="matrix(1 0 0 1 0 0)" d="M144 558L648 558L648 558L648 54L648 54L144 54z" /></clipPath><clipPath id="59"><path id="" clip-rule="evenodd" transform="matrix(1 0 0 1 0 0)" d="M144 558L648 558L648 558L648 54L648 54L144 54z" /></clipPath><clipPath id="60"><path id="" clip-rule="evenodd" transform="matrix(1 0 0 1 0 0)" d="M144 558L648 558L648 558L648 54L648 54L144 54z" /></clipPath><clipPath id="61"><path id="" clip-rule="evenodd" transform="matrix(1 0 0 1 0 0)" d="M144 558L648 558L648 558L648 54L648 54L144 54z" /></clipPath><clipPath id="62"><path id="" clip-rule="evenodd" transform="matrix(1 0 0 1 0 0)" d="M144 558L648 558L648 558L648 54L648 54L144 54z" /></clipPath><clipPath id="63"><path id="" clip-rule="evenodd" transform="matrix(1 0 0 1 0 0)" d="M144 558L648 558L648 558L648 54L648 54L144 54z" /></clipPath><clipPath id="64"><path id="" clip-rule="evenodd" transform="matrix(1 0 0 1 0 0)" d="M144 558L648 558L648 558L648 54L648 54L144 54z" /></clipPath></defs><g transform="matrix(1.333333 0 0 1.333333 0 0)"><g clip-path="url(#1)"><g clip-path="url(#2)"></g><g clip-path="url(#3)"></g><g clip-path="url(#4)"></g><g clip-path="url(#5)"></g><g clip-path="url(#6)"></g><g clip-path="url(#7)"></g><g clip-path="url(#8)"></g><g clip-path="url(#9)"></g><g clip-path="url(#10)"></g><g clip-path="url(#11)"></g><g clip-path="url(#12)"><path id="1" transform="matrix(1 0 0 -1 0 612)" d="M144 54L648 54L648 54L648 558L648 558L144 558z" stroke="#FFFFFF" stroke-width="1.07" fill="#FFFFFF" fill-rule="nonzero" /></g><g clip-path="url(#13)"></g><g clip-path="url(#14)"><path id="2" transform="matrix(1 0 0 -1 0 612)" d="M220.03 85.91L642.52 85.91L642.52 534.85L220.03 534.85z" stroke="none" fill="#FFFFFF" fill-rule="nonzero" /><path id="3" transform="matrix(1 0 0 -1 0 612)" d="M287.24 85.91L287.24 534.85" stroke="#EBEBEB" stroke-width="0.53" fill="none" /><path id="4" transform="matrix(1 0 0 -1 0 612)" d="M383.26 85.91L383.26 534.85" stroke="#EBEBEB" stroke-width="0.53" fill="none" /><path id="5" transform="matrix(1 0 0 -1 0 612)" d="M479.29 85.91L479.29 534.85" stroke="#EBEBEB" stroke-width="0.53" fill="none" /><path id="6" transform="matrix(1 0 0 -1 0 612)" d="M575.31 85.91L575.31 534.85" stroke="#EBEBEB" stroke-width="0.53" fill="none" /><path id="7" transform="matrix(1 0 0 -1 0 612)" d="M220.03 91.28L642.52 91.28" stroke="#EBEBEB" stroke-width="1.07" fill="none" /><path id="8" transform="matrix(1 0 0 -1 0 612)" d="M220.03 100.22L642.52 100.22" stroke="#EBEBEB" stroke-width="1.07" fill="none" /><path id="9" transform="matrix(1 0 0 -1 0 612)" d="M220.03 109.16L642.52 109.16" stroke="#EBEBEB" stroke-width="1.07" fill="none" /><path id="10" transform="matrix(1 0 0 -1 0 612)" d="M220.03 118.11L642.52 118.11" stroke="#EBEBEB" stroke-width="1.07" fill="none" /><path id="11" transform="matrix(1 0 0 -1 0 612)" d="M220.03 127.05L642.52 127.05" stroke="#EBEBEB" stroke-width="1.07" fill="none" /><path id="12" transform="matrix(1 0 0 -1 0 612)" d="M220.03 135.99L642.52 135.99" stroke="#EBEBEB" stroke-width="1.07" fill="none" /><path id="13" transform="matrix(1 0 0 -1 0 612)" d="M220.03 144.93L642.52 144.93" stroke="#EBEBEB" stroke-width="1.07" fill="none" /><path id="14" transform="matrix(1 0 0 -1 0 612)" d="M220.03 153.88L642.52 153.88" stroke="#EBEBEB" stroke-width="1.07" fill="none" /><path id="15" transform="matrix(1 0 0 -1 0 612)" d="M220.03 162.82L642.52 162.82" stroke="#EBEBEB" stroke-width="1.07" fill="none" /><path id="16" transform="matrix(1 0 0 -1 0 612)" d="M220.03 171.76L642.52 171.76" stroke="#EBEBEB" stroke-width="1.07" fill="none" /><path id="17" transform="matrix(1 0 0 -1 0 612)" d="M220.03 180.71L642.52 180.71" stroke="#EBEBEB" stroke-width="1.07" fill="none" /><path id="18" transform="matrix(1 0 0 -1 0 612)" d="M220.03 189.65L642.52 189.65" stroke="#EBEBEB" stroke-width="1.07" fill="none" /><path id="19" transform="matrix(1 0 0 -1 0 612)" d="M220.03 198.59L642.52 198.59" stroke="#EBEBEB" stroke-width="1.07" fill="none" /><path id="20" transform="matrix(1 0 0 -1 0 612)" d="M220.03 207.53L642.52 207.53" stroke="#EBEBEB" stroke-width="1.07" fill="none" /><path id="21" transform="matrix(1 0 0 -1 0 612)" d="M220.03 216.48L642.52 216.48" stroke="#EBEBEB" stroke-width="1.07" fill="none" /><path id="22" transform="matrix(1 0 0 -1 0 612)" d="M220.03 225.42L642.52 225.42" stroke="#EBEBEB" stroke-width="1.07" fill="none" /><path id="23" transform="matrix(1 0 0 -1 0 612)" d="M220.03 234.36L642.52 234.36" stroke="#EBEBEB" stroke-width="1.07" fill="none" /><path id="24" transform="matrix(1 0 0 -1 0 612)" d="M220.03 243.31L642.52 243.31" stroke="#EBEBEB" stroke-width="1.07" fill="none" /><path id="25" transform="matrix(1 0 0 -1 0 612)" d="M220.03 252.25L642.52 252.25" stroke="#EBEBEB" stroke-width="1.07" fill="none" /><path id="26" transform="matrix(1 0 0 -1 0 612)" d="M220.03 261.19L642.52 261.19" stroke="#EBEBEB" stroke-width="1.07" fill="none" /><path id="27" transform="matrix(1 0 0 -1 0 612)" d="M220.03 270.14L642.52 270.14" stroke="#EBEBEB" stroke-width="1.07" fill="none" /><path id="28" transform="matrix(1 0 0 -1 0 612)" d="M220.03 279.08L642.52 279.08" stroke="#EBEBEB" stroke-width="1.07" fill="none" /><path id="29" transform="matrix(1 0 0 -1 0 612)" d="M220.03 288.02L642.52 288.02" stroke="#EBEBEB" stroke-width="1.07" fill="none" /><path id="30" transform="matrix(1 0 0 -1 0 612)" d="M220.03 296.96L642.52 296.96" stroke="#EBEBEB" stroke-width="1.07" fill="none" /><path id="31" transform="matrix(1 0 0 -1 0 612)" d="M220.03 305.91L642.52 305.91" stroke="#EBEBEB" stroke-width="1.07" fill="none" /><path id="32" transform="matrix(1 0 0 -1 0 612)" d="M220.03 314.85L642.52 314.85" stroke="#EBEBEB" stroke-width="1.07" fill="none" /><path id="33" transform="matrix(1 0 0 -1 0 612)" d="M220.03 323.79L642.52 323.79" stroke="#EBEBEB" stroke-width="1.07" fill="none" /><path id="34" transform="matrix(1 0 0 -1 0 612)" d="M220.03 332.74L642.52 332.74" stroke="#EBEBEB" stroke-width="1.07" fill="none" /><path id="35" transform="matrix(1 0 0 -1 0 612)" d="M220.03 341.68L642.52 341.68" stroke="#EBEBEB" stroke-width="1.07" fill="none" /><path id="36" transform="matrix(1 0 0 -1 0 612)" d="M220.03 350.62L642.52 350.62" stroke="#EBEBEB" stroke-width="1.07" fill="none" /><path id="37" transform="matrix(1 0 0 -1 0 612)" d="M220.03 359.57L642.52 359.57" stroke="#EBEBEB" stroke-width="1.07" fill="none" /><path id="38" transform="matrix(1 0 0 -1 0 612)" d="M220.03 368.51L642.52 368.51" stroke="#EBEBEB" stroke-width="1.07" fill="none" /><path id="39" transform="matrix(1 0 0 -1 0 612)" d="M220.03 377.45L642.52 377.45" stroke="#EBEBEB" stroke-width="1.07" fill="none" /><path id="40" transform="matrix(1 0 0 -1 0 612)" d="M220.03 386.39L642.52 386.39" stroke="#EBEBEB" stroke-width="1.07" fill="none" /><path id="41" transform="matrix(1 0 0 -1 0 612)" d="M220.03 395.34L642.52 395.34" stroke="#EBEBEB" stroke-width="1.07" fill="none" /><path id="42" transform="matrix(1 0 0 -1 0 612)" d="M220.03 404.28L642.52 404.28" stroke="#EBEBEB" stroke-width="1.07" fill="none" /><path id="43" transform="matrix(1 0 0 -1 0 612)" d="M220.03 413.22L642.52 413.22" stroke="#EBEBEB" stroke-width="1.07" fill="none" /><path id="44" transform="matrix(1 0 0 -1 0 612)" d="M220.03 422.17L642.52 422.17" stroke="#EBEBEB" stroke-width="1.07" fill="none" /><path id="45" transform="matrix(1 0 0 -1 0 612)" d="M220.03 431.11L642.52 431.11" stroke="#EBEBEB" stroke-width="1.07" fill="none" /><path id="46" transform="matrix(1 0 0 -1 0 612)" d="M220.03 440.05L642.52 440.05" stroke="#EBEBEB" stroke-width="1.07" fill="none" /><path id="47" transform="matrix(1 0 0 -1 0 612)" d="M220.03 448.99L642.52 448.99" stroke="#EBEBEB" stroke-width="1.07" fill="none" /><path id="48" transform="matrix(1 0 0 -1 0 612)" d="M220.03 457.94L642.52 457.94" stroke="#EBEBEB" stroke-width="1.07" fill="none" /><path id="49" transform="matrix(1 0 0 -1 0 612)" d="M220.03 466.88L642.52 466.88" stroke="#EBEBEB" stroke-width="1.07" fill="none" /><path id="50" transform="matrix(1 0 0 -1 0 612)" d="M220.03 475.82L642.52 475.82" stroke="#EBEBEB" stroke-width="1.07" fill="none" /><path id="51" transform="matrix(1 0 0 -1 0 612)" d="M220.03 484.77L642.52 484.77" stroke="#EBEBEB" stroke-width="1.07" fill="none" /><path id="52" transform="matrix(1 0 0 -1 0 612)" d="M220.03 493.71L642.52 493.71" stroke="#EBEBEB" stroke-width="1.07" fill="none" /><path id="53" transform="matrix(1 0 0 -1 0 612)" d="M220.03 502.65L642.52 502.65" stroke="#EBEBEB" stroke-width="1.07" fill="none" /><path id="54" transform="matrix(1 0 0 -1 0 612)" d="M220.03 511.6L642.52 511.6" stroke="#EBEBEB" stroke-width="1.07" fill="none" /><path id="55" transform="matrix(1 0 0 -1 0 612)" d="M220.03 520.54L642.52 520.54" stroke="#EBEBEB" stroke-width="1.07" fill="none" /><path id="56" transform="matrix(1 0 0 -1 0 612)" d="M220.03 529.48L642.52 529.48" stroke="#EBEBEB" stroke-width="1.07" fill="none" /><path id="57" transform="matrix(1 0 0 -1 0 612)" d="M239.23 85.91L239.23 534.85" stroke="#EBEBEB" stroke-width="1.07" fill="none" /><path id="58" transform="matrix(1 0 0 -1 0 612)" d="M335.25 85.91L335.25 534.85" stroke="#EBEBEB" stroke-width="1.07" fill="none" /><path id="59" transform="matrix(1 0 0 -1 0 612)" d="M431.27 85.91L431.27 534.85" stroke="#EBEBEB" stroke-width="1.07" fill="none" /><path id="60" transform="matrix(1 0 0 -1 0 612)" d="M527.3 85.91L527.3 534.85" stroke="#EBEBEB" stroke-width="1.07" fill="none" /><path id="61" transform="matrix(1 0 0 -1 0 612)" d="M623.32 85.91L623.32 534.85" stroke="#EBEBEB" stroke-width="1.07" fill="none" /><path id="62" transform="matrix(1 0 0 -1 0 612)" d="M239.23 525.46L623.31 525.46L623.31 525.46L623.31 533.51L623.31 533.51L239.23 533.51z" stroke="#FFFFFF" stroke-width="1.07" fill="#85C1E9" fill-rule="nonzero" /><path id="63" transform="matrix(1 0 0 -1 0 612)" d="M239.23 516.51L564.28 516.51L564.28 516.51L564.28 524.56L564.28 524.56L239.23 524.56z" stroke="#FFFFFF" stroke-width="1.07" fill="#85C1E9" fill-rule="nonzero" /><path id="64" transform="matrix(1 0 0 -1 0 612)" d="M239.23 507.57L422.13 507.57L422.13 507.57L422.13 515.62L422.13 515.62L239.23 515.62z" stroke="#FFFFFF" stroke-width="1.07" fill="#85C1E9" fill-rule="nonzero" /><path id="65" transform="matrix(1 0 0 -1 0 612)" d="M239.23 498.63L391.52 498.63L391.52 498.63L391.52 506.68L391.52 506.68L239.23 506.68z" stroke="#FFFFFF" stroke-width="1.07" fill="#85C1E9" fill-rule="nonzero" /><path id="66" transform="matrix(1 0 0 -1 0 612)" d="M239.23 489.69L371.74 489.69L371.74 489.69L371.74 497.74L371.74 497.74L239.23 497.74z" stroke="#FFFFFF" stroke-width="1.07" fill="#85C1E9" fill-rule="nonzero" /><path id="67" transform="matrix(1 0 0 -1 0 612)" d="M239.23 480.74L371.39 480.74L371.39 480.74L371.39 488.79L371.39 488.79L239.23 488.79z" stroke="#FFFFFF" stroke-width="1.07" fill="#85C1E9" fill-rule="nonzero" /><path id="68" transform="matrix(1 0 0 -1 0 612)" d="M239.23 471.8L370.51 471.8L370.51 471.8L370.51 479.85L370.51 479.85L239.23 479.85z" stroke="#FFFFFF" stroke-width="1.07" fill="#85C1E9" fill-rule="nonzero" /><path id="69" transform="matrix(1 0 0 -1 0 612)" d="M239.23 462.86L362.1 462.86L362.1 462.86L362.1 470.91L362.1 470.91L239.23 470.91z" stroke="#FFFFFF" stroke-width="1.07" fill="#85C1E9" fill-rule="nonzero" /><path id="70" transform="matrix(1 0 0 -1 0 612)" d="M239.23 453.91L334.94 453.91L334.94 453.91L334.94 461.96L334.94 461.96L239.23 461.96z" stroke="#FFFFFF" stroke-width="1.07" fill="#85C1E9" fill-rule="nonzero" /><path id="71" transform="matrix(1 0 0 -1 0 612)" d="M239.23 444.97L331.53 444.97L331.53 444.97L331.53 453.02L331.53 453.02L239.23 453.02z" stroke="#FFFFFF" stroke-width="1.07" fill="#85C1E9" fill-rule="nonzero" /><path id="72" transform="matrix(1 0 0 -1 0 612)" d="M239.23 436.03L323.61 436.03L323.61 436.03L323.61 444.08L323.61 444.08L239.23 444.08z" stroke="#FFFFFF" stroke-width="1.07" fill="#85C1E9" fill-rule="nonzero" /><path id="73" transform="matrix(1 0 0 -1 0 612)" d="M239.23 427.08L322.19 427.08L322.19 427.08L322.19 435.13L322.19 435.13L239.23 435.13z" stroke="#FFFFFF" stroke-width="1.07" fill="#85C1E9" fill-rule="nonzero" /><path id="74" transform="matrix(1 0 0 -1 0 612)" d="M239.23 418.14L293.31 418.14L293.31 418.14L293.31 426.19L293.31 426.19L239.23 426.19z" stroke="#FFFFFF" stroke-width="1.07" fill="#85C1E9" fill-rule="nonzero" /><path id="75" transform="matrix(1 0 0 -1 0 612)" d="M239.23 409.2L255.78 409.2L255.78 409.2L255.78 417.25L255.78 417.25L239.23 417.25z" stroke="#FFFFFF" stroke-width="1.07" fill="#85C1E9" fill-rule="nonzero" /><path id="76" transform="matrix(1 0 0 -1 0 612)" d="M239.23 257.17L239.23 257.17L239.23 257.17L239.23 265.22L239.23 265.22L239.23 265.22z" stroke="#FFFFFF" stroke-width="1.07" fill="#85C1E9" fill-rule="nonzero" /><path id="77" transform="matrix(1 0 0 -1 0 612)" d="M239.23 310.83L239.23 310.83L239.23 310.83L239.23 318.88L239.23 318.88L239.23 318.88z" stroke="#FFFFFF" stroke-width="1.07" fill="#85C1E9" fill-rule="nonzero" /><path id="78" transform="matrix(1 0 0 -1 0 612)" d="M239.23 346.6L239.23 346.6L239.23 346.6L239.23 354.65L239.23 354.65L239.23 354.65z" stroke="#FFFFFF" stroke-width="1.07" fill="#85C1E9" fill-rule="nonzero" /><path id="79" transform="matrix(1 0 0 -1 0 612)" d="M239.23 131.97L239.23 131.97L239.23 131.97L239.23 140.02L239.23 140.02L239.23 140.02z" stroke="#FFFFFF" stroke-width="1.07" fill="#85C1E9" fill-rule="nonzero" /><path id="80" transform="matrix(1 0 0 -1 0 612)" d="M239.23 158.8L239.23 158.8L239.23 158.8L239.23 166.85L239.23 166.85L239.23 166.85z" stroke="#FFFFFF" stroke-width="1.07" fill="#85C1E9" fill-rule="nonzero" /><path id="81" transform="matrix(1 0 0 -1 0 612)" d="M239.23 337.65L239.23 337.65L239.23 337.65L239.23 345.7L239.23 345.7L239.23 345.7z" stroke="#FFFFFF" stroke-width="1.07" fill="#85C1E9" fill-rule="nonzero" /><path id="82" transform="matrix(1 0 0 -1 0 612)" d="M239.23 194.57L239.23 194.57L239.23 194.57L239.23 202.62L239.23 202.62L239.23 202.62z" stroke="#FFFFFF" stroke-width="1.07" fill="#85C1E9" fill-rule="nonzero" /><path id="83" transform="matrix(1 0 0 -1 0 612)" d="M239.23 203.51L239.23 203.51L239.23 203.51L239.23 211.56L239.23 211.56L239.23 211.56z" stroke="#FFFFFF" stroke-width="1.07" fill="#85C1E9" fill-rule="nonzero" /><path id="84" transform="matrix(1 0 0 -1 0 612)" d="M239.23 284L239.23 284L239.23 284L239.23 292.05L239.23 292.05L239.23 292.05z" stroke="#FFFFFF" stroke-width="1.07" fill="#85C1E9" fill-rule="nonzero" /><path id="85" transform="matrix(1 0 0 -1 0 612)" d="M239.23 382.37L239.23 382.37L239.23 382.37L239.23 390.42L239.23 390.42L239.23 390.42z" stroke="#FFFFFF" stroke-width="1.07" fill="#85C1E9" fill-rule="nonzero" /><path id="86" transform="matrix(1 0 0 -1 0 612)" d="M239.23 391.31L239.23 391.31L239.23 391.31L239.23 399.36L239.23 399.36L239.23 399.36z" stroke="#FFFFFF" stroke-width="1.07" fill="#85C1E9" fill-rule="nonzero" /><path id="87" transform="matrix(1 0 0 -1 0 612)" d="M239.23 400.26L239.23 400.26L239.23 400.26L239.23 408.31L239.23 408.31L239.23 408.31z" stroke="#FFFFFF" stroke-width="1.07" fill="#85C1E9" fill-rule="nonzero" /><path id="88" transform="matrix(1 0 0 -1 0 612)" d="M239.23 114.08L239.23 114.08L239.23 114.08L239.23 122.13L239.23 122.13L239.23 122.13z" stroke="#FFFFFF" stroke-width="1.07" fill="#85C1E9" fill-rule="nonzero" /><path id="89" transform="matrix(1 0 0 -1 0 612)" d="M239.23 123.02L239.23 123.02L239.23 123.02L239.23 131.07L239.23 131.07L239.23 131.07z" stroke="#FFFFFF" stroke-width="1.07" fill="#85C1E9" fill-rule="nonzero" /><path id="90" transform="matrix(1 0 0 -1 0 612)" d="M239.23 176.68L239.23 176.68L239.23 176.68L239.23 184.73L239.23 184.73L239.23 184.73z" stroke="#FFFFFF" stroke-width="1.07" fill="#85C1E9" fill-rule="nonzero" /><path id="91" transform="matrix(1 0 0 -1 0 612)" d="M239.23 221.4L239.23 221.4L239.23 221.4L239.23 229.45L239.23 229.45L239.23 229.45z" stroke="#FFFFFF" stroke-width="1.07" fill="#85C1E9" fill-rule="nonzero" /><path id="92" transform="matrix(1 0 0 -1 0 612)" d="M239.23 328.71L239.23 328.71L239.23 328.71L239.23 336.76L239.23 336.76L239.23 336.76z" stroke="#FFFFFF" stroke-width="1.07" fill="#85C1E9" fill-rule="nonzero" /><path id="93" transform="matrix(1 0 0 -1 0 612)" d="M239.23 373.43L239.23 373.43L239.23 373.43L239.23 381.48L239.23 381.48L239.23 381.48z" stroke="#FFFFFF" stroke-width="1.07" fill="#85C1E9" fill-rule="nonzero" /><path id="94" transform="matrix(1 0 0 -1 0 612)" d="M239.23 319.77L239.23 319.77L239.23 319.77L239.23 327.82L239.23 327.82L239.23 327.82z" stroke="#FFFFFF" stroke-width="1.07" fill="#85C1E9" fill-rule="nonzero" /><path id="95" transform="matrix(1 0 0 -1 0 612)" d="M239.23 355.54L239.23 355.54L239.23 355.54L239.23 363.59L239.23 363.59L239.23 363.59z" stroke="#FFFFFF" stroke-width="1.07" fill="#85C1E9" fill-rule="nonzero" /><path id="96" transform="matrix(1 0 0 -1 0 612)" d="M239.23 185.62L239.23 185.62L239.23 185.62L239.23 193.67L239.23 193.67L239.23 193.67z" stroke="#FFFFFF" stroke-width="1.07" fill="#85C1E9" fill-rule="nonzero" /><path id="97" transform="matrix(1 0 0 -1 0 612)" d="M239.23 230.34L239.23 230.34L239.23 230.34L239.23 238.39L239.23 238.39L239.23 238.39z" stroke="#FFFFFF" stroke-width="1.07" fill="#85C1E9" fill-rule="nonzero" /><path id="98" transform="matrix(1 0 0 -1 0 612)" d="M239.23 292.94L239.23 292.94L239.23 292.94L239.23 300.99L239.23 300.99L239.23 300.99z" stroke="#FFFFFF" stroke-width="1.07" fill="#85C1E9" fill-rule="nonzero" /><path id="99" transform="matrix(1 0 0 -1 0 612)" d="M239.23 87.25L239.23 87.25L239.23 87.25L239.23 95.3L239.23 95.3L239.23 95.3z" stroke="#FFFFFF" stroke-width="1.07" fill="#85C1E9" fill-rule="nonzero" /><path id="100" transform="matrix(1 0 0 -1 0 612)" d="M239.23 212.45L239.23 212.45L239.23 212.45L239.23 220.5L239.23 220.5L239.23 220.5z" stroke="#FFFFFF" stroke-width="1.07" fill="#85C1E9" fill-rule="nonzero" /><path id="101" transform="matrix(1 0 0 -1 0 612)" d="M239.23 248.23L239.23 248.23L239.23 248.23L239.23 256.28L239.23 256.28L239.23 256.28z" stroke="#FFFFFF" stroke-width="1.07" fill="#85C1E9" fill-rule="nonzero" /><path id="102" transform="matrix(1 0 0 -1 0 612)" d="M239.23 167.74L239.23 167.74L239.23 167.74L239.23 175.79L239.23 175.79L239.23 175.79z" stroke="#FFFFFF" stroke-width="1.07" fill="#85C1E9" fill-rule="nonzero" /><path id="103" transform="matrix(1 0 0 -1 0 612)" d="M239.23 239.28L239.23 239.28L239.23 239.28L239.23 247.33L239.23 247.33L239.23 247.33z" stroke="#FFFFFF" stroke-width="1.07" fill="#85C1E9" fill-rule="nonzero" /><path id="104" transform="matrix(1 0 0 -1 0 612)" d="M239.23 96.2L239.23 96.2L239.23 96.2L239.23 104.25L239.23 104.25L239.23 104.25z" stroke="#FFFFFF" stroke-width="1.07" fill="#85C1E9" fill-rule="nonzero" /><path id="105" transform="matrix(1 0 0 -1 0 612)" d="M239.23 266.11L239.23 266.11L239.23 266.11L239.23 274.16L239.23 274.16L239.23 274.16z" stroke="#FFFFFF" stroke-width="1.07" fill="#85C1E9" fill-rule="nonzero" /><path id="106" transform="matrix(1 0 0 -1 0 612)" d="M239.23 105.14L239.23 105.14L239.23 105.14L239.23 113.19L239.23 113.19L239.23 113.19z" stroke="#FFFFFF" stroke-width="1.07" fill="#85C1E9" fill-rule="nonzero" /><path id="107" transform="matrix(1 0 0 -1 0 612)" d="M239.23 275.05L239.23 275.05L239.23 275.05L239.23 283.1L239.23 283.1L239.23 283.1z" stroke="#FFFFFF" stroke-width="1.07" fill="#85C1E9" fill-rule="nonzero" /><path id="108" transform="matrix(1 0 0 -1 0 612)" d="M239.23 301.88L239.23 301.88L239.23 301.88L239.23 309.93L239.23 309.93L239.23 309.93z" stroke="#FFFFFF" stroke-width="1.07" fill="#85C1E9" fill-rule="nonzero" /><path id="109" transform="matrix(1 0 0 -1 0 612)" d="M239.23 364.48L239.23 364.48L239.23 364.48L239.23 372.53L239.23 372.53L239.23 372.53z" stroke="#FFFFFF" stroke-width="1.07" fill="#85C1E9" fill-rule="nonzero" /><path id="110" transform="matrix(1 0 0 -1 0 612)" d="M239.23 140.91L239.23 140.91L239.23 140.91L239.23 148.96L239.23 148.96L239.23 148.96z" stroke="#FFFFFF" stroke-width="1.07" fill="#85C1E9" fill-rule="nonzero" /><path id="111" transform="matrix(1 0 0 -1 0 612)" d="M239.23 149.85L239.23 149.85L239.23 149.85L239.23 157.9L239.23 157.9L239.23 157.9z" stroke="#FFFFFF" stroke-width="1.07" fill="#85C1E9" fill-rule="nonzero" /><path id="253" transform="matrix(1 0 0 -1 0 612)" d="M220.03 85.91L642.52 85.91L642.52 85.91L642.52 534.85L642.52 534.85L220.03 534.85z" stroke="#323232" stroke-width="1.07" stroke-linecap="round" fill="none" /></g><g clip-path="url(#15)"></g><g clip-path="url(#16)"></g><g clip-path="url(#17)"></g><g clip-path="url(#18)"></g><g clip-path="url(#19)"></g><g clip-path="url(#20)"></g><g clip-path="url(#21)"></g><g clip-path="url(#22)"></g><g clip-path="url(#23)"></g><g clip-path="url(#24)"></g><g clip-path="url(#25)"></g><g clip-path="url(#26)"></g><g clip-path="url(#27)"></g><g clip-path="url(#28)"></g><g clip-path="url(#29)"></g><g clip-path="url(#30)"></g><g clip-path="url(#31)"></g><g clip-path="url(#32)"><path id="584" transform="matrix(1 0 0 -1 0 612)" d="M217.29 91.28L220.03 91.28" stroke="#323232" stroke-width="1.07" fill="none" /><path id="585" transform="matrix(1 0 0 -1 0 612)" d="M217.29 100.22L220.03 100.22" stroke="#323232" stroke-width="1.07" fill="none" /><path id="586" transform="matrix(1 0 0 -1 0 612)" d="M217.29 109.16L220.03 109.16" stroke="#323232" stroke-width="1.07" fill="none" /><path id="587" transform="matrix(1 0 0 -1 0 612)" d="M217.29 118.11L220.03 118.11" stroke="#323232" stroke-width="1.07" fill="none" /><path id="588" transform="matrix(1 0 0 -1 0 612)" d="M217.29 127.05L220.03 127.05" stroke="#323232" stroke-width="1.07" fill="none" /><path id="589" transform="matrix(1 0 0 -1 0 612)" d="M217.29 135.99L220.03 135.99" stroke="#323232" stroke-width="1.07" fill="none" /><path id="590" transform="matrix(1 0 0 -1 0 612)" d="M217.29 144.93L220.03 144.93" stroke="#323232" stroke-width="1.07" fill="none" /><path id="591" transform="matrix(1 0 0 -1 0 612)" d="M217.29 153.88L220.03 153.88" stroke="#323232" stroke-width="1.07" fill="none" /><path id="592" transform="matrix(1 0 0 -1 0 612)" d="M217.29 162.82L220.03 162.82" stroke="#323232" stroke-width="1.07" fill="none" /><path id="593" transform="matrix(1 0 0 -1 0 612)" d="M217.29 171.76L220.03 171.76" stroke="#323232" stroke-width="1.07" fill="none" /><path id="594" transform="matrix(1 0 0 -1 0 612)" d="M217.29 180.71L220.03 180.71" stroke="#323232" stroke-width="1.07" fill="none" /><path id="595" transform="matrix(1 0 0 -1 0 612)" d="M217.29 189.65L220.03 189.65" stroke="#323232" stroke-width="1.07" fill="none" /><path id="596" transform="matrix(1 0 0 -1 0 612)" d="M217.29 198.59L220.03 198.59" stroke="#323232" stroke-width="1.07" fill="none" /><path id="597" transform="matrix(1 0 0 -1 0 612)" d="M217.29 207.53L220.03 207.53" stroke="#323232" stroke-width="1.07" fill="none" /><path id="598" transform="matrix(1 0 0 -1 0 612)" d="M217.29 216.48L220.03 216.48" stroke="#323232" stroke-width="1.07" fill="none" /><path id="599" transform="matrix(1 0 0 -1 0 612)" d="M217.29 225.42L220.03 225.42" stroke="#323232" stroke-width="1.07" fill="none" /><path id="600" transform="matrix(1 0 0 -1 0 612)" d="M217.29 234.36L220.03 234.36" stroke="#323232" stroke-width="1.07" fill="none" /><path id="601" transform="matrix(1 0 0 -1 0 612)" d="M217.29 243.31L220.03 243.31" stroke="#323232" stroke-width="1.07" fill="none" /><path id="602" transform="matrix(1 0 0 -1 0 612)" d="M217.29 252.25L220.03 252.25" stroke="#323232" stroke-width="1.07" fill="none" /><path id="603" transform="matrix(1 0 0 -1 0 612)" d="M217.29 261.19L220.03 261.19" stroke="#323232" stroke-width="1.07" fill="none" /><path id="604" transform="matrix(1 0 0 -1 0 612)" d="M217.29 270.14L220.03 270.14" stroke="#323232" stroke-width="1.07" fill="none" /><path id="605" transform="matrix(1 0 0 -1 0 612)" d="M217.29 279.08L220.03 279.08" stroke="#323232" stroke-width="1.07" fill="none" /><path id="606" transform="matrix(1 0 0 -1 0 612)" d="M217.29 288.02L220.03 288.02" stroke="#323232" stroke-width="1.07" fill="none" /><path id="607" transform="matrix(1 0 0 -1 0 612)" d="M217.29 296.96L220.03 296.96" stroke="#323232" stroke-width="1.07" fill="none" /><path id="608" transform="matrix(1 0 0 -1 0 612)" d="M217.29 305.91L220.03 305.91" stroke="#323232" stroke-width="1.07" fill="none" /><path id="609" transform="matrix(1 0 0 -1 0 612)" d="M217.29 314.85L220.03 314.85" stroke="#323232" stroke-width="1.07" fill="none" /><path id="610" transform="matrix(1 0 0 -1 0 612)" d="M217.29 323.79L220.03 323.79" stroke="#323232" stroke-width="1.07" fill="none" /><path id="611" transform="matrix(1 0 0 -1 0 612)" d="M217.29 332.74L220.03 332.74" stroke="#323232" stroke-width="1.07" fill="none" /><path id="612" transform="matrix(1 0 0 -1 0 612)" d="M217.29 341.68L220.03 341.68" stroke="#323232" stroke-width="1.07" fill="none" /><path id="613" transform="matrix(1 0 0 -1 0 612)" d="M217.29 350.62L220.03 350.62" stroke="#323232" stroke-width="1.07" fill="none" /><path id="614" transform="matrix(1 0 0 -1 0 612)" d="M217.29 359.57L220.03 359.57" stroke="#323232" stroke-width="1.07" fill="none" /><path id="615" transform="matrix(1 0 0 -1 0 612)" d="M217.29 368.51L220.03 368.51" stroke="#323232" stroke-width="1.07" fill="none" /><path id="616" transform="matrix(1 0 0 -1 0 612)" d="M217.29 377.45L220.03 377.45" stroke="#323232" stroke-width="1.07" fill="none" /><path id="617" transform="matrix(1 0 0 -1 0 612)" d="M217.29 386.39L220.03 386.39" stroke="#323232" stroke-width="1.07" fill="none" /><path id="618" transform="matrix(1 0 0 -1 0 612)" d="M217.29 395.34L220.03 395.34" stroke="#323232" stroke-width="1.07" fill="none" /><path id="619" transform="matrix(1 0 0 -1 0 612)" d="M217.29 404.28L220.03 404.28" stroke="#323232" stroke-width="1.07" fill="none" /><path id="620" transform="matrix(1 0 0 -1 0 612)" d="M217.29 413.22L220.03 413.22" stroke="#323232" stroke-width="1.07" fill="none" /><path id="621" transform="matrix(1 0 0 -1 0 612)" d="M217.29 422.17L220.03 422.17" stroke="#323232" stroke-width="1.07" fill="none" /><path id="622" transform="matrix(1 0 0 -1 0 612)" d="M217.29 431.11L220.03 431.11" stroke="#323232" stroke-width="1.07" fill="none" /><path id="623" transform="matrix(1 0 0 -1 0 612)" d="M217.29 440.05L220.03 440.05" stroke="#323232" stroke-width="1.07" fill="none" /><path id="624" transform="matrix(1 0 0 -1 0 612)" d="M217.29 448.99L220.03 448.99" stroke="#323232" stroke-width="1.07" fill="none" /><path id="625" transform="matrix(1 0 0 -1 0 612)" d="M217.29 457.94L220.03 457.94" stroke="#323232" stroke-width="1.07" fill="none" /><path id="626" transform="matrix(1 0 0 -1 0 612)" d="M217.29 466.88L220.03 466.88" stroke="#323232" stroke-width="1.07" fill="none" /><path id="627" transform="matrix(1 0 0 -1 0 612)" d="M217.29 475.82L220.03 475.82" stroke="#323232" stroke-width="1.07" fill="none" /><path id="628" transform="matrix(1 0 0 -1 0 612)" d="M217.29 484.77L220.03 484.77" stroke="#323232" stroke-width="1.07" fill="none" /><path id="629" transform="matrix(1 0 0 -1 0 612)" d="M217.29 493.71L220.03 493.71" stroke="#323232" stroke-width="1.07" fill="none" /><path id="630" transform="matrix(1 0 0 -1 0 612)" d="M217.29 502.65L220.03 502.65" stroke="#323232" stroke-width="1.07" fill="none" /><path id="631" transform="matrix(1 0 0 -1 0 612)" d="M217.29 511.6L220.03 511.6" stroke="#323232" stroke-width="1.07" fill="none" /><path id="632" transform="matrix(1 0 0 -1 0 612)" d="M217.29 520.54L220.03 520.54" stroke="#323232" stroke-width="1.07" fill="none" /><path id="633" transform="matrix(1 0 0 -1 0 612)" d="M217.29 529.48L220.03 529.48" stroke="#323232" stroke-width="1.07" fill="none" /></g><g clip-path="url(#33)"></g><g clip-path="url(#34)"></g><g clip-path="url(#35)"></g><g clip-path="url(#36)"></g><g clip-path="url(#37)"></g><g clip-path="url(#38)"></g><g clip-path="url(#39)"></g><g clip-path="url(#40)"></g><g clip-path="url(#41)"></g><g clip-path="url(#42)"><path id="634" transform="matrix(1 0 0 -1 0 612)" d="M239.23 83.17L239.23 85.91" stroke="#323232" stroke-width="1.07" fill="none" /><path id="635" transform="matrix(1 0 0 -1 0 612)" d="M335.25 83.17L335.25 85.91" stroke="#323232" stroke-width="1.07" fill="none" /><path id="636" transform="matrix(1 0 0 -1 0 612)" d="M431.27 83.17L431.27 85.91" stroke="#323232" stroke-width="1.07" fill="none" /><path id="637" transform="matrix(1 0 0 -1 0 612)" d="M527.3 83.17L527.3 85.91" stroke="#323232" stroke-width="1.07" fill="none" /><path id="638" transform="matrix(1 0 0 -1 0 612)" d="M623.32 83.17L623.32 85.91" stroke="#323232" stroke-width="1.07" fill="none" /></g><g clip-path="url(#43)"></g><g clip-path="url(#44)"></g><g clip-path="url(#45)"></g><g clip-path="url(#46)"></g><g clip-path="url(#47)"></g><g clip-path="url(#48)"></g><g clip-path="url(#49)"></g><g clip-path="url(#50)"></g><g clip-path="url(#51)"></g><g clip-path="url(#52)"><path id="659" transform="matrix(1 0 0 -1 0 612)" d="M157.38 290.9691L149.506 287.9183L149.506 287.9183L149.506 289.0463L149.506 289.0463L155.2262 291.0927C 155.6845 291.2574 156.1142 291.3952 156.5153 291.5062C 156.0856 291.628 155.6559 291.7694 155.2262 291.9305L155.2262 291.9305L149.506 294.0575L149.506 294.0575L149.506 295.121L149.506 295.121L157.38 292.038z" stroke="none" fill="#000000" fill-rule="evenodd" /><path id="660" transform="matrix(1 0 0 -1 0 612)" d="M156.6764 298.8842C 157.2851 298.1681 157.5089 297.5433 157.5089 296.7841C 157.5089 295.5309 156.8286 294.8344 155.8761 294.8344C 155.5968 294.8344 155.3417 294.898 155.1107 295.0251C 154.8798 295.1522 154.6945 295.3187 154.5548 295.5246C 154.4152 295.7305 154.3095 295.9624 154.2379 296.2202C 154.1878 296.41 154.1395 296.6964 154.0929 297.0796C 153.9998 297.8602 153.8888 298.4349 153.7599 298.8037C 153.6274 298.8073 153.5433 298.8091 153.5074 298.8091C 153.1136 298.8091 152.8361 298.7177 152.6749 298.5351C 152.4565 298.2881 152.3473 297.921 152.3473 297.4341C 152.3473 296.5245 152.623 296.1539 153.4323 295.9463L153.4323 295.9463L153.3033 295.0009C 152.8987 295.0869 152.572 295.2283 152.3231 295.4253C 152.0743 295.6222 151.8827 295.9069 151.7484 296.2793C 151.6141 296.6517 151.547 297.0831 151.547 297.5737C 151.547 298.0607 151.6043 298.4564 151.7189 298.7607C 151.8335 299.0651 151.9776 299.2889 152.1512 299.4321C 152.3249 299.5753 152.5442 299.6756 152.8092 299.7329C 152.9739 299.7651 153.2711 299.7812 153.7008 299.7812L153.7008 299.7812L154.9899 299.7812C 156.7874 299.7812 156.9432 299.8439 157.38 300.0874L157.38 300.0874L157.38 299.0776C 157.1795 298.9774 156.9449 298.9129 156.6764 298.8842zM154.5172 298.8037C 154.6604 298.4528 154.7822 297.9264 154.8824 297.2246C 154.9397 296.8271 155.0042 296.546 155.0758 296.3813C 155.1474 296.2166 155.2522 296.0895 155.39 296C 155.5279 295.9105 155.681 295.8657 155.8492 295.8657C 156.3649 295.8657 156.7516 296.2632 156.7516 297.0151C 156.7516 297.7599 156.4043 298.3758 155.8385 298.6479C 155.6201 298.7518 155.2978 298.8037 154.8717 298.8037z" stroke="none" fill="#000000" fill-rule="evenodd" /><path id="661" transform="matrix(1 0 0 -1 0 612)" d="M157.38 301.2673L151.6759 301.2673L151.6759 301.2673L151.6759 302.1375L151.6759 302.1375L152.5406 302.1375C 151.7314 302.5815 151.547 302.9216 151.547 303.3728C 151.547 303.6986 151.6508 304.0299 151.8585 304.3665L151.8585 304.3665L152.7555 304.0334C 152.6158 303.7971 152.546 303.5608 152.546 303.3245C 152.546 302.9019 152.8146 302.5385 153.2657 302.3953C 153.6095 302.2878 153.9855 302.2341 154.3937 302.2341L154.3937 302.2341L157.38 302.2341z" stroke="none" fill="#000000" fill-rule="evenodd" /><path id="662" transform="matrix(1 0 0 -1 0 612)" d="M150.6178 305.1115L149.506 305.1115L149.506 305.1115L149.506 306.0782L149.506 306.0782L150.6178 306.0782zM157.38 305.1115L151.6759 305.1115L151.6759 305.1115L151.6759 306.0782L151.6759 306.0782L157.38 306.0782z" stroke="none" fill="#000000" fill-rule="evenodd" /><path id="663" transform="matrix(1 0 0 -1 0 612)" d="M156.6764 311.2702C 157.2851 310.5541 157.5089 309.9293 157.5089 309.1701C 157.5089 307.9169 156.8286 307.2204 155.8761 307.2204C 155.5968 307.2204 155.3417 307.284 155.1107 307.4111C 154.8798 307.5382 154.6945 307.7047 154.5548 307.9106C 154.4152 308.1165 154.3095 308.3484 154.2379 308.6062C 154.1878 308.796 154.1395 309.0824 154.0929 309.4655C 153.9998 310.2462 153.8888 310.8209 153.7599 311.1897C 153.6274 311.1933 153.5433 311.195 153.5074 311.195C 153.1136 311.195 152.8361 311.1037 152.6749 310.9211C 152.4565 310.674 152.3473 310.307 152.3473 309.82C 152.3473 308.9106 152.623 308.5399 153.4323 308.3322L153.4323 308.3322L153.3033 307.3869C 152.8987 307.4729 152.572 307.6143 152.3231 307.8112C 152.0743 308.0082 151.8827 308.2929 151.7484 308.6653C 151.6141 309.0377 151.547 309.4691 151.547 309.9597C 151.547 310.4467 151.6043 310.8423 151.7189 311.1467C 151.8335 311.4511 151.9776 311.6749 152.1512 311.8181C 152.3249 311.9613 152.5442 312.0616 152.8092 312.1189C 152.9739 312.1511 153.2711 312.1672 153.7008 312.1672L153.7008 312.1672L154.9899 312.1672C 156.7874 312.1672 156.9432 312.2299 157.38 312.4734L157.38 312.4734L157.38 311.4636C 157.1795 311.3633 156.9449 311.2989 156.6764 311.2702zM154.5172 311.1897C 154.6604 310.8388 154.7822 310.3124 154.8824 309.6106C 154.9397 309.2131 155.0042 308.932 155.0758 308.7673C 155.1474 308.6026 155.2522 308.4755 155.39 308.386C 155.5279 308.2964 155.681 308.2517 155.8492 308.2517C 156.3649 308.2517 156.7516 308.6491 156.7516 309.4011C 156.7516 310.1459 156.4043 310.7618 155.8385 311.0339C 155.6201 311.1378 155.2978 311.1897 154.8717 311.1897z" stroke="none" fill="#000000" fill-rule="evenodd" /><path id="664" transform="matrix(1 0 0 -1 0 612)" d="M157.38 314.5557L157.38 313.6587L157.38 313.6587L149.506 313.6587L149.506 313.6587L149.506 314.6255L149.506 314.6255L152.3151 314.6255C 151.803 315.0337 151.547 315.5547 151.547 316.1885C 151.547 316.5394 151.6177 316.8715 151.7592 317.1848C 151.9006 317.4981 152.0993 317.756 152.3553 317.9583C 152.6114 318.1606 152.9202 318.319 153.2819 318.4336C 153.6435 318.5482 154.0302 318.6055 154.442 318.6055C 156.3971 318.6055 157.5089 317.4937 157.5089 316.1402C 157.5089 315.467 157.2278 314.9388 156.6656 314.5557zM154.485 314.545C 155.1689 314.545 155.663 314.638 155.9674 314.8242C 156.4651 315.1286 156.714 315.5404 156.714 316.0596C 156.714 316.9046 155.9764 317.6172 154.5226 317.6172C 153.033 317.6172 152.3419 316.9405 152.3419 316.1026C 152.3419 315.2575 153.0957 314.545 154.485 314.545z" stroke="none" fill="#000000" fill-rule="evenodd" /><path id="665" transform="matrix(1 0 0 -1 0 612)" d="M157.38 319.5386L149.506 319.5386L149.506 319.5386L149.506 320.5054L149.506 320.5054L157.38 320.5054z" stroke="none" fill="#000000" fill-rule="evenodd" /><path id="666" transform="matrix(1 0 0 -1 0 612)" d="M155.5431 325.9069L155.6666 326.9059C 156.8339 326.5908 157.5089 325.7225 157.5089 324.3976C 157.5089 322.729 156.4311 321.6798 154.5763 321.6798C 152.657 321.6798 151.547 322.7684 151.547 324.3439C 151.547 325.8693 152.6337 326.9381 154.5172 326.9381C 154.5745 326.9381 154.6604 326.9363 154.775 326.9327L154.775 326.9327L154.775 322.6788C 156.0283 322.7505 156.714 323.4505 156.714 324.403C 156.714 325.1119 156.3595 325.6133 155.5431 325.9069zM153.9801 322.7325L153.9801 325.9176C 153.5003 325.8746 153.1404 325.7529 152.9005 325.5524C 152.5281 325.2444 152.3419 324.8452 152.3419 324.3546C 152.3419 323.4666 152.9847 322.797 153.9801 322.7325z" stroke="none" fill="#000000" fill-rule="evenodd" /><path id="667" transform="matrix(1 0 0 -1 0 612)" d="M155.6774 327.7314L155.527 328.6874C 156.2933 328.7949 156.714 329.2836 156.714 330.1645C 156.714 331.0525 156.2933 331.475 155.8063 331.475C 155.5878 331.475 155.416 331.3801 155.2906 331.1904C 155.2047 331.0579 155.0955 330.7285 154.963 330.2021C 154.784 329.4931 154.6291 329.0016 154.4984 328.7277C 154.3677 328.4538 154.1869 328.2461 153.9559 328.1047C 153.725 327.9632 153.4698 327.8925 153.1906 327.8925C 152.6821 327.8925 152.2309 328.1414 151.9445 328.5424C 151.7225 328.8432 151.547 329.3982 151.547 329.9926C 151.547 330.4402 151.6115 330.8332 151.7404 331.1716C 151.8693 331.5099 152.0438 331.7597 152.264 331.9208C 152.4843 332.082 152.7788 332.193 153.1476 332.2538L153.1476 332.2538L153.2765 331.3085C 152.6893 331.2226 152.3419 330.8144 152.3419 330.0624C 152.3419 329.1744 152.6839 328.8271 153.0778 328.8271C 153.2031 328.8271 153.3159 328.8665 153.4161 328.9453C 153.52 329.024 153.6059 329.1476 153.674 329.3159C 153.7098 329.4125 153.7921 329.6972 153.921 330.1699C 154.1036 330.8538 154.2531 331.3309 154.3695 331.6013C 154.4859 331.8716 154.6551 332.0837 154.8771 332.2377C 155.0991 332.3917 155.3748 332.4687 155.7042 332.4687C 156.0265 332.4687 156.33 332.3747 156.6146 332.1867C 156.8993 331.9987 157.1195 331.7275 157.2753 331.373C 157.431 331.0185 157.5089 330.6174 157.5089 330.1699C 157.5089 328.6874 156.8876 327.9462 155.6774 327.7314z" stroke="none" fill="#000000" fill-rule="evenodd" /></g><g clip-path="url(#53)"></g><g clip-path="url(#54)"></g><g clip-path="url(#55)"></g><g clip-path="url(#56)"></g><g clip-path="url(#57)"></g><g clip-path="url(#58)"></g><g clip-path="url(#59)"></g><g clip-path="url(#60)"></g><g clip-path="url(#61)"></g><g clip-path="url(#62)"></g><g clip-path="url(#63)"></g><g clip-path="url(#64)"></g></g></g></svg>