<svg xmlns="http://www.w3.org/2000/svg" xmlns:xlink="http://www.w3.org/1999/xlink" id="body_5" preserveAspectRatio="xMinYMin meet" viewBox="0 0 1056 816"><defs><clipPath id="1"><path id="" clip-rule="evenodd" transform="matrix(1 0 0 1 0 0)" d="M0 612L0 0L0 0L792 0L792 0L792 612L792 612L0 612z" /></clipPath><clipPath id="2"><path id="" clip-rule="evenodd" transform="matrix(1 0 0 1 0 0)" d="M144 558L648 558L648 558L648 54L648 54L144 54z" /></clipPath><clipPath id="3"><path id="" clip-rule="evenodd" transform="matrix(1 0 0 1 0 0)" d="M144 558L648 558L648 558L648 54L648 54L144 54z" /></clipPath><clipPath id="4"><path id="" clip-rule="evenodd" transform="matrix(1 0 0 1 0 0)" d="M144 558L648 558L648 558L648 54L648 54L144 54z" /></clipPath><clipPath id="5"><path id="" clip-rule="evenodd" transform="matrix(1 0 0 1 0 0)" d="M144 558L648 558L648 558L648 54L648 54L144 54z" /></clipPath><clipPath id="6"><path id="" clip-rule="evenodd" transform="matrix(1 0 0 1 0 0)" d="M144 558L648 558L648 558L648 54L648 54L144 54z" /></clipPath><clipPath id="7"><path id="" clip-rule="evenodd" transform="matrix(1 0 0 1 0 0)" d="M144 558L648 558L648 558L648 54L648 54L144 54z" /></clipPath><clipPath id="8"><path id="" clip-rule="evenodd" transform="matrix(1 0 0 1 0 0)" d="M144 558L648 558L648 558L648 54L648 54L144 54z" /></clipPath><clipPath id="9"><path id="" clip-rule="evenodd" transform="matrix(1 0 0 1 0 0)" d="M144 558L648 558L648 558L648 54L648 54L144 54z" /></clipPath><clipPath id="10"><path id="" clip-rule="evenodd" transform="matrix(1 0 0 1 0 0)" d="M144 558L648 558L648 558L648 54L648 54L144 54z" /></clipPath><clipPath id="11"><path id="" clip-rule="evenodd" transform="matrix(1 0 0 1 0 0)" d="M144 558L648 558L648 558L648 54L648 54L144 54z" /></clipPath><clipPath id="12"><path id="" clip-rule="evenodd" transform="matrix(1 0 0 1 0 0)" d="M144 558L648 558L648 558L648 54L648 54L144 54z" /></clipPath><clipPath id="13"><path id="" clip-rule="evenodd" transform="matrix(1 0 0 1 0 0)" d="M144 558L648 558L648 558L648 54L648 54L144 54z" /></clipPath><clipPath id="14"><path id="" clip-rule="evenodd" transform="matrix(1 0 0 1 0 0)" d="M336.43 526.09L642.52 526.09L642.52 526.09L642.52 77.15002L642.52 77.15002L336.43 77.15002z" /></clipPath><clipPath id="15"><path id="" clip-rule="evenodd" transform="matrix(1 0 0 1 0 0)" d="M144 558L648 558L648 558L648 54L648 54L144 54z" /></clipPath><clipPath id="16"><path id="" clip-rule="evenodd" transform="matrix(1 0 0 1 0 0)" d="M144 558L648 558L648 558L648 54L648 54L144 54z" /></clipPath><clipPath id="17"><path id="" clip-rule="evenodd" transform="matrix(1 0 0 1 0 0)" d="M144 558L648 558L648 558L648 54L648 54L144 54z" /></clipPath><clipPath id="18"><path id="" clip-rule="evenodd" transform="matrix(1 0 0 1 0 0)" d="M144 558L648 558L648 558L648 54L648 54L144 54z" /></clipPath><clipPath id="19"><path id="" clip-rule="evenodd" transform="matrix(1 0 0 1 0 0)" d="M144 558L648 558L648 558L648 54L648 54L144 54z" /></clipPath><clipPath id="20"><path id="" clip-rule="evenodd" transform="matrix(1 0 0 1 0 0)" d="M144 558L648 558L648 558L648 54L648 54L144 54z" /></clipPath><clipPath id="21"><path id="" clip-rule="evenodd" transform="matrix(1 0 0 1 0 0)" d="M144 558L648 558L648 558L648 54L648 54L144 54z" /></clipPath><clipPath id="22"><path id="" clip-rule="evenodd" transform="matrix(1 0 0 1 0 0)" d="M144 558L648 558L648 558L648 54L648 54L144 54z" /></clipPath><clipPath id="23"><path id="" clip-rule="evenodd" transform="matrix(1 0 0 1 0 0)" d="M144 558L648 558L648 558L648 54L648 54L144 54z" /></clipPath><clipPath id="24"><path id="" clip-rule="evenodd" transform="matrix(1 0 0 1 0 0)" d="M144 558L648 558L648 558L648 54L648 54L144 54z" /></clipPath><clipPath id="25"><path id="" clip-rule="evenodd" transform="matrix(1 0 0 1 0 0)" d="M144 558L648 558L648 558L648 54L648 54L144 54z" /></clipPath><clipPath id="26"><path id="" clip-rule="evenodd" transform="matrix(1 0 0 1 0 0)" d="M144 558L648 558L648 558L648 54L648 54L144 54z" /></clipPath><clipPath id="27"><path id="" clip-rule="evenodd" transform="matrix(1 0 0 1 0 0)" d="M144 558L648 558L648 558L648 54L648 54L144 54z" /></clipPath><clipPath id="28"><path id="" clip-rule="evenodd" transform="matrix(1 0 0 1 0 0)" d="M144 558L648 558L648 558L648 54L648 54L144 54z" /></clipPath><clipPath id="29"><path id="" clip-rule="evenodd" transform="matrix(1 0 0 1 0 0)" d="M144 558L648 558L648 558L648 54L648 54L144 54z" /></clipPath><clipPath id="30"><path id="" clip-rule="evenodd" transform="matrix(1 0 0 1 0 0)" d="M144 558L648 558L648 558L648 54L648 54L144 54z" /></clipPath><clipPath id="31"><path id="" clip-rule="evenodd" transform="matrix(1 0 0 1 0 0)" d="M144 558L648 558L648 558L648 54L648 54L144 54z" /></clipPath><clipPath id="32"><path id="" clip-rule="evenodd" transform="matrix(1 0 0 1 0 0)" d="M144 558L648 558L648 558L648 54L648 54L144 54z" /></clipPath><clipPath id="33"><path id="" clip-rule="evenodd" transform="matrix(1 0 0 1 0 0)" d="M144 558L648 558L648 558L648 54L648 54L144 54z" /></clipPath><clipPath id="34"><path id="" clip-rule="evenodd" transform="matrix(1 0 0 1 0 0)" d="M144 558L648 558L648 558L648 54L648 54L144 54z" /></clipPath><clipPath id="35"><path id="" clip-rule="evenodd" transform="matrix(1 0 0 1 0 0)" d="M144 558L648 558L648 558L648 54L648 54L144 54z" /></clipPath><clipPath id="36"><path id="" clip-rule="evenodd" transform="matrix(1 0 0 1 0 0)" d="M144 558L648 558L648 558L648 54L648 54L144 54z" /></clipPath><clipPath id="37"><path id="" clip-rule="evenodd" transform="matrix(1 0 0 1 0 0)" d="M144 558L648 558L648 558L648 54L648 54L144 54z" /></clipPath><clipPath id="38"><path id="" clip-rule="evenodd" transform="matrix(1 0 0 1 0 0)" d="M144 558L648 558L648 558L648 54L648 54L144 54z" /></clipPath><clipPath id="39"><path id="" clip-rule="evenodd" transform="matrix(1 0 0 1 0 0)" d="M144 558L648 558L648 558L648 54L648 54L144 54z" /></clipPath><clipPath id="40"><path id="" clip-rule="evenodd" transform="matrix(1 0 0 1 0 0)" d="M144 558L648 558L648 558L648 54L648 54L144 54z" /></clipPath><clipPath id="41"><path id="" clip-rule="evenodd" transform="matrix(1 0 0 1 0 0)" d="M144 558L648 558L648 558L648 54L648 54L144 54z" /></clipPath><clipPath id="42"><path id="" clip-rule="evenodd" transform="matrix(1 0 0 1 0 0)" d="M144 558L648 558L648 558L648 54L648 54L144 54z" /></clipPath><clipPath id="43"><path id="" clip-rule="evenodd" transform="matrix(1 0 0 1 0 0)" d="M144 558L648 558L648 558L648 54L648 54L144 54z" /></clipPath><clipPath id="44"><path id="" clip-rule="evenodd" transform="matrix(1 0 0 1 0 0)" d="M144 558L648 558L648 558L648 54L648 54L144 54z" /></clipPath><clipPath id="45"><path id="" clip-rule="evenodd" transform="matrix(1 0 0 1 0 0)" d="M144 558L648 558L648 558L648 54L648 54L144 54z" /></clipPath><clipPath id="46"><path id="" clip-rule="evenodd" transform="matrix(1 0 0 1 0 0)" d="M144 558L648 558L648 558L648 54L648 54L144 54z" /></clipPath><clipPath id="47"><path id="" clip-rule="evenodd" transform="matrix(1 0 0 1 0 0)" d="M144 558L648 558L648 558L648 54L648 54L144 54z" /></clipPath><clipPath id="48"><path id="" clip-rule="evenodd" transform="matrix(1 0 0 1 0 0)" d="M144 558L648 558L648 558L648 54L648 54L144 54z" /></clipPath><clipPath id="49"><path id="" clip-rule="evenodd" transform="matrix(1 0 0 1 0 0)" d="M144 558L648 558L648 558L648 54L648 54L144 54z" /></clipPath><clipPath id="50"><path id="" clip-rule="evenodd" transform="matrix(1 0 0 1 0 0)" d="M144 558L648 558L648 558L648 54L648 54L144 54z" /></clipPath><clipPath id="51"><path id="" clip-rule="evenodd" transform="matrix(1 0 0 1 0 0)" d="M144 558L648 558L648 558L648 54L648 54L144 54z" /></clipPath><clipPath id="52"><path id="" clip-rule="evenodd" transform="matrix(1 0 0 1 0 0)" d="M144 558L648 558L648 558L648 54L648 54L144 54z" /></clipPath><clipPath id="53"><path id="" clip-rule="evenodd" transform="matrix(1 0 0 1 0 0)" d="M144 558L648 558L648 558L648 54L648 54L144 54z" /></clipPath><clipPath id="54"><path id="" clip-rule="evenodd" transform="matrix(1 0 0 1 0 0)" d="M144 558L648 558L648 558L648 54L648 54L144 54z" /></clipPath><clipPath id="55"><path id="" clip-rule="evenodd" transform="matrix(1 0 0 1 0 0)" d="M144 558L648 558L648 558L648 54L648 54L144 54z" /></clipPath><clipPath id="56"><path id="" clip-rule="evenodd" transform="matrix(1 0 0 1 0 0)" d="M144 558L648 558L648 558L648 54L648 54L144 54z" /></clipPath><clipPath id="57"><path id="" clip-rule="evenodd" transform="matrix(1 0 0 1 0 0)" d="M144 558L648 558L648 558L648 54L648 54L144 54z" /></clipPath><clipPath id="58"><path id="" clip-rule="evenodd" transform="matrix(1 0 0 1 0 0)" d="M144 558L648 558L648 558L648 54L648 54L144 54z" /></clipPath><clipPath id="59"><path id="" clip-rule="evenodd" transform="matrix(1 0 0 1 0 0)" d="M144 558L648 558L648 558L648 54L648 54L144 54z" /></clipPath><clipPath id="60"><path id="" clip-rule="evenodd" transform="matrix(1 0 0 1 0 0)" d="M144 558L648 558L648 558L648 54L648 54L144 54z" /></clipPath><clipPath id="61"><path id="" clip-rule="evenodd" transform="matrix(1 0 0 1 0 0)" d="M144 558L648 558L648 558L648 54L648 54L144 54z" /></clipPath><clipPath id="62"><path id="" clip-rule="evenodd" transform="matrix(1 0 0 1 0 0)" d="M144 558L648 558L648 558L648 54L648 54L144 54z" /></clipPath><clipPath id="63"><path id="" clip-rule="evenodd" transform="matrix(1 0 0 1 0 0)" d="M144 558L648 558L648 558L648 54L648 54L144 54z" /></clipPath><clipPath id="64"><path id="" clip-rule="evenodd" transform="matrix(1 0 0 1 0 0)" d="M144 558L648 558L648 558L648 54L648 54L144 54z" /></clipPath></defs><g transform="matrix(1.333333 0 0 1.333333 0 0)"><g clip-path="url(#1)"><g clip-path="url(#2)"></g><g clip-path="url(#3)"></g><g clip-path="url(#4)"></g><g clip-path="url(#5)"></g><g clip-path="url(#6)"></g><g clip-path="url(#7)"></g><g clip-path="url(#8)"></g><g clip-path="url(#9)"></g><g clip-path="url(#10)"></g><g clip-path="url(#11)"></g><g clip-path="url(#12)"><path id="1" transform="matrix(1 0 0 -1 0 612)" d="M144 54L648 54L648 54L648 558L648 558L144 558z" stroke="#FFFFFF" stroke-width="1.07" fill="#FFFFFF" fill-rule="nonzero" /></g><g clip-path="url(#13)"></g><g clip-path="url(#14)"><path id="2" transform="matrix(1 0 0 -1 0 612)" d="M336.43 85.91L642.52 85.91L642.52 534.85L336.43 534.85z" stroke="none" fill="#FFFFFF" fill-rule="nonzero" /><path id="3" transform="matrix(1 0 0 -1 0 612)" d="M391.26 85.91L391.26 534.85" stroke="#EBEBEB" stroke-width="0.53" fill="none" /><path id="4" transform="matrix(1 0 0 -1 0 612)" d="M473.1 85.91L473.1 534.85" stroke="#EBEBEB" stroke-width="0.53" fill="none" /><path id="5" transform="matrix(1 0 0 -1 0 612)" d="M554.95 85.91L554.95 534.85" stroke="#EBEBEB" stroke-width="0.53" fill="none" /><path id="6" transform="matrix(1 0 0 -1 0 612)" d="M636.79 85.91L636.79 534.85" stroke="#EBEBEB" stroke-width="0.53" fill="none" /><path id="7" transform="matrix(1 0 0 -1 0 612)" d="M336.43 91.28L642.52 91.28" stroke="#EBEBEB" stroke-width="1.07" fill="none" /><path id="8" transform="matrix(1 0 0 -1 0 612)" d="M336.43 100.22L642.52 100.22" stroke="#EBEBEB" stroke-width="1.07" fill="none" /><path id="9" transform="matrix(1 0 0 -1 0 612)" d="M336.43 109.16L642.52 109.16" stroke="#EBEBEB" stroke-width="1.07" fill="none" /><path id="10" transform="matrix(1 0 0 -1 0 612)" d="M336.43 118.11L642.52 118.11" stroke="#EBEBEB" stroke-width="1.07" fill="none" /><path id="11" transform="matrix(1 0 0 -1 0 612)" d="M336.43 127.05L642.52 127.05" stroke="#EBEBEB" stroke-width="1.07" fill="none" /><path id="12" transform="matrix(1 0 0 -1 0 612)" d="M336.43 135.99L642.52 135.99" stroke="#EBEBEB" stroke-width="1.07" fill="none" /><path id="13" transform="matrix(1 0 0 -1 0 612)" d="M336.43 144.93L642.52 144.93" stroke="#EBEBEB" stroke-width="1.07" fill="none" /><path id="14" transform="matrix(1 0 0 -1 0 612)" d="M336.43 153.88L642.52 153.88" stroke="#EBEBEB" stroke-width="1.07" fill="none" /><path id="15" transform="matrix(1 0 0 -1 0 612)" d="M336.43 162.82L642.52 162.82" stroke="#EBEBEB" stroke-width="1.07" fill="none" /><path id="16" transform="matrix(1 0 0 -1 0 612)" d="M336.43 171.76L642.52 171.76" stroke="#EBEBEB" stroke-width="1.07" fill="none" /><path id="17" transform="matrix(1 0 0 -1 0 612)" d="M336.43 180.71L642.52 180.71" stroke="#EBEBEB" stroke-width="1.07" fill="none" /><path id="18" transform="matrix(1 0 0 -1 0 612)" d="M336.43 189.65L642.52 189.65" stroke="#EBEBEB" stroke-width="1.07" fill="none" /><path id="19" transform="matrix(1 0 0 -1 0 612)" d="M336.43 198.59L642.52 198.59" stroke="#EBEBEB" stroke-width="1.07" fill="none" /><path id="20" transform="matrix(1 0 0 -1 0 612)" d="M336.43 207.53L642.52 207.53" stroke="#EBEBEB" stroke-width="1.07" fill="none" /><path id="21" transform="matrix(1 0 0 -1 0 612)" d="M336.43 216.48L642.52 216.48" stroke="#EBEBEB" stroke-width="1.07" fill="none" /><path id="22" transform="matrix(1 0 0 -1 0 612)" d="M336.43 225.42L642.52 225.42" stroke="#EBEBEB" stroke-width="1.07" fill="none" /><path id="23" transform="matrix(1 0 0 -1 0 612)" d="M336.43 234.36L642.52 234.36" stroke="#EBEBEB" stroke-width="1.07" fill="none" /><path id="24" transform="matrix(1 0 0 -1 0 612)" d="M336.43 243.31L642.52 243.31" stroke="#EBEBEB" stroke-width="1.07" fill="none" /><path id="25" transform="matrix(1 0 0 -1 0 612)" d="M336.43 252.25L642.52 252.25" stroke="#EBEBEB" stroke-width="1.07" fill="none" /><path id="26" transform="matrix(1 0 0 -1 0 612)" d="M336.43 261.19L642.52 261.19" stroke="#EBEBEB" stroke-width="1.07" fill="none" /><path id="27" transform="matrix(1 0 0 -1 0 612)" d="M336.43 270.14L642.52 270.14" stroke="#EBEBEB" stroke-width="1.07" fill="none" /><path id="28" transform="matrix(1 0 0 -1 0 612)" d="M336.43 279.08L642.52 279.08" stroke="#EBEBEB" stroke-width="1.07" fill="none" /><path id="29" transform="matrix(1 0 0 -1 0 612)" d="M336.43 288.02L642.52 288.02" stroke="#EBEBEB" stroke-width="1.07" fill="none" /><path id="30" transform="matrix(1 0 0 -1 0 612)" d="M336.43 296.96L642.52 296.96" stroke="#EBEBEB" stroke-width="1.07" fill="none" /><path id="31" transform="matrix(1 0 0 -1 0 612)" d="M336.43 305.91L642.52 305.91" stroke="#EBEBEB" stroke-width="1.07" fill="none" /><path id="32" transform="matrix(1 0 0 -1 0 612)" d="M336.43 314.85L642.52 314.85" stroke="#EBEBEB" stroke-width="1.07" fill="none" /><path id="33" transform="matrix(1 0 0 -1 0 612)" d="M336.43 323.79L642.52 323.79" stroke="#EBEBEB" stroke-width="1.07" fill="none" /><path id="34" transform="matrix(1 0 0 -1 0 612)" d="M336.43 332.74L642.52 332.74" stroke="#EBEBEB" stroke-width="1.07" fill="none" /><path id="35" transform="matrix(1 0 0 -1 0 612)" d="M336.43 341.68L642.52 341.68" stroke="#EBEBEB" stroke-width="1.07" fill="none" /><path id="36" transform="matrix(1 0 0 -1 0 612)" d="M336.43 350.62L642.52 350.62" stroke="#EBEBEB" stroke-width="1.07" fill="none" /><path id="37" transform="matrix(1 0 0 -1 0 612)" d="M336.43 359.57L642.52 359.57" stroke="#EBEBEB" stroke-width="1.07" fill="none" /><path id="38" transform="matrix(1 0 0 -1 0 612)" d="M336.43 368.51L642.52 368.51" stroke="#EBEBEB" stroke-width="1.07" fill="none" /><path id="39" transform="matrix(1 0 0 -1 0 612)" d="M336.43 377.45L642.52 377.45" stroke="#EBEBEB" stroke-width="1.07" fill="none" /><path id="40" transform="matrix(1 0 0 -1 0 612)" d="M336.43 386.39L642.52 386.39" stroke="#EBEBEB" stroke-width="1.07" fill="none" /><path id="41" transform="matrix(1 0 0 -1 0 612)" d="M336.43 395.34L642.52 395.34" stroke="#EBEBEB" stroke-width="1.07" fill="none" /><path id="42" transform="matrix(1 0 0 -1 0 612)" d="M336.43 404.28L642.52 404.28" stroke="#EBEBEB" stroke-width="1.07" fill="none" /><path id="43" transform="matrix(1 0 0 -1 0 612)" d="M336.43 413.22L642.52 413.22" stroke="#EBEBEB" stroke-width="1.07" fill="none" /><path id="44" transform="matrix(1 0 0 -1 0 612)" d="M336.43 422.17L642.52 422.17" stroke="#EBEBEB" stroke-width="1.07" fill="none" /><path id="45" transform="matrix(1 0 0 -1 0 612)" d="M336.43 431.11L642.52 431.11" stroke="#EBEBEB" stroke-width="1.07" fill="none" /><path id="46" transform="matrix(1 0 0 -1 0 612)" d="M336.43 440.05L642.52 440.05" stroke="#EBEBEB" stroke-width="1.07" fill="none" /><path id="47" transform="matrix(1 0 0 -1 0 612)" d="M336.43 448.99L642.52 448.99" stroke="#EBEBEB" stroke-width="1.07" fill="none" /><path id="48" transform="matrix(1 0 0 -1 0 612)" d="M336.43 457.94L642.52 457.94" stroke="#EBEBEB" stroke-width="1.07" fill="none" /><path id="49" transform="matrix(1 0 0 -1 0 612)" d="M336.43 466.88L642.52 466.88" stroke="#EBEBEB" stroke-width="1.07" fill="none" /><path id="50" transform="matrix(1 0 0 -1 0 612)" d="M336.43 475.82L642.52 475.82" stroke="#EBEBEB" stroke-width="1.07" fill="none" /><path id="51" transform="matrix(1 0 0 -1 0 612)" d="M336.43 484.77L642.52 484.77" stroke="#EBEBEB" stroke-width="1.07" fill="none" /><path id="52" transform="matrix(1 0 0 -1 0 612)" d="M336.43 493.71L642.52 493.71" stroke="#EBEBEB" stroke-width="1.07" fill="none" /><path id="53" transform="matrix(1 0 0 -1 0 612)" d="M336.43 502.65L642.52 502.65" stroke="#EBEBEB" stroke-width="1.07" fill="none" /><path id="54" transform="matrix(1 0 0 -1 0 612)" d="M336.43 511.6L642.52 511.6" stroke="#EBEBEB" stroke-width="1.07" fill="none" /><path id="55" transform="matrix(1 0 0 -1 0 612)" d="M336.43 520.54L642.52 520.54" stroke="#EBEBEB" stroke-width="1.07" fill="none" /><path id="56" transform="matrix(1 0 0 -1 0 612)" d="M336.43 529.48L642.52 529.48" stroke="#EBEBEB" stroke-width="1.07" fill="none" /><path id="57" transform="matrix(1 0 0 -1 0 612)" d="M350.34 85.91L350.34 534.85" stroke="#EBEBEB" stroke-width="1.07" fill="none" /><path id="58" transform="matrix(1 0 0 -1 0 612)" d="M432.18 85.91L432.18 534.85" stroke="#EBEBEB" stroke-width="1.07" fill="none" /><path id="59" transform="matrix(1 0 0 -1 0 612)" d="M514.03 85.91L514.03 534.85" stroke="#EBEBEB" stroke-width="1.07" fill="none" /><path id="60" transform="matrix(1 0 0 -1 0 612)" d="M595.87 85.91L595.87 534.85" stroke="#EBEBEB" stroke-width="1.07" fill="none" /><path id="61" transform="matrix(1 0 0 -1 0 612)" d="M350.34 525.46L628.61 525.46L628.61 525.46L628.61 533.51L628.61 533.51L350.34 533.51z" stroke="#FFFFFF" stroke-width="1.07" fill="#85C1E9" fill-rule="nonzero" /><path id="62" transform="matrix(1 0 0 -1 0 612)" d="M350.34 516.51L530.4 516.51L530.4 516.51L530.4 524.56L530.4 524.56L350.34 524.56z" stroke="#FFFFFF" stroke-width="1.07" fill="#85C1E9" fill-rule="nonzero" /><path id="63" transform="matrix(1 0 0 -1 0 612)" d="M350.34 498.63L481.29 498.63L481.29 498.63L481.29 506.68L481.29 506.68L350.34 506.68z" stroke="#FFFFFF" stroke-width="1.07" fill="#85C1E9" fill-rule="nonzero" /><path id="64" transform="matrix(1 0 0 -1 0 612)" d="M350.34 507.57L481.29 507.57L481.29 507.57L481.29 515.62L481.29 515.62L350.34 515.62z" stroke="#FFFFFF" stroke-width="1.07" fill="#85C1E9" fill-rule="nonzero" /><path id="65" transform="matrix(1 0 0 -1 0 612)" d="M350.34 471.8L448.55 471.8L448.55 471.8L448.55 479.85L448.55 479.85L350.34 479.85z" stroke="#FFFFFF" stroke-width="1.07" fill="#85C1E9" fill-rule="nonzero" /><path id="66" transform="matrix(1 0 0 -1 0 612)" d="M350.34 480.74L448.55 480.74L448.55 480.74L448.55 488.79L448.55 488.79L350.34 488.79z" stroke="#FFFFFF" stroke-width="1.07" fill="#85C1E9" fill-rule="nonzero" /><path id="67" transform="matrix(1 0 0 -1 0 612)" d="M350.34 489.69L448.55 489.69L448.55 489.69L448.55 497.74L448.55 497.74L350.34 497.74z" stroke="#FFFFFF" stroke-width="1.07" fill="#85C1E9" fill-rule="nonzero" /><path id="68" transform="matrix(1 0 0 -1 0 612)" d="M350.34 346.6L415.81 346.6L415.81 346.6L415.81 354.65L415.81 354.65L350.34 354.65z" stroke="#FFFFFF" stroke-width="1.07" fill="#85C1E9" fill-rule="nonzero" /><path id="69" transform="matrix(1 0 0 -1 0 612)" d="M350.34 355.54L415.81 355.54L415.81 355.54L415.81 363.59L415.81 363.59L350.34 363.59z" stroke="#FFFFFF" stroke-width="1.07" fill="#85C1E9" fill-rule="nonzero" /><path id="70" transform="matrix(1 0 0 -1 0 612)" d="M350.34 364.48L415.81 364.48L415.81 364.48L415.81 372.53L415.81 372.53L350.34 372.53z" stroke="#FFFFFF" stroke-width="1.07" fill="#85C1E9" fill-rule="nonzero" /><path id="71" transform="matrix(1 0 0 -1 0 612)" d="M350.34 373.43L415.81 373.43L415.81 373.43L415.81 381.48L415.81 381.48L350.34 381.48z" stroke="#FFFFFF" stroke-width="1.07" fill="#85C1E9" fill-rule="nonzero" /><path id="72" transform="matrix(1 0 0 -1 0 612)" d="M350.34 382.37L415.81 382.37L415.81 382.37L415.81 390.42L415.81 390.42L350.34 390.42z" stroke="#FFFFFF" stroke-width="1.07" fill="#85C1E9" fill-rule="nonzero" /><path id="73" transform="matrix(1 0 0 -1 0 612)" d="M350.34 391.31L415.81 391.31L415.81 391.31L415.81 399.36L415.81 399.36L350.34 399.36z" stroke="#FFFFFF" stroke-width="1.07" fill="#85C1E9" fill-rule="nonzero" /><path id="74" transform="matrix(1 0 0 -1 0 612)" d="M350.34 400.26L415.81 400.26L415.81 400.26L415.81 408.31L415.81 408.31L350.34 408.31z" stroke="#FFFFFF" stroke-width="1.07" fill="#85C1E9" fill-rule="nonzero" /><path id="75" transform="matrix(1 0 0 -1 0 612)" d="M350.34 409.2L415.81 409.2L415.81 409.2L415.81 417.25L415.81 417.25L350.34 417.25z" stroke="#FFFFFF" stroke-width="1.07" fill="#85C1E9" fill-rule="nonzero" /><path id="76" transform="matrix(1 0 0 -1 0 612)" d="M350.34 418.14L415.81 418.14L415.81 418.14L415.81 426.19L415.81 426.19L350.34 426.19z" stroke="#FFFFFF" stroke-width="1.07" fill="#85C1E9" fill-rule="nonzero" /><path id="77" transform="matrix(1 0 0 -1 0 612)" d="M350.34 427.08L415.81 427.08L415.81 427.08L415.81 435.13L415.81 435.13L350.34 435.13z" stroke="#FFFFFF" stroke-width="1.07" fill="#85C1E9" fill-rule="nonzero" /><path id="78" transform="matrix(1 0 0 -1 0 612)" d="M350.34 436.03L415.81 436.03L415.81 436.03L415.81 444.08L415.81 444.08L350.34 444.08z" stroke="#FFFFFF" stroke-width="1.07" fill="#85C1E9" fill-rule="nonzero" /><path id="79" transform="matrix(1 0 0 -1 0 612)" d="M350.34 444.97L415.81 444.97L415.81 444.97L415.81 453.02L415.81 453.02L350.34 453.02z" stroke="#FFFFFF" stroke-width="1.07" fill="#85C1E9" fill-rule="nonzero" /><path id="80" transform="matrix(1 0 0 -1 0 612)" d="M350.34 453.91L415.81 453.91L415.81 453.91L415.81 461.96L415.81 461.96L350.34 461.96z" stroke="#FFFFFF" stroke-width="1.07" fill="#85C1E9" fill-rule="nonzero" /><path id="81" transform="matrix(1 0 0 -1 0 612)" d="M350.34 462.86L415.81 462.86L415.81 462.86L415.81 470.91L415.81 470.91L350.34 470.91z" stroke="#FFFFFF" stroke-width="1.07" fill="#85C1E9" fill-rule="nonzero" /><path id="82" transform="matrix(1 0 0 -1 0 612)" d="M350.34 310.83L399.45 310.83L399.45 310.83L399.45 318.88L399.45 318.88L350.34 318.88z" stroke="#FFFFFF" stroke-width="1.07" fill="#85C1E9" fill-rule="nonzero" /><path id="83" transform="matrix(1 0 0 -1 0 612)" d="M350.34 319.77L399.45 319.77L399.45 319.77L399.45 327.82L399.45 327.82L350.34 327.82z" stroke="#FFFFFF" stroke-width="1.07" fill="#85C1E9" fill-rule="nonzero" /><path id="84" transform="matrix(1 0 0 -1 0 612)" d="M350.34 328.71L399.45 328.71L399.45 328.71L399.45 336.76L399.45 336.76L350.34 336.76z" stroke="#FFFFFF" stroke-width="1.07" fill="#85C1E9" fill-rule="nonzero" /><path id="85" transform="matrix(1 0 0 -1 0 612)" d="M350.34 337.65L399.45 337.65L399.45 337.65L399.45 345.7L399.45 345.7L350.34 345.7z" stroke="#FFFFFF" stroke-width="1.07" fill="#85C1E9" fill-rule="nonzero" /><path id="86" transform="matrix(1 0 0 -1 0 612)" d="M350.34 87.25L383.08 87.25L383.08 87.25L383.08 95.3L383.08 95.3L350.34 95.3z" stroke="#FFFFFF" stroke-width="1.07" fill="#85C1E9" fill-rule="nonzero" /><path id="87" transform="matrix(1 0 0 -1 0 612)" d="M350.34 96.2L383.08 96.2L383.08 96.2L383.08 104.25L383.08 104.25L350.34 104.25z" stroke="#FFFFFF" stroke-width="1.07" fill="#85C1E9" fill-rule="nonzero" /><path id="88" transform="matrix(1 0 0 -1 0 612)" d="M350.34 105.14L383.08 105.14L383.08 105.14L383.08 113.19L383.08 113.19L350.34 113.19z" stroke="#FFFFFF" stroke-width="1.07" fill="#85C1E9" fill-rule="nonzero" /><path id="89" transform="matrix(1 0 0 -1 0 612)" d="M350.34 114.08L383.08 114.08L383.08 114.08L383.08 122.13L383.08 122.13L350.34 122.13z" stroke="#FFFFFF" stroke-width="1.07" fill="#85C1E9" fill-rule="nonzero" /><path id="90" transform="matrix(1 0 0 -1 0 612)" d="M350.34 123.02L383.08 123.02L383.08 123.02L383.08 131.07L383.08 131.07L350.34 131.07z" stroke="#FFFFFF" stroke-width="1.07" fill="#85C1E9" fill-rule="nonzero" /><path id="91" transform="matrix(1 0 0 -1 0 612)" d="M350.34 131.97L383.08 131.97L383.08 131.97L383.08 140.02L383.08 140.02L350.34 140.02z" stroke="#FFFFFF" stroke-width="1.07" fill="#85C1E9" fill-rule="nonzero" /><path id="92" transform="matrix(1 0 0 -1 0 612)" d="M350.34 140.91L383.08 140.91L383.08 140.91L383.08 148.96L383.08 148.96L350.34 148.96z" stroke="#FFFFFF" stroke-width="1.07" fill="#85C1E9" fill-rule="nonzero" /><path id="93" transform="matrix(1 0 0 -1 0 612)" d="M350.34 149.85L383.08 149.85L383.08 149.85L383.08 157.9L383.08 157.9L350.34 157.9z" stroke="#FFFFFF" stroke-width="1.07" fill="#85C1E9" fill-rule="nonzero" /><path id="94" transform="matrix(1 0 0 -1 0 612)" d="M350.34 158.8L383.08 158.8L383.08 158.8L383.08 166.85L383.08 166.85L350.34 166.85z" stroke="#FFFFFF" stroke-width="1.07" fill="#85C1E9" fill-rule="nonzero" /><path id="95" transform="matrix(1 0 0 -1 0 612)" d="M350.34 167.74L383.08 167.74L383.08 167.74L383.08 175.79L383.08 175.79L350.34 175.79z" stroke="#FFFFFF" stroke-width="1.07" fill="#85C1E9" fill-rule="nonzero" /><path id="96" transform="matrix(1 0 0 -1 0 612)" d="M350.34 176.68L383.08 176.68L383.08 176.68L383.08 184.73L383.08 184.73L350.34 184.73z" stroke="#FFFFFF" stroke-width="1.07" fill="#85C1E9" fill-rule="nonzero" /><path id="97" transform="matrix(1 0 0 -1 0 612)" d="M350.34 185.62L383.08 185.62L383.08 185.62L383.08 193.67L383.08 193.67L350.34 193.67z" stroke="#FFFFFF" stroke-width="1.07" fill="#85C1E9" fill-rule="nonzero" /><path id="98" transform="matrix(1 0 0 -1 0 612)" d="M350.34 194.57L383.08 194.57L383.08 194.57L383.08 202.62L383.08 202.62L350.34 202.62z" stroke="#FFFFFF" stroke-width="1.07" fill="#85C1E9" fill-rule="nonzero" /><path id="99" transform="matrix(1 0 0 -1 0 612)" d="M350.34 203.51L383.08 203.51L383.08 203.51L383.08 211.56L383.08 211.56L350.34 211.56z" stroke="#FFFFFF" stroke-width="1.07" fill="#85C1E9" fill-rule="nonzero" /><path id="100" transform="matrix(1 0 0 -1 0 612)" d="M350.34 212.45L383.08 212.45L383.08 212.45L383.08 220.5L383.08 220.5L350.34 220.5z" stroke="#FFFFFF" stroke-width="1.07" fill="#85C1E9" fill-rule="nonzero" /><path id="101" transform="matrix(1 0 0 -1 0 612)" d="M350.34 221.4L383.08 221.4L383.08 221.4L383.08 229.45L383.08 229.45L350.34 229.45z" stroke="#FFFFFF" stroke-width="1.07" fill="#85C1E9" fill-rule="nonzero" /><path id="102" transform="matrix(1 0 0 -1 0 612)" d="M350.34 230.34L383.08 230.34L383.08 230.34L383.08 238.39L383.08 238.39L350.34 238.39z" stroke="#FFFFFF" stroke-width="1.07" fill="#85C1E9" fill-rule="nonzero" /><path id="103" transform="matrix(1 0 0 -1 0 612)" d="M350.34 239.28L383.08 239.28L383.08 239.28L383.08 247.33L383.08 247.33L350.34 247.33z" stroke="#FFFFFF" stroke-width="1.07" fill="#85C1E9" fill-rule="nonzero" /><path id="104" transform="matrix(1 0 0 -1 0 612)" d="M350.34 248.23L383.08 248.23L383.08 248.23L383.08 256.28L383.08 256.28L350.34 256.28z" stroke="#FFFFFF" stroke-width="1.07" fill="#85C1E9" fill-rule="nonzero" /><path id="105" transform="matrix(1 0 0 -1 0 612)" d="M350.34 257.17L383.08 257.17L383.08 257.17L383.08 265.22L383.08 265.22L350.34 265.22z" stroke="#FFFFFF" stroke-width="1.07" fill="#85C1E9" fill-rule="nonzero" /><path id="106" transform="matrix(1 0 0 -1 0 612)" d="M350.34 266.11L383.08 266.11L383.08 266.11L383.08 274.16L383.08 274.16L350.34 274.16z" stroke="#FFFFFF" stroke-width="1.07" fill="#85C1E9" fill-rule="nonzero" /><path id="107" transform="matrix(1 0 0 -1 0 612)" d="M350.34 275.05L383.08 275.05L383.08 275.05L383.08 283.1L383.08 283.1L350.34 283.1z" stroke="#FFFFFF" stroke-width="1.07" fill="#85C1E9" fill-rule="nonzero" /><path id="108" transform="matrix(1 0 0 -1 0 612)" d="M350.34 284L383.08 284L383.08 284L383.08 292.05L383.08 292.05L350.34 292.05z" stroke="#FFFFFF" stroke-width="1.07" fill="#85C1E9" fill-rule="nonzero" /><path id="109" transform="matrix(1 0 0 -1 0 612)" d="M350.34 292.94L383.08 292.94L383.08 292.94L383.08 300.99L383.08 300.99L350.34 300.99z" stroke="#FFFFFF" stroke-width="1.07" fill="#85C1E9" fill-rule="nonzero" /><path id="110" transform="matrix(1 0 0 -1 0 612)" d="M350.34 301.88L383.08 301.88L383.08 301.88L383.08 309.93L383.08 309.93L350.34 309.93z" stroke="#FFFFFF" stroke-width="1.07" fill="#85C1E9" fill-rule="nonzero" /><path id="263" transform="matrix(1 0 0 -1 0 612)" d="M336.43 85.91L642.52 85.91L642.52 85.91L642.52 534.85L642.52 534.85L336.43 534.85z" stroke="#323232" stroke-width="1.07" stroke-linecap="round" fill="none" /></g><g clip-path="url(#15)"></g><g clip-path="url(#16)"></g><g clip-path="url(#17)"></g><g clip-path="url(#18)"></g><g clip-path="url(#19)"></g><g clip-path="url(#20)"></g><g clip-path="url(#21)"></g><g clip-path="url(#22)"></g><g clip-path="url(#23)"></g><g clip-path="url(#24)"></g><g clip-path="url(#25)"></g><g clip-path="url(#26)"></g><g clip-path="url(#27)"></g><g clip-path="url(#28)"></g><g clip-path="url(#29)"></g><g clip-path="url(#30)"></g><g clip-path="url(#31)"></g><g clip-path="url(#32)"><path id="1280" transform="matrix(1 0 0 -1 0 612)" d="M333.69 91.28L336.43 91.28" stroke="#323232" stroke-width="1.07" fill="none" /><path id="1281" transform="matrix(1 0 0 -1 0 612)" d="M333.69 100.22L336.43 100.22" stroke="#323232" stroke-width="1.07" fill="none" /><path id="1282" transform="matrix(1 0 0 -1 0 612)" d="M333.69 109.16L336.43 109.16" stroke="#323232" stroke-width="1.07" fill="none" /><path id="1283" transform="matrix(1 0 0 -1 0 612)" d="M333.69 118.11L336.43 118.11" stroke="#323232" stroke-width="1.07" fill="none" /><path id="1284" transform="matrix(1 0 0 -1 0 612)" d="M333.69 127.05L336.43 127.05" stroke="#323232" stroke-width="1.07" fill="none" /><path id="1285" transform="matrix(1 0 0 -1 0 612)" d="M333.69 135.99L336.43 135.99" stroke="#323232" stroke-width="1.07" fill="none" /><path id="1286" transform="matrix(1 0 0 -1 0 612)" d="M333.69 144.93L336.43 144.93" stroke="#323232" stroke-width="1.07" fill="none" /><path id="1287" transform="matrix(1 0 0 -1 0 612)" d="M333.69 153.88L336.43 153.88" stroke="#323232" stroke-width="1.07" fill="none" /><path id="1288" transform="matrix(1 0 0 -1 0 612)" d="M333.69 162.82L336.43 162.82" stroke="#323232" stroke-width="1.07" fill="none" /><path id="1289" transform="matrix(1 0 0 -1 0 612)" d="M333.69 171.76L336.43 171.76" stroke="#323232" stroke-width="1.07" fill="none" /><path id="1290" transform="matrix(1 0 0 -1 0 612)" d="M333.69 180.71L336.43 180.71" stroke="#323232" stroke-width="1.07" fill="none" /><path id="1291" transform="matrix(1 0 0 -1 0 612)" d="M333.69 189.65L336.43 189.65" stroke="#323232" stroke-width="1.07" fill="none" /><path id="1292" transform="matrix(1 0 0 -1 0 612)" d="M333.69 198.59L336.43 198.59" stroke="#323232" stroke-width="1.07" fill="none" /><path id="1293" transform="matrix(1 0 0 -1 0 612)" d="M333.69 207.53L336.43 207.53" stroke="#323232" stroke-width="1.07" fill="none" /><path id="1294" transform="matrix(1 0 0 -1 0 612)" d="M333.69 216.48L336.43 216.48" stroke="#323232" stroke-width="1.07" fill="none" /><path id="1295" transform="matrix(1 0 0 -1 0 612)" d="M333.69 225.42L336.43 225.42" stroke="#323232" stroke-width="1.07" fill="none" /><path id="1296" transform="matrix(1 0 0 -1 0 612)" d="M333.69 234.36L336.43 234.36" stroke="#323232" stroke-width="1.07" fill="none" /><path id="1297" transform="matrix(1 0 0 -1 0 612)" d="M333.69 243.31L336.43 243.31" stroke="#323232" stroke-width="1.07" fill="none" /><path id="1298" transform="matrix(1 0 0 -1 0 612)" d="M333.69 252.25L336.43 252.25" stroke="#323232" stroke-width="1.07" fill="none" /><path id="1299" transform="matrix(1 0 0 -1 0 612)" d="M333.69 261.19L336.43 261.19" stroke="#323232" stroke-width="1.07" fill="none" /><path id="1300" transform="matrix(1 0 0 -1 0 612)" d="M333.69 270.14L336.43 270.14" stroke="#323232" stroke-width="1.07" fill="none" /><path id="1301" transform="matrix(1 0 0 -1 0 612)" d="M333.69 279.08L336.43 279.08" stroke="#323232" stroke-width="1.07" fill="none" /><path id="1302" transform="matrix(1 0 0 -1 0 612)" d="M333.69 288.02L336.43 288.02" stroke="#323232" stroke-width="1.07" fill="none" /><path id="1303" transform="matrix(1 0 0 -1 0 612)" d="M333.69 296.96L336.43 296.96" stroke="#323232" stroke-width="1.07" fill="none" /><path id="1304" transform="matrix(1 0 0 -1 0 612)" d="M333.69 305.91L336.43 305.91" stroke="#323232" stroke-width="1.07" fill="none" /><path id="1305" transform="matrix(1 0 0 -1 0 612)" d="M333.69 314.85L336.43 314.85" stroke="#323232" stroke-width="1.07" fill="none" /><path id="1306" transform="matrix(1 0 0 -1 0 612)" d="M333.69 323.79L336.43 323.79" stroke="#323232" stroke-width="1.07" fill="none" /><path id="1307" transform="matrix(1 0 0 -1 0 612)" d="M333.69 332.74L336.43 332.74" stroke="#323232" stroke-width="1.07" fill="none" /><path id="1308" transform="matrix(1 0 0 -1 0 612)" d="M333.69 341.68L336.43 341.68" stroke="#323232" stroke-width="1.07" fill="none" /><path id="1309" transform="matrix(1 0 0 -1 0 612)" d="M333.69 350.62L336.43 350.62" stroke="#323232" stroke-width="1.07" fill="none" /><path id="1310" transform="matrix(1 0 0 -1 0 612)" d="M333.69 359.57L336.43 359.57" stroke="#323232" stroke-width="1.07" fill="none" /><path id="1311" transform="matrix(1 0 0 -1 0 612)" d="M333.69 368.51L336.43 368.51" stroke="#323232" stroke-width="1.07" fill="none" /><path id="1312" transform="matrix(1 0 0 -1 0 612)" d="M333.69 377.45L336.43 377.45" stroke="#323232" stroke-width="1.07" fill="none" /><path id="1313" transform="matrix(1 0 0 -1 0 612)" d="M333.69 386.39L336.43 386.39" stroke="#323232" stroke-width="1.07" fill="none" /><path id="1314" transform="matrix(1 0 0 -1 0 612)" d="M333.69 395.34L336.43 395.34" stroke="#323232" stroke-width="1.07" fill="none" /><path id="1315" transform="matrix(1 0 0 -1 0 612)" d="M333.69 404.28L336.43 404.28" stroke="#323232" stroke-width="1.07" fill="none" /><path id="1316" transform="matrix(1 0 0 -1 0 612)" d="M333.69 413.22L336.43 413.22" stroke="#323232" stroke-width="1.07" fill="none" /><path id="1317" transform="matrix(1 0 0 -1 0 612)" d="M333.69 422.17L336.43 422.17" stroke="#323232" stroke-width="1.07" fill="none" /><path id="1318" transform="matrix(1 0 0 -1 0 612)" d="M333.69 431.11L336.43 431.11" stroke="#323232" stroke-width="1.07" fill="none" /><path id="1319" transform="matrix(1 0 0 -1 0 612)" d="M333.69 440.05L336.43 440.05" stroke="#323232" stroke-width="1.07" fill="none" /><path id="1320" transform="matrix(1 0 0 -1 0 612)" d="M333.69 448.99L336.43 448.99" stroke="#323232" stroke-width="1.07" fill="none" /><path id="1321" transform="matrix(1 0 0 -1 0 612)" d="M333.69 457.94L336.43 457.94" stroke="#323232" stroke-width="1.07" fill="none" /><path id="1322" transform="matrix(1 0 0 -1 0 612)" d="M333.69 466.88L336.43 466.88" stroke="#323232" stroke-width="1.07" fill="none" /><path id="1323" transform="matrix(1 0 0 -1 0 612)" d="M333.69 475.82L336.43 475.82" stroke="#323232" stroke-width="1.07" fill="none" /><path id="1324" transform="matrix(1 0 0 -1 0 612)" d="M333.69 484.77L336.43 484.77" stroke="#323232" stroke-width="1.07" fill="none" /><path id="1325" transform="matrix(1 0 0 -1 0 612)" d="M333.69 493.71L336.43 493.71" stroke="#323232" stroke-width="1.07" fill="none" /><path id="1326" transform="matrix(1 0 0 -1 0 612)" d="M333.69 502.65L336.43 502.65" stroke="#323232" stroke-width="1.07" fill="none" /><path id="1327" transform="matrix(1 0 0 -1 0 612)" d="M333.69 511.6L336.43 511.6" stroke="#323232" stroke-width="1.07" fill="none" /><path id="1328" transform="matrix(1 0 0 -1 0 612)" d="M333.69 520.54L336.43 520.54" stroke="#323232" stroke-width="1.07" fill="none" /><path id="1329" transform="matrix(1 0 0 -1 0 612)" d="M333.69 529.48L336.43 529.48" stroke="#323232" stroke-width="1.07" fill="none" /></g><g clip-path="url(#33)"></g><g clip-path="url(#34)"></g><g clip-path="url(#35)"></g><g clip-path="url(#36)"></g><g clip-path="url(#37)"></g><g clip-path="url(#38)"></g><g clip-path="url(#39)"></g><g clip-path="url(#40)"></g><g clip-path="url(#41)"></g><g clip-path="url(#42)"><path id="1330" transform="matrix(1 0 0 -1 0 612)" d="M350.34 83.17L350.34 85.91" stroke="#323232" stroke-width="1.07" fill="none" /><path id="1331" transform="matrix(1 0 0 -1 0 612)" d="M432.18 83.17L432.18 85.91" stroke="#323232" stroke-width="1.07" fill="none" /><path id="1332" transform="matrix(1 0 0 -1 0 612)" d="M514.03 83.17L514.03 85.91" stroke="#323232" stroke-width="1.07" fill="none" /><path id="1333" transform="matrix(1 0 0 -1 0 612)" d="M595.87 83.17L595.87 85.91" stroke="#323232" stroke-width="1.07" fill="none" /></g><g clip-path="url(#43)"></g><g clip-path="url(#44)"></g><g clip-path="url(#45)"></g><g clip-path="url(#46)"></g><g clip-path="url(#47)"></g><g clip-path="url(#48)"></g><g clip-path="url(#49)"></g><g clip-path="url(#50)"></g><g clip-path="url(#51)"></g><g clip-path="url(#52)"><path id="1345" transform="matrix(1 0 0 -1 0 612)" d="M157.38 294.9221L150.4352 294.9221L150.4352 294.9221L150.4352 292.3278L150.4352 292.3278L149.506 292.3278L149.506 292.3278L149.506 298.569L149.506 298.569L150.4352 298.569L150.4352 298.569L150.4352 295.9641L150.4352 295.9641L157.38 295.9641z" stroke="none" fill="#000000" fill-rule="evenodd" /><path id="1346" transform="matrix(1 0 0 -1 0 612)" d="M157.38 298.1854L151.6759 298.1854L151.6759 298.1854L151.6759 299.0555L151.6759 299.0555L152.5406 299.0555C 151.7314 299.4995 151.547 299.8397 151.547 300.2908C 151.547 300.6167 151.6508 300.9479 151.8585 301.2845L151.8585 301.2845L152.7555 300.9515C 152.6158 300.7151 152.546 300.4788 152.546 300.2425C 152.546 299.82 152.8146 299.4565 153.2657 299.3133C 153.6095 299.2059 153.9855 299.1522 154.3937 299.1522L154.3937 299.1522L157.38 299.1522z" stroke="none" fill="#000000" fill-rule="evenodd" /><path id="1347" transform="matrix(1 0 0 -1 0 612)" d="M150.6178 302.0295L149.506 302.0295L149.506 302.0295L149.506 302.9963L149.506 302.9963L150.6178 302.9963zM157.38 302.0295L151.6759 302.0295L151.6759 302.0295L151.6759 302.9963L151.6759 302.9963L157.38 302.9963z" stroke="none" fill="#000000" fill-rule="evenodd" /><path id="1348" transform="matrix(1 0 0 -1 0 612)" d="M157.8527 304.2888L157.9923 305.2288C 158.2823 305.2682 158.4936 305.3774 158.6261 305.5564C 158.8051 305.7964 158.8947 306.124 158.8947 306.5393C 158.8947 307.4345 158.5187 307.8982 157.8741 308.0701C 157.6772 308.1202 157.2636 308.1435 156.6334 308.1399C 157.1311 307.7174 157.38 307.191 157.38 306.5608C 157.38 304.9925 156.0784 304.0955 154.4957 304.0955C 153.9515 304.0955 153.4493 304.194 152.9891 304.3909C 152.529 304.5879 152.1736 304.8734 151.923 305.2476C 151.6723 305.6218 151.547 306.0613 151.547 306.5662C 151.547 307.2394 151.8191 307.7944 152.3634 308.2312L152.3634 308.2312L151.6759 308.2312L151.6759 308.2312L151.6759 309.1228L151.6759 309.1228L156.6066 309.1228C 157.4946 309.1228 158.1239 309.0324 158.4945 308.8516C 158.8651 308.6708 159.1578 308.3843 159.3727 307.9922C 159.5875 307.6001 159.6949 307.1176 159.6949 306.5447C 159.6949 305.1841 159.0844 304.2602 157.8527 304.2888zM154.4259 305.0891C 155.9227 305.0891 156.5797 305.757 156.5797 306.6521C 156.5797 307.5402 155.9191 308.2205 154.4581 308.2205C 153.0616 308.2205 152.3473 307.5097 152.3473 306.636C 152.3473 305.7766 153.0509 305.0891 154.4259 305.0891z" stroke="none" fill="#000000" fill-rule="evenodd" /><path id="1349" transform="matrix(1 0 0 -1 0 612)" d="M157.38 310.5714L151.6759 310.5714L151.6759 310.5714L151.6759 311.4415L151.6759 311.4415L152.5406 311.4415C 151.7314 311.8855 151.547 312.2257 151.547 312.6768C 151.547 313.0027 151.6508 313.3339 151.8585 313.6705L151.8585 313.6705L152.7555 313.3375C 152.6158 313.1012 152.546 312.8648 152.546 312.6285C 152.546 312.206 152.8146 311.8425 153.2657 311.6993C 153.6095 311.5919 153.9855 311.5382 154.3937 311.5382L154.3937 311.5382L157.38 311.5382z" stroke="none" fill="#000000" fill-rule="evenodd" /><path id="1350" transform="matrix(1 0 0 -1 0 612)" d="M156.6764 317.8573C 157.2851 317.1411 157.5089 316.5163 157.5089 315.7572C 157.5089 314.5039 156.8286 313.8075 155.8761 313.8075C 155.5968 313.8075 155.3417 313.871 155.1107 313.9981C 154.8798 314.1252 154.6945 314.2917 154.5548 314.4977C 154.4152 314.7036 154.3095 314.9354 154.2379 315.1932C 154.1878 315.383 154.1395 315.6694 154.0929 316.0526C 153.9998 316.8332 153.8888 317.4079 153.7599 317.7767C 153.6274 317.7803 153.5433 317.7821 153.5074 317.7821C 153.1136 317.7821 152.8361 317.6908 152.6749 317.5081C 152.4565 317.2611 152.3473 316.894 152.3473 316.4071C 152.3473 315.4976 152.623 315.127 153.4323 314.9193L153.4323 314.9193L153.3033 313.974C 152.8987 314.0599 152.572 314.2014 152.3231 314.3983C 152.0743 314.5952 151.8827 314.8799 151.7484 315.2523C 151.6141 315.6247 151.547 316.0562 151.547 316.5467C 151.547 317.0337 151.6043 317.4294 151.7189 317.7337C 151.8335 318.0381 151.9776 318.2619 152.1512 318.4051C 152.3249 318.5483 152.5442 318.6486 152.8092 318.7059C 152.9739 318.7381 153.2711 318.7542 153.7008 318.7542L153.7008 318.7542L154.9899 318.7542C 156.7874 318.7542 156.9432 318.8169 157.38 319.0604L157.38 319.0604L157.38 318.0506C 157.1795 317.9504 156.9449 317.8859 156.6764 317.8573zM154.5172 317.7767C 154.6604 317.4258 154.7822 316.8994 154.8824 316.1976C 154.9397 315.8001 155.0042 315.519 155.0758 315.3543C 155.1474 315.1896 155.2522 315.0625 155.39 314.973C 155.5279 314.8835 155.681 314.8387 155.8492 314.8387C 156.3649 314.8387 156.7516 315.2362 156.7516 315.9881C 156.7516 316.7329 156.4043 317.3488 155.8385 317.6209C 155.6201 317.7248 155.2978 317.7767 154.8717 317.7767z" stroke="none" fill="#000000" fill-rule="evenodd" /><path id="1351" transform="matrix(1 0 0 -1 0 612)" d="M157.38 320.2511L151.6759 320.2511L151.6759 320.2511L151.6759 321.1158L151.6759 321.1158L152.4762 321.1158C 151.9176 321.4739 151.547 322.0862 151.547 322.8453C 151.547 323.6904 151.9158 324.2346 152.546 324.4567C 151.88 324.9078 151.547 325.4951 151.547 326.2184C 151.547 327.3499 152.1611 327.9801 153.4645 327.9801L153.4645 327.9801L157.38 327.9801L157.38 327.9801L157.38 327.0187L157.38 327.0187L153.7867 327.0187C 153.4 327.0187 153.1216 326.9873 152.9515 326.9247C 152.7814 326.862 152.6445 326.7483 152.5406 326.5836C 152.4368 326.4189 152.3849 326.2256 152.3849 326.0035C 152.3849 325.2014 152.8916 324.6071 154.066 324.6071L154.066 324.6071L157.38 324.6071L157.38 324.6071L157.38 323.6403L157.38 323.6403L153.674 323.6403C 152.8146 323.6403 152.3849 323.3466 152.3849 322.6305C 152.3849 322.3584 152.4565 322.1068 152.5997 321.8759C 152.743 321.6449 152.9524 321.4775 153.2281 321.3737C 153.5039 321.2698 153.9013 321.2179 154.4205 321.2179L154.4205 321.2179L157.38 321.2179z" stroke="none" fill="#000000" fill-rule="evenodd" /></g><g clip-path="url(#53)"></g><g clip-path="url(#54)"></g><g clip-path="url(#55)"></g><g clip-path="url(#56)"></g><g clip-path="url(#57)"></g><g clip-path="url(#58)"></g><g clip-path="url(#59)"></g><g clip-path="url(#60)"></g><g clip-path="url(#61)"></g><g clip-path="url(#62)"></g><g clip-path="url(#63)"></g><g clip-path="url(#64)"></g></g></g></svg>