<svg xmlns="http://www.w3.org/2000/svg" xmlns:xlink="http://www.w3.org/1999/xlink" id="body_1" preserveAspectRatio="xMinYMin meet" viewBox="0 0 1056 816"><defs><clipPath id="1"><path id="" clip-rule="evenodd" transform="matrix(1 0 0 1 0 0)" d="M0 612L0 0L0 0L792 0L792 0L792 612L792 612L0 612z" /></clipPath><clipPath id="2"><path id="" clip-rule="evenodd" transform="matrix(1 0 0 1 0 0)" d="M172.875 52.5L619.125 52.5L619.125 52.5L619.125 557.25L619.125 557.25L172.875 557.25L172.875 557.25L172.875 52.5z" /></clipPath></defs><g transform="matrix(1.333333 0 0 1.333333 0 0)"><g clip-path="url(#1)"><g clip-path="url(#2)"><path id="9" transform="matrix(1 0 0 -1 0 612)" d="M173.625 558.75L618.375 558.75L618.375 541.5L173.625 541.5L173.625 558.75z" stroke="none" fill="#4DD0E1" fill-rule="nonzero" /><path id="10" transform="matrix(1 0 0 -1 0 612)" d="M173.625 542.25L618.375 542.25L618.375 508.5L173.625 508.5L173.625 542.25z" stroke="none" fill="#FFFFFF" fill-rule="nonzero" /><path id="11" transform="matrix(1 0 0 -1 0 612)" d="M173.625 509.25L618.375 509.25L618.375 478.5L173.625 478.5L173.625 509.25z" stroke="none" fill="#E0F7FA" fill-rule="nonzero" /><path id="12" transform="matrix(1 0 0 -1 0 612)" d="M173.625 479.25L618.375 479.25L618.375 448.5L173.625 448.5L173.625 479.25z" stroke="none" fill="#FFFFFF" fill-rule="nonzero" /><path id="13" transform="matrix(1 0 0 -1 0 612)" d="M173.625 449.25L618.375 449.25L618.375 418.5L173.625 418.5L173.625 449.25z" stroke="none" fill="#E0F7FA" fill-rule="nonzero" /><path id="14" transform="matrix(1 0 0 -1 0 612)" d="M173.625 419.25L618.375 419.25L618.375 362.25L173.625 362.25L173.625 419.25z" stroke="none" fill="#FFFFFF" fill-rule="nonzero" /><path id="15" transform="matrix(1 0 0 -1 0 612)" d="M173.625 363L618.375 363L618.375 319.5L173.625 319.5L173.625 363z" stroke="none" fill="#E0F7FA" fill-rule="nonzero" /><path id="16" transform="matrix(1 0 0 -1 0 612)" d="M173.625 320.25L618.375 320.25L618.375 276.75L173.625 276.75L173.625 320.25z" stroke="none" fill="#FFFFFF" fill-rule="nonzero" /><path id="17" transform="matrix(1 0 0 -1 0 612)" d="M173.625 277.5L618.375 277.5L618.375 260.25L173.625 260.25L173.625 277.5z" stroke="none" fill="#E0F7FA" fill-rule="nonzero" /><path id="18" transform="matrix(1 0 0 -1 0 612)" d="M173.625 261L618.375 261L618.375 202.5L173.625 202.5L173.625 261z" stroke="none" fill="#FFFFFF" fill-rule="nonzero" /><path id="19" transform="matrix(1 0 0 -1 0 612)" d="M173.625 203.25L618.375 203.25L618.375 144.75L173.625 144.75L173.625 203.25z" stroke="none" fill="#E0F7FA" fill-rule="nonzero" /><path id="20" transform="matrix(1 0 0 -1 0 612)" d="M173.625 145.5L618.375 145.5L618.375 88.5L173.625 88.5L173.625 145.5z" stroke="none" fill="#FFFFFF" fill-rule="nonzero" /><path id="21" transform="matrix(1 0 0 -1 0 612)" d="M173.625 89.25L618.375 89.25L618.375 72L173.625 72L173.625 89.25z" stroke="none" fill="#E0F7FA" fill-rule="nonzero" /><path id="22" transform="matrix(1 0 0 -1 0 612)" d="M173.625 72.75L618.375 72.75L618.375 55.5L173.625 55.5L173.625 72.75z" stroke="none" fill="#FFFFFF" fill-rule="nonzero" /><path id="23" transform="matrix(1 0 0 -1 0 612)" d="M173.625 56.25L618.375 56.25L618.375 55.5L173.625 55.5zM173.625 72.75L618.375 72.75L618.375 72L173.625 72zM173.625 89.25L618.375 89.25L618.375 88.5L173.625 88.5zM173.625 145.5L618.375 145.5L618.375 144.75L173.625 144.75zM173.625 203.25L618.375 203.25L618.375 202.5L173.625 202.5zM173.625 261L618.375 261L618.375 260.25L173.625 260.25zM173.625 277.5L618.375 277.5L618.375 276.75L173.625 276.75zM173.625 320.25L618.375 320.25L618.375 319.5L173.625 319.5zM173.625 363L618.375 363L618.375 362.25L173.625 362.25zM173.625 419.25L618.375 419.25L618.375 418.5L173.625 418.5zM173.625 449.25L618.375 449.25L618.375 448.5L173.625 448.5zM173.625 479.25L618.375 479.25L618.375 478.5L173.625 478.5zM173.625 509.25L618.375 509.25L618.375 508.5L173.625 508.5zM173.625 542.25L618.375 542.25L618.375 541.5L173.625 541.5zM173.625 558.75L618.375 558.75L618.375 558L173.625 558zM618.375 72L618.375 56.25L617.625 56.25L617.625 72zM618.375 88.5L618.375 72.75L617.625 72.75L617.625 88.5zM618.375 144.75L618.375 89.25L617.625 89.25L617.625 144.75zM618.375 202.5L618.375 145.5L617.625 145.5L617.625 202.5zM618.375 260.25L618.375 203.25L617.625 203.25L617.625 260.25zM618.375 276.75L618.375 261L617.625 261L617.625 276.75zM618.375 319.5L618.375 277.5L617.625 277.5L617.625 319.5zM618.375 362.25L618.375 320.25L617.625 320.25L617.625 362.25zM618.375 418.5L618.375 363L617.625 363L617.625 418.5zM618.375 448.5L618.375 419.25L617.625 419.25L617.625 448.5zM618.375 478.5L618.375 449.25L617.625 449.25L617.625 478.5zM618.375 508.5L618.375 479.25L617.625 479.25L617.625 508.5zM618.375 541.5L618.375 509.25L617.625 509.25L617.625 541.5zM618.375 558L618.375 542.25L617.625 542.25L617.625 558zM541.125 72L541.125 56.25L540.375 56.25L540.375 72zM541.125 88.5L541.125 72.75L540.375 72.75L540.375 88.5zM541.125 144.75L541.125 89.25L540.375 89.25L540.375 144.75zM541.125 202.5L541.125 145.5L540.375 145.5L540.375 202.5zM541.125 260.25L541.125 203.25L540.375 203.25L540.375 260.25zM541.125 276.75L541.125 261L540.375 261L540.375 276.75zM541.125 319.5L541.125 277.5L540.375 277.5L540.375 319.5zM541.125 362.25L541.125 320.25L540.375 320.25L540.375 362.25zM541.125 418.5L541.125 363L540.375 363L540.375 418.5zM541.125 448.5L541.125 419.25L540.375 419.25L540.375 448.5zM541.125 478.5L541.125 449.25L540.375 449.25L540.375 478.5zM541.125 508.5L541.125 479.25L540.375 479.25L540.375 508.5zM541.125 541.5L541.125 509.25L540.375 509.25L540.375 541.5zM541.125 558L541.125 542.25L540.375 542.25L540.375 558zM512.625 72L512.625 56.25L511.875 56.25L511.875 72zM512.625 88.5L512.625 72.75L511.875 72.75L511.875 88.5zM512.625 144.75L512.625 89.25L511.875 89.25L511.875 144.75zM512.625 202.5L512.625 145.5L511.875 145.5L511.875 202.5zM512.625 260.25L512.625 203.25L511.875 203.25L511.875 260.25zM512.625 276.75L512.625 261L511.875 261L511.875 276.75zM512.625 319.5L512.625 277.5L511.875 277.5L511.875 319.5zM512.625 362.25L512.625 320.25L511.875 320.25L511.875 362.25zM512.625 418.5L512.625 363L511.875 363L511.875 418.5zM512.625 448.5L512.625 419.25L511.875 419.25L511.875 448.5zM512.625 478.5L512.625 449.25L511.875 449.25L511.875 478.5zM512.625 508.5L512.625 479.25L511.875 479.25L511.875 508.5zM512.625 541.5L512.625 509.25L511.875 509.25L511.875 541.5zM512.625 558L512.625 542.25L511.875 542.25L511.875 558zM284.625 72L284.625 56.25L283.875 56.25L283.875 72zM284.625 88.5L284.625 72.75L283.875 72.75L283.875 88.5zM284.625 144.75L284.625 89.25L283.875 89.25L283.875 144.75zM284.625 202.5L284.625 145.5L283.875 145.5L283.875 202.5zM284.625 260.25L284.625 203.25L283.875 203.25L283.875 260.25zM284.625 276.75L284.625 261L283.875 261L283.875 276.75zM284.625 319.5L284.625 277.5L283.875 277.5L283.875 319.5zM284.625 362.25L284.625 320.25L283.875 320.25L283.875 362.25zM284.625 418.5L284.625 363L283.875 363L283.875 418.5zM284.625 448.5L284.625 419.25L283.875 419.25L283.875 448.5zM284.625 478.5L284.625 449.25L283.875 449.25L283.875 478.5zM284.625 508.5L284.625 479.25L283.875 479.25L283.875 508.5zM284.625 541.5L284.625 509.25L283.875 509.25L283.875 541.5zM284.625 558L284.625 542.25L283.875 542.25L283.875 558zM208.125 72L208.125 56.25L207.375 56.25L207.375 72zM208.125 88.5L208.125 72.75L207.375 72.75L207.375 88.5zM208.125 144.75L208.125 89.25L207.375 89.25L207.375 144.75zM208.125 202.5L208.125 145.5L207.375 145.5L207.375 202.5zM208.125 260.25L208.125 203.25L207.375 203.25L207.375 260.25zM208.125 276.75L208.125 261L207.375 261L207.375 276.75zM208.125 319.5L208.125 277.5L207.375 277.5L207.375 319.5zM208.125 362.25L208.125 320.25L207.375 320.25L207.375 362.25zM208.125 418.5L208.125 363L207.375 363L207.375 418.5zM208.125 448.5L208.125 419.25L207.375 419.25L207.375 448.5zM208.125 478.5L208.125 449.25L207.375 449.25L207.375 478.5zM208.125 508.5L208.125 479.25L207.375 479.25L207.375 508.5zM208.125 541.5L208.125 509.25L207.375 509.25L207.375 541.5zM208.125 558L208.125 542.25L207.375 542.25L207.375 558zM174.375 72L174.375 56.25L173.625 56.25L173.625 72zM174.375 88.5L174.375 72.75L173.625 72.75L173.625 88.5zM174.375 144.75L174.375 89.25L173.625 89.25L173.625 144.75zM174.375 202.5L174.375 145.5L173.625 145.5L173.625 202.5zM174.375 260.25L174.375 203.25L173.625 203.25L173.625 260.25zM174.375 276.75L174.375 261L173.625 261L173.625 276.75zM174.375 319.5L174.375 277.5L173.625 277.5L173.625 319.5zM174.375 362.25L174.375 320.25L173.625 320.25L173.625 362.25zM174.375 418.5L174.375 363L173.625 363L173.625 418.5zM174.375 448.5L174.375 419.25L173.625 419.25L173.625 448.5zM174.375 478.5L174.375 449.25L173.625 449.25L173.625 478.5zM174.375 508.5L174.375 479.25L173.625 479.25L173.625 508.5zM174.375 541.5L174.375 509.25L173.625 509.25L173.625 541.5zM174.375 558L174.375 542.25L173.625 542.25L173.625 558z" stroke="none" fill="#000000" fill-rule="nonzero" fill-opacity="0.1490196" /><path id="121" transform="matrix(1 0 0 -1 0 612)" d="M286.875 525.3049L506.9091 525.3049" stroke="#000000" stroke-width="0.7017334" fill="none" /><path id="139" transform="matrix(1 0 0 -1 0 612)" d="M286.875 512.2157L378.7714 512.2157" stroke="#000000" stroke-width="0.7017334" fill="none" /><path id="226" transform="matrix(1 0 0 -1 0 612)" d="M286.875 495.3049L503.4537 495.3049" stroke="#000000" stroke-width="0.7017334" fill="none" /><path id="243" transform="matrix(1 0 0 -1 0 612)" d="M286.875 482.2157L363.2896 482.2157" stroke="#000000" stroke-width="0.7017334" fill="none" /><path id="321" transform="matrix(1 0 0 -1 0 612)" d="M286.875 465.3049L495.6159 465.3049" stroke="#000000" stroke-width="0.7017334" fill="none" /><path id="331" transform="matrix(1 0 0 -1 0 612)" d="M286.875 452.2157L333.6348 452.2157" stroke="#000000" stroke-width="0.7017334" fill="none" /><path id="383" transform="matrix(1 0 0 -1 0 612)" d="M286.875 422.2157L458.1652 422.2157" stroke="#000000" stroke-width="0.7017334" fill="none" /><path id="452" transform="matrix(1 0 0 -1 0 612)" d="M286.875 365.9657L461.7987 365.9657" stroke="#000000" stroke-width="0.7017334" fill="none" /><path id="554" transform="matrix(1 0 0 -1 0 612)" d="M286.875 349.3941L508.9669 349.3941" stroke="#000000" stroke-width="0.7017334" fill="none" /><path id="598" transform="matrix(1 0 0 -1 0 612)" d="M286.875 336.3049L510.8989 336.3049" stroke="#000000" stroke-width="0.7017334" fill="none" /><path id="616" transform="matrix(1 0 0 -1 0 612)" d="M286.875 323.2157L378.7714 323.2157" stroke="#000000" stroke-width="0.7017334" fill="none" /><path id="697" transform="matrix(1 0 0 -1 0 612)" d="M286.875 293.5549L486.8096 293.5549" stroke="#000000" stroke-width="0.7017334" fill="none" /><path id="731" transform="matrix(1 0 0 -1 0 612)" d="M286.875 280.4657L451.8247 280.4657" stroke="#000000" stroke-width="0.7017334" fill="none" /><path id="808" transform="matrix(1 0 0 -1 0 612)" d="M286.875 263.9657L437.8926 263.9657" stroke="#000000" stroke-width="0.7017334" fill="none" /><path id="876" transform="matrix(1 0 0 -1 0 612)" d="M286.875 219.3049L474.2073 219.3049" stroke="#000000" stroke-width="0.7017334" fill="none" /><path id="897" transform="matrix(1 0 0 -1 0 612)" d="M286.875 206.2157L385.3422 206.2157" stroke="#000000" stroke-width="0.7017334" fill="none" /><path id="1003" transform="matrix(1 0 0 -1 0 612)" d="M286.875 161.5549L458.7987 161.5549" stroke="#000000" stroke-width="0.7017334" fill="none" /><path id="1028" transform="matrix(1 0 0 -1 0 612)" d="M286.875 148.4657L392.0282 148.4657" stroke="#000000" stroke-width="0.7017334" fill="none" /><path id="1119" transform="matrix(1 0 0 -1 0 612)" d="M286.875 92.2157L466.3589 92.2157" stroke="#000000" stroke-width="0.7017334" fill="none" /><path id="1196" transform="matrix(1 0 0 -1 0 612)" d="M286.875 75.7157L396.7612 75.7157" stroke="#000000" stroke-width="0.7017334" fill="none" /><path id="1248" transform="matrix(1 0 0 -1 0 612)" d="M286.875 59.2157L472.0606 59.2157" stroke="#000000" stroke-width="0.7017334" fill="none" /></g></g></g></svg>