<svg xmlns="http://www.w3.org/2000/svg" xmlns:xlink="http://www.w3.org/1999/xlink" id="body_29" preserveAspectRatio="xMinYMin meet" viewBox="0 0 1056 816"><defs><clipPath id="1"><path id="" clip-rule="evenodd" transform="matrix(1 0 0 1 0 0)" d="M0 612L0 0L0 0L792 0L792 0L792 612L792 612L0 612z" /></clipPath><clipPath id="2"><path id="" clip-rule="evenodd" transform="matrix(1 0 0 1 0 0)" d="M172.875 52.5L619.125 52.5L619.125 52.5L619.125 69.75L619.125 69.75L172.875 69.75L172.875 69.75L172.875 52.5z" /></clipPath><clipPath id="3"><path id="" clip-rule="evenodd" transform="matrix(1 0 0 1 0 0)" d="M172.875 69L619.125 69L619.125 69L619.125 537.75L619.125 537.75L172.875 537.75L172.875 537.75L172.875 69z" /></clipPath></defs><g transform="matrix(1.333333 0 0 1.333333 0 0)"><g clip-path="url(#1)"><g clip-path="url(#2)"><path id="10" transform="matrix(1 0 0 -1 0 612)" d="M173.625 558.75L618.375 558.75L618.375 541.5L173.625 541.5L173.625 558.75z" stroke="none" fill="#4DD0E1" fill-rule="nonzero" /><path id="11" transform="matrix(1 0 0 -1 0 612)" d="M173.625 542.25L618.375 542.25L618.375 541.5L173.625 541.5zM173.625 558.75L618.375 558.75L618.375 558L173.625 558zM618.375 558L618.375 542.25L617.625 542.25L617.625 558zM541.125 558L541.125 542.25L540.375 542.25L540.375 558zM512.625 558L512.625 542.25L511.875 542.25L511.875 558zM284.625 558L284.625 542.25L283.875 542.25L283.875 558zM208.125 558L208.125 542.25L207.375 542.25L207.375 558zM174.375 558L174.375 542.25L173.625 542.25L173.625 558z" stroke="none" fill="#000000" fill-rule="nonzero" fill-opacity="0.1490196" /></g><g clip-path="url(#3)"><path id="39" transform="matrix(1 0 0 -1 0 612)" d="M173.625 542.25L618.375 542.25L618.375 498.75L173.625 498.75L173.625 542.25z" stroke="none" fill="#FFFFFF" fill-rule="nonzero" /><path id="40" transform="matrix(1 0 0 -1 0 612)" d="M173.625 499.5L618.375 499.5L618.375 468.75L173.625 468.75L173.625 499.5z" stroke="none" fill="#E0F7FA" fill-rule="nonzero" /><path id="41" transform="matrix(1 0 0 -1 0 612)" d="M173.625 469.5L618.375 469.5L618.375 426L173.625 426L173.625 469.5z" stroke="none" fill="#FFFFFF" fill-rule="nonzero" /><path id="42" transform="matrix(1 0 0 -1 0 612)" d="M173.625 426.75L618.375 426.75L618.375 396L173.625 396L173.625 426.75z" stroke="none" fill="#E0F7FA" fill-rule="nonzero" /><path id="43" transform="matrix(1 0 0 -1 0 612)" d="M173.625 396.75L618.375 396.75L618.375 353.25L173.625 353.25L173.625 396.75z" stroke="none" fill="#FFFFFF" fill-rule="nonzero" /><path id="44" transform="matrix(1 0 0 -1 0 612)" d="M173.625 354L618.375 354L618.375 308.25L173.625 308.25L173.625 354z" stroke="none" fill="#E0F7FA" fill-rule="nonzero" /><path id="45" transform="matrix(1 0 0 -1 0 612)" d="M173.625 309L618.375 309L618.375 278.25L173.625 278.25L173.625 309z" stroke="none" fill="#FFFFFF" fill-rule="nonzero" /><path id="46" transform="matrix(1 0 0 -1 0 612)" d="M173.625 279L618.375 279L618.375 235.5L173.625 235.5L173.625 279z" stroke="none" fill="#E0F7FA" fill-rule="nonzero" /><path id="47" transform="matrix(1 0 0 -1 0 612)" d="M173.625 236.25L618.375 236.25L618.375 192.75L173.625 192.75L173.625 236.25z" stroke="none" fill="#FFFFFF" fill-rule="nonzero" /><path id="48" transform="matrix(1 0 0 -1 0 612)" d="M173.625 193.5L618.375 193.5L618.375 162.75L173.625 162.75L173.625 193.5z" stroke="none" fill="#E0F7FA" fill-rule="nonzero" /><path id="49" transform="matrix(1 0 0 -1 0 612)" d="M173.625 163.5L618.375 163.5L618.375 105L173.625 105L173.625 163.5z" stroke="none" fill="#FFFFFF" fill-rule="nonzero" /><path id="50" transform="matrix(1 0 0 -1 0 612)" d="M173.625 105.75L618.375 105.75L618.375 75L173.625 75L173.625 105.75z" stroke="none" fill="#E0F7FA" fill-rule="nonzero" /><path id="51" transform="matrix(1 0 0 -1 0 612)" d="M173.625 75.75L618.375 75.75L618.375 75L173.625 75zM173.625 105.75L618.375 105.75L618.375 105L173.625 105zM173.625 163.5L618.375 163.5L618.375 162.75L173.625 162.75zM173.625 193.5L618.375 193.5L618.375 192.75L173.625 192.75zM173.625 236.25L618.375 236.25L618.375 235.5L173.625 235.5zM173.625 279L618.375 279L618.375 278.25L173.625 278.25zM173.625 309L618.375 309L618.375 308.25L173.625 308.25zM173.625 354L618.375 354L618.375 353.25L173.625 353.25zM173.625 396.75L618.375 396.75L618.375 396L173.625 396zM173.625 426.75L618.375 426.75L618.375 426L173.625 426zM173.625 469.5L618.375 469.5L618.375 468.75L173.625 468.75zM173.625 499.5L618.375 499.5L618.375 498.75L173.625 498.75zM173.625 542.25L618.375 542.25L618.375 541.5L173.625 541.5zM618.375 105L618.375 75.75L617.625 75.75L617.625 105zM618.375 162.75L618.375 105.75L617.625 105.75L617.625 162.75zM618.375 192.75L618.375 163.5L617.625 163.5L617.625 192.75zM618.375 235.5L618.375 193.5L617.625 193.5L617.625 235.5zM618.375 278.25L618.375 236.25L617.625 236.25L617.625 278.25zM618.375 308.25L618.375 279L617.625 279L617.625 308.25zM618.375 353.25L618.375 309L617.625 309L617.625 353.25zM618.375 396L618.375 354L617.625 354L617.625 396zM618.375 426L618.375 396.75L617.625 396.75L617.625 426zM618.375 468.75L618.375 426.75L617.625 426.75L617.625 468.75zM618.375 498.75L618.375 469.5L617.625 469.5L617.625 498.75zM618.375 541.5L618.375 499.5L617.625 499.5L617.625 541.5zM541.125 105L541.125 75.75L540.375 75.75L540.375 105zM541.125 162.75L541.125 105.75L540.375 105.75L540.375 162.75zM541.125 192.75L541.125 163.5L540.375 163.5L540.375 192.75zM541.125 235.5L541.125 193.5L540.375 193.5L540.375 235.5zM541.125 278.25L541.125 236.25L540.375 236.25L540.375 278.25zM541.125 308.25L541.125 279L540.375 279L540.375 308.25zM541.125 353.25L541.125 309L540.375 309L540.375 353.25zM541.125 396L541.125 354L540.375 354L540.375 396zM541.125 426L541.125 396.75L540.375 396.75L540.375 426zM541.125 468.75L541.125 426.75L540.375 426.75L540.375 468.75zM541.125 498.75L541.125 469.5L540.375 469.5L540.375 498.75zM541.125 541.5L541.125 499.5L540.375 499.5L540.375 541.5zM512.625 105L512.625 75.75L511.875 75.75L511.875 105zM512.625 162.75L512.625 105.75L511.875 105.75L511.875 162.75zM512.625 192.75L512.625 163.5L511.875 163.5L511.875 192.75zM512.625 235.5L512.625 193.5L511.875 193.5L511.875 235.5zM512.625 278.25L512.625 236.25L511.875 236.25L511.875 278.25zM512.625 308.25L512.625 279L511.875 279L511.875 308.25zM512.625 353.25L512.625 309L511.875 309L511.875 353.25zM512.625 396L512.625 354L511.875 354L511.875 396zM512.625 426L512.625 396.75L511.875 396.75L511.875 426zM512.625 468.75L512.625 426.75L511.875 426.75L511.875 468.75zM512.625 498.75L512.625 469.5L511.875 469.5L511.875 498.75zM512.625 541.5L512.625 499.5L511.875 499.5L511.875 541.5zM284.625 105L284.625 75.75L283.875 75.75L283.875 105zM284.625 162.75L284.625 105.75L283.875 105.75L283.875 162.75zM284.625 192.75L284.625 163.5L283.875 163.5L283.875 192.75zM284.625 235.5L284.625 193.5L283.875 193.5L283.875 235.5zM284.625 278.25L284.625 236.25L283.875 236.25L283.875 278.25zM284.625 308.25L284.625 279L283.875 279L283.875 308.25zM284.625 353.25L284.625 309L283.875 309L283.875 353.25zM284.625 396L284.625 354L283.875 354L283.875 396zM284.625 426L284.625 396.75L283.875 396.75L283.875 426zM284.625 468.75L284.625 426.75L283.875 426.75L283.875 468.75zM284.625 498.75L284.625 469.5L283.875 469.5L283.875 498.75zM284.625 541.5L284.625 499.5L283.875 499.5L283.875 541.5zM208.125 105L208.125 75.75L207.375 75.75L207.375 105zM208.125 162.75L208.125 105.75L207.375 105.75L207.375 162.75zM208.125 192.75L208.125 163.5L207.375 163.5L207.375 192.75zM208.125 235.5L208.125 193.5L207.375 193.5L207.375 235.5zM208.125 278.25L208.125 236.25L207.375 236.25L207.375 278.25zM208.125 308.25L208.125 279L207.375 279L207.375 308.25zM208.125 353.25L208.125 309L207.375 309L207.375 353.25zM208.125 396L208.125 354L207.375 354L207.375 396zM208.125 426L208.125 396.75L207.375 396.75L207.375 426zM208.125 468.75L208.125 426.75L207.375 426.75L207.375 468.75zM208.125 498.75L208.125 469.5L207.375 469.5L207.375 498.75zM208.125 541.5L208.125 499.5L207.375 499.5L207.375 541.5zM174.375 105L174.375 75.75L173.625 75.75L173.625 105zM174.375 162.75L174.375 105.75L173.625 105.75L173.625 162.75zM174.375 192.75L174.375 163.5L173.625 163.5L173.625 192.75zM174.375 235.5L174.375 193.5L173.625 193.5L173.625 235.5zM174.375 278.25L174.375 236.25L173.625 236.25L173.625 278.25zM174.375 308.25L174.375 279L173.625 279L173.625 308.25zM174.375 353.25L174.375 309L173.625 309L173.625 353.25zM174.375 396L174.375 354L173.625 354L173.625 396zM174.375 426L174.375 396.75L173.625 396.75L173.625 426zM174.375 468.75L174.375 426.75L173.625 426.75L173.625 468.75zM174.375 498.75L174.375 469.5L173.625 469.5L173.625 498.75zM174.375 541.5L174.375 499.5L173.625 499.5L173.625 541.5z" stroke="none" fill="#000000" fill-rule="nonzero" fill-opacity="0.1490196" /><path id="120" transform="matrix(1 0 0 -1 0 612)" d="M286.875 528.6445L507.9879 528.6445" stroke="#000000" stroke-width="0.7017334" fill="none" /><path id="160" transform="matrix(1 0 0 -1 0 612)" d="M286.875 515.5566L498.0716 515.5566" stroke="#000000" stroke-width="0.7017334" fill="none" /><path id="191" transform="matrix(1 0 0 -1 0 612)" d="M286.875 502.4668L439.0444 502.4668" stroke="#000000" stroke-width="0.7017334" fill="none" /><path id="270" transform="matrix(1 0 0 -1 0 612)" d="M286.875 485.5566L508.4434 485.5566" stroke="#000000" stroke-width="0.7017334" fill="none" /><path id="310" transform="matrix(1 0 0 -1 0 612)" d="M286.875 472.4668L481.4534 472.4668" stroke="#000000" stroke-width="0.7017334" fill="none" /><path id="390" transform="matrix(1 0 0 -1 0 612)" d="M286.875 442.8066L510.37 442.8066" stroke="#000000" stroke-width="0.7017334" fill="none" /><path id="427" transform="matrix(1 0 0 -1 0 612)" d="M286.875 429.7168L455.694 429.7168" stroke="#000000" stroke-width="0.7017334" fill="none" /><path id="508" transform="matrix(1 0 0 -1 0 612)" d="M286.875 412.8066L509.1655 412.8066" stroke="#000000" stroke-width="0.7017334" fill="none" /><path id="534" transform="matrix(1 0 0 -1 0 612)" d="M286.875 399.7168L413.0757 399.7168" stroke="#000000" stroke-width="0.7017334" fill="none" /><path id="618" transform="matrix(1 0 0 -1 0 612)" d="M286.875 383.1445L495.8096 383.1445" stroke="#000000" stroke-width="0.7017334" fill="none" /><path id="657" transform="matrix(1 0 0 -1 0 612)" d="M286.875 370.0566L464.5526 370.0566" stroke="#000000" stroke-width="0.7017334" fill="none" /><path id="669" transform="matrix(1 0 0 -1 0 612)" d="M286.875 356.9668L344.6401 356.9668" stroke="#000000" stroke-width="0.7017334" fill="none" /><path id="775" transform="matrix(1 0 0 -1 0 612)" d="M286.875 325.0566L509.2182 325.0566" stroke="#000000" stroke-width="0.7017334" fill="none" /><path id="807" transform="matrix(1 0 0 -1 0 612)" d="M286.875 311.9668L449.6153 311.9668" stroke="#000000" stroke-width="0.7017334" fill="none" /><path id="867" transform="matrix(1 0 0 -1 0 612)" d="M286.875 281.9668L442.191 281.9668" stroke="#000000" stroke-width="0.7017334" fill="none" /><path id="936" transform="matrix(1 0 0 -1 0 612)" d="M286.875 239.2168L498.8775 239.2168" stroke="#000000" stroke-width="0.7017334" fill="none" /><path id="1028" transform="matrix(1 0 0 -1 0 612)" d="M286.875 209.5566L459.0133 209.5566" stroke="#000000" stroke-width="0.7017334" fill="none" /><path id="1040" transform="matrix(1 0 0 -1 0 612)" d="M286.875 196.4668L339.8443 196.4668" stroke="#000000" stroke-width="0.7017334" fill="none" /><path id="1123" transform="matrix(1 0 0 -1 0 612)" d="M286.875 179.5566L484.9457 179.5566" stroke="#000000" stroke-width="0.7017334" fill="none" /><path id="1143" transform="matrix(1 0 0 -1 0 612)" d="M286.875 166.4668L383.3265 166.4668" stroke="#000000" stroke-width="0.7017334" fill="none" /><path id="1242" transform="matrix(1 0 0 -1 0 612)" d="M286.875 121.8066L496.0189 121.8066" stroke="#000000" stroke-width="0.7017334" fill="none" /><path id="1278" transform="matrix(1 0 0 -1 0 612)" d="M286.875 108.7168L450.2278 108.7168" stroke="#000000" stroke-width="0.7017334" fill="none" /><path id="1360" transform="matrix(1 0 0 -1 0 612)" d="M286.875 78.7168L480.5529 78.7168" stroke="#000000" stroke-width="0.7017334" fill="none" /></g></g></g></svg>