<svg xmlns="http://www.w3.org/2000/svg" xmlns:xlink="http://www.w3.org/1999/xlink" id="body_16" preserveAspectRatio="xMinYMin meet" viewBox="0 0 1056 816"><defs><clipPath id="1"><path id="" clip-rule="evenodd" transform="matrix(1 0 0 1 0 0)" d="M0 612L0 0L0 0L792 0L792 0L792 612L792 612L0 612z" /></clipPath><clipPath id="2"><path id="" clip-rule="evenodd" transform="matrix(1 0 0 1 0 0)" d="M172.875 52.5L619.125 52.5L619.125 52.5L619.125 69.75L619.125 69.75L172.875 69.75L172.875 69.75L172.875 52.5z" /></clipPath><clipPath id="3"><path id="" clip-rule="evenodd" transform="matrix(1 0 0 1 0 0)" d="M172.875 69L619.125 69L619.125 69L619.125 555.75L619.125 555.75L172.875 555.75L172.875 555.75L172.875 69z" /></clipPath></defs><g transform="matrix(1.333333 0 0 1.333333 0 0)"><g clip-path="url(#1)"><g clip-path="url(#2)"><path id="10" transform="matrix(1 0 0 -1 0 612)" d="M173.625 558.75L618.375 558.75L618.375 541.5L173.625 541.5L173.625 558.75z" stroke="none" fill="#4DD0E1" fill-rule="nonzero" /><path id="11" transform="matrix(1 0 0 -1 0 612)" d="M173.625 542.25L618.375 542.25L618.375 541.5L173.625 541.5zM173.625 558.75L618.375 558.75L618.375 558L173.625 558zM618.375 558L618.375 542.25L617.625 542.25L617.625 558zM541.125 558L541.125 542.25L540.375 542.25L540.375 558zM512.625 558L512.625 542.25L511.875 542.25L511.875 558zM284.625 558L284.625 542.25L283.875 542.25L283.875 558zM208.125 558L208.125 542.25L207.375 542.25L207.375 558zM174.375 558L174.375 542.25L173.625 542.25L173.625 558z" stroke="none" fill="#000000" fill-rule="nonzero" fill-opacity="0.1490196" /></g><g clip-path="url(#3)"><path id="39" transform="matrix(1 0 0 -1 0 612)" d="M173.625 542.25L618.375 542.25L618.375 485.25L173.625 485.25L173.625 542.25z" stroke="none" fill="#E0F7FA" fill-rule="nonzero" /><path id="40" transform="matrix(1 0 0 -1 0 612)" d="M173.625 486L618.375 486L618.375 468.75L173.625 468.75L173.625 486z" stroke="none" fill="#FFFFFF" fill-rule="nonzero" /><path id="41" transform="matrix(1 0 0 -1 0 612)" d="M173.625 469.5L618.375 469.5L618.375 452.25L173.625 452.25L173.625 469.5z" stroke="none" fill="#E0F7FA" fill-rule="nonzero" /><path id="42" transform="matrix(1 0 0 -1 0 612)" d="M173.625 453L618.375 453L618.375 422.25L173.625 422.25L173.625 453z" stroke="none" fill="#FFFFFF" fill-rule="nonzero" /><path id="43" transform="matrix(1 0 0 -1 0 612)" d="M173.625 423L618.375 423L618.375 379.5L173.625 379.5L173.625 423z" stroke="none" fill="#E0F7FA" fill-rule="nonzero" /><path id="44" transform="matrix(1 0 0 -1 0 612)" d="M173.625 380.25L618.375 380.25L618.375 336.75L173.625 336.75L173.625 380.25z" stroke="none" fill="#FFFFFF" fill-rule="nonzero" /><path id="45" transform="matrix(1 0 0 -1 0 612)" d="M173.625 337.5L618.375 337.5L618.375 294L173.625 294L173.625 337.5z" stroke="none" fill="#E0F7FA" fill-rule="nonzero" /><path id="46" transform="matrix(1 0 0 -1 0 612)" d="M173.625 294.75L618.375 294.75L618.375 264L173.625 264L173.625 294.75z" stroke="none" fill="#FFFFFF" fill-rule="nonzero" /><path id="47" transform="matrix(1 0 0 -1 0 612)" d="M173.625 264.75L618.375 264.75L618.375 206.25L173.625 206.25L173.625 264.75z" stroke="none" fill="#E0F7FA" fill-rule="nonzero" /><path id="48" transform="matrix(1 0 0 -1 0 612)" d="M173.625 207L618.375 207L618.375 143.25L173.625 143.25L173.625 207z" stroke="none" fill="#FFFFFF" fill-rule="nonzero" /><path id="49" transform="matrix(1 0 0 -1 0 612)" d="M173.625 144L618.375 144L618.375 87L173.625 87L173.625 144z" stroke="none" fill="#E0F7FA" fill-rule="nonzero" /><path id="50" transform="matrix(1 0 0 -1 0 612)" d="M173.625 87.75L618.375 87.75L618.375 57L173.625 57L173.625 87.75z" stroke="none" fill="#FFFFFF" fill-rule="nonzero" /><path id="51" transform="matrix(1 0 0 -1 0 612)" d="M173.625 57.75L618.375 57.75L618.375 57L173.625 57zM173.625 87.75L618.375 87.75L618.375 87L173.625 87zM173.625 144L618.375 144L618.375 143.25L173.625 143.25zM173.625 207L618.375 207L618.375 206.25L173.625 206.25zM173.625 264.75L618.375 264.75L618.375 264L173.625 264zM173.625 294.75L618.375 294.75L618.375 294L173.625 294zM173.625 337.5L618.375 337.5L618.375 336.75L173.625 336.75zM173.625 380.25L618.375 380.25L618.375 379.5L173.625 379.5zM173.625 423L618.375 423L618.375 422.25L173.625 422.25zM173.625 453L618.375 453L618.375 452.25L173.625 452.25zM173.625 469.5L618.375 469.5L618.375 468.75L173.625 468.75zM173.625 486L618.375 486L618.375 485.25L173.625 485.25zM173.625 542.25L618.375 542.25L618.375 541.5L173.625 541.5zM618.375 87L618.375 57.75L617.625 57.75L617.625 87zM618.375 143.25L618.375 87.75L617.625 87.75L617.625 143.25zM618.375 206.25L618.375 144L617.625 144L617.625 206.25zM618.375 264L618.375 207L617.625 207L617.625 264zM618.375 294L618.375 264.75L617.625 264.75L617.625 294zM618.375 336.75L618.375 294.75L617.625 294.75L617.625 336.75zM618.375 379.5L618.375 337.5L617.625 337.5L617.625 379.5zM618.375 422.25L618.375 380.25L617.625 380.25L617.625 422.25zM618.375 452.25L618.375 423L617.625 423L617.625 452.25zM618.375 468.75L618.375 453L617.625 453L617.625 468.75zM618.375 485.25L618.375 469.5L617.625 469.5L617.625 485.25zM618.375 541.5L618.375 486L617.625 486L617.625 541.5zM541.125 87L541.125 57.75L540.375 57.75L540.375 87zM541.125 143.25L541.125 87.75L540.375 87.75L540.375 143.25zM541.125 206.25L541.125 144L540.375 144L540.375 206.25zM541.125 264L541.125 207L540.375 207L540.375 264zM541.125 294L541.125 264.75L540.375 264.75L540.375 294zM541.125 336.75L541.125 294.75L540.375 294.75L540.375 336.75zM541.125 379.5L541.125 337.5L540.375 337.5L540.375 379.5zM541.125 422.25L541.125 380.25L540.375 380.25L540.375 422.25zM541.125 452.25L541.125 423L540.375 423L540.375 452.25zM541.125 468.75L541.125 453L540.375 453L540.375 468.75zM541.125 485.25L541.125 469.5L540.375 469.5L540.375 485.25zM541.125 541.5L541.125 486L540.375 486L540.375 541.5zM512.625 87L512.625 57.75L511.875 57.75L511.875 87zM512.625 143.25L512.625 87.75L511.875 87.75L511.875 143.25zM512.625 206.25L512.625 144L511.875 144L511.875 206.25zM512.625 264L512.625 207L511.875 207L511.875 264zM512.625 294L512.625 264.75L511.875 264.75L511.875 294zM512.625 336.75L512.625 294.75L511.875 294.75L511.875 336.75zM512.625 379.5L512.625 337.5L511.875 337.5L511.875 379.5zM512.625 422.25L512.625 380.25L511.875 380.25L511.875 422.25zM512.625 452.25L512.625 423L511.875 423L511.875 452.25zM512.625 468.75L512.625 453L511.875 453L511.875 468.75zM512.625 485.25L512.625 469.5L511.875 469.5L511.875 485.25zM512.625 541.5L512.625 486L511.875 486L511.875 541.5zM284.625 87L284.625 57.75L283.875 57.75L283.875 87zM284.625 143.25L284.625 87.75L283.875 87.75L283.875 143.25zM284.625 206.25L284.625 144L283.875 144L283.875 206.25zM284.625 264L284.625 207L283.875 207L283.875 264zM284.625 294L284.625 264.75L283.875 264.75L283.875 294zM284.625 336.75L284.625 294.75L283.875 294.75L283.875 336.75zM284.625 379.5L284.625 337.5L283.875 337.5L283.875 379.5zM284.625 422.25L284.625 380.25L283.875 380.25L283.875 422.25zM284.625 452.25L284.625 423L283.875 423L283.875 452.25zM284.625 468.75L284.625 453L283.875 453L283.875 468.75zM284.625 485.25L284.625 469.5L283.875 469.5L283.875 485.25zM284.625 541.5L284.625 486L283.875 486L283.875 541.5zM208.125 87L208.125 57.75L207.375 57.75L207.375 87zM208.125 143.25L208.125 87.75L207.375 87.75L207.375 143.25zM208.125 206.25L208.125 144L207.375 144L207.375 206.25zM208.125 264L208.125 207L207.375 207L207.375 264zM208.125 294L208.125 264.75L207.375 264.75L207.375 294zM208.125 336.75L208.125 294.75L207.375 294.75L207.375 336.75zM208.125 379.5L208.125 337.5L207.375 337.5L207.375 379.5zM208.125 422.25L208.125 380.25L207.375 380.25L207.375 422.25zM208.125 452.25L208.125 423L207.375 423L207.375 452.25zM208.125 468.75L208.125 453L207.375 453L207.375 468.75zM208.125 485.25L208.125 469.5L207.375 469.5L207.375 485.25zM208.125 541.5L208.125 486L207.375 486L207.375 541.5zM174.375 87L174.375 57.75L173.625 57.75L173.625 87zM174.375 143.25L174.375 87.75L173.625 87.75L173.625 143.25zM174.375 206.25L174.375 144L173.625 144L173.625 206.25zM174.375 264L174.375 207L173.625 207L173.625 264zM174.375 294L174.375 264.75L173.625 264.75L173.625 294zM174.375 336.75L174.375 294.75L173.625 294.75L173.625 336.75zM174.375 379.5L174.375 337.5L173.625 337.5L173.625 379.5zM174.375 422.25L174.375 380.25L173.625 380.25L173.625 422.25zM174.375 452.25L174.375 423L173.625 423L173.625 452.25zM174.375 468.75L174.375 453L173.625 453L173.625 468.75zM174.375 485.25L174.375 469.5L173.625 469.5L173.625 485.25zM174.375 541.5L174.375 486L173.625 486L173.625 541.5z" stroke="none" fill="#000000" fill-rule="nonzero" fill-opacity="0.1490196" /><path id="97" transform="matrix(1 0 0 -1 0 612)" d="M286.875 488.9658L467.7622 488.9658" stroke="#000000" stroke-width="0.7017334" fill="none" /><path id="169" transform="matrix(1 0 0 -1 0 612)" d="M286.875 472.4658L381.0123 472.4658" stroke="#000000" stroke-width="0.7017334" fill="none" /><path id="220" transform="matrix(1 0 0 -1 0 612)" d="M286.875 455.9658L464.7987 455.9658" stroke="#000000" stroke-width="0.7017334" fill="none" /><path id="279" transform="matrix(1 0 0 -1 0 612)" d="M286.875 439.0547L479.8929 439.0547" stroke="#000000" stroke-width="0.7017334" fill="none" /><path id="292" transform="matrix(1 0 0 -1 0 612)" d="M286.875 425.9658L340.6348 425.9658" stroke="#000000" stroke-width="0.7017334" fill="none" /><path id="350" transform="matrix(1 0 0 -1 0 612)" d="M286.875 409.3936L491.6787 409.3936" stroke="#000000" stroke-width="0.7017334" fill="none" /><path id="397" transform="matrix(1 0 0 -1 0 612)" d="M286.875 396.3047L505.192 396.3047" stroke="#000000" stroke-width="0.7017334" fill="none" /><path id="405" transform="matrix(1 0 0 -1 0 612)" d="M286.875 383.2158L321.2733 383.2158" stroke="#000000" stroke-width="0.7017334" fill="none" /><path id="489" transform="matrix(1 0 0 -1 0 612)" d="M286.875 366.6436L486.6106 366.6436" stroke="#000000" stroke-width="0.7017334" fill="none" /><path id="531" transform="matrix(1 0 0 -1 0 612)" d="M286.875 353.5547L507.9825 353.5547" stroke="#000000" stroke-width="0.7017334" fill="none" /><path id="542" transform="matrix(1 0 0 -1 0 612)" d="M286.875 340.4658L335.75 340.4658" stroke="#000000" stroke-width="0.7017334" fill="none" /><path id="604" transform="matrix(1 0 0 -1 0 612)" d="M286.875 323.8936L501.0243 323.8936" stroke="#000000" stroke-width="0.7017334" fill="none" /><path id="640" transform="matrix(1 0 0 -1 0 612)" d="M286.875 310.8047L471.6418 310.8047" stroke="#000000" stroke-width="0.7017334" fill="none" /><path id="649" transform="matrix(1 0 0 -1 0 612)" d="M286.875 297.7158L325.132 297.7158" stroke="#000000" stroke-width="0.7017334" fill="none" /><path id="716" transform="matrix(1 0 0 -1 0 612)" d="M286.875 267.7158L491.0242 267.7158" stroke="#000000" stroke-width="0.7017334" fill="none" /><path id="805" transform="matrix(1 0 0 -1 0 612)" d="M286.875 223.0547L488.5269 223.0547" stroke="#000000" stroke-width="0.7017334" fill="none" /><path id="810" transform="matrix(1 0 0 -1 0 612)" d="M286.875 209.9658L308.6135 209.9658" stroke="#000000" stroke-width="0.7017334" fill="none" /><path id="867" transform="matrix(1 0 0 -1 0 612)" d="M286.875 160.0547L493.197 160.0547" stroke="#000000" stroke-width="0.7017334" fill="none" /><path id="901" transform="matrix(1 0 0 -1 0 612)" d="M286.875 146.9658L448.1703 146.9658" stroke="#000000" stroke-width="0.7017334" fill="none" /><path id="1004" transform="matrix(1 0 0 -1 0 612)" d="M286.875 103.8047L486.2753 103.8047" stroke="#000000" stroke-width="0.7017334" fill="none" /><path id="1038" transform="matrix(1 0 0 -1 0 612)" d="M286.875 90.71582L437.9555 90.71582" stroke="#000000" stroke-width="0.7017334" fill="none" /><path id="1121" transform="matrix(1 0 0 -1 0 612)" d="M286.875 60.71582L434.814 60.71582" stroke="#000000" stroke-width="0.7017334" fill="none" /></g></g></g></svg>