<svg xmlns="http://www.w3.org/2000/svg" xmlns:xlink="http://www.w3.org/1999/xlink" id="body_24" preserveAspectRatio="xMinYMin meet" viewBox="0 0 1056 816"><defs><clipPath id="1"><path id="" clip-rule="evenodd" transform="matrix(1 0 0 1 0 0)" d="M0 612L0 0L0 0L792 0L792 0L792 612L792 612L0 612z" /></clipPath><clipPath id="2"><path id="" clip-rule="evenodd" transform="matrix(1 0 0 1 0 0)" d="M172.875 52.5L619.125 52.5L619.125 52.5L619.125 69.75L619.125 69.75L172.875 69.75L172.875 69.75L172.875 52.5z" /></clipPath><clipPath id="3"><path id="" clip-rule="evenodd" transform="matrix(1 0 0 1 0 0)" d="M172.875 69L619.125 69L619.125 69L619.125 522L619.125 522L172.875 522L172.875 522L172.875 69z" /></clipPath></defs><g transform="matrix(1.333333 0 0 1.333333 0 0)"><g clip-path="url(#1)"><g clip-path="url(#2)"><path id="10" transform="matrix(1 0 0 -1 0 612)" d="M173.625 558.75L618.375 558.75L618.375 541.5L173.625 541.5L173.625 558.75z" stroke="none" fill="#4DD0E1" fill-rule="nonzero" /><path id="11" transform="matrix(1 0 0 -1 0 612)" d="M173.625 542.25L618.375 542.25L618.375 541.5L173.625 541.5zM173.625 558.75L618.375 558.75L618.375 558L173.625 558zM618.375 558L618.375 542.25L617.625 542.25L617.625 558zM541.125 558L541.125 542.25L540.375 542.25L540.375 558zM512.625 558L512.625 542.25L511.875 542.25L511.875 558zM284.625 558L284.625 542.25L283.875 542.25L283.875 558zM208.125 558L208.125 542.25L207.375 542.25L207.375 558zM174.375 558L174.375 542.25L173.625 542.25L173.625 558z" stroke="none" fill="#000000" fill-rule="nonzero" fill-opacity="0.1490196" /></g><g clip-path="url(#3)"><path id="39" transform="matrix(1 0 0 -1 0 612)" d="M173.625 542.25L618.375 542.25L618.375 483.75L173.625 483.75L173.625 542.25z" stroke="none" fill="#E0F7FA" fill-rule="nonzero" /><path id="40" transform="matrix(1 0 0 -1 0 612)" d="M173.625 484.5L618.375 484.5L618.375 441L173.625 441L173.625 484.5z" stroke="none" fill="#FFFFFF" fill-rule="nonzero" /><path id="41" transform="matrix(1 0 0 -1 0 612)" d="M173.625 441.75L618.375 441.75L618.375 384.75L173.625 384.75L173.625 441.75z" stroke="none" fill="#E0F7FA" fill-rule="nonzero" /><path id="42" transform="matrix(1 0 0 -1 0 612)" d="M173.625 385.5L618.375 385.5L618.375 342L173.625 342L173.625 385.5z" stroke="none" fill="#FFFFFF" fill-rule="nonzero" /><path id="43" transform="matrix(1 0 0 -1 0 612)" d="M173.625 342.75L618.375 342.75L618.375 271.5L173.625 271.5L173.625 342.75z" stroke="none" fill="#E0F7FA" fill-rule="nonzero" /><path id="44" transform="matrix(1 0 0 -1 0 612)" d="M173.625 272.25L618.375 272.25L618.375 241.5L173.625 241.5L173.625 272.25z" stroke="none" fill="#FFFFFF" fill-rule="nonzero" /><path id="45" transform="matrix(1 0 0 -1 0 612)" d="M173.625 242.25L618.375 242.25L618.375 178.5L173.625 178.5L173.625 242.25z" stroke="none" fill="#E0F7FA" fill-rule="nonzero" /><path id="46" transform="matrix(1 0 0 -1 0 612)" d="M173.625 179.25L618.375 179.25L618.375 120.75L173.625 120.75L173.625 179.25z" stroke="none" fill="#FFFFFF" fill-rule="nonzero" /><path id="47" transform="matrix(1 0 0 -1 0 612)" d="M173.625 121.5L618.375 121.5L618.375 90.75L173.625 90.75L173.625 121.5z" stroke="none" fill="#E0F7FA" fill-rule="nonzero" /><path id="48" transform="matrix(1 0 0 -1 0 612)" d="M173.625 91.5L618.375 91.5L618.375 90.75L173.625 90.75zM173.625 121.5L618.375 121.5L618.375 120.75L173.625 120.75zM173.625 179.25L618.375 179.25L618.375 178.5L173.625 178.5zM173.625 242.25L618.375 242.25L618.375 241.5L173.625 241.5zM173.625 272.25L618.375 272.25L618.375 271.5L173.625 271.5zM173.625 342.75L618.375 342.75L618.375 342L173.625 342zM173.625 385.5L618.375 385.5L618.375 384.75L173.625 384.75zM173.625 441.75L618.375 441.75L618.375 441L173.625 441zM173.625 484.5L618.375 484.5L618.375 483.75L173.625 483.75zM173.625 542.25L618.375 542.25L618.375 541.5L173.625 541.5zM618.375 120.75L618.375 91.5L617.625 91.5L617.625 120.75zM618.375 178.5L618.375 121.5L617.625 121.5L617.625 178.5zM618.375 241.5L618.375 179.25L617.625 179.25L617.625 241.5zM618.375 271.5L618.375 242.25L617.625 242.25L617.625 271.5zM618.375 342L618.375 272.25L617.625 272.25L617.625 342zM618.375 384.75L618.375 342.75L617.625 342.75L617.625 384.75zM618.375 441L618.375 385.5L617.625 385.5L617.625 441zM618.375 483.75L618.375 441.75L617.625 441.75L617.625 483.75zM618.375 541.5L618.375 484.5L617.625 484.5L617.625 541.5zM541.125 120.75L541.125 91.5L540.375 91.5L540.375 120.75zM541.125 178.5L541.125 121.5L540.375 121.5L540.375 178.5zM541.125 241.5L541.125 179.25L540.375 179.25L540.375 241.5zM541.125 271.5L541.125 242.25L540.375 242.25L540.375 271.5zM541.125 342L541.125 272.25L540.375 272.25L540.375 342zM541.125 384.75L541.125 342.75L540.375 342.75L540.375 384.75zM541.125 441L541.125 385.5L540.375 385.5L540.375 441zM541.125 483.75L541.125 441.75L540.375 441.75L540.375 483.75zM541.125 541.5L541.125 484.5L540.375 484.5L540.375 541.5zM512.625 120.75L512.625 91.5L511.875 91.5L511.875 120.75zM512.625 178.5L512.625 121.5L511.875 121.5L511.875 178.5zM512.625 241.5L512.625 179.25L511.875 179.25L511.875 241.5zM512.625 271.5L512.625 242.25L511.875 242.25L511.875 271.5zM512.625 342L512.625 272.25L511.875 272.25L511.875 342zM512.625 384.75L512.625 342.75L511.875 342.75L511.875 384.75zM512.625 441L512.625 385.5L511.875 385.5L511.875 441zM512.625 483.75L512.625 441.75L511.875 441.75L511.875 483.75zM512.625 541.5L512.625 484.5L511.875 484.5L511.875 541.5zM284.625 120.75L284.625 91.5L283.875 91.5L283.875 120.75zM284.625 178.5L284.625 121.5L283.875 121.5L283.875 178.5zM284.625 241.5L284.625 179.25L283.875 179.25L283.875 241.5zM284.625 271.5L284.625 242.25L283.875 242.25L283.875 271.5zM284.625 342L284.625 272.25L283.875 272.25L283.875 342zM284.625 384.75L284.625 342.75L283.875 342.75L283.875 384.75zM284.625 441L284.625 385.5L283.875 385.5L283.875 441zM284.625 483.75L284.625 441.75L283.875 441.75L283.875 483.75zM284.625 541.5L284.625 484.5L283.875 484.5L283.875 541.5zM208.125 120.75L208.125 91.5L207.375 91.5L207.375 120.75zM208.125 178.5L208.125 121.5L207.375 121.5L207.375 178.5zM208.125 241.5L208.125 179.25L207.375 179.25L207.375 241.5zM208.125 271.5L208.125 242.25L207.375 242.25L207.375 271.5zM208.125 342L208.125 272.25L207.375 272.25L207.375 342zM208.125 384.75L208.125 342.75L207.375 342.75L207.375 384.75zM208.125 441L208.125 385.5L207.375 385.5L207.375 441zM208.125 483.75L208.125 441.75L207.375 441.75L207.375 483.75zM208.125 541.5L208.125 484.5L207.375 484.5L207.375 541.5zM174.375 120.75L174.375 91.5L173.625 91.5L173.625 120.75zM174.375 178.5L174.375 121.5L173.625 121.5L173.625 178.5zM174.375 241.5L174.375 179.25L173.625 179.25L173.625 241.5zM174.375 271.5L174.375 242.25L173.625 242.25L173.625 271.5zM174.375 342L174.375 272.25L173.625 272.25L173.625 342zM174.375 384.75L174.375 342.75L173.625 342.75L173.625 384.75zM174.375 441L174.375 385.5L173.625 385.5L173.625 441zM174.375 483.75L174.375 441.75L173.625 441.75L173.625 483.75zM174.375 541.5L174.375 484.5L173.625 484.5L173.625 541.5z" stroke="none" fill="#000000" fill-rule="nonzero" fill-opacity="0.1490196" /><path id="114" transform="matrix(1 0 0 -1 0 612)" d="M286.875 528.3975L498.6788 528.3975" stroke="#000000" stroke-width="0.7017334" fill="none" /><path id="157" transform="matrix(1 0 0 -1 0 612)" d="M286.875 515.3086L504.3176 515.3086" stroke="#000000" stroke-width="0.7017334" fill="none" /><path id="201" transform="matrix(1 0 0 -1 0 612)" d="M286.875 502.2197L505.5898 502.2197" stroke="#000000" stroke-width="0.7017334" fill="none" /><path id="217" transform="matrix(1 0 0 -1 0 612)" d="M286.875 487.4658L359.9388 487.4658" stroke="#000000" stroke-width="0.7017334" fill="none" /><path id="219" transform="matrix(1 0 0 -1 0 612)" d="M359.9388 487.5439L370.6615 487.5439" stroke="#000000" stroke-width="0.7855225" fill="none" /><path id="287" transform="matrix(1 0 0 -1 0 612)" d="M286.875 470.8936L509.7417 470.8936" stroke="#000000" stroke-width="0.7017334" fill="none" /><path id="326" transform="matrix(1 0 0 -1 0 612)" d="M286.875 457.8047L485.6367 457.8047" stroke="#000000" stroke-width="0.7017334" fill="none" /><path id="340" transform="matrix(1 0 0 -1 0 612)" d="M286.875 444.7158L351.7659 444.7158" stroke="#000000" stroke-width="0.7017334" fill="none" /><path id="384" transform="matrix(1 0 0 -1 0 612)" d="M286.875 388.4658L406.0178 388.4658" stroke="#000000" stroke-width="0.7017334" fill="none" /><path id="473" transform="matrix(1 0 0 -1 0 612)" d="M286.875 371.8936L480.2911 371.8936" stroke="#000000" stroke-width="0.7017334" fill="none" /><path id="518" transform="matrix(1 0 0 -1 0 612)" d="M286.875 358.8047L511.3807 358.8047" stroke="#000000" stroke-width="0.7017334" fill="none" /><path id="532" transform="matrix(1 0 0 -1 0 612)" d="M286.875 345.7158L351.7398 345.7158" stroke="#000000" stroke-width="0.7017334" fill="none" /><path id="618" transform="matrix(1 0 0 -1 0 612)" d="M286.875 288.3047L510.1919 288.3047" stroke="#000000" stroke-width="0.7017334" fill="none" /><path id="640" transform="matrix(1 0 0 -1 0 612)" d="M286.875 275.2158L390.379 275.2158" stroke="#000000" stroke-width="0.7017334" fill="none" /><path id="737" transform="matrix(1 0 0 -1 0 612)" d="M286.875 258.3047L476.8093 258.3047" stroke="#000000" stroke-width="0.7017334" fill="none" /><path id="768" transform="matrix(1 0 0 -1 0 612)" d="M286.875 245.2158L425.7877 245.2158" stroke="#000000" stroke-width="0.7017334" fill="none" /><path id="841" transform="matrix(1 0 0 -1 0 612)" d="M286.875 195.3047L468.537 195.3047" stroke="#000000" stroke-width="0.7017334" fill="none" /><path id="853" transform="matrix(1 0 0 -1 0 612)" d="M286.875 182.2158L344.6401 182.2158" stroke="#000000" stroke-width="0.7017334" fill="none" /><path id="934" transform="matrix(1 0 0 -1 0 612)" d="M286.875 165.3975L444.7515 165.3975" stroke="#000000" stroke-width="0.7017334" fill="none" /><path id="981" transform="matrix(1 0 0 -1 0 612)" d="M286.875 152.3086L495.1761 152.3086" stroke="#000000" stroke-width="0.7017334" fill="none" /><path id="1028" transform="matrix(1 0 0 -1 0 612)" d="M286.875 139.2197L506.6161 139.2197" stroke="#000000" stroke-width="0.7017334" fill="none" /><path id="1049" transform="matrix(1 0 0 -1 0 612)" d="M286.875 124.4658L399.4734 124.4658" stroke="#000000" stroke-width="0.7017334" fill="none" /><path id="1051" transform="matrix(1 0 0 -1 0 612)" d="M399.4734 124.5439L410.1961 124.5439" stroke="#000000" stroke-width="0.7855225" fill="none" /><path id="1065" transform="matrix(1 0 0 -1 0 612)" d="M543.375 137.5547L601.072 137.5547" stroke="#000000" stroke-width="0.7017334" fill="none" /><path id="1069" transform="matrix(1 0 0 -1 0 612)" d="M543.375 124.4658L557.6683 124.4658" stroke="#000000" stroke-width="0.7017334" fill="none" /><path id="1117" transform="matrix(1 0 0 -1 0 612)" d="M286.875 107.5547L469.7256 107.5547" stroke="#000000" stroke-width="0.7017334" fill="none" /><path id="1152" transform="matrix(1 0 0 -1 0 612)" d="M286.875 94.46582L457.0238 94.46582" stroke="#000000" stroke-width="0.7017334" fill="none" /></g></g></g></svg>