<svg xmlns="http://www.w3.org/2000/svg" xmlns:xlink="http://www.w3.org/1999/xlink" id="body_42" preserveAspectRatio="xMinYMin meet" viewBox="0 0 1056 816"><defs><clipPath id="1"><path id="" clip-rule="evenodd" transform="matrix(1 0 0 1 0 0)" d="M0 612L0 0L0 0L792 0L792 0L792 612L792 612L0 612z" /></clipPath><clipPath id="2"><path id="" clip-rule="evenodd" transform="matrix(1 0 0 1 0 0)" d="M172.875 52.5L619.125 52.5L619.125 52.5L619.125 69.75L619.125 69.75L172.875 69.75L172.875 69.75L172.875 52.5z" /></clipPath><clipPath id="3"><path id="" clip-rule="evenodd" transform="matrix(1 0 0 1 0 0)" d="M172.875 69L619.125 69L619.125 69L619.125 557.25L619.125 557.25L172.875 557.25L172.875 557.25L172.875 69z" /></clipPath></defs><g transform="matrix(1.333333 0 0 1.333333 0 0)"><g clip-path="url(#1)"><g clip-path="url(#2)"><path id="10" transform="matrix(1 0 0 -1 0 612)" d="M173.625 558.75L618.375 558.75L618.375 541.5L173.625 541.5L173.625 558.75z" stroke="none" fill="#4DD0E1" fill-rule="nonzero" /><path id="11" transform="matrix(1 0 0 -1 0 612)" d="M173.625 542.25L618.375 542.25L618.375 541.5L173.625 541.5zM173.625 558.75L618.375 558.75L618.375 558L173.625 558zM618.375 558L618.375 542.25L617.625 542.25L617.625 558zM541.125 558L541.125 542.25L540.375 542.25L540.375 558zM512.625 558L512.625 542.25L511.875 542.25L511.875 558zM284.625 558L284.625 542.25L283.875 542.25L283.875 558zM208.125 558L208.125 542.25L207.375 542.25L207.375 558zM174.375 558L174.375 542.25L173.625 542.25L173.625 558z" stroke="none" fill="#000000" fill-rule="nonzero" fill-opacity="0.1490196" /></g><g clip-path="url(#3)"><path id="39" transform="matrix(1 0 0 -1 0 612)" d="M173.625 542.25L618.375 542.25L618.375 483.75L173.625 483.75L173.625 542.25z" stroke="none" fill="#FFFFFF" fill-rule="nonzero" /><path id="40" transform="matrix(1 0 0 -1 0 612)" d="M173.625 484.5L618.375 484.5L618.375 467.25L173.625 467.25L173.625 484.5z" stroke="none" fill="#E0F7FA" fill-rule="nonzero" /><path id="41" transform="matrix(1 0 0 -1 0 612)" d="M173.625 468L618.375 468L618.375 437.25L173.625 437.25L173.625 468z" stroke="none" fill="#FFFFFF" fill-rule="nonzero" /><path id="42" transform="matrix(1 0 0 -1 0 612)" d="M173.625 438L618.375 438L618.375 379.5L173.625 379.5L173.625 438z" stroke="none" fill="#E0F7FA" fill-rule="nonzero" /><path id="43" transform="matrix(1 0 0 -1 0 612)" d="M173.625 380.25L618.375 380.25L618.375 349.5L173.625 349.5L173.625 380.25z" stroke="none" fill="#FFFFFF" fill-rule="nonzero" /><path id="44" transform="matrix(1 0 0 -1 0 612)" d="M173.625 350.25L618.375 350.25L618.375 333L173.625 333L173.625 350.25z" stroke="none" fill="#E0F7FA" fill-rule="nonzero" /><path id="45" transform="matrix(1 0 0 -1 0 612)" d="M173.625 333.75L618.375 333.75L618.375 273.75L173.625 273.75L173.625 333.75z" stroke="none" fill="#FFFFFF" fill-rule="nonzero" /><path id="46" transform="matrix(1 0 0 -1 0 612)" d="M173.625 274.5L618.375 274.5L618.375 243.75L173.625 243.75L173.625 274.5z" stroke="none" fill="#E0F7FA" fill-rule="nonzero" /><path id="47" transform="matrix(1 0 0 -1 0 612)" d="M173.625 244.5L618.375 244.5L618.375 213.75L173.625 213.75L173.625 244.5z" stroke="none" fill="#FFFFFF" fill-rule="nonzero" /><path id="48" transform="matrix(1 0 0 -1 0 612)" d="M173.625 214.5L618.375 214.5L618.375 171L173.625 171L173.625 214.5z" stroke="none" fill="#E0F7FA" fill-rule="nonzero" /><path id="49" transform="matrix(1 0 0 -1 0 612)" d="M173.625 171.75L618.375 171.75L618.375 141L173.625 141L173.625 171.75z" stroke="none" fill="#FFFFFF" fill-rule="nonzero" /><path id="50" transform="matrix(1 0 0 -1 0 612)" d="M173.625 141.75L618.375 141.75L618.375 98.25L173.625 98.25L173.625 141.75z" stroke="none" fill="#E0F7FA" fill-rule="nonzero" /><path id="51" transform="matrix(1 0 0 -1 0 612)" d="M173.625 99L618.375 99L618.375 55.5L173.625 55.5L173.625 99z" stroke="none" fill="#FFFFFF" fill-rule="nonzero" /><path id="52" transform="matrix(1 0 0 -1 0 612)" d="M173.625 56.25L618.375 56.25L618.375 55.5L173.625 55.5zM173.625 99L618.375 99L618.375 98.25L173.625 98.25zM173.625 141.75L618.375 141.75L618.375 141L173.625 141zM173.625 171.75L618.375 171.75L618.375 171L173.625 171zM173.625 214.5L618.375 214.5L618.375 213.75L173.625 213.75zM173.625 244.5L618.375 244.5L618.375 243.75L173.625 243.75zM173.625 274.5L618.375 274.5L618.375 273.75L173.625 273.75zM173.625 333.75L618.375 333.75L618.375 333L173.625 333zM173.625 350.25L618.375 350.25L618.375 349.5L173.625 349.5zM173.625 380.25L618.375 380.25L618.375 379.5L173.625 379.5zM173.625 438L618.375 438L618.375 437.25L173.625 437.25zM173.625 468L618.375 468L618.375 467.25L173.625 467.25zM173.625 484.5L618.375 484.5L618.375 483.75L173.625 483.75zM173.625 542.25L618.375 542.25L618.375 541.5L173.625 541.5zM618.375 98.25L618.375 56.25L617.625 56.25L617.625 98.25zM618.375 141L618.375 99L617.625 99L617.625 141zM618.375 171L618.375 141.75L617.625 141.75L617.625 171zM618.375 213.75L618.375 171.75L617.625 171.75L617.625 213.75zM618.375 243.75L618.375 214.5L617.625 214.5L617.625 243.75zM618.375 273.75L618.375 244.5L617.625 244.5L617.625 273.75zM618.375 333L618.375 274.5L617.625 274.5L617.625 333zM618.375 349.5L618.375 333.75L617.625 333.75L617.625 349.5zM618.375 379.5L618.375 350.25L617.625 350.25L617.625 379.5zM618.375 437.25L618.375 380.25L617.625 380.25L617.625 437.25zM618.375 467.25L618.375 438L617.625 438L617.625 467.25zM618.375 483.75L618.375 468L617.625 468L617.625 483.75zM618.375 541.5L618.375 484.5L617.625 484.5L617.625 541.5zM541.125 98.25L541.125 56.25L540.375 56.25L540.375 98.25zM541.125 141L541.125 99L540.375 99L540.375 141zM541.125 171L541.125 141.75L540.375 141.75L540.375 171zM541.125 213.75L541.125 171.75L540.375 171.75L540.375 213.75zM541.125 243.75L541.125 214.5L540.375 214.5L540.375 243.75zM541.125 273.75L541.125 244.5L540.375 244.5L540.375 273.75zM541.125 333L541.125 274.5L540.375 274.5L540.375 333zM541.125 349.5L541.125 333.75L540.375 333.75L540.375 349.5zM541.125 379.5L541.125 350.25L540.375 350.25L540.375 379.5zM541.125 437.25L541.125 380.25L540.375 380.25L540.375 437.25zM541.125 467.25L541.125 438L540.375 438L540.375 467.25zM541.125 483.75L541.125 468L540.375 468L540.375 483.75zM541.125 541.5L541.125 484.5L540.375 484.5L540.375 541.5zM512.625 98.25L512.625 56.25L511.875 56.25L511.875 98.25zM512.625 141L512.625 99L511.875 99L511.875 141zM512.625 171L512.625 141.75L511.875 141.75L511.875 171zM512.625 213.75L512.625 171.75L511.875 171.75L511.875 213.75zM512.625 243.75L512.625 214.5L511.875 214.5L511.875 243.75zM512.625 273.75L512.625 244.5L511.875 244.5L511.875 273.75zM512.625 333L512.625 274.5L511.875 274.5L511.875 333zM512.625 349.5L512.625 333.75L511.875 333.75L511.875 349.5zM512.625 379.5L512.625 350.25L511.875 350.25L511.875 379.5zM512.625 437.25L512.625 380.25L511.875 380.25L511.875 437.25zM512.625 467.25L512.625 438L511.875 438L511.875 467.25zM512.625 483.75L512.625 468L511.875 468L511.875 483.75zM512.625 541.5L512.625 484.5L511.875 484.5L511.875 541.5zM284.625 98.25L284.625 56.25L283.875 56.25L283.875 98.25zM284.625 141L284.625 99L283.875 99L283.875 141zM284.625 171L284.625 141.75L283.875 141.75L283.875 171zM284.625 213.75L284.625 171.75L283.875 171.75L283.875 213.75zM284.625 243.75L284.625 214.5L283.875 214.5L283.875 243.75zM284.625 273.75L284.625 244.5L283.875 244.5L283.875 273.75zM284.625 333L284.625 274.5L283.875 274.5L283.875 333zM284.625 349.5L284.625 333.75L283.875 333.75L283.875 349.5zM284.625 379.5L284.625 350.25L283.875 350.25L283.875 379.5zM284.625 437.25L284.625 380.25L283.875 380.25L283.875 437.25zM284.625 467.25L284.625 438L283.875 438L283.875 467.25zM284.625 483.75L284.625 468L283.875 468L283.875 483.75zM284.625 541.5L284.625 484.5L283.875 484.5L283.875 541.5zM208.125 98.25L208.125 56.25L207.375 56.25L207.375 98.25zM208.125 141L208.125 99L207.375 99L207.375 141zM208.125 171L208.125 141.75L207.375 141.75L207.375 171zM208.125 213.75L208.125 171.75L207.375 171.75L207.375 213.75zM208.125 243.75L208.125 214.5L207.375 214.5L207.375 243.75zM208.125 273.75L208.125 244.5L207.375 244.5L207.375 273.75zM208.125 333L208.125 274.5L207.375 274.5L207.375 333zM208.125 349.5L208.125 333.75L207.375 333.75L207.375 349.5zM208.125 379.5L208.125 350.25L207.375 350.25L207.375 379.5zM208.125 437.25L208.125 380.25L207.375 380.25L207.375 437.25zM208.125 467.25L208.125 438L207.375 438L207.375 467.25zM208.125 483.75L208.125 468L207.375 468L207.375 483.75zM208.125 541.5L208.125 484.5L207.375 484.5L207.375 541.5zM174.375 98.25L174.375 56.25L173.625 56.25L173.625 98.25zM174.375 141L174.375 99L173.625 99L173.625 141zM174.375 171L174.375 141.75L173.625 141.75L173.625 171zM174.375 213.75L174.375 171.75L173.625 171.75L173.625 213.75zM174.375 243.75L174.375 214.5L173.625 214.5L173.625 243.75zM174.375 273.75L174.375 244.5L173.625 244.5L173.625 273.75zM174.375 333L174.375 274.5L173.625 274.5L173.625 333zM174.375 349.5L174.375 333.75L173.625 333.75L173.625 349.5zM174.375 379.5L174.375 350.25L173.625 350.25L173.625 379.5zM174.375 437.25L174.375 380.25L173.625 380.25L173.625 437.25zM174.375 467.25L174.375 438L173.625 438L173.625 467.25zM174.375 483.75L174.375 468L173.625 468L173.625 483.75zM174.375 541.5L174.375 484.5L173.625 484.5L173.625 541.5z" stroke="none" fill="#000000" fill-rule="nonzero" fill-opacity="0.1490196" /><path id="137" transform="matrix(1 0 0 -1 0 612)" d="M286.875 500.5566L491.8411 500.5566" stroke="#000000" stroke-width="0.7017334" fill="none" /><path id="163" transform="matrix(1 0 0 -1 0 612)" d="M286.875 487.4668L405.7613 487.4668" stroke="#000000" stroke-width="0.7017334" fill="none" /><path id="223" transform="matrix(1 0 0 -1 0 612)" d="M286.875 470.9668L506.9984 470.9668" stroke="#000000" stroke-width="0.7017334" fill="none" /><path id="273" transform="matrix(1 0 0 -1 0 612)" d="M286.875 440.9668L410.1488 440.9668" stroke="#000000" stroke-width="0.7017334" fill="none" /><path id="333" transform="matrix(1 0 0 -1 0 612)" d="M286.875 383.2168L443.6048 383.2168" stroke="#000000" stroke-width="0.7017334" fill="none" /><path id="431" transform="matrix(1 0 0 -1 0 612)" d="M286.875 366.3066L486.7205 366.3066" stroke="#000000" stroke-width="0.7017334" fill="none" /><path id="462" transform="matrix(1 0 0 -1 0 612)" d="M286.875 353.2168L443.4843 353.2168" stroke="#000000" stroke-width="0.7017334" fill="none" /><path id="502" transform="matrix(1 0 0 -1 0 612)" d="M286.875 336.7168L405.9813 336.7168" stroke="#000000" stroke-width="0.7017334" fill="none" /><path id="559" transform="matrix(1 0 0 -1 0 612)" d="M286.875 277.4668L460.5317 277.4668" stroke="#000000" stroke-width="0.7017334" fill="none" /><path id="654" transform="matrix(1 0 0 -1 0 612)" d="M286.875 247.4668L498.0243 247.4668" stroke="#000000" stroke-width="0.7017334" fill="none" /><path id="740" transform="matrix(1 0 0 -1 0 612)" d="M286.875 230.5566L506.6367 230.5566" stroke="#000000" stroke-width="0.7017334" fill="none" /><path id="763" transform="matrix(1 0 0 -1 0 612)" d="M286.875 217.4668L397.6876 217.4668" stroke="#000000" stroke-width="0.7017334" fill="none" /><path id="833" transform="matrix(1 0 0 -1 0 612)" d="M286.875 200.8945L509.9932 200.8945" stroke="#000000" stroke-width="0.7017334" fill="none" /><path id="873" transform="matrix(1 0 0 -1 0 612)" d="M286.875 187.8066L484.6521 187.8066" stroke="#000000" stroke-width="0.7017334" fill="none" /><path id="880" transform="matrix(1 0 0 -1 0 612)" d="M286.875 174.7168L317.0795 174.7168" stroke="#000000" stroke-width="0.7017334" fill="none" /><path id="959" transform="matrix(1 0 0 -1 0 612)" d="M286.875 144.7168L484.2859 144.7168" stroke="#000000" stroke-width="0.7017334" fill="none" /><path id="1037" transform="matrix(1 0 0 -1 0 612)" d="M286.875 115.0566L502.5323 115.0566" stroke="#000000" stroke-width="0.7017334" fill="none" /><path id="1058" transform="matrix(1 0 0 -1 0 612)" d="M286.875 101.9668L380.7035 101.9668" stroke="#000000" stroke-width="0.7017334" fill="none" /><path id="1150" transform="matrix(1 0 0 -1 0 612)" d="M286.875 59.2168L478.736 59.2168" stroke="#000000" stroke-width="0.7017334" fill="none" /></g></g></g></svg>