<svg xmlns="http://www.w3.org/2000/svg" xmlns:xlink="http://www.w3.org/1999/xlink" id="body_22" preserveAspectRatio="xMinYMin meet" viewBox="0 0 1056 816"><defs><clipPath id="1"><path id="" clip-rule="evenodd" transform="matrix(1 0 0 1 0 0)" d="M0 612L0 0L0 0L792 0L792 0L792 612L792 612L0 612z" /></clipPath><clipPath id="2"><path id="" clip-rule="evenodd" transform="matrix(1 0 0 1 0 0)" d="M172.875 52.5L619.125 52.5L619.125 52.5L619.125 69.75L619.125 69.75L172.875 69.75L172.875 69.75L172.875 52.5z" /></clipPath><clipPath id="3"><path id="" clip-rule="evenodd" transform="matrix(1 0 0 1 0 0)" d="M172.875 69L619.125 69L619.125 69L619.125 548.25L619.125 548.25L172.875 548.25L172.875 548.25L172.875 69z" /></clipPath></defs><g transform="matrix(1.333333 0 0 1.333333 0 0)"><g clip-path="url(#1)"><g clip-path="url(#2)"><path id="10" transform="matrix(1 0 0 -1 0 612)" d="M173.625 558.75L618.375 558.75L618.375 541.5L173.625 541.5L173.625 558.75z" stroke="none" fill="#4DD0E1" fill-rule="nonzero" /><path id="11" transform="matrix(1 0 0 -1 0 612)" d="M173.625 542.25L618.375 542.25L618.375 541.5L173.625 541.5zM173.625 558.75L618.375 558.75L618.375 558L173.625 558zM618.375 558L618.375 542.25L617.625 542.25L617.625 558zM541.125 558L541.125 542.25L540.375 542.25L540.375 558zM512.625 558L512.625 542.25L511.875 542.25L511.875 558zM284.625 558L284.625 542.25L283.875 542.25L283.875 558zM208.125 558L208.125 542.25L207.375 542.25L207.375 558zM174.375 558L174.375 542.25L173.625 542.25L173.625 558z" stroke="none" fill="#000000" fill-rule="nonzero" fill-opacity="0.1490196" /></g><g clip-path="url(#3)"><path id="39" transform="matrix(1 0 0 -1 0 612)" d="M173.625 542.25L618.375 542.25L618.375 498.75L173.625 498.75L173.625 542.25z" stroke="none" fill="#FFFFFF" fill-rule="nonzero" /><path id="40" transform="matrix(1 0 0 -1 0 612)" d="M173.625 499.5L618.375 499.5L618.375 442.5L173.625 442.5L173.625 499.5z" stroke="none" fill="#E0F7FA" fill-rule="nonzero" /><path id="41" transform="matrix(1 0 0 -1 0 612)" d="M173.625 443.25L618.375 443.25L618.375 426L173.625 426L173.625 443.25z" stroke="none" fill="#FFFFFF" fill-rule="nonzero" /><path id="42" transform="matrix(1 0 0 -1 0 612)" d="M173.625 426.75L618.375 426.75L618.375 355.5L173.625 355.5L173.625 426.75z" stroke="none" fill="#E0F7FA" fill-rule="nonzero" /><path id="43" transform="matrix(1 0 0 -1 0 612)" d="M173.625 356.25L618.375 356.25L618.375 325.5L173.625 325.5L173.625 356.25z" stroke="none" fill="#FFFFFF" fill-rule="nonzero" /><path id="44" transform="matrix(1 0 0 -1 0 612)" d="M173.625 326.25L618.375 326.25L618.375 309L173.625 309L173.625 326.25z" stroke="none" fill="#E0F7FA" fill-rule="nonzero" /><path id="45" transform="matrix(1 0 0 -1 0 612)" d="M173.625 309.75L618.375 309.75L618.375 252.75L173.625 252.75L173.625 309.75z" stroke="none" fill="#FFFFFF" fill-rule="nonzero" /><path id="46" transform="matrix(1 0 0 -1 0 612)" d="M173.625 253.5L618.375 253.5L618.375 222.75L173.625 222.75L173.625 253.5z" stroke="none" fill="#E0F7FA" fill-rule="nonzero" /><path id="47" transform="matrix(1 0 0 -1 0 612)" d="M173.625 223.5L618.375 223.5L618.375 152.25L173.625 152.25L173.625 223.5z" stroke="none" fill="#FFFFFF" fill-rule="nonzero" /><path id="48" transform="matrix(1 0 0 -1 0 612)" d="M173.625 153L618.375 153L618.375 107.25L173.625 107.25L173.625 153z" stroke="none" fill="#E0F7FA" fill-rule="nonzero" /><path id="49" transform="matrix(1 0 0 -1 0 612)" d="M173.625 108L618.375 108L618.375 64.5L173.625 64.5L173.625 108z" stroke="none" fill="#FFFFFF" fill-rule="nonzero" /><path id="50" transform="matrix(1 0 0 -1 0 612)" d="M173.625 65.25L618.375 65.25L618.375 64.5L173.625 64.5zM173.625 108L618.375 108L618.375 107.25L173.625 107.25zM173.625 153L618.375 153L618.375 152.25L173.625 152.25zM173.625 223.5L618.375 223.5L618.375 222.75L173.625 222.75zM173.625 253.5L618.375 253.5L618.375 252.75L173.625 252.75zM173.625 309.75L618.375 309.75L618.375 309L173.625 309zM173.625 326.25L618.375 326.25L618.375 325.5L173.625 325.5zM173.625 356.25L618.375 356.25L618.375 355.5L173.625 355.5zM173.625 426.75L618.375 426.75L618.375 426L173.625 426zM173.625 443.25L618.375 443.25L618.375 442.5L173.625 442.5zM173.625 499.5L618.375 499.5L618.375 498.75L173.625 498.75zM173.625 542.25L618.375 542.25L618.375 541.5L173.625 541.5zM618.375 107.25L618.375 65.25L617.625 65.25L617.625 107.25zM618.375 152.25L618.375 108L617.625 108L617.625 152.25zM618.375 222.75L618.375 153L617.625 153L617.625 222.75zM618.375 252.75L618.375 223.5L617.625 223.5L617.625 252.75zM618.375 309L618.375 253.5L617.625 253.5L617.625 309zM618.375 325.5L618.375 309.75L617.625 309.75L617.625 325.5zM618.375 355.5L618.375 326.25L617.625 326.25L617.625 355.5zM618.375 426L618.375 356.25L617.625 356.25L617.625 426zM618.375 442.5L618.375 426.75L617.625 426.75L617.625 442.5zM618.375 498.75L618.375 443.25L617.625 443.25L617.625 498.75zM618.375 541.5L618.375 499.5L617.625 499.5L617.625 541.5zM541.125 107.25L541.125 65.25L540.375 65.25L540.375 107.25zM541.125 152.25L541.125 108L540.375 108L540.375 152.25zM541.125 222.75L541.125 153L540.375 153L540.375 222.75zM541.125 252.75L541.125 223.5L540.375 223.5L540.375 252.75zM541.125 309L541.125 253.5L540.375 253.5L540.375 309zM541.125 325.5L541.125 309.75L540.375 309.75L540.375 325.5zM541.125 355.5L541.125 326.25L540.375 326.25L540.375 355.5zM541.125 426L541.125 356.25L540.375 356.25L540.375 426zM541.125 442.5L541.125 426.75L540.375 426.75L540.375 442.5zM541.125 498.75L541.125 443.25L540.375 443.25L540.375 498.75zM541.125 541.5L541.125 499.5L540.375 499.5L540.375 541.5zM512.625 107.25L512.625 65.25L511.875 65.25L511.875 107.25zM512.625 152.25L512.625 108L511.875 108L511.875 152.25zM512.625 222.75L512.625 153L511.875 153L511.875 222.75zM512.625 252.75L512.625 223.5L511.875 223.5L511.875 252.75zM512.625 309L512.625 253.5L511.875 253.5L511.875 309zM512.625 325.5L512.625 309.75L511.875 309.75L511.875 325.5zM512.625 355.5L512.625 326.25L511.875 326.25L511.875 355.5zM512.625 426L512.625 356.25L511.875 356.25L511.875 426zM512.625 442.5L512.625 426.75L511.875 426.75L511.875 442.5zM512.625 498.75L512.625 443.25L511.875 443.25L511.875 498.75zM512.625 541.5L512.625 499.5L511.875 499.5L511.875 541.5zM284.625 107.25L284.625 65.25L283.875 65.25L283.875 107.25zM284.625 152.25L284.625 108L283.875 108L283.875 152.25zM284.625 222.75L284.625 153L283.875 153L283.875 222.75zM284.625 252.75L284.625 223.5L283.875 223.5L283.875 252.75zM284.625 309L284.625 253.5L283.875 253.5L283.875 309zM284.625 325.5L284.625 309.75L283.875 309.75L283.875 325.5zM284.625 355.5L284.625 326.25L283.875 326.25L283.875 355.5zM284.625 426L284.625 356.25L283.875 356.25L283.875 426zM284.625 442.5L284.625 426.75L283.875 426.75L283.875 442.5zM284.625 498.75L284.625 443.25L283.875 443.25L283.875 498.75zM284.625 541.5L284.625 499.5L283.875 499.5L283.875 541.5zM208.125 107.25L208.125 65.25L207.375 65.25L207.375 107.25zM208.125 152.25L208.125 108L207.375 108L207.375 152.25zM208.125 222.75L208.125 153L207.375 153L207.375 222.75zM208.125 252.75L208.125 223.5L207.375 223.5L207.375 252.75zM208.125 309L208.125 253.5L207.375 253.5L207.375 309zM208.125 325.5L208.125 309.75L207.375 309.75L207.375 325.5zM208.125 355.5L208.125 326.25L207.375 326.25L207.375 355.5zM208.125 426L208.125 356.25L207.375 356.25L207.375 426zM208.125 442.5L208.125 426.75L207.375 426.75L207.375 442.5zM208.125 498.75L208.125 443.25L207.375 443.25L207.375 498.75zM208.125 541.5L208.125 499.5L207.375 499.5L207.375 541.5zM174.375 107.25L174.375 65.25L173.625 65.25L173.625 107.25zM174.375 152.25L174.375 108L173.625 108L173.625 152.25zM174.375 222.75L174.375 153L173.625 153L173.625 222.75zM174.375 252.75L174.375 223.5L173.625 223.5L173.625 252.75zM174.375 309L174.375 253.5L173.625 253.5L173.625 309zM174.375 325.5L174.375 309.75L173.625 309.75L173.625 325.5zM174.375 355.5L174.375 326.25L173.625 326.25L173.625 355.5zM174.375 426L174.375 356.25L173.625 356.25L173.625 426zM174.375 442.5L174.375 426.75L173.625 426.75L173.625 442.5zM174.375 498.75L174.375 443.25L173.625 443.25L173.625 498.75zM174.375 541.5L174.375 499.5L173.625 499.5L173.625 541.5z" stroke="none" fill="#000000" fill-rule="nonzero" fill-opacity="0.1490196" /><path id="111" transform="matrix(1 0 0 -1 0 612)" d="M286.875 515.5547L486.4534 515.5547" stroke="#000000" stroke-width="0.7017334" fill="none" /><path id="136" transform="matrix(1 0 0 -1 0 612)" d="M286.875 502.4658L396.5937 502.4658" stroke="#000000" stroke-width="0.7017334" fill="none" /><path id="231" transform="matrix(1 0 0 -1 0 612)" d="M286.875 459.3047L500.5215 459.3047" stroke="#000000" stroke-width="0.7017334" fill="none" /><path id="250" transform="matrix(1 0 0 -1 0 612)" d="M286.875 446.2158L374.405 446.2158" stroke="#000000" stroke-width="0.7017334" fill="none" /><path id="325" transform="matrix(1 0 0 -1 0 612)" d="M286.875 429.7158L398.4681 429.7158" stroke="#000000" stroke-width="0.7017334" fill="none" /><path id="425" transform="matrix(1 0 0 -1 0 612)" d="M286.875 372.3047L505.7048 372.3047" stroke="#000000" stroke-width="0.7017334" fill="none" /><path id="436" transform="matrix(1 0 0 -1 0 612)" d="M286.875 359.2158L329.7183 359.2158" stroke="#000000" stroke-width="0.7017334" fill="none" /><path id="507" transform="matrix(1 0 0 -1 0 612)" d="M286.875 342.3047L499.4591 342.3047" stroke="#000000" stroke-width="0.7017334" fill="none" /><path id="539" transform="matrix(1 0 0 -1 0 612)" d="M286.875 329.2158L435.233 329.2158" stroke="#000000" stroke-width="0.7017334" fill="none" /><path id="594" transform="matrix(1 0 0 -1 0 612)" d="M286.875 312.7158L405.5886 312.7158" stroke="#000000" stroke-width="0.7017334" fill="none" /><path id="654" transform="matrix(1 0 0 -1 0 612)" d="M286.875 256.4658L487.8567 256.4658" stroke="#000000" stroke-width="0.7017334" fill="none" /><path id="748" transform="matrix(1 0 0 -1 0 612)" d="M286.875 226.4658L431.3167 226.4658" stroke="#000000" stroke-width="0.7017334" fill="none" /><path id="847" transform="matrix(1 0 0 -1 0 612)" d="M286.875 182.1436L503.1814 182.1436" stroke="#000000" stroke-width="0.7017334" fill="none" /><path id="885" transform="matrix(1 0 0 -1 0 612)" d="M286.875 169.0547L477.7309 169.0547" stroke="#000000" stroke-width="0.7017334" fill="none" /><path id="928" transform="matrix(1 0 0 -1 0 612)" d="M286.875 155.9658L504.1029 155.9658" stroke="#000000" stroke-width="0.7017334" fill="none" /><path id="1015" transform="matrix(1 0 0 -1 0 612)" d="M286.875 124.0547L489.8304 124.0547" stroke="#000000" stroke-width="0.7017334" fill="none" /><path id="1036" transform="matrix(1 0 0 -1 0 612)" d="M286.875 110.9658L385.3422 110.9658" stroke="#000000" stroke-width="0.7017334" fill="none" /><path id="1120" transform="matrix(1 0 0 -1 0 612)" d="M286.875 94.39355L502.6842 94.39355" stroke="#000000" stroke-width="0.7017334" fill="none" /><path id="1153" transform="matrix(1 0 0 -1 0 612)" d="M286.875 81.30469L460.7724 81.30469" stroke="#000000" stroke-width="0.7017334" fill="none" /><path id="1189" transform="matrix(1 0 0 -1 0 612)" d="M286.875 68.21582L459.2331 68.21582" stroke="#000000" stroke-width="0.7017334" fill="none" /></g></g></g></svg>