<svg xmlns="http://www.w3.org/2000/svg" xmlns:xlink="http://www.w3.org/1999/xlink" id="body_41" preserveAspectRatio="xMinYMin meet" viewBox="0 0 1056 816"><defs><clipPath id="1"><path id="" clip-rule="evenodd" transform="matrix(1 0 0 1 0 0)" d="M0 612L0 0L0 0L792 0L792 0L792 612L792 612L0 612z" /></clipPath><clipPath id="2"><path id="" clip-rule="evenodd" transform="matrix(1 0 0 1 0 0)" d="M172.875 52.5L619.125 52.5L619.125 52.5L619.125 69.75L619.125 69.75L172.875 69.75L172.875 69.75L172.875 52.5z" /></clipPath><clipPath id="3"><path id="" clip-rule="evenodd" transform="matrix(1 0 0 1 0 0)" d="M172.875 69L619.125 69L619.125 69L619.125 545.25L619.125 545.25L172.875 545.25L172.875 545.25L172.875 69z" /></clipPath></defs><g transform="matrix(1.333333 0 0 1.333333 0 0)"><g clip-path="url(#1)"><g clip-path="url(#2)"><path id="10" transform="matrix(1 0 0 -1 0 612)" d="M173.625 558.75L618.375 558.75L618.375 541.5L173.625 541.5L173.625 558.75z" stroke="none" fill="#4DD0E1" fill-rule="nonzero" /><path id="11" transform="matrix(1 0 0 -1 0 612)" d="M173.625 542.25L618.375 542.25L618.375 541.5L173.625 541.5zM173.625 558.75L618.375 558.75L618.375 558L173.625 558zM618.375 558L618.375 542.25L617.625 542.25L617.625 558zM541.125 558L541.125 542.25L540.375 542.25L540.375 558zM512.625 558L512.625 542.25L511.875 542.25L511.875 558zM284.625 558L284.625 542.25L283.875 542.25L283.875 558zM208.125 558L208.125 542.25L207.375 542.25L207.375 558zM174.375 558L174.375 542.25L173.625 542.25L173.625 558z" stroke="none" fill="#000000" fill-rule="nonzero" fill-opacity="0.1490196" /></g><g clip-path="url(#3)"><path id="39" transform="matrix(1 0 0 -1 0 612)" d="M173.625 542.25L618.375 542.25L618.375 485.25L173.625 485.25L173.625 542.25z" stroke="none" fill="#E0F7FA" fill-rule="nonzero" /><path id="40" transform="matrix(1 0 0 -1 0 612)" d="M173.625 486L618.375 486L618.375 429L173.625 429L173.625 486z" stroke="none" fill="#FFFFFF" fill-rule="nonzero" /><path id="41" transform="matrix(1 0 0 -1 0 612)" d="M173.625 429.75L618.375 429.75L618.375 386.25L173.625 386.25L173.625 429.75z" stroke="none" fill="#E0F7FA" fill-rule="nonzero" /><path id="42" transform="matrix(1 0 0 -1 0 612)" d="M173.625 387L618.375 387L618.375 343.5L173.625 343.5L173.625 387z" stroke="none" fill="#FFFFFF" fill-rule="nonzero" /><path id="43" transform="matrix(1 0 0 -1 0 612)" d="M173.625 344.25L618.375 344.25L618.375 313.5L173.625 313.5L173.625 344.25z" stroke="none" fill="#E0F7FA" fill-rule="nonzero" /><path id="44" transform="matrix(1 0 0 -1 0 612)" d="M173.625 314.25L618.375 314.25L618.375 283.5L173.625 283.5L173.625 314.25z" stroke="none" fill="#FFFFFF" fill-rule="nonzero" /><path id="45" transform="matrix(1 0 0 -1 0 612)" d="M173.625 284.25L618.375 284.25L618.375 240.75L173.625 240.75L173.625 284.25z" stroke="none" fill="#E0F7FA" fill-rule="nonzero" /><path id="46" transform="matrix(1 0 0 -1 0 612)" d="M173.625 241.5L618.375 241.5L618.375 198L173.625 198L173.625 241.5z" stroke="none" fill="#FFFFFF" fill-rule="nonzero" /><path id="47" transform="matrix(1 0 0 -1 0 612)" d="M173.625 198.75L618.375 198.75L618.375 140.25L173.625 140.25L173.625 198.75z" stroke="none" fill="#E0F7FA" fill-rule="nonzero" /><path id="48" transform="matrix(1 0 0 -1 0 612)" d="M173.625 141L618.375 141L618.375 110.25L173.625 110.25L173.625 141z" stroke="none" fill="#FFFFFF" fill-rule="nonzero" /><path id="49" transform="matrix(1 0 0 -1 0 612)" d="M173.625 111L618.375 111L618.375 67.5L173.625 67.5L173.625 111z" stroke="none" fill="#E0F7FA" fill-rule="nonzero" /><path id="50" transform="matrix(1 0 0 -1 0 612)" d="M173.625 68.25L618.375 68.25L618.375 67.5L173.625 67.5zM173.625 111L618.375 111L618.375 110.25L173.625 110.25zM173.625 141L618.375 141L618.375 140.25L173.625 140.25zM173.625 198.75L618.375 198.75L618.375 198L173.625 198zM173.625 241.5L618.375 241.5L618.375 240.75L173.625 240.75zM173.625 284.25L618.375 284.25L618.375 283.5L173.625 283.5zM173.625 314.25L618.375 314.25L618.375 313.5L173.625 313.5zM173.625 344.25L618.375 344.25L618.375 343.5L173.625 343.5zM173.625 387L618.375 387L618.375 386.25L173.625 386.25zM173.625 429.75L618.375 429.75L618.375 429L173.625 429zM173.625 486L618.375 486L618.375 485.25L173.625 485.25zM173.625 542.25L618.375 542.25L618.375 541.5L173.625 541.5zM618.375 110.25L618.375 68.25L617.625 68.25L617.625 110.25zM618.375 140.25L618.375 111L617.625 111L617.625 140.25zM618.375 198L618.375 141L617.625 141L617.625 198zM618.375 240.75L618.375 198.75L617.625 198.75L617.625 240.75zM618.375 283.5L618.375 241.5L617.625 241.5L617.625 283.5zM618.375 313.5L618.375 284.25L617.625 284.25L617.625 313.5zM618.375 343.5L618.375 314.25L617.625 314.25L617.625 343.5zM618.375 386.25L618.375 344.25L617.625 344.25L617.625 386.25zM618.375 429L618.375 387L617.625 387L617.625 429zM618.375 485.25L618.375 429.75L617.625 429.75L617.625 485.25zM618.375 541.5L618.375 486L617.625 486L617.625 541.5zM541.125 110.25L541.125 68.25L540.375 68.25L540.375 110.25zM541.125 140.25L541.125 111L540.375 111L540.375 140.25zM541.125 198L541.125 141L540.375 141L540.375 198zM541.125 240.75L541.125 198.75L540.375 198.75L540.375 240.75zM541.125 283.5L541.125 241.5L540.375 241.5L540.375 283.5zM541.125 313.5L541.125 284.25L540.375 284.25L540.375 313.5zM541.125 343.5L541.125 314.25L540.375 314.25L540.375 343.5zM541.125 386.25L541.125 344.25L540.375 344.25L540.375 386.25zM541.125 429L541.125 387L540.375 387L540.375 429zM541.125 485.25L541.125 429.75L540.375 429.75L540.375 485.25zM541.125 541.5L541.125 486L540.375 486L540.375 541.5zM512.625 110.25L512.625 68.25L511.875 68.25L511.875 110.25zM512.625 140.25L512.625 111L511.875 111L511.875 140.25zM512.625 198L512.625 141L511.875 141L511.875 198zM512.625 240.75L512.625 198.75L511.875 198.75L511.875 240.75zM512.625 283.5L512.625 241.5L511.875 241.5L511.875 283.5zM512.625 313.5L512.625 284.25L511.875 284.25L511.875 313.5zM512.625 343.5L512.625 314.25L511.875 314.25L511.875 343.5zM512.625 386.25L512.625 344.25L511.875 344.25L511.875 386.25zM512.625 429L512.625 387L511.875 387L511.875 429zM512.625 485.25L512.625 429.75L511.875 429.75L511.875 485.25zM512.625 541.5L512.625 486L511.875 486L511.875 541.5zM284.625 110.25L284.625 68.25L283.875 68.25L283.875 110.25zM284.625 140.25L284.625 111L283.875 111L283.875 140.25zM284.625 198L284.625 141L283.875 141L283.875 198zM284.625 240.75L284.625 198.75L283.875 198.75L283.875 240.75zM284.625 283.5L284.625 241.5L283.875 241.5L283.875 283.5zM284.625 313.5L284.625 284.25L283.875 284.25L283.875 313.5zM284.625 343.5L284.625 314.25L283.875 314.25L283.875 343.5zM284.625 386.25L284.625 344.25L283.875 344.25L283.875 386.25zM284.625 429L284.625 387L283.875 387L283.875 429zM284.625 485.25L284.625 429.75L283.875 429.75L283.875 485.25zM284.625 541.5L284.625 486L283.875 486L283.875 541.5zM208.125 110.25L208.125 68.25L207.375 68.25L207.375 110.25zM208.125 140.25L208.125 111L207.375 111L207.375 140.25zM208.125 198L208.125 141L207.375 141L207.375 198zM208.125 240.75L208.125 198.75L207.375 198.75L207.375 240.75zM208.125 283.5L208.125 241.5L207.375 241.5L207.375 283.5zM208.125 313.5L208.125 284.25L207.375 284.25L207.375 313.5zM208.125 343.5L208.125 314.25L207.375 314.25L207.375 343.5zM208.125 386.25L208.125 344.25L207.375 344.25L207.375 386.25zM208.125 429L208.125 387L207.375 387L207.375 429zM208.125 485.25L208.125 429.75L207.375 429.75L207.375 485.25zM208.125 541.5L208.125 486L207.375 486L207.375 541.5zM174.375 110.25L174.375 68.25L173.625 68.25L173.625 110.25zM174.375 140.25L174.375 111L173.625 111L173.625 140.25zM174.375 198L174.375 141L173.625 141L173.625 198zM174.375 240.75L174.375 198.75L173.625 198.75L173.625 240.75zM174.375 283.5L174.375 241.5L173.625 241.5L173.625 283.5zM174.375 313.5L174.375 284.25L173.625 284.25L173.625 313.5zM174.375 343.5L174.375 314.25L173.625 314.25L173.625 343.5zM174.375 386.25L174.375 344.25L173.625 344.25L173.625 386.25zM174.375 429L174.375 387L173.625 387L173.625 429zM174.375 485.25L174.375 429.75L173.625 429.75L173.625 485.25zM174.375 541.5L174.375 486L173.625 486L173.625 541.5z" stroke="none" fill="#000000" fill-rule="nonzero" fill-opacity="0.1490196" /><path id="141" transform="matrix(1 0 0 -1 0 612)" d="M286.875 502.0566L501.6422 502.0566" stroke="#000000" stroke-width="0.7017334" fill="none" /><path id="180" transform="matrix(1 0 0 -1 0 612)" d="M286.875 488.9668L475.2439 488.9668" stroke="#000000" stroke-width="0.7017334" fill="none" /><path id="230" transform="matrix(1 0 0 -1 0 612)" d="M286.875 445.8066L475.6786 445.8066" stroke="#000000" stroke-width="0.7017334" fill="none" /><path id="250" transform="matrix(1 0 0 -1 0 612)" d="M286.875 432.7168L380.6616 432.7168" stroke="#000000" stroke-width="0.7017334" fill="none" /><path id="369" transform="matrix(1 0 0 -1 0 612)" d="M286.875 403.0566L508.2811 403.0566" stroke="#000000" stroke-width="0.7017334" fill="none" /><path id="391" transform="matrix(1 0 0 -1 0 612)" d="M286.875 389.9668L393.3004 389.9668" stroke="#000000" stroke-width="0.7017334" fill="none" /><path id="472" transform="matrix(1 0 0 -1 0 612)" d="M286.875 373.3945L487.6315 373.3945" stroke="#000000" stroke-width="0.7017334" fill="none" /><path id="516" transform="matrix(1 0 0 -1 0 612)" d="M286.875 360.3066L498.2546 360.3066" stroke="#000000" stroke-width="0.7017334" fill="none" /><path id="535" transform="matrix(1 0 0 -1 0 612)" d="M286.875 347.2168L375.1116 347.2168" stroke="#000000" stroke-width="0.7017334" fill="none" /><path id="604" transform="matrix(1 0 0 -1 0 612)" d="M286.875 330.3066L493.0085 330.3066" stroke="#000000" stroke-width="0.7017334" fill="none" /><path id="652" transform="matrix(1 0 0 -1 0 612)" d="M286.875 317.2168L503.014 317.2168" stroke="#000000" stroke-width="0.7017334" fill="none" /><path id="723" transform="matrix(1 0 0 -1 0 612)" d="M286.875 300.3066L506.1866 300.3066" stroke="#000000" stroke-width="0.7017334" fill="none" /><path id="739" transform="matrix(1 0 0 -1 0 612)" d="M286.875 287.2168L367.8656 287.2168" stroke="#000000" stroke-width="0.7017334" fill="none" /><path id="791" transform="matrix(1 0 0 -1 0 612)" d="M286.875 257.5566L463.2701 257.5566" stroke="#000000" stroke-width="0.7017334" fill="none" /><path id="801" transform="matrix(1 0 0 -1 0 612)" d="M286.875 244.4668L334.3835 244.4668" stroke="#000000" stroke-width="0.7017334" fill="none" /><path id="899" transform="matrix(1 0 0 -1 0 612)" d="M286.875 214.8066L506.1606 214.8066" stroke="#000000" stroke-width="0.7017334" fill="none" /><path id="921" transform="matrix(1 0 0 -1 0 612)" d="M286.875 201.7168L382.1904 201.7168" stroke="#000000" stroke-width="0.7017334" fill="none" /><path id="1037" transform="matrix(1 0 0 -1 0 612)" d="M286.875 170.1445L503.5166 170.1445" stroke="#000000" stroke-width="0.7017334" fill="none" /><path id="1077" transform="matrix(1 0 0 -1 0 612)" d="M286.875 157.0566L487.0452 157.0566" stroke="#000000" stroke-width="0.7017334" fill="none" /><path id="1092" transform="matrix(1 0 0 -1 0 612)" d="M286.875 143.9668L349.0957 143.9668" stroke="#000000" stroke-width="0.7017334" fill="none" /><path id="1148" transform="matrix(1 0 0 -1 0 612)" d="M286.875 127.0566L500.773 127.0566" stroke="#000000" stroke-width="0.7017334" fill="none" /><path id="1159" transform="matrix(1 0 0 -1 0 612)" d="M286.875 113.9668L338.0066 113.9668" stroke="#000000" stroke-width="0.7017334" fill="none" /><path id="1246" transform="matrix(1 0 0 -1 0 612)" d="M286.875 97.39453L491.8253 97.39453" stroke="#000000" stroke-width="0.7017334" fill="none" /><path id="1285" transform="matrix(1 0 0 -1 0 612)" d="M286.875 84.30664L493.3699 84.30664" stroke="#000000" stroke-width="0.7017334" fill="none" /><path id="1306" transform="matrix(1 0 0 -1 0 612)" d="M286.875 71.2168L377.1956 71.2168" stroke="#000000" stroke-width="0.7017334" fill="none" /></g></g></g></svg>