<svg xmlns="http://www.w3.org/2000/svg" xmlns:xlink="http://www.w3.org/1999/xlink" id="body_43" preserveAspectRatio="xMinYMin meet" viewBox="0 0 1056 816"><defs><clipPath id="1"><path id="" clip-rule="evenodd" transform="matrix(1 0 0 1 0 0)" d="M0 612L0 0L0 0L792 0L792 0L792 612L792 612L0 612z" /></clipPath><clipPath id="2"><path id="" clip-rule="evenodd" transform="matrix(1 0 0 1 0 0)" d="M172.875 52.5L619.125 52.5L619.125 52.5L619.125 69.75L619.125 69.75L172.875 69.75L172.875 69.75L172.875 52.5z" /></clipPath><clipPath id="3"><path id="" clip-rule="evenodd" transform="matrix(1 0 0 1 0 0)" d="M172.875 69L619.125 69L619.125 69L619.125 546L619.125 546L172.875 546L172.875 546L172.875 69z" /></clipPath></defs><g transform="matrix(1.333333 0 0 1.333333 0 0)"><g clip-path="url(#1)"><g clip-path="url(#2)"><path id="10" transform="matrix(1 0 0 -1 0 612)" d="M173.625 558.75L618.375 558.75L618.375 541.5L173.625 541.5L173.625 558.75z" stroke="none" fill="#4DD0E1" fill-rule="nonzero" /><path id="11" transform="matrix(1 0 0 -1 0 612)" d="M173.625 542.25L618.375 542.25L618.375 541.5L173.625 541.5zM173.625 558.75L618.375 558.75L618.375 558L173.625 558zM618.375 558L618.375 542.25L617.625 542.25L617.625 558zM541.125 558L541.125 542.25L540.375 542.25L540.375 558zM512.625 558L512.625 542.25L511.875 542.25L511.875 558zM284.625 558L284.625 542.25L283.875 542.25L283.875 558zM208.125 558L208.125 542.25L207.375 542.25L207.375 558zM174.375 558L174.375 542.25L173.625 542.25L173.625 558z" stroke="none" fill="#000000" fill-rule="nonzero" fill-opacity="0.1490196" /></g><g clip-path="url(#3)"><path id="39" transform="matrix(1 0 0 -1 0 612)" d="M173.625 542.25L618.375 542.25L618.375 498.75L173.625 498.75L173.625 542.25z" stroke="none" fill="#E0F7FA" fill-rule="nonzero" /><path id="40" transform="matrix(1 0 0 -1 0 612)" d="M173.625 499.5L618.375 499.5L618.375 468.75L173.625 468.75L173.625 499.5z" stroke="none" fill="#FFFFFF" fill-rule="nonzero" /><path id="41" transform="matrix(1 0 0 -1 0 612)" d="M173.625 469.5L618.375 469.5L618.375 423.75L173.625 423.75L173.625 469.5z" stroke="none" fill="#E0F7FA" fill-rule="nonzero" /><path id="42" transform="matrix(1 0 0 -1 0 612)" d="M173.625 424.5L618.375 424.5L618.375 393.75L173.625 393.75L173.625 424.5z" stroke="none" fill="#FFFFFF" fill-rule="nonzero" /><path id="43" transform="matrix(1 0 0 -1 0 612)" d="M173.625 394.5L618.375 394.5L618.375 363.75L173.625 363.75L173.625 394.5z" stroke="none" fill="#E0F7FA" fill-rule="nonzero" /><path id="44" transform="matrix(1 0 0 -1 0 612)" d="M173.625 364.5L618.375 364.5L618.375 321L173.625 321L173.625 364.5z" stroke="none" fill="#FFFFFF" fill-rule="nonzero" /><path id="45" transform="matrix(1 0 0 -1 0 612)" d="M173.625 321.75L618.375 321.75L618.375 278.25L173.625 278.25L173.625 321.75z" stroke="none" fill="#E0F7FA" fill-rule="nonzero" /><path id="46" transform="matrix(1 0 0 -1 0 612)" d="M173.625 279L618.375 279L618.375 222L173.625 222L173.625 279z" stroke="none" fill="#FFFFFF" fill-rule="nonzero" /><path id="47" transform="matrix(1 0 0 -1 0 612)" d="M173.625 222.75L618.375 222.75L618.375 179.25L173.625 179.25L173.625 222.75z" stroke="none" fill="#E0F7FA" fill-rule="nonzero" /><path id="48" transform="matrix(1 0 0 -1 0 612)" d="M173.625 180L618.375 180L618.375 123L173.625 123L173.625 180z" stroke="none" fill="#FFFFFF" fill-rule="nonzero" /><path id="49" transform="matrix(1 0 0 -1 0 612)" d="M173.625 123.75L618.375 123.75L618.375 66.75L173.625 66.75L173.625 123.75z" stroke="none" fill="#E0F7FA" fill-rule="nonzero" /><path id="50" transform="matrix(1 0 0 -1 0 612)" d="M173.625 67.5L618.375 67.5L618.375 66.75L173.625 66.75zM173.625 123.75L618.375 123.75L618.375 123L173.625 123zM173.625 180L618.375 180L618.375 179.25L173.625 179.25zM173.625 222.75L618.375 222.75L618.375 222L173.625 222zM173.625 279L618.375 279L618.375 278.25L173.625 278.25zM173.625 321.75L618.375 321.75L618.375 321L173.625 321zM173.625 364.5L618.375 364.5L618.375 363.75L173.625 363.75zM173.625 394.5L618.375 394.5L618.375 393.75L173.625 393.75zM173.625 424.5L618.375 424.5L618.375 423.75L173.625 423.75zM173.625 469.5L618.375 469.5L618.375 468.75L173.625 468.75zM173.625 499.5L618.375 499.5L618.375 498.75L173.625 498.75zM173.625 542.25L618.375 542.25L618.375 541.5L173.625 541.5zM618.375 123L618.375 67.5L617.625 67.5L617.625 123zM618.375 179.25L618.375 123.75L617.625 123.75L617.625 179.25zM618.375 222L618.375 180L617.625 180L617.625 222zM618.375 278.25L618.375 222.75L617.625 222.75L617.625 278.25zM618.375 321L618.375 279L617.625 279L617.625 321zM618.375 363.75L618.375 321.75L617.625 321.75L617.625 363.75zM618.375 393.75L618.375 364.5L617.625 364.5L617.625 393.75zM618.375 423.75L618.375 394.5L617.625 394.5L617.625 423.75zM618.375 468.75L618.375 424.5L617.625 424.5L617.625 468.75zM618.375 498.75L618.375 469.5L617.625 469.5L617.625 498.75zM618.375 541.5L618.375 499.5L617.625 499.5L617.625 541.5zM541.125 123L541.125 67.5L540.375 67.5L540.375 123zM541.125 179.25L541.125 123.75L540.375 123.75L540.375 179.25zM541.125 222L541.125 180L540.375 180L540.375 222zM541.125 278.25L541.125 222.75L540.375 222.75L540.375 278.25zM541.125 321L541.125 279L540.375 279L540.375 321zM541.125 363.75L541.125 321.75L540.375 321.75L540.375 363.75zM541.125 393.75L541.125 364.5L540.375 364.5L540.375 393.75zM541.125 423.75L541.125 394.5L540.375 394.5L540.375 423.75zM541.125 468.75L541.125 424.5L540.375 424.5L540.375 468.75zM541.125 498.75L541.125 469.5L540.375 469.5L540.375 498.75zM541.125 541.5L541.125 499.5L540.375 499.5L540.375 541.5zM512.625 123L512.625 67.5L511.875 67.5L511.875 123zM512.625 179.25L512.625 123.75L511.875 123.75L511.875 179.25zM512.625 222L512.625 180L511.875 180L511.875 222zM512.625 278.25L512.625 222.75L511.875 222.75L511.875 278.25zM512.625 321L512.625 279L511.875 279L511.875 321zM512.625 363.75L512.625 321.75L511.875 321.75L511.875 363.75zM512.625 393.75L512.625 364.5L511.875 364.5L511.875 393.75zM512.625 423.75L512.625 394.5L511.875 394.5L511.875 423.75zM512.625 468.75L512.625 424.5L511.875 424.5L511.875 468.75zM512.625 498.75L512.625 469.5L511.875 469.5L511.875 498.75zM512.625 541.5L512.625 499.5L511.875 499.5L511.875 541.5zM284.625 123L284.625 67.5L283.875 67.5L283.875 123zM284.625 179.25L284.625 123.75L283.875 123.75L283.875 179.25zM284.625 222L284.625 180L283.875 180L283.875 222zM284.625 278.25L284.625 222.75L283.875 222.75L283.875 278.25zM284.625 321L284.625 279L283.875 279L283.875 321zM284.625 363.75L284.625 321.75L283.875 321.75L283.875 363.75zM284.625 393.75L284.625 364.5L283.875 364.5L283.875 393.75zM284.625 423.75L284.625 394.5L283.875 394.5L283.875 423.75zM284.625 468.75L284.625 424.5L283.875 424.5L283.875 468.75zM284.625 498.75L284.625 469.5L283.875 469.5L283.875 498.75zM284.625 541.5L284.625 499.5L283.875 499.5L283.875 541.5zM208.125 123L208.125 67.5L207.375 67.5L207.375 123zM208.125 179.25L208.125 123.75L207.375 123.75L207.375 179.25zM208.125 222L208.125 180L207.375 180L207.375 222zM208.125 278.25L208.125 222.75L207.375 222.75L207.375 278.25zM208.125 321L208.125 279L207.375 279L207.375 321zM208.125 363.75L208.125 321.75L207.375 321.75L207.375 363.75zM208.125 393.75L208.125 364.5L207.375 364.5L207.375 393.75zM208.125 423.75L208.125 394.5L207.375 394.5L207.375 423.75zM208.125 468.75L208.125 424.5L207.375 424.5L207.375 468.75zM208.125 498.75L208.125 469.5L207.375 469.5L207.375 498.75zM208.125 541.5L208.125 499.5L207.375 499.5L207.375 541.5zM174.375 123L174.375 67.5L173.625 67.5L173.625 123zM174.375 179.25L174.375 123.75L173.625 123.75L173.625 179.25zM174.375 222L174.375 180L173.625 180L173.625 222zM174.375 278.25L174.375 222.75L173.625 222.75L173.625 278.25zM174.375 321L174.375 279L173.625 279L173.625 321zM174.375 363.75L174.375 321.75L173.625 321.75L173.625 363.75zM174.375 393.75L174.375 364.5L173.625 364.5L173.625 393.75zM174.375 423.75L174.375 394.5L173.625 394.5L173.625 423.75zM174.375 468.75L174.375 424.5L173.625 424.5L173.625 468.75zM174.375 498.75L174.375 469.5L173.625 469.5L173.625 498.75zM174.375 541.5L174.375 499.5L173.625 499.5L173.625 541.5z" stroke="none" fill="#000000" fill-rule="nonzero" fill-opacity="0.1490196" /><path id="103" transform="matrix(1 0 0 -1 0 612)" d="M286.875 515.5566L493.3541 515.5566" stroke="#000000" stroke-width="0.7017334" fill="none" /><path id="124" transform="matrix(1 0 0 -1 0 612)" d="M286.875 502.4668L383.2794 502.4668" stroke="#000000" stroke-width="0.7017334" fill="none" /><path id="197" transform="matrix(1 0 0 -1 0 612)" d="M286.875 485.5566L456.9191 485.5566" stroke="#000000" stroke-width="0.7017334" fill="none" /><path id="238" transform="matrix(1 0 0 -1 0 612)" d="M286.875 472.4668L470.0762 472.4668" stroke="#000000" stroke-width="0.7017334" fill="none" /><path id="303" transform="matrix(1 0 0 -1 0 612)" d="M286.875 440.5566L498.2704 440.5566" stroke="#000000" stroke-width="0.7017334" fill="none" /><path id="346" transform="matrix(1 0 0 -1 0 612)" d="M286.875 427.4668L493.2388 427.4668" stroke="#000000" stroke-width="0.7017334" fill="none" /><path id="438" transform="matrix(1 0 0 -1 0 612)" d="M286.875 410.5566L479.867 410.5566" stroke="#000000" stroke-width="0.7017334" fill="none" /><path id="461" transform="matrix(1 0 0 -1 0 612)" d="M286.875 397.4668L403.222 397.4668" stroke="#000000" stroke-width="0.7017334" fill="none" /><path id="538" transform="matrix(1 0 0 -1 0 612)" d="M286.875 380.5566L503.3123 380.5566" stroke="#000000" stroke-width="0.7017334" fill="none" /><path id="576" transform="matrix(1 0 0 -1 0 612)" d="M286.875 367.4668L475.6102 367.4668" stroke="#000000" stroke-width="0.7017334" fill="none" /><path id="625" transform="matrix(1 0 0 -1 0 612)" d="M286.875 324.7168L425.4476 324.7168" stroke="#000000" stroke-width="0.7017334" fill="none" /><path id="710" transform="matrix(1 0 0 -1 0 612)" d="M286.875 295.0566L502.6054 295.0566" stroke="#000000" stroke-width="0.7017334" fill="none" /><path id="727" transform="matrix(1 0 0 -1 0 612)" d="M286.875 281.9668L378.3212 281.9668" stroke="#000000" stroke-width="0.7017334" fill="none" /><path id="805" transform="matrix(1 0 0 -1 0 612)" d="M286.875 225.7168L450.5733 225.7168" stroke="#000000" stroke-width="0.7017334" fill="none" /><path id="913" transform="matrix(1 0 0 -1 0 612)" d="M286.875 182.9668L410.0231 182.9668" stroke="#000000" stroke-width="0.7017334" fill="none" /><path id="999" transform="matrix(1 0 0 -1 0 612)" d="M286.875 165.9844L489.3854 165.9844" stroke="#000000" stroke-width="0.7017334" fill="none" /><path id="1042" transform="matrix(1 0 0 -1 0 612)" d="M286.875 152.8945L498.4537 152.8945" stroke="#000000" stroke-width="0.7017334" fill="none" /><path id="1084" transform="matrix(1 0 0 -1 0 612)" d="M286.875 139.8066L498.4694 139.8066" stroke="#000000" stroke-width="0.7017334" fill="none" /><path id="1097" transform="matrix(1 0 0 -1 0 612)" d="M286.875 126.7168L339.4725 126.7168" stroke="#000000" stroke-width="0.7017334" fill="none" /><path id="1166" transform="matrix(1 0 0 -1 0 612)" d="M286.875 109.7344L466.6991 109.7344" stroke="#000000" stroke-width="0.7017334" fill="none" /><path id="1204" transform="matrix(1 0 0 -1 0 612)" d="M286.875 96.64453L463.8196 96.64453" stroke="#000000" stroke-width="0.7017334" fill="none" /><path id="1246" transform="matrix(1 0 0 -1 0 612)" d="M286.875 83.55664L499.0818 83.55664" stroke="#000000" stroke-width="0.7017334" fill="none" /><path id="1262" transform="matrix(1 0 0 -1 0 612)" d="M286.875 70.4668L361.7975 70.4668" stroke="#000000" stroke-width="0.7017334" fill="none" /></g></g></g></svg>