<svg xmlns="http://www.w3.org/2000/svg" xmlns:xlink="http://www.w3.org/1999/xlink" id="body_13" preserveAspectRatio="xMinYMin meet" viewBox="0 0 1056 816"><defs><clipPath id="1"><path id="" clip-rule="evenodd" transform="matrix(1 0 0 1 0 0)" d="M0 612L0 0L0 0L792 0L792 0L792 612L792 612L0 612z" /></clipPath><clipPath id="2"><path id="" clip-rule="evenodd" transform="matrix(1 0 0 1 0 0)" d="M172.875 52.5L619.125 52.5L619.125 52.5L619.125 69.75L619.125 69.75L172.875 69.75L172.875 69.75L172.875 52.5z" /></clipPath><clipPath id="3"><path id="" clip-rule="evenodd" transform="matrix(1 0 0 1 0 0)" d="M172.875 69L619.125 69L619.125 69L619.125 531L619.125 531L172.875 531L172.875 531L172.875 69z" /></clipPath></defs><g transform="matrix(1.333333 0 0 1.333333 0 0)"><g clip-path="url(#1)"><g clip-path="url(#2)"><path id="10" transform="matrix(1 0 0 -1 0 612)" d="M173.625 558.75L618.375 558.75L618.375 541.5L173.625 541.5L173.625 558.75z" stroke="none" fill="#4DD0E1" fill-rule="nonzero" /><path id="11" transform="matrix(1 0 0 -1 0 612)" d="M173.625 542.25L618.375 542.25L618.375 541.5L173.625 541.5zM173.625 558.75L618.375 558.75L618.375 558L173.625 558zM618.375 558L618.375 542.25L617.625 542.25L617.625 558zM541.125 558L541.125 542.25L540.375 542.25L540.375 558zM512.625 558L512.625 542.25L511.875 542.25L511.875 558zM284.625 558L284.625 542.25L283.875 542.25L283.875 558zM208.125 558L208.125 542.25L207.375 542.25L207.375 558zM174.375 558L174.375 542.25L173.625 542.25L173.625 558z" stroke="none" fill="#000000" fill-rule="nonzero" fill-opacity="0.1490196" /></g><g clip-path="url(#3)"><path id="39" transform="matrix(1 0 0 -1 0 612)" d="M173.625 542.25L618.375 542.25L618.375 498.75L173.625 498.75L173.625 542.25z" stroke="none" fill="#E0F7FA" fill-rule="nonzero" /><path id="40" transform="matrix(1 0 0 -1 0 612)" d="M173.625 499.5L618.375 499.5L618.375 456L173.625 456L173.625 499.5z" stroke="none" fill="#FFFFFF" fill-rule="nonzero" /><path id="41" transform="matrix(1 0 0 -1 0 612)" d="M173.625 456.75L618.375 456.75L618.375 399.75L173.625 399.75L173.625 456.75z" stroke="none" fill="#E0F7FA" fill-rule="nonzero" /><path id="42" transform="matrix(1 0 0 -1 0 612)" d="M173.625 400.5L618.375 400.5L618.375 357L173.625 357L173.625 400.5z" stroke="none" fill="#FFFFFF" fill-rule="nonzero" /><path id="43" transform="matrix(1 0 0 -1 0 612)" d="M173.625 357.75L618.375 357.75L618.375 300.75L173.625 300.75L173.625 357.75z" stroke="none" fill="#E0F7FA" fill-rule="nonzero" /><path id="44" transform="matrix(1 0 0 -1 0 612)" d="M173.625 301.5L618.375 301.5L618.375 270.75L173.625 270.75L173.625 301.5z" stroke="none" fill="#FFFFFF" fill-rule="nonzero" /><path id="45" transform="matrix(1 0 0 -1 0 612)" d="M173.625 271.5L618.375 271.5L618.375 240.75L173.625 240.75L173.625 271.5z" stroke="none" fill="#E0F7FA" fill-rule="nonzero" /><path id="46" transform="matrix(1 0 0 -1 0 612)" d="M173.625 241.5L618.375 241.5L618.375 210.75L173.625 210.75L173.625 241.5z" stroke="none" fill="#FFFFFF" fill-rule="nonzero" /><path id="47" transform="matrix(1 0 0 -1 0 612)" d="M173.625 211.5L618.375 211.5L618.375 154.5L173.625 154.5L173.625 211.5z" stroke="none" fill="#E0F7FA" fill-rule="nonzero" /><path id="48" transform="matrix(1 0 0 -1 0 612)" d="M173.625 155.25L618.375 155.25L618.375 124.5L173.625 124.5L173.625 155.25z" stroke="none" fill="#FFFFFF" fill-rule="nonzero" /><path id="49" transform="matrix(1 0 0 -1 0 612)" d="M173.625 125.25L618.375 125.25L618.375 81.75L173.625 81.75L173.625 125.25z" stroke="none" fill="#E0F7FA" fill-rule="nonzero" /><path id="50" transform="matrix(1 0 0 -1 0 612)" d="M173.625 82.5L618.375 82.5L618.375 81.75L173.625 81.75zM173.625 125.25L618.375 125.25L618.375 124.5L173.625 124.5zM173.625 155.25L618.375 155.25L618.375 154.5L173.625 154.5zM173.625 211.5L618.375 211.5L618.375 210.75L173.625 210.75zM173.625 241.5L618.375 241.5L618.375 240.75L173.625 240.75zM173.625 271.5L618.375 271.5L618.375 270.75L173.625 270.75zM173.625 301.5L618.375 301.5L618.375 300.75L173.625 300.75zM173.625 357.75L618.375 357.75L618.375 357L173.625 357zM173.625 400.5L618.375 400.5L618.375 399.75L173.625 399.75zM173.625 456.75L618.375 456.75L618.375 456L173.625 456zM173.625 499.5L618.375 499.5L618.375 498.75L173.625 498.75zM173.625 542.25L618.375 542.25L618.375 541.5L173.625 541.5zM618.375 124.5L618.375 82.5L617.625 82.5L617.625 124.5zM618.375 154.5L618.375 125.25L617.625 125.25L617.625 154.5zM618.375 210.75L618.375 155.25L617.625 155.25L617.625 210.75zM618.375 240.75L618.375 211.5L617.625 211.5L617.625 240.75zM618.375 270.75L618.375 241.5L617.625 241.5L617.625 270.75zM618.375 300.75L618.375 271.5L617.625 271.5L617.625 300.75zM618.375 357L618.375 301.5L617.625 301.5L617.625 357zM618.375 399.75L618.375 357.75L617.625 357.75L617.625 399.75zM618.375 456L618.375 400.5L617.625 400.5L617.625 456zM618.375 498.75L618.375 456.75L617.625 456.75L617.625 498.75zM618.375 541.5L618.375 499.5L617.625 499.5L617.625 541.5zM541.125 124.5L541.125 82.5L540.375 82.5L540.375 124.5zM541.125 154.5L541.125 125.25L540.375 125.25L540.375 154.5zM541.125 210.75L541.125 155.25L540.375 155.25L540.375 210.75zM541.125 240.75L541.125 211.5L540.375 211.5L540.375 240.75zM541.125 270.75L541.125 241.5L540.375 241.5L540.375 270.75zM541.125 300.75L541.125 271.5L540.375 271.5L540.375 300.75zM541.125 357L541.125 301.5L540.375 301.5L540.375 357zM541.125 399.75L541.125 357.75L540.375 357.75L540.375 399.75zM541.125 456L541.125 400.5L540.375 400.5L540.375 456zM541.125 498.75L541.125 456.75L540.375 456.75L540.375 498.75zM541.125 541.5L541.125 499.5L540.375 499.5L540.375 541.5zM512.625 124.5L512.625 82.5L511.875 82.5L511.875 124.5zM512.625 154.5L512.625 125.25L511.875 125.25L511.875 154.5zM512.625 210.75L512.625 155.25L511.875 155.25L511.875 210.75zM512.625 240.75L512.625 211.5L511.875 211.5L511.875 240.75zM512.625 270.75L512.625 241.5L511.875 241.5L511.875 270.75zM512.625 300.75L512.625 271.5L511.875 271.5L511.875 300.75zM512.625 357L512.625 301.5L511.875 301.5L511.875 357zM512.625 399.75L512.625 357.75L511.875 357.75L511.875 399.75zM512.625 456L512.625 400.5L511.875 400.5L511.875 456zM512.625 498.75L512.625 456.75L511.875 456.75L511.875 498.75zM512.625 541.5L512.625 499.5L511.875 499.5L511.875 541.5zM284.625 124.5L284.625 82.5L283.875 82.5L283.875 124.5zM284.625 154.5L284.625 125.25L283.875 125.25L283.875 154.5zM284.625 210.75L284.625 155.25L283.875 155.25L283.875 210.75zM284.625 240.75L284.625 211.5L283.875 211.5L283.875 240.75zM284.625 270.75L284.625 241.5L283.875 241.5L283.875 270.75zM284.625 300.75L284.625 271.5L283.875 271.5L283.875 300.75zM284.625 357L284.625 301.5L283.875 301.5L283.875 357zM284.625 399.75L284.625 357.75L283.875 357.75L283.875 399.75zM284.625 456L284.625 400.5L283.875 400.5L283.875 456zM284.625 498.75L284.625 456.75L283.875 456.75L283.875 498.75zM284.625 541.5L284.625 499.5L283.875 499.5L283.875 541.5zM208.125 124.5L208.125 82.5L207.375 82.5L207.375 124.5zM208.125 154.5L208.125 125.25L207.375 125.25L207.375 154.5zM208.125 210.75L208.125 155.25L207.375 155.25L207.375 210.75zM208.125 240.75L208.125 211.5L207.375 211.5L207.375 240.75zM208.125 270.75L208.125 241.5L207.375 241.5L207.375 270.75zM208.125 300.75L208.125 271.5L207.375 271.5L207.375 300.75zM208.125 357L208.125 301.5L207.375 301.5L207.375 357zM208.125 399.75L208.125 357.75L207.375 357.75L207.375 399.75zM208.125 456L208.125 400.5L207.375 400.5L207.375 456zM208.125 498.75L208.125 456.75L207.375 456.75L207.375 498.75zM208.125 541.5L208.125 499.5L207.375 499.5L207.375 541.5zM174.375 124.5L174.375 82.5L173.625 82.5L173.625 124.5zM174.375 154.5L174.375 125.25L173.625 125.25L173.625 154.5zM174.375 210.75L174.375 155.25L173.625 155.25L173.625 210.75zM174.375 240.75L174.375 211.5L173.625 211.5L173.625 240.75zM174.375 270.75L174.375 241.5L173.625 241.5L173.625 270.75zM174.375 300.75L174.375 271.5L173.625 271.5L173.625 300.75zM174.375 357L174.375 301.5L173.625 301.5L173.625 357zM174.375 399.75L174.375 357.75L173.625 357.75L173.625 399.75zM174.375 456L174.375 400.5L173.625 400.5L173.625 456zM174.375 498.75L174.375 456.75L173.625 456.75L173.625 498.75zM174.375 541.5L174.375 499.5L173.625 499.5L173.625 541.5z" stroke="none" fill="#000000" fill-rule="nonzero" fill-opacity="0.1490196" /><path id="93" transform="matrix(1 0 0 -1 0 612)" d="M286.875 502.4658L451.6623 502.4658" stroke="#000000" stroke-width="0.7017334" fill="none" /><path id="182" transform="matrix(1 0 0 -1 0 612)" d="M286.875 459.7158L496.2337 459.7158" stroke="#000000" stroke-width="0.7017334" fill="none" /><path id="263" transform="matrix(1 0 0 -1 0 612)" d="M286.875 416.5547L474.7517 416.5547" stroke="#000000" stroke-width="0.7017334" fill="none" /><path id="287" transform="matrix(1 0 0 -1 0 612)" d="M286.875 403.4658L393.6303 403.4658" stroke="#000000" stroke-width="0.7017334" fill="none" /><path id="386" transform="matrix(1 0 0 -1 0 612)" d="M286.875 360.7158L497.7835 360.7158" stroke="#000000" stroke-width="0.7017334" fill="none" /><path id="479" transform="matrix(1 0 0 -1 0 612)" d="M286.875 317.5547L503.0035 317.5547" stroke="#000000" stroke-width="0.7017334" fill="none" /><path id="517" transform="matrix(1 0 0 -1 0 612)" d="M286.875 304.4658L470.4165 304.4658" stroke="#000000" stroke-width="0.7017334" fill="none" /><path id="620" transform="matrix(1 0 0 -1 0 612)" d="M286.875 274.4658L456.181 274.4658" stroke="#000000" stroke-width="0.7017334" fill="none" /><path id="694" transform="matrix(1 0 0 -1 0 612)" d="M286.875 257.5547L483.5844 257.5547" stroke="#000000" stroke-width="0.7017334" fill="none" /><path id="706" transform="matrix(1 0 0 -1 0 612)" d="M286.875 244.4658L334.6714 244.4658" stroke="#000000" stroke-width="0.7017334" fill="none" /><path id="770" transform="matrix(1 0 0 -1 0 612)" d="M286.875 214.4658L486.6367 214.4658" stroke="#000000" stroke-width="0.7017334" fill="none" /><path id="833" transform="matrix(1 0 0 -1 0 612)" d="M286.875 171.3047L496.019 171.3047" stroke="#000000" stroke-width="0.7017334" fill="none" /><path id="850" transform="matrix(1 0 0 -1 0 612)" d="M286.875 158.2158L371.5306 158.2158" stroke="#000000" stroke-width="0.7017334" fill="none" /><path id="950" transform="matrix(1 0 0 -1 0 612)" d="M286.875 141.3047L496.7625 141.3047" stroke="#000000" stroke-width="0.7017334" fill="none" /><path id="978" transform="matrix(1 0 0 -1 0 612)" d="M286.875 128.2158L414.7825 128.2158" stroke="#000000" stroke-width="0.7017334" fill="none" /><path id="1062" transform="matrix(1 0 0 -1 0 612)" d="M286.875 98.55469L496.061 98.55469" stroke="#000000" stroke-width="0.7017334" fill="none" /><path id="1099" transform="matrix(1 0 0 -1 0 612)" d="M286.875 85.46582L468.2858 85.46582" stroke="#000000" stroke-width="0.7017334" fill="none" /></g></g></g></svg>