<svg xmlns="http://www.w3.org/2000/svg" xmlns:xlink="http://www.w3.org/1999/xlink" id="body_30" preserveAspectRatio="xMinYMin meet" viewBox="0 0 1056 816"><defs><clipPath id="1"><path id="" clip-rule="evenodd" transform="matrix(1 0 0 1 0 0)" d="M0 612L0 0L0 0L792 0L792 0L792 612L792 612L0 612z" /></clipPath><clipPath id="2"><path id="" clip-rule="evenodd" transform="matrix(1 0 0 1 0 0)" d="M172.875 52.5L619.125 52.5L619.125 52.5L619.125 69.75L619.125 69.75L172.875 69.75L172.875 69.75L172.875 52.5z" /></clipPath><clipPath id="3"><path id="" clip-rule="evenodd" transform="matrix(1 0 0 1 0 0)" d="M172.875 69L619.125 69L619.125 69L619.125 533.25L619.125 533.25L172.875 533.25L172.875 533.25L172.875 69z" /></clipPath></defs><g transform="matrix(1.333333 0 0 1.333333 0 0)"><g clip-path="url(#1)"><g clip-path="url(#2)"><path id="10" transform="matrix(1 0 0 -1 0 612)" d="M173.625 558.75L618.375 558.75L618.375 541.5L173.625 541.5L173.625 558.75z" stroke="none" fill="#4DD0E1" fill-rule="nonzero" /><path id="11" transform="matrix(1 0 0 -1 0 612)" d="M173.625 542.25L618.375 542.25L618.375 541.5L173.625 541.5zM173.625 558.75L618.375 558.75L618.375 558L173.625 558zM618.375 558L618.375 542.25L617.625 542.25L617.625 558zM541.125 558L541.125 542.25L540.375 542.25L540.375 558zM512.625 558L512.625 542.25L511.875 542.25L511.875 558zM284.625 558L284.625 542.25L283.875 542.25L283.875 558zM208.125 558L208.125 542.25L207.375 542.25L207.375 558zM174.375 558L174.375 542.25L173.625 542.25L173.625 558z" stroke="none" fill="#000000" fill-rule="nonzero" fill-opacity="0.1490196" /></g><g clip-path="url(#3)"><path id="39" transform="matrix(1 0 0 -1 0 612)" d="M173.625 542.25L618.375 542.25L618.375 485.25L173.625 485.25L173.625 542.25z" stroke="none" fill="#FFFFFF" fill-rule="nonzero" /><path id="40" transform="matrix(1 0 0 -1 0 612)" d="M173.625 486L618.375 486L618.375 468.75L173.625 468.75L173.625 486z" stroke="none" fill="#E0F7FA" fill-rule="nonzero" /><path id="41" transform="matrix(1 0 0 -1 0 612)" d="M173.625 469.5L618.375 469.5L618.375 438.75L173.625 438.75L173.625 469.5z" stroke="none" fill="#FFFFFF" fill-rule="nonzero" /><path id="42" transform="matrix(1 0 0 -1 0 612)" d="M173.625 439.5L618.375 439.5L618.375 408.75L173.625 408.75L173.625 439.5z" stroke="none" fill="#E0F7FA" fill-rule="nonzero" /><path id="43" transform="matrix(1 0 0 -1 0 612)" d="M173.625 409.5L618.375 409.5L618.375 352.5L173.625 352.5L173.625 409.5z" stroke="none" fill="#FFFFFF" fill-rule="nonzero" /><path id="44" transform="matrix(1 0 0 -1 0 612)" d="M173.625 353.25L618.375 353.25L618.375 309.75L173.625 309.75L173.625 353.25z" stroke="none" fill="#E0F7FA" fill-rule="nonzero" /><path id="45" transform="matrix(1 0 0 -1 0 612)" d="M173.625 310.5L618.375 310.5L618.375 279.75L173.625 279.75L173.625 310.5z" stroke="none" fill="#FFFFFF" fill-rule="nonzero" /><path id="46" transform="matrix(1 0 0 -1 0 612)" d="M173.625 280.5L618.375 280.5L618.375 249.75L173.625 249.75L173.625 280.5z" stroke="none" fill="#E0F7FA" fill-rule="nonzero" /><path id="47" transform="matrix(1 0 0 -1 0 612)" d="M173.625 250.5L618.375 250.5L618.375 207L173.625 207L173.625 250.5z" stroke="none" fill="#FFFFFF" fill-rule="nonzero" /><path id="48" transform="matrix(1 0 0 -1 0 612)" d="M173.625 207.75L618.375 207.75L618.375 177L173.625 177L173.625 207.75z" stroke="none" fill="#E0F7FA" fill-rule="nonzero" /><path id="49" transform="matrix(1 0 0 -1 0 612)" d="M173.625 177.75L618.375 177.75L618.375 135L173.625 135L173.625 177.75z" stroke="none" fill="#FFFFFF" fill-rule="nonzero" /><path id="50" transform="matrix(1 0 0 -1 0 612)" d="M173.625 135.75L618.375 135.75L618.375 79.5L173.625 79.5L173.625 135.75z" stroke="none" fill="#E0F7FA" fill-rule="nonzero" /><path id="51" transform="matrix(1 0 0 -1 0 612)" d="M173.625 80.25L618.375 80.25L618.375 79.5L173.625 79.5zM173.625 135.75L618.375 135.75L618.375 135L173.625 135zM173.625 177.75L618.375 177.75L618.375 177L173.625 177zM173.625 207.75L618.375 207.75L618.375 207L173.625 207zM173.625 250.5L618.375 250.5L618.375 249.75L173.625 249.75zM173.625 280.5L618.375 280.5L618.375 279.75L173.625 279.75zM173.625 310.5L618.375 310.5L618.375 309.75L173.625 309.75zM173.625 353.25L618.375 353.25L618.375 352.5L173.625 352.5zM173.625 409.5L618.375 409.5L618.375 408.75L173.625 408.75zM173.625 439.5L618.375 439.5L618.375 438.75L173.625 438.75zM173.625 469.5L618.375 469.5L618.375 468.75L173.625 468.75zM173.625 486L618.375 486L618.375 485.25L173.625 485.25zM173.625 542.25L618.375 542.25L618.375 541.5L173.625 541.5zM618.375 135L618.375 80.25L617.625 80.25L617.625 135zM618.375 177L618.375 135.75L617.625 135.75L617.625 177zM618.375 207L618.375 177.75L617.625 177.75L617.625 207zM618.375 249.75L618.375 207.75L617.625 207.75L617.625 249.75zM618.375 279.75L618.375 250.5L617.625 250.5L617.625 279.75zM618.375 309.75L618.375 280.5L617.625 280.5L617.625 309.75zM618.375 352.5L618.375 310.5L617.625 310.5L617.625 352.5zM618.375 408.75L618.375 353.25L617.625 353.25L617.625 408.75zM618.375 438.75L618.375 409.5L617.625 409.5L617.625 438.75zM618.375 468.75L618.375 439.5L617.625 439.5L617.625 468.75zM618.375 485.25L618.375 469.5L617.625 469.5L617.625 485.25zM618.375 541.5L618.375 486L617.625 486L617.625 541.5zM541.125 135L541.125 80.25L540.375 80.25L540.375 135zM541.125 177L541.125 135.75L540.375 135.75L540.375 177zM541.125 207L541.125 177.75L540.375 177.75L540.375 207zM541.125 249.75L541.125 207.75L540.375 207.75L540.375 249.75zM541.125 279.75L541.125 250.5L540.375 250.5L540.375 279.75zM541.125 309.75L541.125 280.5L540.375 280.5L540.375 309.75zM541.125 352.5L541.125 310.5L540.375 310.5L540.375 352.5zM541.125 408.75L541.125 353.25L540.375 353.25L540.375 408.75zM541.125 438.75L541.125 409.5L540.375 409.5L540.375 438.75zM541.125 468.75L541.125 439.5L540.375 439.5L540.375 468.75zM541.125 485.25L541.125 469.5L540.375 469.5L540.375 485.25zM541.125 541.5L541.125 486L540.375 486L540.375 541.5zM512.625 135L512.625 80.25L511.875 80.25L511.875 135zM512.625 177L512.625 135.75L511.875 135.75L511.875 177zM512.625 207L512.625 177.75L511.875 177.75L511.875 207zM512.625 249.75L512.625 207.75L511.875 207.75L511.875 249.75zM512.625 279.75L512.625 250.5L511.875 250.5L511.875 279.75zM512.625 309.75L512.625 280.5L511.875 280.5L511.875 309.75zM512.625 352.5L512.625 310.5L511.875 310.5L511.875 352.5zM512.625 408.75L512.625 353.25L511.875 353.25L511.875 408.75zM512.625 438.75L512.625 409.5L511.875 409.5L511.875 438.75zM512.625 468.75L512.625 439.5L511.875 439.5L511.875 468.75zM512.625 485.25L512.625 469.5L511.875 469.5L511.875 485.25zM512.625 541.5L512.625 486L511.875 486L511.875 541.5zM284.625 135L284.625 80.25L283.875 80.25L283.875 135zM284.625 177L284.625 135.75L283.875 135.75L283.875 177zM284.625 207L284.625 177.75L283.875 177.75L283.875 207zM284.625 249.75L284.625 207.75L283.875 207.75L283.875 249.75zM284.625 279.75L284.625 250.5L283.875 250.5L283.875 279.75zM284.625 309.75L284.625 280.5L283.875 280.5L283.875 309.75zM284.625 352.5L284.625 310.5L283.875 310.5L283.875 352.5zM284.625 408.75L284.625 353.25L283.875 353.25L283.875 408.75zM284.625 438.75L284.625 409.5L283.875 409.5L283.875 438.75zM284.625 468.75L284.625 439.5L283.875 439.5L283.875 468.75zM284.625 485.25L284.625 469.5L283.875 469.5L283.875 485.25zM284.625 541.5L284.625 486L283.875 486L283.875 541.5zM208.125 135L208.125 80.25L207.375 80.25L207.375 135zM208.125 177L208.125 135.75L207.375 135.75L207.375 177zM208.125 207L208.125 177.75L207.375 177.75L207.375 207zM208.125 249.75L208.125 207.75L207.375 207.75L207.375 249.75zM208.125 279.75L208.125 250.5L207.375 250.5L207.375 279.75zM208.125 309.75L208.125 280.5L207.375 280.5L207.375 309.75zM208.125 352.5L208.125 310.5L207.375 310.5L207.375 352.5zM208.125 408.75L208.125 353.25L207.375 353.25L207.375 408.75zM208.125 438.75L208.125 409.5L207.375 409.5L207.375 438.75zM208.125 468.75L208.125 439.5L207.375 439.5L207.375 468.75zM208.125 485.25L208.125 469.5L207.375 469.5L207.375 485.25zM208.125 541.5L208.125 486L207.375 486L207.375 541.5zM174.375 135L174.375 80.25L173.625 80.25L173.625 135zM174.375 177L174.375 135.75L173.625 135.75L173.625 177zM174.375 207L174.375 177.75L173.625 177.75L173.625 207zM174.375 249.75L174.375 207.75L173.625 207.75L173.625 249.75zM174.375 279.75L174.375 250.5L173.625 250.5L173.625 279.75zM174.375 309.75L174.375 280.5L173.625 280.5L173.625 309.75zM174.375 352.5L174.375 310.5L173.625 310.5L173.625 352.5zM174.375 408.75L174.375 353.25L173.625 353.25L173.625 408.75zM174.375 438.75L174.375 409.5L173.625 409.5L173.625 438.75zM174.375 468.75L174.375 439.5L173.625 439.5L173.625 468.75zM174.375 485.25L174.375 469.5L173.625 469.5L173.625 485.25zM174.375 541.5L174.375 486L173.625 486L173.625 541.5z" stroke="none" fill="#000000" fill-rule="nonzero" fill-opacity="0.1490196" /><path id="98" transform="matrix(1 0 0 -1 0 612)" d="M286.875 502.0566L466.2175 502.0566" stroke="#000000" stroke-width="0.7017334" fill="none" /><path id="117" transform="matrix(1 0 0 -1 0 612)" d="M286.875 488.9668L373.4573 488.9668" stroke="#000000" stroke-width="0.7017334" fill="none" /><path id="198" transform="matrix(1 0 0 -1 0 612)" d="M286.875 472.4668L407.7249 472.4668" stroke="#000000" stroke-width="0.7017334" fill="none" /><path id="250" transform="matrix(1 0 0 -1 0 612)" d="M286.875 442.4668L413.395 442.4668" stroke="#000000" stroke-width="0.7017334" fill="none" /><path id="345" transform="matrix(1 0 0 -1 0 612)" d="M286.875 412.4668L501.6737 412.4668" stroke="#000000" stroke-width="0.7017334" fill="none" /><path id="436" transform="matrix(1 0 0 -1 0 612)" d="M286.875 382.3945L493.9405 382.3945" stroke="#000000" stroke-width="0.7017334" fill="none" /><path id="478" transform="matrix(1 0 0 -1 0 612)" d="M286.875 369.3066L495.0871 369.3066" stroke="#000000" stroke-width="0.7017334" fill="none" /><path id="491" transform="matrix(1 0 0 -1 0 612)" d="M286.875 356.2168L340.8233 356.2168" stroke="#000000" stroke-width="0.7017334" fill="none" /><path id="602" transform="matrix(1 0 0 -1 0 612)" d="M286.875 313.4668L442.2119 313.4668" stroke="#000000" stroke-width="0.7017334" fill="none" /><path id="681" transform="matrix(1 0 0 -1 0 612)" d="M286.875 296.5566L499.6893 296.5566" stroke="#000000" stroke-width="0.7017334" fill="none" /><path id="713" transform="matrix(1 0 0 -1 0 612)" d="M286.875 283.4668L440.8771 283.4668" stroke="#000000" stroke-width="0.7017334" fill="none" /><path id="788" transform="matrix(1 0 0 -1 0 612)" d="M286.875 266.5566L462.1653 266.5566" stroke="#000000" stroke-width="0.7017334" fill="none" /><path id="803" transform="matrix(1 0 0 -1 0 612)" d="M286.875 253.4668L348.9177 253.4668" stroke="#000000" stroke-width="0.7017334" fill="none" /><path id="864" transform="matrix(1 0 0 -1 0 612)" d="M286.875 236.8945L490.1447 236.8945" stroke="#000000" stroke-width="0.7017334" fill="none" /><path id="905" transform="matrix(1 0 0 -1 0 612)" d="M286.875 223.8066L490.506 223.8066" stroke="#000000" stroke-width="0.7017334" fill="none" /><path id="926" transform="matrix(1 0 0 -1 0 612)" d="M286.875 210.7168L378.8814 210.7168" stroke="#000000" stroke-width="0.7017334" fill="none" /><path id="1013" transform="matrix(1 0 0 -1 0 612)" d="M286.875 180.7168L491.6472 180.7168" stroke="#000000" stroke-width="0.7017334" fill="none" /><path id="1087" transform="matrix(1 0 0 -1 0 612)" d="M286.875 151.8066L482.4429 151.8066" stroke="#000000" stroke-width="0.7017334" fill="none" /><path id="1121" transform="matrix(1 0 0 -1 0 612)" d="M286.875 138.7168L449.343 138.7168" stroke="#000000" stroke-width="0.7017334" fill="none" /><path id="1218" transform="matrix(1 0 0 -1 0 612)" d="M286.875 109.3945L501.7678 109.3945" stroke="#000000" stroke-width="0.7017334" fill="none" /><path id="1260" transform="matrix(1 0 0 -1 0 612)" d="M286.875 96.30664L511.1711 96.30664" stroke="#000000" stroke-width="0.7017334" fill="none" /><path id="1275" transform="matrix(1 0 0 -1 0 612)" d="M286.875 83.2168L362.6509 83.2168" stroke="#000000" stroke-width="0.7017334" fill="none" /></g></g></g></svg>