<svg xmlns="http://www.w3.org/2000/svg" xmlns:xlink="http://www.w3.org/1999/xlink" id="body_27" preserveAspectRatio="xMinYMin meet" viewBox="0 0 1056 816"><defs><clipPath id="1"><path id="" clip-rule="evenodd" transform="matrix(1 0 0 1 0 0)" d="M0 612L0 0L0 0L792 0L792 0L792 612L792 612L0 612z" /></clipPath><clipPath id="2"><path id="" clip-rule="evenodd" transform="matrix(1 0 0 1 0 0)" d="M172.875 52.5L619.125 52.5L619.125 52.5L619.125 69.75L619.125 69.75L172.875 69.75L172.875 69.75L172.875 52.5z" /></clipPath><clipPath id="3"><path id="" clip-rule="evenodd" transform="matrix(1 0 0 1 0 0)" d="M172.875 69L619.125 69L619.125 69L619.125 531.75L619.125 531.75L172.875 531.75L172.875 531.75L172.875 69z" /></clipPath></defs><g transform="matrix(1.333333 0 0 1.333333 0 0)"><g clip-path="url(#1)"><g clip-path="url(#2)"><path id="10" transform="matrix(1 0 0 -1 0 612)" d="M173.625 558.75L618.375 558.75L618.375 541.5L173.625 541.5L173.625 558.75z" stroke="none" fill="#4DD0E1" fill-rule="nonzero" /><path id="11" transform="matrix(1 0 0 -1 0 612)" d="M173.625 542.25L618.375 542.25L618.375 541.5L173.625 541.5zM173.625 558.75L618.375 558.75L618.375 558L173.625 558zM618.375 558L618.375 542.25L617.625 542.25L617.625 558zM541.125 558L541.125 542.25L540.375 542.25L540.375 558zM512.625 558L512.625 542.25L511.875 542.25L511.875 558zM284.625 558L284.625 542.25L283.875 542.25L283.875 558zM208.125 558L208.125 542.25L207.375 542.25L207.375 558zM174.375 558L174.375 542.25L173.625 542.25L173.625 558z" stroke="none" fill="#000000" fill-rule="nonzero" fill-opacity="0.1490196" /></g><g clip-path="url(#3)"><path id="39" transform="matrix(1 0 0 -1 0 612)" d="M173.625 542.25L618.375 542.25L618.375 511.5L173.625 511.5L173.625 542.25z" stroke="none" fill="#FFFFFF" fill-rule="nonzero" /><path id="40" transform="matrix(1 0 0 -1 0 612)" d="M173.625 512.25L618.375 512.25L618.375 495L173.625 495L173.625 512.25z" stroke="none" fill="#E0F7FA" fill-rule="nonzero" /><path id="41" transform="matrix(1 0 0 -1 0 612)" d="M173.625 495.75L618.375 495.75L618.375 452.25L173.625 452.25L173.625 495.75z" stroke="none" fill="#FFFFFF" fill-rule="nonzero" /><path id="42" transform="matrix(1 0 0 -1 0 612)" d="M173.625 453L618.375 453L618.375 422.25L173.625 422.25L173.625 453z" stroke="none" fill="#E0F7FA" fill-rule="nonzero" /><path id="43" transform="matrix(1 0 0 -1 0 612)" d="M173.625 423L618.375 423L618.375 352.5L173.625 352.5L173.625 423z" stroke="none" fill="#FFFFFF" fill-rule="nonzero" /><path id="44" transform="matrix(1 0 0 -1 0 612)" d="M173.625 353.25L618.375 353.25L618.375 294.75L173.625 294.75L173.625 353.25z" stroke="none" fill="#E0F7FA" fill-rule="nonzero" /><path id="45" transform="matrix(1 0 0 -1 0 612)" d="M173.625 295.5L618.375 295.5L618.375 252L173.625 252L173.625 295.5z" stroke="none" fill="#FFFFFF" fill-rule="nonzero" /><path id="46" transform="matrix(1 0 0 -1 0 612)" d="M173.625 252.75L618.375 252.75L618.375 209.25L173.625 209.25L173.625 252.75z" stroke="none" fill="#E0F7FA" fill-rule="nonzero" /><path id="47" transform="matrix(1 0 0 -1 0 612)" d="M173.625 210L618.375 210L618.375 166.5L173.625 166.5L173.625 210z" stroke="none" fill="#FFFFFF" fill-rule="nonzero" /><path id="48" transform="matrix(1 0 0 -1 0 612)" d="M173.625 167.25L618.375 167.25L618.375 150L173.625 150L173.625 167.25z" stroke="none" fill="#E0F7FA" fill-rule="nonzero" /><path id="49" transform="matrix(1 0 0 -1 0 612)" d="M173.625 150.75L618.375 150.75L618.375 81L173.625 81L173.625 150.75z" stroke="none" fill="#FFFFFF" fill-rule="nonzero" /><path id="50" transform="matrix(1 0 0 -1 0 612)" d="M173.625 81.75L618.375 81.75L618.375 81L173.625 81zM173.625 150.75L618.375 150.75L618.375 150L173.625 150zM173.625 167.25L618.375 167.25L618.375 166.5L173.625 166.5zM173.625 210L618.375 210L618.375 209.25L173.625 209.25zM173.625 252.75L618.375 252.75L618.375 252L173.625 252zM173.625 295.5L618.375 295.5L618.375 294.75L173.625 294.75zM173.625 353.25L618.375 353.25L618.375 352.5L173.625 352.5zM173.625 423L618.375 423L618.375 422.25L173.625 422.25zM173.625 453L618.375 453L618.375 452.25L173.625 452.25zM173.625 495.75L618.375 495.75L618.375 495L173.625 495zM173.625 512.25L618.375 512.25L618.375 511.5L173.625 511.5zM173.625 542.25L618.375 542.25L618.375 541.5L173.625 541.5zM618.375 150L618.375 81.75L617.625 81.75L617.625 150zM618.375 166.5L618.375 150.75L617.625 150.75L617.625 166.5zM618.375 209.25L618.375 167.25L617.625 167.25L617.625 209.25zM618.375 252L618.375 210L617.625 210L617.625 252zM618.375 294.75L618.375 252.75L617.625 252.75L617.625 294.75zM618.375 352.5L618.375 295.5L617.625 295.5L617.625 352.5zM618.375 422.25L618.375 353.25L617.625 353.25L617.625 422.25zM618.375 452.25L618.375 423L617.625 423L617.625 452.25zM618.375 495L618.375 453L617.625 453L617.625 495zM618.375 511.5L618.375 495.75L617.625 495.75L617.625 511.5zM618.375 541.5L618.375 512.25L617.625 512.25L617.625 541.5zM541.125 150L541.125 81.75L540.375 81.75L540.375 150zM541.125 166.5L541.125 150.75L540.375 150.75L540.375 166.5zM541.125 209.25L541.125 167.25L540.375 167.25L540.375 209.25zM541.125 252L541.125 210L540.375 210L540.375 252zM541.125 294.75L541.125 252.75L540.375 252.75L540.375 294.75zM541.125 352.5L541.125 295.5L540.375 295.5L540.375 352.5zM541.125 422.25L541.125 353.25L540.375 353.25L540.375 422.25zM541.125 452.25L541.125 423L540.375 423L540.375 452.25zM541.125 495L541.125 453L540.375 453L540.375 495zM541.125 511.5L541.125 495.75L540.375 495.75L540.375 511.5zM541.125 541.5L541.125 512.25L540.375 512.25L540.375 541.5zM512.625 150L512.625 81.75L511.875 81.75L511.875 150zM512.625 166.5L512.625 150.75L511.875 150.75L511.875 166.5zM512.625 209.25L512.625 167.25L511.875 167.25L511.875 209.25zM512.625 252L512.625 210L511.875 210L511.875 252zM512.625 294.75L512.625 252.75L511.875 252.75L511.875 294.75zM512.625 352.5L512.625 295.5L511.875 295.5L511.875 352.5zM512.625 422.25L512.625 353.25L511.875 353.25L511.875 422.25zM512.625 452.25L512.625 423L511.875 423L511.875 452.25zM512.625 495L512.625 453L511.875 453L511.875 495zM512.625 511.5L512.625 495.75L511.875 495.75L511.875 511.5zM512.625 541.5L512.625 512.25L511.875 512.25L511.875 541.5zM284.625 150L284.625 81.75L283.875 81.75L283.875 150zM284.625 166.5L284.625 150.75L283.875 150.75L283.875 166.5zM284.625 209.25L284.625 167.25L283.875 167.25L283.875 209.25zM284.625 252L284.625 210L283.875 210L283.875 252zM284.625 294.75L284.625 252.75L283.875 252.75L283.875 294.75zM284.625 352.5L284.625 295.5L283.875 295.5L283.875 352.5zM284.625 422.25L284.625 353.25L283.875 353.25L283.875 422.25zM284.625 452.25L284.625 423L283.875 423L283.875 452.25zM284.625 495L284.625 453L283.875 453L283.875 495zM284.625 511.5L284.625 495.75L283.875 495.75L283.875 511.5zM284.625 541.5L284.625 512.25L283.875 512.25L283.875 541.5zM208.125 150L208.125 81.75L207.375 81.75L207.375 150zM208.125 166.5L208.125 150.75L207.375 150.75L207.375 166.5zM208.125 209.25L208.125 167.25L207.375 167.25L207.375 209.25zM208.125 252L208.125 210L207.375 210L207.375 252zM208.125 294.75L208.125 252.75L207.375 252.75L207.375 294.75zM208.125 352.5L208.125 295.5L207.375 295.5L207.375 352.5zM208.125 422.25L208.125 353.25L207.375 353.25L207.375 422.25zM208.125 452.25L208.125 423L207.375 423L207.375 452.25zM208.125 495L208.125 453L207.375 453L207.375 495zM208.125 511.5L208.125 495.75L207.375 495.75L207.375 511.5zM208.125 541.5L208.125 512.25L207.375 512.25L207.375 541.5zM174.375 150L174.375 81.75L173.625 81.75L173.625 150zM174.375 166.5L174.375 150.75L173.625 150.75L173.625 166.5zM174.375 209.25L174.375 167.25L173.625 167.25L173.625 209.25zM174.375 252L174.375 210L173.625 210L173.625 252zM174.375 294.75L174.375 252.75L173.625 252.75L173.625 294.75zM174.375 352.5L174.375 295.5L173.625 295.5L173.625 352.5zM174.375 422.25L174.375 353.25L173.625 353.25L173.625 422.25zM174.375 452.25L174.375 423L173.625 423L173.625 452.25zM174.375 495L174.375 453L173.625 453L173.625 495zM174.375 511.5L174.375 495.75L173.625 495.75L173.625 511.5zM174.375 541.5L174.375 512.25L173.625 512.25L173.625 541.5z" stroke="none" fill="#000000" fill-rule="nonzero" fill-opacity="0.1490196" /><path id="116" transform="matrix(1 0 0 -1 0 612)" d="M286.875 528.3047L480.4429 528.3047" stroke="#000000" stroke-width="0.7017334" fill="none" /><path id="127" transform="matrix(1 0 0 -1 0 612)" d="M286.875 515.2158L328.6608 515.2158" stroke="#000000" stroke-width="0.7017334" fill="none" /><path id="186" transform="matrix(1 0 0 -1 0 612)" d="M286.875 498.7158L455.2646 498.7158" stroke="#000000" stroke-width="0.7017334" fill="none" /><path id="283" transform="matrix(1 0 0 -1 0 612)" d="M286.875 455.9658L491.6839 455.9658" stroke="#000000" stroke-width="0.7017334" fill="none" /><path id="348" transform="matrix(1 0 0 -1 0 612)" d="M286.875 439.0547L494.0609 439.0547" stroke="#000000" stroke-width="0.7017334" fill="none" /><path id="371" transform="matrix(1 0 0 -1 0 612)" d="M286.875 425.9658L406.1174 425.9658" stroke="#000000" stroke-width="0.7017334" fill="none" /><path id="452" transform="matrix(1 0 0 -1 0 612)" d="M286.875 382.3936L504.1657 382.3936" stroke="#000000" stroke-width="0.7017334" fill="none" /><path id="491" transform="matrix(1 0 0 -1 0 612)" d="M286.875 369.3047L487.354 369.3047" stroke="#000000" stroke-width="0.7017334" fill="none" /><path id="511" transform="matrix(1 0 0 -1 0 612)" d="M286.875 356.2158L378.8761 356.2158" stroke="#000000" stroke-width="0.7017334" fill="none" /><path id="606" transform="matrix(1 0 0 -1 0 612)" d="M286.875 311.5566L498.1028 311.5566" stroke="#000000" stroke-width="0.7017334" fill="none" /><path id="614" transform="matrix(1 0 0 -1 0 612)" d="M286.875 298.4668L332.3625 298.4668" stroke="#000000" stroke-width="0.7017334" fill="none" /><path id="737" transform="matrix(1 0 0 -1 0 612)" d="M286.875 281.8945L488.998 281.8945" stroke="#000000" stroke-width="0.7017334" fill="none" /><path id="776" transform="matrix(1 0 0 -1 0 612)" d="M286.875 268.8066L497.7784 268.8066" stroke="#000000" stroke-width="0.7017334" fill="none" /><path id="783" transform="matrix(1 0 0 -1 0 612)" d="M286.875 255.7168L312.4722 255.7168" stroke="#000000" stroke-width="0.7017334" fill="none" /><path id="866" transform="matrix(1 0 0 -1 0 612)" d="M286.875 212.9668L464.4008 212.9668" stroke="#000000" stroke-width="0.7017334" fill="none" /><path id="948" transform="matrix(1 0 0 -1 0 612)" d="M286.875 196.3945L461.8982 196.3945" stroke="#000000" stroke-width="0.7017334" fill="none" /><path id="991" transform="matrix(1 0 0 -1 0 612)" d="M286.875 183.3066L491.3856 183.3066" stroke="#000000" stroke-width="0.7017334" fill="none" /><path id="1003" transform="matrix(1 0 0 -1 0 612)" d="M286.875 170.2168L339.8443 170.2168" stroke="#000000" stroke-width="0.7017334" fill="none" /><path id="1086" transform="matrix(1 0 0 -1 0 612)" d="M286.875 153.7168L487.7991 153.7168" stroke="#000000" stroke-width="0.7017334" fill="none" /><path id="1165" transform="matrix(1 0 0 -1 0 612)" d="M286.875 84.7168L414.9813 84.7168" stroke="#000000" stroke-width="0.7017334" fill="none" /></g></g></g></svg>