<svg xmlns="http://www.w3.org/2000/svg" xmlns:xlink="http://www.w3.org/1999/xlink" id="body_19" preserveAspectRatio="xMinYMin meet" viewBox="0 0 1056 816"><defs><clipPath id="1"><path id="" clip-rule="evenodd" transform="matrix(1 0 0 1 0 0)" d="M0 612L0 0L0 0L792 0L792 0L792 612L792 612L0 612z" /></clipPath><clipPath id="2"><path id="" clip-rule="evenodd" transform="matrix(1 0 0 1 0 0)" d="M172.875 52.5L619.125 52.5L619.125 52.5L619.125 69.75L619.125 69.75L172.875 69.75L172.875 69.75L172.875 52.5z" /></clipPath><clipPath id="3"><path id="" clip-rule="evenodd" transform="matrix(1 0 0 1 0 0)" d="M172.875 69L619.125 69L619.125 69L619.125 518.25L619.125 518.25L172.875 518.25L172.875 518.25L172.875 69z" /></clipPath></defs><g transform="matrix(1.333333 0 0 1.333333 0 0)"><g clip-path="url(#1)"><g clip-path="url(#2)"><path id="10" transform="matrix(1 0 0 -1 0 612)" d="M173.625 558.75L618.375 558.75L618.375 541.5L173.625 541.5L173.625 558.75z" stroke="none" fill="#4DD0E1" fill-rule="nonzero" /><path id="11" transform="matrix(1 0 0 -1 0 612)" d="M173.625 542.25L618.375 542.25L618.375 541.5L173.625 541.5zM173.625 558.75L618.375 558.75L618.375 558L173.625 558zM618.375 558L618.375 542.25L617.625 542.25L617.625 558zM541.125 558L541.125 542.25L540.375 542.25L540.375 558zM512.625 558L512.625 542.25L511.875 542.25L511.875 558zM284.625 558L284.625 542.25L283.875 542.25L283.875 558zM208.125 558L208.125 542.25L207.375 542.25L207.375 558zM174.375 558L174.375 542.25L173.625 542.25L173.625 558z" stroke="none" fill="#000000" fill-rule="nonzero" fill-opacity="0.1490196" /></g><g clip-path="url(#3)"><path id="39" transform="matrix(1 0 0 -1 0 612)" d="M173.625 542.25L618.375 542.25L618.375 484.5L173.625 484.5L173.625 542.25z" stroke="none" fill="#E0F7FA" fill-rule="nonzero" /><path id="40" transform="matrix(1 0 0 -1 0 612)" d="M173.625 485.25L618.375 485.25L618.375 428.25L173.625 428.25L173.625 485.25z" stroke="none" fill="#FFFFFF" fill-rule="nonzero" /><path id="41" transform="matrix(1 0 0 -1 0 612)" d="M173.625 429L618.375 429L618.375 386.25L173.625 386.25L173.625 429z" stroke="none" fill="#E0F7FA" fill-rule="nonzero" /><path id="42" transform="matrix(1 0 0 -1 0 612)" d="M173.625 387L618.375 387L618.375 356.25L173.625 356.25L173.625 387z" stroke="none" fill="#FFFFFF" fill-rule="nonzero" /><path id="43" transform="matrix(1 0 0 -1 0 612)" d="M173.625 357L618.375 357L618.375 300L173.625 300L173.625 357z" stroke="none" fill="#E0F7FA" fill-rule="nonzero" /><path id="44" transform="matrix(1 0 0 -1 0 612)" d="M173.625 300.75L618.375 300.75L618.375 270L173.625 270L173.625 300.75z" stroke="none" fill="#FFFFFF" fill-rule="nonzero" /><path id="45" transform="matrix(1 0 0 -1 0 612)" d="M173.625 270.75L618.375 270.75L618.375 240L173.625 240L173.625 270.75z" stroke="none" fill="#E0F7FA" fill-rule="nonzero" /><path id="46" transform="matrix(1 0 0 -1 0 612)" d="M173.625 240.75L618.375 240.75L618.375 210L173.625 210L173.625 240.75z" stroke="none" fill="#FFFFFF" fill-rule="nonzero" /><path id="47" transform="matrix(1 0 0 -1 0 612)" d="M173.625 210.75L618.375 210.75L618.375 193.5L173.625 193.5L173.625 210.75z" stroke="none" fill="#E0F7FA" fill-rule="nonzero" /><path id="48" transform="matrix(1 0 0 -1 0 612)" d="M173.625 194.25L618.375 194.25L618.375 150.75L173.625 150.75L173.625 194.25z" stroke="none" fill="#FFFFFF" fill-rule="nonzero" /><path id="49" transform="matrix(1 0 0 -1 0 612)" d="M173.625 151.5L618.375 151.5L618.375 94.5L173.625 94.5L173.625 151.5z" stroke="none" fill="#E0F7FA" fill-rule="nonzero" /><path id="50" transform="matrix(1 0 0 -1 0 612)" d="M173.625 95.25L618.375 95.25L618.375 94.5L173.625 94.5zM173.625 151.5L618.375 151.5L618.375 150.75L173.625 150.75zM173.625 194.25L618.375 194.25L618.375 193.5L173.625 193.5zM173.625 210.75L618.375 210.75L618.375 210L173.625 210zM173.625 240.75L618.375 240.75L618.375 240L173.625 240zM173.625 270.75L618.375 270.75L618.375 270L173.625 270zM173.625 300.75L618.375 300.75L618.375 300L173.625 300zM173.625 357L618.375 357L618.375 356.25L173.625 356.25zM173.625 387L618.375 387L618.375 386.25L173.625 386.25zM173.625 429L618.375 429L618.375 428.25L173.625 428.25zM173.625 485.25L618.375 485.25L618.375 484.5L173.625 484.5zM173.625 542.25L618.375 542.25L618.375 541.5L173.625 541.5zM618.375 150.75L618.375 95.25L617.625 95.25L617.625 150.75zM618.375 193.5L618.375 151.5L617.625 151.5L617.625 193.5zM618.375 210L618.375 194.25L617.625 194.25L617.625 210zM618.375 240L618.375 210.75L617.625 210.75L617.625 240zM618.375 270L618.375 240.75L617.625 240.75L617.625 270zM618.375 300L618.375 270.75L617.625 270.75L617.625 300zM618.375 356.25L618.375 300.75L617.625 300.75L617.625 356.25zM618.375 386.25L618.375 357L617.625 357L617.625 386.25zM618.375 428.25L618.375 387L617.625 387L617.625 428.25zM618.375 484.5L618.375 429L617.625 429L617.625 484.5zM618.375 541.5L618.375 485.25L617.625 485.25L617.625 541.5zM541.125 150.75L541.125 95.25L540.375 95.25L540.375 150.75zM541.125 193.5L541.125 151.5L540.375 151.5L540.375 193.5zM541.125 210L541.125 194.25L540.375 194.25L540.375 210zM541.125 240L541.125 210.75L540.375 210.75L540.375 240zM541.125 270L541.125 240.75L540.375 240.75L540.375 270zM541.125 300L541.125 270.75L540.375 270.75L540.375 300zM541.125 356.25L541.125 300.75L540.375 300.75L540.375 356.25zM541.125 386.25L541.125 357L540.375 357L540.375 386.25zM541.125 428.25L541.125 387L540.375 387L540.375 428.25zM541.125 484.5L541.125 429L540.375 429L540.375 484.5zM541.125 541.5L541.125 485.25L540.375 485.25L540.375 541.5zM512.625 150.75L512.625 95.25L511.875 95.25L511.875 150.75zM512.625 193.5L512.625 151.5L511.875 151.5L511.875 193.5zM512.625 210L512.625 194.25L511.875 194.25L511.875 210zM512.625 240L512.625 210.75L511.875 210.75L511.875 240zM512.625 270L512.625 240.75L511.875 240.75L511.875 270zM512.625 300L512.625 270.75L511.875 270.75L511.875 300zM512.625 356.25L512.625 300.75L511.875 300.75L511.875 356.25zM512.625 386.25L512.625 357L511.875 357L511.875 386.25zM512.625 428.25L512.625 387L511.875 387L511.875 428.25zM512.625 484.5L512.625 429L511.875 429L511.875 484.5zM512.625 541.5L512.625 485.25L511.875 485.25L511.875 541.5zM284.625 150.75L284.625 95.25L283.875 95.25L283.875 150.75zM284.625 193.5L284.625 151.5L283.875 151.5L283.875 193.5zM284.625 210L284.625 194.25L283.875 194.25L283.875 210zM284.625 240L284.625 210.75L283.875 210.75L283.875 240zM284.625 270L284.625 240.75L283.875 240.75L283.875 270zM284.625 300L284.625 270.75L283.875 270.75L283.875 300zM284.625 356.25L284.625 300.75L283.875 300.75L283.875 356.25zM284.625 386.25L284.625 357L283.875 357L283.875 386.25zM284.625 428.25L284.625 387L283.875 387L283.875 428.25zM284.625 484.5L284.625 429L283.875 429L283.875 484.5zM284.625 541.5L284.625 485.25L283.875 485.25L283.875 541.5zM208.125 150.75L208.125 95.25L207.375 95.25L207.375 150.75zM208.125 193.5L208.125 151.5L207.375 151.5L207.375 193.5zM208.125 210L208.125 194.25L207.375 194.25L207.375 210zM208.125 240L208.125 210.75L207.375 210.75L207.375 240zM208.125 270L208.125 240.75L207.375 240.75L207.375 270zM208.125 300L208.125 270.75L207.375 270.75L207.375 300zM208.125 356.25L208.125 300.75L207.375 300.75L207.375 356.25zM208.125 386.25L208.125 357L207.375 357L207.375 386.25zM208.125 428.25L208.125 387L207.375 387L207.375 428.25zM208.125 484.5L208.125 429L207.375 429L207.375 484.5zM208.125 541.5L208.125 485.25L207.375 485.25L207.375 541.5zM174.375 150.75L174.375 95.25L173.625 95.25L173.625 150.75zM174.375 193.5L174.375 151.5L173.625 151.5L173.625 193.5zM174.375 210L174.375 194.25L173.625 194.25L173.625 210zM174.375 240L174.375 210.75L173.625 210.75L173.625 240zM174.375 270L174.375 240.75L173.625 240.75L173.625 270zM174.375 300L174.375 270.75L173.625 270.75L173.625 300zM174.375 356.25L174.375 300.75L173.625 300.75L173.625 356.25zM174.375 386.25L174.375 357L173.625 357L173.625 386.25zM174.375 428.25L174.375 387L173.625 387L173.625 428.25zM174.375 484.5L174.375 429L173.625 429L173.625 484.5zM174.375 541.5L174.375 485.25L173.625 485.25L173.625 541.5z" stroke="none" fill="#000000" fill-rule="nonzero" fill-opacity="0.1490196" /><path id="110" transform="matrix(1 0 0 -1 0 612)" d="M286.875 501.3047L469.0031 501.3047" stroke="#000000" stroke-width="0.7017334" fill="none" /><path id="142" transform="matrix(1 0 0 -1 0 612)" d="M286.875 488.2158L442.7668 488.2158" stroke="#000000" stroke-width="0.7017334" fill="none" /><path id="238" transform="matrix(1 0 0 -1 0 612)" d="M286.875 471.2324L472.804 471.2324" stroke="#000000" stroke-width="0.7017334" fill="none" /><path id="275" transform="matrix(1 0 0 -1 0 612)" d="M286.875 458.1436L473.4847 458.1436" stroke="#000000" stroke-width="0.7017334" fill="none" /><path id="316" transform="matrix(1 0 0 -1 0 612)" d="M286.875 445.0547L487.354 445.0547" stroke="#000000" stroke-width="0.7017334" fill="none" /><path id="325" transform="matrix(1 0 0 -1 0 612)" d="M286.875 431.9658L324.1163 431.9658" stroke="#000000" stroke-width="0.7017334" fill="none" /><path id="424" transform="matrix(1 0 0 -1 0 612)" d="M286.875 403.0547L467.6679 403.0547" stroke="#000000" stroke-width="0.7017334" fill="none" /><path id="455" transform="matrix(1 0 0 -1 0 612)" d="M286.875 389.9658L430.5889 389.9658" stroke="#000000" stroke-width="0.7017334" fill="none" /><path id="546" transform="matrix(1 0 0 -1 0 612)" d="M286.875 373.0547L504.7208 373.0547" stroke="#000000" stroke-width="0.7017334" fill="none" /><path id="568" transform="matrix(1 0 0 -1 0 612)" d="M286.875 359.9658L382.1276 359.9658" stroke="#000000" stroke-width="0.7017334" fill="none" /><path id="640" transform="matrix(1 0 0 -1 0 612)" d="M286.875 316.8047L490.9614 316.8047" stroke="#000000" stroke-width="0.7017334" fill="none" /><path id="657" transform="matrix(1 0 0 -1 0 612)" d="M286.875 303.7158L361.4152 303.7158" stroke="#000000" stroke-width="0.7017334" fill="none" /><path id="748" transform="matrix(1 0 0 -1 0 612)" d="M286.875 286.8047L480.909 286.8047" stroke="#000000" stroke-width="0.7017334" fill="none" /><path id="755" transform="matrix(1 0 0 -1 0 612)" d="M286.875 273.7158L318.5927 273.7158" stroke="#000000" stroke-width="0.7017334" fill="none" /><path id="809" transform="matrix(1 0 0 -1 0 612)" d="M286.875 256.8047L477.7256 256.8047" stroke="#000000" stroke-width="0.7017334" fill="none" /><path id="840" transform="matrix(1 0 0 -1 0 612)" d="M286.875 243.7158L428.1229 243.7158" stroke="#000000" stroke-width="0.7017334" fill="none" /><path id="894" transform="matrix(1 0 0 -1 0 612)" d="M286.875 213.7158L451.6467 213.7158" stroke="#000000" stroke-width="0.7017334" fill="none" /><path id="965" transform="matrix(1 0 0 -1 0 612)" d="M286.875 197.2158L480.286 197.2158" stroke="#000000" stroke-width="0.7017334" fill="none" /><path id="1006" transform="matrix(1 0 0 -1 0 612)" d="M286.875 154.4658L426.2224 154.4658" stroke="#000000" stroke-width="0.7017334" fill="none" /><path id="1117" transform="matrix(1 0 0 -1 0 612)" d="M286.875 98.21582L480.5005 98.21582" stroke="#000000" stroke-width="0.7017334" fill="none" /></g></g></g></svg>