<svg xmlns="http://www.w3.org/2000/svg" xmlns:xlink="http://www.w3.org/1999/xlink" id="body_34" preserveAspectRatio="xMinYMin meet" viewBox="0 0 1056 816"><defs><clipPath id="1"><path id="" clip-rule="evenodd" transform="matrix(1 0 0 1 0 0)" d="M0 612L0 0L0 0L792 0L792 0L792 612L792 612L0 612z" /></clipPath><clipPath id="2"><path id="" clip-rule="evenodd" transform="matrix(1 0 0 1 0 0)" d="M172.875 52.5L619.125 52.5L619.125 52.5L619.125 69.75L619.125 69.75L172.875 69.75L172.875 69.75L172.875 52.5z" /></clipPath><clipPath id="3"><path id="" clip-rule="evenodd" transform="matrix(1 0 0 1 0 0)" d="M172.875 69L619.125 69L619.125 69L619.125 545.25L619.125 545.25L172.875 545.25L172.875 545.25L172.875 69z" /></clipPath></defs><g transform="matrix(1.333333 0 0 1.333333 0 0)"><g clip-path="url(#1)"><g clip-path="url(#2)"><path id="10" transform="matrix(1 0 0 -1 0 612)" d="M173.625 558.75L618.375 558.75L618.375 541.5L173.625 541.5L173.625 558.75z" stroke="none" fill="#4DD0E1" fill-rule="nonzero" /><path id="11" transform="matrix(1 0 0 -1 0 612)" d="M173.625 542.25L618.375 542.25L618.375 541.5L173.625 541.5zM173.625 558.75L618.375 558.75L618.375 558L173.625 558zM618.375 558L618.375 542.25L617.625 542.25L617.625 558zM541.125 558L541.125 542.25L540.375 542.25L540.375 558zM512.625 558L512.625 542.25L511.875 542.25L511.875 558zM284.625 558L284.625 542.25L283.875 542.25L283.875 558zM208.125 558L208.125 542.25L207.375 542.25L207.375 558zM174.375 558L174.375 542.25L173.625 542.25L173.625 558z" stroke="none" fill="#000000" fill-rule="nonzero" fill-opacity="0.1490196" /></g><g clip-path="url(#3)"><path id="39" transform="matrix(1 0 0 -1 0 612)" d="M173.625 542.25L618.375 542.25L618.375 485.25L173.625 485.25L173.625 542.25z" stroke="none" fill="#FFFFFF" fill-rule="nonzero" /><path id="40" transform="matrix(1 0 0 -1 0 612)" d="M173.625 486L618.375 486L618.375 442.5L173.625 442.5L173.625 486z" stroke="none" fill="#E0F7FA" fill-rule="nonzero" /><path id="41" transform="matrix(1 0 0 -1 0 612)" d="M173.625 443.25L618.375 443.25L618.375 399.75L173.625 399.75L173.625 443.25z" stroke="none" fill="#FFFFFF" fill-rule="nonzero" /><path id="42" transform="matrix(1 0 0 -1 0 612)" d="M173.625 400.5L618.375 400.5L618.375 369.75L173.625 369.75L173.625 400.5z" stroke="none" fill="#E0F7FA" fill-rule="nonzero" /><path id="43" transform="matrix(1 0 0 -1 0 612)" d="M173.625 370.5L618.375 370.5L618.375 339.75L173.625 339.75L173.625 370.5z" stroke="none" fill="#FFFFFF" fill-rule="nonzero" /><path id="44" transform="matrix(1 0 0 -1 0 612)" d="M173.625 340.5L618.375 340.5L618.375 297L173.625 297L173.625 340.5z" stroke="none" fill="#E0F7FA" fill-rule="nonzero" /><path id="45" transform="matrix(1 0 0 -1 0 612)" d="M173.625 297.75L618.375 297.75L618.375 240.75L173.625 240.75L173.625 297.75z" stroke="none" fill="#FFFFFF" fill-rule="nonzero" /><path id="46" transform="matrix(1 0 0 -1 0 612)" d="M173.625 241.5L618.375 241.5L618.375 198L173.625 198L173.625 241.5z" stroke="none" fill="#E0F7FA" fill-rule="nonzero" /><path id="47" transform="matrix(1 0 0 -1 0 612)" d="M173.625 198.75L618.375 198.75L618.375 168L173.625 168L173.625 198.75z" stroke="none" fill="#FFFFFF" fill-rule="nonzero" /><path id="48" transform="matrix(1 0 0 -1 0 612)" d="M173.625 168.75L618.375 168.75L618.375 110.25L173.625 110.25L173.625 168.75z" stroke="none" fill="#E0F7FA" fill-rule="nonzero" /><path id="49" transform="matrix(1 0 0 -1 0 612)" d="M173.625 111L618.375 111L618.375 67.5L173.625 67.5L173.625 111z" stroke="none" fill="#FFFFFF" fill-rule="nonzero" /><path id="50" transform="matrix(1 0 0 -1 0 612)" d="M173.625 68.25L618.375 68.25L618.375 67.5L173.625 67.5zM173.625 111L618.375 111L618.375 110.25L173.625 110.25zM173.625 168.75L618.375 168.75L618.375 168L173.625 168zM173.625 198.75L618.375 198.75L618.375 198L173.625 198zM173.625 241.5L618.375 241.5L618.375 240.75L173.625 240.75zM173.625 297.75L618.375 297.75L618.375 297L173.625 297zM173.625 340.5L618.375 340.5L618.375 339.75L173.625 339.75zM173.625 370.5L618.375 370.5L618.375 369.75L173.625 369.75zM173.625 400.5L618.375 400.5L618.375 399.75L173.625 399.75zM173.625 443.25L618.375 443.25L618.375 442.5L173.625 442.5zM173.625 486L618.375 486L618.375 485.25L173.625 485.25zM173.625 542.25L618.375 542.25L618.375 541.5L173.625 541.5zM618.375 110.25L618.375 68.25L617.625 68.25L617.625 110.25zM618.375 168L618.375 111L617.625 111L617.625 168zM618.375 198L618.375 168.75L617.625 168.75L617.625 198zM618.375 240.75L618.375 198.75L617.625 198.75L617.625 240.75zM618.375 297L618.375 241.5L617.625 241.5L617.625 297zM618.375 339.75L618.375 297.75L617.625 297.75L617.625 339.75zM618.375 369.75L618.375 340.5L617.625 340.5L617.625 369.75zM618.375 399.75L618.375 370.5L617.625 370.5L617.625 399.75zM618.375 442.5L618.375 400.5L617.625 400.5L617.625 442.5zM618.375 485.25L618.375 443.25L617.625 443.25L617.625 485.25zM618.375 541.5L618.375 486L617.625 486L617.625 541.5zM541.125 110.25L541.125 68.25L540.375 68.25L540.375 110.25zM541.125 168L541.125 111L540.375 111L540.375 168zM541.125 198L541.125 168.75L540.375 168.75L540.375 198zM541.125 240.75L541.125 198.75L540.375 198.75L540.375 240.75zM541.125 297L541.125 241.5L540.375 241.5L540.375 297zM541.125 339.75L541.125 297.75L540.375 297.75L540.375 339.75zM541.125 369.75L541.125 340.5L540.375 340.5L540.375 369.75zM541.125 399.75L541.125 370.5L540.375 370.5L540.375 399.75zM541.125 442.5L541.125 400.5L540.375 400.5L540.375 442.5zM541.125 485.25L541.125 443.25L540.375 443.25L540.375 485.25zM541.125 541.5L541.125 486L540.375 486L540.375 541.5zM512.625 110.25L512.625 68.25L511.875 68.25L511.875 110.25zM512.625 168L512.625 111L511.875 111L511.875 168zM512.625 198L512.625 168.75L511.875 168.75L511.875 198zM512.625 240.75L512.625 198.75L511.875 198.75L511.875 240.75zM512.625 297L512.625 241.5L511.875 241.5L511.875 297zM512.625 339.75L512.625 297.75L511.875 297.75L511.875 339.75zM512.625 369.75L512.625 340.5L511.875 340.5L511.875 369.75zM512.625 399.75L512.625 370.5L511.875 370.5L511.875 399.75zM512.625 442.5L512.625 400.5L511.875 400.5L511.875 442.5zM512.625 485.25L512.625 443.25L511.875 443.25L511.875 485.25zM512.625 541.5L512.625 486L511.875 486L511.875 541.5zM284.625 110.25L284.625 68.25L283.875 68.25L283.875 110.25zM284.625 168L284.625 111L283.875 111L283.875 168zM284.625 198L284.625 168.75L283.875 168.75L283.875 198zM284.625 240.75L284.625 198.75L283.875 198.75L283.875 240.75zM284.625 297L284.625 241.5L283.875 241.5L283.875 297zM284.625 339.75L284.625 297.75L283.875 297.75L283.875 339.75zM284.625 369.75L284.625 340.5L283.875 340.5L283.875 369.75zM284.625 399.75L284.625 370.5L283.875 370.5L283.875 399.75zM284.625 442.5L284.625 400.5L283.875 400.5L283.875 442.5zM284.625 485.25L284.625 443.25L283.875 443.25L283.875 485.25zM284.625 541.5L284.625 486L283.875 486L283.875 541.5zM208.125 110.25L208.125 68.25L207.375 68.25L207.375 110.25zM208.125 168L208.125 111L207.375 111L207.375 168zM208.125 198L208.125 168.75L207.375 168.75L207.375 198zM208.125 240.75L208.125 198.75L207.375 198.75L207.375 240.75zM208.125 297L208.125 241.5L207.375 241.5L207.375 297zM208.125 339.75L208.125 297.75L207.375 297.75L207.375 339.75zM208.125 369.75L208.125 340.5L207.375 340.5L207.375 369.75zM208.125 399.75L208.125 370.5L207.375 370.5L207.375 399.75zM208.125 442.5L208.125 400.5L207.375 400.5L207.375 442.5zM208.125 485.25L208.125 443.25L207.375 443.25L207.375 485.25zM208.125 541.5L208.125 486L207.375 486L207.375 541.5zM174.375 110.25L174.375 68.25L173.625 68.25L173.625 110.25zM174.375 168L174.375 111L173.625 111L173.625 168zM174.375 198L174.375 168.75L173.625 168.75L173.625 198zM174.375 240.75L174.375 198.75L173.625 198.75L173.625 240.75zM174.375 297L174.375 241.5L173.625 241.5L173.625 297zM174.375 339.75L174.375 297.75L173.625 297.75L173.625 339.75zM174.375 369.75L174.375 340.5L173.625 340.5L173.625 369.75zM174.375 399.75L174.375 370.5L173.625 370.5L173.625 399.75zM174.375 442.5L174.375 400.5L173.625 400.5L173.625 442.5zM174.375 485.25L174.375 443.25L173.625 443.25L173.625 485.25zM174.375 541.5L174.375 486L173.625 486L173.625 541.5z" stroke="none" fill="#000000" fill-rule="nonzero" fill-opacity="0.1490196" /><path id="102" transform="matrix(1 0 0 -1 0 612)" d="M286.875 488.9668L471.4428 488.9668" stroke="#000000" stroke-width="0.7017334" fill="none" /><path id="207" transform="matrix(1 0 0 -1 0 612)" d="M286.875 459.3066L494.972 459.3066" stroke="#000000" stroke-width="0.7017334" fill="none" /><path id="221" transform="matrix(1 0 0 -1 0 612)" d="M286.875 446.2168L344.8286 446.2168" stroke="#000000" stroke-width="0.7017334" fill="none" /><path id="307" transform="matrix(1 0 0 -1 0 612)" d="M286.875 416.5566L483.4532 416.5566" stroke="#000000" stroke-width="0.7017334" fill="none" /><path id="314" transform="matrix(1 0 0 -1 0 612)" d="M286.875 403.4668L315.734 403.4668" stroke="#000000" stroke-width="0.7017334" fill="none" /><path id="395" transform="matrix(1 0 0 -1 0 612)" d="M286.875 386.5566L485.0555 386.5566" stroke="#000000" stroke-width="0.7017334" fill="none" /><path id="437" transform="matrix(1 0 0 -1 0 612)" d="M286.875 373.4668L489.3329 373.4668" stroke="#000000" stroke-width="0.7017334" fill="none" /><path id="530" transform="matrix(1 0 0 -1 0 612)" d="M286.875 356.5566L495.6001 356.5566" stroke="#000000" stroke-width="0.7017334" fill="none" /><path id="545" transform="matrix(1 0 0 -1 0 612)" d="M286.875 343.4668L354.478 343.4668" stroke="#000000" stroke-width="0.7017334" fill="none" /><path id="595" transform="matrix(1 0 0 -1 0 612)" d="M286.875 326.8945L466.3745 326.8945" stroke="#000000" stroke-width="0.7017334" fill="none" /><path id="635" transform="matrix(1 0 0 -1 0 612)" d="M286.875 313.8066L492.9091 313.8066" stroke="#000000" stroke-width="0.7017334" fill="none" /><path id="648" transform="matrix(1 0 0 -1 0 612)" d="M286.875 300.7168L347.7606 300.7168" stroke="#000000" stroke-width="0.7017334" fill="none" /><path id="714" transform="matrix(1 0 0 -1 0 612)" d="M286.875 283.7344L497.2809 283.7344" stroke="#000000" stroke-width="0.7017334" fill="none" /><path id="754" transform="matrix(1 0 0 -1 0 612)" d="M286.875 270.6445L488.6419 270.6445" stroke="#000000" stroke-width="0.7017334" fill="none" /><path id="794" transform="matrix(1 0 0 -1 0 612)" d="M286.875 257.5566L487.2126 257.5566" stroke="#000000" stroke-width="0.7017334" fill="none" /><path id="799" transform="matrix(1 0 0 -1 0 612)" d="M286.875 244.4668L308.6135 244.4668" stroke="#000000" stroke-width="0.7017334" fill="none" /><path id="859" transform="matrix(1 0 0 -1 0 612)" d="M286.875 214.8066L510.878 214.8066" stroke="#000000" stroke-width="0.7017334" fill="none" /><path id="864" transform="matrix(1 0 0 -1 0 612)" d="M286.875 201.7168L303.3516 201.7168" stroke="#000000" stroke-width="0.7017334" fill="none" /><path id="946" transform="matrix(1 0 0 -1 0 612)" d="M286.875 184.8066L493.8778 184.8066" stroke="#000000" stroke-width="0.7017334" fill="none" /><path id="986" transform="matrix(1 0 0 -1 0 612)" d="M286.875 171.7168L475.202 171.7168" stroke="#000000" stroke-width="0.7017334" fill="none" /><path id="1058" transform="matrix(1 0 0 -1 0 612)" d="M286.875 113.9668L434.814 113.9668" stroke="#000000" stroke-width="0.7017334" fill="none" /><path id="1175" transform="matrix(1 0 0 -1 0 612)" d="M286.875 97.39453L494.7833 97.39453" stroke="#000000" stroke-width="0.7017334" fill="none" /><path id="1215" transform="matrix(1 0 0 -1 0 612)" d="M286.875 84.30664L482.5685 84.30664" stroke="#000000" stroke-width="0.7017334" fill="none" /><path id="1240" transform="matrix(1 0 0 -1 0 612)" d="M286.875 71.2168L408.7195 71.2168" stroke="#000000" stroke-width="0.7017334" fill="none" /></g></g></g></svg>