<svg xmlns="http://www.w3.org/2000/svg" xmlns:xlink="http://www.w3.org/1999/xlink" id="body_37" preserveAspectRatio="xMinYMin meet" viewBox="0 0 1056 816"><defs><clipPath id="1"><path id="" clip-rule="evenodd" transform="matrix(1 0 0 1 0 0)" d="M0 612L0 0L0 0L792 0L792 0L792 612L792 612L0 612z" /></clipPath><clipPath id="2"><path id="" clip-rule="evenodd" transform="matrix(1 0 0 1 0 0)" d="M172.875 52.5L619.125 52.5L619.125 52.5L619.125 69.75L619.125 69.75L172.875 69.75L172.875 69.75L172.875 52.5z" /></clipPath><clipPath id="3"><path id="" clip-rule="evenodd" transform="matrix(1 0 0 1 0 0)" d="M172.875 69L619.125 69L619.125 69L619.125 534L619.125 534L172.875 534L172.875 534L172.875 69z" /></clipPath></defs><g transform="matrix(1.333333 0 0 1.333333 0 0)"><g clip-path="url(#1)"><g clip-path="url(#2)"><path id="10" transform="matrix(1 0 0 -1 0 612)" d="M173.625 558.75L618.375 558.75L618.375 541.5L173.625 541.5L173.625 558.75z" stroke="none" fill="#4DD0E1" fill-rule="nonzero" /><path id="11" transform="matrix(1 0 0 -1 0 612)" d="M173.625 542.25L618.375 542.25L618.375 541.5L173.625 541.5zM173.625 558.75L618.375 558.75L618.375 558L173.625 558zM618.375 558L618.375 542.25L617.625 542.25L617.625 558zM541.125 558L541.125 542.25L540.375 542.25L540.375 558zM512.625 558L512.625 542.25L511.875 542.25L511.875 558zM284.625 558L284.625 542.25L283.875 542.25L283.875 558zM208.125 558L208.125 542.25L207.375 542.25L207.375 558zM174.375 558L174.375 542.25L173.625 542.25L173.625 558z" stroke="none" fill="#000000" fill-rule="nonzero" fill-opacity="0.1490196" /></g><g clip-path="url(#3)"><path id="39" transform="matrix(1 0 0 -1 0 612)" d="M173.625 542.25L618.375 542.25L618.375 498.75L173.625 498.75L173.625 542.25z" stroke="none" fill="#E0F7FA" fill-rule="nonzero" /><path id="40" transform="matrix(1 0 0 -1 0 612)" d="M173.625 499.5L618.375 499.5L618.375 456L173.625 456L173.625 499.5z" stroke="none" fill="#FFFFFF" fill-rule="nonzero" /><path id="41" transform="matrix(1 0 0 -1 0 612)" d="M173.625 456.75L618.375 456.75L618.375 426L173.625 426L173.625 456.75z" stroke="none" fill="#E0F7FA" fill-rule="nonzero" /><path id="42" transform="matrix(1 0 0 -1 0 612)" d="M173.625 426.75L618.375 426.75L618.375 383.25L173.625 383.25L173.625 426.75z" stroke="none" fill="#FFFFFF" fill-rule="nonzero" /><path id="43" transform="matrix(1 0 0 -1 0 612)" d="M173.625 384L618.375 384L618.375 353.25L173.625 353.25L173.625 384z" stroke="none" fill="#E0F7FA" fill-rule="nonzero" /><path id="44" transform="matrix(1 0 0 -1 0 612)" d="M173.625 354L618.375 354L618.375 323.25L173.625 323.25L173.625 354z" stroke="none" fill="#FFFFFF" fill-rule="nonzero" /><path id="45" transform="matrix(1 0 0 -1 0 612)" d="M173.625 324L618.375 324L618.375 280.5L173.625 280.5L173.625 324z" stroke="none" fill="#E0F7FA" fill-rule="nonzero" /><path id="46" transform="matrix(1 0 0 -1 0 612)" d="M173.625 281.25L618.375 281.25L618.375 237.75L173.625 237.75L173.625 281.25z" stroke="none" fill="#FFFFFF" fill-rule="nonzero" /><path id="47" transform="matrix(1 0 0 -1 0 612)" d="M173.625 238.5L618.375 238.5L618.375 192.75L173.625 192.75L173.625 238.5z" stroke="none" fill="#E0F7FA" fill-rule="nonzero" /><path id="48" transform="matrix(1 0 0 -1 0 612)" d="M173.625 193.5L618.375 193.5L618.375 136.5L173.625 136.5L173.625 193.5z" stroke="none" fill="#FFFFFF" fill-rule="nonzero" /><path id="49" transform="matrix(1 0 0 -1 0 612)" d="M173.625 137.25L618.375 137.25L618.375 78.75L173.625 78.75L173.625 137.25z" stroke="none" fill="#E0F7FA" fill-rule="nonzero" /><path id="50" transform="matrix(1 0 0 -1 0 612)" d="M173.625 79.5L618.375 79.5L618.375 78.75L173.625 78.75zM173.625 137.25L618.375 137.25L618.375 136.5L173.625 136.5zM173.625 193.5L618.375 193.5L618.375 192.75L173.625 192.75zM173.625 238.5L618.375 238.5L618.375 237.75L173.625 237.75zM173.625 281.25L618.375 281.25L618.375 280.5L173.625 280.5zM173.625 324L618.375 324L618.375 323.25L173.625 323.25zM173.625 354L618.375 354L618.375 353.25L173.625 353.25zM173.625 384L618.375 384L618.375 383.25L173.625 383.25zM173.625 426.75L618.375 426.75L618.375 426L173.625 426zM173.625 456.75L618.375 456.75L618.375 456L173.625 456zM173.625 499.5L618.375 499.5L618.375 498.75L173.625 498.75zM173.625 542.25L618.375 542.25L618.375 541.5L173.625 541.5zM618.375 136.5L618.375 79.5L617.625 79.5L617.625 136.5zM618.375 192.75L618.375 137.25L617.625 137.25L617.625 192.75zM618.375 237.75L618.375 193.5L617.625 193.5L617.625 237.75zM618.375 280.5L618.375 238.5L617.625 238.5L617.625 280.5zM618.375 323.25L618.375 281.25L617.625 281.25L617.625 323.25zM618.375 353.25L618.375 324L617.625 324L617.625 353.25zM618.375 383.25L618.375 354L617.625 354L617.625 383.25zM618.375 426L618.375 384L617.625 384L617.625 426zM618.375 456L618.375 426.75L617.625 426.75L617.625 456zM618.375 498.75L618.375 456.75L617.625 456.75L617.625 498.75zM618.375 541.5L618.375 499.5L617.625 499.5L617.625 541.5zM541.125 136.5L541.125 79.5L540.375 79.5L540.375 136.5zM541.125 192.75L541.125 137.25L540.375 137.25L540.375 192.75zM541.125 237.75L541.125 193.5L540.375 193.5L540.375 237.75zM541.125 280.5L541.125 238.5L540.375 238.5L540.375 280.5zM541.125 323.25L541.125 281.25L540.375 281.25L540.375 323.25zM541.125 353.25L541.125 324L540.375 324L540.375 353.25zM541.125 383.25L541.125 354L540.375 354L540.375 383.25zM541.125 426L541.125 384L540.375 384L540.375 426zM541.125 456L541.125 426.75L540.375 426.75L540.375 456zM541.125 498.75L541.125 456.75L540.375 456.75L540.375 498.75zM541.125 541.5L541.125 499.5L540.375 499.5L540.375 541.5zM512.625 136.5L512.625 79.5L511.875 79.5L511.875 136.5zM512.625 192.75L512.625 137.25L511.875 137.25L511.875 192.75zM512.625 237.75L512.625 193.5L511.875 193.5L511.875 237.75zM512.625 280.5L512.625 238.5L511.875 238.5L511.875 280.5zM512.625 323.25L512.625 281.25L511.875 281.25L511.875 323.25zM512.625 353.25L512.625 324L511.875 324L511.875 353.25zM512.625 383.25L512.625 354L511.875 354L511.875 383.25zM512.625 426L512.625 384L511.875 384L511.875 426zM512.625 456L512.625 426.75L511.875 426.75L511.875 456zM512.625 498.75L512.625 456.75L511.875 456.75L511.875 498.75zM512.625 541.5L512.625 499.5L511.875 499.5L511.875 541.5zM284.625 136.5L284.625 79.5L283.875 79.5L283.875 136.5zM284.625 192.75L284.625 137.25L283.875 137.25L283.875 192.75zM284.625 237.75L284.625 193.5L283.875 193.5L283.875 237.75zM284.625 280.5L284.625 238.5L283.875 238.5L283.875 280.5zM284.625 323.25L284.625 281.25L283.875 281.25L283.875 323.25zM284.625 353.25L284.625 324L283.875 324L283.875 353.25zM284.625 383.25L284.625 354L283.875 354L283.875 383.25zM284.625 426L284.625 384L283.875 384L283.875 426zM284.625 456L284.625 426.75L283.875 426.75L283.875 456zM284.625 498.75L284.625 456.75L283.875 456.75L283.875 498.75zM284.625 541.5L284.625 499.5L283.875 499.5L283.875 541.5zM208.125 136.5L208.125 79.5L207.375 79.5L207.375 136.5zM208.125 192.75L208.125 137.25L207.375 137.25L207.375 192.75zM208.125 237.75L208.125 193.5L207.375 193.5L207.375 237.75zM208.125 280.5L208.125 238.5L207.375 238.5L207.375 280.5zM208.125 323.25L208.125 281.25L207.375 281.25L207.375 323.25zM208.125 353.25L208.125 324L207.375 324L207.375 353.25zM208.125 383.25L208.125 354L207.375 354L207.375 383.25zM208.125 426L208.125 384L207.375 384L207.375 426zM208.125 456L208.125 426.75L207.375 426.75L207.375 456zM208.125 498.75L208.125 456.75L207.375 456.75L207.375 498.75zM208.125 541.5L208.125 499.5L207.375 499.5L207.375 541.5zM174.375 136.5L174.375 79.5L173.625 79.5L173.625 136.5zM174.375 192.75L174.375 137.25L173.625 137.25L173.625 192.75zM174.375 237.75L174.375 193.5L173.625 193.5L173.625 237.75zM174.375 280.5L174.375 238.5L173.625 238.5L173.625 280.5zM174.375 323.25L174.375 281.25L173.625 281.25L173.625 323.25zM174.375 353.25L174.375 324L173.625 324L173.625 353.25zM174.375 383.25L174.375 354L173.625 354L173.625 383.25zM174.375 426L174.375 384L173.625 384L173.625 426zM174.375 456L174.375 426.75L173.625 426.75L173.625 456zM174.375 498.75L174.375 456.75L173.625 456.75L173.625 498.75zM174.375 541.5L174.375 499.5L173.625 499.5L173.625 541.5z" stroke="none" fill="#000000" fill-rule="nonzero" fill-opacity="0.1490196" /><path id="126" transform="matrix(1 0 0 -1 0 612)" d="M286.875 515.5566L509.8569 515.5566" stroke="#000000" stroke-width="0.7017334" fill="none" /><path id="157" transform="matrix(1 0 0 -1 0 612)" d="M286.875 502.4668L429.9815 502.4668" stroke="#000000" stroke-width="0.7017334" fill="none" /><path id="229" transform="matrix(1 0 0 -1 0 612)" d="M286.875 485.8945L494.8986 485.8945" stroke="#000000" stroke-width="0.7017334" fill="none" /><path id="270" transform="matrix(1 0 0 -1 0 612)" d="M286.875 472.8066L476.202 472.8066" stroke="#000000" stroke-width="0.7017334" fill="none" /><path id="302" transform="matrix(1 0 0 -1 0 612)" d="M286.875 459.7168L443.8561 459.7168" stroke="#000000" stroke-width="0.7017334" fill="none" /><path id="378" transform="matrix(1 0 0 -1 0 612)" d="M286.875 442.8066L485.1604 442.8066" stroke="#000000" stroke-width="0.7017334" fill="none" /><path id="404" transform="matrix(1 0 0 -1 0 612)" d="M286.875 429.7168L399.2114 429.7168" stroke="#000000" stroke-width="0.7017334" fill="none" /><path id="488" transform="matrix(1 0 0 -1 0 612)" d="M286.875 400.0566L452.1073 400.0566" stroke="#000000" stroke-width="0.7017334" fill="none" /><path id="529" transform="matrix(1 0 0 -1 0 612)" d="M286.875 386.9668L497.595 386.9668" stroke="#000000" stroke-width="0.7017334" fill="none" /><path id="621" transform="matrix(1 0 0 -1 0 612)" d="M286.875 370.0566L509.2495 370.0566" stroke="#000000" stroke-width="0.7017334" fill="none" /><path id="641" transform="matrix(1 0 0 -1 0 612)" d="M286.875 356.9668L389.8135 356.9668" stroke="#000000" stroke-width="0.7017334" fill="none" /><path id="693" transform="matrix(1 0 0 -1 0 612)" d="M286.875 340.0566L486.2336 340.0566" stroke="#000000" stroke-width="0.7017334" fill="none" /><path id="711" transform="matrix(1 0 0 -1 0 612)" d="M286.875 326.9668L368.6873 326.9668" stroke="#000000" stroke-width="0.7017334" fill="none" /><path id="772" transform="matrix(1 0 0 -1 0 612)" d="M286.875 310.3945L507.0922 310.3945" stroke="#000000" stroke-width="0.7017334" fill="none" /><path id="808" transform="matrix(1 0 0 -1 0 612)" d="M286.875 297.3066L463.8564 297.3066" stroke="#000000" stroke-width="0.7017334" fill="none" /><path id="836" transform="matrix(1 0 0 -1 0 612)" d="M286.875 284.2168L420.7563 284.2168" stroke="#000000" stroke-width="0.7017334" fill="none" /><path id="898" transform="matrix(1 0 0 -1 0 612)" d="M286.875 254.5566L494.4484 254.5566" stroke="#000000" stroke-width="0.7017334" fill="none" /><path id="943" transform="matrix(1 0 0 -1 0 612)" d="M286.875 241.4668L504.7626 241.4668" stroke="#000000" stroke-width="0.7017334" fill="none" /><path id="1043" transform="matrix(1 0 0 -1 0 612)" d="M286.875 222.6445L500.6578 222.6445" stroke="#000000" stroke-width="0.7017334" fill="none" /><path id="1082" transform="matrix(1 0 0 -1 0 612)" d="M286.875 209.5566L483.3696 209.5566" stroke="#000000" stroke-width="0.7017334" fill="none" /><path id="1091" transform="matrix(1 0 0 -1 0 612)" d="M286.875 196.4668L320.8441 196.4668" stroke="#000000" stroke-width="0.7017334" fill="none" /><path id="1189" transform="matrix(1 0 0 -1 0 612)" d="M286.875 166.3945L485.6 166.3945" stroke="#000000" stroke-width="0.7017334" fill="none" /><path id="1227" transform="matrix(1 0 0 -1 0 612)" d="M286.875 153.3066L466.8879 153.3066" stroke="#000000" stroke-width="0.7017334" fill="none" /><path id="1251" transform="matrix(1 0 0 -1 0 612)" d="M286.875 140.2168L398.4576 140.2168" stroke="#000000" stroke-width="0.7017334" fill="none" /><path id="1369" transform="matrix(1 0 0 -1 0 612)" d="M286.875 108.6445L504.0034 108.6445" stroke="#000000" stroke-width="0.7017334" fill="none" /><path id="1410" transform="matrix(1 0 0 -1 0 612)" d="M286.875 95.55664L489.061 95.55664" stroke="#000000" stroke-width="0.7017334" fill="none" /><path id="1423" transform="matrix(1 0 0 -1 0 612)" d="M286.875 82.4668L340.6348 82.4668" stroke="#000000" stroke-width="0.7017334" fill="none" /></g></g></g></svg>