<svg xmlns="http://www.w3.org/2000/svg" xmlns:xlink="http://www.w3.org/1999/xlink" id="body_7" preserveAspectRatio="xMinYMin meet" viewBox="0 0 1056 816"><defs><clipPath id="1"><path id="" clip-rule="evenodd" transform="matrix(1 0 0 1 0 0)" d="M0 612L0 0L0 0L792 0L792 0L792 612L792 612L0 612z" /></clipPath><clipPath id="2"><path id="" clip-rule="evenodd" transform="matrix(1 0 0 1 0 0)" d="M172.875 52.5L619.125 52.5L619.125 52.5L619.125 69.75L619.125 69.75L172.875 69.75L172.875 69.75L172.875 52.5z" /></clipPath><clipPath id="3"><path id="" clip-rule="evenodd" transform="matrix(1 0 0 1 0 0)" d="M172.875 69L619.125 69L619.125 69L619.125 517.5L619.125 517.5L172.875 517.5L172.875 517.5L172.875 69z" /></clipPath></defs><g transform="matrix(1.333333 0 0 1.333333 0 0)"><g clip-path="url(#1)"><g clip-path="url(#2)"><path id="9" transform="matrix(1 0 0 -1 0 612)" d="M173.625 558.75L618.375 558.75L618.375 541.5L173.625 541.5L173.625 558.75z" stroke="none" fill="#4DD0E1" fill-rule="nonzero" /><path id="10" transform="matrix(1 0 0 -1 0 612)" d="M173.625 542.25L618.375 542.25L618.375 541.5L173.625 541.5zM173.625 558.75L618.375 558.75L618.375 558L173.625 558zM618.375 558L618.375 542.25L617.625 542.25L617.625 558zM541.125 558L541.125 542.25L540.375 542.25L540.375 558zM512.625 558L512.625 542.25L511.875 542.25L511.875 558zM284.625 558L284.625 542.25L283.875 542.25L283.875 558zM208.125 558L208.125 542.25L207.375 542.25L207.375 558zM174.375 558L174.375 542.25L173.625 542.25L173.625 558z" stroke="none" fill="#000000" fill-rule="nonzero" fill-opacity="0.1490196" /></g><g clip-path="url(#3)"><path id="38" transform="matrix(1 0 0 -1 0 612)" d="M173.625 542.25L618.375 542.25L618.375 485.25L173.625 485.25L173.625 542.25z" stroke="none" fill="#FFFFFF" fill-rule="nonzero" /><path id="39" transform="matrix(1 0 0 -1 0 612)" d="M173.625 486L618.375 486L618.375 455.25L173.625 455.25L173.625 486z" stroke="none" fill="#E0F7FA" fill-rule="nonzero" /><path id="40" transform="matrix(1 0 0 -1 0 612)" d="M173.625 456L618.375 456L618.375 412.5L173.625 412.5L173.625 456z" stroke="none" fill="#FFFFFF" fill-rule="nonzero" /><path id="41" transform="matrix(1 0 0 -1 0 612)" d="M173.625 413.25L618.375 413.25L618.375 369.75L173.625 369.75L173.625 413.25z" stroke="none" fill="#E0F7FA" fill-rule="nonzero" /><path id="42" transform="matrix(1 0 0 -1 0 612)" d="M173.625 370.5L618.375 370.5L618.375 339.75L173.625 339.75L173.625 370.5z" stroke="none" fill="#FFFFFF" fill-rule="nonzero" /><path id="43" transform="matrix(1 0 0 -1 0 612)" d="M173.625 340.5L618.375 340.5L618.375 297L173.625 297L173.625 340.5z" stroke="none" fill="#E0F7FA" fill-rule="nonzero" /><path id="44" transform="matrix(1 0 0 -1 0 612)" d="M173.625 297.75L618.375 297.75L618.375 254.25L173.625 254.25L173.625 297.75z" stroke="none" fill="#FFFFFF" fill-rule="nonzero" /><path id="45" transform="matrix(1 0 0 -1 0 612)" d="M173.625 255L618.375 255L618.375 224.25L173.625 224.25L173.625 255z" stroke="none" fill="#E0F7FA" fill-rule="nonzero" /><path id="46" transform="matrix(1 0 0 -1 0 612)" d="M173.625 225L618.375 225L618.375 194.25L173.625 194.25L173.625 225z" stroke="none" fill="#FFFFFF" fill-rule="nonzero" /><path id="47" transform="matrix(1 0 0 -1 0 612)" d="M173.625 195L618.375 195L618.375 151.5L173.625 151.5L173.625 195z" stroke="none" fill="#E0F7FA" fill-rule="nonzero" /><path id="48" transform="matrix(1 0 0 -1 0 612)" d="M173.625 152.25L618.375 152.25L618.375 95.25L173.625 95.25L173.625 152.25z" stroke="none" fill="#FFFFFF" fill-rule="nonzero" /><path id="49" transform="matrix(1 0 0 -1 0 612)" d="M173.625 96L618.375 96L618.375 95.25L173.625 95.25zM173.625 152.25L618.375 152.25L618.375 151.5L173.625 151.5zM173.625 195L618.375 195L618.375 194.25L173.625 194.25zM173.625 225L618.375 225L618.375 224.25L173.625 224.25zM173.625 255L618.375 255L618.375 254.25L173.625 254.25zM173.625 297.75L618.375 297.75L618.375 297L173.625 297zM173.625 340.5L618.375 340.5L618.375 339.75L173.625 339.75zM173.625 370.5L618.375 370.5L618.375 369.75L173.625 369.75zM173.625 413.25L618.375 413.25L618.375 412.5L173.625 412.5zM173.625 456L618.375 456L618.375 455.25L173.625 455.25zM173.625 486L618.375 486L618.375 485.25L173.625 485.25zM173.625 542.25L618.375 542.25L618.375 541.5L173.625 541.5zM618.375 151.5L618.375 96L617.625 96L617.625 151.5zM618.375 194.25L618.375 152.25L617.625 152.25L617.625 194.25zM618.375 224.25L618.375 195L617.625 195L617.625 224.25zM618.375 254.25L618.375 225L617.625 225L617.625 254.25zM618.375 297L618.375 255L617.625 255L617.625 297zM618.375 339.75L618.375 297.75L617.625 297.75L617.625 339.75zM618.375 369.75L618.375 340.5L617.625 340.5L617.625 369.75zM618.375 412.5L618.375 370.5L617.625 370.5L617.625 412.5zM618.375 455.25L618.375 413.25L617.625 413.25L617.625 455.25zM618.375 485.25L618.375 456L617.625 456L617.625 485.25zM618.375 541.5L618.375 486L617.625 486L617.625 541.5zM541.125 151.5L541.125 96L540.375 96L540.375 151.5zM541.125 194.25L541.125 152.25L540.375 152.25L540.375 194.25zM541.125 224.25L541.125 195L540.375 195L540.375 224.25zM541.125 254.25L541.125 225L540.375 225L540.375 254.25zM541.125 297L541.125 255L540.375 255L540.375 297zM541.125 339.75L541.125 297.75L540.375 297.75L540.375 339.75zM541.125 369.75L541.125 340.5L540.375 340.5L540.375 369.75zM541.125 412.5L541.125 370.5L540.375 370.5L540.375 412.5zM541.125 455.25L541.125 413.25L540.375 413.25L540.375 455.25zM541.125 485.25L541.125 456L540.375 456L540.375 485.25zM541.125 541.5L541.125 486L540.375 486L540.375 541.5zM512.625 151.5L512.625 96L511.875 96L511.875 151.5zM512.625 194.25L512.625 152.25L511.875 152.25L511.875 194.25zM512.625 224.25L512.625 195L511.875 195L511.875 224.25zM512.625 254.25L512.625 225L511.875 225L511.875 254.25zM512.625 297L512.625 255L511.875 255L511.875 297zM512.625 339.75L512.625 297.75L511.875 297.75L511.875 339.75zM512.625 369.75L512.625 340.5L511.875 340.5L511.875 369.75zM512.625 412.5L512.625 370.5L511.875 370.5L511.875 412.5zM512.625 455.25L512.625 413.25L511.875 413.25L511.875 455.25zM512.625 485.25L512.625 456L511.875 456L511.875 485.25zM512.625 541.5L512.625 486L511.875 486L511.875 541.5zM284.625 151.5L284.625 96L283.875 96L283.875 151.5zM284.625 194.25L284.625 152.25L283.875 152.25L283.875 194.25zM284.625 224.25L284.625 195L283.875 195L283.875 224.25zM284.625 254.25L284.625 225L283.875 225L283.875 254.25zM284.625 297L284.625 255L283.875 255L283.875 297zM284.625 339.75L284.625 297.75L283.875 297.75L283.875 339.75zM284.625 369.75L284.625 340.5L283.875 340.5L283.875 369.75zM284.625 412.5L284.625 370.5L283.875 370.5L283.875 412.5zM284.625 455.25L284.625 413.25L283.875 413.25L283.875 455.25zM284.625 485.25L284.625 456L283.875 456L283.875 485.25zM284.625 541.5L284.625 486L283.875 486L283.875 541.5zM208.125 151.5L208.125 96L207.375 96L207.375 151.5zM208.125 194.25L208.125 152.25L207.375 152.25L207.375 194.25zM208.125 224.25L208.125 195L207.375 195L207.375 224.25zM208.125 254.25L208.125 225L207.375 225L207.375 254.25zM208.125 297L208.125 255L207.375 255L207.375 297zM208.125 339.75L208.125 297.75L207.375 297.75L207.375 339.75zM208.125 369.75L208.125 340.5L207.375 340.5L207.375 369.75zM208.125 412.5L208.125 370.5L207.375 370.5L207.375 412.5zM208.125 455.25L208.125 413.25L207.375 413.25L207.375 455.25zM208.125 485.25L208.125 456L207.375 456L207.375 485.25zM208.125 541.5L208.125 486L207.375 486L207.375 541.5zM174.375 151.5L174.375 96L173.625 96L173.625 151.5zM174.375 194.25L174.375 152.25L173.625 152.25L173.625 194.25zM174.375 224.25L174.375 195L173.625 195L173.625 224.25zM174.375 254.25L174.375 225L173.625 225L173.625 254.25zM174.375 297L174.375 255L173.625 255L173.625 297zM174.375 339.75L174.375 297.75L173.625 297.75L173.625 339.75zM174.375 369.75L174.375 340.5L173.625 340.5L173.625 369.75zM174.375 412.5L174.375 370.5L173.625 370.5L173.625 412.5zM174.375 455.25L174.375 413.25L173.625 413.25L173.625 455.25zM174.375 485.25L174.375 456L173.625 456L173.625 485.25zM174.375 541.5L174.375 486L173.625 486L173.625 541.5z" stroke="none" fill="#000000" fill-rule="nonzero" fill-opacity="0.1490196" /><path id="129" transform="matrix(1 0 0 -1 0 612)" d="M286.875 502.0549L493.6734 502.0549" stroke="#000000" stroke-width="0.7017334" fill="none" /><path id="154" transform="matrix(1 0 0 -1 0 612)" d="M286.875 488.9658L400.6303 488.9658" stroke="#000000" stroke-width="0.7017334" fill="none" /><path id="231" transform="matrix(1 0 0 -1 0 612)" d="M286.875 472.0549L498.239 472.0549" stroke="#000000" stroke-width="0.7017334" fill="none" /><path id="242" transform="matrix(1 0 0 -1 0 612)" d="M286.875 458.9658L343.8024 458.9658" stroke="#000000" stroke-width="0.7017334" fill="none" /><path id="306" transform="matrix(1 0 0 -1 0 612)" d="M286.875 429.3049L497.0034 429.3049" stroke="#000000" stroke-width="0.7017334" fill="none" /><path id="324" transform="matrix(1 0 0 -1 0 612)" d="M286.875 416.2158L373.7453 416.2158" stroke="#000000" stroke-width="0.7017334" fill="none" /><path id="407" transform="matrix(1 0 0 -1 0 612)" d="M286.875 386.5549L495.5635 386.5549" stroke="#000000" stroke-width="0.7017334" fill="none" /><path id="440" transform="matrix(1 0 0 -1 0 612)" d="M286.875 373.4658L444.0864 373.4658" stroke="#000000" stroke-width="0.7017334" fill="none" /><path id="528" transform="matrix(1 0 0 -1 0 612)" d="M286.875 356.5549L481.4061 356.5549" stroke="#000000" stroke-width="0.7017334" fill="none" /><path id="563" transform="matrix(1 0 0 -1 0 612)" d="M286.875 343.4658L454.3745 343.4658" stroke="#000000" stroke-width="0.7017334" fill="none" /><path id="634" transform="matrix(1 0 0 -1 0 612)" d="M286.875 313.8049L470.6833 313.8049" stroke="#000000" stroke-width="0.7017334" fill="none" /><path id="647" transform="matrix(1 0 0 -1 0 612)" d="M286.875 300.7158L340.6348 300.7158" stroke="#000000" stroke-width="0.7017334" fill="none" /><path id="761" transform="matrix(1 0 0 -1 0 612)" d="M286.875 271.0549L509.4538 271.0549" stroke="#000000" stroke-width="0.7017334" fill="none" /><path id="769" transform="matrix(1 0 0 -1 0 612)" d="M286.875 257.9658L326.8179 257.9658" stroke="#000000" stroke-width="0.7017334" fill="none" /><path id="827" transform="matrix(1 0 0 -1 0 612)" d="M286.875 227.9656L488.1708 227.9656" stroke="#000000" stroke-width="0.7017334" fill="none" /><path id="914" transform="matrix(1 0 0 -1 0 612)" d="M286.875 211.0547L491.647 211.0547" stroke="#000000" stroke-width="0.7017334" fill="none" /><path id="935" transform="matrix(1 0 0 -1 0 612)" d="M286.875 197.9656L376.3998 197.9656" stroke="#000000" stroke-width="0.7017334" fill="none" /><path id="988" transform="matrix(1 0 0 -1 0 612)" d="M286.875 155.2156L420.306 155.2156" stroke="#000000" stroke-width="0.7017334" fill="none" /><path id="1101" transform="matrix(1 0 0 -1 0 612)" d="M286.875 112.0547L481.1602 112.0547" stroke="#000000" stroke-width="0.7017334" fill="none" /><path id="1115" transform="matrix(1 0 0 -1 0 612)" d="M286.875 98.96558L352.3994 98.96558" stroke="#000000" stroke-width="0.7017334" fill="none" /></g></g></g></svg>