<svg xmlns="http://www.w3.org/2000/svg" xmlns:xlink="http://www.w3.org/1999/xlink" id="body_9" preserveAspectRatio="xMinYMin meet" viewBox="0 0 1056 816"><defs><clipPath id="1"><path id="" clip-rule="evenodd" transform="matrix(1 0 0 1 0 0)" d="M0 612L0 0L0 0L792 0L792 0L792 612L792 612L0 612z" /></clipPath><clipPath id="2"><path id="" clip-rule="evenodd" transform="matrix(1 0 0 1 0 0)" d="M172.875 52.5L619.125 52.5L619.125 52.5L619.125 69.75L619.125 69.75L172.875 69.75L172.875 69.75L172.875 52.5z" /></clipPath><clipPath id="3"><path id="" clip-rule="evenodd" transform="matrix(1 0 0 1 0 0)" d="M172.875 69L619.125 69L619.125 69L619.125 536.25L619.125 536.25L172.875 536.25L172.875 536.25L172.875 69z" /></clipPath></defs><g transform="matrix(1.333333 0 0 1.333333 0 0)"><g clip-path="url(#1)"><g clip-path="url(#2)"><path id="9" transform="matrix(1 0 0 -1 0 612)" d="M173.625 558.75L618.375 558.75L618.375 541.5L173.625 541.5L173.625 558.75z" stroke="none" fill="#4DD0E1" fill-rule="nonzero" /><path id="10" transform="matrix(1 0 0 -1 0 612)" d="M173.625 542.25L618.375 542.25L618.375 541.5L173.625 541.5zM173.625 558.75L618.375 558.75L618.375 558L173.625 558zM618.375 558L618.375 542.25L617.625 542.25L617.625 558zM541.125 558L541.125 542.25L540.375 542.25L540.375 558zM512.625 558L512.625 542.25L511.875 542.25L511.875 558zM284.625 558L284.625 542.25L283.875 542.25L283.875 558zM208.125 558L208.125 542.25L207.375 542.25L207.375 558zM174.375 558L174.375 542.25L173.625 542.25L173.625 558z" stroke="none" fill="#000000" fill-rule="nonzero" fill-opacity="0.1490196" /></g><g clip-path="url(#3)"><path id="38" transform="matrix(1 0 0 -1 0 612)" d="M173.625 542.25L618.375 542.25L618.375 498.75L173.625 498.75L173.625 542.25z" stroke="none" fill="#FFFFFF" fill-rule="nonzero" /><path id="39" transform="matrix(1 0 0 -1 0 612)" d="M173.625 499.5L618.375 499.5L618.375 468.75L173.625 468.75L173.625 499.5z" stroke="none" fill="#E0F7FA" fill-rule="nonzero" /><path id="40" transform="matrix(1 0 0 -1 0 612)" d="M173.625 469.5L618.375 469.5L618.375 411L173.625 411L173.625 469.5z" stroke="none" fill="#FFFFFF" fill-rule="nonzero" /><path id="41" transform="matrix(1 0 0 -1 0 612)" d="M173.625 411.75L618.375 411.75L618.375 354.75L173.625 354.75L173.625 411.75z" stroke="none" fill="#E0F7FA" fill-rule="nonzero" /><path id="42" transform="matrix(1 0 0 -1 0 612)" d="M173.625 355.5L618.375 355.5L618.375 324.75L173.625 324.75L173.625 355.5z" stroke="none" fill="#FFFFFF" fill-rule="nonzero" /><path id="43" transform="matrix(1 0 0 -1 0 612)" d="M173.625 325.5L618.375 325.5L618.375 294.75L173.625 294.75L173.625 325.5z" stroke="none" fill="#E0F7FA" fill-rule="nonzero" /><path id="44" transform="matrix(1 0 0 -1 0 612)" d="M173.625 295.5L618.375 295.5L618.375 238.5L173.625 238.5L173.625 295.5z" stroke="none" fill="#FFFFFF" fill-rule="nonzero" /><path id="45" transform="matrix(1 0 0 -1 0 612)" d="M173.625 239.25L618.375 239.25L618.375 195.75L173.625 195.75L173.625 239.25z" stroke="none" fill="#E0F7FA" fill-rule="nonzero" /><path id="46" transform="matrix(1 0 0 -1 0 612)" d="M173.625 196.5L618.375 196.5L618.375 179.25L173.625 179.25L173.625 196.5z" stroke="none" fill="#FFFFFF" fill-rule="nonzero" /><path id="47" transform="matrix(1 0 0 -1 0 612)" d="M173.625 180L618.375 180L618.375 162.75L173.625 162.75L173.625 180z" stroke="none" fill="#E0F7FA" fill-rule="nonzero" /><path id="48" transform="matrix(1 0 0 -1 0 612)" d="M173.625 163.5L618.375 163.5L618.375 106.5L173.625 106.5L173.625 163.5z" stroke="none" fill="#FFFFFF" fill-rule="nonzero" /><path id="49" transform="matrix(1 0 0 -1 0 612)" d="M173.625 107.25L618.375 107.25L618.375 76.5L173.625 76.5L173.625 107.25z" stroke="none" fill="#E0F7FA" fill-rule="nonzero" /><path id="50" transform="matrix(1 0 0 -1 0 612)" d="M173.625 77.25L618.375 77.25L618.375 76.5L173.625 76.5zM173.625 107.25L618.375 107.25L618.375 106.5L173.625 106.5zM173.625 163.5L618.375 163.5L618.375 162.75L173.625 162.75zM173.625 180L618.375 180L618.375 179.25L173.625 179.25zM173.625 196.5L618.375 196.5L618.375 195.75L173.625 195.75zM173.625 239.25L618.375 239.25L618.375 238.5L173.625 238.5zM173.625 295.5L618.375 295.5L618.375 294.75L173.625 294.75zM173.625 325.5L618.375 325.5L618.375 324.75L173.625 324.75zM173.625 355.5L618.375 355.5L618.375 354.75L173.625 354.75zM173.625 411.75L618.375 411.75L618.375 411L173.625 411zM173.625 469.5L618.375 469.5L618.375 468.75L173.625 468.75zM173.625 499.5L618.375 499.5L618.375 498.75L173.625 498.75zM173.625 542.25L618.375 542.25L618.375 541.5L173.625 541.5zM618.375 106.5L618.375 77.25L617.625 77.25L617.625 106.5zM618.375 162.75L618.375 107.25L617.625 107.25L617.625 162.75zM618.375 179.25L618.375 163.5L617.625 163.5L617.625 179.25zM618.375 195.75L618.375 180L617.625 180L617.625 195.75zM618.375 238.5L618.375 196.5L617.625 196.5L617.625 238.5zM618.375 294.75L618.375 239.25L617.625 239.25L617.625 294.75zM618.375 324.75L618.375 295.5L617.625 295.5L617.625 324.75zM618.375 354.75L618.375 325.5L617.625 325.5L617.625 354.75zM618.375 411L618.375 355.5L617.625 355.5L617.625 411zM618.375 468.75L618.375 411.75L617.625 411.75L617.625 468.75zM618.375 498.75L618.375 469.5L617.625 469.5L617.625 498.75zM618.375 541.5L618.375 499.5L617.625 499.5L617.625 541.5zM541.125 106.5L541.125 77.25L540.375 77.25L540.375 106.5zM541.125 162.75L541.125 107.25L540.375 107.25L540.375 162.75zM541.125 179.25L541.125 163.5L540.375 163.5L540.375 179.25zM541.125 195.75L541.125 180L540.375 180L540.375 195.75zM541.125 238.5L541.125 196.5L540.375 196.5L540.375 238.5zM541.125 294.75L541.125 239.25L540.375 239.25L540.375 294.75zM541.125 324.75L541.125 295.5L540.375 295.5L540.375 324.75zM541.125 354.75L541.125 325.5L540.375 325.5L540.375 354.75zM541.125 411L541.125 355.5L540.375 355.5L540.375 411zM541.125 468.75L541.125 411.75L540.375 411.75L540.375 468.75zM541.125 498.75L541.125 469.5L540.375 469.5L540.375 498.75zM541.125 541.5L541.125 499.5L540.375 499.5L540.375 541.5zM512.625 106.5L512.625 77.25L511.875 77.25L511.875 106.5zM512.625 162.75L512.625 107.25L511.875 107.25L511.875 162.75zM512.625 179.25L512.625 163.5L511.875 163.5L511.875 179.25zM512.625 195.75L512.625 180L511.875 180L511.875 195.75zM512.625 238.5L512.625 196.5L511.875 196.5L511.875 238.5zM512.625 294.75L512.625 239.25L511.875 239.25L511.875 294.75zM512.625 324.75L512.625 295.5L511.875 295.5L511.875 324.75zM512.625 354.75L512.625 325.5L511.875 325.5L511.875 354.75zM512.625 411L512.625 355.5L511.875 355.5L511.875 411zM512.625 468.75L512.625 411.75L511.875 411.75L511.875 468.75zM512.625 498.75L512.625 469.5L511.875 469.5L511.875 498.75zM512.625 541.5L512.625 499.5L511.875 499.5L511.875 541.5zM284.625 106.5L284.625 77.25L283.875 77.25L283.875 106.5zM284.625 162.75L284.625 107.25L283.875 107.25L283.875 162.75zM284.625 179.25L284.625 163.5L283.875 163.5L283.875 179.25zM284.625 195.75L284.625 180L283.875 180L283.875 195.75zM284.625 238.5L284.625 196.5L283.875 196.5L283.875 238.5zM284.625 294.75L284.625 239.25L283.875 239.25L283.875 294.75zM284.625 324.75L284.625 295.5L283.875 295.5L283.875 324.75zM284.625 354.75L284.625 325.5L283.875 325.5L283.875 354.75zM284.625 411L284.625 355.5L283.875 355.5L283.875 411zM284.625 468.75L284.625 411.75L283.875 411.75L283.875 468.75zM284.625 498.75L284.625 469.5L283.875 469.5L283.875 498.75zM284.625 541.5L284.625 499.5L283.875 499.5L283.875 541.5zM208.125 106.5L208.125 77.25L207.375 77.25L207.375 106.5zM208.125 162.75L208.125 107.25L207.375 107.25L207.375 162.75zM208.125 179.25L208.125 163.5L207.375 163.5L207.375 179.25zM208.125 195.75L208.125 180L207.375 180L207.375 195.75zM208.125 238.5L208.125 196.5L207.375 196.5L207.375 238.5zM208.125 294.75L208.125 239.25L207.375 239.25L207.375 294.75zM208.125 324.75L208.125 295.5L207.375 295.5L207.375 324.75zM208.125 354.75L208.125 325.5L207.375 325.5L207.375 354.75zM208.125 411L208.125 355.5L207.375 355.5L207.375 411zM208.125 468.75L208.125 411.75L207.375 411.75L207.375 468.75zM208.125 498.75L208.125 469.5L207.375 469.5L207.375 498.75zM208.125 541.5L208.125 499.5L207.375 499.5L207.375 541.5zM174.375 106.5L174.375 77.25L173.625 77.25L173.625 106.5zM174.375 162.75L174.375 107.25L173.625 107.25L173.625 162.75zM174.375 179.25L174.375 163.5L173.625 163.5L173.625 179.25zM174.375 195.75L174.375 180L173.625 180L173.625 195.75zM174.375 238.5L174.375 196.5L173.625 196.5L173.625 238.5zM174.375 294.75L174.375 239.25L173.625 239.25L173.625 294.75zM174.375 324.75L174.375 295.5L173.625 295.5L173.625 324.75zM174.375 354.75L174.375 325.5L173.625 325.5L173.625 354.75zM174.375 411L174.375 355.5L173.625 355.5L173.625 411zM174.375 468.75L174.375 411.75L173.625 411.75L173.625 468.75zM174.375 498.75L174.375 469.5L173.625 469.5L173.625 498.75zM174.375 541.5L174.375 499.5L173.625 499.5L173.625 541.5z" stroke="none" fill="#000000" fill-rule="nonzero" fill-opacity="0.1490196" /><path id="102" transform="matrix(1 0 0 -1 0 612)" d="M286.875 515.5547L506.8833 515.5547" stroke="#000000" stroke-width="0.7017334" fill="none" /><path id="122" transform="matrix(1 0 0 -1 0 612)" d="M286.875 502.4656L389.2637 502.4656" stroke="#000000" stroke-width="0.7017334" fill="none" /><path id="209" transform="matrix(1 0 0 -1 0 612)" d="M286.875 485.5547L486.6785 485.5547" stroke="#000000" stroke-width="0.7017334" fill="none" /><path id="255" transform="matrix(1 0 0 -1 0 612)" d="M286.875 472.4656L504.9091 472.4656" stroke="#000000" stroke-width="0.7017334" fill="none" /><path id="286" transform="matrix(1 0 0 -1 0 612)" d="M286.875 454.062L297.5977 454.062" stroke="#000000" stroke-width="0.7855225" fill="none" /><path id="323" transform="matrix(1 0 0 -1 0 612)" d="M297.5977 453.9834L493.4798 453.9834" stroke="#000000" stroke-width="0.7017334" fill="none" /><path id="361" transform="matrix(1 0 0 -1 0 612)" d="M286.875 440.8938L480.621 440.8938" stroke="#000000" stroke-width="0.7017334" fill="none" /><path id="405" transform="matrix(1 0 0 -1 0 612)" d="M286.875 427.8047L510.0507 427.8047" stroke="#000000" stroke-width="0.7017334" fill="none" /><path id="428" transform="matrix(1 0 0 -1 0 612)" d="M286.875 414.7156L393.7506 414.7156" stroke="#000000" stroke-width="0.7017334" fill="none" /><path id="507" transform="matrix(1 0 0 -1 0 612)" d="M286.875 371.5547L474.1131 371.5547" stroke="#000000" stroke-width="0.7017334" fill="none" /><path id="533" transform="matrix(1 0 0 -1 0 612)" d="M286.875 358.4656L409.3164 358.4656" stroke="#000000" stroke-width="0.7017334" fill="none" /><path id="630" transform="matrix(1 0 0 -1 0 612)" d="M286.875 328.4656L443.3377 328.4656" stroke="#000000" stroke-width="0.7017334" fill="none" /><path id="682" transform="matrix(1 0 0 -1 0 612)" d="M286.875 311.5547L453.8979 311.5547" stroke="#000000" stroke-width="0.7017334" fill="none" /><path id="718" transform="matrix(1 0 0 -1 0 612)" d="M286.875 298.4656L454.3483 298.4656" stroke="#000000" stroke-width="0.7017334" fill="none" /><path id="772" transform="matrix(1 0 0 -1 0 612)" d="M286.875 281.4834L476.8095 281.4834" stroke="#000000" stroke-width="0.7017334" fill="none" /><path id="811" transform="matrix(1 0 0 -1 0 612)" d="M286.875 268.3938L471.8304 268.3938" stroke="#000000" stroke-width="0.7017334" fill="none" /><path id="853" transform="matrix(1 0 0 -1 0 612)" d="M286.875 255.3047L485.8774 255.3047" stroke="#000000" stroke-width="0.7017334" fill="none" /><path id="864" transform="matrix(1 0 0 -1 0 612)" d="M286.875 242.2156L334.5458 242.2156" stroke="#000000" stroke-width="0.7017334" fill="none" /><path id="949" transform="matrix(1 0 0 -1 0 612)" d="M286.875 225.6438L488.7256 225.6438" stroke="#000000" stroke-width="0.7017334" fill="none" /><path id="994" transform="matrix(1 0 0 -1 0 612)" d="M286.875 212.5547L501.5844 212.5547" stroke="#000000" stroke-width="0.7017334" fill="none" /><path id="1004" transform="matrix(1 0 0 -1 0 612)" d="M286.875 199.4656L327.022 199.4656" stroke="#000000" stroke-width="0.7017334" fill="none" /><path id="1061" transform="matrix(1 0 0 -1 0 612)" d="M286.875 182.9656L432.5523 182.9656" stroke="#000000" stroke-width="0.7017334" fill="none" /><path id="1111" transform="matrix(1 0 0 -1 0 612)" d="M286.875 166.4656L468.4953 166.4656" stroke="#000000" stroke-width="0.7017334" fill="none" /><path id="1170" transform="matrix(1 0 0 -1 0 612)" d="M286.875 123.3047L499.1553 123.3047" stroke="#000000" stroke-width="0.7017334" fill="none" /><path id="1183" transform="matrix(1 0 0 -1 0 612)" d="M286.875 110.2158L340.6348 110.2158" stroke="#000000" stroke-width="0.7017334" fill="none" /><path id="1288" transform="matrix(1 0 0 -1 0 612)" d="M286.875 93.30469L458.4792 93.30469" stroke="#000000" stroke-width="0.7017334" fill="none" /><path id="1303" transform="matrix(1 0 0 -1 0 612)" d="M286.875 80.21582L354.499 80.21582" stroke="#000000" stroke-width="0.7017334" fill="none" /></g></g></g></svg>