<svg xmlns="http://www.w3.org/2000/svg" xmlns:xlink="http://www.w3.org/1999/xlink" id="body_10" preserveAspectRatio="xMinYMin meet" viewBox="0 0 1056 816"><defs><clipPath id="1"><path id="" clip-rule="evenodd" transform="matrix(1 0 0 1 0 0)" d="M0 612L0 0L0 0L792 0L792 0L792 612L792 612L0 612z" /></clipPath><clipPath id="2"><path id="" clip-rule="evenodd" transform="matrix(1 0 0 1 0 0)" d="M172.875 52.5L619.125 52.5L619.125 52.5L619.125 69.75L619.125 69.75L172.875 69.75L172.875 69.75L172.875 52.5z" /></clipPath><clipPath id="3"><path id="" clip-rule="evenodd" transform="matrix(1 0 0 1 0 0)" d="M172.875 69L619.125 69L619.125 69L619.125 523.5L619.125 523.5L172.875 523.5L172.875 523.5L172.875 69z" /></clipPath></defs><g transform="matrix(1.333333 0 0 1.333333 0 0)"><g clip-path="url(#1)"><g clip-path="url(#2)"><path id="10" transform="matrix(1 0 0 -1 0 612)" d="M173.625 558.75L618.375 558.75L618.375 541.5L173.625 541.5L173.625 558.75z" stroke="none" fill="#4DD0E1" fill-rule="nonzero" /><path id="11" transform="matrix(1 0 0 -1 0 612)" d="M173.625 542.25L618.375 542.25L618.375 541.5L173.625 541.5zM173.625 558.75L618.375 558.75L618.375 558L173.625 558zM618.375 558L618.375 542.25L617.625 542.25L617.625 558zM541.125 558L541.125 542.25L540.375 542.25L540.375 558zM512.625 558L512.625 542.25L511.875 542.25L511.875 558zM284.625 558L284.625 542.25L283.875 542.25L283.875 558zM208.125 558L208.125 542.25L207.375 542.25L207.375 558zM174.375 558L174.375 542.25L173.625 542.25L173.625 558z" stroke="none" fill="#000000" fill-rule="nonzero" fill-opacity="0.1490196" /></g><g clip-path="url(#3)"><path id="39" transform="matrix(1 0 0 -1 0 612)" d="M173.625 542.25L618.375 542.25L618.375 511.5L173.625 511.5L173.625 542.25z" stroke="none" fill="#FFFFFF" fill-rule="nonzero" /><path id="40" transform="matrix(1 0 0 -1 0 612)" d="M173.625 512.25L618.375 512.25L618.375 468.75L173.625 468.75L173.625 512.25z" stroke="none" fill="#E0F7FA" fill-rule="nonzero" /><path id="41" transform="matrix(1 0 0 -1 0 612)" d="M173.625 469.5L618.375 469.5L618.375 438.75L173.625 438.75L173.625 469.5z" stroke="none" fill="#FFFFFF" fill-rule="nonzero" /><path id="42" transform="matrix(1 0 0 -1 0 612)" d="M173.625 439.5L618.375 439.5L618.375 408.75L173.625 408.75L173.625 439.5z" stroke="none" fill="#E0F7FA" fill-rule="nonzero" /><path id="43" transform="matrix(1 0 0 -1 0 612)" d="M173.625 409.5L618.375 409.5L618.375 338.25L173.625 338.25L173.625 409.5z" stroke="none" fill="#FFFFFF" fill-rule="nonzero" /><path id="44" transform="matrix(1 0 0 -1 0 612)" d="M173.625 339L618.375 339L618.375 308.25L173.625 308.25L173.625 339z" stroke="none" fill="#E0F7FA" fill-rule="nonzero" /><path id="45" transform="matrix(1 0 0 -1 0 612)" d="M173.625 309L618.375 309L618.375 263.25L173.625 263.25L173.625 309z" stroke="none" fill="#FFFFFF" fill-rule="nonzero" /><path id="46" transform="matrix(1 0 0 -1 0 612)" d="M173.625 264L618.375 264L618.375 220.5L173.625 220.5L173.625 264z" stroke="none" fill="#E0F7FA" fill-rule="nonzero" /><path id="47" transform="matrix(1 0 0 -1 0 612)" d="M173.625 221.25L618.375 221.25L618.375 190.5L173.625 190.5L173.625 221.25z" stroke="none" fill="#FFFFFF" fill-rule="nonzero" /><path id="48" transform="matrix(1 0 0 -1 0 612)" d="M173.625 191.25L618.375 191.25L618.375 145.5L173.625 145.5L173.625 191.25z" stroke="none" fill="#E0F7FA" fill-rule="nonzero" /><path id="49" transform="matrix(1 0 0 -1 0 612)" d="M173.625 146.25L618.375 146.25L618.375 89.25L173.625 89.25L173.625 146.25z" stroke="none" fill="#FFFFFF" fill-rule="nonzero" /><path id="50" transform="matrix(1 0 0 -1 0 612)" d="M173.625 90L618.375 90L618.375 89.25L173.625 89.25zM173.625 146.25L618.375 146.25L618.375 145.5L173.625 145.5zM173.625 191.25L618.375 191.25L618.375 190.5L173.625 190.5zM173.625 221.25L618.375 221.25L618.375 220.5L173.625 220.5zM173.625 264L618.375 264L618.375 263.25L173.625 263.25zM173.625 309L618.375 309L618.375 308.25L173.625 308.25zM173.625 339L618.375 339L618.375 338.25L173.625 338.25zM173.625 409.5L618.375 409.5L618.375 408.75L173.625 408.75zM173.625 439.5L618.375 439.5L618.375 438.75L173.625 438.75zM173.625 469.5L618.375 469.5L618.375 468.75L173.625 468.75zM173.625 512.25L618.375 512.25L618.375 511.5L173.625 511.5zM173.625 542.25L618.375 542.25L618.375 541.5L173.625 541.5zM618.375 145.5L618.375 90L617.625 90L617.625 145.5zM618.375 190.5L618.375 146.25L617.625 146.25L617.625 190.5zM618.375 220.5L618.375 191.25L617.625 191.25L617.625 220.5zM618.375 263.25L618.375 221.25L617.625 221.25L617.625 263.25zM618.375 308.25L618.375 264L617.625 264L617.625 308.25zM618.375 338.25L618.375 309L617.625 309L617.625 338.25zM618.375 408.75L618.375 339L617.625 339L617.625 408.75zM618.375 438.75L618.375 409.5L617.625 409.5L617.625 438.75zM618.375 468.75L618.375 439.5L617.625 439.5L617.625 468.75zM618.375 511.5L618.375 469.5L617.625 469.5L617.625 511.5zM618.375 541.5L618.375 512.25L617.625 512.25L617.625 541.5zM541.125 145.5L541.125 90L540.375 90L540.375 145.5zM541.125 190.5L541.125 146.25L540.375 146.25L540.375 190.5zM541.125 220.5L541.125 191.25L540.375 191.25L540.375 220.5zM541.125 263.25L541.125 221.25L540.375 221.25L540.375 263.25zM541.125 308.25L541.125 264L540.375 264L540.375 308.25zM541.125 338.25L541.125 309L540.375 309L540.375 338.25zM541.125 408.75L541.125 339L540.375 339L540.375 408.75zM541.125 438.75L541.125 409.5L540.375 409.5L540.375 438.75zM541.125 468.75L541.125 439.5L540.375 439.5L540.375 468.75zM541.125 511.5L541.125 469.5L540.375 469.5L540.375 511.5zM541.125 541.5L541.125 512.25L540.375 512.25L540.375 541.5zM512.625 145.5L512.625 90L511.875 90L511.875 145.5zM512.625 190.5L512.625 146.25L511.875 146.25L511.875 190.5zM512.625 220.5L512.625 191.25L511.875 191.25L511.875 220.5zM512.625 263.25L512.625 221.25L511.875 221.25L511.875 263.25zM512.625 308.25L512.625 264L511.875 264L511.875 308.25zM512.625 338.25L512.625 309L511.875 309L511.875 338.25zM512.625 408.75L512.625 339L511.875 339L511.875 408.75zM512.625 438.75L512.625 409.5L511.875 409.5L511.875 438.75zM512.625 468.75L512.625 439.5L511.875 439.5L511.875 468.75zM512.625 511.5L512.625 469.5L511.875 469.5L511.875 511.5zM512.625 541.5L512.625 512.25L511.875 512.25L511.875 541.5zM284.625 145.5L284.625 90L283.875 90L283.875 145.5zM284.625 190.5L284.625 146.25L283.875 146.25L283.875 190.5zM284.625 220.5L284.625 191.25L283.875 191.25L283.875 220.5zM284.625 263.25L284.625 221.25L283.875 221.25L283.875 263.25zM284.625 308.25L284.625 264L283.875 264L283.875 308.25zM284.625 338.25L284.625 309L283.875 309L283.875 338.25zM284.625 408.75L284.625 339L283.875 339L283.875 408.75zM284.625 438.75L284.625 409.5L283.875 409.5L283.875 438.75zM284.625 468.75L284.625 439.5L283.875 439.5L283.875 468.75zM284.625 511.5L284.625 469.5L283.875 469.5L283.875 511.5zM284.625 541.5L284.625 512.25L283.875 512.25L283.875 541.5zM208.125 145.5L208.125 90L207.375 90L207.375 145.5zM208.125 190.5L208.125 146.25L207.375 146.25L207.375 190.5zM208.125 220.5L208.125 191.25L207.375 191.25L207.375 220.5zM208.125 263.25L208.125 221.25L207.375 221.25L207.375 263.25zM208.125 308.25L208.125 264L207.375 264L207.375 308.25zM208.125 338.25L208.125 309L207.375 309L207.375 338.25zM208.125 408.75L208.125 339L207.375 339L207.375 408.75zM208.125 438.75L208.125 409.5L207.375 409.5L207.375 438.75zM208.125 468.75L208.125 439.5L207.375 439.5L207.375 468.75zM208.125 511.5L208.125 469.5L207.375 469.5L207.375 511.5zM208.125 541.5L208.125 512.25L207.375 512.25L207.375 541.5zM174.375 145.5L174.375 90L173.625 90L173.625 145.5zM174.375 190.5L174.375 146.25L173.625 146.25L173.625 190.5zM174.375 220.5L174.375 191.25L173.625 191.25L173.625 220.5zM174.375 263.25L174.375 221.25L173.625 221.25L173.625 263.25zM174.375 308.25L174.375 264L173.625 264L173.625 308.25zM174.375 338.25L174.375 309L173.625 309L173.625 338.25zM174.375 408.75L174.375 339L173.625 339L173.625 408.75zM174.375 438.75L174.375 409.5L173.625 409.5L173.625 438.75zM174.375 468.75L174.375 439.5L173.625 439.5L173.625 468.75zM174.375 511.5L174.375 469.5L173.625 469.5L173.625 511.5zM174.375 541.5L174.375 512.25L173.625 512.25L173.625 541.5z" stroke="none" fill="#000000" fill-rule="nonzero" fill-opacity="0.1490196" /><path id="108" transform="matrix(1 0 0 -1 0 612)" d="M286.875 528.3047L493.6525 528.3047" stroke="#000000" stroke-width="0.7017334" fill="none" /><path id="138" transform="matrix(1 0 0 -1 0 612)" d="M286.875 515.2158L431.1858 515.2158" stroke="#000000" stroke-width="0.7017334" fill="none" /><path id="225" transform="matrix(1 0 0 -1 0 612)" d="M286.875 485.5547L509.0296 485.5547" stroke="#000000" stroke-width="0.7017334" fill="none" /><path id="236" transform="matrix(1 0 0 -1 0 612)" d="M286.875 472.4658L334.2316 472.4658" stroke="#000000" stroke-width="0.7017334" fill="none" /><path id="326" transform="matrix(1 0 0 -1 0 612)" d="M286.875 442.4658L497.349 442.4658" stroke="#000000" stroke-width="0.7017334" fill="none" /><path id="404" transform="matrix(1 0 0 -1 0 612)" d="M286.875 412.4658L457.3746 412.4658" stroke="#000000" stroke-width="0.7017334" fill="none" /><path id="471" transform="matrix(1 0 0 -1 0 612)" d="M286.875 355.0547L484.4587 355.0547" stroke="#000000" stroke-width="0.7017334" fill="none" /><path id="489" transform="matrix(1 0 0 -1 0 612)" d="M286.875 341.9658L379.3212 341.9658" stroke="#000000" stroke-width="0.7017334" fill="none" /><path id="593" transform="matrix(1 0 0 -1 0 612)" d="M286.875 325.0547L483.108 325.0547" stroke="#000000" stroke-width="0.7017334" fill="none" /><path id="600" transform="matrix(1 0 0 -1 0 612)" d="M286.875 311.9658L318.0115 311.9658" stroke="#000000" stroke-width="0.7017334" fill="none" /><path id="673" transform="matrix(1 0 0 -1 0 612)" d="M286.875 280.0547L490.4221 280.0547" stroke="#000000" stroke-width="0.7017334" fill="none" /><path id="681" transform="matrix(1 0 0 -1 0 612)" d="M286.875 266.9658L321.9068 266.9658" stroke="#000000" stroke-width="0.7017334" fill="none" /><path id="775" transform="matrix(1 0 0 -1 0 612)" d="M286.875 250.3936L474.1497 250.3936" stroke="#000000" stroke-width="0.7017334" fill="none" /><path id="813" transform="matrix(1 0 0 -1 0 612)" d="M286.875 237.3047L481.134 237.3047" stroke="#000000" stroke-width="0.7017334" fill="none" /><path id="827" transform="matrix(1 0 0 -1 0 612)" d="M286.875 224.2158L358.5356 224.2158" stroke="#000000" stroke-width="0.7017334" fill="none" /><path id="906" transform="matrix(1 0 0 -1 0 612)" d="M286.875 207.3047L493.9091 207.3047" stroke="#000000" stroke-width="0.7017334" fill="none" /><path id="945" transform="matrix(1 0 0 -1 0 612)" d="M286.875 194.2158L468.1076 194.2158" stroke="#000000" stroke-width="0.7017334" fill="none" /><path id="1042" transform="matrix(1 0 0 -1 0 612)" d="M286.875 175.3936L496.5845 175.3936" stroke="#000000" stroke-width="0.7017334" fill="none" /><path id="1082" transform="matrix(1 0 0 -1 0 612)" d="M286.875 162.3047L477.1759 162.3047" stroke="#000000" stroke-width="0.7017334" fill="none" /><path id="1113" transform="matrix(1 0 0 -1 0 612)" d="M286.875 149.2158L435.4685 149.2158" stroke="#000000" stroke-width="0.7017334" fill="none" /><path id="1181" transform="matrix(1 0 0 -1 0 612)" d="M286.875 132.2334L503.1554 132.2334" stroke="#000000" stroke-width="0.7017334" fill="none" /><path id="1221" transform="matrix(1 0 0 -1 0 612)" d="M286.875 119.1436L480.2598 119.1436" stroke="#000000" stroke-width="0.7017334" fill="none" /><path id="1262" transform="matrix(1 0 0 -1 0 612)" d="M286.875 106.0547L506.8098 106.0547" stroke="#000000" stroke-width="0.7017334" fill="none" /><path id="1273" transform="matrix(1 0 0 -1 0 612)" d="M286.875 92.96582L338.216 92.96582" stroke="#000000" stroke-width="0.7017334" fill="none" /></g></g></g></svg>