<svg xmlns="http://www.w3.org/2000/svg" xmlns:xlink="http://www.w3.org/1999/xlink" id="body_4" preserveAspectRatio="xMinYMin meet" viewBox="0 0 1056 816"><defs><clipPath id="1"><path id="" clip-rule="evenodd" transform="matrix(1 0 0 1 0 0)" d="M0 612L0 0L0 0L792 0L792 0L792 612L792 612L0 612z" /></clipPath><clipPath id="2"><path id="" clip-rule="evenodd" transform="matrix(1 0 0 1 0 0)" d="M172.875 52.5L619.125 52.5L619.125 52.5L619.125 69.75L619.125 69.75L172.875 69.75L172.875 69.75L172.875 52.5z" /></clipPath><clipPath id="3"><path id="" clip-rule="evenodd" transform="matrix(1 0 0 1 0 0)" d="M172.875 69L619.125 69L619.125 69L619.125 547.5L619.125 547.5L172.875 547.5L172.875 547.5L172.875 69z" /></clipPath></defs><g transform="matrix(1.333333 0 0 1.333333 0 0)"><g clip-path="url(#1)"><g clip-path="url(#2)"><path id="9" transform="matrix(1 0 0 -1 0 612)" d="M173.625 558.75L618.375 558.75L618.375 541.5L173.625 541.5L173.625 558.75z" stroke="none" fill="#4DD0E1" fill-rule="nonzero" /><path id="10" transform="matrix(1 0 0 -1 0 612)" d="M173.625 542.25L618.375 542.25L618.375 541.5L173.625 541.5zM173.625 558.75L618.375 558.75L618.375 558L173.625 558zM618.375 558L618.375 542.25L617.625 542.25L617.625 558zM541.125 558L541.125 542.25L540.375 542.25L540.375 558zM512.625 558L512.625 542.25L511.875 542.25L511.875 558zM284.625 558L284.625 542.25L283.875 542.25L283.875 558zM208.125 558L208.125 542.25L207.375 542.25L207.375 558zM174.375 558L174.375 542.25L173.625 542.25L173.625 558z" stroke="none" fill="#000000" fill-rule="nonzero" fill-opacity="0.1490196" /></g><g clip-path="url(#3)"><path id="38" transform="matrix(1 0 0 -1 0 612)" d="M173.625 542.25L618.375 542.25L618.375 498.75L173.625 498.75L173.625 542.25z" stroke="none" fill="#E0F7FA" fill-rule="nonzero" /><path id="39" transform="matrix(1 0 0 -1 0 612)" d="M173.625 499.5L618.375 499.5L618.375 456L173.625 456L173.625 499.5z" stroke="none" fill="#FFFFFF" fill-rule="nonzero" /><path id="40" transform="matrix(1 0 0 -1 0 612)" d="M173.625 456.75L618.375 456.75L618.375 399.75L173.625 399.75L173.625 456.75z" stroke="none" fill="#E0F7FA" fill-rule="nonzero" /><path id="41" transform="matrix(1 0 0 -1 0 612)" d="M173.625 400.5L618.375 400.5L618.375 369.75L173.625 369.75L173.625 400.5z" stroke="none" fill="#FFFFFF" fill-rule="nonzero" /><path id="42" transform="matrix(1 0 0 -1 0 612)" d="M173.625 370.5L618.375 370.5L618.375 312L173.625 312L173.625 370.5z" stroke="none" fill="#E0F7FA" fill-rule="nonzero" /><path id="43" transform="matrix(1 0 0 -1 0 612)" d="M173.625 312.75L618.375 312.75L618.375 269.25L173.625 269.25L173.625 312.75z" stroke="none" fill="#FFFFFF" fill-rule="nonzero" /><path id="44" transform="matrix(1 0 0 -1 0 612)" d="M173.625 270L618.375 270L618.375 239.25L173.625 239.25L173.625 270z" stroke="none" fill="#E0F7FA" fill-rule="nonzero" /><path id="45" transform="matrix(1 0 0 -1 0 612)" d="M173.625 240L618.375 240L618.375 194.25L173.625 194.25L173.625 240z" stroke="none" fill="#FFFFFF" fill-rule="nonzero" /><path id="46" transform="matrix(1 0 0 -1 0 612)" d="M173.625 195L618.375 195L618.375 151.5L173.625 151.5L173.625 195z" stroke="none" fill="#E0F7FA" fill-rule="nonzero" /><path id="47" transform="matrix(1 0 0 -1 0 612)" d="M173.625 152.25L618.375 152.25L618.375 121.5L173.625 121.5L173.625 152.25z" stroke="none" fill="#FFFFFF" fill-rule="nonzero" /><path id="48" transform="matrix(1 0 0 -1 0 612)" d="M173.625 122.25L618.375 122.25L618.375 65.25L173.625 65.25L173.625 122.25z" stroke="none" fill="#E0F7FA" fill-rule="nonzero" /><path id="49" transform="matrix(1 0 0 -1 0 612)" d="M173.625 66L618.375 66L618.375 65.25L173.625 65.25zM173.625 122.25L618.375 122.25L618.375 121.5L173.625 121.5zM173.625 152.25L618.375 152.25L618.375 151.5L173.625 151.5zM173.625 195L618.375 195L618.375 194.25L173.625 194.25zM173.625 240L618.375 240L618.375 239.25L173.625 239.25zM173.625 270L618.375 270L618.375 269.25L173.625 269.25zM173.625 312.75L618.375 312.75L618.375 312L173.625 312zM173.625 370.5L618.375 370.5L618.375 369.75L173.625 369.75zM173.625 400.5L618.375 400.5L618.375 399.75L173.625 399.75zM173.625 456.75L618.375 456.75L618.375 456L173.625 456zM173.625 499.5L618.375 499.5L618.375 498.75L173.625 498.75zM173.625 542.25L618.375 542.25L618.375 541.5L173.625 541.5zM618.375 121.5L618.375 66L617.625 66L617.625 121.5zM618.375 151.5L618.375 122.25L617.625 122.25L617.625 151.5zM618.375 194.25L618.375 152.25L617.625 152.25L617.625 194.25zM618.375 239.25L618.375 195L617.625 195L617.625 239.25zM618.375 269.25L618.375 240L617.625 240L617.625 269.25zM618.375 312L618.375 270L617.625 270L617.625 312zM618.375 369.75L618.375 312.75L617.625 312.75L617.625 369.75zM618.375 399.75L618.375 370.5L617.625 370.5L617.625 399.75zM618.375 456L618.375 400.5L617.625 400.5L617.625 456zM618.375 498.75L618.375 456.75L617.625 456.75L617.625 498.75zM618.375 541.5L618.375 499.5L617.625 499.5L617.625 541.5zM541.125 121.5L541.125 66L540.375 66L540.375 121.5zM541.125 151.5L541.125 122.25L540.375 122.25L540.375 151.5zM541.125 194.25L541.125 152.25L540.375 152.25L540.375 194.25zM541.125 239.25L541.125 195L540.375 195L540.375 239.25zM541.125 269.25L541.125 240L540.375 240L540.375 269.25zM541.125 312L541.125 270L540.375 270L540.375 312zM541.125 369.75L541.125 312.75L540.375 312.75L540.375 369.75zM541.125 399.75L541.125 370.5L540.375 370.5L540.375 399.75zM541.125 456L541.125 400.5L540.375 400.5L540.375 456zM541.125 498.75L541.125 456.75L540.375 456.75L540.375 498.75zM541.125 541.5L541.125 499.5L540.375 499.5L540.375 541.5zM512.625 121.5L512.625 66L511.875 66L511.875 121.5zM512.625 151.5L512.625 122.25L511.875 122.25L511.875 151.5zM512.625 194.25L512.625 152.25L511.875 152.25L511.875 194.25zM512.625 239.25L512.625 195L511.875 195L511.875 239.25zM512.625 269.25L512.625 240L511.875 240L511.875 269.25zM512.625 312L512.625 270L511.875 270L511.875 312zM512.625 369.75L512.625 312.75L511.875 312.75L511.875 369.75zM512.625 399.75L512.625 370.5L511.875 370.5L511.875 399.75zM512.625 456L512.625 400.5L511.875 400.5L511.875 456zM512.625 498.75L512.625 456.75L511.875 456.75L511.875 498.75zM512.625 541.5L512.625 499.5L511.875 499.5L511.875 541.5zM284.625 121.5L284.625 66L283.875 66L283.875 121.5zM284.625 151.5L284.625 122.25L283.875 122.25L283.875 151.5zM284.625 194.25L284.625 152.25L283.875 152.25L283.875 194.25zM284.625 239.25L284.625 195L283.875 195L283.875 239.25zM284.625 269.25L284.625 240L283.875 240L283.875 269.25zM284.625 312L284.625 270L283.875 270L283.875 312zM284.625 369.75L284.625 312.75L283.875 312.75L283.875 369.75zM284.625 399.75L284.625 370.5L283.875 370.5L283.875 399.75zM284.625 456L284.625 400.5L283.875 400.5L283.875 456zM284.625 498.75L284.625 456.75L283.875 456.75L283.875 498.75zM284.625 541.5L284.625 499.5L283.875 499.5L283.875 541.5zM208.125 121.5L208.125 66L207.375 66L207.375 121.5zM208.125 151.5L208.125 122.25L207.375 122.25L207.375 151.5zM208.125 194.25L208.125 152.25L207.375 152.25L207.375 194.25zM208.125 239.25L208.125 195L207.375 195L207.375 239.25zM208.125 269.25L208.125 240L207.375 240L207.375 269.25zM208.125 312L208.125 270L207.375 270L207.375 312zM208.125 369.75L208.125 312.75L207.375 312.75L207.375 369.75zM208.125 399.75L208.125 370.5L207.375 370.5L207.375 399.75zM208.125 456L208.125 400.5L207.375 400.5L207.375 456zM208.125 498.75L208.125 456.75L207.375 456.75L207.375 498.75zM208.125 541.5L208.125 499.5L207.375 499.5L207.375 541.5zM174.375 121.5L174.375 66L173.625 66L173.625 121.5zM174.375 151.5L174.375 122.25L173.625 122.25L173.625 151.5zM174.375 194.25L174.375 152.25L173.625 152.25L173.625 194.25zM174.375 239.25L174.375 195L173.625 195L173.625 239.25zM174.375 269.25L174.375 240L173.625 240L173.625 269.25zM174.375 312L174.375 270L173.625 270L173.625 312zM174.375 369.75L174.375 312.75L173.625 312.75L173.625 369.75zM174.375 399.75L174.375 370.5L173.625 370.5L173.625 399.75zM174.375 456L174.375 400.5L173.625 400.5L173.625 456zM174.375 498.75L174.375 456.75L173.625 456.75L173.625 498.75zM174.375 541.5L174.375 499.5L173.625 499.5L173.625 541.5z" stroke="none" fill="#000000" fill-rule="nonzero" fill-opacity="0.1490196" /><path id="99" transform="matrix(1 0 0 -1 0 612)" d="M286.875 502.4658L458.7253 502.4658" stroke="#000000" stroke-width="0.7017334" fill="none" /><path id="200" transform="matrix(1 0 0 -1 0 612)" d="M286.875 472.8049L473.2962 472.8049" stroke="#000000" stroke-width="0.7017334" fill="none" /><path id="241" transform="matrix(1 0 0 -1 0 612)" d="M286.875 459.7158L487.1185 459.7158" stroke="#000000" stroke-width="0.7017334" fill="none" /><path id="292" transform="matrix(1 0 0 -1 0 612)" d="M286.875 403.4658L448.2959 403.4658" stroke="#000000" stroke-width="0.7017334" fill="none" /><path id="404" transform="matrix(1 0 0 -1 0 612)" d="M286.875 386.5549L491.0975 386.5549" stroke="#000000" stroke-width="0.7017334" fill="none" /><path id="427" transform="matrix(1 0 0 -1 0 612)" d="M286.875 373.4658L398.002 373.4658" stroke="#000000" stroke-width="0.7017334" fill="none" /><path id="484" transform="matrix(1 0 0 -1 0 612)" d="M286.875 328.8049L490.5635 328.8049" stroke="#000000" stroke-width="0.7017334" fill="none" /><path id="497" transform="matrix(1 0 0 -1 0 612)" d="M286.875 315.7158L339.4725 315.7158" stroke="#000000" stroke-width="0.7017334" fill="none" /><path id="613" transform="matrix(1 0 0 -1 0 612)" d="M286.875 286.0549L503.4589 286.0549" stroke="#000000" stroke-width="0.7017334" fill="none" /><path id="646" transform="matrix(1 0 0 -1 0 612)" d="M286.875 272.9658L430.6307 272.9658" stroke="#000000" stroke-width="0.7017334" fill="none" /><path id="732" transform="matrix(1 0 0 -1 0 612)" d="M286.875 242.9658L478.9456 242.9658" stroke="#000000" stroke-width="0.7017334" fill="none" /><path id="835" transform="matrix(1 0 0 -1 0 612)" d="M286.875 197.9658L503.0871 197.9658" stroke="#000000" stroke-width="0.7017334" fill="none" /><path id="915" transform="matrix(1 0 0 -1 0 612)" d="M286.875 168.3049L466.7465 168.3049" stroke="#000000" stroke-width="0.7017334" fill="none" /><path id="928" transform="matrix(1 0 0 -1 0 612)" d="M286.875 155.2158L340.6348 155.2158" stroke="#000000" stroke-width="0.7017334" fill="none" /><path id="1019" transform="matrix(1 0 0 -1 0 612)" d="M286.875 138.3049L500.5114 138.3049" stroke="#000000" stroke-width="0.7017334" fill="none" /><path id="1058" transform="matrix(1 0 0 -1 0 612)" d="M286.875 125.2158L483.8199 125.2158" stroke="#000000" stroke-width="0.7017334" fill="none" /><path id="1135" transform="matrix(1 0 0 -1 0 612)" d="M286.875 82.05493L484.0502 82.05493" stroke="#000000" stroke-width="0.7017334" fill="none" /><path id="1175" transform="matrix(1 0 0 -1 0 612)" d="M286.875 68.96582L482.0606 68.96582" stroke="#000000" stroke-width="0.7017334" fill="none" /></g></g></g></svg>