<svg xmlns="http://www.w3.org/2000/svg" xmlns:xlink="http://www.w3.org/1999/xlink" id="body_8" preserveAspectRatio="xMinYMin meet" viewBox="0 0 1056 816"><defs><clipPath id="1"><path id="" clip-rule="evenodd" transform="matrix(1 0 0 1 0 0)" d="M0 612L0 0L0 0L792 0L792 0L792 612L792 612L0 612z" /></clipPath><clipPath id="2"><path id="" clip-rule="evenodd" transform="matrix(1 0 0 1 0 0)" d="M172.875 52.5L619.125 52.5L619.125 52.5L619.125 69.75L619.125 69.75L172.875 69.75L172.875 69.75L172.875 52.5z" /></clipPath><clipPath id="3"><path id="" clip-rule="evenodd" transform="matrix(1 0 0 1 0 0)" d="M172.875 69L619.125 69L619.125 69L619.125 525L619.125 525L172.875 525L172.875 525L172.875 69z" /></clipPath></defs><g transform="matrix(1.333333 0 0 1.333333 0 0)"><g clip-path="url(#1)"><g clip-path="url(#2)"><path id="9" transform="matrix(1 0 0 -1 0 612)" d="M173.625 558.75L618.375 558.75L618.375 541.5L173.625 541.5L173.625 558.75z" stroke="none" fill="#4DD0E1" fill-rule="nonzero" /><path id="10" transform="matrix(1 0 0 -1 0 612)" d="M173.625 542.25L618.375 542.25L618.375 541.5L173.625 541.5zM173.625 558.75L618.375 558.75L618.375 558L173.625 558zM618.375 558L618.375 542.25L617.625 542.25L617.625 558zM541.125 558L541.125 542.25L540.375 542.25L540.375 558zM512.625 558L512.625 542.25L511.875 542.25L511.875 558zM284.625 558L284.625 542.25L283.875 542.25L283.875 558zM208.125 558L208.125 542.25L207.375 542.25L207.375 558zM174.375 558L174.375 542.25L173.625 542.25L173.625 558z" stroke="none" fill="#000000" fill-rule="nonzero" fill-opacity="0.1490196" /></g><g clip-path="url(#3)"><path id="38" transform="matrix(1 0 0 -1 0 612)" d="M173.625 542.25L618.375 542.25L618.375 498.75L173.625 498.75L173.625 542.25z" stroke="none" fill="#E0F7FA" fill-rule="nonzero" /><path id="39" transform="matrix(1 0 0 -1 0 612)" d="M173.625 499.5L618.375 499.5L618.375 456L173.625 456L173.625 499.5z" stroke="none" fill="#FFFFFF" fill-rule="nonzero" /><path id="40" transform="matrix(1 0 0 -1 0 612)" d="M173.625 456.75L618.375 456.75L618.375 439.5L173.625 439.5L173.625 456.75z" stroke="none" fill="#E0F7FA" fill-rule="nonzero" /><path id="41" transform="matrix(1 0 0 -1 0 612)" d="M173.625 440.25L618.375 440.25L618.375 409.5L173.625 409.5L173.625 440.25z" stroke="none" fill="#FFFFFF" fill-rule="nonzero" /><path id="42" transform="matrix(1 0 0 -1 0 612)" d="M173.625 410.25L618.375 410.25L618.375 393L173.625 393L173.625 410.25z" stroke="none" fill="#E0F7FA" fill-rule="nonzero" /><path id="43" transform="matrix(1 0 0 -1 0 612)" d="M173.625 393.75L618.375 393.75L618.375 363L173.625 363L173.625 393.75z" stroke="none" fill="#FFFFFF" fill-rule="nonzero" /><path id="44" transform="matrix(1 0 0 -1 0 612)" d="M173.625 363.75L618.375 363.75L618.375 320.25L173.625 320.25L173.625 363.75z" stroke="none" fill="#E0F7FA" fill-rule="nonzero" /><path id="45" transform="matrix(1 0 0 -1 0 612)" d="M173.625 321L618.375 321L618.375 262.5L173.625 262.5L173.625 321z" stroke="none" fill="#FFFFFF" fill-rule="nonzero" /><path id="46" transform="matrix(1 0 0 -1 0 612)" d="M173.625 263.25L618.375 263.25L618.375 246L173.625 246L173.625 263.25z" stroke="none" fill="#E0F7FA" fill-rule="nonzero" /><path id="47" transform="matrix(1 0 0 -1 0 612)" d="M173.625 246.75L618.375 246.75L618.375 190.5L173.625 190.5L173.625 246.75z" stroke="none" fill="#FFFFFF" fill-rule="nonzero" /><path id="48" transform="matrix(1 0 0 -1 0 612)" d="M173.625 191.25L618.375 191.25L618.375 160.5L173.625 160.5L173.625 191.25z" stroke="none" fill="#E0F7FA" fill-rule="nonzero" /><path id="49" transform="matrix(1 0 0 -1 0 612)" d="M173.625 161.25L618.375 161.25L618.375 117.75L173.625 117.75L173.625 161.25z" stroke="none" fill="#FFFFFF" fill-rule="nonzero" /><path id="50" transform="matrix(1 0 0 -1 0 612)" d="M173.625 118.5L618.375 118.5L618.375 87.75L173.625 87.75L173.625 118.5z" stroke="none" fill="#E0F7FA" fill-rule="nonzero" /><path id="51" transform="matrix(1 0 0 -1 0 612)" d="M173.625 88.5L618.375 88.5L618.375 87.75L173.625 87.75zM173.625 118.5L618.375 118.5L618.375 117.75L173.625 117.75zM173.625 161.25L618.375 161.25L618.375 160.5L173.625 160.5zM173.625 191.25L618.375 191.25L618.375 190.5L173.625 190.5zM173.625 246.75L618.375 246.75L618.375 246L173.625 246zM173.625 263.25L618.375 263.25L618.375 262.5L173.625 262.5zM173.625 321L618.375 321L618.375 320.25L173.625 320.25zM173.625 363.75L618.375 363.75L618.375 363L173.625 363zM173.625 393.75L618.375 393.75L618.375 393L173.625 393zM173.625 410.25L618.375 410.25L618.375 409.5L173.625 409.5zM173.625 440.25L618.375 440.25L618.375 439.5L173.625 439.5zM173.625 456.75L618.375 456.75L618.375 456L173.625 456zM173.625 499.5L618.375 499.5L618.375 498.75L173.625 498.75zM173.625 542.25L618.375 542.25L618.375 541.5L173.625 541.5zM618.375 117.75L618.375 88.5L617.625 88.5L617.625 117.75zM618.375 160.5L618.375 118.5L617.625 118.5L617.625 160.5zM618.375 190.5L618.375 161.25L617.625 161.25L617.625 190.5zM618.375 246L618.375 191.25L617.625 191.25L617.625 246zM618.375 262.5L618.375 246.75L617.625 246.75L617.625 262.5zM618.375 320.25L618.375 263.25L617.625 263.25L617.625 320.25zM618.375 363L618.375 321L617.625 321L617.625 363zM618.375 393L618.375 363.75L617.625 363.75L617.625 393zM618.375 409.5L618.375 393.75L617.625 393.75L617.625 409.5zM618.375 439.5L618.375 410.25L617.625 410.25L617.625 439.5zM618.375 456L618.375 440.25L617.625 440.25L617.625 456zM618.375 498.75L618.375 456.75L617.625 456.75L617.625 498.75zM618.375 541.5L618.375 499.5L617.625 499.5L617.625 541.5zM541.125 117.75L541.125 88.5L540.375 88.5L540.375 117.75zM541.125 160.5L541.125 118.5L540.375 118.5L540.375 160.5zM541.125 190.5L541.125 161.25L540.375 161.25L540.375 190.5zM541.125 246L541.125 191.25L540.375 191.25L540.375 246zM541.125 262.5L541.125 246.75L540.375 246.75L540.375 262.5zM541.125 320.25L541.125 263.25L540.375 263.25L540.375 320.25zM541.125 363L541.125 321L540.375 321L540.375 363zM541.125 393L541.125 363.75L540.375 363.75L540.375 393zM541.125 409.5L541.125 393.75L540.375 393.75L540.375 409.5zM541.125 439.5L541.125 410.25L540.375 410.25L540.375 439.5zM541.125 456L541.125 440.25L540.375 440.25L540.375 456zM541.125 498.75L541.125 456.75L540.375 456.75L540.375 498.75zM541.125 541.5L541.125 499.5L540.375 499.5L540.375 541.5zM512.625 117.75L512.625 88.5L511.875 88.5L511.875 117.75zM512.625 160.5L512.625 118.5L511.875 118.5L511.875 160.5zM512.625 190.5L512.625 161.25L511.875 161.25L511.875 190.5zM512.625 246L512.625 191.25L511.875 191.25L511.875 246zM512.625 262.5L512.625 246.75L511.875 246.75L511.875 262.5zM512.625 320.25L512.625 263.25L511.875 263.25L511.875 320.25zM512.625 363L512.625 321L511.875 321L511.875 363zM512.625 393L512.625 363.75L511.875 363.75L511.875 393zM512.625 409.5L512.625 393.75L511.875 393.75L511.875 409.5zM512.625 439.5L512.625 410.25L511.875 410.25L511.875 439.5zM512.625 456L512.625 440.25L511.875 440.25L511.875 456zM512.625 498.75L512.625 456.75L511.875 456.75L511.875 498.75zM512.625 541.5L512.625 499.5L511.875 499.5L511.875 541.5zM284.625 117.75L284.625 88.5L283.875 88.5L283.875 117.75zM284.625 160.5L284.625 118.5L283.875 118.5L283.875 160.5zM284.625 190.5L284.625 161.25L283.875 161.25L283.875 190.5zM284.625 246L284.625 191.25L283.875 191.25L283.875 246zM284.625 262.5L284.625 246.75L283.875 246.75L283.875 262.5zM284.625 320.25L284.625 263.25L283.875 263.25L283.875 320.25zM284.625 363L284.625 321L283.875 321L283.875 363zM284.625 393L284.625 363.75L283.875 363.75L283.875 393zM284.625 409.5L284.625 393.75L283.875 393.75L283.875 409.5zM284.625 439.5L284.625 410.25L283.875 410.25L283.875 439.5zM284.625 456L284.625 440.25L283.875 440.25L283.875 456zM284.625 498.75L284.625 456.75L283.875 456.75L283.875 498.75zM284.625 541.5L284.625 499.5L283.875 499.5L283.875 541.5zM208.125 117.75L208.125 88.5L207.375 88.5L207.375 117.75zM208.125 160.5L208.125 118.5L207.375 118.5L207.375 160.5zM208.125 190.5L208.125 161.25L207.375 161.25L207.375 190.5zM208.125 246L208.125 191.25L207.375 191.25L207.375 246zM208.125 262.5L208.125 246.75L207.375 246.75L207.375 262.5zM208.125 320.25L208.125 263.25L207.375 263.25L207.375 320.25zM208.125 363L208.125 321L207.375 321L207.375 363zM208.125 393L208.125 363.75L207.375 363.75L207.375 393zM208.125 409.5L208.125 393.75L207.375 393.75L207.375 409.5zM208.125 439.5L208.125 410.25L207.375 410.25L207.375 439.5zM208.125 456L208.125 440.25L207.375 440.25L207.375 456zM208.125 498.75L208.125 456.75L207.375 456.75L207.375 498.75zM208.125 541.5L208.125 499.5L207.375 499.5L207.375 541.5zM174.375 117.75L174.375 88.5L173.625 88.5L173.625 117.75zM174.375 160.5L174.375 118.5L173.625 118.5L173.625 160.5zM174.375 190.5L174.375 161.25L173.625 161.25L173.625 190.5zM174.375 246L174.375 191.25L173.625 191.25L173.625 246zM174.375 262.5L174.375 246.75L173.625 246.75L173.625 262.5zM174.375 320.25L174.375 263.25L173.625 263.25L173.625 320.25zM174.375 363L174.375 321L173.625 321L173.625 363zM174.375 393L174.375 363.75L173.625 363.75L173.625 393zM174.375 409.5L174.375 393.75L173.625 393.75L173.625 409.5zM174.375 439.5L174.375 410.25L173.625 410.25L173.625 439.5zM174.375 456L174.375 440.25L173.625 440.25L173.625 456zM174.375 498.75L174.375 456.75L173.625 456.75L173.625 498.75zM174.375 541.5L174.375 499.5L173.625 499.5L173.625 541.5z" stroke="none" fill="#000000" fill-rule="nonzero" fill-opacity="0.1490196" /><path id="101" transform="matrix(1 0 0 -1 0 612)" d="M286.875 528.6438L473.956 528.6438" stroke="#000000" stroke-width="0.7017334" fill="none" /><path id="142" transform="matrix(1 0 0 -1 0 612)" d="M286.875 515.5547L485.4431 515.5547" stroke="#000000" stroke-width="0.7017334" fill="none" /><path id="153" transform="matrix(1 0 0 -1 0 612)" d="M286.875 502.4656L341.7447 502.4656" stroke="#000000" stroke-width="0.7017334" fill="none" /><path id="229" transform="matrix(1 0 0 -1 0 612)" d="M286.875 472.8047L465.5841 472.8047" stroke="#000000" stroke-width="0.7017334" fill="none" /><path id="259" transform="matrix(1 0 0 -1 0 612)" d="M286.875 459.7156L422.4369 459.7156" stroke="#000000" stroke-width="0.7017334" fill="none" /><path id="345" transform="matrix(1 0 0 -1 0 612)" d="M286.875 443.2156L466.9192 443.2156" stroke="#000000" stroke-width="0.7017334" fill="none" /><path id="407" transform="matrix(1 0 0 -1 0 612)" d="M286.875 426.3047L471.3851 426.3047" stroke="#000000" stroke-width="0.7017334" fill="none" /><path id="437" transform="matrix(1 0 0 -1 0 612)" d="M286.875 413.2156L422.1228 413.2156" stroke="#000000" stroke-width="0.7017334" fill="none" /><path id="481" transform="matrix(1 0 0 -1 0 612)" d="M286.875 396.7156L430.0233 396.7156" stroke="#000000" stroke-width="0.7017334" fill="none" /><path id="544" transform="matrix(1 0 0 -1 0 612)" d="M286.875 379.8047L475.0555 379.8047" stroke="#000000" stroke-width="0.7017334" fill="none" /><path id="588" transform="matrix(1 0 0 -1 0 612)" d="M286.875 366.7156L505.8988 366.7156" stroke="#000000" stroke-width="0.7017334" fill="none" /><path id="644" transform="matrix(1 0 0 -1 0 612)" d="M286.875 323.9656L490.6735 323.9656" stroke="#000000" stroke-width="0.7017334" fill="none" /><path id="728" transform="matrix(1 0 0 -1 0 612)" d="M286.875 279.3047L463.6678 279.3047" stroke="#000000" stroke-width="0.7017334" fill="none" /><path id="741" transform="matrix(1 0 0 -1 0 612)" d="M286.875 266.2156L340.6348 266.2156" stroke="#000000" stroke-width="0.7017334" fill="none" /><path id="837" transform="matrix(1 0 0 -1 0 612)" d="M286.875 249.7156L492.2861 249.7156" stroke="#000000" stroke-width="0.7017334" fill="none" /><path id="899" transform="matrix(1 0 0 -1 0 612)" d="M286.875 207.3047L472.7361 207.3047" stroke="#000000" stroke-width="0.7017334" fill="none" /><path id="941" transform="matrix(1 0 0 -1 0 612)" d="M286.875 194.2156L486.1917 194.2156" stroke="#000000" stroke-width="0.7017334" fill="none" /><path id="1035" transform="matrix(1 0 0 -1 0 612)" d="M286.875 177.3047L475.7936 177.3047" stroke="#000000" stroke-width="0.7017334" fill="none" /><path id="1073" transform="matrix(1 0 0 -1 0 612)" d="M286.875 164.2156L464.9295 164.2156" stroke="#000000" stroke-width="0.7017334" fill="none" /><path id="1147" transform="matrix(1 0 0 -1 0 612)" d="M286.875 147.6438L504.3386 147.6438" stroke="#000000" stroke-width="0.7017334" fill="none" /><path id="1187" transform="matrix(1 0 0 -1 0 612)" d="M286.875 134.5547L504.6476 134.5547" stroke="#000000" stroke-width="0.7017334" fill="none" /><path id="1207" transform="matrix(1 0 0 -1 0 612)" d="M286.875 121.4656L375.9705 121.4656" stroke="#000000" stroke-width="0.7017334" fill="none" /><path id="1275" transform="matrix(1 0 0 -1 0 612)" d="M286.875 104.5547L445.3011 104.5547" stroke="#000000" stroke-width="0.7017334" fill="none" /><path id="1288" transform="matrix(1 0 0 -1 0 612)" d="M286.875 91.46558L355.0486 91.46558" stroke="#000000" stroke-width="0.7017334" fill="none" /></g></g></g></svg>