<svg xmlns="http://www.w3.org/2000/svg" xmlns:xlink="http://www.w3.org/1999/xlink" id="body_3" preserveAspectRatio="xMinYMin meet" viewBox="0 0 1056 816"><defs><clipPath id="1"><path id="" clip-rule="evenodd" transform="matrix(1 0 0 1 0 0)" d="M0 612L0 0L0 0L792 0L792 0L792 612L792 612L0 612z" /></clipPath><clipPath id="2"><path id="" clip-rule="evenodd" transform="matrix(1 0 0 1 0 0)" d="M172.875 52.5L619.125 52.5L619.125 52.5L619.125 69.75L619.125 69.75L172.875 69.75L172.875 69.75L172.875 52.5z" /></clipPath><clipPath id="3"><path id="" clip-rule="evenodd" transform="matrix(1 0 0 1 0 0)" d="M172.875 69L619.125 69L619.125 69L619.125 518.25L619.125 518.25L172.875 518.25L172.875 518.25L172.875 69z" /></clipPath></defs><g transform="matrix(1.333333 0 0 1.333333 0 0)"><g clip-path="url(#1)"><g clip-path="url(#2)"><path id="9" transform="matrix(1 0 0 -1 0 612)" d="M173.625 558.75L618.375 558.75L618.375 541.5L173.625 541.5L173.625 558.75z" stroke="none" fill="#4DD0E1" fill-rule="nonzero" /><path id="10" transform="matrix(1 0 0 -1 0 612)" d="M173.625 542.25L618.375 542.25L618.375 541.5L173.625 541.5zM173.625 558.75L618.375 558.75L618.375 558L173.625 558zM618.375 558L618.375 542.25L617.625 542.25L617.625 558zM541.125 558L541.125 542.25L540.375 542.25L540.375 558zM512.625 558L512.625 542.25L511.875 542.25L511.875 558zM284.625 558L284.625 542.25L283.875 542.25L283.875 558zM208.125 558L208.125 542.25L207.375 542.25L207.375 558zM174.375 558L174.375 542.25L173.625 542.25L173.625 558z" stroke="none" fill="#000000" fill-rule="nonzero" fill-opacity="0.1490196" /></g><g clip-path="url(#3)"><path id="38" transform="matrix(1 0 0 -1 0 612)" d="M173.625 542.25L618.375 542.25L618.375 498.75L173.625 498.75L173.625 542.25z" stroke="none" fill="#FFFFFF" fill-rule="nonzero" /><path id="39" transform="matrix(1 0 0 -1 0 612)" d="M173.625 499.5L618.375 499.5L618.375 456L173.625 456L173.625 499.5z" stroke="none" fill="#E0F7FA" fill-rule="nonzero" /><path id="40" transform="matrix(1 0 0 -1 0 612)" d="M173.625 456.75L618.375 456.75L618.375 439.5L173.625 439.5L173.625 456.75z" stroke="none" fill="#FFFFFF" fill-rule="nonzero" /><path id="41" transform="matrix(1 0 0 -1 0 612)" d="M173.625 440.25L618.375 440.25L618.375 396.75L173.625 396.75L173.625 440.25z" stroke="none" fill="#E0F7FA" fill-rule="nonzero" /><path id="42" transform="matrix(1 0 0 -1 0 612)" d="M173.625 397.5L618.375 397.5L618.375 326.25L173.625 326.25L173.625 397.5z" stroke="none" fill="#FFFFFF" fill-rule="nonzero" /><path id="43" transform="matrix(1 0 0 -1 0 612)" d="M173.625 327L618.375 327L618.375 283.5L173.625 283.5L173.625 327z" stroke="none" fill="#E0F7FA" fill-rule="nonzero" /><path id="44" transform="matrix(1 0 0 -1 0 612)" d="M173.625 284.25L618.375 284.25L618.375 227.25L173.625 227.25L173.625 284.25z" stroke="none" fill="#FFFFFF" fill-rule="nonzero" /><path id="45" transform="matrix(1 0 0 -1 0 612)" d="M173.625 228L618.375 228L618.375 197.25L173.625 197.25L173.625 228z" stroke="none" fill="#E0F7FA" fill-rule="nonzero" /><path id="46" transform="matrix(1 0 0 -1 0 612)" d="M173.625 198L618.375 198L618.375 141L173.625 141L173.625 198z" stroke="none" fill="#FFFFFF" fill-rule="nonzero" /><path id="47" transform="matrix(1 0 0 -1 0 612)" d="M173.625 141.75L618.375 141.75L618.375 111L173.625 111L173.625 141.75z" stroke="none" fill="#E0F7FA" fill-rule="nonzero" /><path id="48" transform="matrix(1 0 0 -1 0 612)" d="M173.625 111.75L618.375 111.75L618.375 94.5L173.625 94.5L173.625 111.75z" stroke="none" fill="#FFFFFF" fill-rule="nonzero" /><path id="49" transform="matrix(1 0 0 -1 0 612)" d="M173.625 95.25L618.375 95.25L618.375 94.5L173.625 94.5zM173.625 111.75L618.375 111.75L618.375 111L173.625 111zM173.625 141.75L618.375 141.75L618.375 141L173.625 141zM173.625 198L618.375 198L618.375 197.25L173.625 197.25zM173.625 228L618.375 228L618.375 227.25L173.625 227.25zM173.625 284.25L618.375 284.25L618.375 283.5L173.625 283.5zM173.625 327L618.375 327L618.375 326.25L173.625 326.25zM173.625 397.5L618.375 397.5L618.375 396.75L173.625 396.75zM173.625 440.25L618.375 440.25L618.375 439.5L173.625 439.5zM173.625 456.75L618.375 456.75L618.375 456L173.625 456zM173.625 499.5L618.375 499.5L618.375 498.75L173.625 498.75zM173.625 542.25L618.375 542.25L618.375 541.5L173.625 541.5zM618.375 111L618.375 95.25L617.625 95.25L617.625 111zM618.375 141L618.375 111.75L617.625 111.75L617.625 141zM618.375 197.25L618.375 141.75L617.625 141.75L617.625 197.25zM618.375 227.25L618.375 198L617.625 198L617.625 227.25zM618.375 283.5L618.375 228L617.625 228L617.625 283.5zM618.375 326.25L618.375 284.25L617.625 284.25L617.625 326.25zM618.375 396.75L618.375 327L617.625 327L617.625 396.75zM618.375 439.5L618.375 397.5L617.625 397.5L617.625 439.5zM618.375 456L618.375 440.25L617.625 440.25L617.625 456zM618.375 498.75L618.375 456.75L617.625 456.75L617.625 498.75zM618.375 541.5L618.375 499.5L617.625 499.5L617.625 541.5zM541.125 111L541.125 95.25L540.375 95.25L540.375 111zM541.125 141L541.125 111.75L540.375 111.75L540.375 141zM541.125 197.25L541.125 141.75L540.375 141.75L540.375 197.25zM541.125 227.25L541.125 198L540.375 198L540.375 227.25zM541.125 283.5L541.125 228L540.375 228L540.375 283.5zM541.125 326.25L541.125 284.25L540.375 284.25L540.375 326.25zM541.125 396.75L541.125 327L540.375 327L540.375 396.75zM541.125 439.5L541.125 397.5L540.375 397.5L540.375 439.5zM541.125 456L541.125 440.25L540.375 440.25L540.375 456zM541.125 498.75L541.125 456.75L540.375 456.75L540.375 498.75zM541.125 541.5L541.125 499.5L540.375 499.5L540.375 541.5zM512.625 111L512.625 95.25L511.875 95.25L511.875 111zM512.625 141L512.625 111.75L511.875 111.75L511.875 141zM512.625 197.25L512.625 141.75L511.875 141.75L511.875 197.25zM512.625 227.25L512.625 198L511.875 198L511.875 227.25zM512.625 283.5L512.625 228L511.875 228L511.875 283.5zM512.625 326.25L512.625 284.25L511.875 284.25L511.875 326.25zM512.625 396.75L512.625 327L511.875 327L511.875 396.75zM512.625 439.5L512.625 397.5L511.875 397.5L511.875 439.5zM512.625 456L512.625 440.25L511.875 440.25L511.875 456zM512.625 498.75L512.625 456.75L511.875 456.75L511.875 498.75zM512.625 541.5L512.625 499.5L511.875 499.5L511.875 541.5zM284.625 111L284.625 95.25L283.875 95.25L283.875 111zM284.625 141L284.625 111.75L283.875 111.75L283.875 141zM284.625 197.25L284.625 141.75L283.875 141.75L283.875 197.25zM284.625 227.25L284.625 198L283.875 198L283.875 227.25zM284.625 283.5L284.625 228L283.875 228L283.875 283.5zM284.625 326.25L284.625 284.25L283.875 284.25L283.875 326.25zM284.625 396.75L284.625 327L283.875 327L283.875 396.75zM284.625 439.5L284.625 397.5L283.875 397.5L283.875 439.5zM284.625 456L284.625 440.25L283.875 440.25L283.875 456zM284.625 498.75L284.625 456.75L283.875 456.75L283.875 498.75zM284.625 541.5L284.625 499.5L283.875 499.5L283.875 541.5zM208.125 111L208.125 95.25L207.375 95.25L207.375 111zM208.125 141L208.125 111.75L207.375 111.75L207.375 141zM208.125 197.25L208.125 141.75L207.375 141.75L207.375 197.25zM208.125 227.25L208.125 198L207.375 198L207.375 227.25zM208.125 283.5L208.125 228L207.375 228L207.375 283.5zM208.125 326.25L208.125 284.25L207.375 284.25L207.375 326.25zM208.125 396.75L208.125 327L207.375 327L207.375 396.75zM208.125 439.5L208.125 397.5L207.375 397.5L207.375 439.5zM208.125 456L208.125 440.25L207.375 440.25L207.375 456zM208.125 498.75L208.125 456.75L207.375 456.75L207.375 498.75zM208.125 541.5L208.125 499.5L207.375 499.5L207.375 541.5zM174.375 111L174.375 95.25L173.625 95.25L173.625 111zM174.375 141L174.375 111.75L173.625 111.75L173.625 141zM174.375 197.25L174.375 141.75L173.625 141.75L173.625 197.25zM174.375 227.25L174.375 198L173.625 198L173.625 227.25zM174.375 283.5L174.375 228L173.625 228L173.625 283.5zM174.375 326.25L174.375 284.25L173.625 284.25L173.625 326.25zM174.375 396.75L174.375 327L173.625 327L173.625 396.75zM174.375 439.5L174.375 397.5L173.625 397.5L173.625 439.5zM174.375 456L174.375 440.25L173.625 440.25L173.625 456zM174.375 498.75L174.375 456.75L173.625 456.75L173.625 498.75zM174.375 541.5L174.375 499.5L173.625 499.5L173.625 541.5z" stroke="none" fill="#000000" fill-rule="nonzero" fill-opacity="0.1490196" /><path id="105" transform="matrix(1 0 0 -1 0 612)" d="M286.875 502.4658L507.8883 502.4658" stroke="#000000" stroke-width="0.7017334" fill="none" /><path id="176" transform="matrix(1 0 0 -1 0 612)" d="M286.875 459.7158L440.5105 459.7158" stroke="#000000" stroke-width="0.7017334" fill="none" /><path id="268" transform="matrix(1 0 0 -1 0 612)" d="M286.875 443.2158L487.1236 443.2158" stroke="#000000" stroke-width="0.7017334" fill="none" /><path id="322" transform="matrix(1 0 0 -1 0 612)" d="M286.875 400.4658L427.7826 400.4658" stroke="#000000" stroke-width="0.7017334" fill="none" /><path id="403" transform="matrix(1 0 0 -1 0 612)" d="M286.875 356.1442L482.9352 356.1442" stroke="#000000" stroke-width="0.7017334" fill="none" /><path id="438" transform="matrix(1 0 0 -1 0 612)" d="M286.875 343.0549L463.9663 343.0549" stroke="#000000" stroke-width="0.7017334" fill="none" /><path id="458" transform="matrix(1 0 0 -1 0 612)" d="M286.875 329.9658L379.5934 329.9658" stroke="#000000" stroke-width="0.7017334" fill="none" /><path id="558" transform="matrix(1 0 0 -1 0 612)" d="M286.875 313.3942L491.0922 313.3942" stroke="#000000" stroke-width="0.7017334" fill="none" /><path id="601" transform="matrix(1 0 0 -1 0 612)" d="M286.875 300.3049L499.1605 300.3049" stroke="#000000" stroke-width="0.7017334" fill="none" /><path id="613" transform="matrix(1 0 0 -1 0 612)" d="M286.875 287.2158L337.2212 287.2158" stroke="#000000" stroke-width="0.7017334" fill="none" /><path id="671" transform="matrix(1 0 0 -1 0 612)" d="M286.875 244.0549L502.48 244.0549" stroke="#000000" stroke-width="0.7017334" fill="none" /><path id="703" transform="matrix(1 0 0 -1 0 612)" d="M286.875 230.9658L438.6203 230.9658" stroke="#000000" stroke-width="0.7017334" fill="none" /><path id="797" transform="matrix(1 0 0 -1 0 612)" d="M286.875 214.0549L502.8621 214.0549" stroke="#000000" stroke-width="0.7017334" fill="none" /><path id="810" transform="matrix(1 0 0 -1 0 612)" d="M286.875 200.9658L342.6034 200.9658" stroke="#000000" stroke-width="0.7017334" fill="none" /><path id="886" transform="matrix(1 0 0 -1 0 612)" d="M286.875 157.8049L475.1183 157.8049" stroke="#000000" stroke-width="0.7017334" fill="none" /><path id="898" transform="matrix(1 0 0 -1 0 612)" d="M286.875 144.7158L334.6242 144.7158" stroke="#000000" stroke-width="0.7017334" fill="none" /><path id="985" transform="matrix(1 0 0 -1 0 612)" d="M286.875 127.8049L504.1133 127.8049" stroke="#000000" stroke-width="0.7017334" fill="none" /><path id="1024" transform="matrix(1 0 0 -1 0 612)" d="M286.875 114.7158L462.5002 114.7158" stroke="#000000" stroke-width="0.7017334" fill="none" /><path id="1059" transform="matrix(1 0 0 -1 0 612)" d="M286.875 98.21582L376.4312 98.21582" stroke="#000000" stroke-width="0.7017334" fill="none" /></g></g></g></svg>