<svg xmlns="http://www.w3.org/2000/svg" xmlns:xlink="http://www.w3.org/1999/xlink" id="body_40" preserveAspectRatio="xMinYMin meet" viewBox="0 0 1056 816"><defs><clipPath id="1"><path id="" clip-rule="evenodd" transform="matrix(1 0 0 1 0 0)" d="M0 612L0 0L0 0L792 0L792 0L792 612L792 612L0 612z" /></clipPath><clipPath id="2"><path id="" clip-rule="evenodd" transform="matrix(1 0 0 1 0 0)" d="M172.875 52.5L619.125 52.5L619.125 52.5L619.125 69.75L619.125 69.75L172.875 69.75L172.875 69.75L172.875 52.5z" /></clipPath><clipPath id="3"><path id="" clip-rule="evenodd" transform="matrix(1 0 0 1 0 0)" d="M172.875 69L619.125 69L619.125 69L619.125 521.25L619.125 521.25L172.875 521.25L172.875 521.25L172.875 69z" /></clipPath></defs><g transform="matrix(1.333333 0 0 1.333333 0 0)"><g clip-path="url(#1)"><g clip-path="url(#2)"><path id="10" transform="matrix(1 0 0 -1 0 612)" d="M173.625 558.75L618.375 558.75L618.375 541.5L173.625 541.5L173.625 558.75z" stroke="none" fill="#4DD0E1" fill-rule="nonzero" /><path id="11" transform="matrix(1 0 0 -1 0 612)" d="M173.625 542.25L618.375 542.25L618.375 541.5L173.625 541.5zM173.625 558.75L618.375 558.75L618.375 558L173.625 558zM618.375 558L618.375 542.25L617.625 542.25L617.625 558zM541.125 558L541.125 542.25L540.375 542.25L540.375 558zM512.625 558L512.625 542.25L511.875 542.25L511.875 558zM284.625 558L284.625 542.25L283.875 542.25L283.875 558zM208.125 558L208.125 542.25L207.375 542.25L207.375 558zM174.375 558L174.375 542.25L173.625 542.25L173.625 558z" stroke="none" fill="#000000" fill-rule="nonzero" fill-opacity="0.1490196" /></g><g clip-path="url(#3)"><path id="39" transform="matrix(1 0 0 -1 0 612)" d="M173.625 542.25L618.375 542.25L618.375 498.75L173.625 498.75L173.625 542.25z" stroke="none" fill="#E0F7FA" fill-rule="nonzero" /><path id="40" transform="matrix(1 0 0 -1 0 612)" d="M173.625 499.5L618.375 499.5L618.375 456L173.625 456L173.625 499.5z" stroke="none" fill="#FFFFFF" fill-rule="nonzero" /><path id="41" transform="matrix(1 0 0 -1 0 612)" d="M173.625 456.75L618.375 456.75L618.375 386.25L173.625 386.25L173.625 456.75z" stroke="none" fill="#E0F7FA" fill-rule="nonzero" /><path id="42" transform="matrix(1 0 0 -1 0 612)" d="M173.625 387L618.375 387L618.375 356.25L173.625 356.25L173.625 387z" stroke="none" fill="#FFFFFF" fill-rule="nonzero" /><path id="43" transform="matrix(1 0 0 -1 0 612)" d="M173.625 357L618.375 357L618.375 326.25L173.625 326.25L173.625 357z" stroke="none" fill="#E0F7FA" fill-rule="nonzero" /><path id="44" transform="matrix(1 0 0 -1 0 612)" d="M173.625 327L618.375 327L618.375 309.75L173.625 309.75L173.625 327z" stroke="none" fill="#FFFFFF" fill-rule="nonzero" /><path id="45" transform="matrix(1 0 0 -1 0 612)" d="M173.625 310.5L618.375 310.5L618.375 279.75L173.625 279.75L173.625 310.5z" stroke="none" fill="#E0F7FA" fill-rule="nonzero" /><path id="46" transform="matrix(1 0 0 -1 0 612)" d="M173.625 280.5L618.375 280.5L618.375 237L173.625 237L173.625 280.5z" stroke="none" fill="#FFFFFF" fill-rule="nonzero" /><path id="47" transform="matrix(1 0 0 -1 0 612)" d="M173.625 237.75L618.375 237.75L618.375 194.25L173.625 194.25L173.625 237.75z" stroke="none" fill="#E0F7FA" fill-rule="nonzero" /><path id="48" transform="matrix(1 0 0 -1 0 612)" d="M173.625 195L618.375 195L618.375 164.25L173.625 164.25L173.625 195z" stroke="none" fill="#FFFFFF" fill-rule="nonzero" /><path id="49" transform="matrix(1 0 0 -1 0 612)" d="M173.625 165L618.375 165L618.375 121.5L173.625 121.5L173.625 165z" stroke="none" fill="#E0F7FA" fill-rule="nonzero" /><path id="50" transform="matrix(1 0 0 -1 0 612)" d="M173.625 122.25L618.375 122.25L618.375 91.5L173.625 91.5L173.625 122.25z" stroke="none" fill="#FFFFFF" fill-rule="nonzero" /><path id="51" transform="matrix(1 0 0 -1 0 612)" d="M173.625 92.25L618.375 92.25L618.375 91.5L173.625 91.5zM173.625 122.25L618.375 122.25L618.375 121.5L173.625 121.5zM173.625 165L618.375 165L618.375 164.25L173.625 164.25zM173.625 195L618.375 195L618.375 194.25L173.625 194.25zM173.625 237.75L618.375 237.75L618.375 237L173.625 237zM173.625 280.5L618.375 280.5L618.375 279.75L173.625 279.75zM173.625 310.5L618.375 310.5L618.375 309.75L173.625 309.75zM173.625 327L618.375 327L618.375 326.25L173.625 326.25zM173.625 357L618.375 357L618.375 356.25L173.625 356.25zM173.625 387L618.375 387L618.375 386.25L173.625 386.25zM173.625 456.75L618.375 456.75L618.375 456L173.625 456zM173.625 499.5L618.375 499.5L618.375 498.75L173.625 498.75zM173.625 542.25L618.375 542.25L618.375 541.5L173.625 541.5zM618.375 121.5L618.375 92.25L617.625 92.25L617.625 121.5zM618.375 164.25L618.375 122.25L617.625 122.25L617.625 164.25zM618.375 194.25L618.375 165L617.625 165L617.625 194.25zM618.375 237L618.375 195L617.625 195L617.625 237zM618.375 279.75L618.375 237.75L617.625 237.75L617.625 279.75zM618.375 309.75L618.375 280.5L617.625 280.5L617.625 309.75zM618.375 326.25L618.375 310.5L617.625 310.5L617.625 326.25zM618.375 356.25L618.375 327L617.625 327L617.625 356.25zM618.375 386.25L618.375 357L617.625 357L617.625 386.25zM618.375 456L618.375 387L617.625 387L617.625 456zM618.375 498.75L618.375 456.75L617.625 456.75L617.625 498.75zM618.375 541.5L618.375 499.5L617.625 499.5L617.625 541.5zM541.125 121.5L541.125 92.25L540.375 92.25L540.375 121.5zM541.125 164.25L541.125 122.25L540.375 122.25L540.375 164.25zM541.125 194.25L541.125 165L540.375 165L540.375 194.25zM541.125 237L541.125 195L540.375 195L540.375 237zM541.125 279.75L541.125 237.75L540.375 237.75L540.375 279.75zM541.125 309.75L541.125 280.5L540.375 280.5L540.375 309.75zM541.125 326.25L541.125 310.5L540.375 310.5L540.375 326.25zM541.125 356.25L541.125 327L540.375 327L540.375 356.25zM541.125 386.25L541.125 357L540.375 357L540.375 386.25zM541.125 456L541.125 387L540.375 387L540.375 456zM541.125 498.75L541.125 456.75L540.375 456.75L540.375 498.75zM541.125 541.5L541.125 499.5L540.375 499.5L540.375 541.5zM512.625 121.5L512.625 92.25L511.875 92.25L511.875 121.5zM512.625 164.25L512.625 122.25L511.875 122.25L511.875 164.25zM512.625 194.25L512.625 165L511.875 165L511.875 194.25zM512.625 237L512.625 195L511.875 195L511.875 237zM512.625 279.75L512.625 237.75L511.875 237.75L511.875 279.75zM512.625 309.75L512.625 280.5L511.875 280.5L511.875 309.75zM512.625 326.25L512.625 310.5L511.875 310.5L511.875 326.25zM512.625 356.25L512.625 327L511.875 327L511.875 356.25zM512.625 386.25L512.625 357L511.875 357L511.875 386.25zM512.625 456L512.625 387L511.875 387L511.875 456zM512.625 498.75L512.625 456.75L511.875 456.75L511.875 498.75zM512.625 541.5L512.625 499.5L511.875 499.5L511.875 541.5zM284.625 121.5L284.625 92.25L283.875 92.25L283.875 121.5zM284.625 164.25L284.625 122.25L283.875 122.25L283.875 164.25zM284.625 194.25L284.625 165L283.875 165L283.875 194.25zM284.625 237L284.625 195L283.875 195L283.875 237zM284.625 279.75L284.625 237.75L283.875 237.75L283.875 279.75zM284.625 309.75L284.625 280.5L283.875 280.5L283.875 309.75zM284.625 326.25L284.625 310.5L283.875 310.5L283.875 326.25zM284.625 356.25L284.625 327L283.875 327L283.875 356.25zM284.625 386.25L284.625 357L283.875 357L283.875 386.25zM284.625 456L284.625 387L283.875 387L283.875 456zM284.625 498.75L284.625 456.75L283.875 456.75L283.875 498.75zM284.625 541.5L284.625 499.5L283.875 499.5L283.875 541.5zM208.125 121.5L208.125 92.25L207.375 92.25L207.375 121.5zM208.125 164.25L208.125 122.25L207.375 122.25L207.375 164.25zM208.125 194.25L208.125 165L207.375 165L207.375 194.25zM208.125 237L208.125 195L207.375 195L207.375 237zM208.125 279.75L208.125 237.75L207.375 237.75L207.375 279.75zM208.125 309.75L208.125 280.5L207.375 280.5L207.375 309.75zM208.125 326.25L208.125 310.5L207.375 310.5L207.375 326.25zM208.125 356.25L208.125 327L207.375 327L207.375 356.25zM208.125 386.25L208.125 357L207.375 357L207.375 386.25zM208.125 456L208.125 387L207.375 387L207.375 456zM208.125 498.75L208.125 456.75L207.375 456.75L207.375 498.75zM208.125 541.5L208.125 499.5L207.375 499.5L207.375 541.5zM174.375 121.5L174.375 92.25L173.625 92.25L173.625 121.5zM174.375 164.25L174.375 122.25L173.625 122.25L173.625 164.25zM174.375 194.25L174.375 165L173.625 165L173.625 194.25zM174.375 237L174.375 195L173.625 195L173.625 237zM174.375 279.75L174.375 237.75L173.625 237.75L173.625 279.75zM174.375 309.75L174.375 280.5L173.625 280.5L173.625 309.75zM174.375 326.25L174.375 310.5L173.625 310.5L173.625 326.25zM174.375 356.25L174.375 327L173.625 327L173.625 356.25zM174.375 386.25L174.375 357L173.625 357L173.625 386.25zM174.375 456L174.375 387L173.625 387L173.625 456zM174.375 498.75L174.375 456.75L173.625 456.75L173.625 498.75zM174.375 541.5L174.375 499.5L173.625 499.5L173.625 541.5z" stroke="none" fill="#000000" fill-rule="nonzero" fill-opacity="0.1490196" /><path id="112" transform="matrix(1 0 0 -1 0 612)" d="M286.875 528.6445L496.3961 528.6445" stroke="#000000" stroke-width="0.7017334" fill="none" /><path id="156" transform="matrix(1 0 0 -1 0 612)" d="M286.875 515.5566L500.4223 515.5566" stroke="#000000" stroke-width="0.7017334" fill="none" /><path id="163" transform="matrix(1 0 0 -1 0 612)" d="M286.875 502.4668L312.4512 502.4668" stroke="#000000" stroke-width="0.7017334" fill="none" /><path id="254" transform="matrix(1 0 0 -1 0 612)" d="M286.875 472.8066L459.5209 472.8066" stroke="#000000" stroke-width="0.7017334" fill="none" /><path id="268" transform="matrix(1 0 0 -1 0 612)" d="M286.875 459.7168L350.1166 459.7168" stroke="#000000" stroke-width="0.7017334" fill="none" /><path id="349" transform="matrix(1 0 0 -1 0 612)" d="M286.875 389.9668L482.0974 389.9668" stroke="#000000" stroke-width="0.7017334" fill="none" /><path id="464" transform="matrix(1 0 0 -1 0 612)" d="M286.875 373.0566L495.7364 373.0566" stroke="#000000" stroke-width="0.7017334" fill="none" /><path id="488" transform="matrix(1 0 0 -1 0 612)" d="M286.875 359.9668L397.735 359.9668" stroke="#000000" stroke-width="0.7017334" fill="none" /><path id="544" transform="matrix(1 0 0 -1 0 612)" d="M286.875 343.0566L508.323 343.0566" stroke="#000000" stroke-width="0.7017334" fill="none" /><path id="566" transform="matrix(1 0 0 -1 0 612)" d="M286.875 329.9668L393.0229 329.9668" stroke="#000000" stroke-width="0.7017334" fill="none" /><path id="625" transform="matrix(1 0 0 -1 0 612)" d="M286.875 313.4668L489.7048 313.4668" stroke="#000000" stroke-width="0.7017334" fill="none" /><path id="662" transform="matrix(1 0 0 -1 0 612)" d="M286.875 283.4668L395.5518 283.4668" stroke="#000000" stroke-width="0.7017334" fill="none" /><path id="745" transform="matrix(1 0 0 -1 0 612)" d="M286.875 266.8945L487.7728 266.8945" stroke="#000000" stroke-width="0.7017334" fill="none" /><path id="781" transform="matrix(1 0 0 -1 0 612)" d="M286.875 253.8066L475.2649 253.8066" stroke="#000000" stroke-width="0.7017334" fill="none" /><path id="793" transform="matrix(1 0 0 -1 0 612)" d="M286.875 240.7168L344.6401 240.7168" stroke="#000000" stroke-width="0.7017334" fill="none" /><path id="864" transform="matrix(1 0 0 -1 0 612)" d="M286.875 211.0566L503.4329 211.0566" stroke="#000000" stroke-width="0.7017334" fill="none" /><path id="869" transform="matrix(1 0 0 -1 0 612)" d="M286.875 197.9668L308.6135 197.9668" stroke="#000000" stroke-width="0.7017334" fill="none" /><path id="956" transform="matrix(1 0 0 -1 0 612)" d="M286.875 181.0566L510.3387 181.0566" stroke="#000000" stroke-width="0.7017334" fill="none" /><path id="996" transform="matrix(1 0 0 -1 0 612)" d="M286.875 167.9668L475.1234 167.9668" stroke="#000000" stroke-width="0.7017334" fill="none" /><path id="1085" transform="matrix(1 0 0 -1 0 612)" d="M286.875 138.3066L496.8044 138.3066" stroke="#000000" stroke-width="0.7017334" fill="none" /><path id="1091" transform="matrix(1 0 0 -1 0 612)" d="M286.875 125.2168L308.4354 125.2168" stroke="#000000" stroke-width="0.7017334" fill="none" /><path id="1185" transform="matrix(1 0 0 -1 0 612)" d="M286.875 108.3066L492.4797 108.3066" stroke="#000000" stroke-width="0.7017334" fill="none" /><path id="1207" transform="matrix(1 0 0 -1 0 612)" d="M286.875 95.2168L380.9076 95.2168" stroke="#000000" stroke-width="0.7017334" fill="none" /></g></g></g></svg>