<svg xmlns="http://www.w3.org/2000/svg" xmlns:xlink="http://www.w3.org/1999/xlink" id="body_15" preserveAspectRatio="xMinYMin meet" viewBox="0 0 1056 816"><defs><clipPath id="1"><path id="" clip-rule="evenodd" transform="matrix(1 0 0 1 0 0)" d="M0 612L0 0L0 0L792 0L792 0L792 612L792 612L0 612z" /></clipPath><clipPath id="2"><path id="" clip-rule="evenodd" transform="matrix(1 0 0 1 0 0)" d="M172.875 52.5L619.125 52.5L619.125 52.5L619.125 69.75L619.125 69.75L172.875 69.75L172.875 69.75L172.875 52.5z" /></clipPath><clipPath id="3"><path id="" clip-rule="evenodd" transform="matrix(1 0 0 1 0 0)" d="M172.875 69L619.125 69L619.125 69L619.125 554.25L619.125 554.25L172.875 554.25L172.875 554.25L172.875 69z" /></clipPath></defs><g transform="matrix(1.333333 0 0 1.333333 0 0)"><g clip-path="url(#1)"><g clip-path="url(#2)"><path id="10" transform="matrix(1 0 0 -1 0 612)" d="M173.625 558.75L618.375 558.75L618.375 541.5L173.625 541.5L173.625 558.75z" stroke="none" fill="#4DD0E1" fill-rule="nonzero" /><path id="11" transform="matrix(1 0 0 -1 0 612)" d="M173.625 542.25L618.375 542.25L618.375 541.5L173.625 541.5zM173.625 558.75L618.375 558.75L618.375 558L173.625 558zM618.375 558L618.375 542.25L617.625 542.25L617.625 558zM541.125 558L541.125 542.25L540.375 542.25L540.375 558zM512.625 558L512.625 542.25L511.875 542.25L511.875 558zM284.625 558L284.625 542.25L283.875 542.25L283.875 558zM208.125 558L208.125 542.25L207.375 542.25L207.375 558zM174.375 558L174.375 542.25L173.625 542.25L173.625 558z" stroke="none" fill="#000000" fill-rule="nonzero" fill-opacity="0.1490196" /></g><g clip-path="url(#3)"><path id="39" transform="matrix(1 0 0 -1 0 612)" d="M173.625 542.25L618.375 542.25L618.375 498.75L173.625 498.75L173.625 542.25z" stroke="none" fill="#E0F7FA" fill-rule="nonzero" /><path id="40" transform="matrix(1 0 0 -1 0 612)" d="M173.625 499.5L618.375 499.5L618.375 482.25L173.625 482.25L173.625 499.5z" stroke="none" fill="#FFFFFF" fill-rule="nonzero" /><path id="41" transform="matrix(1 0 0 -1 0 612)" d="M173.625 483L618.375 483L618.375 452.25L173.625 452.25L173.625 483z" stroke="none" fill="#E0F7FA" fill-rule="nonzero" /><path id="42" transform="matrix(1 0 0 -1 0 612)" d="M173.625 453L618.375 453L618.375 409.5L173.625 409.5L173.625 453z" stroke="none" fill="#FFFFFF" fill-rule="nonzero" /><path id="43" transform="matrix(1 0 0 -1 0 612)" d="M173.625 410.25L618.375 410.25L618.375 379.5L173.625 379.5L173.625 410.25z" stroke="none" fill="#E0F7FA" fill-rule="nonzero" /><path id="44" transform="matrix(1 0 0 -1 0 612)" d="M173.625 380.25L618.375 380.25L618.375 363L173.625 363L173.625 380.25z" stroke="none" fill="#FFFFFF" fill-rule="nonzero" /><path id="45" transform="matrix(1 0 0 -1 0 612)" d="M173.625 363.75L618.375 363.75L618.375 320.25L173.625 320.25L173.625 363.75z" stroke="none" fill="#E0F7FA" fill-rule="nonzero" /><path id="46" transform="matrix(1 0 0 -1 0 612)" d="M173.625 321L618.375 321L618.375 264L173.625 264L173.625 321z" stroke="none" fill="#FFFFFF" fill-rule="nonzero" /><path id="47" transform="matrix(1 0 0 -1 0 612)" d="M173.625 264.75L618.375 264.75L618.375 234L173.625 234L173.625 264.75z" stroke="none" fill="#E0F7FA" fill-rule="nonzero" /><path id="48" transform="matrix(1 0 0 -1 0 612)" d="M173.625 234.75L618.375 234.75L618.375 204L173.625 204L173.625 234.75z" stroke="none" fill="#FFFFFF" fill-rule="nonzero" /><path id="49" transform="matrix(1 0 0 -1 0 612)" d="M173.625 204.75L618.375 204.75L618.375 161.25L173.625 161.25L173.625 204.75z" stroke="none" fill="#E0F7FA" fill-rule="nonzero" /><path id="50" transform="matrix(1 0 0 -1 0 612)" d="M173.625 162L618.375 162L618.375 131.25L173.625 131.25L173.625 162z" stroke="none" fill="#FFFFFF" fill-rule="nonzero" /><path id="51" transform="matrix(1 0 0 -1 0 612)" d="M173.625 132L618.375 132L618.375 88.5L173.625 88.5L173.625 132z" stroke="none" fill="#E0F7FA" fill-rule="nonzero" /><path id="52" transform="matrix(1 0 0 -1 0 612)" d="M173.625 89.25L618.375 89.25L618.375 58.5L173.625 58.5L173.625 89.25z" stroke="none" fill="#FFFFFF" fill-rule="nonzero" /><path id="53" transform="matrix(1 0 0 -1 0 612)" d="M173.625 59.25L618.375 59.25L618.375 58.5L173.625 58.5zM173.625 89.25L618.375 89.25L618.375 88.5L173.625 88.5zM173.625 132L618.375 132L618.375 131.25L173.625 131.25zM173.625 162L618.375 162L618.375 161.25L173.625 161.25zM173.625 204.75L618.375 204.75L618.375 204L173.625 204zM173.625 234.75L618.375 234.75L618.375 234L173.625 234zM173.625 264.75L618.375 264.75L618.375 264L173.625 264zM173.625 321L618.375 321L618.375 320.25L173.625 320.25zM173.625 363.75L618.375 363.75L618.375 363L173.625 363zM173.625 380.25L618.375 380.25L618.375 379.5L173.625 379.5zM173.625 410.25L618.375 410.25L618.375 409.5L173.625 409.5zM173.625 453L618.375 453L618.375 452.25L173.625 452.25zM173.625 483L618.375 483L618.375 482.25L173.625 482.25zM173.625 499.5L618.375 499.5L618.375 498.75L173.625 498.75zM173.625 542.25L618.375 542.25L618.375 541.5L173.625 541.5zM618.375 88.5L618.375 59.25L617.625 59.25L617.625 88.5zM618.375 131.25L618.375 89.25L617.625 89.25L617.625 131.25zM618.375 161.25L618.375 132L617.625 132L617.625 161.25zM618.375 204L618.375 162L617.625 162L617.625 204zM618.375 234L618.375 204.75L617.625 204.75L617.625 234zM618.375 264L618.375 234.75L617.625 234.75L617.625 264zM618.375 320.25L618.375 264.75L617.625 264.75L617.625 320.25zM618.375 363L618.375 321L617.625 321L617.625 363zM618.375 379.5L618.375 363.75L617.625 363.75L617.625 379.5zM618.375 409.5L618.375 380.25L617.625 380.25L617.625 409.5zM618.375 452.25L618.375 410.25L617.625 410.25L617.625 452.25zM618.375 482.25L618.375 453L617.625 453L617.625 482.25zM618.375 498.75L618.375 483L617.625 483L617.625 498.75zM618.375 541.5L618.375 499.5L617.625 499.5L617.625 541.5zM541.125 88.5L541.125 59.25L540.375 59.25L540.375 88.5zM541.125 131.25L541.125 89.25L540.375 89.25L540.375 131.25zM541.125 161.25L541.125 132L540.375 132L540.375 161.25zM541.125 204L541.125 162L540.375 162L540.375 204zM541.125 234L541.125 204.75L540.375 204.75L540.375 234zM541.125 264L541.125 234.75L540.375 234.75L540.375 264zM541.125 320.25L541.125 264.75L540.375 264.75L540.375 320.25zM541.125 363L541.125 321L540.375 321L540.375 363zM541.125 379.5L541.125 363.75L540.375 363.75L540.375 379.5zM541.125 409.5L541.125 380.25L540.375 380.25L540.375 409.5zM541.125 452.25L541.125 410.25L540.375 410.25L540.375 452.25zM541.125 482.25L541.125 453L540.375 453L540.375 482.25zM541.125 498.75L541.125 483L540.375 483L540.375 498.75zM541.125 541.5L541.125 499.5L540.375 499.5L540.375 541.5zM512.625 88.5L512.625 59.25L511.875 59.25L511.875 88.5zM512.625 131.25L512.625 89.25L511.875 89.25L511.875 131.25zM512.625 161.25L512.625 132L511.875 132L511.875 161.25zM512.625 204L512.625 162L511.875 162L511.875 204zM512.625 234L512.625 204.75L511.875 204.75L511.875 234zM512.625 264L512.625 234.75L511.875 234.75L511.875 264zM512.625 320.25L512.625 264.75L511.875 264.75L511.875 320.25zM512.625 363L512.625 321L511.875 321L511.875 363zM512.625 379.5L512.625 363.75L511.875 363.75L511.875 379.5zM512.625 409.5L512.625 380.25L511.875 380.25L511.875 409.5zM512.625 452.25L512.625 410.25L511.875 410.25L511.875 452.25zM512.625 482.25L512.625 453L511.875 453L511.875 482.25zM512.625 498.75L512.625 483L511.875 483L511.875 498.75zM512.625 541.5L512.625 499.5L511.875 499.5L511.875 541.5zM284.625 88.5L284.625 59.25L283.875 59.25L283.875 88.5zM284.625 131.25L284.625 89.25L283.875 89.25L283.875 131.25zM284.625 161.25L284.625 132L283.875 132L283.875 161.25zM284.625 204L284.625 162L283.875 162L283.875 204zM284.625 234L284.625 204.75L283.875 204.75L283.875 234zM284.625 264L284.625 234.75L283.875 234.75L283.875 264zM284.625 320.25L284.625 264.75L283.875 264.75L283.875 320.25zM284.625 363L284.625 321L283.875 321L283.875 363zM284.625 379.5L284.625 363.75L283.875 363.75L283.875 379.5zM284.625 409.5L284.625 380.25L283.875 380.25L283.875 409.5zM284.625 452.25L284.625 410.25L283.875 410.25L283.875 452.25zM284.625 482.25L284.625 453L283.875 453L283.875 482.25zM284.625 498.75L284.625 483L283.875 483L283.875 498.75zM284.625 541.5L284.625 499.5L283.875 499.5L283.875 541.5zM208.125 88.5L208.125 59.25L207.375 59.25L207.375 88.5zM208.125 131.25L208.125 89.25L207.375 89.25L207.375 131.25zM208.125 161.25L208.125 132L207.375 132L207.375 161.25zM208.125 204L208.125 162L207.375 162L207.375 204zM208.125 234L208.125 204.75L207.375 204.75L207.375 234zM208.125 264L208.125 234.75L207.375 234.75L207.375 264zM208.125 320.25L208.125 264.75L207.375 264.75L207.375 320.25zM208.125 363L208.125 321L207.375 321L207.375 363zM208.125 379.5L208.125 363.75L207.375 363.75L207.375 379.5zM208.125 409.5L208.125 380.25L207.375 380.25L207.375 409.5zM208.125 452.25L208.125 410.25L207.375 410.25L207.375 452.25zM208.125 482.25L208.125 453L207.375 453L207.375 482.25zM208.125 498.75L208.125 483L207.375 483L207.375 498.75zM208.125 541.5L208.125 499.5L207.375 499.5L207.375 541.5zM174.375 88.5L174.375 59.25L173.625 59.25L173.625 88.5zM174.375 131.25L174.375 89.25L173.625 89.25L173.625 131.25zM174.375 161.25L174.375 132L173.625 132L173.625 161.25zM174.375 204L174.375 162L173.625 162L173.625 204zM174.375 234L174.375 204.75L173.625 204.75L173.625 234zM174.375 264L174.375 234.75L173.625 234.75L173.625 264zM174.375 320.25L174.375 264.75L173.625 264.75L173.625 320.25zM174.375 363L174.375 321L173.625 321L173.625 363zM174.375 379.5L174.375 363.75L173.625 363.75L173.625 379.5zM174.375 409.5L174.375 380.25L173.625 380.25L173.625 409.5zM174.375 452.25L174.375 410.25L173.625 410.25L173.625 452.25zM174.375 482.25L174.375 453L173.625 453L173.625 482.25zM174.375 498.75L174.375 483L173.625 483L173.625 498.75zM174.375 541.5L174.375 499.5L173.625 499.5L173.625 541.5z" stroke="none" fill="#000000" fill-rule="nonzero" fill-opacity="0.1490196" /><path id="100" transform="matrix(1 0 0 -1 0 612)" d="M286.875 502.4658L389.3631 502.4658" stroke="#000000" stroke-width="0.7017334" fill="none" /><path id="157" transform="matrix(1 0 0 -1 0 612)" d="M286.875 485.9658L465.9612 485.9658" stroke="#000000" stroke-width="0.7017334" fill="none" /><path id="225" transform="matrix(1 0 0 -1 0 612)" d="M286.875 469.0547L510.2285 469.0547" stroke="#000000" stroke-width="0.7017334" fill="none" /><path id="242" transform="matrix(1 0 0 -1 0 612)" d="M286.875 455.9658L371.8185 455.9658" stroke="#000000" stroke-width="0.7017334" fill="none" /><path id="315" transform="matrix(1 0 0 -1 0 612)" d="M286.875 439.3936L506.0035 439.3936" stroke="#000000" stroke-width="0.7017334" fill="none" /><path id="359" transform="matrix(1 0 0 -1 0 612)" d="M286.875 426.3047L500.8307 426.3047" stroke="#000000" stroke-width="0.7017334" fill="none" /><path id="398" transform="matrix(1 0 0 -1 0 612)" d="M286.875 413.2158L470.2177 413.2158" stroke="#000000" stroke-width="0.7017334" fill="none" /><path id="490" transform="matrix(1 0 0 -1 0 612)" d="M286.875 383.2158L449.3273 383.2158" stroke="#000000" stroke-width="0.7017334" fill="none" /><path id="543" transform="matrix(1 0 0 -1 0 612)" d="M286.875 366.7158L403.6721 366.7158" stroke="#000000" stroke-width="0.7017334" fill="none" /><path id="604" transform="matrix(1 0 0 -1 0 612)" d="M286.875 350.1436L476.3015 350.1436" stroke="#000000" stroke-width="0.7017334" fill="none" /><path id="649" transform="matrix(1 0 0 -1 0 612)" d="M286.875 337.0547L509.2863 337.0547" stroke="#000000" stroke-width="0.7017334" fill="none" /><path id="682" transform="matrix(1 0 0 -1 0 612)" d="M286.875 323.9658L443.1178 323.9658" stroke="#000000" stroke-width="0.7017334" fill="none" /><path id="755" transform="matrix(1 0 0 -1 0 612)" d="M286.875 280.8047L487.7676 280.8047" stroke="#000000" stroke-width="0.7017334" fill="none" /><path id="772" transform="matrix(1 0 0 -1 0 612)" d="M286.875 267.7158L372.5934 267.7158" stroke="#000000" stroke-width="0.7017334" fill="none" /><path id="867" transform="matrix(1 0 0 -1 0 612)" d="M286.875 250.8047L495.6683 250.8047" stroke="#000000" stroke-width="0.7017334" fill="none" /><path id="902" transform="matrix(1 0 0 -1 0 612)" d="M286.875 237.7158L455.8771 237.7158" stroke="#000000" stroke-width="0.7017334" fill="none" /><path id="971" transform="matrix(1 0 0 -1 0 612)" d="M286.875 207.7158L501.443 207.7158" stroke="#000000" stroke-width="0.7017334" fill="none" /><path id="1038" transform="matrix(1 0 0 -1 0 612)" d="M286.875 164.9658L444.3012 164.9658" stroke="#000000" stroke-width="0.7017334" fill="none" /><path id="1119" transform="matrix(1 0 0 -1 0 612)" d="M286.875 148.0547L488.1604 148.0547" stroke="#000000" stroke-width="0.7017334" fill="none" /><path id="1149" transform="matrix(1 0 0 -1 0 612)" d="M286.875 134.9658L428.1648 134.9658" stroke="#000000" stroke-width="0.7017334" fill="none" /><path id="1226" transform="matrix(1 0 0 -1 0 612)" d="M286.875 105.3047L465.5369 105.3047" stroke="#000000" stroke-width="0.7017334" fill="none" /><path id="1238" transform="matrix(1 0 0 -1 0 612)" d="M286.875 92.21582L344.6401 92.21582" stroke="#000000" stroke-width="0.7017334" fill="none" /><path id="1322" transform="matrix(1 0 0 -1 0 612)" d="M286.875 62.21582L477.7309 62.21582" stroke="#000000" stroke-width="0.7017334" fill="none" /></g></g></g></svg>