<svg xmlns="http://www.w3.org/2000/svg" xmlns:xlink="http://www.w3.org/1999/xlink" id="body_31" preserveAspectRatio="xMinYMin meet" viewBox="0 0 1056 816"><defs><clipPath id="1"><path id="" clip-rule="evenodd" transform="matrix(1 0 0 1 0 0)" d="M0 612L0 0L0 0L792 0L792 0L792 612L792 612L0 612z" /></clipPath><clipPath id="2"><path id="" clip-rule="evenodd" transform="matrix(1 0 0 1 0 0)" d="M172.875 52.5L619.125 52.5L619.125 52.5L619.125 69.75L619.125 69.75L172.875 69.75L172.875 69.75L172.875 52.5z" /></clipPath><clipPath id="3"><path id="" clip-rule="evenodd" transform="matrix(1 0 0 1 0 0)" d="M172.875 69L619.125 69L619.125 69L619.125 536.25L619.125 536.25L172.875 536.25L172.875 536.25L172.875 69z" /></clipPath></defs><g transform="matrix(1.333333 0 0 1.333333 0 0)"><g clip-path="url(#1)"><g clip-path="url(#2)"><path id="10" transform="matrix(1 0 0 -1 0 612)" d="M173.625 558.75L618.375 558.75L618.375 541.5L173.625 541.5L173.625 558.75z" stroke="none" fill="#4DD0E1" fill-rule="nonzero" /><path id="11" transform="matrix(1 0 0 -1 0 612)" d="M173.625 542.25L618.375 542.25L618.375 541.5L173.625 541.5zM173.625 558.75L618.375 558.75L618.375 558L173.625 558zM618.375 558L618.375 542.25L617.625 542.25L617.625 558zM541.125 558L541.125 542.25L540.375 542.25L540.375 558zM512.625 558L512.625 542.25L511.875 542.25L511.875 558zM284.625 558L284.625 542.25L283.875 542.25L283.875 558zM208.125 558L208.125 542.25L207.375 542.25L207.375 558zM174.375 558L174.375 542.25L173.625 542.25L173.625 558z" stroke="none" fill="#000000" fill-rule="nonzero" fill-opacity="0.1490196" /></g><g clip-path="url(#3)"><path id="39" transform="matrix(1 0 0 -1 0 612)" d="M173.625 542.25L618.375 542.25L618.375 485.25L173.625 485.25L173.625 542.25z" stroke="none" fill="#FFFFFF" fill-rule="nonzero" /><path id="40" transform="matrix(1 0 0 -1 0 612)" d="M173.625 486L618.375 486L618.375 442.5L173.625 442.5L173.625 486z" stroke="none" fill="#E0F7FA" fill-rule="nonzero" /><path id="41" transform="matrix(1 0 0 -1 0 612)" d="M173.625 443.25L618.375 443.25L618.375 412.5L173.625 412.5L173.625 443.25z" stroke="none" fill="#FFFFFF" fill-rule="nonzero" /><path id="42" transform="matrix(1 0 0 -1 0 612)" d="M173.625 413.25L618.375 413.25L618.375 369.75L173.625 369.75L173.625 413.25z" stroke="none" fill="#E0F7FA" fill-rule="nonzero" /><path id="43" transform="matrix(1 0 0 -1 0 612)" d="M173.625 370.5L618.375 370.5L618.375 353.25L173.625 353.25L173.625 370.5z" stroke="none" fill="#FFFFFF" fill-rule="nonzero" /><path id="44" transform="matrix(1 0 0 -1 0 612)" d="M173.625 354L618.375 354L618.375 308.25L173.625 308.25L173.625 354z" stroke="none" fill="#E0F7FA" fill-rule="nonzero" /><path id="45" transform="matrix(1 0 0 -1 0 612)" d="M173.625 309L618.375 309L618.375 265.5L173.625 265.5L173.625 309z" stroke="none" fill="#FFFFFF" fill-rule="nonzero" /><path id="46" transform="matrix(1 0 0 -1 0 612)" d="M173.625 266.25L618.375 266.25L618.375 222.75L173.625 222.75L173.625 266.25z" stroke="none" fill="#E0F7FA" fill-rule="nonzero" /><path id="47" transform="matrix(1 0 0 -1 0 612)" d="M173.625 223.5L618.375 223.5L618.375 192.75L173.625 192.75L173.625 223.5z" stroke="none" fill="#FFFFFF" fill-rule="nonzero" /><path id="48" transform="matrix(1 0 0 -1 0 612)" d="M173.625 193.5L618.375 193.5L618.375 162.75L173.625 162.75L173.625 193.5z" stroke="none" fill="#E0F7FA" fill-rule="nonzero" /><path id="49" transform="matrix(1 0 0 -1 0 612)" d="M173.625 163.5L618.375 163.5L618.375 106.5L173.625 106.5L173.625 163.5z" stroke="none" fill="#FFFFFF" fill-rule="nonzero" /><path id="50" transform="matrix(1 0 0 -1 0 612)" d="M173.625 107.25L618.375 107.25L618.375 76.5L173.625 76.5L173.625 107.25z" stroke="none" fill="#E0F7FA" fill-rule="nonzero" /><path id="51" transform="matrix(1 0 0 -1 0 612)" d="M173.625 77.25L618.375 77.25L618.375 76.5L173.625 76.5zM173.625 107.25L618.375 107.25L618.375 106.5L173.625 106.5zM173.625 163.5L618.375 163.5L618.375 162.75L173.625 162.75zM173.625 193.5L618.375 193.5L618.375 192.75L173.625 192.75zM173.625 223.5L618.375 223.5L618.375 222.75L173.625 222.75zM173.625 266.25L618.375 266.25L618.375 265.5L173.625 265.5zM173.625 309L618.375 309L618.375 308.25L173.625 308.25zM173.625 354L618.375 354L618.375 353.25L173.625 353.25zM173.625 370.5L618.375 370.5L618.375 369.75L173.625 369.75zM173.625 413.25L618.375 413.25L618.375 412.5L173.625 412.5zM173.625 443.25L618.375 443.25L618.375 442.5L173.625 442.5zM173.625 486L618.375 486L618.375 485.25L173.625 485.25zM173.625 542.25L618.375 542.25L618.375 541.5L173.625 541.5zM618.375 106.5L618.375 77.25L617.625 77.25L617.625 106.5zM618.375 162.75L618.375 107.25L617.625 107.25L617.625 162.75zM618.375 192.75L618.375 163.5L617.625 163.5L617.625 192.75zM618.375 222.75L618.375 193.5L617.625 193.5L617.625 222.75zM618.375 265.5L618.375 223.5L617.625 223.5L617.625 265.5zM618.375 308.25L618.375 266.25L617.625 266.25L617.625 308.25zM618.375 353.25L618.375 309L617.625 309L617.625 353.25zM618.375 369.75L618.375 354L617.625 354L617.625 369.75zM618.375 412.5L618.375 370.5L617.625 370.5L617.625 412.5zM618.375 442.5L618.375 413.25L617.625 413.25L617.625 442.5zM618.375 485.25L618.375 443.25L617.625 443.25L617.625 485.25zM618.375 541.5L618.375 486L617.625 486L617.625 541.5zM541.125 106.5L541.125 77.25L540.375 77.25L540.375 106.5zM541.125 162.75L541.125 107.25L540.375 107.25L540.375 162.75zM541.125 192.75L541.125 163.5L540.375 163.5L540.375 192.75zM541.125 222.75L541.125 193.5L540.375 193.5L540.375 222.75zM541.125 265.5L541.125 223.5L540.375 223.5L540.375 265.5zM541.125 308.25L541.125 266.25L540.375 266.25L540.375 308.25zM541.125 353.25L541.125 309L540.375 309L540.375 353.25zM541.125 369.75L541.125 354L540.375 354L540.375 369.75zM541.125 412.5L541.125 370.5L540.375 370.5L540.375 412.5zM541.125 442.5L541.125 413.25L540.375 413.25L540.375 442.5zM541.125 485.25L541.125 443.25L540.375 443.25L540.375 485.25zM541.125 541.5L541.125 486L540.375 486L540.375 541.5zM512.625 106.5L512.625 77.25L511.875 77.25L511.875 106.5zM512.625 162.75L512.625 107.25L511.875 107.25L511.875 162.75zM512.625 192.75L512.625 163.5L511.875 163.5L511.875 192.75zM512.625 222.75L512.625 193.5L511.875 193.5L511.875 222.75zM512.625 265.5L512.625 223.5L511.875 223.5L511.875 265.5zM512.625 308.25L512.625 266.25L511.875 266.25L511.875 308.25zM512.625 353.25L512.625 309L511.875 309L511.875 353.25zM512.625 369.75L512.625 354L511.875 354L511.875 369.75zM512.625 412.5L512.625 370.5L511.875 370.5L511.875 412.5zM512.625 442.5L512.625 413.25L511.875 413.25L511.875 442.5zM512.625 485.25L512.625 443.25L511.875 443.25L511.875 485.25zM512.625 541.5L512.625 486L511.875 486L511.875 541.5zM284.625 106.5L284.625 77.25L283.875 77.25L283.875 106.5zM284.625 162.75L284.625 107.25L283.875 107.25L283.875 162.75zM284.625 192.75L284.625 163.5L283.875 163.5L283.875 192.75zM284.625 222.75L284.625 193.5L283.875 193.5L283.875 222.75zM284.625 265.5L284.625 223.5L283.875 223.5L283.875 265.5zM284.625 308.25L284.625 266.25L283.875 266.25L283.875 308.25zM284.625 353.25L284.625 309L283.875 309L283.875 353.25zM284.625 369.75L284.625 354L283.875 354L283.875 369.75zM284.625 412.5L284.625 370.5L283.875 370.5L283.875 412.5zM284.625 442.5L284.625 413.25L283.875 413.25L283.875 442.5zM284.625 485.25L284.625 443.25L283.875 443.25L283.875 485.25zM284.625 541.5L284.625 486L283.875 486L283.875 541.5zM208.125 106.5L208.125 77.25L207.375 77.25L207.375 106.5zM208.125 162.75L208.125 107.25L207.375 107.25L207.375 162.75zM208.125 192.75L208.125 163.5L207.375 163.5L207.375 192.75zM208.125 222.75L208.125 193.5L207.375 193.5L207.375 222.75zM208.125 265.5L208.125 223.5L207.375 223.5L207.375 265.5zM208.125 308.25L208.125 266.25L207.375 266.25L207.375 308.25zM208.125 353.25L208.125 309L207.375 309L207.375 353.25zM208.125 369.75L208.125 354L207.375 354L207.375 369.75zM208.125 412.5L208.125 370.5L207.375 370.5L207.375 412.5zM208.125 442.5L208.125 413.25L207.375 413.25L207.375 442.5zM208.125 485.25L208.125 443.25L207.375 443.25L207.375 485.25zM208.125 541.5L208.125 486L207.375 486L207.375 541.5zM174.375 106.5L174.375 77.25L173.625 77.25L173.625 106.5zM174.375 162.75L174.375 107.25L173.625 107.25L173.625 162.75zM174.375 192.75L174.375 163.5L173.625 163.5L173.625 192.75zM174.375 222.75L174.375 193.5L173.625 193.5L173.625 222.75zM174.375 265.5L174.375 223.5L173.625 223.5L173.625 265.5zM174.375 308.25L174.375 266.25L173.625 266.25L173.625 308.25zM174.375 353.25L174.375 309L173.625 309L173.625 353.25zM174.375 369.75L174.375 354L173.625 354L173.625 369.75zM174.375 412.5L174.375 370.5L173.625 370.5L173.625 412.5zM174.375 442.5L174.375 413.25L173.625 413.25L173.625 442.5zM174.375 485.25L174.375 443.25L173.625 443.25L173.625 485.25zM174.375 541.5L174.375 486L173.625 486L173.625 541.5z" stroke="none" fill="#000000" fill-rule="nonzero" fill-opacity="0.1490196" /><path id="105" transform="matrix(1 0 0 -1 0 612)" d="M286.875 515.1445L471.9927 515.1445" stroke="#000000" stroke-width="0.7017334" fill="none" /><path id="150" transform="matrix(1 0 0 -1 0 612)" d="M286.875 502.0566L493.7622 502.0566" stroke="#000000" stroke-width="0.7017334" fill="none" /><path id="156" transform="matrix(1 0 0 -1 0 612)" d="M286.875 488.9668L312.0272 488.9668" stroke="#000000" stroke-width="0.7017334" fill="none" /><path id="250" transform="matrix(1 0 0 -1 0 612)" d="M286.875 472.3945L481.9926 472.3945" stroke="#000000" stroke-width="0.7017334" fill="none" /><path id="289" transform="matrix(1 0 0 -1 0 612)" d="M286.875 459.3066L491.1133 459.3066" stroke="#000000" stroke-width="0.7017334" fill="none" /><path id="317" transform="matrix(1 0 0 -1 0 612)" d="M286.875 446.2168L417.2484 446.2168" stroke="#000000" stroke-width="0.7017334" fill="none" /><path id="410" transform="matrix(1 0 0 -1 0 612)" d="M286.875 429.3066L499.3176 429.3066" stroke="#000000" stroke-width="0.7017334" fill="none" /><path id="436" transform="matrix(1 0 0 -1 0 612)" d="M286.875 416.2168L410.3057 416.2168" stroke="#000000" stroke-width="0.7017334" fill="none" /><path id="491" transform="matrix(1 0 0 -1 0 612)" d="M286.875 373.4668L483.8251 373.4668" stroke="#000000" stroke-width="0.7017334" fill="none" /><path id="566" transform="matrix(1 0 0 -1 0 612)" d="M286.875 356.9668L418.6306 356.9668" stroke="#000000" stroke-width="0.7017334" fill="none" /><path id="639" transform="matrix(1 0 0 -1 0 612)" d="M286.875 325.0566L472.5266 325.0566" stroke="#000000" stroke-width="0.7017334" fill="none" /><path id="651" transform="matrix(1 0 0 -1 0 612)" d="M286.875 311.9668L337.2212 311.9668" stroke="#000000" stroke-width="0.7017334" fill="none" /><path id="707" transform="matrix(1 0 0 -1 0 612)" d="M286.875 282.3066L442.1125 282.3066" stroke="#000000" stroke-width="0.7017334" fill="none" /><path id="721" transform="matrix(1 0 0 -1 0 612)" d="M286.875 269.2168L354.6559 269.2168" stroke="#000000" stroke-width="0.7017334" fill="none" /><path id="806" transform="matrix(1 0 0 -1 0 612)" d="M286.875 252.6445L463.6522 252.6445" stroke="#000000" stroke-width="0.7017334" fill="none" /><path id="852" transform="matrix(1 0 0 -1 0 612)" d="M286.875 239.5566L504.773 239.5566" stroke="#000000" stroke-width="0.7017334" fill="none" /><path id="862" transform="matrix(1 0 0 -1 0 612)" d="M286.875 226.4668L330.9227 226.4668" stroke="#000000" stroke-width="0.7017334" fill="none" /><path id="950" transform="matrix(1 0 0 -1 0 612)" d="M286.875 209.5566L506.3856 209.5566" stroke="#000000" stroke-width="0.7017334" fill="none" /><path id="993" transform="matrix(1 0 0 -1 0 612)" d="M286.875 196.4668L504.5846 196.4668" stroke="#000000" stroke-width="0.7017334" fill="none" /><path id="1061" transform="matrix(1 0 0 -1 0 612)" d="M286.875 179.5566L493.9666 179.5566" stroke="#000000" stroke-width="0.7017334" fill="none" /><path id="1066" transform="matrix(1 0 0 -1 0 612)" d="M286.875 166.4668L308.6135 166.4668" stroke="#000000" stroke-width="0.7017334" fill="none" /><path id="1139" transform="matrix(1 0 0 -1 0 612)" d="M286.875 123.3066L479.8094 123.3066" stroke="#000000" stroke-width="0.7017334" fill="none" /><path id="1182" transform="matrix(1 0 0 -1 0 612)" d="M286.875 110.2168L506.4171 110.2168" stroke="#000000" stroke-width="0.7017334" fill="none" /><path id="1287" transform="matrix(1 0 0 -1 0 612)" d="M286.875 93.30664L509.925 93.30664" stroke="#000000" stroke-width="0.7017334" fill="none" /><path id="1325" transform="matrix(1 0 0 -1 0 612)" d="M286.875 80.2168L480.579 80.2168" stroke="#000000" stroke-width="0.7017334" fill="none" /></g></g></g></svg>