<svg xmlns="http://www.w3.org/2000/svg" xmlns:xlink="http://www.w3.org/1999/xlink" id="body_36" preserveAspectRatio="xMinYMin meet" viewBox="0 0 1056 816"><defs><clipPath id="1"><path id="" clip-rule="evenodd" transform="matrix(1 0 0 1 0 0)" d="M0 612L0 0L0 0L792 0L792 0L792 612L792 612L0 612z" /></clipPath><clipPath id="2"><path id="" clip-rule="evenodd" transform="matrix(1 0 0 1 0 0)" d="M172.875 52.5L619.125 52.5L619.125 52.5L619.125 69.75L619.125 69.75L172.875 69.75L172.875 69.75L172.875 52.5z" /></clipPath><clipPath id="3"><path id="" clip-rule="evenodd" transform="matrix(1 0 0 1 0 0)" d="M172.875 69L619.125 69L619.125 69L619.125 549.75L619.125 549.75L172.875 549.75L172.875 549.75L172.875 69z" /></clipPath></defs><g transform="matrix(1.333333 0 0 1.333333 0 0)"><g clip-path="url(#1)"><g clip-path="url(#2)"><path id="10" transform="matrix(1 0 0 -1 0 612)" d="M173.625 558.75L618.375 558.75L618.375 541.5L173.625 541.5L173.625 558.75z" stroke="none" fill="#4DD0E1" fill-rule="nonzero" /><path id="11" transform="matrix(1 0 0 -1 0 612)" d="M173.625 542.25L618.375 542.25L618.375 541.5L173.625 541.5zM173.625 558.75L618.375 558.75L618.375 558L173.625 558zM618.375 558L618.375 542.25L617.625 542.25L617.625 558zM541.125 558L541.125 542.25L540.375 542.25L540.375 558zM512.625 558L512.625 542.25L511.875 542.25L511.875 558zM284.625 558L284.625 542.25L283.875 542.25L283.875 558zM208.125 558L208.125 542.25L207.375 542.25L207.375 558zM174.375 558L174.375 542.25L173.625 542.25L173.625 558z" stroke="none" fill="#000000" fill-rule="nonzero" fill-opacity="0.1490196" /></g><g clip-path="url(#3)"><path id="39" transform="matrix(1 0 0 -1 0 612)" d="M173.625 542.25L618.375 542.25L618.375 498.75L173.625 498.75L173.625 542.25z" stroke="none" fill="#FFFFFF" fill-rule="nonzero" /><path id="40" transform="matrix(1 0 0 -1 0 612)" d="M173.625 499.5L618.375 499.5L618.375 482.25L173.625 482.25L173.625 499.5z" stroke="none" fill="#E0F7FA" fill-rule="nonzero" /><path id="41" transform="matrix(1 0 0 -1 0 612)" d="M173.625 483L618.375 483L618.375 452.25L173.625 452.25L173.625 483z" stroke="none" fill="#FFFFFF" fill-rule="nonzero" /><path id="42" transform="matrix(1 0 0 -1 0 612)" d="M173.625 453L618.375 453L618.375 396L173.625 396L173.625 453z" stroke="none" fill="#E0F7FA" fill-rule="nonzero" /><path id="43" transform="matrix(1 0 0 -1 0 612)" d="M173.625 396.75L618.375 396.75L618.375 339.75L173.625 339.75L173.625 396.75z" stroke="none" fill="#FFFFFF" fill-rule="nonzero" /><path id="44" transform="matrix(1 0 0 -1 0 612)" d="M173.625 340.5L618.375 340.5L618.375 309.75L173.625 309.75L173.625 340.5z" stroke="none" fill="#E0F7FA" fill-rule="nonzero" /><path id="45" transform="matrix(1 0 0 -1 0 612)" d="M173.625 310.5L618.375 310.5L618.375 252L173.625 252L173.625 310.5z" stroke="none" fill="#FFFFFF" fill-rule="nonzero" /><path id="46" transform="matrix(1 0 0 -1 0 612)" d="M173.625 252.75L618.375 252.75L618.375 222L173.625 222L173.625 252.75z" stroke="none" fill="#E0F7FA" fill-rule="nonzero" /><path id="47" transform="matrix(1 0 0 -1 0 612)" d="M173.625 222.75L618.375 222.75L618.375 165.75L173.625 165.75L173.625 222.75z" stroke="none" fill="#FFFFFF" fill-rule="nonzero" /><path id="48" transform="matrix(1 0 0 -1 0 612)" d="M173.625 166.5L618.375 166.5L618.375 108L173.625 108L173.625 166.5z" stroke="none" fill="#E0F7FA" fill-rule="nonzero" /><path id="49" transform="matrix(1 0 0 -1 0 612)" d="M173.625 108.75L618.375 108.75L618.375 63L173.625 63L173.625 108.75z" stroke="none" fill="#FFFFFF" fill-rule="nonzero" /><path id="50" transform="matrix(1 0 0 -1 0 612)" d="M173.625 63.75L618.375 63.75L618.375 63L173.625 63zM173.625 108.75L618.375 108.75L618.375 108L173.625 108zM173.625 166.5L618.375 166.5L618.375 165.75L173.625 165.75zM173.625 222.75L618.375 222.75L618.375 222L173.625 222zM173.625 252.75L618.375 252.75L618.375 252L173.625 252zM173.625 310.5L618.375 310.5L618.375 309.75L173.625 309.75zM173.625 340.5L618.375 340.5L618.375 339.75L173.625 339.75zM173.625 396.75L618.375 396.75L618.375 396L173.625 396zM173.625 453L618.375 453L618.375 452.25L173.625 452.25zM173.625 483L618.375 483L618.375 482.25L173.625 482.25zM173.625 499.5L618.375 499.5L618.375 498.75L173.625 498.75zM173.625 542.25L618.375 542.25L618.375 541.5L173.625 541.5zM618.375 108L618.375 63.75L617.625 63.75L617.625 108zM618.375 165.75L618.375 108.75L617.625 108.75L617.625 165.75zM618.375 222L618.375 166.5L617.625 166.5L617.625 222zM618.375 252L618.375 222.75L617.625 222.75L617.625 252zM618.375 309.75L618.375 252.75L617.625 252.75L617.625 309.75zM618.375 339.75L618.375 310.5L617.625 310.5L617.625 339.75zM618.375 396L618.375 340.5L617.625 340.5L617.625 396zM618.375 452.25L618.375 396.75L617.625 396.75L617.625 452.25zM618.375 482.25L618.375 453L617.625 453L617.625 482.25zM618.375 498.75L618.375 483L617.625 483L617.625 498.75zM618.375 541.5L618.375 499.5L617.625 499.5L617.625 541.5zM541.125 108L541.125 63.75L540.375 63.75L540.375 108zM541.125 165.75L541.125 108.75L540.375 108.75L540.375 165.75zM541.125 222L541.125 166.5L540.375 166.5L540.375 222zM541.125 252L541.125 222.75L540.375 222.75L540.375 252zM541.125 309.75L541.125 252.75L540.375 252.75L540.375 309.75zM541.125 339.75L541.125 310.5L540.375 310.5L540.375 339.75zM541.125 396L541.125 340.5L540.375 340.5L540.375 396zM541.125 452.25L541.125 396.75L540.375 396.75L540.375 452.25zM541.125 482.25L541.125 453L540.375 453L540.375 482.25zM541.125 498.75L541.125 483L540.375 483L540.375 498.75zM541.125 541.5L541.125 499.5L540.375 499.5L540.375 541.5zM512.625 108L512.625 63.75L511.875 63.75L511.875 108zM512.625 165.75L512.625 108.75L511.875 108.75L511.875 165.75zM512.625 222L512.625 166.5L511.875 166.5L511.875 222zM512.625 252L512.625 222.75L511.875 222.75L511.875 252zM512.625 309.75L512.625 252.75L511.875 252.75L511.875 309.75zM512.625 339.75L512.625 310.5L511.875 310.5L511.875 339.75zM512.625 396L512.625 340.5L511.875 340.5L511.875 396zM512.625 452.25L512.625 396.75L511.875 396.75L511.875 452.25zM512.625 482.25L512.625 453L511.875 453L511.875 482.25zM512.625 498.75L512.625 483L511.875 483L511.875 498.75zM512.625 541.5L512.625 499.5L511.875 499.5L511.875 541.5zM284.625 108L284.625 63.75L283.875 63.75L283.875 108zM284.625 165.75L284.625 108.75L283.875 108.75L283.875 165.75zM284.625 222L284.625 166.5L283.875 166.5L283.875 222zM284.625 252L284.625 222.75L283.875 222.75L283.875 252zM284.625 309.75L284.625 252.75L283.875 252.75L283.875 309.75zM284.625 339.75L284.625 310.5L283.875 310.5L283.875 339.75zM284.625 396L284.625 340.5L283.875 340.5L283.875 396zM284.625 452.25L284.625 396.75L283.875 396.75L283.875 452.25zM284.625 482.25L284.625 453L283.875 453L283.875 482.25zM284.625 498.75L284.625 483L283.875 483L283.875 498.75zM284.625 541.5L284.625 499.5L283.875 499.5L283.875 541.5zM208.125 108L208.125 63.75L207.375 63.75L207.375 108zM208.125 165.75L208.125 108.75L207.375 108.75L207.375 165.75zM208.125 222L208.125 166.5L207.375 166.5L207.375 222zM208.125 252L208.125 222.75L207.375 222.75L207.375 252zM208.125 309.75L208.125 252.75L207.375 252.75L207.375 309.75zM208.125 339.75L208.125 310.5L207.375 310.5L207.375 339.75zM208.125 396L208.125 340.5L207.375 340.5L207.375 396zM208.125 452.25L208.125 396.75L207.375 396.75L207.375 452.25zM208.125 482.25L208.125 453L207.375 453L207.375 482.25zM208.125 498.75L208.125 483L207.375 483L207.375 498.75zM208.125 541.5L208.125 499.5L207.375 499.5L207.375 541.5zM174.375 108L174.375 63.75L173.625 63.75L173.625 108zM174.375 165.75L174.375 108.75L173.625 108.75L173.625 165.75zM174.375 222L174.375 166.5L173.625 166.5L173.625 222zM174.375 252L174.375 222.75L173.625 222.75L173.625 252zM174.375 309.75L174.375 252.75L173.625 252.75L173.625 309.75zM174.375 339.75L174.375 310.5L173.625 310.5L173.625 339.75zM174.375 396L174.375 340.5L173.625 340.5L173.625 396zM174.375 452.25L174.375 396.75L173.625 396.75L173.625 452.25zM174.375 482.25L174.375 453L173.625 453L173.625 482.25zM174.375 498.75L174.375 483L173.625 483L173.625 498.75zM174.375 541.5L174.375 499.5L173.625 499.5L173.625 541.5z" stroke="none" fill="#000000" fill-rule="nonzero" fill-opacity="0.1490196" /><path id="98" transform="matrix(1 0 0 -1 0 612)" d="M286.875 502.4668L449.076 502.4668" stroke="#000000" stroke-width="0.7017334" fill="none" /><path id="176" transform="matrix(1 0 0 -1 0 612)" d="M286.875 485.9668L410.0494 485.9668" stroke="#000000" stroke-width="0.7017334" fill="none" /><path id="236" transform="matrix(1 0 0 -1 0 612)" d="M286.875 455.9668L508.1031 455.9668" stroke="#000000" stroke-width="0.7017334" fill="none" /><path id="307" transform="matrix(1 0 0 -1 0 612)" d="M286.875 438.9844L479.8252 438.9844" stroke="#000000" stroke-width="0.7017334" fill="none" /><path id="337" transform="matrix(1 0 0 -1 0 612)" d="M286.875 425.8945L477.511 425.8945" stroke="#000000" stroke-width="0.7017334" fill="none" /><path id="369" transform="matrix(1 0 0 -1 0 612)" d="M286.875 412.8066L478.2856 412.8066" stroke="#000000" stroke-width="0.7017334" fill="none" /><path id="379" transform="matrix(1 0 0 -1 0 612)" d="M286.875 399.7168L338.2369 399.7168" stroke="#000000" stroke-width="0.7017334" fill="none" /><path id="462" transform="matrix(1 0 0 -1 0 612)" d="M286.875 356.5566L494.354 356.5566" stroke="#000000" stroke-width="0.7017334" fill="none" /><path id="503" transform="matrix(1 0 0 -1 0 612)" d="M286.875 343.4668L493.0452 343.4668" stroke="#000000" stroke-width="0.7017334" fill="none" /><path id="588" transform="matrix(1 0 0 -1 0 612)" d="M286.875 326.5566L487.2336 326.5566" stroke="#000000" stroke-width="0.7017334" fill="none" /><path id="606" transform="matrix(1 0 0 -1 0 612)" d="M286.875 313.4668L368.6873 313.4668" stroke="#000000" stroke-width="0.7017334" fill="none" /><path id="717" transform="matrix(1 0 0 -1 0 612)" d="M286.875 268.8066L489.8777 268.8066" stroke="#000000" stroke-width="0.7017334" fill="none" /><path id="730" transform="matrix(1 0 0 -1 0 612)" d="M286.875 255.7168L340.6348 255.7168" stroke="#000000" stroke-width="0.7017334" fill="none" /><path id="787" transform="matrix(1 0 0 -1 0 612)" d="M286.875 238.8066L492.9141 238.8066" stroke="#000000" stroke-width="0.7017334" fill="none" /><path id="816" transform="matrix(1 0 0 -1 0 612)" d="M286.875 225.7168L427.6045 225.7168" stroke="#000000" stroke-width="0.7017334" fill="none" /><path id="873" transform="matrix(1 0 0 -1 0 612)" d="M286.875 182.5566L495.485 182.5566" stroke="#000000" stroke-width="0.7017334" fill="none" /><path id="897" transform="matrix(1 0 0 -1 0 612)" d="M286.875 169.4668L401.421 169.4668" stroke="#000000" stroke-width="0.7017334" fill="none" /><path id="1008" transform="matrix(1 0 0 -1 0 612)" d="M286.875 152.6484L475.605 152.6484" stroke="#000000" stroke-width="0.7017334" fill="none" /><path id="1050" transform="matrix(1 0 0 -1 0 612)" d="M286.875 139.5605L501.4066 139.5605" stroke="#000000" stroke-width="0.7017334" fill="none" /><path id="1092" transform="matrix(1 0 0 -1 0 612)" d="M286.875 126.4707L498.0818 126.4707" stroke="#000000" stroke-width="0.7017334" fill="none" /><path id="1107" transform="matrix(1 0 0 -1 0 612)" d="M286.875 111.7168L358.478 111.7168" stroke="#000000" stroke-width="0.7017334" fill="none" /><path id="1109" transform="matrix(1 0 0 -1 0 612)" d="M358.478 111.793L369.2007 111.793" stroke="#000000" stroke-width="0.7855225" fill="none" /><path id="1208" transform="matrix(1 0 0 -1 0 612)" d="M286.875 92.89453L487.4535 92.89453" stroke="#000000" stroke-width="0.7017334" fill="none" /><path id="1245" transform="matrix(1 0 0 -1 0 612)" d="M286.875 79.80664L474.0816 79.80664" stroke="#000000" stroke-width="0.7017334" fill="none" /><path id="1253" transform="matrix(1 0 0 -1 0 612)" d="M286.875 66.7168L321.2733 66.7168" stroke="#000000" stroke-width="0.7017334" fill="none" /></g></g></g></svg>