<svg xmlns="http://www.w3.org/2000/svg" xmlns:xlink="http://www.w3.org/1999/xlink" id="body_28" preserveAspectRatio="xMinYMin meet" viewBox="0 0 1056 816"><defs><clipPath id="1"><path id="" clip-rule="evenodd" transform="matrix(1 0 0 1 0 0)" d="M0 612L0 0L0 0L792 0L792 0L792 612L792 612L0 612z" /></clipPath><clipPath id="2"><path id="" clip-rule="evenodd" transform="matrix(1 0 0 1 0 0)" d="M172.875 52.5L619.125 52.5L619.125 52.5L619.125 69.75L619.125 69.75L172.875 69.75L172.875 69.75L172.875 52.5z" /></clipPath><clipPath id="3"><path id="" clip-rule="evenodd" transform="matrix(1 0 0 1 0 0)" d="M172.875 69L619.125 69L619.125 69L619.125 549.75L619.125 549.75L172.875 549.75L172.875 549.75L172.875 69z" /></clipPath></defs><g transform="matrix(1.333333 0 0 1.333333 0 0)"><g clip-path="url(#1)"><g clip-path="url(#2)"><path id="10" transform="matrix(1 0 0 -1 0 612)" d="M173.625 558.75L618.375 558.75L618.375 541.5L173.625 541.5L173.625 558.75z" stroke="none" fill="#4DD0E1" fill-rule="nonzero" /><path id="11" transform="matrix(1 0 0 -1 0 612)" d="M173.625 542.25L618.375 542.25L618.375 541.5L173.625 541.5zM173.625 558.75L618.375 558.75L618.375 558L173.625 558zM618.375 558L618.375 542.25L617.625 542.25L617.625 558zM541.125 558L541.125 542.25L540.375 542.25L540.375 558zM512.625 558L512.625 542.25L511.875 542.25L511.875 558zM284.625 558L284.625 542.25L283.875 542.25L283.875 558zM208.125 558L208.125 542.25L207.375 542.25L207.375 558zM174.375 558L174.375 542.25L173.625 542.25L173.625 558z" stroke="none" fill="#000000" fill-rule="nonzero" fill-opacity="0.1490196" /></g><g clip-path="url(#3)"><path id="39" transform="matrix(1 0 0 -1 0 612)" d="M173.625 542.25L618.375 542.25L618.375 511.5L173.625 511.5L173.625 542.25z" stroke="none" fill="#E0F7FA" fill-rule="nonzero" /><path id="40" transform="matrix(1 0 0 -1 0 612)" d="M173.625 512.25L618.375 512.25L618.375 465L173.625 465L173.625 512.25z" stroke="none" fill="#FFFFFF" fill-rule="nonzero" /><path id="41" transform="matrix(1 0 0 -1 0 612)" d="M173.625 465.75L618.375 465.75L618.375 407.25L173.625 407.25L173.625 465.75z" stroke="none" fill="#E0F7FA" fill-rule="nonzero" /><path id="42" transform="matrix(1 0 0 -1 0 612)" d="M173.625 408L618.375 408L618.375 364.5L173.625 364.5L173.625 408z" stroke="none" fill="#FFFFFF" fill-rule="nonzero" /><path id="43" transform="matrix(1 0 0 -1 0 612)" d="M173.625 365.25L618.375 365.25L618.375 306.75L173.625 306.75L173.625 365.25z" stroke="none" fill="#E0F7FA" fill-rule="nonzero" /><path id="44" transform="matrix(1 0 0 -1 0 612)" d="M173.625 307.5L618.375 307.5L618.375 264L173.625 264L173.625 307.5z" stroke="none" fill="#FFFFFF" fill-rule="nonzero" /><path id="45" transform="matrix(1 0 0 -1 0 612)" d="M173.625 264.75L618.375 264.75L618.375 207.75L173.625 207.75L173.625 264.75z" stroke="none" fill="#E0F7FA" fill-rule="nonzero" /><path id="46" transform="matrix(1 0 0 -1 0 612)" d="M173.625 208.5L618.375 208.5L618.375 165L173.625 165L173.625 208.5z" stroke="none" fill="#FFFFFF" fill-rule="nonzero" /><path id="47" transform="matrix(1 0 0 -1 0 612)" d="M173.625 165.75L618.375 165.75L618.375 122.25L173.625 122.25L173.625 165.75z" stroke="none" fill="#E0F7FA" fill-rule="nonzero" /><path id="48" transform="matrix(1 0 0 -1 0 612)" d="M173.625 123L618.375 123L618.375 105.75L173.625 105.75L173.625 123z" stroke="none" fill="#FFFFFF" fill-rule="nonzero" /><path id="49" transform="matrix(1 0 0 -1 0 612)" d="M173.625 106.5L618.375 106.5L618.375 63L173.625 63L173.625 106.5z" stroke="none" fill="#E0F7FA" fill-rule="nonzero" /><path id="50" transform="matrix(1 0 0 -1 0 612)" d="M173.625 63.75L618.375 63.75L618.375 63L173.625 63zM173.625 106.5L618.375 106.5L618.375 105.75L173.625 105.75zM173.625 123L618.375 123L618.375 122.25L173.625 122.25zM173.625 165.75L618.375 165.75L618.375 165L173.625 165zM173.625 208.5L618.375 208.5L618.375 207.75L173.625 207.75zM173.625 264.75L618.375 264.75L618.375 264L173.625 264zM173.625 307.5L618.375 307.5L618.375 306.75L173.625 306.75zM173.625 365.25L618.375 365.25L618.375 364.5L173.625 364.5zM173.625 408L618.375 408L618.375 407.25L173.625 407.25zM173.625 465.75L618.375 465.75L618.375 465L173.625 465zM173.625 512.25L618.375 512.25L618.375 511.5L173.625 511.5zM173.625 542.25L618.375 542.25L618.375 541.5L173.625 541.5zM618.375 105.75L618.375 63.75L617.625 63.75L617.625 105.75zM618.375 122.25L618.375 106.5L617.625 106.5L617.625 122.25zM618.375 165L618.375 123L617.625 123L617.625 165zM618.375 207.75L618.375 165.75L617.625 165.75L617.625 207.75zM618.375 264L618.375 208.5L617.625 208.5L617.625 264zM618.375 306.75L618.375 264.75L617.625 264.75L617.625 306.75zM618.375 364.5L618.375 307.5L617.625 307.5L617.625 364.5zM618.375 407.25L618.375 365.25L617.625 365.25L617.625 407.25zM618.375 465L618.375 408L617.625 408L617.625 465zM618.375 511.5L618.375 465.75L617.625 465.75L617.625 511.5zM618.375 541.5L618.375 512.25L617.625 512.25L617.625 541.5zM541.125 105.75L541.125 63.75L540.375 63.75L540.375 105.75zM541.125 122.25L541.125 106.5L540.375 106.5L540.375 122.25zM541.125 165L541.125 123L540.375 123L540.375 165zM541.125 207.75L541.125 165.75L540.375 165.75L540.375 207.75zM541.125 264L541.125 208.5L540.375 208.5L540.375 264zM541.125 306.75L541.125 264.75L540.375 264.75L540.375 306.75zM541.125 364.5L541.125 307.5L540.375 307.5L540.375 364.5zM541.125 407.25L541.125 365.25L540.375 365.25L540.375 407.25zM541.125 465L541.125 408L540.375 408L540.375 465zM541.125 511.5L541.125 465.75L540.375 465.75L540.375 511.5zM541.125 541.5L541.125 512.25L540.375 512.25L540.375 541.5zM512.625 105.75L512.625 63.75L511.875 63.75L511.875 105.75zM512.625 122.25L512.625 106.5L511.875 106.5L511.875 122.25zM512.625 165L512.625 123L511.875 123L511.875 165zM512.625 207.75L512.625 165.75L511.875 165.75L511.875 207.75zM512.625 264L512.625 208.5L511.875 208.5L511.875 264zM512.625 306.75L512.625 264.75L511.875 264.75L511.875 306.75zM512.625 364.5L512.625 307.5L511.875 307.5L511.875 364.5zM512.625 407.25L512.625 365.25L511.875 365.25L511.875 407.25zM512.625 465L512.625 408L511.875 408L511.875 465zM512.625 511.5L512.625 465.75L511.875 465.75L511.875 511.5zM512.625 541.5L512.625 512.25L511.875 512.25L511.875 541.5zM284.625 105.75L284.625 63.75L283.875 63.75L283.875 105.75zM284.625 122.25L284.625 106.5L283.875 106.5L283.875 122.25zM284.625 165L284.625 123L283.875 123L283.875 165zM284.625 207.75L284.625 165.75L283.875 165.75L283.875 207.75zM284.625 264L284.625 208.5L283.875 208.5L283.875 264zM284.625 306.75L284.625 264.75L283.875 264.75L283.875 306.75zM284.625 364.5L284.625 307.5L283.875 307.5L283.875 364.5zM284.625 407.25L284.625 365.25L283.875 365.25L283.875 407.25zM284.625 465L284.625 408L283.875 408L283.875 465zM284.625 511.5L284.625 465.75L283.875 465.75L283.875 511.5zM284.625 541.5L284.625 512.25L283.875 512.25L283.875 541.5zM208.125 105.75L208.125 63.75L207.375 63.75L207.375 105.75zM208.125 122.25L208.125 106.5L207.375 106.5L207.375 122.25zM208.125 165L208.125 123L207.375 123L207.375 165zM208.125 207.75L208.125 165.75L207.375 165.75L207.375 207.75zM208.125 264L208.125 208.5L207.375 208.5L207.375 264zM208.125 306.75L208.125 264.75L207.375 264.75L207.375 306.75zM208.125 364.5L208.125 307.5L207.375 307.5L207.375 364.5zM208.125 407.25L208.125 365.25L207.375 365.25L207.375 407.25zM208.125 465L208.125 408L207.375 408L207.375 465zM208.125 511.5L208.125 465.75L207.375 465.75L207.375 511.5zM208.125 541.5L208.125 512.25L207.375 512.25L207.375 541.5zM174.375 105.75L174.375 63.75L173.625 63.75L173.625 105.75zM174.375 122.25L174.375 106.5L173.625 106.5L173.625 122.25zM174.375 165L174.375 123L173.625 123L173.625 165zM174.375 207.75L174.375 165.75L173.625 165.75L173.625 207.75zM174.375 264L174.375 208.5L173.625 208.5L173.625 264zM174.375 306.75L174.375 264.75L173.625 264.75L173.625 306.75zM174.375 364.5L174.375 307.5L173.625 307.5L173.625 364.5zM174.375 407.25L174.375 365.25L173.625 365.25L173.625 407.25zM174.375 465L174.375 408L173.625 408L173.625 465zM174.375 511.5L174.375 465.75L173.625 465.75L173.625 511.5zM174.375 541.5L174.375 512.25L173.625 512.25L173.625 541.5z" stroke="none" fill="#000000" fill-rule="nonzero" fill-opacity="0.1490196" /><path id="119" transform="matrix(1 0 0 -1 0 612)" d="M286.875 515.2168L489.7153 515.2168" stroke="#000000" stroke-width="0.7017334" fill="none" /><path id="221" transform="matrix(1 0 0 -1 0 612)" d="M286.875 494.8945L504.3384 494.8945" stroke="#000000" stroke-width="0.7017334" fill="none" /><path id="257" transform="matrix(1 0 0 -1 0 612)" d="M286.875 481.8066L465.9769 481.8066" stroke="#000000" stroke-width="0.7017334" fill="none" /><path id="281" transform="matrix(1 0 0 -1 0 612)" d="M286.875 468.7168L407.2012 468.7168" stroke="#000000" stroke-width="0.7017334" fill="none" /><path id="358" transform="matrix(1 0 0 -1 0 612)" d="M286.875 437.1445L497.1447 437.1445" stroke="#000000" stroke-width="0.7017334" fill="none" /><path id="397" transform="matrix(1 0 0 -1 0 612)" d="M286.875 424.0566L484.5373 424.0566" stroke="#000000" stroke-width="0.7017334" fill="none" /><path id="409" transform="matrix(1 0 0 -1 0 612)" d="M286.875 410.9668L337.2212 410.9668" stroke="#000000" stroke-width="0.7017334" fill="none" /><path id="508" transform="matrix(1 0 0 -1 0 612)" d="M286.875 381.3066L509.9354 381.3066" stroke="#000000" stroke-width="0.7017334" fill="none" /><path id="529" transform="matrix(1 0 0 -1 0 612)" d="M286.875 368.2168L385.3422 368.2168" stroke="#000000" stroke-width="0.7017334" fill="none" /><path id="633" transform="matrix(1 0 0 -1 0 612)" d="M286.875 310.4668L420.5259 310.4668" stroke="#000000" stroke-width="0.7017334" fill="none" /><path id="692" transform="matrix(1 0 0 -1 0 612)" d="M286.875 293.8945L499.4536 293.8945" stroke="#000000" stroke-width="0.7017334" fill="none" /><path id="734" transform="matrix(1 0 0 -1 0 612)" d="M286.875 280.8066L501.4956 280.8066" stroke="#000000" stroke-width="0.7017334" fill="none" /><path id="744" transform="matrix(1 0 0 -1 0 612)" d="M286.875 267.7168L337.5511 267.7168" stroke="#000000" stroke-width="0.7017334" fill="none" /><path id="818" transform="matrix(1 0 0 -1 0 612)" d="M286.875 250.7344L478.6839 250.7344" stroke="#000000" stroke-width="0.7017334" fill="none" /><path id="862" transform="matrix(1 0 0 -1 0 612)" d="M286.875 237.6445L495.7627 237.6445" stroke="#000000" stroke-width="0.7017334" fill="none" /><path id="902" transform="matrix(1 0 0 -1 0 612)" d="M286.875 224.5566L474.1182 224.5566" stroke="#000000" stroke-width="0.7017334" fill="none" /><path id="924" transform="matrix(1 0 0 -1 0 612)" d="M286.875 211.4668L385.8606 211.4668" stroke="#000000" stroke-width="0.7017334" fill="none" /><path id="1015" transform="matrix(1 0 0 -1 0 612)" d="M286.875 181.8066L477.558 181.8066" stroke="#000000" stroke-width="0.7017334" fill="none" /><path id="1049" transform="matrix(1 0 0 -1 0 612)" d="M286.875 168.7168L444.5471 168.7168" stroke="#000000" stroke-width="0.7017334" fill="none" /><path id="1148" transform="matrix(1 0 0 -1 0 612)" d="M286.875 152.1445L499.0558 152.1445" stroke="#000000" stroke-width="0.7017334" fill="none" /><path id="1187" transform="matrix(1 0 0 -1 0 612)" d="M286.875 139.0566L491.0609 139.0566" stroke="#000000" stroke-width="0.7017334" fill="none" /><path id="1193" transform="matrix(1 0 0 -1 0 612)" d="M286.875 125.9668L310.8282 125.9668" stroke="#000000" stroke-width="0.7017334" fill="none" /><path id="1268" transform="matrix(1 0 0 -1 0 612)" d="M286.875 109.4668L458.7672 109.4668" stroke="#000000" stroke-width="0.7017334" fill="none" /><path id="1322" transform="matrix(1 0 0 -1 0 612)" d="M286.875 92.89453L481.0034 92.89453" stroke="#000000" stroke-width="0.7017334" fill="none" /><path id="1363" transform="matrix(1 0 0 -1 0 612)" d="M286.875 79.80664L483.4269 79.80664" stroke="#000000" stroke-width="0.7017334" fill="none" /><path id="1396" transform="matrix(1 0 0 -1 0 612)" d="M286.875 66.7168L432.191 66.7168" stroke="#000000" stroke-width="0.7017334" fill="none" /></g></g></g></svg>