<svg xmlns="http://www.w3.org/2000/svg" xmlns:xlink="http://www.w3.org/1999/xlink" id="body_23" preserveAspectRatio="xMinYMin meet" viewBox="0 0 1056 816"><defs><clipPath id="1"><path id="" clip-rule="evenodd" transform="matrix(1 0 0 1 0 0)" d="M0 612L0 0L0 0L792 0L792 0L792 612L792 612L0 612z" /></clipPath><clipPath id="2"><path id="" clip-rule="evenodd" transform="matrix(1 0 0 1 0 0)" d="M172.875 52.5L619.125 52.5L619.125 52.5L619.125 69.75L619.125 69.75L172.875 69.75L172.875 69.75L172.875 52.5z" /></clipPath><clipPath id="3"><path id="" clip-rule="evenodd" transform="matrix(1 0 0 1 0 0)" d="M172.875 69L619.125 69L619.125 69L619.125 552L619.125 552L172.875 552L172.875 552L172.875 69z" /></clipPath></defs><g transform="matrix(1.333333 0 0 1.333333 0 0)"><g clip-path="url(#1)"><g clip-path="url(#2)"><path id="10" transform="matrix(1 0 0 -1 0 612)" d="M173.625 558.75L618.375 558.75L618.375 541.5L173.625 541.5L173.625 558.75z" stroke="none" fill="#4DD0E1" fill-rule="nonzero" /><path id="11" transform="matrix(1 0 0 -1 0 612)" d="M173.625 542.25L618.375 542.25L618.375 541.5L173.625 541.5zM173.625 558.75L618.375 558.75L618.375 558L173.625 558zM618.375 558L618.375 542.25L617.625 542.25L617.625 558zM541.125 558L541.125 542.25L540.375 542.25L540.375 558zM512.625 558L512.625 542.25L511.875 542.25L511.875 558zM284.625 558L284.625 542.25L283.875 542.25L283.875 558zM208.125 558L208.125 542.25L207.375 542.25L207.375 558zM174.375 558L174.375 542.25L173.625 542.25L173.625 558z" stroke="none" fill="#000000" fill-rule="nonzero" fill-opacity="0.1490196" /></g><g clip-path="url(#3)"><path id="39" transform="matrix(1 0 0 -1 0 612)" d="M173.625 542.25L618.375 542.25L618.375 511.5L173.625 511.5L173.625 542.25z" stroke="none" fill="#E0F7FA" fill-rule="nonzero" /><path id="40" transform="matrix(1 0 0 -1 0 612)" d="M173.625 512.25L618.375 512.25L618.375 466.5L173.625 466.5L173.625 512.25z" stroke="none" fill="#FFFFFF" fill-rule="nonzero" /><path id="41" transform="matrix(1 0 0 -1 0 612)" d="M173.625 467.25L618.375 467.25L618.375 423.75L173.625 423.75L173.625 467.25z" stroke="none" fill="#E0F7FA" fill-rule="nonzero" /><path id="42" transform="matrix(1 0 0 -1 0 612)" d="M173.625 424.5L618.375 424.5L618.375 393.75L173.625 393.75L173.625 424.5z" stroke="none" fill="#FFFFFF" fill-rule="nonzero" /><path id="43" transform="matrix(1 0 0 -1 0 612)" d="M173.625 394.5L618.375 394.5L618.375 337.5L173.625 337.5L173.625 394.5z" stroke="none" fill="#E0F7FA" fill-rule="nonzero" /><path id="44" transform="matrix(1 0 0 -1 0 612)" d="M173.625 338.25L618.375 338.25L618.375 294.75L173.625 294.75L173.625 338.25z" stroke="none" fill="#FFFFFF" fill-rule="nonzero" /><path id="45" transform="matrix(1 0 0 -1 0 612)" d="M173.625 295.5L618.375 295.5L618.375 252L173.625 252L173.625 295.5z" stroke="none" fill="#E0F7FA" fill-rule="nonzero" /><path id="46" transform="matrix(1 0 0 -1 0 612)" d="M173.625 252.75L618.375 252.75L618.375 220.5L173.625 220.5L173.625 252.75z" stroke="none" fill="#FFFFFF" fill-rule="nonzero" /><path id="47" transform="matrix(1 0 0 -1 0 612)" d="M173.625 221.25L618.375 221.25L618.375 177.75L173.625 177.75L173.625 221.25z" stroke="none" fill="#E0F7FA" fill-rule="nonzero" /><path id="48" transform="matrix(1 0 0 -1 0 612)" d="M173.625 178.5L618.375 178.5L618.375 146.25L173.625 146.25L173.625 178.5z" stroke="none" fill="#FFFFFF" fill-rule="nonzero" /><path id="49" transform="matrix(1 0 0 -1 0 612)" d="M173.625 147L618.375 147L618.375 103.5L173.625 103.5L173.625 147z" stroke="none" fill="#E0F7FA" fill-rule="nonzero" /><path id="50" transform="matrix(1 0 0 -1 0 612)" d="M173.625 104.25L618.375 104.25L618.375 60.75L173.625 60.75L173.625 104.25z" stroke="none" fill="#FFFFFF" fill-rule="nonzero" /><path id="51" transform="matrix(1 0 0 -1 0 612)" d="M173.625 61.5L618.375 61.5L618.375 60.75L173.625 60.75zM173.625 104.25L618.375 104.25L618.375 103.5L173.625 103.5zM173.625 147L618.375 147L618.375 146.25L173.625 146.25zM173.625 178.5L618.375 178.5L618.375 177.75L173.625 177.75zM173.625 221.25L618.375 221.25L618.375 220.5L173.625 220.5zM173.625 252.75L618.375 252.75L618.375 252L173.625 252zM173.625 295.5L618.375 295.5L618.375 294.75L173.625 294.75zM173.625 338.25L618.375 338.25L618.375 337.5L173.625 337.5zM173.625 394.5L618.375 394.5L618.375 393.75L173.625 393.75zM173.625 424.5L618.375 424.5L618.375 423.75L173.625 423.75zM173.625 467.25L618.375 467.25L618.375 466.5L173.625 466.5zM173.625 512.25L618.375 512.25L618.375 511.5L173.625 511.5zM173.625 542.25L618.375 542.25L618.375 541.5L173.625 541.5zM618.375 103.5L618.375 61.5L617.625 61.5L617.625 103.5zM618.375 146.25L618.375 104.25L617.625 104.25L617.625 146.25zM618.375 177.75L618.375 147L617.625 147L617.625 177.75zM618.375 220.5L618.375 178.5L617.625 178.5L617.625 220.5zM618.375 252L618.375 221.25L617.625 221.25L617.625 252zM618.375 294.75L618.375 252.75L617.625 252.75L617.625 294.75zM618.375 337.5L618.375 295.5L617.625 295.5L617.625 337.5zM618.375 393.75L618.375 338.25L617.625 338.25L617.625 393.75zM618.375 423.75L618.375 394.5L617.625 394.5L617.625 423.75zM618.375 466.5L618.375 424.5L617.625 424.5L617.625 466.5zM618.375 511.5L618.375 467.25L617.625 467.25L617.625 511.5zM618.375 541.5L618.375 512.25L617.625 512.25L617.625 541.5zM541.125 103.5L541.125 61.5L540.375 61.5L540.375 103.5zM541.125 146.25L541.125 104.25L540.375 104.25L540.375 146.25zM541.125 177.75L541.125 147L540.375 147L540.375 177.75zM541.125 220.5L541.125 178.5L540.375 178.5L540.375 220.5zM541.125 252L541.125 221.25L540.375 221.25L540.375 252zM541.125 294.75L541.125 252.75L540.375 252.75L540.375 294.75zM541.125 337.5L541.125 295.5L540.375 295.5L540.375 337.5zM541.125 393.75L541.125 338.25L540.375 338.25L540.375 393.75zM541.125 423.75L541.125 394.5L540.375 394.5L540.375 423.75zM541.125 466.5L541.125 424.5L540.375 424.5L540.375 466.5zM541.125 511.5L541.125 467.25L540.375 467.25L540.375 511.5zM541.125 541.5L541.125 512.25L540.375 512.25L540.375 541.5zM512.625 103.5L512.625 61.5L511.875 61.5L511.875 103.5zM512.625 146.25L512.625 104.25L511.875 104.25L511.875 146.25zM512.625 177.75L512.625 147L511.875 147L511.875 177.75zM512.625 220.5L512.625 178.5L511.875 178.5L511.875 220.5zM512.625 252L512.625 221.25L511.875 221.25L511.875 252zM512.625 294.75L512.625 252.75L511.875 252.75L511.875 294.75zM512.625 337.5L512.625 295.5L511.875 295.5L511.875 337.5zM512.625 393.75L512.625 338.25L511.875 338.25L511.875 393.75zM512.625 423.75L512.625 394.5L511.875 394.5L511.875 423.75zM512.625 466.5L512.625 424.5L511.875 424.5L511.875 466.5zM512.625 511.5L512.625 467.25L511.875 467.25L511.875 511.5zM512.625 541.5L512.625 512.25L511.875 512.25L511.875 541.5zM284.625 103.5L284.625 61.5L283.875 61.5L283.875 103.5zM284.625 146.25L284.625 104.25L283.875 104.25L283.875 146.25zM284.625 177.75L284.625 147L283.875 147L283.875 177.75zM284.625 220.5L284.625 178.5L283.875 178.5L283.875 220.5zM284.625 252L284.625 221.25L283.875 221.25L283.875 252zM284.625 294.75L284.625 252.75L283.875 252.75L283.875 294.75zM284.625 337.5L284.625 295.5L283.875 295.5L283.875 337.5zM284.625 393.75L284.625 338.25L283.875 338.25L283.875 393.75zM284.625 423.75L284.625 394.5L283.875 394.5L283.875 423.75zM284.625 466.5L284.625 424.5L283.875 424.5L283.875 466.5zM284.625 511.5L284.625 467.25L283.875 467.25L283.875 511.5zM284.625 541.5L284.625 512.25L283.875 512.25L283.875 541.5zM208.125 103.5L208.125 61.5L207.375 61.5L207.375 103.5zM208.125 146.25L208.125 104.25L207.375 104.25L207.375 146.25zM208.125 177.75L208.125 147L207.375 147L207.375 177.75zM208.125 220.5L208.125 178.5L207.375 178.5L207.375 220.5zM208.125 252L208.125 221.25L207.375 221.25L207.375 252zM208.125 294.75L208.125 252.75L207.375 252.75L207.375 294.75zM208.125 337.5L208.125 295.5L207.375 295.5L207.375 337.5zM208.125 393.75L208.125 338.25L207.375 338.25L207.375 393.75zM208.125 423.75L208.125 394.5L207.375 394.5L207.375 423.75zM208.125 466.5L208.125 424.5L207.375 424.5L207.375 466.5zM208.125 511.5L208.125 467.25L207.375 467.25L207.375 511.5zM208.125 541.5L208.125 512.25L207.375 512.25L207.375 541.5zM174.375 103.5L174.375 61.5L173.625 61.5L173.625 103.5zM174.375 146.25L174.375 104.25L173.625 104.25L173.625 146.25zM174.375 177.75L174.375 147L173.625 147L173.625 177.75zM174.375 220.5L174.375 178.5L173.625 178.5L173.625 220.5zM174.375 252L174.375 221.25L173.625 221.25L173.625 252zM174.375 294.75L174.375 252.75L173.625 252.75L173.625 294.75zM174.375 337.5L174.375 295.5L173.625 295.5L173.625 337.5zM174.375 393.75L174.375 338.25L173.625 338.25L173.625 393.75zM174.375 423.75L174.375 394.5L173.625 394.5L173.625 423.75zM174.375 466.5L174.375 424.5L173.625 424.5L173.625 466.5zM174.375 511.5L174.375 467.25L173.625 467.25L173.625 511.5zM174.375 541.5L174.375 512.25L173.625 512.25L173.625 541.5z" stroke="none" fill="#000000" fill-rule="nonzero" fill-opacity="0.1490196" /><path id="105" transform="matrix(1 0 0 -1 0 612)" d="M286.875 528.3047L506.9983 528.3047" stroke="#000000" stroke-width="0.7017334" fill="none" /><path id="127" transform="matrix(1 0 0 -1 0 612)" d="M286.875 515.2158L395.6303 515.2158" stroke="#000000" stroke-width="0.7017334" fill="none" /><path id="229" transform="matrix(1 0 0 -1 0 612)" d="M286.875 496.3936L497.3908 496.3936" stroke="#000000" stroke-width="0.7017334" fill="none" /><path id="270" transform="matrix(1 0 0 -1 0 612)" d="M286.875 483.3047L465.9925 483.3047" stroke="#000000" stroke-width="0.7017334" fill="none" /><path id="283" transform="matrix(1 0 0 -1 0 612)" d="M286.875 470.2158L340.6348 470.2158" stroke="#000000" stroke-width="0.7017334" fill="none" /><path id="358" transform="matrix(1 0 0 -1 0 612)" d="M286.875 453.6436L488.8304 453.6436" stroke="#000000" stroke-width="0.7017334" fill="none" /><path id="392" transform="matrix(1 0 0 -1 0 612)" d="M286.875 440.5547L476.6576 440.5547" stroke="#000000" stroke-width="0.7017334" fill="none" /><path id="435" transform="matrix(1 0 0 -1 0 612)" d="M286.875 427.4658L506.3227 427.4658" stroke="#000000" stroke-width="0.7017334" fill="none" /><path id="513" transform="matrix(1 0 0 -1 0 612)" d="M286.875 410.5547L501.4119 410.5547" stroke="#000000" stroke-width="0.7017334" fill="none" /><path id="553" transform="matrix(1 0 0 -1 0 612)" d="M286.875 397.4658L477.3486 397.4658" stroke="#000000" stroke-width="0.7017334" fill="none" /><path id="633" transform="matrix(1 0 0 -1 0 612)" d="M286.875 354.3047L501.5428 354.3047" stroke="#000000" stroke-width="0.7017334" fill="none" /><path id="645" transform="matrix(1 0 0 -1 0 612)" d="M286.875 341.2158L337.2212 341.2158" stroke="#000000" stroke-width="0.7017334" fill="none" /><path id="743" transform="matrix(1 0 0 -1 0 612)" d="M286.875 311.5547L475.5162 311.5547" stroke="#000000" stroke-width="0.7017334" fill="none" /><path id="782" transform="matrix(1 0 0 -1 0 612)" d="M286.875 298.4658L479.3121 298.4658" stroke="#000000" stroke-width="0.7017334" fill="none" /><path id="868" transform="matrix(1 0 0 -1 0 612)" d="M286.875 268.8047L476.9664 268.8047" stroke="#000000" stroke-width="0.7017334" fill="none" /><path id="891" transform="matrix(1 0 0 -1 0 612)" d="M286.875 255.7158L385.3422 255.7158" stroke="#000000" stroke-width="0.7017334" fill="none" /><path id="977" transform="matrix(1 0 0 -1 0 612)" d="M286.875 237.3047L495.8359 237.3047" stroke="#000000" stroke-width="0.7017334" fill="none" /><path id="987" transform="matrix(1 0 0 -1 0 612)" d="M286.875 224.2158L334.1531 224.2158" stroke="#000000" stroke-width="0.7017334" fill="none" /><path id="1039" transform="matrix(1 0 0 -1 0 612)" d="M286.875 194.5547L478.6366 194.5547" stroke="#000000" stroke-width="0.7017334" fill="none" /><path id="1047" transform="matrix(1 0 0 -1 0 612)" d="M286.875 181.4658L318.9016 181.4658" stroke="#000000" stroke-width="0.7017334" fill="none" /><path id="1148" transform="matrix(1 0 0 -1 0 612)" d="M286.875 163.0547L509.0034 163.0547" stroke="#000000" stroke-width="0.7017334" fill="none" /><path id="1156" transform="matrix(1 0 0 -1 0 612)" d="M286.875 149.9658L321.2733 149.9658" stroke="#000000" stroke-width="0.7017334" fill="none" /><path id="1233" transform="matrix(1 0 0 -1 0 612)" d="M286.875 133.3936L507.1762 133.3936" stroke="#000000" stroke-width="0.7017334" fill="none" /><path id="1274" transform="matrix(1 0 0 -1 0 612)" d="M286.875 120.3047L490.1394 120.3047" stroke="#000000" stroke-width="0.7017334" fill="none" /><path id="1292" transform="matrix(1 0 0 -1 0 612)" d="M286.875 107.2158L367.4415 107.2158" stroke="#000000" stroke-width="0.7017334" fill="none" /><path id="1375" transform="matrix(1 0 0 -1 0 612)" d="M286.875 77.55469L495.3751 77.55469" stroke="#000000" stroke-width="0.7017334" fill="none" /><path id="1405" transform="matrix(1 0 0 -1 0 612)" d="M286.875 64.46582L425.3061 64.46582" stroke="#000000" stroke-width="0.7017334" fill="none" /></g></g></g></svg>