<svg xmlns="http://www.w3.org/2000/svg" xmlns:xlink="http://www.w3.org/1999/xlink" id="body_5" preserveAspectRatio="xMinYMin meet" viewBox="0 0 1056 816"><defs><clipPath id="1"><path id="" clip-rule="evenodd" transform="matrix(1 0 0 1 0 0)" d="M0 612L0 0L0 0L792 0L792 0L792 612L792 612L0 612z" /></clipPath><clipPath id="2"><path id="" clip-rule="evenodd" transform="matrix(1 0 0 1 0 0)" d="M172.875 52.5L619.125 52.5L619.125 52.5L619.125 69.75L619.125 69.75L172.875 69.75L172.875 69.75L172.875 52.5z" /></clipPath><clipPath id="3"><path id="" clip-rule="evenodd" transform="matrix(1 0 0 1 0 0)" d="M172.875 69L619.125 69L619.125 69L619.125 520.5L619.125 520.5L172.875 520.5L172.875 520.5L172.875 69z" /></clipPath></defs><g transform="matrix(1.333333 0 0 1.333333 0 0)"><g clip-path="url(#1)"><g clip-path="url(#2)"><path id="9" transform="matrix(1 0 0 -1 0 612)" d="M173.625 558.75L618.375 558.75L618.375 541.5L173.625 541.5L173.625 558.75z" stroke="none" fill="#4DD0E1" fill-rule="nonzero" /><path id="10" transform="matrix(1 0 0 -1 0 612)" d="M173.625 542.25L618.375 542.25L618.375 541.5L173.625 541.5zM173.625 558.75L618.375 558.75L618.375 558L173.625 558zM618.375 558L618.375 542.25L617.625 542.25L617.625 558zM541.125 558L541.125 542.25L540.375 542.25L540.375 558zM512.625 558L512.625 542.25L511.875 542.25L511.875 558zM284.625 558L284.625 542.25L283.875 542.25L283.875 558zM208.125 558L208.125 542.25L207.375 542.25L207.375 558zM174.375 558L174.375 542.25L173.625 542.25L173.625 558z" stroke="none" fill="#000000" fill-rule="nonzero" fill-opacity="0.1490196" /></g><g clip-path="url(#3)"><path id="38" transform="matrix(1 0 0 -1 0 612)" d="M173.625 542.25L618.375 542.25L618.375 511.5L173.625 511.5L173.625 542.25z" stroke="none" fill="#FFFFFF" fill-rule="nonzero" /><path id="39" transform="matrix(1 0 0 -1 0 612)" d="M173.625 512.25L618.375 512.25L618.375 481.5L173.625 481.5L173.625 512.25z" stroke="none" fill="#E0F7FA" fill-rule="nonzero" /><path id="40" transform="matrix(1 0 0 -1 0 612)" d="M173.625 482.25L618.375 482.25L618.375 465L173.625 465L173.625 482.25z" stroke="none" fill="#FFFFFF" fill-rule="nonzero" /><path id="41" transform="matrix(1 0 0 -1 0 612)" d="M173.625 465.75L618.375 465.75L618.375 408.75L173.625 408.75L173.625 465.75z" stroke="none" fill="#E0F7FA" fill-rule="nonzero" /><path id="42" transform="matrix(1 0 0 -1 0 612)" d="M173.625 409.5L618.375 409.5L618.375 366L173.625 366L173.625 409.5z" stroke="none" fill="#FFFFFF" fill-rule="nonzero" /><path id="43" transform="matrix(1 0 0 -1 0 612)" d="M173.625 366.75L618.375 366.75L618.375 349.5L173.625 349.5L173.625 366.75z" stroke="none" fill="#E0F7FA" fill-rule="nonzero" /><path id="44" transform="matrix(1 0 0 -1 0 612)" d="M173.625 350.25L618.375 350.25L618.375 306.75L173.625 306.75L173.625 350.25z" stroke="none" fill="#FFFFFF" fill-rule="nonzero" /><path id="45" transform="matrix(1 0 0 -1 0 612)" d="M173.625 307.5L618.375 307.5L618.375 276.75L173.625 276.75L173.625 307.5z" stroke="none" fill="#E0F7FA" fill-rule="nonzero" /><path id="46" transform="matrix(1 0 0 -1 0 612)" d="M173.625 277.5L618.375 277.5L618.375 246.75L173.625 246.75L173.625 277.5z" stroke="none" fill="#FFFFFF" fill-rule="nonzero" /><path id="47" transform="matrix(1 0 0 -1 0 612)" d="M173.625 247.5L618.375 247.5L618.375 216.75L173.625 216.75L173.625 247.5z" stroke="none" fill="#E0F7FA" fill-rule="nonzero" /><path id="48" transform="matrix(1 0 0 -1 0 612)" d="M173.625 217.5L618.375 217.5L618.375 160.5L173.625 160.5L173.625 217.5z" stroke="none" fill="#FFFFFF" fill-rule="nonzero" /><path id="49" transform="matrix(1 0 0 -1 0 612)" d="M173.625 161.25L618.375 161.25L618.375 92.25L173.625 92.25L173.625 161.25z" stroke="none" fill="#E0F7FA" fill-rule="nonzero" /><path id="50" transform="matrix(1 0 0 -1 0 612)" d="M173.625 93L618.375 93L618.375 92.25L173.625 92.25zM173.625 161.25L618.375 161.25L618.375 160.5L173.625 160.5zM173.625 217.5L618.375 217.5L618.375 216.75L173.625 216.75zM173.625 247.5L618.375 247.5L618.375 246.75L173.625 246.75zM173.625 277.5L618.375 277.5L618.375 276.75L173.625 276.75zM173.625 307.5L618.375 307.5L618.375 306.75L173.625 306.75zM173.625 350.25L618.375 350.25L618.375 349.5L173.625 349.5zM173.625 366.75L618.375 366.75L618.375 366L173.625 366zM173.625 409.5L618.375 409.5L618.375 408.75L173.625 408.75zM173.625 465.75L618.375 465.75L618.375 465L173.625 465zM173.625 482.25L618.375 482.25L618.375 481.5L173.625 481.5zM173.625 512.25L618.375 512.25L618.375 511.5L173.625 511.5zM173.625 542.25L618.375 542.25L618.375 541.5L173.625 541.5zM618.375 160.5L618.375 93L617.625 93L617.625 160.5zM618.375 216.75L618.375 161.25L617.625 161.25L617.625 216.75zM618.375 246.75L618.375 217.5L617.625 217.5L617.625 246.75zM618.375 276.75L618.375 247.5L617.625 247.5L617.625 276.75zM618.375 306.75L618.375 277.5L617.625 277.5L617.625 306.75zM618.375 349.5L618.375 307.5L617.625 307.5L617.625 349.5zM618.375 366L618.375 350.25L617.625 350.25L617.625 366zM618.375 408.75L618.375 366.75L617.625 366.75L617.625 408.75zM618.375 465L618.375 409.5L617.625 409.5L617.625 465zM618.375 481.5L618.375 465.75L617.625 465.75L617.625 481.5zM618.375 511.5L618.375 482.25L617.625 482.25L617.625 511.5zM618.375 541.5L618.375 512.25L617.625 512.25L617.625 541.5zM541.125 160.5L541.125 93L540.375 93L540.375 160.5zM541.125 216.75L541.125 161.25L540.375 161.25L540.375 216.75zM541.125 246.75L541.125 217.5L540.375 217.5L540.375 246.75zM541.125 276.75L541.125 247.5L540.375 247.5L540.375 276.75zM541.125 306.75L541.125 277.5L540.375 277.5L540.375 306.75zM541.125 349.5L541.125 307.5L540.375 307.5L540.375 349.5zM541.125 366L541.125 350.25L540.375 350.25L540.375 366zM541.125 408.75L541.125 366.75L540.375 366.75L540.375 408.75zM541.125 465L541.125 409.5L540.375 409.5L540.375 465zM541.125 481.5L541.125 465.75L540.375 465.75L540.375 481.5zM541.125 511.5L541.125 482.25L540.375 482.25L540.375 511.5zM541.125 541.5L541.125 512.25L540.375 512.25L540.375 541.5zM512.625 160.5L512.625 93L511.875 93L511.875 160.5zM512.625 216.75L512.625 161.25L511.875 161.25L511.875 216.75zM512.625 246.75L512.625 217.5L511.875 217.5L511.875 246.75zM512.625 276.75L512.625 247.5L511.875 247.5L511.875 276.75zM512.625 306.75L512.625 277.5L511.875 277.5L511.875 306.75zM512.625 349.5L512.625 307.5L511.875 307.5L511.875 349.5zM512.625 366L512.625 350.25L511.875 350.25L511.875 366zM512.625 408.75L512.625 366.75L511.875 366.75L511.875 408.75zM512.625 465L512.625 409.5L511.875 409.5L511.875 465zM512.625 481.5L512.625 465.75L511.875 465.75L511.875 481.5zM512.625 511.5L512.625 482.25L511.875 482.25L511.875 511.5zM512.625 541.5L512.625 512.25L511.875 512.25L511.875 541.5zM284.625 160.5L284.625 93L283.875 93L283.875 160.5zM284.625 216.75L284.625 161.25L283.875 161.25L283.875 216.75zM284.625 246.75L284.625 217.5L283.875 217.5L283.875 246.75zM284.625 276.75L284.625 247.5L283.875 247.5L283.875 276.75zM284.625 306.75L284.625 277.5L283.875 277.5L283.875 306.75zM284.625 349.5L284.625 307.5L283.875 307.5L283.875 349.5zM284.625 366L284.625 350.25L283.875 350.25L283.875 366zM284.625 408.75L284.625 366.75L283.875 366.75L283.875 408.75zM284.625 465L284.625 409.5L283.875 409.5L283.875 465zM284.625 481.5L284.625 465.75L283.875 465.75L283.875 481.5zM284.625 511.5L284.625 482.25L283.875 482.25L283.875 511.5zM284.625 541.5L284.625 512.25L283.875 512.25L283.875 541.5zM208.125 160.5L208.125 93L207.375 93L207.375 160.5zM208.125 216.75L208.125 161.25L207.375 161.25L207.375 216.75zM208.125 246.75L208.125 217.5L207.375 217.5L207.375 246.75zM208.125 276.75L208.125 247.5L207.375 247.5L207.375 276.75zM208.125 306.75L208.125 277.5L207.375 277.5L207.375 306.75zM208.125 349.5L208.125 307.5L207.375 307.5L207.375 349.5zM208.125 366L208.125 350.25L207.375 350.25L207.375 366zM208.125 408.75L208.125 366.75L207.375 366.75L207.375 408.75zM208.125 465L208.125 409.5L207.375 409.5L207.375 465zM208.125 481.5L208.125 465.75L207.375 465.75L207.375 481.5zM208.125 511.5L208.125 482.25L207.375 482.25L207.375 511.5zM208.125 541.5L208.125 512.25L207.375 512.25L207.375 541.5zM174.375 160.5L174.375 93L173.625 93L173.625 160.5zM174.375 216.75L174.375 161.25L173.625 161.25L173.625 216.75zM174.375 246.75L174.375 217.5L173.625 217.5L173.625 246.75zM174.375 276.75L174.375 247.5L173.625 247.5L173.625 276.75zM174.375 306.75L174.375 277.5L173.625 277.5L173.625 306.75zM174.375 349.5L174.375 307.5L173.625 307.5L173.625 349.5zM174.375 366L174.375 350.25L173.625 350.25L173.625 366zM174.375 408.75L174.375 366.75L173.625 366.75L173.625 408.75zM174.375 465L174.375 409.5L173.625 409.5L173.625 465zM174.375 481.5L174.375 465.75L173.625 465.75L173.625 481.5zM174.375 511.5L174.375 482.25L173.625 482.25L173.625 511.5zM174.375 541.5L174.375 512.25L173.625 512.25L173.625 541.5z" stroke="none" fill="#000000" fill-rule="nonzero" fill-opacity="0.1490196" /><path id="112" transform="matrix(1 0 0 -1 0 612)" d="M286.875 528.3049L497.5374 528.3049" stroke="#000000" stroke-width="0.7017334" fill="none" /><path id="141" transform="matrix(1 0 0 -1 0 612)" d="M286.875 515.2158L427.5889 515.2158" stroke="#000000" stroke-width="0.7017334" fill="none" /><path id="211" transform="matrix(1 0 0 -1 0 612)" d="M286.875 498.3049L459.1231 498.3049" stroke="#000000" stroke-width="0.7017334" fill="none" /><path id="241" transform="matrix(1 0 0 -1 0 612)" d="M286.875 485.2158L428.8087 485.2158" stroke="#000000" stroke-width="0.7017334" fill="none" /><path id="299" transform="matrix(1 0 0 -1 0 612)" d="M286.875 468.7158L403.9602 468.7158" stroke="#000000" stroke-width="0.7017334" fill="none" /><path id="352" transform="matrix(1 0 0 -1 0 612)" d="M286.875 412.4658L494.0399 412.4658" stroke="#000000" stroke-width="0.7017334" fill="none" /><path id="443" transform="matrix(1 0 0 -1 0 612)" d="M286.875 369.7158L476.2387 369.7158" stroke="#000000" stroke-width="0.7017334" fill="none" /><path id="525" transform="matrix(1 0 0 -1 0 612)" d="M286.875 353.2158L428.6674 353.2158" stroke="#000000" stroke-width="0.7017334" fill="none" /><path id="580" transform="matrix(1 0 0 -1 0 612)" d="M286.875 323.5549L463.6574 323.5549" stroke="#000000" stroke-width="0.7017334" fill="none" /><path id="602" transform="matrix(1 0 0 -1 0 612)" d="M286.875 310.4658L387.2428 310.4658" stroke="#000000" stroke-width="0.7017334" fill="none" /><path id="692" transform="matrix(1 0 0 -1 0 612)" d="M286.875 293.5549L465.6156 293.5549" stroke="#000000" stroke-width="0.7017334" fill="none" /><path id="714" transform="matrix(1 0 0 -1 0 612)" d="M286.875 280.4658L385.0333 280.4658" stroke="#000000" stroke-width="0.7017334" fill="none" /><path id="797" transform="matrix(1 0 0 -1 0 612)" d="M286.875 263.5549L487.4639 263.5549" stroke="#000000" stroke-width="0.7017334" fill="none" /><path id="834" transform="matrix(1 0 0 -1 0 612)" d="M286.875 250.4658L458.1285 250.4658" stroke="#000000" stroke-width="0.7017334" fill="none" /><path id="895" transform="matrix(1 0 0 -1 0 612)" d="M286.875 233.5549L507.6684 233.5549" stroke="#000000" stroke-width="0.7017334" fill="none" /><path id="935" transform="matrix(1 0 0 -1 0 612)" d="M286.875 220.4658L482.5214 220.4658" stroke="#000000" stroke-width="0.7017334" fill="none" /><path id="1011" transform="matrix(1 0 0 -1 0 612)" d="M286.875 203.4834L492.8725 203.4834" stroke="#000000" stroke-width="0.7017334" fill="none" /><path id="1047" transform="matrix(1 0 0 -1 0 612)" d="M286.875 190.394L462.6417 190.394" stroke="#000000" stroke-width="0.7017334" fill="none" /><path id="1090" transform="matrix(1 0 0 -1 0 612)" d="M286.875 177.3049L503.7573 177.3049" stroke="#000000" stroke-width="0.7017334" fill="none" /><path id="1114" transform="matrix(1 0 0 -1 0 612)" d="M286.875 164.2158L409.4473 164.2158" stroke="#000000" stroke-width="0.7017334" fill="none" /><path id="1231" transform="matrix(1 0 0 -1 0 612)" d="M286.875 109.0549L484.6629 109.0549" stroke="#000000" stroke-width="0.7017334" fill="none" /><path id="1275" transform="matrix(1 0 0 -1 0 612)" d="M286.875 95.96582L485.642 95.96582" stroke="#000000" stroke-width="0.7017334" fill="none" /></g></g></g></svg>