<svg xmlns="http://www.w3.org/2000/svg" xmlns:xlink="http://www.w3.org/1999/xlink" id="body_6" preserveAspectRatio="xMinYMin meet" viewBox="0 0 1056 816"><defs><clipPath id="1"><path id="" clip-rule="evenodd" transform="matrix(1 0 0 1 0 0)" d="M0 612L0 0L0 0L792 0L792 0L792 612L792 612L0 612z" /></clipPath><clipPath id="2"><path id="" clip-rule="evenodd" transform="matrix(1 0 0 1 0 0)" d="M172.875 52.5L619.125 52.5L619.125 52.5L619.125 69.75L619.125 69.75L172.875 69.75L172.875 69.75L172.875 52.5z" /></clipPath><clipPath id="3"><path id="" clip-rule="evenodd" transform="matrix(1 0 0 1 0 0)" d="M172.875 69L619.125 69L619.125 69L619.125 528L619.125 528L172.875 528L172.875 528L172.875 69z" /></clipPath></defs><g transform="matrix(1.333333 0 0 1.333333 0 0)"><g clip-path="url(#1)"><g clip-path="url(#2)"><path id="9" transform="matrix(1 0 0 -1 0 612)" d="M173.625 558.75L618.375 558.75L618.375 541.5L173.625 541.5L173.625 558.75z" stroke="none" fill="#4DD0E1" fill-rule="nonzero" /><path id="10" transform="matrix(1 0 0 -1 0 612)" d="M173.625 542.25L618.375 542.25L618.375 541.5L173.625 541.5zM173.625 558.75L618.375 558.75L618.375 558L173.625 558zM618.375 558L618.375 542.25L617.625 542.25L617.625 558zM541.125 558L541.125 542.25L540.375 542.25L540.375 558zM512.625 558L512.625 542.25L511.875 542.25L511.875 558zM284.625 558L284.625 542.25L283.875 542.25L283.875 558zM208.125 558L208.125 542.25L207.375 542.25L207.375 558zM174.375 558L174.375 542.25L173.625 542.25L173.625 558z" stroke="none" fill="#000000" fill-rule="nonzero" fill-opacity="0.1490196" /></g><g clip-path="url(#3)"><path id="38" transform="matrix(1 0 0 -1 0 612)" d="M173.625 542.25L618.375 542.25L618.375 498.75L173.625 498.75L173.625 542.25z" stroke="none" fill="#FFFFFF" fill-rule="nonzero" /><path id="39" transform="matrix(1 0 0 -1 0 612)" d="M173.625 499.5L618.375 499.5L618.375 442.5L173.625 442.5L173.625 499.5z" stroke="none" fill="#E0F7FA" fill-rule="nonzero" /><path id="40" transform="matrix(1 0 0 -1 0 612)" d="M173.625 443.25L618.375 443.25L618.375 399.75L173.625 399.75L173.625 443.25z" stroke="none" fill="#FFFFFF" fill-rule="nonzero" /><path id="41" transform="matrix(1 0 0 -1 0 612)" d="M173.625 400.5L618.375 400.5L618.375 342L173.625 342L173.625 400.5z" stroke="none" fill="#E0F7FA" fill-rule="nonzero" /><path id="42" transform="matrix(1 0 0 -1 0 612)" d="M173.625 342.75L618.375 342.75L618.375 299.25L173.625 299.25L173.625 342.75z" stroke="none" fill="#FFFFFF" fill-rule="nonzero" /><path id="43" transform="matrix(1 0 0 -1 0 612)" d="M173.625 300L618.375 300L618.375 256.5L173.625 256.5L173.625 300z" stroke="none" fill="#E0F7FA" fill-rule="nonzero" /><path id="44" transform="matrix(1 0 0 -1 0 612)" d="M173.625 257.25L618.375 257.25L618.375 213.75L173.625 213.75L173.625 257.25z" stroke="none" fill="#FFFFFF" fill-rule="nonzero" /><path id="45" transform="matrix(1 0 0 -1 0 612)" d="M173.625 214.5L618.375 214.5L618.375 183.75L173.625 183.75L173.625 214.5z" stroke="none" fill="#E0F7FA" fill-rule="nonzero" /><path id="46" transform="matrix(1 0 0 -1 0 612)" d="M173.625 184.5L618.375 184.5L618.375 141L173.625 141L173.625 184.5z" stroke="none" fill="#FFFFFF" fill-rule="nonzero" /><path id="47" transform="matrix(1 0 0 -1 0 612)" d="M173.625 141.75L618.375 141.75L618.375 84.75L173.625 84.75L173.625 141.75z" stroke="none" fill="#E0F7FA" fill-rule="nonzero" /><path id="48" transform="matrix(1 0 0 -1 0 612)" d="M173.625 85.5L618.375 85.5L618.375 84.75L173.625 84.75zM173.625 141.75L618.375 141.75L618.375 141L173.625 141zM173.625 184.5L618.375 184.5L618.375 183.75L173.625 183.75zM173.625 214.5L618.375 214.5L618.375 213.75L173.625 213.75zM173.625 257.25L618.375 257.25L618.375 256.5L173.625 256.5zM173.625 300L618.375 300L618.375 299.25L173.625 299.25zM173.625 342.75L618.375 342.75L618.375 342L173.625 342zM173.625 400.5L618.375 400.5L618.375 399.75L173.625 399.75zM173.625 443.25L618.375 443.25L618.375 442.5L173.625 442.5zM173.625 499.5L618.375 499.5L618.375 498.75L173.625 498.75zM173.625 542.25L618.375 542.25L618.375 541.5L173.625 541.5zM618.375 141L618.375 85.5L617.625 85.5L617.625 141zM618.375 183.75L618.375 141.75L617.625 141.75L617.625 183.75zM618.375 213.75L618.375 184.5L617.625 184.5L617.625 213.75zM618.375 256.5L618.375 214.5L617.625 214.5L617.625 256.5zM618.375 299.25L618.375 257.25L617.625 257.25L617.625 299.25zM618.375 342L618.375 300L617.625 300L617.625 342zM618.375 399.75L618.375 342.75L617.625 342.75L617.625 399.75zM618.375 442.5L618.375 400.5L617.625 400.5L617.625 442.5zM618.375 498.75L618.375 443.25L617.625 443.25L617.625 498.75zM618.375 541.5L618.375 499.5L617.625 499.5L617.625 541.5zM541.125 141L541.125 85.5L540.375 85.5L540.375 141zM541.125 183.75L541.125 141.75L540.375 141.75L540.375 183.75zM541.125 213.75L541.125 184.5L540.375 184.5L540.375 213.75zM541.125 256.5L541.125 214.5L540.375 214.5L540.375 256.5zM541.125 299.25L541.125 257.25L540.375 257.25L540.375 299.25zM541.125 342L541.125 300L540.375 300L540.375 342zM541.125 399.75L541.125 342.75L540.375 342.75L540.375 399.75zM541.125 442.5L541.125 400.5L540.375 400.5L540.375 442.5zM541.125 498.75L541.125 443.25L540.375 443.25L540.375 498.75zM541.125 541.5L541.125 499.5L540.375 499.5L540.375 541.5zM512.625 141L512.625 85.5L511.875 85.5L511.875 141zM512.625 183.75L512.625 141.75L511.875 141.75L511.875 183.75zM512.625 213.75L512.625 184.5L511.875 184.5L511.875 213.75zM512.625 256.5L512.625 214.5L511.875 214.5L511.875 256.5zM512.625 299.25L512.625 257.25L511.875 257.25L511.875 299.25zM512.625 342L512.625 300L511.875 300L511.875 342zM512.625 399.75L512.625 342.75L511.875 342.75L511.875 399.75zM512.625 442.5L512.625 400.5L511.875 400.5L511.875 442.5zM512.625 498.75L512.625 443.25L511.875 443.25L511.875 498.75zM512.625 541.5L512.625 499.5L511.875 499.5L511.875 541.5zM284.625 141L284.625 85.5L283.875 85.5L283.875 141zM284.625 183.75L284.625 141.75L283.875 141.75L283.875 183.75zM284.625 213.75L284.625 184.5L283.875 184.5L283.875 213.75zM284.625 256.5L284.625 214.5L283.875 214.5L283.875 256.5zM284.625 299.25L284.625 257.25L283.875 257.25L283.875 299.25zM284.625 342L284.625 300L283.875 300L283.875 342zM284.625 399.75L284.625 342.75L283.875 342.75L283.875 399.75zM284.625 442.5L284.625 400.5L283.875 400.5L283.875 442.5zM284.625 498.75L284.625 443.25L283.875 443.25L283.875 498.75zM284.625 541.5L284.625 499.5L283.875 499.5L283.875 541.5zM208.125 141L208.125 85.5L207.375 85.5L207.375 141zM208.125 183.75L208.125 141.75L207.375 141.75L207.375 183.75zM208.125 213.75L208.125 184.5L207.375 184.5L207.375 213.75zM208.125 256.5L208.125 214.5L207.375 214.5L207.375 256.5zM208.125 299.25L208.125 257.25L207.375 257.25L207.375 299.25zM208.125 342L208.125 300L207.375 300L207.375 342zM208.125 399.75L208.125 342.75L207.375 342.75L207.375 399.75zM208.125 442.5L208.125 400.5L207.375 400.5L207.375 442.5zM208.125 498.75L208.125 443.25L207.375 443.25L207.375 498.75zM208.125 541.5L208.125 499.5L207.375 499.5L207.375 541.5zM174.375 141L174.375 85.5L173.625 85.5L173.625 141zM174.375 183.75L174.375 141.75L173.625 141.75L173.625 183.75zM174.375 213.75L174.375 184.5L173.625 184.5L173.625 213.75zM174.375 256.5L174.375 214.5L173.625 214.5L173.625 256.5zM174.375 299.25L174.375 257.25L173.625 257.25L173.625 299.25zM174.375 342L174.375 300L173.625 300L173.625 342zM174.375 399.75L174.375 342.75L173.625 342.75L173.625 399.75zM174.375 442.5L174.375 400.5L173.625 400.5L173.625 442.5zM174.375 498.75L174.375 443.25L173.625 443.25L173.625 498.75zM174.375 541.5L174.375 499.5L173.625 499.5L173.625 541.5z" stroke="none" fill="#000000" fill-rule="nonzero" fill-opacity="0.1490196" /><path id="103" transform="matrix(1 0 0 -1 0 612)" d="M286.875 515.5549L490.6419 515.5549" stroke="#000000" stroke-width="0.7017334" fill="none" /><path id="112" transform="matrix(1 0 0 -1 0 612)" d="M286.875 502.4658L327.9174 502.4658" stroke="#000000" stroke-width="0.7017334" fill="none" /><path id="192" transform="matrix(1 0 0 -1 0 612)" d="M286.875 459.3049L487.0713 459.3049" stroke="#000000" stroke-width="0.7017334" fill="none" /><path id="212" transform="matrix(1 0 0 -1 0 612)" d="M286.875 446.2158L388.4731 446.2158" stroke="#000000" stroke-width="0.7017334" fill="none" /><path id="310" transform="matrix(1 0 0 -1 0 612)" d="M286.875 416.5549L484.155 416.5549" stroke="#000000" stroke-width="0.7017334" fill="none" /><path id="318" transform="matrix(1 0 0 -1 0 612)" d="M286.875 403.4658L321.9068 403.4658" stroke="#000000" stroke-width="0.7017334" fill="none" /><path id="378" transform="matrix(1 0 0 -1 0 612)" d="M286.875 385.0618L297.5977 385.0618" stroke="#000000" stroke-width="0.7855225" fill="none" /><path id="422" transform="matrix(1 0 0 -1 0 612)" d="M297.5977 384.9834L510.3282 384.9834" stroke="#000000" stroke-width="0.7017334" fill="none" /><path id="465" transform="matrix(1 0 0 -1 0 612)" d="M286.875 371.894L500.8882 371.894" stroke="#000000" stroke-width="0.7017334" fill="none" /><path id="509" transform="matrix(1 0 0 -1 0 612)" d="M286.875 358.8049L493.8358 358.8049" stroke="#000000" stroke-width="0.7017334" fill="none" /><path id="524" transform="matrix(1 0 0 -1 0 612)" d="M286.875 345.7158L360.0278 345.7158" stroke="#000000" stroke-width="0.7017334" fill="none" /><path id="630" transform="matrix(1 0 0 -1 0 612)" d="M286.875 316.0549L485.4325 316.0549" stroke="#000000" stroke-width="0.7017334" fill="none" /><path id="648" transform="matrix(1 0 0 -1 0 612)" d="M286.875 302.9658L369.6719 302.9658" stroke="#000000" stroke-width="0.7017334" fill="none" /><path id="723" transform="matrix(1 0 0 -1 0 612)" d="M286.875 273.3049L503.3124 273.3049" stroke="#000000" stroke-width="0.7017334" fill="none" /><path id="734" transform="matrix(1 0 0 -1 0 612)" d="M286.875 260.2158L334.5458 260.2158" stroke="#000000" stroke-width="0.7017334" fill="none" /><path id="818" transform="matrix(1 0 0 -1 0 612)" d="M286.875 217.4658L428.6465 217.4658" stroke="#000000" stroke-width="0.7017334" fill="none" /><path id="920" transform="matrix(1 0 0 -1 0 612)" d="M286.875 187.4658L462.7516 187.4658" stroke="#000000" stroke-width="0.7017334" fill="none" /><path id="1000" transform="matrix(1 0 0 -1 0 612)" d="M286.875 144.7158L508.1343 144.7158" stroke="#000000" stroke-width="0.7017334" fill="none" /><path id="1053" transform="matrix(1 0 0 -1 0 612)" d="M286.875 101.5549L480.3067 101.5549" stroke="#000000" stroke-width="0.7017334" fill="none" /><path id="1080" transform="matrix(1 0 0 -1 0 612)" d="M286.875 88.46582L425.9081 88.46582" stroke="#000000" stroke-width="0.7017334" fill="none" /></g></g></g></svg>