<svg xmlns="http://www.w3.org/2000/svg" xmlns:xlink="http://www.w3.org/1999/xlink" id="body_18" preserveAspectRatio="xMinYMin meet" viewBox="0 0 1056 816"><defs><clipPath id="1"><path id="" clip-rule="evenodd" transform="matrix(1 0 0 1 0 0)" d="M0 612L0 0L0 0L792 0L792 0L792 612L792 612L0 612z" /></clipPath><clipPath id="2"><path id="" clip-rule="evenodd" transform="matrix(1 0 0 1 0 0)" d="M172.875 52.5L619.125 52.5L619.125 52.5L619.125 69.75L619.125 69.75L172.875 69.75L172.875 69.75L172.875 52.5z" /></clipPath><clipPath id="3"><path id="" clip-rule="evenodd" transform="matrix(1 0 0 1 0 0)" d="M172.875 69L619.125 69L619.125 69L619.125 547.5L619.125 547.5L172.875 547.5L172.875 547.5L172.875 69z" /></clipPath></defs><g transform="matrix(1.333333 0 0 1.333333 0 0)"><g clip-path="url(#1)"><g clip-path="url(#2)"><path id="10" transform="matrix(1 0 0 -1 0 612)" d="M173.625 558.75L618.375 558.75L618.375 541.5L173.625 541.5L173.625 558.75z" stroke="none" fill="#4DD0E1" fill-rule="nonzero" /><path id="11" transform="matrix(1 0 0 -1 0 612)" d="M173.625 542.25L618.375 542.25L618.375 541.5L173.625 541.5zM173.625 558.75L618.375 558.75L618.375 558L173.625 558zM618.375 558L618.375 542.25L617.625 542.25L617.625 558zM541.125 558L541.125 542.25L540.375 542.25L540.375 558zM512.625 558L512.625 542.25L511.875 542.25L511.875 558zM284.625 558L284.625 542.25L283.875 542.25L283.875 558zM208.125 558L208.125 542.25L207.375 542.25L207.375 558zM174.375 558L174.375 542.25L173.625 542.25L173.625 558z" stroke="none" fill="#000000" fill-rule="nonzero" fill-opacity="0.1490196" /></g><g clip-path="url(#3)"><path id="39" transform="matrix(1 0 0 -1 0 612)" d="M173.625 542.25L618.375 542.25L618.375 483.75L173.625 483.75L173.625 542.25z" stroke="none" fill="#FFFFFF" fill-rule="nonzero" /><path id="40" transform="matrix(1 0 0 -1 0 612)" d="M173.625 484.5L618.375 484.5L618.375 441L173.625 441L173.625 484.5z" stroke="none" fill="#E0F7FA" fill-rule="nonzero" /><path id="41" transform="matrix(1 0 0 -1 0 612)" d="M173.625 441.75L618.375 441.75L618.375 398.25L173.625 398.25L173.625 441.75z" stroke="none" fill="#FFFFFF" fill-rule="nonzero" /><path id="42" transform="matrix(1 0 0 -1 0 612)" d="M173.625 399L618.375 399L618.375 342L173.625 342L173.625 399z" stroke="none" fill="#E0F7FA" fill-rule="nonzero" /><path id="43" transform="matrix(1 0 0 -1 0 612)" d="M173.625 342.75L618.375 342.75L618.375 299.25L173.625 299.25L173.625 342.75z" stroke="none" fill="#FFFFFF" fill-rule="nonzero" /><path id="44" transform="matrix(1 0 0 -1 0 612)" d="M173.625 300L618.375 300L618.375 269.25L173.625 269.25L173.625 300z" stroke="none" fill="#E0F7FA" fill-rule="nonzero" /><path id="45" transform="matrix(1 0 0 -1 0 612)" d="M173.625 270L618.375 270L618.375 239.25L173.625 239.25L173.625 270z" stroke="none" fill="#FFFFFF" fill-rule="nonzero" /><path id="46" transform="matrix(1 0 0 -1 0 612)" d="M173.625 240L618.375 240L618.375 209.25L173.625 209.25L173.625 240z" stroke="none" fill="#E0F7FA" fill-rule="nonzero" /><path id="47" transform="matrix(1 0 0 -1 0 612)" d="M173.625 210L618.375 210L618.375 153L173.625 153L173.625 210z" stroke="none" fill="#FFFFFF" fill-rule="nonzero" /><path id="48" transform="matrix(1 0 0 -1 0 612)" d="M173.625 153.75L618.375 153.75L618.375 110.25L173.625 110.25L173.625 153.75z" stroke="none" fill="#E0F7FA" fill-rule="nonzero" /><path id="49" transform="matrix(1 0 0 -1 0 612)" d="M173.625 111L618.375 111L618.375 65.25L173.625 65.25L173.625 111z" stroke="none" fill="#FFFFFF" fill-rule="nonzero" /><path id="50" transform="matrix(1 0 0 -1 0 612)" d="M173.625 66L618.375 66L618.375 65.25L173.625 65.25zM173.625 111L618.375 111L618.375 110.25L173.625 110.25zM173.625 153.75L618.375 153.75L618.375 153L173.625 153zM173.625 210L618.375 210L618.375 209.25L173.625 209.25zM173.625 240L618.375 240L618.375 239.25L173.625 239.25zM173.625 270L618.375 270L618.375 269.25L173.625 269.25zM173.625 300L618.375 300L618.375 299.25L173.625 299.25zM173.625 342.75L618.375 342.75L618.375 342L173.625 342zM173.625 399L618.375 399L618.375 398.25L173.625 398.25zM173.625 441.75L618.375 441.75L618.375 441L173.625 441zM173.625 484.5L618.375 484.5L618.375 483.75L173.625 483.75zM173.625 542.25L618.375 542.25L618.375 541.5L173.625 541.5zM618.375 110.25L618.375 66L617.625 66L617.625 110.25zM618.375 153L618.375 111L617.625 111L617.625 153zM618.375 209.25L618.375 153.75L617.625 153.75L617.625 209.25zM618.375 239.25L618.375 210L617.625 210L617.625 239.25zM618.375 269.25L618.375 240L617.625 240L617.625 269.25zM618.375 299.25L618.375 270L617.625 270L617.625 299.25zM618.375 342L618.375 300L617.625 300L617.625 342zM618.375 398.25L618.375 342.75L617.625 342.75L617.625 398.25zM618.375 441L618.375 399L617.625 399L617.625 441zM618.375 483.75L618.375 441.75L617.625 441.75L617.625 483.75zM618.375 541.5L618.375 484.5L617.625 484.5L617.625 541.5zM541.125 110.25L541.125 66L540.375 66L540.375 110.25zM541.125 153L541.125 111L540.375 111L540.375 153zM541.125 209.25L541.125 153.75L540.375 153.75L540.375 209.25zM541.125 239.25L541.125 210L540.375 210L540.375 239.25zM541.125 269.25L541.125 240L540.375 240L540.375 269.25zM541.125 299.25L541.125 270L540.375 270L540.375 299.25zM541.125 342L541.125 300L540.375 300L540.375 342zM541.125 398.25L541.125 342.75L540.375 342.75L540.375 398.25zM541.125 441L541.125 399L540.375 399L540.375 441zM541.125 483.75L541.125 441.75L540.375 441.75L540.375 483.75zM541.125 541.5L541.125 484.5L540.375 484.5L540.375 541.5zM512.625 110.25L512.625 66L511.875 66L511.875 110.25zM512.625 153L512.625 111L511.875 111L511.875 153zM512.625 209.25L512.625 153.75L511.875 153.75L511.875 209.25zM512.625 239.25L512.625 210L511.875 210L511.875 239.25zM512.625 269.25L512.625 240L511.875 240L511.875 269.25zM512.625 299.25L512.625 270L511.875 270L511.875 299.25zM512.625 342L512.625 300L511.875 300L511.875 342zM512.625 398.25L512.625 342.75L511.875 342.75L511.875 398.25zM512.625 441L512.625 399L511.875 399L511.875 441zM512.625 483.75L512.625 441.75L511.875 441.75L511.875 483.75zM512.625 541.5L512.625 484.5L511.875 484.5L511.875 541.5zM284.625 110.25L284.625 66L283.875 66L283.875 110.25zM284.625 153L284.625 111L283.875 111L283.875 153zM284.625 209.25L284.625 153.75L283.875 153.75L283.875 209.25zM284.625 239.25L284.625 210L283.875 210L283.875 239.25zM284.625 269.25L284.625 240L283.875 240L283.875 269.25zM284.625 299.25L284.625 270L283.875 270L283.875 299.25zM284.625 342L284.625 300L283.875 300L283.875 342zM284.625 398.25L284.625 342.75L283.875 342.75L283.875 398.25zM284.625 441L284.625 399L283.875 399L283.875 441zM284.625 483.75L284.625 441.75L283.875 441.75L283.875 483.75zM284.625 541.5L284.625 484.5L283.875 484.5L283.875 541.5zM208.125 110.25L208.125 66L207.375 66L207.375 110.25zM208.125 153L208.125 111L207.375 111L207.375 153zM208.125 209.25L208.125 153.75L207.375 153.75L207.375 209.25zM208.125 239.25L208.125 210L207.375 210L207.375 239.25zM208.125 269.25L208.125 240L207.375 240L207.375 269.25zM208.125 299.25L208.125 270L207.375 270L207.375 299.25zM208.125 342L208.125 300L207.375 300L207.375 342zM208.125 398.25L208.125 342.75L207.375 342.75L207.375 398.25zM208.125 441L208.125 399L207.375 399L207.375 441zM208.125 483.75L208.125 441.75L207.375 441.75L207.375 483.75zM208.125 541.5L208.125 484.5L207.375 484.5L207.375 541.5zM174.375 110.25L174.375 66L173.625 66L173.625 110.25zM174.375 153L174.375 111L173.625 111L173.625 153zM174.375 209.25L174.375 153.75L173.625 153.75L173.625 209.25zM174.375 239.25L174.375 210L173.625 210L173.625 239.25zM174.375 269.25L174.375 240L173.625 240L173.625 269.25zM174.375 299.25L174.375 270L173.625 270L173.625 299.25zM174.375 342L174.375 300L173.625 300L173.625 342zM174.375 398.25L174.375 342.75L173.625 342.75L173.625 398.25zM174.375 441L174.375 399L173.625 399L173.625 441zM174.375 483.75L174.375 441.75L173.625 441.75L173.625 483.75zM174.375 541.5L174.375 484.5L173.625 484.5L173.625 541.5z" stroke="none" fill="#000000" fill-rule="nonzero" fill-opacity="0.1490196" /><path id="125" transform="matrix(1 0 0 -1 0 612)" d="M286.875 487.4658L415.6881 487.4658" stroke="#000000" stroke-width="0.7017334" fill="none" /><path id="190" transform="matrix(1 0 0 -1 0 612)" d="M286.875 457.8047L471.1546 457.8047" stroke="#000000" stroke-width="0.7017334" fill="none" /><path id="203" transform="matrix(1 0 0 -1 0 612)" d="M286.875 444.7158L342.0798 444.7158" stroke="#000000" stroke-width="0.7017334" fill="none" /><path id="259" transform="matrix(1 0 0 -1 0 612)" d="M286.875 428.1436L500.8725 428.1436" stroke="#000000" stroke-width="0.7017334" fill="none" /><path id="303" transform="matrix(1 0 0 -1 0 612)" d="M286.875 415.0547L508.7889 415.0547" stroke="#000000" stroke-width="0.7017334" fill="none" /><path id="325" transform="matrix(1 0 0 -1 0 612)" d="M286.875 401.9658L377.9128 401.9658" stroke="#000000" stroke-width="0.7017334" fill="none" /><path id="401" transform="matrix(1 0 0 -1 0 612)" d="M286.875 358.8047L501.0714 358.8047" stroke="#000000" stroke-width="0.7017334" fill="none" /><path id="431" transform="matrix(1 0 0 -1 0 612)" d="M286.875 345.7158L426.6097 345.7158" stroke="#000000" stroke-width="0.7017334" fill="none" /><path id="528" transform="matrix(1 0 0 -1 0 612)" d="M286.875 329.1436L498.2652 329.1436" stroke="#000000" stroke-width="0.7017334" fill="none" /><path id="566" transform="matrix(1 0 0 -1 0 612)" d="M286.875 316.0547L465.1337 316.0547" stroke="#000000" stroke-width="0.7017334" fill="none" /><path id="607" transform="matrix(1 0 0 -1 0 612)" d="M286.875 302.9658L499.1132 302.9658" stroke="#000000" stroke-width="0.7017334" fill="none" /><path id="662" transform="matrix(1 0 0 -1 0 612)" d="M286.875 272.9658L431.1177 272.9658" stroke="#000000" stroke-width="0.7017334" fill="none" /><path id="731" transform="matrix(1 0 0 -1 0 612)" d="M286.875 242.9658L449.7986 242.9658" stroke="#000000" stroke-width="0.7017334" fill="none" /><path id="810" transform="matrix(1 0 0 -1 0 612)" d="M286.875 226.0547L492.9769 226.0547" stroke="#000000" stroke-width="0.7017334" fill="none" /><path id="821" transform="matrix(1 0 0 -1 0 612)" d="M286.875 212.9658L331.3258 212.9658" stroke="#000000" stroke-width="0.7017334" fill="none" /><path id="924" transform="matrix(1 0 0 -1 0 612)" d="M286.875 195.9824L501.9459 195.9824" stroke="#000000" stroke-width="0.7017334" fill="none" /><path id="964" transform="matrix(1 0 0 -1 0 612)" d="M286.875 182.8936L499.1082 182.8936" stroke="#000000" stroke-width="0.7017334" fill="none" /><path id="1007" transform="matrix(1 0 0 -1 0 612)" d="M286.875 169.8047L504.1238 169.8047" stroke="#000000" stroke-width="0.7017334" fill="none" /><path id="1015" transform="matrix(1 0 0 -1 0 612)" d="M286.875 156.7158L316.5193 156.7158" stroke="#000000" stroke-width="0.7017334" fill="none" /><path id="1097" transform="matrix(1 0 0 -1 0 612)" d="M286.875 140.1436L484.0136 140.1436" stroke="#000000" stroke-width="0.7017334" fill="none" /><path id="1134" transform="matrix(1 0 0 -1 0 612)" d="M286.875 127.0547L476.134 127.0547" stroke="#000000" stroke-width="0.7017334" fill="none" /><path id="1145" transform="matrix(1 0 0 -1 0 612)" d="M286.875 113.9658L331.6557 113.9658" stroke="#000000" stroke-width="0.7017334" fill="none" /><path id="1217" transform="matrix(1 0 0 -1 0 612)" d="M286.875 95.14355L506.2809 95.14355" stroke="#000000" stroke-width="0.7017334" fill="none" /><path id="1250" transform="matrix(1 0 0 -1 0 612)" d="M286.875 82.05469L478.7884 82.05469" stroke="#000000" stroke-width="0.7017334" fill="none" /><path id="1271" transform="matrix(1 0 0 -1 0 612)" d="M286.875 68.96582L409.2745 68.96582" stroke="#000000" stroke-width="0.7017334" fill="none" /></g></g></g></svg>