<svg xmlns="http://www.w3.org/2000/svg" xmlns:xlink="http://www.w3.org/1999/xlink" id="body_35" preserveAspectRatio="xMinYMin meet" viewBox="0 0 1056 816"><defs><clipPath id="1"><path id="" clip-rule="evenodd" transform="matrix(1 0 0 1 0 0)" d="M0 612L0 0L0 0L792 0L792 0L792 612L792 612L0 612z" /></clipPath><clipPath id="2"><path id="" clip-rule="evenodd" transform="matrix(1 0 0 1 0 0)" d="M172.875 52.5L619.125 52.5L619.125 52.5L619.125 69.75L619.125 69.75L172.875 69.75L172.875 69.75L172.875 52.5z" /></clipPath><clipPath id="3"><path id="" clip-rule="evenodd" transform="matrix(1 0 0 1 0 0)" d="M172.875 69L619.125 69L619.125 69L619.125 550.5L619.125 550.5L172.875 550.5L172.875 550.5L172.875 69z" /></clipPath></defs><g transform="matrix(1.333333 0 0 1.333333 0 0)"><g clip-path="url(#1)"><g clip-path="url(#2)"><path id="10" transform="matrix(1 0 0 -1 0 612)" d="M173.625 558.75L618.375 558.75L618.375 541.5L173.625 541.5L173.625 558.75z" stroke="none" fill="#4DD0E1" fill-rule="nonzero" /><path id="11" transform="matrix(1 0 0 -1 0 612)" d="M173.625 542.25L618.375 542.25L618.375 541.5L173.625 541.5zM173.625 558.75L618.375 558.75L618.375 558L173.625 558zM618.375 558L618.375 542.25L617.625 542.25L617.625 558zM541.125 558L541.125 542.25L540.375 542.25L540.375 558zM512.625 558L512.625 542.25L511.875 542.25L511.875 558zM284.625 558L284.625 542.25L283.875 542.25L283.875 558zM208.125 558L208.125 542.25L207.375 542.25L207.375 558zM174.375 558L174.375 542.25L173.625 542.25L173.625 558z" stroke="none" fill="#000000" fill-rule="nonzero" fill-opacity="0.1490196" /></g><g clip-path="url(#3)"><path id="39" transform="matrix(1 0 0 -1 0 612)" d="M173.625 542.25L618.375 542.25L618.375 498.75L173.625 498.75L173.625 542.25z" stroke="none" fill="#E0F7FA" fill-rule="nonzero" /><path id="40" transform="matrix(1 0 0 -1 0 612)" d="M173.625 499.5L618.375 499.5L618.375 442.5L173.625 442.5L173.625 499.5z" stroke="none" fill="#FFFFFF" fill-rule="nonzero" /><path id="41" transform="matrix(1 0 0 -1 0 612)" d="M173.625 443.25L618.375 443.25L618.375 399.75L173.625 399.75L173.625 443.25z" stroke="none" fill="#E0F7FA" fill-rule="nonzero" /><path id="42" transform="matrix(1 0 0 -1 0 612)" d="M173.625 400.5L618.375 400.5L618.375 369.75L173.625 369.75L173.625 400.5z" stroke="none" fill="#FFFFFF" fill-rule="nonzero" /><path id="43" transform="matrix(1 0 0 -1 0 612)" d="M173.625 370.5L618.375 370.5L618.375 327L173.625 327L173.625 370.5z" stroke="none" fill="#E0F7FA" fill-rule="nonzero" /><path id="44" transform="matrix(1 0 0 -1 0 612)" d="M173.625 327.75L618.375 327.75L618.375 310.5L173.625 310.5L173.625 327.75z" stroke="none" fill="#FFFFFF" fill-rule="nonzero" /><path id="45" transform="matrix(1 0 0 -1 0 612)" d="M173.625 311.25L618.375 311.25L618.375 267.75L173.625 267.75L173.625 311.25z" stroke="none" fill="#E0F7FA" fill-rule="nonzero" /><path id="46" transform="matrix(1 0 0 -1 0 612)" d="M173.625 268.5L618.375 268.5L618.375 225L173.625 225L173.625 268.5z" stroke="none" fill="#FFFFFF" fill-rule="nonzero" /><path id="47" transform="matrix(1 0 0 -1 0 612)" d="M173.625 225.75L618.375 225.75L618.375 195L173.625 195L173.625 225.75z" stroke="none" fill="#E0F7FA" fill-rule="nonzero" /><path id="48" transform="matrix(1 0 0 -1 0 612)" d="M173.625 195.75L618.375 195.75L618.375 152.25L173.625 152.25L173.625 195.75z" stroke="none" fill="#FFFFFF" fill-rule="nonzero" /><path id="49" transform="matrix(1 0 0 -1 0 612)" d="M173.625 153L618.375 153L618.375 122.25L173.625 122.25L173.625 153z" stroke="none" fill="#E0F7FA" fill-rule="nonzero" /><path id="50" transform="matrix(1 0 0 -1 0 612)" d="M173.625 123L618.375 123L618.375 92.25L173.625 92.25L173.625 123z" stroke="none" fill="#FFFFFF" fill-rule="nonzero" /><path id="51" transform="matrix(1 0 0 -1 0 612)" d="M173.625 93L618.375 93L618.375 62.25L173.625 62.25L173.625 93z" stroke="none" fill="#E0F7FA" fill-rule="nonzero" /><path id="52" transform="matrix(1 0 0 -1 0 612)" d="M173.625 63L618.375 63L618.375 62.25L173.625 62.25zM173.625 93L618.375 93L618.375 92.25L173.625 92.25zM173.625 123L618.375 123L618.375 122.25L173.625 122.25zM173.625 153L618.375 153L618.375 152.25L173.625 152.25zM173.625 195.75L618.375 195.75L618.375 195L173.625 195zM173.625 225.75L618.375 225.75L618.375 225L173.625 225zM173.625 268.5L618.375 268.5L618.375 267.75L173.625 267.75zM173.625 311.25L618.375 311.25L618.375 310.5L173.625 310.5zM173.625 327.75L618.375 327.75L618.375 327L173.625 327zM173.625 370.5L618.375 370.5L618.375 369.75L173.625 369.75zM173.625 400.5L618.375 400.5L618.375 399.75L173.625 399.75zM173.625 443.25L618.375 443.25L618.375 442.5L173.625 442.5zM173.625 499.5L618.375 499.5L618.375 498.75L173.625 498.75zM173.625 542.25L618.375 542.25L618.375 541.5L173.625 541.5zM618.375 92.25L618.375 63L617.625 63L617.625 92.25zM618.375 122.25L618.375 93L617.625 93L617.625 122.25zM618.375 152.25L618.375 123L617.625 123L617.625 152.25zM618.375 195L618.375 153L617.625 153L617.625 195zM618.375 225L618.375 195.75L617.625 195.75L617.625 225zM618.375 267.75L618.375 225.75L617.625 225.75L617.625 267.75zM618.375 310.5L618.375 268.5L617.625 268.5L617.625 310.5zM618.375 327L618.375 311.25L617.625 311.25L617.625 327zM618.375 369.75L618.375 327.75L617.625 327.75L617.625 369.75zM618.375 399.75L618.375 370.5L617.625 370.5L617.625 399.75zM618.375 442.5L618.375 400.5L617.625 400.5L617.625 442.5zM618.375 498.75L618.375 443.25L617.625 443.25L617.625 498.75zM618.375 541.5L618.375 499.5L617.625 499.5L617.625 541.5zM541.125 92.25L541.125 63L540.375 63L540.375 92.25zM541.125 122.25L541.125 93L540.375 93L540.375 122.25zM541.125 152.25L541.125 123L540.375 123L540.375 152.25zM541.125 195L541.125 153L540.375 153L540.375 195zM541.125 225L541.125 195.75L540.375 195.75L540.375 225zM541.125 267.75L541.125 225.75L540.375 225.75L540.375 267.75zM541.125 310.5L541.125 268.5L540.375 268.5L540.375 310.5zM541.125 327L541.125 311.25L540.375 311.25L540.375 327zM541.125 369.75L541.125 327.75L540.375 327.75L540.375 369.75zM541.125 399.75L541.125 370.5L540.375 370.5L540.375 399.75zM541.125 442.5L541.125 400.5L540.375 400.5L540.375 442.5zM541.125 498.75L541.125 443.25L540.375 443.25L540.375 498.75zM541.125 541.5L541.125 499.5L540.375 499.5L540.375 541.5zM512.625 92.25L512.625 63L511.875 63L511.875 92.25zM512.625 122.25L512.625 93L511.875 93L511.875 122.25zM512.625 152.25L512.625 123L511.875 123L511.875 152.25zM512.625 195L512.625 153L511.875 153L511.875 195zM512.625 225L512.625 195.75L511.875 195.75L511.875 225zM512.625 267.75L512.625 225.75L511.875 225.75L511.875 267.75zM512.625 310.5L512.625 268.5L511.875 268.5L511.875 310.5zM512.625 327L512.625 311.25L511.875 311.25L511.875 327zM512.625 369.75L512.625 327.75L511.875 327.75L511.875 369.75zM512.625 399.75L512.625 370.5L511.875 370.5L511.875 399.75zM512.625 442.5L512.625 400.5L511.875 400.5L511.875 442.5zM512.625 498.75L512.625 443.25L511.875 443.25L511.875 498.75zM512.625 541.5L512.625 499.5L511.875 499.5L511.875 541.5zM284.625 92.25L284.625 63L283.875 63L283.875 92.25zM284.625 122.25L284.625 93L283.875 93L283.875 122.25zM284.625 152.25L284.625 123L283.875 123L283.875 152.25zM284.625 195L284.625 153L283.875 153L283.875 195zM284.625 225L284.625 195.75L283.875 195.75L283.875 225zM284.625 267.75L284.625 225.75L283.875 225.75L283.875 267.75zM284.625 310.5L284.625 268.5L283.875 268.5L283.875 310.5zM284.625 327L284.625 311.25L283.875 311.25L283.875 327zM284.625 369.75L284.625 327.75L283.875 327.75L283.875 369.75zM284.625 399.75L284.625 370.5L283.875 370.5L283.875 399.75zM284.625 442.5L284.625 400.5L283.875 400.5L283.875 442.5zM284.625 498.75L284.625 443.25L283.875 443.25L283.875 498.75zM284.625 541.5L284.625 499.5L283.875 499.5L283.875 541.5zM208.125 92.25L208.125 63L207.375 63L207.375 92.25zM208.125 122.25L208.125 93L207.375 93L207.375 122.25zM208.125 152.25L208.125 123L207.375 123L207.375 152.25zM208.125 195L208.125 153L207.375 153L207.375 195zM208.125 225L208.125 195.75L207.375 195.75L207.375 225zM208.125 267.75L208.125 225.75L207.375 225.75L207.375 267.75zM208.125 310.5L208.125 268.5L207.375 268.5L207.375 310.5zM208.125 327L208.125 311.25L207.375 311.25L207.375 327zM208.125 369.75L208.125 327.75L207.375 327.75L207.375 369.75zM208.125 399.75L208.125 370.5L207.375 370.5L207.375 399.75zM208.125 442.5L208.125 400.5L207.375 400.5L207.375 442.5zM208.125 498.75L208.125 443.25L207.375 443.25L207.375 498.75zM208.125 541.5L208.125 499.5L207.375 499.5L207.375 541.5zM174.375 92.25L174.375 63L173.625 63L173.625 92.25zM174.375 122.25L174.375 93L173.625 93L173.625 122.25zM174.375 152.25L174.375 123L173.625 123L173.625 152.25zM174.375 195L174.375 153L173.625 153L173.625 195zM174.375 225L174.375 195.75L173.625 195.75L173.625 225zM174.375 267.75L174.375 225.75L173.625 225.75L173.625 267.75zM174.375 310.5L174.375 268.5L173.625 268.5L173.625 310.5zM174.375 327L174.375 311.25L173.625 311.25L173.625 327zM174.375 369.75L174.375 327.75L173.625 327.75L173.625 369.75zM174.375 399.75L174.375 370.5L173.625 370.5L173.625 399.75zM174.375 442.5L174.375 400.5L173.625 400.5L173.625 442.5zM174.375 498.75L174.375 443.25L173.625 443.25L173.625 498.75zM174.375 541.5L174.375 499.5L173.625 499.5L173.625 541.5z" stroke="none" fill="#000000" fill-rule="nonzero" fill-opacity="0.1490196" /><path id="103" transform="matrix(1 0 0 -1 0 612)" d="M286.875 515.5566L485.1497 515.5566" stroke="#000000" stroke-width="0.7017334" fill="none" /><path id="137" transform="matrix(1 0 0 -1 0 612)" d="M286.875 502.4668L451.4426 502.4668" stroke="#000000" stroke-width="0.7017334" fill="none" /><path id="249" transform="matrix(1 0 0 -1 0 612)" d="M286.875 446.2168L478.9718 446.2168" stroke="#000000" stroke-width="0.7017334" fill="none" /><path id="301" transform="matrix(1 0 0 -1 0 612)" d="M286.875 416.5566L471.5476 416.5566" stroke="#000000" stroke-width="0.7017334" fill="none" /><path id="328" transform="matrix(1 0 0 -1 0 612)" d="M286.875 403.4668L417.4736 403.4668" stroke="#000000" stroke-width="0.7017334" fill="none" /><path id="412" transform="matrix(1 0 0 -1 0 612)" d="M286.875 386.5566L495.6994 386.5566" stroke="#000000" stroke-width="0.7017334" fill="none" /><path id="422" transform="matrix(1 0 0 -1 0 612)" d="M286.875 373.4668L324.8388 373.4668" stroke="#000000" stroke-width="0.7017334" fill="none" /><path id="525" transform="matrix(1 0 0 -1 0 612)" d="M286.875 343.8066L504.5167 343.8066" stroke="#000000" stroke-width="0.7017334" fill="none" /><path id="545" transform="matrix(1 0 0 -1 0 612)" d="M286.875 330.7168L373.9807 330.7168" stroke="#000000" stroke-width="0.7017334" fill="none" /><path id="622" transform="matrix(1 0 0 -1 0 612)" d="M286.875 314.2168L488.3907 314.2168" stroke="#000000" stroke-width="0.7017334" fill="none" /><path id="690" transform="matrix(1 0 0 -1 0 612)" d="M286.875 284.5566L510.9827 284.5566" stroke="#000000" stroke-width="0.7017334" fill="none" /><path id="713" transform="matrix(1 0 0 -1 0 612)" d="M286.875 271.4668L397.6876 271.4668" stroke="#000000" stroke-width="0.7017334" fill="none" /><path id="796" transform="matrix(1 0 0 -1 0 612)" d="M286.875 228.7168L373.2373 228.7168" stroke="#000000" stroke-width="0.7017334" fill="none" /><path id="872" transform="matrix(1 0 0 -1 0 612)" d="M286.875 211.8066L492.9614 211.8066" stroke="#000000" stroke-width="0.7017334" fill="none" /><path id="909" transform="matrix(1 0 0 -1 0 612)" d="M286.875 198.7168L452.2697 198.7168" stroke="#000000" stroke-width="0.7017334" fill="none" /><path id="969" transform="matrix(1 0 0 -1 0 612)" d="M286.875 169.0566L491.2389 169.0566" stroke="#000000" stroke-width="0.7017334" fill="none" /><path id="989" transform="matrix(1 0 0 -1 0 612)" d="M286.875 155.9668L376.028 155.9668" stroke="#000000" stroke-width="0.7017334" fill="none" /><path id="1078" transform="matrix(1 0 0 -1 0 612)" d="M286.875 125.9668L491.9092 125.9668" stroke="#000000" stroke-width="0.7017334" fill="none" /><path id="1135" transform="matrix(1 0 0 -1 0 612)" d="M286.875 95.9668L367.8602 95.9668" stroke="#000000" stroke-width="0.7017334" fill="none" /><path id="1224" transform="matrix(1 0 0 -1 0 612)" d="M286.875 79.05664L507.8098 79.05664" stroke="#000000" stroke-width="0.7017334" fill="none" /><path id="1239" transform="matrix(1 0 0 -1 0 612)" d="M286.875 65.9668L355.0172 65.9668" stroke="#000000" stroke-width="0.7017334" fill="none" /></g></g></g></svg>