<svg xmlns="http://www.w3.org/2000/svg" xmlns:xlink="http://www.w3.org/1999/xlink" id="body_33" preserveAspectRatio="xMinYMin meet" viewBox="0 0 1056 816"><defs><clipPath id="1"><path id="" clip-rule="evenodd" transform="matrix(1 0 0 1 0 0)" d="M0 612L0 0L0 0L792 0L792 0L792 612L792 612L0 612z" /></clipPath><clipPath id="2"><path id="" clip-rule="evenodd" transform="matrix(1 0 0 1 0 0)" d="M172.875 52.5L619.125 52.5L619.125 52.5L619.125 69.75L619.125 69.75L172.875 69.75L172.875 69.75L172.875 52.5z" /></clipPath><clipPath id="3"><path id="" clip-rule="evenodd" transform="matrix(1 0 0 1 0 0)" d="M172.875 69L619.125 69L619.125 69L619.125 504L619.125 504L172.875 504L172.875 504L172.875 69z" /></clipPath></defs><g transform="matrix(1.333333 0 0 1.333333 0 0)"><g clip-path="url(#1)"><g clip-path="url(#2)"><path id="10" transform="matrix(1 0 0 -1 0 612)" d="M173.625 558.75L618.375 558.75L618.375 541.5L173.625 541.5L173.625 558.75z" stroke="none" fill="#4DD0E1" fill-rule="nonzero" /><path id="11" transform="matrix(1 0 0 -1 0 612)" d="M173.625 542.25L618.375 542.25L618.375 541.5L173.625 541.5zM173.625 558.75L618.375 558.75L618.375 558L173.625 558zM618.375 558L618.375 542.25L617.625 542.25L617.625 558zM541.125 558L541.125 542.25L540.375 542.25L540.375 558zM512.625 558L512.625 542.25L511.875 542.25L511.875 558zM284.625 558L284.625 542.25L283.875 542.25L283.875 558zM208.125 558L208.125 542.25L207.375 542.25L207.375 558zM174.375 558L174.375 542.25L173.625 542.25L173.625 558z" stroke="none" fill="#000000" fill-rule="nonzero" fill-opacity="0.1490196" /></g><g clip-path="url(#3)"><path id="39" transform="matrix(1 0 0 -1 0 612)" d="M173.625 542.25L618.375 542.25L618.375 498.75L173.625 498.75L173.625 542.25z" stroke="none" fill="#E0F7FA" fill-rule="nonzero" /><path id="40" transform="matrix(1 0 0 -1 0 612)" d="M173.625 499.5L618.375 499.5L618.375 456L173.625 456L173.625 499.5z" stroke="none" fill="#FFFFFF" fill-rule="nonzero" /><path id="41" transform="matrix(1 0 0 -1 0 612)" d="M173.625 456.75L618.375 456.75L618.375 439.5L173.625 439.5L173.625 456.75z" stroke="none" fill="#E0F7FA" fill-rule="nonzero" /><path id="42" transform="matrix(1 0 0 -1 0 612)" d="M173.625 440.25L618.375 440.25L618.375 383.25L173.625 383.25L173.625 440.25z" stroke="none" fill="#FFFFFF" fill-rule="nonzero" /><path id="43" transform="matrix(1 0 0 -1 0 612)" d="M173.625 384L618.375 384L618.375 340.5L173.625 340.5L173.625 384z" stroke="none" fill="#E0F7FA" fill-rule="nonzero" /><path id="44" transform="matrix(1 0 0 -1 0 612)" d="M173.625 341.25L618.375 341.25L618.375 310.5L173.625 310.5L173.625 341.25z" stroke="none" fill="#FFFFFF" fill-rule="nonzero" /><path id="45" transform="matrix(1 0 0 -1 0 612)" d="M173.625 311.25L618.375 311.25L618.375 254.25L173.625 254.25L173.625 311.25z" stroke="none" fill="#E0F7FA" fill-rule="nonzero" /><path id="46" transform="matrix(1 0 0 -1 0 612)" d="M173.625 255L618.375 255L618.375 224.25L173.625 224.25L173.625 255z" stroke="none" fill="#FFFFFF" fill-rule="nonzero" /><path id="47" transform="matrix(1 0 0 -1 0 612)" d="M173.625 225L618.375 225L618.375 181.5L173.625 181.5L173.625 225z" stroke="none" fill="#E0F7FA" fill-rule="nonzero" /><path id="48" transform="matrix(1 0 0 -1 0 612)" d="M173.625 182.25L618.375 182.25L618.375 165L173.625 165L173.625 182.25z" stroke="none" fill="#FFFFFF" fill-rule="nonzero" /><path id="49" transform="matrix(1 0 0 -1 0 612)" d="M173.625 165.75L618.375 165.75L618.375 108.75L173.625 108.75L173.625 165.75z" stroke="none" fill="#E0F7FA" fill-rule="nonzero" /><path id="50" transform="matrix(1 0 0 -1 0 612)" d="M173.625 109.5L618.375 109.5L618.375 108.75L173.625 108.75zM173.625 165.75L618.375 165.75L618.375 165L173.625 165zM173.625 182.25L618.375 182.25L618.375 181.5L173.625 181.5zM173.625 225L618.375 225L618.375 224.25L173.625 224.25zM173.625 255L618.375 255L618.375 254.25L173.625 254.25zM173.625 311.25L618.375 311.25L618.375 310.5L173.625 310.5zM173.625 341.25L618.375 341.25L618.375 340.5L173.625 340.5zM173.625 384L618.375 384L618.375 383.25L173.625 383.25zM173.625 440.25L618.375 440.25L618.375 439.5L173.625 439.5zM173.625 456.75L618.375 456.75L618.375 456L173.625 456zM173.625 499.5L618.375 499.5L618.375 498.75L173.625 498.75zM173.625 542.25L618.375 542.25L618.375 541.5L173.625 541.5zM618.375 165L618.375 109.5L617.625 109.5L617.625 165zM618.375 181.5L618.375 165.75L617.625 165.75L617.625 181.5zM618.375 224.25L618.375 182.25L617.625 182.25L617.625 224.25zM618.375 254.25L618.375 225L617.625 225L617.625 254.25zM618.375 310.5L618.375 255L617.625 255L617.625 310.5zM618.375 340.5L618.375 311.25L617.625 311.25L617.625 340.5zM618.375 383.25L618.375 341.25L617.625 341.25L617.625 383.25zM618.375 439.5L618.375 384L617.625 384L617.625 439.5zM618.375 456L618.375 440.25L617.625 440.25L617.625 456zM618.375 498.75L618.375 456.75L617.625 456.75L617.625 498.75zM618.375 541.5L618.375 499.5L617.625 499.5L617.625 541.5zM541.125 165L541.125 109.5L540.375 109.5L540.375 165zM541.125 181.5L541.125 165.75L540.375 165.75L540.375 181.5zM541.125 224.25L541.125 182.25L540.375 182.25L540.375 224.25zM541.125 254.25L541.125 225L540.375 225L540.375 254.25zM541.125 310.5L541.125 255L540.375 255L540.375 310.5zM541.125 340.5L541.125 311.25L540.375 311.25L540.375 340.5zM541.125 383.25L541.125 341.25L540.375 341.25L540.375 383.25zM541.125 439.5L541.125 384L540.375 384L540.375 439.5zM541.125 456L541.125 440.25L540.375 440.25L540.375 456zM541.125 498.75L541.125 456.75L540.375 456.75L540.375 498.75zM541.125 541.5L541.125 499.5L540.375 499.5L540.375 541.5zM512.625 165L512.625 109.5L511.875 109.5L511.875 165zM512.625 181.5L512.625 165.75L511.875 165.75L511.875 181.5zM512.625 224.25L512.625 182.25L511.875 182.25L511.875 224.25zM512.625 254.25L512.625 225L511.875 225L511.875 254.25zM512.625 310.5L512.625 255L511.875 255L511.875 310.5zM512.625 340.5L512.625 311.25L511.875 311.25L511.875 340.5zM512.625 383.25L512.625 341.25L511.875 341.25L511.875 383.25zM512.625 439.5L512.625 384L511.875 384L511.875 439.5zM512.625 456L512.625 440.25L511.875 440.25L511.875 456zM512.625 498.75L512.625 456.75L511.875 456.75L511.875 498.75zM512.625 541.5L512.625 499.5L511.875 499.5L511.875 541.5zM284.625 165L284.625 109.5L283.875 109.5L283.875 165zM284.625 181.5L284.625 165.75L283.875 165.75L283.875 181.5zM284.625 224.25L284.625 182.25L283.875 182.25L283.875 224.25zM284.625 254.25L284.625 225L283.875 225L283.875 254.25zM284.625 310.5L284.625 255L283.875 255L283.875 310.5zM284.625 340.5L284.625 311.25L283.875 311.25L283.875 340.5zM284.625 383.25L284.625 341.25L283.875 341.25L283.875 383.25zM284.625 439.5L284.625 384L283.875 384L283.875 439.5zM284.625 456L284.625 440.25L283.875 440.25L283.875 456zM284.625 498.75L284.625 456.75L283.875 456.75L283.875 498.75zM284.625 541.5L284.625 499.5L283.875 499.5L283.875 541.5zM208.125 165L208.125 109.5L207.375 109.5L207.375 165zM208.125 181.5L208.125 165.75L207.375 165.75L207.375 181.5zM208.125 224.25L208.125 182.25L207.375 182.25L207.375 224.25zM208.125 254.25L208.125 225L207.375 225L207.375 254.25zM208.125 310.5L208.125 255L207.375 255L207.375 310.5zM208.125 340.5L208.125 311.25L207.375 311.25L207.375 340.5zM208.125 383.25L208.125 341.25L207.375 341.25L207.375 383.25zM208.125 439.5L208.125 384L207.375 384L207.375 439.5zM208.125 456L208.125 440.25L207.375 440.25L207.375 456zM208.125 498.75L208.125 456.75L207.375 456.75L207.375 498.75zM208.125 541.5L208.125 499.5L207.375 499.5L207.375 541.5zM174.375 165L174.375 109.5L173.625 109.5L173.625 165zM174.375 181.5L174.375 165.75L173.625 165.75L173.625 181.5zM174.375 224.25L174.375 182.25L173.625 182.25L173.625 224.25zM174.375 254.25L174.375 225L173.625 225L173.625 254.25zM174.375 310.5L174.375 255L173.625 255L173.625 310.5zM174.375 340.5L174.375 311.25L173.625 311.25L173.625 340.5zM174.375 383.25L174.375 341.25L173.625 341.25L173.625 383.25zM174.375 439.5L174.375 384L173.625 384L173.625 439.5zM174.375 456L174.375 440.25L173.625 440.25L173.625 456zM174.375 498.75L174.375 456.75L173.625 456.75L173.625 498.75zM174.375 541.5L174.375 499.5L173.625 499.5L173.625 541.5z" stroke="none" fill="#000000" fill-rule="nonzero" fill-opacity="0.1490196" /><path id="98" transform="matrix(1 0 0 -1 0 612)" d="M286.875 528.6445L457.3745 528.6445" stroke="#000000" stroke-width="0.7017334" fill="none" /><path id="139" transform="matrix(1 0 0 -1 0 612)" d="M286.875 515.5566L479.4115 515.5566" stroke="#000000" stroke-width="0.7017334" fill="none" /><path id="175" transform="matrix(1 0 0 -1 0 612)" d="M286.875 502.4668L459.2542 502.4668" stroke="#000000" stroke-width="0.7017334" fill="none" /><path id="264" transform="matrix(1 0 0 -1 0 612)" d="M286.875 472.8066L495.8463 472.8066" stroke="#000000" stroke-width="0.7017334" fill="none" /><path id="280" transform="matrix(1 0 0 -1 0 612)" d="M286.875 459.7168L360.436 459.7168" stroke="#000000" stroke-width="0.7017334" fill="none" /><path id="353" transform="matrix(1 0 0 -1 0 612)" d="M286.875 443.2168L408.6985 443.2168" stroke="#000000" stroke-width="0.7017334" fill="none" /><path id="406" transform="matrix(1 0 0 -1 0 612)" d="M286.875 413.1445L501.0296 413.1445" stroke="#000000" stroke-width="0.7017334" fill="none" /><path id="448" transform="matrix(1 0 0 -1 0 612)" d="M286.875 400.0566L487.3436 400.0566" stroke="#000000" stroke-width="0.7017334" fill="none" /><path id="488" transform="matrix(1 0 0 -1 0 612)" d="M286.875 386.9668L478.8303 386.9668" stroke="#000000" stroke-width="0.7017334" fill="none" /><path id="603" transform="matrix(1 0 0 -1 0 612)" d="M286.875 370.3945L500.3334 370.3945" stroke="#000000" stroke-width="0.7017334" fill="none" /><path id="647" transform="matrix(1 0 0 -1 0 612)" d="M286.875 357.3066L496.2546 357.3066" stroke="#000000" stroke-width="0.7017334" fill="none" /><path id="662" transform="matrix(1 0 0 -1 0 612)" d="M286.875 344.2168L351.9073 344.2168" stroke="#000000" stroke-width="0.7017334" fill="none" /><path id="744" transform="matrix(1 0 0 -1 0 612)" d="M286.875 327.3066L471.9193 327.3066" stroke="#000000" stroke-width="0.7017334" fill="none" /><path id="789" transform="matrix(1 0 0 -1 0 612)" d="M286.875 314.2168L500.5375 314.2168" stroke="#000000" stroke-width="0.7017334" fill="none" /><path id="855" transform="matrix(1 0 0 -1 0 612)" d="M286.875 271.0566L475.2649 271.0566" stroke="#000000" stroke-width="0.7017334" fill="none" /><path id="874" transform="matrix(1 0 0 -1 0 612)" d="M286.875 257.9668L385.8711 257.9668" stroke="#000000" stroke-width="0.7017334" fill="none" /><path id="964" transform="matrix(1 0 0 -1 0 612)" d="M286.875 241.0566L491.1237 241.0566" stroke="#000000" stroke-width="0.7017334" fill="none" /><path id="1006" transform="matrix(1 0 0 -1 0 612)" d="M286.875 227.9668L480.5948 227.9668" stroke="#000000" stroke-width="0.7017334" fill="none" /><path id="1069" transform="matrix(1 0 0 -1 0 612)" d="M286.875 185.2168L507.9983 185.2168" stroke="#000000" stroke-width="0.7017334" fill="none" /><path id="1151" transform="matrix(1 0 0 -1 0 612)" d="M286.875 168.7168L489.0713 168.7168" stroke="#000000" stroke-width="0.7017334" fill="none" /><path id="1233" transform="matrix(1 0 0 -1 0 612)" d="M286.875 125.5566L489.7153 125.5566" stroke="#000000" stroke-width="0.7017334" fill="none" /><path id="1257" transform="matrix(1 0 0 -1 0 612)" d="M286.875 112.4668L400.1853 112.4668" stroke="#000000" stroke-width="0.7017334" fill="none" /></g></g></g></svg>