<svg xmlns="http://www.w3.org/2000/svg" xmlns:xlink="http://www.w3.org/1999/xlink" id="body_20" preserveAspectRatio="xMinYMin meet" viewBox="0 0 1056 816"><defs><clipPath id="1"><path id="" clip-rule="evenodd" transform="matrix(1 0 0 1 0 0)" d="M0 612L0 0L0 0L792 0L792 0L792 612L792 612L0 612z" /></clipPath><clipPath id="2"><path id="" clip-rule="evenodd" transform="matrix(1 0 0 1 0 0)" d="M172.875 52.5L619.125 52.5L619.125 52.5L619.125 69.75L619.125 69.75L172.875 69.75L172.875 69.75L172.875 52.5z" /></clipPath><clipPath id="3"><path id="" clip-rule="evenodd" transform="matrix(1 0 0 1 0 0)" d="M172.875 69L619.125 69L619.125 69L619.125 547.5L619.125 547.5L172.875 547.5L172.875 547.5L172.875 69z" /></clipPath></defs><g transform="matrix(1.333333 0 0 1.333333 0 0)"><g clip-path="url(#1)"><g clip-path="url(#2)"><path id="10" transform="matrix(1 0 0 -1 0 612)" d="M173.625 558.75L618.375 558.75L618.375 541.5L173.625 541.5L173.625 558.75z" stroke="none" fill="#4DD0E1" fill-rule="nonzero" /><path id="11" transform="matrix(1 0 0 -1 0 612)" d="M173.625 542.25L618.375 542.25L618.375 541.5L173.625 541.5zM173.625 558.75L618.375 558.75L618.375 558L173.625 558zM618.375 558L618.375 542.25L617.625 542.25L617.625 558zM541.125 558L541.125 542.25L540.375 542.25L540.375 558zM512.625 558L512.625 542.25L511.875 542.25L511.875 558zM284.625 558L284.625 542.25L283.875 542.25L283.875 558zM208.125 558L208.125 542.25L207.375 542.25L207.375 558zM174.375 558L174.375 542.25L173.625 542.25L173.625 558z" stroke="none" fill="#000000" fill-rule="nonzero" fill-opacity="0.1490196" /></g><g clip-path="url(#3)"><path id="39" transform="matrix(1 0 0 -1 0 612)" d="M173.625 542.25L618.375 542.25L618.375 485.25L173.625 485.25L173.625 542.25z" stroke="none" fill="#FFFFFF" fill-rule="nonzero" /><path id="40" transform="matrix(1 0 0 -1 0 612)" d="M173.625 486L618.375 486L618.375 455.25L173.625 455.25L173.625 486z" stroke="none" fill="#E0F7FA" fill-rule="nonzero" /><path id="41" transform="matrix(1 0 0 -1 0 612)" d="M173.625 456L618.375 456L618.375 425.25L173.625 425.25L173.625 456z" stroke="none" fill="#FFFFFF" fill-rule="nonzero" /><path id="42" transform="matrix(1 0 0 -1 0 612)" d="M173.625 426L618.375 426L618.375 382.5L173.625 382.5L173.625 426z" stroke="none" fill="#E0F7FA" fill-rule="nonzero" /><path id="43" transform="matrix(1 0 0 -1 0 612)" d="M173.625 383.25L618.375 383.25L618.375 339.75L173.625 339.75L173.625 383.25z" stroke="none" fill="#FFFFFF" fill-rule="nonzero" /><path id="44" transform="matrix(1 0 0 -1 0 612)" d="M173.625 340.5L618.375 340.5L618.375 297L173.625 297L173.625 340.5z" stroke="none" fill="#E0F7FA" fill-rule="nonzero" /><path id="45" transform="matrix(1 0 0 -1 0 612)" d="M173.625 297.75L618.375 297.75L618.375 267L173.625 267L173.625 297.75z" stroke="none" fill="#FFFFFF" fill-rule="nonzero" /><path id="46" transform="matrix(1 0 0 -1 0 612)" d="M173.625 267.75L618.375 267.75L618.375 224.25L173.625 224.25L173.625 267.75z" stroke="none" fill="#E0F7FA" fill-rule="nonzero" /><path id="47" transform="matrix(1 0 0 -1 0 612)" d="M173.625 225L618.375 225L618.375 168L173.625 168L173.625 225z" stroke="none" fill="#FFFFFF" fill-rule="nonzero" /><path id="48" transform="matrix(1 0 0 -1 0 612)" d="M173.625 168.75L618.375 168.75L618.375 125.25L173.625 125.25L173.625 168.75z" stroke="none" fill="#E0F7FA" fill-rule="nonzero" /><path id="49" transform="matrix(1 0 0 -1 0 612)" d="M173.625 126L618.375 126L618.375 95.25L173.625 95.25L173.625 126z" stroke="none" fill="#FFFFFF" fill-rule="nonzero" /><path id="50" transform="matrix(1 0 0 -1 0 612)" d="M173.625 96L618.375 96L618.375 65.25L173.625 65.25L173.625 96z" stroke="none" fill="#E0F7FA" fill-rule="nonzero" /><path id="51" transform="matrix(1 0 0 -1 0 612)" d="M173.625 66L618.375 66L618.375 65.25L173.625 65.25zM173.625 96L618.375 96L618.375 95.25L173.625 95.25zM173.625 126L618.375 126L618.375 125.25L173.625 125.25zM173.625 168.75L618.375 168.75L618.375 168L173.625 168zM173.625 225L618.375 225L618.375 224.25L173.625 224.25zM173.625 267.75L618.375 267.75L618.375 267L173.625 267zM173.625 297.75L618.375 297.75L618.375 297L173.625 297zM173.625 340.5L618.375 340.5L618.375 339.75L173.625 339.75zM173.625 383.25L618.375 383.25L618.375 382.5L173.625 382.5zM173.625 426L618.375 426L618.375 425.25L173.625 425.25zM173.625 456L618.375 456L618.375 455.25L173.625 455.25zM173.625 486L618.375 486L618.375 485.25L173.625 485.25zM173.625 542.25L618.375 542.25L618.375 541.5L173.625 541.5zM618.375 95.25L618.375 66L617.625 66L617.625 95.25zM618.375 125.25L618.375 96L617.625 96L617.625 125.25zM618.375 168L618.375 126L617.625 126L617.625 168zM618.375 224.25L618.375 168.75L617.625 168.75L617.625 224.25zM618.375 267L618.375 225L617.625 225L617.625 267zM618.375 297L618.375 267.75L617.625 267.75L617.625 297zM618.375 339.75L618.375 297.75L617.625 297.75L617.625 339.75zM618.375 382.5L618.375 340.5L617.625 340.5L617.625 382.5zM618.375 425.25L618.375 383.25L617.625 383.25L617.625 425.25zM618.375 455.25L618.375 426L617.625 426L617.625 455.25zM618.375 485.25L618.375 456L617.625 456L617.625 485.25zM618.375 541.5L618.375 486L617.625 486L617.625 541.5zM541.125 95.25L541.125 66L540.375 66L540.375 95.25zM541.125 125.25L541.125 96L540.375 96L540.375 125.25zM541.125 168L541.125 126L540.375 126L540.375 168zM541.125 224.25L541.125 168.75L540.375 168.75L540.375 224.25zM541.125 267L541.125 225L540.375 225L540.375 267zM541.125 297L541.125 267.75L540.375 267.75L540.375 297zM541.125 339.75L541.125 297.75L540.375 297.75L540.375 339.75zM541.125 382.5L541.125 340.5L540.375 340.5L540.375 382.5zM541.125 425.25L541.125 383.25L540.375 383.25L540.375 425.25zM541.125 455.25L541.125 426L540.375 426L540.375 455.25zM541.125 485.25L541.125 456L540.375 456L540.375 485.25zM541.125 541.5L541.125 486L540.375 486L540.375 541.5zM512.625 95.25L512.625 66L511.875 66L511.875 95.25zM512.625 125.25L512.625 96L511.875 96L511.875 125.25zM512.625 168L512.625 126L511.875 126L511.875 168zM512.625 224.25L512.625 168.75L511.875 168.75L511.875 224.25zM512.625 267L512.625 225L511.875 225L511.875 267zM512.625 297L512.625 267.75L511.875 267.75L511.875 297zM512.625 339.75L512.625 297.75L511.875 297.75L511.875 339.75zM512.625 382.5L512.625 340.5L511.875 340.5L511.875 382.5zM512.625 425.25L512.625 383.25L511.875 383.25L511.875 425.25zM512.625 455.25L512.625 426L511.875 426L511.875 455.25zM512.625 485.25L512.625 456L511.875 456L511.875 485.25zM512.625 541.5L512.625 486L511.875 486L511.875 541.5zM284.625 95.25L284.625 66L283.875 66L283.875 95.25zM284.625 125.25L284.625 96L283.875 96L283.875 125.25zM284.625 168L284.625 126L283.875 126L283.875 168zM284.625 224.25L284.625 168.75L283.875 168.75L283.875 224.25zM284.625 267L284.625 225L283.875 225L283.875 267zM284.625 297L284.625 267.75L283.875 267.75L283.875 297zM284.625 339.75L284.625 297.75L283.875 297.75L283.875 339.75zM284.625 382.5L284.625 340.5L283.875 340.5L283.875 382.5zM284.625 425.25L284.625 383.25L283.875 383.25L283.875 425.25zM284.625 455.25L284.625 426L283.875 426L283.875 455.25zM284.625 485.25L284.625 456L283.875 456L283.875 485.25zM284.625 541.5L284.625 486L283.875 486L283.875 541.5zM208.125 95.25L208.125 66L207.375 66L207.375 95.25zM208.125 125.25L208.125 96L207.375 96L207.375 125.25zM208.125 168L208.125 126L207.375 126L207.375 168zM208.125 224.25L208.125 168.75L207.375 168.75L207.375 224.25zM208.125 267L208.125 225L207.375 225L207.375 267zM208.125 297L208.125 267.75L207.375 267.75L207.375 297zM208.125 339.75L208.125 297.75L207.375 297.75L207.375 339.75zM208.125 382.5L208.125 340.5L207.375 340.5L207.375 382.5zM208.125 425.25L208.125 383.25L207.375 383.25L207.375 425.25zM208.125 455.25L208.125 426L207.375 426L207.375 455.25zM208.125 485.25L208.125 456L207.375 456L207.375 485.25zM208.125 541.5L208.125 486L207.375 486L207.375 541.5zM174.375 95.25L174.375 66L173.625 66L173.625 95.25zM174.375 125.25L174.375 96L173.625 96L173.625 125.25zM174.375 168L174.375 126L173.625 126L173.625 168zM174.375 224.25L174.375 168.75L173.625 168.75L173.625 224.25zM174.375 267L174.375 225L173.625 225L173.625 267zM174.375 297L174.375 267.75L173.625 267.75L173.625 297zM174.375 339.75L174.375 297.75L173.625 297.75L173.625 339.75zM174.375 382.5L174.375 340.5L173.625 340.5L173.625 382.5zM174.375 425.25L174.375 383.25L173.625 383.25L173.625 425.25zM174.375 455.25L174.375 426L173.625 426L173.625 455.25zM174.375 485.25L174.375 456L173.625 456L173.625 485.25zM174.375 541.5L174.375 486L173.625 486L173.625 541.5z" stroke="none" fill="#000000" fill-rule="nonzero" fill-opacity="0.1490196" /><path id="99" transform="matrix(1 0 0 -1 0 612)" d="M286.875 502.0547L474.134 502.0547" stroke="#000000" stroke-width="0.7017334" fill="none" /><path id="138" transform="matrix(1 0 0 -1 0 612)" d="M286.875 488.9658L480.1812 488.9658" stroke="#000000" stroke-width="0.7017334" fill="none" /><path id="222" transform="matrix(1 0 0 -1 0 612)" d="M286.875 472.0547L496.2653 472.0547" stroke="#000000" stroke-width="0.7017334" fill="none" /><path id="242" transform="matrix(1 0 0 -1 0 612)" d="M286.875 458.9658L379.2426 458.9658" stroke="#000000" stroke-width="0.7017334" fill="none" /><path id="309" transform="matrix(1 0 0 -1 0 612)" d="M286.875 442.0547L479.401 442.0547" stroke="#000000" stroke-width="0.7017334" fill="none" /><path id="323" transform="matrix(1 0 0 -1 0 612)" d="M286.875 428.9658L349.6769 428.9658" stroke="#000000" stroke-width="0.7017334" fill="none" /><path id="382" transform="matrix(1 0 0 -1 0 612)" d="M286.875 412.3936L495.1603 412.3936" stroke="#000000" stroke-width="0.7017334" fill="none" /><path id="421" transform="matrix(1 0 0 -1 0 612)" d="M286.875 399.3047L486.0451 399.3047" stroke="#000000" stroke-width="0.7017334" fill="none" /><path id="444" transform="matrix(1 0 0 -1 0 612)" d="M286.875 386.2158L393.7506 386.2158" stroke="#000000" stroke-width="0.7017334" fill="none" /><path id="497" transform="matrix(1 0 0 -1 0 612)" d="M286.875 343.4658L414.8506 343.4658" stroke="#000000" stroke-width="0.7017334" fill="none" /><path id="606" transform="matrix(1 0 0 -1 0 612)" d="M286.875 300.7158L466.7621 300.7158" stroke="#000000" stroke-width="0.7017334" fill="none" /><path id="679" transform="matrix(1 0 0 -1 0 612)" d="M286.875 270.7158L507.8307 270.7158" stroke="#000000" stroke-width="0.7017334" fill="none" /><path id="753" transform="matrix(1 0 0 -1 0 612)" d="M286.875 241.0547L496.2546 241.0547" stroke="#000000" stroke-width="0.7017334" fill="none" /><path id="770" transform="matrix(1 0 0 -1 0 612)" d="M286.875 227.9658L367.8394 227.9658" stroke="#000000" stroke-width="0.7017334" fill="none" /><path id="845" transform="matrix(1 0 0 -1 0 612)" d="M286.875 184.8047L472.7413 184.8047" stroke="#000000" stroke-width="0.7017334" fill="none" /><path id="887" transform="matrix(1 0 0 -1 0 612)" d="M286.875 171.7158L490.6263 171.7158" stroke="#000000" stroke-width="0.7017334" fill="none" /><path id="1002" transform="matrix(1 0 0 -1 0 612)" d="M286.875 142.0547L489.8201 142.0547" stroke="#000000" stroke-width="0.7017334" fill="none" /><path id="1048" transform="matrix(1 0 0 -1 0 612)" d="M286.875 128.9658L504.5113 128.9658" stroke="#000000" stroke-width="0.7017334" fill="none" /><path id="1117" transform="matrix(1 0 0 -1 0 612)" d="M286.875 112.0547L487.7729 112.0547" stroke="#000000" stroke-width="0.7017334" fill="none" /><path id="1161" transform="matrix(1 0 0 -1 0 612)" d="M286.875 98.96582L504.438 98.96582" stroke="#000000" stroke-width="0.7017334" fill="none" /><path id="1236" transform="matrix(1 0 0 -1 0 612)" d="M286.875 68.96582L495.4223 68.96582" stroke="#000000" stroke-width="0.7017334" fill="none" /></g></g></g></svg>