<svg xmlns="http://www.w3.org/2000/svg" xmlns:xlink="http://www.w3.org/1999/xlink" id="body_39" preserveAspectRatio="xMinYMin meet" viewBox="0 0 1056 816"><defs><clipPath id="1"><path id="" clip-rule="evenodd" transform="matrix(1 0 0 1 0 0)" d="M0 612L0 0L0 0L792 0L792 0L792 612L792 612L0 612z" /></clipPath><clipPath id="2"><path id="" clip-rule="evenodd" transform="matrix(1 0 0 1 0 0)" d="M172.875 52.5L619.125 52.5L619.125 52.5L619.125 69.75L619.125 69.75L172.875 69.75L172.875 69.75L172.875 52.5z" /></clipPath><clipPath id="3"><path id="" clip-rule="evenodd" transform="matrix(1 0 0 1 0 0)" d="M172.875 69L619.125 69L619.125 69L619.125 549.75L619.125 549.75L172.875 549.75L172.875 549.75L172.875 69z" /></clipPath></defs><g transform="matrix(1.333333 0 0 1.333333 0 0)"><g clip-path="url(#1)"><g clip-path="url(#2)"><path id="10" transform="matrix(1 0 0 -1 0 612)" d="M173.625 558.75L618.375 558.75L618.375 541.5L173.625 541.5L173.625 558.75z" stroke="none" fill="#4DD0E1" fill-rule="nonzero" /><path id="11" transform="matrix(1 0 0 -1 0 612)" d="M173.625 542.25L618.375 542.25L618.375 541.5L173.625 541.5zM173.625 558.75L618.375 558.75L618.375 558L173.625 558zM618.375 558L618.375 542.25L617.625 542.25L617.625 558zM541.125 558L541.125 542.25L540.375 542.25L540.375 558zM512.625 558L512.625 542.25L511.875 542.25L511.875 558zM284.625 558L284.625 542.25L283.875 542.25L283.875 558zM208.125 558L208.125 542.25L207.375 542.25L207.375 558zM174.375 558L174.375 542.25L173.625 542.25L173.625 558z" stroke="none" fill="#000000" fill-rule="nonzero" fill-opacity="0.1490196" /></g><g clip-path="url(#3)"><path id="39" transform="matrix(1 0 0 -1 0 612)" d="M173.625 542.25L618.375 542.25L618.375 511.5L173.625 511.5L173.625 542.25z" stroke="none" fill="#E0F7FA" fill-rule="nonzero" /><path id="40" transform="matrix(1 0 0 -1 0 612)" d="M173.625 512.25L618.375 512.25L618.375 455.25L173.625 455.25L173.625 512.25z" stroke="none" fill="#FFFFFF" fill-rule="nonzero" /><path id="41" transform="matrix(1 0 0 -1 0 612)" d="M173.625 456L618.375 456L618.375 425.25L173.625 425.25L173.625 456z" stroke="none" fill="#E0F7FA" fill-rule="nonzero" /><path id="42" transform="matrix(1 0 0 -1 0 612)" d="M173.625 426L618.375 426L618.375 367.5L173.625 367.5L173.625 426z" stroke="none" fill="#FFFFFF" fill-rule="nonzero" /><path id="43" transform="matrix(1 0 0 -1 0 612)" d="M173.625 368.25L618.375 368.25L618.375 311.25L173.625 311.25L173.625 368.25z" stroke="none" fill="#E0F7FA" fill-rule="nonzero" /><path id="44" transform="matrix(1 0 0 -1 0 612)" d="M173.625 312L618.375 312L618.375 281.25L173.625 281.25L173.625 312z" stroke="none" fill="#FFFFFF" fill-rule="nonzero" /><path id="45" transform="matrix(1 0 0 -1 0 612)" d="M173.625 282L618.375 282L618.375 251.25L173.625 251.25L173.625 282z" stroke="none" fill="#E0F7FA" fill-rule="nonzero" /><path id="46" transform="matrix(1 0 0 -1 0 612)" d="M173.625 252L618.375 252L618.375 221.25L173.625 221.25L173.625 252z" stroke="none" fill="#FFFFFF" fill-rule="nonzero" /><path id="47" transform="matrix(1 0 0 -1 0 612)" d="M173.625 222L618.375 222L618.375 191.25L173.625 191.25L173.625 222z" stroke="none" fill="#E0F7FA" fill-rule="nonzero" /><path id="48" transform="matrix(1 0 0 -1 0 612)" d="M173.625 192L618.375 192L618.375 148.5L173.625 148.5L173.625 192z" stroke="none" fill="#FFFFFF" fill-rule="nonzero" /><path id="49" transform="matrix(1 0 0 -1 0 612)" d="M173.625 149.25L618.375 149.25L618.375 105.75L173.625 105.75L173.625 149.25z" stroke="none" fill="#E0F7FA" fill-rule="nonzero" /><path id="50" transform="matrix(1 0 0 -1 0 612)" d="M173.625 106.5L618.375 106.5L618.375 63L173.625 63L173.625 106.5z" stroke="none" fill="#FFFFFF" fill-rule="nonzero" /><path id="51" transform="matrix(1 0 0 -1 0 612)" d="M173.625 63.75L618.375 63.75L618.375 63L173.625 63zM173.625 106.5L618.375 106.5L618.375 105.75L173.625 105.75zM173.625 149.25L618.375 149.25L618.375 148.5L173.625 148.5zM173.625 192L618.375 192L618.375 191.25L173.625 191.25zM173.625 222L618.375 222L618.375 221.25L173.625 221.25zM173.625 252L618.375 252L618.375 251.25L173.625 251.25zM173.625 282L618.375 282L618.375 281.25L173.625 281.25zM173.625 312L618.375 312L618.375 311.25L173.625 311.25zM173.625 368.25L618.375 368.25L618.375 367.5L173.625 367.5zM173.625 426L618.375 426L618.375 425.25L173.625 425.25zM173.625 456L618.375 456L618.375 455.25L173.625 455.25zM173.625 512.25L618.375 512.25L618.375 511.5L173.625 511.5zM173.625 542.25L618.375 542.25L618.375 541.5L173.625 541.5zM618.375 105.75L618.375 63.75L617.625 63.75L617.625 105.75zM618.375 148.5L618.375 106.5L617.625 106.5L617.625 148.5zM618.375 191.25L618.375 149.25L617.625 149.25L617.625 191.25zM618.375 221.25L618.375 192L617.625 192L617.625 221.25zM618.375 251.25L618.375 222L617.625 222L617.625 251.25zM618.375 281.25L618.375 252L617.625 252L617.625 281.25zM618.375 311.25L618.375 282L617.625 282L617.625 311.25zM618.375 367.5L618.375 312L617.625 312L617.625 367.5zM618.375 425.25L618.375 368.25L617.625 368.25L617.625 425.25zM618.375 455.25L618.375 426L617.625 426L617.625 455.25zM618.375 511.5L618.375 456L617.625 456L617.625 511.5zM618.375 541.5L618.375 512.25L617.625 512.25L617.625 541.5zM541.125 105.75L541.125 63.75L540.375 63.75L540.375 105.75zM541.125 148.5L541.125 106.5L540.375 106.5L540.375 148.5zM541.125 191.25L541.125 149.25L540.375 149.25L540.375 191.25zM541.125 221.25L541.125 192L540.375 192L540.375 221.25zM541.125 251.25L541.125 222L540.375 222L540.375 251.25zM541.125 281.25L541.125 252L540.375 252L540.375 281.25zM541.125 311.25L541.125 282L540.375 282L540.375 311.25zM541.125 367.5L541.125 312L540.375 312L540.375 367.5zM541.125 425.25L541.125 368.25L540.375 368.25L540.375 425.25zM541.125 455.25L541.125 426L540.375 426L540.375 455.25zM541.125 511.5L541.125 456L540.375 456L540.375 511.5zM541.125 541.5L541.125 512.25L540.375 512.25L540.375 541.5zM512.625 105.75L512.625 63.75L511.875 63.75L511.875 105.75zM512.625 148.5L512.625 106.5L511.875 106.5L511.875 148.5zM512.625 191.25L512.625 149.25L511.875 149.25L511.875 191.25zM512.625 221.25L512.625 192L511.875 192L511.875 221.25zM512.625 251.25L512.625 222L511.875 222L511.875 251.25zM512.625 281.25L512.625 252L511.875 252L511.875 281.25zM512.625 311.25L512.625 282L511.875 282L511.875 311.25zM512.625 367.5L512.625 312L511.875 312L511.875 367.5zM512.625 425.25L512.625 368.25L511.875 368.25L511.875 425.25zM512.625 455.25L512.625 426L511.875 426L511.875 455.25zM512.625 511.5L512.625 456L511.875 456L511.875 511.5zM512.625 541.5L512.625 512.25L511.875 512.25L511.875 541.5zM284.625 105.75L284.625 63.75L283.875 63.75L283.875 105.75zM284.625 148.5L284.625 106.5L283.875 106.5L283.875 148.5zM284.625 191.25L284.625 149.25L283.875 149.25L283.875 191.25zM284.625 221.25L284.625 192L283.875 192L283.875 221.25zM284.625 251.25L284.625 222L283.875 222L283.875 251.25zM284.625 281.25L284.625 252L283.875 252L283.875 281.25zM284.625 311.25L284.625 282L283.875 282L283.875 311.25zM284.625 367.5L284.625 312L283.875 312L283.875 367.5zM284.625 425.25L284.625 368.25L283.875 368.25L283.875 425.25zM284.625 455.25L284.625 426L283.875 426L283.875 455.25zM284.625 511.5L284.625 456L283.875 456L283.875 511.5zM284.625 541.5L284.625 512.25L283.875 512.25L283.875 541.5zM208.125 105.75L208.125 63.75L207.375 63.75L207.375 105.75zM208.125 148.5L208.125 106.5L207.375 106.5L207.375 148.5zM208.125 191.25L208.125 149.25L207.375 149.25L207.375 191.25zM208.125 221.25L208.125 192L207.375 192L207.375 221.25zM208.125 251.25L208.125 222L207.375 222L207.375 251.25zM208.125 281.25L208.125 252L207.375 252L207.375 281.25zM208.125 311.25L208.125 282L207.375 282L207.375 311.25zM208.125 367.5L208.125 312L207.375 312L207.375 367.5zM208.125 425.25L208.125 368.25L207.375 368.25L207.375 425.25zM208.125 455.25L208.125 426L207.375 426L207.375 455.25zM208.125 511.5L208.125 456L207.375 456L207.375 511.5zM208.125 541.5L208.125 512.25L207.375 512.25L207.375 541.5zM174.375 105.75L174.375 63.75L173.625 63.75L173.625 105.75zM174.375 148.5L174.375 106.5L173.625 106.5L173.625 148.5zM174.375 191.25L174.375 149.25L173.625 149.25L173.625 191.25zM174.375 221.25L174.375 192L173.625 192L173.625 221.25zM174.375 251.25L174.375 222L173.625 222L173.625 251.25zM174.375 281.25L174.375 252L173.625 252L173.625 281.25zM174.375 311.25L174.375 282L173.625 282L173.625 311.25zM174.375 367.5L174.375 312L173.625 312L173.625 367.5zM174.375 425.25L174.375 368.25L173.625 368.25L173.625 425.25zM174.375 455.25L174.375 426L173.625 426L173.625 455.25zM174.375 511.5L174.375 456L173.625 456L173.625 511.5zM174.375 541.5L174.375 512.25L173.625 512.25L173.625 541.5z" stroke="none" fill="#000000" fill-rule="nonzero" fill-opacity="0.1490196" /><path id="85" transform="matrix(1 0 0 -1 0 612)" d="M286.875 515.2168L389.4678 515.2168" stroke="#000000" stroke-width="0.7017334" fill="none" /><path id="159" transform="matrix(1 0 0 -1 0 612)" d="M286.875 472.0566L483.6158 472.0566" stroke="#000000" stroke-width="0.7017334" fill="none" /><path id="177" transform="matrix(1 0 0 -1 0 612)" d="M286.875 458.9668L360.3786 458.9668" stroke="#000000" stroke-width="0.7017334" fill="none" /><path id="282" transform="matrix(1 0 0 -1 0 612)" d="M286.875 428.9668L493.0504 428.9668" stroke="#000000" stroke-width="0.7017334" fill="none" /><path id="382" transform="matrix(1 0 0 -1 0 612)" d="M286.875 371.2168L421.4893 371.2168" stroke="#000000" stroke-width="0.7017334" fill="none" /><path id="473" transform="matrix(1 0 0 -1 0 612)" d="M286.875 341.1445L500.3334 341.1445" stroke="#000000" stroke-width="0.7017334" fill="none" /><path id="517" transform="matrix(1 0 0 -1 0 612)" d="M286.875 328.0566L496.2546 328.0566" stroke="#000000" stroke-width="0.7017334" fill="none" /><path id="532" transform="matrix(1 0 0 -1 0 612)" d="M286.875 314.9668L351.9073 314.9668" stroke="#000000" stroke-width="0.7017334" fill="none" /><path id="604" transform="matrix(1 0 0 -1 0 612)" d="M286.875 298.0566L501.0243 298.0566" stroke="#000000" stroke-width="0.7017334" fill="none" /><path id="616" transform="matrix(1 0 0 -1 0 612)" d="M286.875 284.9668L336.8128 284.9668" stroke="#000000" stroke-width="0.7017334" fill="none" /><path id="678" transform="matrix(1 0 0 -1 0 612)" d="M286.875 268.0566L494.2548 268.0566" stroke="#000000" stroke-width="0.7017334" fill="none" /><path id="686" transform="matrix(1 0 0 -1 0 612)" d="M286.875 254.9668L316.8282 254.9668" stroke="#000000" stroke-width="0.7017334" fill="none" /><path id="747" transform="matrix(1 0 0 -1 0 612)" d="M286.875 238.0566L508.103 238.0566" stroke="#000000" stroke-width="0.7017334" fill="none" /><path id="752" transform="matrix(1 0 0 -1 0 612)" d="M286.875 224.9668L304.87 224.9668" stroke="#000000" stroke-width="0.7017334" fill="none" /><path id="827" transform="matrix(1 0 0 -1 0 612)" d="M286.875 208.0566L485.4064 208.0566" stroke="#000000" stroke-width="0.7017334" fill="none" /><path id="862" transform="matrix(1 0 0 -1 0 612)" d="M286.875 194.9668L448.8141 194.9668" stroke="#000000" stroke-width="0.7017334" fill="none" /><path id="942" transform="matrix(1 0 0 -1 0 612)" d="M286.875 165.3066L469.9978 165.3066" stroke="#000000" stroke-width="0.7017334" fill="none" /><path id="979" transform="matrix(1 0 0 -1 0 612)" d="M286.875 152.2168L471.2125 152.2168" stroke="#000000" stroke-width="0.7017334" fill="none" /><path id="1049" transform="matrix(1 0 0 -1 0 612)" d="M286.875 109.4668L372.7924 109.4668" stroke="#000000" stroke-width="0.7017334" fill="none" /><path id="1135" transform="matrix(1 0 0 -1 0 612)" d="M286.875 92.89453L501.1759 92.89453" stroke="#000000" stroke-width="0.7017334" fill="none" /><path id="1172" transform="matrix(1 0 0 -1 0 612)" d="M286.875 79.80664L468.1338 79.80664" stroke="#000000" stroke-width="0.7017334" fill="none" /><path id="1185" transform="matrix(1 0 0 -1 0 612)" d="M286.875 66.7168L340.6348 66.7168" stroke="#000000" stroke-width="0.7017334" fill="none" /></g></g></g></svg>