<svg xmlns="http://www.w3.org/2000/svg" xmlns:xlink="http://www.w3.org/1999/xlink" id="body_2" preserveAspectRatio="xMinYMin meet" viewBox="0 0 1056 816"><defs><clipPath id="1"><path id="" clip-rule="evenodd" transform="matrix(1 0 0 1 0 0)" d="M0 612L0 0L0 0L792 0L792 0L792 612L792 612L0 612z" /></clipPath><clipPath id="2"><path id="" clip-rule="evenodd" transform="matrix(1 0 0 1 0 0)" d="M172.875 52.5L619.125 52.5L619.125 52.5L619.125 69.75L619.125 69.75L172.875 69.75L172.875 69.75L172.875 52.5z" /></clipPath><clipPath id="3"><path id="" clip-rule="evenodd" transform="matrix(1 0 0 1 0 0)" d="M172.875 69L619.125 69L619.125 69L619.125 519L619.125 519L172.875 519L172.875 519L172.875 69z" /></clipPath></defs><g transform="matrix(1.333333 0 0 1.333333 0 0)"><g clip-path="url(#1)"><g clip-path="url(#2)"><path id="9" transform="matrix(1 0 0 -1 0 612)" d="M173.625 558.75L618.375 558.75L618.375 541.5L173.625 541.5L173.625 558.75z" stroke="none" fill="#4DD0E1" fill-rule="nonzero" /><path id="10" transform="matrix(1 0 0 -1 0 612)" d="M173.625 542.25L618.375 542.25L618.375 541.5L173.625 541.5zM173.625 558.75L618.375 558.75L618.375 558L173.625 558zM618.375 558L618.375 542.25L617.625 542.25L617.625 558zM541.125 558L541.125 542.25L540.375 542.25L540.375 558zM512.625 558L512.625 542.25L511.875 542.25L511.875 558zM284.625 558L284.625 542.25L283.875 542.25L283.875 558zM208.125 558L208.125 542.25L207.375 542.25L207.375 558zM174.375 558L174.375 542.25L173.625 542.25L173.625 558z" stroke="none" fill="#000000" fill-rule="nonzero" fill-opacity="0.1490196" /></g><g clip-path="url(#3)"><path id="38" transform="matrix(1 0 0 -1 0 612)" d="M173.625 542.25L618.375 542.25L618.375 483.75L173.625 483.75L173.625 542.25z" stroke="none" fill="#E0F7FA" fill-rule="nonzero" /><path id="39" transform="matrix(1 0 0 -1 0 612)" d="M173.625 484.5L618.375 484.5L618.375 467.25L173.625 467.25L173.625 484.5z" stroke="none" fill="#FFFFFF" fill-rule="nonzero" /><path id="40" transform="matrix(1 0 0 -1 0 612)" d="M173.625 468L618.375 468L618.375 424.5L173.625 424.5L173.625 468z" stroke="none" fill="#E0F7FA" fill-rule="nonzero" /><path id="41" transform="matrix(1 0 0 -1 0 612)" d="M173.625 425.25L618.375 425.25L618.375 394.5L173.625 394.5L173.625 425.25z" stroke="none" fill="#FFFFFF" fill-rule="nonzero" /><path id="42" transform="matrix(1 0 0 -1 0 612)" d="M173.625 395.25L618.375 395.25L618.375 338.25L173.625 338.25L173.625 395.25z" stroke="none" fill="#E0F7FA" fill-rule="nonzero" /><path id="43" transform="matrix(1 0 0 -1 0 612)" d="M173.625 339L618.375 339L618.375 282L173.625 282L173.625 339z" stroke="none" fill="#FFFFFF" fill-rule="nonzero" /><path id="44" transform="matrix(1 0 0 -1 0 612)" d="M173.625 282.75L618.375 282.75L618.375 252L173.625 252L173.625 282.75z" stroke="none" fill="#E0F7FA" fill-rule="nonzero" /><path id="45" transform="matrix(1 0 0 -1 0 612)" d="M173.625 252.75L618.375 252.75L618.375 209.25L173.625 209.25L173.625 252.75z" stroke="none" fill="#FFFFFF" fill-rule="nonzero" /><path id="46" transform="matrix(1 0 0 -1 0 612)" d="M173.625 210L618.375 210L618.375 166.5L173.625 166.5L173.625 210z" stroke="none" fill="#E0F7FA" fill-rule="nonzero" /><path id="47" transform="matrix(1 0 0 -1 0 612)" d="M173.625 167.25L618.375 167.25L618.375 136.5L173.625 136.5L173.625 167.25z" stroke="none" fill="#FFFFFF" fill-rule="nonzero" /><path id="48" transform="matrix(1 0 0 -1 0 612)" d="M173.625 137.25L618.375 137.25L618.375 93.75L173.625 93.75L173.625 137.25z" stroke="none" fill="#E0F7FA" fill-rule="nonzero" /><path id="49" transform="matrix(1 0 0 -1 0 612)" d="M173.625 94.5L618.375 94.5L618.375 93.75L173.625 93.75zM173.625 137.25L618.375 137.25L618.375 136.5L173.625 136.5zM173.625 167.25L618.375 167.25L618.375 166.5L173.625 166.5zM173.625 210L618.375 210L618.375 209.25L173.625 209.25zM173.625 252.75L618.375 252.75L618.375 252L173.625 252zM173.625 282.75L618.375 282.75L618.375 282L173.625 282zM173.625 339L618.375 339L618.375 338.25L173.625 338.25zM173.625 395.25L618.375 395.25L618.375 394.5L173.625 394.5zM173.625 425.25L618.375 425.25L618.375 424.5L173.625 424.5zM173.625 468L618.375 468L618.375 467.25L173.625 467.25zM173.625 484.5L618.375 484.5L618.375 483.75L173.625 483.75zM173.625 542.25L618.375 542.25L618.375 541.5L173.625 541.5zM618.375 136.5L618.375 94.5L617.625 94.5L617.625 136.5zM618.375 166.5L618.375 137.25L617.625 137.25L617.625 166.5zM618.375 209.25L618.375 167.25L617.625 167.25L617.625 209.25zM618.375 252L618.375 210L617.625 210L617.625 252zM618.375 282L618.375 252.75L617.625 252.75L617.625 282zM618.375 338.25L618.375 282.75L617.625 282.75L617.625 338.25zM618.375 394.5L618.375 339L617.625 339L617.625 394.5zM618.375 424.5L618.375 395.25L617.625 395.25L617.625 424.5zM618.375 467.25L618.375 425.25L617.625 425.25L617.625 467.25zM618.375 483.75L618.375 468L617.625 468L617.625 483.75zM618.375 541.5L618.375 484.5L617.625 484.5L617.625 541.5zM541.125 136.5L541.125 94.5L540.375 94.5L540.375 136.5zM541.125 166.5L541.125 137.25L540.375 137.25L540.375 166.5zM541.125 209.25L541.125 167.25L540.375 167.25L540.375 209.25zM541.125 252L541.125 210L540.375 210L540.375 252zM541.125 282L541.125 252.75L540.375 252.75L540.375 282zM541.125 338.25L541.125 282.75L540.375 282.75L540.375 338.25zM541.125 394.5L541.125 339L540.375 339L540.375 394.5zM541.125 424.5L541.125 395.25L540.375 395.25L540.375 424.5zM541.125 467.25L541.125 425.25L540.375 425.25L540.375 467.25zM541.125 483.75L541.125 468L540.375 468L540.375 483.75zM541.125 541.5L541.125 484.5L540.375 484.5L540.375 541.5zM512.625 136.5L512.625 94.5L511.875 94.5L511.875 136.5zM512.625 166.5L512.625 137.25L511.875 137.25L511.875 166.5zM512.625 209.25L512.625 167.25L511.875 167.25L511.875 209.25zM512.625 252L512.625 210L511.875 210L511.875 252zM512.625 282L512.625 252.75L511.875 252.75L511.875 282zM512.625 338.25L512.625 282.75L511.875 282.75L511.875 338.25zM512.625 394.5L512.625 339L511.875 339L511.875 394.5zM512.625 424.5L512.625 395.25L511.875 395.25L511.875 424.5zM512.625 467.25L512.625 425.25L511.875 425.25L511.875 467.25zM512.625 483.75L512.625 468L511.875 468L511.875 483.75zM512.625 541.5L512.625 484.5L511.875 484.5L511.875 541.5zM284.625 136.5L284.625 94.5L283.875 94.5L283.875 136.5zM284.625 166.5L284.625 137.25L283.875 137.25L283.875 166.5zM284.625 209.25L284.625 167.25L283.875 167.25L283.875 209.25zM284.625 252L284.625 210L283.875 210L283.875 252zM284.625 282L284.625 252.75L283.875 252.75L283.875 282zM284.625 338.25L284.625 282.75L283.875 282.75L283.875 338.25zM284.625 394.5L284.625 339L283.875 339L283.875 394.5zM284.625 424.5L284.625 395.25L283.875 395.25L283.875 424.5zM284.625 467.25L284.625 425.25L283.875 425.25L283.875 467.25zM284.625 483.75L284.625 468L283.875 468L283.875 483.75zM284.625 541.5L284.625 484.5L283.875 484.5L283.875 541.5zM208.125 136.5L208.125 94.5L207.375 94.5L207.375 136.5zM208.125 166.5L208.125 137.25L207.375 137.25L207.375 166.5zM208.125 209.25L208.125 167.25L207.375 167.25L207.375 209.25zM208.125 252L208.125 210L207.375 210L207.375 252zM208.125 282L208.125 252.75L207.375 252.75L207.375 282zM208.125 338.25L208.125 282.75L207.375 282.75L207.375 338.25zM208.125 394.5L208.125 339L207.375 339L207.375 394.5zM208.125 424.5L208.125 395.25L207.375 395.25L207.375 424.5zM208.125 467.25L208.125 425.25L207.375 425.25L207.375 467.25zM208.125 483.75L208.125 468L207.375 468L207.375 483.75zM208.125 541.5L208.125 484.5L207.375 484.5L207.375 541.5zM174.375 136.5L174.375 94.5L173.625 94.5L173.625 136.5zM174.375 166.5L174.375 137.25L173.625 137.25L173.625 166.5zM174.375 209.25L174.375 167.25L173.625 167.25L173.625 209.25zM174.375 252L174.375 210L173.625 210L173.625 252zM174.375 282L174.375 252.75L173.625 252.75L173.625 282zM174.375 338.25L174.375 282.75L173.625 282.75L173.625 338.25zM174.375 394.5L174.375 339L173.625 339L173.625 394.5zM174.375 424.5L174.375 395.25L173.625 395.25L173.625 424.5zM174.375 467.25L174.375 425.25L173.625 425.25L173.625 467.25zM174.375 483.75L174.375 468L173.625 468L173.625 483.75zM174.375 541.5L174.375 484.5L173.625 484.5L173.625 541.5z" stroke="none" fill="#000000" fill-rule="nonzero" fill-opacity="0.1490196" /><path id="103" transform="matrix(1 0 0 -1 0 612)" d="M286.875 487.4657L489.5424 487.4657" stroke="#000000" stroke-width="0.7017334" fill="none" /><path id="212" transform="matrix(1 0 0 -1 0 612)" d="M286.875 470.9657L493.1862 470.9657" stroke="#000000" stroke-width="0.7017334" fill="none" /><path id="285" transform="matrix(1 0 0 -1 0 612)" d="M286.875 428.2157L501.4589 428.2157" stroke="#000000" stroke-width="0.7017334" fill="none" /><path id="381" transform="matrix(1 0 0 -1 0 612)" d="M286.875 411.3049L484.6944 411.3049" stroke="#000000" stroke-width="0.7017334" fill="none" /><path id="388" transform="matrix(1 0 0 -1 0 612)" d="M286.875 398.2157L317.0795 398.2157" stroke="#000000" stroke-width="0.7017334" fill="none" /><path id="447" transform="matrix(1 0 0 -1 0 612)" d="M286.875 355.0549L503.4014 355.0549" stroke="#000000" stroke-width="0.7017334" fill="none" /><path id="454" transform="matrix(1 0 0 -1 0 612)" d="M286.875 341.9657L317.0795 341.9657" stroke="#000000" stroke-width="0.7017334" fill="none" /><path id="545" transform="matrix(1 0 0 -1 0 612)" d="M286.875 311.894L472.5529 311.894" stroke="#000000" stroke-width="0.7017334" fill="none" /><path id="587" transform="matrix(1 0 0 -1 0 612)" d="M286.875 298.8049L500.2391 298.8049" stroke="#000000" stroke-width="0.7017334" fill="none" /><path id="605" transform="matrix(1 0 0 -1 0 612)" d="M286.875 285.7157L358.8915 285.7157" stroke="#000000" stroke-width="0.7017334" fill="none" /><path id="697" transform="matrix(1 0 0 -1 0 612)" d="M286.875 268.8049L501.8045 268.8049" stroke="#000000" stroke-width="0.7017334" fill="none" /><path id="738" transform="matrix(1 0 0 -1 0 612)" d="M286.875 255.7158L481.71 255.7158" stroke="#000000" stroke-width="0.7017334" fill="none" /><path id="792" transform="matrix(1 0 0 -1 0 612)" d="M286.875 212.9658L438.4789 212.9658" stroke="#000000" stroke-width="0.7017334" fill="none" /><path id="879" transform="matrix(1 0 0 -1 0 612)" d="M286.875 196.3942L497.4798 196.3942" stroke="#000000" stroke-width="0.7017334" fill="none" /><path id="919" transform="matrix(1 0 0 -1 0 612)" d="M286.875 183.3049L502.5428 183.3049" stroke="#000000" stroke-width="0.7017334" fill="none" /><path id="942" transform="matrix(1 0 0 -1 0 612)" d="M286.875 170.2158L401.7403 170.2158" stroke="#000000" stroke-width="0.7017334" fill="none" /><path id="1030" transform="matrix(1 0 0 -1 0 612)" d="M286.875 153.3049L493.8515 153.3049" stroke="#000000" stroke-width="0.7017334" fill="none" /><path id="1069" transform="matrix(1 0 0 -1 0 612)" d="M286.875 140.2158L476.3696 140.2158" stroke="#000000" stroke-width="0.7017334" fill="none" /><path id="1165" transform="matrix(1 0 0 -1 0 612)" d="M286.875 97.46576L508.0244 97.46576" stroke="#000000" stroke-width="0.7017334" fill="none" /></g></g></g></svg>