<svg xmlns="http://www.w3.org/2000/svg" xmlns:xlink="http://www.w3.org/1999/xlink" id="body_17" preserveAspectRatio="xMinYMin meet" viewBox="0 0 1056 816"><defs><clipPath id="1"><path id="" clip-rule="evenodd" transform="matrix(1 0 0 1 0 0)" d="M0 612L0 0L0 0L792 0L792 0L792 612L792 612L0 612z" /></clipPath><clipPath id="2"><path id="" clip-rule="evenodd" transform="matrix(1 0 0 1 0 0)" d="M172.875 52.5L619.125 52.5L619.125 52.5L619.125 69.75L619.125 69.75L172.875 69.75L172.875 69.75L172.875 52.5z" /></clipPath><clipPath id="3"><path id="" clip-rule="evenodd" transform="matrix(1 0 0 1 0 0)" d="M172.875 69L619.125 69L619.125 69L619.125 550.5L619.125 550.5L172.875 550.5L172.875 550.5L172.875 69z" /></clipPath></defs><g transform="matrix(1.333333 0 0 1.333333 0 0)"><g clip-path="url(#1)"><g clip-path="url(#2)"><path id="10" transform="matrix(1 0 0 -1 0 612)" d="M173.625 558.75L618.375 558.75L618.375 541.5L173.625 541.5L173.625 558.75z" stroke="none" fill="#4DD0E1" fill-rule="nonzero" /><path id="11" transform="matrix(1 0 0 -1 0 612)" d="M173.625 542.25L618.375 542.25L618.375 541.5L173.625 541.5zM173.625 558.75L618.375 558.75L618.375 558L173.625 558zM618.375 558L618.375 542.25L617.625 542.25L617.625 558zM541.125 558L541.125 542.25L540.375 542.25L540.375 558zM512.625 558L512.625 542.25L511.875 542.25L511.875 558zM284.625 558L284.625 542.25L283.875 542.25L283.875 558zM208.125 558L208.125 542.25L207.375 542.25L207.375 558zM174.375 558L174.375 542.25L173.625 542.25L173.625 558z" stroke="none" fill="#000000" fill-rule="nonzero" fill-opacity="0.1490196" /></g><g clip-path="url(#3)"><path id="39" transform="matrix(1 0 0 -1 0 612)" d="M173.625 542.25L618.375 542.25L618.375 498.75L173.625 498.75L173.625 542.25z" stroke="none" fill="#E0F7FA" fill-rule="nonzero" /><path id="40" transform="matrix(1 0 0 -1 0 612)" d="M173.625 499.5L618.375 499.5L618.375 456L173.625 456L173.625 499.5z" stroke="none" fill="#FFFFFF" fill-rule="nonzero" /><path id="41" transform="matrix(1 0 0 -1 0 612)" d="M173.625 456.75L618.375 456.75L618.375 426L173.625 426L173.625 456.75z" stroke="none" fill="#E0F7FA" fill-rule="nonzero" /><path id="42" transform="matrix(1 0 0 -1 0 612)" d="M173.625 426.75L618.375 426.75L618.375 396L173.625 396L173.625 426.75z" stroke="none" fill="#FFFFFF" fill-rule="nonzero" /><path id="43" transform="matrix(1 0 0 -1 0 612)" d="M173.625 396.75L618.375 396.75L618.375 366L173.625 366L173.625 396.75z" stroke="none" fill="#E0F7FA" fill-rule="nonzero" /><path id="44" transform="matrix(1 0 0 -1 0 612)" d="M173.625 366.75L618.375 366.75L618.375 323.25L173.625 323.25L173.625 366.75z" stroke="none" fill="#FFFFFF" fill-rule="nonzero" /><path id="45" transform="matrix(1 0 0 -1 0 612)" d="M173.625 324L618.375 324L618.375 280.5L173.625 280.5L173.625 324z" stroke="none" fill="#E0F7FA" fill-rule="nonzero" /><path id="46" transform="matrix(1 0 0 -1 0 612)" d="M173.625 281.25L618.375 281.25L618.375 224.25L173.625 224.25L173.625 281.25z" stroke="none" fill="#FFFFFF" fill-rule="nonzero" /><path id="47" transform="matrix(1 0 0 -1 0 612)" d="M173.625 225L618.375 225L618.375 194.25L173.625 194.25L173.625 225z" stroke="none" fill="#E0F7FA" fill-rule="nonzero" /><path id="48" transform="matrix(1 0 0 -1 0 612)" d="M173.625 195L618.375 195L618.375 151.5L173.625 151.5L173.625 195z" stroke="none" fill="#FFFFFF" fill-rule="nonzero" /><path id="49" transform="matrix(1 0 0 -1 0 612)" d="M173.625 152.25L618.375 152.25L618.375 121.5L173.625 121.5L173.625 152.25z" stroke="none" fill="#E0F7FA" fill-rule="nonzero" /><path id="50" transform="matrix(1 0 0 -1 0 612)" d="M173.625 122.25L618.375 122.25L618.375 105L173.625 105L173.625 122.25z" stroke="none" fill="#FFFFFF" fill-rule="nonzero" /><path id="51" transform="matrix(1 0 0 -1 0 612)" d="M173.625 105.75L618.375 105.75L618.375 62.25L173.625 62.25L173.625 105.75z" stroke="none" fill="#E0F7FA" fill-rule="nonzero" /><path id="52" transform="matrix(1 0 0 -1 0 612)" d="M173.625 63L618.375 63L618.375 62.25L173.625 62.25zM173.625 105.75L618.375 105.75L618.375 105L173.625 105zM173.625 122.25L618.375 122.25L618.375 121.5L173.625 121.5zM173.625 152.25L618.375 152.25L618.375 151.5L173.625 151.5zM173.625 195L618.375 195L618.375 194.25L173.625 194.25zM173.625 225L618.375 225L618.375 224.25L173.625 224.25zM173.625 281.25L618.375 281.25L618.375 280.5L173.625 280.5zM173.625 324L618.375 324L618.375 323.25L173.625 323.25zM173.625 366.75L618.375 366.75L618.375 366L173.625 366zM173.625 396.75L618.375 396.75L618.375 396L173.625 396zM173.625 426.75L618.375 426.75L618.375 426L173.625 426zM173.625 456.75L618.375 456.75L618.375 456L173.625 456zM173.625 499.5L618.375 499.5L618.375 498.75L173.625 498.75zM173.625 542.25L618.375 542.25L618.375 541.5L173.625 541.5zM618.375 105L618.375 63L617.625 63L617.625 105zM618.375 121.5L618.375 105.75L617.625 105.75L617.625 121.5zM618.375 151.5L618.375 122.25L617.625 122.25L617.625 151.5zM618.375 194.25L618.375 152.25L617.625 152.25L617.625 194.25zM618.375 224.25L618.375 195L617.625 195L617.625 224.25zM618.375 280.5L618.375 225L617.625 225L617.625 280.5zM618.375 323.25L618.375 281.25L617.625 281.25L617.625 323.25zM618.375 366L618.375 324L617.625 324L617.625 366zM618.375 396L618.375 366.75L617.625 366.75L617.625 396zM618.375 426L618.375 396.75L617.625 396.75L617.625 426zM618.375 456L618.375 426.75L617.625 426.75L617.625 456zM618.375 498.75L618.375 456.75L617.625 456.75L617.625 498.75zM618.375 541.5L618.375 499.5L617.625 499.5L617.625 541.5zM541.125 105L541.125 63L540.375 63L540.375 105zM541.125 121.5L541.125 105.75L540.375 105.75L540.375 121.5zM541.125 151.5L541.125 122.25L540.375 122.25L540.375 151.5zM541.125 194.25L541.125 152.25L540.375 152.25L540.375 194.25zM541.125 224.25L541.125 195L540.375 195L540.375 224.25zM541.125 280.5L541.125 225L540.375 225L540.375 280.5zM541.125 323.25L541.125 281.25L540.375 281.25L540.375 323.25zM541.125 366L541.125 324L540.375 324L540.375 366zM541.125 396L541.125 366.75L540.375 366.75L540.375 396zM541.125 426L541.125 396.75L540.375 396.75L540.375 426zM541.125 456L541.125 426.75L540.375 426.75L540.375 456zM541.125 498.75L541.125 456.75L540.375 456.75L540.375 498.75zM541.125 541.5L541.125 499.5L540.375 499.5L540.375 541.5zM512.625 105L512.625 63L511.875 63L511.875 105zM512.625 121.5L512.625 105.75L511.875 105.75L511.875 121.5zM512.625 151.5L512.625 122.25L511.875 122.25L511.875 151.5zM512.625 194.25L512.625 152.25L511.875 152.25L511.875 194.25zM512.625 224.25L512.625 195L511.875 195L511.875 224.25zM512.625 280.5L512.625 225L511.875 225L511.875 280.5zM512.625 323.25L512.625 281.25L511.875 281.25L511.875 323.25zM512.625 366L512.625 324L511.875 324L511.875 366zM512.625 396L512.625 366.75L511.875 366.75L511.875 396zM512.625 426L512.625 396.75L511.875 396.75L511.875 426zM512.625 456L512.625 426.75L511.875 426.75L511.875 456zM512.625 498.75L512.625 456.75L511.875 456.75L511.875 498.75zM512.625 541.5L512.625 499.5L511.875 499.5L511.875 541.5zM284.625 105L284.625 63L283.875 63L283.875 105zM284.625 121.5L284.625 105.75L283.875 105.75L283.875 121.5zM284.625 151.5L284.625 122.25L283.875 122.25L283.875 151.5zM284.625 194.25L284.625 152.25L283.875 152.25L283.875 194.25zM284.625 224.25L284.625 195L283.875 195L283.875 224.25zM284.625 280.5L284.625 225L283.875 225L283.875 280.5zM284.625 323.25L284.625 281.25L283.875 281.25L283.875 323.25zM284.625 366L284.625 324L283.875 324L283.875 366zM284.625 396L284.625 366.75L283.875 366.75L283.875 396zM284.625 426L284.625 396.75L283.875 396.75L283.875 426zM284.625 456L284.625 426.75L283.875 426.75L283.875 456zM284.625 498.75L284.625 456.75L283.875 456.75L283.875 498.75zM284.625 541.5L284.625 499.5L283.875 499.5L283.875 541.5zM208.125 105L208.125 63L207.375 63L207.375 105zM208.125 121.5L208.125 105.75L207.375 105.75L207.375 121.5zM208.125 151.5L208.125 122.25L207.375 122.25L207.375 151.5zM208.125 194.25L208.125 152.25L207.375 152.25L207.375 194.25zM208.125 224.25L208.125 195L207.375 195L207.375 224.25zM208.125 280.5L208.125 225L207.375 225L207.375 280.5zM208.125 323.25L208.125 281.25L207.375 281.25L207.375 323.25zM208.125 366L208.125 324L207.375 324L207.375 366zM208.125 396L208.125 366.75L207.375 366.75L207.375 396zM208.125 426L208.125 396.75L207.375 396.75L207.375 426zM208.125 456L208.125 426.75L207.375 426.75L207.375 456zM208.125 498.75L208.125 456.75L207.375 456.75L207.375 498.75zM208.125 541.5L208.125 499.5L207.375 499.5L207.375 541.5zM174.375 105L174.375 63L173.625 63L173.625 105zM174.375 121.5L174.375 105.75L173.625 105.75L173.625 121.5zM174.375 151.5L174.375 122.25L173.625 122.25L173.625 151.5zM174.375 194.25L174.375 152.25L173.625 152.25L173.625 194.25zM174.375 224.25L174.375 195L173.625 195L173.625 224.25zM174.375 280.5L174.375 225L173.625 225L173.625 280.5zM174.375 323.25L174.375 281.25L173.625 281.25L173.625 323.25zM174.375 366L174.375 324L173.625 324L173.625 366zM174.375 396L174.375 366.75L173.625 366.75L173.625 396zM174.375 426L174.375 396.75L173.625 396.75L173.625 426zM174.375 456L174.375 426.75L173.625 426.75L173.625 456zM174.375 498.75L174.375 456.75L173.625 456.75L173.625 498.75zM174.375 541.5L174.375 499.5L173.625 499.5L173.625 541.5z" stroke="none" fill="#000000" fill-rule="nonzero" fill-opacity="0.1490196" /><path id="119" transform="matrix(1 0 0 -1 0 612)" d="M286.875 528.6436L503.15 528.6436" stroke="#000000" stroke-width="0.7017334" fill="none" /><path id="154" transform="matrix(1 0 0 -1 0 612)" d="M286.875 515.5547L470.8826 515.5547" stroke="#000000" stroke-width="0.7017334" fill="none" /><path id="164" transform="matrix(1 0 0 -1 0 612)" d="M286.875 502.4658L327.4619 502.4658" stroke="#000000" stroke-width="0.7017334" fill="none" /><path id="219" transform="matrix(1 0 0 -1 0 612)" d="M286.875 459.7158L451.4687 459.7158" stroke="#000000" stroke-width="0.7017334" fill="none" /><path id="299" transform="matrix(1 0 0 -1 0 612)" d="M286.875 442.8047L503.7833 442.8047" stroke="#000000" stroke-width="0.7017334" fill="none" /><path id="319" transform="matrix(1 0 0 -1 0 612)" d="M286.875 429.7158L372.9545 429.7158" stroke="#000000" stroke-width="0.7017334" fill="none" /><path id="374" transform="matrix(1 0 0 -1 0 612)" d="M286.875 412.8047L479.5215 412.8047" stroke="#000000" stroke-width="0.7017334" fill="none" /><path id="395" transform="matrix(1 0 0 -1 0 612)" d="M286.875 399.7158L384.1799 399.7158" stroke="#000000" stroke-width="0.7017334" fill="none" /><path id="479" transform="matrix(1 0 0 -1 0 612)" d="M286.875 382.8047L510.8622 382.8047" stroke="#000000" stroke-width="0.7017334" fill="none" /><path id="497" transform="matrix(1 0 0 -1 0 612)" d="M286.875 369.7158L368.6873 369.7158" stroke="#000000" stroke-width="0.7017334" fill="none" /><path id="578" transform="matrix(1 0 0 -1 0 612)" d="M286.875 340.0547L501.9301 340.0547" stroke="#000000" stroke-width="0.7017334" fill="none" /><path id="621" transform="matrix(1 0 0 -1 0 612)" d="M286.875 326.9658L496.7991 326.9658" stroke="#000000" stroke-width="0.7017334" fill="none" /><path id="706" transform="matrix(1 0 0 -1 0 612)" d="M286.875 297.3047L484.8775 297.3047" stroke="#000000" stroke-width="0.7017334" fill="none" /><path id="721" transform="matrix(1 0 0 -1 0 612)" d="M286.875 284.2158L343.5354 284.2158" stroke="#000000" stroke-width="0.7017334" fill="none" /><path id="809" transform="matrix(1 0 0 -1 0 612)" d="M286.875 241.0547L471.956 241.0547" stroke="#000000" stroke-width="0.7017334" fill="none" /><path id="852" transform="matrix(1 0 0 -1 0 612)" d="M286.875 227.9658L497.0818 227.9658" stroke="#000000" stroke-width="0.7017334" fill="none" /><path id="958" transform="matrix(1 0 0 -1 0 612)" d="M286.875 211.0547L509.3438 211.0547" stroke="#000000" stroke-width="0.7017334" fill="none" /><path id="974" transform="matrix(1 0 0 -1 0 612)" d="M286.875 197.9658L379.2217 197.9658" stroke="#000000" stroke-width="0.7017334" fill="none" /><path id="1054" transform="matrix(1 0 0 -1 0 612)" d="M286.875 168.3047L485.2232 168.3047" stroke="#000000" stroke-width="0.7017334" fill="none" /><path id="1074" transform="matrix(1 0 0 -1 0 612)" d="M286.875 155.2158L372.1902 155.2158" stroke="#000000" stroke-width="0.7017334" fill="none" /><path id="1147" transform="matrix(1 0 0 -1 0 612)" d="M286.875 125.2158L487.8881 125.2158" stroke="#000000" stroke-width="0.7017334" fill="none" /><path id="1198" transform="matrix(1 0 0 -1 0 612)" d="M286.875 108.7158L495.972 108.7158" stroke="#000000" stroke-width="0.7017334" fill="none" /><path id="1270" transform="matrix(1 0 0 -1 0 612)" d="M286.875 92.14355L476.4062 92.14355" stroke="#000000" stroke-width="0.7017334" fill="none" /><path id="1316" transform="matrix(1 0 0 -1 0 612)" d="M286.875 79.05469L509.8988 79.05469" stroke="#000000" stroke-width="0.7017334" fill="none" /><path id="1338" transform="matrix(1 0 0 -1 0 612)" d="M286.875 65.96582L385.5463 65.96582" stroke="#000000" stroke-width="0.7017334" fill="none" /></g></g></g></svg>