<svg xmlns="http://www.w3.org/2000/svg" xmlns:xlink="http://www.w3.org/1999/xlink" id="body_38" preserveAspectRatio="xMinYMin meet" viewBox="0 0 1056 816"><defs><clipPath id="1"><path id="" clip-rule="evenodd" transform="matrix(1 0 0 1 0 0)" d="M0 612L0 0L0 0L792 0L792 0L792 612L792 612L0 612z" /></clipPath><clipPath id="2"><path id="" clip-rule="evenodd" transform="matrix(1 0 0 1 0 0)" d="M172.875 52.5L619.125 52.5L619.125 52.5L619.125 69.75L619.125 69.75L172.875 69.75L172.875 69.75L172.875 52.5z" /></clipPath><clipPath id="3"><path id="" clip-rule="evenodd" transform="matrix(1 0 0 1 0 0)" d="M172.875 69L619.125 69L619.125 69L619.125 557.25L619.125 557.25L172.875 557.25L172.875 557.25L172.875 69z" /></clipPath></defs><g transform="matrix(1.333333 0 0 1.333333 0 0)"><g clip-path="url(#1)"><g clip-path="url(#2)"><path id="10" transform="matrix(1 0 0 -1 0 612)" d="M173.625 558.75L618.375 558.75L618.375 541.5L173.625 541.5L173.625 558.75z" stroke="none" fill="#4DD0E1" fill-rule="nonzero" /><path id="11" transform="matrix(1 0 0 -1 0 612)" d="M173.625 542.25L618.375 542.25L618.375 541.5L173.625 541.5zM173.625 558.75L618.375 558.75L618.375 558L173.625 558zM618.375 558L618.375 542.25L617.625 542.25L617.625 558zM541.125 558L541.125 542.25L540.375 542.25L540.375 558zM512.625 558L512.625 542.25L511.875 542.25L511.875 558zM284.625 558L284.625 542.25L283.875 542.25L283.875 558zM208.125 558L208.125 542.25L207.375 542.25L207.375 558zM174.375 558L174.375 542.25L173.625 542.25L173.625 558z" stroke="none" fill="#000000" fill-rule="nonzero" fill-opacity="0.1490196" /></g><g clip-path="url(#3)"><path id="39" transform="matrix(1 0 0 -1 0 612)" d="M173.625 542.25L618.375 542.25L618.375 498.75L173.625 498.75L173.625 542.25z" stroke="none" fill="#FFFFFF" fill-rule="nonzero" /><path id="40" transform="matrix(1 0 0 -1 0 612)" d="M173.625 499.5L618.375 499.5L618.375 482.25L173.625 482.25L173.625 499.5z" stroke="none" fill="#E0F7FA" fill-rule="nonzero" /><path id="41" transform="matrix(1 0 0 -1 0 612)" d="M173.625 483L618.375 483L618.375 465.75L173.625 465.75L173.625 483z" stroke="none" fill="#FFFFFF" fill-rule="nonzero" /><path id="42" transform="matrix(1 0 0 -1 0 612)" d="M173.625 466.5L618.375 466.5L618.375 409.5L173.625 409.5L173.625 466.5z" stroke="none" fill="#E0F7FA" fill-rule="nonzero" /><path id="43" transform="matrix(1 0 0 -1 0 612)" d="M173.625 410.25L618.375 410.25L618.375 379.5L173.625 379.5L173.625 410.25z" stroke="none" fill="#FFFFFF" fill-rule="nonzero" /><path id="44" transform="matrix(1 0 0 -1 0 612)" d="M173.625 380.25L618.375 380.25L618.375 349.5L173.625 349.5L173.625 380.25z" stroke="none" fill="#E0F7FA" fill-rule="nonzero" /><path id="45" transform="matrix(1 0 0 -1 0 612)" d="M173.625 350.25L618.375 350.25L618.375 319.5L173.625 319.5L173.625 350.25z" stroke="none" fill="#FFFFFF" fill-rule="nonzero" /><path id="46" transform="matrix(1 0 0 -1 0 612)" d="M173.625 320.25L618.375 320.25L618.375 276.75L173.625 276.75L173.625 320.25z" stroke="none" fill="#E0F7FA" fill-rule="nonzero" /><path id="47" transform="matrix(1 0 0 -1 0 612)" d="M173.625 277.5L618.375 277.5L618.375 234L173.625 234L173.625 277.5z" stroke="none" fill="#FFFFFF" fill-rule="nonzero" /><path id="48" transform="matrix(1 0 0 -1 0 612)" d="M173.625 234.75L618.375 234.75L618.375 191.25L173.625 191.25L173.625 234.75z" stroke="none" fill="#E0F7FA" fill-rule="nonzero" /><path id="49" transform="matrix(1 0 0 -1 0 612)" d="M173.625 192L618.375 192L618.375 174.75L173.625 174.75L173.625 192z" stroke="none" fill="#FFFFFF" fill-rule="nonzero" /><path id="50" transform="matrix(1 0 0 -1 0 612)" d="M173.625 175.5L618.375 175.5L618.375 158.25L173.625 158.25L173.625 175.5z" stroke="none" fill="#E0F7FA" fill-rule="nonzero" /><path id="51" transform="matrix(1 0 0 -1 0 612)" d="M173.625 159L618.375 159L618.375 128.25L173.625 128.25L173.625 159z" stroke="none" fill="#FFFFFF" fill-rule="nonzero" /><path id="52" transform="matrix(1 0 0 -1 0 612)" d="M173.625 129L618.375 129L618.375 85.5L173.625 85.5L173.625 129z" stroke="none" fill="#E0F7FA" fill-rule="nonzero" /><path id="53" transform="matrix(1 0 0 -1 0 612)" d="M173.625 86.25L618.375 86.25L618.375 55.5L173.625 55.5L173.625 86.25z" stroke="none" fill="#FFFFFF" fill-rule="nonzero" /><path id="54" transform="matrix(1 0 0 -1 0 612)" d="M173.625 56.25L618.375 56.25L618.375 55.5L173.625 55.5zM173.625 86.25L618.375 86.25L618.375 85.5L173.625 85.5zM173.625 129L618.375 129L618.375 128.25L173.625 128.25zM173.625 159L618.375 159L618.375 158.25L173.625 158.25zM173.625 175.5L618.375 175.5L618.375 174.75L173.625 174.75zM173.625 192L618.375 192L618.375 191.25L173.625 191.25zM173.625 234.75L618.375 234.75L618.375 234L173.625 234zM173.625 277.5L618.375 277.5L618.375 276.75L173.625 276.75zM173.625 320.25L618.375 320.25L618.375 319.5L173.625 319.5zM173.625 350.25L618.375 350.25L618.375 349.5L173.625 349.5zM173.625 380.25L618.375 380.25L618.375 379.5L173.625 379.5zM173.625 410.25L618.375 410.25L618.375 409.5L173.625 409.5zM173.625 466.5L618.375 466.5L618.375 465.75L173.625 465.75zM173.625 483L618.375 483L618.375 482.25L173.625 482.25zM173.625 499.5L618.375 499.5L618.375 498.75L173.625 498.75zM173.625 542.25L618.375 542.25L618.375 541.5L173.625 541.5zM618.375 85.5L618.375 56.25L617.625 56.25L617.625 85.5zM618.375 128.25L618.375 86.25L617.625 86.25L617.625 128.25zM618.375 158.25L618.375 129L617.625 129L617.625 158.25zM618.375 174.75L618.375 159L617.625 159L617.625 174.75zM618.375 191.25L618.375 175.5L617.625 175.5L617.625 191.25zM618.375 234L618.375 192L617.625 192L617.625 234zM618.375 276.75L618.375 234.75L617.625 234.75L617.625 276.75zM618.375 319.5L618.375 277.5L617.625 277.5L617.625 319.5zM618.375 349.5L618.375 320.25L617.625 320.25L617.625 349.5zM618.375 379.5L618.375 350.25L617.625 350.25L617.625 379.5zM618.375 409.5L618.375 380.25L617.625 380.25L617.625 409.5zM618.375 465.75L618.375 410.25L617.625 410.25L617.625 465.75zM618.375 482.25L618.375 466.5L617.625 466.5L617.625 482.25zM618.375 498.75L618.375 483L617.625 483L617.625 498.75zM618.375 541.5L618.375 499.5L617.625 499.5L617.625 541.5zM541.125 85.5L541.125 56.25L540.375 56.25L540.375 85.5zM541.125 128.25L541.125 86.25L540.375 86.25L540.375 128.25zM541.125 158.25L541.125 129L540.375 129L540.375 158.25zM541.125 174.75L541.125 159L540.375 159L540.375 174.75zM541.125 191.25L541.125 175.5L540.375 175.5L540.375 191.25zM541.125 234L541.125 192L540.375 192L540.375 234zM541.125 276.75L541.125 234.75L540.375 234.75L540.375 276.75zM541.125 319.5L541.125 277.5L540.375 277.5L540.375 319.5zM541.125 349.5L541.125 320.25L540.375 320.25L540.375 349.5zM541.125 379.5L541.125 350.25L540.375 350.25L540.375 379.5zM541.125 409.5L541.125 380.25L540.375 380.25L540.375 409.5zM541.125 465.75L541.125 410.25L540.375 410.25L540.375 465.75zM541.125 482.25L541.125 466.5L540.375 466.5L540.375 482.25zM541.125 498.75L541.125 483L540.375 483L540.375 498.75zM541.125 541.5L541.125 499.5L540.375 499.5L540.375 541.5zM512.625 85.5L512.625 56.25L511.875 56.25L511.875 85.5zM512.625 128.25L512.625 86.25L511.875 86.25L511.875 128.25zM512.625 158.25L512.625 129L511.875 129L511.875 158.25zM512.625 174.75L512.625 159L511.875 159L511.875 174.75zM512.625 191.25L512.625 175.5L511.875 175.5L511.875 191.25zM512.625 234L512.625 192L511.875 192L511.875 234zM512.625 276.75L512.625 234.75L511.875 234.75L511.875 276.75zM512.625 319.5L512.625 277.5L511.875 277.5L511.875 319.5zM512.625 349.5L512.625 320.25L511.875 320.25L511.875 349.5zM512.625 379.5L512.625 350.25L511.875 350.25L511.875 379.5zM512.625 409.5L512.625 380.25L511.875 380.25L511.875 409.5zM512.625 465.75L512.625 410.25L511.875 410.25L511.875 465.75zM512.625 482.25L512.625 466.5L511.875 466.5L511.875 482.25zM512.625 498.75L512.625 483L511.875 483L511.875 498.75zM512.625 541.5L512.625 499.5L511.875 499.5L511.875 541.5zM284.625 85.5L284.625 56.25L283.875 56.25L283.875 85.5zM284.625 128.25L284.625 86.25L283.875 86.25L283.875 128.25zM284.625 158.25L284.625 129L283.875 129L283.875 158.25zM284.625 174.75L284.625 159L283.875 159L283.875 174.75zM284.625 191.25L284.625 175.5L283.875 175.5L283.875 191.25zM284.625 234L284.625 192L283.875 192L283.875 234zM284.625 276.75L284.625 234.75L283.875 234.75L283.875 276.75zM284.625 319.5L284.625 277.5L283.875 277.5L283.875 319.5zM284.625 349.5L284.625 320.25L283.875 320.25L283.875 349.5zM284.625 379.5L284.625 350.25L283.875 350.25L283.875 379.5zM284.625 409.5L284.625 380.25L283.875 380.25L283.875 409.5zM284.625 465.75L284.625 410.25L283.875 410.25L283.875 465.75zM284.625 482.25L284.625 466.5L283.875 466.5L283.875 482.25zM284.625 498.75L284.625 483L283.875 483L283.875 498.75zM284.625 541.5L284.625 499.5L283.875 499.5L283.875 541.5zM208.125 85.5L208.125 56.25L207.375 56.25L207.375 85.5zM208.125 128.25L208.125 86.25L207.375 86.25L207.375 128.25zM208.125 158.25L208.125 129L207.375 129L207.375 158.25zM208.125 174.75L208.125 159L207.375 159L207.375 174.75zM208.125 191.25L208.125 175.5L207.375 175.5L207.375 191.25zM208.125 234L208.125 192L207.375 192L207.375 234zM208.125 276.75L208.125 234.75L207.375 234.75L207.375 276.75zM208.125 319.5L208.125 277.5L207.375 277.5L207.375 319.5zM208.125 349.5L208.125 320.25L207.375 320.25L207.375 349.5zM208.125 379.5L208.125 350.25L207.375 350.25L207.375 379.5zM208.125 409.5L208.125 380.25L207.375 380.25L207.375 409.5zM208.125 465.75L208.125 410.25L207.375 410.25L207.375 465.75zM208.125 482.25L208.125 466.5L207.375 466.5L207.375 482.25zM208.125 498.75L208.125 483L207.375 483L207.375 498.75zM208.125 541.5L208.125 499.5L207.375 499.5L207.375 541.5zM174.375 85.5L174.375 56.25L173.625 56.25L173.625 85.5zM174.375 128.25L174.375 86.25L173.625 86.25L173.625 128.25zM174.375 158.25L174.375 129L173.625 129L173.625 158.25zM174.375 174.75L174.375 159L173.625 159L173.625 174.75zM174.375 191.25L174.375 175.5L173.625 175.5L173.625 191.25zM174.375 234L174.375 192L173.625 192L173.625 234zM174.375 276.75L174.375 234.75L173.625 234.75L173.625 276.75zM174.375 319.5L174.375 277.5L173.625 277.5L173.625 319.5zM174.375 349.5L174.375 320.25L173.625 320.25L173.625 349.5zM174.375 379.5L174.375 350.25L173.625 350.25L173.625 379.5zM174.375 409.5L174.375 380.25L173.625 380.25L173.625 409.5zM174.375 465.75L174.375 410.25L173.625 410.25L173.625 465.75zM174.375 482.25L174.375 466.5L173.625 466.5L173.625 482.25zM174.375 498.75L174.375 483L173.625 483L173.625 498.75zM174.375 541.5L174.375 499.5L173.625 499.5L173.625 541.5z" stroke="none" fill="#000000" fill-rule="nonzero" fill-opacity="0.1490196" /><path id="100" transform="matrix(1 0 0 -1 0 612)" d="M286.875 528.6445L476.4324 528.6445" stroke="#000000" stroke-width="0.7017334" fill="none" /><path id="139" transform="matrix(1 0 0 -1 0 612)" d="M286.875 515.5566L481.7413 515.5566" stroke="#000000" stroke-width="0.7017334" fill="none" /><path id="148" transform="matrix(1 0 0 -1 0 612)" d="M286.875 502.4668L326.4147 502.4668" stroke="#000000" stroke-width="0.7017334" fill="none" /><path id="213" transform="matrix(1 0 0 -1 0 612)" d="M286.875 485.9668L373.4102 485.9668" stroke="#000000" stroke-width="0.7017334" fill="none" /><path id="251" transform="matrix(1 0 0 -1 0 612)" d="M286.875 469.4668L394.0806 469.4668" stroke="#000000" stroke-width="0.7017334" fill="none" /><path id="314" transform="matrix(1 0 0 -1 0 612)" d="M286.875 426.3066L492.3384 426.3066" stroke="#000000" stroke-width="0.7017334" fill="none" /><path id="332" transform="matrix(1 0 0 -1 0 612)" d="M286.875 413.2168L367.562 413.2168" stroke="#000000" stroke-width="0.7017334" fill="none" /><path id="423" transform="matrix(1 0 0 -1 0 612)" d="M286.875 396.3066L489.0086 396.3066" stroke="#000000" stroke-width="0.7017334" fill="none" /><path id="432" transform="matrix(1 0 0 -1 0 612)" d="M286.875 383.2168L320.666 383.2168" stroke="#000000" stroke-width="0.7017334" fill="none" /><path id="519" transform="matrix(1 0 0 -1 0 612)" d="M286.875 366.3066L505.9146 366.3066" stroke="#000000" stroke-width="0.7017334" fill="none" /><path id="525" transform="matrix(1 0 0 -1 0 612)" d="M286.875 353.2168L310.4198 353.2168" stroke="#000000" stroke-width="0.7017334" fill="none" /><path id="572" transform="matrix(1 0 0 -1 0 612)" d="M286.875 323.2168L397.8189 323.2168" stroke="#000000" stroke-width="0.7017334" fill="none" /><path id="658" transform="matrix(1 0 0 -1 0 612)" d="M286.875 293.5566L495.438 293.5566" stroke="#000000" stroke-width="0.7017334" fill="none" /><path id="679" transform="matrix(1 0 0 -1 0 612)" d="M286.875 280.4668L388.5045 280.4668" stroke="#000000" stroke-width="0.7017334" fill="none" /><path id="762" transform="matrix(1 0 0 -1 0 612)" d="M286.875 263.8945L492.7675 263.8945" stroke="#000000" stroke-width="0.7017334" fill="none" /><path id="809" transform="matrix(1 0 0 -1 0 612)" d="M286.875 250.8066L506.4958 250.8066" stroke="#000000" stroke-width="0.7017334" fill="none" /><path id="820" transform="matrix(1 0 0 -1 0 612)" d="M286.875 237.7168L340.3103 237.7168" stroke="#000000" stroke-width="0.7017334" fill="none" /><path id="901" transform="matrix(1 0 0 -1 0 612)" d="M286.875 221.1445L477.3014 221.1445" stroke="#000000" stroke-width="0.7017334" fill="none" /><path id="942" transform="matrix(1 0 0 -1 0 612)" d="M286.875 208.0566L477.579 208.0566" stroke="#000000" stroke-width="0.7017334" fill="none" /><path id="967" transform="matrix(1 0 0 -1 0 612)" d="M286.875 194.9668L402.6513 194.9668" stroke="#000000" stroke-width="0.7017334" fill="none" /><path id="1019" transform="matrix(1 0 0 -1 0 612)" d="M286.875 178.4668L476.4428 178.4668" stroke="#000000" stroke-width="0.7017334" fill="none" /><path id="1074" transform="matrix(1 0 0 -1 0 612)" d="M286.875 161.9668L477.537 161.9668" stroke="#000000" stroke-width="0.7017334" fill="none" /><path id="1138" transform="matrix(1 0 0 -1 0 612)" d="M286.875 145.0566L510.9826 145.0566" stroke="#000000" stroke-width="0.7017334" fill="none" /><path id="1154" transform="matrix(1 0 0 -1 0 612)" d="M286.875 131.9668L359.4622 131.9668" stroke="#000000" stroke-width="0.7017334" fill="none" /><path id="1208" transform="matrix(1 0 0 -1 0 612)" d="M286.875 89.2168L394.2375 89.2168" stroke="#000000" stroke-width="0.7017334" fill="none" /><path id="1291" transform="matrix(1 0 0 -1 0 612)" d="M286.875 72.30664L456.3851 72.30664" stroke="#000000" stroke-width="0.7017334" fill="none" /><path id="1304" transform="matrix(1 0 0 -1 0 612)" d="M286.875 59.2168L340.6348 59.2168" stroke="#000000" stroke-width="0.7017334" fill="none" /></g></g></g></svg>