<svg xmlns="http://www.w3.org/2000/svg" xmlns:xlink="http://www.w3.org/1999/xlink" id="body_32" preserveAspectRatio="xMinYMin meet" viewBox="0 0 1056 816"><defs><clipPath id="1"><path id="" clip-rule="evenodd" transform="matrix(1 0 0 1 0 0)" d="M0 612L0 0L0 0L792 0L792 0L792 612L792 612L0 612z" /></clipPath><clipPath id="2"><path id="" clip-rule="evenodd" transform="matrix(1 0 0 1 0 0)" d="M172.875 52.5L619.125 52.5L619.125 52.5L619.125 69.75L619.125 69.75L172.875 69.75L172.875 69.75L172.875 52.5z" /></clipPath><clipPath id="3"><path id="" clip-rule="evenodd" transform="matrix(1 0 0 1 0 0)" d="M172.875 69L619.125 69L619.125 69L619.125 517.5L619.125 517.5L172.875 517.5L172.875 517.5L172.875 69z" /></clipPath></defs><g transform="matrix(1.333333 0 0 1.333333 0 0)"><g clip-path="url(#1)"><g clip-path="url(#2)"><path id="10" transform="matrix(1 0 0 -1 0 612)" d="M173.625 558.75L618.375 558.75L618.375 541.5L173.625 541.5L173.625 558.75z" stroke="none" fill="#4DD0E1" fill-rule="nonzero" /><path id="11" transform="matrix(1 0 0 -1 0 612)" d="M173.625 542.25L618.375 542.25L618.375 541.5L173.625 541.5zM173.625 558.75L618.375 558.75L618.375 558L173.625 558zM618.375 558L618.375 542.25L617.625 542.25L617.625 558zM541.125 558L541.125 542.25L540.375 542.25L540.375 558zM512.625 558L512.625 542.25L511.875 542.25L511.875 558zM284.625 558L284.625 542.25L283.875 542.25L283.875 558zM208.125 558L208.125 542.25L207.375 542.25L207.375 558zM174.375 558L174.375 542.25L173.625 542.25L173.625 558z" stroke="none" fill="#000000" fill-rule="nonzero" fill-opacity="0.1490196" /></g><g clip-path="url(#3)"><path id="39" transform="matrix(1 0 0 -1 0 612)" d="M173.625 542.25L618.375 542.25L618.375 498.75L173.625 498.75L173.625 542.25z" stroke="none" fill="#FFFFFF" fill-rule="nonzero" /><path id="40" transform="matrix(1 0 0 -1 0 612)" d="M173.625 499.5L618.375 499.5L618.375 468.75L173.625 468.75L173.625 499.5z" stroke="none" fill="#E0F7FA" fill-rule="nonzero" /><path id="41" transform="matrix(1 0 0 -1 0 612)" d="M173.625 469.5L618.375 469.5L618.375 426L173.625 426L173.625 469.5z" stroke="none" fill="#FFFFFF" fill-rule="nonzero" /><path id="42" transform="matrix(1 0 0 -1 0 612)" d="M173.625 426.75L618.375 426.75L618.375 369.75L173.625 369.75L173.625 426.75z" stroke="none" fill="#E0F7FA" fill-rule="nonzero" /><path id="43" transform="matrix(1 0 0 -1 0 612)" d="M173.625 370.5L618.375 370.5L618.375 313.5L173.625 313.5L173.625 370.5z" stroke="none" fill="#FFFFFF" fill-rule="nonzero" /><path id="44" transform="matrix(1 0 0 -1 0 612)" d="M173.625 314.25L618.375 314.25L618.375 283.5L173.625 283.5L173.625 314.25z" stroke="none" fill="#E0F7FA" fill-rule="nonzero" /><path id="45" transform="matrix(1 0 0 -1 0 612)" d="M173.625 284.25L618.375 284.25L618.375 240.75L173.625 240.75L173.625 284.25z" stroke="none" fill="#FFFFFF" fill-rule="nonzero" /><path id="46" transform="matrix(1 0 0 -1 0 612)" d="M173.625 241.5L618.375 241.5L618.375 198L173.625 198L173.625 241.5z" stroke="none" fill="#E0F7FA" fill-rule="nonzero" /><path id="47" transform="matrix(1 0 0 -1 0 612)" d="M173.625 198.75L618.375 198.75L618.375 168L173.625 168L173.625 198.75z" stroke="none" fill="#FFFFFF" fill-rule="nonzero" /><path id="48" transform="matrix(1 0 0 -1 0 612)" d="M173.625 168.75L618.375 168.75L618.375 125.25L173.625 125.25L173.625 168.75z" stroke="none" fill="#E0F7FA" fill-rule="nonzero" /><path id="49" transform="matrix(1 0 0 -1 0 612)" d="M173.625 126L618.375 126L618.375 95.25L173.625 95.25L173.625 126z" stroke="none" fill="#FFFFFF" fill-rule="nonzero" /><path id="50" transform="matrix(1 0 0 -1 0 612)" d="M173.625 96L618.375 96L618.375 95.25L173.625 95.25zM173.625 126L618.375 126L618.375 125.25L173.625 125.25zM173.625 168.75L618.375 168.75L618.375 168L173.625 168zM173.625 198.75L618.375 198.75L618.375 198L173.625 198zM173.625 241.5L618.375 241.5L618.375 240.75L173.625 240.75zM173.625 284.25L618.375 284.25L618.375 283.5L173.625 283.5zM173.625 314.25L618.375 314.25L618.375 313.5L173.625 313.5zM173.625 370.5L618.375 370.5L618.375 369.75L173.625 369.75zM173.625 426.75L618.375 426.75L618.375 426L173.625 426zM173.625 469.5L618.375 469.5L618.375 468.75L173.625 468.75zM173.625 499.5L618.375 499.5L618.375 498.75L173.625 498.75zM173.625 542.25L618.375 542.25L618.375 541.5L173.625 541.5zM618.375 125.25L618.375 96L617.625 96L617.625 125.25zM618.375 168L618.375 126L617.625 126L617.625 168zM618.375 198L618.375 168.75L617.625 168.75L617.625 198zM618.375 240.75L618.375 198.75L617.625 198.75L617.625 240.75zM618.375 283.5L618.375 241.5L617.625 241.5L617.625 283.5zM618.375 313.5L618.375 284.25L617.625 284.25L617.625 313.5zM618.375 369.75L618.375 314.25L617.625 314.25L617.625 369.75zM618.375 426L618.375 370.5L617.625 370.5L617.625 426zM618.375 468.75L618.375 426.75L617.625 426.75L617.625 468.75zM618.375 498.75L618.375 469.5L617.625 469.5L617.625 498.75zM618.375 541.5L618.375 499.5L617.625 499.5L617.625 541.5zM541.125 125.25L541.125 96L540.375 96L540.375 125.25zM541.125 168L541.125 126L540.375 126L540.375 168zM541.125 198L541.125 168.75L540.375 168.75L540.375 198zM541.125 240.75L541.125 198.75L540.375 198.75L540.375 240.75zM541.125 283.5L541.125 241.5L540.375 241.5L540.375 283.5zM541.125 313.5L541.125 284.25L540.375 284.25L540.375 313.5zM541.125 369.75L541.125 314.25L540.375 314.25L540.375 369.75zM541.125 426L541.125 370.5L540.375 370.5L540.375 426zM541.125 468.75L541.125 426.75L540.375 426.75L540.375 468.75zM541.125 498.75L541.125 469.5L540.375 469.5L540.375 498.75zM541.125 541.5L541.125 499.5L540.375 499.5L540.375 541.5zM512.625 125.25L512.625 96L511.875 96L511.875 125.25zM512.625 168L512.625 126L511.875 126L511.875 168zM512.625 198L512.625 168.75L511.875 168.75L511.875 198zM512.625 240.75L512.625 198.75L511.875 198.75L511.875 240.75zM512.625 283.5L512.625 241.5L511.875 241.5L511.875 283.5zM512.625 313.5L512.625 284.25L511.875 284.25L511.875 313.5zM512.625 369.75L512.625 314.25L511.875 314.25L511.875 369.75zM512.625 426L512.625 370.5L511.875 370.5L511.875 426zM512.625 468.75L512.625 426.75L511.875 426.75L511.875 468.75zM512.625 498.75L512.625 469.5L511.875 469.5L511.875 498.75zM512.625 541.5L512.625 499.5L511.875 499.5L511.875 541.5zM284.625 125.25L284.625 96L283.875 96L283.875 125.25zM284.625 168L284.625 126L283.875 126L283.875 168zM284.625 198L284.625 168.75L283.875 168.75L283.875 198zM284.625 240.75L284.625 198.75L283.875 198.75L283.875 240.75zM284.625 283.5L284.625 241.5L283.875 241.5L283.875 283.5zM284.625 313.5L284.625 284.25L283.875 284.25L283.875 313.5zM284.625 369.75L284.625 314.25L283.875 314.25L283.875 369.75zM284.625 426L284.625 370.5L283.875 370.5L283.875 426zM284.625 468.75L284.625 426.75L283.875 426.75L283.875 468.75zM284.625 498.75L284.625 469.5L283.875 469.5L283.875 498.75zM284.625 541.5L284.625 499.5L283.875 499.5L283.875 541.5zM208.125 125.25L208.125 96L207.375 96L207.375 125.25zM208.125 168L208.125 126L207.375 126L207.375 168zM208.125 198L208.125 168.75L207.375 168.75L207.375 198zM208.125 240.75L208.125 198.75L207.375 198.75L207.375 240.75zM208.125 283.5L208.125 241.5L207.375 241.5L207.375 283.5zM208.125 313.5L208.125 284.25L207.375 284.25L207.375 313.5zM208.125 369.75L208.125 314.25L207.375 314.25L207.375 369.75zM208.125 426L208.125 370.5L207.375 370.5L207.375 426zM208.125 468.75L208.125 426.75L207.375 426.75L207.375 468.75zM208.125 498.75L208.125 469.5L207.375 469.5L207.375 498.75zM208.125 541.5L208.125 499.5L207.375 499.5L207.375 541.5zM174.375 125.25L174.375 96L173.625 96L173.625 125.25zM174.375 168L174.375 126L173.625 126L173.625 168zM174.375 198L174.375 168.75L173.625 168.75L173.625 198zM174.375 240.75L174.375 198.75L173.625 198.75L173.625 240.75zM174.375 283.5L174.375 241.5L173.625 241.5L173.625 283.5zM174.375 313.5L174.375 284.25L173.625 284.25L173.625 313.5zM174.375 369.75L174.375 314.25L173.625 314.25L173.625 369.75zM174.375 426L174.375 370.5L173.625 370.5L173.625 426zM174.375 468.75L174.375 426.75L173.625 426.75L173.625 468.75zM174.375 498.75L174.375 469.5L173.625 469.5L173.625 498.75zM174.375 541.5L174.375 499.5L173.625 499.5L173.625 541.5z" stroke="none" fill="#000000" fill-rule="nonzero" fill-opacity="0.1490196" /><path id="108" transform="matrix(1 0 0 -1 0 612)" d="M286.875 515.5566L489.6891 515.5566" stroke="#000000" stroke-width="0.7017334" fill="none" /><path id="150" transform="matrix(1 0 0 -1 0 612)" d="M286.875 502.4668L482.3591 502.4668" stroke="#000000" stroke-width="0.7017334" fill="none" /><path id="230" transform="matrix(1 0 0 -1 0 612)" d="M286.875 485.5566L486.3541 485.5566" stroke="#000000" stroke-width="0.7017334" fill="none" /><path id="257" transform="matrix(1 0 0 -1 0 612)" d="M286.875 472.4668L406.8136 472.4668" stroke="#000000" stroke-width="0.7017334" fill="none" /><path id="327" transform="matrix(1 0 0 -1 0 612)" d="M286.875 455.8945L503.9669 455.8945" stroke="#000000" stroke-width="0.7017334" fill="none" /><path id="364" transform="matrix(1 0 0 -1 0 612)" d="M286.875 442.8066L470.9402 442.8066" stroke="#000000" stroke-width="0.7017334" fill="none" /><path id="374" transform="matrix(1 0 0 -1 0 612)" d="M286.875 429.7168L327.4619 429.7168" stroke="#000000" stroke-width="0.7017334" fill="none" /><path id="488" transform="matrix(1 0 0 -1 0 612)" d="M286.875 399.6445L495.5164 399.6445" stroke="#000000" stroke-width="0.7017334" fill="none" /><path id="529" transform="matrix(1 0 0 -1 0 612)" d="M286.875 386.5566L492.527 386.5566" stroke="#000000" stroke-width="0.7017334" fill="none" /><path id="550" transform="matrix(1 0 0 -1 0 612)" d="M286.875 373.4668L377.7924 373.4668" stroke="#000000" stroke-width="0.7017334" fill="none" /><path id="625" transform="matrix(1 0 0 -1 0 612)" d="M286.875 356.4844L474.3958 356.4844" stroke="#000000" stroke-width="0.7017334" fill="none" /><path id="669" transform="matrix(1 0 0 -1 0 612)" d="M286.875 343.3945L497.7468 343.3945" stroke="#000000" stroke-width="0.7017334" fill="none" /><path id="711" transform="matrix(1 0 0 -1 0 612)" d="M286.875 330.3066L509.4485 330.3066" stroke="#000000" stroke-width="0.7017334" fill="none" /><path id="717" transform="matrix(1 0 0 -1 0 612)" d="M286.875 317.2168L311.5141 317.2168" stroke="#000000" stroke-width="0.7017334" fill="none" /><path id="776" transform="matrix(1 0 0 -1 0 612)" d="M286.875 300.3066L504.061 300.3066" stroke="#000000" stroke-width="0.7017334" fill="none" /><path id="811" transform="matrix(1 0 0 -1 0 612)" d="M286.875 287.2168L461.2071 287.2168" stroke="#000000" stroke-width="0.7017334" fill="none" /><path id="916" transform="matrix(1 0 0 -1 0 612)" d="M286.875 270.6445L502.7156 270.6445" stroke="#000000" stroke-width="0.7017334" fill="none" /><path id="962" transform="matrix(1 0 0 -1 0 612)" d="M286.875 257.5566L503.2547 257.5566" stroke="#000000" stroke-width="0.7017334" fill="none" /><path id="989" transform="matrix(1 0 0 -1 0 612)" d="M286.875 244.4668L403.4628 244.4668" stroke="#000000" stroke-width="0.7017334" fill="none" /><path id="1051" transform="matrix(1 0 0 -1 0 612)" d="M286.875 227.8945L441.9084 227.8945" stroke="#000000" stroke-width="0.7017334" fill="none" /><path id="1092" transform="matrix(1 0 0 -1 0 612)" d="M286.875 214.8066L477.2596 214.8066" stroke="#000000" stroke-width="0.7017334" fill="none" /><path id="1123" transform="matrix(1 0 0 -1 0 612)" d="M286.875 201.7168L433.2277 201.7168" stroke="#000000" stroke-width="0.7017334" fill="none" /><path id="1195" transform="matrix(1 0 0 -1 0 612)" d="M286.875 184.8066L491.4431 184.8066" stroke="#000000" stroke-width="0.7017334" fill="none" /><path id="1217" transform="matrix(1 0 0 -1 0 612)" d="M286.875 171.7168L377.6248 171.7168" stroke="#000000" stroke-width="0.7017334" fill="none" /><path id="1265" transform="matrix(1 0 0 -1 0 612)" d="M286.875 128.9668L452.563 128.9668" stroke="#000000" stroke-width="0.7017334" fill="none" /><path id="1353" transform="matrix(1 0 0 -1 0 612)" d="M286.875 112.0566L480.3698 112.0566" stroke="#000000" stroke-width="0.7017334" fill="none" /><path id="1396" transform="matrix(1 0 0 -1 0 612)" d="M286.875 98.9668L500.6422 98.9668" stroke="#000000" stroke-width="0.7017334" fill="none" /></g></g></g></svg>