<svg xmlns="http://www.w3.org/2000/svg" xmlns:xlink="http://www.w3.org/1999/xlink" id="body_11" preserveAspectRatio="xMinYMin meet" viewBox="0 0 1056 816"><defs><clipPath id="1"><path id="" clip-rule="evenodd" transform="matrix(1 0 0 1 0 0)" d="M0 612L0 0L0 0L792 0L792 0L792 612L792 612L0 612z" /></clipPath><clipPath id="2"><path id="" clip-rule="evenodd" transform="matrix(1 0 0 1 0 0)" d="M172.875 52.5L619.125 52.5L619.125 52.5L619.125 69.75L619.125 69.75L172.875 69.75L172.875 69.75L172.875 52.5z" /></clipPath><clipPath id="3"><path id="" clip-rule="evenodd" transform="matrix(1 0 0 1 0 0)" d="M172.875 69L619.125 69L619.125 69L619.125 539.25L619.125 539.25L172.875 539.25L172.875 539.25L172.875 69z" /></clipPath></defs><g transform="matrix(1.333333 0 0 1.333333 0 0)"><g clip-path="url(#1)"><g clip-path="url(#2)"><path id="10" transform="matrix(1 0 0 -1 0 612)" d="M173.625 558.75L618.375 558.75L618.375 541.5L173.625 541.5L173.625 558.75z" stroke="none" fill="#4DD0E1" fill-rule="nonzero" /><path id="11" transform="matrix(1 0 0 -1 0 612)" d="M173.625 542.25L618.375 542.25L618.375 541.5L173.625 541.5zM173.625 558.75L618.375 558.75L618.375 558L173.625 558zM618.375 558L618.375 542.25L617.625 542.25L617.625 558zM541.125 558L541.125 542.25L540.375 542.25L540.375 558zM512.625 558L512.625 542.25L511.875 542.25L511.875 558zM284.625 558L284.625 542.25L283.875 542.25L283.875 558zM208.125 558L208.125 542.25L207.375 542.25L207.375 558zM174.375 558L174.375 542.25L173.625 542.25L173.625 558z" stroke="none" fill="#000000" fill-rule="nonzero" fill-opacity="0.1490196" /></g><g clip-path="url(#3)"><path id="39" transform="matrix(1 0 0 -1 0 612)" d="M173.625 542.25L618.375 542.25L618.375 498.75L173.625 498.75L173.625 542.25z" stroke="none" fill="#E0F7FA" fill-rule="nonzero" /><path id="40" transform="matrix(1 0 0 -1 0 612)" d="M173.625 499.5L618.375 499.5L618.375 468.75L173.625 468.75L173.625 499.5z" stroke="none" fill="#FFFFFF" fill-rule="nonzero" /><path id="41" transform="matrix(1 0 0 -1 0 612)" d="M173.625 469.5L618.375 469.5L618.375 426L173.625 426L173.625 469.5z" stroke="none" fill="#E0F7FA" fill-rule="nonzero" /><path id="42" transform="matrix(1 0 0 -1 0 612)" d="M173.625 426.75L618.375 426.75L618.375 396L173.625 396L173.625 426.75z" stroke="none" fill="#FFFFFF" fill-rule="nonzero" /><path id="43" transform="matrix(1 0 0 -1 0 612)" d="M173.625 396.75L618.375 396.75L618.375 364.5L173.625 364.5L173.625 396.75z" stroke="none" fill="#E0F7FA" fill-rule="nonzero" /><path id="44" transform="matrix(1 0 0 -1 0 612)" d="M173.625 365.25L618.375 365.25L618.375 334.5L173.625 334.5L173.625 365.25z" stroke="none" fill="#FFFFFF" fill-rule="nonzero" /><path id="45" transform="matrix(1 0 0 -1 0 612)" d="M173.625 335.25L618.375 335.25L618.375 304.5L173.625 304.5L173.625 335.25z" stroke="none" fill="#E0F7FA" fill-rule="nonzero" /><path id="46" transform="matrix(1 0 0 -1 0 612)" d="M173.625 305.25L618.375 305.25L618.375 261.75L173.625 261.75L173.625 305.25z" stroke="none" fill="#FFFFFF" fill-rule="nonzero" /><path id="47" transform="matrix(1 0 0 -1 0 612)" d="M173.625 262.5L618.375 262.5L618.375 231.75L173.625 231.75L173.625 262.5z" stroke="none" fill="#E0F7FA" fill-rule="nonzero" /><path id="48" transform="matrix(1 0 0 -1 0 612)" d="M173.625 232.5L618.375 232.5L618.375 201.75L173.625 201.75L173.625 232.5z" stroke="none" fill="#FFFFFF" fill-rule="nonzero" /><path id="49" transform="matrix(1 0 0 -1 0 612)" d="M173.625 202.5L618.375 202.5L618.375 159L173.625 159L173.625 202.5z" stroke="none" fill="#E0F7FA" fill-rule="nonzero" /><path id="50" transform="matrix(1 0 0 -1 0 612)" d="M173.625 159.75L618.375 159.75L618.375 116.25L173.625 116.25L173.625 159.75z" stroke="none" fill="#FFFFFF" fill-rule="nonzero" /><path id="51" transform="matrix(1 0 0 -1 0 612)" d="M173.625 117L618.375 117L618.375 73.5L173.625 73.5L173.625 117z" stroke="none" fill="#E0F7FA" fill-rule="nonzero" /><path id="52" transform="matrix(1 0 0 -1 0 612)" d="M173.625 74.25L618.375 74.25L618.375 73.5L173.625 73.5zM173.625 117L618.375 117L618.375 116.25L173.625 116.25zM173.625 159.75L618.375 159.75L618.375 159L173.625 159zM173.625 202.5L618.375 202.5L618.375 201.75L173.625 201.75zM173.625 232.5L618.375 232.5L618.375 231.75L173.625 231.75zM173.625 262.5L618.375 262.5L618.375 261.75L173.625 261.75zM173.625 305.25L618.375 305.25L618.375 304.5L173.625 304.5zM173.625 335.25L618.375 335.25L618.375 334.5L173.625 334.5zM173.625 365.25L618.375 365.25L618.375 364.5L173.625 364.5zM173.625 396.75L618.375 396.75L618.375 396L173.625 396zM173.625 426.75L618.375 426.75L618.375 426L173.625 426zM173.625 469.5L618.375 469.5L618.375 468.75L173.625 468.75zM173.625 499.5L618.375 499.5L618.375 498.75L173.625 498.75zM173.625 542.25L618.375 542.25L618.375 541.5L173.625 541.5zM618.375 116.25L618.375 74.25L617.625 74.25L617.625 116.25zM618.375 159L618.375 117L617.625 117L617.625 159zM618.375 201.75L618.375 159.75L617.625 159.75L617.625 201.75zM618.375 231.75L618.375 202.5L617.625 202.5L617.625 231.75zM618.375 261.75L618.375 232.5L617.625 232.5L617.625 261.75zM618.375 304.5L618.375 262.5L617.625 262.5L617.625 304.5zM618.375 334.5L618.375 305.25L617.625 305.25L617.625 334.5zM618.375 364.5L618.375 335.25L617.625 335.25L617.625 364.5zM618.375 396L618.375 365.25L617.625 365.25L617.625 396zM618.375 426L618.375 396.75L617.625 396.75L617.625 426zM618.375 468.75L618.375 426.75L617.625 426.75L617.625 468.75zM618.375 498.75L618.375 469.5L617.625 469.5L617.625 498.75zM618.375 541.5L618.375 499.5L617.625 499.5L617.625 541.5zM541.125 116.25L541.125 74.25L540.375 74.25L540.375 116.25zM541.125 159L541.125 117L540.375 117L540.375 159zM541.125 201.75L541.125 159.75L540.375 159.75L540.375 201.75zM541.125 231.75L541.125 202.5L540.375 202.5L540.375 231.75zM541.125 261.75L541.125 232.5L540.375 232.5L540.375 261.75zM541.125 304.5L541.125 262.5L540.375 262.5L540.375 304.5zM541.125 334.5L541.125 305.25L540.375 305.25L540.375 334.5zM541.125 364.5L541.125 335.25L540.375 335.25L540.375 364.5zM541.125 396L541.125 365.25L540.375 365.25L540.375 396zM541.125 426L541.125 396.75L540.375 396.75L540.375 426zM541.125 468.75L541.125 426.75L540.375 426.75L540.375 468.75zM541.125 498.75L541.125 469.5L540.375 469.5L540.375 498.75zM541.125 541.5L541.125 499.5L540.375 499.5L540.375 541.5zM512.625 116.25L512.625 74.25L511.875 74.25L511.875 116.25zM512.625 159L512.625 117L511.875 117L511.875 159zM512.625 201.75L512.625 159.75L511.875 159.75L511.875 201.75zM512.625 231.75L512.625 202.5L511.875 202.5L511.875 231.75zM512.625 261.75L512.625 232.5L511.875 232.5L511.875 261.75zM512.625 304.5L512.625 262.5L511.875 262.5L511.875 304.5zM512.625 334.5L512.625 305.25L511.875 305.25L511.875 334.5zM512.625 364.5L512.625 335.25L511.875 335.25L511.875 364.5zM512.625 396L512.625 365.25L511.875 365.25L511.875 396zM512.625 426L512.625 396.75L511.875 396.75L511.875 426zM512.625 468.75L512.625 426.75L511.875 426.75L511.875 468.75zM512.625 498.75L512.625 469.5L511.875 469.5L511.875 498.75zM512.625 541.5L512.625 499.5L511.875 499.5L511.875 541.5zM284.625 116.25L284.625 74.25L283.875 74.25L283.875 116.25zM284.625 159L284.625 117L283.875 117L283.875 159zM284.625 201.75L284.625 159.75L283.875 159.75L283.875 201.75zM284.625 231.75L284.625 202.5L283.875 202.5L283.875 231.75zM284.625 261.75L284.625 232.5L283.875 232.5L283.875 261.75zM284.625 304.5L284.625 262.5L283.875 262.5L283.875 304.5zM284.625 334.5L284.625 305.25L283.875 305.25L283.875 334.5zM284.625 364.5L284.625 335.25L283.875 335.25L283.875 364.5zM284.625 396L284.625 365.25L283.875 365.25L283.875 396zM284.625 426L284.625 396.75L283.875 396.75L283.875 426zM284.625 468.75L284.625 426.75L283.875 426.75L283.875 468.75zM284.625 498.75L284.625 469.5L283.875 469.5L283.875 498.75zM284.625 541.5L284.625 499.5L283.875 499.5L283.875 541.5zM208.125 116.25L208.125 74.25L207.375 74.25L207.375 116.25zM208.125 159L208.125 117L207.375 117L207.375 159zM208.125 201.75L208.125 159.75L207.375 159.75L207.375 201.75zM208.125 231.75L208.125 202.5L207.375 202.5L207.375 231.75zM208.125 261.75L208.125 232.5L207.375 232.5L207.375 261.75zM208.125 304.5L208.125 262.5L207.375 262.5L207.375 304.5zM208.125 334.5L208.125 305.25L207.375 305.25L207.375 334.5zM208.125 364.5L208.125 335.25L207.375 335.25L207.375 364.5zM208.125 396L208.125 365.25L207.375 365.25L207.375 396zM208.125 426L208.125 396.75L207.375 396.75L207.375 426zM208.125 468.75L208.125 426.75L207.375 426.75L207.375 468.75zM208.125 498.75L208.125 469.5L207.375 469.5L207.375 498.75zM208.125 541.5L208.125 499.5L207.375 499.5L207.375 541.5zM174.375 116.25L174.375 74.25L173.625 74.25L173.625 116.25zM174.375 159L174.375 117L173.625 117L173.625 159zM174.375 201.75L174.375 159.75L173.625 159.75L173.625 201.75zM174.375 231.75L174.375 202.5L173.625 202.5L173.625 231.75zM174.375 261.75L174.375 232.5L173.625 232.5L173.625 261.75zM174.375 304.5L174.375 262.5L173.625 262.5L173.625 304.5zM174.375 334.5L174.375 305.25L173.625 305.25L173.625 334.5zM174.375 364.5L174.375 335.25L173.625 335.25L173.625 364.5zM174.375 396L174.375 365.25L173.625 365.25L173.625 396zM174.375 426L174.375 396.75L173.625 396.75L173.625 426zM174.375 468.75L174.375 426.75L173.625 426.75L173.625 468.75zM174.375 498.75L174.375 469.5L173.625 469.5L173.625 498.75zM174.375 541.5L174.375 499.5L173.625 499.5L173.625 541.5z" stroke="none" fill="#000000" fill-rule="nonzero" fill-opacity="0.1490196" /><path id="105" transform="matrix(1 0 0 -1 0 612)" d="M286.875 502.4658L480.9769 502.4658" stroke="#000000" stroke-width="0.7017334" fill="none" /><path id="189" transform="matrix(1 0 0 -1 0 612)" d="M286.875 485.5547L509.1449 485.5547" stroke="#000000" stroke-width="0.7017334" fill="none" /><path id="212" transform="matrix(1 0 0 -1 0 612)" d="M286.875 472.4658L389.9078 472.4658" stroke="#000000" stroke-width="0.7017334" fill="none" /><path id="291" transform="matrix(1 0 0 -1 0 612)" d="M286.875 455.8936L469.3066 455.8936" stroke="#000000" stroke-width="0.7017334" fill="none" /><path id="333" transform="matrix(1 0 0 -1 0 612)" d="M286.875 442.8047L486.642 442.8047" stroke="#000000" stroke-width="0.7017334" fill="none" /><path id="360" transform="matrix(1 0 0 -1 0 612)" d="M286.875 429.7158L420.8243 429.7158" stroke="#000000" stroke-width="0.7017334" fill="none" /><path id="443" transform="matrix(1 0 0 -1 0 612)" d="M286.875 399.7158L466.0917 399.7158" stroke="#000000" stroke-width="0.7017334" fill="none" /><path id="529" transform="matrix(1 0 0 -1 0 612)" d="M286.875 381.3047L496.9196 381.3047" stroke="#000000" stroke-width="0.7017334" fill="none" /><path id="569" transform="matrix(1 0 0 -1 0 612)" d="M286.875 368.2158L480.0818 368.2158" stroke="#000000" stroke-width="0.7017334" fill="none" /><path id="644" transform="matrix(1 0 0 -1 0 612)" d="M286.875 338.2158L478.0031 338.2158" stroke="#000000" stroke-width="0.7017334" fill="none" /><path id="718" transform="matrix(1 0 0 -1 0 612)" d="M286.875 321.3047L489.4012 321.3047" stroke="#000000" stroke-width="0.7017334" fill="none" /><path id="733" transform="matrix(1 0 0 -1 0 612)" d="M286.875 308.2158L361.8759 308.2158" stroke="#000000" stroke-width="0.7017334" fill="none" /><path id="821" transform="matrix(1 0 0 -1 0 612)" d="M286.875 265.4658L477.7099 265.4658" stroke="#000000" stroke-width="0.7017334" fill="none" /><path id="902" transform="matrix(1 0 0 -1 0 612)" d="M286.875 235.4658L446.767 235.4658" stroke="#000000" stroke-width="0.7017334" fill="none" /><path id="994" transform="matrix(1 0 0 -1 0 612)" d="M286.875 218.5547L475.401 218.5547" stroke="#000000" stroke-width="0.7017334" fill="none" /><path id="1011" transform="matrix(1 0 0 -1 0 612)" d="M286.875 205.4658L377.295 205.4658" stroke="#000000" stroke-width="0.7017334" fill="none" /><path id="1086" transform="matrix(1 0 0 -1 0 612)" d="M286.875 188.8936L498.0819 188.8936" stroke="#000000" stroke-width="0.7017334" fill="none" /><path id="1135" transform="matrix(1 0 0 -1 0 612)" d="M286.875 175.8047L505.951 175.8047" stroke="#000000" stroke-width="0.7017334" fill="none" /><path id="1145" transform="matrix(1 0 0 -1 0 612)" d="M286.875 162.7158L324.5771 162.7158" stroke="#000000" stroke-width="0.7017334" fill="none" /><path id="1225" transform="matrix(1 0 0 -1 0 612)" d="M286.875 146.1436L502.0452 146.1436" stroke="#000000" stroke-width="0.7017334" fill="none" /><path id="1263" transform="matrix(1 0 0 -1 0 612)" d="M286.875 133.0547L464.6522 133.0547" stroke="#000000" stroke-width="0.7017334" fill="none" /><path id="1273" transform="matrix(1 0 0 -1 0 612)" d="M286.875 119.9658L333.3521 119.9658" stroke="#000000" stroke-width="0.7017334" fill="none" /><path id="1357" transform="matrix(1 0 0 -1 0 612)" d="M286.875 103.3936L483.5792 103.3936" stroke="#000000" stroke-width="0.7017334" fill="none" /><path id="1401" transform="matrix(1 0 0 -1 0 612)" d="M286.875 90.30469L497.621 90.30469" stroke="#000000" stroke-width="0.7017334" fill="none" /><path id="1438" transform="matrix(1 0 0 -1 0 612)" d="M286.875 77.21582L462.7513 77.21582" stroke="#000000" stroke-width="0.7017334" fill="none" /></g></g></g></svg>