<svg xmlns="http://www.w3.org/2000/svg" xmlns:xlink="http://www.w3.org/1999/xlink" id="body_14" preserveAspectRatio="xMinYMin meet" viewBox="0 0 1056 816"><defs><clipPath id="1"><path id="" clip-rule="evenodd" transform="matrix(1 0 0 1 0 0)" d="M0 612L0 0L0 0L792 0L792 0L792 612L792 612L0 612z" /></clipPath><clipPath id="2"><path id="" clip-rule="evenodd" transform="matrix(1 0 0 1 0 0)" d="M172.875 52.5L619.125 52.5L619.125 52.5L619.125 69.75L619.125 69.75L172.875 69.75L172.875 69.75L172.875 52.5z" /></clipPath><clipPath id="3"><path id="" clip-rule="evenodd" transform="matrix(1 0 0 1 0 0)" d="M172.875 69L619.125 69L619.125 69L619.125 554.25L619.125 554.25L172.875 554.25L172.875 554.25L172.875 69z" /></clipPath></defs><g transform="matrix(1.333333 0 0 1.333333 0 0)"><g clip-path="url(#1)"><g clip-path="url(#2)"><path id="10" transform="matrix(1 0 0 -1 0 612)" d="M173.625 558.75L618.375 558.75L618.375 541.5L173.625 541.5L173.625 558.75z" stroke="none" fill="#4DD0E1" fill-rule="nonzero" /><path id="11" transform="matrix(1 0 0 -1 0 612)" d="M173.625 542.25L618.375 542.25L618.375 541.5L173.625 541.5zM173.625 558.75L618.375 558.75L618.375 558L173.625 558zM618.375 558L618.375 542.25L617.625 542.25L617.625 558zM541.125 558L541.125 542.25L540.375 542.25L540.375 558zM512.625 558L512.625 542.25L511.875 542.25L511.875 558zM284.625 558L284.625 542.25L283.875 542.25L283.875 558zM208.125 558L208.125 542.25L207.375 542.25L207.375 558zM174.375 558L174.375 542.25L173.625 542.25L173.625 558z" stroke="none" fill="#000000" fill-rule="nonzero" fill-opacity="0.1490196" /></g><g clip-path="url(#3)"><path id="39" transform="matrix(1 0 0 -1 0 612)" d="M173.625 542.25L618.375 542.25L618.375 511.5L173.625 511.5L173.625 542.25z" stroke="none" fill="#FFFFFF" fill-rule="nonzero" /><path id="40" transform="matrix(1 0 0 -1 0 612)" d="M173.625 512.25L618.375 512.25L618.375 468.75L173.625 468.75L173.625 512.25z" stroke="none" fill="#E0F7FA" fill-rule="nonzero" /><path id="41" transform="matrix(1 0 0 -1 0 612)" d="M173.625 469.5L618.375 469.5L618.375 412.5L173.625 412.5L173.625 469.5z" stroke="none" fill="#FFFFFF" fill-rule="nonzero" /><path id="42" transform="matrix(1 0 0 -1 0 612)" d="M173.625 413.25L618.375 413.25L618.375 382.5L173.625 382.5L173.625 413.25z" stroke="none" fill="#E0F7FA" fill-rule="nonzero" /><path id="43" transform="matrix(1 0 0 -1 0 612)" d="M173.625 383.25L618.375 383.25L618.375 337.5L173.625 337.5L173.625 383.25z" stroke="none" fill="#FFFFFF" fill-rule="nonzero" /><path id="44" transform="matrix(1 0 0 -1 0 612)" d="M173.625 338.25L618.375 338.25L618.375 295.5L173.625 295.5L173.625 338.25z" stroke="none" fill="#E0F7FA" fill-rule="nonzero" /><path id="45" transform="matrix(1 0 0 -1 0 612)" d="M173.625 296.25L618.375 296.25L618.375 252.75L173.625 252.75L173.625 296.25z" stroke="none" fill="#FFFFFF" fill-rule="nonzero" /><path id="46" transform="matrix(1 0 0 -1 0 612)" d="M173.625 253.5L618.375 253.5L618.375 210L173.625 210L173.625 253.5z" stroke="none" fill="#E0F7FA" fill-rule="nonzero" /><path id="47" transform="matrix(1 0 0 -1 0 612)" d="M173.625 210.75L618.375 210.75L618.375 180L173.625 180L173.625 210.75z" stroke="none" fill="#FFFFFF" fill-rule="nonzero" /><path id="48" transform="matrix(1 0 0 -1 0 612)" d="M173.625 180.75L618.375 180.75L618.375 163.5L173.625 163.5L173.625 180.75z" stroke="none" fill="#E0F7FA" fill-rule="nonzero" /><path id="49" transform="matrix(1 0 0 -1 0 612)" d="M173.625 164.25L618.375 164.25L618.375 133.5L173.625 133.5L173.625 164.25z" stroke="none" fill="#FFFFFF" fill-rule="nonzero" /><path id="50" transform="matrix(1 0 0 -1 0 612)" d="M173.625 134.25L618.375 134.25L618.375 103.5L173.625 103.5L173.625 134.25z" stroke="none" fill="#E0F7FA" fill-rule="nonzero" /><path id="51" transform="matrix(1 0 0 -1 0 612)" d="M173.625 104.25L618.375 104.25L618.375 58.5L173.625 58.5L173.625 104.25z" stroke="none" fill="#FFFFFF" fill-rule="nonzero" /><path id="52" transform="matrix(1 0 0 -1 0 612)" d="M173.625 59.25L618.375 59.25L618.375 58.5L173.625 58.5zM173.625 104.25L618.375 104.25L618.375 103.5L173.625 103.5zM173.625 134.25L618.375 134.25L618.375 133.5L173.625 133.5zM173.625 164.25L618.375 164.25L618.375 163.5L173.625 163.5zM173.625 180.75L618.375 180.75L618.375 180L173.625 180zM173.625 210.75L618.375 210.75L618.375 210L173.625 210zM173.625 253.5L618.375 253.5L618.375 252.75L173.625 252.75zM173.625 296.25L618.375 296.25L618.375 295.5L173.625 295.5zM173.625 338.25L618.375 338.25L618.375 337.5L173.625 337.5zM173.625 383.25L618.375 383.25L618.375 382.5L173.625 382.5zM173.625 413.25L618.375 413.25L618.375 412.5L173.625 412.5zM173.625 469.5L618.375 469.5L618.375 468.75L173.625 468.75zM173.625 512.25L618.375 512.25L618.375 511.5L173.625 511.5zM173.625 542.25L618.375 542.25L618.375 541.5L173.625 541.5zM618.375 103.5L618.375 59.25L617.625 59.25L617.625 103.5zM618.375 133.5L618.375 104.25L617.625 104.25L617.625 133.5zM618.375 163.5L618.375 134.25L617.625 134.25L617.625 163.5zM618.375 180L618.375 164.25L617.625 164.25L617.625 180zM618.375 210L618.375 180.75L617.625 180.75L617.625 210zM618.375 252.75L618.375 210.75L617.625 210.75L617.625 252.75zM618.375 295.5L618.375 253.5L617.625 253.5L617.625 295.5zM618.375 337.5L618.375 296.25L617.625 296.25L617.625 337.5zM618.375 382.5L618.375 338.25L617.625 338.25L617.625 382.5zM618.375 412.5L618.375 383.25L617.625 383.25L617.625 412.5zM618.375 468.75L618.375 413.25L617.625 413.25L617.625 468.75zM618.375 511.5L618.375 469.5L617.625 469.5L617.625 511.5zM618.375 541.5L618.375 512.25L617.625 512.25L617.625 541.5zM541.125 103.5L541.125 59.25L540.375 59.25L540.375 103.5zM541.125 133.5L541.125 104.25L540.375 104.25L540.375 133.5zM541.125 163.5L541.125 134.25L540.375 134.25L540.375 163.5zM541.125 180L541.125 164.25L540.375 164.25L540.375 180zM541.125 210L541.125 180.75L540.375 180.75L540.375 210zM541.125 252.75L541.125 210.75L540.375 210.75L540.375 252.75zM541.125 295.5L541.125 253.5L540.375 253.5L540.375 295.5zM541.125 337.5L541.125 296.25L540.375 296.25L540.375 337.5zM541.125 382.5L541.125 338.25L540.375 338.25L540.375 382.5zM541.125 412.5L541.125 383.25L540.375 383.25L540.375 412.5zM541.125 468.75L541.125 413.25L540.375 413.25L540.375 468.75zM541.125 511.5L541.125 469.5L540.375 469.5L540.375 511.5zM541.125 541.5L541.125 512.25L540.375 512.25L540.375 541.5zM512.625 103.5L512.625 59.25L511.875 59.25L511.875 103.5zM512.625 133.5L512.625 104.25L511.875 104.25L511.875 133.5zM512.625 163.5L512.625 134.25L511.875 134.25L511.875 163.5zM512.625 180L512.625 164.25L511.875 164.25L511.875 180zM512.625 210L512.625 180.75L511.875 180.75L511.875 210zM512.625 252.75L512.625 210.75L511.875 210.75L511.875 252.75zM512.625 295.5L512.625 253.5L511.875 253.5L511.875 295.5zM512.625 337.5L512.625 296.25L511.875 296.25L511.875 337.5zM512.625 382.5L512.625 338.25L511.875 338.25L511.875 382.5zM512.625 412.5L512.625 383.25L511.875 383.25L511.875 412.5zM512.625 468.75L512.625 413.25L511.875 413.25L511.875 468.75zM512.625 511.5L512.625 469.5L511.875 469.5L511.875 511.5zM512.625 541.5L512.625 512.25L511.875 512.25L511.875 541.5zM284.625 103.5L284.625 59.25L283.875 59.25L283.875 103.5zM284.625 133.5L284.625 104.25L283.875 104.25L283.875 133.5zM284.625 163.5L284.625 134.25L283.875 134.25L283.875 163.5zM284.625 180L284.625 164.25L283.875 164.25L283.875 180zM284.625 210L284.625 180.75L283.875 180.75L283.875 210zM284.625 252.75L284.625 210.75L283.875 210.75L283.875 252.75zM284.625 295.5L284.625 253.5L283.875 253.5L283.875 295.5zM284.625 337.5L284.625 296.25L283.875 296.25L283.875 337.5zM284.625 382.5L284.625 338.25L283.875 338.25L283.875 382.5zM284.625 412.5L284.625 383.25L283.875 383.25L283.875 412.5zM284.625 468.75L284.625 413.25L283.875 413.25L283.875 468.75zM284.625 511.5L284.625 469.5L283.875 469.5L283.875 511.5zM284.625 541.5L284.625 512.25L283.875 512.25L283.875 541.5zM208.125 103.5L208.125 59.25L207.375 59.25L207.375 103.5zM208.125 133.5L208.125 104.25L207.375 104.25L207.375 133.5zM208.125 163.5L208.125 134.25L207.375 134.25L207.375 163.5zM208.125 180L208.125 164.25L207.375 164.25L207.375 180zM208.125 210L208.125 180.75L207.375 180.75L207.375 210zM208.125 252.75L208.125 210.75L207.375 210.75L207.375 252.75zM208.125 295.5L208.125 253.5L207.375 253.5L207.375 295.5zM208.125 337.5L208.125 296.25L207.375 296.25L207.375 337.5zM208.125 382.5L208.125 338.25L207.375 338.25L207.375 382.5zM208.125 412.5L208.125 383.25L207.375 383.25L207.375 412.5zM208.125 468.75L208.125 413.25L207.375 413.25L207.375 468.75zM208.125 511.5L208.125 469.5L207.375 469.5L207.375 511.5zM208.125 541.5L208.125 512.25L207.375 512.25L207.375 541.5zM174.375 103.5L174.375 59.25L173.625 59.25L173.625 103.5zM174.375 133.5L174.375 104.25L173.625 104.25L173.625 133.5zM174.375 163.5L174.375 134.25L173.625 134.25L173.625 163.5zM174.375 180L174.375 164.25L173.625 164.25L173.625 180zM174.375 210L174.375 180.75L173.625 180.75L173.625 210zM174.375 252.75L174.375 210.75L173.625 210.75L173.625 252.75zM174.375 295.5L174.375 253.5L173.625 253.5L173.625 295.5zM174.375 337.5L174.375 296.25L173.625 296.25L173.625 337.5zM174.375 382.5L174.375 338.25L173.625 338.25L173.625 382.5zM174.375 412.5L174.375 383.25L173.625 383.25L173.625 412.5zM174.375 468.75L174.375 413.25L173.625 413.25L173.625 468.75zM174.375 511.5L174.375 469.5L173.625 469.5L173.625 511.5zM174.375 541.5L174.375 512.25L173.625 512.25L173.625 541.5z" stroke="none" fill="#000000" fill-rule="nonzero" fill-opacity="0.1490196" /><path id="107" transform="matrix(1 0 0 -1 0 612)" d="M286.875 528.3047L500.1082 528.3047" stroke="#000000" stroke-width="0.7017334" fill="none" /><path id="123" transform="matrix(1 0 0 -1 0 612)" d="M286.875 515.2158L364.5305 515.2158" stroke="#000000" stroke-width="0.7017334" fill="none" /><path id="202" transform="matrix(1 0 0 -1 0 612)" d="M286.875 485.5547L484.3069 485.5547" stroke="#000000" stroke-width="0.7017334" fill="none" /><path id="215" transform="matrix(1 0 0 -1 0 612)" d="M286.875 472.4658L340.6348 472.4658" stroke="#000000" stroke-width="0.7017334" fill="none" /><path id="298" transform="matrix(1 0 0 -1 0 612)" d="M286.875 429.3047L490.0399 429.3047" stroke="#000000" stroke-width="0.7017334" fill="none" /><path id="340" transform="matrix(1 0 0 -1 0 612)" d="M286.875 416.2158L502.5376 416.2158" stroke="#000000" stroke-width="0.7017334" fill="none" /><path id="448" transform="matrix(1 0 0 -1 0 612)" d="M286.875 399.3047L500.9825 399.3047" stroke="#000000" stroke-width="0.7017334" fill="none" /><path id="461" transform="matrix(1 0 0 -1 0 612)" d="M286.875 386.2158L340.6454 386.2158" stroke="#000000" stroke-width="0.7017334" fill="none" /><path id="545" transform="matrix(1 0 0 -1 0 612)" d="M286.875 367.3936L500.7938 367.3936" stroke="#000000" stroke-width="0.7017334" fill="none" /><path id="588" transform="matrix(1 0 0 -1 0 612)" d="M286.875 354.3047L509.8046 354.3047" stroke="#000000" stroke-width="0.7017334" fill="none" /><path id="596" transform="matrix(1 0 0 -1 0 612)" d="M286.875 341.2158L323.9488 341.2158" stroke="#000000" stroke-width="0.7017334" fill="none" /><path id="688" transform="matrix(1 0 0 -1 0 612)" d="M286.875 312.3047L497.2442 312.3047" stroke="#000000" stroke-width="0.7017334" fill="none" /><path id="708" transform="matrix(1 0 0 -1 0 612)" d="M286.875 299.2158L392.7767 299.2158" stroke="#000000" stroke-width="0.7017334" fill="none" /><path id="783" transform="matrix(1 0 0 -1 0 612)" d="M286.875 256.4658L443.8717 256.4658" stroke="#000000" stroke-width="0.7017334" fill="none" /><path id="871" transform="matrix(1 0 0 -1 0 612)" d="M286.875 226.8047L495.1657 226.8047" stroke="#000000" stroke-width="0.7017334" fill="none" /><path id="899" transform="matrix(1 0 0 -1 0 612)" d="M286.875 213.7158L409.3844 213.7158" stroke="#000000" stroke-width="0.7017334" fill="none" /><path id="980" transform="matrix(1 0 0 -1 0 612)" d="M286.875 196.8047L504.637 196.8047" stroke="#000000" stroke-width="0.7017334" fill="none" /><path id="995" transform="matrix(1 0 0 -1 0 612)" d="M286.875 183.7158L353.2109 183.7158" stroke="#000000" stroke-width="0.7017334" fill="none" /><path id="1050" transform="matrix(1 0 0 -1 0 612)" d="M286.875 167.2158L491.1393 167.2158" stroke="#000000" stroke-width="0.7017334" fill="none" /><path id="1114" transform="matrix(1 0 0 -1 0 612)" d="M286.875 150.3047L483.9142 150.3047" stroke="#000000" stroke-width="0.7017334" fill="none" /><path id="1159" transform="matrix(1 0 0 -1 0 612)" d="M286.875 137.2158L506.621 137.2158" stroke="#000000" stroke-width="0.7017334" fill="none" /><path id="1240" transform="matrix(1 0 0 -1 0 612)" d="M286.875 120.3047L501.2389 120.3047" stroke="#000000" stroke-width="0.7017334" fill="none" /><path id="1261" transform="matrix(1 0 0 -1 0 612)" d="M286.875 107.2158L395.2273 107.2158" stroke="#000000" stroke-width="0.7017334" fill="none" /><path id="1328" transform="matrix(1 0 0 -1 0 612)" d="M286.875 75.30469L502.4955 75.30469" stroke="#000000" stroke-width="0.7017334" fill="none" /><path id="1334" transform="matrix(1 0 0 -1 0 612)" d="M286.875 62.21582L309.1108 62.21582" stroke="#000000" stroke-width="0.7017334" fill="none" /></g></g></g></svg>