<svg xmlns="http://www.w3.org/2000/svg" xmlns:xlink="http://www.w3.org/1999/xlink" id="body_26" preserveAspectRatio="xMinYMin meet" viewBox="0 0 1056 816"><defs><clipPath id="1"><path id="" clip-rule="evenodd" transform="matrix(1 0 0 1 0 0)" d="M0 612L0 0L0 0L792 0L792 0L792 612L792 612L0 612z" /></clipPath><clipPath id="2"><path id="" clip-rule="evenodd" transform="matrix(1 0 0 1 0 0)" d="M172.875 52.5L619.125 52.5L619.125 52.5L619.125 69.75L619.125 69.75L172.875 69.75L172.875 69.75L172.875 52.5z" /></clipPath><clipPath id="3"><path id="" clip-rule="evenodd" transform="matrix(1 0 0 1 0 0)" d="M172.875 69L619.125 69L619.125 69L619.125 545.25L619.125 545.25L172.875 545.25L172.875 545.25L172.875 69z" /></clipPath></defs><g transform="matrix(1.333333 0 0 1.333333 0 0)"><g clip-path="url(#1)"><g clip-path="url(#2)"><path id="10" transform="matrix(1 0 0 -1 0 612)" d="M173.625 558.75L618.375 558.75L618.375 541.5L173.625 541.5L173.625 558.75z" stroke="none" fill="#4DD0E1" fill-rule="nonzero" /><path id="11" transform="matrix(1 0 0 -1 0 612)" d="M173.625 542.25L618.375 542.25L618.375 541.5L173.625 541.5zM173.625 558.75L618.375 558.75L618.375 558L173.625 558zM618.375 558L618.375 542.25L617.625 542.25L617.625 558zM541.125 558L541.125 542.25L540.375 542.25L540.375 558zM512.625 558L512.625 542.25L511.875 542.25L511.875 558zM284.625 558L284.625 542.25L283.875 542.25L283.875 558zM208.125 558L208.125 542.25L207.375 542.25L207.375 558zM174.375 558L174.375 542.25L173.625 542.25L173.625 558z" stroke="none" fill="#000000" fill-rule="nonzero" fill-opacity="0.1490196" /></g><g clip-path="url(#3)"><path id="39" transform="matrix(1 0 0 -1 0 612)" d="M173.625 542.25L618.375 542.25L618.375 483.75L173.625 483.75L173.625 542.25z" stroke="none" fill="#E0F7FA" fill-rule="nonzero" /><path id="40" transform="matrix(1 0 0 -1 0 612)" d="M173.625 484.5L618.375 484.5L618.375 441L173.625 441L173.625 484.5z" stroke="none" fill="#FFFFFF" fill-rule="nonzero" /><path id="41" transform="matrix(1 0 0 -1 0 612)" d="M173.625 441.75L618.375 441.75L618.375 411L173.625 411L173.625 441.75z" stroke="none" fill="#E0F7FA" fill-rule="nonzero" /><path id="42" transform="matrix(1 0 0 -1 0 612)" d="M173.625 411.75L618.375 411.75L618.375 354.75L173.625 354.75L173.625 411.75z" stroke="none" fill="#FFFFFF" fill-rule="nonzero" /><path id="43" transform="matrix(1 0 0 -1 0 612)" d="M173.625 355.5L618.375 355.5L618.375 324.75L173.625 324.75L173.625 355.5z" stroke="none" fill="#E0F7FA" fill-rule="nonzero" /><path id="44" transform="matrix(1 0 0 -1 0 612)" d="M173.625 325.5L618.375 325.5L618.375 282L173.625 282L173.625 325.5z" stroke="none" fill="#FFFFFF" fill-rule="nonzero" /><path id="45" transform="matrix(1 0 0 -1 0 612)" d="M173.625 282.75L618.375 282.75L618.375 239.25L173.625 239.25L173.625 282.75z" stroke="none" fill="#E0F7FA" fill-rule="nonzero" /><path id="46" transform="matrix(1 0 0 -1 0 612)" d="M173.625 240L618.375 240L618.375 183L173.625 183L173.625 240z" stroke="none" fill="#FFFFFF" fill-rule="nonzero" /><path id="47" transform="matrix(1 0 0 -1 0 612)" d="M173.625 183.75L618.375 183.75L618.375 166.5L173.625 166.5L173.625 183.75z" stroke="none" fill="#E0F7FA" fill-rule="nonzero" /><path id="48" transform="matrix(1 0 0 -1 0 612)" d="M173.625 167.25L618.375 167.25L618.375 110.25L173.625 110.25L173.625 167.25z" stroke="none" fill="#FFFFFF" fill-rule="nonzero" /><path id="49" transform="matrix(1 0 0 -1 0 612)" d="M173.625 111L618.375 111L618.375 67.5L173.625 67.5L173.625 111z" stroke="none" fill="#E0F7FA" fill-rule="nonzero" /><path id="50" transform="matrix(1 0 0 -1 0 612)" d="M173.625 68.25L618.375 68.25L618.375 67.5L173.625 67.5zM173.625 111L618.375 111L618.375 110.25L173.625 110.25zM173.625 167.25L618.375 167.25L618.375 166.5L173.625 166.5zM173.625 183.75L618.375 183.75L618.375 183L173.625 183zM173.625 240L618.375 240L618.375 239.25L173.625 239.25zM173.625 282.75L618.375 282.75L618.375 282L173.625 282zM173.625 325.5L618.375 325.5L618.375 324.75L173.625 324.75zM173.625 355.5L618.375 355.5L618.375 354.75L173.625 354.75zM173.625 411.75L618.375 411.75L618.375 411L173.625 411zM173.625 441.75L618.375 441.75L618.375 441L173.625 441zM173.625 484.5L618.375 484.5L618.375 483.75L173.625 483.75zM173.625 542.25L618.375 542.25L618.375 541.5L173.625 541.5zM618.375 110.25L618.375 68.25L617.625 68.25L617.625 110.25zM618.375 166.5L618.375 111L617.625 111L617.625 166.5zM618.375 183L618.375 167.25L617.625 167.25L617.625 183zM618.375 239.25L618.375 183.75L617.625 183.75L617.625 239.25zM618.375 282L618.375 240L617.625 240L617.625 282zM618.375 324.75L618.375 282.75L617.625 282.75L617.625 324.75zM618.375 354.75L618.375 325.5L617.625 325.5L617.625 354.75zM618.375 411L618.375 355.5L617.625 355.5L617.625 411zM618.375 441L618.375 411.75L617.625 411.75L617.625 441zM618.375 483.75L618.375 441.75L617.625 441.75L617.625 483.75zM618.375 541.5L618.375 484.5L617.625 484.5L617.625 541.5zM541.125 110.25L541.125 68.25L540.375 68.25L540.375 110.25zM541.125 166.5L541.125 111L540.375 111L540.375 166.5zM541.125 183L541.125 167.25L540.375 167.25L540.375 183zM541.125 239.25L541.125 183.75L540.375 183.75L540.375 239.25zM541.125 282L541.125 240L540.375 240L540.375 282zM541.125 324.75L541.125 282.75L540.375 282.75L540.375 324.75zM541.125 354.75L541.125 325.5L540.375 325.5L540.375 354.75zM541.125 411L541.125 355.5L540.375 355.5L540.375 411zM541.125 441L541.125 411.75L540.375 411.75L540.375 441zM541.125 483.75L541.125 441.75L540.375 441.75L540.375 483.75zM541.125 541.5L541.125 484.5L540.375 484.5L540.375 541.5zM512.625 110.25L512.625 68.25L511.875 68.25L511.875 110.25zM512.625 166.5L512.625 111L511.875 111L511.875 166.5zM512.625 183L512.625 167.25L511.875 167.25L511.875 183zM512.625 239.25L512.625 183.75L511.875 183.75L511.875 239.25zM512.625 282L512.625 240L511.875 240L511.875 282zM512.625 324.75L512.625 282.75L511.875 282.75L511.875 324.75zM512.625 354.75L512.625 325.5L511.875 325.5L511.875 354.75zM512.625 411L512.625 355.5L511.875 355.5L511.875 411zM512.625 441L512.625 411.75L511.875 411.75L511.875 441zM512.625 483.75L512.625 441.75L511.875 441.75L511.875 483.75zM512.625 541.5L512.625 484.5L511.875 484.5L511.875 541.5zM284.625 110.25L284.625 68.25L283.875 68.25L283.875 110.25zM284.625 166.5L284.625 111L283.875 111L283.875 166.5zM284.625 183L284.625 167.25L283.875 167.25L283.875 183zM284.625 239.25L284.625 183.75L283.875 183.75L283.875 239.25zM284.625 282L284.625 240L283.875 240L283.875 282zM284.625 324.75L284.625 282.75L283.875 282.75L283.875 324.75zM284.625 354.75L284.625 325.5L283.875 325.5L283.875 354.75zM284.625 411L284.625 355.5L283.875 355.5L283.875 411zM284.625 441L284.625 411.75L283.875 411.75L283.875 441zM284.625 483.75L284.625 441.75L283.875 441.75L283.875 483.75zM284.625 541.5L284.625 484.5L283.875 484.5L283.875 541.5zM208.125 110.25L208.125 68.25L207.375 68.25L207.375 110.25zM208.125 166.5L208.125 111L207.375 111L207.375 166.5zM208.125 183L208.125 167.25L207.375 167.25L207.375 183zM208.125 239.25L208.125 183.75L207.375 183.75L207.375 239.25zM208.125 282L208.125 240L207.375 240L207.375 282zM208.125 324.75L208.125 282.75L207.375 282.75L207.375 324.75zM208.125 354.75L208.125 325.5L207.375 325.5L207.375 354.75zM208.125 411L208.125 355.5L207.375 355.5L207.375 411zM208.125 441L208.125 411.75L207.375 411.75L207.375 441zM208.125 483.75L208.125 441.75L207.375 441.75L207.375 483.75zM208.125 541.5L208.125 484.5L207.375 484.5L207.375 541.5zM174.375 110.25L174.375 68.25L173.625 68.25L173.625 110.25zM174.375 166.5L174.375 111L173.625 111L173.625 166.5zM174.375 183L174.375 167.25L173.625 167.25L173.625 183zM174.375 239.25L174.375 183.75L173.625 183.75L173.625 239.25zM174.375 282L174.375 240L173.625 240L173.625 282zM174.375 324.75L174.375 282.75L173.625 282.75L173.625 324.75zM174.375 354.75L174.375 325.5L173.625 325.5L173.625 354.75zM174.375 411L174.375 355.5L173.625 355.5L173.625 411zM174.375 441L174.375 411.75L173.625 411.75L173.625 441zM174.375 483.75L174.375 441.75L173.625 441.75L173.625 483.75zM174.375 541.5L174.375 484.5L173.625 484.5L173.625 541.5z" stroke="none" fill="#000000" fill-rule="nonzero" fill-opacity="0.1490196" /><path id="110" transform="matrix(1 0 0 -1 0 612)" d="M286.875 528.3975L496.2338 528.3975" stroke="#000000" stroke-width="0.7017334" fill="none" /><path id="153" transform="matrix(1 0 0 -1 0 612)" d="M286.875 515.3086L493.4168 515.3086" stroke="#000000" stroke-width="0.7017334" fill="none" /><path id="193" transform="matrix(1 0 0 -1 0 612)" d="M286.875 502.2197L497.3751 502.2197" stroke="#000000" stroke-width="0.7017334" fill="none" /><path id="213" transform="matrix(1 0 0 -1 0 612)" d="M286.875 487.4658L385.4259 487.4658" stroke="#000000" stroke-width="0.7017334" fill="none" /><path id="215" transform="matrix(1 0 0 -1 0 612)" d="M385.4259 487.5439L396.1486 487.5439" stroke="#000000" stroke-width="0.7855225" fill="none" /><path id="297" transform="matrix(1 0 0 -1 0 612)" d="M286.875 470.8936L492.7521 470.8936" stroke="#000000" stroke-width="0.7017334" fill="none" /><path id="335" transform="matrix(1 0 0 -1 0 612)" d="M286.875 457.8047L455.4217 457.8047" stroke="#000000" stroke-width="0.7017334" fill="none" /><path id="355" transform="matrix(1 0 0 -1 0 612)" d="M286.875 444.7158L378.6771 444.7158" stroke="#000000" stroke-width="0.7017334" fill="none" /><path id="443" transform="matrix(1 0 0 -1 0 612)" d="M286.875 427.8047L490.9927 427.8047" stroke="#000000" stroke-width="0.7017334" fill="none" /><path id="485" transform="matrix(1 0 0 -1 0 612)" d="M286.875 414.7158L483.0712 414.7158" stroke="#000000" stroke-width="0.7017334" fill="none" /><path id="530" transform="matrix(1 0 0 -1 0 612)" d="M286.875 358.4658L370.5829 358.4658" stroke="#000000" stroke-width="0.7017334" fill="none" /><path id="627" transform="matrix(1 0 0 -1 0 612)" d="M286.875 341.5547L455.228 341.5547" stroke="#000000" stroke-width="0.7017334" fill="none" /><path id="655" transform="matrix(1 0 0 -1 0 612)" d="M286.875 328.4658L422.0967 328.4658" stroke="#000000" stroke-width="0.7017334" fill="none" /><path id="738" transform="matrix(1 0 0 -1 0 612)" d="M286.875 311.8936L483.061 311.8936" stroke="#000000" stroke-width="0.7017334" fill="none" /><path id="778" transform="matrix(1 0 0 -1 0 612)" d="M286.875 298.8047L473.0135 298.8047" stroke="#000000" stroke-width="0.7017334" fill="none" /><path id="804" transform="matrix(1 0 0 -1 0 612)" d="M286.875 285.7158L410.4524 285.7158" stroke="#000000" stroke-width="0.7017334" fill="none" /><path id="880" transform="matrix(1 0 0 -1 0 612)" d="M286.875 256.0547L505.2758 256.0547" stroke="#000000" stroke-width="0.7017334" fill="none" /><path id="916" transform="matrix(1 0 0 -1 0 612)" d="M286.875 242.9658L468.6208 242.9658" stroke="#000000" stroke-width="0.7017334" fill="none" /><path id="1005" transform="matrix(1 0 0 -1 0 612)" d="M286.875 199.8047L495.3646 199.8047" stroke="#000000" stroke-width="0.7017334" fill="none" /><path id="1031" transform="matrix(1 0 0 -1 0 612)" d="M286.875 186.7158L419.0915 186.7158" stroke="#000000" stroke-width="0.7017334" fill="none" /><path id="1114" transform="matrix(1 0 0 -1 0 612)" d="M286.875 170.2158L397.9288 170.2158" stroke="#000000" stroke-width="0.7017334" fill="none" /><path id="1153" transform="matrix(1 0 0 -1 0 612)" d="M286.875 113.9658L408.6985 113.9658" stroke="#000000" stroke-width="0.7017334" fill="none" /><path id="1246" transform="matrix(1 0 0 -1 0 612)" d="M286.875 97.39355L510.082 97.39355" stroke="#000000" stroke-width="0.7017334" fill="none" /><path id="1293" transform="matrix(1 0 0 -1 0 612)" d="M286.875 84.30469L507.9825 84.30469" stroke="#000000" stroke-width="0.7017334" fill="none" /><path id="1306" transform="matrix(1 0 0 -1 0 612)" d="M286.875 71.21582L348.8915 71.21582" stroke="#000000" stroke-width="0.7017334" fill="none" /></g></g></g></svg>