<svg xmlns="http://www.w3.org/2000/svg" xmlns:xlink="http://www.w3.org/1999/xlink" id="body_25" preserveAspectRatio="xMinYMin meet" viewBox="0 0 1056 816"><defs><clipPath id="1"><path id="" clip-rule="evenodd" transform="matrix(1 0 0 1 0 0)" d="M0 612L0 0L0 0L792 0L792 0L792 612L792 612L0 612z" /></clipPath><clipPath id="2"><path id="" clip-rule="evenodd" transform="matrix(1 0 0 1 0 0)" d="M172.875 52.5L619.125 52.5L619.125 52.5L619.125 69.75L619.125 69.75L172.875 69.75L172.875 69.75L172.875 52.5z" /></clipPath><clipPath id="3"><path id="" clip-rule="evenodd" transform="matrix(1 0 0 1 0 0)" d="M172.875 69L619.125 69L619.125 69L619.125 516.75L619.125 516.75L172.875 516.75L172.875 516.75L172.875 69z" /></clipPath></defs><g transform="matrix(1.333333 0 0 1.333333 0 0)"><g clip-path="url(#1)"><g clip-path="url(#2)"><path id="10" transform="matrix(1 0 0 -1 0 612)" d="M173.625 558.75L618.375 558.75L618.375 541.5L173.625 541.5L173.625 558.75z" stroke="none" fill="#4DD0E1" fill-rule="nonzero" /><path id="11" transform="matrix(1 0 0 -1 0 612)" d="M173.625 542.25L618.375 542.25L618.375 541.5L173.625 541.5zM173.625 558.75L618.375 558.75L618.375 558L173.625 558zM618.375 558L618.375 542.25L617.625 542.25L617.625 558zM541.125 558L541.125 542.25L540.375 542.25L540.375 558zM512.625 558L512.625 542.25L511.875 542.25L511.875 558zM284.625 558L284.625 542.25L283.875 542.25L283.875 558zM208.125 558L208.125 542.25L207.375 542.25L207.375 558zM174.375 558L174.375 542.25L173.625 542.25L173.625 558z" stroke="none" fill="#000000" fill-rule="nonzero" fill-opacity="0.1490196" /></g><g clip-path="url(#3)"><path id="39" transform="matrix(1 0 0 -1 0 612)" d="M173.625 542.25L618.375 542.25L618.375 498.75L173.625 498.75L173.625 542.25z" stroke="none" fill="#FFFFFF" fill-rule="nonzero" /><path id="40" transform="matrix(1 0 0 -1 0 612)" d="M173.625 499.5L618.375 499.5L618.375 482.25L173.625 482.25L173.625 499.5z" stroke="none" fill="#E0F7FA" fill-rule="nonzero" /><path id="41" transform="matrix(1 0 0 -1 0 612)" d="M173.625 483L618.375 483L618.375 439.5L173.625 439.5L173.625 483z" stroke="none" fill="#FFFFFF" fill-rule="nonzero" /><path id="42" transform="matrix(1 0 0 -1 0 612)" d="M173.625 440.25L618.375 440.25L618.375 383.25L173.625 383.25L173.625 440.25z" stroke="none" fill="#E0F7FA" fill-rule="nonzero" /><path id="43" transform="matrix(1 0 0 -1 0 612)" d="M173.625 384L618.375 384L618.375 340.5L173.625 340.5L173.625 384z" stroke="none" fill="#FFFFFF" fill-rule="nonzero" /><path id="44" transform="matrix(1 0 0 -1 0 612)" d="M173.625 341.25L618.375 341.25L618.375 297.75L173.625 297.75L173.625 341.25z" stroke="none" fill="#E0F7FA" fill-rule="nonzero" /><path id="45" transform="matrix(1 0 0 -1 0 612)" d="M173.625 298.5L618.375 298.5L618.375 241.5L173.625 241.5L173.625 298.5z" stroke="none" fill="#FFFFFF" fill-rule="nonzero" /><path id="46" transform="matrix(1 0 0 -1 0 612)" d="M173.625 242.25L618.375 242.25L618.375 211.5L173.625 211.5L173.625 242.25z" stroke="none" fill="#E0F7FA" fill-rule="nonzero" /><path id="47" transform="matrix(1 0 0 -1 0 612)" d="M173.625 212.25L618.375 212.25L618.375 168.75L173.625 168.75L173.625 212.25z" stroke="none" fill="#FFFFFF" fill-rule="nonzero" /><path id="48" transform="matrix(1 0 0 -1 0 612)" d="M173.625 169.5L618.375 169.5L618.375 126L173.625 126L173.625 169.5z" stroke="none" fill="#E0F7FA" fill-rule="nonzero" /><path id="49" transform="matrix(1 0 0 -1 0 612)" d="M173.625 126.75L618.375 126.75L618.375 96L173.625 96L173.625 126.75z" stroke="none" fill="#FFFFFF" fill-rule="nonzero" /><path id="50" transform="matrix(1 0 0 -1 0 612)" d="M173.625 96.75L618.375 96.75L618.375 96L173.625 96zM173.625 126.75L618.375 126.75L618.375 126L173.625 126zM173.625 169.5L618.375 169.5L618.375 168.75L173.625 168.75zM173.625 212.25L618.375 212.25L618.375 211.5L173.625 211.5zM173.625 242.25L618.375 242.25L618.375 241.5L173.625 241.5zM173.625 298.5L618.375 298.5L618.375 297.75L173.625 297.75zM173.625 341.25L618.375 341.25L618.375 340.5L173.625 340.5zM173.625 384L618.375 384L618.375 383.25L173.625 383.25zM173.625 440.25L618.375 440.25L618.375 439.5L173.625 439.5zM173.625 483L618.375 483L618.375 482.25L173.625 482.25zM173.625 499.5L618.375 499.5L618.375 498.75L173.625 498.75zM173.625 542.25L618.375 542.25L618.375 541.5L173.625 541.5zM618.375 126L618.375 96.75L617.625 96.75L617.625 126zM618.375 168.75L618.375 126.75L617.625 126.75L617.625 168.75zM618.375 211.5L618.375 169.5L617.625 169.5L617.625 211.5zM618.375 241.5L618.375 212.25L617.625 212.25L617.625 241.5zM618.375 297.75L618.375 242.25L617.625 242.25L617.625 297.75zM618.375 340.5L618.375 298.5L617.625 298.5L617.625 340.5zM618.375 383.25L618.375 341.25L617.625 341.25L617.625 383.25zM618.375 439.5L618.375 384L617.625 384L617.625 439.5zM618.375 482.25L618.375 440.25L617.625 440.25L617.625 482.25zM618.375 498.75L618.375 483L617.625 483L617.625 498.75zM618.375 541.5L618.375 499.5L617.625 499.5L617.625 541.5zM541.125 126L541.125 96.75L540.375 96.75L540.375 126zM541.125 168.75L541.125 126.75L540.375 126.75L540.375 168.75zM541.125 211.5L541.125 169.5L540.375 169.5L540.375 211.5zM541.125 241.5L541.125 212.25L540.375 212.25L540.375 241.5zM541.125 297.75L541.125 242.25L540.375 242.25L540.375 297.75zM541.125 340.5L541.125 298.5L540.375 298.5L540.375 340.5zM541.125 383.25L541.125 341.25L540.375 341.25L540.375 383.25zM541.125 439.5L541.125 384L540.375 384L540.375 439.5zM541.125 482.25L541.125 440.25L540.375 440.25L540.375 482.25zM541.125 498.75L541.125 483L540.375 483L540.375 498.75zM541.125 541.5L541.125 499.5L540.375 499.5L540.375 541.5zM512.625 126L512.625 96.75L511.875 96.75L511.875 126zM512.625 168.75L512.625 126.75L511.875 126.75L511.875 168.75zM512.625 211.5L512.625 169.5L511.875 169.5L511.875 211.5zM512.625 241.5L512.625 212.25L511.875 212.25L511.875 241.5zM512.625 297.75L512.625 242.25L511.875 242.25L511.875 297.75zM512.625 340.5L512.625 298.5L511.875 298.5L511.875 340.5zM512.625 383.25L512.625 341.25L511.875 341.25L511.875 383.25zM512.625 439.5L512.625 384L511.875 384L511.875 439.5zM512.625 482.25L512.625 440.25L511.875 440.25L511.875 482.25zM512.625 498.75L512.625 483L511.875 483L511.875 498.75zM512.625 541.5L512.625 499.5L511.875 499.5L511.875 541.5zM284.625 126L284.625 96.75L283.875 96.75L283.875 126zM284.625 168.75L284.625 126.75L283.875 126.75L283.875 168.75zM284.625 211.5L284.625 169.5L283.875 169.5L283.875 211.5zM284.625 241.5L284.625 212.25L283.875 212.25L283.875 241.5zM284.625 297.75L284.625 242.25L283.875 242.25L283.875 297.75zM284.625 340.5L284.625 298.5L283.875 298.5L283.875 340.5zM284.625 383.25L284.625 341.25L283.875 341.25L283.875 383.25zM284.625 439.5L284.625 384L283.875 384L283.875 439.5zM284.625 482.25L284.625 440.25L283.875 440.25L283.875 482.25zM284.625 498.75L284.625 483L283.875 483L283.875 498.75zM284.625 541.5L284.625 499.5L283.875 499.5L283.875 541.5zM208.125 126L208.125 96.75L207.375 96.75L207.375 126zM208.125 168.75L208.125 126.75L207.375 126.75L207.375 168.75zM208.125 211.5L208.125 169.5L207.375 169.5L207.375 211.5zM208.125 241.5L208.125 212.25L207.375 212.25L207.375 241.5zM208.125 297.75L208.125 242.25L207.375 242.25L207.375 297.75zM208.125 340.5L208.125 298.5L207.375 298.5L207.375 340.5zM208.125 383.25L208.125 341.25L207.375 341.25L207.375 383.25zM208.125 439.5L208.125 384L207.375 384L207.375 439.5zM208.125 482.25L208.125 440.25L207.375 440.25L207.375 482.25zM208.125 498.75L208.125 483L207.375 483L207.375 498.75zM208.125 541.5L208.125 499.5L207.375 499.5L207.375 541.5zM174.375 126L174.375 96.75L173.625 96.75L173.625 126zM174.375 168.75L174.375 126.75L173.625 126.75L173.625 168.75zM174.375 211.5L174.375 169.5L173.625 169.5L173.625 211.5zM174.375 241.5L174.375 212.25L173.625 212.25L173.625 241.5zM174.375 297.75L174.375 242.25L173.625 242.25L173.625 297.75zM174.375 340.5L174.375 298.5L173.625 298.5L173.625 340.5zM174.375 383.25L174.375 341.25L173.625 341.25L173.625 383.25zM174.375 439.5L174.375 384L173.625 384L173.625 439.5zM174.375 482.25L174.375 440.25L173.625 440.25L173.625 482.25zM174.375 498.75L174.375 483L173.625 483L173.625 498.75zM174.375 541.5L174.375 499.5L173.625 499.5L173.625 541.5z" stroke="none" fill="#000000" fill-rule="nonzero" fill-opacity="0.1490196" /><path id="118" transform="matrix(1 0 0 -1 0 612)" d="M286.875 502.4658L495.8096 502.4658" stroke="#000000" stroke-width="0.7017334" fill="none" /><path id="182" transform="matrix(1 0 0 -1 0 612)" d="M286.875 485.9658L378.9495 485.9658" stroke="#000000" stroke-width="0.7017334" fill="none" /><path id="253" transform="matrix(1 0 0 -1 0 612)" d="M286.875 469.3936L488.0397 469.3936" stroke="#000000" stroke-width="0.7017334" fill="none" /><path id="293" transform="matrix(1 0 0 -1 0 612)" d="M286.875 456.3047L479.2963 456.3047" stroke="#000000" stroke-width="0.7017334" fill="none" /><path id="318" transform="matrix(1 0 0 -1 0 612)" d="M286.875 443.2158L411.3635 443.2158" stroke="#000000" stroke-width="0.7017334" fill="none" /><path id="400" transform="matrix(1 0 0 -1 0 612)" d="M286.875 400.0547L486.1865 400.0547" stroke="#000000" stroke-width="0.7017334" fill="none" /><path id="445" transform="matrix(1 0 0 -1 0 612)" d="M286.875 386.9658L500.3541 386.9658" stroke="#000000" stroke-width="0.7017334" fill="none" /><path id="533" transform="matrix(1 0 0 -1 0 612)" d="M286.875 370.3936L460.7307 370.3936" stroke="#000000" stroke-width="0.7017334" fill="none" /><path id="577" transform="matrix(1 0 0 -1 0 612)" d="M286.875 357.3047L493.2231 357.3047" stroke="#000000" stroke-width="0.7017334" fill="none" /><path id="599" transform="matrix(1 0 0 -1 0 612)" d="M286.875 344.2158L379.2373 344.2158" stroke="#000000" stroke-width="0.7017334" fill="none" /><path id="681" transform="matrix(1 0 0 -1 0 612)" d="M286.875 314.5547L481.6419 314.5547" stroke="#000000" stroke-width="0.7017334" fill="none" /><path id="689" transform="matrix(1 0 0 -1 0 612)" d="M286.875 301.4658L317.7969 301.4658" stroke="#000000" stroke-width="0.7017334" fill="none" /><path id="812" transform="matrix(1 0 0 -1 0 612)" d="M286.875 258.3047L499.5479 258.3047" stroke="#000000" stroke-width="0.7017334" fill="none" /><path id="823" transform="matrix(1 0 0 -1 0 612)" d="M286.875 245.2158L328.9435 245.2158" stroke="#000000" stroke-width="0.7017334" fill="none" /><path id="874" transform="matrix(1 0 0 -1 0 612)" d="M286.875 228.3047L447.2384 228.3047" stroke="#000000" stroke-width="0.7017334" fill="none" /><path id="894" transform="matrix(1 0 0 -1 0 612)" d="M286.875 215.2158L378.9913 215.2158" stroke="#000000" stroke-width="0.7017334" fill="none" /><path id="971" transform="matrix(1 0 0 -1 0 612)" d="M286.875 185.5547L506.9145 185.5547" stroke="#000000" stroke-width="0.7017334" fill="none" /><path id="1012" transform="matrix(1 0 0 -1 0 612)" d="M286.875 172.4658L472.6576 172.4658" stroke="#000000" stroke-width="0.7017334" fill="none" /><path id="1081" transform="matrix(1 0 0 -1 0 612)" d="M286.875 129.7158L453.4007 129.7158" stroke="#000000" stroke-width="0.7017334" fill="none" /><path id="1163" transform="matrix(1 0 0 -1 0 612)" d="M286.875 112.8047L470.6313 112.8047" stroke="#000000" stroke-width="0.7017334" fill="none" /><path id="1185" transform="matrix(1 0 0 -1 0 612)" d="M286.875 99.71582L391.4888 99.71582" stroke="#000000" stroke-width="0.7017334" fill="none" /></g></g></g></svg>