<svg xmlns="http://www.w3.org/2000/svg" xmlns:xlink="http://www.w3.org/1999/xlink" id="body_12" preserveAspectRatio="xMinYMin meet" viewBox="0 0 1056 816"><defs><clipPath id="1"><path id="" clip-rule="evenodd" transform="matrix(1 0 0 1 0 0)" d="M0 612L0 0L0 0L792 0L792 0L792 612L792 612L0 612z" /></clipPath><clipPath id="2"><path id="" clip-rule="evenodd" transform="matrix(1 0 0 1 0 0)" d="M172.875 52.5L619.125 52.5L619.125 52.5L619.125 69.75L619.125 69.75L172.875 69.75L172.875 69.75L172.875 52.5z" /></clipPath><clipPath id="3"><path id="" clip-rule="evenodd" transform="matrix(1 0 0 1 0 0)" d="M172.875 69L619.125 69L619.125 69L619.125 519.75L619.125 519.75L172.875 519.75L172.875 519.75L172.875 69z" /></clipPath></defs><g transform="matrix(1.333333 0 0 1.333333 0 0)"><g clip-path="url(#1)"><g clip-path="url(#2)"><path id="10" transform="matrix(1 0 0 -1 0 612)" d="M173.625 558.75L618.375 558.75L618.375 541.5L173.625 541.5L173.625 558.75z" stroke="none" fill="#4DD0E1" fill-rule="nonzero" /><path id="11" transform="matrix(1 0 0 -1 0 612)" d="M173.625 542.25L618.375 542.25L618.375 541.5L173.625 541.5zM173.625 558.75L618.375 558.75L618.375 558L173.625 558zM618.375 558L618.375 542.25L617.625 542.25L617.625 558zM541.125 558L541.125 542.25L540.375 542.25L540.375 558zM512.625 558L512.625 542.25L511.875 542.25L511.875 558zM284.625 558L284.625 542.25L283.875 542.25L283.875 558zM208.125 558L208.125 542.25L207.375 542.25L207.375 558zM174.375 558L174.375 542.25L173.625 542.25L173.625 558z" stroke="none" fill="#000000" fill-rule="nonzero" fill-opacity="0.1490196" /></g><g clip-path="url(#3)"><path id="39" transform="matrix(1 0 0 -1 0 612)" d="M173.625 542.25L618.375 542.25L618.375 498.75L173.625 498.75L173.625 542.25z" stroke="none" fill="#FFFFFF" fill-rule="nonzero" /><path id="40" transform="matrix(1 0 0 -1 0 612)" d="M173.625 499.5L618.375 499.5L618.375 468.75L173.625 468.75L173.625 499.5z" stroke="none" fill="#E0F7FA" fill-rule="nonzero" /><path id="41" transform="matrix(1 0 0 -1 0 612)" d="M173.625 469.5L618.375 469.5L618.375 438.75L173.625 438.75L173.625 469.5z" stroke="none" fill="#FFFFFF" fill-rule="nonzero" /><path id="42" transform="matrix(1 0 0 -1 0 612)" d="M173.625 439.5L618.375 439.5L618.375 382.5L173.625 382.5L173.625 439.5z" stroke="none" fill="#E0F7FA" fill-rule="nonzero" /><path id="43" transform="matrix(1 0 0 -1 0 612)" d="M173.625 383.25L618.375 383.25L618.375 326.25L173.625 326.25L173.625 383.25z" stroke="none" fill="#FFFFFF" fill-rule="nonzero" /><path id="44" transform="matrix(1 0 0 -1 0 612)" d="M173.625 327L618.375 327L618.375 296.25L173.625 296.25L173.625 327z" stroke="none" fill="#E0F7FA" fill-rule="nonzero" /><path id="45" transform="matrix(1 0 0 -1 0 612)" d="M173.625 297L618.375 297L618.375 253.5L173.625 253.5L173.625 297z" stroke="none" fill="#FFFFFF" fill-rule="nonzero" /><path id="46" transform="matrix(1 0 0 -1 0 612)" d="M173.625 254.25L618.375 254.25L618.375 223.5L173.625 223.5L173.625 254.25z" stroke="none" fill="#E0F7FA" fill-rule="nonzero" /><path id="47" transform="matrix(1 0 0 -1 0 612)" d="M173.625 224.25L618.375 224.25L618.375 153L173.625 153L173.625 224.25z" stroke="none" fill="#FFFFFF" fill-rule="nonzero" /><path id="48" transform="matrix(1 0 0 -1 0 612)" d="M173.625 153.75L618.375 153.75L618.375 123L173.625 123L173.625 153.75z" stroke="none" fill="#E0F7FA" fill-rule="nonzero" /><path id="49" transform="matrix(1 0 0 -1 0 612)" d="M173.625 123.75L618.375 123.75L618.375 93L173.625 93L173.625 123.75z" stroke="none" fill="#FFFFFF" fill-rule="nonzero" /><path id="50" transform="matrix(1 0 0 -1 0 612)" d="M173.625 93.75L618.375 93.75L618.375 93L173.625 93zM173.625 123.75L618.375 123.75L618.375 123L173.625 123zM173.625 153.75L618.375 153.75L618.375 153L173.625 153zM173.625 224.25L618.375 224.25L618.375 223.5L173.625 223.5zM173.625 254.25L618.375 254.25L618.375 253.5L173.625 253.5zM173.625 297L618.375 297L618.375 296.25L173.625 296.25zM173.625 327L618.375 327L618.375 326.25L173.625 326.25zM173.625 383.25L618.375 383.25L618.375 382.5L173.625 382.5zM173.625 439.5L618.375 439.5L618.375 438.75L173.625 438.75zM173.625 469.5L618.375 469.5L618.375 468.75L173.625 468.75zM173.625 499.5L618.375 499.5L618.375 498.75L173.625 498.75zM173.625 542.25L618.375 542.25L618.375 541.5L173.625 541.5zM618.375 123L618.375 93.75L617.625 93.75L617.625 123zM618.375 153L618.375 123.75L617.625 123.75L617.625 153zM618.375 223.5L618.375 153.75L617.625 153.75L617.625 223.5zM618.375 253.5L618.375 224.25L617.625 224.25L617.625 253.5zM618.375 296.25L618.375 254.25L617.625 254.25L617.625 296.25zM618.375 326.25L618.375 297L617.625 297L617.625 326.25zM618.375 382.5L618.375 327L617.625 327L617.625 382.5zM618.375 438.75L618.375 383.25L617.625 383.25L617.625 438.75zM618.375 468.75L618.375 439.5L617.625 439.5L617.625 468.75zM618.375 498.75L618.375 469.5L617.625 469.5L617.625 498.75zM618.375 541.5L618.375 499.5L617.625 499.5L617.625 541.5zM541.125 123L541.125 93.75L540.375 93.75L540.375 123zM541.125 153L541.125 123.75L540.375 123.75L540.375 153zM541.125 223.5L541.125 153.75L540.375 153.75L540.375 223.5zM541.125 253.5L541.125 224.25L540.375 224.25L540.375 253.5zM541.125 296.25L541.125 254.25L540.375 254.25L540.375 296.25zM541.125 326.25L541.125 297L540.375 297L540.375 326.25zM541.125 382.5L541.125 327L540.375 327L540.375 382.5zM541.125 438.75L541.125 383.25L540.375 383.25L540.375 438.75zM541.125 468.75L541.125 439.5L540.375 439.5L540.375 468.75zM541.125 498.75L541.125 469.5L540.375 469.5L540.375 498.75zM541.125 541.5L541.125 499.5L540.375 499.5L540.375 541.5zM512.625 123L512.625 93.75L511.875 93.75L511.875 123zM512.625 153L512.625 123.75L511.875 123.75L511.875 153zM512.625 223.5L512.625 153.75L511.875 153.75L511.875 223.5zM512.625 253.5L512.625 224.25L511.875 224.25L511.875 253.5zM512.625 296.25L512.625 254.25L511.875 254.25L511.875 296.25zM512.625 326.25L512.625 297L511.875 297L511.875 326.25zM512.625 382.5L512.625 327L511.875 327L511.875 382.5zM512.625 438.75L512.625 383.25L511.875 383.25L511.875 438.75zM512.625 468.75L512.625 439.5L511.875 439.5L511.875 468.75zM512.625 498.75L512.625 469.5L511.875 469.5L511.875 498.75zM512.625 541.5L512.625 499.5L511.875 499.5L511.875 541.5zM284.625 123L284.625 93.75L283.875 93.75L283.875 123zM284.625 153L284.625 123.75L283.875 123.75L283.875 153zM284.625 223.5L284.625 153.75L283.875 153.75L283.875 223.5zM284.625 253.5L284.625 224.25L283.875 224.25L283.875 253.5zM284.625 296.25L284.625 254.25L283.875 254.25L283.875 296.25zM284.625 326.25L284.625 297L283.875 297L283.875 326.25zM284.625 382.5L284.625 327L283.875 327L283.875 382.5zM284.625 438.75L284.625 383.25L283.875 383.25L283.875 438.75zM284.625 468.75L284.625 439.5L283.875 439.5L283.875 468.75zM284.625 498.75L284.625 469.5L283.875 469.5L283.875 498.75zM284.625 541.5L284.625 499.5L283.875 499.5L283.875 541.5zM208.125 123L208.125 93.75L207.375 93.75L207.375 123zM208.125 153L208.125 123.75L207.375 123.75L207.375 153zM208.125 223.5L208.125 153.75L207.375 153.75L207.375 223.5zM208.125 253.5L208.125 224.25L207.375 224.25L207.375 253.5zM208.125 296.25L208.125 254.25L207.375 254.25L207.375 296.25zM208.125 326.25L208.125 297L207.375 297L207.375 326.25zM208.125 382.5L208.125 327L207.375 327L207.375 382.5zM208.125 438.75L208.125 383.25L207.375 383.25L207.375 438.75zM208.125 468.75L208.125 439.5L207.375 439.5L207.375 468.75zM208.125 498.75L208.125 469.5L207.375 469.5L207.375 498.75zM208.125 541.5L208.125 499.5L207.375 499.5L207.375 541.5zM174.375 123L174.375 93.75L173.625 93.75L173.625 123zM174.375 153L174.375 123.75L173.625 123.75L173.625 153zM174.375 223.5L174.375 153.75L173.625 153.75L173.625 223.5zM174.375 253.5L174.375 224.25L173.625 224.25L173.625 253.5zM174.375 296.25L174.375 254.25L173.625 254.25L173.625 296.25zM174.375 326.25L174.375 297L173.625 297L173.625 326.25zM174.375 382.5L174.375 327L173.625 327L173.625 382.5zM174.375 438.75L174.375 383.25L173.625 383.25L173.625 438.75zM174.375 468.75L174.375 439.5L173.625 439.5L173.625 468.75zM174.375 498.75L174.375 469.5L173.625 469.5L173.625 498.75zM174.375 541.5L174.375 499.5L173.625 499.5L173.625 541.5z" stroke="none" fill="#000000" fill-rule="nonzero" fill-opacity="0.1490196" /><path id="90" transform="matrix(1 0 0 -1 0 612)" d="M286.875 502.4658L425.7355 502.4658" stroke="#000000" stroke-width="0.7017334" fill="none" /><path id="166" transform="matrix(1 0 0 -1 0 612)" d="M286.875 472.4658L403.0022 472.4658" stroke="#000000" stroke-width="0.7017334" fill="none" /><path id="245" transform="matrix(1 0 0 -1 0 612)" d="M286.875 455.5547L500.904 455.5547" stroke="#000000" stroke-width="0.7017334" fill="none" /><path id="277" transform="matrix(1 0 0 -1 0 612)" d="M286.875 442.4658L441.4163 442.4658" stroke="#000000" stroke-width="0.7017334" fill="none" /><path id="331" transform="matrix(1 0 0 -1 0 612)" d="M286.875 399.3047L500.5479 399.3047" stroke="#000000" stroke-width="0.7017334" fill="none" /><path id="349" transform="matrix(1 0 0 -1 0 612)" d="M286.875 386.2158L374.5096 386.2158" stroke="#000000" stroke-width="0.7017334" fill="none" /><path id="439" transform="matrix(1 0 0 -1 0 612)" d="M286.875 356.1436L482.422 356.1436" stroke="#000000" stroke-width="0.7017334" fill="none" /><path id="479" transform="matrix(1 0 0 -1 0 612)" d="M286.875 343.0547L474.3278 343.0547" stroke="#000000" stroke-width="0.7017334" fill="none" /><path id="491" transform="matrix(1 0 0 -1 0 612)" d="M286.875 329.9658L337.2212 329.9658" stroke="#000000" stroke-width="0.7017334" fill="none" /><path id="583" transform="matrix(1 0 0 -1 0 612)" d="M286.875 313.0547L491.8096 313.0547" stroke="#000000" stroke-width="0.7017334" fill="none" /><path id="625" transform="matrix(1 0 0 -1 0 612)" d="M286.875 299.9658L508.1291 299.9658" stroke="#000000" stroke-width="0.7017334" fill="none" /><path id="697" transform="matrix(1 0 0 -1 0 612)" d="M286.875 283.3936L507.0663 283.3936" stroke="#000000" stroke-width="0.7017334" fill="none" /><path id="741" transform="matrix(1 0 0 -1 0 612)" d="M286.875 270.3047L505.6892 270.3047" stroke="#000000" stroke-width="0.7017334" fill="none" /><path id="760" transform="matrix(1 0 0 -1 0 612)" d="M286.875 257.2158L377.0385 257.2158" stroke="#000000" stroke-width="0.7017334" fill="none" /><path id="853" transform="matrix(1 0 0 -1 0 612)" d="M286.875 240.3047L493.5007 240.3047" stroke="#000000" stroke-width="0.7017334" fill="none" /><path id="884" transform="matrix(1 0 0 -1 0 612)" d="M286.875 227.2158L427.6254 227.2158" stroke="#000000" stroke-width="0.7017334" fill="none" /><path id="923" transform="matrix(1 0 0 -1 0 612)" d="M286.875 156.7158L409.9236 156.7158" stroke="#000000" stroke-width="0.7017334" fill="none" /><path id="1029" transform="matrix(1 0 0 -1 0 612)" d="M286.875 139.8047L501.0402 139.8047" stroke="#000000" stroke-width="0.7017334" fill="none" /><path id="1036" transform="matrix(1 0 0 -1 0 612)" d="M286.875 126.7158L313.8858 126.7158" stroke="#000000" stroke-width="0.7017334" fill="none" /><path id="1117" transform="matrix(1 0 0 -1 0 612)" d="M286.875 96.71582L487.6367 96.71582" stroke="#000000" stroke-width="0.7017334" fill="none" /></g></g></g></svg>