<svg xmlns="http://www.w3.org/2000/svg" xmlns:xlink="http://www.w3.org/1999/xlink" id="body_21" preserveAspectRatio="xMinYMin meet" viewBox="0 0 1056 816"><defs><clipPath id="1"><path id="" clip-rule="evenodd" transform="matrix(1 0 0 1 0 0)" d="M0 612L0 0L0 0L792 0L792 0L792 612L792 612L0 612z" /></clipPath><clipPath id="2"><path id="" clip-rule="evenodd" transform="matrix(1 0 0 1 0 0)" d="M172.875 52.5L619.125 52.5L619.125 52.5L619.125 69.75L619.125 69.75L172.875 69.75L172.875 69.75L172.875 52.5z" /></clipPath><clipPath id="3"><path id="" clip-rule="evenodd" transform="matrix(1 0 0 1 0 0)" d="M172.875 69L619.125 69L619.125 69L619.125 532.5L619.125 532.5L172.875 532.5L172.875 532.5L172.875 69z" /></clipPath></defs><g transform="matrix(1.333333 0 0 1.333333 0 0)"><g clip-path="url(#1)"><g clip-path="url(#2)"><path id="10" transform="matrix(1 0 0 -1 0 612)" d="M173.625 558.75L618.375 558.75L618.375 541.5L173.625 541.5L173.625 558.75z" stroke="none" fill="#4DD0E1" fill-rule="nonzero" /><path id="11" transform="matrix(1 0 0 -1 0 612)" d="M173.625 542.25L618.375 542.25L618.375 541.5L173.625 541.5zM173.625 558.75L618.375 558.75L618.375 558L173.625 558zM618.375 558L618.375 542.25L617.625 542.25L617.625 558zM541.125 558L541.125 542.25L540.375 542.25L540.375 558zM512.625 558L512.625 542.25L511.875 542.25L511.875 558zM284.625 558L284.625 542.25L283.875 542.25L283.875 558zM208.125 558L208.125 542.25L207.375 542.25L207.375 558zM174.375 558L174.375 542.25L173.625 542.25L173.625 558z" stroke="none" fill="#000000" fill-rule="nonzero" fill-opacity="0.1490196" /></g><g clip-path="url(#3)"><path id="39" transform="matrix(1 0 0 -1 0 612)" d="M173.625 542.25L618.375 542.25L618.375 485.25L173.625 485.25L173.625 542.25z" stroke="none" fill="#FFFFFF" fill-rule="nonzero" /><path id="40" transform="matrix(1 0 0 -1 0 612)" d="M173.625 486L618.375 486L618.375 455.25L173.625 455.25L173.625 486z" stroke="none" fill="#E0F7FA" fill-rule="nonzero" /><path id="41" transform="matrix(1 0 0 -1 0 612)" d="M173.625 456L618.375 456L618.375 425.25L173.625 425.25L173.625 456z" stroke="none" fill="#FFFFFF" fill-rule="nonzero" /><path id="42" transform="matrix(1 0 0 -1 0 612)" d="M173.625 426L618.375 426L618.375 382.5L173.625 382.5L173.625 426z" stroke="none" fill="#E0F7FA" fill-rule="nonzero" /><path id="43" transform="matrix(1 0 0 -1 0 612)" d="M173.625 383.25L618.375 383.25L618.375 324.75L173.625 324.75L173.625 383.25z" stroke="none" fill="#FFFFFF" fill-rule="nonzero" /><path id="44" transform="matrix(1 0 0 -1 0 612)" d="M173.625 325.5L618.375 325.5L618.375 268.5L173.625 268.5L173.625 325.5z" stroke="none" fill="#E0F7FA" fill-rule="nonzero" /><path id="45" transform="matrix(1 0 0 -1 0 612)" d="M173.625 269.25L618.375 269.25L618.375 238.5L173.625 238.5L173.625 269.25z" stroke="none" fill="#FFFFFF" fill-rule="nonzero" /><path id="46" transform="matrix(1 0 0 -1 0 612)" d="M173.625 239.25L618.375 239.25L618.375 181.5L173.625 181.5L173.625 239.25z" stroke="none" fill="#E0F7FA" fill-rule="nonzero" /><path id="47" transform="matrix(1 0 0 -1 0 612)" d="M173.625 182.25L618.375 182.25L618.375 136.5L173.625 136.5L173.625 182.25z" stroke="none" fill="#FFFFFF" fill-rule="nonzero" /><path id="48" transform="matrix(1 0 0 -1 0 612)" d="M173.625 137.25L618.375 137.25L618.375 80.25L173.625 80.25L173.625 137.25z" stroke="none" fill="#E0F7FA" fill-rule="nonzero" /><path id="49" transform="matrix(1 0 0 -1 0 612)" d="M173.625 81L618.375 81L618.375 80.25L173.625 80.25zM173.625 137.25L618.375 137.25L618.375 136.5L173.625 136.5zM173.625 182.25L618.375 182.25L618.375 181.5L173.625 181.5zM173.625 239.25L618.375 239.25L618.375 238.5L173.625 238.5zM173.625 269.25L618.375 269.25L618.375 268.5L173.625 268.5zM173.625 325.5L618.375 325.5L618.375 324.75L173.625 324.75zM173.625 383.25L618.375 383.25L618.375 382.5L173.625 382.5zM173.625 426L618.375 426L618.375 425.25L173.625 425.25zM173.625 456L618.375 456L618.375 455.25L173.625 455.25zM173.625 486L618.375 486L618.375 485.25L173.625 485.25zM173.625 542.25L618.375 542.25L618.375 541.5L173.625 541.5zM618.375 136.5L618.375 81L617.625 81L617.625 136.5zM618.375 181.5L618.375 137.25L617.625 137.25L617.625 181.5zM618.375 238.5L618.375 182.25L617.625 182.25L617.625 238.5zM618.375 268.5L618.375 239.25L617.625 239.25L617.625 268.5zM618.375 324.75L618.375 269.25L617.625 269.25L617.625 324.75zM618.375 382.5L618.375 325.5L617.625 325.5L617.625 382.5zM618.375 425.25L618.375 383.25L617.625 383.25L617.625 425.25zM618.375 455.25L618.375 426L617.625 426L617.625 455.25zM618.375 485.25L618.375 456L617.625 456L617.625 485.25zM618.375 541.5L618.375 486L617.625 486L617.625 541.5zM541.125 136.5L541.125 81L540.375 81L540.375 136.5zM541.125 181.5L541.125 137.25L540.375 137.25L540.375 181.5zM541.125 238.5L541.125 182.25L540.375 182.25L540.375 238.5zM541.125 268.5L541.125 239.25L540.375 239.25L540.375 268.5zM541.125 324.75L541.125 269.25L540.375 269.25L540.375 324.75zM541.125 382.5L541.125 325.5L540.375 325.5L540.375 382.5zM541.125 425.25L541.125 383.25L540.375 383.25L540.375 425.25zM541.125 455.25L541.125 426L540.375 426L540.375 455.25zM541.125 485.25L541.125 456L540.375 456L540.375 485.25zM541.125 541.5L541.125 486L540.375 486L540.375 541.5zM512.625 136.5L512.625 81L511.875 81L511.875 136.5zM512.625 181.5L512.625 137.25L511.875 137.25L511.875 181.5zM512.625 238.5L512.625 182.25L511.875 182.25L511.875 238.5zM512.625 268.5L512.625 239.25L511.875 239.25L511.875 268.5zM512.625 324.75L512.625 269.25L511.875 269.25L511.875 324.75zM512.625 382.5L512.625 325.5L511.875 325.5L511.875 382.5zM512.625 425.25L512.625 383.25L511.875 383.25L511.875 425.25zM512.625 455.25L512.625 426L511.875 426L511.875 455.25zM512.625 485.25L512.625 456L511.875 456L511.875 485.25zM512.625 541.5L512.625 486L511.875 486L511.875 541.5zM284.625 136.5L284.625 81L283.875 81L283.875 136.5zM284.625 181.5L284.625 137.25L283.875 137.25L283.875 181.5zM284.625 238.5L284.625 182.25L283.875 182.25L283.875 238.5zM284.625 268.5L284.625 239.25L283.875 239.25L283.875 268.5zM284.625 324.75L284.625 269.25L283.875 269.25L283.875 324.75zM284.625 382.5L284.625 325.5L283.875 325.5L283.875 382.5zM284.625 425.25L284.625 383.25L283.875 383.25L283.875 425.25zM284.625 455.25L284.625 426L283.875 426L283.875 455.25zM284.625 485.25L284.625 456L283.875 456L283.875 485.25zM284.625 541.5L284.625 486L283.875 486L283.875 541.5zM208.125 136.5L208.125 81L207.375 81L207.375 136.5zM208.125 181.5L208.125 137.25L207.375 137.25L207.375 181.5zM208.125 238.5L208.125 182.25L207.375 182.25L207.375 238.5zM208.125 268.5L208.125 239.25L207.375 239.25L207.375 268.5zM208.125 324.75L208.125 269.25L207.375 269.25L207.375 324.75zM208.125 382.5L208.125 325.5L207.375 325.5L207.375 382.5zM208.125 425.25L208.125 383.25L207.375 383.25L207.375 425.25zM208.125 455.25L208.125 426L207.375 426L207.375 455.25zM208.125 485.25L208.125 456L207.375 456L207.375 485.25zM208.125 541.5L208.125 486L207.375 486L207.375 541.5zM174.375 136.5L174.375 81L173.625 81L173.625 136.5zM174.375 181.5L174.375 137.25L173.625 137.25L173.625 181.5zM174.375 238.5L174.375 182.25L173.625 182.25L173.625 238.5zM174.375 268.5L174.375 239.25L173.625 239.25L173.625 268.5zM174.375 324.75L174.375 269.25L173.625 269.25L173.625 324.75zM174.375 382.5L174.375 325.5L173.625 325.5L173.625 382.5zM174.375 425.25L174.375 383.25L173.625 383.25L173.625 425.25zM174.375 455.25L174.375 426L173.625 426L173.625 455.25zM174.375 485.25L174.375 456L173.625 456L173.625 485.25zM174.375 541.5L174.375 486L173.625 486L173.625 541.5z" stroke="none" fill="#000000" fill-rule="nonzero" fill-opacity="0.1490196" /><path id="85" transform="matrix(1 0 0 -1 0 612)" d="M286.875 488.9658L417.7197 488.9658" stroke="#000000" stroke-width="0.7017334" fill="none" /><path id="178" transform="matrix(1 0 0 -1 0 612)" d="M286.875 472.0547L488.0922 472.0547" stroke="#000000" stroke-width="0.7017334" fill="none" /><path id="216" transform="matrix(1 0 0 -1 0 612)" d="M286.875 458.9658L468.0238 458.9658" stroke="#000000" stroke-width="0.7017334" fill="none" /><path id="272" transform="matrix(1 0 0 -1 0 612)" d="M286.875 442.0547L508.4487 442.0547" stroke="#000000" stroke-width="0.7017334" fill="none" /><path id="312" transform="matrix(1 0 0 -1 0 612)" d="M286.875 428.9658L486.6001 428.9658" stroke="#000000" stroke-width="0.7017334" fill="none" /><path id="391" transform="matrix(1 0 0 -1 0 612)" d="M286.875 412.3936L490.4797 412.3936" stroke="#000000" stroke-width="0.7017334" fill="none" /><path id="432" transform="matrix(1 0 0 -1 0 612)" d="M286.875 399.3047L494.7154 399.3047" stroke="#000000" stroke-width="0.7017334" fill="none" /><path id="440" transform="matrix(1 0 0 -1 0 612)" d="M286.875 386.2158L320.0953 386.2158" stroke="#000000" stroke-width="0.7017334" fill="none" /><path id="509" transform="matrix(1 0 0 -1 0 612)" d="M286.875 354.6436L474.5319 354.6436" stroke="#000000" stroke-width="0.7017334" fill="none" /><path id="546" transform="matrix(1 0 0 -1 0 612)" d="M286.875 341.5547L472.0396 341.5547" stroke="#000000" stroke-width="0.7017334" fill="none" /><path id="592" transform="matrix(1 0 0 -1 0 612)" d="M286.875 328.4658L504.9877 328.4658" stroke="#000000" stroke-width="0.7017334" fill="none" /><path id="711" transform="matrix(1 0 0 -1 0 612)" d="M286.875 298.3936L503.993 298.3936" stroke="#000000" stroke-width="0.7017334" fill="none" /><path id="745" transform="matrix(1 0 0 -1 0 612)" d="M286.875 285.3047L454.5631 285.3047" stroke="#000000" stroke-width="0.7017334" fill="none" /><path id="778" transform="matrix(1 0 0 -1 0 612)" d="M286.875 272.2158L445.6833 272.2158" stroke="#000000" stroke-width="0.7017334" fill="none" /><path id="867" transform="matrix(1 0 0 -1 0 612)" d="M286.875 255.3047L500.8358 255.3047" stroke="#000000" stroke-width="0.7017334" fill="none" /><path id="893" transform="matrix(1 0 0 -1 0 612)" d="M286.875 242.2158L399.9288 242.2158" stroke="#000000" stroke-width="0.7017334" fill="none" /><path id="952" transform="matrix(1 0 0 -1 0 612)" d="M286.875 198.3047L490.3488 198.3047" stroke="#000000" stroke-width="0.7017334" fill="none" /><path id="990" transform="matrix(1 0 0 -1 0 612)" d="M286.875 185.2158L501.0658 185.2158" stroke="#000000" stroke-width="0.7017334" fill="none" /><path id="1094" transform="matrix(1 0 0 -1 0 612)" d="M286.875 166.3936L473.1599 166.3936" stroke="#000000" stroke-width="0.7017334" fill="none" /><path id="1137" transform="matrix(1 0 0 -1 0 612)" d="M286.875 153.3047L490.778 153.3047" stroke="#000000" stroke-width="0.7017334" fill="none" /><path id="1145" transform="matrix(1 0 0 -1 0 612)" d="M286.875 140.2158L317.4409 140.2158" stroke="#000000" stroke-width="0.7017334" fill="none" /><path id="1226" transform="matrix(1 0 0 -1 0 612)" d="M286.875 83.96582L489.5321 83.96582" stroke="#000000" stroke-width="0.7017334" fill="none" /></g></g></g></svg>