<svg xmlns="http://www.w3.org/2000/svg" xmlns:xlink="http://www.w3.org/1999/xlink" id="body_16" preserveAspectRatio="xMinYMin meet" viewBox="0 0 1056 816"><defs><clipPath id="1"><path id="" clip-rule="evenodd" transform="matrix(1 0 0 1 0 0)" d="M0 612L0 0L0 0L792 0L792 0L792 612L792 612L0 612z" /></clipPath><clipPath id="2"><path id="" clip-rule="evenodd" transform="matrix(1 0 0 1 0 0)" d="M99.75 52.5L692.25 52.5L692.25 52.5L692.25 546.75L692.25 546.75L99.75 546.75L99.75 546.75L99.75 52.5z" /></clipPath></defs><g transform="matrix(1.333333 0 0 1.333333 0 0)"><g clip-path="url(#1)"><g clip-path="url(#2)"><path id="118" transform="matrix(1 0 0 -1 0 612)" d="M100.5 558.75L691.5 558.75L691.5 541.5L100.5 541.5L100.5 558.75z" stroke="none" fill="#E0F7FA" fill-rule="nonzero" /><path id="119" transform="matrix(1 0 0 -1 0 612)" d="M100.5 542.25L691.5 542.25L691.5 525L100.5 525L100.5 542.25z" stroke="none" fill="#FFFFFF" fill-rule="nonzero" /><path id="120" transform="matrix(1 0 0 -1 0 612)" d="M100.5 525.75L691.5 525.75L691.5 508.5L100.5 508.5L100.5 525.75z" stroke="none" fill="#E0F7FA" fill-rule="nonzero" /><path id="121" transform="matrix(1 0 0 -1 0 612)" d="M100.5 509.25L691.5 509.25L691.5 478.5L100.5 478.5L100.5 509.25z" stroke="none" fill="#FFFFFF" fill-rule="nonzero" /><path id="122" transform="matrix(1 0 0 -1 0 612)" d="M100.5 479.25L691.5 479.25L691.5 448.5L100.5 448.5L100.5 479.25z" stroke="none" fill="#E0F7FA" fill-rule="nonzero" /><path id="123" transform="matrix(1 0 0 -1 0 612)" d="M100.5 449.25L691.5 449.25L691.5 418.5L100.5 418.5L100.5 449.25z" stroke="none" fill="#FFFFFF" fill-rule="nonzero" /><path id="124" transform="matrix(1 0 0 -1 0 612)" d="M100.5 419.25L691.5 419.25L691.5 388.5L100.5 388.5L100.5 419.25z" stroke="none" fill="#E0F7FA" fill-rule="nonzero" /><path id="125" transform="matrix(1 0 0 -1 0 612)" d="M100.5 389.25L691.5 389.25L691.5 358.5L100.5 358.5L100.5 389.25z" stroke="none" fill="#FFFFFF" fill-rule="nonzero" /><path id="126" transform="matrix(1 0 0 -1 0 612)" d="M100.5 359.25L691.5 359.25L691.5 342L100.5 342L100.5 359.25z" stroke="none" fill="#E0F7FA" fill-rule="nonzero" /><path id="127" transform="matrix(1 0 0 -1 0 612)" d="M100.5 342.75L691.5 342.75L691.5 325.5L100.5 325.5L100.5 342.75z" stroke="none" fill="#FFFFFF" fill-rule="nonzero" /><path id="128" transform="matrix(1 0 0 -1 0 612)" d="M100.5 326.25L691.5 326.25L691.5 295.5L100.5 295.5L100.5 326.25z" stroke="none" fill="#E0F7FA" fill-rule="nonzero" /><path id="129" transform="matrix(1 0 0 -1 0 612)" d="M100.5 296.25L691.5 296.25L691.5 265.5L100.5 265.5L100.5 296.25z" stroke="none" fill="#FFFFFF" fill-rule="nonzero" /><path id="130" transform="matrix(1 0 0 -1 0 612)" d="M100.5 266.25L691.5 266.25L691.5 235.5L100.5 235.5L100.5 266.25z" stroke="none" fill="#E0F7FA" fill-rule="nonzero" /><path id="131" transform="matrix(1 0 0 -1 0 612)" d="M100.5 236.25L691.5 236.25L691.5 205.5L100.5 205.5L100.5 236.25z" stroke="none" fill="#FFFFFF" fill-rule="nonzero" /><path id="132" transform="matrix(1 0 0 -1 0 612)" d="M100.5 206.25L691.5 206.25L691.5 175.5L100.5 175.5L100.5 206.25z" stroke="none" fill="#E0F7FA" fill-rule="nonzero" /><path id="133" transform="matrix(1 0 0 -1 0 612)" d="M100.5 176.25L691.5 176.25L691.5 145.5L100.5 145.5L100.5 176.25z" stroke="none" fill="#FFFFFF" fill-rule="nonzero" /><path id="134" transform="matrix(1 0 0 -1 0 612)" d="M100.5 146.25L691.5 146.25L691.5 115.5L100.5 115.5L100.5 146.25z" stroke="none" fill="#E0F7FA" fill-rule="nonzero" /><path id="135" transform="matrix(1 0 0 -1 0 612)" d="M100.5 116.25L691.5 116.25L691.5 99L100.5 99L100.5 116.25z" stroke="none" fill="#FFFFFF" fill-rule="nonzero" /><path id="136" transform="matrix(1 0 0 -1 0 612)" d="M100.5 99.75L691.5 99.75L691.5 82.5L100.5 82.5L100.5 99.75z" stroke="none" fill="#E0F7FA" fill-rule="nonzero" /><path id="137" transform="matrix(1 0 0 -1 0 612)" d="M100.5 83.25L691.5 83.25L691.5 66L100.5 66L100.5 83.25z" stroke="none" fill="#FFFFFF" fill-rule="nonzero" /><path id="138" transform="matrix(1 0 0 -1 0 612)" d="M100.5 66.75L691.5 66.75L691.5 66L100.5 66zM100.5 83.25L691.5 83.25L691.5 82.5L100.5 82.5zM100.5 99.75L691.5 99.75L691.5 99L100.5 99zM100.5 116.25L691.5 116.25L691.5 115.5L100.5 115.5zM100.5 146.25L691.5 146.25L691.5 145.5L100.5 145.5zM100.5 176.25L691.5 176.25L691.5 175.5L100.5 175.5zM100.5 206.25L691.5 206.25L691.5 205.5L100.5 205.5zM100.5 236.25L691.5 236.25L691.5 235.5L100.5 235.5zM100.5 266.25L691.5 266.25L691.5 265.5L100.5 265.5zM100.5 296.25L691.5 296.25L691.5 295.5L100.5 295.5zM100.5 326.25L691.5 326.25L691.5 325.5L100.5 325.5zM100.5 342.75L691.5 342.75L691.5 342L100.5 342zM100.5 359.25L691.5 359.25L691.5 358.5L100.5 358.5zM100.5 389.25L691.5 389.25L691.5 388.5L100.5 388.5zM100.5 419.25L691.5 419.25L691.5 418.5L100.5 418.5zM100.5 449.25L691.5 449.25L691.5 448.5L100.5 448.5zM100.5 479.25L691.5 479.25L691.5 478.5L100.5 478.5zM100.5 509.25L691.5 509.25L691.5 508.5L100.5 508.5zM100.5 525.75L691.5 525.75L691.5 525L100.5 525zM100.5 542.25L691.5 542.25L691.5 541.5L100.5 541.5zM100.5 558.75L691.5 558.75L691.5 558L100.5 558zM691.5 82.5L691.5 66.75L690.75 66.75L690.75 82.5zM691.5 99L691.5 83.25L690.75 83.25L690.75 99zM691.5 115.5L691.5 99.75L690.75 99.75L690.75 115.5zM691.5 145.5L691.5 116.25L690.75 116.25L690.75 145.5zM691.5 175.5L691.5 146.25L690.75 146.25L690.75 175.5zM691.5 205.5L691.5 176.25L690.75 176.25L690.75 205.5zM691.5 235.5L691.5 206.25L690.75 206.25L690.75 235.5zM691.5 265.5L691.5 236.25L690.75 236.25L690.75 265.5zM691.5 295.5L691.5 266.25L690.75 266.25L690.75 295.5zM691.5 325.5L691.5 296.25L690.75 296.25L690.75 325.5zM691.5 342L691.5 326.25L690.75 326.25L690.75 342zM691.5 358.5L691.5 342.75L690.75 342.75L690.75 358.5zM691.5 388.5L691.5 359.25L690.75 359.25L690.75 388.5zM691.5 418.5L691.5 389.25L690.75 389.25L690.75 418.5zM691.5 448.5L691.5 419.25L690.75 419.25L690.75 448.5zM691.5 478.5L691.5 449.25L690.75 449.25L690.75 478.5zM691.5 508.5L691.5 479.25L690.75 479.25L690.75 508.5zM691.5 525L691.5 509.25L690.75 509.25L690.75 525zM691.5 541.5L691.5 525.75L690.75 525.75L690.75 541.5zM691.5 558L691.5 542.25L690.75 542.25L690.75 558zM621.75 82.5L621.75 66.75L621 66.75L621 82.5zM621.75 99L621.75 83.25L621 83.25L621 99zM621.75 115.5L621.75 99.75L621 99.75L621 115.5zM621.75 145.5L621.75 116.25L621 116.25L621 145.5zM621.75 175.5L621.75 146.25L621 146.25L621 175.5zM621.75 205.5L621.75 176.25L621 176.25L621 205.5zM621.75 235.5L621.75 206.25L621 206.25L621 235.5zM621.75 265.5L621.75 236.25L621 236.25L621 265.5zM621.75 295.5L621.75 266.25L621 266.25L621 295.5zM621.75 325.5L621.75 296.25L621 296.25L621 325.5zM621.75 342L621.75 326.25L621 326.25L621 342zM621.75 358.5L621.75 342.75L621 342.75L621 358.5zM621.75 388.5L621.75 359.25L621 359.25L621 388.5zM621.75 418.5L621.75 389.25L621 389.25L621 418.5zM621.75 448.5L621.75 419.25L621 419.25L621 448.5zM621.75 478.5L621.75 449.25L621 449.25L621 478.5zM621.75 508.5L621.75 479.25L621 479.25L621 508.5zM621.75 525L621.75 509.25L621 509.25L621 525zM621.75 541.5L621.75 525.75L621 525.75L621 541.5zM621.75 558L621.75 542.25L621 542.25L621 558zM252.75 82.5L252.75 66.75L252 66.75L252 82.5zM252.75 99L252.75 83.25L252 83.25L252 99zM252.75 115.5L252.75 99.75L252 99.75L252 115.5zM252.75 145.5L252.75 116.25L252 116.25L252 145.5zM252.75 175.5L252.75 146.25L252 146.25L252 175.5zM252.75 205.5L252.75 176.25L252 176.25L252 205.5zM252.75 235.5L252.75 206.25L252 206.25L252 235.5zM252.75 265.5L252.75 236.25L252 236.25L252 265.5zM252.75 295.5L252.75 266.25L252 266.25L252 295.5zM252.75 325.5L252.75 296.25L252 296.25L252 325.5zM252.75 342L252.75 326.25L252 326.25L252 342zM252.75 358.5L252.75 342.75L252 342.75L252 358.5zM252.75 388.5L252.75 359.25L252 359.25L252 388.5zM252.75 418.5L252.75 389.25L252 389.25L252 418.5zM252.75 448.5L252.75 419.25L252 419.25L252 448.5zM252.75 478.5L252.75 449.25L252 449.25L252 478.5zM252.75 508.5L252.75 479.25L252 479.25L252 508.5zM252.75 525L252.75 509.25L252 509.25L252 525zM252.75 541.5L252.75 525.75L252 525.75L252 541.5zM252.75 558L252.75 542.25L252 542.25L252 558zM177 82.5L177 66.75L176.25 66.75L176.25 82.5zM177 99L177 83.25L176.25 83.25L176.25 99zM177 115.5L177 99.75L176.25 99.75L176.25 115.5zM177 145.5L177 116.25L176.25 116.25L176.25 145.5zM177 175.5L177 146.25L176.25 146.25L176.25 175.5zM177 205.5L177 176.25L176.25 176.25L176.25 205.5zM177 235.5L177 206.25L176.25 206.25L176.25 235.5zM177 265.5L177 236.25L176.25 236.25L176.25 265.5zM177 295.5L177 266.25L176.25 266.25L176.25 295.5zM177 325.5L177 296.25L176.25 296.25L176.25 325.5zM177 342L177 326.25L176.25 326.25L176.25 342zM177 358.5L177 342.75L176.25 342.75L176.25 358.5zM177 388.5L177 359.25L176.25 359.25L176.25 388.5zM177 418.5L177 389.25L176.25 389.25L176.25 418.5zM177 448.5L177 419.25L176.25 419.25L176.25 448.5zM177 478.5L177 449.25L176.25 449.25L176.25 478.5zM177 508.5L177 479.25L176.25 479.25L176.25 508.5zM177 525L177 509.25L176.25 509.25L176.25 525zM177 541.5L177 525.75L176.25 525.75L176.25 541.5zM177 558L177 542.25L176.25 542.25L176.25 558zM101.25 82.5L101.25 66.75L100.5 66.75L100.5 82.5zM101.25 99L101.25 83.25L100.5 83.25L100.5 99zM101.25 115.5L101.25 99.75L100.5 99.75L100.5 115.5zM101.25 145.5L101.25 116.25L100.5 116.25L100.5 145.5zM101.25 175.5L101.25 146.25L100.5 146.25L100.5 175.5zM101.25 205.5L101.25 176.25L100.5 176.25L100.5 205.5zM101.25 235.5L101.25 206.25L100.5 206.25L100.5 235.5zM101.25 265.5L101.25 236.25L100.5 236.25L100.5 265.5zM101.25 295.5L101.25 266.25L100.5 266.25L100.5 295.5zM101.25 325.5L101.25 296.25L100.5 296.25L100.5 325.5zM101.25 342L101.25 326.25L100.5 326.25L100.5 342zM101.25 358.5L101.25 342.75L100.5 342.75L100.5 358.5zM101.25 388.5L101.25 359.25L100.5 359.25L100.5 388.5zM101.25 418.5L101.25 389.25L100.5 389.25L100.5 418.5zM101.25 448.5L101.25 419.25L100.5 419.25L100.5 448.5zM101.25 478.5L101.25 449.25L100.5 449.25L100.5 478.5zM101.25 508.5L101.25 479.25L100.5 479.25L100.5 508.5zM101.25 525L101.25 509.25L100.5 509.25L100.5 525zM101.25 541.5L101.25 525.75L100.5 525.75L100.5 541.5zM101.25 558L101.25 542.25L100.5 542.25L100.5 558z" stroke="none" fill="#000000" fill-rule="nonzero" fill-opacity="0.1490196" /><path id="181" transform="matrix(1 0 0 -1 0 612)" d="M255 545.2158L406.6041 545.2158" stroke="#000000" stroke-width="0.7017334" fill="none" /><path id="268" transform="matrix(1 0 0 -1 0 612)" d="M255 528.7158L609.6015 528.7158" stroke="#000000" stroke-width="0.7017334" fill="none" /><path id="330" transform="matrix(1 0 0 -1 0 612)" d="M255 512.2158L487.5842 512.2158" stroke="#000000" stroke-width="0.7017334" fill="none" /><path id="409" transform="matrix(1 0 0 -1 0 612)" d="M255 482.2158L547.3494 482.2158" stroke="#000000" stroke-width="0.7017334" fill="none" /><path id="493" transform="matrix(1 0 0 -1 0 612)" d="M255 465.3047L617.1931 465.3047" stroke="#000000" stroke-width="0.7017334" fill="none" /><path id="503" transform="matrix(1 0 0 -1 0 612)" d="M255 452.2158L297.1418 452.2158" stroke="#000000" stroke-width="0.7017334" fill="none" /><path id="595" transform="matrix(1 0 0 -1 0 612)" d="M255 422.2158L583.7949 422.2158" stroke="#000000" stroke-width="0.7017334" fill="none" /><path id="680" transform="matrix(1 0 0 -1 0 612)" d="M255 405.3047L608.5963 405.3047" stroke="#000000" stroke-width="0.7017334" fill="none" /><path id="686" transform="matrix(1 0 0 -1 0 612)" d="M255 392.2158L276.7019 392.2158" stroke="#000000" stroke-width="0.7017334" fill="none" /><path id="769" transform="matrix(1 0 0 -1 0 612)" d="M255 375.3047L607.748 375.3047" stroke="#000000" stroke-width="0.7017334" fill="none" /><path id="813" transform="matrix(1 0 0 -1 0 612)" d="M255 362.2158L480.3485 362.2158" stroke="#000000" stroke-width="0.7017334" fill="none" /><path id="874" transform="matrix(1 0 0 -1 0 612)" d="M255 345.7158L475.7564 345.7158" stroke="#000000" stroke-width="0.7017334" fill="none" /><path id="935" transform="matrix(1 0 0 -1 0 612)" d="M255 329.2158L491.0974 329.2158" stroke="#000000" stroke-width="0.7017334" fill="none" /><path id="1020" transform="matrix(1 0 0 -1 0 612)" d="M255 312.3047L611.7797 312.3047" stroke="#000000" stroke-width="0.7017334" fill="none" /><path id="1025" transform="matrix(1 0 0 -1 0 612)" d="M255 299.2158L271.7594 299.2158" stroke="#000000" stroke-width="0.7017334" fill="none" /><path id="1076" transform="matrix(1 0 0 -1 0 612)" d="M255 269.2158L333.3518 269.2158" stroke="#000000" stroke-width="0.7017334" fill="none" /><path id="1159" transform="matrix(1 0 0 -1 0 612)" d="M255 252.3047L587.6217 252.3047" stroke="#000000" stroke-width="0.7017334" fill="none" /><path id="1170" transform="matrix(1 0 0 -1 0 612)" d="M255 239.2158L300.2257 239.2158" stroke="#000000" stroke-width="0.7017334" fill="none" /><path id="1250" transform="matrix(1 0 0 -1 0 612)" d="M255 209.2158L526.0089 209.2158" stroke="#000000" stroke-width="0.7017334" fill="none" /><path id="1337" transform="matrix(1 0 0 -1 0 612)" d="M255 192.3047L601.6486 192.3047" stroke="#000000" stroke-width="0.7017334" fill="none" /><path id="1351" transform="matrix(1 0 0 -1 0 612)" d="M255 179.2158L318.1734 179.2158" stroke="#000000" stroke-width="0.7017334" fill="none" /><path id="1436" transform="matrix(1 0 0 -1 0 612)" d="M255 162.3047L609.9996 162.3047" stroke="#000000" stroke-width="0.7017334" fill="none" /><path id="1448" transform="matrix(1 0 0 -1 0 612)" d="M255 149.2158L308.1212 149.2158" stroke="#000000" stroke-width="0.7017334" fill="none" /><path id="1527" transform="matrix(1 0 0 -1 0 612)" d="M255 132.3047L587.6852 132.3047" stroke="#000000" stroke-width="0.7017334" fill="none" /><path id="1544" transform="matrix(1 0 0 -1 0 612)" d="M255 119.2158L331.6711 119.2158" stroke="#000000" stroke-width="0.7017334" fill="none" /><path id="1589" transform="matrix(1 0 0 -1 0 612)" d="M255 102.7158L390.7034 102.7158" stroke="#000000" stroke-width="0.7017334" fill="none" /><path id="1650" transform="matrix(1 0 0 -1 0 612)" d="M255 86.21582L492.1707 86.21582" stroke="#000000" stroke-width="0.7017334" fill="none" /><path id="1733" transform="matrix(1 0 0 -1 0 612)" d="M255 69.71582L594.0829 69.71582" stroke="#000000" stroke-width="0.7017334" fill="none" /></g></g></g></svg>