<svg xmlns="http://www.w3.org/2000/svg" xmlns:xlink="http://www.w3.org/1999/xlink" id="body_4" preserveAspectRatio="xMinYMin meet" viewBox="0 0 1056 816"><defs><clipPath id="1"><path id="" clip-rule="evenodd" transform="matrix(1 0 0 1 0 0)" d="M0 612L0 0L0 0L792 0L792 0L792 612L792 612L0 612z" /></clipPath><clipPath id="2"><path id="" clip-rule="evenodd" transform="matrix(1 0 0 1 0 0)" d="M99.75 52.5L692.25 52.5L692.25 52.5L692.25 545.25L692.25 545.25L99.75 545.25L99.75 545.25L99.75 52.5z" /></clipPath></defs><g transform="matrix(1.333333 0 0 1.333333 0 0)"><g clip-path="url(#1)"><g clip-path="url(#2)"><path id="117" transform="matrix(1 0 0 -1 0 612)" d="M100.5 558.75L691.5 558.75L691.5 541.5L100.5 541.5L100.5 558.75z" stroke="none" fill="#E0F7FA" fill-rule="nonzero" /><path id="118" transform="matrix(1 0 0 -1 0 612)" d="M100.5 542.25L691.5 542.25L691.5 525L100.5 525L100.5 542.25z" stroke="none" fill="#FFFFFF" fill-rule="nonzero" /><path id="119" transform="matrix(1 0 0 -1 0 612)" d="M100.5 525.75L691.5 525.75L691.5 495L100.5 495L100.5 525.75z" stroke="none" fill="#E0F7FA" fill-rule="nonzero" /><path id="120" transform="matrix(1 0 0 -1 0 612)" d="M100.5 495.75L691.5 495.75L691.5 465L100.5 465L100.5 495.75z" stroke="none" fill="#FFFFFF" fill-rule="nonzero" /><path id="121" transform="matrix(1 0 0 -1 0 612)" d="M100.5 465.75L691.5 465.75L691.5 448.5L100.5 448.5L100.5 465.75z" stroke="none" fill="#E0F7FA" fill-rule="nonzero" /><path id="122" transform="matrix(1 0 0 -1 0 612)" d="M100.5 449.25L691.5 449.25L691.5 418.5L100.5 418.5L100.5 449.25z" stroke="none" fill="#FFFFFF" fill-rule="nonzero" /><path id="123" transform="matrix(1 0 0 -1 0 612)" d="M100.5 419.25L691.5 419.25L691.5 402L100.5 402L100.5 419.25z" stroke="none" fill="#E0F7FA" fill-rule="nonzero" /><path id="124" transform="matrix(1 0 0 -1 0 612)" d="M100.5 402.75L691.5 402.75L691.5 385.5L100.5 385.5L100.5 402.75z" stroke="none" fill="#FFFFFF" fill-rule="nonzero" /><path id="125" transform="matrix(1 0 0 -1 0 612)" d="M100.5 386.25L691.5 386.25L691.5 369L100.5 369L100.5 386.25z" stroke="none" fill="#E0F7FA" fill-rule="nonzero" /><path id="126" transform="matrix(1 0 0 -1 0 612)" d="M100.5 369.75L691.5 369.75L691.5 352.5L100.5 352.5L100.5 369.75z" stroke="none" fill="#FFFFFF" fill-rule="nonzero" /><path id="127" transform="matrix(1 0 0 -1 0 612)" d="M100.5 353.25L691.5 353.25L691.5 336L100.5 336L100.5 353.25z" stroke="none" fill="#E0F7FA" fill-rule="nonzero" /><path id="128" transform="matrix(1 0 0 -1 0 612)" d="M100.5 336.75L691.5 336.75L691.5 306L100.5 306L100.5 336.75z" stroke="none" fill="#FFFFFF" fill-rule="nonzero" /><path id="129" transform="matrix(1 0 0 -1 0 612)" d="M100.5 306.75L691.5 306.75L691.5 289.5L100.5 289.5L100.5 306.75z" stroke="none" fill="#E0F7FA" fill-rule="nonzero" /><path id="130" transform="matrix(1 0 0 -1 0 612)" d="M100.5 290.25L691.5 290.25L691.5 259.5L100.5 259.5L100.5 290.25z" stroke="none" fill="#FFFFFF" fill-rule="nonzero" /><path id="131" transform="matrix(1 0 0 -1 0 612)" d="M100.5 260.25L691.5 260.25L691.5 243L100.5 243L100.5 260.25z" stroke="none" fill="#E0F7FA" fill-rule="nonzero" /><path id="132" transform="matrix(1 0 0 -1 0 612)" d="M100.5 243.75L691.5 243.75L691.5 213L100.5 213L100.5 243.75z" stroke="none" fill="#FFFFFF" fill-rule="nonzero" /><path id="133" transform="matrix(1 0 0 -1 0 612)" d="M100.5 213.75L691.5 213.75L691.5 196.5L100.5 196.5L100.5 213.75z" stroke="none" fill="#E0F7FA" fill-rule="nonzero" /><path id="134" transform="matrix(1 0 0 -1 0 612)" d="M100.5 197.25L691.5 197.25L691.5 180L100.5 180L100.5 197.25z" stroke="none" fill="#FFFFFF" fill-rule="nonzero" /><path id="135" transform="matrix(1 0 0 -1 0 612)" d="M100.5 180.75L691.5 180.75L691.5 163.5L100.5 163.5L100.5 180.75z" stroke="none" fill="#E0F7FA" fill-rule="nonzero" /><path id="136" transform="matrix(1 0 0 -1 0 612)" d="M100.5 164.25L691.5 164.25L691.5 147L100.5 147L100.5 164.25z" stroke="none" fill="#FFFFFF" fill-rule="nonzero" /><path id="137" transform="matrix(1 0 0 -1 0 612)" d="M100.5 147.75L691.5 147.75L691.5 117L100.5 117L100.5 147.75z" stroke="none" fill="#E0F7FA" fill-rule="nonzero" /><path id="138" transform="matrix(1 0 0 -1 0 612)" d="M100.5 117.75L691.5 117.75L691.5 100.5L100.5 100.5L100.5 117.75z" stroke="none" fill="#FFFFFF" fill-rule="nonzero" /><path id="139" transform="matrix(1 0 0 -1 0 612)" d="M100.5 101.25L691.5 101.25L691.5 84L100.5 84L100.5 101.25z" stroke="none" fill="#E0F7FA" fill-rule="nonzero" /><path id="140" transform="matrix(1 0 0 -1 0 612)" d="M100.5 84.75L691.5 84.75L691.5 67.5L100.5 67.5L100.5 84.75z" stroke="none" fill="#FFFFFF" fill-rule="nonzero" /><path id="141" transform="matrix(1 0 0 -1 0 612)" d="M100.5 68.25L691.5 68.25L691.5 67.5L100.5 67.5zM100.5 84.75L691.5 84.75L691.5 84L100.5 84zM100.5 101.25L691.5 101.25L691.5 100.5L100.5 100.5zM100.5 117.75L691.5 117.75L691.5 117L100.5 117zM100.5 147.75L691.5 147.75L691.5 147L100.5 147zM100.5 164.25L691.5 164.25L691.5 163.5L100.5 163.5zM100.5 180.75L691.5 180.75L691.5 180L100.5 180zM100.5 197.25L691.5 197.25L691.5 196.5L100.5 196.5zM100.5 213.75L691.5 213.75L691.5 213L100.5 213zM100.5 243.75L691.5 243.75L691.5 243L100.5 243zM100.5 260.25L691.5 260.25L691.5 259.5L100.5 259.5zM100.5 290.25L691.5 290.25L691.5 289.5L100.5 289.5zM100.5 306.75L691.5 306.75L691.5 306L100.5 306zM100.5 336.75L691.5 336.75L691.5 336L100.5 336zM100.5 353.25L691.5 353.25L691.5 352.5L100.5 352.5zM100.5 369.75L691.5 369.75L691.5 369L100.5 369zM100.5 386.25L691.5 386.25L691.5 385.5L100.5 385.5zM100.5 402.75L691.5 402.75L691.5 402L100.5 402zM100.5 419.25L691.5 419.25L691.5 418.5L100.5 418.5zM100.5 449.25L691.5 449.25L691.5 448.5L100.5 448.5zM100.5 465.75L691.5 465.75L691.5 465L100.5 465zM100.5 495.75L691.5 495.75L691.5 495L100.5 495zM100.5 525.75L691.5 525.75L691.5 525L100.5 525zM100.5 542.25L691.5 542.25L691.5 541.5L100.5 541.5zM100.5 558.75L691.5 558.75L691.5 558L100.5 558zM691.5 84L691.5 68.25L690.75 68.25L690.75 84zM691.5 100.5L691.5 84.75L690.75 84.75L690.75 100.5zM691.5 117L691.5 101.25L690.75 101.25L690.75 117zM691.5 147L691.5 117.75L690.75 117.75L690.75 147zM691.5 163.5L691.5 147.75L690.75 147.75L690.75 163.5zM691.5 180L691.5 164.25L690.75 164.25L690.75 180zM691.5 196.5L691.5 180.75L690.75 180.75L690.75 196.5zM691.5 213L691.5 197.25L690.75 197.25L690.75 213zM691.5 243L691.5 213.75L690.75 213.75L690.75 243zM691.5 259.5L691.5 243.75L690.75 243.75L690.75 259.5zM691.5 289.5L691.5 260.25L690.75 260.25L690.75 289.5zM691.5 306L691.5 290.25L690.75 290.25L690.75 306zM691.5 336L691.5 306.75L690.75 306.75L690.75 336zM691.5 352.5L691.5 336.75L690.75 336.75L690.75 352.5zM691.5 369L691.5 353.25L690.75 353.25L690.75 369zM691.5 385.5L691.5 369.75L690.75 369.75L690.75 385.5zM691.5 402L691.5 386.25L690.75 386.25L690.75 402zM691.5 418.5L691.5 402.75L690.75 402.75L690.75 418.5zM691.5 448.5L691.5 419.25L690.75 419.25L690.75 448.5zM691.5 465L691.5 449.25L690.75 449.25L690.75 465zM691.5 495L691.5 465.75L690.75 465.75L690.75 495zM691.5 525L691.5 495.75L690.75 495.75L690.75 525zM691.5 541.5L691.5 525.75L690.75 525.75L690.75 541.5zM691.5 558L691.5 542.25L690.75 542.25L690.75 558zM621.75 84L621.75 68.25L621 68.25L621 84zM621.75 100.5L621.75 84.75L621 84.75L621 100.5zM621.75 117L621.75 101.25L621 101.25L621 117zM621.75 147L621.75 117.75L621 117.75L621 147zM621.75 163.5L621.75 147.75L621 147.75L621 163.5zM621.75 180L621.75 164.25L621 164.25L621 180zM621.75 196.5L621.75 180.75L621 180.75L621 196.5zM621.75 213L621.75 197.25L621 197.25L621 213zM621.75 243L621.75 213.75L621 213.75L621 243zM621.75 259.5L621.75 243.75L621 243.75L621 259.5zM621.75 289.5L621.75 260.25L621 260.25L621 289.5zM621.75 306L621.75 290.25L621 290.25L621 306zM621.75 336L621.75 306.75L621 306.75L621 336zM621.75 352.5L621.75 336.75L621 336.75L621 352.5zM621.75 369L621.75 353.25L621 353.25L621 369zM621.75 385.5L621.75 369.75L621 369.75L621 385.5zM621.75 402L621.75 386.25L621 386.25L621 402zM621.75 418.5L621.75 402.75L621 402.75L621 418.5zM621.75 448.5L621.75 419.25L621 419.25L621 448.5zM621.75 465L621.75 449.25L621 449.25L621 465zM621.75 495L621.75 465.75L621 465.75L621 495zM621.75 525L621.75 495.75L621 495.75L621 525zM621.75 541.5L621.75 525.75L621 525.75L621 541.5zM621.75 558L621.75 542.25L621 542.25L621 558zM252.75 84L252.75 68.25L252 68.25L252 84zM252.75 100.5L252.75 84.75L252 84.75L252 100.5zM252.75 117L252.75 101.25L252 101.25L252 117zM252.75 147L252.75 117.75L252 117.75L252 147zM252.75 163.5L252.75 147.75L252 147.75L252 163.5zM252.75 180L252.75 164.25L252 164.25L252 180zM252.75 196.5L252.75 180.75L252 180.75L252 196.5zM252.75 213L252.75 197.25L252 197.25L252 213zM252.75 243L252.75 213.75L252 213.75L252 243zM252.75 259.5L252.75 243.75L252 243.75L252 259.5zM252.75 289.5L252.75 260.25L252 260.25L252 289.5zM252.75 306L252.75 290.25L252 290.25L252 306zM252.75 336L252.75 306.75L252 306.75L252 336zM252.75 352.5L252.75 336.75L252 336.75L252 352.5zM252.75 369L252.75 353.25L252 353.25L252 369zM252.75 385.5L252.75 369.75L252 369.75L252 385.5zM252.75 402L252.75 386.25L252 386.25L252 402zM252.75 418.5L252.75 402.75L252 402.75L252 418.5zM252.75 448.5L252.75 419.25L252 419.25L252 448.5zM252.75 465L252.75 449.25L252 449.25L252 465zM252.75 495L252.75 465.75L252 465.75L252 495zM252.75 525L252.75 495.75L252 495.75L252 525zM252.75 541.5L252.75 525.75L252 525.75L252 541.5zM252.75 558L252.75 542.25L252 542.25L252 558zM177 84L177 68.25L176.25 68.25L176.25 84zM177 100.5L177 84.75L176.25 84.75L176.25 100.5zM177 117L177 101.25L176.25 101.25L176.25 117zM177 147L177 117.75L176.25 117.75L176.25 147zM177 163.5L177 147.75L176.25 147.75L176.25 163.5zM177 180L177 164.25L176.25 164.25L176.25 180zM177 196.5L177 180.75L176.25 180.75L176.25 196.5zM177 213L177 197.25L176.25 197.25L176.25 213zM177 243L177 213.75L176.25 213.75L176.25 243zM177 259.5L177 243.75L176.25 243.75L176.25 259.5zM177 289.5L177 260.25L176.25 260.25L176.25 289.5zM177 306L177 290.25L176.25 290.25L176.25 306zM177 336L177 306.75L176.25 306.75L176.25 336zM177 352.5L177 336.75L176.25 336.75L176.25 352.5zM177 369L177 353.25L176.25 353.25L176.25 369zM177 385.5L177 369.75L176.25 369.75L176.25 385.5zM177 402L177 386.25L176.25 386.25L176.25 402zM177 418.5L177 402.75L176.25 402.75L176.25 418.5zM177 448.5L177 419.25L176.25 419.25L176.25 448.5zM177 465L177 449.25L176.25 449.25L176.25 465zM177 495L177 465.75L176.25 465.75L176.25 495zM177 525L177 495.75L176.25 495.75L176.25 525zM177 541.5L177 525.75L176.25 525.75L176.25 541.5zM177 558L177 542.25L176.25 542.25L176.25 558zM101.25 84L101.25 68.25L100.5 68.25L100.5 84zM101.25 100.5L101.25 84.75L100.5 84.75L100.5 100.5zM101.25 117L101.25 101.25L100.5 101.25L100.5 117zM101.25 147L101.25 117.75L100.5 117.75L100.5 147zM101.25 163.5L101.25 147.75L100.5 147.75L100.5 163.5zM101.25 180L101.25 164.25L100.5 164.25L100.5 180zM101.25 196.5L101.25 180.75L100.5 180.75L100.5 196.5zM101.25 213L101.25 197.25L100.5 197.25L100.5 213zM101.25 243L101.25 213.75L100.5 213.75L100.5 243zM101.25 259.5L101.25 243.75L100.5 243.75L100.5 259.5zM101.25 289.5L101.25 260.25L100.5 260.25L100.5 289.5zM101.25 306L101.25 290.25L100.5 290.25L100.5 306zM101.25 336L101.25 306.75L100.5 306.75L100.5 336zM101.25 352.5L101.25 336.75L100.5 336.75L100.5 352.5zM101.25 369L101.25 353.25L100.5 353.25L100.5 369zM101.25 385.5L101.25 369.75L100.5 369.75L100.5 385.5zM101.25 402L101.25 386.25L100.5 386.25L100.5 402zM101.25 418.5L101.25 402.75L100.5 402.75L100.5 418.5zM101.25 448.5L101.25 419.25L100.5 419.25L100.5 448.5zM101.25 465L101.25 449.25L100.5 449.25L100.5 465zM101.25 495L101.25 465.75L100.5 465.75L100.5 495zM101.25 525L101.25 495.75L100.5 495.75L100.5 525zM101.25 541.5L101.25 525.75L100.5 525.75L100.5 541.5zM101.25 558L101.25 542.25L100.5 542.25L100.5 558z" stroke="none" fill="#000000" fill-rule="nonzero" fill-opacity="0.1490196" /><path id="172" transform="matrix(1 0 0 -1 0 612)" d="M255 545.2158L350.2526 545.2158" stroke="#000000" stroke-width="0.7017334" fill="none" /><path id="243" transform="matrix(1 0 0 -1 0 612)" d="M255 528.7158L493.4009 528.7158" stroke="#000000" stroke-width="0.7017334" fill="none" /><path id="330" transform="matrix(1 0 0 -1 0 612)" d="M255 498.7158L578.2974 498.7158" stroke="#000000" stroke-width="0.7017334" fill="none" /><path id="416" transform="matrix(1 0 0 -1 0 612)" d="M255 481.8049L586.6797 481.8049" stroke="#000000" stroke-width="0.7017334" fill="none" /><path id="454" transform="matrix(1 0 0 -1 0 612)" d="M255 468.7158L436.4841 468.7158" stroke="#000000" stroke-width="0.7017334" fill="none" /><path id="525" transform="matrix(1 0 0 -1 0 612)" d="M255 452.2158L527.2233 452.2158" stroke="#000000" stroke-width="0.7017334" fill="none" /><path id="582" transform="matrix(1 0 0 -1 0 612)" d="M255 422.2158L395.5254 422.2158" stroke="#000000" stroke-width="0.7017334" fill="none" /><path id="621" transform="matrix(1 0 0 -1 0 612)" d="M255 405.7158L375.3524 405.7158" stroke="#000000" stroke-width="0.7017334" fill="none" /><path id="694" transform="matrix(1 0 0 -1 0 612)" d="M255 389.2158L532.8466 389.2158" stroke="#000000" stroke-width="0.7017334" fill="none" /><path id="744" transform="matrix(1 0 0 -1 0 612)" d="M255 372.7158L428.7823 372.7158" stroke="#000000" stroke-width="0.7017334" fill="none" /><path id="805" transform="matrix(1 0 0 -1 0 612)" d="M255 356.2158L504.9666 356.2158" stroke="#000000" stroke-width="0.7017334" fill="none" /><path id="883" transform="matrix(1 0 0 -1 0 612)" d="M255 339.7158L561.0774 339.7158" stroke="#000000" stroke-width="0.7017334" fill="none" /><path id="967" transform="matrix(1 0 0 -1 0 612)" d="M255 322.8049L598.9938 322.8049" stroke="#000000" stroke-width="0.7017334" fill="none" /><path id="976" transform="matrix(1 0 0 -1 0 612)" d="M255 309.7158L288.3879 309.7158" stroke="#000000" stroke-width="0.7017334" fill="none" /><path id="1044" transform="matrix(1 0 0 -1 0 612)" d="M255 293.2158L548.0301 293.2158" stroke="#000000" stroke-width="0.7017334" fill="none" /><path id="1143" transform="matrix(1 0 0 -1 0 612)" d="M255 276.3049L612.4758 276.3049" stroke="#000000" stroke-width="0.7017334" fill="none" /><path id="1159" transform="matrix(1 0 0 -1 0 612)" d="M255 263.2158L324.184 263.2158" stroke="#000000" stroke-width="0.7017334" fill="none" /><path id="1221" transform="matrix(1 0 0 -1 0 612)" d="M255 246.7158L496.2703 246.7158" stroke="#000000" stroke-width="0.7017334" fill="none" /><path id="1283" transform="matrix(1 0 0 -1 0 612)" d="M255 216.7158L435.861 216.7158" stroke="#000000" stroke-width="0.7017334" fill="none" /><path id="1340" transform="matrix(1 0 0 -1 0 612)" d="M255 200.2158L455.4896 200.2158" stroke="#000000" stroke-width="0.7017334" fill="none" /><path id="1401" transform="matrix(1 0 0 -1 0 612)" d="M255 183.7158L478.9348 183.7158" stroke="#000000" stroke-width="0.7017334" fill="none" /><path id="1441" transform="matrix(1 0 0 -1 0 612)" d="M255 167.2158L363.0014 167.2158" stroke="#000000" stroke-width="0.7017334" fill="none" /><path id="1505" transform="matrix(1 0 0 -1 0 612)" d="M255 150.7158L501.9876 150.7158" stroke="#000000" stroke-width="0.7017334" fill="none" /><path id="1583" transform="matrix(1 0 0 -1 0 612)" d="M255 133.8049L597.1147 133.8049" stroke="#000000" stroke-width="0.7017334" fill="none" /><path id="1606" transform="matrix(1 0 0 -1 0 612)" d="M255 120.7158L353.4724 120.7158" stroke="#000000" stroke-width="0.7017334" fill="none" /><path id="1660" transform="matrix(1 0 0 -1 0 612)" d="M255 104.2158L440.348 104.2158" stroke="#000000" stroke-width="0.7017334" fill="none" /><path id="1731" transform="matrix(1 0 0 -1 0 612)" d="M255 87.71582L521.9878 87.71582" stroke="#000000" stroke-width="0.7017334" fill="none" /><path id="1814" transform="matrix(1 0 0 -1 0 612)" d="M255 71.21582L567.0042 71.21582" stroke="#000000" stroke-width="0.7017334" fill="none" /></g></g></g></svg>