<svg xmlns="http://www.w3.org/2000/svg" xmlns:xlink="http://www.w3.org/1999/xlink" id="body_22" preserveAspectRatio="xMinYMin meet" viewBox="0 0 1056 816"><defs><clipPath id="1"><path id="" clip-rule="evenodd" transform="matrix(1 0 0 1 0 0)" d="M0 612L0 0L0 0L792 0L792 0L792 612L792 612L0 612z" /></clipPath><clipPath id="2"><path id="" clip-rule="evenodd" transform="matrix(1 0 0 1 0 0)" d="M99.75 52.5L692.25 52.5L692.25 52.5L692.25 549.75L692.25 549.75L99.75 549.75L99.75 549.75L99.75 52.5z" /></clipPath></defs><g transform="matrix(1.333333 0 0 1.333333 0 0)"><g clip-path="url(#1)"><g clip-path="url(#2)"><path id="118" transform="matrix(1 0 0 -1 0 612)" d="M100.5 558.75L691.5 558.75L691.5 541.5L100.5 541.5L100.5 558.75z" stroke="none" fill="#E0F7FA" fill-rule="nonzero" /><path id="119" transform="matrix(1 0 0 -1 0 612)" d="M100.5 542.25L691.5 542.25L691.5 496.5L100.5 496.5L100.5 542.25z" stroke="none" fill="#FFFFFF" fill-rule="nonzero" /><path id="120" transform="matrix(1 0 0 -1 0 612)" d="M100.5 497.25L691.5 497.25L691.5 480L100.5 480L100.5 497.25z" stroke="none" fill="#E0F7FA" fill-rule="nonzero" /><path id="121" transform="matrix(1 0 0 -1 0 612)" d="M100.5 480.75L691.5 480.75L691.5 463.5L100.5 463.5L100.5 480.75z" stroke="none" fill="#FFFFFF" fill-rule="nonzero" /><path id="122" transform="matrix(1 0 0 -1 0 612)" d="M100.5 464.25L691.5 464.25L691.5 433.5L100.5 433.5L100.5 464.25z" stroke="none" fill="#E0F7FA" fill-rule="nonzero" /><path id="123" transform="matrix(1 0 0 -1 0 612)" d="M100.5 434.25L691.5 434.25L691.5 417L100.5 417L100.5 434.25z" stroke="none" fill="#FFFFFF" fill-rule="nonzero" /><path id="124" transform="matrix(1 0 0 -1 0 612)" d="M100.5 417.75L691.5 417.75L691.5 387L100.5 387L100.5 417.75z" stroke="none" fill="#E0F7FA" fill-rule="nonzero" /><path id="125" transform="matrix(1 0 0 -1 0 612)" d="M100.5 387.75L691.5 387.75L691.5 357L100.5 357L100.5 387.75z" stroke="none" fill="#FFFFFF" fill-rule="nonzero" /><path id="126" transform="matrix(1 0 0 -1 0 612)" d="M100.5 357.75L691.5 357.75L691.5 340.5L100.5 340.5L100.5 357.75z" stroke="none" fill="#E0F7FA" fill-rule="nonzero" /><path id="127" transform="matrix(1 0 0 -1 0 612)" d="M100.5 341.25L691.5 341.25L691.5 324L100.5 324L100.5 341.25z" stroke="none" fill="#FFFFFF" fill-rule="nonzero" /><path id="128" transform="matrix(1 0 0 -1 0 612)" d="M100.5 324.75L691.5 324.75L691.5 307.5L100.5 307.5L100.5 324.75z" stroke="none" fill="#E0F7FA" fill-rule="nonzero" /><path id="129" transform="matrix(1 0 0 -1 0 612)" d="M100.5 308.25L691.5 308.25L691.5 291L100.5 291L100.5 308.25z" stroke="none" fill="#FFFFFF" fill-rule="nonzero" /><path id="130" transform="matrix(1 0 0 -1 0 612)" d="M100.5 291.75L691.5 291.75L691.5 261L100.5 261L100.5 291.75z" stroke="none" fill="#E0F7FA" fill-rule="nonzero" /><path id="131" transform="matrix(1 0 0 -1 0 612)" d="M100.5 261.75L691.5 261.75L691.5 231L100.5 231L100.5 261.75z" stroke="none" fill="#FFFFFF" fill-rule="nonzero" /><path id="132" transform="matrix(1 0 0 -1 0 612)" d="M100.5 231.75L691.5 231.75L691.5 201L100.5 201L100.5 231.75z" stroke="none" fill="#E0F7FA" fill-rule="nonzero" /><path id="133" transform="matrix(1 0 0 -1 0 612)" d="M100.5 201.75L691.5 201.75L691.5 184.5L100.5 184.5L100.5 201.75z" stroke="none" fill="#FFFFFF" fill-rule="nonzero" /><path id="134" transform="matrix(1 0 0 -1 0 612)" d="M100.5 185.25L691.5 185.25L691.5 168L100.5 168L100.5 185.25z" stroke="none" fill="#E0F7FA" fill-rule="nonzero" /><path id="135" transform="matrix(1 0 0 -1 0 612)" d="M100.5 168.75L691.5 168.75L691.5 123L100.5 123L100.5 168.75z" stroke="none" fill="#FFFFFF" fill-rule="nonzero" /><path id="136" transform="matrix(1 0 0 -1 0 612)" d="M100.5 123.75L691.5 123.75L691.5 93L100.5 93L100.5 123.75z" stroke="none" fill="#E0F7FA" fill-rule="nonzero" /><path id="137" transform="matrix(1 0 0 -1 0 612)" d="M100.5 93.75L691.5 93.75L691.5 63L100.5 63L100.5 93.75z" stroke="none" fill="#FFFFFF" fill-rule="nonzero" /><path id="138" transform="matrix(1 0 0 -1 0 612)" d="M100.5 63.75L691.5 63.75L691.5 63L100.5 63zM100.5 93.75L691.5 93.75L691.5 93L100.5 93zM100.5 123.75L691.5 123.75L691.5 123L100.5 123zM100.5 168.75L691.5 168.75L691.5 168L100.5 168zM100.5 185.25L691.5 185.25L691.5 184.5L100.5 184.5zM100.5 201.75L691.5 201.75L691.5 201L100.5 201zM100.5 231.75L691.5 231.75L691.5 231L100.5 231zM100.5 261.75L691.5 261.75L691.5 261L100.5 261zM100.5 291.75L691.5 291.75L691.5 291L100.5 291zM100.5 308.25L691.5 308.25L691.5 307.5L100.5 307.5zM100.5 324.75L691.5 324.75L691.5 324L100.5 324zM100.5 341.25L691.5 341.25L691.5 340.5L100.5 340.5zM100.5 357.75L691.5 357.75L691.5 357L100.5 357zM100.5 387.75L691.5 387.75L691.5 387L100.5 387zM100.5 417.75L691.5 417.75L691.5 417L100.5 417zM100.5 434.25L691.5 434.25L691.5 433.5L100.5 433.5zM100.5 464.25L691.5 464.25L691.5 463.5L100.5 463.5zM100.5 480.75L691.5 480.75L691.5 480L100.5 480zM100.5 497.25L691.5 497.25L691.5 496.5L100.5 496.5zM100.5 542.25L691.5 542.25L691.5 541.5L100.5 541.5zM100.5 558.75L691.5 558.75L691.5 558L100.5 558zM691.5 93L691.5 63.75L690.75 63.75L690.75 93zM691.5 123L691.5 93.75L690.75 93.75L690.75 123zM691.5 168L691.5 123.75L690.75 123.75L690.75 168zM691.5 184.5L691.5 168.75L690.75 168.75L690.75 184.5zM691.5 201L691.5 185.25L690.75 185.25L690.75 201zM691.5 231L691.5 201.75L690.75 201.75L690.75 231zM691.5 261L691.5 231.75L690.75 231.75L690.75 261zM691.5 291L691.5 261.75L690.75 261.75L690.75 291zM691.5 307.5L691.5 291.75L690.75 291.75L690.75 307.5zM691.5 324L691.5 308.25L690.75 308.25L690.75 324zM691.5 340.5L691.5 324.75L690.75 324.75L690.75 340.5zM691.5 357L691.5 341.25L690.75 341.25L690.75 357zM691.5 387L691.5 357.75L690.75 357.75L690.75 387zM691.5 417L691.5 387.75L690.75 387.75L690.75 417zM691.5 433.5L691.5 417.75L690.75 417.75L690.75 433.5zM691.5 463.5L691.5 434.25L690.75 434.25L690.75 463.5zM691.5 480L691.5 464.25L690.75 464.25L690.75 480zM691.5 496.5L691.5 480.75L690.75 480.75L690.75 496.5zM691.5 541.5L691.5 497.25L690.75 497.25L690.75 541.5zM691.5 558L691.5 542.25L690.75 542.25L690.75 558zM621.75 93L621.75 63.75L621 63.75L621 93zM621.75 123L621.75 93.75L621 93.75L621 123zM621.75 168L621.75 123.75L621 123.75L621 168zM621.75 184.5L621.75 168.75L621 168.75L621 184.5zM621.75 201L621.75 185.25L621 185.25L621 201zM621.75 231L621.75 201.75L621 201.75L621 231zM621.75 261L621.75 231.75L621 231.75L621 261zM621.75 291L621.75 261.75L621 261.75L621 291zM621.75 307.5L621.75 291.75L621 291.75L621 307.5zM621.75 324L621.75 308.25L621 308.25L621 324zM621.75 340.5L621.75 324.75L621 324.75L621 340.5zM621.75 357L621.75 341.25L621 341.25L621 357zM621.75 387L621.75 357.75L621 357.75L621 387zM621.75 417L621.75 387.75L621 387.75L621 417zM621.75 433.5L621.75 417.75L621 417.75L621 433.5zM621.75 463.5L621.75 434.25L621 434.25L621 463.5zM621.75 480L621.75 464.25L621 464.25L621 480zM621.75 496.5L621.75 480.75L621 480.75L621 496.5zM621.75 541.5L621.75 497.25L621 497.25L621 541.5zM621.75 558L621.75 542.25L621 542.25L621 558zM252.75 93L252.75 63.75L252 63.75L252 93zM252.75 123L252.75 93.75L252 93.75L252 123zM252.75 168L252.75 123.75L252 123.75L252 168zM252.75 184.5L252.75 168.75L252 168.75L252 184.5zM252.75 201L252.75 185.25L252 185.25L252 201zM252.75 231L252.75 201.75L252 201.75L252 231zM252.75 261L252.75 231.75L252 231.75L252 261zM252.75 291L252.75 261.75L252 261.75L252 291zM252.75 307.5L252.75 291.75L252 291.75L252 307.5zM252.75 324L252.75 308.25L252 308.25L252 324zM252.75 340.5L252.75 324.75L252 324.75L252 340.5zM252.75 357L252.75 341.25L252 341.25L252 357zM252.75 387L252.75 357.75L252 357.75L252 387zM252.75 417L252.75 387.75L252 387.75L252 417zM252.75 433.5L252.75 417.75L252 417.75L252 433.5zM252.75 463.5L252.75 434.25L252 434.25L252 463.5zM252.75 480L252.75 464.25L252 464.25L252 480zM252.75 496.5L252.75 480.75L252 480.75L252 496.5zM252.75 541.5L252.75 497.25L252 497.25L252 541.5zM252.75 558L252.75 542.25L252 542.25L252 558zM177 93L177 63.75L176.25 63.75L176.25 93zM177 123L177 93.75L176.25 93.75L176.25 123zM177 168L177 123.75L176.25 123.75L176.25 168zM177 184.5L177 168.75L176.25 168.75L176.25 184.5zM177 201L177 185.25L176.25 185.25L176.25 201zM177 231L177 201.75L176.25 201.75L176.25 231zM177 261L177 231.75L176.25 231.75L176.25 261zM177 291L177 261.75L176.25 261.75L176.25 291zM177 307.5L177 291.75L176.25 291.75L176.25 307.5zM177 324L177 308.25L176.25 308.25L176.25 324zM177 340.5L177 324.75L176.25 324.75L176.25 340.5zM177 357L177 341.25L176.25 341.25L176.25 357zM177 387L177 357.75L176.25 357.75L176.25 387zM177 417L177 387.75L176.25 387.75L176.25 417zM177 433.5L177 417.75L176.25 417.75L176.25 433.5zM177 463.5L177 434.25L176.25 434.25L176.25 463.5zM177 480L177 464.25L176.25 464.25L176.25 480zM177 496.5L177 480.75L176.25 480.75L176.25 496.5zM177 541.5L177 497.25L176.25 497.25L176.25 541.5zM177 558L177 542.25L176.25 542.25L176.25 558zM101.25 93L101.25 63.75L100.5 63.75L100.5 93zM101.25 123L101.25 93.75L100.5 93.75L100.5 123zM101.25 168L101.25 123.75L100.5 123.75L100.5 168zM101.25 184.5L101.25 168.75L100.5 168.75L100.5 184.5zM101.25 201L101.25 185.25L100.5 185.25L100.5 201zM101.25 231L101.25 201.75L100.5 201.75L100.5 231zM101.25 261L101.25 231.75L100.5 231.75L100.5 261zM101.25 291L101.25 261.75L100.5 261.75L100.5 291zM101.25 307.5L101.25 291.75L100.5 291.75L100.5 307.5zM101.25 324L101.25 308.25L100.5 308.25L100.5 324zM101.25 340.5L101.25 324.75L100.5 324.75L100.5 340.5zM101.25 357L101.25 341.25L100.5 341.25L100.5 357zM101.25 387L101.25 357.75L100.5 357.75L100.5 387zM101.25 417L101.25 387.75L100.5 387.75L100.5 417zM101.25 433.5L101.25 417.75L100.5 417.75L100.5 433.5zM101.25 463.5L101.25 434.25L100.5 434.25L100.5 463.5zM101.25 480L101.25 464.25L100.5 464.25L100.5 480zM101.25 496.5L101.25 480.75L100.5 480.75L100.5 496.5zM101.25 541.5L101.25 497.25L100.5 497.25L100.5 541.5zM101.25 558L101.25 542.25L100.5 542.25L100.5 558z" stroke="none" fill="#000000" fill-rule="nonzero" fill-opacity="0.1490196" /><path id="188" transform="matrix(1 0 0 -1 0 612)" d="M255 545.2158L431.2116 545.2158" stroke="#000000" stroke-width="0.7017334" fill="none" /><path id="293" transform="matrix(1 0 0 -1 0 612)" d="M255 528.0586L600.5855 528.0586" stroke="#000000" stroke-width="0.7017334" fill="none" /><path id="358" transform="matrix(1 0 0 -1 0 612)" d="M255 514.9697L580.7897 514.9697" stroke="#000000" stroke-width="0.7017334" fill="none" /><path id="369" transform="matrix(1 0 0 -1 0 612)" d="M255 500.2158L302.3985 500.2158" stroke="#000000" stroke-width="0.7017334" fill="none" /><path id="371" transform="matrix(1 0 0 -1 0 612)" d="M302.3985 500.2939L313.1211 500.2939" stroke="#000000" stroke-width="0.7855225" fill="none" /><path id="439" transform="matrix(1 0 0 -1 0 612)" d="M255 483.7158L489.4742 483.7158" stroke="#000000" stroke-width="0.7017334" fill="none" /><path id="469" transform="matrix(1 0 0 -1 0 612)" d="M255 467.2158L334.6083 467.2158" stroke="#000000" stroke-width="0.7017334" fill="none" /><path id="516" transform="matrix(1 0 0 -1 0 612)" d="M255 437.2158L393.3474 437.2158" stroke="#000000" stroke-width="0.7017334" fill="none" /><path id="597" transform="matrix(1 0 0 -1 0 612)" d="M255 420.7158L577.9884 420.7158" stroke="#000000" stroke-width="0.7017334" fill="none" /><path id="690" transform="matrix(1 0 0 -1 0 612)" d="M255 403.8047L599.4964 403.8047" stroke="#000000" stroke-width="0.7017334" fill="none" /><path id="701" transform="matrix(1 0 0 -1 0 612)" d="M255 390.7158L304.2101 390.7158" stroke="#000000" stroke-width="0.7017334" fill="none" /><path id="753" transform="matrix(1 0 0 -1 0 612)" d="M255 360.7158L388.9337 360.7158" stroke="#000000" stroke-width="0.7017334" fill="none" /><path id="829" transform="matrix(1 0 0 -1 0 612)" d="M255 344.2158L563.0671 344.2158" stroke="#000000" stroke-width="0.7017334" fill="none" /><path id="901" transform="matrix(1 0 0 -1 0 612)" d="M255 327.7158L509.7049 327.7158" stroke="#000000" stroke-width="0.7017334" fill="none" /><path id="970" transform="matrix(1 0 0 -1 0 612)" d="M255 311.2158L504.286 311.2158" stroke="#000000" stroke-width="0.7017334" fill="none" /><path id="1051" transform="matrix(1 0 0 -1 0 612)" d="M255 294.7158L602.0516 294.7158" stroke="#000000" stroke-width="0.7017334" fill="none" /><path id="1138" transform="matrix(1 0 0 -1 0 612)" d="M255 277.8047L618.5336 277.8047" stroke="#000000" stroke-width="0.7017334" fill="none" /><path id="1164" transform="matrix(1 0 0 -1 0 612)" d="M255 264.7158L377.3262 264.7158" stroke="#000000" stroke-width="0.7017334" fill="none" /><path id="1229" transform="matrix(1 0 0 -1 0 612)" d="M255 234.7158L472.9244 234.7158" stroke="#000000" stroke-width="0.7017334" fill="none" /><path id="1304" transform="matrix(1 0 0 -1 0 612)" d="M255 217.8047L577.6954 217.8047" stroke="#000000" stroke-width="0.7017334" fill="none" /><path id="1343" transform="matrix(1 0 0 -1 0 612)" d="M255 204.7158L461.0968 204.7158" stroke="#000000" stroke-width="0.7017334" fill="none" /><path id="1419" transform="matrix(1 0 0 -1 0 612)" d="M255 188.2158L584.6171 188.2158" stroke="#000000" stroke-width="0.7017334" fill="none" /><path id="1503" transform="matrix(1 0 0 -1 0 612)" d="M255 171.7158L596.7271 171.7158" stroke="#000000" stroke-width="0.7017334" fill="none" /><path id="1586" transform="matrix(1 0 0 -1 0 612)" d="M255 126.7158L550.4121 126.7158" stroke="#000000" stroke-width="0.7017334" fill="none" /><path id="1675" transform="matrix(1 0 0 -1 0 612)" d="M255 109.8047L594.0253 109.8047" stroke="#000000" stroke-width="0.7017334" fill="none" /><path id="1708" transform="matrix(1 0 0 -1 0 612)" d="M255 96.71582L406.7194 96.71582" stroke="#000000" stroke-width="0.7017334" fill="none" /><path id="1782" transform="matrix(1 0 0 -1 0 612)" d="M255 79.80469L575.213 79.80469" stroke="#000000" stroke-width="0.7017334" fill="none" /><path id="1805" transform="matrix(1 0 0 -1 0 612)" d="M255 66.71582L376.813 66.71582" stroke="#000000" stroke-width="0.7017334" fill="none" /></g></g></g></svg>