<svg xmlns="http://www.w3.org/2000/svg" xmlns:xlink="http://www.w3.org/1999/xlink" id="body_8" preserveAspectRatio="xMinYMin meet" viewBox="0 0 1056 816"><defs><clipPath id="1"><path id="" clip-rule="evenodd" transform="matrix(1 0 0 1 0 0)" d="M0 612L0 0L0 0L792 0L792 0L792 612L792 612L0 612z" /></clipPath><clipPath id="2"><path id="" clip-rule="evenodd" transform="matrix(1 0 0 1 0 0)" d="M99.75 52.5L692.25 52.5L692.25 52.5L692.25 550.5L692.25 550.5L99.75 550.5L99.75 550.5L99.75 52.5z" /></clipPath></defs><g transform="matrix(1.333333 0 0 1.333333 0 0)"><g clip-path="url(#1)"><g clip-path="url(#2)"><path id="117" transform="matrix(1 0 0 -1 0 612)" d="M100.5 558.75L691.5 558.75L691.5 541.5L100.5 541.5L100.5 558.75z" stroke="none" fill="#FFFFFF" fill-rule="nonzero" /><path id="118" transform="matrix(1 0 0 -1 0 612)" d="M100.5 542.25L691.5 542.25L691.5 511.5L100.5 511.5L100.5 542.25z" stroke="none" fill="#E0F7FA" fill-rule="nonzero" /><path id="119" transform="matrix(1 0 0 -1 0 612)" d="M100.5 512.25L691.5 512.25L691.5 481.5L100.5 481.5L100.5 512.25z" stroke="none" fill="#FFFFFF" fill-rule="nonzero" /><path id="120" transform="matrix(1 0 0 -1 0 612)" d="M100.5 482.25L691.5 482.25L691.5 465L100.5 465L100.5 482.25z" stroke="none" fill="#E0F7FA" fill-rule="nonzero" /><path id="121" transform="matrix(1 0 0 -1 0 612)" d="M100.5 465.75L691.5 465.75L691.5 448.5L100.5 448.5L100.5 465.75z" stroke="none" fill="#FFFFFF" fill-rule="nonzero" /><path id="122" transform="matrix(1 0 0 -1 0 612)" d="M100.5 449.25L691.5 449.25L691.5 418.5L100.5 418.5L100.5 449.25z" stroke="none" fill="#E0F7FA" fill-rule="nonzero" /><path id="123" transform="matrix(1 0 0 -1 0 612)" d="M100.5 419.25L691.5 419.25L691.5 388.5L100.5 388.5L100.5 419.25z" stroke="none" fill="#FFFFFF" fill-rule="nonzero" /><path id="124" transform="matrix(1 0 0 -1 0 612)" d="M100.5 389.25L691.5 389.25L691.5 345.75L100.5 345.75L100.5 389.25z" stroke="none" fill="#E0F7FA" fill-rule="nonzero" /><path id="125" transform="matrix(1 0 0 -1 0 612)" d="M100.5 346.5L691.5 346.5L691.5 329.25L100.5 329.25L100.5 346.5z" stroke="none" fill="#FFFFFF" fill-rule="nonzero" /><path id="126" transform="matrix(1 0 0 -1 0 612)" d="M100.5 330L691.5 330L691.5 312.75L100.5 312.75L100.5 330z" stroke="none" fill="#E0F7FA" fill-rule="nonzero" /><path id="127" transform="matrix(1 0 0 -1 0 612)" d="M100.5 313.5L691.5 313.5L691.5 296.25L100.5 296.25L100.5 313.5z" stroke="none" fill="#FFFFFF" fill-rule="nonzero" /><path id="128" transform="matrix(1 0 0 -1 0 612)" d="M100.5 297L691.5 297L691.5 264.75L100.5 264.75L100.5 297z" stroke="none" fill="#E0F7FA" fill-rule="nonzero" /><path id="129" transform="matrix(1 0 0 -1 0 612)" d="M100.5 265.5L691.5 265.5L691.5 248.25L100.5 248.25L100.5 265.5z" stroke="none" fill="#FFFFFF" fill-rule="nonzero" /><path id="130" transform="matrix(1 0 0 -1 0 612)" d="M100.5 249L691.5 249L691.5 218.25L100.5 218.25L100.5 249z" stroke="none" fill="#E0F7FA" fill-rule="nonzero" /><path id="131" transform="matrix(1 0 0 -1 0 612)" d="M100.5 219L691.5 219L691.5 201.75L100.5 201.75L100.5 219z" stroke="none" fill="#FFFFFF" fill-rule="nonzero" /><path id="132" transform="matrix(1 0 0 -1 0 612)" d="M100.5 202.5L691.5 202.5L691.5 185.25L100.5 185.25L100.5 202.5z" stroke="none" fill="#E0F7FA" fill-rule="nonzero" /><path id="133" transform="matrix(1 0 0 -1 0 612)" d="M100.5 186L691.5 186L691.5 155.25L100.5 155.25L100.5 186z" stroke="none" fill="#FFFFFF" fill-rule="nonzero" /><path id="134" transform="matrix(1 0 0 -1 0 612)" d="M100.5 156L691.5 156L691.5 125.25L100.5 125.25L100.5 156z" stroke="none" fill="#E0F7FA" fill-rule="nonzero" /><path id="135" transform="matrix(1 0 0 -1 0 612)" d="M100.5 126L691.5 126L691.5 108.75L100.5 108.75L100.5 126z" stroke="none" fill="#FFFFFF" fill-rule="nonzero" /><path id="136" transform="matrix(1 0 0 -1 0 612)" d="M100.5 109.5L691.5 109.5L691.5 92.25L100.5 92.25L100.5 109.5z" stroke="none" fill="#E0F7FA" fill-rule="nonzero" /><path id="137" transform="matrix(1 0 0 -1 0 612)" d="M100.5 93L691.5 93L691.5 62.25L100.5 62.25L100.5 93z" stroke="none" fill="#FFFFFF" fill-rule="nonzero" /><path id="138" transform="matrix(1 0 0 -1 0 612)" d="M100.5 63L691.5 63L691.5 62.25L100.5 62.25zM100.5 93L691.5 93L691.5 92.25L100.5 92.25zM100.5 109.5L691.5 109.5L691.5 108.75L100.5 108.75zM100.5 126L691.5 126L691.5 125.25L100.5 125.25zM100.5 156L691.5 156L691.5 155.25L100.5 155.25zM100.5 186L691.5 186L691.5 185.25L100.5 185.25zM100.5 202.5L691.5 202.5L691.5 201.75L100.5 201.75zM100.5 219L691.5 219L691.5 218.25L100.5 218.25zM100.5 249L691.5 249L691.5 248.25L100.5 248.25zM100.5 265.5L691.5 265.5L691.5 264.75L100.5 264.75zM100.5 297L691.5 297L691.5 296.25L100.5 296.25zM100.5 313.5L691.5 313.5L691.5 312.75L100.5 312.75zM100.5 330L691.5 330L691.5 329.25L100.5 329.25zM100.5 346.5L691.5 346.5L691.5 345.75L100.5 345.75zM100.5 389.25L691.5 389.25L691.5 388.5L100.5 388.5zM100.5 419.25L691.5 419.25L691.5 418.5L100.5 418.5zM100.5 449.25L691.5 449.25L691.5 448.5L100.5 448.5zM100.5 465.75L691.5 465.75L691.5 465L100.5 465zM100.5 482.25L691.5 482.25L691.5 481.5L100.5 481.5zM100.5 512.25L691.5 512.25L691.5 511.5L100.5 511.5zM100.5 542.25L691.5 542.25L691.5 541.5L100.5 541.5zM100.5 558.75L691.5 558.75L691.5 558L100.5 558zM691.5 92.25L691.5 63L690.75 63L690.75 92.25zM691.5 108.75L691.5 93L690.75 93L690.75 108.75zM691.5 125.25L691.5 109.5L690.75 109.5L690.75 125.25zM691.5 155.25L691.5 126L690.75 126L690.75 155.25zM691.5 185.25L691.5 156L690.75 156L690.75 185.25zM691.5 201.75L691.5 186L690.75 186L690.75 201.75zM691.5 218.25L691.5 202.5L690.75 202.5L690.75 218.25zM691.5 248.25L691.5 219L690.75 219L690.75 248.25zM691.5 264.75L691.5 249L690.75 249L690.75 264.75zM691.5 296.25L691.5 265.5L690.75 265.5L690.75 296.25zM691.5 312.75L691.5 297L690.75 297L690.75 312.75zM691.5 329.25L691.5 313.5L690.75 313.5L690.75 329.25zM691.5 345.75L691.5 330L690.75 330L690.75 345.75zM691.5 388.5L691.5 346.5L690.75 346.5L690.75 388.5zM691.5 418.5L691.5 389.25L690.75 389.25L690.75 418.5zM691.5 448.5L691.5 419.25L690.75 419.25L690.75 448.5zM691.5 465L691.5 449.25L690.75 449.25L690.75 465zM691.5 481.5L691.5 465.75L690.75 465.75L690.75 481.5zM691.5 511.5L691.5 482.25L690.75 482.25L690.75 511.5zM691.5 541.5L691.5 512.25L690.75 512.25L690.75 541.5zM691.5 558L691.5 542.25L690.75 542.25L690.75 558zM621.75 92.25L621.75 63L621 63L621 92.25zM621.75 108.75L621.75 93L621 93L621 108.75zM621.75 125.25L621.75 109.5L621 109.5L621 125.25zM621.75 155.25L621.75 126L621 126L621 155.25zM621.75 185.25L621.75 156L621 156L621 185.25zM621.75 201.75L621.75 186L621 186L621 201.75zM621.75 218.25L621.75 202.5L621 202.5L621 218.25zM621.75 248.25L621.75 219L621 219L621 248.25zM621.75 264.75L621.75 249L621 249L621 264.75zM621.75 296.25L621.75 265.5L621 265.5L621 296.25zM621.75 312.75L621.75 297L621 297L621 312.75zM621.75 329.25L621.75 313.5L621 313.5L621 329.25zM621.75 345.75L621.75 330L621 330L621 345.75zM621.75 388.5L621.75 346.5L621 346.5L621 388.5zM621.75 418.5L621.75 389.25L621 389.25L621 418.5zM621.75 448.5L621.75 419.25L621 419.25L621 448.5zM621.75 465L621.75 449.25L621 449.25L621 465zM621.75 481.5L621.75 465.75L621 465.75L621 481.5zM621.75 511.5L621.75 482.25L621 482.25L621 511.5zM621.75 541.5L621.75 512.25L621 512.25L621 541.5zM621.75 558L621.75 542.25L621 542.25L621 558zM252.75 92.25L252.75 63L252 63L252 92.25zM252.75 108.75L252.75 93L252 93L252 108.75zM252.75 125.25L252.75 109.5L252 109.5L252 125.25zM252.75 155.25L252.75 126L252 126L252 155.25zM252.75 185.25L252.75 156L252 156L252 185.25zM252.75 201.75L252.75 186L252 186L252 201.75zM252.75 218.25L252.75 202.5L252 202.5L252 218.25zM252.75 248.25L252.75 219L252 219L252 248.25zM252.75 264.75L252.75 249L252 249L252 264.75zM252.75 296.25L252.75 265.5L252 265.5L252 296.25zM252.75 312.75L252.75 297L252 297L252 312.75zM252.75 329.25L252.75 313.5L252 313.5L252 329.25zM252.75 345.75L252.75 330L252 330L252 345.75zM252.75 388.5L252.75 346.5L252 346.5L252 388.5zM252.75 418.5L252.75 389.25L252 389.25L252 418.5zM252.75 448.5L252.75 419.25L252 419.25L252 448.5zM252.75 465L252.75 449.25L252 449.25L252 465zM252.75 481.5L252.75 465.75L252 465.75L252 481.5zM252.75 511.5L252.75 482.25L252 482.25L252 511.5zM252.75 541.5L252.75 512.25L252 512.25L252 541.5zM252.75 558L252.75 542.25L252 542.25L252 558zM177 92.25L177 63L176.25 63L176.25 92.25zM177 108.75L177 93L176.25 93L176.25 108.75zM177 125.25L177 109.5L176.25 109.5L176.25 125.25zM177 155.25L177 126L176.25 126L176.25 155.25zM177 185.25L177 156L176.25 156L176.25 185.25zM177 201.75L177 186L176.25 186L176.25 201.75zM177 218.25L177 202.5L176.25 202.5L176.25 218.25zM177 248.25L177 219L176.25 219L176.25 248.25zM177 264.75L177 249L176.25 249L176.25 264.75zM177 296.25L177 265.5L176.25 265.5L176.25 296.25zM177 312.75L177 297L176.25 297L176.25 312.75zM177 329.25L177 313.5L176.25 313.5L176.25 329.25zM177 345.75L177 330L176.25 330L176.25 345.75zM177 388.5L177 346.5L176.25 346.5L176.25 388.5zM177 418.5L177 389.25L176.25 389.25L176.25 418.5zM177 448.5L177 419.25L176.25 419.25L176.25 448.5zM177 465L177 449.25L176.25 449.25L176.25 465zM177 481.5L177 465.75L176.25 465.75L176.25 481.5zM177 511.5L177 482.25L176.25 482.25L176.25 511.5zM177 541.5L177 512.25L176.25 512.25L176.25 541.5zM177 558L177 542.25L176.25 542.25L176.25 558zM101.25 92.25L101.25 63L100.5 63L100.5 92.25zM101.25 108.75L101.25 93L100.5 93L100.5 108.75zM101.25 125.25L101.25 109.5L100.5 109.5L100.5 125.25zM101.25 155.25L101.25 126L100.5 126L100.5 155.25zM101.25 185.25L101.25 156L100.5 156L100.5 185.25zM101.25 201.75L101.25 186L100.5 186L100.5 201.75zM101.25 218.25L101.25 202.5L100.5 202.5L100.5 218.25zM101.25 248.25L101.25 219L100.5 219L100.5 248.25zM101.25 264.75L101.25 249L100.5 249L100.5 264.75zM101.25 296.25L101.25 265.5L100.5 265.5L100.5 296.25zM101.25 312.75L101.25 297L100.5 297L100.5 312.75zM101.25 329.25L101.25 313.5L100.5 313.5L100.5 329.25zM101.25 345.75L101.25 330L100.5 330L100.5 345.75zM101.25 388.5L101.25 346.5L100.5 346.5L100.5 388.5zM101.25 418.5L101.25 389.25L100.5 389.25L100.5 418.5zM101.25 448.5L101.25 419.25L100.5 419.25L100.5 448.5zM101.25 465L101.25 449.25L100.5 449.25L100.5 465zM101.25 481.5L101.25 465.75L100.5 465.75L100.5 481.5zM101.25 511.5L101.25 482.25L100.5 482.25L100.5 511.5zM101.25 541.5L101.25 512.25L100.5 512.25L100.5 541.5zM101.25 558L101.25 542.25L100.5 542.25L100.5 558z" stroke="none" fill="#000000" fill-rule="nonzero" fill-opacity="0.1490196" /><path id="206" transform="matrix(1 0 0 -1 0 612)" d="M255 545.2156L538.3545 545.2156" stroke="#000000" stroke-width="0.7017334" fill="none" /><path id="304" transform="matrix(1 0 0 -1 0 612)" d="M255 528.3047L610.863 528.3047" stroke="#000000" stroke-width="0.7017334" fill="none" /><path id="317" transform="matrix(1 0 0 -1 0 612)" d="M255 515.2156L313.273 515.2156" stroke="#000000" stroke-width="0.7017334" fill="none" /><path id="396" transform="matrix(1 0 0 -1 0 612)" d="M255 498.3047L586.287 498.3047" stroke="#000000" stroke-width="0.7017334" fill="none" /><path id="418" transform="matrix(1 0 0 -1 0 612)" d="M255 485.2156L360.415 485.2156" stroke="#000000" stroke-width="0.7017334" fill="none" /><path id="486" transform="matrix(1 0 0 -1 0 612)" d="M255 468.7156L509.4745 468.7156" stroke="#000000" stroke-width="0.7017334" fill="none" /><path id="540" transform="matrix(1 0 0 -1 0 612)" d="M255 452.2156L425.3005 452.2156" stroke="#000000" stroke-width="0.7017334" fill="none" /><path id="620" transform="matrix(1 0 0 -1 0 612)" d="M255 435.3047L600.3135 435.3047" stroke="#000000" stroke-width="0.7017334" fill="none" /><path id="633" transform="matrix(1 0 0 -1 0 612)" d="M255 422.2156L312.917 422.2156" stroke="#000000" stroke-width="0.7017334" fill="none" /><path id="718" transform="matrix(1 0 0 -1 0 612)" d="M255 392.2156L550.3495 392.2156" stroke="#000000" stroke-width="0.7017334" fill="none" /><path id="784" transform="matrix(1 0 0 -1 0 612)" d="M255 349.4656L424.4211 349.4656" stroke="#000000" stroke-width="0.7017334" fill="none" /><path id="834" transform="matrix(1 0 0 -1 0 612)" d="M255 332.9656L431.9132 332.9656" stroke="#000000" stroke-width="0.7017334" fill="none" /><path id="888" transform="matrix(1 0 0 -1 0 612)" d="M255 316.4656L457.2958 316.4656" stroke="#000000" stroke-width="0.7017334" fill="none" /><path id="963" transform="matrix(1 0 0 -1 0 612)" d="M255 299.9656L540.2289 299.9656" stroke="#000000" stroke-width="0.7017334" fill="none" /><path id="1051" transform="matrix(1 0 0 -1 0 612)" d="M255 283.2197L610.5648 283.2197" stroke="#000000" stroke-width="0.7017334" fill="none" /><path id="1119" transform="matrix(1 0 0 -1 0 612)" d="M255 268.4656L599.4183 268.4656" stroke="#000000" stroke-width="0.7017334" fill="none" /><path id="1121" transform="matrix(1 0 0 -1 0 612)" d="M599.4183 268.5444L610.141 268.5444" stroke="#000000" stroke-width="0.7855225" fill="none" /><path id="1210" transform="matrix(1 0 0 -1 0 612)" d="M255 251.9656L617.319 251.9656" stroke="#000000" stroke-width="0.7017334" fill="none" /><path id="1290" transform="matrix(1 0 0 -1 0 612)" d="M255 235.0547L582.8418 235.0547" stroke="#000000" stroke-width="0.7017334" fill="none" /><path id="1310" transform="matrix(1 0 0 -1 0 612)" d="M255 221.9656L333.9853 221.9656" stroke="#000000" stroke-width="0.7017334" fill="none" /><path id="1378" transform="matrix(1 0 0 -1 0 612)" d="M255 205.4656L503.3854 205.4656" stroke="#000000" stroke-width="0.7017334" fill="none" /><path id="1464" transform="matrix(1 0 0 -1 0 612)" d="M255 188.9656L592.46 188.9656" stroke="#000000" stroke-width="0.7017334" fill="none" /><path id="1550" transform="matrix(1 0 0 -1 0 612)" d="M255 172.0547L605.7427 172.0547" stroke="#000000" stroke-width="0.7017334" fill="none" /><path id="1559" transform="matrix(1 0 0 -1 0 612)" d="M255 158.9656L290.8171 158.9656" stroke="#000000" stroke-width="0.7017334" fill="none" /><path id="1643" transform="matrix(1 0 0 -1 0 612)" d="M255 142.0547L619.031 142.0547" stroke="#000000" stroke-width="0.7017334" fill="none" /><path id="1668" transform="matrix(1 0 0 -1 0 612)" d="M255 128.9656L370.2998 128.9656" stroke="#000000" stroke-width="0.7017334" fill="none" /><path id="1708" transform="matrix(1 0 0 -1 0 612)" d="M255 112.4656L366.4832 112.4656" stroke="#000000" stroke-width="0.7017334" fill="none" /><path id="1780" transform="matrix(1 0 0 -1 0 612)" d="M255 95.96558L542.5065 95.96558" stroke="#000000" stroke-width="0.7017334" fill="none" /><path id="1872" transform="matrix(1 0 0 -1 0 612)" d="M255 79.05469L604.1461 79.05469" stroke="#000000" stroke-width="0.7017334" fill="none" /><path id="1898" transform="matrix(1 0 0 -1 0 612)" d="M255 65.96558L384.5618 65.96558" stroke="#000000" stroke-width="0.7017334" fill="none" /></g></g></g></svg>