<svg xmlns="http://www.w3.org/2000/svg" xmlns:xlink="http://www.w3.org/1999/xlink" id="body_7" preserveAspectRatio="xMinYMin meet" viewBox="0 0 1056 816"><defs><clipPath id="1"><path id="" clip-rule="evenodd" transform="matrix(1 0 0 1 0 0)" d="M0 612L0 0L0 0L792 0L792 0L792 612L792 612L0 612z" /></clipPath><clipPath id="2"><path id="" clip-rule="evenodd" transform="matrix(1 0 0 1 0 0)" d="M99.75 52.5L692.25 52.5L692.25 52.5L692.25 549.75L692.25 549.75L99.75 549.75L99.75 549.75L99.75 52.5z" /></clipPath></defs><g transform="matrix(1.333333 0 0 1.333333 0 0)"><g clip-path="url(#1)"><g clip-path="url(#2)"><path id="117" transform="matrix(1 0 0 -1 0 612)" d="M100.5 558.75L691.5 558.75L691.5 528L100.5 528L100.5 558.75z" stroke="none" fill="#E0F7FA" fill-rule="nonzero" /><path id="118" transform="matrix(1 0 0 -1 0 612)" d="M100.5 528.75L691.5 528.75L691.5 511.5L100.5 511.5L100.5 528.75z" stroke="none" fill="#FFFFFF" fill-rule="nonzero" /><path id="119" transform="matrix(1 0 0 -1 0 612)" d="M100.5 512.25L691.5 512.25L691.5 481.5L100.5 481.5L100.5 512.25z" stroke="none" fill="#E0F7FA" fill-rule="nonzero" /><path id="120" transform="matrix(1 0 0 -1 0 612)" d="M100.5 482.25L691.5 482.25L691.5 451.5L100.5 451.5L100.5 482.25z" stroke="none" fill="#FFFFFF" fill-rule="nonzero" /><path id="121" transform="matrix(1 0 0 -1 0 612)" d="M100.5 452.25L691.5 452.25L691.5 435L100.5 435L100.5 452.25z" stroke="none" fill="#E0F7FA" fill-rule="nonzero" /><path id="122" transform="matrix(1 0 0 -1 0 612)" d="M100.5 435.75L691.5 435.75L691.5 418.5L100.5 418.5L100.5 435.75z" stroke="none" fill="#FFFFFF" fill-rule="nonzero" /><path id="123" transform="matrix(1 0 0 -1 0 612)" d="M100.5 419.25L691.5 419.25L691.5 402L100.5 402L100.5 419.25z" stroke="none" fill="#E0F7FA" fill-rule="nonzero" /><path id="124" transform="matrix(1 0 0 -1 0 612)" d="M100.5 402.75L691.5 402.75L691.5 372L100.5 372L100.5 402.75z" stroke="none" fill="#FFFFFF" fill-rule="nonzero" /><path id="125" transform="matrix(1 0 0 -1 0 612)" d="M100.5 372.75L691.5 372.75L691.5 342L100.5 342L100.5 372.75z" stroke="none" fill="#E0F7FA" fill-rule="nonzero" /><path id="126" transform="matrix(1 0 0 -1 0 612)" d="M100.5 342.75L691.5 342.75L691.5 325.5L100.5 325.5L100.5 342.75z" stroke="none" fill="#FFFFFF" fill-rule="nonzero" /><path id="127" transform="matrix(1 0 0 -1 0 612)" d="M100.5 326.25L691.5 326.25L691.5 295.5L100.5 295.5L100.5 326.25z" stroke="none" fill="#E0F7FA" fill-rule="nonzero" /><path id="128" transform="matrix(1 0 0 -1 0 612)" d="M100.5 296.25L691.5 296.25L691.5 279L100.5 279L100.5 296.25z" stroke="none" fill="#FFFFFF" fill-rule="nonzero" /><path id="129" transform="matrix(1 0 0 -1 0 612)" d="M100.5 279.75L691.5 279.75L691.5 262.5L100.5 262.5L100.5 279.75z" stroke="none" fill="#E0F7FA" fill-rule="nonzero" /><path id="130" transform="matrix(1 0 0 -1 0 612)" d="M100.5 263.25L691.5 263.25L691.5 232.5L100.5 232.5L100.5 263.25z" stroke="none" fill="#FFFFFF" fill-rule="nonzero" /><path id="131" transform="matrix(1 0 0 -1 0 612)" d="M100.5 233.25L691.5 233.25L691.5 216L100.5 216L100.5 233.25z" stroke="none" fill="#E0F7FA" fill-rule="nonzero" /><path id="132" transform="matrix(1 0 0 -1 0 612)" d="M100.5 216.75L691.5 216.75L691.5 186L100.5 186L100.5 216.75z" stroke="none" fill="#FFFFFF" fill-rule="nonzero" /><path id="133" transform="matrix(1 0 0 -1 0 612)" d="M100.5 186.75L691.5 186.75L691.5 156L100.5 156L100.5 186.75z" stroke="none" fill="#E0F7FA" fill-rule="nonzero" /><path id="134" transform="matrix(1 0 0 -1 0 612)" d="M100.5 156.75L691.5 156.75L691.5 126L100.5 126L100.5 156.75z" stroke="none" fill="#FFFFFF" fill-rule="nonzero" /><path id="135" transform="matrix(1 0 0 -1 0 612)" d="M100.5 126.75L691.5 126.75L691.5 109.5L100.5 109.5L100.5 126.75z" stroke="none" fill="#E0F7FA" fill-rule="nonzero" /><path id="136" transform="matrix(1 0 0 -1 0 612)" d="M100.5 110.25L691.5 110.25L691.5 79.5L100.5 79.5L100.5 110.25z" stroke="none" fill="#FFFFFF" fill-rule="nonzero" /><path id="137" transform="matrix(1 0 0 -1 0 612)" d="M100.5 80.25L691.5 80.25L691.5 63L100.5 63L100.5 80.25z" stroke="none" fill="#E0F7FA" fill-rule="nonzero" /><path id="138" transform="matrix(1 0 0 -1 0 612)" d="M100.5 63.75L691.5 63.75L691.5 63L100.5 63zM100.5 80.25L691.5 80.25L691.5 79.5L100.5 79.5zM100.5 110.25L691.5 110.25L691.5 109.5L100.5 109.5zM100.5 126.75L691.5 126.75L691.5 126L100.5 126zM100.5 156.75L691.5 156.75L691.5 156L100.5 156zM100.5 186.75L691.5 186.75L691.5 186L100.5 186zM100.5 216.75L691.5 216.75L691.5 216L100.5 216zM100.5 233.25L691.5 233.25L691.5 232.5L100.5 232.5zM100.5 263.25L691.5 263.25L691.5 262.5L100.5 262.5zM100.5 279.75L691.5 279.75L691.5 279L100.5 279zM100.5 296.25L691.5 296.25L691.5 295.5L100.5 295.5zM100.5 326.25L691.5 326.25L691.5 325.5L100.5 325.5zM100.5 342.75L691.5 342.75L691.5 342L100.5 342zM100.5 372.75L691.5 372.75L691.5 372L100.5 372zM100.5 402.75L691.5 402.75L691.5 402L100.5 402zM100.5 419.25L691.5 419.25L691.5 418.5L100.5 418.5zM100.5 435.75L691.5 435.75L691.5 435L100.5 435zM100.5 452.25L691.5 452.25L691.5 451.5L100.5 451.5zM100.5 482.25L691.5 482.25L691.5 481.5L100.5 481.5zM100.5 512.25L691.5 512.25L691.5 511.5L100.5 511.5zM100.5 528.75L691.5 528.75L691.5 528L100.5 528zM100.5 558.75L691.5 558.75L691.5 558L100.5 558zM691.5 79.5L691.5 63.75L690.75 63.75L690.75 79.5zM691.5 109.5L691.5 80.25L690.75 80.25L690.75 109.5zM691.5 126L691.5 110.25L690.75 110.25L690.75 126zM691.5 156L691.5 126.75L690.75 126.75L690.75 156zM691.5 186L691.5 156.75L690.75 156.75L690.75 186zM691.5 216L691.5 186.75L690.75 186.75L690.75 216zM691.5 232.5L691.5 216.75L690.75 216.75L690.75 232.5zM691.5 262.5L691.5 233.25L690.75 233.25L690.75 262.5zM691.5 279L691.5 263.25L690.75 263.25L690.75 279zM691.5 295.5L691.5 279.75L690.75 279.75L690.75 295.5zM691.5 325.5L691.5 296.25L690.75 296.25L690.75 325.5zM691.5 342L691.5 326.25L690.75 326.25L690.75 342zM691.5 372L691.5 342.75L690.75 342.75L690.75 372zM691.5 402L691.5 372.75L690.75 372.75L690.75 402zM691.5 418.5L691.5 402.75L690.75 402.75L690.75 418.5zM691.5 435L691.5 419.25L690.75 419.25L690.75 435zM691.5 451.5L691.5 435.75L690.75 435.75L690.75 451.5zM691.5 481.5L691.5 452.25L690.75 452.25L690.75 481.5zM691.5 511.5L691.5 482.25L690.75 482.25L690.75 511.5zM691.5 528L691.5 512.25L690.75 512.25L690.75 528zM691.5 558L691.5 528.75L690.75 528.75L690.75 558zM621.75 79.5L621.75 63.75L621 63.75L621 79.5zM621.75 109.5L621.75 80.25L621 80.25L621 109.5zM621.75 126L621.75 110.25L621 110.25L621 126zM621.75 156L621.75 126.75L621 126.75L621 156zM621.75 186L621.75 156.75L621 156.75L621 186zM621.75 216L621.75 186.75L621 186.75L621 216zM621.75 232.5L621.75 216.75L621 216.75L621 232.5zM621.75 262.5L621.75 233.25L621 233.25L621 262.5zM621.75 279L621.75 263.25L621 263.25L621 279zM621.75 295.5L621.75 279.75L621 279.75L621 295.5zM621.75 325.5L621.75 296.25L621 296.25L621 325.5zM621.75 342L621.75 326.25L621 326.25L621 342zM621.75 372L621.75 342.75L621 342.75L621 372zM621.75 402L621.75 372.75L621 372.75L621 402zM621.75 418.5L621.75 402.75L621 402.75L621 418.5zM621.75 435L621.75 419.25L621 419.25L621 435zM621.75 451.5L621.75 435.75L621 435.75L621 451.5zM621.75 481.5L621.75 452.25L621 452.25L621 481.5zM621.75 511.5L621.75 482.25L621 482.25L621 511.5zM621.75 528L621.75 512.25L621 512.25L621 528zM621.75 558L621.75 528.75L621 528.75L621 558zM252.75 79.5L252.75 63.75L252 63.75L252 79.5zM252.75 109.5L252.75 80.25L252 80.25L252 109.5zM252.75 126L252.75 110.25L252 110.25L252 126zM252.75 156L252.75 126.75L252 126.75L252 156zM252.75 186L252.75 156.75L252 156.75L252 186zM252.75 216L252.75 186.75L252 186.75L252 216zM252.75 232.5L252.75 216.75L252 216.75L252 232.5zM252.75 262.5L252.75 233.25L252 233.25L252 262.5zM252.75 279L252.75 263.25L252 263.25L252 279zM252.75 295.5L252.75 279.75L252 279.75L252 295.5zM252.75 325.5L252.75 296.25L252 296.25L252 325.5zM252.75 342L252.75 326.25L252 326.25L252 342zM252.75 372L252.75 342.75L252 342.75L252 372zM252.75 402L252.75 372.75L252 372.75L252 402zM252.75 418.5L252.75 402.75L252 402.75L252 418.5zM252.75 435L252.75 419.25L252 419.25L252 435zM252.75 451.5L252.75 435.75L252 435.75L252 451.5zM252.75 481.5L252.75 452.25L252 452.25L252 481.5zM252.75 511.5L252.75 482.25L252 482.25L252 511.5zM252.75 528L252.75 512.25L252 512.25L252 528zM252.75 558L252.75 528.75L252 528.75L252 558zM177 79.5L177 63.75L176.25 63.75L176.25 79.5zM177 109.5L177 80.25L176.25 80.25L176.25 109.5zM177 126L177 110.25L176.25 110.25L176.25 126zM177 156L177 126.75L176.25 126.75L176.25 156zM177 186L177 156.75L176.25 156.75L176.25 186zM177 216L177 186.75L176.25 186.75L176.25 216zM177 232.5L177 216.75L176.25 216.75L176.25 232.5zM177 262.5L177 233.25L176.25 233.25L176.25 262.5zM177 279L177 263.25L176.25 263.25L176.25 279zM177 295.5L177 279.75L176.25 279.75L176.25 295.5zM177 325.5L177 296.25L176.25 296.25L176.25 325.5zM177 342L177 326.25L176.25 326.25L176.25 342zM177 372L177 342.75L176.25 342.75L176.25 372zM177 402L177 372.75L176.25 372.75L176.25 402zM177 418.5L177 402.75L176.25 402.75L176.25 418.5zM177 435L177 419.25L176.25 419.25L176.25 435zM177 451.5L177 435.75L176.25 435.75L176.25 451.5zM177 481.5L177 452.25L176.25 452.25L176.25 481.5zM177 511.5L177 482.25L176.25 482.25L176.25 511.5zM177 528L177 512.25L176.25 512.25L176.25 528zM177 558L177 528.75L176.25 528.75L176.25 558zM101.25 79.5L101.25 63.75L100.5 63.75L100.5 79.5zM101.25 109.5L101.25 80.25L100.5 80.25L100.5 109.5zM101.25 126L101.25 110.25L100.5 110.25L100.5 126zM101.25 156L101.25 126.75L100.5 126.75L100.5 156zM101.25 186L101.25 156.75L100.5 156.75L100.5 186zM101.25 216L101.25 186.75L100.5 186.75L100.5 216zM101.25 232.5L101.25 216.75L100.5 216.75L100.5 232.5zM101.25 262.5L101.25 233.25L100.5 233.25L100.5 262.5zM101.25 279L101.25 263.25L100.5 263.25L100.5 279zM101.25 295.5L101.25 279.75L100.5 279.75L100.5 295.5zM101.25 325.5L101.25 296.25L100.5 296.25L100.5 325.5zM101.25 342L101.25 326.25L100.5 326.25L100.5 342zM101.25 372L101.25 342.75L100.5 342.75L100.5 372zM101.25 402L101.25 372.75L100.5 372.75L100.5 402zM101.25 418.5L101.25 402.75L100.5 402.75L100.5 418.5zM101.25 435L101.25 419.25L100.5 419.25L100.5 435zM101.25 451.5L101.25 435.75L100.5 435.75L100.5 451.5zM101.25 481.5L101.25 452.25L100.5 452.25L100.5 481.5zM101.25 511.5L101.25 482.25L100.5 482.25L100.5 511.5zM101.25 528L101.25 512.25L100.5 512.25L100.5 528zM101.25 558L101.25 528.75L100.5 528.75L100.5 558z" stroke="none" fill="#000000" fill-rule="nonzero" fill-opacity="0.1490196" /><path id="214" transform="matrix(1 0 0 -1 0 612)" d="M255 544.8049L605.9208 544.8049" stroke="#000000" stroke-width="0.7017334" fill="none" /><path id="239" transform="matrix(1 0 0 -1 0 612)" d="M255 531.7158L357.5773 531.7158" stroke="#000000" stroke-width="0.7017334" fill="none" /><path id="301" transform="matrix(1 0 0 -1 0 612)" d="M255 515.2158L458.3325 515.2158" stroke="#000000" stroke-width="0.7017334" fill="none" /><path id="387" transform="matrix(1 0 0 -1 0 612)" d="M255 498.3049L609.4708 498.3049" stroke="#000000" stroke-width="0.7017334" fill="none" /><path id="398" transform="matrix(1 0 0 -1 0 612)" d="M255 485.2158L301.833 485.2158" stroke="#000000" stroke-width="0.7017334" fill="none" /><path id="481" transform="matrix(1 0 0 -1 0 612)" d="M255 468.3049L609.6799 468.3049" stroke="#000000" stroke-width="0.7017334" fill="none" /><path id="514" transform="matrix(1 0 0 -1 0 612)" d="M255 455.2158L407.8447 455.2158" stroke="#000000" stroke-width="0.7017334" fill="none" /><path id="563" transform="matrix(1 0 0 -1 0 612)" d="M255 438.7158L428.0861 438.7158" stroke="#000000" stroke-width="0.7017334" fill="none" /><path id="634" transform="matrix(1 0 0 -1 0 612)" d="M255 422.2158L555.1189 422.2158" stroke="#000000" stroke-width="0.7017334" fill="none" /><path id="702" transform="matrix(1 0 0 -1 0 612)" d="M255 405.7156L525.8831 405.7156" stroke="#000000" stroke-width="0.7017334" fill="none" /><path id="794" transform="matrix(1 0 0 -1 0 612)" d="M255 375.7156L553.2447 375.7156" stroke="#000000" stroke-width="0.7017334" fill="none" /><path id="886" transform="matrix(1 0 0 -1 0 612)" d="M255 358.8047L585.8 358.8047" stroke="#000000" stroke-width="0.7017334" fill="none" /><path id="957" transform="matrix(1 0 0 -1 0 612)" d="M255 345.7156L601.2817 345.7156" stroke="#000000" stroke-width="0.7017334" fill="none" /><path id="1008" transform="matrix(1 0 0 -1 0 612)" d="M255 329.2156L426.2327 329.2156" stroke="#000000" stroke-width="0.7017334" fill="none" /><path id="1073" transform="matrix(1 0 0 -1 0 612)" d="M255 299.2156L448.9031 299.2156" stroke="#000000" stroke-width="0.7017334" fill="none" /><path id="1112" transform="matrix(1 0 0 -1 0 612)" d="M255 282.7156L363.8758 282.7156" stroke="#000000" stroke-width="0.7017334" fill="none" /><path id="1151" transform="matrix(1 0 0 -1 0 612)" d="M255 266.2156L365.1899 266.2156" stroke="#000000" stroke-width="0.7017334" fill="none" /><path id="1238" transform="matrix(1 0 0 -1 0 612)" d="M255 236.2156L573.2921 236.2156" stroke="#000000" stroke-width="0.7017334" fill="none" /><path id="1310" transform="matrix(1 0 0 -1 0 612)" d="M255 219.7156L556.9777 219.7156" stroke="#000000" stroke-width="0.7017334" fill="none" /><path id="1382" transform="matrix(1 0 0 -1 0 612)" d="M255 202.8047L572.5592 202.8047" stroke="#000000" stroke-width="0.7017334" fill="none" /><path id="1411" transform="matrix(1 0 0 -1 0 612)" d="M255 189.7156L380.3313 189.7156" stroke="#000000" stroke-width="0.7017334" fill="none" /><path id="1495" transform="matrix(1 0 0 -1 0 612)" d="M255 172.8047L599.4235 172.8047" stroke="#000000" stroke-width="0.7017334" fill="none" /><path id="1537" transform="matrix(1 0 0 -1 0 612)" d="M255 159.7156L468.453 159.7156" stroke="#000000" stroke-width="0.7017334" fill="none" /><path id="1628" transform="matrix(1 0 0 -1 0 612)" d="M255 142.8047L594.5648 142.8047" stroke="#000000" stroke-width="0.7017334" fill="none" /><path id="1648" transform="matrix(1 0 0 -1 0 612)" d="M255 129.7156L341.0587 129.7156" stroke="#000000" stroke-width="0.7017334" fill="none" /><path id="1725" transform="matrix(1 0 0 -1 0 612)" d="M255 113.2156L532.6477 113.2156" stroke="#000000" stroke-width="0.7017334" fill="none" /><path id="1814" transform="matrix(1 0 0 -1 0 612)" d="M255 96.30469L592.7634 96.30469" stroke="#000000" stroke-width="0.7017334" fill="none" /><path id="1848" transform="matrix(1 0 0 -1 0 612)" d="M255 83.21558L418.3109 83.21558" stroke="#000000" stroke-width="0.7017334" fill="none" /><path id="1908" transform="matrix(1 0 0 -1 0 612)" d="M255 66.71558L466.165 66.71558" stroke="#000000" stroke-width="0.7017334" fill="none" /></g></g></g></svg>