<svg xmlns="http://www.w3.org/2000/svg" xmlns:xlink="http://www.w3.org/1999/xlink" id="body_17" preserveAspectRatio="xMinYMin meet" viewBox="0 0 1056 816"><defs><clipPath id="1"><path id="" clip-rule="evenodd" transform="matrix(1 0 0 1 0 0)" d="M0 612L0 0L0 0L792 0L792 0L792 612L792 612L0 612z" /></clipPath><clipPath id="2"><path id="" clip-rule="evenodd" transform="matrix(1 0 0 1 0 0)" d="M99.75 52.5L692.25 52.5L692.25 52.5L692.25 548.25L692.25 548.25L99.75 548.25L99.75 548.25L99.75 52.5z" /></clipPath></defs><g transform="matrix(1.333333 0 0 1.333333 0 0)"><g clip-path="url(#1)"><g clip-path="url(#2)"><path id="118" transform="matrix(1 0 0 -1 0 612)" d="M100.5 558.75L691.5 558.75L691.5 528L100.5 528L100.5 558.75z" stroke="none" fill="#E0F7FA" fill-rule="nonzero" /><path id="119" transform="matrix(1 0 0 -1 0 612)" d="M100.5 528.75L691.5 528.75L691.5 498L100.5 498L100.5 528.75z" stroke="none" fill="#FFFFFF" fill-rule="nonzero" /><path id="120" transform="matrix(1 0 0 -1 0 612)" d="M100.5 498.75L691.5 498.75L691.5 481.5L100.5 481.5L100.5 498.75z" stroke="none" fill="#E0F7FA" fill-rule="nonzero" /><path id="121" transform="matrix(1 0 0 -1 0 612)" d="M100.5 482.25L691.5 482.25L691.5 450L100.5 450L100.5 482.25z" stroke="none" fill="#FFFFFF" fill-rule="nonzero" /><path id="122" transform="matrix(1 0 0 -1 0 612)" d="M100.5 450.75L691.5 450.75L691.5 420L100.5 420L100.5 450.75z" stroke="none" fill="#E0F7FA" fill-rule="nonzero" /><path id="123" transform="matrix(1 0 0 -1 0 612)" d="M100.5 420.75L691.5 420.75L691.5 403.5L100.5 403.5L100.5 420.75z" stroke="none" fill="#FFFFFF" fill-rule="nonzero" /><path id="124" transform="matrix(1 0 0 -1 0 612)" d="M100.5 404.25L691.5 404.25L691.5 387L100.5 387L100.5 404.25z" stroke="none" fill="#E0F7FA" fill-rule="nonzero" /><path id="125" transform="matrix(1 0 0 -1 0 612)" d="M100.5 387.75L691.5 387.75L691.5 357L100.5 357L100.5 387.75z" stroke="none" fill="#FFFFFF" fill-rule="nonzero" /><path id="126" transform="matrix(1 0 0 -1 0 612)" d="M100.5 357.75L691.5 357.75L691.5 327L100.5 327L100.5 357.75z" stroke="none" fill="#E0F7FA" fill-rule="nonzero" /><path id="127" transform="matrix(1 0 0 -1 0 612)" d="M100.5 327.75L691.5 327.75L691.5 297L100.5 297L100.5 327.75z" stroke="none" fill="#FFFFFF" fill-rule="nonzero" /><path id="128" transform="matrix(1 0 0 -1 0 612)" d="M100.5 297.75L691.5 297.75L691.5 280.5L100.5 280.5L100.5 297.75z" stroke="none" fill="#E0F7FA" fill-rule="nonzero" /><path id="129" transform="matrix(1 0 0 -1 0 612)" d="M100.5 281.25L691.5 281.25L691.5 264L100.5 264L100.5 281.25z" stroke="none" fill="#FFFFFF" fill-rule="nonzero" /><path id="130" transform="matrix(1 0 0 -1 0 612)" d="M100.5 264.75L691.5 264.75L691.5 234L100.5 234L100.5 264.75z" stroke="none" fill="#E0F7FA" fill-rule="nonzero" /><path id="131" transform="matrix(1 0 0 -1 0 612)" d="M100.5 234.75L691.5 234.75L691.5 217.5L100.5 217.5L100.5 234.75z" stroke="none" fill="#FFFFFF" fill-rule="nonzero" /><path id="132" transform="matrix(1 0 0 -1 0 612)" d="M100.5 218.25L691.5 218.25L691.5 187.5L100.5 187.5L100.5 218.25z" stroke="none" fill="#E0F7FA" fill-rule="nonzero" /><path id="133" transform="matrix(1 0 0 -1 0 612)" d="M100.5 188.25L691.5 188.25L691.5 171L100.5 171L100.5 188.25z" stroke="none" fill="#FFFFFF" fill-rule="nonzero" /><path id="134" transform="matrix(1 0 0 -1 0 612)" d="M100.5 171.75L691.5 171.75L691.5 141L100.5 141L100.5 171.75z" stroke="none" fill="#E0F7FA" fill-rule="nonzero" /><path id="135" transform="matrix(1 0 0 -1 0 612)" d="M100.5 141.75L691.5 141.75L691.5 124.5L100.5 124.5L100.5 141.75z" stroke="none" fill="#FFFFFF" fill-rule="nonzero" /><path id="136" transform="matrix(1 0 0 -1 0 612)" d="M100.5 125.25L691.5 125.25L691.5 94.5L100.5 94.5L100.5 125.25z" stroke="none" fill="#E0F7FA" fill-rule="nonzero" /><path id="137" transform="matrix(1 0 0 -1 0 612)" d="M100.5 95.25L691.5 95.25L691.5 64.5L100.5 64.5L100.5 95.25z" stroke="none" fill="#FFFFFF" fill-rule="nonzero" /><path id="138" transform="matrix(1 0 0 -1 0 612)" d="M100.5 65.25L691.5 65.25L691.5 64.5L100.5 64.5zM100.5 95.25L691.5 95.25L691.5 94.5L100.5 94.5zM100.5 125.25L691.5 125.25L691.5 124.5L100.5 124.5zM100.5 141.75L691.5 141.75L691.5 141L100.5 141zM100.5 171.75L691.5 171.75L691.5 171L100.5 171zM100.5 188.25L691.5 188.25L691.5 187.5L100.5 187.5zM100.5 218.25L691.5 218.25L691.5 217.5L100.5 217.5zM100.5 234.75L691.5 234.75L691.5 234L100.5 234zM100.5 264.75L691.5 264.75L691.5 264L100.5 264zM100.5 281.25L691.5 281.25L691.5 280.5L100.5 280.5zM100.5 297.75L691.5 297.75L691.5 297L100.5 297zM100.5 327.75L691.5 327.75L691.5 327L100.5 327zM100.5 357.75L691.5 357.75L691.5 357L100.5 357zM100.5 387.75L691.5 387.75L691.5 387L100.5 387zM100.5 404.25L691.5 404.25L691.5 403.5L100.5 403.5zM100.5 420.75L691.5 420.75L691.5 420L100.5 420zM100.5 450.75L691.5 450.75L691.5 450L100.5 450zM100.5 482.25L691.5 482.25L691.5 481.5L100.5 481.5zM100.5 498.75L691.5 498.75L691.5 498L100.5 498zM100.5 528.75L691.5 528.75L691.5 528L100.5 528zM100.5 558.75L691.5 558.75L691.5 558L100.5 558zM691.5 94.5L691.5 65.25L690.75 65.25L690.75 94.5zM691.5 124.5L691.5 95.25L690.75 95.25L690.75 124.5zM691.5 141L691.5 125.25L690.75 125.25L690.75 141zM691.5 171L691.5 141.75L690.75 141.75L690.75 171zM691.5 187.5L691.5 171.75L690.75 171.75L690.75 187.5zM691.5 217.5L691.5 188.25L690.75 188.25L690.75 217.5zM691.5 234L691.5 218.25L690.75 218.25L690.75 234zM691.5 264L691.5 234.75L690.75 234.75L690.75 264zM691.5 280.5L691.5 264.75L690.75 264.75L690.75 280.5zM691.5 297L691.5 281.25L690.75 281.25L690.75 297zM691.5 327L691.5 297.75L690.75 297.75L690.75 327zM691.5 357L691.5 327.75L690.75 327.75L690.75 357zM691.5 387L691.5 357.75L690.75 357.75L690.75 387zM691.5 403.5L691.5 387.75L690.75 387.75L690.75 403.5zM691.5 420L691.5 404.25L690.75 404.25L690.75 420zM691.5 450L691.5 420.75L690.75 420.75L690.75 450zM691.5 481.5L691.5 450.75L690.75 450.75L690.75 481.5zM691.5 498L691.5 482.25L690.75 482.25L690.75 498zM691.5 528L691.5 498.75L690.75 498.75L690.75 528zM691.5 558L691.5 528.75L690.75 528.75L690.75 558zM621.75 94.5L621.75 65.25L621 65.25L621 94.5zM621.75 124.5L621.75 95.25L621 95.25L621 124.5zM621.75 141L621.75 125.25L621 125.25L621 141zM621.75 171L621.75 141.75L621 141.75L621 171zM621.75 187.5L621.75 171.75L621 171.75L621 187.5zM621.75 217.5L621.75 188.25L621 188.25L621 217.5zM621.75 234L621.75 218.25L621 218.25L621 234zM621.75 264L621.75 234.75L621 234.75L621 264zM621.75 280.5L621.75 264.75L621 264.75L621 280.5zM621.75 297L621.75 281.25L621 281.25L621 297zM621.75 327L621.75 297.75L621 297.75L621 327zM621.75 357L621.75 327.75L621 327.75L621 357zM621.75 387L621.75 357.75L621 357.75L621 387zM621.75 403.5L621.75 387.75L621 387.75L621 403.5zM621.75 420L621.75 404.25L621 404.25L621 420zM621.75 450L621.75 420.75L621 420.75L621 450zM621.75 481.5L621.75 450.75L621 450.75L621 481.5zM621.75 498L621.75 482.25L621 482.25L621 498zM621.75 528L621.75 498.75L621 498.75L621 528zM621.75 558L621.75 528.75L621 528.75L621 558zM252.75 94.5L252.75 65.25L252 65.25L252 94.5zM252.75 124.5L252.75 95.25L252 95.25L252 124.5zM252.75 141L252.75 125.25L252 125.25L252 141zM252.75 171L252.75 141.75L252 141.75L252 171zM252.75 187.5L252.75 171.75L252 171.75L252 187.5zM252.75 217.5L252.75 188.25L252 188.25L252 217.5zM252.75 234L252.75 218.25L252 218.25L252 234zM252.75 264L252.75 234.75L252 234.75L252 264zM252.75 280.5L252.75 264.75L252 264.75L252 280.5zM252.75 297L252.75 281.25L252 281.25L252 297zM252.75 327L252.75 297.75L252 297.75L252 327zM252.75 357L252.75 327.75L252 327.75L252 357zM252.75 387L252.75 357.75L252 357.75L252 387zM252.75 403.5L252.75 387.75L252 387.75L252 403.5zM252.75 420L252.75 404.25L252 404.25L252 420zM252.75 450L252.75 420.75L252 420.75L252 450zM252.75 481.5L252.75 450.75L252 450.75L252 481.5zM252.75 498L252.75 482.25L252 482.25L252 498zM252.75 528L252.75 498.75L252 498.75L252 528zM252.75 558L252.75 528.75L252 528.75L252 558zM177 94.5L177 65.25L176.25 65.25L176.25 94.5zM177 124.5L177 95.25L176.25 95.25L176.25 124.5zM177 141L177 125.25L176.25 125.25L176.25 141zM177 171L177 141.75L176.25 141.75L176.25 171zM177 187.5L177 171.75L176.25 171.75L176.25 187.5zM177 217.5L177 188.25L176.25 188.25L176.25 217.5zM177 234L177 218.25L176.25 218.25L176.25 234zM177 264L177 234.75L176.25 234.75L176.25 264zM177 280.5L177 264.75L176.25 264.75L176.25 280.5zM177 297L177 281.25L176.25 281.25L176.25 297zM177 327L177 297.75L176.25 297.75L176.25 327zM177 357L177 327.75L176.25 327.75L176.25 357zM177 387L177 357.75L176.25 357.75L176.25 387zM177 403.5L177 387.75L176.25 387.75L176.25 403.5zM177 420L177 404.25L176.25 404.25L176.25 420zM177 450L177 420.75L176.25 420.75L176.25 450zM177 481.5L177 450.75L176.25 450.75L176.25 481.5zM177 498L177 482.25L176.25 482.25L176.25 498zM177 528L177 498.75L176.25 498.75L176.25 528zM177 558L177 528.75L176.25 528.75L176.25 558zM101.25 94.5L101.25 65.25L100.5 65.25L100.5 94.5zM101.25 124.5L101.25 95.25L100.5 95.25L100.5 124.5zM101.25 141L101.25 125.25L100.5 125.25L100.5 141zM101.25 171L101.25 141.75L100.5 141.75L100.5 171zM101.25 187.5L101.25 171.75L100.5 171.75L100.5 187.5zM101.25 217.5L101.25 188.25L100.5 188.25L100.5 217.5zM101.25 234L101.25 218.25L100.5 218.25L100.5 234zM101.25 264L101.25 234.75L100.5 234.75L100.5 264zM101.25 280.5L101.25 264.75L100.5 264.75L100.5 280.5zM101.25 297L101.25 281.25L100.5 281.25L100.5 297zM101.25 327L101.25 297.75L100.5 297.75L100.5 327zM101.25 357L101.25 327.75L100.5 327.75L100.5 357zM101.25 387L101.25 357.75L100.5 357.75L100.5 387zM101.25 403.5L101.25 387.75L100.5 387.75L100.5 403.5zM101.25 420L101.25 404.25L100.5 404.25L100.5 420zM101.25 450L101.25 420.75L100.5 420.75L100.5 450zM101.25 481.5L101.25 450.75L100.5 450.75L100.5 481.5zM101.25 498L101.25 482.25L100.5 482.25L100.5 498zM101.25 528L101.25 498.75L100.5 498.75L100.5 528zM101.25 558L101.25 528.75L100.5 528.75L100.5 558z" stroke="none" fill="#000000" fill-rule="nonzero" fill-opacity="0.1490196" /><path id="215" transform="matrix(1 0 0 -1 0 612)" d="M255 544.8047L591.3918 544.8047" stroke="#000000" stroke-width="0.7017334" fill="none" /><path id="221" transform="matrix(1 0 0 -1 0 612)" d="M255 531.7158L281.5762 531.7158" stroke="#000000" stroke-width="0.7017334" fill="none" /><path id="289" transform="matrix(1 0 0 -1 0 612)" d="M255 514.8047L571.6112 514.8047" stroke="#000000" stroke-width="0.7017334" fill="none" /><path id="301" transform="matrix(1 0 0 -1 0 612)" d="M255 501.7158L319.4721 501.7158" stroke="#000000" stroke-width="0.7017334" fill="none" /><path id="339" transform="matrix(1 0 0 -1 0 612)" d="M255 485.2158L358.415 485.2158" stroke="#000000" stroke-width="0.7017334" fill="none" /><path id="424" transform="matrix(1 0 0 -1 0 612)" d="M255 468.4697L595.371 468.4697" stroke="#000000" stroke-width="0.7017334" fill="none" /><path id="486" transform="matrix(1 0 0 -1 0 612)" d="M255 453.7158L561.1138 453.7158" stroke="#000000" stroke-width="0.7017334" fill="none" /><path id="488" transform="matrix(1 0 0 -1 0 612)" d="M561.1138 453.7939L571.8364 453.7939" stroke="#000000" stroke-width="0.7855225" fill="none" /><path id="563" transform="matrix(1 0 0 -1 0 612)" d="M255 436.8047L580.0826 436.8047" stroke="#000000" stroke-width="0.7017334" fill="none" /><path id="597" transform="matrix(1 0 0 -1 0 612)" d="M255 423.7158L429.1227 423.7158" stroke="#000000" stroke-width="0.7017334" fill="none" /><path id="666" transform="matrix(1 0 0 -1 0 612)" d="M255 407.2158L523.5375 407.2158" stroke="#000000" stroke-width="0.7017334" fill="none" /><path id="744" transform="matrix(1 0 0 -1 0 612)" d="M255 390.7158L552.119 390.7158" stroke="#000000" stroke-width="0.7017334" fill="none" /><path id="824" transform="matrix(1 0 0 -1 0 612)" d="M255 373.8047L592.591 373.8047" stroke="#000000" stroke-width="0.7017334" fill="none" /><path id="846" transform="matrix(1 0 0 -1 0 612)" d="M255 360.7158L366.2423 360.7158" stroke="#000000" stroke-width="0.7017334" fill="none" /><path id="945" transform="matrix(1 0 0 -1 0 612)" d="M255 343.8047L614.963 343.8047" stroke="#000000" stroke-width="0.7017334" fill="none" /><path id="955" transform="matrix(1 0 0 -1 0 612)" d="M255 330.7158L298.4247 330.7158" stroke="#000000" stroke-width="0.7017334" fill="none" /><path id="1037" transform="matrix(1 0 0 -1 0 612)" d="M255 313.8047L614.6274 313.8047" stroke="#000000" stroke-width="0.7017334" fill="none" /><path id="1086" transform="matrix(1 0 0 -1 0 612)" d="M255 300.7158L504.7781 300.7158" stroke="#000000" stroke-width="0.7017334" fill="none" /><path id="1169" transform="matrix(1 0 0 -1 0 612)" d="M255 284.2158L599.6379 284.2158" stroke="#000000" stroke-width="0.7017334" fill="none" /><path id="1252" transform="matrix(1 0 0 -1 0 612)" d="M255 267.7158L612.5807 267.7158" stroke="#000000" stroke-width="0.7017334" fill="none" /><path id="1325" transform="matrix(1 0 0 -1 0 612)" d="M255 237.7158L513.328 237.7158" stroke="#000000" stroke-width="0.7017334" fill="none" /><path id="1377" transform="matrix(1 0 0 -1 0 612)" d="M255 221.2158L462.8508 221.2158" stroke="#000000" stroke-width="0.7017334" fill="none" /><path id="1461" transform="matrix(1 0 0 -1 0 612)" d="M255 204.3047L618.7953 204.3047" stroke="#000000" stroke-width="0.7017334" fill="none" /><path id="1497" transform="matrix(1 0 0 -1 0 612)" d="M255 191.2158L432.9239 191.2158" stroke="#000000" stroke-width="0.7017334" fill="none" /><path id="1565" transform="matrix(1 0 0 -1 0 612)" d="M255 174.7158L516.2286 174.7158" stroke="#000000" stroke-width="0.7017334" fill="none" /><path id="1649" transform="matrix(1 0 0 -1 0 612)" d="M255 157.8047L579.444 157.8047" stroke="#000000" stroke-width="0.7017334" fill="none" /><path id="1668" transform="matrix(1 0 0 -1 0 612)" d="M255 144.7158L342.3781 144.7158" stroke="#000000" stroke-width="0.7017334" fill="none" /><path id="1737" transform="matrix(1 0 0 -1 0 612)" d="M255 128.2158L514.192 128.2158" stroke="#000000" stroke-width="0.7017334" fill="none" /><path id="1823" transform="matrix(1 0 0 -1 0 612)" d="M255 111.3047L613.8265 111.3047" stroke="#000000" stroke-width="0.7017334" fill="none" /><path id="1844" transform="matrix(1 0 0 -1 0 612)" d="M255 98.21582L362.2056 98.21582" stroke="#000000" stroke-width="0.7017334" fill="none" /><path id="1923" transform="matrix(1 0 0 -1 0 612)" d="M255 81.30469L587.3815 81.30469" stroke="#000000" stroke-width="0.7017334" fill="none" /><path id="1930" transform="matrix(1 0 0 -1 0 612)" d="M255 68.21582L287.414 68.21582" stroke="#000000" stroke-width="0.7017334" fill="none" /></g></g></g></svg>