<svg xmlns="http://www.w3.org/2000/svg" xmlns:xlink="http://www.w3.org/1999/xlink" id="body_12" preserveAspectRatio="xMinYMin meet" viewBox="0 0 1056 816"><defs><clipPath id="1"><path id="" clip-rule="evenodd" transform="matrix(1 0 0 1 0 0)" d="M0 612L0 0L0 0L792 0L792 0L792 612L792 612L0 612z" /></clipPath><clipPath id="2"><path id="" clip-rule="evenodd" transform="matrix(1 0 0 1 0 0)" d="M99.75 52.5L692.25 52.5L692.25 52.5L692.25 543L692.25 543L99.75 543L99.75 543L99.75 52.5z" /></clipPath></defs><g transform="matrix(1.333333 0 0 1.333333 0 0)"><g clip-path="url(#1)"><g clip-path="url(#2)"><path id="118" transform="matrix(1 0 0 -1 0 612)" d="M100.5 558.75L691.5 558.75L691.5 528L100.5 528L100.5 558.75z" stroke="none" fill="#E0F7FA" fill-rule="nonzero" /><path id="119" transform="matrix(1 0 0 -1 0 612)" d="M100.5 528.75L691.5 528.75L691.5 511.5L100.5 511.5L100.5 528.75z" stroke="none" fill="#FFFFFF" fill-rule="nonzero" /><path id="120" transform="matrix(1 0 0 -1 0 612)" d="M100.5 512.25L691.5 512.25L691.5 495L100.5 495L100.5 512.25z" stroke="none" fill="#E0F7FA" fill-rule="nonzero" /><path id="121" transform="matrix(1 0 0 -1 0 612)" d="M100.5 495.75L691.5 495.75L691.5 478.5L100.5 478.5L100.5 495.75z" stroke="none" fill="#FFFFFF" fill-rule="nonzero" /><path id="122" transform="matrix(1 0 0 -1 0 612)" d="M100.5 479.25L691.5 479.25L691.5 462L100.5 462L100.5 479.25z" stroke="none" fill="#E0F7FA" fill-rule="nonzero" /><path id="123" transform="matrix(1 0 0 -1 0 612)" d="M100.5 462.75L691.5 462.75L691.5 432L100.5 432L100.5 462.75z" stroke="none" fill="#FFFFFF" fill-rule="nonzero" /><path id="124" transform="matrix(1 0 0 -1 0 612)" d="M100.5 432.75L691.5 432.75L691.5 415.5L100.5 415.5L100.5 432.75z" stroke="none" fill="#E0F7FA" fill-rule="nonzero" /><path id="125" transform="matrix(1 0 0 -1 0 612)" d="M100.5 416.25L691.5 416.25L691.5 384L100.5 384L100.5 416.25z" stroke="none" fill="#FFFFFF" fill-rule="nonzero" /><path id="126" transform="matrix(1 0 0 -1 0 612)" d="M100.5 384.75L691.5 384.75L691.5 367.5L100.5 367.5L100.5 384.75z" stroke="none" fill="#E0F7FA" fill-rule="nonzero" /><path id="127" transform="matrix(1 0 0 -1 0 612)" d="M100.5 368.25L691.5 368.25L691.5 351L100.5 351L100.5 368.25z" stroke="none" fill="#FFFFFF" fill-rule="nonzero" /><path id="128" transform="matrix(1 0 0 -1 0 612)" d="M100.5 351.75L691.5 351.75L691.5 321L100.5 321L100.5 351.75z" stroke="none" fill="#E0F7FA" fill-rule="nonzero" /><path id="129" transform="matrix(1 0 0 -1 0 612)" d="M100.5 321.75L691.5 321.75L691.5 304.5L100.5 304.5L100.5 321.75z" stroke="none" fill="#FFFFFF" fill-rule="nonzero" /><path id="130" transform="matrix(1 0 0 -1 0 612)" d="M100.5 305.25L691.5 305.25L691.5 288L100.5 288L100.5 305.25z" stroke="none" fill="#E0F7FA" fill-rule="nonzero" /><path id="131" transform="matrix(1 0 0 -1 0 612)" d="M100.5 288.75L691.5 288.75L691.5 271.5L100.5 271.5L100.5 288.75z" stroke="none" fill="#FFFFFF" fill-rule="nonzero" /><path id="132" transform="matrix(1 0 0 -1 0 612)" d="M100.5 272.25L691.5 272.25L691.5 255L100.5 255L100.5 272.25z" stroke="none" fill="#E0F7FA" fill-rule="nonzero" /><path id="133" transform="matrix(1 0 0 -1 0 612)" d="M100.5 255.75L691.5 255.75L691.5 238.5L100.5 238.5L100.5 255.75z" stroke="none" fill="#FFFFFF" fill-rule="nonzero" /><path id="134" transform="matrix(1 0 0 -1 0 612)" d="M100.5 239.25L691.5 239.25L691.5 222L100.5 222L100.5 239.25z" stroke="none" fill="#E0F7FA" fill-rule="nonzero" /><path id="135" transform="matrix(1 0 0 -1 0 612)" d="M100.5 222.75L691.5 222.75L691.5 192L100.5 192L100.5 222.75z" stroke="none" fill="#FFFFFF" fill-rule="nonzero" /><path id="136" transform="matrix(1 0 0 -1 0 612)" d="M100.5 192.75L691.5 192.75L691.5 175.5L100.5 175.5L100.5 192.75z" stroke="none" fill="#E0F7FA" fill-rule="nonzero" /><path id="137" transform="matrix(1 0 0 -1 0 612)" d="M100.5 176.25L691.5 176.25L691.5 132.75L100.5 132.75L100.5 176.25z" stroke="none" fill="#FFFFFF" fill-rule="nonzero" /><path id="138" transform="matrix(1 0 0 -1 0 612)" d="M100.5 133.5L691.5 133.5L691.5 116.25L100.5 116.25L100.5 133.5z" stroke="none" fill="#E0F7FA" fill-rule="nonzero" /><path id="139" transform="matrix(1 0 0 -1 0 612)" d="M100.5 117L691.5 117L691.5 99.75L100.5 99.75L100.5 117z" stroke="none" fill="#FFFFFF" fill-rule="nonzero" /><path id="140" transform="matrix(1 0 0 -1 0 612)" d="M100.5 100.5L691.5 100.5L691.5 69.75L100.5 69.75L100.5 100.5z" stroke="none" fill="#E0F7FA" fill-rule="nonzero" /><path id="141" transform="matrix(1 0 0 -1 0 612)" d="M100.5 70.5L691.5 70.5L691.5 69.75L100.5 69.75zM100.5 100.5L691.5 100.5L691.5 99.75L100.5 99.75zM100.5 117L691.5 117L691.5 116.25L100.5 116.25zM100.5 133.5L691.5 133.5L691.5 132.75L100.5 132.75zM100.5 176.25L691.5 176.25L691.5 175.5L100.5 175.5zM100.5 192.75L691.5 192.75L691.5 192L100.5 192zM100.5 222.75L691.5 222.75L691.5 222L100.5 222zM100.5 239.25L691.5 239.25L691.5 238.5L100.5 238.5zM100.5 255.75L691.5 255.75L691.5 255L100.5 255zM100.5 272.25L691.5 272.25L691.5 271.5L100.5 271.5zM100.5 288.75L691.5 288.75L691.5 288L100.5 288zM100.5 305.25L691.5 305.25L691.5 304.5L100.5 304.5zM100.5 321.75L691.5 321.75L691.5 321L100.5 321zM100.5 351.75L691.5 351.75L691.5 351L100.5 351zM100.5 368.25L691.5 368.25L691.5 367.5L100.5 367.5zM100.5 384.75L691.5 384.75L691.5 384L100.5 384zM100.5 416.25L691.5 416.25L691.5 415.5L100.5 415.5zM100.5 432.75L691.5 432.75L691.5 432L100.5 432zM100.5 462.75L691.5 462.75L691.5 462L100.5 462zM100.5 479.25L691.5 479.25L691.5 478.5L100.5 478.5zM100.5 495.75L691.5 495.75L691.5 495L100.5 495zM100.5 512.25L691.5 512.25L691.5 511.5L100.5 511.5zM100.5 528.75L691.5 528.75L691.5 528L100.5 528zM100.5 558.75L691.5 558.75L691.5 558L100.5 558zM691.5 99.75L691.5 70.5L690.75 70.5L690.75 99.75zM691.5 116.25L691.5 100.5L690.75 100.5L690.75 116.25zM691.5 132.75L691.5 117L690.75 117L690.75 132.75zM691.5 175.5L691.5 133.5L690.75 133.5L690.75 175.5zM691.5 192L691.5 176.25L690.75 176.25L690.75 192zM691.5 222L691.5 192.75L690.75 192.75L690.75 222zM691.5 238.5L691.5 222.75L690.75 222.75L690.75 238.5zM691.5 255L691.5 239.25L690.75 239.25L690.75 255zM691.5 271.5L691.5 255.75L690.75 255.75L690.75 271.5zM691.5 288L691.5 272.25L690.75 272.25L690.75 288zM691.5 304.5L691.5 288.75L690.75 288.75L690.75 304.5zM691.5 321L691.5 305.25L690.75 305.25L690.75 321zM691.5 351L691.5 321.75L690.75 321.75L690.75 351zM691.5 367.5L691.5 351.75L690.75 351.75L690.75 367.5zM691.5 384L691.5 368.25L690.75 368.25L690.75 384zM691.5 415.5L691.5 384.75L690.75 384.75L690.75 415.5zM691.5 432L691.5 416.25L690.75 416.25L690.75 432zM691.5 462L691.5 432.75L690.75 432.75L690.75 462zM691.5 478.5L691.5 462.75L690.75 462.75L690.75 478.5zM691.5 495L691.5 479.25L690.75 479.25L690.75 495zM691.5 511.5L691.5 495.75L690.75 495.75L690.75 511.5zM691.5 528L691.5 512.25L690.75 512.25L690.75 528zM691.5 558L691.5 528.75L690.75 528.75L690.75 558zM621.75 99.75L621.75 70.5L621 70.5L621 99.75zM621.75 116.25L621.75 100.5L621 100.5L621 116.25zM621.75 132.75L621.75 117L621 117L621 132.75zM621.75 175.5L621.75 133.5L621 133.5L621 175.5zM621.75 192L621.75 176.25L621 176.25L621 192zM621.75 222L621.75 192.75L621 192.75L621 222zM621.75 238.5L621.75 222.75L621 222.75L621 238.5zM621.75 255L621.75 239.25L621 239.25L621 255zM621.75 271.5L621.75 255.75L621 255.75L621 271.5zM621.75 288L621.75 272.25L621 272.25L621 288zM621.75 304.5L621.75 288.75L621 288.75L621 304.5zM621.75 321L621.75 305.25L621 305.25L621 321zM621.75 351L621.75 321.75L621 321.75L621 351zM621.75 367.5L621.75 351.75L621 351.75L621 367.5zM621.75 384L621.75 368.25L621 368.25L621 384zM621.75 415.5L621.75 384.75L621 384.75L621 415.5zM621.75 432L621.75 416.25L621 416.25L621 432zM621.75 462L621.75 432.75L621 432.75L621 462zM621.75 478.5L621.75 462.75L621 462.75L621 478.5zM621.75 495L621.75 479.25L621 479.25L621 495zM621.75 511.5L621.75 495.75L621 495.75L621 511.5zM621.75 528L621.75 512.25L621 512.25L621 528zM621.75 558L621.75 528.75L621 528.75L621 558zM252.75 99.75L252.75 70.5L252 70.5L252 99.75zM252.75 116.25L252.75 100.5L252 100.5L252 116.25zM252.75 132.75L252.75 117L252 117L252 132.75zM252.75 175.5L252.75 133.5L252 133.5L252 175.5zM252.75 192L252.75 176.25L252 176.25L252 192zM252.75 222L252.75 192.75L252 192.75L252 222zM252.75 238.5L252.75 222.75L252 222.75L252 238.5zM252.75 255L252.75 239.25L252 239.25L252 255zM252.75 271.5L252.75 255.75L252 255.75L252 271.5zM252.75 288L252.75 272.25L252 272.25L252 288zM252.75 304.5L252.75 288.75L252 288.75L252 304.5zM252.75 321L252.75 305.25L252 305.25L252 321zM252.75 351L252.75 321.75L252 321.75L252 351zM252.75 367.5L252.75 351.75L252 351.75L252 367.5zM252.75 384L252.75 368.25L252 368.25L252 384zM252.75 415.5L252.75 384.75L252 384.75L252 415.5zM252.75 432L252.75 416.25L252 416.25L252 432zM252.75 462L252.75 432.75L252 432.75L252 462zM252.75 478.5L252.75 462.75L252 462.75L252 478.5zM252.75 495L252.75 479.25L252 479.25L252 495zM252.75 511.5L252.75 495.75L252 495.75L252 511.5zM252.75 528L252.75 512.25L252 512.25L252 528zM252.75 558L252.75 528.75L252 528.75L252 558zM177 99.75L177 70.5L176.25 70.5L176.25 99.75zM177 116.25L177 100.5L176.25 100.5L176.25 116.25zM177 132.75L177 117L176.25 117L176.25 132.75zM177 175.5L177 133.5L176.25 133.5L176.25 175.5zM177 192L177 176.25L176.25 176.25L176.25 192zM177 222L177 192.75L176.25 192.75L176.25 222zM177 238.5L177 222.75L176.25 222.75L176.25 238.5zM177 255L177 239.25L176.25 239.25L176.25 255zM177 271.5L177 255.75L176.25 255.75L176.25 271.5zM177 288L177 272.25L176.25 272.25L176.25 288zM177 304.5L177 288.75L176.25 288.75L176.25 304.5zM177 321L177 305.25L176.25 305.25L176.25 321zM177 351L177 321.75L176.25 321.75L176.25 351zM177 367.5L177 351.75L176.25 351.75L176.25 367.5zM177 384L177 368.25L176.25 368.25L176.25 384zM177 415.5L177 384.75L176.25 384.75L176.25 415.5zM177 432L177 416.25L176.25 416.25L176.25 432zM177 462L177 432.75L176.25 432.75L176.25 462zM177 478.5L177 462.75L176.25 462.75L176.25 478.5zM177 495L177 479.25L176.25 479.25L176.25 495zM177 511.5L177 495.75L176.25 495.75L176.25 511.5zM177 528L177 512.25L176.25 512.25L176.25 528zM177 558L177 528.75L176.25 528.75L176.25 558zM101.25 99.75L101.25 70.5L100.5 70.5L100.5 99.75zM101.25 116.25L101.25 100.5L100.5 100.5L100.5 116.25zM101.25 132.75L101.25 117L100.5 117L100.5 132.75zM101.25 175.5L101.25 133.5L100.5 133.5L100.5 175.5zM101.25 192L101.25 176.25L100.5 176.25L100.5 192zM101.25 222L101.25 192.75L100.5 192.75L100.5 222zM101.25 238.5L101.25 222.75L100.5 222.75L100.5 238.5zM101.25 255L101.25 239.25L100.5 239.25L100.5 255zM101.25 271.5L101.25 255.75L100.5 255.75L100.5 271.5zM101.25 288L101.25 272.25L100.5 272.25L100.5 288zM101.25 304.5L101.25 288.75L100.5 288.75L100.5 304.5zM101.25 321L101.25 305.25L100.5 305.25L100.5 321zM101.25 351L101.25 321.75L100.5 321.75L100.5 351zM101.25 367.5L101.25 351.75L100.5 351.75L100.5 367.5zM101.25 384L101.25 368.25L100.5 368.25L100.5 384zM101.25 415.5L101.25 384.75L100.5 384.75L100.5 415.5zM101.25 432L101.25 416.25L100.5 416.25L100.5 432zM101.25 462L101.25 432.75L100.5 432.75L100.5 462zM101.25 478.5L101.25 462.75L100.5 462.75L100.5 478.5zM101.25 495L101.25 479.25L100.5 479.25L100.5 495zM101.25 511.5L101.25 495.75L100.5 495.75L100.5 511.5zM101.25 528L101.25 512.25L100.5 512.25L100.5 528zM101.25 558L101.25 528.75L100.5 528.75L100.5 558z" stroke="none" fill="#000000" fill-rule="nonzero" fill-opacity="0.1490196" /><path id="204" transform="matrix(1 0 0 -1 0 612)" d="M255 531.7158L468.3013 531.7158" stroke="#000000" stroke-width="0.7017334" fill="none" /><path id="295" transform="matrix(1 0 0 -1 0 612)" d="M255 515.2158L586.931 515.2158" stroke="#000000" stroke-width="0.7017334" fill="none" /><path id="355" transform="matrix(1 0 0 -1 0 612)" d="M255 498.7158L487.7571 498.7158" stroke="#000000" stroke-width="0.7017334" fill="none" /><path id="410" transform="matrix(1 0 0 -1 0 612)" d="M255 482.2158L445.0548 482.2158" stroke="#000000" stroke-width="0.7017334" fill="none" /><path id="488" transform="matrix(1 0 0 -1 0 612)" d="M255 465.7158L568.7319 465.7158" stroke="#000000" stroke-width="0.7017334" fill="none" /><path id="569" transform="matrix(1 0 0 -1 0 612)" d="M255 448.8047L593.1251 448.8047" stroke="#000000" stroke-width="0.7017334" fill="none" /><path id="592" transform="matrix(1 0 0 -1 0 612)" d="M255 435.7158L350.9541 435.7158" stroke="#000000" stroke-width="0.7017334" fill="none" /><path id="668" transform="matrix(1 0 0 -1 0 612)" d="M255 419.2158L558.1506 419.2158" stroke="#000000" stroke-width="0.7017334" fill="none" /><path id="749" transform="matrix(1 0 0 -1 0 612)" d="M255 402.4697L613.7484 402.4697" stroke="#000000" stroke-width="0.7017334" fill="none" /><path id="818" transform="matrix(1 0 0 -1 0 612)" d="M255 387.7158L595.7423 387.7158" stroke="#000000" stroke-width="0.7017334" fill="none" /><path id="820" transform="matrix(1 0 0 -1 0 612)" d="M595.7423 387.7944L606.465 387.7944" stroke="#000000" stroke-width="0.7855225" fill="none" /><path id="871" transform="matrix(1 0 0 -1 0 612)" d="M255 371.2158L427.6148 371.2158" stroke="#000000" stroke-width="0.7017334" fill="none" /><path id="957" transform="matrix(1 0 0 -1 0 612)" d="M255 354.7158L607.8477 354.7158" stroke="#000000" stroke-width="0.7017334" fill="none" /><path id="1043" transform="matrix(1 0 0 -1 0 612)" d="M255 337.8047L613.2248 337.8047" stroke="#000000" stroke-width="0.7017334" fill="none" /><path id="1051" transform="matrix(1 0 0 -1 0 612)" d="M255 324.7158L289.2465 324.7158" stroke="#000000" stroke-width="0.7017334" fill="none" /><path id="1115" transform="matrix(1 0 0 -1 0 612)" d="M255 308.2158L500.6682 308.2158" stroke="#000000" stroke-width="0.7017334" fill="none" /><path id="1195" transform="matrix(1 0 0 -1 0 612)" d="M255 291.7158L583.2292 291.7158" stroke="#000000" stroke-width="0.7017334" fill="none" /><path id="1275" transform="matrix(1 0 0 -1 0 612)" d="M255 275.2158L546.674 275.2158" stroke="#000000" stroke-width="0.7017334" fill="none" /><path id="1345" transform="matrix(1 0 0 -1 0 612)" d="M255 258.7158L529.0822 258.7158" stroke="#000000" stroke-width="0.7017334" fill="none" /><path id="1415" transform="matrix(1 0 0 -1 0 612)" d="M255 242.2158L516.6107 242.2158" stroke="#000000" stroke-width="0.7017334" fill="none" /><path id="1467" transform="matrix(1 0 0 -1 0 612)" d="M255 225.7158L443.8087 225.7158" stroke="#000000" stroke-width="0.7017334" fill="none" /><path id="1524" transform="matrix(1 0 0 -1 0 612)" d="M255 195.7158L438.4789 195.7158" stroke="#000000" stroke-width="0.7017334" fill="none" /><path id="1561" transform="matrix(1 0 0 -1 0 612)" d="M255 179.2158L388.7449 179.2158" stroke="#000000" stroke-width="0.7017334" fill="none" /><path id="1648" transform="matrix(1 0 0 -1 0 612)" d="M255 162.6436L580.9203 162.6436" stroke="#000000" stroke-width="0.7017334" fill="none" /><path id="1715" transform="matrix(1 0 0 -1 0 612)" d="M255 149.5547L595.1926 149.5547" stroke="#000000" stroke-width="0.7017334" fill="none" /><path id="1724" transform="matrix(1 0 0 -1 0 612)" d="M255 136.4658L290.8382 136.4658" stroke="#000000" stroke-width="0.7017334" fill="none" /><path id="1769" transform="matrix(1 0 0 -1 0 612)" d="M255 119.9658L379.1953 119.9658" stroke="#000000" stroke-width="0.7017334" fill="none" /><path id="1843" transform="matrix(1 0 0 -1 0 612)" d="M255 103.4658L544.8885 103.4658" stroke="#000000" stroke-width="0.7017334" fill="none" /><path id="1921" transform="matrix(1 0 0 -1 0 612)" d="M255 86.55469L565.4701 86.55469" stroke="#000000" stroke-width="0.7017334" fill="none" /><path id="1976" transform="matrix(1 0 0 -1 0 612)" d="M255 73.46582L520.684 73.46582" stroke="#000000" stroke-width="0.7017334" fill="none" /></g></g></g></svg>