<svg xmlns="http://www.w3.org/2000/svg" xmlns:xlink="http://www.w3.org/1999/xlink" id="body_24" preserveAspectRatio="xMinYMin meet" viewBox="0 0 1056 816"><defs><clipPath id="1"><path id="" clip-rule="evenodd" transform="matrix(1 0 0 1 0 0)" d="M0 612L0 0L0 0L792 0L792 0L792 612L792 612L0 612z" /></clipPath><clipPath id="2"><path id="" clip-rule="evenodd" transform="matrix(1 0 0 1 0 0)" d="M99.75 52.5L692.25 52.5L692.25 52.5L692.25 467.25L692.25 467.25L99.75 467.25L99.75 467.25L99.75 52.5z" /></clipPath></defs><g transform="matrix(1.333333 0 0 1.333333 0 0)"><g clip-path="url(#1)"><g clip-path="url(#2)"><path id="118" transform="matrix(1 0 0 -1 0 612)" d="M100.5 558.75L691.5 558.75L691.5 528L100.5 528L100.5 558.75z" stroke="none" fill="#FFFFFF" fill-rule="nonzero" /><path id="119" transform="matrix(1 0 0 -1 0 612)" d="M100.5 528.75L691.5 528.75L691.5 511.5L100.5 511.5L100.5 528.75z" stroke="none" fill="#E0F7FA" fill-rule="nonzero" /><path id="120" transform="matrix(1 0 0 -1 0 612)" d="M100.5 512.25L691.5 512.25L691.5 495L100.5 495L100.5 512.25z" stroke="none" fill="#FFFFFF" fill-rule="nonzero" /><path id="121" transform="matrix(1 0 0 -1 0 612)" d="M100.5 495.75L691.5 495.75L691.5 465L100.5 465L100.5 495.75z" stroke="none" fill="#E0F7FA" fill-rule="nonzero" /><path id="122" transform="matrix(1 0 0 -1 0 612)" d="M100.5 465.75L691.5 465.75L691.5 448.5L100.5 448.5L100.5 465.75z" stroke="none" fill="#FFFFFF" fill-rule="nonzero" /><path id="123" transform="matrix(1 0 0 -1 0 612)" d="M100.5 449.25L691.5 449.25L691.5 418.5L100.5 418.5L100.5 449.25z" stroke="none" fill="#E0F7FA" fill-rule="nonzero" /><path id="124" transform="matrix(1 0 0 -1 0 612)" d="M100.5 419.25L691.5 419.25L691.5 388.5L100.5 388.5L100.5 419.25z" stroke="none" fill="#FFFFFF" fill-rule="nonzero" /><path id="125" transform="matrix(1 0 0 -1 0 612)" d="M100.5 389.25L691.5 389.25L691.5 358.5L100.5 358.5L100.5 389.25z" stroke="none" fill="#E0F7FA" fill-rule="nonzero" /><path id="126" transform="matrix(1 0 0 -1 0 612)" d="M100.5 359.25L691.5 359.25L691.5 328.5L100.5 328.5L100.5 359.25z" stroke="none" fill="#FFFFFF" fill-rule="nonzero" /><path id="127" transform="matrix(1 0 0 -1 0 612)" d="M100.5 329.25L691.5 329.25L691.5 312L100.5 312L100.5 329.25z" stroke="none" fill="#E0F7FA" fill-rule="nonzero" /><path id="128" transform="matrix(1 0 0 -1 0 612)" d="M100.5 312.75L691.5 312.75L691.5 295.5L100.5 295.5L100.5 312.75z" stroke="none" fill="#FFFFFF" fill-rule="nonzero" /><path id="129" transform="matrix(1 0 0 -1 0 612)" d="M100.5 296.25L691.5 296.25L691.5 265.5L100.5 265.5L100.5 296.25z" stroke="none" fill="#E0F7FA" fill-rule="nonzero" /><path id="130" transform="matrix(1 0 0 -1 0 612)" d="M100.5 266.25L691.5 266.25L691.5 235.5L100.5 235.5L100.5 266.25z" stroke="none" fill="#FFFFFF" fill-rule="nonzero" /><path id="131" transform="matrix(1 0 0 -1 0 612)" d="M100.5 236.25L691.5 236.25L691.5 205.5L100.5 205.5L100.5 236.25z" stroke="none" fill="#E0F7FA" fill-rule="nonzero" /><path id="132" transform="matrix(1 0 0 -1 0 612)" d="M100.5 206.25L691.5 206.25L691.5 175.5L100.5 175.5L100.5 206.25z" stroke="none" fill="#FFFFFF" fill-rule="nonzero" /><path id="133" transform="matrix(1 0 0 -1 0 612)" d="M100.5 176.25L691.5 176.25L691.5 145.5L100.5 145.5L100.5 176.25z" stroke="none" fill="#E0F7FA" fill-rule="nonzero" /><path id="134" transform="matrix(1 0 0 -1 0 612)" d="M100.5 146.25L691.5 146.25L691.5 145.5L100.5 145.5zM100.5 176.25L691.5 176.25L691.5 175.5L100.5 175.5zM100.5 206.25L691.5 206.25L691.5 205.5L100.5 205.5zM100.5 236.25L691.5 236.25L691.5 235.5L100.5 235.5zM100.5 266.25L691.5 266.25L691.5 265.5L100.5 265.5zM100.5 296.25L691.5 296.25L691.5 295.5L100.5 295.5zM100.5 312.75L691.5 312.75L691.5 312L100.5 312zM100.5 329.25L691.5 329.25L691.5 328.5L100.5 328.5zM100.5 359.25L691.5 359.25L691.5 358.5L100.5 358.5zM100.5 389.25L691.5 389.25L691.5 388.5L100.5 388.5zM100.5 419.25L691.5 419.25L691.5 418.5L100.5 418.5zM100.5 449.25L691.5 449.25L691.5 448.5L100.5 448.5zM100.5 465.75L691.5 465.75L691.5 465L100.5 465zM100.5 495.75L691.5 495.75L691.5 495L100.5 495zM100.5 512.25L691.5 512.25L691.5 511.5L100.5 511.5zM100.5 528.75L691.5 528.75L691.5 528L100.5 528zM100.5 558.75L691.5 558.75L691.5 558L100.5 558zM691.5 175.5L691.5 146.25L690.75 146.25L690.75 175.5zM691.5 205.5L691.5 176.25L690.75 176.25L690.75 205.5zM691.5 235.5L691.5 206.25L690.75 206.25L690.75 235.5zM691.5 265.5L691.5 236.25L690.75 236.25L690.75 265.5zM691.5 295.5L691.5 266.25L690.75 266.25L690.75 295.5zM691.5 312L691.5 296.25L690.75 296.25L690.75 312zM691.5 328.5L691.5 312.75L690.75 312.75L690.75 328.5zM691.5 358.5L691.5 329.25L690.75 329.25L690.75 358.5zM691.5 388.5L691.5 359.25L690.75 359.25L690.75 388.5zM691.5 418.5L691.5 389.25L690.75 389.25L690.75 418.5zM691.5 448.5L691.5 419.25L690.75 419.25L690.75 448.5zM691.5 465L691.5 449.25L690.75 449.25L690.75 465zM691.5 495L691.5 465.75L690.75 465.75L690.75 495zM691.5 511.5L691.5 495.75L690.75 495.75L690.75 511.5zM691.5 528L691.5 512.25L690.75 512.25L690.75 528zM691.5 558L691.5 528.75L690.75 528.75L690.75 558zM621.75 175.5L621.75 146.25L621 146.25L621 175.5zM621.75 205.5L621.75 176.25L621 176.25L621 205.5zM621.75 235.5L621.75 206.25L621 206.25L621 235.5zM621.75 265.5L621.75 236.25L621 236.25L621 265.5zM621.75 295.5L621.75 266.25L621 266.25L621 295.5zM621.75 312L621.75 296.25L621 296.25L621 312zM621.75 328.5L621.75 312.75L621 312.75L621 328.5zM621.75 358.5L621.75 329.25L621 329.25L621 358.5zM621.75 388.5L621.75 359.25L621 359.25L621 388.5zM621.75 418.5L621.75 389.25L621 389.25L621 418.5zM621.75 448.5L621.75 419.25L621 419.25L621 448.5zM621.75 465L621.75 449.25L621 449.25L621 465zM621.75 495L621.75 465.75L621 465.75L621 495zM621.75 511.5L621.75 495.75L621 495.75L621 511.5zM621.75 528L621.75 512.25L621 512.25L621 528zM621.75 558L621.75 528.75L621 528.75L621 558zM252.75 175.5L252.75 146.25L252 146.25L252 175.5zM252.75 205.5L252.75 176.25L252 176.25L252 205.5zM252.75 235.5L252.75 206.25L252 206.25L252 235.5zM252.75 265.5L252.75 236.25L252 236.25L252 265.5zM252.75 295.5L252.75 266.25L252 266.25L252 295.5zM252.75 312L252.75 296.25L252 296.25L252 312zM252.75 328.5L252.75 312.75L252 312.75L252 328.5zM252.75 358.5L252.75 329.25L252 329.25L252 358.5zM252.75 388.5L252.75 359.25L252 359.25L252 388.5zM252.75 418.5L252.75 389.25L252 389.25L252 418.5zM252.75 448.5L252.75 419.25L252 419.25L252 448.5zM252.75 465L252.75 449.25L252 449.25L252 465zM252.75 495L252.75 465.75L252 465.75L252 495zM252.75 511.5L252.75 495.75L252 495.75L252 511.5zM252.75 528L252.75 512.25L252 512.25L252 528zM252.75 558L252.75 528.75L252 528.75L252 558zM177 175.5L177 146.25L176.25 146.25L176.25 175.5zM177 205.5L177 176.25L176.25 176.25L176.25 205.5zM177 235.5L177 206.25L176.25 206.25L176.25 235.5zM177 265.5L177 236.25L176.25 236.25L176.25 265.5zM177 295.5L177 266.25L176.25 266.25L176.25 295.5zM177 312L177 296.25L176.25 296.25L176.25 312zM177 328.5L177 312.75L176.25 312.75L176.25 328.5zM177 358.5L177 329.25L176.25 329.25L176.25 358.5zM177 388.5L177 359.25L176.25 359.25L176.25 388.5zM177 418.5L177 389.25L176.25 389.25L176.25 418.5zM177 448.5L177 419.25L176.25 419.25L176.25 448.5zM177 465L177 449.25L176.25 449.25L176.25 465zM177 495L177 465.75L176.25 465.75L176.25 495zM177 511.5L177 495.75L176.25 495.75L176.25 511.5zM177 528L177 512.25L176.25 512.25L176.25 528zM177 558L177 528.75L176.25 528.75L176.25 558zM101.25 175.5L101.25 146.25L100.5 146.25L100.5 175.5zM101.25 205.5L101.25 176.25L100.5 176.25L100.5 205.5zM101.25 235.5L101.25 206.25L100.5 206.25L100.5 235.5zM101.25 265.5L101.25 236.25L100.5 236.25L100.5 265.5zM101.25 295.5L101.25 266.25L100.5 266.25L100.5 295.5zM101.25 312L101.25 296.25L100.5 296.25L100.5 312zM101.25 328.5L101.25 312.75L100.5 312.75L100.5 328.5zM101.25 358.5L101.25 329.25L100.5 329.25L100.5 358.5zM101.25 388.5L101.25 359.25L100.5 359.25L100.5 388.5zM101.25 418.5L101.25 389.25L100.5 389.25L100.5 418.5zM101.25 448.5L101.25 419.25L100.5 419.25L100.5 448.5zM101.25 465L101.25 449.25L100.5 449.25L100.5 465zM101.25 495L101.25 465.75L100.5 465.75L100.5 495zM101.25 511.5L101.25 495.75L100.5 495.75L100.5 511.5zM101.25 528L101.25 512.25L100.5 512.25L100.5 528zM101.25 558L101.25 528.75L100.5 528.75L100.5 558z" stroke="none" fill="#000000" fill-rule="nonzero" fill-opacity="0.1490196" /><path id="211" transform="matrix(1 0 0 -1 0 612)" d="M255 544.8047L583.7267 544.8047" stroke="#000000" stroke-width="0.7017334" fill="none" /><path id="221" transform="matrix(1 0 0 -1 0 612)" d="M255 531.7158L298.3513 531.7158" stroke="#000000" stroke-width="0.7017334" fill="none" /><path id="253" transform="matrix(1 0 0 -1 0 612)" d="M255 515.2158L326.9329 515.2158" stroke="#000000" stroke-width="0.7017334" fill="none" /><path id="316" transform="matrix(1 0 0 -1 0 612)" d="M255 498.7158L514.4797 498.7158" stroke="#000000" stroke-width="0.7017334" fill="none" /><path id="401" transform="matrix(1 0 0 -1 0 612)" d="M255 481.8047L593.2662 481.8047" stroke="#000000" stroke-width="0.7017334" fill="none" /><path id="417" transform="matrix(1 0 0 -1 0 612)" d="M255 468.7158L330.0795 468.7158" stroke="#000000" stroke-width="0.7017334" fill="none" /><path id="487" transform="matrix(1 0 0 -1 0 612)" d="M255 452.2158L531.7469 452.2158" stroke="#000000" stroke-width="0.7017334" fill="none" /><path id="573" transform="matrix(1 0 0 -1 0 612)" d="M255 435.3047L596.3082 435.3047" stroke="#000000" stroke-width="0.7017334" fill="none" /><path id="583" transform="matrix(1 0 0 -1 0 612)" d="M255 422.2158L299.9168 422.2158" stroke="#000000" stroke-width="0.7017334" fill="none" /><path id="671" transform="matrix(1 0 0 -1 0 612)" d="M255 405.3047L582.2137 405.3047" stroke="#000000" stroke-width="0.7017334" fill="none" /><path id="687" transform="matrix(1 0 0 -1 0 612)" d="M255 392.2158L328.2 392.2158" stroke="#000000" stroke-width="0.7017334" fill="none" /><path id="768" transform="matrix(1 0 0 -1 0 612)" d="M255 375.3047L593.1039 375.3047" stroke="#000000" stroke-width="0.7017334" fill="none" /><path id="778" transform="matrix(1 0 0 -1 0 612)" d="M255 362.2158L301.7598 362.2158" stroke="#000000" stroke-width="0.7017334" fill="none" /><path id="861" transform="matrix(1 0 0 -1 0 612)" d="M255 345.3047L606.219 345.3047" stroke="#000000" stroke-width="0.7017334" fill="none" /><path id="870" transform="matrix(1 0 0 -1 0 612)" d="M255 332.2158L285.681 332.2158" stroke="#000000" stroke-width="0.7017334" fill="none" /><path id="952" transform="matrix(1 0 0 -1 0 612)" d="M255 315.7158L590.1143 315.7158" stroke="#000000" stroke-width="0.7017334" fill="none" /><path id="1029" transform="matrix(1 0 0 -1 0 612)" d="M255 299.2158L584.6171 299.2158" stroke="#000000" stroke-width="0.7017334" fill="none" /><path id="1123" transform="matrix(1 0 0 -1 0 612)" d="M255 269.2158L604.2769 269.2158" stroke="#000000" stroke-width="0.7017334" fill="none" /><path id="1206" transform="matrix(1 0 0 -1 0 612)" d="M255 252.3047L587.8002 252.3047" stroke="#000000" stroke-width="0.7017334" fill="none" /><path id="1246" transform="matrix(1 0 0 -1 0 612)" d="M255 239.2158L442.1281 239.2158" stroke="#000000" stroke-width="0.7017334" fill="none" /><path id="1325" transform="matrix(1 0 0 -1 0 612)" d="M255 222.3047L586.0044 222.3047" stroke="#000000" stroke-width="0.7017334" fill="none" /><path id="1346" transform="matrix(1 0 0 -1 0 612)" d="M255 209.2158L342.0482 209.2158" stroke="#000000" stroke-width="0.7017334" fill="none" /><path id="1421" transform="matrix(1 0 0 -1 0 612)" d="M255 179.2158L520.2442 179.2158" stroke="#000000" stroke-width="0.7017334" fill="none" /><path id="1511" transform="matrix(1 0 0 -1 0 612)" d="M255 162.3047L611.366 162.3047" stroke="#000000" stroke-width="0.7017334" fill="none" /><path id="1518" transform="matrix(1 0 0 -1 0 612)" d="M255 149.2158L281.4296 149.2158" stroke="#000000" stroke-width="0.7017334" fill="none" /></g></g></g></svg>