<svg xmlns="http://www.w3.org/2000/svg" xmlns:xlink="http://www.w3.org/1999/xlink" id="body_9" preserveAspectRatio="xMinYMin meet" viewBox="0 0 1056 816"><defs><clipPath id="1"><path id="" clip-rule="evenodd" transform="matrix(1 0 0 1 0 0)" d="M0 612L0 0L0 0L792 0L792 0L792 612L792 612L0 612z" /></clipPath><clipPath id="2"><path id="" clip-rule="evenodd" transform="matrix(1 0 0 1 0 0)" d="M99.75 52.5L692.25 52.5L692.25 52.5L692.25 549L692.25 549L99.75 549L99.75 549L99.75 52.5z" /></clipPath></defs><g transform="matrix(1.333333 0 0 1.333333 0 0)"><g clip-path="url(#1)"><g clip-path="url(#2)"><path id="117" transform="matrix(1 0 0 -1 0 612)" d="M100.5 558.75L691.5 558.75L691.5 541.5L100.5 541.5L100.5 558.75z" stroke="none" fill="#E0F7FA" fill-rule="nonzero" /><path id="118" transform="matrix(1 0 0 -1 0 612)" d="M100.5 542.25L691.5 542.25L691.5 525L100.5 525L100.5 542.25z" stroke="none" fill="#FFFFFF" fill-rule="nonzero" /><path id="119" transform="matrix(1 0 0 -1 0 612)" d="M100.5 525.75L691.5 525.75L691.5 508.5L100.5 508.5L100.5 525.75z" stroke="none" fill="#E0F7FA" fill-rule="nonzero" /><path id="120" transform="matrix(1 0 0 -1 0 612)" d="M100.5 509.25L691.5 509.25L691.5 492L100.5 492L100.5 509.25z" stroke="none" fill="#FFFFFF" fill-rule="nonzero" /><path id="121" transform="matrix(1 0 0 -1 0 612)" d="M100.5 492.75L691.5 492.75L691.5 462L100.5 462L100.5 492.75z" stroke="none" fill="#E0F7FA" fill-rule="nonzero" /><path id="122" transform="matrix(1 0 0 -1 0 612)" d="M100.5 462.75L691.5 462.75L691.5 445.5L100.5 445.5L100.5 462.75z" stroke="none" fill="#FFFFFF" fill-rule="nonzero" /><path id="123" transform="matrix(1 0 0 -1 0 612)" d="M100.5 446.25L691.5 446.25L691.5 415.5L100.5 415.5L100.5 446.25z" stroke="none" fill="#E0F7FA" fill-rule="nonzero" /><path id="124" transform="matrix(1 0 0 -1 0 612)" d="M100.5 416.25L691.5 416.25L691.5 399L100.5 399L100.5 416.25z" stroke="none" fill="#FFFFFF" fill-rule="nonzero" /><path id="125" transform="matrix(1 0 0 -1 0 612)" d="M100.5 399.75L691.5 399.75L691.5 382.5L100.5 382.5L100.5 399.75z" stroke="none" fill="#E0F7FA" fill-rule="nonzero" /><path id="126" transform="matrix(1 0 0 -1 0 612)" d="M100.5 383.25L691.5 383.25L691.5 352.5L100.5 352.5L100.5 383.25z" stroke="none" fill="#FFFFFF" fill-rule="nonzero" /><path id="127" transform="matrix(1 0 0 -1 0 612)" d="M100.5 353.25L691.5 353.25L691.5 336L100.5 336L100.5 353.25z" stroke="none" fill="#E0F7FA" fill-rule="nonzero" /><path id="128" transform="matrix(1 0 0 -1 0 612)" d="M100.5 336.75L691.5 336.75L691.5 306L100.5 306L100.5 336.75z" stroke="none" fill="#FFFFFF" fill-rule="nonzero" /><path id="129" transform="matrix(1 0 0 -1 0 612)" d="M100.5 306.75L691.5 306.75L691.5 276L100.5 276L100.5 306.75z" stroke="none" fill="#E0F7FA" fill-rule="nonzero" /><path id="130" transform="matrix(1 0 0 -1 0 612)" d="M100.5 276.75L691.5 276.75L691.5 259.5L100.5 259.5L100.5 276.75z" stroke="none" fill="#FFFFFF" fill-rule="nonzero" /><path id="131" transform="matrix(1 0 0 -1 0 612)" d="M100.5 260.25L691.5 260.25L691.5 203.25L100.5 203.25L100.5 260.25z" stroke="none" fill="#E0F7FA" fill-rule="nonzero" /><path id="132" transform="matrix(1 0 0 -1 0 612)" d="M100.5 204L691.5 204L691.5 186.75L100.5 186.75L100.5 204z" stroke="none" fill="#FFFFFF" fill-rule="nonzero" /><path id="133" transform="matrix(1 0 0 -1 0 612)" d="M100.5 187.5L691.5 187.5L691.5 170.25L100.5 170.25L100.5 187.5z" stroke="none" fill="#E0F7FA" fill-rule="nonzero" /><path id="134" transform="matrix(1 0 0 -1 0 612)" d="M100.5 171L691.5 171L691.5 140.25L100.5 140.25L100.5 171z" stroke="none" fill="#FFFFFF" fill-rule="nonzero" /><path id="135" transform="matrix(1 0 0 -1 0 612)" d="M100.5 141L691.5 141L691.5 110.25L100.5 110.25L100.5 141z" stroke="none" fill="#E0F7FA" fill-rule="nonzero" /><path id="136" transform="matrix(1 0 0 -1 0 612)" d="M100.5 111L691.5 111L691.5 80.25L100.5 80.25L100.5 111z" stroke="none" fill="#FFFFFF" fill-rule="nonzero" /><path id="137" transform="matrix(1 0 0 -1 0 612)" d="M100.5 81L691.5 81L691.5 63.75L100.5 63.75L100.5 81z" stroke="none" fill="#E0F7FA" fill-rule="nonzero" /><path id="138" transform="matrix(1 0 0 -1 0 612)" d="M100.5 64.5L691.5 64.5L691.5 63.75L100.5 63.75zM100.5 81L691.5 81L691.5 80.25L100.5 80.25zM100.5 111L691.5 111L691.5 110.25L100.5 110.25zM100.5 141L691.5 141L691.5 140.25L100.5 140.25zM100.5 171L691.5 171L691.5 170.25L100.5 170.25zM100.5 187.5L691.5 187.5L691.5 186.75L100.5 186.75zM100.5 204L691.5 204L691.5 203.25L100.5 203.25zM100.5 260.25L691.5 260.25L691.5 259.5L100.5 259.5zM100.5 276.75L691.5 276.75L691.5 276L100.5 276zM100.5 306.75L691.5 306.75L691.5 306L100.5 306zM100.5 336.75L691.5 336.75L691.5 336L100.5 336zM100.5 353.25L691.5 353.25L691.5 352.5L100.5 352.5zM100.5 383.25L691.5 383.25L691.5 382.5L100.5 382.5zM100.5 399.75L691.5 399.75L691.5 399L100.5 399zM100.5 416.25L691.5 416.25L691.5 415.5L100.5 415.5zM100.5 446.25L691.5 446.25L691.5 445.5L100.5 445.5zM100.5 462.75L691.5 462.75L691.5 462L100.5 462zM100.5 492.75L691.5 492.75L691.5 492L100.5 492zM100.5 509.25L691.5 509.25L691.5 508.5L100.5 508.5zM100.5 525.75L691.5 525.75L691.5 525L100.5 525zM100.5 542.25L691.5 542.25L691.5 541.5L100.5 541.5zM100.5 558.75L691.5 558.75L691.5 558L100.5 558zM691.5 80.25L691.5 64.5L690.75 64.5L690.75 80.25zM691.5 110.25L691.5 81L690.75 81L690.75 110.25zM691.5 140.25L691.5 111L690.75 111L690.75 140.25zM691.5 170.25L691.5 141L690.75 141L690.75 170.25zM691.5 186.75L691.5 171L690.75 171L690.75 186.75zM691.5 203.25L691.5 187.5L690.75 187.5L690.75 203.25zM691.5 259.5L691.5 204L690.75 204L690.75 259.5zM691.5 276L691.5 260.25L690.75 260.25L690.75 276zM691.5 306L691.5 276.75L690.75 276.75L690.75 306zM691.5 336L691.5 306.75L690.75 306.75L690.75 336zM691.5 352.5L691.5 336.75L690.75 336.75L690.75 352.5zM691.5 382.5L691.5 353.25L690.75 353.25L690.75 382.5zM691.5 399L691.5 383.25L690.75 383.25L690.75 399zM691.5 415.5L691.5 399.75L690.75 399.75L690.75 415.5zM691.5 445.5L691.5 416.25L690.75 416.25L690.75 445.5zM691.5 462L691.5 446.25L690.75 446.25L690.75 462zM691.5 492L691.5 462.75L690.75 462.75L690.75 492zM691.5 508.5L691.5 492.75L690.75 492.75L690.75 508.5zM691.5 525L691.5 509.25L690.75 509.25L690.75 525zM691.5 541.5L691.5 525.75L690.75 525.75L690.75 541.5zM691.5 558L691.5 542.25L690.75 542.25L690.75 558zM621.75 80.25L621.75 64.5L621 64.5L621 80.25zM621.75 110.25L621.75 81L621 81L621 110.25zM621.75 140.25L621.75 111L621 111L621 140.25zM621.75 170.25L621.75 141L621 141L621 170.25zM621.75 186.75L621.75 171L621 171L621 186.75zM621.75 203.25L621.75 187.5L621 187.5L621 203.25zM621.75 259.5L621.75 204L621 204L621 259.5zM621.75 276L621.75 260.25L621 260.25L621 276zM621.75 306L621.75 276.75L621 276.75L621 306zM621.75 336L621.75 306.75L621 306.75L621 336zM621.75 352.5L621.75 336.75L621 336.75L621 352.5zM621.75 382.5L621.75 353.25L621 353.25L621 382.5zM621.75 399L621.75 383.25L621 383.25L621 399zM621.75 415.5L621.75 399.75L621 399.75L621 415.5zM621.75 445.5L621.75 416.25L621 416.25L621 445.5zM621.75 462L621.75 446.25L621 446.25L621 462zM621.75 492L621.75 462.75L621 462.75L621 492zM621.75 508.5L621.75 492.75L621 492.75L621 508.5zM621.75 525L621.75 509.25L621 509.25L621 525zM621.75 541.5L621.75 525.75L621 525.75L621 541.5zM621.75 558L621.75 542.25L621 542.25L621 558zM252.75 80.25L252.75 64.5L252 64.5L252 80.25zM252.75 110.25L252.75 81L252 81L252 110.25zM252.75 140.25L252.75 111L252 111L252 140.25zM252.75 170.25L252.75 141L252 141L252 170.25zM252.75 186.75L252.75 171L252 171L252 186.75zM252.75 203.25L252.75 187.5L252 187.5L252 203.25zM252.75 259.5L252.75 204L252 204L252 259.5zM252.75 276L252.75 260.25L252 260.25L252 276zM252.75 306L252.75 276.75L252 276.75L252 306zM252.75 336L252.75 306.75L252 306.75L252 336zM252.75 352.5L252.75 336.75L252 336.75L252 352.5zM252.75 382.5L252.75 353.25L252 353.25L252 382.5zM252.75 399L252.75 383.25L252 383.25L252 399zM252.75 415.5L252.75 399.75L252 399.75L252 415.5zM252.75 445.5L252.75 416.25L252 416.25L252 445.5zM252.75 462L252.75 446.25L252 446.25L252 462zM252.75 492L252.75 462.75L252 462.75L252 492zM252.75 508.5L252.75 492.75L252 492.75L252 508.5zM252.75 525L252.75 509.25L252 509.25L252 525zM252.75 541.5L252.75 525.75L252 525.75L252 541.5zM252.75 558L252.75 542.25L252 542.25L252 558zM177 80.25L177 64.5L176.25 64.5L176.25 80.25zM177 110.25L177 81L176.25 81L176.25 110.25zM177 140.25L177 111L176.25 111L176.25 140.25zM177 170.25L177 141L176.25 141L176.25 170.25zM177 186.75L177 171L176.25 171L176.25 186.75zM177 203.25L177 187.5L176.25 187.5L176.25 203.25zM177 259.5L177 204L176.25 204L176.25 259.5zM177 276L177 260.25L176.25 260.25L176.25 276zM177 306L177 276.75L176.25 276.75L176.25 306zM177 336L177 306.75L176.25 306.75L176.25 336zM177 352.5L177 336.75L176.25 336.75L176.25 352.5zM177 382.5L177 353.25L176.25 353.25L176.25 382.5zM177 399L177 383.25L176.25 383.25L176.25 399zM177 415.5L177 399.75L176.25 399.75L176.25 415.5zM177 445.5L177 416.25L176.25 416.25L176.25 445.5zM177 462L177 446.25L176.25 446.25L176.25 462zM177 492L177 462.75L176.25 462.75L176.25 492zM177 508.5L177 492.75L176.25 492.75L176.25 508.5zM177 525L177 509.25L176.25 509.25L176.25 525zM177 541.5L177 525.75L176.25 525.75L176.25 541.5zM177 558L177 542.25L176.25 542.25L176.25 558zM101.25 80.25L101.25 64.5L100.5 64.5L100.5 80.25zM101.25 110.25L101.25 81L100.5 81L100.5 110.25zM101.25 140.25L101.25 111L100.5 111L100.5 140.25zM101.25 170.25L101.25 141L100.5 141L100.5 170.25zM101.25 186.75L101.25 171L100.5 171L100.5 186.75zM101.25 203.25L101.25 187.5L100.5 187.5L100.5 203.25zM101.25 259.5L101.25 204L100.5 204L100.5 259.5zM101.25 276L101.25 260.25L100.5 260.25L100.5 276zM101.25 306L101.25 276.75L100.5 276.75L100.5 306zM101.25 336L101.25 306.75L100.5 306.75L100.5 336zM101.25 352.5L101.25 336.75L100.5 336.75L100.5 352.5zM101.25 382.5L101.25 353.25L100.5 353.25L100.5 382.5zM101.25 399L101.25 383.25L100.5 383.25L100.5 399zM101.25 415.5L101.25 399.75L100.5 399.75L100.5 415.5zM101.25 445.5L101.25 416.25L100.5 416.25L100.5 445.5zM101.25 462L101.25 446.25L100.5 446.25L100.5 462zM101.25 492L101.25 462.75L100.5 462.75L100.5 492zM101.25 508.5L101.25 492.75L100.5 492.75L100.5 508.5zM101.25 525L101.25 509.25L100.5 509.25L100.5 525zM101.25 541.5L101.25 525.75L100.5 525.75L100.5 541.5zM101.25 558L101.25 542.25L100.5 542.25L100.5 558z" stroke="none" fill="#000000" fill-rule="nonzero" fill-opacity="0.1490196" /><path id="217" transform="matrix(1 0 0 -1 0 612)" d="M255 545.2156L595.4075 545.2156" stroke="#000000" stroke-width="0.7017334" fill="none" /><path id="294" transform="matrix(1 0 0 -1 0 612)" d="M255 528.7156L573.9256 528.7156" stroke="#000000" stroke-width="0.7017334" fill="none" /><path id="364" transform="matrix(1 0 0 -1 0 612)" d="M255 512.2156L518.6264 512.2156" stroke="#000000" stroke-width="0.7017334" fill="none" /><path id="433" transform="matrix(1 0 0 -1 0 612)" d="M255 495.7156L519.2074 495.7156" stroke="#000000" stroke-width="0.7017334" fill="none" /><path id="517" transform="matrix(1 0 0 -1 0 612)" d="M255 478.8047L584.8578 478.8047" stroke="#000000" stroke-width="0.7017334" fill="none" /><path id="544" transform="matrix(1 0 0 -1 0 612)" d="M255 465.7156L383.3943 465.7156" stroke="#000000" stroke-width="0.7017334" fill="none" /><path id="595" transform="matrix(1 0 0 -1 0 612)" d="M255 449.2156L432.0547 449.2156" stroke="#000000" stroke-width="0.7017334" fill="none" /><path id="656" transform="matrix(1 0 0 -1 0 612)" d="M255 419.2156L383.185 419.2156" stroke="#000000" stroke-width="0.7017334" fill="none" /><path id="700" transform="matrix(1 0 0 -1 0 612)" d="M255 402.7156L368.6769 402.7156" stroke="#000000" stroke-width="0.7017334" fill="none" /><path id="752" transform="matrix(1 0 0 -1 0 612)" d="M255 386.2156L427.5835 386.2156" stroke="#000000" stroke-width="0.7017334" fill="none" /><path id="835" transform="matrix(1 0 0 -1 0 612)" d="M255 369.3047L585.9622 369.3047" stroke="#000000" stroke-width="0.7017334" fill="none" /><path id="844" transform="matrix(1 0 0 -1 0 612)" d="M255 356.2158L301.142 356.2158" stroke="#000000" stroke-width="0.7017334" fill="none" /><path id="933" transform="matrix(1 0 0 -1 0 612)" d="M255 339.7158L615.6801 339.7158" stroke="#000000" stroke-width="0.7017334" fill="none" /><path id="1013" transform="matrix(1 0 0 -1 0 612)" d="M255 322.8047L612.6593 322.8047" stroke="#000000" stroke-width="0.7017334" fill="none" /><path id="1059" transform="matrix(1 0 0 -1 0 612)" d="M255 309.7158L477.4951 309.7158" stroke="#000000" stroke-width="0.7017334" fill="none" /><path id="1143" transform="matrix(1 0 0 -1 0 612)" d="M255 292.8047L594.6428 292.8047" stroke="#000000" stroke-width="0.7017334" fill="none" /><path id="1151" transform="matrix(1 0 0 -1 0 612)" d="M255 279.7158L294.6968 279.7158" stroke="#000000" stroke-width="0.7017334" fill="none" /><path id="1193" transform="matrix(1 0 0 -1 0 612)" d="M255 263.2158L379.6403 263.2158" stroke="#000000" stroke-width="0.7017334" fill="none" /><path id="1301" transform="matrix(1 0 0 -1 0 612)" d="M255 206.9658L552.3704 206.9658" stroke="#000000" stroke-width="0.7017334" fill="none" /><path id="1341" transform="matrix(1 0 0 -1 0 612)" d="M255 190.4658L352.7813 190.4658" stroke="#000000" stroke-width="0.7017334" fill="none" /><path id="1395" transform="matrix(1 0 0 -1 0 612)" d="M255 173.9658L430.1752 173.9658" stroke="#000000" stroke-width="0.7017334" fill="none" /><path id="1448" transform="matrix(1 0 0 -1 0 612)" d="M255 143.9658L420.3321 143.9658" stroke="#000000" stroke-width="0.7017334" fill="none" /><path id="1532" transform="matrix(1 0 0 -1 0 612)" d="M255 113.9658L562.7265 113.9658" stroke="#000000" stroke-width="0.7017334" fill="none" /><path id="1614" transform="matrix(1 0 0 -1 0 612)" d="M255 97.05469L596.9259 97.05469" stroke="#000000" stroke-width="0.7017334" fill="none" /><path id="1660" transform="matrix(1 0 0 -1 0 612)" d="M255 83.96582L484.0659 83.96582" stroke="#000000" stroke-width="0.7017334" fill="none" /><path id="1704" transform="matrix(1 0 0 -1 0 612)" d="M255 67.46582L401.5097 67.46582" stroke="#000000" stroke-width="0.7017334" fill="none" /></g></g></g></svg>