<svg xmlns="http://www.w3.org/2000/svg" xmlns:xlink="http://www.w3.org/1999/xlink" id="body_3" preserveAspectRatio="xMinYMin meet" viewBox="0 0 1056 816"><defs><clipPath id="1"><path id="" clip-rule="evenodd" transform="matrix(1 0 0 1 0 0)" d="M0 612L0 0L0 0L792 0L792 0L792 612L792 612L0 612z" /></clipPath><clipPath id="2"><path id="" clip-rule="evenodd" transform="matrix(1 0 0 1 0 0)" d="M99.75 52.5L692.25 52.5L692.25 52.5L692.25 542.25L692.25 542.25L99.75 542.25L99.75 542.25L99.75 52.5z" /></clipPath></defs><g transform="matrix(1.333333 0 0 1.333333 0 0)"><g clip-path="url(#1)"><g clip-path="url(#2)"><path id="117" transform="matrix(1 0 0 -1 0 612)" d="M100.5 558.75L691.5 558.75L691.5 528L100.5 528L100.5 558.75z" stroke="none" fill="#FFFFFF" fill-rule="nonzero" /><path id="118" transform="matrix(1 0 0 -1 0 612)" d="M100.5 528.75L691.5 528.75L691.5 511.5L100.5 511.5L100.5 528.75z" stroke="none" fill="#E0F7FA" fill-rule="nonzero" /><path id="119" transform="matrix(1 0 0 -1 0 612)" d="M100.5 512.25L691.5 512.25L691.5 495L100.5 495L100.5 512.25z" stroke="none" fill="#FFFFFF" fill-rule="nonzero" /><path id="120" transform="matrix(1 0 0 -1 0 612)" d="M100.5 495.75L691.5 495.75L691.5 465L100.5 465L100.5 495.75z" stroke="none" fill="#E0F7FA" fill-rule="nonzero" /><path id="121" transform="matrix(1 0 0 -1 0 612)" d="M100.5 465.75L691.5 465.75L691.5 448.5L100.5 448.5L100.5 465.75z" stroke="none" fill="#FFFFFF" fill-rule="nonzero" /><path id="122" transform="matrix(1 0 0 -1 0 612)" d="M100.5 449.25L691.5 449.25L691.5 432L100.5 432L100.5 449.25z" stroke="none" fill="#E0F7FA" fill-rule="nonzero" /><path id="123" transform="matrix(1 0 0 -1 0 612)" d="M100.5 432.75L691.5 432.75L691.5 415.5L100.5 415.5L100.5 432.75z" stroke="none" fill="#FFFFFF" fill-rule="nonzero" /><path id="124" transform="matrix(1 0 0 -1 0 612)" d="M100.5 416.25L691.5 416.25L691.5 385.5L100.5 385.5L100.5 416.25z" stroke="none" fill="#E0F7FA" fill-rule="nonzero" /><path id="125" transform="matrix(1 0 0 -1 0 612)" d="M100.5 386.25L691.5 386.25L691.5 355.5L100.5 355.5L100.5 386.25z" stroke="none" fill="#FFFFFF" fill-rule="nonzero" /><path id="126" transform="matrix(1 0 0 -1 0 612)" d="M100.5 356.25L691.5 356.25L691.5 325.5L100.5 325.5L100.5 356.25z" stroke="none" fill="#E0F7FA" fill-rule="nonzero" /><path id="127" transform="matrix(1 0 0 -1 0 612)" d="M100.5 326.25L691.5 326.25L691.5 309L100.5 309L100.5 326.25z" stroke="none" fill="#FFFFFF" fill-rule="nonzero" /><path id="128" transform="matrix(1 0 0 -1 0 612)" d="M100.5 309.75L691.5 309.75L691.5 292.5L100.5 292.5L100.5 309.75z" stroke="none" fill="#E0F7FA" fill-rule="nonzero" /><path id="129" transform="matrix(1 0 0 -1 0 612)" d="M100.5 293.25L691.5 293.25L691.5 262.5L100.5 262.5L100.5 293.25z" stroke="none" fill="#FFFFFF" fill-rule="nonzero" /><path id="130" transform="matrix(1 0 0 -1 0 612)" d="M100.5 263.25L691.5 263.25L691.5 246L100.5 246L100.5 263.25z" stroke="none" fill="#E0F7FA" fill-rule="nonzero" /><path id="131" transform="matrix(1 0 0 -1 0 612)" d="M100.5 246.75L691.5 246.75L691.5 229.5L100.5 229.5L100.5 246.75z" stroke="none" fill="#FFFFFF" fill-rule="nonzero" /><path id="132" transform="matrix(1 0 0 -1 0 612)" d="M100.5 230.25L691.5 230.25L691.5 213L100.5 213L100.5 230.25z" stroke="none" fill="#E0F7FA" fill-rule="nonzero" /><path id="133" transform="matrix(1 0 0 -1 0 612)" d="M100.5 213.75L691.5 213.75L691.5 196.5L100.5 196.5L100.5 213.75z" stroke="none" fill="#FFFFFF" fill-rule="nonzero" /><path id="134" transform="matrix(1 0 0 -1 0 612)" d="M100.5 197.25L691.5 197.25L691.5 166.5L100.5 166.5L100.5 197.25z" stroke="none" fill="#E0F7FA" fill-rule="nonzero" /><path id="135" transform="matrix(1 0 0 -1 0 612)" d="M100.5 167.25L691.5 167.25L691.5 150L100.5 150L100.5 167.25z" stroke="none" fill="#FFFFFF" fill-rule="nonzero" /><path id="136" transform="matrix(1 0 0 -1 0 612)" d="M100.5 150.75L691.5 150.75L691.5 120L100.5 120L100.5 150.75z" stroke="none" fill="#E0F7FA" fill-rule="nonzero" /><path id="137" transform="matrix(1 0 0 -1 0 612)" d="M100.5 120.75L691.5 120.75L691.5 103.5L100.5 103.5L100.5 120.75z" stroke="none" fill="#FFFFFF" fill-rule="nonzero" /><path id="138" transform="matrix(1 0 0 -1 0 612)" d="M100.5 104.25L691.5 104.25L691.5 87L100.5 87L100.5 104.25z" stroke="none" fill="#E0F7FA" fill-rule="nonzero" /><path id="139" transform="matrix(1 0 0 -1 0 612)" d="M100.5 87.75L691.5 87.75L691.5 70.5L100.5 70.5L100.5 87.75z" stroke="none" fill="#FFFFFF" fill-rule="nonzero" /><path id="140" transform="matrix(1 0 0 -1 0 612)" d="M100.5 71.25L691.5 71.25L691.5 70.5L100.5 70.5zM100.5 87.75L691.5 87.75L691.5 87L100.5 87zM100.5 104.25L691.5 104.25L691.5 103.5L100.5 103.5zM100.5 120.75L691.5 120.75L691.5 120L100.5 120zM100.5 150.75L691.5 150.75L691.5 150L100.5 150zM100.5 167.25L691.5 167.25L691.5 166.5L100.5 166.5zM100.5 197.25L691.5 197.25L691.5 196.5L100.5 196.5zM100.5 213.75L691.5 213.75L691.5 213L100.5 213zM100.5 230.25L691.5 230.25L691.5 229.5L100.5 229.5zM100.5 246.75L691.5 246.75L691.5 246L100.5 246zM100.5 263.25L691.5 263.25L691.5 262.5L100.5 262.5zM100.5 293.25L691.5 293.25L691.5 292.5L100.5 292.5zM100.5 309.75L691.5 309.75L691.5 309L100.5 309zM100.5 326.25L691.5 326.25L691.5 325.5L100.5 325.5zM100.5 356.25L691.5 356.25L691.5 355.5L100.5 355.5zM100.5 386.25L691.5 386.25L691.5 385.5L100.5 385.5zM100.5 416.25L691.5 416.25L691.5 415.5L100.5 415.5zM100.5 432.75L691.5 432.75L691.5 432L100.5 432zM100.5 449.25L691.5 449.25L691.5 448.5L100.5 448.5zM100.5 465.75L691.5 465.75L691.5 465L100.5 465zM100.5 495.75L691.5 495.75L691.5 495L100.5 495zM100.5 512.25L691.5 512.25L691.5 511.5L100.5 511.5zM100.5 528.75L691.5 528.75L691.5 528L100.5 528zM100.5 558.75L691.5 558.75L691.5 558L100.5 558zM691.5 87L691.5 71.25L690.75 71.25L690.75 87zM691.5 103.5L691.5 87.75L690.75 87.75L690.75 103.5zM691.5 120L691.5 104.25L690.75 104.25L690.75 120zM691.5 150L691.5 120.75L690.75 120.75L690.75 150zM691.5 166.5L691.5 150.75L690.75 150.75L690.75 166.5zM691.5 196.5L691.5 167.25L690.75 167.25L690.75 196.5zM691.5 213L691.5 197.25L690.75 197.25L690.75 213zM691.5 229.5L691.5 213.75L690.75 213.75L690.75 229.5zM691.5 246L691.5 230.25L690.75 230.25L690.75 246zM691.5 262.5L691.5 246.75L690.75 246.75L690.75 262.5zM691.5 292.5L691.5 263.25L690.75 263.25L690.75 292.5zM691.5 309L691.5 293.25L690.75 293.25L690.75 309zM691.5 325.5L691.5 309.75L690.75 309.75L690.75 325.5zM691.5 355.5L691.5 326.25L690.75 326.25L690.75 355.5zM691.5 385.5L691.5 356.25L690.75 356.25L690.75 385.5zM691.5 415.5L691.5 386.25L690.75 386.25L690.75 415.5zM691.5 432L691.5 416.25L690.75 416.25L690.75 432zM691.5 448.5L691.5 432.75L690.75 432.75L690.75 448.5zM691.5 465L691.5 449.25L690.75 449.25L690.75 465zM691.5 495L691.5 465.75L690.75 465.75L690.75 495zM691.5 511.5L691.5 495.75L690.75 495.75L690.75 511.5zM691.5 528L691.5 512.25L690.75 512.25L690.75 528zM691.5 558L691.5 528.75L690.75 528.75L690.75 558zM621.75 87L621.75 71.25L621 71.25L621 87zM621.75 103.5L621.75 87.75L621 87.75L621 103.5zM621.75 120L621.75 104.25L621 104.25L621 120zM621.75 150L621.75 120.75L621 120.75L621 150zM621.75 166.5L621.75 150.75L621 150.75L621 166.5zM621.75 196.5L621.75 167.25L621 167.25L621 196.5zM621.75 213L621.75 197.25L621 197.25L621 213zM621.75 229.5L621.75 213.75L621 213.75L621 229.5zM621.75 246L621.75 230.25L621 230.25L621 246zM621.75 262.5L621.75 246.75L621 246.75L621 262.5zM621.75 292.5L621.75 263.25L621 263.25L621 292.5zM621.75 309L621.75 293.25L621 293.25L621 309zM621.75 325.5L621.75 309.75L621 309.75L621 325.5zM621.75 355.5L621.75 326.25L621 326.25L621 355.5zM621.75 385.5L621.75 356.25L621 356.25L621 385.5zM621.75 415.5L621.75 386.25L621 386.25L621 415.5zM621.75 432L621.75 416.25L621 416.25L621 432zM621.75 448.5L621.75 432.75L621 432.75L621 448.5zM621.75 465L621.75 449.25L621 449.25L621 465zM621.75 495L621.75 465.75L621 465.75L621 495zM621.75 511.5L621.75 495.75L621 495.75L621 511.5zM621.75 528L621.75 512.25L621 512.25L621 528zM621.75 558L621.75 528.75L621 528.75L621 558zM252.75 87L252.75 71.25L252 71.25L252 87zM252.75 103.5L252.75 87.75L252 87.75L252 103.5zM252.75 120L252.75 104.25L252 104.25L252 120zM252.75 150L252.75 120.75L252 120.75L252 150zM252.75 166.5L252.75 150.75L252 150.75L252 166.5zM252.75 196.5L252.75 167.25L252 167.25L252 196.5zM252.75 213L252.75 197.25L252 197.25L252 213zM252.75 229.5L252.75 213.75L252 213.75L252 229.5zM252.75 246L252.75 230.25L252 230.25L252 246zM252.75 262.5L252.75 246.75L252 246.75L252 262.5zM252.75 292.5L252.75 263.25L252 263.25L252 292.5zM252.75 309L252.75 293.25L252 293.25L252 309zM252.75 325.5L252.75 309.75L252 309.75L252 325.5zM252.75 355.5L252.75 326.25L252 326.25L252 355.5zM252.75 385.5L252.75 356.25L252 356.25L252 385.5zM252.75 415.5L252.75 386.25L252 386.25L252 415.5zM252.75 432L252.75 416.25L252 416.25L252 432zM252.75 448.5L252.75 432.75L252 432.75L252 448.5zM252.75 465L252.75 449.25L252 449.25L252 465zM252.75 495L252.75 465.75L252 465.75L252 495zM252.75 511.5L252.75 495.75L252 495.75L252 511.5zM252.75 528L252.75 512.25L252 512.25L252 528zM252.75 558L252.75 528.75L252 528.75L252 558zM177 87L177 71.25L176.25 71.25L176.25 87zM177 103.5L177 87.75L176.25 87.75L176.25 103.5zM177 120L177 104.25L176.25 104.25L176.25 120zM177 150L177 120.75L176.25 120.75L176.25 150zM177 166.5L177 150.75L176.25 150.75L176.25 166.5zM177 196.5L177 167.25L176.25 167.25L176.25 196.5zM177 213L177 197.25L176.25 197.25L176.25 213zM177 229.5L177 213.75L176.25 213.75L176.25 229.5zM177 246L177 230.25L176.25 230.25L176.25 246zM177 262.5L177 246.75L176.25 246.75L176.25 262.5zM177 292.5L177 263.25L176.25 263.25L176.25 292.5zM177 309L177 293.25L176.25 293.25L176.25 309zM177 325.5L177 309.75L176.25 309.75L176.25 325.5zM177 355.5L177 326.25L176.25 326.25L176.25 355.5zM177 385.5L177 356.25L176.25 356.25L176.25 385.5zM177 415.5L177 386.25L176.25 386.25L176.25 415.5zM177 432L177 416.25L176.25 416.25L176.25 432zM177 448.5L177 432.75L176.25 432.75L176.25 448.5zM177 465L177 449.25L176.25 449.25L176.25 465zM177 495L177 465.75L176.25 465.75L176.25 495zM177 511.5L177 495.75L176.25 495.75L176.25 511.5zM177 528L177 512.25L176.25 512.25L176.25 528zM177 558L177 528.75L176.25 528.75L176.25 558zM101.25 87L101.25 71.25L100.5 71.25L100.5 87zM101.25 103.5L101.25 87.75L100.5 87.75L100.5 103.5zM101.25 120L101.25 104.25L100.5 104.25L100.5 120zM101.25 150L101.25 120.75L100.5 120.75L100.5 150zM101.25 166.5L101.25 150.75L100.5 150.75L100.5 166.5zM101.25 196.5L101.25 167.25L100.5 167.25L100.5 196.5zM101.25 213L101.25 197.25L100.5 197.25L100.5 213zM101.25 229.5L101.25 213.75L100.5 213.75L100.5 229.5zM101.25 246L101.25 230.25L100.5 230.25L100.5 246zM101.25 262.5L101.25 246.75L100.5 246.75L100.5 262.5zM101.25 292.5L101.25 263.25L100.5 263.25L100.5 292.5zM101.25 309L101.25 293.25L100.5 293.25L100.5 309zM101.25 325.5L101.25 309.75L100.5 309.75L100.5 325.5zM101.25 355.5L101.25 326.25L100.5 326.25L100.5 355.5zM101.25 385.5L101.25 356.25L100.5 356.25L100.5 385.5zM101.25 415.5L101.25 386.25L100.5 386.25L100.5 415.5zM101.25 432L101.25 416.25L100.5 416.25L100.5 432zM101.25 448.5L101.25 432.75L100.5 432.75L100.5 448.5zM101.25 465L101.25 449.25L100.5 449.25L100.5 465zM101.25 495L101.25 465.75L100.5 465.75L100.5 495zM101.25 511.5L101.25 495.75L100.5 495.75L100.5 511.5zM101.25 528L101.25 512.25L100.5 512.25L100.5 528zM101.25 558L101.25 528.75L100.5 528.75L100.5 558z" stroke="none" fill="#000000" fill-rule="nonzero" fill-opacity="0.1490196" /><path id="216" transform="matrix(1 0 0 -1 0 612)" d="M255 544.8049L579.0565 544.8049" stroke="#000000" stroke-width="0.7017334" fill="none" /><path id="236" transform="matrix(1 0 0 -1 0 612)" d="M255 531.7158L350.2944 531.7158" stroke="#000000" stroke-width="0.7017334" fill="none" /><path id="313" transform="matrix(1 0 0 -1 0 612)" d="M255 515.2158L557.4543 515.2158" stroke="#000000" stroke-width="0.7017334" fill="none" /><path id="395" transform="matrix(1 0 0 -1 0 612)" d="M255 498.7158L586.8108 498.7158" stroke="#000000" stroke-width="0.7017334" fill="none" /><path id="481" transform="matrix(1 0 0 -1 0 612)" d="M255 481.8049L613.7116 481.8049" stroke="#000000" stroke-width="0.7017334" fill="none" /><path id="500" transform="matrix(1 0 0 -1 0 612)" d="M255 468.7158L352.9751 468.7158" stroke="#000000" stroke-width="0.7017334" fill="none" /><path id="585" transform="matrix(1 0 0 -1 0 612)" d="M255 452.2158L613.1829 452.2158" stroke="#000000" stroke-width="0.7017334" fill="none" /><path id="656" transform="matrix(1 0 0 -1 0 612)" d="M255 435.7158L523.9773 435.7158" stroke="#000000" stroke-width="0.7017334" fill="none" /><path id="696" transform="matrix(1 0 0 -1 0 612)" d="M255 419.2158L393.3946 419.2158" stroke="#000000" stroke-width="0.7017334" fill="none" /><path id="797" transform="matrix(1 0 0 -1 0 612)" d="M255 389.2158L590.7269 389.2158" stroke="#000000" stroke-width="0.7017334" fill="none" /><path id="884" transform="matrix(1 0 0 -1 0 612)" d="M255 372.3049L585.486 372.3049" stroke="#000000" stroke-width="0.7017334" fill="none" /><path id="922" transform="matrix(1 0 0 -1 0 612)" d="M255 359.2158L453.9032 359.2158" stroke="#000000" stroke-width="0.7017334" fill="none" /><path id="1002" transform="matrix(1 0 0 -1 0 612)" d="M255 342.3049L558.3653 342.3049" stroke="#000000" stroke-width="0.7017334" fill="none" /><path id="1014" transform="matrix(1 0 0 -1 0 612)" d="M255 329.2158L319.8176 329.2158" stroke="#000000" stroke-width="0.7017334" fill="none" /><path id="1102" transform="matrix(1 0 0 -1 0 612)" d="M255 312.7158L609.8948 312.7158" stroke="#000000" stroke-width="0.7017334" fill="none" /><path id="1153" transform="matrix(1 0 0 -1 0 612)" d="M255 296.2158L428.7823 296.2158" stroke="#000000" stroke-width="0.7017334" fill="none" /><path id="1230" transform="matrix(1 0 0 -1 0 612)" d="M255 279.3049L594.4341 279.3049" stroke="#000000" stroke-width="0.7017334" fill="none" /><path id="1253" transform="matrix(1 0 0 -1 0 612)" d="M255 266.2158L350.9541 266.2158" stroke="#000000" stroke-width="0.7017334" fill="none" /><path id="1333" transform="matrix(1 0 0 -1 0 612)" d="M255 249.7158L578.6587 249.7158" stroke="#000000" stroke-width="0.7017334" fill="none" /><path id="1388" transform="matrix(1 0 0 -1 0 612)" d="M255 233.2158L437.4056 233.2158" stroke="#000000" stroke-width="0.7017334" fill="none" /><path id="1446" transform="matrix(1 0 0 -1 0 612)" d="M255 216.7158L469.7462 216.7158" stroke="#000000" stroke-width="0.7017334" fill="none" /><path id="1493" transform="matrix(1 0 0 -1 0 612)" d="M255 200.2158L383.1796 200.2158" stroke="#000000" stroke-width="0.7017334" fill="none" /><path id="1570" transform="matrix(1 0 0 -1 0 612)" d="M255 183.3049L593.1251 183.3049" stroke="#000000" stroke-width="0.7017334" fill="none" /><path id="1593" transform="matrix(1 0 0 -1 0 612)" d="M255 170.2158L350.9541 170.2158" stroke="#000000" stroke-width="0.7017334" fill="none" /><path id="1646" transform="matrix(1 0 0 -1 0 612)" d="M255 153.7158L458.788 153.7158" stroke="#000000" stroke-width="0.7017334" fill="none" /><path id="1729" transform="matrix(1 0 0 -1 0 612)" d="M255 136.8049L612.7637 136.8049" stroke="#000000" stroke-width="0.7017334" fill="none" /><path id="1754" transform="matrix(1 0 0 -1 0 612)" d="M255 123.7158L370.0852 123.7158" stroke="#000000" stroke-width="0.7017334" fill="none" /><path id="1838" transform="matrix(1 0 0 -1 0 612)" d="M255 107.2158L598.7427 107.2158" stroke="#000000" stroke-width="0.7017334" fill="none" /><path id="1914" transform="matrix(1 0 0 -1 0 612)" d="M255 90.71582L554.0144 90.71582" stroke="#000000" stroke-width="0.7017334" fill="none" /><path id="1943" transform="matrix(1 0 0 -1 0 612)" d="M255 74.21582L329.226 74.21582" stroke="#000000" stroke-width="0.7017334" fill="none" /></g></g></g></svg>