<svg xmlns="http://www.w3.org/2000/svg" xmlns:xlink="http://www.w3.org/1999/xlink" id="body_1" preserveAspectRatio="xMinYMin meet" viewBox="0 0 1056 816"><defs><clipPath id="1"><path id="" clip-rule="evenodd" transform="matrix(1 0 0 1 0 0)" d="M0 612L0 0L0 0L792 0L792 0L792 612L792 612L0 612z" /></clipPath><clipPath id="2"><path id="" clip-rule="evenodd" transform="matrix(1 0 0 1 0 0)" d="M99.75 52.5L692.25 52.5L692.25 52.5L692.25 535.5L692.25 535.5L99.75 535.5L99.75 535.5L99.75 52.5z" /></clipPath></defs><g transform="matrix(1.333333 0 0 1.333333 0 0)"><g clip-path="url(#1)"><g clip-path="url(#2)"><path id="117" transform="matrix(1 0 0 -1 0 612)" d="M100.5 558.75L691.5 558.75L691.5 541.5L100.5 541.5L100.5 558.75z" stroke="none" fill="#4DD0E1" fill-rule="nonzero" /><path id="118" transform="matrix(1 0 0 -1 0 612)" d="M100.5 542.25L691.5 542.25L691.5 525L100.5 525L100.5 542.25z" stroke="none" fill="#FFFFFF" fill-rule="nonzero" /><path id="119" transform="matrix(1 0 0 -1 0 612)" d="M100.5 525.75L691.5 525.75L691.5 482.25L100.5 482.25L100.5 525.75z" stroke="none" fill="#E0F7FA" fill-rule="nonzero" /><path id="120" transform="matrix(1 0 0 -1 0 612)" d="M100.5 483L691.5 483L691.5 452.25L100.5 452.25L100.5 483z" stroke="none" fill="#FFFFFF" fill-rule="nonzero" /><path id="121" transform="matrix(1 0 0 -1 0 612)" d="M100.5 453L691.5 453L691.5 422.25L100.5 422.25L100.5 453z" stroke="none" fill="#E0F7FA" fill-rule="nonzero" /><path id="122" transform="matrix(1 0 0 -1 0 612)" d="M100.5 423L691.5 423L691.5 405.75L100.5 405.75L100.5 423z" stroke="none" fill="#FFFFFF" fill-rule="nonzero" /><path id="123" transform="matrix(1 0 0 -1 0 612)" d="M100.5 406.5L691.5 406.5L691.5 375.75L100.5 375.75L100.5 406.5z" stroke="none" fill="#E0F7FA" fill-rule="nonzero" /><path id="124" transform="matrix(1 0 0 -1 0 612)" d="M100.5 376.5L691.5 376.5L691.5 359.25L100.5 359.25L100.5 376.5z" stroke="none" fill="#FFFFFF" fill-rule="nonzero" /><path id="125" transform="matrix(1 0 0 -1 0 612)" d="M100.5 360L691.5 360L691.5 342.75L100.5 342.75L100.5 360z" stroke="none" fill="#E0F7FA" fill-rule="nonzero" /><path id="126" transform="matrix(1 0 0 -1 0 612)" d="M100.5 343.5L691.5 343.5L691.5 326.25L100.5 326.25L100.5 343.5z" stroke="none" fill="#FFFFFF" fill-rule="nonzero" /><path id="127" transform="matrix(1 0 0 -1 0 612)" d="M100.5 327L691.5 327L691.5 296.25L100.5 296.25L100.5 327z" stroke="none" fill="#E0F7FA" fill-rule="nonzero" /><path id="128" transform="matrix(1 0 0 -1 0 612)" d="M100.5 297L691.5 297L691.5 266.25L100.5 266.25L100.5 297z" stroke="none" fill="#FFFFFF" fill-rule="nonzero" /><path id="129" transform="matrix(1 0 0 -1 0 612)" d="M100.5 267L691.5 267L691.5 249.75L100.5 249.75L100.5 267z" stroke="none" fill="#E0F7FA" fill-rule="nonzero" /><path id="130" transform="matrix(1 0 0 -1 0 612)" d="M100.5 250.5L691.5 250.5L691.5 219.75L100.5 219.75L100.5 250.5z" stroke="none" fill="#FFFFFF" fill-rule="nonzero" /><path id="131" transform="matrix(1 0 0 -1 0 612)" d="M100.5 220.5L691.5 220.5L691.5 203.25L100.5 203.25L100.5 220.5z" stroke="none" fill="#E0F7FA" fill-rule="nonzero" /><path id="132" transform="matrix(1 0 0 -1 0 612)" d="M100.5 204L691.5 204L691.5 173.25L100.5 173.25L100.5 204z" stroke="none" fill="#FFFFFF" fill-rule="nonzero" /><path id="133" transform="matrix(1 0 0 -1 0 612)" d="M100.5 174L691.5 174L691.5 156.75L100.5 156.75L100.5 174z" stroke="none" fill="#E0F7FA" fill-rule="nonzero" /><path id="134" transform="matrix(1 0 0 -1 0 612)" d="M100.5 157.5L691.5 157.5L691.5 140.25L100.5 140.25L100.5 157.5z" stroke="none" fill="#FFFFFF" fill-rule="nonzero" /><path id="135" transform="matrix(1 0 0 -1 0 612)" d="M100.5 141L691.5 141L691.5 123.75L100.5 123.75L100.5 141z" stroke="none" fill="#E0F7FA" fill-rule="nonzero" /><path id="136" transform="matrix(1 0 0 -1 0 612)" d="M100.5 124.5L691.5 124.5L691.5 107.25L100.5 107.25L100.5 124.5z" stroke="none" fill="#FFFFFF" fill-rule="nonzero" /><path id="137" transform="matrix(1 0 0 -1 0 612)" d="M100.5 108L691.5 108L691.5 77.25L100.5 77.25L100.5 108z" stroke="none" fill="#E0F7FA" fill-rule="nonzero" /><path id="138" transform="matrix(1 0 0 -1 0 612)" d="M100.5 78L691.5 78L691.5 77.25L100.5 77.25zM100.5 108L691.5 108L691.5 107.25L100.5 107.25zM100.5 124.5L691.5 124.5L691.5 123.75L100.5 123.75zM100.5 141L691.5 141L691.5 140.25L100.5 140.25zM100.5 157.5L691.5 157.5L691.5 156.75L100.5 156.75zM100.5 174L691.5 174L691.5 173.25L100.5 173.25zM100.5 204L691.5 204L691.5 203.25L100.5 203.25zM100.5 220.5L691.5 220.5L691.5 219.75L100.5 219.75zM100.5 250.5L691.5 250.5L691.5 249.75L100.5 249.75zM100.5 267L691.5 267L691.5 266.25L100.5 266.25zM100.5 297L691.5 297L691.5 296.25L100.5 296.25zM100.5 327L691.5 327L691.5 326.25L100.5 326.25zM100.5 343.5L691.5 343.5L691.5 342.75L100.5 342.75zM100.5 360L691.5 360L691.5 359.25L100.5 359.25zM100.5 376.5L691.5 376.5L691.5 375.75L100.5 375.75zM100.5 406.5L691.5 406.5L691.5 405.75L100.5 405.75zM100.5 423L691.5 423L691.5 422.25L100.5 422.25zM100.5 453L691.5 453L691.5 452.25L100.5 452.25zM100.5 483L691.5 483L691.5 482.25L100.5 482.25zM100.5 525.75L691.5 525.75L691.5 525L100.5 525zM100.5 542.25L691.5 542.25L691.5 541.5L100.5 541.5zM100.5 558.75L691.5 558.75L691.5 558L100.5 558zM691.5 107.25L691.5 78L690.75 78L690.75 107.25zM691.5 123.75L691.5 108L690.75 108L690.75 123.75zM691.5 140.25L691.5 124.5L690.75 124.5L690.75 140.25zM691.5 156.75L691.5 141L690.75 141L690.75 156.75zM691.5 173.25L691.5 157.5L690.75 157.5L690.75 173.25zM691.5 203.25L691.5 174L690.75 174L690.75 203.25zM691.5 219.75L691.5 204L690.75 204L690.75 219.75zM691.5 249.75L691.5 220.5L690.75 220.5L690.75 249.75zM691.5 266.25L691.5 250.5L690.75 250.5L690.75 266.25zM691.5 296.25L691.5 267L690.75 267L690.75 296.25zM691.5 326.25L691.5 297L690.75 297L690.75 326.25zM691.5 342.75L691.5 327L690.75 327L690.75 342.75zM691.5 359.25L691.5 343.5L690.75 343.5L690.75 359.25zM691.5 375.75L691.5 360L690.75 360L690.75 375.75zM691.5 405.75L691.5 376.5L690.75 376.5L690.75 405.75zM691.5 422.25L691.5 406.5L690.75 406.5L690.75 422.25zM691.5 452.25L691.5 423L690.75 423L690.75 452.25zM691.5 482.25L691.5 453L690.75 453L690.75 482.25zM691.5 525L691.5 483L690.75 483L690.75 525zM691.5 541.5L691.5 525.75L690.75 525.75L690.75 541.5zM691.5 558L691.5 542.25L690.75 542.25L690.75 558zM621.75 107.25L621.75 78L621 78L621 107.25zM621.75 123.75L621.75 108L621 108L621 123.75zM621.75 140.25L621.75 124.5L621 124.5L621 140.25zM621.75 156.75L621.75 141L621 141L621 156.75zM621.75 173.25L621.75 157.5L621 157.5L621 173.25zM621.75 203.25L621.75 174L621 174L621 203.25zM621.75 219.75L621.75 204L621 204L621 219.75zM621.75 249.75L621.75 220.5L621 220.5L621 249.75zM621.75 266.25L621.75 250.5L621 250.5L621 266.25zM621.75 296.25L621.75 267L621 267L621 296.25zM621.75 326.25L621.75 297L621 297L621 326.25zM621.75 342.75L621.75 327L621 327L621 342.75zM621.75 359.25L621.75 343.5L621 343.5L621 359.25zM621.75 375.75L621.75 360L621 360L621 375.75zM621.75 405.75L621.75 376.5L621 376.5L621 405.75zM621.75 422.25L621.75 406.5L621 406.5L621 422.25zM621.75 452.25L621.75 423L621 423L621 452.25zM621.75 482.25L621.75 453L621 453L621 482.25zM621.75 525L621.75 483L621 483L621 525zM621.75 541.5L621.75 525.75L621 525.75L621 541.5zM621.75 558L621.75 542.25L621 542.25L621 558zM252.75 107.25L252.75 78L252 78L252 107.25zM252.75 123.75L252.75 108L252 108L252 123.75zM252.75 140.25L252.75 124.5L252 124.5L252 140.25zM252.75 156.75L252.75 141L252 141L252 156.75zM252.75 173.25L252.75 157.5L252 157.5L252 173.25zM252.75 203.25L252.75 174L252 174L252 203.25zM252.75 219.75L252.75 204L252 204L252 219.75zM252.75 249.75L252.75 220.5L252 220.5L252 249.75zM252.75 266.25L252.75 250.5L252 250.5L252 266.25zM252.75 296.25L252.75 267L252 267L252 296.25zM252.75 326.25L252.75 297L252 297L252 326.25zM252.75 342.75L252.75 327L252 327L252 342.75zM252.75 359.25L252.75 343.5L252 343.5L252 359.25zM252.75 375.75L252.75 360L252 360L252 375.75zM252.75 405.75L252.75 376.5L252 376.5L252 405.75zM252.75 422.25L252.75 406.5L252 406.5L252 422.25zM252.75 452.25L252.75 423L252 423L252 452.25zM252.75 482.25L252.75 453L252 453L252 482.25zM252.75 525L252.75 483L252 483L252 525zM252.75 541.5L252.75 525.75L252 525.75L252 541.5zM252.75 558L252.75 542.25L252 542.25L252 558zM177 107.25L177 78L176.25 78L176.25 107.25zM177 123.75L177 108L176.25 108L176.25 123.75zM177 140.25L177 124.5L176.25 124.5L176.25 140.25zM177 156.75L177 141L176.25 141L176.25 156.75zM177 173.25L177 157.5L176.25 157.5L176.25 173.25zM177 203.25L177 174L176.25 174L176.25 203.25zM177 219.75L177 204L176.25 204L176.25 219.75zM177 249.75L177 220.5L176.25 220.5L176.25 249.75zM177 266.25L177 250.5L176.25 250.5L176.25 266.25zM177 296.25L177 267L176.25 267L176.25 296.25zM177 326.25L177 297L176.25 297L176.25 326.25zM177 342.75L177 327L176.25 327L176.25 342.75zM177 359.25L177 343.5L176.25 343.5L176.25 359.25zM177 375.75L177 360L176.25 360L176.25 375.75zM177 405.75L177 376.5L176.25 376.5L176.25 405.75zM177 422.25L177 406.5L176.25 406.5L176.25 422.25zM177 452.25L177 423L176.25 423L176.25 452.25zM177 482.25L177 453L176.25 453L176.25 482.25zM177 525L177 483L176.25 483L176.25 525zM177 541.5L177 525.75L176.25 525.75L176.25 541.5zM177 558L177 542.25L176.25 542.25L176.25 558zM101.25 107.25L101.25 78L100.5 78L100.5 107.25zM101.25 123.75L101.25 108L100.5 108L100.5 123.75zM101.25 140.25L101.25 124.5L100.5 124.5L100.5 140.25zM101.25 156.75L101.25 141L100.5 141L100.5 156.75zM101.25 173.25L101.25 157.5L100.5 157.5L100.5 173.25zM101.25 203.25L101.25 174L100.5 174L100.5 203.25zM101.25 219.75L101.25 204L100.5 204L100.5 219.75zM101.25 249.75L101.25 220.5L100.5 220.5L100.5 249.75zM101.25 266.25L101.25 250.5L100.5 250.5L100.5 266.25zM101.25 296.25L101.25 267L100.5 267L100.5 296.25zM101.25 326.25L101.25 297L100.5 297L100.5 326.25zM101.25 342.75L101.25 327L100.5 327L100.5 342.75zM101.25 359.25L101.25 343.5L100.5 343.5L100.5 359.25zM101.25 375.75L101.25 360L100.5 360L100.5 375.75zM101.25 405.75L101.25 376.5L100.5 376.5L100.5 405.75zM101.25 422.25L101.25 406.5L100.5 406.5L100.5 422.25zM101.25 452.25L101.25 423L100.5 423L100.5 452.25zM101.25 482.25L101.25 453L100.5 453L100.5 482.25zM101.25 525L101.25 483L100.5 483L100.5 525zM101.25 541.5L101.25 525.75L100.5 525.75L100.5 541.5zM101.25 558L101.25 542.25L100.5 542.25L100.5 558z" stroke="none" fill="#000000" fill-rule="nonzero" fill-opacity="0.1490196" /><path id="217" transform="matrix(1 0 0 -1 0 612)" d="M255 528.7157L511.4119 528.7157" stroke="#000000" stroke-width="0.7017334" fill="none" /><path id="317" transform="matrix(1 0 0 -1 0 612)" d="M255 499.0549L610.3868 499.0549" stroke="#000000" stroke-width="0.7017334" fill="none" /><path id="370" transform="matrix(1 0 0 -1 0 612)" d="M255 485.9657L513.9615 485.9657" stroke="#000000" stroke-width="0.7017334" fill="none" /><path id="454" transform="matrix(1 0 0 -1 0 612)" d="M255 469.0549L615.4865 469.0549" stroke="#000000" stroke-width="0.7017334" fill="none" /><path id="467" transform="matrix(1 0 0 -1 0 612)" d="M255 455.9657L303.9797 455.9657" stroke="#000000" stroke-width="0.7017334" fill="none" /><path id="559" transform="matrix(1 0 0 -1 0 612)" d="M255 439.0549L616.1093 439.0549" stroke="#000000" stroke-width="0.7017334" fill="none" /><path id="575" transform="matrix(1 0 0 -1 0 612)" d="M255 425.9657L329.1737 425.9657" stroke="#000000" stroke-width="0.7017334" fill="none" /><path id="637" transform="matrix(1 0 0 -1 0 612)" d="M255 409.4657L515.2443 409.4657" stroke="#000000" stroke-width="0.7017334" fill="none" /><path id="712" transform="matrix(1 0 0 -1 0 612)" d="M255 392.5549L560.6008 392.5549" stroke="#000000" stroke-width="0.7017334" fill="none" /><path id="758" transform="matrix(1 0 0 -1 0 612)" d="M255 379.4657L472.7096 379.4657" stroke="#000000" stroke-width="0.7017334" fill="none" /><path id="829" transform="matrix(1 0 0 -1 0 612)" d="M255 362.9657L517.5428 362.9657" stroke="#000000" stroke-width="0.7017334" fill="none" /><path id="884" transform="matrix(1 0 0 -1 0 612)" d="M255 346.4657L460.8823 346.4657" stroke="#000000" stroke-width="0.7017334" fill="none" /><path id="919" transform="matrix(1 0 0 -1 0 612)" d="M255 329.9657L342.6556 329.9657" stroke="#000000" stroke-width="0.7017334" fill="none" /><path id="1003" transform="matrix(1 0 0 -1 0 612)" d="M255 313.0549L605.3397 313.0549" stroke="#000000" stroke-width="0.7017334" fill="none" /><path id="1013" transform="matrix(1 0 0 -1 0 612)" d="M255 299.9657L303.8174 299.9657" stroke="#000000" stroke-width="0.7017334" fill="none" /><path id="1105" transform="matrix(1 0 0 -1 0 612)" d="M255 283.0549L608.7324 283.0549" stroke="#000000" stroke-width="0.7017334" fill="none" /><path id="1145" transform="matrix(1 0 0 -1 0 612)" d="M255 269.9657L428.8086 269.9657" stroke="#000000" stroke-width="0.7017334" fill="none" /><path id="1211" transform="matrix(1 0 0 -1 0 612)" d="M255 253.4657L535.4435 253.4657" stroke="#000000" stroke-width="0.7017334" fill="none" /><path id="1293" transform="matrix(1 0 0 -1 0 612)" d="M255 236.5549L596.3918 236.5549" stroke="#000000" stroke-width="0.7017334" fill="none" /><path id="1313" transform="matrix(1 0 0 -1 0 612)" d="M255 223.4657L345.2733 223.4657" stroke="#000000" stroke-width="0.7017334" fill="none" /><path id="1363" transform="matrix(1 0 0 -1 0 612)" d="M255 206.9657L418.2953 206.9657" stroke="#000000" stroke-width="0.7017334" fill="none" /><path id="1450" transform="matrix(1 0 0 -1 0 612)" d="M255 190.0549L595.6485 190.0549" stroke="#000000" stroke-width="0.7017334" fill="none" /><path id="1463" transform="matrix(1 0 0 -1 0 612)" d="M255 176.9657L314.6814 176.9657" stroke="#000000" stroke-width="0.7017334" fill="none" /><path id="1541" transform="matrix(1 0 0 -1 0 612)" d="M255 160.4657L556.2606 160.4657" stroke="#000000" stroke-width="0.7017334" fill="none" /><path id="1615" transform="matrix(1 0 0 -1 0 612)" d="M255 143.9657L561.9048 143.9657" stroke="#000000" stroke-width="0.7017334" fill="none" /><path id="1672" transform="matrix(1 0 0 -1 0 612)" d="M255 127.4657L444.8821 127.4657" stroke="#000000" stroke-width="0.7017334" fill="none" /><path id="1760" transform="matrix(1 0 0 -1 0 612)" d="M255 110.9657L614.9419 110.9657" stroke="#000000" stroke-width="0.7017334" fill="none" /><path id="1844" transform="matrix(1 0 0 -1 0 612)" d="M255 94.05493L589.5592 94.05493" stroke="#000000" stroke-width="0.7017334" fill="none" /><path id="1852" transform="matrix(1 0 0 -1 0 612)" d="M255 80.9657L288.1104 80.9657" stroke="#000000" stroke-width="0.7017334" fill="none" /></g></g></g></svg>