<svg xmlns="http://www.w3.org/2000/svg" xmlns:xlink="http://www.w3.org/1999/xlink" id="body_18" preserveAspectRatio="xMinYMin meet" viewBox="0 0 1056 816"><defs><clipPath id="1"><path id="" clip-rule="evenodd" transform="matrix(1 0 0 1 0 0)" d="M0 612L0 0L0 0L792 0L792 0L792 612L792 612L0 612z" /></clipPath><clipPath id="2"><path id="" clip-rule="evenodd" transform="matrix(1 0 0 1 0 0)" d="M99.75 52.5L692.25 52.5L692.25 52.5L692.25 549.75L692.25 549.75L99.75 549.75L99.75 549.75L99.75 52.5z" /></clipPath></defs><g transform="matrix(1.333333 0 0 1.333333 0 0)"><g clip-path="url(#1)"><g clip-path="url(#2)"><path id="118" transform="matrix(1 0 0 -1 0 612)" d="M100.5 558.75L691.5 558.75L691.5 528L100.5 528L100.5 558.75z" stroke="none" fill="#E0F7FA" fill-rule="nonzero" /><path id="119" transform="matrix(1 0 0 -1 0 612)" d="M100.5 528.75L691.5 528.75L691.5 498L100.5 498L100.5 528.75z" stroke="none" fill="#FFFFFF" fill-rule="nonzero" /><path id="120" transform="matrix(1 0 0 -1 0 612)" d="M100.5 498.75L691.5 498.75L691.5 468L100.5 468L100.5 498.75z" stroke="none" fill="#E0F7FA" fill-rule="nonzero" /><path id="121" transform="matrix(1 0 0 -1 0 612)" d="M100.5 468.75L691.5 468.75L691.5 438L100.5 438L100.5 468.75z" stroke="none" fill="#FFFFFF" fill-rule="nonzero" /><path id="122" transform="matrix(1 0 0 -1 0 612)" d="M100.5 438.75L691.5 438.75L691.5 408L100.5 408L100.5 438.75z" stroke="none" fill="#E0F7FA" fill-rule="nonzero" /><path id="123" transform="matrix(1 0 0 -1 0 612)" d="M100.5 408.75L691.5 408.75L691.5 391.5L100.5 391.5L100.5 408.75z" stroke="none" fill="#FFFFFF" fill-rule="nonzero" /><path id="124" transform="matrix(1 0 0 -1 0 612)" d="M100.5 392.25L691.5 392.25L691.5 361.5L100.5 361.5L100.5 392.25z" stroke="none" fill="#E0F7FA" fill-rule="nonzero" /><path id="125" transform="matrix(1 0 0 -1 0 612)" d="M100.5 362.25L691.5 362.25L691.5 345L100.5 345L100.5 362.25z" stroke="none" fill="#FFFFFF" fill-rule="nonzero" /><path id="126" transform="matrix(1 0 0 -1 0 612)" d="M100.5 345.75L691.5 345.75L691.5 328.5L100.5 328.5L100.5 345.75z" stroke="none" fill="#E0F7FA" fill-rule="nonzero" /><path id="127" transform="matrix(1 0 0 -1 0 612)" d="M100.5 329.25L691.5 329.25L691.5 298.5L100.5 298.5L100.5 329.25z" stroke="none" fill="#FFFFFF" fill-rule="nonzero" /><path id="128" transform="matrix(1 0 0 -1 0 612)" d="M100.5 299.25L691.5 299.25L691.5 282L100.5 282L100.5 299.25z" stroke="none" fill="#E0F7FA" fill-rule="nonzero" /><path id="129" transform="matrix(1 0 0 -1 0 612)" d="M100.5 282.75L691.5 282.75L691.5 265.5L100.5 265.5L100.5 282.75z" stroke="none" fill="#FFFFFF" fill-rule="nonzero" /><path id="130" transform="matrix(1 0 0 -1 0 612)" d="M100.5 266.25L691.5 266.25L691.5 249L100.5 249L100.5 266.25z" stroke="none" fill="#E0F7FA" fill-rule="nonzero" /><path id="131" transform="matrix(1 0 0 -1 0 612)" d="M100.5 249.75L691.5 249.75L691.5 232.5L100.5 232.5L100.5 249.75z" stroke="none" fill="#FFFFFF" fill-rule="nonzero" /><path id="132" transform="matrix(1 0 0 -1 0 612)" d="M100.5 233.25L691.5 233.25L691.5 202.5L100.5 202.5L100.5 233.25z" stroke="none" fill="#E0F7FA" fill-rule="nonzero" /><path id="133" transform="matrix(1 0 0 -1 0 612)" d="M100.5 203.25L691.5 203.25L691.5 186L100.5 186L100.5 203.25z" stroke="none" fill="#FFFFFF" fill-rule="nonzero" /><path id="134" transform="matrix(1 0 0 -1 0 612)" d="M100.5 186.75L691.5 186.75L691.5 169.5L100.5 169.5L100.5 186.75z" stroke="none" fill="#E0F7FA" fill-rule="nonzero" /><path id="135" transform="matrix(1 0 0 -1 0 612)" d="M100.5 170.25L691.5 170.25L691.5 139.5L100.5 139.5L100.5 170.25z" stroke="none" fill="#FFFFFF" fill-rule="nonzero" /><path id="136" transform="matrix(1 0 0 -1 0 612)" d="M100.5 140.25L691.5 140.25L691.5 109.5L100.5 109.5L100.5 140.25z" stroke="none" fill="#E0F7FA" fill-rule="nonzero" /><path id="137" transform="matrix(1 0 0 -1 0 612)" d="M100.5 110.25L691.5 110.25L691.5 79.5L100.5 79.5L100.5 110.25z" stroke="none" fill="#FFFFFF" fill-rule="nonzero" /><path id="138" transform="matrix(1 0 0 -1 0 612)" d="M100.5 80.25L691.5 80.25L691.5 63L100.5 63L100.5 80.25z" stroke="none" fill="#E0F7FA" fill-rule="nonzero" /><path id="139" transform="matrix(1 0 0 -1 0 612)" d="M100.5 63.75L691.5 63.75L691.5 63L100.5 63zM100.5 80.25L691.5 80.25L691.5 79.5L100.5 79.5zM100.5 110.25L691.5 110.25L691.5 109.5L100.5 109.5zM100.5 140.25L691.5 140.25L691.5 139.5L100.5 139.5zM100.5 170.25L691.5 170.25L691.5 169.5L100.5 169.5zM100.5 186.75L691.5 186.75L691.5 186L100.5 186zM100.5 203.25L691.5 203.25L691.5 202.5L100.5 202.5zM100.5 233.25L691.5 233.25L691.5 232.5L100.5 232.5zM100.5 249.75L691.5 249.75L691.5 249L100.5 249zM100.5 266.25L691.5 266.25L691.5 265.5L100.5 265.5zM100.5 282.75L691.5 282.75L691.5 282L100.5 282zM100.5 299.25L691.5 299.25L691.5 298.5L100.5 298.5zM100.5 329.25L691.5 329.25L691.5 328.5L100.5 328.5zM100.5 345.75L691.5 345.75L691.5 345L100.5 345zM100.5 362.25L691.5 362.25L691.5 361.5L100.5 361.5zM100.5 392.25L691.5 392.25L691.5 391.5L100.5 391.5zM100.5 408.75L691.5 408.75L691.5 408L100.5 408zM100.5 438.75L691.5 438.75L691.5 438L100.5 438zM100.5 468.75L691.5 468.75L691.5 468L100.5 468zM100.5 498.75L691.5 498.75L691.5 498L100.5 498zM100.5 528.75L691.5 528.75L691.5 528L100.5 528zM100.5 558.75L691.5 558.75L691.5 558L100.5 558zM691.5 79.5L691.5 63.75L690.75 63.75L690.75 79.5zM691.5 109.5L691.5 80.25L690.75 80.25L690.75 109.5zM691.5 139.5L691.5 110.25L690.75 110.25L690.75 139.5zM691.5 169.5L691.5 140.25L690.75 140.25L690.75 169.5zM691.5 186L691.5 170.25L690.75 170.25L690.75 186zM691.5 202.5L691.5 186.75L690.75 186.75L690.75 202.5zM691.5 232.5L691.5 203.25L690.75 203.25L690.75 232.5zM691.5 249L691.5 233.25L690.75 233.25L690.75 249zM691.5 265.5L691.5 249.75L690.75 249.75L690.75 265.5zM691.5 282L691.5 266.25L690.75 266.25L690.75 282zM691.5 298.5L691.5 282.75L690.75 282.75L690.75 298.5zM691.5 328.5L691.5 299.25L690.75 299.25L690.75 328.5zM691.5 345L691.5 329.25L690.75 329.25L690.75 345zM691.5 361.5L691.5 345.75L690.75 345.75L690.75 361.5zM691.5 391.5L691.5 362.25L690.75 362.25L690.75 391.5zM691.5 408L691.5 392.25L690.75 392.25L690.75 408zM691.5 438L691.5 408.75L690.75 408.75L690.75 438zM691.5 468L691.5 438.75L690.75 438.75L690.75 468zM691.5 498L691.5 468.75L690.75 468.75L690.75 498zM691.5 528L691.5 498.75L690.75 498.75L690.75 528zM691.5 558L691.5 528.75L690.75 528.75L690.75 558zM621.75 79.5L621.75 63.75L621 63.75L621 79.5zM621.75 109.5L621.75 80.25L621 80.25L621 109.5zM621.75 139.5L621.75 110.25L621 110.25L621 139.5zM621.75 169.5L621.75 140.25L621 140.25L621 169.5zM621.75 186L621.75 170.25L621 170.25L621 186zM621.75 202.5L621.75 186.75L621 186.75L621 202.5zM621.75 232.5L621.75 203.25L621 203.25L621 232.5zM621.75 249L621.75 233.25L621 233.25L621 249zM621.75 265.5L621.75 249.75L621 249.75L621 265.5zM621.75 282L621.75 266.25L621 266.25L621 282zM621.75 298.5L621.75 282.75L621 282.75L621 298.5zM621.75 328.5L621.75 299.25L621 299.25L621 328.5zM621.75 345L621.75 329.25L621 329.25L621 345zM621.75 361.5L621.75 345.75L621 345.75L621 361.5zM621.75 391.5L621.75 362.25L621 362.25L621 391.5zM621.75 408L621.75 392.25L621 392.25L621 408zM621.75 438L621.75 408.75L621 408.75L621 438zM621.75 468L621.75 438.75L621 438.75L621 468zM621.75 498L621.75 468.75L621 468.75L621 498zM621.75 528L621.75 498.75L621 498.75L621 528zM621.75 558L621.75 528.75L621 528.75L621 558zM252.75 79.5L252.75 63.75L252 63.75L252 79.5zM252.75 109.5L252.75 80.25L252 80.25L252 109.5zM252.75 139.5L252.75 110.25L252 110.25L252 139.5zM252.75 169.5L252.75 140.25L252 140.25L252 169.5zM252.75 186L252.75 170.25L252 170.25L252 186zM252.75 202.5L252.75 186.75L252 186.75L252 202.5zM252.75 232.5L252.75 203.25L252 203.25L252 232.5zM252.75 249L252.75 233.25L252 233.25L252 249zM252.75 265.5L252.75 249.75L252 249.75L252 265.5zM252.75 282L252.75 266.25L252 266.25L252 282zM252.75 298.5L252.75 282.75L252 282.75L252 298.5zM252.75 328.5L252.75 299.25L252 299.25L252 328.5zM252.75 345L252.75 329.25L252 329.25L252 345zM252.75 361.5L252.75 345.75L252 345.75L252 361.5zM252.75 391.5L252.75 362.25L252 362.25L252 391.5zM252.75 408L252.75 392.25L252 392.25L252 408zM252.75 438L252.75 408.75L252 408.75L252 438zM252.75 468L252.75 438.75L252 438.75L252 468zM252.75 498L252.75 468.75L252 468.75L252 498zM252.75 528L252.75 498.75L252 498.75L252 528zM252.75 558L252.75 528.75L252 528.75L252 558zM177 79.5L177 63.75L176.25 63.75L176.25 79.5zM177 109.5L177 80.25L176.25 80.25L176.25 109.5zM177 139.5L177 110.25L176.25 110.25L176.25 139.5zM177 169.5L177 140.25L176.25 140.25L176.25 169.5zM177 186L177 170.25L176.25 170.25L176.25 186zM177 202.5L177 186.75L176.25 186.75L176.25 202.5zM177 232.5L177 203.25L176.25 203.25L176.25 232.5zM177 249L177 233.25L176.25 233.25L176.25 249zM177 265.5L177 249.75L176.25 249.75L176.25 265.5zM177 282L177 266.25L176.25 266.25L176.25 282zM177 298.5L177 282.75L176.25 282.75L176.25 298.5zM177 328.5L177 299.25L176.25 299.25L176.25 328.5zM177 345L177 329.25L176.25 329.25L176.25 345zM177 361.5L177 345.75L176.25 345.75L176.25 361.5zM177 391.5L177 362.25L176.25 362.25L176.25 391.5zM177 408L177 392.25L176.25 392.25L176.25 408zM177 438L177 408.75L176.25 408.75L176.25 438zM177 468L177 438.75L176.25 438.75L176.25 468zM177 498L177 468.75L176.25 468.75L176.25 498zM177 528L177 498.75L176.25 498.75L176.25 528zM177 558L177 528.75L176.25 528.75L176.25 558zM101.25 79.5L101.25 63.75L100.5 63.75L100.5 79.5zM101.25 109.5L101.25 80.25L100.5 80.25L100.5 109.5zM101.25 139.5L101.25 110.25L100.5 110.25L100.5 139.5zM101.25 169.5L101.25 140.25L100.5 140.25L100.5 169.5zM101.25 186L101.25 170.25L100.5 170.25L100.5 186zM101.25 202.5L101.25 186.75L100.5 186.75L100.5 202.5zM101.25 232.5L101.25 203.25L100.5 203.25L100.5 232.5zM101.25 249L101.25 233.25L100.5 233.25L100.5 249zM101.25 265.5L101.25 249.75L100.5 249.75L100.5 265.5zM101.25 282L101.25 266.25L100.5 266.25L100.5 282zM101.25 298.5L101.25 282.75L100.5 282.75L100.5 298.5zM101.25 328.5L101.25 299.25L100.5 299.25L100.5 328.5zM101.25 345L101.25 329.25L100.5 329.25L100.5 345zM101.25 361.5L101.25 345.75L100.5 345.75L100.5 361.5zM101.25 391.5L101.25 362.25L100.5 362.25L100.5 391.5zM101.25 408L101.25 392.25L100.5 392.25L100.5 408zM101.25 438L101.25 408.75L100.5 408.75L100.5 438zM101.25 468L101.25 438.75L100.5 438.75L100.5 468zM101.25 498L101.25 468.75L100.5 468.75L100.5 498zM101.25 528L101.25 498.75L100.5 498.75L100.5 528zM101.25 558L101.25 528.75L100.5 528.75L100.5 558z" stroke="none" fill="#000000" fill-rule="nonzero" fill-opacity="0.1490196" /><path id="218" transform="matrix(1 0 0 -1 0 612)" d="M255 544.8047L597.4335 544.8047" stroke="#000000" stroke-width="0.7017334" fill="none" /><path id="242" transform="matrix(1 0 0 -1 0 612)" d="M255 531.7158L363.6503 531.7158" stroke="#000000" stroke-width="0.7017334" fill="none" /><path id="327" transform="matrix(1 0 0 -1 0 612)" d="M255 514.8047L617.7064 514.8047" stroke="#000000" stroke-width="0.7017334" fill="none" /><path id="340" transform="matrix(1 0 0 -1 0 612)" d="M255 501.7158L317.1107 501.7158" stroke="#000000" stroke-width="0.7017334" fill="none" /><path id="417" transform="matrix(1 0 0 -1 0 612)" d="M255 484.8047L612.418 484.8047" stroke="#000000" stroke-width="0.7017334" fill="none" /><path id="465" transform="matrix(1 0 0 -1 0 612)" d="M255 471.7158L528.333 471.7158" stroke="#000000" stroke-width="0.7017334" fill="none" /><path id="545" transform="matrix(1 0 0 -1 0 612)" d="M255 454.8047L598.2245 454.8047" stroke="#000000" stroke-width="0.7017334" fill="none" /><path id="571" transform="matrix(1 0 0 -1 0 612)" d="M255 441.7158L385.8132 441.7158" stroke="#000000" stroke-width="0.7017334" fill="none" /><path id="654" transform="matrix(1 0 0 -1 0 612)" d="M255 424.8047L603.7532 424.8047" stroke="#000000" stroke-width="0.7017334" fill="none" /><path id="664" transform="matrix(1 0 0 -1 0 612)" d="M255 411.7158L298.4247 411.7158" stroke="#000000" stroke-width="0.7017334" fill="none" /><path id="706" transform="matrix(1 0 0 -1 0 612)" d="M255 395.2158L372.0015 395.2158" stroke="#000000" stroke-width="0.7017334" fill="none" /><path id="789" transform="matrix(1 0 0 -1 0 612)" d="M255 378.3047L592.1456 378.3047" stroke="#000000" stroke-width="0.7017334" fill="none" /><path id="814" transform="matrix(1 0 0 -1 0 612)" d="M255 365.2158L377.4414 365.2158" stroke="#000000" stroke-width="0.7017334" fill="none" /><path id="859" transform="matrix(1 0 0 -1 0 612)" d="M255 348.7158L383.7818 348.7158" stroke="#000000" stroke-width="0.7017334" fill="none" /><path id="916" transform="matrix(1 0 0 -1 0 612)" d="M255 332.2158L442.5626 332.2158" stroke="#000000" stroke-width="0.7017334" fill="none" /><path id="984" transform="matrix(1 0 0 -1 0 612)" d="M255 302.2158L482.7988 302.2158" stroke="#000000" stroke-width="0.7017334" fill="none" /><path id="1060" transform="matrix(1 0 0 -1 0 612)" d="M255 285.7158L563.2762 285.7158" stroke="#000000" stroke-width="0.7017334" fill="none" /><path id="1125" transform="matrix(1 0 0 -1 0 612)" d="M255 269.2158L519.3694 269.2158" stroke="#000000" stroke-width="0.7017334" fill="none" /><path id="1164" transform="matrix(1 0 0 -1 0 612)" d="M255 252.7158L388.1116 252.7158" stroke="#000000" stroke-width="0.7017334" fill="none" /><path id="1205" transform="matrix(1 0 0 -1 0 612)" d="M255 236.2158L378.3839 236.2158" stroke="#000000" stroke-width="0.7017334" fill="none" /><path id="1263" transform="matrix(1 0 0 -1 0 612)" d="M255 206.2158L421.6463 206.2158" stroke="#000000" stroke-width="0.7017334" fill="none" /><path id="1326" transform="matrix(1 0 0 -1 0 612)" d="M255 189.7158L491.6156 189.7158" stroke="#000000" stroke-width="0.7017334" fill="none" /><path id="1386" transform="matrix(1 0 0 -1 0 612)" d="M255 173.2158L488.3433 173.2158" stroke="#000000" stroke-width="0.7017334" fill="none" /><path id="1464" transform="matrix(1 0 0 -1 0 612)" d="M255 156.3047L586.868 156.3047" stroke="#000000" stroke-width="0.7017334" fill="none" /><path id="1482" transform="matrix(1 0 0 -1 0 612)" d="M255 143.2158L352.6557 143.2158" stroke="#000000" stroke-width="0.7017334" fill="none" /><path id="1560" transform="matrix(1 0 0 -1 0 612)" d="M255 126.3047L586.8785 126.3047" stroke="#000000" stroke-width="0.7017334" fill="none" /><path id="1576" transform="matrix(1 0 0 -1 0 612)" d="M255 113.2158L332.0218 113.2158" stroke="#000000" stroke-width="0.7017334" fill="none" /><path id="1680" transform="matrix(1 0 0 -1 0 612)" d="M255 96.30469L619.1199 96.30469" stroke="#000000" stroke-width="0.7017334" fill="none" /><path id="1694" transform="matrix(1 0 0 -1 0 612)" d="M255 83.21582L318.6396 83.21582" stroke="#000000" stroke-width="0.7017334" fill="none" /><path id="1760" transform="matrix(1 0 0 -1 0 612)" d="M255 66.71582L509.3434 66.71582" stroke="#000000" stroke-width="0.7017334" fill="none" /></g></g></g></svg>