<svg xmlns="http://www.w3.org/2000/svg" xmlns:xlink="http://www.w3.org/1999/xlink" id="body_11" preserveAspectRatio="xMinYMin meet" viewBox="0 0 1056 816"><defs><clipPath id="1"><path id="" clip-rule="evenodd" transform="matrix(1 0 0 1 0 0)" d="M0 612L0 0L0 0L792 0L792 0L792 612L792 612L0 612z" /></clipPath><clipPath id="2"><path id="" clip-rule="evenodd" transform="matrix(1 0 0 1 0 0)" d="M99.75 52.5L692.25 52.5L692.25 52.5L692.25 531.75L692.25 531.75L99.75 531.75L99.75 531.75L99.75 52.5z" /></clipPath></defs><g transform="matrix(1.333333 0 0 1.333333 0 0)"><g clip-path="url(#1)"><g clip-path="url(#2)"><path id="118" transform="matrix(1 0 0 -1 0 612)" d="M100.5 558.75L691.5 558.75L691.5 528L100.5 528L100.5 558.75z" stroke="none" fill="#E0F7FA" fill-rule="nonzero" /><path id="119" transform="matrix(1 0 0 -1 0 612)" d="M100.5 528.75L691.5 528.75L691.5 511.5L100.5 511.5L100.5 528.75z" stroke="none" fill="#FFFFFF" fill-rule="nonzero" /><path id="120" transform="matrix(1 0 0 -1 0 612)" d="M100.5 512.25L691.5 512.25L691.5 495L100.5 495L100.5 512.25z" stroke="none" fill="#E0F7FA" fill-rule="nonzero" /><path id="121" transform="matrix(1 0 0 -1 0 612)" d="M100.5 495.75L691.5 495.75L691.5 478.5L100.5 478.5L100.5 495.75z" stroke="none" fill="#FFFFFF" fill-rule="nonzero" /><path id="122" transform="matrix(1 0 0 -1 0 612)" d="M100.5 479.25L691.5 479.25L691.5 448.5L100.5 448.5L100.5 479.25z" stroke="none" fill="#E0F7FA" fill-rule="nonzero" /><path id="123" transform="matrix(1 0 0 -1 0 612)" d="M100.5 449.25L691.5 449.25L691.5 432L100.5 432L100.5 449.25z" stroke="none" fill="#FFFFFF" fill-rule="nonzero" /><path id="124" transform="matrix(1 0 0 -1 0 612)" d="M100.5 432.75L691.5 432.75L691.5 389.25L100.5 389.25L100.5 432.75z" stroke="none" fill="#E0F7FA" fill-rule="nonzero" /><path id="125" transform="matrix(1 0 0 -1 0 612)" d="M100.5 390L691.5 390L691.5 372.75L100.5 372.75L100.5 390z" stroke="none" fill="#FFFFFF" fill-rule="nonzero" /><path id="126" transform="matrix(1 0 0 -1 0 612)" d="M100.5 373.5L691.5 373.5L691.5 356.25L100.5 356.25L100.5 373.5z" stroke="none" fill="#E0F7FA" fill-rule="nonzero" /><path id="127" transform="matrix(1 0 0 -1 0 612)" d="M100.5 357L691.5 357L691.5 326.25L100.5 326.25L100.5 357z" stroke="none" fill="#FFFFFF" fill-rule="nonzero" /><path id="128" transform="matrix(1 0 0 -1 0 612)" d="M100.5 327L691.5 327L691.5 296.25L100.5 296.25L100.5 327z" stroke="none" fill="#E0F7FA" fill-rule="nonzero" /><path id="129" transform="matrix(1 0 0 -1 0 612)" d="M100.5 297L691.5 297L691.5 266.25L100.5 266.25L100.5 297z" stroke="none" fill="#FFFFFF" fill-rule="nonzero" /><path id="130" transform="matrix(1 0 0 -1 0 612)" d="M100.5 267L691.5 267L691.5 249.75L100.5 249.75L100.5 267z" stroke="none" fill="#E0F7FA" fill-rule="nonzero" /><path id="131" transform="matrix(1 0 0 -1 0 612)" d="M100.5 250.5L691.5 250.5L691.5 233.25L100.5 233.25L100.5 250.5z" stroke="none" fill="#FFFFFF" fill-rule="nonzero" /><path id="132" transform="matrix(1 0 0 -1 0 612)" d="M100.5 234L691.5 234L691.5 203.25L100.5 203.25L100.5 234z" stroke="none" fill="#E0F7FA" fill-rule="nonzero" /><path id="133" transform="matrix(1 0 0 -1 0 612)" d="M100.5 204L691.5 204L691.5 186.75L100.5 186.75L100.5 204z" stroke="none" fill="#FFFFFF" fill-rule="nonzero" /><path id="134" transform="matrix(1 0 0 -1 0 612)" d="M100.5 187.5L691.5 187.5L691.5 170.25L100.5 170.25L100.5 187.5z" stroke="none" fill="#E0F7FA" fill-rule="nonzero" /><path id="135" transform="matrix(1 0 0 -1 0 612)" d="M100.5 171L691.5 171L691.5 153.75L100.5 153.75L100.5 171z" stroke="none" fill="#FFFFFF" fill-rule="nonzero" /><path id="136" transform="matrix(1 0 0 -1 0 612)" d="M100.5 154.5L691.5 154.5L691.5 111L100.5 111L100.5 154.5z" stroke="none" fill="#E0F7FA" fill-rule="nonzero" /><path id="137" transform="matrix(1 0 0 -1 0 612)" d="M100.5 111.75L691.5 111.75L691.5 81L100.5 81L100.5 111.75z" stroke="none" fill="#FFFFFF" fill-rule="nonzero" /><path id="138" transform="matrix(1 0 0 -1 0 612)" d="M100.5 81.75L691.5 81.75L691.5 81L100.5 81zM100.5 111.75L691.5 111.75L691.5 111L100.5 111zM100.5 154.5L691.5 154.5L691.5 153.75L100.5 153.75zM100.5 171L691.5 171L691.5 170.25L100.5 170.25zM100.5 187.5L691.5 187.5L691.5 186.75L100.5 186.75zM100.5 204L691.5 204L691.5 203.25L100.5 203.25zM100.5 234L691.5 234L691.5 233.25L100.5 233.25zM100.5 250.5L691.5 250.5L691.5 249.75L100.5 249.75zM100.5 267L691.5 267L691.5 266.25L100.5 266.25zM100.5 297L691.5 297L691.5 296.25L100.5 296.25zM100.5 327L691.5 327L691.5 326.25L100.5 326.25zM100.5 357L691.5 357L691.5 356.25L100.5 356.25zM100.5 373.5L691.5 373.5L691.5 372.75L100.5 372.75zM100.5 390L691.5 390L691.5 389.25L100.5 389.25zM100.5 432.75L691.5 432.75L691.5 432L100.5 432zM100.5 449.25L691.5 449.25L691.5 448.5L100.5 448.5zM100.5 479.25L691.5 479.25L691.5 478.5L100.5 478.5zM100.5 495.75L691.5 495.75L691.5 495L100.5 495zM100.5 512.25L691.5 512.25L691.5 511.5L100.5 511.5zM100.5 528.75L691.5 528.75L691.5 528L100.5 528zM100.5 558.75L691.5 558.75L691.5 558L100.5 558zM691.5 111L691.5 81.75L690.75 81.75L690.75 111zM691.5 153.75L691.5 111.75L690.75 111.75L690.75 153.75zM691.5 170.25L691.5 154.5L690.75 154.5L690.75 170.25zM691.5 186.75L691.5 171L690.75 171L690.75 186.75zM691.5 203.25L691.5 187.5L690.75 187.5L690.75 203.25zM691.5 233.25L691.5 204L690.75 204L690.75 233.25zM691.5 249.75L691.5 234L690.75 234L690.75 249.75zM691.5 266.25L691.5 250.5L690.75 250.5L690.75 266.25zM691.5 296.25L691.5 267L690.75 267L690.75 296.25zM691.5 326.25L691.5 297L690.75 297L690.75 326.25zM691.5 356.25L691.5 327L690.75 327L690.75 356.25zM691.5 372.75L691.5 357L690.75 357L690.75 372.75zM691.5 389.25L691.5 373.5L690.75 373.5L690.75 389.25zM691.5 432L691.5 390L690.75 390L690.75 432zM691.5 448.5L691.5 432.75L690.75 432.75L690.75 448.5zM691.5 478.5L691.5 449.25L690.75 449.25L690.75 478.5zM691.5 495L691.5 479.25L690.75 479.25L690.75 495zM691.5 511.5L691.5 495.75L690.75 495.75L690.75 511.5zM691.5 528L691.5 512.25L690.75 512.25L690.75 528zM691.5 558L691.5 528.75L690.75 528.75L690.75 558zM621.75 111L621.75 81.75L621 81.75L621 111zM621.75 153.75L621.75 111.75L621 111.75L621 153.75zM621.75 170.25L621.75 154.5L621 154.5L621 170.25zM621.75 186.75L621.75 171L621 171L621 186.75zM621.75 203.25L621.75 187.5L621 187.5L621 203.25zM621.75 233.25L621.75 204L621 204L621 233.25zM621.75 249.75L621.75 234L621 234L621 249.75zM621.75 266.25L621.75 250.5L621 250.5L621 266.25zM621.75 296.25L621.75 267L621 267L621 296.25zM621.75 326.25L621.75 297L621 297L621 326.25zM621.75 356.25L621.75 327L621 327L621 356.25zM621.75 372.75L621.75 357L621 357L621 372.75zM621.75 389.25L621.75 373.5L621 373.5L621 389.25zM621.75 432L621.75 390L621 390L621 432zM621.75 448.5L621.75 432.75L621 432.75L621 448.5zM621.75 478.5L621.75 449.25L621 449.25L621 478.5zM621.75 495L621.75 479.25L621 479.25L621 495zM621.75 511.5L621.75 495.75L621 495.75L621 511.5zM621.75 528L621.75 512.25L621 512.25L621 528zM621.75 558L621.75 528.75L621 528.75L621 558zM252.75 111L252.75 81.75L252 81.75L252 111zM252.75 153.75L252.75 111.75L252 111.75L252 153.75zM252.75 170.25L252.75 154.5L252 154.5L252 170.25zM252.75 186.75L252.75 171L252 171L252 186.75zM252.75 203.25L252.75 187.5L252 187.5L252 203.25zM252.75 233.25L252.75 204L252 204L252 233.25zM252.75 249.75L252.75 234L252 234L252 249.75zM252.75 266.25L252.75 250.5L252 250.5L252 266.25zM252.75 296.25L252.75 267L252 267L252 296.25zM252.75 326.25L252.75 297L252 297L252 326.25zM252.75 356.25L252.75 327L252 327L252 356.25zM252.75 372.75L252.75 357L252 357L252 372.75zM252.75 389.25L252.75 373.5L252 373.5L252 389.25zM252.75 432L252.75 390L252 390L252 432zM252.75 448.5L252.75 432.75L252 432.75L252 448.5zM252.75 478.5L252.75 449.25L252 449.25L252 478.5zM252.75 495L252.75 479.25L252 479.25L252 495zM252.75 511.5L252.75 495.75L252 495.75L252 511.5zM252.75 528L252.75 512.25L252 512.25L252 528zM252.75 558L252.75 528.75L252 528.75L252 558zM177 111L177 81.75L176.25 81.75L176.25 111zM177 153.75L177 111.75L176.25 111.75L176.25 153.75zM177 170.25L177 154.5L176.25 154.5L176.25 170.25zM177 186.75L177 171L176.25 171L176.25 186.75zM177 203.25L177 187.5L176.25 187.5L176.25 203.25zM177 233.25L177 204L176.25 204L176.25 233.25zM177 249.75L177 234L176.25 234L176.25 249.75zM177 266.25L177 250.5L176.25 250.5L176.25 266.25zM177 296.25L177 267L176.25 267L176.25 296.25zM177 326.25L177 297L176.25 297L176.25 326.25zM177 356.25L177 327L176.25 327L176.25 356.25zM177 372.75L177 357L176.25 357L176.25 372.75zM177 389.25L177 373.5L176.25 373.5L176.25 389.25zM177 432L177 390L176.25 390L176.25 432zM177 448.5L177 432.75L176.25 432.75L176.25 448.5zM177 478.5L177 449.25L176.25 449.25L176.25 478.5zM177 495L177 479.25L176.25 479.25L176.25 495zM177 511.5L177 495.75L176.25 495.75L176.25 511.5zM177 528L177 512.25L176.25 512.25L176.25 528zM177 558L177 528.75L176.25 528.75L176.25 558zM101.25 111L101.25 81.75L100.5 81.75L100.5 111zM101.25 153.75L101.25 111.75L100.5 111.75L100.5 153.75zM101.25 170.25L101.25 154.5L100.5 154.5L100.5 170.25zM101.25 186.75L101.25 171L100.5 171L100.5 186.75zM101.25 203.25L101.25 187.5L100.5 187.5L100.5 203.25zM101.25 233.25L101.25 204L100.5 204L100.5 233.25zM101.25 249.75L101.25 234L100.5 234L100.5 249.75zM101.25 266.25L101.25 250.5L100.5 250.5L100.5 266.25zM101.25 296.25L101.25 267L100.5 267L100.5 296.25zM101.25 326.25L101.25 297L100.5 297L100.5 326.25zM101.25 356.25L101.25 327L100.5 327L100.5 356.25zM101.25 372.75L101.25 357L100.5 357L100.5 372.75zM101.25 389.25L101.25 373.5L100.5 373.5L100.5 389.25zM101.25 432L101.25 390L100.5 390L100.5 432zM101.25 448.5L101.25 432.75L100.5 432.75L100.5 448.5zM101.25 478.5L101.25 449.25L100.5 449.25L100.5 478.5zM101.25 495L101.25 479.25L100.5 479.25L100.5 495zM101.25 511.5L101.25 495.75L100.5 495.75L100.5 511.5zM101.25 528L101.25 512.25L100.5 512.25L100.5 528zM101.25 558L101.25 528.75L100.5 528.75L100.5 558z" stroke="none" fill="#000000" fill-rule="nonzero" fill-opacity="0.1490196" /><path id="216" transform="matrix(1 0 0 -1 0 612)" d="M255 531.7158L527.857 531.7158" stroke="#000000" stroke-width="0.7017334" fill="none" /><path id="257" transform="matrix(1 0 0 -1 0 612)" d="M255 515.2158L389.9809 515.2158" stroke="#000000" stroke-width="0.7017334" fill="none" /><path id="306" transform="matrix(1 0 0 -1 0 612)" d="M255 498.7158L401.7715 498.7158" stroke="#000000" stroke-width="0.7017334" fill="none" /><path id="353" transform="matrix(1 0 0 -1 0 612)" d="M255 482.2158L426.9865 482.2158" stroke="#000000" stroke-width="0.7017334" fill="none" /><path id="435" transform="matrix(1 0 0 -1 0 612)" d="M255 465.3047L587.9832 465.3047" stroke="#000000" stroke-width="0.7017334" fill="none" /><path id="448" transform="matrix(1 0 0 -1 0 612)" d="M255 452.2158L306.9274 452.2158" stroke="#000000" stroke-width="0.7017334" fill="none" /><path id="491" transform="matrix(1 0 0 -1 0 612)" d="M255 435.7158L414.1801 435.7158" stroke="#000000" stroke-width="0.7017334" fill="none" /><path id="595" transform="matrix(1 0 0 -1 0 612)" d="M255 406.0547L614.4758 406.0547" stroke="#000000" stroke-width="0.7017334" fill="none" /><path id="604" transform="matrix(1 0 0 -1 0 612)" d="M255 392.9658L293.3199 392.9658" stroke="#000000" stroke-width="0.7017334" fill="none" /><path id="683" transform="matrix(1 0 0 -1 0 612)" d="M255 376.4658L598.5752 376.4658" stroke="#000000" stroke-width="0.7017334" fill="none" /><path id="762" transform="matrix(1 0 0 -1 0 612)" d="M255 359.9658L591.418 359.9658" stroke="#000000" stroke-width="0.7017334" fill="none" /><path id="803" transform="matrix(1 0 0 -1 0 612)" d="M255 329.9658L334.9644 329.9658" stroke="#000000" stroke-width="0.7017334" fill="none" /><path id="881" transform="matrix(1 0 0 -1 0 612)" d="M255 299.9658L499.1969 299.9658" stroke="#000000" stroke-width="0.7017334" fill="none" /><path id="961" transform="matrix(1 0 0 -1 0 612)" d="M255 269.9658L542.0718 269.9658" stroke="#000000" stroke-width="0.7017334" fill="none" /><path id="1044" transform="matrix(1 0 0 -1 0 612)" d="M255 253.4658L585.1926 253.4658" stroke="#000000" stroke-width="0.7017334" fill="none" /><path id="1082" transform="matrix(1 0 0 -1 0 612)" d="M255 236.9658L379.8341 236.9658" stroke="#000000" stroke-width="0.7017334" fill="none" /><path id="1165" transform="matrix(1 0 0 -1 0 612)" d="M255 220.0547L596.1406 220.0547" stroke="#000000" stroke-width="0.7017334" fill="none" /><path id="1209" transform="matrix(1 0 0 -1 0 612)" d="M255 206.9658L473.0971 206.9658" stroke="#000000" stroke-width="0.7017334" fill="none" /><path id="1251" transform="matrix(1 0 0 -1 0 612)" d="M255 190.4658L394.8448 190.4658" stroke="#000000" stroke-width="0.7017334" fill="none" /><path id="1296" transform="matrix(1 0 0 -1 0 612)" d="M255 173.9658L420.6252 173.9658" stroke="#000000" stroke-width="0.7017334" fill="none" /><path id="1331" transform="matrix(1 0 0 -1 0 612)" d="M255 157.4658L342.8912 157.4658" stroke="#000000" stroke-width="0.7017334" fill="none" /><path id="1408" transform="matrix(1 0 0 -1 0 612)" d="M255 114.7158L542.4487 114.7158" stroke="#000000" stroke-width="0.7017334" fill="none" /><path id="1466" transform="matrix(1 0 0 -1 0 612)" d="M255 84.71582L451.7984 84.71582" stroke="#000000" stroke-width="0.7017334" fill="none" /></g></g></g></svg>