<svg xmlns="http://www.w3.org/2000/svg" xmlns:xlink="http://www.w3.org/1999/xlink" id="body_14" preserveAspectRatio="xMinYMin meet" viewBox="0 0 1056 816"><defs><clipPath id="1"><path id="" clip-rule="evenodd" transform="matrix(1 0 0 1 0 0)" d="M0 612L0 0L0 0L792 0L792 0L792 612L792 612L0 612z" /></clipPath><clipPath id="2"><path id="" clip-rule="evenodd" transform="matrix(1 0 0 1 0 0)" d="M99.75 52.5L692.25 52.5L692.25 52.5L692.25 536.25L692.25 536.25L99.75 536.25L99.75 536.25L99.75 52.5z" /></clipPath></defs><g transform="matrix(1.333333 0 0 1.333333 0 0)"><g clip-path="url(#1)"><g clip-path="url(#2)"><path id="118" transform="matrix(1 0 0 -1 0 612)" d="M100.5 558.75L691.5 558.75L691.5 541.5L100.5 541.5L100.5 558.75z" stroke="none" fill="#FFFFFF" fill-rule="nonzero" /><path id="119" transform="matrix(1 0 0 -1 0 612)" d="M100.5 542.25L691.5 542.25L691.5 511.5L100.5 511.5L100.5 542.25z" stroke="none" fill="#E0F7FA" fill-rule="nonzero" /><path id="120" transform="matrix(1 0 0 -1 0 612)" d="M100.5 512.25L691.5 512.25L691.5 481.5L100.5 481.5L100.5 512.25z" stroke="none" fill="#FFFFFF" fill-rule="nonzero" /><path id="121" transform="matrix(1 0 0 -1 0 612)" d="M100.5 482.25L691.5 482.25L691.5 465L100.5 465L100.5 482.25z" stroke="none" fill="#E0F7FA" fill-rule="nonzero" /><path id="122" transform="matrix(1 0 0 -1 0 612)" d="M100.5 465.75L691.5 465.75L691.5 435L100.5 435L100.5 465.75z" stroke="none" fill="#FFFFFF" fill-rule="nonzero" /><path id="123" transform="matrix(1 0 0 -1 0 612)" d="M100.5 435.75L691.5 435.75L691.5 418.5L100.5 418.5L100.5 435.75z" stroke="none" fill="#E0F7FA" fill-rule="nonzero" /><path id="124" transform="matrix(1 0 0 -1 0 612)" d="M100.5 419.25L691.5 419.25L691.5 402L100.5 402L100.5 419.25z" stroke="none" fill="#FFFFFF" fill-rule="nonzero" /><path id="125" transform="matrix(1 0 0 -1 0 612)" d="M100.5 402.75L691.5 402.75L691.5 372L100.5 372L100.5 402.75z" stroke="none" fill="#E0F7FA" fill-rule="nonzero" /><path id="126" transform="matrix(1 0 0 -1 0 612)" d="M100.5 372.75L691.5 372.75L691.5 355.5L100.5 355.5L100.5 372.75z" stroke="none" fill="#FFFFFF" fill-rule="nonzero" /><path id="127" transform="matrix(1 0 0 -1 0 612)" d="M100.5 356.25L691.5 356.25L691.5 325.5L100.5 325.5L100.5 356.25z" stroke="none" fill="#E0F7FA" fill-rule="nonzero" /><path id="128" transform="matrix(1 0 0 -1 0 612)" d="M100.5 326.25L691.5 326.25L691.5 295.5L100.5 295.5L100.5 326.25z" stroke="none" fill="#FFFFFF" fill-rule="nonzero" /><path id="129" transform="matrix(1 0 0 -1 0 612)" d="M100.5 296.25L691.5 296.25L691.5 262.5L100.5 262.5L100.5 296.25z" stroke="none" fill="#E0F7FA" fill-rule="nonzero" /><path id="130" transform="matrix(1 0 0 -1 0 612)" d="M100.5 263.25L691.5 263.25L691.5 232.5L100.5 232.5L100.5 263.25z" stroke="none" fill="#FFFFFF" fill-rule="nonzero" /><path id="131" transform="matrix(1 0 0 -1 0 612)" d="M100.5 233.25L691.5 233.25L691.5 202.5L100.5 202.5L100.5 233.25z" stroke="none" fill="#E0F7FA" fill-rule="nonzero" /><path id="132" transform="matrix(1 0 0 -1 0 612)" d="M100.5 203.25L691.5 203.25L691.5 186L100.5 186L100.5 203.25z" stroke="none" fill="#FFFFFF" fill-rule="nonzero" /><path id="133" transform="matrix(1 0 0 -1 0 612)" d="M100.5 186.75L691.5 186.75L691.5 169.5L100.5 169.5L100.5 186.75z" stroke="none" fill="#E0F7FA" fill-rule="nonzero" /><path id="134" transform="matrix(1 0 0 -1 0 612)" d="M100.5 170.25L691.5 170.25L691.5 139.5L100.5 139.5L100.5 170.25z" stroke="none" fill="#FFFFFF" fill-rule="nonzero" /><path id="135" transform="matrix(1 0 0 -1 0 612)" d="M100.5 140.25L691.5 140.25L691.5 123L100.5 123L100.5 140.25z" stroke="none" fill="#E0F7FA" fill-rule="nonzero" /><path id="136" transform="matrix(1 0 0 -1 0 612)" d="M100.5 123.75L691.5 123.75L691.5 106.5L100.5 106.5L100.5 123.75z" stroke="none" fill="#FFFFFF" fill-rule="nonzero" /><path id="137" transform="matrix(1 0 0 -1 0 612)" d="M100.5 107.25L691.5 107.25L691.5 76.5L100.5 76.5L100.5 107.25z" stroke="none" fill="#E0F7FA" fill-rule="nonzero" /><path id="138" transform="matrix(1 0 0 -1 0 612)" d="M100.5 77.25L691.5 77.25L691.5 76.5L100.5 76.5zM100.5 107.25L691.5 107.25L691.5 106.5L100.5 106.5zM100.5 123.75L691.5 123.75L691.5 123L100.5 123zM100.5 140.25L691.5 140.25L691.5 139.5L100.5 139.5zM100.5 170.25L691.5 170.25L691.5 169.5L100.5 169.5zM100.5 186.75L691.5 186.75L691.5 186L100.5 186zM100.5 203.25L691.5 203.25L691.5 202.5L100.5 202.5zM100.5 233.25L691.5 233.25L691.5 232.5L100.5 232.5zM100.5 263.25L691.5 263.25L691.5 262.5L100.5 262.5zM100.5 296.25L691.5 296.25L691.5 295.5L100.5 295.5zM100.5 326.25L691.5 326.25L691.5 325.5L100.5 325.5zM100.5 356.25L691.5 356.25L691.5 355.5L100.5 355.5zM100.5 372.75L691.5 372.75L691.5 372L100.5 372zM100.5 402.75L691.5 402.75L691.5 402L100.5 402zM100.5 419.25L691.5 419.25L691.5 418.5L100.5 418.5zM100.5 435.75L691.5 435.75L691.5 435L100.5 435zM100.5 465.75L691.5 465.75L691.5 465L100.5 465zM100.5 482.25L691.5 482.25L691.5 481.5L100.5 481.5zM100.5 512.25L691.5 512.25L691.5 511.5L100.5 511.5zM100.5 542.25L691.5 542.25L691.5 541.5L100.5 541.5zM100.5 558.75L691.5 558.75L691.5 558L100.5 558zM691.5 106.5L691.5 77.25L690.75 77.25L690.75 106.5zM691.5 123L691.5 107.25L690.75 107.25L690.75 123zM691.5 139.5L691.5 123.75L690.75 123.75L690.75 139.5zM691.5 169.5L691.5 140.25L690.75 140.25L690.75 169.5zM691.5 186L691.5 170.25L690.75 170.25L690.75 186zM691.5 202.5L691.5 186.75L690.75 186.75L690.75 202.5zM691.5 232.5L691.5 203.25L690.75 203.25L690.75 232.5zM691.5 262.5L691.5 233.25L690.75 233.25L690.75 262.5zM691.5 295.5L691.5 263.25L690.75 263.25L690.75 295.5zM691.5 325.5L691.5 296.25L690.75 296.25L690.75 325.5zM691.5 355.5L691.5 326.25L690.75 326.25L690.75 355.5zM691.5 372L691.5 356.25L690.75 356.25L690.75 372zM691.5 402L691.5 372.75L690.75 372.75L690.75 402zM691.5 418.5L691.5 402.75L690.75 402.75L690.75 418.5zM691.5 435L691.5 419.25L690.75 419.25L690.75 435zM691.5 465L691.5 435.75L690.75 435.75L690.75 465zM691.5 481.5L691.5 465.75L690.75 465.75L690.75 481.5zM691.5 511.5L691.5 482.25L690.75 482.25L690.75 511.5zM691.5 541.5L691.5 512.25L690.75 512.25L690.75 541.5zM691.5 558L691.5 542.25L690.75 542.25L690.75 558zM621.75 106.5L621.75 77.25L621 77.25L621 106.5zM621.75 123L621.75 107.25L621 107.25L621 123zM621.75 139.5L621.75 123.75L621 123.75L621 139.5zM621.75 169.5L621.75 140.25L621 140.25L621 169.5zM621.75 186L621.75 170.25L621 170.25L621 186zM621.75 202.5L621.75 186.75L621 186.75L621 202.5zM621.75 232.5L621.75 203.25L621 203.25L621 232.5zM621.75 262.5L621.75 233.25L621 233.25L621 262.5zM621.75 295.5L621.75 263.25L621 263.25L621 295.5zM621.75 325.5L621.75 296.25L621 296.25L621 325.5zM621.75 355.5L621.75 326.25L621 326.25L621 355.5zM621.75 372L621.75 356.25L621 356.25L621 372zM621.75 402L621.75 372.75L621 372.75L621 402zM621.75 418.5L621.75 402.75L621 402.75L621 418.5zM621.75 435L621.75 419.25L621 419.25L621 435zM621.75 465L621.75 435.75L621 435.75L621 465zM621.75 481.5L621.75 465.75L621 465.75L621 481.5zM621.75 511.5L621.75 482.25L621 482.25L621 511.5zM621.75 541.5L621.75 512.25L621 512.25L621 541.5zM621.75 558L621.75 542.25L621 542.25L621 558zM252.75 106.5L252.75 77.25L252 77.25L252 106.5zM252.75 123L252.75 107.25L252 107.25L252 123zM252.75 139.5L252.75 123.75L252 123.75L252 139.5zM252.75 169.5L252.75 140.25L252 140.25L252 169.5zM252.75 186L252.75 170.25L252 170.25L252 186zM252.75 202.5L252.75 186.75L252 186.75L252 202.5zM252.75 232.5L252.75 203.25L252 203.25L252 232.5zM252.75 262.5L252.75 233.25L252 233.25L252 262.5zM252.75 295.5L252.75 263.25L252 263.25L252 295.5zM252.75 325.5L252.75 296.25L252 296.25L252 325.5zM252.75 355.5L252.75 326.25L252 326.25L252 355.5zM252.75 372L252.75 356.25L252 356.25L252 372zM252.75 402L252.75 372.75L252 372.75L252 402zM252.75 418.5L252.75 402.75L252 402.75L252 418.5zM252.75 435L252.75 419.25L252 419.25L252 435zM252.75 465L252.75 435.75L252 435.75L252 465zM252.75 481.5L252.75 465.75L252 465.75L252 481.5zM252.75 511.5L252.75 482.25L252 482.25L252 511.5zM252.75 541.5L252.75 512.25L252 512.25L252 541.5zM252.75 558L252.75 542.25L252 542.25L252 558zM177 106.5L177 77.25L176.25 77.25L176.25 106.5zM177 123L177 107.25L176.25 107.25L176.25 123zM177 139.5L177 123.75L176.25 123.75L176.25 139.5zM177 169.5L177 140.25L176.25 140.25L176.25 169.5zM177 186L177 170.25L176.25 170.25L176.25 186zM177 202.5L177 186.75L176.25 186.75L176.25 202.5zM177 232.5L177 203.25L176.25 203.25L176.25 232.5zM177 262.5L177 233.25L176.25 233.25L176.25 262.5zM177 295.5L177 263.25L176.25 263.25L176.25 295.5zM177 325.5L177 296.25L176.25 296.25L176.25 325.5zM177 355.5L177 326.25L176.25 326.25L176.25 355.5zM177 372L177 356.25L176.25 356.25L176.25 372zM177 402L177 372.75L176.25 372.75L176.25 402zM177 418.5L177 402.75L176.25 402.75L176.25 418.5zM177 435L177 419.25L176.25 419.25L176.25 435zM177 465L177 435.75L176.25 435.75L176.25 465zM177 481.5L177 465.75L176.25 465.75L176.25 481.5zM177 511.5L177 482.25L176.25 482.25L176.25 511.5zM177 541.5L177 512.25L176.25 512.25L176.25 541.5zM177 558L177 542.25L176.25 542.25L176.25 558zM101.25 106.5L101.25 77.25L100.5 77.25L100.5 106.5zM101.25 123L101.25 107.25L100.5 107.25L100.5 123zM101.25 139.5L101.25 123.75L100.5 123.75L100.5 139.5zM101.25 169.5L101.25 140.25L100.5 140.25L100.5 169.5zM101.25 186L101.25 170.25L100.5 170.25L100.5 186zM101.25 202.5L101.25 186.75L100.5 186.75L100.5 202.5zM101.25 232.5L101.25 203.25L100.5 203.25L100.5 232.5zM101.25 262.5L101.25 233.25L100.5 233.25L100.5 262.5zM101.25 295.5L101.25 263.25L100.5 263.25L100.5 295.5zM101.25 325.5L101.25 296.25L100.5 296.25L100.5 325.5zM101.25 355.5L101.25 326.25L100.5 326.25L100.5 355.5zM101.25 372L101.25 356.25L100.5 356.25L100.5 372zM101.25 402L101.25 372.75L100.5 372.75L100.5 402zM101.25 418.5L101.25 402.75L100.5 402.75L100.5 418.5zM101.25 435L101.25 419.25L100.5 419.25L100.5 435zM101.25 465L101.25 435.75L100.5 435.75L100.5 465zM101.25 481.5L101.25 465.75L100.5 465.75L100.5 481.5zM101.25 511.5L101.25 482.25L100.5 482.25L100.5 511.5zM101.25 541.5L101.25 512.25L100.5 512.25L100.5 541.5zM101.25 558L101.25 542.25L100.5 542.25L100.5 558z" stroke="none" fill="#000000" fill-rule="nonzero" fill-opacity="0.1490196" /><path id="209" transform="matrix(1 0 0 -1 0 612)" d="M255 545.2158L542.8571 545.2158" stroke="#000000" stroke-width="0.7017334" fill="none" /><path id="289" transform="matrix(1 0 0 -1 0 612)" d="M255 528.3047L595.1614 528.3047" stroke="#000000" stroke-width="0.7017334" fill="none" /><path id="311" transform="matrix(1 0 0 -1 0 612)" d="M255 515.2158L363.8182 515.2158" stroke="#000000" stroke-width="0.7017334" fill="none" /><path id="401" transform="matrix(1 0 0 -1 0 612)" d="M255 498.3047L607.963 498.3047" stroke="#000000" stroke-width="0.7017334" fill="none" /><path id="417" transform="matrix(1 0 0 -1 0 612)" d="M255 485.2158L328.0217 485.2158" stroke="#000000" stroke-width="0.7017334" fill="none" /><path id="455" transform="matrix(1 0 0 -1 0 612)" d="M255 468.7158L359.7501 468.7158" stroke="#000000" stroke-width="0.7017334" fill="none" /><path id="537" transform="matrix(1 0 0 -1 0 612)" d="M255 451.8047L587.5852 451.8047" stroke="#000000" stroke-width="0.7017334" fill="none" /><path id="545" transform="matrix(1 0 0 -1 0 612)" d="M255 438.7158L300.1053 438.7158" stroke="#000000" stroke-width="0.7017334" fill="none" /><path id="595" transform="matrix(1 0 0 -1 0 612)" d="M255 422.2158L430.5416 422.2158" stroke="#000000" stroke-width="0.7017334" fill="none" /><path id="657" transform="matrix(1 0 0 -1 0 612)" d="M255 405.7158L483.961 405.7158" stroke="#000000" stroke-width="0.7017334" fill="none" /><path id="733" transform="matrix(1 0 0 -1 0 612)" d="M255 388.8047L572.9153 388.8047" stroke="#000000" stroke-width="0.7017334" fill="none" /><path id="746" transform="matrix(1 0 0 -1 0 612)" d="M255 375.7158L309.6708 375.7158" stroke="#000000" stroke-width="0.7017334" fill="none" /><path id="793" transform="matrix(1 0 0 -1 0 612)" d="M255 359.2158L412.7508 359.2158" stroke="#000000" stroke-width="0.7017334" fill="none" /><path id="858" transform="matrix(1 0 0 -1 0 612)" d="M255 329.2158L470.9714 329.2158" stroke="#000000" stroke-width="0.7017334" fill="none" /><path id="936" transform="matrix(1 0 0 -1 0 612)" d="M255 312.3047L579.3866 312.3047" stroke="#000000" stroke-width="0.7017334" fill="none" /><path id="950" transform="matrix(1 0 0 -1 0 612)" d="M255 299.2158L313.6238 299.2158" stroke="#000000" stroke-width="0.7017334" fill="none" /><path id="963" transform="matrix(1 0 0 -1 0 612)" d="M255 281.0479L265.7227 281.0479" stroke="#000000" stroke-width="0.7855225" fill="none" /><path id="1035" transform="matrix(1 0 0 -1 0 612)" d="M265.7227 280.9697L620.4343 280.9697" stroke="#000000" stroke-width="0.7017334" fill="none" /><path id="1094" transform="matrix(1 0 0 -1 0 612)" d="M255 266.2158L555.5276 266.2158" stroke="#000000" stroke-width="0.7017334" fill="none" /><path id="1096" transform="matrix(1 0 0 -1 0 612)" d="M555.5276 266.2939L566.2502 266.2939" stroke="#000000" stroke-width="0.7855225" fill="none" /><path id="1189" transform="matrix(1 0 0 -1 0 612)" d="M255 249.3047L616.7376 249.3047" stroke="#000000" stroke-width="0.7017334" fill="none" /><path id="1201" transform="matrix(1 0 0 -1 0 612)" d="M255 236.2158L306.43 236.2158" stroke="#000000" stroke-width="0.7017334" fill="none" /><path id="1279" transform="matrix(1 0 0 -1 0 612)" d="M255 219.3047L596.549 219.3047" stroke="#000000" stroke-width="0.7017334" fill="none" /><path id="1292" transform="matrix(1 0 0 -1 0 612)" d="M255 206.2158L313.9168 206.2158" stroke="#000000" stroke-width="0.7017334" fill="none" /><path id="1343" transform="matrix(1 0 0 -1 0 612)" d="M255 189.7158L417.6671 189.7158" stroke="#000000" stroke-width="0.7017334" fill="none" /><path id="1410" transform="matrix(1 0 0 -1 0 612)" d="M255 173.2158L492.155 173.2158" stroke="#000000" stroke-width="0.7017334" fill="none" /><path id="1497" transform="matrix(1 0 0 -1 0 612)" d="M255 156.3047L605.9785 156.3047" stroke="#000000" stroke-width="0.7017334" fill="none" /><path id="1521" transform="matrix(1 0 0 -1 0 612)" d="M255 143.2158L357.1897 143.2158" stroke="#000000" stroke-width="0.7017334" fill="none" /><path id="1601" transform="matrix(1 0 0 -1 0 612)" d="M255 126.7158L577.0462 126.7158" stroke="#000000" stroke-width="0.7017334" fill="none" /><path id="1662" transform="matrix(1 0 0 -1 0 612)" d="M255 110.2158L478.5265 110.2158" stroke="#000000" stroke-width="0.7017334" fill="none" /><path id="1740" transform="matrix(1 0 0 -1 0 612)" d="M255 93.30469L600.4496 93.30469" stroke="#000000" stroke-width="0.7017334" fill="none" /><path id="1751" transform="matrix(1 0 0 -1 0 612)" d="M255 80.21582L303.4456 80.21582" stroke="#000000" stroke-width="0.7017334" fill="none" /></g></g></g></svg>