<svg xmlns="http://www.w3.org/2000/svg" xmlns:xlink="http://www.w3.org/1999/xlink" id="body_21" preserveAspectRatio="xMinYMin meet" viewBox="0 0 1056 816"><defs><clipPath id="1"><path id="" clip-rule="evenodd" transform="matrix(1 0 0 1 0 0)" d="M0 612L0 0L0 0L792 0L792 0L792 612L792 612L0 612z" /></clipPath><clipPath id="2"><path id="" clip-rule="evenodd" transform="matrix(1 0 0 1 0 0)" d="M99.75 52.5L692.25 52.5L692.25 52.5L692.25 557.25L692.25 557.25L99.75 557.25L99.75 557.25L99.75 52.5z" /></clipPath></defs><g transform="matrix(1.333333 0 0 1.333333 0 0)"><g clip-path="url(#1)"><g clip-path="url(#2)"><path id="118" transform="matrix(1 0 0 -1 0 612)" d="M100.5 558.75L691.5 558.75L691.5 541.5L100.5 541.5L100.5 558.75z" stroke="none" fill="#FFFFFF" fill-rule="nonzero" /><path id="119" transform="matrix(1 0 0 -1 0 612)" d="M100.5 542.25L691.5 542.25L691.5 525L100.5 525L100.5 542.25z" stroke="none" fill="#E0F7FA" fill-rule="nonzero" /><path id="120" transform="matrix(1 0 0 -1 0 612)" d="M100.5 525.75L691.5 525.75L691.5 508.5L100.5 508.5L100.5 525.75z" stroke="none" fill="#FFFFFF" fill-rule="nonzero" /><path id="121" transform="matrix(1 0 0 -1 0 612)" d="M100.5 509.25L691.5 509.25L691.5 478.5L100.5 478.5L100.5 509.25z" stroke="none" fill="#E0F7FA" fill-rule="nonzero" /><path id="122" transform="matrix(1 0 0 -1 0 612)" d="M100.5 479.25L691.5 479.25L691.5 462L100.5 462L100.5 479.25z" stroke="none" fill="#FFFFFF" fill-rule="nonzero" /><path id="123" transform="matrix(1 0 0 -1 0 612)" d="M100.5 462.75L691.5 462.75L691.5 432L100.5 432L100.5 462.75z" stroke="none" fill="#E0F7FA" fill-rule="nonzero" /><path id="124" transform="matrix(1 0 0 -1 0 612)" d="M100.5 432.75L691.5 432.75L691.5 400.5L100.5 400.5L100.5 432.75z" stroke="none" fill="#FFFFFF" fill-rule="nonzero" /><path id="125" transform="matrix(1 0 0 -1 0 612)" d="M100.5 401.25L691.5 401.25L691.5 384L100.5 384L100.5 401.25z" stroke="none" fill="#E0F7FA" fill-rule="nonzero" /><path id="126" transform="matrix(1 0 0 -1 0 612)" d="M100.5 384.75L691.5 384.75L691.5 367.5L100.5 367.5L100.5 384.75z" stroke="none" fill="#FFFFFF" fill-rule="nonzero" /><path id="127" transform="matrix(1 0 0 -1 0 612)" d="M100.5 368.25L691.5 368.25L691.5 351L100.5 351L100.5 368.25z" stroke="none" fill="#E0F7FA" fill-rule="nonzero" /><path id="128" transform="matrix(1 0 0 -1 0 612)" d="M100.5 351.75L691.5 351.75L691.5 334.5L100.5 334.5L100.5 351.75z" stroke="none" fill="#FFFFFF" fill-rule="nonzero" /><path id="129" transform="matrix(1 0 0 -1 0 612)" d="M100.5 335.25L691.5 335.25L691.5 318L100.5 318L100.5 335.25z" stroke="none" fill="#E0F7FA" fill-rule="nonzero" /><path id="130" transform="matrix(1 0 0 -1 0 612)" d="M100.5 318.75L691.5 318.75L691.5 301.5L100.5 301.5L100.5 318.75z" stroke="none" fill="#FFFFFF" fill-rule="nonzero" /><path id="131" transform="matrix(1 0 0 -1 0 612)" d="M100.5 302.25L691.5 302.25L691.5 271.5L100.5 271.5L100.5 302.25z" stroke="none" fill="#E0F7FA" fill-rule="nonzero" /><path id="132" transform="matrix(1 0 0 -1 0 612)" d="M100.5 272.25L691.5 272.25L691.5 255L100.5 255L100.5 272.25z" stroke="none" fill="#FFFFFF" fill-rule="nonzero" /><path id="133" transform="matrix(1 0 0 -1 0 612)" d="M100.5 255.75L691.5 255.75L691.5 225L100.5 225L100.5 255.75z" stroke="none" fill="#E0F7FA" fill-rule="nonzero" /><path id="134" transform="matrix(1 0 0 -1 0 612)" d="M100.5 225.75L691.5 225.75L691.5 208.5L100.5 208.5L100.5 225.75z" stroke="none" fill="#FFFFFF" fill-rule="nonzero" /><path id="135" transform="matrix(1 0 0 -1 0 612)" d="M100.5 209.25L691.5 209.25L691.5 178.5L100.5 178.5L100.5 209.25z" stroke="none" fill="#E0F7FA" fill-rule="nonzero" /><path id="136" transform="matrix(1 0 0 -1 0 612)" d="M100.5 179.25L691.5 179.25L691.5 162L100.5 162L100.5 179.25z" stroke="none" fill="#FFFFFF" fill-rule="nonzero" /><path id="137" transform="matrix(1 0 0 -1 0 612)" d="M100.5 162.75L691.5 162.75L691.5 132L100.5 132L100.5 162.75z" stroke="none" fill="#E0F7FA" fill-rule="nonzero" /><path id="138" transform="matrix(1 0 0 -1 0 612)" d="M100.5 132.75L691.5 132.75L691.5 102L100.5 102L100.5 132.75z" stroke="none" fill="#FFFFFF" fill-rule="nonzero" /><path id="139" transform="matrix(1 0 0 -1 0 612)" d="M100.5 102.75L691.5 102.75L691.5 72L100.5 72L100.5 102.75z" stroke="none" fill="#E0F7FA" fill-rule="nonzero" /><path id="140" transform="matrix(1 0 0 -1 0 612)" d="M100.5 72.75L691.5 72.75L691.5 55.5L100.5 55.5L100.5 72.75z" stroke="none" fill="#FFFFFF" fill-rule="nonzero" /><path id="141" transform="matrix(1 0 0 -1 0 612)" d="M100.5 56.25L691.5 56.25L691.5 55.5L100.5 55.5zM100.5 72.75L691.5 72.75L691.5 72L100.5 72zM100.5 102.75L691.5 102.75L691.5 102L100.5 102zM100.5 132.75L691.5 132.75L691.5 132L100.5 132zM100.5 162.75L691.5 162.75L691.5 162L100.5 162zM100.5 179.25L691.5 179.25L691.5 178.5L100.5 178.5zM100.5 209.25L691.5 209.25L691.5 208.5L100.5 208.5zM100.5 225.75L691.5 225.75L691.5 225L100.5 225zM100.5 255.75L691.5 255.75L691.5 255L100.5 255zM100.5 272.25L691.5 272.25L691.5 271.5L100.5 271.5zM100.5 302.25L691.5 302.25L691.5 301.5L100.5 301.5zM100.5 318.75L691.5 318.75L691.5 318L100.5 318zM100.5 335.25L691.5 335.25L691.5 334.5L100.5 334.5zM100.5 351.75L691.5 351.75L691.5 351L100.5 351zM100.5 368.25L691.5 368.25L691.5 367.5L100.5 367.5zM100.5 384.75L691.5 384.75L691.5 384L100.5 384zM100.5 401.25L691.5 401.25L691.5 400.5L100.5 400.5zM100.5 432.75L691.5 432.75L691.5 432L100.5 432zM100.5 462.75L691.5 462.75L691.5 462L100.5 462zM100.5 479.25L691.5 479.25L691.5 478.5L100.5 478.5zM100.5 509.25L691.5 509.25L691.5 508.5L100.5 508.5zM100.5 525.75L691.5 525.75L691.5 525L100.5 525zM100.5 542.25L691.5 542.25L691.5 541.5L100.5 541.5zM100.5 558.75L691.5 558.75L691.5 558L100.5 558zM691.5 72L691.5 56.25L690.75 56.25L690.75 72zM691.5 102L691.5 72.75L690.75 72.75L690.75 102zM691.5 132L691.5 102.75L690.75 102.75L690.75 132zM691.5 162L691.5 132.75L690.75 132.75L690.75 162zM691.5 178.5L691.5 162.75L690.75 162.75L690.75 178.5zM691.5 208.5L691.5 179.25L690.75 179.25L690.75 208.5zM691.5 225L691.5 209.25L690.75 209.25L690.75 225zM691.5 255L691.5 225.75L690.75 225.75L690.75 255zM691.5 271.5L691.5 255.75L690.75 255.75L690.75 271.5zM691.5 301.5L691.5 272.25L690.75 272.25L690.75 301.5zM691.5 318L691.5 302.25L690.75 302.25L690.75 318zM691.5 334.5L691.5 318.75L690.75 318.75L690.75 334.5zM691.5 351L691.5 335.25L690.75 335.25L690.75 351zM691.5 367.5L691.5 351.75L690.75 351.75L690.75 367.5zM691.5 384L691.5 368.25L690.75 368.25L690.75 384zM691.5 400.5L691.5 384.75L690.75 384.75L690.75 400.5zM691.5 432L691.5 401.25L690.75 401.25L690.75 432zM691.5 462L691.5 432.75L690.75 432.75L690.75 462zM691.5 478.5L691.5 462.75L690.75 462.75L690.75 478.5zM691.5 508.5L691.5 479.25L690.75 479.25L690.75 508.5zM691.5 525L691.5 509.25L690.75 509.25L690.75 525zM691.5 541.5L691.5 525.75L690.75 525.75L690.75 541.5zM691.5 558L691.5 542.25L690.75 542.25L690.75 558zM621.75 72L621.75 56.25L621 56.25L621 72zM621.75 102L621.75 72.75L621 72.75L621 102zM621.75 132L621.75 102.75L621 102.75L621 132zM621.75 162L621.75 132.75L621 132.75L621 162zM621.75 178.5L621.75 162.75L621 162.75L621 178.5zM621.75 208.5L621.75 179.25L621 179.25L621 208.5zM621.75 225L621.75 209.25L621 209.25L621 225zM621.75 255L621.75 225.75L621 225.75L621 255zM621.75 271.5L621.75 255.75L621 255.75L621 271.5zM621.75 301.5L621.75 272.25L621 272.25L621 301.5zM621.75 318L621.75 302.25L621 302.25L621 318zM621.75 334.5L621.75 318.75L621 318.75L621 334.5zM621.75 351L621.75 335.25L621 335.25L621 351zM621.75 367.5L621.75 351.75L621 351.75L621 367.5zM621.75 384L621.75 368.25L621 368.25L621 384zM621.75 400.5L621.75 384.75L621 384.75L621 400.5zM621.75 432L621.75 401.25L621 401.25L621 432zM621.75 462L621.75 432.75L621 432.75L621 462zM621.75 478.5L621.75 462.75L621 462.75L621 478.5zM621.75 508.5L621.75 479.25L621 479.25L621 508.5zM621.75 525L621.75 509.25L621 509.25L621 525zM621.75 541.5L621.75 525.75L621 525.75L621 541.5zM621.75 558L621.75 542.25L621 542.25L621 558zM252.75 72L252.75 56.25L252 56.25L252 72zM252.75 102L252.75 72.75L252 72.75L252 102zM252.75 132L252.75 102.75L252 102.75L252 132zM252.75 162L252.75 132.75L252 132.75L252 162zM252.75 178.5L252.75 162.75L252 162.75L252 178.5zM252.75 208.5L252.75 179.25L252 179.25L252 208.5zM252.75 225L252.75 209.25L252 209.25L252 225zM252.75 255L252.75 225.75L252 225.75L252 255zM252.75 271.5L252.75 255.75L252 255.75L252 271.5zM252.75 301.5L252.75 272.25L252 272.25L252 301.5zM252.75 318L252.75 302.25L252 302.25L252 318zM252.75 334.5L252.75 318.75L252 318.75L252 334.5zM252.75 351L252.75 335.25L252 335.25L252 351zM252.75 367.5L252.75 351.75L252 351.75L252 367.5zM252.75 384L252.75 368.25L252 368.25L252 384zM252.75 400.5L252.75 384.75L252 384.75L252 400.5zM252.75 432L252.75 401.25L252 401.25L252 432zM252.75 462L252.75 432.75L252 432.75L252 462zM252.75 478.5L252.75 462.75L252 462.75L252 478.5zM252.75 508.5L252.75 479.25L252 479.25L252 508.5zM252.75 525L252.75 509.25L252 509.25L252 525zM252.75 541.5L252.75 525.75L252 525.75L252 541.5zM252.75 558L252.75 542.25L252 542.25L252 558zM177 72L177 56.25L176.25 56.25L176.25 72zM177 102L177 72.75L176.25 72.75L176.25 102zM177 132L177 102.75L176.25 102.75L176.25 132zM177 162L177 132.75L176.25 132.75L176.25 162zM177 178.5L177 162.75L176.25 162.75L176.25 178.5zM177 208.5L177 179.25L176.25 179.25L176.25 208.5zM177 225L177 209.25L176.25 209.25L176.25 225zM177 255L177 225.75L176.25 225.75L176.25 255zM177 271.5L177 255.75L176.25 255.75L176.25 271.5zM177 301.5L177 272.25L176.25 272.25L176.25 301.5zM177 318L177 302.25L176.25 302.25L176.25 318zM177 334.5L177 318.75L176.25 318.75L176.25 334.5zM177 351L177 335.25L176.25 335.25L176.25 351zM177 367.5L177 351.75L176.25 351.75L176.25 367.5zM177 384L177 368.25L176.25 368.25L176.25 384zM177 400.5L177 384.75L176.25 384.75L176.25 400.5zM177 432L177 401.25L176.25 401.25L176.25 432zM177 462L177 432.75L176.25 432.75L176.25 462zM177 478.5L177 462.75L176.25 462.75L176.25 478.5zM177 508.5L177 479.25L176.25 479.25L176.25 508.5zM177 525L177 509.25L176.25 509.25L176.25 525zM177 541.5L177 525.75L176.25 525.75L176.25 541.5zM177 558L177 542.25L176.25 542.25L176.25 558zM101.25 72L101.25 56.25L100.5 56.25L100.5 72zM101.25 102L101.25 72.75L100.5 72.75L100.5 102zM101.25 132L101.25 102.75L100.5 102.75L100.5 132zM101.25 162L101.25 132.75L100.5 132.75L100.5 162zM101.25 178.5L101.25 162.75L100.5 162.75L100.5 178.5zM101.25 208.5L101.25 179.25L100.5 179.25L100.5 208.5zM101.25 225L101.25 209.25L100.5 209.25L100.5 225zM101.25 255L101.25 225.75L100.5 225.75L100.5 255zM101.25 271.5L101.25 255.75L100.5 255.75L100.5 271.5zM101.25 301.5L101.25 272.25L100.5 272.25L100.5 301.5zM101.25 318L101.25 302.25L100.5 302.25L100.5 318zM101.25 334.5L101.25 318.75L100.5 318.75L100.5 334.5zM101.25 351L101.25 335.25L100.5 335.25L100.5 351zM101.25 367.5L101.25 351.75L100.5 351.75L100.5 367.5zM101.25 384L101.25 368.25L100.5 368.25L100.5 384zM101.25 400.5L101.25 384.75L100.5 384.75L100.5 400.5zM101.25 432L101.25 401.25L100.5 401.25L100.5 432zM101.25 462L101.25 432.75L100.5 432.75L100.5 462zM101.25 478.5L101.25 462.75L100.5 462.75L100.5 478.5zM101.25 508.5L101.25 479.25L100.5 479.25L100.5 508.5zM101.25 525L101.25 509.25L100.5 509.25L100.5 525zM101.25 541.5L101.25 525.75L100.5 525.75L100.5 541.5zM101.25 558L101.25 542.25L100.5 542.25L100.5 558z" stroke="none" fill="#000000" fill-rule="nonzero" fill-opacity="0.1490196" /><path id="204" transform="matrix(1 0 0 -1 0 612)" d="M255 545.2158L542.1817 545.2158" stroke="#000000" stroke-width="0.7017334" fill="none" /><path id="277" transform="matrix(1 0 0 -1 0 612)" d="M255 528.7158L541.3909 528.7158" stroke="#000000" stroke-width="0.7017334" fill="none" /><path id="349" transform="matrix(1 0 0 -1 0 612)" d="M255 512.2158L527.2601 512.2158" stroke="#000000" stroke-width="0.7017334" fill="none" /><path id="439" transform="matrix(1 0 0 -1 0 612)" d="M255 495.3047L602.8893 495.3047" stroke="#000000" stroke-width="0.7017334" fill="none" /><path id="465" transform="matrix(1 0 0 -1 0 612)" d="M255 482.2158L376.8708 482.2158" stroke="#000000" stroke-width="0.7017334" fill="none" /><path id="539" transform="matrix(1 0 0 -1 0 612)" d="M255 465.7158L555.9673 465.7158" stroke="#000000" stroke-width="0.7017334" fill="none" /><path id="616" transform="matrix(1 0 0 -1 0 612)" d="M255 435.7158L502.5897 435.7158" stroke="#000000" stroke-width="0.7017334" fill="none" /><path id="706" transform="matrix(1 0 0 -1 0 612)" d="M255 418.9697L610.4705 418.9697" stroke="#000000" stroke-width="0.7017334" fill="none" /><path id="771" transform="matrix(1 0 0 -1 0 612)" d="M255 404.2158L595.3342 404.2158" stroke="#000000" stroke-width="0.7017334" fill="none" /><path id="773" transform="matrix(1 0 0 -1 0 612)" d="M595.3342 404.2939L606.0568 404.2939" stroke="#000000" stroke-width="0.7855225" fill="none" /><path id="816" transform="matrix(1 0 0 -1 0 612)" d="M255 387.7158L381.3838 387.7158" stroke="#000000" stroke-width="0.7017334" fill="none" /><path id="865" transform="matrix(1 0 0 -1 0 612)" d="M255 371.2158L427.6882 371.2158" stroke="#000000" stroke-width="0.7017334" fill="none" /><path id="919" transform="matrix(1 0 0 -1 0 612)" d="M255 354.7158L436.196 354.7158" stroke="#000000" stroke-width="0.7017334" fill="none" /><path id="964" transform="matrix(1 0 0 -1 0 612)" d="M255 338.2158L375.834 338.2158" stroke="#000000" stroke-width="0.7017334" fill="none" /><path id="1045" transform="matrix(1 0 0 -1 0 612)" d="M255 321.7158L562.1718 321.7158" stroke="#000000" stroke-width="0.7017334" fill="none" /><path id="1089" transform="matrix(1 0 0 -1 0 612)" d="M255 305.2158L398.1223 305.2158" stroke="#000000" stroke-width="0.7017334" fill="none" /><path id="1186" transform="matrix(1 0 0 -1 0 612)" d="M255 288.3047L606.9523 288.3047" stroke="#000000" stroke-width="0.7017334" fill="none" /><path id="1214" transform="matrix(1 0 0 -1 0 612)" d="M255 275.2158L397.5254 275.2158" stroke="#000000" stroke-width="0.7017334" fill="none" /><path id="1287" transform="matrix(1 0 0 -1 0 612)" d="M255 258.7158L543.6741 258.7158" stroke="#000000" stroke-width="0.7017334" fill="none" /><path id="1392" transform="matrix(1 0 0 -1 0 612)" d="M255 241.8047L613.947 241.8047" stroke="#000000" stroke-width="0.7017334" fill="none" /><path id="1401" transform="matrix(1 0 0 -1 0 612)" d="M255 228.7158L295.2204 228.7158" stroke="#000000" stroke-width="0.7017334" fill="none" /><path id="1450" transform="matrix(1 0 0 -1 0 612)" d="M255 212.2158L416.3581 212.2158" stroke="#000000" stroke-width="0.7017334" fill="none" /><path id="1519" transform="matrix(1 0 0 -1 0 612)" d="M255 182.2158L479.6311 182.2158" stroke="#000000" stroke-width="0.7017334" fill="none" /><path id="1579" transform="matrix(1 0 0 -1 0 612)" d="M255 165.7158L478.359 165.7158" stroke="#000000" stroke-width="0.7017334" fill="none" /><path id="1668" transform="matrix(1 0 0 -1 0 612)" d="M255 148.8047L604.5493 148.8047" stroke="#000000" stroke-width="0.7017334" fill="none" /><path id="1716" transform="matrix(1 0 0 -1 0 612)" d="M255 135.7158L511.2336 135.7158" stroke="#000000" stroke-width="0.7017334" fill="none" /><path id="1778" transform="matrix(1 0 0 -1 0 612)" d="M255 105.7158L455.39 105.7158" stroke="#000000" stroke-width="0.7017334" fill="none" /><path id="1868" transform="matrix(1 0 0 -1 0 612)" d="M255 75.71582L582.5171 75.71582" stroke="#000000" stroke-width="0.7017334" fill="none" /><path id="1911" transform="matrix(1 0 0 -1 0 612)" d="M255 59.21582L379.1639 59.21582" stroke="#000000" stroke-width="0.7017334" fill="none" /></g></g></g></svg>