<svg xmlns="http://www.w3.org/2000/svg" xmlns:xlink="http://www.w3.org/1999/xlink" id="body_15" preserveAspectRatio="xMinYMin meet" viewBox="0 0 1056 816"><defs><clipPath id="1"><path id="" clip-rule="evenodd" transform="matrix(1 0 0 1 0 0)" d="M0 612L0 0L0 0L792 0L792 0L792 612L792 612L0 612z" /></clipPath><clipPath id="2"><path id="" clip-rule="evenodd" transform="matrix(1 0 0 1 0 0)" d="M99.75 52.5L692.25 52.5L692.25 52.5L692.25 542.25L692.25 542.25L99.75 542.25L99.75 542.25L99.75 52.5z" /></clipPath></defs><g transform="matrix(1.333333 0 0 1.333333 0 0)"><g clip-path="url(#1)"><g clip-path="url(#2)"><path id="118" transform="matrix(1 0 0 -1 0 612)" d="M100.5 558.75L691.5 558.75L691.5 528L100.5 528L100.5 558.75z" stroke="none" fill="#FFFFFF" fill-rule="nonzero" /><path id="119" transform="matrix(1 0 0 -1 0 612)" d="M100.5 528.75L691.5 528.75L691.5 511.5L100.5 511.5L100.5 528.75z" stroke="none" fill="#E0F7FA" fill-rule="nonzero" /><path id="120" transform="matrix(1 0 0 -1 0 612)" d="M100.5 512.25L691.5 512.25L691.5 495L100.5 495L100.5 512.25z" stroke="none" fill="#FFFFFF" fill-rule="nonzero" /><path id="121" transform="matrix(1 0 0 -1 0 612)" d="M100.5 495.75L691.5 495.75L691.5 478.5L100.5 478.5L100.5 495.75z" stroke="none" fill="#E0F7FA" fill-rule="nonzero" /><path id="122" transform="matrix(1 0 0 -1 0 612)" d="M100.5 479.25L691.5 479.25L691.5 448.5L100.5 448.5L100.5 479.25z" stroke="none" fill="#FFFFFF" fill-rule="nonzero" /><path id="123" transform="matrix(1 0 0 -1 0 612)" d="M100.5 449.25L691.5 449.25L691.5 418.5L100.5 418.5L100.5 449.25z" stroke="none" fill="#E0F7FA" fill-rule="nonzero" /><path id="124" transform="matrix(1 0 0 -1 0 612)" d="M100.5 419.25L691.5 419.25L691.5 375.75L100.5 375.75L100.5 419.25z" stroke="none" fill="#FFFFFF" fill-rule="nonzero" /><path id="125" transform="matrix(1 0 0 -1 0 612)" d="M100.5 376.5L691.5 376.5L691.5 359.25L100.5 359.25L100.5 376.5z" stroke="none" fill="#E0F7FA" fill-rule="nonzero" /><path id="126" transform="matrix(1 0 0 -1 0 612)" d="M100.5 360L691.5 360L691.5 329.25L100.5 329.25L100.5 360z" stroke="none" fill="#FFFFFF" fill-rule="nonzero" /><path id="127" transform="matrix(1 0 0 -1 0 612)" d="M100.5 330L691.5 330L691.5 312.75L100.5 312.75L100.5 330z" stroke="none" fill="#E0F7FA" fill-rule="nonzero" /><path id="128" transform="matrix(1 0 0 -1 0 612)" d="M100.5 313.5L691.5 313.5L691.5 296.25L100.5 296.25L100.5 313.5z" stroke="none" fill="#FFFFFF" fill-rule="nonzero" /><path id="129" transform="matrix(1 0 0 -1 0 612)" d="M100.5 297L691.5 297L691.5 266.25L100.5 266.25L100.5 297z" stroke="none" fill="#E0F7FA" fill-rule="nonzero" /><path id="130" transform="matrix(1 0 0 -1 0 612)" d="M100.5 267L691.5 267L691.5 223.5L100.5 223.5L100.5 267z" stroke="none" fill="#FFFFFF" fill-rule="nonzero" /><path id="131" transform="matrix(1 0 0 -1 0 612)" d="M100.5 224.25L691.5 224.25L691.5 207L100.5 207L100.5 224.25z" stroke="none" fill="#E0F7FA" fill-rule="nonzero" /><path id="132" transform="matrix(1 0 0 -1 0 612)" d="M100.5 207.75L691.5 207.75L691.5 177L100.5 177L100.5 207.75z" stroke="none" fill="#FFFFFF" fill-rule="nonzero" /><path id="133" transform="matrix(1 0 0 -1 0 612)" d="M100.5 177.75L691.5 177.75L691.5 147L100.5 147L100.5 177.75z" stroke="none" fill="#E0F7FA" fill-rule="nonzero" /><path id="134" transform="matrix(1 0 0 -1 0 612)" d="M100.5 147.75L691.5 147.75L691.5 117L100.5 117L100.5 147.75z" stroke="none" fill="#FFFFFF" fill-rule="nonzero" /><path id="135" transform="matrix(1 0 0 -1 0 612)" d="M100.5 117.75L691.5 117.75L691.5 100.5L100.5 100.5L100.5 117.75z" stroke="none" fill="#E0F7FA" fill-rule="nonzero" /><path id="136" transform="matrix(1 0 0 -1 0 612)" d="M100.5 101.25L691.5 101.25L691.5 70.5L100.5 70.5L100.5 101.25z" stroke="none" fill="#FFFFFF" fill-rule="nonzero" /><path id="137" transform="matrix(1 0 0 -1 0 612)" d="M100.5 71.25L691.5 71.25L691.5 70.5L100.5 70.5zM100.5 101.25L691.5 101.25L691.5 100.5L100.5 100.5zM100.5 117.75L691.5 117.75L691.5 117L100.5 117zM100.5 147.75L691.5 147.75L691.5 147L100.5 147zM100.5 177.75L691.5 177.75L691.5 177L100.5 177zM100.5 207.75L691.5 207.75L691.5 207L100.5 207zM100.5 224.25L691.5 224.25L691.5 223.5L100.5 223.5zM100.5 267L691.5 267L691.5 266.25L100.5 266.25zM100.5 297L691.5 297L691.5 296.25L100.5 296.25zM100.5 313.5L691.5 313.5L691.5 312.75L100.5 312.75zM100.5 330L691.5 330L691.5 329.25L100.5 329.25zM100.5 360L691.5 360L691.5 359.25L100.5 359.25zM100.5 376.5L691.5 376.5L691.5 375.75L100.5 375.75zM100.5 419.25L691.5 419.25L691.5 418.5L100.5 418.5zM100.5 449.25L691.5 449.25L691.5 448.5L100.5 448.5zM100.5 479.25L691.5 479.25L691.5 478.5L100.5 478.5zM100.5 495.75L691.5 495.75L691.5 495L100.5 495zM100.5 512.25L691.5 512.25L691.5 511.5L100.5 511.5zM100.5 528.75L691.5 528.75L691.5 528L100.5 528zM100.5 558.75L691.5 558.75L691.5 558L100.5 558zM691.5 100.5L691.5 71.25L690.75 71.25L690.75 100.5zM691.5 117L691.5 101.25L690.75 101.25L690.75 117zM691.5 147L691.5 117.75L690.75 117.75L690.75 147zM691.5 177L691.5 147.75L690.75 147.75L690.75 177zM691.5 207L691.5 177.75L690.75 177.75L690.75 207zM691.5 223.5L691.5 207.75L690.75 207.75L690.75 223.5zM691.5 266.25L691.5 224.25L690.75 224.25L690.75 266.25zM691.5 296.25L691.5 267L690.75 267L690.75 296.25zM691.5 312.75L691.5 297L690.75 297L690.75 312.75zM691.5 329.25L691.5 313.5L690.75 313.5L690.75 329.25zM691.5 359.25L691.5 330L690.75 330L690.75 359.25zM691.5 375.75L691.5 360L690.75 360L690.75 375.75zM691.5 418.5L691.5 376.5L690.75 376.5L690.75 418.5zM691.5 448.5L691.5 419.25L690.75 419.25L690.75 448.5zM691.5 478.5L691.5 449.25L690.75 449.25L690.75 478.5zM691.5 495L691.5 479.25L690.75 479.25L690.75 495zM691.5 511.5L691.5 495.75L690.75 495.75L690.75 511.5zM691.5 528L691.5 512.25L690.75 512.25L690.75 528zM691.5 558L691.5 528.75L690.75 528.75L690.75 558zM621.75 100.5L621.75 71.25L621 71.25L621 100.5zM621.75 117L621.75 101.25L621 101.25L621 117zM621.75 147L621.75 117.75L621 117.75L621 147zM621.75 177L621.75 147.75L621 147.75L621 177zM621.75 207L621.75 177.75L621 177.75L621 207zM621.75 223.5L621.75 207.75L621 207.75L621 223.5zM621.75 266.25L621.75 224.25L621 224.25L621 266.25zM621.75 296.25L621.75 267L621 267L621 296.25zM621.75 312.75L621.75 297L621 297L621 312.75zM621.75 329.25L621.75 313.5L621 313.5L621 329.25zM621.75 359.25L621.75 330L621 330L621 359.25zM621.75 375.75L621.75 360L621 360L621 375.75zM621.75 418.5L621.75 376.5L621 376.5L621 418.5zM621.75 448.5L621.75 419.25L621 419.25L621 448.5zM621.75 478.5L621.75 449.25L621 449.25L621 478.5zM621.75 495L621.75 479.25L621 479.25L621 495zM621.75 511.5L621.75 495.75L621 495.75L621 511.5zM621.75 528L621.75 512.25L621 512.25L621 528zM621.75 558L621.75 528.75L621 528.75L621 558zM252.75 100.5L252.75 71.25L252 71.25L252 100.5zM252.75 117L252.75 101.25L252 101.25L252 117zM252.75 147L252.75 117.75L252 117.75L252 147zM252.75 177L252.75 147.75L252 147.75L252 177zM252.75 207L252.75 177.75L252 177.75L252 207zM252.75 223.5L252.75 207.75L252 207.75L252 223.5zM252.75 266.25L252.75 224.25L252 224.25L252 266.25zM252.75 296.25L252.75 267L252 267L252 296.25zM252.75 312.75L252.75 297L252 297L252 312.75zM252.75 329.25L252.75 313.5L252 313.5L252 329.25zM252.75 359.25L252.75 330L252 330L252 359.25zM252.75 375.75L252.75 360L252 360L252 375.75zM252.75 418.5L252.75 376.5L252 376.5L252 418.5zM252.75 448.5L252.75 419.25L252 419.25L252 448.5zM252.75 478.5L252.75 449.25L252 449.25L252 478.5zM252.75 495L252.75 479.25L252 479.25L252 495zM252.75 511.5L252.75 495.75L252 495.75L252 511.5zM252.75 528L252.75 512.25L252 512.25L252 528zM252.75 558L252.75 528.75L252 528.75L252 558zM177 100.5L177 71.25L176.25 71.25L176.25 100.5zM177 117L177 101.25L176.25 101.25L176.25 117zM177 147L177 117.75L176.25 117.75L176.25 147zM177 177L177 147.75L176.25 147.75L176.25 177zM177 207L177 177.75L176.25 177.75L176.25 207zM177 223.5L177 207.75L176.25 207.75L176.25 223.5zM177 266.25L177 224.25L176.25 224.25L176.25 266.25zM177 296.25L177 267L176.25 267L176.25 296.25zM177 312.75L177 297L176.25 297L176.25 312.75zM177 329.25L177 313.5L176.25 313.5L176.25 329.25zM177 359.25L177 330L176.25 330L176.25 359.25zM177 375.75L177 360L176.25 360L176.25 375.75zM177 418.5L177 376.5L176.25 376.5L176.25 418.5zM177 448.5L177 419.25L176.25 419.25L176.25 448.5zM177 478.5L177 449.25L176.25 449.25L176.25 478.5zM177 495L177 479.25L176.25 479.25L176.25 495zM177 511.5L177 495.75L176.25 495.75L176.25 511.5zM177 528L177 512.25L176.25 512.25L176.25 528zM177 558L177 528.75L176.25 528.75L176.25 558zM101.25 100.5L101.25 71.25L100.5 71.25L100.5 100.5zM101.25 117L101.25 101.25L100.5 101.25L100.5 117zM101.25 147L101.25 117.75L100.5 117.75L100.5 147zM101.25 177L101.25 147.75L100.5 147.75L100.5 177zM101.25 207L101.25 177.75L100.5 177.75L100.5 207zM101.25 223.5L101.25 207.75L100.5 207.75L100.5 223.5zM101.25 266.25L101.25 224.25L100.5 224.25L100.5 266.25zM101.25 296.25L101.25 267L100.5 267L100.5 296.25zM101.25 312.75L101.25 297L100.5 297L100.5 312.75zM101.25 329.25L101.25 313.5L100.5 313.5L100.5 329.25zM101.25 359.25L101.25 330L100.5 330L100.5 359.25zM101.25 375.75L101.25 360L100.5 360L100.5 375.75zM101.25 418.5L101.25 376.5L100.5 376.5L100.5 418.5zM101.25 448.5L101.25 419.25L100.5 419.25L100.5 448.5zM101.25 478.5L101.25 449.25L100.5 449.25L100.5 478.5zM101.25 495L101.25 479.25L100.5 479.25L100.5 495zM101.25 511.5L101.25 495.75L100.5 495.75L100.5 511.5zM101.25 528L101.25 512.25L100.5 512.25L100.5 528zM101.25 558L101.25 528.75L100.5 528.75L100.5 558z" stroke="none" fill="#000000" fill-rule="nonzero" fill-opacity="0.1490196" /><path id="235" transform="matrix(1 0 0 -1 0 612)" d="M255 544.8047L613.2089 544.8047" stroke="#000000" stroke-width="0.7017334" fill="none" /><path id="266" transform="matrix(1 0 0 -1 0 612)" d="M255 531.7158L398.3997 531.7158" stroke="#000000" stroke-width="0.7017334" fill="none" /><path id="312" transform="matrix(1 0 0 -1 0 612)" d="M255 515.2158L391.1484 515.2158" stroke="#000000" stroke-width="0.7017334" fill="none" /><path id="375" transform="matrix(1 0 0 -1 0 612)" d="M255 498.7158L509.7676 498.7158" stroke="#000000" stroke-width="0.7017334" fill="none" /><path id="446" transform="matrix(1 0 0 -1 0 612)" d="M255 482.2158L513.0768 482.2158" stroke="#000000" stroke-width="0.7017334" fill="none" /><path id="529" transform="matrix(1 0 0 -1 0 612)" d="M255 465.3047L606.5648 465.3047" stroke="#000000" stroke-width="0.7017334" fill="none" /><path id="544" transform="matrix(1 0 0 -1 0 612)" d="M255 452.2158L324.3045 452.2158" stroke="#000000" stroke-width="0.7017334" fill="none" /><path id="624" transform="matrix(1 0 0 -1 0 612)" d="M255 435.3047L596.58 435.3047" stroke="#000000" stroke-width="0.7017334" fill="none" /><path id="683" transform="matrix(1 0 0 -1 0 612)" d="M255 422.2158L544.4121 422.2158" stroke="#000000" stroke-width="0.7017334" fill="none" /><path id="765" transform="matrix(1 0 0 -1 0 612)" d="M255 379.4658L479.1547 379.4658" stroke="#000000" stroke-width="0.7017334" fill="none" /><path id="794" transform="matrix(1 0 0 -1 0 612)" d="M255 362.9658L321.9328 362.9658" stroke="#000000" stroke-width="0.7017334" fill="none" /><path id="878" transform="matrix(1 0 0 -1 0 612)" d="M255 346.0547L601.6486 346.0547" stroke="#000000" stroke-width="0.7017334" fill="none" /><path id="891" transform="matrix(1 0 0 -1 0 612)" d="M255 332.9658L315.4666 332.9658" stroke="#000000" stroke-width="0.7017334" fill="none" /><path id="958" transform="matrix(1 0 0 -1 0 612)" d="M255 316.4658L492.537 316.4658" stroke="#000000" stroke-width="0.7017334" fill="none" /><path id="1014" transform="matrix(1 0 0 -1 0 612)" d="M255 299.9658L444.589 299.9658" stroke="#000000" stroke-width="0.7017334" fill="none" /><path id="1096" transform="matrix(1 0 0 -1 0 612)" d="M255 283.0547L596.8212 283.0547" stroke="#000000" stroke-width="0.7017334" fill="none" /><path id="1150" transform="matrix(1 0 0 -1 0 612)" d="M255 269.9658L520.3177 269.9658" stroke="#000000" stroke-width="0.7017334" fill="none" /><path id="1224" transform="matrix(1 0 0 -1 0 612)" d="M255 227.2158L463.7411 227.2158" stroke="#000000" stroke-width="0.7017334" fill="none" /><path id="1276" transform="matrix(1 0 0 -1 0 612)" d="M255 210.7158L454.3063 210.7158" stroke="#000000" stroke-width="0.7017334" fill="none" /><path id="1328" transform="matrix(1 0 0 -1 0 612)" d="M255 180.7158L395.1589 180.7158" stroke="#000000" stroke-width="0.7017334" fill="none" /><path id="1402" transform="matrix(1 0 0 -1 0 612)" d="M255 163.8047L559.7944 163.8047" stroke="#000000" stroke-width="0.7017334" fill="none" /><path id="1443" transform="matrix(1 0 0 -1 0 612)" d="M255 150.7158L467.4374 150.7158" stroke="#000000" stroke-width="0.7017334" fill="none" /><path id="1512" transform="matrix(1 0 0 -1 0 612)" d="M255 133.8047L559.8889 133.8047" stroke="#000000" stroke-width="0.7017334" fill="none" /><path id="1551" transform="matrix(1 0 0 -1 0 612)" d="M255 120.7158L445.7774 120.7158" stroke="#000000" stroke-width="0.7017334" fill="none" /><path id="1616" transform="matrix(1 0 0 -1 0 612)" d="M255 104.2158L523.7416 104.2158" stroke="#000000" stroke-width="0.7017334" fill="none" /><path id="1704" transform="matrix(1 0 0 -1 0 612)" d="M255 87.30469L592.0306 87.30469" stroke="#000000" stroke-width="0.7017334" fill="none" /><path id="1738" transform="matrix(1 0 0 -1 0 612)" d="M255 74.21582L421.6094 74.21582" stroke="#000000" stroke-width="0.7017334" fill="none" /></g></g></g></svg>