<svg xmlns="http://www.w3.org/2000/svg" xmlns:xlink="http://www.w3.org/1999/xlink" id="body_23" preserveAspectRatio="xMinYMin meet" viewBox="0 0 1056 816"><defs><clipPath id="1"><path id="" clip-rule="evenodd" transform="matrix(1 0 0 1 0 0)" d="M0 612L0 0L0 0L792 0L792 0L792 612L792 612L0 612z" /></clipPath><clipPath id="2"><path id="" clip-rule="evenodd" transform="matrix(1 0 0 1 0 0)" d="M99.75 52.5L692.25 52.5L692.25 52.5L692.25 551.25L692.25 551.25L99.75 551.25L99.75 551.25L99.75 52.5z" /></clipPath></defs><g transform="matrix(1.333333 0 0 1.333333 0 0)"><g clip-path="url(#1)"><g clip-path="url(#2)"><path id="118" transform="matrix(1 0 0 -1 0 612)" d="M100.5 558.75L691.5 558.75L691.5 541.5L100.5 541.5L100.5 558.75z" stroke="none" fill="#E0F7FA" fill-rule="nonzero" /><path id="119" transform="matrix(1 0 0 -1 0 612)" d="M100.5 542.25L691.5 542.25L691.5 525L100.5 525L100.5 542.25z" stroke="none" fill="#FFFFFF" fill-rule="nonzero" /><path id="120" transform="matrix(1 0 0 -1 0 612)" d="M100.5 525.75L691.5 525.75L691.5 495L100.5 495L100.5 525.75z" stroke="none" fill="#E0F7FA" fill-rule="nonzero" /><path id="121" transform="matrix(1 0 0 -1 0 612)" d="M100.5 495.75L691.5 495.75L691.5 452.25L100.5 452.25L100.5 495.75z" stroke="none" fill="#FFFFFF" fill-rule="nonzero" /><path id="122" transform="matrix(1 0 0 -1 0 612)" d="M100.5 453L691.5 453L691.5 435.75L100.5 435.75L100.5 453z" stroke="none" fill="#E0F7FA" fill-rule="nonzero" /><path id="123" transform="matrix(1 0 0 -1 0 612)" d="M100.5 436.5L691.5 436.5L691.5 405.75L100.5 405.75L100.5 436.5z" stroke="none" fill="#FFFFFF" fill-rule="nonzero" /><path id="124" transform="matrix(1 0 0 -1 0 612)" d="M100.5 406.5L691.5 406.5L691.5 375.75L100.5 375.75L100.5 406.5z" stroke="none" fill="#E0F7FA" fill-rule="nonzero" /><path id="125" transform="matrix(1 0 0 -1 0 612)" d="M100.5 376.5L691.5 376.5L691.5 359.25L100.5 359.25L100.5 376.5z" stroke="none" fill="#FFFFFF" fill-rule="nonzero" /><path id="126" transform="matrix(1 0 0 -1 0 612)" d="M100.5 360L691.5 360L691.5 342.75L100.5 342.75L100.5 360z" stroke="none" fill="#E0F7FA" fill-rule="nonzero" /><path id="127" transform="matrix(1 0 0 -1 0 612)" d="M100.5 343.5L691.5 343.5L691.5 312.75L100.5 312.75L100.5 343.5z" stroke="none" fill="#FFFFFF" fill-rule="nonzero" /><path id="128" transform="matrix(1 0 0 -1 0 612)" d="M100.5 313.5L691.5 313.5L691.5 282.75L100.5 282.75L100.5 313.5z" stroke="none" fill="#E0F7FA" fill-rule="nonzero" /><path id="129" transform="matrix(1 0 0 -1 0 612)" d="M100.5 283.5L691.5 283.5L691.5 240L100.5 240L100.5 283.5z" stroke="none" fill="#FFFFFF" fill-rule="nonzero" /><path id="130" transform="matrix(1 0 0 -1 0 612)" d="M100.5 240.75L691.5 240.75L691.5 223.5L100.5 223.5L100.5 240.75z" stroke="none" fill="#E0F7FA" fill-rule="nonzero" /><path id="131" transform="matrix(1 0 0 -1 0 612)" d="M100.5 224.25L691.5 224.25L691.5 207L100.5 207L100.5 224.25z" stroke="none" fill="#FFFFFF" fill-rule="nonzero" /><path id="132" transform="matrix(1 0 0 -1 0 612)" d="M100.5 207.75L691.5 207.75L691.5 190.5L100.5 190.5L100.5 207.75z" stroke="none" fill="#E0F7FA" fill-rule="nonzero" /><path id="133" transform="matrix(1 0 0 -1 0 612)" d="M100.5 191.25L691.5 191.25L691.5 174L100.5 174L100.5 191.25z" stroke="none" fill="#FFFFFF" fill-rule="nonzero" /><path id="134" transform="matrix(1 0 0 -1 0 612)" d="M100.5 174.75L691.5 174.75L691.5 157.5L100.5 157.5L100.5 174.75z" stroke="none" fill="#E0F7FA" fill-rule="nonzero" /><path id="135" transform="matrix(1 0 0 -1 0 612)" d="M100.5 158.25L691.5 158.25L691.5 141L100.5 141L100.5 158.25z" stroke="none" fill="#FFFFFF" fill-rule="nonzero" /><path id="136" transform="matrix(1 0 0 -1 0 612)" d="M100.5 141.75L691.5 141.75L691.5 124.5L100.5 124.5L100.5 141.75z" stroke="none" fill="#E0F7FA" fill-rule="nonzero" /><path id="137" transform="matrix(1 0 0 -1 0 612)" d="M100.5 125.25L691.5 125.25L691.5 94.5L100.5 94.5L100.5 125.25z" stroke="none" fill="#FFFFFF" fill-rule="nonzero" /><path id="138" transform="matrix(1 0 0 -1 0 612)" d="M100.5 95.25L691.5 95.25L691.5 61.5L100.5 61.5L100.5 95.25z" stroke="none" fill="#E0F7FA" fill-rule="nonzero" /><path id="139" transform="matrix(1 0 0 -1 0 612)" d="M100.5 62.25L691.5 62.25L691.5 61.5L100.5 61.5zM100.5 95.25L691.5 95.25L691.5 94.5L100.5 94.5zM100.5 125.25L691.5 125.25L691.5 124.5L100.5 124.5zM100.5 141.75L691.5 141.75L691.5 141L100.5 141zM100.5 158.25L691.5 158.25L691.5 157.5L100.5 157.5zM100.5 174.75L691.5 174.75L691.5 174L100.5 174zM100.5 191.25L691.5 191.25L691.5 190.5L100.5 190.5zM100.5 207.75L691.5 207.75L691.5 207L100.5 207zM100.5 224.25L691.5 224.25L691.5 223.5L100.5 223.5zM100.5 240.75L691.5 240.75L691.5 240L100.5 240zM100.5 283.5L691.5 283.5L691.5 282.75L100.5 282.75zM100.5 313.5L691.5 313.5L691.5 312.75L100.5 312.75zM100.5 343.5L691.5 343.5L691.5 342.75L100.5 342.75zM100.5 360L691.5 360L691.5 359.25L100.5 359.25zM100.5 376.5L691.5 376.5L691.5 375.75L100.5 375.75zM100.5 406.5L691.5 406.5L691.5 405.75L100.5 405.75zM100.5 436.5L691.5 436.5L691.5 435.75L100.5 435.75zM100.5 453L691.5 453L691.5 452.25L100.5 452.25zM100.5 495.75L691.5 495.75L691.5 495L100.5 495zM100.5 525.75L691.5 525.75L691.5 525L100.5 525zM100.5 542.25L691.5 542.25L691.5 541.5L100.5 541.5zM100.5 558.75L691.5 558.75L691.5 558L100.5 558zM691.5 94.5L691.5 62.25L690.75 62.25L690.75 94.5zM691.5 124.5L691.5 95.25L690.75 95.25L690.75 124.5zM691.5 141L691.5 125.25L690.75 125.25L690.75 141zM691.5 157.5L691.5 141.75L690.75 141.75L690.75 157.5zM691.5 174L691.5 158.25L690.75 158.25L690.75 174zM691.5 190.5L691.5 174.75L690.75 174.75L690.75 190.5zM691.5 207L691.5 191.25L690.75 191.25L690.75 207zM691.5 223.5L691.5 207.75L690.75 207.75L690.75 223.5zM691.5 240L691.5 224.25L690.75 224.25L690.75 240zM691.5 282.75L691.5 240.75L690.75 240.75L690.75 282.75zM691.5 312.75L691.5 283.5L690.75 283.5L690.75 312.75zM691.5 342.75L691.5 313.5L690.75 313.5L690.75 342.75zM691.5 359.25L691.5 343.5L690.75 343.5L690.75 359.25zM691.5 375.75L691.5 360L690.75 360L690.75 375.75zM691.5 405.75L691.5 376.5L690.75 376.5L690.75 405.75zM691.5 435.75L691.5 406.5L690.75 406.5L690.75 435.75zM691.5 452.25L691.5 436.5L690.75 436.5L690.75 452.25zM691.5 495L691.5 453L690.75 453L690.75 495zM691.5 525L691.5 495.75L690.75 495.75L690.75 525zM691.5 541.5L691.5 525.75L690.75 525.75L690.75 541.5zM691.5 558L691.5 542.25L690.75 542.25L690.75 558zM621.75 94.5L621.75 62.25L621 62.25L621 94.5zM621.75 124.5L621.75 95.25L621 95.25L621 124.5zM621.75 141L621.75 125.25L621 125.25L621 141zM621.75 157.5L621.75 141.75L621 141.75L621 157.5zM621.75 174L621.75 158.25L621 158.25L621 174zM621.75 190.5L621.75 174.75L621 174.75L621 190.5zM621.75 207L621.75 191.25L621 191.25L621 207zM621.75 223.5L621.75 207.75L621 207.75L621 223.5zM621.75 240L621.75 224.25L621 224.25L621 240zM621.75 282.75L621.75 240.75L621 240.75L621 282.75zM621.75 312.75L621.75 283.5L621 283.5L621 312.75zM621.75 342.75L621.75 313.5L621 313.5L621 342.75zM621.75 359.25L621.75 343.5L621 343.5L621 359.25zM621.75 375.75L621.75 360L621 360L621 375.75zM621.75 405.75L621.75 376.5L621 376.5L621 405.75zM621.75 435.75L621.75 406.5L621 406.5L621 435.75zM621.75 452.25L621.75 436.5L621 436.5L621 452.25zM621.75 495L621.75 453L621 453L621 495zM621.75 525L621.75 495.75L621 495.75L621 525zM621.75 541.5L621.75 525.75L621 525.75L621 541.5zM621.75 558L621.75 542.25L621 542.25L621 558zM252.75 94.5L252.75 62.25L252 62.25L252 94.5zM252.75 124.5L252.75 95.25L252 95.25L252 124.5zM252.75 141L252.75 125.25L252 125.25L252 141zM252.75 157.5L252.75 141.75L252 141.75L252 157.5zM252.75 174L252.75 158.25L252 158.25L252 174zM252.75 190.5L252.75 174.75L252 174.75L252 190.5zM252.75 207L252.75 191.25L252 191.25L252 207zM252.75 223.5L252.75 207.75L252 207.75L252 223.5zM252.75 240L252.75 224.25L252 224.25L252 240zM252.75 282.75L252.75 240.75L252 240.75L252 282.75zM252.75 312.75L252.75 283.5L252 283.5L252 312.75zM252.75 342.75L252.75 313.5L252 313.5L252 342.75zM252.75 359.25L252.75 343.5L252 343.5L252 359.25zM252.75 375.75L252.75 360L252 360L252 375.75zM252.75 405.75L252.75 376.5L252 376.5L252 405.75zM252.75 435.75L252.75 406.5L252 406.5L252 435.75zM252.75 452.25L252.75 436.5L252 436.5L252 452.25zM252.75 495L252.75 453L252 453L252 495zM252.75 525L252.75 495.75L252 495.75L252 525zM252.75 541.5L252.75 525.75L252 525.75L252 541.5zM252.75 558L252.75 542.25L252 542.25L252 558zM177 94.5L177 62.25L176.25 62.25L176.25 94.5zM177 124.5L177 95.25L176.25 95.25L176.25 124.5zM177 141L177 125.25L176.25 125.25L176.25 141zM177 157.5L177 141.75L176.25 141.75L176.25 157.5zM177 174L177 158.25L176.25 158.25L176.25 174zM177 190.5L177 174.75L176.25 174.75L176.25 190.5zM177 207L177 191.25L176.25 191.25L176.25 207zM177 223.5L177 207.75L176.25 207.75L176.25 223.5zM177 240L177 224.25L176.25 224.25L176.25 240zM177 282.75L177 240.75L176.25 240.75L176.25 282.75zM177 312.75L177 283.5L176.25 283.5L176.25 312.75zM177 342.75L177 313.5L176.25 313.5L176.25 342.75zM177 359.25L177 343.5L176.25 343.5L176.25 359.25zM177 375.75L177 360L176.25 360L176.25 375.75zM177 405.75L177 376.5L176.25 376.5L176.25 405.75zM177 435.75L177 406.5L176.25 406.5L176.25 435.75zM177 452.25L177 436.5L176.25 436.5L176.25 452.25zM177 495L177 453L176.25 453L176.25 495zM177 525L177 495.75L176.25 495.75L176.25 525zM177 541.5L177 525.75L176.25 525.75L176.25 541.5zM177 558L177 542.25L176.25 542.25L176.25 558zM101.25 94.5L101.25 62.25L100.5 62.25L100.5 94.5zM101.25 124.5L101.25 95.25L100.5 95.25L100.5 124.5zM101.25 141L101.25 125.25L100.5 125.25L100.5 141zM101.25 157.5L101.25 141.75L100.5 141.75L100.5 157.5zM101.25 174L101.25 158.25L100.5 158.25L100.5 174zM101.25 190.5L101.25 174.75L100.5 174.75L100.5 190.5zM101.25 207L101.25 191.25L100.5 191.25L100.5 207zM101.25 223.5L101.25 207.75L100.5 207.75L100.5 223.5zM101.25 240L101.25 224.25L100.5 224.25L100.5 240zM101.25 282.75L101.25 240.75L100.5 240.75L100.5 282.75zM101.25 312.75L101.25 283.5L100.5 283.5L100.5 312.75zM101.25 342.75L101.25 313.5L100.5 313.5L100.5 342.75zM101.25 359.25L101.25 343.5L100.5 343.5L100.5 359.25zM101.25 375.75L101.25 360L100.5 360L100.5 375.75zM101.25 405.75L101.25 376.5L100.5 376.5L100.5 405.75zM101.25 435.75L101.25 406.5L100.5 406.5L100.5 435.75zM101.25 452.25L101.25 436.5L100.5 436.5L100.5 452.25zM101.25 495L101.25 453L100.5 453L100.5 495zM101.25 525L101.25 495.75L100.5 495.75L100.5 525zM101.25 541.5L101.25 525.75L100.5 525.75L100.5 541.5zM101.25 558L101.25 542.25L100.5 542.25L100.5 558z" stroke="none" fill="#000000" fill-rule="nonzero" fill-opacity="0.1490196" /><path id="193" transform="matrix(1 0 0 -1 0 612)" d="M255 545.2158L441.7668 545.2158" stroke="#000000" stroke-width="0.7017334" fill="none" /><path id="258" transform="matrix(1 0 0 -1 0 612)" d="M255 528.7158L496.7938 528.7158" stroke="#000000" stroke-width="0.7017334" fill="none" /><path id="336" transform="matrix(1 0 0 -1 0 612)" d="M255 511.8047L574.135 511.8047" stroke="#000000" stroke-width="0.7017334" fill="none" /><path id="362" transform="matrix(1 0 0 -1 0 612)" d="M255 498.7158L374.4466 498.7158" stroke="#000000" stroke-width="0.7017334" fill="none" /><path id="473" transform="matrix(1 0 0 -1 0 612)" d="M255 455.9658L608.8163 455.9658" stroke="#000000" stroke-width="0.7017334" fill="none" /><path id="528" transform="matrix(1 0 0 -1 0 612)" d="M255 439.4658L459.1912 439.4658" stroke="#000000" stroke-width="0.7017334" fill="none" /><path id="590" transform="matrix(1 0 0 -1 0 612)" d="M255 409.4658L455.4791 409.4658" stroke="#000000" stroke-width="0.7017334" fill="none" /><path id="673" transform="matrix(1 0 0 -1 0 612)" d="M255 392.5547L591.4232 392.5547" stroke="#000000" stroke-width="0.7017334" fill="none" /><path id="680" transform="matrix(1 0 0 -1 0 612)" d="M255 379.4658L283.859 379.4658" stroke="#000000" stroke-width="0.7017334" fill="none" /><path id="735" transform="matrix(1 0 0 -1 0 612)" d="M255 362.9658L443.0339 362.9658" stroke="#000000" stroke-width="0.7017334" fill="none" /><path id="804" transform="matrix(1 0 0 -1 0 612)" d="M255 346.4658L580.6165 346.4658" stroke="#000000" stroke-width="0.7017334" fill="none" /><path id="884" transform="matrix(1 0 0 -1 0 612)" d="M255 316.4658L524.637 316.4658" stroke="#000000" stroke-width="0.7017334" fill="none" /><path id="963" transform="matrix(1 0 0 -1 0 612)" d="M255 299.5547L600.2506 299.5547" stroke="#000000" stroke-width="0.7017334" fill="none" /><path id="984" transform="matrix(1 0 0 -1 0 612)" d="M255 286.4658L351.3834 286.4658" stroke="#000000" stroke-width="0.7017334" fill="none" /><path id="1084" transform="matrix(1 0 0 -1 0 612)" d="M255 256.8047L604.9679 256.8047" stroke="#000000" stroke-width="0.7017334" fill="none" /><path id="1120" transform="matrix(1 0 0 -1 0 612)" d="M255 243.7158L430.7039 243.7158" stroke="#000000" stroke-width="0.7017334" fill="none" /><path id="1171" transform="matrix(1 0 0 -1 0 612)" d="M255 227.2158L402.8239 227.2158" stroke="#000000" stroke-width="0.7017334" fill="none" /><path id="1205" transform="matrix(1 0 0 -1 0 612)" d="M255 210.7158L365.0851 210.7158" stroke="#000000" stroke-width="0.7017334" fill="none" /><path id="1239" transform="matrix(1 0 0 -1 0 612)" d="M255 194.2158L360.6768 194.2158" stroke="#000000" stroke-width="0.7017334" fill="none" /><path id="1293" transform="matrix(1 0 0 -1 0 612)" d="M255 177.7158L444.7773 177.7158" stroke="#000000" stroke-width="0.7017334" fill="none" /><path id="1329" transform="matrix(1 0 0 -1 0 612)" d="M255 161.2158L347.7657 161.2158" stroke="#000000" stroke-width="0.7017334" fill="none" /><path id="1415" transform="matrix(1 0 0 -1 0 612)" d="M255 144.7158L583.795 144.7158" stroke="#000000" stroke-width="0.7017334" fill="none" /><path id="1494" transform="matrix(1 0 0 -1 0 612)" d="M255 128.2158L529.3333 128.2158" stroke="#000000" stroke-width="0.7017334" fill="none" /><path id="1581" transform="matrix(1 0 0 -1 0 612)" d="M255 98.21582L585.8734 98.21582" stroke="#000000" stroke-width="0.7017334" fill="none" /><path id="1598" transform="matrix(1 0 0 -1 0 612)" d="M255 80.04785L265.7227 80.04785" stroke="#000000" stroke-width="0.7855225" fill="none" /><path id="1662" transform="matrix(1 0 0 -1 0 612)" d="M265.7227 79.96973L590.4863 79.96973" stroke="#000000" stroke-width="0.7017334" fill="none" /><path id="1734" transform="matrix(1 0 0 -1 0 612)" d="M255 65.21582L600.1614 65.21582" stroke="#000000" stroke-width="0.7017334" fill="none" /><path id="1736" transform="matrix(1 0 0 -1 0 612)" d="M600.1614 65.29395L610.8841 65.29395" stroke="#000000" stroke-width="0.7855225" fill="none" /></g></g></g></svg>