<svg xmlns="http://www.w3.org/2000/svg" xmlns:xlink="http://www.w3.org/1999/xlink" id="body_19" preserveAspectRatio="xMinYMin meet" viewBox="0 0 1056 816"><defs><clipPath id="1"><path id="" clip-rule="evenodd" transform="matrix(1 0 0 1 0 0)" d="M0 612L0 0L0 0L792 0L792 0L792 612L792 612L0 612z" /></clipPath><clipPath id="2"><path id="" clip-rule="evenodd" transform="matrix(1 0 0 1 0 0)" d="M99.75 52.5L692.25 52.5L692.25 52.5L692.25 555.75L692.25 555.75L99.75 555.75L99.75 555.75L99.75 52.5z" /></clipPath></defs><g transform="matrix(1.333333 0 0 1.333333 0 0)"><g clip-path="url(#1)"><g clip-path="url(#2)"><path id="118" transform="matrix(1 0 0 -1 0 612)" d="M100.5 558.75L691.5 558.75L691.5 541.5L100.5 541.5L100.5 558.75z" stroke="none" fill="#FFFFFF" fill-rule="nonzero" /><path id="119" transform="matrix(1 0 0 -1 0 612)" d="M100.5 542.25L691.5 542.25L691.5 511.5L100.5 511.5L100.5 542.25z" stroke="none" fill="#E0F7FA" fill-rule="nonzero" /><path id="120" transform="matrix(1 0 0 -1 0 612)" d="M100.5 512.25L691.5 512.25L691.5 495L100.5 495L100.5 512.25z" stroke="none" fill="#FFFFFF" fill-rule="nonzero" /><path id="121" transform="matrix(1 0 0 -1 0 612)" d="M100.5 495.75L691.5 495.75L691.5 478.5L100.5 478.5L100.5 495.75z" stroke="none" fill="#E0F7FA" fill-rule="nonzero" /><path id="122" transform="matrix(1 0 0 -1 0 612)" d="M100.5 479.25L691.5 479.25L691.5 462L100.5 462L100.5 479.25z" stroke="none" fill="#FFFFFF" fill-rule="nonzero" /><path id="123" transform="matrix(1 0 0 -1 0 612)" d="M100.5 462.75L691.5 462.75L691.5 432L100.5 432L100.5 462.75z" stroke="none" fill="#E0F7FA" fill-rule="nonzero" /><path id="124" transform="matrix(1 0 0 -1 0 612)" d="M100.5 432.75L691.5 432.75L691.5 415.5L100.5 415.5L100.5 432.75z" stroke="none" fill="#FFFFFF" fill-rule="nonzero" /><path id="125" transform="matrix(1 0 0 -1 0 612)" d="M100.5 416.25L691.5 416.25L691.5 385.5L100.5 385.5L100.5 416.25z" stroke="none" fill="#E0F7FA" fill-rule="nonzero" /><path id="126" transform="matrix(1 0 0 -1 0 612)" d="M100.5 386.25L691.5 386.25L691.5 369L100.5 369L100.5 386.25z" stroke="none" fill="#FFFFFF" fill-rule="nonzero" /><path id="127" transform="matrix(1 0 0 -1 0 612)" d="M100.5 369.75L691.5 369.75L691.5 352.5L100.5 352.5L100.5 369.75z" stroke="none" fill="#E0F7FA" fill-rule="nonzero" /><path id="128" transform="matrix(1 0 0 -1 0 612)" d="M100.5 353.25L691.5 353.25L691.5 336L100.5 336L100.5 353.25z" stroke="none" fill="#FFFFFF" fill-rule="nonzero" /><path id="129" transform="matrix(1 0 0 -1 0 612)" d="M100.5 336.75L691.5 336.75L691.5 319.5L100.5 319.5L100.5 336.75z" stroke="none" fill="#E0F7FA" fill-rule="nonzero" /><path id="130" transform="matrix(1 0 0 -1 0 612)" d="M100.5 320.25L691.5 320.25L691.5 303L100.5 303L100.5 320.25z" stroke="none" fill="#FFFFFF" fill-rule="nonzero" /><path id="131" transform="matrix(1 0 0 -1 0 612)" d="M100.5 303.75L691.5 303.75L691.5 273L100.5 273L100.5 303.75z" stroke="none" fill="#E0F7FA" fill-rule="nonzero" /><path id="132" transform="matrix(1 0 0 -1 0 612)" d="M100.5 273.75L691.5 273.75L691.5 243L100.5 243L100.5 273.75z" stroke="none" fill="#FFFFFF" fill-rule="nonzero" /><path id="133" transform="matrix(1 0 0 -1 0 612)" d="M100.5 243.75L691.5 243.75L691.5 213L100.5 213L100.5 243.75z" stroke="none" fill="#E0F7FA" fill-rule="nonzero" /><path id="134" transform="matrix(1 0 0 -1 0 612)" d="M100.5 213.75L691.5 213.75L691.5 196.5L100.5 196.5L100.5 213.75z" stroke="none" fill="#FFFFFF" fill-rule="nonzero" /><path id="135" transform="matrix(1 0 0 -1 0 612)" d="M100.5 197.25L691.5 197.25L691.5 180L100.5 180L100.5 197.25z" stroke="none" fill="#E0F7FA" fill-rule="nonzero" /><path id="136" transform="matrix(1 0 0 -1 0 612)" d="M100.5 180.75L691.5 180.75L691.5 150L100.5 150L100.5 180.75z" stroke="none" fill="#FFFFFF" fill-rule="nonzero" /><path id="137" transform="matrix(1 0 0 -1 0 612)" d="M100.5 150.75L691.5 150.75L691.5 120L100.5 120L100.5 150.75z" stroke="none" fill="#E0F7FA" fill-rule="nonzero" /><path id="138" transform="matrix(1 0 0 -1 0 612)" d="M100.5 120.75L691.5 120.75L691.5 90L100.5 90L100.5 120.75z" stroke="none" fill="#FFFFFF" fill-rule="nonzero" /><path id="139" transform="matrix(1 0 0 -1 0 612)" d="M100.5 90.75L691.5 90.75L691.5 73.5L100.5 73.5L100.5 90.75z" stroke="none" fill="#E0F7FA" fill-rule="nonzero" /><path id="140" transform="matrix(1 0 0 -1 0 612)" d="M100.5 74.25L691.5 74.25L691.5 57L100.5 57L100.5 74.25z" stroke="none" fill="#FFFFFF" fill-rule="nonzero" /><path id="141" transform="matrix(1 0 0 -1 0 612)" d="M100.5 57.75L691.5 57.75L691.5 57L100.5 57zM100.5 74.25L691.5 74.25L691.5 73.5L100.5 73.5zM100.5 90.75L691.5 90.75L691.5 90L100.5 90zM100.5 120.75L691.5 120.75L691.5 120L100.5 120zM100.5 150.75L691.5 150.75L691.5 150L100.5 150zM100.5 180.75L691.5 180.75L691.5 180L100.5 180zM100.5 197.25L691.5 197.25L691.5 196.5L100.5 196.5zM100.5 213.75L691.5 213.75L691.5 213L100.5 213zM100.5 243.75L691.5 243.75L691.5 243L100.5 243zM100.5 273.75L691.5 273.75L691.5 273L100.5 273zM100.5 303.75L691.5 303.75L691.5 303L100.5 303zM100.5 320.25L691.5 320.25L691.5 319.5L100.5 319.5zM100.5 336.75L691.5 336.75L691.5 336L100.5 336zM100.5 353.25L691.5 353.25L691.5 352.5L100.5 352.5zM100.5 369.75L691.5 369.75L691.5 369L100.5 369zM100.5 386.25L691.5 386.25L691.5 385.5L100.5 385.5zM100.5 416.25L691.5 416.25L691.5 415.5L100.5 415.5zM100.5 432.75L691.5 432.75L691.5 432L100.5 432zM100.5 462.75L691.5 462.75L691.5 462L100.5 462zM100.5 479.25L691.5 479.25L691.5 478.5L100.5 478.5zM100.5 495.75L691.5 495.75L691.5 495L100.5 495zM100.5 512.25L691.5 512.25L691.5 511.5L100.5 511.5zM100.5 542.25L691.5 542.25L691.5 541.5L100.5 541.5zM100.5 558.75L691.5 558.75L691.5 558L100.5 558zM691.5 73.5L691.5 57.75L690.75 57.75L690.75 73.5zM691.5 90L691.5 74.25L690.75 74.25L690.75 90zM691.5 120L691.5 90.75L690.75 90.75L690.75 120zM691.5 150L691.5 120.75L690.75 120.75L690.75 150zM691.5 180L691.5 150.75L690.75 150.75L690.75 180zM691.5 196.5L691.5 180.75L690.75 180.75L690.75 196.5zM691.5 213L691.5 197.25L690.75 197.25L690.75 213zM691.5 243L691.5 213.75L690.75 213.75L690.75 243zM691.5 273L691.5 243.75L690.75 243.75L690.75 273zM691.5 303L691.5 273.75L690.75 273.75L690.75 303zM691.5 319.5L691.5 303.75L690.75 303.75L690.75 319.5zM691.5 336L691.5 320.25L690.75 320.25L690.75 336zM691.5 352.5L691.5 336.75L690.75 336.75L690.75 352.5zM691.5 369L691.5 353.25L690.75 353.25L690.75 369zM691.5 385.5L691.5 369.75L690.75 369.75L690.75 385.5zM691.5 415.5L691.5 386.25L690.75 386.25L690.75 415.5zM691.5 432L691.5 416.25L690.75 416.25L690.75 432zM691.5 462L691.5 432.75L690.75 432.75L690.75 462zM691.5 478.5L691.5 462.75L690.75 462.75L690.75 478.5zM691.5 495L691.5 479.25L690.75 479.25L690.75 495zM691.5 511.5L691.5 495.75L690.75 495.75L690.75 511.5zM691.5 541.5L691.5 512.25L690.75 512.25L690.75 541.5zM691.5 558L691.5 542.25L690.75 542.25L690.75 558zM621.75 73.5L621.75 57.75L621 57.75L621 73.5zM621.75 90L621.75 74.25L621 74.25L621 90zM621.75 120L621.75 90.75L621 90.75L621 120zM621.75 150L621.75 120.75L621 120.75L621 150zM621.75 180L621.75 150.75L621 150.75L621 180zM621.75 196.5L621.75 180.75L621 180.75L621 196.5zM621.75 213L621.75 197.25L621 197.25L621 213zM621.75 243L621.75 213.75L621 213.75L621 243zM621.75 273L621.75 243.75L621 243.75L621 273zM621.75 303L621.75 273.75L621 273.75L621 303zM621.75 319.5L621.75 303.75L621 303.75L621 319.5zM621.75 336L621.75 320.25L621 320.25L621 336zM621.75 352.5L621.75 336.75L621 336.75L621 352.5zM621.75 369L621.75 353.25L621 353.25L621 369zM621.75 385.5L621.75 369.75L621 369.75L621 385.5zM621.75 415.5L621.75 386.25L621 386.25L621 415.5zM621.75 432L621.75 416.25L621 416.25L621 432zM621.75 462L621.75 432.75L621 432.75L621 462zM621.75 478.5L621.75 462.75L621 462.75L621 478.5zM621.75 495L621.75 479.25L621 479.25L621 495zM621.75 511.5L621.75 495.75L621 495.75L621 511.5zM621.75 541.5L621.75 512.25L621 512.25L621 541.5zM621.75 558L621.75 542.25L621 542.25L621 558zM252.75 73.5L252.75 57.75L252 57.75L252 73.5zM252.75 90L252.75 74.25L252 74.25L252 90zM252.75 120L252.75 90.75L252 90.75L252 120zM252.75 150L252.75 120.75L252 120.75L252 150zM252.75 180L252.75 150.75L252 150.75L252 180zM252.75 196.5L252.75 180.75L252 180.75L252 196.5zM252.75 213L252.75 197.25L252 197.25L252 213zM252.75 243L252.75 213.75L252 213.75L252 243zM252.75 273L252.75 243.75L252 243.75L252 273zM252.75 303L252.75 273.75L252 273.75L252 303zM252.75 319.5L252.75 303.75L252 303.75L252 319.5zM252.75 336L252.75 320.25L252 320.25L252 336zM252.75 352.5L252.75 336.75L252 336.75L252 352.5zM252.75 369L252.75 353.25L252 353.25L252 369zM252.75 385.5L252.75 369.75L252 369.75L252 385.5zM252.75 415.5L252.75 386.25L252 386.25L252 415.5zM252.75 432L252.75 416.25L252 416.25L252 432zM252.75 462L252.75 432.75L252 432.75L252 462zM252.75 478.5L252.75 462.75L252 462.75L252 478.5zM252.75 495L252.75 479.25L252 479.25L252 495zM252.75 511.5L252.75 495.75L252 495.75L252 511.5zM252.75 541.5L252.75 512.25L252 512.25L252 541.5zM252.75 558L252.75 542.25L252 542.25L252 558zM177 73.5L177 57.75L176.25 57.75L176.25 73.5zM177 90L177 74.25L176.25 74.25L176.25 90zM177 120L177 90.75L176.25 90.75L176.25 120zM177 150L177 120.75L176.25 120.75L176.25 150zM177 180L177 150.75L176.25 150.75L176.25 180zM177 196.5L177 180.75L176.25 180.75L176.25 196.5zM177 213L177 197.25L176.25 197.25L176.25 213zM177 243L177 213.75L176.25 213.75L176.25 243zM177 273L177 243.75L176.25 243.75L176.25 273zM177 303L177 273.75L176.25 273.75L176.25 303zM177 319.5L177 303.75L176.25 303.75L176.25 319.5zM177 336L177 320.25L176.25 320.25L176.25 336zM177 352.5L177 336.75L176.25 336.75L176.25 352.5zM177 369L177 353.25L176.25 353.25L176.25 369zM177 385.5L177 369.75L176.25 369.75L176.25 385.5zM177 415.5L177 386.25L176.25 386.25L176.25 415.5zM177 432L177 416.25L176.25 416.25L176.25 432zM177 462L177 432.75L176.25 432.75L176.25 462zM177 478.5L177 462.75L176.25 462.75L176.25 478.5zM177 495L177 479.25L176.25 479.25L176.25 495zM177 511.5L177 495.75L176.25 495.75L176.25 511.5zM177 541.5L177 512.25L176.25 512.25L176.25 541.5zM177 558L177 542.25L176.25 542.25L176.25 558zM101.25 73.5L101.25 57.75L100.5 57.75L100.5 73.5zM101.25 90L101.25 74.25L100.5 74.25L100.5 90zM101.25 120L101.25 90.75L100.5 90.75L100.5 120zM101.25 150L101.25 120.75L100.5 120.75L100.5 150zM101.25 180L101.25 150.75L100.5 150.75L100.5 180zM101.25 196.5L101.25 180.75L100.5 180.75L100.5 196.5zM101.25 213L101.25 197.25L100.5 197.25L100.5 213zM101.25 243L101.25 213.75L100.5 213.75L100.5 243zM101.25 273L101.25 243.75L100.5 243.75L100.5 273zM101.25 303L101.25 273.75L100.5 273.75L100.5 303zM101.25 319.5L101.25 303.75L100.5 303.75L100.5 319.5zM101.25 336L101.25 320.25L100.5 320.25L100.5 336zM101.25 352.5L101.25 336.75L100.5 336.75L100.5 352.5zM101.25 369L101.25 353.25L100.5 353.25L100.5 369zM101.25 385.5L101.25 369.75L100.5 369.75L100.5 385.5zM101.25 415.5L101.25 386.25L100.5 386.25L100.5 415.5zM101.25 432L101.25 416.25L100.5 416.25L100.5 432zM101.25 462L101.25 432.75L100.5 432.75L100.5 462zM101.25 478.5L101.25 462.75L100.5 462.75L100.5 478.5zM101.25 495L101.25 479.25L100.5 479.25L100.5 495zM101.25 511.5L101.25 495.75L100.5 495.75L100.5 511.5zM101.25 541.5L101.25 512.25L100.5 512.25L100.5 541.5zM101.25 558L101.25 542.25L100.5 542.25L100.5 558z" stroke="none" fill="#000000" fill-rule="nonzero" fill-opacity="0.1490196" /><path id="169" transform="matrix(1 0 0 -1 0 612)" d="M255 545.2158L342.0273 545.2158" stroke="#000000" stroke-width="0.7017334" fill="none" /><path id="253" transform="matrix(1 0 0 -1 0 612)" d="M255 528.3047L594.4651 528.3047" stroke="#000000" stroke-width="0.7017334" fill="none" /><path id="275" transform="matrix(1 0 0 -1 0 612)" d="M255 515.2158L352.729 515.2158" stroke="#000000" stroke-width="0.7017334" fill="none" /><path id="358" transform="matrix(1 0 0 -1 0 612)" d="M255 498.7158L610.5231 498.7158" stroke="#000000" stroke-width="0.7017334" fill="none" /><path id="444" transform="matrix(1 0 0 -1 0 612)" d="M255 482.2158L597.6588 482.2158" stroke="#000000" stroke-width="0.7017334" fill="none" /><path id="523" transform="matrix(1 0 0 -1 0 612)" d="M255 465.7158L582.9048 465.7158" stroke="#000000" stroke-width="0.7017334" fill="none" /><path id="597" transform="matrix(1 0 0 -1 0 612)" d="M255 448.8047L597.0619 448.8047" stroke="#000000" stroke-width="0.7017334" fill="none" /><path id="649" transform="matrix(1 0 0 -1 0 612)" d="M255 435.7158L521.3909 435.7158" stroke="#000000" stroke-width="0.7017334" fill="none" /><path id="724" transform="matrix(1 0 0 -1 0 612)" d="M255 419.2158L571.5171 419.2158" stroke="#000000" stroke-width="0.7017334" fill="none" /><path id="792" transform="matrix(1 0 0 -1 0 612)" d="M255 402.3047L582.8627 402.3047" stroke="#000000" stroke-width="0.7017334" fill="none" /><path id="803" transform="matrix(1 0 0 -1 0 612)" d="M255 389.2158L307.0581 389.2158" stroke="#000000" stroke-width="0.7017334" fill="none" /><path id="875" transform="matrix(1 0 0 -1 0 612)" d="M255 372.7158L542.4435 372.7158" stroke="#000000" stroke-width="0.7017334" fill="none" /><path id="942" transform="matrix(1 0 0 -1 0 612)" d="M255 356.2158L520.1188 356.2158" stroke="#000000" stroke-width="0.7017334" fill="none" /><path id="1029" transform="matrix(1 0 0 -1 0 612)" d="M255 339.7158L614.8896 339.7158" stroke="#000000" stroke-width="0.7017334" fill="none" /><path id="1089" transform="matrix(1 0 0 -1 0 612)" d="M255 323.2158L470.4322 323.2158" stroke="#000000" stroke-width="0.7017334" fill="none" /><path id="1157" transform="matrix(1 0 0 -1 0 612)" d="M255 306.7158L515.7993 306.7158" stroke="#000000" stroke-width="0.7017334" fill="none" /><path id="1230" transform="matrix(1 0 0 -1 0 612)" d="M255 289.8047L556.5588 289.8047" stroke="#000000" stroke-width="0.7017334" fill="none" /><path id="1268" transform="matrix(1 0 0 -1 0 612)" d="M255 276.7158L447.5156 276.7158" stroke="#000000" stroke-width="0.7017334" fill="none" /><path id="1350" transform="matrix(1 0 0 -1 0 612)" d="M255 259.8047L608.2037 259.8047" stroke="#000000" stroke-width="0.7017334" fill="none" /><path id="1387" transform="matrix(1 0 0 -1 0 612)" d="M255 246.7158L431.1699 246.7158" stroke="#000000" stroke-width="0.7017334" fill="none" /><path id="1472" transform="matrix(1 0 0 -1 0 612)" d="M255 229.8047L603.9838 229.8047" stroke="#000000" stroke-width="0.7017334" fill="none" /><path id="1526" transform="matrix(1 0 0 -1 0 612)" d="M255 216.7158L528.8569 216.7158" stroke="#000000" stroke-width="0.7017334" fill="none" /><path id="1592" transform="matrix(1 0 0 -1 0 612)" d="M255 200.2158L513.4849 200.2158" stroke="#000000" stroke-width="0.7017334" fill="none" /><path id="1647" transform="matrix(1 0 0 -1 0 612)" d="M255 183.7158L472.6625 183.7158" stroke="#000000" stroke-width="0.7017334" fill="none" /><path id="1734" transform="matrix(1 0 0 -1 0 612)" d="M255 166.8047L617.3555 166.8047" stroke="#000000" stroke-width="0.7017334" fill="none" /><path id="1747" transform="matrix(1 0 0 -1 0 612)" d="M255 153.7158L317.1107 153.7158" stroke="#000000" stroke-width="0.7017334" fill="none" /><path id="1834" transform="matrix(1 0 0 -1 0 612)" d="M255 136.8047L601.6486 136.8047" stroke="#000000" stroke-width="0.7017334" fill="none" /><path id="1847" transform="matrix(1 0 0 -1 0 612)" d="M255 123.7158L315.4666 123.7158" stroke="#000000" stroke-width="0.7017334" fill="none" /><path id="1934" transform="matrix(1 0 0 -1 0 612)" d="M255 106.8047L606.523 106.8047" stroke="#000000" stroke-width="0.7017334" fill="none" /><path id="1959" transform="matrix(1 0 0 -1 0 612)" d="M255 93.71582L383.8342 93.71582" stroke="#000000" stroke-width="0.7017334" fill="none" /><path id="2024" transform="matrix(1 0 0 -1 0 612)" d="M255 77.21582L469.5105 77.21582" stroke="#000000" stroke-width="0.7017334" fill="none" /><path id="2102" transform="matrix(1 0 0 -1 0 612)" d="M255 60.71582L566.6375 60.71582" stroke="#000000" stroke-width="0.7017334" fill="none" /></g></g></g></svg>