<svg xmlns="http://www.w3.org/2000/svg" xmlns:xlink="http://www.w3.org/1999/xlink" id="body_13" preserveAspectRatio="xMinYMin meet" viewBox="0 0 1056 816"><defs><clipPath id="1"><path id="" clip-rule="evenodd" transform="matrix(1 0 0 1 0 0)" d="M0 612L0 0L0 0L792 0L792 0L792 612L792 612L0 612z" /></clipPath><clipPath id="2"><path id="" clip-rule="evenodd" transform="matrix(1 0 0 1 0 0)" d="M99.75 52.5L692.25 52.5L692.25 52.5L692.25 556.5L692.25 556.5L99.75 556.5L99.75 556.5L99.75 52.5z" /></clipPath></defs><g transform="matrix(1.333333 0 0 1.333333 0 0)"><g clip-path="url(#1)"><g clip-path="url(#2)"><path id="118" transform="matrix(1 0 0 -1 0 612)" d="M100.5 558.75L691.5 558.75L691.5 528L100.5 528L100.5 558.75z" stroke="none" fill="#FFFFFF" fill-rule="nonzero" /><path id="119" transform="matrix(1 0 0 -1 0 612)" d="M100.5 528.75L691.5 528.75L691.5 485.25L100.5 485.25L100.5 528.75z" stroke="none" fill="#E0F7FA" fill-rule="nonzero" /><path id="120" transform="matrix(1 0 0 -1 0 612)" d="M100.5 486L691.5 486L691.5 468.75L100.5 468.75L100.5 486z" stroke="none" fill="#FFFFFF" fill-rule="nonzero" /><path id="121" transform="matrix(1 0 0 -1 0 612)" d="M100.5 469.5L691.5 469.5L691.5 438.75L100.5 438.75L100.5 469.5z" stroke="none" fill="#E0F7FA" fill-rule="nonzero" /><path id="122" transform="matrix(1 0 0 -1 0 612)" d="M100.5 439.5L691.5 439.5L691.5 408.75L100.5 408.75L100.5 439.5z" stroke="none" fill="#FFFFFF" fill-rule="nonzero" /><path id="123" transform="matrix(1 0 0 -1 0 612)" d="M100.5 409.5L691.5 409.5L691.5 392.25L100.5 392.25L100.5 409.5z" stroke="none" fill="#E0F7FA" fill-rule="nonzero" /><path id="124" transform="matrix(1 0 0 -1 0 612)" d="M100.5 393L691.5 393L691.5 362.25L100.5 362.25L100.5 393z" stroke="none" fill="#FFFFFF" fill-rule="nonzero" /><path id="125" transform="matrix(1 0 0 -1 0 612)" d="M100.5 363L691.5 363L691.5 332.25L100.5 332.25L100.5 363z" stroke="none" fill="#E0F7FA" fill-rule="nonzero" /><path id="126" transform="matrix(1 0 0 -1 0 612)" d="M100.5 333L691.5 333L691.5 300.75L100.5 300.75L100.5 333z" stroke="none" fill="#FFFFFF" fill-rule="nonzero" /><path id="127" transform="matrix(1 0 0 -1 0 612)" d="M100.5 301.5L691.5 301.5L691.5 284.25L100.5 284.25L100.5 301.5z" stroke="none" fill="#E0F7FA" fill-rule="nonzero" /><path id="128" transform="matrix(1 0 0 -1 0 612)" d="M100.5 285L691.5 285L691.5 267.75L100.5 267.75L100.5 285z" stroke="none" fill="#FFFFFF" fill-rule="nonzero" /><path id="129" transform="matrix(1 0 0 -1 0 612)" d="M100.5 268.5L691.5 268.5L691.5 237.75L100.5 237.75L100.5 268.5z" stroke="none" fill="#E0F7FA" fill-rule="nonzero" /><path id="130" transform="matrix(1 0 0 -1 0 612)" d="M100.5 238.5L691.5 238.5L691.5 207.75L100.5 207.75L100.5 238.5z" stroke="none" fill="#FFFFFF" fill-rule="nonzero" /><path id="131" transform="matrix(1 0 0 -1 0 612)" d="M100.5 208.5L691.5 208.5L691.5 177.75L100.5 177.75L100.5 208.5z" stroke="none" fill="#E0F7FA" fill-rule="nonzero" /><path id="132" transform="matrix(1 0 0 -1 0 612)" d="M100.5 178.5L691.5 178.5L691.5 159L100.5 159L100.5 178.5z" stroke="none" fill="#FFFFFF" fill-rule="nonzero" /><path id="133" transform="matrix(1 0 0 -1 0 612)" d="M100.5 159.75L691.5 159.75L691.5 142.5L100.5 142.5L100.5 159.75z" stroke="none" fill="#E0F7FA" fill-rule="nonzero" /><path id="134" transform="matrix(1 0 0 -1 0 612)" d="M100.5 143.25L691.5 143.25L691.5 86.25L100.5 86.25L100.5 143.25z" stroke="none" fill="#FFFFFF" fill-rule="nonzero" /><path id="135" transform="matrix(1 0 0 -1 0 612)" d="M100.5 87L691.5 87L691.5 56.25L100.5 56.25L100.5 87z" stroke="none" fill="#E0F7FA" fill-rule="nonzero" /><path id="136" transform="matrix(1 0 0 -1 0 612)" d="M100.5 57L691.5 57L691.5 56.25L100.5 56.25zM100.5 87L691.5 87L691.5 86.25L100.5 86.25zM100.5 143.25L691.5 143.25L691.5 142.5L100.5 142.5zM100.5 159.75L691.5 159.75L691.5 159L100.5 159zM100.5 178.5L691.5 178.5L691.5 177.75L100.5 177.75zM100.5 208.5L691.5 208.5L691.5 207.75L100.5 207.75zM100.5 238.5L691.5 238.5L691.5 237.75L100.5 237.75zM100.5 268.5L691.5 268.5L691.5 267.75L100.5 267.75zM100.5 285L691.5 285L691.5 284.25L100.5 284.25zM100.5 301.5L691.5 301.5L691.5 300.75L100.5 300.75zM100.5 333L691.5 333L691.5 332.25L100.5 332.25zM100.5 363L691.5 363L691.5 362.25L100.5 362.25zM100.5 393L691.5 393L691.5 392.25L100.5 392.25zM100.5 409.5L691.5 409.5L691.5 408.75L100.5 408.75zM100.5 439.5L691.5 439.5L691.5 438.75L100.5 438.75zM100.5 469.5L691.5 469.5L691.5 468.75L100.5 468.75zM100.5 486L691.5 486L691.5 485.25L100.5 485.25zM100.5 528.75L691.5 528.75L691.5 528L100.5 528zM100.5 558.75L691.5 558.75L691.5 558L100.5 558zM691.5 86.25L691.5 57L690.75 57L690.75 86.25zM691.5 142.5L691.5 87L690.75 87L690.75 142.5zM691.5 159L691.5 143.25L690.75 143.25L690.75 159zM691.5 177.75L691.5 159.75L690.75 159.75L690.75 177.75zM691.5 207.75L691.5 178.5L690.75 178.5L690.75 207.75zM691.5 237.75L691.5 208.5L690.75 208.5L690.75 237.75zM691.5 267.75L691.5 238.5L690.75 238.5L690.75 267.75zM691.5 284.25L691.5 268.5L690.75 268.5L690.75 284.25zM691.5 300.75L691.5 285L690.75 285L690.75 300.75zM691.5 332.25L691.5 301.5L690.75 301.5L690.75 332.25zM691.5 362.25L691.5 333L690.75 333L690.75 362.25zM691.5 392.25L691.5 363L690.75 363L690.75 392.25zM691.5 408.75L691.5 393L690.75 393L690.75 408.75zM691.5 438.75L691.5 409.5L690.75 409.5L690.75 438.75zM691.5 468.75L691.5 439.5L690.75 439.5L690.75 468.75zM691.5 485.25L691.5 469.5L690.75 469.5L690.75 485.25zM691.5 528L691.5 486L690.75 486L690.75 528zM691.5 558L691.5 528.75L690.75 528.75L690.75 558zM621.75 86.25L621.75 57L621 57L621 86.25zM621.75 142.5L621.75 87L621 87L621 142.5zM621.75 159L621.75 143.25L621 143.25L621 159zM621.75 177.75L621.75 159.75L621 159.75L621 177.75zM621.75 207.75L621.75 178.5L621 178.5L621 207.75zM621.75 237.75L621.75 208.5L621 208.5L621 237.75zM621.75 267.75L621.75 238.5L621 238.5L621 267.75zM621.75 284.25L621.75 268.5L621 268.5L621 284.25zM621.75 300.75L621.75 285L621 285L621 300.75zM621.75 332.25L621.75 301.5L621 301.5L621 332.25zM621.75 362.25L621.75 333L621 333L621 362.25zM621.75 392.25L621.75 363L621 363L621 392.25zM621.75 408.75L621.75 393L621 393L621 408.75zM621.75 438.75L621.75 409.5L621 409.5L621 438.75zM621.75 468.75L621.75 439.5L621 439.5L621 468.75zM621.75 485.25L621.75 469.5L621 469.5L621 485.25zM621.75 528L621.75 486L621 486L621 528zM621.75 558L621.75 528.75L621 528.75L621 558zM252.75 86.25L252.75 57L252 57L252 86.25zM252.75 142.5L252.75 87L252 87L252 142.5zM252.75 159L252.75 143.25L252 143.25L252 159zM252.75 177.75L252.75 159.75L252 159.75L252 177.75zM252.75 207.75L252.75 178.5L252 178.5L252 207.75zM252.75 237.75L252.75 208.5L252 208.5L252 237.75zM252.75 267.75L252.75 238.5L252 238.5L252 267.75zM252.75 284.25L252.75 268.5L252 268.5L252 284.25zM252.75 300.75L252.75 285L252 285L252 300.75zM252.75 332.25L252.75 301.5L252 301.5L252 332.25zM252.75 362.25L252.75 333L252 333L252 362.25zM252.75 392.25L252.75 363L252 363L252 392.25zM252.75 408.75L252.75 393L252 393L252 408.75zM252.75 438.75L252.75 409.5L252 409.5L252 438.75zM252.75 468.75L252.75 439.5L252 439.5L252 468.75zM252.75 485.25L252.75 469.5L252 469.5L252 485.25zM252.75 528L252.75 486L252 486L252 528zM252.75 558L252.75 528.75L252 528.75L252 558zM177 86.25L177 57L176.25 57L176.25 86.25zM177 142.5L177 87L176.25 87L176.25 142.5zM177 159L177 143.25L176.25 143.25L176.25 159zM177 177.75L177 159.75L176.25 159.75L176.25 177.75zM177 207.75L177 178.5L176.25 178.5L176.25 207.75zM177 237.75L177 208.5L176.25 208.5L176.25 237.75zM177 267.75L177 238.5L176.25 238.5L176.25 267.75zM177 284.25L177 268.5L176.25 268.5L176.25 284.25zM177 300.75L177 285L176.25 285L176.25 300.75zM177 332.25L177 301.5L176.25 301.5L176.25 332.25zM177 362.25L177 333L176.25 333L176.25 362.25zM177 392.25L177 363L176.25 363L176.25 392.25zM177 408.75L177 393L176.25 393L176.25 408.75zM177 438.75L177 409.5L176.25 409.5L176.25 438.75zM177 468.75L177 439.5L176.25 439.5L176.25 468.75zM177 485.25L177 469.5L176.25 469.5L176.25 485.25zM177 528L177 486L176.25 486L176.25 528zM177 558L177 528.75L176.25 528.75L176.25 558zM101.25 86.25L101.25 57L100.5 57L100.5 86.25zM101.25 142.5L101.25 87L100.5 87L100.5 142.5zM101.25 159L101.25 143.25L100.5 143.25L100.5 159zM101.25 177.75L101.25 159.75L100.5 159.75L100.5 177.75zM101.25 207.75L101.25 178.5L100.5 178.5L100.5 207.75zM101.25 237.75L101.25 208.5L100.5 208.5L100.5 237.75zM101.25 267.75L101.25 238.5L100.5 238.5L100.5 267.75zM101.25 284.25L101.25 268.5L100.5 268.5L100.5 284.25zM101.25 300.75L101.25 285L100.5 285L100.5 300.75zM101.25 332.25L101.25 301.5L100.5 301.5L100.5 332.25zM101.25 362.25L101.25 333L100.5 333L100.5 362.25zM101.25 392.25L101.25 363L100.5 363L100.5 392.25zM101.25 408.75L101.25 393L100.5 393L100.5 408.75zM101.25 438.75L101.25 409.5L100.5 409.5L100.5 438.75zM101.25 468.75L101.25 439.5L100.5 439.5L100.5 468.75zM101.25 485.25L101.25 469.5L100.5 469.5L100.5 485.25zM101.25 528L101.25 486L100.5 486L100.5 528zM101.25 558L101.25 528.75L100.5 528.75L100.5 558z" stroke="none" fill="#000000" fill-rule="nonzero" fill-opacity="0.1490196" /><path id="213" transform="matrix(1 0 0 -1 0 612)" d="M255 544.8047L578.4021 544.8047" stroke="#000000" stroke-width="0.7017334" fill="none" /><path id="232" transform="matrix(1 0 0 -1 0 612)" d="M255 531.7158L348.6712 531.7158" stroke="#000000" stroke-width="0.7017334" fill="none" /><path id="316" transform="matrix(1 0 0 -1 0 612)" d="M255 488.9658L506.1395 488.9658" stroke="#000000" stroke-width="0.7017334" fill="none" /><path id="401" transform="matrix(1 0 0 -1 0 612)" d="M255 472.4658L599.5544 472.4658" stroke="#000000" stroke-width="0.7017334" fill="none" /><path id="500" transform="matrix(1 0 0 -1 0 612)" d="M255 442.4658L602.2452 442.4658" stroke="#000000" stroke-width="0.7017334" fill="none" /><path id="547" transform="matrix(1 0 0 -1 0 612)" d="M255 412.4658L360.4936 412.4658" stroke="#000000" stroke-width="0.7017334" fill="none" /><path id="634" transform="matrix(1 0 0 -1 0 612)" d="M255 395.9658L605.4442 395.9658" stroke="#000000" stroke-width="0.7017334" fill="none" /><path id="720" transform="matrix(1 0 0 -1 0 612)" d="M255 379.0547L600.6591 379.0547" stroke="#000000" stroke-width="0.7017334" fill="none" /><path id="728" transform="matrix(1 0 0 -1 0 612)" d="M255 365.9658L290.8853 365.9658" stroke="#000000" stroke-width="0.7017334" fill="none" /><path id="779" transform="matrix(1 0 0 -1 0 612)" d="M255 335.9658L377.9962 335.9658" stroke="#000000" stroke-width="0.7017334" fill="none" /><path id="859" transform="matrix(1 0 0 -1 0 612)" d="M255 319.2197L610.5284 319.2197" stroke="#000000" stroke-width="0.7017334" fill="none" /><path id="926" transform="matrix(1 0 0 -1 0 612)" d="M255 304.4658L597.5282 304.4658" stroke="#000000" stroke-width="0.7017334" fill="none" /><path id="928" transform="matrix(1 0 0 -1 0 612)" d="M597.5282 304.5444L608.2509 304.5444" stroke="#000000" stroke-width="0.7855225" fill="none" /><path id="1008" transform="matrix(1 0 0 -1 0 612)" d="M255 287.9658L582.7113 287.9658" stroke="#000000" stroke-width="0.7017334" fill="none" /><path id="1064" transform="matrix(1 0 0 -1 0 612)" d="M255 271.4658L463.1075 271.4658" stroke="#000000" stroke-width="0.7017334" fill="none" /><path id="1116" transform="matrix(1 0 0 -1 0 612)" d="M255 241.4658L368.2842 241.4658" stroke="#000000" stroke-width="0.7017334" fill="none" /><path id="1189" transform="matrix(1 0 0 -1 0 612)" d="M255 224.5547L551.7054 224.5547" stroke="#000000" stroke-width="0.7017334" fill="none" /><path id="1220" transform="matrix(1 0 0 -1 0 612)" d="M255 211.4658L401.4939 211.4658" stroke="#000000" stroke-width="0.7017334" fill="none" /><path id="1298" transform="matrix(1 0 0 -1 0 612)" d="M255 181.4658L532.6948 181.4658" stroke="#000000" stroke-width="0.7017334" fill="none" /><path id="1350" transform="matrix(1 0 0 -1 0 612)" d="M255 162.7158L442.6622 162.7158" stroke="#000000" stroke-width="0.7017334" fill="none" /><path id="1432" transform="matrix(1 0 0 -1 0 612)" d="M255 146.2158L588.7321 146.2158" stroke="#000000" stroke-width="0.7017334" fill="none" /><path id="1532" transform="matrix(1 0 0 -1 0 612)" d="M255 89.96582L536.37 89.96582" stroke="#000000" stroke-width="0.7017334" fill="none" /><path id="1614" transform="matrix(1 0 0 -1 0 612)" d="M255 73.05469L611.1929 73.05469" stroke="#000000" stroke-width="0.7017334" fill="none" /><path id="1653" transform="matrix(1 0 0 -1 0 612)" d="M255 59.96582L443.2063 59.96582" stroke="#000000" stroke-width="0.7017334" fill="none" /></g></g></g></svg>