<svg xmlns="http://www.w3.org/2000/svg" xmlns:xlink="http://www.w3.org/1999/xlink" id="body_2" preserveAspectRatio="xMinYMin meet" viewBox="0 0 1056 816"><defs><clipPath id="1"><path id="" clip-rule="evenodd" transform="matrix(1 0 0 1 0 0)" d="M0 612L0 0L0 0L792 0L792 0L792 612L792 612L0 612z" /></clipPath><clipPath id="2"><path id="" clip-rule="evenodd" transform="matrix(1 0 0 1 0 0)" d="M99.75 52.5L692.25 52.5L692.25 52.5L692.25 532.5L692.25 532.5L99.75 532.5L99.75 532.5L99.75 52.5z" /></clipPath></defs><g transform="matrix(1.333333 0 0 1.333333 0 0)"><g clip-path="url(#1)"><g clip-path="url(#2)"><path id="117" transform="matrix(1 0 0 -1 0 612)" d="M100.5 558.75L691.5 558.75L691.5 528L100.5 528L100.5 558.75z" stroke="none" fill="#FFFFFF" fill-rule="nonzero" /><path id="118" transform="matrix(1 0 0 -1 0 612)" d="M100.5 528.75L691.5 528.75L691.5 498L100.5 498L100.5 528.75z" stroke="none" fill="#E0F7FA" fill-rule="nonzero" /><path id="119" transform="matrix(1 0 0 -1 0 612)" d="M100.5 498.75L691.5 498.75L691.5 468L100.5 468L100.5 498.75z" stroke="none" fill="#FFFFFF" fill-rule="nonzero" /><path id="120" transform="matrix(1 0 0 -1 0 612)" d="M100.5 468.75L691.5 468.75L691.5 438L100.5 438L100.5 468.75z" stroke="none" fill="#E0F7FA" fill-rule="nonzero" /><path id="121" transform="matrix(1 0 0 -1 0 612)" d="M100.5 438.75L691.5 438.75L691.5 408L100.5 408L100.5 438.75z" stroke="none" fill="#FFFFFF" fill-rule="nonzero" /><path id="122" transform="matrix(1 0 0 -1 0 612)" d="M100.5 408.75L691.5 408.75L691.5 378L100.5 378L100.5 408.75z" stroke="none" fill="#E0F7FA" fill-rule="nonzero" /><path id="123" transform="matrix(1 0 0 -1 0 612)" d="M100.5 378.75L691.5 378.75L691.5 361.5L100.5 361.5L100.5 378.75z" stroke="none" fill="#FFFFFF" fill-rule="nonzero" /><path id="124" transform="matrix(1 0 0 -1 0 612)" d="M100.5 362.25L691.5 362.25L691.5 345L100.5 345L100.5 362.25z" stroke="none" fill="#E0F7FA" fill-rule="nonzero" /><path id="125" transform="matrix(1 0 0 -1 0 612)" d="M100.5 345.75L691.5 345.75L691.5 328.5L100.5 328.5L100.5 345.75z" stroke="none" fill="#FFFFFF" fill-rule="nonzero" /><path id="126" transform="matrix(1 0 0 -1 0 612)" d="M100.5 329.25L691.5 329.25L691.5 312L100.5 312L100.5 329.25z" stroke="none" fill="#E0F7FA" fill-rule="nonzero" /><path id="127" transform="matrix(1 0 0 -1 0 612)" d="M100.5 312.75L691.5 312.75L691.5 282L100.5 282L100.5 312.75z" stroke="none" fill="#FFFFFF" fill-rule="nonzero" /><path id="128" transform="matrix(1 0 0 -1 0 612)" d="M100.5 282.75L691.5 282.75L691.5 265.5L100.5 265.5L100.5 282.75z" stroke="none" fill="#E0F7FA" fill-rule="nonzero" /><path id="129" transform="matrix(1 0 0 -1 0 612)" d="M100.5 266.25L691.5 266.25L691.5 249L100.5 249L100.5 266.25z" stroke="none" fill="#FFFFFF" fill-rule="nonzero" /><path id="130" transform="matrix(1 0 0 -1 0 612)" d="M100.5 249.75L691.5 249.75L691.5 232.5L100.5 232.5L100.5 249.75z" stroke="none" fill="#E0F7FA" fill-rule="nonzero" /><path id="131" transform="matrix(1 0 0 -1 0 612)" d="M100.5 233.25L691.5 233.25L691.5 216L100.5 216L100.5 233.25z" stroke="none" fill="#FFFFFF" fill-rule="nonzero" /><path id="132" transform="matrix(1 0 0 -1 0 612)" d="M100.5 216.75L691.5 216.75L691.5 173.25L100.5 173.25L100.5 216.75z" stroke="none" fill="#E0F7FA" fill-rule="nonzero" /><path id="133" transform="matrix(1 0 0 -1 0 612)" d="M100.5 174L691.5 174L691.5 143.25L100.5 143.25L100.5 174z" stroke="none" fill="#FFFFFF" fill-rule="nonzero" /><path id="134" transform="matrix(1 0 0 -1 0 612)" d="M100.5 144L691.5 144L691.5 126.75L100.5 126.75L100.5 144z" stroke="none" fill="#E0F7FA" fill-rule="nonzero" /><path id="135" transform="matrix(1 0 0 -1 0 612)" d="M100.5 127.5L691.5 127.5L691.5 96.75L100.5 96.75L100.5 127.5z" stroke="none" fill="#FFFFFF" fill-rule="nonzero" /><path id="136" transform="matrix(1 0 0 -1 0 612)" d="M100.5 97.5L691.5 97.5L691.5 80.25L100.5 80.25L100.5 97.5z" stroke="none" fill="#E0F7FA" fill-rule="nonzero" /><path id="137" transform="matrix(1 0 0 -1 0 612)" d="M100.5 81L691.5 81L691.5 80.25L100.5 80.25zM100.5 97.5L691.5 97.5L691.5 96.75L100.5 96.75zM100.5 127.5L691.5 127.5L691.5 126.75L100.5 126.75zM100.5 144L691.5 144L691.5 143.25L100.5 143.25zM100.5 174L691.5 174L691.5 173.25L100.5 173.25zM100.5 216.75L691.5 216.75L691.5 216L100.5 216zM100.5 233.25L691.5 233.25L691.5 232.5L100.5 232.5zM100.5 249.75L691.5 249.75L691.5 249L100.5 249zM100.5 266.25L691.5 266.25L691.5 265.5L100.5 265.5zM100.5 282.75L691.5 282.75L691.5 282L100.5 282zM100.5 312.75L691.5 312.75L691.5 312L100.5 312zM100.5 329.25L691.5 329.25L691.5 328.5L100.5 328.5zM100.5 345.75L691.5 345.75L691.5 345L100.5 345zM100.5 362.25L691.5 362.25L691.5 361.5L100.5 361.5zM100.5 378.75L691.5 378.75L691.5 378L100.5 378zM100.5 408.75L691.5 408.75L691.5 408L100.5 408zM100.5 438.75L691.5 438.75L691.5 438L100.5 438zM100.5 468.75L691.5 468.75L691.5 468L100.5 468zM100.5 498.75L691.5 498.75L691.5 498L100.5 498zM100.5 528.75L691.5 528.75L691.5 528L100.5 528zM100.5 558.75L691.5 558.75L691.5 558L100.5 558zM691.5 96.75L691.5 81L690.75 81L690.75 96.75zM691.5 126.75L691.5 97.5L690.75 97.5L690.75 126.75zM691.5 143.25L691.5 127.5L690.75 127.5L690.75 143.25zM691.5 173.25L691.5 144L690.75 144L690.75 173.25zM691.5 216L691.5 174L690.75 174L690.75 216zM691.5 232.5L691.5 216.75L690.75 216.75L690.75 232.5zM691.5 249L691.5 233.25L690.75 233.25L690.75 249zM691.5 265.5L691.5 249.75L690.75 249.75L690.75 265.5zM691.5 282L691.5 266.25L690.75 266.25L690.75 282zM691.5 312L691.5 282.75L690.75 282.75L690.75 312zM691.5 328.5L691.5 312.75L690.75 312.75L690.75 328.5zM691.5 345L691.5 329.25L690.75 329.25L690.75 345zM691.5 361.5L691.5 345.75L690.75 345.75L690.75 361.5zM691.5 378L691.5 362.25L690.75 362.25L690.75 378zM691.5 408L691.5 378.75L690.75 378.75L690.75 408zM691.5 438L691.5 408.75L690.75 408.75L690.75 438zM691.5 468L691.5 438.75L690.75 438.75L690.75 468zM691.5 498L691.5 468.75L690.75 468.75L690.75 498zM691.5 528L691.5 498.75L690.75 498.75L690.75 528zM691.5 558L691.5 528.75L690.75 528.75L690.75 558zM621.75 96.75L621.75 81L621 81L621 96.75zM621.75 126.75L621.75 97.5L621 97.5L621 126.75zM621.75 143.25L621.75 127.5L621 127.5L621 143.25zM621.75 173.25L621.75 144L621 144L621 173.25zM621.75 216L621.75 174L621 174L621 216zM621.75 232.5L621.75 216.75L621 216.75L621 232.5zM621.75 249L621.75 233.25L621 233.25L621 249zM621.75 265.5L621.75 249.75L621 249.75L621 265.5zM621.75 282L621.75 266.25L621 266.25L621 282zM621.75 312L621.75 282.75L621 282.75L621 312zM621.75 328.5L621.75 312.75L621 312.75L621 328.5zM621.75 345L621.75 329.25L621 329.25L621 345zM621.75 361.5L621.75 345.75L621 345.75L621 361.5zM621.75 378L621.75 362.25L621 362.25L621 378zM621.75 408L621.75 378.75L621 378.75L621 408zM621.75 438L621.75 408.75L621 408.75L621 438zM621.75 468L621.75 438.75L621 438.75L621 468zM621.75 498L621.75 468.75L621 468.75L621 498zM621.75 528L621.75 498.75L621 498.75L621 528zM621.75 558L621.75 528.75L621 528.75L621 558zM252.75 96.75L252.75 81L252 81L252 96.75zM252.75 126.75L252.75 97.5L252 97.5L252 126.75zM252.75 143.25L252.75 127.5L252 127.5L252 143.25zM252.75 173.25L252.75 144L252 144L252 173.25zM252.75 216L252.75 174L252 174L252 216zM252.75 232.5L252.75 216.75L252 216.75L252 232.5zM252.75 249L252.75 233.25L252 233.25L252 249zM252.75 265.5L252.75 249.75L252 249.75L252 265.5zM252.75 282L252.75 266.25L252 266.25L252 282zM252.75 312L252.75 282.75L252 282.75L252 312zM252.75 328.5L252.75 312.75L252 312.75L252 328.5zM252.75 345L252.75 329.25L252 329.25L252 345zM252.75 361.5L252.75 345.75L252 345.75L252 361.5zM252.75 378L252.75 362.25L252 362.25L252 378zM252.75 408L252.75 378.75L252 378.75L252 408zM252.75 438L252.75 408.75L252 408.75L252 438zM252.75 468L252.75 438.75L252 438.75L252 468zM252.75 498L252.75 468.75L252 468.75L252 498zM252.75 528L252.75 498.75L252 498.75L252 528zM252.75 558L252.75 528.75L252 528.75L252 558zM177 96.75L177 81L176.25 81L176.25 96.75zM177 126.75L177 97.5L176.25 97.5L176.25 126.75zM177 143.25L177 127.5L176.25 127.5L176.25 143.25zM177 173.25L177 144L176.25 144L176.25 173.25zM177 216L177 174L176.25 174L176.25 216zM177 232.5L177 216.75L176.25 216.75L176.25 232.5zM177 249L177 233.25L176.25 233.25L176.25 249zM177 265.5L177 249.75L176.25 249.75L176.25 265.5zM177 282L177 266.25L176.25 266.25L176.25 282zM177 312L177 282.75L176.25 282.75L176.25 312zM177 328.5L177 312.75L176.25 312.75L176.25 328.5zM177 345L177 329.25L176.25 329.25L176.25 345zM177 361.5L177 345.75L176.25 345.75L176.25 361.5zM177 378L177 362.25L176.25 362.25L176.25 378zM177 408L177 378.75L176.25 378.75L176.25 408zM177 438L177 408.75L176.25 408.75L176.25 438zM177 468L177 438.75L176.25 438.75L176.25 468zM177 498L177 468.75L176.25 468.75L176.25 498zM177 528L177 498.75L176.25 498.75L176.25 528zM177 558L177 528.75L176.25 528.75L176.25 558zM101.25 96.75L101.25 81L100.5 81L100.5 96.75zM101.25 126.75L101.25 97.5L100.5 97.5L100.5 126.75zM101.25 143.25L101.25 127.5L100.5 127.5L100.5 143.25zM101.25 173.25L101.25 144L100.5 144L100.5 173.25zM101.25 216L101.25 174L100.5 174L100.5 216zM101.25 232.5L101.25 216.75L100.5 216.75L100.5 232.5zM101.25 249L101.25 233.25L100.5 233.25L100.5 249zM101.25 265.5L101.25 249.75L100.5 249.75L100.5 265.5zM101.25 282L101.25 266.25L100.5 266.25L100.5 282zM101.25 312L101.25 282.75L100.5 282.75L100.5 312zM101.25 328.5L101.25 312.75L100.5 312.75L100.5 328.5zM101.25 345L101.25 329.25L100.5 329.25L100.5 345zM101.25 361.5L101.25 345.75L100.5 345.75L100.5 361.5zM101.25 378L101.25 362.25L100.5 362.25L100.5 378zM101.25 408L101.25 378.75L100.5 378.75L100.5 408zM101.25 438L101.25 408.75L100.5 408.75L100.5 438zM101.25 468L101.25 438.75L100.5 438.75L100.5 468zM101.25 498L101.25 468.75L100.5 468.75L100.5 498zM101.25 528L101.25 498.75L100.5 498.75L100.5 528zM101.25 558L101.25 528.75L100.5 528.75L100.5 558z" stroke="none" fill="#000000" fill-rule="nonzero" fill-opacity="0.1490196" /><path id="217" transform="matrix(1 0 0 -1 0 612)" d="M255 531.7157L557.3704 531.7157" stroke="#000000" stroke-width="0.7017334" fill="none" /><path id="308" transform="matrix(1 0 0 -1 0 612)" d="M255 514.8049L617.4289 514.8049" stroke="#000000" stroke-width="0.7017334" fill="none" /><path id="321" transform="matrix(1 0 0 -1 0 612)" d="M255 501.7157L325.1581 501.7157" stroke="#000000" stroke-width="0.7017334" fill="none" /><path id="403" transform="matrix(1 0 0 -1 0 612)" d="M255 484.8049L607.811 484.8049" stroke="#000000" stroke-width="0.7017334" fill="none" /><path id="414" transform="matrix(1 0 0 -1 0 612)" d="M255 471.7157L308.6604 471.7157" stroke="#000000" stroke-width="0.7017334" fill="none" /><path id="500" transform="matrix(1 0 0 -1 0 612)" d="M255 441.7157L556.5171 441.7157" stroke="#000000" stroke-width="0.7017334" fill="none" /><path id="590" transform="matrix(1 0 0 -1 0 612)" d="M255 424.8049L607.9836 424.8049" stroke="#000000" stroke-width="0.7017334" fill="none" /><path id="608" transform="matrix(1 0 0 -1 0 612)" d="M255 411.7157L329.6764 411.7157" stroke="#000000" stroke-width="0.7017334" fill="none" /><path id="690" transform="matrix(1 0 0 -1 0 612)" d="M255 394.8049L599.952 394.8049" stroke="#000000" stroke-width="0.7017334" fill="none" /><path id="718" transform="matrix(1 0 0 -1 0 612)" d="M255 381.7157L379.7609 381.7157" stroke="#000000" stroke-width="0.7017334" fill="none" /><path id="751" transform="matrix(1 0 0 -1 0 612)" d="M255 365.2157L347.1531 365.2157" stroke="#000000" stroke-width="0.7017334" fill="none" /><path id="784" transform="matrix(1 0 0 -1 0 612)" d="M255 348.7157L334.6189 348.7157" stroke="#000000" stroke-width="0.7017334" fill="none" /><path id="851" transform="matrix(1 0 0 -1 0 612)" d="M255 332.2157L508.1866 332.2157" stroke="#000000" stroke-width="0.7017334" fill="none" /><path id="887" transform="matrix(1 0 0 -1 0 612)" d="M255 315.7157L345.1479 315.7157" stroke="#000000" stroke-width="0.7017334" fill="none" /><path id="966" transform="matrix(1 0 0 -1 0 612)" d="M255 298.8049L574.6378 298.8049" stroke="#000000" stroke-width="0.7017334" fill="none" /><path id="979" transform="matrix(1 0 0 -1 0 612)" d="M255 285.7157L312.9013 285.7157" stroke="#000000" stroke-width="0.7017334" fill="none" /><path id="1069" transform="matrix(1 0 0 -1 0 612)" d="M255 269.2158L593.7062 269.2158" stroke="#000000" stroke-width="0.7017334" fill="none" /><path id="1114" transform="matrix(1 0 0 -1 0 612)" d="M255 252.7158L408.6356 252.7158" stroke="#000000" stroke-width="0.7017334" fill="none" /><path id="1183" transform="matrix(1 0 0 -1 0 612)" d="M255 236.2158L513.239 236.2158" stroke="#000000" stroke-width="0.7017334" fill="none" /><path id="1244" transform="matrix(1 0 0 -1 0 612)" d="M255 219.7158L465.8195 219.7158" stroke="#000000" stroke-width="0.7017334" fill="none" /><path id="1330" transform="matrix(1 0 0 -1 0 612)" d="M255 203.1442L575.4386 203.1442" stroke="#000000" stroke-width="0.7017334" fill="none" /><path id="1398" transform="matrix(1 0 0 -1 0 612)" d="M255 190.0549L599.5963 190.0549" stroke="#000000" stroke-width="0.7017334" fill="none" /><path id="1405" transform="matrix(1 0 0 -1 0 612)" d="M255 176.9658L281.4296 176.9658" stroke="#000000" stroke-width="0.7017334" fill="none" /><path id="1497" transform="matrix(1 0 0 -1 0 612)" d="M255 160.0549L619.6803 160.0549" stroke="#000000" stroke-width="0.7017334" fill="none" /><path id="1521" transform="matrix(1 0 0 -1 0 612)" d="M255 146.9658L375.4833 146.9658" stroke="#000000" stroke-width="0.7017334" fill="none" /><path id="1555" transform="matrix(1 0 0 -1 0 612)" d="M255 130.4658L345.4305 130.4658" stroke="#000000" stroke-width="0.7017334" fill="none" /><path id="1635" transform="matrix(1 0 0 -1 0 612)" d="M255 113.5549L580.2399 113.5549" stroke="#000000" stroke-width="0.7017334" fill="none" /><path id="1659" transform="matrix(1 0 0 -1 0 612)" d="M255 100.4658L368.6194 100.4658" stroke="#000000" stroke-width="0.7017334" fill="none" /><path id="1723" transform="matrix(1 0 0 -1 0 612)" d="M255 83.96576L505.3069 83.96576" stroke="#000000" stroke-width="0.7017334" fill="none" /></g></g></g></svg>