<svg xmlns="http://www.w3.org/2000/svg" xmlns:xlink="http://www.w3.org/1999/xlink" id="body_10" preserveAspectRatio="xMinYMin meet" viewBox="0 0 1056 816"><defs><clipPath id="1"><path id="" clip-rule="evenodd" transform="matrix(1 0 0 1 0 0)" d="M0 612L0 0L0 0L792 0L792 0L792 612L792 612L0 612z" /></clipPath><clipPath id="2"><path id="" clip-rule="evenodd" transform="matrix(1 0 0 1 0 0)" d="M99.75 52.5L692.25 52.5L692.25 52.5L692.25 555L692.25 555L99.75 555L99.75 555L99.75 52.5z" /></clipPath></defs><g transform="matrix(1.333333 0 0 1.333333 0 0)"><g clip-path="url(#1)"><g clip-path="url(#2)"><path id="118" transform="matrix(1 0 0 -1 0 612)" d="M100.5 558.75L691.5 558.75L691.5 541.5L100.5 541.5L100.5 558.75z" stroke="none" fill="#FFFFFF" fill-rule="nonzero" /><path id="119" transform="matrix(1 0 0 -1 0 612)" d="M100.5 542.25L691.5 542.25L691.5 525L100.5 525L100.5 542.25z" stroke="none" fill="#E0F7FA" fill-rule="nonzero" /><path id="120" transform="matrix(1 0 0 -1 0 612)" d="M100.5 525.75L691.5 525.75L691.5 508.5L100.5 508.5L100.5 525.75z" stroke="none" fill="#FFFFFF" fill-rule="nonzero" /><path id="121" transform="matrix(1 0 0 -1 0 612)" d="M100.5 509.25L691.5 509.25L691.5 478.5L100.5 478.5L100.5 509.25z" stroke="none" fill="#E0F7FA" fill-rule="nonzero" /><path id="122" transform="matrix(1 0 0 -1 0 612)" d="M100.5 479.25L691.5 479.25L691.5 448.5L100.5 448.5L100.5 479.25z" stroke="none" fill="#FFFFFF" fill-rule="nonzero" /><path id="123" transform="matrix(1 0 0 -1 0 612)" d="M100.5 449.25L691.5 449.25L691.5 432L100.5 432L100.5 449.25z" stroke="none" fill="#E0F7FA" fill-rule="nonzero" /><path id="124" transform="matrix(1 0 0 -1 0 612)" d="M100.5 432.75L691.5 432.75L691.5 415.5L100.5 415.5L100.5 432.75z" stroke="none" fill="#FFFFFF" fill-rule="nonzero" /><path id="125" transform="matrix(1 0 0 -1 0 612)" d="M100.5 416.25L691.5 416.25L691.5 399L100.5 399L100.5 416.25z" stroke="none" fill="#E0F7FA" fill-rule="nonzero" /><path id="126" transform="matrix(1 0 0 -1 0 612)" d="M100.5 399.75L691.5 399.75L691.5 382.5L100.5 382.5L100.5 399.75z" stroke="none" fill="#FFFFFF" fill-rule="nonzero" /><path id="127" transform="matrix(1 0 0 -1 0 612)" d="M100.5 383.25L691.5 383.25L691.5 366L100.5 366L100.5 383.25z" stroke="none" fill="#E0F7FA" fill-rule="nonzero" /><path id="128" transform="matrix(1 0 0 -1 0 612)" d="M100.5 366.75L691.5 366.75L691.5 336L100.5 336L100.5 366.75z" stroke="none" fill="#FFFFFF" fill-rule="nonzero" /><path id="129" transform="matrix(1 0 0 -1 0 612)" d="M100.5 336.75L691.5 336.75L691.5 319.5L100.5 319.5L100.5 336.75z" stroke="none" fill="#E0F7FA" fill-rule="nonzero" /><path id="130" transform="matrix(1 0 0 -1 0 612)" d="M100.5 320.25L691.5 320.25L691.5 289.5L100.5 289.5L100.5 320.25z" stroke="none" fill="#FFFFFF" fill-rule="nonzero" /><path id="131" transform="matrix(1 0 0 -1 0 612)" d="M100.5 290.25L691.5 290.25L691.5 259.5L100.5 259.5L100.5 290.25z" stroke="none" fill="#E0F7FA" fill-rule="nonzero" /><path id="132" transform="matrix(1 0 0 -1 0 612)" d="M100.5 260.25L691.5 260.25L691.5 229.5L100.5 229.5L100.5 260.25z" stroke="none" fill="#FFFFFF" fill-rule="nonzero" /><path id="133" transform="matrix(1 0 0 -1 0 612)" d="M100.5 230.25L691.5 230.25L691.5 213L100.5 213L100.5 230.25z" stroke="none" fill="#E0F7FA" fill-rule="nonzero" /><path id="134" transform="matrix(1 0 0 -1 0 612)" d="M100.5 213.75L691.5 213.75L691.5 196.5L100.5 196.5L100.5 213.75z" stroke="none" fill="#FFFFFF" fill-rule="nonzero" /><path id="135" transform="matrix(1 0 0 -1 0 612)" d="M100.5 197.25L691.5 197.25L691.5 153.75L100.5 153.75L100.5 197.25z" stroke="none" fill="#E0F7FA" fill-rule="nonzero" /><path id="136" transform="matrix(1 0 0 -1 0 612)" d="M100.5 154.5L691.5 154.5L691.5 137.25L100.5 137.25L100.5 154.5z" stroke="none" fill="#FFFFFF" fill-rule="nonzero" /><path id="137" transform="matrix(1 0 0 -1 0 612)" d="M100.5 138L691.5 138L691.5 120.75L100.5 120.75L100.5 138z" stroke="none" fill="#E0F7FA" fill-rule="nonzero" /><path id="138" transform="matrix(1 0 0 -1 0 612)" d="M100.5 121.5L691.5 121.5L691.5 90.75L100.5 90.75L100.5 121.5z" stroke="none" fill="#FFFFFF" fill-rule="nonzero" /><path id="139" transform="matrix(1 0 0 -1 0 612)" d="M100.5 91.5L691.5 91.5L691.5 74.25L100.5 74.25L100.5 91.5z" stroke="none" fill="#E0F7FA" fill-rule="nonzero" /><path id="140" transform="matrix(1 0 0 -1 0 612)" d="M100.5 75L691.5 75L691.5 57.75L100.5 57.75L100.5 75z" stroke="none" fill="#FFFFFF" fill-rule="nonzero" /><path id="141" transform="matrix(1 0 0 -1 0 612)" d="M100.5 58.5L691.5 58.5L691.5 57.75L100.5 57.75zM100.5 75L691.5 75L691.5 74.25L100.5 74.25zM100.5 91.5L691.5 91.5L691.5 90.75L100.5 90.75zM100.5 121.5L691.5 121.5L691.5 120.75L100.5 120.75zM100.5 138L691.5 138L691.5 137.25L100.5 137.25zM100.5 154.5L691.5 154.5L691.5 153.75L100.5 153.75zM100.5 197.25L691.5 197.25L691.5 196.5L100.5 196.5zM100.5 213.75L691.5 213.75L691.5 213L100.5 213zM100.5 230.25L691.5 230.25L691.5 229.5L100.5 229.5zM100.5 260.25L691.5 260.25L691.5 259.5L100.5 259.5zM100.5 290.25L691.5 290.25L691.5 289.5L100.5 289.5zM100.5 320.25L691.5 320.25L691.5 319.5L100.5 319.5zM100.5 336.75L691.5 336.75L691.5 336L100.5 336zM100.5 366.75L691.5 366.75L691.5 366L100.5 366zM100.5 383.25L691.5 383.25L691.5 382.5L100.5 382.5zM100.5 399.75L691.5 399.75L691.5 399L100.5 399zM100.5 416.25L691.5 416.25L691.5 415.5L100.5 415.5zM100.5 432.75L691.5 432.75L691.5 432L100.5 432zM100.5 449.25L691.5 449.25L691.5 448.5L100.5 448.5zM100.5 479.25L691.5 479.25L691.5 478.5L100.5 478.5zM100.5 509.25L691.5 509.25L691.5 508.5L100.5 508.5zM100.5 525.75L691.5 525.75L691.5 525L100.5 525zM100.5 542.25L691.5 542.25L691.5 541.5L100.5 541.5zM100.5 558.75L691.5 558.75L691.5 558L100.5 558zM691.5 74.25L691.5 58.5L690.75 58.5L690.75 74.25zM691.5 90.75L691.5 75L690.75 75L690.75 90.75zM691.5 120.75L691.5 91.5L690.75 91.5L690.75 120.75zM691.5 137.25L691.5 121.5L690.75 121.5L690.75 137.25zM691.5 153.75L691.5 138L690.75 138L690.75 153.75zM691.5 196.5L691.5 154.5L690.75 154.5L690.75 196.5zM691.5 213L691.5 197.25L690.75 197.25L690.75 213zM691.5 229.5L691.5 213.75L690.75 213.75L690.75 229.5zM691.5 259.5L691.5 230.25L690.75 230.25L690.75 259.5zM691.5 289.5L691.5 260.25L690.75 260.25L690.75 289.5zM691.5 319.5L691.5 290.25L690.75 290.25L690.75 319.5zM691.5 336L691.5 320.25L690.75 320.25L690.75 336zM691.5 366L691.5 336.75L690.75 336.75L690.75 366zM691.5 382.5L691.5 366.75L690.75 366.75L690.75 382.5zM691.5 399L691.5 383.25L690.75 383.25L690.75 399zM691.5 415.5L691.5 399.75L690.75 399.75L690.75 415.5zM691.5 432L691.5 416.25L690.75 416.25L690.75 432zM691.5 448.5L691.5 432.75L690.75 432.75L690.75 448.5zM691.5 478.5L691.5 449.25L690.75 449.25L690.75 478.5zM691.5 508.5L691.5 479.25L690.75 479.25L690.75 508.5zM691.5 525L691.5 509.25L690.75 509.25L690.75 525zM691.5 541.5L691.5 525.75L690.75 525.75L690.75 541.5zM691.5 558L691.5 542.25L690.75 542.25L690.75 558zM621.75 74.25L621.75 58.5L621 58.5L621 74.25zM621.75 90.75L621.75 75L621 75L621 90.75zM621.75 120.75L621.75 91.5L621 91.5L621 120.75zM621.75 137.25L621.75 121.5L621 121.5L621 137.25zM621.75 153.75L621.75 138L621 138L621 153.75zM621.75 196.5L621.75 154.5L621 154.5L621 196.5zM621.75 213L621.75 197.25L621 197.25L621 213zM621.75 229.5L621.75 213.75L621 213.75L621 229.5zM621.75 259.5L621.75 230.25L621 230.25L621 259.5zM621.75 289.5L621.75 260.25L621 260.25L621 289.5zM621.75 319.5L621.75 290.25L621 290.25L621 319.5zM621.75 336L621.75 320.25L621 320.25L621 336zM621.75 366L621.75 336.75L621 336.75L621 366zM621.75 382.5L621.75 366.75L621 366.75L621 382.5zM621.75 399L621.75 383.25L621 383.25L621 399zM621.75 415.5L621.75 399.75L621 399.75L621 415.5zM621.75 432L621.75 416.25L621 416.25L621 432zM621.75 448.5L621.75 432.75L621 432.75L621 448.5zM621.75 478.5L621.75 449.25L621 449.25L621 478.5zM621.75 508.5L621.75 479.25L621 479.25L621 508.5zM621.75 525L621.75 509.25L621 509.25L621 525zM621.75 541.5L621.75 525.75L621 525.75L621 541.5zM621.75 558L621.75 542.25L621 542.25L621 558zM252.75 74.25L252.75 58.5L252 58.5L252 74.25zM252.75 90.75L252.75 75L252 75L252 90.75zM252.75 120.75L252.75 91.5L252 91.5L252 120.75zM252.75 137.25L252.75 121.5L252 121.5L252 137.25zM252.75 153.75L252.75 138L252 138L252 153.75zM252.75 196.5L252.75 154.5L252 154.5L252 196.5zM252.75 213L252.75 197.25L252 197.25L252 213zM252.75 229.5L252.75 213.75L252 213.75L252 229.5zM252.75 259.5L252.75 230.25L252 230.25L252 259.5zM252.75 289.5L252.75 260.25L252 260.25L252 289.5zM252.75 319.5L252.75 290.25L252 290.25L252 319.5zM252.75 336L252.75 320.25L252 320.25L252 336zM252.75 366L252.75 336.75L252 336.75L252 366zM252.75 382.5L252.75 366.75L252 366.75L252 382.5zM252.75 399L252.75 383.25L252 383.25L252 399zM252.75 415.5L252.75 399.75L252 399.75L252 415.5zM252.75 432L252.75 416.25L252 416.25L252 432zM252.75 448.5L252.75 432.75L252 432.75L252 448.5zM252.75 478.5L252.75 449.25L252 449.25L252 478.5zM252.75 508.5L252.75 479.25L252 479.25L252 508.5zM252.75 525L252.75 509.25L252 509.25L252 525zM252.75 541.5L252.75 525.75L252 525.75L252 541.5zM252.75 558L252.75 542.25L252 542.25L252 558zM177 74.25L177 58.5L176.25 58.5L176.25 74.25zM177 90.75L177 75L176.25 75L176.25 90.75zM177 120.75L177 91.5L176.25 91.5L176.25 120.75zM177 137.25L177 121.5L176.25 121.5L176.25 137.25zM177 153.75L177 138L176.25 138L176.25 153.75zM177 196.5L177 154.5L176.25 154.5L176.25 196.5zM177 213L177 197.25L176.25 197.25L176.25 213zM177 229.5L177 213.75L176.25 213.75L176.25 229.5zM177 259.5L177 230.25L176.25 230.25L176.25 259.5zM177 289.5L177 260.25L176.25 260.25L176.25 289.5zM177 319.5L177 290.25L176.25 290.25L176.25 319.5zM177 336L177 320.25L176.25 320.25L176.25 336zM177 366L177 336.75L176.25 336.75L176.25 366zM177 382.5L177 366.75L176.25 366.75L176.25 382.5zM177 399L177 383.25L176.25 383.25L176.25 399zM177 415.5L177 399.75L176.25 399.75L176.25 415.5zM177 432L177 416.25L176.25 416.25L176.25 432zM177 448.5L177 432.75L176.25 432.75L176.25 448.5zM177 478.5L177 449.25L176.25 449.25L176.25 478.5zM177 508.5L177 479.25L176.25 479.25L176.25 508.5zM177 525L177 509.25L176.25 509.25L176.25 525zM177 541.5L177 525.75L176.25 525.75L176.25 541.5zM177 558L177 542.25L176.25 542.25L176.25 558zM101.25 74.25L101.25 58.5L100.5 58.5L100.5 74.25zM101.25 90.75L101.25 75L100.5 75L100.5 90.75zM101.25 120.75L101.25 91.5L100.5 91.5L100.5 120.75zM101.25 137.25L101.25 121.5L100.5 121.5L100.5 137.25zM101.25 153.75L101.25 138L100.5 138L100.5 153.75zM101.25 196.5L101.25 154.5L100.5 154.5L100.5 196.5zM101.25 213L101.25 197.25L100.5 197.25L100.5 213zM101.25 229.5L101.25 213.75L100.5 213.75L100.5 229.5zM101.25 259.5L101.25 230.25L100.5 230.25L100.5 259.5zM101.25 289.5L101.25 260.25L100.5 260.25L100.5 289.5zM101.25 319.5L101.25 290.25L100.5 290.25L100.5 319.5zM101.25 336L101.25 320.25L100.5 320.25L100.5 336zM101.25 366L101.25 336.75L100.5 336.75L100.5 366zM101.25 382.5L101.25 366.75L100.5 366.75L100.5 382.5zM101.25 399L101.25 383.25L100.5 383.25L100.5 399zM101.25 415.5L101.25 399.75L100.5 399.75L100.5 415.5zM101.25 432L101.25 416.25L100.5 416.25L100.5 432zM101.25 448.5L101.25 432.75L100.5 432.75L100.5 448.5zM101.25 478.5L101.25 449.25L100.5 449.25L100.5 478.5zM101.25 508.5L101.25 479.25L100.5 479.25L100.5 508.5zM101.25 525L101.25 509.25L100.5 509.25L100.5 525zM101.25 541.5L101.25 525.75L100.5 525.75L100.5 541.5zM101.25 558L101.25 542.25L100.5 542.25L100.5 558z" stroke="none" fill="#000000" fill-rule="nonzero" fill-opacity="0.1490196" /><path id="172" transform="matrix(1 0 0 -1 0 612)" d="M255 545.2158L351.8598 545.2158" stroke="#000000" stroke-width="0.7017334" fill="none" /><path id="228" transform="matrix(1 0 0 -1 0 612)" d="M255 528.7158L457.8038 528.7158" stroke="#000000" stroke-width="0.7017334" fill="none" /><path id="281" transform="matrix(1 0 0 -1 0 612)" d="M255 512.2158L423.3164 512.2158" stroke="#000000" stroke-width="0.7017334" fill="none" /><path id="363" transform="matrix(1 0 0 -1 0 612)" d="M255 495.3047L616.5912 495.3047" stroke="#000000" stroke-width="0.7017334" fill="none" /><path id="388" transform="matrix(1 0 0 -1 0 612)" d="M255 482.2158L367.2266 482.2158" stroke="#000000" stroke-width="0.7017334" fill="none" /><path id="480" transform="matrix(1 0 0 -1 0 612)" d="M255 465.3047L582.842 465.3047" stroke="#000000" stroke-width="0.7017334" fill="none" /><path id="491" transform="matrix(1 0 0 -1 0 612)" d="M255 452.2158L298.9534 452.2158" stroke="#000000" stroke-width="0.7017334" fill="none" /><path id="554" transform="matrix(1 0 0 -1 0 612)" d="M255 435.7158L480.8668 435.7158" stroke="#000000" stroke-width="0.7017334" fill="none" /><path id="637" transform="matrix(1 0 0 -1 0 612)" d="M255 419.2158L582.3968 419.2158" stroke="#000000" stroke-width="0.7017334" fill="none" /><path id="679" transform="matrix(1 0 0 -1 0 612)" d="M255 402.7158L381.8394 402.7158" stroke="#000000" stroke-width="0.7017334" fill="none" /><path id="743" transform="matrix(1 0 0 -1 0 612)" d="M255 386.2158L506.663 386.2158" stroke="#000000" stroke-width="0.7017334" fill="none" /><path id="781" transform="matrix(1 0 0 -1 0 612)" d="M255 369.7158L363.6611 369.7158" stroke="#000000" stroke-width="0.7017334" fill="none" /><path id="862" transform="matrix(1 0 0 -1 0 612)" d="M255 352.8047L618.9106 352.8047" stroke="#000000" stroke-width="0.7017334" fill="none" /><path id="906" transform="matrix(1 0 0 -1 0 612)" d="M255 339.7158L464.1494 339.7158" stroke="#000000" stroke-width="0.7017334" fill="none" /><path id="953" transform="matrix(1 0 0 -1 0 612)" d="M255 323.2158L412.8187 323.2158" stroke="#000000" stroke-width="0.7017334" fill="none" /><path id="1040" transform="matrix(1 0 0 -1 0 612)" d="M255 306.3047L609.6748 306.3047" stroke="#000000" stroke-width="0.7017334" fill="none" /><path id="1050" transform="matrix(1 0 0 -1 0 612)" d="M255 293.2158L296.1052 293.2158" stroke="#000000" stroke-width="0.7017334" fill="none" /><path id="1097" transform="matrix(1 0 0 -1 0 612)" d="M255 263.2158L362.2789 263.2158" stroke="#000000" stroke-width="0.7017334" fill="none" /><path id="1179" transform="matrix(1 0 0 -1 0 612)" d="M255 246.3047L601.9731 246.3047" stroke="#000000" stroke-width="0.7017334" fill="none" /><path id="1186" transform="matrix(1 0 0 -1 0 612)" d="M255 233.2158L280.5762 233.2158" stroke="#000000" stroke-width="0.7017334" fill="none" /><path id="1261" transform="matrix(1 0 0 -1 0 612)" d="M255 216.7158L568.669 216.7158" stroke="#000000" stroke-width="0.7017334" fill="none" /><path id="1331" transform="matrix(1 0 0 -1 0 612)" d="M255 200.2158L521.5637 200.2158" stroke="#000000" stroke-width="0.7017334" fill="none" /><path id="1410" transform="matrix(1 0 0 -1 0 612)" d="M255 157.4658L457.6309 157.4658" stroke="#000000" stroke-width="0.7017334" fill="none" /><path id="1471" transform="matrix(1 0 0 -1 0 612)" d="M255 140.9658L471.4897 140.9658" stroke="#000000" stroke-width="0.7017334" fill="none" /><path id="1555" transform="matrix(1 0 0 -1 0 612)" d="M255 124.4658L605.6382 124.4658" stroke="#000000" stroke-width="0.7017334" fill="none" /><path id="1642" transform="matrix(1 0 0 -1 0 612)" d="M255 107.5547L605.9155 107.5547" stroke="#000000" stroke-width="0.7017334" fill="none" /><path id="1651" transform="matrix(1 0 0 -1 0 612)" d="M255 94.46582L294.3461 94.46582" stroke="#000000" stroke-width="0.7017334" fill="none" /><path id="1739" transform="matrix(1 0 0 -1 0 612)" d="M255 77.96582L606.1775 77.96582" stroke="#000000" stroke-width="0.7017334" fill="none" /><path id="1768" transform="matrix(1 0 0 -1 0 612)" d="M255 61.46582L344.3728 61.46582" stroke="#000000" stroke-width="0.7017334" fill="none" /></g></g></g></svg>