<svg xmlns="http://www.w3.org/2000/svg" xmlns:xlink="http://www.w3.org/1999/xlink" id="body_6" preserveAspectRatio="xMinYMin meet" viewBox="0 0 1056 816"><defs><clipPath id="1"><path id="" clip-rule="evenodd" transform="matrix(1 0 0 1 0 0)" d="M0 612L0 0L0 0L792 0L792 0L792 612L792 612L0 612z" /></clipPath><clipPath id="2"><path id="" clip-rule="evenodd" transform="matrix(1 0 0 1 0 0)" d="M99.75 52.5L692.25 52.5L692.25 52.5L692.25 544.5L692.25 544.5L99.75 544.5L99.75 544.5L99.75 52.5z" /></clipPath></defs><g transform="matrix(1.333333 0 0 1.333333 0 0)"><g clip-path="url(#1)"><g clip-path="url(#2)"><path id="117" transform="matrix(1 0 0 -1 0 612)" d="M100.5 558.75L691.5 558.75L691.5 528L100.5 528L100.5 558.75z" stroke="none" fill="#FFFFFF" fill-rule="nonzero" /><path id="118" transform="matrix(1 0 0 -1 0 612)" d="M100.5 528.75L691.5 528.75L691.5 498L100.5 498L100.5 528.75z" stroke="none" fill="#E0F7FA" fill-rule="nonzero" /><path id="119" transform="matrix(1 0 0 -1 0 612)" d="M100.5 498.75L691.5 498.75L691.5 468L100.5 468L100.5 498.75z" stroke="none" fill="#FFFFFF" fill-rule="nonzero" /><path id="120" transform="matrix(1 0 0 -1 0 612)" d="M100.5 468.75L691.5 468.75L691.5 451.5L100.5 451.5L100.5 468.75z" stroke="none" fill="#E0F7FA" fill-rule="nonzero" /><path id="121" transform="matrix(1 0 0 -1 0 612)" d="M100.5 452.25L691.5 452.25L691.5 421.5L100.5 421.5L100.5 452.25z" stroke="none" fill="#FFFFFF" fill-rule="nonzero" /><path id="122" transform="matrix(1 0 0 -1 0 612)" d="M100.5 422.25L691.5 422.25L691.5 405L100.5 405L100.5 422.25z" stroke="none" fill="#E0F7FA" fill-rule="nonzero" /><path id="123" transform="matrix(1 0 0 -1 0 612)" d="M100.5 405.75L691.5 405.75L691.5 348.75L100.5 348.75L100.5 405.75z" stroke="none" fill="#FFFFFF" fill-rule="nonzero" /><path id="124" transform="matrix(1 0 0 -1 0 612)" d="M100.5 349.5L691.5 349.5L691.5 318.75L100.5 318.75L100.5 349.5z" stroke="none" fill="#E0F7FA" fill-rule="nonzero" /><path id="125" transform="matrix(1 0 0 -1 0 612)" d="M100.5 319.5L691.5 319.5L691.5 302.25L100.5 302.25L100.5 319.5z" stroke="none" fill="#FFFFFF" fill-rule="nonzero" /><path id="126" transform="matrix(1 0 0 -1 0 612)" d="M100.5 303L691.5 303L691.5 270.75L100.5 270.75L100.5 303z" stroke="none" fill="#E0F7FA" fill-rule="nonzero" /><path id="127" transform="matrix(1 0 0 -1 0 612)" d="M100.5 271.5L691.5 271.5L691.5 254.25L100.5 254.25L100.5 271.5z" stroke="none" fill="#FFFFFF" fill-rule="nonzero" /><path id="128" transform="matrix(1 0 0 -1 0 612)" d="M100.5 255L691.5 255L691.5 224.25L100.5 224.25L100.5 255z" stroke="none" fill="#E0F7FA" fill-rule="nonzero" /><path id="129" transform="matrix(1 0 0 -1 0 612)" d="M100.5 225L691.5 225L691.5 207.75L100.5 207.75L100.5 225z" stroke="none" fill="#FFFFFF" fill-rule="nonzero" /><path id="130" transform="matrix(1 0 0 -1 0 612)" d="M100.5 208.5L691.5 208.5L691.5 177.75L100.5 177.75L100.5 208.5z" stroke="none" fill="#E0F7FA" fill-rule="nonzero" /><path id="131" transform="matrix(1 0 0 -1 0 612)" d="M100.5 178.5L691.5 178.5L691.5 161.25L100.5 161.25L100.5 178.5z" stroke="none" fill="#FFFFFF" fill-rule="nonzero" /><path id="132" transform="matrix(1 0 0 -1 0 612)" d="M100.5 162L691.5 162L691.5 131.25L100.5 131.25L100.5 162z" stroke="none" fill="#E0F7FA" fill-rule="nonzero" /><path id="133" transform="matrix(1 0 0 -1 0 612)" d="M100.5 132L691.5 132L691.5 114.75L100.5 114.75L100.5 132z" stroke="none" fill="#FFFFFF" fill-rule="nonzero" /><path id="134" transform="matrix(1 0 0 -1 0 612)" d="M100.5 115.5L691.5 115.5L691.5 98.25L100.5 98.25L100.5 115.5z" stroke="none" fill="#E0F7FA" fill-rule="nonzero" /><path id="135" transform="matrix(1 0 0 -1 0 612)" d="M100.5 99L691.5 99L691.5 68.25L100.5 68.25L100.5 99z" stroke="none" fill="#FFFFFF" fill-rule="nonzero" /><path id="136" transform="matrix(1 0 0 -1 0 612)" d="M100.5 69L691.5 69L691.5 68.25L100.5 68.25zM100.5 99L691.5 99L691.5 98.25L100.5 98.25zM100.5 115.5L691.5 115.5L691.5 114.75L100.5 114.75zM100.5 132L691.5 132L691.5 131.25L100.5 131.25zM100.5 162L691.5 162L691.5 161.25L100.5 161.25zM100.5 178.5L691.5 178.5L691.5 177.75L100.5 177.75zM100.5 208.5L691.5 208.5L691.5 207.75L100.5 207.75zM100.5 225L691.5 225L691.5 224.25L100.5 224.25zM100.5 255L691.5 255L691.5 254.25L100.5 254.25zM100.5 271.5L691.5 271.5L691.5 270.75L100.5 270.75zM100.5 303L691.5 303L691.5 302.25L100.5 302.25zM100.5 319.5L691.5 319.5L691.5 318.75L100.5 318.75zM100.5 349.5L691.5 349.5L691.5 348.75L100.5 348.75zM100.5 405.75L691.5 405.75L691.5 405L100.5 405zM100.5 422.25L691.5 422.25L691.5 421.5L100.5 421.5zM100.5 452.25L691.5 452.25L691.5 451.5L100.5 451.5zM100.5 468.75L691.5 468.75L691.5 468L100.5 468zM100.5 498.75L691.5 498.75L691.5 498L100.5 498zM100.5 528.75L691.5 528.75L691.5 528L100.5 528zM100.5 558.75L691.5 558.75L691.5 558L100.5 558zM691.5 98.25L691.5 69L690.75 69L690.75 98.25zM691.5 114.75L691.5 99L690.75 99L690.75 114.75zM691.5 131.25L691.5 115.5L690.75 115.5L690.75 131.25zM691.5 161.25L691.5 132L690.75 132L690.75 161.25zM691.5 177.75L691.5 162L690.75 162L690.75 177.75zM691.5 207.75L691.5 178.5L690.75 178.5L690.75 207.75zM691.5 224.25L691.5 208.5L690.75 208.5L690.75 224.25zM691.5 254.25L691.5 225L690.75 225L690.75 254.25zM691.5 270.75L691.5 255L690.75 255L690.75 270.75zM691.5 302.25L691.5 271.5L690.75 271.5L690.75 302.25zM691.5 318.75L691.5 303L690.75 303L690.75 318.75zM691.5 348.75L691.5 319.5L690.75 319.5L690.75 348.75zM691.5 405L691.5 349.5L690.75 349.5L690.75 405zM691.5 421.5L691.5 405.75L690.75 405.75L690.75 421.5zM691.5 451.5L691.5 422.25L690.75 422.25L690.75 451.5zM691.5 468L691.5 452.25L690.75 452.25L690.75 468zM691.5 498L691.5 468.75L690.75 468.75L690.75 498zM691.5 528L691.5 498.75L690.75 498.75L690.75 528zM691.5 558L691.5 528.75L690.75 528.75L690.75 558zM621.75 98.25L621.75 69L621 69L621 98.25zM621.75 114.75L621.75 99L621 99L621 114.75zM621.75 131.25L621.75 115.5L621 115.5L621 131.25zM621.75 161.25L621.75 132L621 132L621 161.25zM621.75 177.75L621.75 162L621 162L621 177.75zM621.75 207.75L621.75 178.5L621 178.5L621 207.75zM621.75 224.25L621.75 208.5L621 208.5L621 224.25zM621.75 254.25L621.75 225L621 225L621 254.25zM621.75 270.75L621.75 255L621 255L621 270.75zM621.75 302.25L621.75 271.5L621 271.5L621 302.25zM621.75 318.75L621.75 303L621 303L621 318.75zM621.75 348.75L621.75 319.5L621 319.5L621 348.75zM621.75 405L621.75 349.5L621 349.5L621 405zM621.75 421.5L621.75 405.75L621 405.75L621 421.5zM621.75 451.5L621.75 422.25L621 422.25L621 451.5zM621.75 468L621.75 452.25L621 452.25L621 468zM621.75 498L621.75 468.75L621 468.75L621 498zM621.75 528L621.75 498.75L621 498.75L621 528zM621.75 558L621.75 528.75L621 528.75L621 558zM252.75 98.25L252.75 69L252 69L252 98.25zM252.75 114.75L252.75 99L252 99L252 114.75zM252.75 131.25L252.75 115.5L252 115.5L252 131.25zM252.75 161.25L252.75 132L252 132L252 161.25zM252.75 177.75L252.75 162L252 162L252 177.75zM252.75 207.75L252.75 178.5L252 178.5L252 207.75zM252.75 224.25L252.75 208.5L252 208.5L252 224.25zM252.75 254.25L252.75 225L252 225L252 254.25zM252.75 270.75L252.75 255L252 255L252 270.75zM252.75 302.25L252.75 271.5L252 271.5L252 302.25zM252.75 318.75L252.75 303L252 303L252 318.75zM252.75 348.75L252.75 319.5L252 319.5L252 348.75zM252.75 405L252.75 349.5L252 349.5L252 405zM252.75 421.5L252.75 405.75L252 405.75L252 421.5zM252.75 451.5L252.75 422.25L252 422.25L252 451.5zM252.75 468L252.75 452.25L252 452.25L252 468zM252.75 498L252.75 468.75L252 468.75L252 498zM252.75 528L252.75 498.75L252 498.75L252 528zM252.75 558L252.75 528.75L252 528.75L252 558zM177 98.25L177 69L176.25 69L176.25 98.25zM177 114.75L177 99L176.25 99L176.25 114.75zM177 131.25L177 115.5L176.25 115.5L176.25 131.25zM177 161.25L177 132L176.25 132L176.25 161.25zM177 177.75L177 162L176.25 162L176.25 177.75zM177 207.75L177 178.5L176.25 178.5L176.25 207.75zM177 224.25L177 208.5L176.25 208.5L176.25 224.25zM177 254.25L177 225L176.25 225L176.25 254.25zM177 270.75L177 255L176.25 255L176.25 270.75zM177 302.25L177 271.5L176.25 271.5L176.25 302.25zM177 318.75L177 303L176.25 303L176.25 318.75zM177 348.75L177 319.5L176.25 319.5L176.25 348.75zM177 405L177 349.5L176.25 349.5L176.25 405zM177 421.5L177 405.75L176.25 405.75L176.25 421.5zM177 451.5L177 422.25L176.25 422.25L176.25 451.5zM177 468L177 452.25L176.25 452.25L176.25 468zM177 498L177 468.75L176.25 468.75L176.25 498zM177 528L177 498.75L176.25 498.75L176.25 528zM177 558L177 528.75L176.25 528.75L176.25 558zM101.25 98.25L101.25 69L100.5 69L100.5 98.25zM101.25 114.75L101.25 99L100.5 99L100.5 114.75zM101.25 131.25L101.25 115.5L100.5 115.5L100.5 131.25zM101.25 161.25L101.25 132L100.5 132L100.5 161.25zM101.25 177.75L101.25 162L100.5 162L100.5 177.75zM101.25 207.75L101.25 178.5L100.5 178.5L100.5 207.75zM101.25 224.25L101.25 208.5L100.5 208.5L100.5 224.25zM101.25 254.25L101.25 225L100.5 225L100.5 254.25zM101.25 270.75L101.25 255L100.5 255L100.5 270.75zM101.25 302.25L101.25 271.5L100.5 271.5L100.5 302.25zM101.25 318.75L101.25 303L100.5 303L100.5 318.75zM101.25 348.75L101.25 319.5L100.5 319.5L100.5 348.75zM101.25 405L101.25 349.5L100.5 349.5L100.5 405zM101.25 421.5L101.25 405.75L100.5 405.75L100.5 421.5zM101.25 451.5L101.25 422.25L100.5 422.25L100.5 451.5zM101.25 468L101.25 452.25L100.5 452.25L100.5 468zM101.25 498L101.25 468.75L100.5 468.75L100.5 498zM101.25 528L101.25 498.75L100.5 498.75L100.5 528zM101.25 558L101.25 528.75L100.5 528.75L100.5 558z" stroke="none" fill="#000000" fill-rule="nonzero" fill-opacity="0.1490196" /><path id="228" transform="matrix(1 0 0 -1 0 612)" d="M255 531.7158L606.0621 531.7158" stroke="#000000" stroke-width="0.7017334" fill="none" /><path id="299" transform="matrix(1 0 0 -1 0 612)" d="M255 501.7158L472.0185 501.7158" stroke="#000000" stroke-width="0.7017334" fill="none" /><path id="385" transform="matrix(1 0 0 -1 0 612)" d="M255 484.8049L612.2352 484.8049" stroke="#000000" stroke-width="0.7017334" fill="none" /><path id="402" transform="matrix(1 0 0 -1 0 612)" d="M255 471.7158L334.556 471.7158" stroke="#000000" stroke-width="0.7017334" fill="none" /><path id="470" transform="matrix(1 0 0 -1 0 612)" d="M255 455.2158L523.0347 455.2158" stroke="#000000" stroke-width="0.7017334" fill="none" /><path id="563" transform="matrix(1 0 0 -1 0 612)" d="M255 438.3049L611.968 438.3049" stroke="#000000" stroke-width="0.7017334" fill="none" /><path id="568" transform="matrix(1 0 0 -1 0 612)" d="M255 425.2158L276.7385 425.2158" stroke="#000000" stroke-width="0.7017334" fill="none" /><path id="630" transform="matrix(1 0 0 -1 0 612)" d="M255 408.7158L462.7618 408.7158" stroke="#000000" stroke-width="0.7017334" fill="none" /><path id="747" transform="matrix(1 0 0 -1 0 612)" d="M255 365.5549L605.4443 365.5549" stroke="#000000" stroke-width="0.7017334" fill="none" /><path id="770" transform="matrix(1 0 0 -1 0 612)" d="M255 352.4658L370.8234 352.4658" stroke="#000000" stroke-width="0.7017334" fill="none" /><path id="861" transform="matrix(1 0 0 -1 0 612)" d="M255 335.5549L596.2349 335.5549" stroke="#000000" stroke-width="0.7017334" fill="none" /><path id="878" transform="matrix(1 0 0 -1 0 612)" d="M255 322.4658L328.1319 322.4658" stroke="#000000" stroke-width="0.7017334" fill="none" /><path id="926" transform="matrix(1 0 0 -1 0 612)" d="M255 305.9658L398.8396 305.9658" stroke="#000000" stroke-width="0.7017334" fill="none" /><path id="1010" transform="matrix(1 0 0 -1 0 612)" d="M255 289.2197L617.319 289.2197" stroke="#000000" stroke-width="0.7017334" fill="none" /><path id="1078" transform="matrix(1 0 0 -1 0 612)" d="M255 274.4658L589.6954 274.4658" stroke="#000000" stroke-width="0.7017334" fill="none" /><path id="1080" transform="matrix(1 0 0 -1 0 612)" d="M589.6954 274.5444L600.4181 274.5444" stroke="#000000" stroke-width="0.7855225" fill="none" /><path id="1138" transform="matrix(1 0 0 -1 0 612)" d="M255 257.9658L450.5573 257.9658" stroke="#000000" stroke-width="0.7017334" fill="none" /><path id="1192" transform="matrix(1 0 0 -1 0 612)" d="M255 227.9658L383.185 227.9658" stroke="#000000" stroke-width="0.7017334" fill="none" /><path id="1268" transform="matrix(1 0 0 -1 0 612)" d="M255 211.4658L510.8882 211.4658" stroke="#000000" stroke-width="0.7017334" fill="none" /><path id="1353" transform="matrix(1 0 0 -1 0 612)" d="M255 194.5549L590.5591 194.5549" stroke="#000000" stroke-width="0.7017334" fill="none" /><path id="1410" transform="matrix(1 0 0 -1 0 612)" d="M255 181.4658L544.2603 181.4658" stroke="#000000" stroke-width="0.7017334" fill="none" /><path id="1479" transform="matrix(1 0 0 -1 0 612)" d="M255 164.9658L492.4533 164.9658" stroke="#000000" stroke-width="0.7017334" fill="none" /><path id="1554" transform="matrix(1 0 0 -1 0 612)" d="M255 134.9658L494.9036 134.9658" stroke="#000000" stroke-width="0.7017334" fill="none" /><path id="1628" transform="matrix(1 0 0 -1 0 612)" d="M255 118.4658L552.4437 118.4658" stroke="#000000" stroke-width="0.7017334" fill="none" /><path id="1683" transform="matrix(1 0 0 -1 0 612)" d="M255 101.9658L442.7093 101.9658" stroke="#000000" stroke-width="0.7017334" fill="none" /><path id="1771" transform="matrix(1 0 0 -1 0 612)" d="M255 85.05493L617.7954 85.05493" stroke="#000000" stroke-width="0.7017334" fill="none" /><path id="1797" transform="matrix(1 0 0 -1 0 612)" d="M255 71.96582L369.8444 71.96582" stroke="#000000" stroke-width="0.7017334" fill="none" /></g></g></g></svg>