<svg xmlns="http://www.w3.org/2000/svg" xmlns:xlink="http://www.w3.org/1999/xlink" id="body_5" preserveAspectRatio="xMinYMin meet" viewBox="0 0 1056 816"><defs><clipPath id="1"><path id="" clip-rule="evenodd" transform="matrix(1 0 0 1 0 0)" d="M0 612L0 0L0 0L792 0L792 0L792 612L792 612L0 612z" /></clipPath><clipPath id="2"><path id="" clip-rule="evenodd" transform="matrix(1 0 0 1 0 0)" d="M99.75 52.5L692.25 52.5L692.25 52.5L692.25 549.75L692.25 549.75L99.75 549.75L99.75 549.75L99.75 52.5z" /></clipPath></defs><g transform="matrix(1.333333 0 0 1.333333 0 0)"><g clip-path="url(#1)"><g clip-path="url(#2)"><path id="117" transform="matrix(1 0 0 -1 0 612)" d="M100.5 558.75L691.5 558.75L691.5 528L100.5 528L100.5 558.75z" stroke="none" fill="#E0F7FA" fill-rule="nonzero" /><path id="118" transform="matrix(1 0 0 -1 0 612)" d="M100.5 528.75L691.5 528.75L691.5 511.5L100.5 511.5L100.5 528.75z" stroke="none" fill="#FFFFFF" fill-rule="nonzero" /><path id="119" transform="matrix(1 0 0 -1 0 612)" d="M100.5 512.25L691.5 512.25L691.5 481.5L100.5 481.5L100.5 512.25z" stroke="none" fill="#E0F7FA" fill-rule="nonzero" /><path id="120" transform="matrix(1 0 0 -1 0 612)" d="M100.5 482.25L691.5 482.25L691.5 465L100.5 465L100.5 482.25z" stroke="none" fill="#FFFFFF" fill-rule="nonzero" /><path id="121" transform="matrix(1 0 0 -1 0 612)" d="M100.5 465.75L691.5 465.75L691.5 435L100.5 435L100.5 465.75z" stroke="none" fill="#E0F7FA" fill-rule="nonzero" /><path id="122" transform="matrix(1 0 0 -1 0 612)" d="M100.5 435.75L691.5 435.75L691.5 418.5L100.5 418.5L100.5 435.75z" stroke="none" fill="#FFFFFF" fill-rule="nonzero" /><path id="123" transform="matrix(1 0 0 -1 0 612)" d="M100.5 419.25L691.5 419.25L691.5 388.5L100.5 388.5L100.5 419.25z" stroke="none" fill="#E0F7FA" fill-rule="nonzero" /><path id="124" transform="matrix(1 0 0 -1 0 612)" d="M100.5 389.25L691.5 389.25L691.5 372L100.5 372L100.5 389.25z" stroke="none" fill="#FFFFFF" fill-rule="nonzero" /><path id="125" transform="matrix(1 0 0 -1 0 612)" d="M100.5 372.75L691.5 372.75L691.5 355.5L100.5 355.5L100.5 372.75z" stroke="none" fill="#E0F7FA" fill-rule="nonzero" /><path id="126" transform="matrix(1 0 0 -1 0 612)" d="M100.5 356.25L691.5 356.25L691.5 339L100.5 339L100.5 356.25z" stroke="none" fill="#FFFFFF" fill-rule="nonzero" /><path id="127" transform="matrix(1 0 0 -1 0 612)" d="M100.5 339.75L691.5 339.75L691.5 309L100.5 309L100.5 339.75z" stroke="none" fill="#E0F7FA" fill-rule="nonzero" /><path id="128" transform="matrix(1 0 0 -1 0 612)" d="M100.5 309.75L691.5 309.75L691.5 292.5L100.5 292.5L100.5 309.75z" stroke="none" fill="#FFFFFF" fill-rule="nonzero" /><path id="129" transform="matrix(1 0 0 -1 0 612)" d="M100.5 293.25L691.5 293.25L691.5 262.5L100.5 262.5L100.5 293.25z" stroke="none" fill="#E0F7FA" fill-rule="nonzero" /><path id="130" transform="matrix(1 0 0 -1 0 612)" d="M100.5 263.25L691.5 263.25L691.5 246L100.5 246L100.5 263.25z" stroke="none" fill="#FFFFFF" fill-rule="nonzero" /><path id="131" transform="matrix(1 0 0 -1 0 612)" d="M100.5 246.75L691.5 246.75L691.5 229.5L100.5 229.5L100.5 246.75z" stroke="none" fill="#E0F7FA" fill-rule="nonzero" /><path id="132" transform="matrix(1 0 0 -1 0 612)" d="M100.5 230.25L691.5 230.25L691.5 199.5L100.5 199.5L100.5 230.25z" stroke="none" fill="#FFFFFF" fill-rule="nonzero" /><path id="133" transform="matrix(1 0 0 -1 0 612)" d="M100.5 200.25L691.5 200.25L691.5 169.5L100.5 169.5L100.5 200.25z" stroke="none" fill="#E0F7FA" fill-rule="nonzero" /><path id="134" transform="matrix(1 0 0 -1 0 612)" d="M100.5 170.25L691.5 170.25L691.5 153L100.5 153L100.5 170.25z" stroke="none" fill="#FFFFFF" fill-rule="nonzero" /><path id="135" transform="matrix(1 0 0 -1 0 612)" d="M100.5 153.75L691.5 153.75L691.5 123L100.5 123L100.5 153.75z" stroke="none" fill="#E0F7FA" fill-rule="nonzero" /><path id="136" transform="matrix(1 0 0 -1 0 612)" d="M100.5 123.75L691.5 123.75L691.5 93L100.5 93L100.5 123.75z" stroke="none" fill="#FFFFFF" fill-rule="nonzero" /><path id="137" transform="matrix(1 0 0 -1 0 612)" d="M100.5 93.75L691.5 93.75L691.5 63L100.5 63L100.5 93.75z" stroke="none" fill="#E0F7FA" fill-rule="nonzero" /><path id="138" transform="matrix(1 0 0 -1 0 612)" d="M100.5 63.75L691.5 63.75L691.5 63L100.5 63zM100.5 93.75L691.5 93.75L691.5 93L100.5 93zM100.5 123.75L691.5 123.75L691.5 123L100.5 123zM100.5 153.75L691.5 153.75L691.5 153L100.5 153zM100.5 170.25L691.5 170.25L691.5 169.5L100.5 169.5zM100.5 200.25L691.5 200.25L691.5 199.5L100.5 199.5zM100.5 230.25L691.5 230.25L691.5 229.5L100.5 229.5zM100.5 246.75L691.5 246.75L691.5 246L100.5 246zM100.5 263.25L691.5 263.25L691.5 262.5L100.5 262.5zM100.5 293.25L691.5 293.25L691.5 292.5L100.5 292.5zM100.5 309.75L691.5 309.75L691.5 309L100.5 309zM100.5 339.75L691.5 339.75L691.5 339L100.5 339zM100.5 356.25L691.5 356.25L691.5 355.5L100.5 355.5zM100.5 372.75L691.5 372.75L691.5 372L100.5 372zM100.5 389.25L691.5 389.25L691.5 388.5L100.5 388.5zM100.5 419.25L691.5 419.25L691.5 418.5L100.5 418.5zM100.5 435.75L691.5 435.75L691.5 435L100.5 435zM100.5 465.75L691.5 465.75L691.5 465L100.5 465zM100.5 482.25L691.5 482.25L691.5 481.5L100.5 481.5zM100.5 512.25L691.5 512.25L691.5 511.5L100.5 511.5zM100.5 528.75L691.5 528.75L691.5 528L100.5 528zM100.5 558.75L691.5 558.75L691.5 558L100.5 558zM691.5 93L691.5 63.75L690.75 63.75L690.75 93zM691.5 123L691.5 93.75L690.75 93.75L690.75 123zM691.5 153L691.5 123.75L690.75 123.75L690.75 153zM691.5 169.5L691.5 153.75L690.75 153.75L690.75 169.5zM691.5 199.5L691.5 170.25L690.75 170.25L690.75 199.5zM691.5 229.5L691.5 200.25L690.75 200.25L690.75 229.5zM691.5 246L691.5 230.25L690.75 230.25L690.75 246zM691.5 262.5L691.5 246.75L690.75 246.75L690.75 262.5zM691.5 292.5L691.5 263.25L690.75 263.25L690.75 292.5zM691.5 309L691.5 293.25L690.75 293.25L690.75 309zM691.5 339L691.5 309.75L690.75 309.75L690.75 339zM691.5 355.5L691.5 339.75L690.75 339.75L690.75 355.5zM691.5 372L691.5 356.25L690.75 356.25L690.75 372zM691.5 388.5L691.5 372.75L690.75 372.75L690.75 388.5zM691.5 418.5L691.5 389.25L690.75 389.25L690.75 418.5zM691.5 435L691.5 419.25L690.75 419.25L690.75 435zM691.5 465L691.5 435.75L690.75 435.75L690.75 465zM691.5 481.5L691.5 465.75L690.75 465.75L690.75 481.5zM691.5 511.5L691.5 482.25L690.75 482.25L690.75 511.5zM691.5 528L691.5 512.25L690.75 512.25L690.75 528zM691.5 558L691.5 528.75L690.75 528.75L690.75 558zM621.75 93L621.75 63.75L621 63.75L621 93zM621.75 123L621.75 93.75L621 93.75L621 123zM621.75 153L621.75 123.75L621 123.75L621 153zM621.75 169.5L621.75 153.75L621 153.75L621 169.5zM621.75 199.5L621.75 170.25L621 170.25L621 199.5zM621.75 229.5L621.75 200.25L621 200.25L621 229.5zM621.75 246L621.75 230.25L621 230.25L621 246zM621.75 262.5L621.75 246.75L621 246.75L621 262.5zM621.75 292.5L621.75 263.25L621 263.25L621 292.5zM621.75 309L621.75 293.25L621 293.25L621 309zM621.75 339L621.75 309.75L621 309.75L621 339zM621.75 355.5L621.75 339.75L621 339.75L621 355.5zM621.75 372L621.75 356.25L621 356.25L621 372zM621.75 388.5L621.75 372.75L621 372.75L621 388.5zM621.75 418.5L621.75 389.25L621 389.25L621 418.5zM621.75 435L621.75 419.25L621 419.25L621 435zM621.75 465L621.75 435.75L621 435.75L621 465zM621.75 481.5L621.75 465.75L621 465.75L621 481.5zM621.75 511.5L621.75 482.25L621 482.25L621 511.5zM621.75 528L621.75 512.25L621 512.25L621 528zM621.75 558L621.75 528.75L621 528.75L621 558zM252.75 93L252.75 63.75L252 63.75L252 93zM252.75 123L252.75 93.75L252 93.75L252 123zM252.75 153L252.75 123.75L252 123.75L252 153zM252.75 169.5L252.75 153.75L252 153.75L252 169.5zM252.75 199.5L252.75 170.25L252 170.25L252 199.5zM252.75 229.5L252.75 200.25L252 200.25L252 229.5zM252.75 246L252.75 230.25L252 230.25L252 246zM252.75 262.5L252.75 246.75L252 246.75L252 262.5zM252.75 292.5L252.75 263.25L252 263.25L252 292.5zM252.75 309L252.75 293.25L252 293.25L252 309zM252.75 339L252.75 309.75L252 309.75L252 339zM252.75 355.5L252.75 339.75L252 339.75L252 355.5zM252.75 372L252.75 356.25L252 356.25L252 372zM252.75 388.5L252.75 372.75L252 372.75L252 388.5zM252.75 418.5L252.75 389.25L252 389.25L252 418.5zM252.75 435L252.75 419.25L252 419.25L252 435zM252.75 465L252.75 435.75L252 435.75L252 465zM252.75 481.5L252.75 465.75L252 465.75L252 481.5zM252.75 511.5L252.75 482.25L252 482.25L252 511.5zM252.75 528L252.75 512.25L252 512.25L252 528zM252.75 558L252.75 528.75L252 528.75L252 558zM177 93L177 63.75L176.25 63.75L176.25 93zM177 123L177 93.75L176.25 93.75L176.25 123zM177 153L177 123.75L176.25 123.75L176.25 153zM177 169.5L177 153.75L176.25 153.75L176.25 169.5zM177 199.5L177 170.25L176.25 170.25L176.25 199.5zM177 229.5L177 200.25L176.25 200.25L176.25 229.5zM177 246L177 230.25L176.25 230.25L176.25 246zM177 262.5L177 246.75L176.25 246.75L176.25 262.5zM177 292.5L177 263.25L176.25 263.25L176.25 292.5zM177 309L177 293.25L176.25 293.25L176.25 309zM177 339L177 309.75L176.25 309.75L176.25 339zM177 355.5L177 339.75L176.25 339.75L176.25 355.5zM177 372L177 356.25L176.25 356.25L176.25 372zM177 388.5L177 372.75L176.25 372.75L176.25 388.5zM177 418.5L177 389.25L176.25 389.25L176.25 418.5zM177 435L177 419.25L176.25 419.25L176.25 435zM177 465L177 435.75L176.25 435.75L176.25 465zM177 481.5L177 465.75L176.25 465.75L176.25 481.5zM177 511.5L177 482.25L176.25 482.25L176.25 511.5zM177 528L177 512.25L176.25 512.25L176.25 528zM177 558L177 528.75L176.25 528.75L176.25 558zM101.25 93L101.25 63.75L100.5 63.75L100.5 93zM101.25 123L101.25 93.75L100.5 93.75L100.5 123zM101.25 153L101.25 123.75L100.5 123.75L100.5 153zM101.25 169.5L101.25 153.75L100.5 153.75L100.5 169.5zM101.25 199.5L101.25 170.25L100.5 170.25L100.5 199.5zM101.25 229.5L101.25 200.25L100.5 200.25L100.5 229.5zM101.25 246L101.25 230.25L100.5 230.25L100.5 246zM101.25 262.5L101.25 246.75L100.5 246.75L100.5 262.5zM101.25 292.5L101.25 263.25L100.5 263.25L100.5 292.5zM101.25 309L101.25 293.25L100.5 293.25L100.5 309zM101.25 339L101.25 309.75L100.5 309.75L100.5 339zM101.25 355.5L101.25 339.75L100.5 339.75L100.5 355.5zM101.25 372L101.25 356.25L100.5 356.25L100.5 372zM101.25 388.5L101.25 372.75L100.5 372.75L100.5 388.5zM101.25 418.5L101.25 389.25L100.5 389.25L100.5 418.5zM101.25 435L101.25 419.25L100.5 419.25L100.5 435zM101.25 465L101.25 435.75L100.5 435.75L100.5 465zM101.25 481.5L101.25 465.75L100.5 465.75L100.5 481.5zM101.25 511.5L101.25 482.25L100.5 482.25L100.5 511.5zM101.25 528L101.25 512.25L100.5 512.25L100.5 528zM101.25 558L101.25 528.75L100.5 528.75L100.5 558z" stroke="none" fill="#000000" fill-rule="nonzero" fill-opacity="0.1490196" /><path id="215" transform="matrix(1 0 0 -1 0 612)" d="M255 544.8049L594.816 544.8049" stroke="#000000" stroke-width="0.7017334" fill="none" /><path id="223" transform="matrix(1 0 0 -1 0 612)" d="M255 531.7158L287.325 531.7158" stroke="#000000" stroke-width="0.7017334" fill="none" /><path id="280" transform="matrix(1 0 0 -1 0 612)" d="M255 515.2158L439.0024 515.2158" stroke="#000000" stroke-width="0.7017334" fill="none" /><path id="343" transform="matrix(1 0 0 -1 0 612)" d="M255 485.2158L421.7299 485.2158" stroke="#000000" stroke-width="0.7017334" fill="none" /><path id="425" transform="matrix(1 0 0 -1 0 612)" d="M255 468.7158L594.4495 468.7158" stroke="#000000" stroke-width="0.7017334" fill="none" /><path id="517" transform="matrix(1 0 0 -1 0 612)" d="M255 451.8049L591.8685 451.8049" stroke="#000000" stroke-width="0.7017334" fill="none" /><path id="553" transform="matrix(1 0 0 -1 0 612)" d="M255 438.7158L423.2117 438.7158" stroke="#000000" stroke-width="0.7017334" fill="none" /><path id="618" transform="matrix(1 0 0 -1 0 612)" d="M255 422.2158L499.0714 422.2158" stroke="#000000" stroke-width="0.7017334" fill="none" /><path id="702" transform="matrix(1 0 0 -1 0 612)" d="M255 405.3049L589.2086 405.3049" stroke="#000000" stroke-width="0.7017334" fill="none" /><path id="712" transform="matrix(1 0 0 -1 0 612)" d="M255 392.2158L306.7441 392.2158" stroke="#000000" stroke-width="0.7017334" fill="none" /><path id="777" transform="matrix(1 0 0 -1 0 612)" d="M255 375.7158L496.3488 375.7158" stroke="#000000" stroke-width="0.7017334" fill="none" /><path id="821" transform="matrix(1 0 0 -1 0 612)" d="M255 359.2158L398.7192 359.2158" stroke="#000000" stroke-width="0.7017334" fill="none" /><path id="902" transform="matrix(1 0 0 -1 0 612)" d="M255 342.7158L567.0406 342.7158" stroke="#000000" stroke-width="0.7017334" fill="none" /><path id="968" transform="matrix(1 0 0 -1 0 612)" d="M255 325.8049L526.5742 325.8049" stroke="#000000" stroke-width="0.7017334" fill="none" /><path id="1012" transform="matrix(1 0 0 -1 0 612)" d="M255 312.7158L450.4476 312.7158" stroke="#000000" stroke-width="0.7017334" fill="none" /><path id="1046" transform="matrix(1 0 0 -1 0 612)" d="M255 296.2158L346.3206 296.2158" stroke="#000000" stroke-width="0.7017334" fill="none" /><path id="1132" transform="matrix(1 0 0 -1 0 612)" d="M255 279.3049L615.2562 279.3049" stroke="#000000" stroke-width="0.7017334" fill="none" /><path id="1145" transform="matrix(1 0 0 -1 0 612)" d="M255 266.2158L313.273 266.2158" stroke="#000000" stroke-width="0.7017334" fill="none" /><path id="1200" transform="matrix(1 0 0 -1 0 612)" d="M255 249.7158L444.5991 249.7158" stroke="#000000" stroke-width="0.7017334" fill="none" /><path id="1251" transform="matrix(1 0 0 -1 0 612)" d="M255 233.2158L440.0967 233.2158" stroke="#000000" stroke-width="0.7017334" fill="none" /><path id="1337" transform="matrix(1 0 0 -1 0 612)" d="M255 216.3049L609.0885 216.3049" stroke="#000000" stroke-width="0.7017334" fill="none" /><path id="1348" transform="matrix(1 0 0 -1 0 612)" d="M255 203.2158L304.8226 203.2158" stroke="#000000" stroke-width="0.7017334" fill="none" /><path id="1434" transform="matrix(1 0 0 -1 0 612)" d="M255 173.2158L555.2446 173.2158" stroke="#000000" stroke-width="0.7017334" fill="none" /><path id="1473" transform="matrix(1 0 0 -1 0 612)" d="M255 156.7158L390.5306 156.7158" stroke="#000000" stroke-width="0.7017334" fill="none" /><path id="1564" transform="matrix(1 0 0 -1 0 612)" d="M255 139.8049L619.0885 139.8049" stroke="#000000" stroke-width="0.7017334" fill="none" /><path id="1580" transform="matrix(1 0 0 -1 0 612)" d="M255 126.7158L336.31 126.7158" stroke="#000000" stroke-width="0.7017334" fill="none" /><path id="1646" transform="matrix(1 0 0 -1 0 612)" d="M255 96.71582L430.4211 96.71582" stroke="#000000" stroke-width="0.7017334" fill="none" /><path id="1745" transform="matrix(1 0 0 -1 0 612)" d="M255 79.80493L602.3077 79.80493" stroke="#000000" stroke-width="0.7017334" fill="none" /><path id="1754" transform="matrix(1 0 0 -1 0 612)" d="M255 66.71582L297.2676 66.71582" stroke="#000000" stroke-width="0.7017334" fill="none" /></g></g></g></svg>