<svg xmlns="http://www.w3.org/2000/svg" xmlns:xlink="http://www.w3.org/1999/xlink" id="body_20" preserveAspectRatio="xMinYMin meet" viewBox="0 0 1056 816"><defs><clipPath id="1"><path id="" clip-rule="evenodd" transform="matrix(1 0 0 1 0 0)" d="M0 612L0 0L0 0L792 0L792 0L792 612L792 612L0 612z" /></clipPath><clipPath id="2"><path id="" clip-rule="evenodd" transform="matrix(1 0 0 1 0 0)" d="M99.75 52.5L692.25 52.5L692.25 52.5L692.25 555.75L692.25 555.75L99.75 555.75L99.75 555.75L99.75 52.5z" /></clipPath></defs><g transform="matrix(1.333333 0 0 1.333333 0 0)"><g clip-path="url(#1)"><g clip-path="url(#2)"><path id="118" transform="matrix(1 0 0 -1 0 612)" d="M100.5 558.75L691.5 558.75L691.5 528L100.5 528L100.5 558.75z" stroke="none" fill="#E0F7FA" fill-rule="nonzero" /><path id="119" transform="matrix(1 0 0 -1 0 612)" d="M100.5 528.75L691.5 528.75L691.5 511.5L100.5 511.5L100.5 528.75z" stroke="none" fill="#FFFFFF" fill-rule="nonzero" /><path id="120" transform="matrix(1 0 0 -1 0 612)" d="M100.5 512.25L691.5 512.25L691.5 481.5L100.5 481.5L100.5 512.25z" stroke="none" fill="#E0F7FA" fill-rule="nonzero" /><path id="121" transform="matrix(1 0 0 -1 0 612)" d="M100.5 482.25L691.5 482.25L691.5 465L100.5 465L100.5 482.25z" stroke="none" fill="#FFFFFF" fill-rule="nonzero" /><path id="122" transform="matrix(1 0 0 -1 0 612)" d="M100.5 465.75L691.5 465.75L691.5 448.5L100.5 448.5L100.5 465.75z" stroke="none" fill="#E0F7FA" fill-rule="nonzero" /><path id="123" transform="matrix(1 0 0 -1 0 612)" d="M100.5 449.25L691.5 449.25L691.5 432L100.5 432L100.5 449.25z" stroke="none" fill="#FFFFFF" fill-rule="nonzero" /><path id="124" transform="matrix(1 0 0 -1 0 612)" d="M100.5 432.75L691.5 432.75L691.5 402L100.5 402L100.5 432.75z" stroke="none" fill="#E0F7FA" fill-rule="nonzero" /><path id="125" transform="matrix(1 0 0 -1 0 612)" d="M100.5 402.75L691.5 402.75L691.5 385.5L100.5 385.5L100.5 402.75z" stroke="none" fill="#FFFFFF" fill-rule="nonzero" /><path id="126" transform="matrix(1 0 0 -1 0 612)" d="M100.5 386.25L691.5 386.25L691.5 369L100.5 369L100.5 386.25z" stroke="none" fill="#E0F7FA" fill-rule="nonzero" /><path id="127" transform="matrix(1 0 0 -1 0 612)" d="M100.5 369.75L691.5 369.75L691.5 339L100.5 339L100.5 369.75z" stroke="none" fill="#FFFFFF" fill-rule="nonzero" /><path id="128" transform="matrix(1 0 0 -1 0 612)" d="M100.5 339.75L691.5 339.75L691.5 322.5L100.5 322.5L100.5 339.75z" stroke="none" fill="#E0F7FA" fill-rule="nonzero" /><path id="129" transform="matrix(1 0 0 -1 0 612)" d="M100.5 323.25L691.5 323.25L691.5 306L100.5 306L100.5 323.25z" stroke="none" fill="#FFFFFF" fill-rule="nonzero" /><path id="130" transform="matrix(1 0 0 -1 0 612)" d="M100.5 306.75L691.5 306.75L691.5 276L100.5 276L100.5 306.75z" stroke="none" fill="#E0F7FA" fill-rule="nonzero" /><path id="131" transform="matrix(1 0 0 -1 0 612)" d="M100.5 276.75L691.5 276.75L691.5 246L100.5 246L100.5 276.75z" stroke="none" fill="#FFFFFF" fill-rule="nonzero" /><path id="132" transform="matrix(1 0 0 -1 0 612)" d="M100.5 246.75L691.5 246.75L691.5 216L100.5 216L100.5 246.75z" stroke="none" fill="#E0F7FA" fill-rule="nonzero" /><path id="133" transform="matrix(1 0 0 -1 0 612)" d="M100.5 216.75L691.5 216.75L691.5 199.5L100.5 199.5L100.5 216.75z" stroke="none" fill="#FFFFFF" fill-rule="nonzero" /><path id="134" transform="matrix(1 0 0 -1 0 612)" d="M100.5 200.25L691.5 200.25L691.5 183L100.5 183L100.5 200.25z" stroke="none" fill="#E0F7FA" fill-rule="nonzero" /><path id="135" transform="matrix(1 0 0 -1 0 612)" d="M100.5 183.75L691.5 183.75L691.5 153L100.5 153L100.5 183.75z" stroke="none" fill="#FFFFFF" fill-rule="nonzero" /><path id="136" transform="matrix(1 0 0 -1 0 612)" d="M100.5 153.75L691.5 153.75L691.5 136.5L100.5 136.5L100.5 153.75z" stroke="none" fill="#E0F7FA" fill-rule="nonzero" /><path id="137" transform="matrix(1 0 0 -1 0 612)" d="M100.5 137.25L691.5 137.25L691.5 120L100.5 120L100.5 137.25z" stroke="none" fill="#FFFFFF" fill-rule="nonzero" /><path id="138" transform="matrix(1 0 0 -1 0 612)" d="M100.5 120.75L691.5 120.75L691.5 90L100.5 90L100.5 120.75z" stroke="none" fill="#E0F7FA" fill-rule="nonzero" /><path id="139" transform="matrix(1 0 0 -1 0 612)" d="M100.5 90.75L691.5 90.75L691.5 73.5L100.5 73.5L100.5 90.75z" stroke="none" fill="#FFFFFF" fill-rule="nonzero" /><path id="140" transform="matrix(1 0 0 -1 0 612)" d="M100.5 74.25L691.5 74.25L691.5 57L100.5 57L100.5 74.25z" stroke="none" fill="#E0F7FA" fill-rule="nonzero" /><path id="141" transform="matrix(1 0 0 -1 0 612)" d="M100.5 57.75L691.5 57.75L691.5 57L100.5 57zM100.5 74.25L691.5 74.25L691.5 73.5L100.5 73.5zM100.5 90.75L691.5 90.75L691.5 90L100.5 90zM100.5 120.75L691.5 120.75L691.5 120L100.5 120zM100.5 137.25L691.5 137.25L691.5 136.5L100.5 136.5zM100.5 153.75L691.5 153.75L691.5 153L100.5 153zM100.5 183.75L691.5 183.75L691.5 183L100.5 183zM100.5 200.25L691.5 200.25L691.5 199.5L100.5 199.5zM100.5 216.75L691.5 216.75L691.5 216L100.5 216zM100.5 246.75L691.5 246.75L691.5 246L100.5 246zM100.5 276.75L691.5 276.75L691.5 276L100.5 276zM100.5 306.75L691.5 306.75L691.5 306L100.5 306zM100.5 323.25L691.5 323.25L691.5 322.5L100.5 322.5zM100.5 339.75L691.5 339.75L691.5 339L100.5 339zM100.5 369.75L691.5 369.75L691.5 369L100.5 369zM100.5 386.25L691.5 386.25L691.5 385.5L100.5 385.5zM100.5 402.75L691.5 402.75L691.5 402L100.5 402zM100.5 432.75L691.5 432.75L691.5 432L100.5 432zM100.5 449.25L691.5 449.25L691.5 448.5L100.5 448.5zM100.5 465.75L691.5 465.75L691.5 465L100.5 465zM100.5 482.25L691.5 482.25L691.5 481.5L100.5 481.5zM100.5 512.25L691.5 512.25L691.5 511.5L100.5 511.5zM100.5 528.75L691.5 528.75L691.5 528L100.5 528zM100.5 558.75L691.5 558.75L691.5 558L100.5 558zM691.5 73.5L691.5 57.75L690.75 57.75L690.75 73.5zM691.5 90L691.5 74.25L690.75 74.25L690.75 90zM691.5 120L691.5 90.75L690.75 90.75L690.75 120zM691.5 136.5L691.5 120.75L690.75 120.75L690.75 136.5zM691.5 153L691.5 137.25L690.75 137.25L690.75 153zM691.5 183L691.5 153.75L690.75 153.75L690.75 183zM691.5 199.5L691.5 183.75L690.75 183.75L690.75 199.5zM691.5 216L691.5 200.25L690.75 200.25L690.75 216zM691.5 246L691.5 216.75L690.75 216.75L690.75 246zM691.5 276L691.5 246.75L690.75 246.75L690.75 276zM691.5 306L691.5 276.75L690.75 276.75L690.75 306zM691.5 322.5L691.5 306.75L690.75 306.75L690.75 322.5zM691.5 339L691.5 323.25L690.75 323.25L690.75 339zM691.5 369L691.5 339.75L690.75 339.75L690.75 369zM691.5 385.5L691.5 369.75L690.75 369.75L690.75 385.5zM691.5 402L691.5 386.25L690.75 386.25L690.75 402zM691.5 432L691.5 402.75L690.75 402.75L690.75 432zM691.5 448.5L691.5 432.75L690.75 432.75L690.75 448.5zM691.5 465L691.5 449.25L690.75 449.25L690.75 465zM691.5 481.5L691.5 465.75L690.75 465.75L690.75 481.5zM691.5 511.5L691.5 482.25L690.75 482.25L690.75 511.5zM691.5 528L691.5 512.25L690.75 512.25L690.75 528zM691.5 558L691.5 528.75L690.75 528.75L690.75 558zM621.75 73.5L621.75 57.75L621 57.75L621 73.5zM621.75 90L621.75 74.25L621 74.25L621 90zM621.75 120L621.75 90.75L621 90.75L621 120zM621.75 136.5L621.75 120.75L621 120.75L621 136.5zM621.75 153L621.75 137.25L621 137.25L621 153zM621.75 183L621.75 153.75L621 153.75L621 183zM621.75 199.5L621.75 183.75L621 183.75L621 199.5zM621.75 216L621.75 200.25L621 200.25L621 216zM621.75 246L621.75 216.75L621 216.75L621 246zM621.75 276L621.75 246.75L621 246.75L621 276zM621.75 306L621.75 276.75L621 276.75L621 306zM621.75 322.5L621.75 306.75L621 306.75L621 322.5zM621.75 339L621.75 323.25L621 323.25L621 339zM621.75 369L621.75 339.75L621 339.75L621 369zM621.75 385.5L621.75 369.75L621 369.75L621 385.5zM621.75 402L621.75 386.25L621 386.25L621 402zM621.75 432L621.75 402.75L621 402.75L621 432zM621.75 448.5L621.75 432.75L621 432.75L621 448.5zM621.75 465L621.75 449.25L621 449.25L621 465zM621.75 481.5L621.75 465.75L621 465.75L621 481.5zM621.75 511.5L621.75 482.25L621 482.25L621 511.5zM621.75 528L621.75 512.25L621 512.25L621 528zM621.75 558L621.75 528.75L621 528.75L621 558zM252.75 73.5L252.75 57.75L252 57.75L252 73.5zM252.75 90L252.75 74.25L252 74.25L252 90zM252.75 120L252.75 90.75L252 90.75L252 120zM252.75 136.5L252.75 120.75L252 120.75L252 136.5zM252.75 153L252.75 137.25L252 137.25L252 153zM252.75 183L252.75 153.75L252 153.75L252 183zM252.75 199.5L252.75 183.75L252 183.75L252 199.5zM252.75 216L252.75 200.25L252 200.25L252 216zM252.75 246L252.75 216.75L252 216.75L252 246zM252.75 276L252.75 246.75L252 246.75L252 276zM252.75 306L252.75 276.75L252 276.75L252 306zM252.75 322.5L252.75 306.75L252 306.75L252 322.5zM252.75 339L252.75 323.25L252 323.25L252 339zM252.75 369L252.75 339.75L252 339.75L252 369zM252.75 385.5L252.75 369.75L252 369.75L252 385.5zM252.75 402L252.75 386.25L252 386.25L252 402zM252.75 432L252.75 402.75L252 402.75L252 432zM252.75 448.5L252.75 432.75L252 432.75L252 448.5zM252.75 465L252.75 449.25L252 449.25L252 465zM252.75 481.5L252.75 465.75L252 465.75L252 481.5zM252.75 511.5L252.75 482.25L252 482.25L252 511.5zM252.75 528L252.75 512.25L252 512.25L252 528zM252.75 558L252.75 528.75L252 528.75L252 558zM177 73.5L177 57.75L176.25 57.75L176.25 73.5zM177 90L177 74.25L176.25 74.25L176.25 90zM177 120L177 90.75L176.25 90.75L176.25 120zM177 136.5L177 120.75L176.25 120.75L176.25 136.5zM177 153L177 137.25L176.25 137.25L176.25 153zM177 183L177 153.75L176.25 153.75L176.25 183zM177 199.5L177 183.75L176.25 183.75L176.25 199.5zM177 216L177 200.25L176.25 200.25L176.25 216zM177 246L177 216.75L176.25 216.75L176.25 246zM177 276L177 246.75L176.25 246.75L176.25 276zM177 306L177 276.75L176.25 276.75L176.25 306zM177 322.5L177 306.75L176.25 306.75L176.25 322.5zM177 339L177 323.25L176.25 323.25L176.25 339zM177 369L177 339.75L176.25 339.75L176.25 369zM177 385.5L177 369.75L176.25 369.75L176.25 385.5zM177 402L177 386.25L176.25 386.25L176.25 402zM177 432L177 402.75L176.25 402.75L176.25 432zM177 448.5L177 432.75L176.25 432.75L176.25 448.5zM177 465L177 449.25L176.25 449.25L176.25 465zM177 481.5L177 465.75L176.25 465.75L176.25 481.5zM177 511.5L177 482.25L176.25 482.25L176.25 511.5zM177 528L177 512.25L176.25 512.25L176.25 528zM177 558L177 528.75L176.25 528.75L176.25 558zM101.25 73.5L101.25 57.75L100.5 57.75L100.5 73.5zM101.25 90L101.25 74.25L100.5 74.25L100.5 90zM101.25 120L101.25 90.75L100.5 90.75L100.5 120zM101.25 136.5L101.25 120.75L100.5 120.75L100.5 136.5zM101.25 153L101.25 137.25L100.5 137.25L100.5 153zM101.25 183L101.25 153.75L100.5 153.75L100.5 183zM101.25 199.5L101.25 183.75L100.5 183.75L100.5 199.5zM101.25 216L101.25 200.25L100.5 200.25L100.5 216zM101.25 246L101.25 216.75L100.5 216.75L100.5 246zM101.25 276L101.25 246.75L100.5 246.75L100.5 276zM101.25 306L101.25 276.75L100.5 276.75L100.5 306zM101.25 322.5L101.25 306.75L100.5 306.75L100.5 322.5zM101.25 339L101.25 323.25L100.5 323.25L100.5 339zM101.25 369L101.25 339.75L100.5 339.75L100.5 369zM101.25 385.5L101.25 369.75L100.5 369.75L100.5 385.5zM101.25 402L101.25 386.25L100.5 386.25L100.5 402zM101.25 432L101.25 402.75L100.5 402.75L100.5 432zM101.25 448.5L101.25 432.75L100.5 432.75L100.5 448.5zM101.25 465L101.25 449.25L100.5 449.25L100.5 465zM101.25 481.5L101.25 465.75L100.5 465.75L100.5 481.5zM101.25 511.5L101.25 482.25L100.5 482.25L100.5 511.5zM101.25 528L101.25 512.25L100.5 512.25L100.5 528zM101.25 558L101.25 528.75L100.5 528.75L100.5 558z" stroke="none" fill="#000000" fill-rule="nonzero" fill-opacity="0.1490196" /><path id="224" transform="matrix(1 0 0 -1 0 612)" d="M255 544.8047L604.5858 544.8047" stroke="#000000" stroke-width="0.7017334" fill="none" /><path id="233" transform="matrix(1 0 0 -1 0 612)" d="M255 531.7158L285.9899 531.7158" stroke="#000000" stroke-width="0.7017334" fill="none" /><path id="286" transform="matrix(1 0 0 -1 0 612)" d="M255 515.2158L431.0023 515.2158" stroke="#000000" stroke-width="0.7017334" fill="none" /><path id="360" transform="matrix(1 0 0 -1 0 612)" d="M255 498.3047L613.4543 498.3047" stroke="#000000" stroke-width="0.7017334" fill="none" /><path id="380" transform="matrix(1 0 0 -1 0 612)" d="M255 485.2158L362.661 485.2158" stroke="#000000" stroke-width="0.7017334" fill="none" /><path id="457" transform="matrix(1 0 0 -1 0 612)" d="M255 468.7158L591.863 468.7158" stroke="#000000" stroke-width="0.7017334" fill="none" /><path id="502" transform="matrix(1 0 0 -1 0 612)" d="M255 452.2158L408.1957 452.2158" stroke="#000000" stroke-width="0.7017334" fill="none" /><path id="557" transform="matrix(1 0 0 -1 0 612)" d="M255 435.7158L440.1542 435.7158" stroke="#000000" stroke-width="0.7017334" fill="none" /><path id="636" transform="matrix(1 0 0 -1 0 612)" d="M255 418.8047L579.6953 418.8047" stroke="#000000" stroke-width="0.7017334" fill="none" /><path id="668" transform="matrix(1 0 0 -1 0 612)" d="M255 405.7158L404.0909 405.7158" stroke="#000000" stroke-width="0.7017334" fill="none" /><path id="715" transform="matrix(1 0 0 -1 0 612)" d="M255 389.2158L405.3842 389.2158" stroke="#000000" stroke-width="0.7017334" fill="none" /><path id="782" transform="matrix(1 0 0 -1 0 612)" d="M255 372.7158L535.5535 372.7158" stroke="#000000" stroke-width="0.7017334" fill="none" /><path id="869" transform="matrix(1 0 0 -1 0 612)" d="M255 355.8047L614.6696 355.8047" stroke="#000000" stroke-width="0.7017334" fill="none" /><path id="883" transform="matrix(1 0 0 -1 0 612)" d="M255 342.7158L314.7914 342.7158" stroke="#000000" stroke-width="0.7017334" fill="none" /><path id="917" transform="matrix(1 0 0 -1 0 612)" d="M255 326.2158L330.1476 326.2158" stroke="#000000" stroke-width="0.7017334" fill="none" /><path id="998" transform="matrix(1 0 0 -1 0 612)" d="M255 309.7158L589.0148 309.7158" stroke="#000000" stroke-width="0.7017334" fill="none" /><path id="1071" transform="matrix(1 0 0 -1 0 612)" d="M255 279.7158L491.2282 279.7158" stroke="#000000" stroke-width="0.7017334" fill="none" /><path id="1154" transform="matrix(1 0 0 -1 0 612)" d="M255 262.8047L614.0309 262.8047" stroke="#000000" stroke-width="0.7017334" fill="none" /><path id="1187" transform="matrix(1 0 0 -1 0 612)" d="M255 249.7158L416.688 249.7158" stroke="#000000" stroke-width="0.7017334" fill="none" /><path id="1272" transform="matrix(1 0 0 -1 0 612)" d="M255 232.8047L617.6591 232.8047" stroke="#000000" stroke-width="0.7017334" fill="none" /><path id="1287" transform="matrix(1 0 0 -1 0 612)" d="M255 219.7158L324.1684 219.7158" stroke="#000000" stroke-width="0.7017334" fill="none" /><path id="1316" transform="matrix(1 0 0 -1 0 612)" d="M255 203.2158L333.2576 203.2158" stroke="#000000" stroke-width="0.7017334" fill="none" /><path id="1386" transform="matrix(1 0 0 -1 0 612)" d="M255 186.7158L538.1033 186.7158" stroke="#000000" stroke-width="0.7017334" fill="none" /><path id="1469" transform="matrix(1 0 0 -1 0 612)" d="M255 169.8047L614.1671 169.8047" stroke="#000000" stroke-width="0.7017334" fill="none" /><path id="1477" transform="matrix(1 0 0 -1 0 612)" d="M255 156.7158L289.4193 156.7158" stroke="#000000" stroke-width="0.7017334" fill="none" /><path id="1564" transform="matrix(1 0 0 -1 0 612)" d="M255 140.2158L591.7059 140.2158" stroke="#000000" stroke-width="0.7017334" fill="none" /><path id="1612" transform="matrix(1 0 0 -1 0 612)" d="M255 123.7158L399.6774 123.7158" stroke="#000000" stroke-width="0.7017334" fill="none" /><path id="1702" transform="matrix(1 0 0 -1 0 612)" d="M255 106.8047L593.2296 106.8047" stroke="#000000" stroke-width="0.7017334" fill="none" /><path id="1743" transform="matrix(1 0 0 -1 0 612)" d="M255 93.71582L450.9136 93.71582" stroke="#000000" stroke-width="0.7017334" fill="none" /><path id="1802" transform="matrix(1 0 0 -1 0 612)" d="M255 77.21582L479.8669 77.21582" stroke="#000000" stroke-width="0.7017334" fill="none" /><path id="1881" transform="matrix(1 0 0 -1 0 612)" d="M255 60.71582L586.0357 60.71582" stroke="#000000" stroke-width="0.7017334" fill="none" /></g></g></g></svg>