<svg xmlns="http://www.w3.org/2000/svg" xmlns:xlink="http://www.w3.org/1999/xlink" id="body_7" preserveAspectRatio="xMinYMin meet" viewBox="0 0 1056 816"><defs><clipPath id="1"><path id="" clip-rule="evenodd" transform="matrix(1 0 0 1 0 0)" d="M0 612L0 0L0 0L792 0L792 0L792 612L792 612L0 612z" /></clipPath><clipPath id="2"><path id="" clip-rule="evenodd" transform="matrix(1 0 0 1 0 0)" d="M144 558L648 558L648 558L648 54L648 54L144 54z" /></clipPath><clipPath id="3"><path id="" clip-rule="evenodd" transform="matrix(1 0 0 1 0 0)" d="M144 558L648 558L648 558L648 54L648 54L144 54z" /></clipPath><clipPath id="4"><path id="" clip-rule="evenodd" transform="matrix(1 0 0 1 0 0)" d="M144 558L648 558L648 558L648 54L648 54L144 54z" /></clipPath><clipPath id="5"><path id="" clip-rule="evenodd" transform="matrix(1 0 0 1 0 0)" d="M144 558L648 558L648 558L648 54L648 54L144 54z" /></clipPath><clipPath id="6"><path id="" clip-rule="evenodd" transform="matrix(1 0 0 1 0 0)" d="M144 558L648 558L648 558L648 54L648 54L144 54z" /></clipPath><clipPath id="7"><path id="" clip-rule="evenodd" transform="matrix(1 0 0 1 0 0)" d="M144 558L648 558L648 558L648 54L648 54L144 54z" /></clipPath><clipPath id="8"><path id="" clip-rule="evenodd" transform="matrix(1 0 0 1 0 0)" d="M144 558L648 558L648 558L648 54L648 54L144 54z" /></clipPath><clipPath id="9"><path id="" clip-rule="evenodd" transform="matrix(1 0 0 1 0 0)" d="M144 558L648 558L648 558L648 54L648 54L144 54z" /></clipPath><clipPath id="10"><path id="" clip-rule="evenodd" transform="matrix(1 0 0 1 0 0)" d="M144 558L648 558L648 558L648 54L648 54L144 54z" /></clipPath><clipPath id="11"><path id="" clip-rule="evenodd" transform="matrix(1 0 0 1 0 0)" d="M144 558L648 558L648 558L648 54L648 54L144 54z" /></clipPath><clipPath id="12"><path id="" clip-rule="evenodd" transform="matrix(1 0 0 1 0 0)" d="M144 558L648 558L648 558L648 54L648 54L144 54z" /></clipPath><clipPath id="13"><path id="" clip-rule="evenodd" transform="matrix(1 0 0 1 0 0)" d="M144 558L648 558L648 558L648 54L648 54L144 54z" /></clipPath><clipPath id="14"><path id="" clip-rule="evenodd" transform="matrix(1 0 0 1 0 0)" d="M144 558L648 558L648 558L648 54L648 54L144 54z" /></clipPath><clipPath id="15"><path id="" clip-rule="evenodd" transform="matrix(1 0 0 1 0 0)" d="M144 558L648 558L648 558L648 54L648 54L144 54z" /></clipPath><clipPath id="16"><path id="" clip-rule="evenodd" transform="matrix(1 0 0 1 0 0)" d="M144 558L648 558L648 558L648 54L648 54L144 54z" /></clipPath><clipPath id="17"><path id="" clip-rule="evenodd" transform="matrix(1 0 0 1 0 0)" d="M144 558L648 558L648 558L648 54L648 54L144 54z" /></clipPath><clipPath id="18"><path id="" clip-rule="evenodd" transform="matrix(1 0 0 1 0 0)" d="M144 558L648 558L648 558L648 54L648 54L144 54z" /></clipPath><clipPath id="19"><path id="" clip-rule="evenodd" transform="matrix(1 0 0 1 0 0)" d="M197.16 283.36L394.99 283.36L394.99 283.36L394.99 76.69L394.99 76.69L197.16 76.69z" /></clipPath><clipPath id="20"><path id="" clip-rule="evenodd" transform="matrix(1 0 0 1 0 0)" d="M144 558L648 558L648 558L648 54L648 54L144 54z" /></clipPath><clipPath id="21"><path id="" clip-rule="evenodd" transform="matrix(1 0 0 1 0 0)" d="M197.16 526.09L394.99 526.09L394.99 526.09L394.99 319.42L394.99 319.42L197.16 319.42z" /></clipPath><clipPath id="22"><path id="" clip-rule="evenodd" transform="matrix(1 0 0 1 0 0)" d="M144 558L648 558L648 558L648 54L648 54L144 54z" /></clipPath><clipPath id="23"><path id="" clip-rule="evenodd" transform="matrix(1 0 0 1 0 0)" d="M444.69 283.36L642.52 283.36L642.52 283.36L642.52 76.69L642.52 76.69L444.69 76.69z" /></clipPath><clipPath id="24"><path id="" clip-rule="evenodd" transform="matrix(1 0 0 1 0 0)" d="M144 558L648 558L648 558L648 54L648 54L144 54z" /></clipPath><clipPath id="25"><path id="" clip-rule="evenodd" transform="matrix(1 0 0 1 0 0)" d="M444.69 526.09L642.52 526.09L642.52 526.09L642.52 319.42L642.52 319.42L444.69 319.42z" /></clipPath><clipPath id="26"><path id="" clip-rule="evenodd" transform="matrix(1 0 0 1 0 0)" d="M144 558L648 558L648 558L648 54L648 54L144 54z" /></clipPath><clipPath id="27"><path id="" clip-rule="evenodd" transform="matrix(1 0 0 1 0 0)" d="M197.16 319.42L394.99 319.42L394.99 319.42L394.99 302.21L394.99 302.21L197.16 302.21z" /></clipPath><clipPath id="28"><path id="" clip-rule="evenodd" transform="matrix(1 0 0 1 0 0)" d="M197.16 319.42L394.99 319.42L394.99 319.42L394.99 302.21L394.99 302.21L197.16 302.21z" /></clipPath><clipPath id="29"><path id="" clip-rule="evenodd" transform="matrix(1 0 0 1 0 0)" d="M197.16 319.42L394.99 319.42L394.99 319.42L394.99 302.21L394.99 302.21L197.16 302.21z" /></clipPath><clipPath id="30"><path id="" clip-rule="evenodd" transform="matrix(1 0 0 1 0 0)" d="M197.16 319.42L394.99 319.42L394.99 319.42L394.99 302.21L394.99 302.21L197.16 302.21z" /></clipPath><clipPath id="31"><path id="" clip-rule="evenodd" transform="matrix(1 0 0 1 0 0)" d="M144 558L648 558L648 558L648 54L648 54L144 54z" /></clipPath><clipPath id="32"><path id="" clip-rule="evenodd" transform="matrix(1 0 0 1 0 0)" d="M444.69 319.42L642.52 319.42L642.52 319.42L642.52 302.21L642.52 302.21L444.69 302.21z" /></clipPath><clipPath id="33"><path id="" clip-rule="evenodd" transform="matrix(1 0 0 1 0 0)" d="M444.69 319.42L642.52 319.42L642.52 319.42L642.52 302.21L642.52 302.21L444.69 302.21z" /></clipPath><clipPath id="34"><path id="" clip-rule="evenodd" transform="matrix(1 0 0 1 0 0)" d="M444.69 319.42L642.52 319.42L642.52 319.42L642.52 302.21L642.52 302.21L444.69 302.21z" /></clipPath><clipPath id="35"><path id="" clip-rule="evenodd" transform="matrix(1 0 0 1 0 0)" d="M444.69 319.42L642.52 319.42L642.52 319.42L642.52 302.21L642.52 302.21L444.69 302.21z" /></clipPath><clipPath id="36"><path id="" clip-rule="evenodd" transform="matrix(1 0 0 1 0 0)" d="M144 558L648 558L648 558L648 54L648 54L144 54z" /></clipPath><clipPath id="37"><path id="" clip-rule="evenodd" transform="matrix(1 0 0 1 0 0)" d="M197.16 76.69L394.99 76.69L394.99 76.69L394.99 59.47998L394.99 59.47998L197.16 59.47998z" /></clipPath><clipPath id="38"><path id="" clip-rule="evenodd" transform="matrix(1 0 0 1 0 0)" d="M197.16 76.69L394.99 76.69L394.99 76.69L394.99 59.47998L394.99 59.47998L197.16 59.47998z" /></clipPath><clipPath id="39"><path id="" clip-rule="evenodd" transform="matrix(1 0 0 1 0 0)" d="M197.16 76.69L394.99 76.69L394.99 76.69L394.99 59.47998L394.99 59.47998L197.16 59.47998z" /></clipPath><clipPath id="40"><path id="" clip-rule="evenodd" transform="matrix(1 0 0 1 0 0)" d="M197.16 76.69L394.99 76.69L394.99 76.69L394.99 59.47998L394.99 59.47998L197.16 59.47998z" /></clipPath><clipPath id="41"><path id="" clip-rule="evenodd" transform="matrix(1 0 0 1 0 0)" d="M144 558L648 558L648 558L648 54L648 54L144 54z" /></clipPath><clipPath id="42"><path id="" clip-rule="evenodd" transform="matrix(1 0 0 1 0 0)" d="M444.69 76.69L642.52 76.69L642.52 76.69L642.52 59.47998L642.52 59.47998L444.69 59.47998z" /></clipPath><clipPath id="43"><path id="" clip-rule="evenodd" transform="matrix(1 0 0 1 0 0)" d="M444.69 76.69L642.52 76.69L642.52 76.69L642.52 59.47998L642.52 59.47998L444.69 59.47998z" /></clipPath><clipPath id="44"><path id="" clip-rule="evenodd" transform="matrix(1 0 0 1 0 0)" d="M444.69 76.69L642.52 76.69L642.52 76.69L642.52 59.47998L642.52 59.47998L444.69 59.47998z" /></clipPath><clipPath id="45"><path id="" clip-rule="evenodd" transform="matrix(1 0 0 1 0 0)" d="M444.69 76.69L642.52 76.69L642.52 76.69L642.52 59.47998L642.52 59.47998L444.69 59.47998z" /></clipPath><clipPath id="46"><path id="" clip-rule="evenodd" transform="matrix(1 0 0 1 0 0)" d="M144 558L648 558L648 558L648 54L648 54L144 54z" /></clipPath><clipPath id="47"><path id="" clip-rule="evenodd" transform="matrix(1 0 0 1 0 0)" d="M144 558L648 558L648 558L648 54L648 54L144 54z" /></clipPath><clipPath id="48"><path id="" clip-rule="evenodd" transform="matrix(1 0 0 1 0 0)" d="M144 558L648 558L648 558L648 54L648 54L144 54z" /></clipPath><clipPath id="49"><path id="" clip-rule="evenodd" transform="matrix(1 0 0 1 0 0)" d="M144 558L648 558L648 558L648 54L648 54L144 54z" /></clipPath><clipPath id="50"><path id="" clip-rule="evenodd" transform="matrix(1 0 0 1 0 0)" d="M144 558L648 558L648 558L648 54L648 54L144 54z" /></clipPath><clipPath id="51"><path id="" clip-rule="evenodd" transform="matrix(1 0 0 1 0 0)" d="M144 558L648 558L648 558L648 54L648 54L144 54z" /></clipPath><clipPath id="52"><path id="" clip-rule="evenodd" transform="matrix(1 0 0 1 0 0)" d="M144 558L648 558L648 558L648 54L648 54L144 54z" /></clipPath><clipPath id="53"><path id="" clip-rule="evenodd" transform="matrix(1 0 0 1 0 0)" d="M144 558L648 558L648 558L648 54L648 54L144 54z" /></clipPath><clipPath id="54"><path id="" clip-rule="evenodd" transform="matrix(1 0 0 1 0 0)" d="M144 558L648 558L648 558L648 54L648 54L144 54z" /></clipPath><clipPath id="55"><path id="" clip-rule="evenodd" transform="matrix(1 0 0 1 0 0)" d="M144 558L648 558L648 558L648 54L648 54L144 54z" /></clipPath><clipPath id="56"><path id="" clip-rule="evenodd" transform="matrix(1 0 0 1 0 0)" d="M144 558L648 558L648 558L648 54L648 54L144 54z" /></clipPath><clipPath id="57"><path id="" clip-rule="evenodd" transform="matrix(1 0 0 1 0 0)" d="M144 558L648 558L648 558L648 54L648 54L144 54z" /></clipPath><clipPath id="58"><path id="" clip-rule="evenodd" transform="matrix(1 0 0 1 0 0)" d="M144 558L648 558L648 558L648 54L648 54L144 54z" /></clipPath><clipPath id="59"><path id="" clip-rule="evenodd" transform="matrix(1 0 0 1 0 0)" d="M144 558L648 558L648 558L648 54L648 54L144 54z" /></clipPath><clipPath id="60"><path id="" clip-rule="evenodd" transform="matrix(1 0 0 1 0 0)" d="M144 558L648 558L648 558L648 54L648 54L144 54z" /></clipPath><clipPath id="61"><path id="" clip-rule="evenodd" transform="matrix(1 0 0 1 0 0)" d="M144 558L648 558L648 558L648 54L648 54L144 54z" /></clipPath><clipPath id="62"><path id="" clip-rule="evenodd" transform="matrix(1 0 0 1 0 0)" d="M144 558L648 558L648 558L648 54L648 54L144 54z" /></clipPath><clipPath id="63"><path id="" clip-rule="evenodd" transform="matrix(1 0 0 1 0 0)" d="M144 558L648 558L648 558L648 54L648 54L144 54z" /></clipPath><clipPath id="64"><path id="" clip-rule="evenodd" transform="matrix(1 0 0 1 0 0)" d="M144 558L648 558L648 558L648 54L648 54L144 54z" /></clipPath><clipPath id="65"><path id="" clip-rule="evenodd" transform="matrix(1 0 0 1 0 0)" d="M144 558L648 558L648 558L648 54L648 54L144 54z" /></clipPath><clipPath id="66"><path id="" clip-rule="evenodd" transform="matrix(1 0 0 1 0 0)" d="M144 558L648 558L648 558L648 54L648 54L144 54z" /></clipPath><clipPath id="67"><path id="" clip-rule="evenodd" transform="matrix(1 0 0 1 0 0)" d="M144 558L648 558L648 558L648 54L648 54L144 54z" /></clipPath><clipPath id="68"><path id="" clip-rule="evenodd" transform="matrix(1 0 0 1 0 0)" d="M144 558L648 558L648 558L648 54L648 54L144 54z" /></clipPath><clipPath id="69"><path id="" clip-rule="evenodd" transform="matrix(1 0 0 1 0 0)" d="M144 558L648 558L648 558L648 54L648 54L144 54z" /></clipPath><clipPath id="70"><path id="" clip-rule="evenodd" transform="matrix(1 0 0 1 0 0)" d="M144 558L648 558L648 558L648 54L648 54L144 54z" /></clipPath><clipPath id="71"><path id="" clip-rule="evenodd" transform="matrix(1 0 0 1 0 0)" d="M144 558L648 558L648 558L648 54L648 54L144 54z" /></clipPath><clipPath id="72"><path id="" clip-rule="evenodd" transform="matrix(1 0 0 1 0 0)" d="M144 558L648 558L648 558L648 54L648 54L144 54z" /></clipPath><clipPath id="73"><path id="" clip-rule="evenodd" transform="matrix(1 0 0 1 0 0)" d="M144 558L648 558L648 558L648 54L648 54L144 54z" /></clipPath><clipPath id="74"><path id="" clip-rule="evenodd" transform="matrix(1 0 0 1 0 0)" d="M144 558L648 558L648 558L648 54L648 54L144 54z" /></clipPath><clipPath id="75"><path id="" clip-rule="evenodd" transform="matrix(1 0 0 1 0 0)" d="M144 558L648 558L648 558L648 54L648 54L144 54z" /></clipPath><clipPath id="76"><path id="" clip-rule="evenodd" transform="matrix(1 0 0 1 0 0)" d="M144 558L648 558L648 558L648 54L648 54L144 54z" /></clipPath><clipPath id="77"><path id="" clip-rule="evenodd" transform="matrix(1 0 0 1 0 0)" d="M144 558L648 558L648 558L648 54L648 54L144 54z" /></clipPath><clipPath id="78"><path id="" clip-rule="evenodd" transform="matrix(1 0 0 1 0 0)" d="M144 558L648 558L648 558L648 54L648 54L144 54z" /></clipPath><clipPath id="79"><path id="" clip-rule="evenodd" transform="matrix(1 0 0 1 0 0)" d="M144 558L648 558L648 558L648 54L648 54L144 54z" /></clipPath><clipPath id="80"><path id="" clip-rule="evenodd" transform="matrix(1 0 0 1 0 0)" d="M144 558L648 558L648 558L648 54L648 54L144 54z" /></clipPath><clipPath id="81"><path id="" clip-rule="evenodd" transform="matrix(1 0 0 1 0 0)" d="M144 558L648 558L648 558L648 54L648 54L144 54z" /></clipPath><clipPath id="82"><path id="" clip-rule="evenodd" transform="matrix(1 0 0 1 0 0)" d="M144 558L648 558L648 558L648 54L648 54L144 54z" /></clipPath><clipPath id="83"><path id="" clip-rule="evenodd" transform="matrix(1 0 0 1 0 0)" d="M144 558L648 558L648 558L648 54L648 54L144 54z" /></clipPath><clipPath id="84"><path id="" clip-rule="evenodd" transform="matrix(1 0 0 1 0 0)" d="M144 558L648 558L648 558L648 54L648 54L144 54z" /></clipPath><clipPath id="85"><path id="" clip-rule="evenodd" transform="matrix(1 0 0 1 0 0)" d="M144 558L648 558L648 558L648 54L648 54L144 54z" /></clipPath><clipPath id="86"><path id="" clip-rule="evenodd" transform="matrix(1 0 0 1 0 0)" d="M144 558L648 558L648 558L648 54L648 54L144 54z" /></clipPath><clipPath id="87"><path id="" clip-rule="evenodd" transform="matrix(1 0 0 1 0 0)" d="M144 558L648 558L648 558L648 54L648 54L144 54z" /></clipPath><clipPath id="88"><path id="" clip-rule="evenodd" transform="matrix(1 0 0 1 0 0)" d="M144 558L648 558L648 558L648 54L648 54L144 54z" /></clipPath><clipPath id="89"><path id="" clip-rule="evenodd" transform="matrix(1 0 0 1 0 0)" d="M144 558L648 558L648 558L648 54L648 54L144 54z" /></clipPath><clipPath id="90"><path id="" clip-rule="evenodd" transform="matrix(1 0 0 1 0 0)" d="M144 558L648 558L648 558L648 54L648 54L144 54z" /></clipPath><clipPath id="91"><path id="" clip-rule="evenodd" transform="matrix(1 0 0 1 0 0)" d="M144 558L648 558L648 558L648 54L648 54L144 54z" /></clipPath><clipPath id="92"><path id="" clip-rule="evenodd" transform="matrix(1 0 0 1 0 0)" d="M144 558L648 558L648 558L648 54L648 54L144 54z" /></clipPath><clipPath id="93"><path id="" clip-rule="evenodd" transform="matrix(1 0 0 1 0 0)" d="M144 558L648 558L648 558L648 54L648 54L144 54z" /></clipPath><clipPath id="94"><path id="" clip-rule="evenodd" transform="matrix(1 0 0 1 0 0)" d="M144 558L648 558L648 558L648 54L648 54L144 54z" /></clipPath><clipPath id="95"><path id="" clip-rule="evenodd" transform="matrix(1 0 0 1 0 0)" d="M144 558L648 558L648 558L648 54L648 54L144 54z" /></clipPath><clipPath id="96"><path id="" clip-rule="evenodd" transform="matrix(1 0 0 1 0 0)" d="M144 558L648 558L648 558L648 54L648 54L144 54z" /></clipPath><clipPath id="97"><path id="" clip-rule="evenodd" transform="matrix(1 0 0 1 0 0)" d="M144 558L648 558L648 558L648 54L648 54L144 54z" /></clipPath><clipPath id="98"><path id="" clip-rule="evenodd" transform="matrix(1 0 0 1 0 0)" d="M144 558L648 558L648 558L648 54L648 54L144 54z" /></clipPath><clipPath id="99"><path id="" clip-rule="evenodd" transform="matrix(1 0 0 1 0 0)" d="M144 558L648 558L648 558L648 54L648 54L144 54z" /></clipPath><clipPath id="100"><path id="" clip-rule="evenodd" transform="matrix(1 0 0 1 0 0)" d="M144 558L648 558L648 558L648 54L648 54L144 54z" /></clipPath><clipPath id="101"><path id="" clip-rule="evenodd" transform="matrix(1 0 0 1 0 0)" d="M144 558L648 558L648 558L648 54L648 54L144 54z" /></clipPath><clipPath id="102"><path id="" clip-rule="evenodd" transform="matrix(1 0 0 1 0 0)" d="M144 558L648 558L648 558L648 54L648 54L144 54z" /></clipPath><clipPath id="103"><path id="" clip-rule="evenodd" transform="matrix(1 0 0 1 0 0)" d="M144 558L648 558L648 558L648 54L648 54L144 54z" /></clipPath><clipPath id="104"><path id="" clip-rule="evenodd" transform="matrix(1 0 0 1 0 0)" d="M144 558L648 558L648 558L648 54L648 54L144 54z" /></clipPath><clipPath id="105"><path id="" clip-rule="evenodd" transform="matrix(1 0 0 1 0 0)" d="M144 558L648 558L648 558L648 54L648 54L144 54z" /></clipPath><clipPath id="106"><path id="" clip-rule="evenodd" transform="matrix(1 0 0 1 0 0)" d="M144 558L648 558L648 558L648 54L648 54L144 54z" /></clipPath><clipPath id="107"><path id="" clip-rule="evenodd" transform="matrix(1 0 0 1 0 0)" d="M144 558L648 558L648 558L648 54L648 54L144 54z" /></clipPath><clipPath id="108"><path id="" clip-rule="evenodd" transform="matrix(1 0 0 1 0 0)" d="M144 558L648 558L648 558L648 54L648 54L144 54z" /></clipPath><clipPath id="109"><path id="" clip-rule="evenodd" transform="matrix(1 0 0 1 0 0)" d="M144 558L648 558L648 558L648 54L648 54L144 54z" /></clipPath><clipPath id="110"><path id="" clip-rule="evenodd" transform="matrix(1 0 0 1 0 0)" d="M144 558L648 558L648 558L648 54L648 54L144 54z" /></clipPath><clipPath id="111"><path id="" clip-rule="evenodd" transform="matrix(1 0 0 1 0 0)" d="M144 558L648 558L648 558L648 54L648 54L144 54z" /></clipPath><clipPath id="112"><path id="" clip-rule="evenodd" transform="matrix(1 0 0 1 0 0)" d="M144 558L648 558L648 558L648 54L648 54L144 54z" /></clipPath><clipPath id="113"><path id="" clip-rule="evenodd" transform="matrix(1 0 0 1 0 0)" d="M144 558L648 558L648 558L648 54L648 54L144 54z" /></clipPath><clipPath id="114"><path id="" clip-rule="evenodd" transform="matrix(1 0 0 1 0 0)" d="M144 558L648 558L648 558L648 54L648 54L144 54z" /></clipPath><clipPath id="115"><path id="" clip-rule="evenodd" transform="matrix(1 0 0 1 0 0)" d="M144 558L648 558L648 558L648 54L648 54L144 54z" /></clipPath><clipPath id="116"><path id="" clip-rule="evenodd" transform="matrix(1 0 0 1 0 0)" d="M144 558L648 558L648 558L648 54L648 54L144 54z" /></clipPath><clipPath id="117"><path id="" clip-rule="evenodd" transform="matrix(1 0 0 1 0 0)" d="M144 558L648 558L648 558L648 54L648 54L144 54z" /></clipPath><clipPath id="118"><path id="" clip-rule="evenodd" transform="matrix(1 0 0 1 0 0)" d="M144 558L648 558L648 558L648 54L648 54L144 54z" /></clipPath><clipPath id="119"><path id="" clip-rule="evenodd" transform="matrix(1 0 0 1 0 0)" d="M144 558L648 558L648 558L648 54L648 54L144 54z" /></clipPath><clipPath id="120"><path id="" clip-rule="evenodd" transform="matrix(1 0 0 1 0 0)" d="M144 558L648 558L648 558L648 54L648 54L144 54z" /></clipPath><clipPath id="121"><path id="" clip-rule="evenodd" transform="matrix(1 0 0 1 0 0)" d="M144 558L648 558L648 558L648 54L648 54L144 54z" /></clipPath><clipPath id="122"><path id="" clip-rule="evenodd" transform="matrix(1 0 0 1 0 0)" d="M144 558L648 558L648 558L648 54L648 54L144 54z" /></clipPath><clipPath id="123"><path id="" clip-rule="evenodd" transform="matrix(1 0 0 1 0 0)" d="M144 558L648 558L648 558L648 54L648 54L144 54z" /></clipPath><clipPath id="124"><path id="" clip-rule="evenodd" transform="matrix(1 0 0 1 0 0)" d="M144 558L648 558L648 558L648 54L648 54L144 54z" /></clipPath><clipPath id="125"><path id="" clip-rule="evenodd" transform="matrix(1 0 0 1 0 0)" d="M144 558L648 558L648 558L648 54L648 54L144 54z" /></clipPath><clipPath id="126"><path id="" clip-rule="evenodd" transform="matrix(1 0 0 1 0 0)" d="M144 558L648 558L648 558L648 54L648 54L144 54z" /></clipPath><clipPath id="127"><path id="" clip-rule="evenodd" transform="matrix(1 0 0 1 0 0)" d="M144 558L648 558L648 558L648 54L648 54L144 54z" /></clipPath><clipPath id="128"><path id="" clip-rule="evenodd" transform="matrix(1 0 0 1 0 0)" d="M144 558L648 558L648 558L648 54L648 54L144 54z" /></clipPath><clipPath id="129"><path id="" clip-rule="evenodd" transform="matrix(1 0 0 1 0 0)" d="M144 558L648 558L648 558L648 54L648 54L144 54z" /></clipPath><clipPath id="130"><path id="" clip-rule="evenodd" transform="matrix(1 0 0 1 0 0)" d="M144 558L648 558L648 558L648 54L648 54L144 54z" /></clipPath><clipPath id="131"><path id="" clip-rule="evenodd" transform="matrix(1 0 0 1 0 0)" d="M144 558L648 558L648 558L648 54L648 54L144 54z" /></clipPath><clipPath id="132"><path id="" clip-rule="evenodd" transform="matrix(1 0 0 1 0 0)" d="M144 558L648 558L648 558L648 54L648 54L144 54z" /></clipPath><clipPath id="133"><path id="" clip-rule="evenodd" transform="matrix(1 0 0 1 0 0)" d="M144 558L648 558L648 558L648 54L648 54L144 54z" /></clipPath><clipPath id="134"><path id="" clip-rule="evenodd" transform="matrix(1 0 0 1 0 0)" d="M144 558L648 558L648 558L648 54L648 54L144 54z" /></clipPath><clipPath id="135"><path id="" clip-rule="evenodd" transform="matrix(1 0 0 1 0 0)" d="M144 558L648 558L648 558L648 54L648 54L144 54z" /></clipPath><clipPath id="136"><path id="" clip-rule="evenodd" transform="matrix(1 0 0 1 0 0)" d="M144 558L648 558L648 558L648 54L648 54L144 54z" /></clipPath><clipPath id="137"><path id="" clip-rule="evenodd" transform="matrix(1 0 0 1 0 0)" d="M144 558L648 558L648 558L648 54L648 54L144 54z" /></clipPath><clipPath id="138"><path id="" clip-rule="evenodd" transform="matrix(1 0 0 1 0 0)" d="M144 558L648 558L648 558L648 54L648 54L144 54z" /></clipPath><clipPath id="139"><path id="" clip-rule="evenodd" transform="matrix(1 0 0 1 0 0)" d="M144 558L648 558L648 558L648 54L648 54L144 54z" /></clipPath><clipPath id="140"><path id="" clip-rule="evenodd" transform="matrix(1 0 0 1 0 0)" d="M144 558L648 558L648 558L648 54L648 54L144 54z" /></clipPath><clipPath id="141"><path id="" clip-rule="evenodd" transform="matrix(1 0 0 1 0 0)" d="M144 558L648 558L648 558L648 54L648 54L144 54z" /></clipPath><clipPath id="142"><path id="" clip-rule="evenodd" transform="matrix(1 0 0 1 0 0)" d="M144 558L648 558L648 558L648 54L648 54L144 54z" /></clipPath><clipPath id="143"><path id="" clip-rule="evenodd" transform="matrix(1 0 0 1 0 0)" d="M144 558L648 558L648 558L648 54L648 54L144 54z" /></clipPath><clipPath id="144"><path id="" clip-rule="evenodd" transform="matrix(1 0 0 1 0 0)" d="M144 558L648 558L648 558L648 54L648 54L144 54z" /></clipPath><clipPath id="145"><path id="" clip-rule="evenodd" transform="matrix(1 0 0 1 0 0)" d="M144 558L648 558L648 558L648 54L648 54L144 54z" /></clipPath><clipPath id="146"><path id="" clip-rule="evenodd" transform="matrix(1 0 0 1 0 0)" d="M144 558L648 558L648 558L648 54L648 54L144 54z" /></clipPath><clipPath id="147"><path id="" clip-rule="evenodd" transform="matrix(1 0 0 1 0 0)" d="M144 558L648 558L648 558L648 54L648 54L144 54z" /></clipPath><clipPath id="148"><path id="" clip-rule="evenodd" transform="matrix(1 0 0 1 0 0)" d="M144 558L648 558L648 558L648 54L648 54L144 54z" /></clipPath><clipPath id="149"><path id="" clip-rule="evenodd" transform="matrix(1 0 0 1 0 0)" d="M144 558L648 558L648 558L648 54L648 54L144 54z" /></clipPath><clipPath id="150"><path id="" clip-rule="evenodd" transform="matrix(1 0 0 1 0 0)" d="M144 558L648 558L648 558L648 54L648 54L144 54z" /></clipPath><clipPath id="151"><path id="" clip-rule="evenodd" transform="matrix(1 0 0 1 0 0)" d="M144 558L648 558L648 558L648 54L648 54L144 54z" /></clipPath><clipPath id="152"><path id="" clip-rule="evenodd" transform="matrix(1 0 0 1 0 0)" d="M144 558L648 558L648 558L648 54L648 54L144 54z" /></clipPath><clipPath id="153"><path id="" clip-rule="evenodd" transform="matrix(1 0 0 1 0 0)" d="M144 558L648 558L648 558L648 54L648 54L144 54z" /></clipPath><clipPath id="154"><path id="" clip-rule="evenodd" transform="matrix(1 0 0 1 0 0)" d="M144 558L648 558L648 558L648 54L648 54L144 54z" /></clipPath><clipPath id="155"><path id="" clip-rule="evenodd" transform="matrix(1 0 0 1 0 0)" d="M144 558L648 558L648 558L648 54L648 54L144 54z" /></clipPath><clipPath id="156"><path id="" clip-rule="evenodd" transform="matrix(1 0 0 1 0 0)" d="M144 558L648 558L648 558L648 54L648 54L144 54z" /></clipPath><clipPath id="157"><path id="" clip-rule="evenodd" transform="matrix(1 0 0 1 0 0)" d="M144 558L648 558L648 558L648 54L648 54L144 54z" /></clipPath><clipPath id="158"><path id="" clip-rule="evenodd" transform="matrix(1 0 0 1 0 0)" d="M144 558L648 558L648 558L648 54L648 54L144 54z" /></clipPath><clipPath id="159"><path id="" clip-rule="evenodd" transform="matrix(1 0 0 1 0 0)" d="M144 558L648 558L648 558L648 54L648 54L144 54z" /></clipPath></defs><g transform="matrix(1.333333 0 0 1.333333 0 0)"><g clip-path="url(#1)"><g clip-path="url(#2)"></g><g clip-path="url(#3)"></g><g clip-path="url(#4)"></g><g clip-path="url(#5)"></g><g clip-path="url(#6)"></g><g clip-path="url(#7)"></g><g clip-path="url(#8)"></g><g clip-path="url(#9)"></g><g clip-path="url(#10)"></g><g clip-path="url(#11)"></g><g clip-path="url(#12)"></g><g clip-path="url(#13)"></g><g clip-path="url(#14)"></g><g clip-path="url(#15)"></g><g clip-path="url(#16)"></g><g clip-path="url(#17)"><path id="1" transform="matrix(1 0 0 -1 0 612)" d="M144 54L648 54L648 54L648 558L648 558L144 558z" stroke="#FFFFFF" stroke-width="1.07" fill="#FFFFFF" fill-rule="nonzero" /></g><g clip-path="url(#18)"></g><g clip-path="url(#19)"><path id="2" transform="matrix(1 0 0 -1 0 612)" d="M197.16 328.64L394.99 328.64L394.99 535.31L197.16 535.31z" stroke="none" fill="#EBEBEB" fill-rule="nonzero" /><path id="3" transform="matrix(1 0 0 -1 0 612)" d="M227.07 328.64L227.07 535.31" stroke="#FFFFFF" stroke-width="0.53" fill="none" /><path id="4" transform="matrix(1 0 0 -1 0 612)" d="M268.89 328.64L268.89 535.31" stroke="#FFFFFF" stroke-width="0.53" fill="none" /><path id="5" transform="matrix(1 0 0 -1 0 612)" d="M310.72 328.64L310.72 535.31" stroke="#FFFFFF" stroke-width="0.53" fill="none" /><path id="6" transform="matrix(1 0 0 -1 0 612)" d="M352.55 328.64L352.55 535.31" stroke="#FFFFFF" stroke-width="0.53" fill="none" /><path id="7" transform="matrix(1 0 0 -1 0 612)" d="M394.37 328.64L394.37 535.31" stroke="#FFFFFF" stroke-width="0.53" fill="none" /><path id="8" transform="matrix(1 0 0 -1 0 612)" d="M197.16 340.8L394.99 340.8" stroke="#FFFFFF" stroke-width="1.07" fill="none" /><path id="9" transform="matrix(1 0 0 -1 0 612)" d="M197.16 361.06L394.99 361.06" stroke="#FFFFFF" stroke-width="1.07" fill="none" /><path id="10" transform="matrix(1 0 0 -1 0 612)" d="M197.16 381.32L394.99 381.32" stroke="#FFFFFF" stroke-width="1.07" fill="none" /><path id="11" transform="matrix(1 0 0 -1 0 612)" d="M197.16 401.58L394.99 401.58" stroke="#FFFFFF" stroke-width="1.07" fill="none" /><path id="12" transform="matrix(1 0 0 -1 0 612)" d="M197.16 421.85L394.99 421.85" stroke="#FFFFFF" stroke-width="1.07" fill="none" /><path id="13" transform="matrix(1 0 0 -1 0 612)" d="M197.16 442.11L394.99 442.11" stroke="#FFFFFF" stroke-width="1.07" fill="none" /><path id="14" transform="matrix(1 0 0 -1 0 612)" d="M197.16 462.37L394.99 462.37" stroke="#FFFFFF" stroke-width="1.07" fill="none" /><path id="15" transform="matrix(1 0 0 -1 0 612)" d="M197.16 482.63L394.99 482.63" stroke="#FFFFFF" stroke-width="1.07" fill="none" /><path id="16" transform="matrix(1 0 0 -1 0 612)" d="M197.16 502.89L394.99 502.89" stroke="#FFFFFF" stroke-width="1.07" fill="none" /><path id="17" transform="matrix(1 0 0 -1 0 612)" d="M197.16 523.15L394.99 523.15" stroke="#FFFFFF" stroke-width="1.07" fill="none" /><path id="18" transform="matrix(1 0 0 -1 0 612)" d="M206.15 328.64L206.15 535.31" stroke="#FFFFFF" stroke-width="1.07" fill="none" /><path id="19" transform="matrix(1 0 0 -1 0 612)" d="M247.98 328.64L247.98 535.31" stroke="#FFFFFF" stroke-width="1.07" fill="none" /><path id="20" transform="matrix(1 0 0 -1 0 612)" d="M289.81 328.64L289.81 535.31" stroke="#FFFFFF" stroke-width="1.07" fill="none" /><path id="21" transform="matrix(1 0 0 -1 0 612)" d="M331.63 328.64L331.63 535.31" stroke="#FFFFFF" stroke-width="1.07" fill="none" /><path id="22" transform="matrix(1 0 0 -1 0 612)" d="M373.46 328.64L373.46 535.31" stroke="#FFFFFF" stroke-width="1.07" fill="none" /><path id="23" transform="matrix(1 0 0 -1 0 612)" d="M206.15 514.04L386 514.04L386 532.28L206.15 532.28z" stroke="none" fill="#F8766C" fill-rule="nonzero" /><path id="24" transform="matrix(1 0 0 -1 0 612)" d="M206.15 473.51L246.86 473.51L246.86 491.75L206.15 491.75z" stroke="none" fill="#F8766C" fill-rule="nonzero" /><path id="25" transform="matrix(1 0 0 -1 0 612)" d="M206.15 493.77L229.59 493.77L229.59 512.01L206.15 512.01z" stroke="none" fill="#F8766C" fill-rule="nonzero" /><path id="26" transform="matrix(1 0 0 -1 0 612)" d="M206.15 453.25L217.66 453.25L217.66 471.49L206.15 471.49z" stroke="none" fill="#F8766C" fill-rule="nonzero" /><path id="27" transform="matrix(1 0 0 -1 0 612)" d="M206.15 412.73L213.85 412.73L213.85 430.97L206.15 430.97z" stroke="none" fill="#F8766C" fill-rule="nonzero" /><path id="28" transform="matrix(1 0 0 -1 0 612)" d="M206.15 372.2L213.52 372.2L213.52 390.44L206.15 390.44z" stroke="none" fill="#F8766C" fill-rule="nonzero" /><path id="29" transform="matrix(1 0 0 -1 0 612)" d="M206.15 392.47L213.15 392.47L213.15 410.71L206.15 410.71z" stroke="none" fill="#F8766C" fill-rule="nonzero" /><path id="30" transform="matrix(1 0 0 -1 0 612)" d="M206.15 351.94L212.85 351.94L212.85 370.18L206.15 370.18z" stroke="none" fill="#F8766C" fill-rule="nonzero" /><path id="31" transform="matrix(1 0 0 -1 0 612)" d="M206.15 331.68L210.88 331.68L210.88 349.92L206.15 349.92z" stroke="none" fill="#F8766C" fill-rule="nonzero" /><path id="32" transform="matrix(1 0 0 -1 0 612)" d="M206.15 432.99L210.84 432.99L210.84 451.23L206.15 451.23z" stroke="none" fill="#F8766C" fill-rule="nonzero" /></g><g clip-path="url(#20)"></g><g clip-path="url(#21)"><path id="33" transform="matrix(1 0 0 -1 0 612)" d="M197.16 85.91L394.99 85.91L394.99 292.58L197.16 292.58z" stroke="none" fill="#EBEBEB" fill-rule="nonzero" /><path id="34" transform="matrix(1 0 0 -1 0 612)" d="M236.97 85.91L236.97 292.58" stroke="#FFFFFF" stroke-width="0.53" fill="none" /><path id="35" transform="matrix(1 0 0 -1 0 612)" d="M298.6 85.91L298.6 292.58" stroke="#FFFFFF" stroke-width="0.53" fill="none" /><path id="36" transform="matrix(1 0 0 -1 0 612)" d="M360.24 85.91L360.24 292.58" stroke="#FFFFFF" stroke-width="0.53" fill="none" /><path id="37" transform="matrix(1 0 0 -1 0 612)" d="M197.16 98.07L394.99 98.07" stroke="#FFFFFF" stroke-width="1.07" fill="none" /><path id="38" transform="matrix(1 0 0 -1 0 612)" d="M197.16 118.33L394.99 118.33" stroke="#FFFFFF" stroke-width="1.07" fill="none" /><path id="39" transform="matrix(1 0 0 -1 0 612)" d="M197.16 138.59L394.99 138.59" stroke="#FFFFFF" stroke-width="1.07" fill="none" /><path id="40" transform="matrix(1 0 0 -1 0 612)" d="M197.16 158.85L394.99 158.85" stroke="#FFFFFF" stroke-width="1.07" fill="none" /><path id="41" transform="matrix(1 0 0 -1 0 612)" d="M197.16 179.11L394.99 179.11" stroke="#FFFFFF" stroke-width="1.07" fill="none" /><path id="42" transform="matrix(1 0 0 -1 0 612)" d="M197.16 199.38L394.99 199.38" stroke="#FFFFFF" stroke-width="1.07" fill="none" /><path id="43" transform="matrix(1 0 0 -1 0 612)" d="M197.16 219.64L394.99 219.64" stroke="#FFFFFF" stroke-width="1.07" fill="none" /><path id="44" transform="matrix(1 0 0 -1 0 612)" d="M197.16 239.9L394.99 239.9" stroke="#FFFFFF" stroke-width="1.07" fill="none" /><path id="45" transform="matrix(1 0 0 -1 0 612)" d="M197.16 260.16L394.99 260.16" stroke="#FFFFFF" stroke-width="1.07" fill="none" /><path id="46" transform="matrix(1 0 0 -1 0 612)" d="M197.16 280.42L394.99 280.42" stroke="#FFFFFF" stroke-width="1.07" fill="none" /><path id="47" transform="matrix(1 0 0 -1 0 612)" d="M206.15 85.91L206.15 292.58" stroke="#FFFFFF" stroke-width="1.07" fill="none" /><path id="48" transform="matrix(1 0 0 -1 0 612)" d="M267.79 85.91L267.79 292.58" stroke="#FFFFFF" stroke-width="1.07" fill="none" /><path id="49" transform="matrix(1 0 0 -1 0 612)" d="M329.42 85.91L329.42 292.58" stroke="#FFFFFF" stroke-width="1.07" fill="none" /><path id="50" transform="matrix(1 0 0 -1 0 612)" d="M391.06 85.91L391.06 292.58" stroke="#FFFFFF" stroke-width="1.07" fill="none" /><path id="51" transform="matrix(1 0 0 -1 0 612)" d="M206.15 271.31L386 271.31L386 289.55L206.15 289.55z" stroke="none" fill="#00BEC4" fill-rule="nonzero" /><path id="52" transform="matrix(1 0 0 -1 0 612)" d="M206.15 251.04L256.14 251.04L256.14 269.28L206.15 269.28z" stroke="none" fill="#00BEC4" fill-rule="nonzero" /><path id="53" transform="matrix(1 0 0 -1 0 612)" d="M206.15 210.52L228.12 210.52L228.12 228.76L206.15 228.76z" stroke="none" fill="#00BEC4" fill-rule="nonzero" /><path id="54" transform="matrix(1 0 0 -1 0 612)" d="M206.15 190.26L220.88 190.26L220.88 208.5L206.15 208.5z" stroke="none" fill="#00BEC4" fill-rule="nonzero" /><path id="55" transform="matrix(1 0 0 -1 0 612)" d="M206.15 170L215.44 170L215.44 188.24L206.15 188.24z" stroke="none" fill="#00BEC4" fill-rule="nonzero" /><path id="56" transform="matrix(1 0 0 -1 0 612)" d="M206.15 230.78L215.3 230.78L215.3 249.02L206.15 249.02z" stroke="none" fill="#00BEC4" fill-rule="nonzero" /><path id="57" transform="matrix(1 0 0 -1 0 612)" d="M206.15 129.47L212.97 129.47L212.97 147.71L206.15 147.71z" stroke="none" fill="#00BEC4" fill-rule="nonzero" /><path id="58" transform="matrix(1 0 0 -1 0 612)" d="M206.15 149.74L212.82 149.74L212.82 167.98L206.15 167.98z" stroke="none" fill="#00BEC4" fill-rule="nonzero" /><path id="59" transform="matrix(1 0 0 -1 0 612)" d="M206.15 109.21L212.16 109.21L212.16 127.45L206.15 127.45z" stroke="none" fill="#00BEC4" fill-rule="nonzero" /><path id="60" transform="matrix(1 0 0 -1 0 612)" d="M206.15 88.95L211.66 88.95L211.66 107.19L206.15 107.19z" stroke="none" fill="#00BEC4" fill-rule="nonzero" /></g><g clip-path="url(#22)"></g><g clip-path="url(#23)"><path id="61" transform="matrix(1 0 0 -1 0 612)" d="M444.69 328.64L642.52 328.64L642.52 535.31L444.69 535.31z" stroke="none" fill="#EBEBEB" fill-rule="nonzero" /><path id="62" transform="matrix(1 0 0 -1 0 612)" d="M472.19 328.64L472.19 535.31" stroke="#FFFFFF" stroke-width="0.53" fill="none" /><path id="63" transform="matrix(1 0 0 -1 0 612)" d="M509.19 328.64L509.19 535.31" stroke="#FFFFFF" stroke-width="0.53" fill="none" /><path id="64" transform="matrix(1 0 0 -1 0 612)" d="M546.2 328.64L546.2 535.31" stroke="#FFFFFF" stroke-width="0.53" fill="none" /><path id="65" transform="matrix(1 0 0 -1 0 612)" d="M583.21 328.64L583.21 535.31" stroke="#FFFFFF" stroke-width="0.53" fill="none" /><path id="66" transform="matrix(1 0 0 -1 0 612)" d="M620.22 328.64L620.22 535.31" stroke="#FFFFFF" stroke-width="0.53" fill="none" /><path id="67" transform="matrix(1 0 0 -1 0 612)" d="M444.69 340.8L642.52 340.8" stroke="#FFFFFF" stroke-width="1.07" fill="none" /><path id="68" transform="matrix(1 0 0 -1 0 612)" d="M444.69 361.06L642.52 361.06" stroke="#FFFFFF" stroke-width="1.07" fill="none" /><path id="69" transform="matrix(1 0 0 -1 0 612)" d="M444.69 381.32L642.52 381.32" stroke="#FFFFFF" stroke-width="1.07" fill="none" /><path id="70" transform="matrix(1 0 0 -1 0 612)" d="M444.69 401.58L642.52 401.58" stroke="#FFFFFF" stroke-width="1.07" fill="none" /><path id="71" transform="matrix(1 0 0 -1 0 612)" d="M444.69 421.85L642.52 421.85" stroke="#FFFFFF" stroke-width="1.07" fill="none" /><path id="72" transform="matrix(1 0 0 -1 0 612)" d="M444.69 442.11L642.52 442.11" stroke="#FFFFFF" stroke-width="1.07" fill="none" /><path id="73" transform="matrix(1 0 0 -1 0 612)" d="M444.69 462.37L642.52 462.37" stroke="#FFFFFF" stroke-width="1.07" fill="none" /><path id="74" transform="matrix(1 0 0 -1 0 612)" d="M444.69 482.63L642.52 482.63" stroke="#FFFFFF" stroke-width="1.07" fill="none" /><path id="75" transform="matrix(1 0 0 -1 0 612)" d="M444.69 502.89L642.52 502.89" stroke="#FFFFFF" stroke-width="1.07" fill="none" /><path id="76" transform="matrix(1 0 0 -1 0 612)" d="M444.69 523.15L642.52 523.15" stroke="#FFFFFF" stroke-width="1.07" fill="none" /><path id="77" transform="matrix(1 0 0 -1 0 612)" d="M453.68 328.64L453.68 535.31" stroke="#FFFFFF" stroke-width="1.07" fill="none" /><path id="78" transform="matrix(1 0 0 -1 0 612)" d="M490.69 328.64L490.69 535.31" stroke="#FFFFFF" stroke-width="1.07" fill="none" /><path id="79" transform="matrix(1 0 0 -1 0 612)" d="M527.7 328.64L527.7 535.31" stroke="#FFFFFF" stroke-width="1.07" fill="none" /><path id="80" transform="matrix(1 0 0 -1 0 612)" d="M564.71 328.64L564.71 535.31" stroke="#FFFFFF" stroke-width="1.07" fill="none" /><path id="81" transform="matrix(1 0 0 -1 0 612)" d="M601.71 328.64L601.71 535.31" stroke="#FFFFFF" stroke-width="1.07" fill="none" /><path id="82" transform="matrix(1 0 0 -1 0 612)" d="M638.72 328.64L638.72 535.31" stroke="#FFFFFF" stroke-width="1.07" fill="none" /><path id="83" transform="matrix(1 0 0 -1 0 612)" d="M453.68 473.51L633.53 473.51L633.53 491.75L453.68 491.75z" stroke="none" fill="#7CAE00" fill-rule="nonzero" /><path id="84" transform="matrix(1 0 0 -1 0 612)" d="M453.68 493.77L569.66 493.77L569.66 512.01L453.68 512.01z" stroke="none" fill="#7CAE00" fill-rule="nonzero" /><path id="85" transform="matrix(1 0 0 -1 0 612)" d="M453.68 514.04L538.73 514.04L538.73 532.28L453.68 532.28z" stroke="none" fill="#7CAE00" fill-rule="nonzero" /><path id="86" transform="matrix(1 0 0 -1 0 612)" d="M453.68 453.25L535.25 453.25L535.25 471.49L453.68 471.49z" stroke="none" fill="#7CAE00" fill-rule="nonzero" /><path id="87" transform="matrix(1 0 0 -1 0 612)" d="M453.68 432.99L513.4 432.99L513.4 451.23L453.68 451.23z" stroke="none" fill="#7CAE00" fill-rule="nonzero" /><path id="88" transform="matrix(1 0 0 -1 0 612)" d="M453.68 412.73L503.71 412.73L503.71 430.97L453.68 430.97z" stroke="none" fill="#7CAE00" fill-rule="nonzero" /><path id="89" transform="matrix(1 0 0 -1 0 612)" d="M453.68 372.2L480.78 372.2L480.78 390.44L453.68 390.44z" stroke="none" fill="#7CAE00" fill-rule="nonzero" /><path id="90" transform="matrix(1 0 0 -1 0 612)" d="M453.68 392.47L476.64 392.47L476.64 410.71L453.68 410.71z" stroke="none" fill="#7CAE00" fill-rule="nonzero" /><path id="91" transform="matrix(1 0 0 -1 0 612)" d="M453.68 351.94L476.41 351.94L476.41 370.18L453.68 370.18z" stroke="none" fill="#7CAE00" fill-rule="nonzero" /><path id="92" transform="matrix(1 0 0 -1 0 612)" d="M453.68 331.68L472.22 331.68L472.22 349.92L453.68 349.92z" stroke="none" fill="#7CAE00" fill-rule="nonzero" /></g><g clip-path="url(#24)"></g><g clip-path="url(#25)"><path id="93" transform="matrix(1 0 0 -1 0 612)" d="M444.69 85.91L642.52 85.91L642.52 292.58L444.69 292.58z" stroke="none" fill="#EBEBEB" fill-rule="nonzero" /><path id="94" transform="matrix(1 0 0 -1 0 612)" d="M476.67 85.91L476.67 292.58" stroke="#FFFFFF" stroke-width="0.53" fill="none" /><path id="95" transform="matrix(1 0 0 -1 0 612)" d="M522.65 85.91L522.65 292.58" stroke="#FFFFFF" stroke-width="0.53" fill="none" /><path id="96" transform="matrix(1 0 0 -1 0 612)" d="M568.63 85.91L568.63 292.58" stroke="#FFFFFF" stroke-width="0.53" fill="none" /><path id="97" transform="matrix(1 0 0 -1 0 612)" d="M614.61 85.91L614.61 292.58" stroke="#FFFFFF" stroke-width="0.53" fill="none" /><path id="98" transform="matrix(1 0 0 -1 0 612)" d="M444.69 98.07L642.52 98.07" stroke="#FFFFFF" stroke-width="1.07" fill="none" /><path id="99" transform="matrix(1 0 0 -1 0 612)" d="M444.69 118.33L642.52 118.33" stroke="#FFFFFF" stroke-width="1.07" fill="none" /><path id="100" transform="matrix(1 0 0 -1 0 612)" d="M444.69 138.59L642.52 138.59" stroke="#FFFFFF" stroke-width="1.07" fill="none" /><path id="101" transform="matrix(1 0 0 -1 0 612)" d="M444.69 158.85L642.52 158.85" stroke="#FFFFFF" stroke-width="1.07" fill="none" /><path id="102" transform="matrix(1 0 0 -1 0 612)" d="M444.69 179.11L642.52 179.11" stroke="#FFFFFF" stroke-width="1.07" fill="none" /><path id="103" transform="matrix(1 0 0 -1 0 612)" d="M444.69 199.38L642.52 199.38" stroke="#FFFFFF" stroke-width="1.07" fill="none" /><path id="104" transform="matrix(1 0 0 -1 0 612)" d="M444.69 219.64L642.52 219.64" stroke="#FFFFFF" stroke-width="1.07" fill="none" /><path id="105" transform="matrix(1 0 0 -1 0 612)" d="M444.69 239.9L642.52 239.9" stroke="#FFFFFF" stroke-width="1.07" fill="none" /><path id="106" transform="matrix(1 0 0 -1 0 612)" d="M444.69 260.16L642.52 260.16" stroke="#FFFFFF" stroke-width="1.07" fill="none" /><path id="107" transform="matrix(1 0 0 -1 0 612)" d="M444.69 280.42L642.52 280.42" stroke="#FFFFFF" stroke-width="1.07" fill="none" /><path id="108" transform="matrix(1 0 0 -1 0 612)" d="M453.68 85.91L453.68 292.58" stroke="#FFFFFF" stroke-width="1.07" fill="none" /><path id="109" transform="matrix(1 0 0 -1 0 612)" d="M499.66 85.91L499.66 292.58" stroke="#FFFFFF" stroke-width="1.07" fill="none" /><path id="110" transform="matrix(1 0 0 -1 0 612)" d="M545.64 85.91L545.64 292.58" stroke="#FFFFFF" stroke-width="1.07" fill="none" /><path id="111" transform="matrix(1 0 0 -1 0 612)" d="M591.62 85.91L591.62 292.58" stroke="#FFFFFF" stroke-width="1.07" fill="none" /><path id="112" transform="matrix(1 0 0 -1 0 612)" d="M637.6 85.91L637.6 292.58" stroke="#FFFFFF" stroke-width="1.07" fill="none" /><path id="113" transform="matrix(1 0 0 -1 0 612)" d="M453.68 251.04L633.53 251.04L633.53 269.28L453.68 269.28z" stroke="none" fill="#C77CFF" fill-rule="nonzero" /><path id="114" transform="matrix(1 0 0 -1 0 612)" d="M453.68 230.78L534.54 230.78L534.54 249.02L453.68 249.02z" stroke="none" fill="#C77CFF" fill-rule="nonzero" /><path id="115" transform="matrix(1 0 0 -1 0 612)" d="M453.68 210.52L478.95 210.52L478.95 228.76L453.68 228.76z" stroke="none" fill="#C77CFF" fill-rule="nonzero" /><path id="116" transform="matrix(1 0 0 -1 0 612)" d="M453.68 190.26L473.38 190.26L473.38 208.5L453.68 208.5z" stroke="none" fill="#C77CFF" fill-rule="nonzero" /><path id="117" transform="matrix(1 0 0 -1 0 612)" d="M453.68 271.31L472.32 271.31L472.32 289.55L453.68 289.55z" stroke="none" fill="#C77CFF" fill-rule="nonzero" /><path id="118" transform="matrix(1 0 0 -1 0 612)" d="M453.68 149.74L469.15 149.74L469.15 167.98L453.68 167.98z" stroke="none" fill="#C77CFF" fill-rule="nonzero" /><path id="119" transform="matrix(1 0 0 -1 0 612)" d="M453.68 109.21L467.01 109.21L467.01 127.45L453.68 127.45z" stroke="none" fill="#C77CFF" fill-rule="nonzero" /><path id="120" transform="matrix(1 0 0 -1 0 612)" d="M453.68 170L466.33 170L466.33 188.24L453.68 188.24z" stroke="none" fill="#C77CFF" fill-rule="nonzero" /><path id="121" transform="matrix(1 0 0 -1 0 612)" d="M453.68 129.47L465.8 129.47L465.8 147.71L453.68 147.71z" stroke="none" fill="#C77CFF" fill-rule="nonzero" /><path id="122" transform="matrix(1 0 0 -1 0 612)" d="M453.68 88.95L464.82 88.95L464.82 107.19L453.68 107.19z" stroke="none" fill="#C77CFF" fill-rule="nonzero" /></g><g clip-path="url(#26)"></g><g clip-path="url(#27)"></g><g clip-path="url(#28)"><path id="123" transform="matrix(1 0 0 -1 0 612)" d="M197.16 292.58L394.99 292.58L394.99 309.79L197.16 309.79z" stroke="none" fill="#D9D9D9" fill-rule="nonzero" /></g><g clip-path="url(#29)"></g><g clip-path="url(#30)"></g><g clip-path="url(#31)"></g><g clip-path="url(#32)"></g><g clip-path="url(#33)"><path id="125" transform="matrix(1 0 0 -1 0 612)" d="M444.69 292.58L642.52 292.58L642.52 309.79L444.69 309.79z" stroke="none" fill="#D9D9D9" fill-rule="nonzero" /></g><g clip-path="url(#34)"></g><g clip-path="url(#35)"></g><g clip-path="url(#36)"></g><g clip-path="url(#37)"></g><g clip-path="url(#38)"><path id="127" transform="matrix(1 0 0 -1 0 612)" d="M197.16 535.31L394.99 535.31L394.99 552.52L197.16 552.52z" stroke="none" fill="#D9D9D9" fill-rule="nonzero" /></g><g clip-path="url(#39)"></g><g clip-path="url(#40)"></g><g clip-path="url(#41)"></g><g clip-path="url(#42)"></g><g clip-path="url(#43)"><path id="129" transform="matrix(1 0 0 -1 0 612)" d="M444.69 535.31L642.52 535.31L642.52 552.52L444.69 552.52z" stroke="none" fill="#D9D9D9" fill-rule="nonzero" /></g><g clip-path="url(#44)"></g><g clip-path="url(#45)"></g><g clip-path="url(#46)"></g><g clip-path="url(#47)"></g><g clip-path="url(#48)"></g><g clip-path="url(#49)"></g><g clip-path="url(#50)"></g><g clip-path="url(#51)"></g><g clip-path="url(#52)"></g><g clip-path="url(#53)"></g><g clip-path="url(#54)"></g><g clip-path="url(#55)"></g><g clip-path="url(#56)"></g><g clip-path="url(#57)"></g><g clip-path="url(#58)"></g><g clip-path="url(#59)"><path id="131" transform="matrix(1 0 0 -1 0 612)" d="M206.15 83.17L206.15 85.91" stroke="#323232" stroke-width="1.07" fill="none" /><path id="132" transform="matrix(1 0 0 -1 0 612)" d="M267.79 83.17L267.79 85.91" stroke="#323232" stroke-width="1.07" fill="none" /><path id="133" transform="matrix(1 0 0 -1 0 612)" d="M329.42 83.17L329.42 85.91" stroke="#323232" stroke-width="1.07" fill="none" /><path id="134" transform="matrix(1 0 0 -1 0 612)" d="M391.06 83.17L391.06 85.91" stroke="#323232" stroke-width="1.07" fill="none" /></g><g clip-path="url(#60)"></g><g clip-path="url(#61)"></g><g clip-path="url(#62)"></g><g clip-path="url(#63)"></g><g clip-path="url(#64)"></g><g clip-path="url(#65)"></g><g clip-path="url(#66)"></g><g clip-path="url(#67)"></g><g clip-path="url(#68)"></g><g clip-path="url(#69)"><path id="151" transform="matrix(1 0 0 -1 0 612)" d="M453.68 83.17L453.68 85.91" stroke="#323232" stroke-width="1.07" fill="none" /><path id="152" transform="matrix(1 0 0 -1 0 612)" d="M499.66 83.17L499.66 85.91" stroke="#323232" stroke-width="1.07" fill="none" /><path id="153" transform="matrix(1 0 0 -1 0 612)" d="M545.64 83.17L545.64 85.91" stroke="#323232" stroke-width="1.07" fill="none" /><path id="154" transform="matrix(1 0 0 -1 0 612)" d="M591.62 83.17L591.62 85.91" stroke="#323232" stroke-width="1.07" fill="none" /><path id="155" transform="matrix(1 0 0 -1 0 612)" d="M637.6 83.17L637.6 85.91" stroke="#323232" stroke-width="1.07" fill="none" /></g><g clip-path="url(#70)"></g><g clip-path="url(#71)"></g><g clip-path="url(#72)"></g><g clip-path="url(#73)"></g><g clip-path="url(#74)"></g><g clip-path="url(#75)"></g><g clip-path="url(#76)"></g><g clip-path="url(#77)"></g><g clip-path="url(#78)"></g><g clip-path="url(#79)"><path id="176" transform="matrix(1 0 0 -1 0 612)" d="M206.15 325.9L206.15 328.64" stroke="#323232" stroke-width="1.07" fill="none" /><path id="177" transform="matrix(1 0 0 -1 0 612)" d="M247.98 325.9L247.98 328.64" stroke="#323232" stroke-width="1.07" fill="none" /><path id="178" transform="matrix(1 0 0 -1 0 612)" d="M289.81 325.9L289.81 328.64" stroke="#323232" stroke-width="1.07" fill="none" /><path id="179" transform="matrix(1 0 0 -1 0 612)" d="M331.63 325.9L331.63 328.64" stroke="#323232" stroke-width="1.07" fill="none" /><path id="180" transform="matrix(1 0 0 -1 0 612)" d="M373.46 325.9L373.46 328.64" stroke="#323232" stroke-width="1.07" fill="none" /></g><g clip-path="url(#80)"></g><g clip-path="url(#81)"></g><g clip-path="url(#82)"></g><g clip-path="url(#83)"></g><g clip-path="url(#84)"></g><g clip-path="url(#85)"></g><g clip-path="url(#86)"></g><g clip-path="url(#87)"></g><g clip-path="url(#88)"></g><g clip-path="url(#89)"><path id="201" transform="matrix(1 0 0 -1 0 612)" d="M453.68 325.9L453.68 328.64" stroke="#323232" stroke-width="1.07" fill="none" /><path id="202" transform="matrix(1 0 0 -1 0 612)" d="M490.69 325.9L490.69 328.64" stroke="#323232" stroke-width="1.07" fill="none" /><path id="203" transform="matrix(1 0 0 -1 0 612)" d="M527.7 325.9L527.7 328.64" stroke="#323232" stroke-width="1.07" fill="none" /><path id="204" transform="matrix(1 0 0 -1 0 612)" d="M564.71 325.9L564.71 328.64" stroke="#323232" stroke-width="1.07" fill="none" /><path id="205" transform="matrix(1 0 0 -1 0 612)" d="M601.71 325.9L601.71 328.64" stroke="#323232" stroke-width="1.07" fill="none" /><path id="206" transform="matrix(1 0 0 -1 0 612)" d="M638.72 325.9L638.72 328.64" stroke="#323232" stroke-width="1.07" fill="none" /></g><g clip-path="url(#90)"></g><g clip-path="url(#91)"></g><g clip-path="url(#92)"></g><g clip-path="url(#93)"></g><g clip-path="url(#94)"></g><g clip-path="url(#95)"></g><g clip-path="url(#96)"></g><g clip-path="url(#97)"></g><g clip-path="url(#98)"></g><g clip-path="url(#99)"></g><g clip-path="url(#100)"></g><g clip-path="url(#101)"><path id="298" transform="matrix(1 0 0 -1 0 612)" d="M441.95 340.8L444.69 340.8" stroke="#323232" stroke-width="1.07" fill="none" /><path id="299" transform="matrix(1 0 0 -1 0 612)" d="M441.95 361.06L444.69 361.06" stroke="#323232" stroke-width="1.07" fill="none" /><path id="300" transform="matrix(1 0 0 -1 0 612)" d="M441.95 381.32L444.69 381.32" stroke="#323232" stroke-width="1.07" fill="none" /><path id="301" transform="matrix(1 0 0 -1 0 612)" d="M441.95 401.58L444.69 401.58" stroke="#323232" stroke-width="1.07" fill="none" /><path id="302" transform="matrix(1 0 0 -1 0 612)" d="M441.95 421.85L444.69 421.85" stroke="#323232" stroke-width="1.07" fill="none" /><path id="303" transform="matrix(1 0 0 -1 0 612)" d="M441.95 442.11L444.69 442.11" stroke="#323232" stroke-width="1.07" fill="none" /><path id="304" transform="matrix(1 0 0 -1 0 612)" d="M441.95 462.37L444.69 462.37" stroke="#323232" stroke-width="1.07" fill="none" /><path id="305" transform="matrix(1 0 0 -1 0 612)" d="M441.95 482.63L444.69 482.63" stroke="#323232" stroke-width="1.07" fill="none" /><path id="306" transform="matrix(1 0 0 -1 0 612)" d="M441.95 502.89L444.69 502.89" stroke="#323232" stroke-width="1.07" fill="none" /><path id="307" transform="matrix(1 0 0 -1 0 612)" d="M441.95 523.15L444.69 523.15" stroke="#323232" stroke-width="1.07" fill="none" /></g><g clip-path="url(#102)"></g><g clip-path="url(#103)"></g><g clip-path="url(#104)"></g><g clip-path="url(#105)"></g><g clip-path="url(#106)"></g><g clip-path="url(#107)"></g><g clip-path="url(#108)"></g><g clip-path="url(#109)"></g><g clip-path="url(#110)"></g><g clip-path="url(#111)"><path id="381" transform="matrix(1 0 0 -1 0 612)" d="M441.95 98.07L444.69 98.07" stroke="#323232" stroke-width="1.07" fill="none" /><path id="382" transform="matrix(1 0 0 -1 0 612)" d="M441.95 118.33L444.69 118.33" stroke="#323232" stroke-width="1.07" fill="none" /><path id="383" transform="matrix(1 0 0 -1 0 612)" d="M441.95 138.59L444.69 138.59" stroke="#323232" stroke-width="1.07" fill="none" /><path id="384" transform="matrix(1 0 0 -1 0 612)" d="M441.95 158.85L444.69 158.85" stroke="#323232" stroke-width="1.07" fill="none" /><path id="385" transform="matrix(1 0 0 -1 0 612)" d="M441.95 179.11L444.69 179.11" stroke="#323232" stroke-width="1.07" fill="none" /><path id="386" transform="matrix(1 0 0 -1 0 612)" d="M441.95 199.38L444.69 199.38" stroke="#323232" stroke-width="1.07" fill="none" /><path id="387" transform="matrix(1 0 0 -1 0 612)" d="M441.95 219.64L444.69 219.64" stroke="#323232" stroke-width="1.07" fill="none" /><path id="388" transform="matrix(1 0 0 -1 0 612)" d="M441.95 239.9L444.69 239.9" stroke="#323232" stroke-width="1.07" fill="none" /><path id="389" transform="matrix(1 0 0 -1 0 612)" d="M441.95 260.16L444.69 260.16" stroke="#323232" stroke-width="1.07" fill="none" /><path id="390" transform="matrix(1 0 0 -1 0 612)" d="M441.95 280.42L444.69 280.42" stroke="#323232" stroke-width="1.07" fill="none" /></g><g clip-path="url(#112)"></g><g clip-path="url(#113)"></g><g clip-path="url(#114)"></g><g clip-path="url(#115)"></g><g clip-path="url(#116)"></g><g clip-path="url(#117)"></g><g clip-path="url(#118)"></g><g clip-path="url(#119)"></g><g clip-path="url(#120)"></g><g clip-path="url(#121)"><path id="457" transform="matrix(1 0 0 -1 0 612)" d="M194.42 340.8L197.16 340.8" stroke="#323232" stroke-width="1.07" fill="none" /><path id="458" transform="matrix(1 0 0 -1 0 612)" d="M194.42 361.06L197.16 361.06" stroke="#323232" stroke-width="1.07" fill="none" /><path id="459" transform="matrix(1 0 0 -1 0 612)" d="M194.42 381.32L197.16 381.32" stroke="#323232" stroke-width="1.07" fill="none" /><path id="460" transform="matrix(1 0 0 -1 0 612)" d="M194.42 401.58L197.16 401.58" stroke="#323232" stroke-width="1.07" fill="none" /><path id="461" transform="matrix(1 0 0 -1 0 612)" d="M194.42 421.85L197.16 421.85" stroke="#323232" stroke-width="1.07" fill="none" /><path id="462" transform="matrix(1 0 0 -1 0 612)" d="M194.42 442.11L197.16 442.11" stroke="#323232" stroke-width="1.07" fill="none" /><path id="463" transform="matrix(1 0 0 -1 0 612)" d="M194.42 462.37L197.16 462.37" stroke="#323232" stroke-width="1.07" fill="none" /><path id="464" transform="matrix(1 0 0 -1 0 612)" d="M194.42 482.63L197.16 482.63" stroke="#323232" stroke-width="1.07" fill="none" /><path id="465" transform="matrix(1 0 0 -1 0 612)" d="M194.42 502.89L197.16 502.89" stroke="#323232" stroke-width="1.07" fill="none" /><path id="466" transform="matrix(1 0 0 -1 0 612)" d="M194.42 523.15L197.16 523.15" stroke="#323232" stroke-width="1.07" fill="none" /></g><g clip-path="url(#122)"></g><g clip-path="url(#123)"></g><g clip-path="url(#124)"></g><g clip-path="url(#125)"></g><g clip-path="url(#126)"></g><g clip-path="url(#127)"></g><g clip-path="url(#128)"></g><g clip-path="url(#129)"></g><g clip-path="url(#130)"></g><g clip-path="url(#131)"><path id="543" transform="matrix(1 0 0 -1 0 612)" d="M194.42 98.07L197.16 98.07" stroke="#323232" stroke-width="1.07" fill="none" /><path id="544" transform="matrix(1 0 0 -1 0 612)" d="M194.42 118.33L197.16 118.33" stroke="#323232" stroke-width="1.07" fill="none" /><path id="545" transform="matrix(1 0 0 -1 0 612)" d="M194.42 138.59L197.16 138.59" stroke="#323232" stroke-width="1.07" fill="none" /><path id="546" transform="matrix(1 0 0 -1 0 612)" d="M194.42 158.85L197.16 158.85" stroke="#323232" stroke-width="1.07" fill="none" /><path id="547" transform="matrix(1 0 0 -1 0 612)" d="M194.42 179.11L197.16 179.11" stroke="#323232" stroke-width="1.07" fill="none" /><path id="548" transform="matrix(1 0 0 -1 0 612)" d="M194.42 199.38L197.16 199.38" stroke="#323232" stroke-width="1.07" fill="none" /><path id="549" transform="matrix(1 0 0 -1 0 612)" d="M194.42 219.64L197.16 219.64" stroke="#323232" stroke-width="1.07" fill="none" /><path id="550" transform="matrix(1 0 0 -1 0 612)" d="M194.42 239.9L197.16 239.9" stroke="#323232" stroke-width="1.07" fill="none" /><path id="551" transform="matrix(1 0 0 -1 0 612)" d="M194.42 260.16L197.16 260.16" stroke="#323232" stroke-width="1.07" fill="none" /><path id="552" transform="matrix(1 0 0 -1 0 612)" d="M194.42 280.42L197.16 280.42" stroke="#323232" stroke-width="1.07" fill="none" /></g><g clip-path="url(#132)"></g><g clip-path="url(#133)"></g><g clip-path="url(#134)"></g><g clip-path="url(#135)"></g><g clip-path="url(#136)"></g><g clip-path="url(#137)"></g><g clip-path="url(#138)"></g><g clip-path="url(#139)"></g><g clip-path="url(#140)"></g><g clip-path="url(#141)"></g><g clip-path="url(#142)"></g><g clip-path="url(#143)"></g><g clip-path="url(#144)"></g><g clip-path="url(#145)"></g><g clip-path="url(#146)"></g><g clip-path="url(#147)"></g><g clip-path="url(#148)"></g><g clip-path="url(#149)"></g><g clip-path="url(#150)"></g><g clip-path="url(#151)"></g><g clip-path="url(#152)"></g><g clip-path="url(#153)"></g><g clip-path="url(#154)"></g><g clip-path="url(#155)"></g><g clip-path="url(#156)"></g><g clip-path="url(#157)"></g><g clip-path="url(#158)"></g><g clip-path="url(#159)"></g></g></g></svg>