<svg xmlns="http://www.w3.org/2000/svg" xmlns:xlink="http://www.w3.org/1999/xlink" id="body_3" preserveAspectRatio="xMinYMin meet" viewBox="0 0 1056 816"><defs><clipPath id="1"><path id="" clip-rule="evenodd" transform="matrix(1 0 0 1 0 0)" d="M0 612L0 0L0 0L792 0L792 0L792 612L792 612L0 612z" /></clipPath><clipPath id="2"><path id="" clip-rule="evenodd" transform="matrix(1 0 0 1 0 0)" d="M144 558L648 558L648 558L648 54L648 54L144 54z" /></clipPath><clipPath id="3"><path id="" clip-rule="evenodd" transform="matrix(1 0 0 1 0 0)" d="M144 558L648 558L648 558L648 54L648 54L144 54z" /></clipPath><clipPath id="4"><path id="" clip-rule="evenodd" transform="matrix(1 0 0 1 0 0)" d="M144 558L648 558L648 558L648 54L648 54L144 54z" /></clipPath><clipPath id="5"><path id="" clip-rule="evenodd" transform="matrix(1 0 0 1 0 0)" d="M144 558L648 558L648 558L648 54L648 54L144 54z" /></clipPath><clipPath id="6"><path id="" clip-rule="evenodd" transform="matrix(1 0 0 1 0 0)" d="M144 558L648 558L648 558L648 54L648 54L144 54z" /></clipPath><clipPath id="7"><path id="" clip-rule="evenodd" transform="matrix(1 0 0 1 0 0)" d="M144 558L648 558L648 558L648 54L648 54L144 54z" /></clipPath><clipPath id="8"><path id="" clip-rule="evenodd" transform="matrix(1 0 0 1 0 0)" d="M144 558L648 558L648 558L648 54L648 54L144 54z" /></clipPath><clipPath id="9"><path id="" clip-rule="evenodd" transform="matrix(1 0 0 1 0 0)" d="M144 558L648 558L648 558L648 54L648 54L144 54z" /></clipPath><clipPath id="10"><path id="" clip-rule="evenodd" transform="matrix(1 0 0 1 0 0)" d="M220.58 526.09L642.52 526.09L642.52 526.09L642.52 59.47998L642.52 59.47998L220.58 59.47998z" /></clipPath><clipPath id="11"><path id="" clip-rule="evenodd" transform="matrix(1 0 0 1 0 0)" d="M144 558L648 558L648 558L648 54L648 54L144 54z" /></clipPath><clipPath id="12"><path id="" clip-rule="evenodd" transform="matrix(1 0 0 1 0 0)" d="M144 558L648 558L648 558L648 54L648 54L144 54z" /></clipPath><clipPath id="13"><path id="" clip-rule="evenodd" transform="matrix(1 0 0 1 0 0)" d="M144 558L648 558L648 558L648 54L648 54L144 54z" /></clipPath><clipPath id="14"><path id="" clip-rule="evenodd" transform="matrix(1 0 0 1 0 0)" d="M144 558L648 558L648 558L648 54L648 54L144 54z" /></clipPath><clipPath id="15"><path id="" clip-rule="evenodd" transform="matrix(1 0 0 1 0 0)" d="M144 558L648 558L648 558L648 54L648 54L144 54z" /></clipPath><clipPath id="16"><path id="" clip-rule="evenodd" transform="matrix(1 0 0 1 0 0)" d="M144 558L648 558L648 558L648 54L648 54L144 54z" /></clipPath><clipPath id="17"><path id="" clip-rule="evenodd" transform="matrix(1 0 0 1 0 0)" d="M144 558L648 558L648 558L648 54L648 54L144 54z" /></clipPath><clipPath id="18"><path id="" clip-rule="evenodd" transform="matrix(1 0 0 1 0 0)" d="M144 558L648 558L648 558L648 54L648 54L144 54z" /></clipPath><clipPath id="19"><path id="" clip-rule="evenodd" transform="matrix(1 0 0 1 0 0)" d="M144 558L648 558L648 558L648 54L648 54L144 54z" /></clipPath><clipPath id="20"><path id="" clip-rule="evenodd" transform="matrix(1 0 0 1 0 0)" d="M144 558L648 558L648 558L648 54L648 54L144 54z" /></clipPath><clipPath id="21"><path id="" clip-rule="evenodd" transform="matrix(1 0 0 1 0 0)" d="M144 558L648 558L648 558L648 54L648 54L144 54z" /></clipPath><clipPath id="22"><path id="" clip-rule="evenodd" transform="matrix(1 0 0 1 0 0)" d="M144 558L648 558L648 558L648 54L648 54L144 54z" /></clipPath><clipPath id="23"><path id="" clip-rule="evenodd" transform="matrix(1 0 0 1 0 0)" d="M144 558L648 558L648 558L648 54L648 54L144 54z" /></clipPath><clipPath id="24"><path id="" clip-rule="evenodd" transform="matrix(1 0 0 1 0 0)" d="M144 558L648 558L648 558L648 54L648 54L144 54z" /></clipPath><clipPath id="25"><path id="" clip-rule="evenodd" transform="matrix(1 0 0 1 0 0)" d="M144 558L648 558L648 558L648 54L648 54L144 54z" /></clipPath><clipPath id="26"><path id="" clip-rule="evenodd" transform="matrix(1 0 0 1 0 0)" d="M144 558L648 558L648 558L648 54L648 54L144 54z" /></clipPath><clipPath id="27"><path id="" clip-rule="evenodd" transform="matrix(1 0 0 1 0 0)" d="M144 558L648 558L648 558L648 54L648 54L144 54z" /></clipPath><clipPath id="28"><path id="" clip-rule="evenodd" transform="matrix(1 0 0 1 0 0)" d="M144 558L648 558L648 558L648 54L648 54L144 54z" /></clipPath><clipPath id="29"><path id="" clip-rule="evenodd" transform="matrix(1 0 0 1 0 0)" d="M144 558L648 558L648 558L648 54L648 54L144 54z" /></clipPath><clipPath id="30"><path id="" clip-rule="evenodd" transform="matrix(1 0 0 1 0 0)" d="M144 558L648 558L648 558L648 54L648 54L144 54z" /></clipPath><clipPath id="31"><path id="" clip-rule="evenodd" transform="matrix(1 0 0 1 0 0)" d="M144 558L648 558L648 558L648 54L648 54L144 54z" /></clipPath><clipPath id="32"><path id="" clip-rule="evenodd" transform="matrix(1 0 0 1 0 0)" d="M144 558L648 558L648 558L648 54L648 54L144 54z" /></clipPath><clipPath id="33"><path id="" clip-rule="evenodd" transform="matrix(1 0 0 1 0 0)" d="M144 558L648 558L648 558L648 54L648 54L144 54z" /></clipPath><clipPath id="34"><path id="" clip-rule="evenodd" transform="matrix(1 0 0 1 0 0)" d="M144 558L648 558L648 558L648 54L648 54L144 54z" /></clipPath><clipPath id="35"><path id="" clip-rule="evenodd" transform="matrix(1 0 0 1 0 0)" d="M144 558L648 558L648 558L648 54L648 54L144 54z" /></clipPath><clipPath id="36"><path id="" clip-rule="evenodd" transform="matrix(1 0 0 1 0 0)" d="M144 558L648 558L648 558L648 54L648 54L144 54z" /></clipPath><clipPath id="37"><path id="" clip-rule="evenodd" transform="matrix(1 0 0 1 0 0)" d="M144 558L648 558L648 558L648 54L648 54L144 54z" /></clipPath><clipPath id="38"><path id="" clip-rule="evenodd" transform="matrix(1 0 0 1 0 0)" d="M144 558L648 558L648 558L648 54L648 54L144 54z" /></clipPath><clipPath id="39"><path id="" clip-rule="evenodd" transform="matrix(1 0 0 1 0 0)" d="M144 558L648 558L648 558L648 54L648 54L144 54z" /></clipPath><clipPath id="40"><path id="" clip-rule="evenodd" transform="matrix(1 0 0 1 0 0)" d="M144 558L648 558L648 558L648 54L648 54L144 54z" /></clipPath><clipPath id="41"><path id="" clip-rule="evenodd" transform="matrix(1 0 0 1 0 0)" d="M144 558L648 558L648 558L648 54L648 54L144 54z" /></clipPath><clipPath id="42"><path id="" clip-rule="evenodd" transform="matrix(1 0 0 1 0 0)" d="M144 558L648 558L648 558L648 54L648 54L144 54z" /></clipPath><clipPath id="43"><path id="" clip-rule="evenodd" transform="matrix(1 0 0 1 0 0)" d="M144 558L648 558L648 558L648 54L648 54L144 54z" /></clipPath><clipPath id="44"><path id="" clip-rule="evenodd" transform="matrix(1 0 0 1 0 0)" d="M144 558L648 558L648 558L648 54L648 54L144 54z" /></clipPath><clipPath id="45"><path id="" clip-rule="evenodd" transform="matrix(1 0 0 1 0 0)" d="M144 558L648 558L648 558L648 54L648 54L144 54z" /></clipPath><clipPath id="46"><path id="" clip-rule="evenodd" transform="matrix(1 0 0 1 0 0)" d="M144 558L648 558L648 558L648 54L648 54L144 54z" /></clipPath><clipPath id="47"><path id="" clip-rule="evenodd" transform="matrix(1 0 0 1 0 0)" d="M144 558L648 558L648 558L648 54L648 54L144 54z" /></clipPath><clipPath id="48"><path id="" clip-rule="evenodd" transform="matrix(1 0 0 1 0 0)" d="M144 558L648 558L648 558L648 54L648 54L144 54z" /></clipPath><clipPath id="49"><path id="" clip-rule="evenodd" transform="matrix(1 0 0 1 0 0)" d="M144 558L648 558L648 558L648 54L648 54L144 54z" /></clipPath><clipPath id="50"><path id="" clip-rule="evenodd" transform="matrix(1 0 0 1 0 0)" d="M144 558L648 558L648 558L648 54L648 54L144 54z" /></clipPath><clipPath id="51"><path id="" clip-rule="evenodd" transform="matrix(1 0 0 1 0 0)" d="M144 558L648 558L648 558L648 54L648 54L144 54z" /></clipPath><clipPath id="52"><path id="" clip-rule="evenodd" transform="matrix(1 0 0 1 0 0)" d="M144 558L648 558L648 558L648 54L648 54L144 54z" /></clipPath><clipPath id="53"><path id="" clip-rule="evenodd" transform="matrix(1 0 0 1 0 0)" d="M144 558L648 558L648 558L648 54L648 54L144 54z" /></clipPath><clipPath id="54"><path id="" clip-rule="evenodd" transform="matrix(1 0 0 1 0 0)" d="M144 558L648 558L648 558L648 54L648 54L144 54z" /></clipPath><clipPath id="55"><path id="" clip-rule="evenodd" transform="matrix(1 0 0 1 0 0)" d="M144 558L648 558L648 558L648 54L648 54L144 54z" /></clipPath><clipPath id="56"><path id="" clip-rule="evenodd" transform="matrix(1 0 0 1 0 0)" d="M144 558L648 558L648 558L648 54L648 54L144 54z" /></clipPath><clipPath id="57"><path id="" clip-rule="evenodd" transform="matrix(1 0 0 1 0 0)" d="M144 558L648 558L648 558L648 54L648 54L144 54z" /></clipPath><clipPath id="58"><path id="" clip-rule="evenodd" transform="matrix(1 0 0 1 0 0)" d="M144 558L648 558L648 558L648 54L648 54L144 54z" /></clipPath><clipPath id="59"><path id="" clip-rule="evenodd" transform="matrix(1 0 0 1 0 0)" d="M144 558L648 558L648 558L648 54L648 54L144 54z" /></clipPath><clipPath id="60"><path id="" clip-rule="evenodd" transform="matrix(1 0 0 1 0 0)" d="M144 558L648 558L648 558L648 54L648 54L144 54z" /></clipPath></defs><g transform="matrix(1.333333 0 0 1.333333 0 0)"><g clip-path="url(#1)"><g clip-path="url(#2)"></g><g clip-path="url(#3)"></g><g clip-path="url(#4)"></g><g clip-path="url(#5)"></g><g clip-path="url(#6)"></g><g clip-path="url(#7)"></g><g clip-path="url(#8)"><path id="1" transform="matrix(1 0 0 -1 0 612)" d="M144 54L648 54L648 54L648 558L648 558L144 558z" stroke="#FFFFFF" stroke-width="1.07" fill="#FFFFFF" fill-rule="nonzero" /></g><g clip-path="url(#9)"></g><g clip-path="url(#10)"><path id="2" transform="matrix(1 0 0 -1 0 612)" d="M220.58 85.91L642.52 85.91L642.52 552.52L220.58 552.52z" stroke="none" fill="#FFFFFF" fill-rule="nonzero" /><path id="3" transform="matrix(1 0 0 -1 0 612)" d="M289.09 85.91L289.09 552.52" stroke="#EBEBEB" stroke-width="0.53" fill="none" /><path id="4" transform="matrix(1 0 0 -1 0 612)" d="M387.75 85.91L387.75 552.52" stroke="#EBEBEB" stroke-width="0.53" fill="none" /><path id="5" transform="matrix(1 0 0 -1 0 612)" d="M486.41 85.91L486.41 552.52" stroke="#EBEBEB" stroke-width="0.53" fill="none" /><path id="6" transform="matrix(1 0 0 -1 0 612)" d="M585.07 85.91L585.07 552.52" stroke="#EBEBEB" stroke-width="0.53" fill="none" /><path id="7" transform="matrix(1 0 0 -1 0 612)" d="M220.58 90.98L642.52 90.98" stroke="#EBEBEB" stroke-width="1.07" fill="none" /><path id="8" transform="matrix(1 0 0 -1 0 612)" d="M220.58 99.44L642.52 99.44" stroke="#EBEBEB" stroke-width="1.07" fill="none" /><path id="9" transform="matrix(1 0 0 -1 0 612)" d="M220.58 107.89L642.52 107.89" stroke="#EBEBEB" stroke-width="1.07" fill="none" /><path id="10" transform="matrix(1 0 0 -1 0 612)" d="M220.58 116.34L642.52 116.34" stroke="#EBEBEB" stroke-width="1.07" fill="none" /><path id="11" transform="matrix(1 0 0 -1 0 612)" d="M220.58 124.79L642.52 124.79" stroke="#EBEBEB" stroke-width="1.07" fill="none" /><path id="12" transform="matrix(1 0 0 -1 0 612)" d="M220.58 133.25L642.52 133.25" stroke="#EBEBEB" stroke-width="1.07" fill="none" /><path id="13" transform="matrix(1 0 0 -1 0 612)" d="M220.58 141.7L642.52 141.7" stroke="#EBEBEB" stroke-width="1.07" fill="none" /><path id="14" transform="matrix(1 0 0 -1 0 612)" d="M220.58 150.15L642.52 150.15" stroke="#EBEBEB" stroke-width="1.07" fill="none" /><path id="15" transform="matrix(1 0 0 -1 0 612)" d="M220.58 158.61L642.52 158.61" stroke="#EBEBEB" stroke-width="1.07" fill="none" /><path id="16" transform="matrix(1 0 0 -1 0 612)" d="M220.58 167.06L642.52 167.06" stroke="#EBEBEB" stroke-width="1.07" fill="none" /><path id="17" transform="matrix(1 0 0 -1 0 612)" d="M220.58 175.51L642.52 175.51" stroke="#EBEBEB" stroke-width="1.07" fill="none" /><path id="18" transform="matrix(1 0 0 -1 0 612)" d="M220.58 183.97L642.52 183.97" stroke="#EBEBEB" stroke-width="1.07" fill="none" /><path id="19" transform="matrix(1 0 0 -1 0 612)" d="M220.58 192.42L642.52 192.42" stroke="#EBEBEB" stroke-width="1.07" fill="none" /><path id="20" transform="matrix(1 0 0 -1 0 612)" d="M220.58 200.87L642.52 200.87" stroke="#EBEBEB" stroke-width="1.07" fill="none" /><path id="21" transform="matrix(1 0 0 -1 0 612)" d="M220.58 209.33L642.52 209.33" stroke="#EBEBEB" stroke-width="1.07" fill="none" /><path id="22" transform="matrix(1 0 0 -1 0 612)" d="M220.58 217.78L642.52 217.78" stroke="#EBEBEB" stroke-width="1.07" fill="none" /><path id="23" transform="matrix(1 0 0 -1 0 612)" d="M220.58 226.23L642.52 226.23" stroke="#EBEBEB" stroke-width="1.07" fill="none" /><path id="24" transform="matrix(1 0 0 -1 0 612)" d="M220.58 234.68L642.52 234.68" stroke="#EBEBEB" stroke-width="1.07" fill="none" /><path id="25" transform="matrix(1 0 0 -1 0 612)" d="M220.58 243.14L642.52 243.14" stroke="#EBEBEB" stroke-width="1.07" fill="none" /><path id="26" transform="matrix(1 0 0 -1 0 612)" d="M220.58 251.59L642.52 251.59" stroke="#EBEBEB" stroke-width="1.07" fill="none" /><path id="27" transform="matrix(1 0 0 -1 0 612)" d="M220.58 260.04L642.52 260.04" stroke="#EBEBEB" stroke-width="1.07" fill="none" /><path id="28" transform="matrix(1 0 0 -1 0 612)" d="M220.58 268.5L642.52 268.5" stroke="#EBEBEB" stroke-width="1.07" fill="none" /><path id="29" transform="matrix(1 0 0 -1 0 612)" d="M220.58 276.95L642.52 276.95" stroke="#EBEBEB" stroke-width="1.07" fill="none" /><path id="30" transform="matrix(1 0 0 -1 0 612)" d="M220.58 285.4L642.52 285.4" stroke="#EBEBEB" stroke-width="1.07" fill="none" /><path id="31" transform="matrix(1 0 0 -1 0 612)" d="M220.58 293.86L642.52 293.86" stroke="#EBEBEB" stroke-width="1.07" fill="none" /><path id="32" transform="matrix(1 0 0 -1 0 612)" d="M220.58 302.31L642.52 302.31" stroke="#EBEBEB" stroke-width="1.07" fill="none" /><path id="33" transform="matrix(1 0 0 -1 0 612)" d="M220.58 310.76L642.52 310.76" stroke="#EBEBEB" stroke-width="1.07" fill="none" /><path id="34" transform="matrix(1 0 0 -1 0 612)" d="M220.58 319.22L642.52 319.22" stroke="#EBEBEB" stroke-width="1.07" fill="none" /><path id="35" transform="matrix(1 0 0 -1 0 612)" d="M220.58 327.67L642.52 327.67" stroke="#EBEBEB" stroke-width="1.07" fill="none" /><path id="36" transform="matrix(1 0 0 -1 0 612)" d="M220.58 336.12L642.52 336.12" stroke="#EBEBEB" stroke-width="1.07" fill="none" /><path id="37" transform="matrix(1 0 0 -1 0 612)" d="M220.58 344.57L642.52 344.57" stroke="#EBEBEB" stroke-width="1.07" fill="none" /><path id="38" transform="matrix(1 0 0 -1 0 612)" d="M220.58 353.03L642.52 353.03" stroke="#EBEBEB" stroke-width="1.07" fill="none" /><path id="39" transform="matrix(1 0 0 -1 0 612)" d="M220.58 361.48L642.52 361.48" stroke="#EBEBEB" stroke-width="1.07" fill="none" /><path id="40" transform="matrix(1 0 0 -1 0 612)" d="M220.58 369.93L642.52 369.93" stroke="#EBEBEB" stroke-width="1.07" fill="none" /><path id="41" transform="matrix(1 0 0 -1 0 612)" d="M220.58 378.39L642.52 378.39" stroke="#EBEBEB" stroke-width="1.07" fill="none" /><path id="42" transform="matrix(1 0 0 -1 0 612)" d="M220.58 386.84L642.52 386.84" stroke="#EBEBEB" stroke-width="1.07" fill="none" /><path id="43" transform="matrix(1 0 0 -1 0 612)" d="M220.58 395.29L642.52 395.29" stroke="#EBEBEB" stroke-width="1.07" fill="none" /><path id="44" transform="matrix(1 0 0 -1 0 612)" d="M220.58 403.75L642.52 403.75" stroke="#EBEBEB" stroke-width="1.07" fill="none" /><path id="45" transform="matrix(1 0 0 -1 0 612)" d="M220.58 412.2L642.52 412.2" stroke="#EBEBEB" stroke-width="1.07" fill="none" /><path id="46" transform="matrix(1 0 0 -1 0 612)" d="M220.58 420.65L642.52 420.65" stroke="#EBEBEB" stroke-width="1.07" fill="none" /><path id="47" transform="matrix(1 0 0 -1 0 612)" d="M220.58 429.11L642.52 429.11" stroke="#EBEBEB" stroke-width="1.07" fill="none" /><path id="48" transform="matrix(1 0 0 -1 0 612)" d="M220.58 437.56L642.52 437.56" stroke="#EBEBEB" stroke-width="1.07" fill="none" /><path id="49" transform="matrix(1 0 0 -1 0 612)" d="M220.58 446.01L642.52 446.01" stroke="#EBEBEB" stroke-width="1.07" fill="none" /><path id="50" transform="matrix(1 0 0 -1 0 612)" d="M220.58 454.46L642.52 454.46" stroke="#EBEBEB" stroke-width="1.07" fill="none" /><path id="51" transform="matrix(1 0 0 -1 0 612)" d="M220.58 462.92L642.52 462.92" stroke="#EBEBEB" stroke-width="1.07" fill="none" /><path id="52" transform="matrix(1 0 0 -1 0 612)" d="M220.58 471.37L642.52 471.37" stroke="#EBEBEB" stroke-width="1.07" fill="none" /><path id="53" transform="matrix(1 0 0 -1 0 612)" d="M220.58 479.82L642.52 479.82" stroke="#EBEBEB" stroke-width="1.07" fill="none" /><path id="54" transform="matrix(1 0 0 -1 0 612)" d="M220.58 488.28L642.52 488.28" stroke="#EBEBEB" stroke-width="1.07" fill="none" /><path id="55" transform="matrix(1 0 0 -1 0 612)" d="M220.58 496.73L642.52 496.73" stroke="#EBEBEB" stroke-width="1.07" fill="none" /><path id="56" transform="matrix(1 0 0 -1 0 612)" d="M220.58 505.18L642.52 505.18" stroke="#EBEBEB" stroke-width="1.07" fill="none" /><path id="57" transform="matrix(1 0 0 -1 0 612)" d="M220.58 513.64L642.52 513.64" stroke="#EBEBEB" stroke-width="1.07" fill="none" /><path id="58" transform="matrix(1 0 0 -1 0 612)" d="M220.58 522.09L642.52 522.09" stroke="#EBEBEB" stroke-width="1.07" fill="none" /><path id="59" transform="matrix(1 0 0 -1 0 612)" d="M220.58 530.54L642.52 530.54" stroke="#EBEBEB" stroke-width="1.07" fill="none" /><path id="60" transform="matrix(1 0 0 -1 0 612)" d="M220.58 539L642.52 539" stroke="#EBEBEB" stroke-width="1.07" fill="none" /><path id="61" transform="matrix(1 0 0 -1 0 612)" d="M220.58 547.45L642.52 547.45" stroke="#EBEBEB" stroke-width="1.07" fill="none" /><path id="62" transform="matrix(1 0 0 -1 0 612)" d="M239.76 85.91L239.76 552.52" stroke="#EBEBEB" stroke-width="1.07" fill="none" /><path id="63" transform="matrix(1 0 0 -1 0 612)" d="M338.42 85.91L338.42 552.52" stroke="#EBEBEB" stroke-width="1.07" fill="none" /><path id="64" transform="matrix(1 0 0 -1 0 612)" d="M437.08 85.91L437.08 552.52" stroke="#EBEBEB" stroke-width="1.07" fill="none" /><path id="65" transform="matrix(1 0 0 -1 0 612)" d="M535.74 85.91L535.74 552.52" stroke="#EBEBEB" stroke-width="1.07" fill="none" /><path id="66" transform="matrix(1 0 0 -1 0 612)" d="M634.4 85.91L634.4 552.52" stroke="#EBEBEB" stroke-width="1.07" fill="none" /><path id="67" transform="matrix(1 0 0 -1 0 612)" d="M239.76 543.64L623.34 543.64L623.34 551.25L239.76 551.25z" stroke="none" fill="#85C1E9" fill-rule="nonzero" /><path id="68" transform="matrix(1 0 0 -1 0 612)" d="M239.76 535.19L623.34 535.19L623.34 542.8L239.76 542.8z" stroke="none" fill="#85C1E9" fill-rule="nonzero" /><path id="69" transform="matrix(1 0 0 -1 0 612)" d="M239.76 526.74L623.34 526.74L623.34 534.35L239.76 534.35z" stroke="none" fill="#85C1E9" fill-rule="nonzero" /><path id="70" transform="matrix(1 0 0 -1 0 612)" d="M239.76 518.29L593.31 518.29L593.31 525.9L239.76 525.9z" stroke="none" fill="#85C1E9" fill-rule="nonzero" /><path id="71" transform="matrix(1 0 0 -1 0 612)" d="M239.76 509.83L541.15 509.83L541.15 517.44L239.76 517.44z" stroke="none" fill="#85C1E9" fill-rule="nonzero" /><path id="72" transform="matrix(1 0 0 -1 0 612)" d="M239.76 501.38L541.15 501.38L541.15 508.99L239.76 508.99z" stroke="none" fill="#85C1E9" fill-rule="nonzero" /><path id="73" transform="matrix(1 0 0 -1 0 612)" d="M239.76 492.93L541.15 492.93L541.15 500.54L239.76 500.54z" stroke="none" fill="#85C1E9" fill-rule="nonzero" /><path id="74" transform="matrix(1 0 0 -1 0 612)" d="M239.76 484.47L541.15 484.47L541.15 492.08L239.76 492.08z" stroke="none" fill="#85C1E9" fill-rule="nonzero" /><path id="75" transform="matrix(1 0 0 -1 0 612)" d="M239.76 476.02L541.15 476.02L541.15 483.63L239.76 483.63z" stroke="none" fill="#85C1E9" fill-rule="nonzero" /><path id="76" transform="matrix(1 0 0 -1 0 612)" d="M239.76 467.57L541.15 467.57L541.15 475.18L239.76 475.18z" stroke="none" fill="#85C1E9" fill-rule="nonzero" /><path id="77" transform="matrix(1 0 0 -1 0 612)" d="M239.76 459.11L541.15 459.11L541.15 466.72L239.76 466.72z" stroke="none" fill="#85C1E9" fill-rule="nonzero" /><path id="78" transform="matrix(1 0 0 -1 0 612)" d="M239.76 450.66L524.81 450.66L524.81 458.27L239.76 458.27z" stroke="none" fill="#85C1E9" fill-rule="nonzero" /><path id="79" transform="matrix(1 0 0 -1 0 612)" d="M239.76 442.21L492.3 442.21L492.3 449.82L239.76 449.82z" stroke="none" fill="#85C1E9" fill-rule="nonzero" /><path id="80" transform="matrix(1 0 0 -1 0 612)" d="M239.76 433.75L487.96 433.75L487.96 441.36L239.76 441.36z" stroke="none" fill="#85C1E9" fill-rule="nonzero" /><path id="81" transform="matrix(1 0 0 -1 0 612)" d="M239.76 425.3L487.96 425.3L487.96 432.91L239.76 432.91z" stroke="none" fill="#85C1E9" fill-rule="nonzero" /><path id="82" transform="matrix(1 0 0 -1 0 612)" d="M239.76 416.85L487.96 416.85L487.96 424.46L239.76 424.46z" stroke="none" fill="#85C1E9" fill-rule="nonzero" /><path id="83" transform="matrix(1 0 0 -1 0 612)" d="M239.76 408.4L487.96 408.4L487.96 416.01L239.76 416.01z" stroke="none" fill="#85C1E9" fill-rule="nonzero" /><path id="84" transform="matrix(1 0 0 -1 0 612)" d="M239.76 399.94L484.92 399.94L484.92 407.55L239.76 407.55z" stroke="none" fill="#85C1E9" fill-rule="nonzero" /><path id="85" transform="matrix(1 0 0 -1 0 612)" d="M239.76 391.49L463.73 391.49L463.73 399.1L239.76 399.1z" stroke="none" fill="#85C1E9" fill-rule="nonzero" /><path id="86" transform="matrix(1 0 0 -1 0 612)" d="M239.76 383.04L450.73 383.04L450.73 390.65L239.76 390.65z" stroke="none" fill="#85C1E9" fill-rule="nonzero" /><path id="87" transform="matrix(1 0 0 -1 0 612)" d="M239.76 374.58L450.73 374.58L450.73 382.19L239.76 382.19z" stroke="none" fill="#85C1E9" fill-rule="nonzero" /><path id="88" transform="matrix(1 0 0 -1 0 612)" d="M239.76 366.13L450.73 366.13L450.73 373.74L239.76 373.74z" stroke="none" fill="#85C1E9" fill-rule="nonzero" /><path id="89" transform="matrix(1 0 0 -1 0 612)" d="M239.76 357.68L450.73 357.68L450.73 365.29L239.76 365.29z" stroke="none" fill="#85C1E9" fill-rule="nonzero" /><path id="90" transform="matrix(1 0 0 -1 0 612)" d="M239.76 349.22L450.73 349.22L450.73 356.83L239.76 356.83z" stroke="none" fill="#85C1E9" fill-rule="nonzero" /><path id="91" transform="matrix(1 0 0 -1 0 612)" d="M239.76 340.77L447.73 340.77L447.73 348.38L239.76 348.38z" stroke="none" fill="#85C1E9" fill-rule="nonzero" /><path id="92" transform="matrix(1 0 0 -1 0 612)" d="M239.76 332.32L431.55 332.32L431.55 339.93L239.76 339.93z" stroke="none" fill="#85C1E9" fill-rule="nonzero" /><path id="93" transform="matrix(1 0 0 -1 0 612)" d="M239.76 323.86L431.55 323.86L431.55 331.47L239.76 331.47z" stroke="none" fill="#85C1E9" fill-rule="nonzero" /><path id="94" transform="matrix(1 0 0 -1 0 612)" d="M239.76 315.41L431.55 315.41L431.55 323.02L239.76 323.02z" stroke="none" fill="#85C1E9" fill-rule="nonzero" /><path id="95" transform="matrix(1 0 0 -1 0 612)" d="M239.76 306.96L423.21 306.96L423.21 314.57L239.76 314.57z" stroke="none" fill="#85C1E9" fill-rule="nonzero" /><path id="96" transform="matrix(1 0 0 -1 0 612)" d="M239.76 298.51L423.21 298.51L423.21 306.12L239.76 306.12z" stroke="none" fill="#85C1E9" fill-rule="nonzero" /><path id="97" transform="matrix(1 0 0 -1 0 612)" d="M239.76 290.05L423.21 290.05L423.21 297.66L239.76 297.66z" stroke="none" fill="#85C1E9" fill-rule="nonzero" /><path id="98" transform="matrix(1 0 0 -1 0 612)" d="M239.76 281.6L423.21 281.6L423.21 289.21L239.76 289.21z" stroke="none" fill="#85C1E9" fill-rule="nonzero" /><path id="99" transform="matrix(1 0 0 -1 0 612)" d="M239.76 273.15L423.21 273.15L423.21 280.76L239.76 280.76z" stroke="none" fill="#85C1E9" fill-rule="nonzero" /><path id="100" transform="matrix(1 0 0 -1 0 612)" d="M239.76 264.69L423.21 264.69L423.21 272.3L239.76 272.3z" stroke="none" fill="#85C1E9" fill-rule="nonzero" /><path id="101" transform="matrix(1 0 0 -1 0 612)" d="M239.76 256.24L423.21 256.24L423.21 263.85L239.76 263.85z" stroke="none" fill="#85C1E9" fill-rule="nonzero" /><path id="102" transform="matrix(1 0 0 -1 0 612)" d="M239.76 247.79L419.31 247.79L419.31 255.4L239.76 255.4z" stroke="none" fill="#85C1E9" fill-rule="nonzero" /><path id="103" transform="matrix(1 0 0 -1 0 612)" d="M239.76 239.33L419.31 239.33L419.31 246.94L239.76 246.94z" stroke="none" fill="#85C1E9" fill-rule="nonzero" /><path id="104" transform="matrix(1 0 0 -1 0 612)" d="M239.76 230.88L419.31 230.88L419.31 238.49L239.76 238.49z" stroke="none" fill="#85C1E9" fill-rule="nonzero" /><path id="105" transform="matrix(1 0 0 -1 0 612)" d="M239.76 222.43L416.54 222.43L416.54 230.04L239.76 230.04z" stroke="none" fill="#85C1E9" fill-rule="nonzero" /><path id="106" transform="matrix(1 0 0 -1 0 612)" d="M239.76 213.97L416.54 213.97L416.54 221.58L239.76 221.58z" stroke="none" fill="#85C1E9" fill-rule="nonzero" /><path id="107" transform="matrix(1 0 0 -1 0 612)" d="M239.76 205.52L406.87 205.52L406.87 213.13L239.76 213.13z" stroke="none" fill="#85C1E9" fill-rule="nonzero" /><path id="108" transform="matrix(1 0 0 -1 0 612)" d="M239.76 197.07L396.54 197.07L396.54 204.68L239.76 204.68z" stroke="none" fill="#85C1E9" fill-rule="nonzero" /><path id="109" transform="matrix(1 0 0 -1 0 612)" d="M239.76 188.62L396.54 188.62L396.54 196.23L239.76 196.23z" stroke="none" fill="#85C1E9" fill-rule="nonzero" /><path id="110" transform="matrix(1 0 0 -1 0 612)" d="M239.76 180.16L393.48 180.16L393.48 187.77L239.76 187.77z" stroke="none" fill="#85C1E9" fill-rule="nonzero" /><path id="111" transform="matrix(1 0 0 -1 0 612)" d="M239.76 171.71L393.48 171.71L393.48 179.32L239.76 179.32z" stroke="none" fill="#85C1E9" fill-rule="nonzero" /><path id="112" transform="matrix(1 0 0 -1 0 612)" d="M239.76 163.26L393.48 163.26L393.48 170.87L239.76 170.87z" stroke="none" fill="#85C1E9" fill-rule="nonzero" /><path id="113" transform="matrix(1 0 0 -1 0 612)" d="M239.76 154.8L393.48 154.8L393.48 162.41L239.76 162.41z" stroke="none" fill="#85C1E9" fill-rule="nonzero" /><path id="114" transform="matrix(1 0 0 -1 0 612)" d="M239.76 146.35L390.45 146.35L390.45 153.96L239.76 153.96z" stroke="none" fill="#85C1E9" fill-rule="nonzero" /><path id="115" transform="matrix(1 0 0 -1 0 612)" d="M239.76 137.9L390.45 137.9L390.45 145.51L239.76 145.51z" stroke="none" fill="#85C1E9" fill-rule="nonzero" /><path id="116" transform="matrix(1 0 0 -1 0 612)" d="M239.76 129.44L390.45 129.44L390.45 137.05L239.76 137.05z" stroke="none" fill="#85C1E9" fill-rule="nonzero" /><path id="117" transform="matrix(1 0 0 -1 0 612)" d="M239.76 120.99L390.45 120.99L390.45 128.6L239.76 128.6z" stroke="none" fill="#85C1E9" fill-rule="nonzero" /><path id="118" transform="matrix(1 0 0 -1 0 612)" d="M239.76 112.54L390.45 112.54L390.45 120.15L239.76 120.15z" stroke="none" fill="#85C1E9" fill-rule="nonzero" /><path id="119" transform="matrix(1 0 0 -1 0 612)" d="M239.76 104.08L390.45 104.08L390.45 111.69L239.76 111.69z" stroke="none" fill="#85C1E9" fill-rule="nonzero" /><path id="120" transform="matrix(1 0 0 -1 0 612)" d="M239.76 95.63L390.45 95.63L390.45 103.24L239.76 103.24z" stroke="none" fill="#85C1E9" fill-rule="nonzero" /><path id="121" transform="matrix(1 0 0 -1 0 612)" d="M239.76 87.18L390.45 87.18L390.45 94.79L239.76 94.79z" stroke="none" fill="#85C1E9" fill-rule="nonzero" /><path id="122" transform="matrix(1 0 0 -1 0 612)" d="M220.58 85.91L642.52 85.91L642.52 85.91L642.52 552.52L642.52 552.52L220.58 552.52z" stroke="#323232" stroke-width="1.07" stroke-linecap="round" fill="none" /></g><g clip-path="url(#11)"></g><g clip-path="url(#12)"></g><g clip-path="url(#13)"></g><g clip-path="url(#14)"></g><g clip-path="url(#15)"></g><g clip-path="url(#16)"></g><g clip-path="url(#17)"></g><g clip-path="url(#18)"></g><g clip-path="url(#19)"></g><g clip-path="url(#20)"></g><g clip-path="url(#21)"></g><g clip-path="url(#22)"></g><g clip-path="url(#23)"></g><g clip-path="url(#24)"></g><g clip-path="url(#25)"></g><g clip-path="url(#26)"></g><g clip-path="url(#27)"></g><g clip-path="url(#28)"><path id="523" transform="matrix(1 0 0 -1 0 612)" d="M217.84 90.98L220.58 90.98" stroke="#323232" stroke-width="1.07" fill="none" /><path id="524" transform="matrix(1 0 0 -1 0 612)" d="M217.84 99.44L220.58 99.44" stroke="#323232" stroke-width="1.07" fill="none" /><path id="525" transform="matrix(1 0 0 -1 0 612)" d="M217.84 107.89L220.58 107.89" stroke="#323232" stroke-width="1.07" fill="none" /><path id="526" transform="matrix(1 0 0 -1 0 612)" d="M217.84 116.34L220.58 116.34" stroke="#323232" stroke-width="1.07" fill="none" /><path id="527" transform="matrix(1 0 0 -1 0 612)" d="M217.84 124.79L220.58 124.79" stroke="#323232" stroke-width="1.07" fill="none" /><path id="528" transform="matrix(1 0 0 -1 0 612)" d="M217.84 133.25L220.58 133.25" stroke="#323232" stroke-width="1.07" fill="none" /><path id="529" transform="matrix(1 0 0 -1 0 612)" d="M217.84 141.7L220.58 141.7" stroke="#323232" stroke-width="1.07" fill="none" /><path id="530" transform="matrix(1 0 0 -1 0 612)" d="M217.84 150.15L220.58 150.15" stroke="#323232" stroke-width="1.07" fill="none" /><path id="531" transform="matrix(1 0 0 -1 0 612)" d="M217.84 158.61L220.58 158.61" stroke="#323232" stroke-width="1.07" fill="none" /><path id="532" transform="matrix(1 0 0 -1 0 612)" d="M217.84 167.06L220.58 167.06" stroke="#323232" stroke-width="1.07" fill="none" /><path id="533" transform="matrix(1 0 0 -1 0 612)" d="M217.84 175.51L220.58 175.51" stroke="#323232" stroke-width="1.07" fill="none" /><path id="534" transform="matrix(1 0 0 -1 0 612)" d="M217.84 183.97L220.58 183.97" stroke="#323232" stroke-width="1.07" fill="none" /><path id="535" transform="matrix(1 0 0 -1 0 612)" d="M217.84 192.42L220.58 192.42" stroke="#323232" stroke-width="1.07" fill="none" /><path id="536" transform="matrix(1 0 0 -1 0 612)" d="M217.84 200.87L220.58 200.87" stroke="#323232" stroke-width="1.07" fill="none" /><path id="537" transform="matrix(1 0 0 -1 0 612)" d="M217.84 209.33L220.58 209.33" stroke="#323232" stroke-width="1.07" fill="none" /><path id="538" transform="matrix(1 0 0 -1 0 612)" d="M217.84 217.78L220.58 217.78" stroke="#323232" stroke-width="1.07" fill="none" /><path id="539" transform="matrix(1 0 0 -1 0 612)" d="M217.84 226.23L220.58 226.23" stroke="#323232" stroke-width="1.07" fill="none" /><path id="540" transform="matrix(1 0 0 -1 0 612)" d="M217.84 234.68L220.58 234.68" stroke="#323232" stroke-width="1.07" fill="none" /><path id="541" transform="matrix(1 0 0 -1 0 612)" d="M217.84 243.14L220.58 243.14" stroke="#323232" stroke-width="1.07" fill="none" /><path id="542" transform="matrix(1 0 0 -1 0 612)" d="M217.84 251.59L220.58 251.59" stroke="#323232" stroke-width="1.07" fill="none" /><path id="543" transform="matrix(1 0 0 -1 0 612)" d="M217.84 260.04L220.58 260.04" stroke="#323232" stroke-width="1.07" fill="none" /><path id="544" transform="matrix(1 0 0 -1 0 612)" d="M217.84 268.5L220.58 268.5" stroke="#323232" stroke-width="1.07" fill="none" /><path id="545" transform="matrix(1 0 0 -1 0 612)" d="M217.84 276.95L220.58 276.95" stroke="#323232" stroke-width="1.07" fill="none" /><path id="546" transform="matrix(1 0 0 -1 0 612)" d="M217.84 285.4L220.58 285.4" stroke="#323232" stroke-width="1.07" fill="none" /><path id="547" transform="matrix(1 0 0 -1 0 612)" d="M217.84 293.86L220.58 293.86" stroke="#323232" stroke-width="1.07" fill="none" /><path id="548" transform="matrix(1 0 0 -1 0 612)" d="M217.84 302.31L220.58 302.31" stroke="#323232" stroke-width="1.07" fill="none" /><path id="549" transform="matrix(1 0 0 -1 0 612)" d="M217.84 310.76L220.58 310.76" stroke="#323232" stroke-width="1.07" fill="none" /><path id="550" transform="matrix(1 0 0 -1 0 612)" d="M217.84 319.22L220.58 319.22" stroke="#323232" stroke-width="1.07" fill="none" /><path id="551" transform="matrix(1 0 0 -1 0 612)" d="M217.84 327.67L220.58 327.67" stroke="#323232" stroke-width="1.07" fill="none" /><path id="552" transform="matrix(1 0 0 -1 0 612)" d="M217.84 336.12L220.58 336.12" stroke="#323232" stroke-width="1.07" fill="none" /><path id="553" transform="matrix(1 0 0 -1 0 612)" d="M217.84 344.57L220.58 344.57" stroke="#323232" stroke-width="1.07" fill="none" /><path id="554" transform="matrix(1 0 0 -1 0 612)" d="M217.84 353.03L220.58 353.03" stroke="#323232" stroke-width="1.07" fill="none" /><path id="555" transform="matrix(1 0 0 -1 0 612)" d="M217.84 361.48L220.58 361.48" stroke="#323232" stroke-width="1.07" fill="none" /><path id="556" transform="matrix(1 0 0 -1 0 612)" d="M217.84 369.93L220.58 369.93" stroke="#323232" stroke-width="1.07" fill="none" /><path id="557" transform="matrix(1 0 0 -1 0 612)" d="M217.84 378.39L220.58 378.39" stroke="#323232" stroke-width="1.07" fill="none" /><path id="558" transform="matrix(1 0 0 -1 0 612)" d="M217.84 386.84L220.58 386.84" stroke="#323232" stroke-width="1.07" fill="none" /><path id="559" transform="matrix(1 0 0 -1 0 612)" d="M217.84 395.29L220.58 395.29" stroke="#323232" stroke-width="1.07" fill="none" /><path id="560" transform="matrix(1 0 0 -1 0 612)" d="M217.84 403.75L220.58 403.75" stroke="#323232" stroke-width="1.07" fill="none" /><path id="561" transform="matrix(1 0 0 -1 0 612)" d="M217.84 412.2L220.58 412.2" stroke="#323232" stroke-width="1.07" fill="none" /><path id="562" transform="matrix(1 0 0 -1 0 612)" d="M217.84 420.65L220.58 420.65" stroke="#323232" stroke-width="1.07" fill="none" /><path id="563" transform="matrix(1 0 0 -1 0 612)" d="M217.84 429.11L220.58 429.11" stroke="#323232" stroke-width="1.07" fill="none" /><path id="564" transform="matrix(1 0 0 -1 0 612)" d="M217.84 437.56L220.58 437.56" stroke="#323232" stroke-width="1.07" fill="none" /><path id="565" transform="matrix(1 0 0 -1 0 612)" d="M217.84 446.01L220.58 446.01" stroke="#323232" stroke-width="1.07" fill="none" /><path id="566" transform="matrix(1 0 0 -1 0 612)" d="M217.84 454.46L220.58 454.46" stroke="#323232" stroke-width="1.07" fill="none" /><path id="567" transform="matrix(1 0 0 -1 0 612)" d="M217.84 462.92L220.58 462.92" stroke="#323232" stroke-width="1.07" fill="none" /><path id="568" transform="matrix(1 0 0 -1 0 612)" d="M217.84 471.37L220.58 471.37" stroke="#323232" stroke-width="1.07" fill="none" /><path id="569" transform="matrix(1 0 0 -1 0 612)" d="M217.84 479.82L220.58 479.82" stroke="#323232" stroke-width="1.07" fill="none" /><path id="570" transform="matrix(1 0 0 -1 0 612)" d="M217.84 488.28L220.58 488.28" stroke="#323232" stroke-width="1.07" fill="none" /><path id="571" transform="matrix(1 0 0 -1 0 612)" d="M217.84 496.73L220.58 496.73" stroke="#323232" stroke-width="1.07" fill="none" /><path id="572" transform="matrix(1 0 0 -1 0 612)" d="M217.84 505.18L220.58 505.18" stroke="#323232" stroke-width="1.07" fill="none" /><path id="573" transform="matrix(1 0 0 -1 0 612)" d="M217.84 513.64L220.58 513.64" stroke="#323232" stroke-width="1.07" fill="none" /><path id="574" transform="matrix(1 0 0 -1 0 612)" d="M217.84 522.09L220.58 522.09" stroke="#323232" stroke-width="1.07" fill="none" /><path id="575" transform="matrix(1 0 0 -1 0 612)" d="M217.84 530.54L220.58 530.54" stroke="#323232" stroke-width="1.07" fill="none" /><path id="576" transform="matrix(1 0 0 -1 0 612)" d="M217.84 539L220.58 539" stroke="#323232" stroke-width="1.07" fill="none" /><path id="577" transform="matrix(1 0 0 -1 0 612)" d="M217.84 547.45L220.58 547.45" stroke="#323232" stroke-width="1.07" fill="none" /></g><g clip-path="url(#29)"></g><g clip-path="url(#30)"></g><g clip-path="url(#31)"></g><g clip-path="url(#32)"></g><g clip-path="url(#33)"></g><g clip-path="url(#34)"></g><g clip-path="url(#35)"></g><g clip-path="url(#36)"></g><g clip-path="url(#37)"></g><g clip-path="url(#38)"><path id="578" transform="matrix(1 0 0 -1 0 612)" d="M239.76 83.17L239.76 85.91" stroke="#323232" stroke-width="1.07" fill="none" /><path id="579" transform="matrix(1 0 0 -1 0 612)" d="M338.42 83.17L338.42 85.91" stroke="#323232" stroke-width="1.07" fill="none" /><path id="580" transform="matrix(1 0 0 -1 0 612)" d="M437.08 83.17L437.08 85.91" stroke="#323232" stroke-width="1.07" fill="none" /><path id="581" transform="matrix(1 0 0 -1 0 612)" d="M535.74 83.17L535.74 85.91" stroke="#323232" stroke-width="1.07" fill="none" /><path id="582" transform="matrix(1 0 0 -1 0 612)" d="M634.4 83.17L634.4 85.91" stroke="#323232" stroke-width="1.07" fill="none" /></g><g clip-path="url(#39)"></g><g clip-path="url(#40)"></g><g clip-path="url(#41)"></g><g clip-path="url(#42)"></g><g clip-path="url(#43)"></g><g clip-path="url(#44)"></g><g clip-path="url(#45)"></g><g clip-path="url(#46)"></g><g clip-path="url(#47)"></g><g clip-path="url(#48)"></g><g clip-path="url(#49)"></g><g clip-path="url(#50)"></g><g clip-path="url(#51)"></g><g clip-path="url(#52)"></g><g clip-path="url(#53)"></g><g clip-path="url(#54)"></g><g clip-path="url(#55)"></g><g clip-path="url(#56)"></g><g clip-path="url(#57)"></g><g clip-path="url(#58)"></g><g clip-path="url(#59)"></g><g clip-path="url(#60)"></g></g></g></svg>