<svg xmlns="http://www.w3.org/2000/svg" xmlns:xlink="http://www.w3.org/1999/xlink" id="body_1" preserveAspectRatio="xMinYMin meet" viewBox="0 0 1056 816"><defs><clipPath id="1"><path id="" clip-rule="evenodd" transform="matrix(1 0 0 1 0 0)" d="M0 612L0 0L0 0L792 0L792 0L792 612L792 612L0 612z" /></clipPath><clipPath id="2"><path id="" clip-rule="evenodd" transform="matrix(1 0 0 1 0 0)" d="M144 558L648 558L648 558L648 54L648 54L144 54z" /></clipPath><clipPath id="3"><path id="" clip-rule="evenodd" transform="matrix(1 0 0 1 0 0)" d="M144 558L648 558L648 558L648 54L648 54L144 54z" /></clipPath><clipPath id="4"><path id="" clip-rule="evenodd" transform="matrix(1 0 0 1 0 0)" d="M144 558L648 558L648 558L648 54L648 54L144 54z" /></clipPath><clipPath id="5"><path id="" clip-rule="evenodd" transform="matrix(1 0 0 1 0 0)" d="M144 558L648 558L648 558L648 54L648 54L144 54z" /></clipPath><clipPath id="6"><path id="" clip-rule="evenodd" transform="matrix(1 0 0 1 0 0)" d="M144 558L648 558L648 558L648 54L648 54L144 54z" /></clipPath><clipPath id="7"><path id="" clip-rule="evenodd" transform="matrix(1 0 0 1 0 0)" d="M144 558L648 558L648 558L648 54L648 54L144 54z" /></clipPath><clipPath id="8"><path id="" clip-rule="evenodd" transform="matrix(1 0 0 1 0 0)" d="M144 558L648 558L648 558L648 54L648 54L144 54z" /></clipPath><clipPath id="9"><path id="" clip-rule="evenodd" transform="matrix(1 0 0 1 0 0)" d="M144 558L648 558L648 558L648 54L648 54L144 54z" /></clipPath><clipPath id="10"><path id="" clip-rule="evenodd" transform="matrix(1 0 0 1 0 0)" d="M144 558L648 558L648 558L648 54L648 54L144 54z" /></clipPath><clipPath id="11"><path id="" clip-rule="evenodd" transform="matrix(1 0 0 1 0 0)" d="M144 558L648 558L648 558L648 54L648 54L144 54z" /></clipPath><clipPath id="12"><path id="" clip-rule="evenodd" transform="matrix(1 0 0 1 0 0)" d="M144 558L648 558L648 558L648 54L648 54L144 54z" /></clipPath><clipPath id="13"><path id="" clip-rule="evenodd" transform="matrix(1 0 0 1 0 0)" d="M144 558L648 558L648 558L648 54L648 54L144 54z" /></clipPath><clipPath id="14"><path id="" clip-rule="evenodd" transform="matrix(1 0 0 1 0 0)" d="M144 558L648 558L648 558L648 54L648 54L144 54z" /></clipPath><clipPath id="15"><path id="" clip-rule="evenodd" transform="matrix(1 0 0 1 0 0)" d="M187.48 526.09L642.52 526.09L642.52 526.09L642.52 77.15002L642.52 77.15002L187.48 77.15002z" /></clipPath><clipPath id="16"><path id="" clip-rule="evenodd" transform="matrix(1 0 0 1 0 0)" d="M144 558L648 558L648 558L648 54L648 54L144 54z" /></clipPath><clipPath id="17"><path id="" clip-rule="evenodd" transform="matrix(1 0 0 1 0 0)" d="M144 558L648 558L648 558L648 54L648 54L144 54z" /></clipPath><clipPath id="18"><path id="" clip-rule="evenodd" transform="matrix(1 0 0 1 0 0)" d="M144 558L648 558L648 558L648 54L648 54L144 54z" /></clipPath><clipPath id="19"><path id="" clip-rule="evenodd" transform="matrix(1 0 0 1 0 0)" d="M144 558L648 558L648 558L648 54L648 54L144 54z" /></clipPath><clipPath id="20"><path id="" clip-rule="evenodd" transform="matrix(1 0 0 1 0 0)" d="M144 558L648 558L648 558L648 54L648 54L144 54z" /></clipPath><clipPath id="21"><path id="" clip-rule="evenodd" transform="matrix(1 0 0 1 0 0)" d="M144 558L648 558L648 558L648 54L648 54L144 54z" /></clipPath><clipPath id="22"><path id="" clip-rule="evenodd" transform="matrix(1 0 0 1 0 0)" d="M144 558L648 558L648 558L648 54L648 54L144 54z" /></clipPath><clipPath id="23"><path id="" clip-rule="evenodd" transform="matrix(1 0 0 1 0 0)" d="M144 558L648 558L648 558L648 54L648 54L144 54z" /></clipPath><clipPath id="24"><path id="" clip-rule="evenodd" transform="matrix(1 0 0 1 0 0)" d="M144 558L648 558L648 558L648 54L648 54L144 54z" /></clipPath><clipPath id="25"><path id="" clip-rule="evenodd" transform="matrix(1 0 0 1 0 0)" d="M144 558L648 558L648 558L648 54L648 54L144 54z" /></clipPath><clipPath id="26"><path id="" clip-rule="evenodd" transform="matrix(1 0 0 1 0 0)" d="M144 558L648 558L648 558L648 54L648 54L144 54z" /></clipPath><clipPath id="27"><path id="" clip-rule="evenodd" transform="matrix(1 0 0 1 0 0)" d="M144 558L648 558L648 558L648 54L648 54L144 54z" /></clipPath><clipPath id="28"><path id="" clip-rule="evenodd" transform="matrix(1 0 0 1 0 0)" d="M144 558L648 558L648 558L648 54L648 54L144 54z" /></clipPath><clipPath id="29"><path id="" clip-rule="evenodd" transform="matrix(1 0 0 1 0 0)" d="M144 558L648 558L648 558L648 54L648 54L144 54z" /></clipPath><clipPath id="30"><path id="" clip-rule="evenodd" transform="matrix(1 0 0 1 0 0)" d="M144 558L648 558L648 558L648 54L648 54L144 54z" /></clipPath><clipPath id="31"><path id="" clip-rule="evenodd" transform="matrix(1 0 0 1 0 0)" d="M144 558L648 558L648 558L648 54L648 54L144 54z" /></clipPath><clipPath id="32"><path id="" clip-rule="evenodd" transform="matrix(1 0 0 1 0 0)" d="M144 558L648 558L648 558L648 54L648 54L144 54z" /></clipPath><clipPath id="33"><path id="" clip-rule="evenodd" transform="matrix(1 0 0 1 0 0)" d="M144 558L648 558L648 558L648 54L648 54L144 54z" /></clipPath><clipPath id="34"><path id="" clip-rule="evenodd" transform="matrix(1 0 0 1 0 0)" d="M144 558L648 558L648 558L648 54L648 54L144 54z" /></clipPath><clipPath id="35"><path id="" clip-rule="evenodd" transform="matrix(1 0 0 1 0 0)" d="M144 558L648 558L648 558L648 54L648 54L144 54z" /></clipPath><clipPath id="36"><path id="" clip-rule="evenodd" transform="matrix(1 0 0 1 0 0)" d="M144 558L648 558L648 558L648 54L648 54L144 54z" /></clipPath><clipPath id="37"><path id="" clip-rule="evenodd" transform="matrix(1 0 0 1 0 0)" d="M144 558L648 558L648 558L648 54L648 54L144 54z" /></clipPath><clipPath id="38"><path id="" clip-rule="evenodd" transform="matrix(1 0 0 1 0 0)" d="M144 558L648 558L648 558L648 54L648 54L144 54z" /></clipPath><clipPath id="39"><path id="" clip-rule="evenodd" transform="matrix(1 0 0 1 0 0)" d="M144 558L648 558L648 558L648 54L648 54L144 54z" /></clipPath><clipPath id="40"><path id="" clip-rule="evenodd" transform="matrix(1 0 0 1 0 0)" d="M144 558L648 558L648 558L648 54L648 54L144 54z" /></clipPath><clipPath id="41"><path id="" clip-rule="evenodd" transform="matrix(1 0 0 1 0 0)" d="M144 558L648 558L648 558L648 54L648 54L144 54z" /></clipPath><clipPath id="42"><path id="" clip-rule="evenodd" transform="matrix(1 0 0 1 0 0)" d="M144 558L648 558L648 558L648 54L648 54L144 54z" /></clipPath><clipPath id="43"><path id="" clip-rule="evenodd" transform="matrix(1 0 0 1 0 0)" d="M144 558L648 558L648 558L648 54L648 54L144 54z" /></clipPath><clipPath id="44"><path id="" clip-rule="evenodd" transform="matrix(1 0 0 1 0 0)" d="M144 558L648 558L648 558L648 54L648 54L144 54z" /></clipPath><clipPath id="45"><path id="" clip-rule="evenodd" transform="matrix(1 0 0 1 0 0)" d="M144 558L648 558L648 558L648 54L648 54L144 54z" /></clipPath><clipPath id="46"><path id="" clip-rule="evenodd" transform="matrix(1 0 0 1 0 0)" d="M144 558L648 558L648 558L648 54L648 54L144 54z" /></clipPath><clipPath id="47"><path id="" clip-rule="evenodd" transform="matrix(1 0 0 1 0 0)" d="M144 558L648 558L648 558L648 54L648 54L144 54z" /></clipPath><clipPath id="48"><path id="" clip-rule="evenodd" transform="matrix(1 0 0 1 0 0)" d="M144 558L648 558L648 558L648 54L648 54L144 54z" /></clipPath><clipPath id="49"><path id="" clip-rule="evenodd" transform="matrix(1 0 0 1 0 0)" d="M144 558L648 558L648 558L648 54L648 54L144 54z" /></clipPath><clipPath id="50"><path id="" clip-rule="evenodd" transform="matrix(1 0 0 1 0 0)" d="M144 558L648 558L648 558L648 54L648 54L144 54z" /></clipPath><clipPath id="51"><path id="" clip-rule="evenodd" transform="matrix(1 0 0 1 0 0)" d="M144 558L648 558L648 558L648 54L648 54L144 54z" /></clipPath><clipPath id="52"><path id="" clip-rule="evenodd" transform="matrix(1 0 0 1 0 0)" d="M144 558L648 558L648 558L648 54L648 54L144 54z" /></clipPath><clipPath id="53"><path id="" clip-rule="evenodd" transform="matrix(1 0 0 1 0 0)" d="M144 558L648 558L648 558L648 54L648 54L144 54z" /></clipPath><clipPath id="54"><path id="" clip-rule="evenodd" transform="matrix(1 0 0 1 0 0)" d="M144 558L648 558L648 558L648 54L648 54L144 54z" /></clipPath><clipPath id="55"><path id="" clip-rule="evenodd" transform="matrix(1 0 0 1 0 0)" d="M144 558L648 558L648 558L648 54L648 54L144 54z" /></clipPath><clipPath id="56"><path id="" clip-rule="evenodd" transform="matrix(1 0 0 1 0 0)" d="M144 558L648 558L648 558L648 54L648 54L144 54z" /></clipPath><clipPath id="57"><path id="" clip-rule="evenodd" transform="matrix(1 0 0 1 0 0)" d="M144 558L648 558L648 558L648 54L648 54L144 54z" /></clipPath><clipPath id="58"><path id="" clip-rule="evenodd" transform="matrix(1 0 0 1 0 0)" d="M144 558L648 558L648 558L648 54L648 54L144 54z" /></clipPath><clipPath id="59"><path id="" clip-rule="evenodd" transform="matrix(1 0 0 1 0 0)" d="M144 558L648 558L648 558L648 54L648 54L144 54z" /></clipPath><clipPath id="60"><path id="" clip-rule="evenodd" transform="matrix(1 0 0 1 0 0)" d="M144 558L648 558L648 558L648 54L648 54L144 54z" /></clipPath><clipPath id="61"><path id="" clip-rule="evenodd" transform="matrix(1 0 0 1 0 0)" d="M144 558L648 558L648 558L648 54L648 54L144 54z" /></clipPath><clipPath id="62"><path id="" clip-rule="evenodd" transform="matrix(1 0 0 1 0 0)" d="M144 558L648 558L648 558L648 54L648 54L144 54z" /></clipPath><clipPath id="63"><path id="" clip-rule="evenodd" transform="matrix(1 0 0 1 0 0)" d="M144 558L648 558L648 558L648 54L648 54L144 54z" /></clipPath><clipPath id="64"><path id="" clip-rule="evenodd" transform="matrix(1 0 0 1 0 0)" d="M144 558L648 558L648 558L648 54L648 54L144 54z" /></clipPath><clipPath id="65"><path id="" clip-rule="evenodd" transform="matrix(1 0 0 1 0 0)" d="M144 558L648 558L648 558L648 54L648 54L144 54z" /></clipPath></defs><g transform="matrix(1.333333 0 0 1.333333 0 0)"><g clip-path="url(#1)"><g clip-path="url(#2)"></g><g clip-path="url(#3)"></g><g clip-path="url(#4)"></g><g clip-path="url(#5)"></g><g clip-path="url(#6)"></g><g clip-path="url(#7)"></g><g clip-path="url(#8)"></g><g clip-path="url(#9)"></g><g clip-path="url(#10)"></g><g clip-path="url(#11)"></g><g clip-path="url(#12)"></g><g clip-path="url(#13)"><path id="1" transform="matrix(1 0 0 -1 0 612)" d="M144 54L648 54L648 54L648 558L648 558L144 558z" stroke="#FFFFFF" stroke-width="1.07" fill="#FFFFFF" fill-rule="nonzero" /></g><g clip-path="url(#14)"></g><g clip-path="url(#15)"><path id="2" transform="matrix(1 0 0 -1 0 612)" d="M187.48 85.91L642.52 85.91L642.52 534.85L187.48 534.85z" stroke="none" fill="#FFFFFF" fill-rule="nonzero" /><path id="3" transform="matrix(1 0 0 -1 0 612)" d="M251.26 85.91L251.26 534.85" stroke="#EBEBEB" stroke-width="0.53" fill="none" /><path id="4" transform="matrix(1 0 0 -1 0 612)" d="M337.44 85.91L337.44 534.85" stroke="#EBEBEB" stroke-width="0.53" fill="none" /><path id="5" transform="matrix(1 0 0 -1 0 612)" d="M423.62 85.91L423.62 534.85" stroke="#EBEBEB" stroke-width="0.53" fill="none" /><path id="6" transform="matrix(1 0 0 -1 0 612)" d="M509.8 85.91L509.8 534.85" stroke="#EBEBEB" stroke-width="0.53" fill="none" /><path id="7" transform="matrix(1 0 0 -1 0 612)" d="M595.98 85.91L595.98 534.85" stroke="#EBEBEB" stroke-width="0.53" fill="none" /><path id="8" transform="matrix(1 0 0 -1 0 612)" d="M187.48 91.28L642.52 91.28" stroke="#EBEBEB" stroke-width="1.07" fill="none" /><path id="9" transform="matrix(1 0 0 -1 0 612)" d="M187.48 100.22L642.52 100.22" stroke="#EBEBEB" stroke-width="1.07" fill="none" /><path id="10" transform="matrix(1 0 0 -1 0 612)" d="M187.48 109.16L642.52 109.16" stroke="#EBEBEB" stroke-width="1.07" fill="none" /><path id="11" transform="matrix(1 0 0 -1 0 612)" d="M187.48 118.11L642.52 118.11" stroke="#EBEBEB" stroke-width="1.07" fill="none" /><path id="12" transform="matrix(1 0 0 -1 0 612)" d="M187.48 127.05L642.52 127.05" stroke="#EBEBEB" stroke-width="1.07" fill="none" /><path id="13" transform="matrix(1 0 0 -1 0 612)" d="M187.48 135.99L642.52 135.99" stroke="#EBEBEB" stroke-width="1.07" fill="none" /><path id="14" transform="matrix(1 0 0 -1 0 612)" d="M187.48 144.93L642.52 144.93" stroke="#EBEBEB" stroke-width="1.07" fill="none" /><path id="15" transform="matrix(1 0 0 -1 0 612)" d="M187.48 153.88L642.52 153.88" stroke="#EBEBEB" stroke-width="1.07" fill="none" /><path id="16" transform="matrix(1 0 0 -1 0 612)" d="M187.48 162.82L642.52 162.82" stroke="#EBEBEB" stroke-width="1.07" fill="none" /><path id="17" transform="matrix(1 0 0 -1 0 612)" d="M187.48 171.76L642.52 171.76" stroke="#EBEBEB" stroke-width="1.07" fill="none" /><path id="18" transform="matrix(1 0 0 -1 0 612)" d="M187.48 180.71L642.52 180.71" stroke="#EBEBEB" stroke-width="1.07" fill="none" /><path id="19" transform="matrix(1 0 0 -1 0 612)" d="M187.48 189.65L642.52 189.65" stroke="#EBEBEB" stroke-width="1.07" fill="none" /><path id="20" transform="matrix(1 0 0 -1 0 612)" d="M187.48 198.59L642.52 198.59" stroke="#EBEBEB" stroke-width="1.07" fill="none" /><path id="21" transform="matrix(1 0 0 -1 0 612)" d="M187.48 207.53L642.52 207.53" stroke="#EBEBEB" stroke-width="1.07" fill="none" /><path id="22" transform="matrix(1 0 0 -1 0 612)" d="M187.48 216.48L642.52 216.48" stroke="#EBEBEB" stroke-width="1.07" fill="none" /><path id="23" transform="matrix(1 0 0 -1 0 612)" d="M187.48 225.42L642.52 225.42" stroke="#EBEBEB" stroke-width="1.07" fill="none" /><path id="24" transform="matrix(1 0 0 -1 0 612)" d="M187.48 234.36L642.52 234.36" stroke="#EBEBEB" stroke-width="1.07" fill="none" /><path id="25" transform="matrix(1 0 0 -1 0 612)" d="M187.48 243.31L642.52 243.31" stroke="#EBEBEB" stroke-width="1.07" fill="none" /><path id="26" transform="matrix(1 0 0 -1 0 612)" d="M187.48 252.25L642.52 252.25" stroke="#EBEBEB" stroke-width="1.07" fill="none" /><path id="27" transform="matrix(1 0 0 -1 0 612)" d="M187.48 261.19L642.52 261.19" stroke="#EBEBEB" stroke-width="1.07" fill="none" /><path id="28" transform="matrix(1 0 0 -1 0 612)" d="M187.48 270.14L642.52 270.14" stroke="#EBEBEB" stroke-width="1.07" fill="none" /><path id="29" transform="matrix(1 0 0 -1 0 612)" d="M187.48 279.08L642.52 279.08" stroke="#EBEBEB" stroke-width="1.07" fill="none" /><path id="30" transform="matrix(1 0 0 -1 0 612)" d="M187.48 288.02L642.52 288.02" stroke="#EBEBEB" stroke-width="1.07" fill="none" /><path id="31" transform="matrix(1 0 0 -1 0 612)" d="M187.48 296.96L642.52 296.96" stroke="#EBEBEB" stroke-width="1.07" fill="none" /><path id="32" transform="matrix(1 0 0 -1 0 612)" d="M187.48 305.91L642.52 305.91" stroke="#EBEBEB" stroke-width="1.07" fill="none" /><path id="33" transform="matrix(1 0 0 -1 0 612)" d="M187.48 314.85L642.52 314.85" stroke="#EBEBEB" stroke-width="1.07" fill="none" /><path id="34" transform="matrix(1 0 0 -1 0 612)" d="M187.48 323.79L642.52 323.79" stroke="#EBEBEB" stroke-width="1.07" fill="none" /><path id="35" transform="matrix(1 0 0 -1 0 612)" d="M187.48 332.74L642.52 332.74" stroke="#EBEBEB" stroke-width="1.07" fill="none" /><path id="36" transform="matrix(1 0 0 -1 0 612)" d="M187.48 341.68L642.52 341.68" stroke="#EBEBEB" stroke-width="1.07" fill="none" /><path id="37" transform="matrix(1 0 0 -1 0 612)" d="M187.48 350.62L642.52 350.62" stroke="#EBEBEB" stroke-width="1.07" fill="none" /><path id="38" transform="matrix(1 0 0 -1 0 612)" d="M187.48 359.57L642.52 359.57" stroke="#EBEBEB" stroke-width="1.07" fill="none" /><path id="39" transform="matrix(1 0 0 -1 0 612)" d="M187.48 368.51L642.52 368.51" stroke="#EBEBEB" stroke-width="1.07" fill="none" /><path id="40" transform="matrix(1 0 0 -1 0 612)" d="M187.48 377.45L642.52 377.45" stroke="#EBEBEB" stroke-width="1.07" fill="none" /><path id="41" transform="matrix(1 0 0 -1 0 612)" d="M187.48 386.39L642.52 386.39" stroke="#EBEBEB" stroke-width="1.07" fill="none" /><path id="42" transform="matrix(1 0 0 -1 0 612)" d="M187.48 395.34L642.52 395.34" stroke="#EBEBEB" stroke-width="1.07" fill="none" /><path id="43" transform="matrix(1 0 0 -1 0 612)" d="M187.48 404.28L642.52 404.28" stroke="#EBEBEB" stroke-width="1.07" fill="none" /><path id="44" transform="matrix(1 0 0 -1 0 612)" d="M187.48 413.22L642.52 413.22" stroke="#EBEBEB" stroke-width="1.07" fill="none" /><path id="45" transform="matrix(1 0 0 -1 0 612)" d="M187.48 422.17L642.52 422.17" stroke="#EBEBEB" stroke-width="1.07" fill="none" /><path id="46" transform="matrix(1 0 0 -1 0 612)" d="M187.48 431.11L642.52 431.11" stroke="#EBEBEB" stroke-width="1.07" fill="none" /><path id="47" transform="matrix(1 0 0 -1 0 612)" d="M187.48 440.05L642.52 440.05" stroke="#EBEBEB" stroke-width="1.07" fill="none" /><path id="48" transform="matrix(1 0 0 -1 0 612)" d="M187.48 448.99L642.52 448.99" stroke="#EBEBEB" stroke-width="1.07" fill="none" /><path id="49" transform="matrix(1 0 0 -1 0 612)" d="M187.48 457.94L642.52 457.94" stroke="#EBEBEB" stroke-width="1.07" fill="none" /><path id="50" transform="matrix(1 0 0 -1 0 612)" d="M187.48 466.88L642.52 466.88" stroke="#EBEBEB" stroke-width="1.07" fill="none" /><path id="51" transform="matrix(1 0 0 -1 0 612)" d="M187.48 475.82L642.52 475.82" stroke="#EBEBEB" stroke-width="1.07" fill="none" /><path id="52" transform="matrix(1 0 0 -1 0 612)" d="M187.48 484.77L642.52 484.77" stroke="#EBEBEB" stroke-width="1.07" fill="none" /><path id="53" transform="matrix(1 0 0 -1 0 612)" d="M187.48 493.71L642.52 493.71" stroke="#EBEBEB" stroke-width="1.07" fill="none" /><path id="54" transform="matrix(1 0 0 -1 0 612)" d="M187.48 502.65L642.52 502.65" stroke="#EBEBEB" stroke-width="1.07" fill="none" /><path id="55" transform="matrix(1 0 0 -1 0 612)" d="M187.48 511.6L642.52 511.6" stroke="#EBEBEB" stroke-width="1.07" fill="none" /><path id="56" transform="matrix(1 0 0 -1 0 612)" d="M187.48 520.54L642.52 520.54" stroke="#EBEBEB" stroke-width="1.07" fill="none" /><path id="57" transform="matrix(1 0 0 -1 0 612)" d="M187.48 529.48L642.52 529.48" stroke="#EBEBEB" stroke-width="1.07" fill="none" /><path id="58" transform="matrix(1 0 0 -1 0 612)" d="M208.17 85.91L208.17 534.85" stroke="#EBEBEB" stroke-width="1.07" fill="none" /><path id="59" transform="matrix(1 0 0 -1 0 612)" d="M294.35 85.91L294.35 534.85" stroke="#EBEBEB" stroke-width="1.07" fill="none" /><path id="60" transform="matrix(1 0 0 -1 0 612)" d="M380.53 85.91L380.53 534.85" stroke="#EBEBEB" stroke-width="1.07" fill="none" /><path id="61" transform="matrix(1 0 0 -1 0 612)" d="M466.71 85.91L466.71 534.85" stroke="#EBEBEB" stroke-width="1.07" fill="none" /><path id="62" transform="matrix(1 0 0 -1 0 612)" d="M552.89 85.91L552.89 534.85" stroke="#EBEBEB" stroke-width="1.07" fill="none" /><path id="63" transform="matrix(1 0 0 -1 0 612)" d="M639.07 85.91L639.07 534.85" stroke="#EBEBEB" stroke-width="1.07" fill="none" /><path id="64" transform="matrix(1 0 0 -1 0 612)" d="M208.17 525.46L621.84 525.46L621.84 525.46L621.84 533.51L621.84 533.51L208.17 533.51z" stroke="#FFFFFF" stroke-width="1.07" fill="#F4D03F" fill-rule="nonzero" /><path id="65" transform="matrix(1 0 0 -1 0 612)" d="M208.17 507.57L552.89 507.57L552.89 507.57L552.89 515.62L552.89 515.62L208.17 515.62z" stroke="#FFFFFF" stroke-width="1.07" fill="#F4D03F" fill-rule="nonzero" /><path id="66" transform="matrix(1 0 0 -1 0 612)" d="M208.17 516.51L552.89 516.51L552.89 516.51L552.89 524.56L552.89 524.56L208.17 524.56z" stroke="#FFFFFF" stroke-width="1.07" fill="#F4D03F" fill-rule="nonzero" /><path id="67" transform="matrix(1 0 0 -1 0 612)" d="M208.17 489.69L501.19 489.69L501.19 489.69L501.19 497.74L501.19 497.74L208.17 497.74z" stroke="#FFFFFF" stroke-width="1.07" fill="#F4D03F" fill-rule="nonzero" /><path id="68" transform="matrix(1 0 0 -1 0 612)" d="M208.17 498.63L501.19 498.63L501.19 498.63L501.19 506.68L501.19 506.68L208.17 506.68z" stroke="#FFFFFF" stroke-width="1.07" fill="#F4D03F" fill-rule="nonzero" /><path id="69" transform="matrix(1 0 0 -1 0 612)" d="M208.17 453.91L483.95 453.91L483.95 453.91L483.95 461.96L483.95 461.96L208.17 461.96z" stroke="#FFFFFF" stroke-width="1.07" fill="#F4D03F" fill-rule="nonzero" /><path id="70" transform="matrix(1 0 0 -1 0 612)" d="M208.17 462.86L483.95 462.86L483.95 462.86L483.95 470.91L483.95 470.91L208.17 470.91z" stroke="#FFFFFF" stroke-width="1.07" fill="#F4D03F" fill-rule="nonzero" /><path id="71" transform="matrix(1 0 0 -1 0 612)" d="M208.17 471.8L483.95 471.8L483.95 471.8L483.95 479.85L483.95 479.85L208.17 479.85z" stroke="#FFFFFF" stroke-width="1.07" fill="#F4D03F" fill-rule="nonzero" /><path id="72" transform="matrix(1 0 0 -1 0 612)" d="M208.17 480.74L483.95 480.74L483.95 480.74L483.95 488.79L483.95 488.79L208.17 488.79z" stroke="#FFFFFF" stroke-width="1.07" fill="#F4D03F" fill-rule="nonzero" /><path id="73" transform="matrix(1 0 0 -1 0 612)" d="M208.17 444.97L466.71 444.97L466.71 444.97L466.71 453.02L466.71 453.02L208.17 453.02z" stroke="#FFFFFF" stroke-width="1.07" fill="#F4D03F" fill-rule="nonzero" /><path id="74" transform="matrix(1 0 0 -1 0 612)" d="M208.17 418.14L449.48 418.14L449.48 418.14L449.48 426.19L449.48 426.19L208.17 426.19z" stroke="#FFFFFF" stroke-width="1.07" fill="#F4D03F" fill-rule="nonzero" /><path id="75" transform="matrix(1 0 0 -1 0 612)" d="M208.17 427.08L449.48 427.08L449.48 427.08L449.48 435.13L449.48 435.13L208.17 435.13z" stroke="#FFFFFF" stroke-width="1.07" fill="#F4D03F" fill-rule="nonzero" /><path id="76" transform="matrix(1 0 0 -1 0 612)" d="M208.17 436.03L449.48 436.03L449.48 436.03L449.48 444.08L449.48 444.08L208.17 444.08z" stroke="#FFFFFF" stroke-width="1.07" fill="#F4D03F" fill-rule="nonzero" /><path id="77" transform="matrix(1 0 0 -1 0 612)" d="M208.17 400.26L432.24 400.26L432.24 400.26L432.24 408.31L432.24 408.31L208.17 408.31z" stroke="#FFFFFF" stroke-width="1.07" fill="#F4D03F" fill-rule="nonzero" /><path id="78" transform="matrix(1 0 0 -1 0 612)" d="M208.17 409.2L432.24 409.2L432.24 409.2L432.24 417.25L432.24 417.25L208.17 417.25z" stroke="#FFFFFF" stroke-width="1.07" fill="#F4D03F" fill-rule="nonzero" /><path id="79" transform="matrix(1 0 0 -1 0 612)" d="M208.17 382.37L397.77 382.37L397.77 382.37L397.77 390.42L397.77 390.42L208.17 390.42z" stroke="#FFFFFF" stroke-width="1.07" fill="#F4D03F" fill-rule="nonzero" /><path id="80" transform="matrix(1 0 0 -1 0 612)" d="M208.17 391.31L397.77 391.31L397.77 391.31L397.77 399.36L397.77 399.36L208.17 399.36z" stroke="#FFFFFF" stroke-width="1.07" fill="#F4D03F" fill-rule="nonzero" /><path id="81" transform="matrix(1 0 0 -1 0 612)" d="M208.17 337.65L380.53 337.65L380.53 337.65L380.53 345.7L380.53 345.7L208.17 345.7z" stroke="#FFFFFF" stroke-width="1.07" fill="#F4D03F" fill-rule="nonzero" /><path id="82" transform="matrix(1 0 0 -1 0 612)" d="M208.17 346.6L380.53 346.6L380.53 346.6L380.53 354.65L380.53 354.65L208.17 354.65z" stroke="#FFFFFF" stroke-width="1.07" fill="#F4D03F" fill-rule="nonzero" /><path id="83" transform="matrix(1 0 0 -1 0 612)" d="M208.17 355.54L380.53 355.54L380.53 355.54L380.53 363.59L380.53 363.59L208.17 363.59z" stroke="#FFFFFF" stroke-width="1.07" fill="#F4D03F" fill-rule="nonzero" /><path id="84" transform="matrix(1 0 0 -1 0 612)" d="M208.17 364.48L380.53 364.48L380.53 364.48L380.53 372.53L380.53 372.53L208.17 372.53z" stroke="#FFFFFF" stroke-width="1.07" fill="#F4D03F" fill-rule="nonzero" /><path id="85" transform="matrix(1 0 0 -1 0 612)" d="M208.17 373.43L380.53 373.43L380.53 373.43L380.53 381.48L380.53 381.48L208.17 381.48z" stroke="#FFFFFF" stroke-width="1.07" fill="#F4D03F" fill-rule="nonzero" /><path id="86" transform="matrix(1 0 0 -1 0 612)" d="M208.17 301.88L363.3 301.88L363.3 301.88L363.3 309.93L363.3 309.93L208.17 309.93z" stroke="#FFFFFF" stroke-width="1.07" fill="#F4D03F" fill-rule="nonzero" /><path id="87" transform="matrix(1 0 0 -1 0 612)" d="M208.17 310.83L363.3 310.83L363.3 310.83L363.3 318.88L363.3 318.88L208.17 318.88z" stroke="#FFFFFF" stroke-width="1.07" fill="#F4D03F" fill-rule="nonzero" /><path id="88" transform="matrix(1 0 0 -1 0 612)" d="M208.17 319.77L363.3 319.77L363.3 319.77L363.3 327.82L363.3 327.82L208.17 327.82z" stroke="#FFFFFF" stroke-width="1.07" fill="#F4D03F" fill-rule="nonzero" /><path id="89" transform="matrix(1 0 0 -1 0 612)" d="M208.17 328.71L363.3 328.71L363.3 328.71L363.3 336.76L363.3 336.76L208.17 336.76z" stroke="#FFFFFF" stroke-width="1.07" fill="#F4D03F" fill-rule="nonzero" /><path id="90" transform="matrix(1 0 0 -1 0 612)" d="M208.17 284L328.82 284L328.82 284L328.82 292.05L328.82 292.05L208.17 292.05z" stroke="#FFFFFF" stroke-width="1.07" fill="#F4D03F" fill-rule="nonzero" /><path id="91" transform="matrix(1 0 0 -1 0 612)" d="M208.17 292.94L328.82 292.94L328.82 292.94L328.82 300.99L328.82 300.99L208.17 300.99z" stroke="#FFFFFF" stroke-width="1.07" fill="#F4D03F" fill-rule="nonzero" /><path id="92" transform="matrix(1 0 0 -1 0 612)" d="M208.17 248.23L311.59 248.23L311.59 248.23L311.59 256.28L311.59 256.28L208.17 256.28z" stroke="#FFFFFF" stroke-width="1.07" fill="#F4D03F" fill-rule="nonzero" /><path id="93" transform="matrix(1 0 0 -1 0 612)" d="M208.17 257.17L311.59 257.17L311.59 257.17L311.59 265.22L311.59 265.22L208.17 265.22z" stroke="#FFFFFF" stroke-width="1.07" fill="#F4D03F" fill-rule="nonzero" /><path id="94" transform="matrix(1 0 0 -1 0 612)" d="M208.17 266.11L311.59 266.11L311.59 266.11L311.59 274.16L311.59 274.16L208.17 274.16z" stroke="#FFFFFF" stroke-width="1.07" fill="#F4D03F" fill-rule="nonzero" /><path id="95" transform="matrix(1 0 0 -1 0 612)" d="M208.17 275.05L311.59 275.05L311.59 275.05L311.59 283.1L311.59 283.1L208.17 283.1z" stroke="#FFFFFF" stroke-width="1.07" fill="#F4D03F" fill-rule="nonzero" /><path id="96" transform="matrix(1 0 0 -1 0 612)" d="M208.17 230.34L294.35 230.34L294.35 230.34L294.35 238.39L294.35 238.39L208.17 238.39z" stroke="#FFFFFF" stroke-width="1.07" fill="#F4D03F" fill-rule="nonzero" /><path id="97" transform="matrix(1 0 0 -1 0 612)" d="M208.17 239.28L294.35 239.28L294.35 239.28L294.35 247.33L294.35 247.33L208.17 247.33z" stroke="#FFFFFF" stroke-width="1.07" fill="#F4D03F" fill-rule="nonzero" /><path id="98" transform="matrix(1 0 0 -1 0 612)" d="M208.17 194.57L277.11 194.57L277.11 194.57L277.11 202.62L277.11 202.62L208.17 202.62z" stroke="#FFFFFF" stroke-width="1.07" fill="#F4D03F" fill-rule="nonzero" /><path id="99" transform="matrix(1 0 0 -1 0 612)" d="M208.17 203.51L277.11 203.51L277.11 203.51L277.11 211.56L277.11 211.56L208.17 211.56z" stroke="#FFFFFF" stroke-width="1.07" fill="#F4D03F" fill-rule="nonzero" /><path id="100" transform="matrix(1 0 0 -1 0 612)" d="M208.17 212.45L277.11 212.45L277.11 212.45L277.11 220.5L277.11 220.5L208.17 220.5z" stroke="#FFFFFF" stroke-width="1.07" fill="#F4D03F" fill-rule="nonzero" /><path id="101" transform="matrix(1 0 0 -1 0 612)" d="M208.17 221.4L277.11 221.4L277.11 221.4L277.11 229.45L277.11 229.45L208.17 229.45z" stroke="#FFFFFF" stroke-width="1.07" fill="#F4D03F" fill-rule="nonzero" /><path id="102" transform="matrix(1 0 0 -1 0 612)" d="M208.17 149.85L259.88 149.85L259.88 149.85L259.88 157.9L259.88 157.9L208.17 157.9z" stroke="#FFFFFF" stroke-width="1.07" fill="#F4D03F" fill-rule="nonzero" /><path id="103" transform="matrix(1 0 0 -1 0 612)" d="M208.17 158.8L259.88 158.8L259.88 158.8L259.88 166.85L259.88 166.85L208.17 166.85z" stroke="#FFFFFF" stroke-width="1.07" fill="#F4D03F" fill-rule="nonzero" /><path id="104" transform="matrix(1 0 0 -1 0 612)" d="M208.17 167.74L259.88 167.74L259.88 167.74L259.88 175.79L259.88 175.79L208.17 175.79z" stroke="#FFFFFF" stroke-width="1.07" fill="#F4D03F" fill-rule="nonzero" /><path id="105" transform="matrix(1 0 0 -1 0 612)" d="M208.17 176.68L259.88 176.68L259.88 176.68L259.88 184.73L259.88 184.73L208.17 184.73z" stroke="#FFFFFF" stroke-width="1.07" fill="#F4D03F" fill-rule="nonzero" /><path id="106" transform="matrix(1 0 0 -1 0 612)" d="M208.17 185.62L259.88 185.62L259.88 185.62L259.88 193.67L259.88 193.67L208.17 193.67z" stroke="#FFFFFF" stroke-width="1.07" fill="#F4D03F" fill-rule="nonzero" /><path id="107" transform="matrix(1 0 0 -1 0 612)" d="M208.17 87.25L242.64 87.25L242.64 87.25L242.64 95.3L242.64 95.3L208.17 95.3z" stroke="#FFFFFF" stroke-width="1.07" fill="#F4D03F" fill-rule="nonzero" /><path id="108" transform="matrix(1 0 0 -1 0 612)" d="M208.17 96.2L242.64 96.2L242.64 96.2L242.64 104.25L242.64 104.25L208.17 104.25z" stroke="#FFFFFF" stroke-width="1.07" fill="#F4D03F" fill-rule="nonzero" /><path id="109" transform="matrix(1 0 0 -1 0 612)" d="M208.17 105.14L242.64 105.14L242.64 105.14L242.64 113.19L242.64 113.19L208.17 113.19z" stroke="#FFFFFF" stroke-width="1.07" fill="#F4D03F" fill-rule="nonzero" /><path id="110" transform="matrix(1 0 0 -1 0 612)" d="M208.17 114.08L242.64 114.08L242.64 114.08L242.64 122.13L242.64 122.13L208.17 122.13z" stroke="#FFFFFF" stroke-width="1.07" fill="#F4D03F" fill-rule="nonzero" /><path id="111" transform="matrix(1 0 0 -1 0 612)" d="M208.17 123.02L242.64 123.02L242.64 123.02L242.64 131.07L242.64 131.07L208.17 131.07z" stroke="#FFFFFF" stroke-width="1.07" fill="#F4D03F" fill-rule="nonzero" /><path id="112" transform="matrix(1 0 0 -1 0 612)" d="M208.17 131.97L242.64 131.97L242.64 131.97L242.64 140.02L242.64 140.02L208.17 140.02z" stroke="#FFFFFF" stroke-width="1.07" fill="#F4D03F" fill-rule="nonzero" /><path id="113" transform="matrix(1 0 0 -1 0 612)" d="M208.17 140.91L242.64 140.91L242.64 140.91L242.64 148.96L242.64 148.96L208.17 148.96z" stroke="#FFFFFF" stroke-width="1.07" fill="#F4D03F" fill-rule="nonzero" /><path id="286" transform="matrix(1 0 0 -1 0 612)" d="M187.48 85.91L642.52 85.91L642.52 85.91L642.52 534.85L642.52 534.85L187.48 534.85z" stroke="#333333" stroke-width="1.07" stroke-linecap="round" fill="none" /></g><g clip-path="url(#16)"></g><g clip-path="url(#17)"></g><g clip-path="url(#18)"></g><g clip-path="url(#19)"></g><g clip-path="url(#20)"></g><g clip-path="url(#21)"></g><g clip-path="url(#22)"></g><g clip-path="url(#23)"></g><g clip-path="url(#24)"></g><g clip-path="url(#25)"></g><g clip-path="url(#26)"></g><g clip-path="url(#27)"></g><g clip-path="url(#28)"></g><g clip-path="url(#29)"></g><g clip-path="url(#30)"></g><g clip-path="url(#31)"></g><g clip-path="url(#32)"></g><g clip-path="url(#33)"><path id="487" transform="matrix(1 0 0 -1 0 612)" d="M184.74 91.28L187.48 91.28" stroke="#323232" stroke-width="1.07" fill="none" /><path id="488" transform="matrix(1 0 0 -1 0 612)" d="M184.74 100.22L187.48 100.22" stroke="#323232" stroke-width="1.07" fill="none" /><path id="489" transform="matrix(1 0 0 -1 0 612)" d="M184.74 109.16L187.48 109.16" stroke="#323232" stroke-width="1.07" fill="none" /><path id="490" transform="matrix(1 0 0 -1 0 612)" d="M184.74 118.11L187.48 118.11" stroke="#323232" stroke-width="1.07" fill="none" /><path id="491" transform="matrix(1 0 0 -1 0 612)" d="M184.74 127.05L187.48 127.05" stroke="#323232" stroke-width="1.07" fill="none" /><path id="492" transform="matrix(1 0 0 -1 0 612)" d="M184.74 135.99L187.48 135.99" stroke="#323232" stroke-width="1.07" fill="none" /><path id="493" transform="matrix(1 0 0 -1 0 612)" d="M184.74 144.93L187.48 144.93" stroke="#323232" stroke-width="1.07" fill="none" /><path id="494" transform="matrix(1 0 0 -1 0 612)" d="M184.74 153.88L187.48 153.88" stroke="#323232" stroke-width="1.07" fill="none" /><path id="495" transform="matrix(1 0 0 -1 0 612)" d="M184.74 162.82L187.48 162.82" stroke="#323232" stroke-width="1.07" fill="none" /><path id="496" transform="matrix(1 0 0 -1 0 612)" d="M184.74 171.76L187.48 171.76" stroke="#323232" stroke-width="1.07" fill="none" /><path id="497" transform="matrix(1 0 0 -1 0 612)" d="M184.74 180.71L187.48 180.71" stroke="#323232" stroke-width="1.07" fill="none" /><path id="498" transform="matrix(1 0 0 -1 0 612)" d="M184.74 189.65L187.48 189.65" stroke="#323232" stroke-width="1.07" fill="none" /><path id="499" transform="matrix(1 0 0 -1 0 612)" d="M184.74 198.59L187.48 198.59" stroke="#323232" stroke-width="1.07" fill="none" /><path id="500" transform="matrix(1 0 0 -1 0 612)" d="M184.74 207.53L187.48 207.53" stroke="#323232" stroke-width="1.07" fill="none" /><path id="501" transform="matrix(1 0 0 -1 0 612)" d="M184.74 216.48L187.48 216.48" stroke="#323232" stroke-width="1.07" fill="none" /><path id="502" transform="matrix(1 0 0 -1 0 612)" d="M184.74 225.42L187.48 225.42" stroke="#323232" stroke-width="1.07" fill="none" /><path id="503" transform="matrix(1 0 0 -1 0 612)" d="M184.74 234.36L187.48 234.36" stroke="#323232" stroke-width="1.07" fill="none" /><path id="504" transform="matrix(1 0 0 -1 0 612)" d="M184.74 243.31L187.48 243.31" stroke="#323232" stroke-width="1.07" fill="none" /><path id="505" transform="matrix(1 0 0 -1 0 612)" d="M184.74 252.25L187.48 252.25" stroke="#323232" stroke-width="1.07" fill="none" /><path id="506" transform="matrix(1 0 0 -1 0 612)" d="M184.74 261.19L187.48 261.19" stroke="#323232" stroke-width="1.07" fill="none" /><path id="507" transform="matrix(1 0 0 -1 0 612)" d="M184.74 270.14L187.48 270.14" stroke="#323232" stroke-width="1.07" fill="none" /><path id="508" transform="matrix(1 0 0 -1 0 612)" d="M184.74 279.08L187.48 279.08" stroke="#323232" stroke-width="1.07" fill="none" /><path id="509" transform="matrix(1 0 0 -1 0 612)" d="M184.74 288.02L187.48 288.02" stroke="#323232" stroke-width="1.07" fill="none" /><path id="510" transform="matrix(1 0 0 -1 0 612)" d="M184.74 296.96L187.48 296.96" stroke="#323232" stroke-width="1.07" fill="none" /><path id="511" transform="matrix(1 0 0 -1 0 612)" d="M184.74 305.91L187.48 305.91" stroke="#323232" stroke-width="1.07" fill="none" /><path id="512" transform="matrix(1 0 0 -1 0 612)" d="M184.74 314.85L187.48 314.85" stroke="#323232" stroke-width="1.07" fill="none" /><path id="513" transform="matrix(1 0 0 -1 0 612)" d="M184.74 323.79L187.48 323.79" stroke="#323232" stroke-width="1.07" fill="none" /><path id="514" transform="matrix(1 0 0 -1 0 612)" d="M184.74 332.74L187.48 332.74" stroke="#323232" stroke-width="1.07" fill="none" /><path id="515" transform="matrix(1 0 0 -1 0 612)" d="M184.74 341.68L187.48 341.68" stroke="#323232" stroke-width="1.07" fill="none" /><path id="516" transform="matrix(1 0 0 -1 0 612)" d="M184.74 350.62L187.48 350.62" stroke="#323232" stroke-width="1.07" fill="none" /><path id="517" transform="matrix(1 0 0 -1 0 612)" d="M184.74 359.57L187.48 359.57" stroke="#323232" stroke-width="1.07" fill="none" /><path id="518" transform="matrix(1 0 0 -1 0 612)" d="M184.74 368.51L187.48 368.51" stroke="#323232" stroke-width="1.07" fill="none" /><path id="519" transform="matrix(1 0 0 -1 0 612)" d="M184.74 377.45L187.48 377.45" stroke="#323232" stroke-width="1.07" fill="none" /><path id="520" transform="matrix(1 0 0 -1 0 612)" d="M184.74 386.39L187.48 386.39" stroke="#323232" stroke-width="1.07" fill="none" /><path id="521" transform="matrix(1 0 0 -1 0 612)" d="M184.74 395.34L187.48 395.34" stroke="#323232" stroke-width="1.07" fill="none" /><path id="522" transform="matrix(1 0 0 -1 0 612)" d="M184.74 404.28L187.48 404.28" stroke="#323232" stroke-width="1.07" fill="none" /><path id="523" transform="matrix(1 0 0 -1 0 612)" d="M184.74 413.22L187.48 413.22" stroke="#323232" stroke-width="1.07" fill="none" /><path id="524" transform="matrix(1 0 0 -1 0 612)" d="M184.74 422.17L187.48 422.17" stroke="#323232" stroke-width="1.07" fill="none" /><path id="525" transform="matrix(1 0 0 -1 0 612)" d="M184.74 431.11L187.48 431.11" stroke="#323232" stroke-width="1.07" fill="none" /><path id="526" transform="matrix(1 0 0 -1 0 612)" d="M184.74 440.05L187.48 440.05" stroke="#323232" stroke-width="1.07" fill="none" /><path id="527" transform="matrix(1 0 0 -1 0 612)" d="M184.74 448.99L187.48 448.99" stroke="#323232" stroke-width="1.07" fill="none" /><path id="528" transform="matrix(1 0 0 -1 0 612)" d="M184.74 457.94L187.48 457.94" stroke="#323232" stroke-width="1.07" fill="none" /><path id="529" transform="matrix(1 0 0 -1 0 612)" d="M184.74 466.88L187.48 466.88" stroke="#323232" stroke-width="1.07" fill="none" /><path id="530" transform="matrix(1 0 0 -1 0 612)" d="M184.74 475.82L187.48 475.82" stroke="#323232" stroke-width="1.07" fill="none" /><path id="531" transform="matrix(1 0 0 -1 0 612)" d="M184.74 484.77L187.48 484.77" stroke="#323232" stroke-width="1.07" fill="none" /><path id="532" transform="matrix(1 0 0 -1 0 612)" d="M184.74 493.71L187.48 493.71" stroke="#323232" stroke-width="1.07" fill="none" /><path id="533" transform="matrix(1 0 0 -1 0 612)" d="M184.74 502.65L187.48 502.65" stroke="#323232" stroke-width="1.07" fill="none" /><path id="534" transform="matrix(1 0 0 -1 0 612)" d="M184.74 511.6L187.48 511.6" stroke="#323232" stroke-width="1.07" fill="none" /><path id="535" transform="matrix(1 0 0 -1 0 612)" d="M184.74 520.54L187.48 520.54" stroke="#323232" stroke-width="1.07" fill="none" /><path id="536" transform="matrix(1 0 0 -1 0 612)" d="M184.74 529.48L187.48 529.48" stroke="#323232" stroke-width="1.07" fill="none" /></g><g clip-path="url(#34)"></g><g clip-path="url(#35)"></g><g clip-path="url(#36)"></g><g clip-path="url(#37)"></g><g clip-path="url(#38)"></g><g clip-path="url(#39)"></g><g clip-path="url(#40)"></g><g clip-path="url(#41)"></g><g clip-path="url(#42)"></g><g clip-path="url(#43)"><path id="537" transform="matrix(1 0 0 -1 0 612)" d="M208.17 83.17L208.17 85.91" stroke="#323232" stroke-width="1.07" fill="none" /><path id="538" transform="matrix(1 0 0 -1 0 612)" d="M294.35 83.17L294.35 85.91" stroke="#323232" stroke-width="1.07" fill="none" /><path id="539" transform="matrix(1 0 0 -1 0 612)" d="M380.53 83.17L380.53 85.91" stroke="#323232" stroke-width="1.07" fill="none" /><path id="540" transform="matrix(1 0 0 -1 0 612)" d="M466.71 83.17L466.71 85.91" stroke="#323232" stroke-width="1.07" fill="none" /><path id="541" transform="matrix(1 0 0 -1 0 612)" d="M552.89 83.17L552.89 85.91" stroke="#323232" stroke-width="1.07" fill="none" /><path id="542" transform="matrix(1 0 0 -1 0 612)" d="M639.07 83.17L639.07 85.91" stroke="#323232" stroke-width="1.07" fill="none" /></g><g clip-path="url(#44)"></g><g clip-path="url(#45)"></g><g clip-path="url(#46)"></g><g clip-path="url(#47)"></g><g clip-path="url(#48)"></g><g clip-path="url(#49)"></g><g clip-path="url(#50)"></g><g clip-path="url(#51)"></g><g clip-path="url(#52)"></g><g clip-path="url(#53)"><path id="558" transform="matrix(1 0 0 -1 0 612)" d="M154.6193 292.7568L154.8824 293.7988C 156.594 293.3619 157.5143 292.1785 157.5143 290.5385C 157.5143 289.6899 157.3415 288.9997 156.996 288.468C 156.6504 287.9362 156.15 287.5316 155.4948 287.2541C 154.8395 286.9766 154.1359 286.8379 153.3839 286.8379C 152.5639 286.8379 151.8487 286.9945 151.2382 287.3078C 150.6276 287.6212 150.1639 288.067 149.847 288.6452C 149.5302 289.2235 149.3717 289.86 149.3717 290.5547C 149.3717 292.1302 150.2114 293.242 151.6652 293.6645L151.6652 293.6645L151.9069 292.6386C 150.761 292.2734 150.2633 291.5859 150.2633 290.5332C 150.2633 289.928 150.4083 289.4222 150.6984 289.0158C 150.9884 288.6094 151.3778 288.3239 151.8666 288.1591C 152.3553 287.9944 152.8593 287.9121 153.3785 287.9121C 154.0481 287.9121 154.6327 288.0096 155.1322 288.2048C 155.6317 288.4 156.005 288.7034 156.2521 289.1152C 156.4991 289.527 156.6227 289.9728 156.6227 290.4526C 156.6227 291.6199 155.9441 292.4703 154.6193 292.7568z" stroke="none" fill="#000000" fill-rule="evenodd" /><path id="559" transform="matrix(1 0 0 -1 0 612)" d="M157.38 294.9571L149.506 294.9571L149.506 294.9571L149.506 295.9239L149.506 295.9239L152.3312 295.9239C 151.8084 296.3751 151.547 296.9444 151.547 297.6319C 151.547 298.0544 151.6302 298.4214 151.7968 298.733C 151.9633 299.0445 152.1933 299.2674 152.4869 299.4017C 152.7806 299.5359 153.2067 299.6031 153.7653 299.6031L153.7653 299.6031L157.38 299.6031L157.38 299.6031L157.38 298.6363L157.38 298.6363L153.7653 298.6363C 152.7985 298.6363 152.3795 298.1995 152.3795 297.4332C 152.3795 297.1467 152.4538 296.8773 152.6024 296.6248C 152.751 296.3724 152.9524 296.1924 153.2067 296.085C 153.4609 295.9776 153.8118 295.9239 154.2594 295.9239L154.2594 295.9239L157.38 295.9239z" stroke="none" fill="#000000" fill-rule="evenodd" /><path id="560" transform="matrix(1 0 0 -1 0 612)" d="M156.6764 304.7953C 157.2851 304.0791 157.5089 303.4543 157.5089 302.6952C 157.5089 301.4419 156.8286 300.7455 155.8761 300.7455C 155.5968 300.7455 155.3417 300.809 155.1107 300.9362C 154.8798 301.0633 154.6945 301.2298 154.5548 301.4357C 154.4152 301.6415 154.3095 301.8734 154.2379 302.1312C 154.1878 302.321 154.1395 302.6075 154.0929 302.9906C 153.9998 303.7712 153.8888 304.3459 153.7599 304.7147C 153.6274 304.7183 153.5433 304.7201 153.5074 304.7201C 153.1136 304.7201 152.8361 304.6288 152.6749 304.4462C 152.4565 304.1991 152.3473 303.8321 152.3473 303.3451C 152.3473 302.4356 152.623 302.065 153.4323 301.8573L153.4323 301.8573L153.3033 300.912C 152.8987 300.9979 152.572 301.1393 152.3231 301.3363C 152.0743 301.5332 151.8827 301.8179 151.7484 302.1903C 151.6141 302.5627 151.547 302.9942 151.547 303.4847C 151.547 303.9717 151.6043 304.3674 151.7189 304.6718C 151.8335 304.9761 151.9776 305.1999 152.1512 305.3431C 152.3249 305.4864 152.5442 305.5866 152.8092 305.6439C 152.9739 305.6761 153.2711 305.6923 153.7008 305.6923L153.7008 305.6923L154.9899 305.6923C 156.7874 305.6923 156.9432 305.7549 157.38 305.9984L157.38 305.9984L157.38 304.9886C 157.1795 304.8884 156.9449 304.8239 156.6764 304.7953zM154.5172 304.7147C 154.6604 304.3638 154.7822 303.8374 154.8824 303.1356C 154.9397 302.7382 155.0042 302.4571 155.0758 302.2924C 155.1474 302.1276 155.2522 302.0005 155.39 301.911C 155.5279 301.8215 155.681 301.7767 155.8492 301.7767C 156.3649 301.7767 156.7516 302.1742 156.7516 302.9261C 156.7516 303.6709 156.4043 304.2868 155.8385 304.559C 155.6201 304.6628 155.2978 304.7147 154.8717 304.7147z" stroke="none" fill="#000000" fill-rule="evenodd" /><path id="561" transform="matrix(1 0 0 -1 0 612)" d="M157.38 307.1784L151.6759 307.1784L151.6759 307.1784L151.6759 308.0485L151.6759 308.0485L152.5406 308.0485C 151.7314 308.4925 151.547 308.8327 151.547 309.2838C 151.547 309.6097 151.6508 309.9409 151.8585 310.2775L151.8585 310.2775L152.7555 309.9445C 152.6158 309.7082 152.546 309.4718 152.546 309.2355C 152.546 308.813 152.8146 308.4495 153.2657 308.3063C 153.6095 308.1989 153.9855 308.1452 154.3937 308.1452L154.3937 308.1452L157.38 308.1452z" stroke="none" fill="#000000" fill-rule="evenodd" /><path id="562" transform="matrix(1 0 0 -1 0 612)" d="M156.6764 314.4643C 157.2851 313.7481 157.5089 313.1233 157.5089 312.3642C 157.5089 311.1109 156.8286 310.4145 155.8761 310.4145C 155.5968 310.4145 155.3417 310.478 155.1107 310.6051C 154.8798 310.7322 154.6945 310.8987 154.5548 311.1046C 154.4152 311.3105 154.3095 311.5424 154.2379 311.8002C 154.1878 311.99 154.1395 312.2764 154.0929 312.6596C 153.9998 313.4402 153.8888 314.0149 153.7599 314.3837C 153.6274 314.3873 153.5433 314.3891 153.5074 314.3891C 153.1136 314.3891 152.8361 314.2978 152.6749 314.1151C 152.4565 313.8681 152.3473 313.501 152.3473 313.0141C 152.3473 312.1046 152.623 311.7339 153.4323 311.5263L153.4323 311.5263L153.3033 310.581C 152.8987 310.6669 152.572 310.8083 152.3231 311.0053C 152.0743 311.2022 151.8827 311.4869 151.7484 311.8593C 151.6141 312.2317 151.547 312.6631 151.547 313.1537C 151.547 313.6407 151.6043 314.0364 151.7189 314.3407C 151.8335 314.6451 151.9776 314.8689 152.1512 315.0121C 152.3249 315.1553 152.5442 315.2556 152.8092 315.3129C 152.9739 315.3451 153.2711 315.3612 153.7008 315.3612L153.7008 315.3612L154.9899 315.3612C 156.7874 315.3612 156.9432 315.4239 157.38 315.6674L157.38 315.6674L157.38 314.6576C 157.1795 314.5574 156.9449 314.4929 156.6764 314.4643zM154.5172 314.3837C 154.6604 314.0328 154.7822 313.5064 154.8824 312.8046C 154.9397 312.4071 155.0042 312.126 155.0758 311.9613C 155.1474 311.7966 155.2522 311.6695 155.39 311.58C 155.5279 311.4905 155.681 311.4457 155.8492 311.4457C 156.3649 311.4457 156.7516 311.8432 156.7516 312.5951C 156.7516 313.3399 156.4043 313.9558 155.8385 314.2279C 155.6201 314.3318 155.2978 314.3837 154.8717 314.3837z" stroke="none" fill="#000000" fill-rule="evenodd" /><path id="563" transform="matrix(1 0 0 -1 0 612)" d="M155.2906 320.5803L155.4142 321.5309C 156.7247 321.3233 157.5089 320.403 157.5089 319.1569C 157.5089 317.5957 156.4544 316.5627 154.5494 316.5627C 153.9335 316.5627 153.3947 316.6647 152.9327 316.8688C 152.4708 317.0729 152.1244 317.3836 151.8934 317.8007C 151.6625 318.2179 151.547 318.6717 151.547 319.1623C 151.547 320.4012 152.1987 321.2176 153.3517 321.4396L153.3517 321.4396L153.4967 320.4997C 152.7304 320.3206 152.3419 319.8444 152.3419 319.1999C 152.3419 318.2259 153.0115 317.5563 154.5226 317.5563C 156.0551 317.5563 156.714 318.2009 156.714 319.1462C 156.714 319.9053 156.2574 320.4442 155.2906 320.5803z" stroke="none" fill="#000000" fill-rule="evenodd" /><path id="564" transform="matrix(1 0 0 -1 0 612)" d="M156.5153 324.4689L157.3693 324.6086C 157.4266 324.3365 157.4552 324.093 157.4552 323.8781C 157.4552 323.5272 157.3997 323.2551 157.2887 323.0617C 157.1777 322.8683 157.0318 322.7323 156.851 322.6535C 156.6701 322.5747 156.2897 322.5353 155.7096 322.5353L155.7096 322.5353L152.4279 322.5353L152.4279 322.5353L152.4279 321.8264L152.4279 321.8264L151.6759 321.8264L151.6759 321.8264L151.6759 322.5353L151.6759 322.5353L150.2633 322.5353L150.2633 322.5353L149.6832 323.4968L149.6832 323.4968L151.6759 323.4968L151.6759 323.4968L151.6759 324.4689L151.6759 324.4689L152.4279 324.4689L152.4279 324.4689L152.4279 323.4968L152.4279 323.4968L155.7633 323.4968C 156.039 323.4968 156.2163 323.5138 156.295 323.5478C 156.3738 323.5818 156.4365 323.6373 156.483 323.7143C 156.5296 323.7913 156.5529 323.9014 156.5529 324.0446C 156.5529 324.152 156.5403 324.2935 156.5153 324.4689z" stroke="none" fill="#000000" fill-rule="evenodd" /><path id="565" transform="matrix(1 0 0 -1 0 612)" d="M155.5431 329.3209L155.6666 330.3199C 156.8339 330.0048 157.5089 329.1365 157.5089 327.8116C 157.5089 326.143 156.4311 325.0938 154.5763 325.0938C 152.657 325.0938 151.547 326.1824 151.547 327.7579C 151.547 329.2833 152.6337 330.3521 154.5172 330.3521C 154.5745 330.3521 154.6604 330.3503 154.775 330.3468L154.775 330.3468L154.775 326.0929C 156.0283 326.1645 156.714 326.8645 156.714 327.817C 156.714 328.526 156.3595 329.0273 155.5431 329.3209zM153.9801 326.1466L153.9801 329.3316C 153.5003 329.2887 153.1404 329.1669 152.9005 328.9664C 152.5281 328.6584 152.3419 328.2592 152.3419 327.7686C 152.3419 326.8806 152.9847 326.211 153.9801 326.1466z" stroke="none" fill="#000000" fill-rule="evenodd" /><path id="566" transform="matrix(1 0 0 -1 0 612)" d="M157.38 331.5214L151.6759 331.5214L151.6759 331.5214L151.6759 332.3915L151.6759 332.3915L152.5406 332.3915C 151.7314 332.8355 151.547 333.1757 151.547 333.6268C 151.547 333.9527 151.6508 334.2839 151.8585 334.6205L151.8585 334.6205L152.7555 334.2875C 152.6158 334.0511 152.546 333.8148 152.546 333.5785C 152.546 333.1559 152.8146 332.7925 153.2657 332.6493C 153.6095 332.5419 153.9855 332.4882 154.3937 332.4882L154.3937 332.4882L157.38 332.4882z" stroke="none" fill="#000000" fill-rule="evenodd" /></g><g clip-path="url(#54)"></g><g clip-path="url(#55)"></g><g clip-path="url(#56)"></g><g clip-path="url(#57)"></g><g clip-path="url(#58)"></g><g clip-path="url(#59)"></g><g clip-path="url(#60)"></g><g clip-path="url(#61)"></g><g clip-path="url(#62)"></g><g clip-path="url(#63)"></g><g clip-path="url(#64)"></g><g clip-path="url(#65)"></g></g></g></svg>