<svg xmlns="http://www.w3.org/2000/svg" xmlns:xlink="http://www.w3.org/1999/xlink" id="body_11" preserveAspectRatio="xMinYMin meet" viewBox="0 0 1056 816"><defs><clipPath id="1"><path id="" clip-rule="evenodd" transform="matrix(1 0 0 1 0 0)" d="M0 612L0 0L0 0L792 0L792 0L792 612L792 612L0 612z" /></clipPath><clipPath id="2"><path id="" clip-rule="evenodd" transform="matrix(1 0 0 1 0 0)" d="M105.75 52.5L686.25 52.5L686.25 52.5L686.25 553.5L686.25 553.5L105.75 553.5L105.75 553.5L105.75 52.5z" /></clipPath></defs><g transform="matrix(1.333333 0 0 1.333333 0 0)"><g clip-path="url(#1)"><g clip-path="url(#2)"><path id="102" transform="matrix(1 0 0 -1 0 612)" d="M106.5 558.75L685.5 558.75L685.5 541.5L106.5 541.5L106.5 558.75z" stroke="none" fill="#FFFFFF" fill-rule="nonzero" /><path id="103" transform="matrix(1 0 0 -1 0 612)" d="M106.5 542.25L685.5 542.25L685.5 511.5L106.5 511.5L106.5 542.25z" stroke="none" fill="#E0F7FA" fill-rule="nonzero" /><path id="104" transform="matrix(1 0 0 -1 0 612)" d="M106.5 512.25L685.5 512.25L685.5 495L106.5 495L106.5 512.25z" stroke="none" fill="#FFFFFF" fill-rule="nonzero" /><path id="105" transform="matrix(1 0 0 -1 0 612)" d="M106.5 495.75L685.5 495.75L685.5 478.5L106.5 478.5L106.5 495.75z" stroke="none" fill="#E0F7FA" fill-rule="nonzero" /><path id="106" transform="matrix(1 0 0 -1 0 612)" d="M106.5 479.25L685.5 479.25L685.5 462L106.5 462L106.5 479.25z" stroke="none" fill="#FFFFFF" fill-rule="nonzero" /><path id="107" transform="matrix(1 0 0 -1 0 612)" d="M106.5 462.75L685.5 462.75L685.5 445.5L106.5 445.5L106.5 462.75z" stroke="none" fill="#E0F7FA" fill-rule="nonzero" /><path id="108" transform="matrix(1 0 0 -1 0 612)" d="M106.5 446.25L685.5 446.25L685.5 429L106.5 429L106.5 446.25z" stroke="none" fill="#FFFFFF" fill-rule="nonzero" /><path id="109" transform="matrix(1 0 0 -1 0 612)" d="M106.5 429.75L685.5 429.75L685.5 412.5L106.5 412.5L106.5 429.75z" stroke="none" fill="#E0F7FA" fill-rule="nonzero" /><path id="110" transform="matrix(1 0 0 -1 0 612)" d="M106.5 413.25L685.5 413.25L685.5 396L106.5 396L106.5 413.25z" stroke="none" fill="#FFFFFF" fill-rule="nonzero" /><path id="111" transform="matrix(1 0 0 -1 0 612)" d="M106.5 396.75L685.5 396.75L685.5 379.5L106.5 379.5L106.5 396.75z" stroke="none" fill="#E0F7FA" fill-rule="nonzero" /><path id="112" transform="matrix(1 0 0 -1 0 612)" d="M106.5 380.25L685.5 380.25L685.5 363L106.5 363L106.5 380.25z" stroke="none" fill="#FFFFFF" fill-rule="nonzero" /><path id="113" transform="matrix(1 0 0 -1 0 612)" d="M106.5 363.75L685.5 363.75L685.5 346.5L106.5 346.5L106.5 363.75z" stroke="none" fill="#E0F7FA" fill-rule="nonzero" /><path id="114" transform="matrix(1 0 0 -1 0 612)" d="M106.5 347.25L685.5 347.25L685.5 330L106.5 330L106.5 347.25z" stroke="none" fill="#FFFFFF" fill-rule="nonzero" /><path id="115" transform="matrix(1 0 0 -1 0 612)" d="M106.5 330.75L685.5 330.75L685.5 313.5L106.5 313.5L106.5 330.75z" stroke="none" fill="#E0F7FA" fill-rule="nonzero" /><path id="116" transform="matrix(1 0 0 -1 0 612)" d="M106.5 314.25L685.5 314.25L685.5 283.5L106.5 283.5L106.5 314.25z" stroke="none" fill="#FFFFFF" fill-rule="nonzero" /><path id="117" transform="matrix(1 0 0 -1 0 612)" d="M106.5 284.25L685.5 284.25L685.5 267L106.5 267L106.5 284.25z" stroke="none" fill="#E0F7FA" fill-rule="nonzero" /><path id="118" transform="matrix(1 0 0 -1 0 612)" d="M106.5 267.75L685.5 267.75L685.5 250.5L106.5 250.5L106.5 267.75z" stroke="none" fill="#FFFFFF" fill-rule="nonzero" /><path id="119" transform="matrix(1 0 0 -1 0 612)" d="M106.5 251.25L685.5 251.25L685.5 234L106.5 234L106.5 251.25z" stroke="none" fill="#E0F7FA" fill-rule="nonzero" /><path id="120" transform="matrix(1 0 0 -1 0 612)" d="M106.5 234.75L685.5 234.75L685.5 217.5L106.5 217.5L106.5 234.75z" stroke="none" fill="#FFFFFF" fill-rule="nonzero" /><path id="121" transform="matrix(1 0 0 -1 0 612)" d="M106.5 218.25L685.5 218.25L685.5 174.75L106.5 174.75L106.5 218.25z" stroke="none" fill="#E0F7FA" fill-rule="nonzero" /><path id="122" transform="matrix(1 0 0 -1 0 612)" d="M106.5 175.5L685.5 175.5L685.5 158.25L106.5 158.25L106.5 175.5z" stroke="none" fill="#FFFFFF" fill-rule="nonzero" /><path id="123" transform="matrix(1 0 0 -1 0 612)" d="M106.5 159L685.5 159L685.5 141.75L106.5 141.75L106.5 159z" stroke="none" fill="#E0F7FA" fill-rule="nonzero" /><path id="124" transform="matrix(1 0 0 -1 0 612)" d="M106.5 142.5L685.5 142.5L685.5 125.25L106.5 125.25L106.5 142.5z" stroke="none" fill="#FFFFFF" fill-rule="nonzero" /><path id="125" transform="matrix(1 0 0 -1 0 612)" d="M106.5 126L685.5 126L685.5 108.75L106.5 108.75L106.5 126z" stroke="none" fill="#E0F7FA" fill-rule="nonzero" /><path id="126" transform="matrix(1 0 0 -1 0 612)" d="M106.5 109.5L685.5 109.5L685.5 92.25L106.5 92.25L106.5 109.5z" stroke="none" fill="#FFFFFF" fill-rule="nonzero" /><path id="127" transform="matrix(1 0 0 -1 0 612)" d="M106.5 93L685.5 93L685.5 75.75L106.5 75.75L106.5 93z" stroke="none" fill="#E0F7FA" fill-rule="nonzero" /><path id="128" transform="matrix(1 0 0 -1 0 612)" d="M106.5 76.5L685.5 76.5L685.5 59.25L106.5 59.25L106.5 76.5z" stroke="none" fill="#FFFFFF" fill-rule="nonzero" /><path id="129" transform="matrix(1 0 0 -1 0 612)" d="M106.5 60L685.5 60L685.5 59.25L106.5 59.25zM106.5 76.5L685.5 76.5L685.5 75.75L106.5 75.75zM106.5 93L685.5 93L685.5 92.25L106.5 92.25zM106.5 109.5L685.5 109.5L685.5 108.75L106.5 108.75zM106.5 126L685.5 126L685.5 125.25L106.5 125.25zM106.5 142.5L685.5 142.5L685.5 141.75L106.5 141.75zM106.5 159L685.5 159L685.5 158.25L106.5 158.25zM106.5 175.5L685.5 175.5L685.5 174.75L106.5 174.75zM106.5 218.25L685.5 218.25L685.5 217.5L106.5 217.5zM106.5 234.75L685.5 234.75L685.5 234L106.5 234zM106.5 251.25L685.5 251.25L685.5 250.5L106.5 250.5zM106.5 267.75L685.5 267.75L685.5 267L106.5 267zM106.5 284.25L685.5 284.25L685.5 283.5L106.5 283.5zM106.5 314.25L685.5 314.25L685.5 313.5L106.5 313.5zM106.5 330.75L685.5 330.75L685.5 330L106.5 330zM106.5 347.25L685.5 347.25L685.5 346.5L106.5 346.5zM106.5 363.75L685.5 363.75L685.5 363L106.5 363zM106.5 380.25L685.5 380.25L685.5 379.5L106.5 379.5zM106.5 396.75L685.5 396.75L685.5 396L106.5 396zM106.5 413.25L685.5 413.25L685.5 412.5L106.5 412.5zM106.5 429.75L685.5 429.75L685.5 429L106.5 429zM106.5 446.25L685.5 446.25L685.5 445.5L106.5 445.5zM106.5 462.75L685.5 462.75L685.5 462L106.5 462zM106.5 479.25L685.5 479.25L685.5 478.5L106.5 478.5zM106.5 495.75L685.5 495.75L685.5 495L106.5 495zM106.5 512.25L685.5 512.25L685.5 511.5L106.5 511.5zM106.5 542.25L685.5 542.25L685.5 541.5L106.5 541.5zM106.5 558.75L685.5 558.75L685.5 558L106.5 558zM685.5 75.75L685.5 60L684.75 60L684.75 75.75zM685.5 92.25L685.5 76.5L684.75 76.5L684.75 92.25zM685.5 108.75L685.5 93L684.75 93L684.75 108.75zM685.5 125.25L685.5 109.5L684.75 109.5L684.75 125.25zM685.5 141.75L685.5 126L684.75 126L684.75 141.75zM685.5 158.25L685.5 142.5L684.75 142.5L684.75 158.25zM685.5 174.75L685.5 159L684.75 159L684.75 174.75zM685.5 217.5L685.5 175.5L684.75 175.5L684.75 217.5zM685.5 234L685.5 218.25L684.75 218.25L684.75 234zM685.5 250.5L685.5 234.75L684.75 234.75L684.75 250.5zM685.5 267L685.5 251.25L684.75 251.25L684.75 267zM685.5 283.5L685.5 267.75L684.75 267.75L684.75 283.5zM685.5 313.5L685.5 284.25L684.75 284.25L684.75 313.5zM685.5 330L685.5 314.25L684.75 314.25L684.75 330zM685.5 346.5L685.5 330.75L684.75 330.75L684.75 346.5zM685.5 363L685.5 347.25L684.75 347.25L684.75 363zM685.5 379.5L685.5 363.75L684.75 363.75L684.75 379.5zM685.5 396L685.5 380.25L684.75 380.25L684.75 396zM685.5 412.5L685.5 396.75L684.75 396.75L684.75 412.5zM685.5 429L685.5 413.25L684.75 413.25L684.75 429zM685.5 445.5L685.5 429.75L684.75 429.75L684.75 445.5zM685.5 462L685.5 446.25L684.75 446.25L684.75 462zM685.5 478.5L685.5 462.75L684.75 462.75L684.75 478.5zM685.5 495L685.5 479.25L684.75 479.25L684.75 495zM685.5 511.5L685.5 495.75L684.75 495.75L684.75 511.5zM685.5 541.5L685.5 512.25L684.75 512.25L684.75 541.5zM685.5 558L685.5 542.25L684.75 542.25L684.75 558zM615 75.75L615 60L614.25 60L614.25 75.75zM615 92.25L615 76.5L614.25 76.5L614.25 92.25zM615 108.75L615 93L614.25 93L614.25 108.75zM615 125.25L615 109.5L614.25 109.5L614.25 125.25zM615 141.75L615 126L614.25 126L614.25 141.75zM615 158.25L615 142.5L614.25 142.5L614.25 158.25zM615 174.75L615 159L614.25 159L614.25 174.75zM615 217.5L615 175.5L614.25 175.5L614.25 217.5zM615 234L615 218.25L614.25 218.25L614.25 234zM615 250.5L615 234.75L614.25 234.75L614.25 250.5zM615 267L615 251.25L614.25 251.25L614.25 267zM615 283.5L615 267.75L614.25 267.75L614.25 283.5zM615 313.5L615 284.25L614.25 284.25L614.25 313.5zM615 330L615 314.25L614.25 314.25L614.25 330zM615 346.5L615 330.75L614.25 330.75L614.25 346.5zM615 363L615 347.25L614.25 347.25L614.25 363zM615 379.5L615 363.75L614.25 363.75L614.25 379.5zM615 396L615 380.25L614.25 380.25L614.25 396zM615 412.5L615 396.75L614.25 396.75L614.25 412.5zM615 429L615 413.25L614.25 413.25L614.25 429zM615 445.5L615 429.75L614.25 429.75L614.25 445.5zM615 462L615 446.25L614.25 446.25L614.25 462zM615 478.5L615 462.75L614.25 462.75L614.25 478.5zM615 495L615 479.25L614.25 479.25L614.25 495zM615 511.5L615 495.75L614.25 495.75L614.25 511.5zM615 541.5L615 512.25L614.25 512.25L614.25 541.5zM615 558L615 542.25L614.25 542.25L614.25 558zM237.75 75.75L237.75 60L237 60L237 75.75zM237.75 92.25L237.75 76.5L237 76.5L237 92.25zM237.75 108.75L237.75 93L237 93L237 108.75zM237.75 125.25L237.75 109.5L237 109.5L237 125.25zM237.75 141.75L237.75 126L237 126L237 141.75zM237.75 158.25L237.75 142.5L237 142.5L237 158.25zM237.75 174.75L237.75 159L237 159L237 174.75zM237.75 217.5L237.75 175.5L237 175.5L237 217.5zM237.75 234L237.75 218.25L237 218.25L237 234zM237.75 250.5L237.75 234.75L237 234.75L237 250.5zM237.75 267L237.75 251.25L237 251.25L237 267zM237.75 283.5L237.75 267.75L237 267.75L237 283.5zM237.75 313.5L237.75 284.25L237 284.25L237 313.5zM237.75 330L237.75 314.25L237 314.25L237 330zM237.75 346.5L237.75 330.75L237 330.75L237 346.5zM237.75 363L237.75 347.25L237 347.25L237 363zM237.75 379.5L237.75 363.75L237 363.75L237 379.5zM237.75 396L237.75 380.25L237 380.25L237 396zM237.75 412.5L237.75 396.75L237 396.75L237 412.5zM237.75 429L237.75 413.25L237 413.25L237 429zM237.75 445.5L237.75 429.75L237 429.75L237 445.5zM237.75 462L237.75 446.25L237 446.25L237 462zM237.75 478.5L237.75 462.75L237 462.75L237 478.5zM237.75 495L237.75 479.25L237 479.25L237 495zM237.75 511.5L237.75 495.75L237 495.75L237 511.5zM237.75 541.5L237.75 512.25L237 512.25L237 541.5zM237.75 558L237.75 542.25L237 542.25L237 558zM141 75.75L141 60L140.25 60L140.25 75.75zM141 92.25L141 76.5L140.25 76.5L140.25 92.25zM141 108.75L141 93L140.25 93L140.25 108.75zM141 125.25L141 109.5L140.25 109.5L140.25 125.25zM141 141.75L141 126L140.25 126L140.25 141.75zM141 158.25L141 142.5L140.25 142.5L140.25 158.25zM141 174.75L141 159L140.25 159L140.25 174.75zM141 217.5L141 175.5L140.25 175.5L140.25 217.5zM141 234L141 218.25L140.25 218.25L140.25 234zM141 250.5L141 234.75L140.25 234.75L140.25 250.5zM141 267L141 251.25L140.25 251.25L140.25 267zM141 283.5L141 267.75L140.25 267.75L140.25 283.5zM141 313.5L141 284.25L140.25 284.25L140.25 313.5zM141 330L141 314.25L140.25 314.25L140.25 330zM141 346.5L141 330.75L140.25 330.75L140.25 346.5zM141 363L141 347.25L140.25 347.25L140.25 363zM141 379.5L141 363.75L140.25 363.75L140.25 379.5zM141 396L141 380.25L140.25 380.25L140.25 396zM141 412.5L141 396.75L140.25 396.75L140.25 412.5zM141 429L141 413.25L140.25 413.25L140.25 429zM141 445.5L141 429.75L140.25 429.75L140.25 445.5zM141 462L141 446.25L140.25 446.25L140.25 462zM141 478.5L141 462.75L140.25 462.75L140.25 478.5zM141 495L141 479.25L140.25 479.25L140.25 495zM141 511.5L141 495.75L140.25 495.75L140.25 511.5zM141 541.5L141 512.25L140.25 512.25L140.25 541.5zM141 558L141 542.25L140.25 542.25L140.25 558zM107.25 75.75L107.25 60L106.5 60L106.5 75.75zM107.25 92.25L107.25 76.5L106.5 76.5L106.5 92.25zM107.25 108.75L107.25 93L106.5 93L106.5 108.75zM107.25 125.25L107.25 109.5L106.5 109.5L106.5 125.25zM107.25 141.75L107.25 126L106.5 126L106.5 141.75zM107.25 158.25L107.25 142.5L106.5 142.5L106.5 158.25zM107.25 174.75L107.25 159L106.5 159L106.5 174.75zM107.25 217.5L107.25 175.5L106.5 175.5L106.5 217.5zM107.25 234L107.25 218.25L106.5 218.25L106.5 234zM107.25 250.5L107.25 234.75L106.5 234.75L106.5 250.5zM107.25 267L107.25 251.25L106.5 251.25L106.5 267zM107.25 283.5L107.25 267.75L106.5 267.75L106.5 283.5zM107.25 313.5L107.25 284.25L106.5 284.25L106.5 313.5zM107.25 330L107.25 314.25L106.5 314.25L106.5 330zM107.25 346.5L107.25 330.75L106.5 330.75L106.5 346.5zM107.25 363L107.25 347.25L106.5 347.25L106.5 363zM107.25 379.5L107.25 363.75L106.5 363.75L106.5 379.5zM107.25 396L107.25 380.25L106.5 380.25L106.5 396zM107.25 412.5L107.25 396.75L106.5 396.75L106.5 412.5zM107.25 429L107.25 413.25L106.5 413.25L106.5 429zM107.25 445.5L107.25 429.75L106.5 429.75L106.5 445.5zM107.25 462L107.25 446.25L106.5 446.25L106.5 462zM107.25 478.5L107.25 462.75L106.5 462.75L106.5 478.5zM107.25 495L107.25 479.25L106.5 479.25L106.5 495zM107.25 511.5L107.25 495.75L106.5 495.75L106.5 511.5zM107.25 541.5L107.25 512.25L106.5 512.25L106.5 541.5zM107.25 558L107.25 542.25L106.5 542.25L106.5 558z" stroke="none" fill="#000000" fill-rule="nonzero" fill-opacity="0.1490196" /><path id="158" transform="matrix(1 0 0 -1 0 612)" d="M240 545.2158L333.8914 545.2158" stroke="#000000" stroke-width="0.7017334" fill="none" /><path id="266" transform="matrix(1 0 0 -1 0 612)" d="M240 528.3047L611.7168 528.3047" stroke="#000000" stroke-width="0.7017334" fill="none" /><path id="274" transform="matrix(1 0 0 -1 0 612)" d="M240 515.2158L269.9532 515.2158" stroke="#000000" stroke-width="0.7017334" fill="none" /><path id="340" transform="matrix(1 0 0 -1 0 612)" d="M240 498.7158L437.2016 498.7158" stroke="#000000" stroke-width="0.7017334" fill="none" /><path id="407" transform="matrix(1 0 0 -1 0 612)" d="M240 482.2158L476.1916 482.2158" stroke="#000000" stroke-width="0.7017334" fill="none" /><path id="490" transform="matrix(1 0 0 -1 0 612)" d="M240 465.7158L573.4757 465.7158" stroke="#000000" stroke-width="0.7017334" fill="none" /><path id="575" transform="matrix(1 0 0 -1 0 612)" d="M240 449.2158L567.3238 449.2158" stroke="#000000" stroke-width="0.7017334" fill="none" /><path id="655" transform="matrix(1 0 0 -1 0 612)" d="M240 432.7158L536.6163 432.7158" stroke="#000000" stroke-width="0.7017334" fill="none" /><path id="694" transform="matrix(1 0 0 -1 0 612)" d="M240 416.2158L379.3107 416.2158" stroke="#000000" stroke-width="0.7017334" fill="none" /><path id="777" transform="matrix(1 0 0 -1 0 612)" d="M240 399.7158L560.0042 399.7158" stroke="#000000" stroke-width="0.7017334" fill="none" /><path id="857" transform="matrix(1 0 0 -1 0 612)" d="M240 383.2158L577.4705 383.2158" stroke="#000000" stroke-width="0.7017334" fill="none" /><path id="949" transform="matrix(1 0 0 -1 0 612)" d="M240 366.7158L590.4026 366.7158" stroke="#000000" stroke-width="0.7017334" fill="none" /><path id="1017" transform="matrix(1 0 0 -1 0 612)" d="M240 350.2158L496.4903 350.2158" stroke="#000000" stroke-width="0.7017334" fill="none" /><path id="1062" transform="matrix(1 0 0 -1 0 612)" d="M240 333.7158L390.6407 333.7158" stroke="#000000" stroke-width="0.7017334" fill="none" /><path id="1152" transform="matrix(1 0 0 -1 0 612)" d="M240 317.2158L588.0516 317.2158" stroke="#000000" stroke-width="0.7017334" fill="none" /><path id="1238" transform="matrix(1 0 0 -1 0 612)" d="M240 300.3047L605.675 300.3047" stroke="#000000" stroke-width="0.7017334" fill="none" /><path id="1248" transform="matrix(1 0 0 -1 0 612)" d="M240 287.2158L276.5345 287.2158" stroke="#000000" stroke-width="0.7017334" fill="none" /><path id="1308" transform="matrix(1 0 0 -1 0 612)" d="M240 270.7158L482.1707 270.7158" stroke="#000000" stroke-width="0.7017334" fill="none" /><path id="1380" transform="matrix(1 0 0 -1 0 612)" d="M240 254.2158L520.3283 254.2158" stroke="#000000" stroke-width="0.7017334" fill="none" /><path id="1462" transform="matrix(1 0 0 -1 0 612)" d="M240 237.7158L540.826 237.7158" stroke="#000000" stroke-width="0.7017334" fill="none" /><path id="1539" transform="matrix(1 0 0 -1 0 612)" d="M240 221.2158L522.1241 221.2158" stroke="#000000" stroke-width="0.7017334" fill="none" /><path id="1629" transform="matrix(1 0 0 -1 0 612)" d="M240 178.4658L513.8046 178.4658" stroke="#000000" stroke-width="0.7017334" fill="none" /><path id="1708" transform="matrix(1 0 0 -1 0 612)" d="M240 161.9658L564.9205 161.9658" stroke="#000000" stroke-width="0.7017334" fill="none" /><path id="1777" transform="matrix(1 0 0 -1 0 612)" d="M240 145.4658L530.674 145.4658" stroke="#000000" stroke-width="0.7017334" fill="none" /><path id="1864" transform="matrix(1 0 0 -1 0 612)" d="M240 128.9658L568.4023 128.9658" stroke="#000000" stroke-width="0.7017334" fill="none" /><path id="1896" transform="matrix(1 0 0 -1 0 612)" d="M240 112.4658L316.1005 112.4658" stroke="#000000" stroke-width="0.7017334" fill="none" /><path id="1962" transform="matrix(1 0 0 -1 0 612)" d="M240 95.96582L490.4377 95.96582" stroke="#000000" stroke-width="0.7017334" fill="none" /><path id="2040" transform="matrix(1 0 0 -1 0 612)" d="M240 79.46582L546.2239 79.46582" stroke="#000000" stroke-width="0.7017334" fill="none" /><path id="2101" transform="matrix(1 0 0 -1 0 612)" d="M240 62.96582L473.0606 62.96582" stroke="#000000" stroke-width="0.7017334" fill="none" /></g></g></g></svg>