<svg xmlns="http://www.w3.org/2000/svg" xmlns:xlink="http://www.w3.org/1999/xlink" id="body_2" preserveAspectRatio="xMinYMin meet" viewBox="0 0 1056 816"><defs><clipPath id="1"><path id="" clip-rule="evenodd" transform="matrix(1 0 0 1 0 0)" d="M0 612L0 0L0 0L792 0L792 0L792 612L792 612L0 612z" /></clipPath><clipPath id="2"><path id="" clip-rule="evenodd" transform="matrix(1 0 0 1 0 0)" d="M105.75 52.5L686.25 52.5L686.25 52.5L686.25 542.25L686.25 542.25L105.75 542.25L105.75 542.25L105.75 52.5z" /></clipPath></defs><g transform="matrix(1.333333 0 0 1.333333 0 0)"><g clip-path="url(#1)"><g clip-path="url(#2)"><path id="101" transform="matrix(1 0 0 -1 0 612)" d="M106.5 558.75L685.5 558.75L685.5 541.5L106.5 541.5L106.5 558.75z" stroke="none" fill="#FFFFFF" fill-rule="nonzero" /><path id="102" transform="matrix(1 0 0 -1 0 612)" d="M106.5 542.25L685.5 542.25L685.5 511.5L106.5 511.5L106.5 542.25z" stroke="none" fill="#E0F7FA" fill-rule="nonzero" /><path id="103" transform="matrix(1 0 0 -1 0 612)" d="M106.5 512.25L685.5 512.25L685.5 481.5L106.5 481.5L106.5 512.25z" stroke="none" fill="#FFFFFF" fill-rule="nonzero" /><path id="104" transform="matrix(1 0 0 -1 0 612)" d="M106.5 482.25L685.5 482.25L685.5 465L106.5 465L106.5 482.25z" stroke="none" fill="#E0F7FA" fill-rule="nonzero" /><path id="105" transform="matrix(1 0 0 -1 0 612)" d="M106.5 465.75L685.5 465.75L685.5 448.5L106.5 448.5L106.5 465.75z" stroke="none" fill="#FFFFFF" fill-rule="nonzero" /><path id="106" transform="matrix(1 0 0 -1 0 612)" d="M106.5 449.25L685.5 449.25L685.5 432L106.5 432L106.5 449.25z" stroke="none" fill="#E0F7FA" fill-rule="nonzero" /><path id="107" transform="matrix(1 0 0 -1 0 612)" d="M106.5 432.75L685.5 432.75L685.5 415.5L106.5 415.5L106.5 432.75z" stroke="none" fill="#FFFFFF" fill-rule="nonzero" /><path id="108" transform="matrix(1 0 0 -1 0 612)" d="M106.5 416.25L685.5 416.25L685.5 399L106.5 399L106.5 416.25z" stroke="none" fill="#E0F7FA" fill-rule="nonzero" /><path id="109" transform="matrix(1 0 0 -1 0 612)" d="M106.5 399.75L685.5 399.75L685.5 369L106.5 369L106.5 399.75z" stroke="none" fill="#FFFFFF" fill-rule="nonzero" /><path id="110" transform="matrix(1 0 0 -1 0 612)" d="M106.5 369.75L685.5 369.75L685.5 352.5L106.5 352.5L106.5 369.75z" stroke="none" fill="#E0F7FA" fill-rule="nonzero" /><path id="111" transform="matrix(1 0 0 -1 0 612)" d="M106.5 353.25L685.5 353.25L685.5 336L106.5 336L106.5 353.25z" stroke="none" fill="#FFFFFF" fill-rule="nonzero" /><path id="112" transform="matrix(1 0 0 -1 0 612)" d="M106.5 336.75L685.5 336.75L685.5 319.5L106.5 319.5L106.5 336.75z" stroke="none" fill="#E0F7FA" fill-rule="nonzero" /><path id="113" transform="matrix(1 0 0 -1 0 612)" d="M106.5 320.25L685.5 320.25L685.5 303L106.5 303L106.5 320.25z" stroke="none" fill="#FFFFFF" fill-rule="nonzero" /><path id="114" transform="matrix(1 0 0 -1 0 612)" d="M106.5 303.75L685.5 303.75L685.5 273L106.5 273L106.5 303.75z" stroke="none" fill="#E0F7FA" fill-rule="nonzero" /><path id="115" transform="matrix(1 0 0 -1 0 612)" d="M106.5 273.75L685.5 273.75L685.5 243L106.5 243L106.5 273.75z" stroke="none" fill="#FFFFFF" fill-rule="nonzero" /><path id="116" transform="matrix(1 0 0 -1 0 612)" d="M106.5 243.75L685.5 243.75L685.5 213L106.5 213L106.5 243.75z" stroke="none" fill="#E0F7FA" fill-rule="nonzero" /><path id="117" transform="matrix(1 0 0 -1 0 612)" d="M106.5 213.75L685.5 213.75L685.5 196.5L106.5 196.5L106.5 213.75z" stroke="none" fill="#FFFFFF" fill-rule="nonzero" /><path id="118" transform="matrix(1 0 0 -1 0 612)" d="M106.5 197.25L685.5 197.25L685.5 166.5L106.5 166.5L106.5 197.25z" stroke="none" fill="#E0F7FA" fill-rule="nonzero" /><path id="119" transform="matrix(1 0 0 -1 0 612)" d="M106.5 167.25L685.5 167.25L685.5 150L106.5 150L106.5 167.25z" stroke="none" fill="#FFFFFF" fill-rule="nonzero" /><path id="120" transform="matrix(1 0 0 -1 0 612)" d="M106.5 150.75L685.5 150.75L685.5 133.5L106.5 133.5L106.5 150.75z" stroke="none" fill="#E0F7FA" fill-rule="nonzero" /><path id="121" transform="matrix(1 0 0 -1 0 612)" d="M106.5 134.25L685.5 134.25L685.5 103.5L106.5 103.5L106.5 134.25z" stroke="none" fill="#FFFFFF" fill-rule="nonzero" /><path id="122" transform="matrix(1 0 0 -1 0 612)" d="M106.5 104.25L685.5 104.25L685.5 87L106.5 87L106.5 104.25z" stroke="none" fill="#E0F7FA" fill-rule="nonzero" /><path id="123" transform="matrix(1 0 0 -1 0 612)" d="M106.5 87.75L685.5 87.75L685.5 70.5L106.5 70.5L106.5 87.75z" stroke="none" fill="#FFFFFF" fill-rule="nonzero" /><path id="124" transform="matrix(1 0 0 -1 0 612)" d="M106.5 71.25L685.5 71.25L685.5 70.5L106.5 70.5zM106.5 87.75L685.5 87.75L685.5 87L106.5 87zM106.5 104.25L685.5 104.25L685.5 103.5L106.5 103.5zM106.5 134.25L685.5 134.25L685.5 133.5L106.5 133.5zM106.5 150.75L685.5 150.75L685.5 150L106.5 150zM106.5 167.25L685.5 167.25L685.5 166.5L106.5 166.5zM106.5 197.25L685.5 197.25L685.5 196.5L106.5 196.5zM106.5 213.75L685.5 213.75L685.5 213L106.5 213zM106.5 243.75L685.5 243.75L685.5 243L106.5 243zM106.5 273.75L685.5 273.75L685.5 273L106.5 273zM106.5 303.75L685.5 303.75L685.5 303L106.5 303zM106.5 320.25L685.5 320.25L685.5 319.5L106.5 319.5zM106.5 336.75L685.5 336.75L685.5 336L106.5 336zM106.5 353.25L685.5 353.25L685.5 352.5L106.5 352.5zM106.5 369.75L685.5 369.75L685.5 369L106.5 369zM106.5 399.75L685.5 399.75L685.5 399L106.5 399zM106.5 416.25L685.5 416.25L685.5 415.5L106.5 415.5zM106.5 432.75L685.5 432.75L685.5 432L106.5 432zM106.5 449.25L685.5 449.25L685.5 448.5L106.5 448.5zM106.5 465.75L685.5 465.75L685.5 465L106.5 465zM106.5 482.25L685.5 482.25L685.5 481.5L106.5 481.5zM106.5 512.25L685.5 512.25L685.5 511.5L106.5 511.5zM106.5 542.25L685.5 542.25L685.5 541.5L106.5 541.5zM106.5 558.75L685.5 558.75L685.5 558L106.5 558zM685.5 87L685.5 71.25L684.75 71.25L684.75 87zM685.5 103.5L685.5 87.75L684.75 87.75L684.75 103.5zM685.5 133.5L685.5 104.25L684.75 104.25L684.75 133.5zM685.5 150L685.5 134.25L684.75 134.25L684.75 150zM685.5 166.5L685.5 150.75L684.75 150.75L684.75 166.5zM685.5 196.5L685.5 167.25L684.75 167.25L684.75 196.5zM685.5 213L685.5 197.25L684.75 197.25L684.75 213zM685.5 243L685.5 213.75L684.75 213.75L684.75 243zM685.5 273L685.5 243.75L684.75 243.75L684.75 273zM685.5 303L685.5 273.75L684.75 273.75L684.75 303zM685.5 319.5L685.5 303.75L684.75 303.75L684.75 319.5zM685.5 336L685.5 320.25L684.75 320.25L684.75 336zM685.5 352.5L685.5 336.75L684.75 336.75L684.75 352.5zM685.5 369L685.5 353.25L684.75 353.25L684.75 369zM685.5 399L685.5 369.75L684.75 369.75L684.75 399zM685.5 415.5L685.5 399.75L684.75 399.75L684.75 415.5zM685.5 432L685.5 416.25L684.75 416.25L684.75 432zM685.5 448.5L685.5 432.75L684.75 432.75L684.75 448.5zM685.5 465L685.5 449.25L684.75 449.25L684.75 465zM685.5 481.5L685.5 465.75L684.75 465.75L684.75 481.5zM685.5 511.5L685.5 482.25L684.75 482.25L684.75 511.5zM685.5 541.5L685.5 512.25L684.75 512.25L684.75 541.5zM685.5 558L685.5 542.25L684.75 542.25L684.75 558zM615 87L615 71.25L614.25 71.25L614.25 87zM615 103.5L615 87.75L614.25 87.75L614.25 103.5zM615 133.5L615 104.25L614.25 104.25L614.25 133.5zM615 150L615 134.25L614.25 134.25L614.25 150zM615 166.5L615 150.75L614.25 150.75L614.25 166.5zM615 196.5L615 167.25L614.25 167.25L614.25 196.5zM615 213L615 197.25L614.25 197.25L614.25 213zM615 243L615 213.75L614.25 213.75L614.25 243zM615 273L615 243.75L614.25 243.75L614.25 273zM615 303L615 273.75L614.25 273.75L614.25 303zM615 319.5L615 303.75L614.25 303.75L614.25 319.5zM615 336L615 320.25L614.25 320.25L614.25 336zM615 352.5L615 336.75L614.25 336.75L614.25 352.5zM615 369L615 353.25L614.25 353.25L614.25 369zM615 399L615 369.75L614.25 369.75L614.25 399zM615 415.5L615 399.75L614.25 399.75L614.25 415.5zM615 432L615 416.25L614.25 416.25L614.25 432zM615 448.5L615 432.75L614.25 432.75L614.25 448.5zM615 465L615 449.25L614.25 449.25L614.25 465zM615 481.5L615 465.75L614.25 465.75L614.25 481.5zM615 511.5L615 482.25L614.25 482.25L614.25 511.5zM615 541.5L615 512.25L614.25 512.25L614.25 541.5zM615 558L615 542.25L614.25 542.25L614.25 558zM237.75 87L237.75 71.25L237 71.25L237 87zM237.75 103.5L237.75 87.75L237 87.75L237 103.5zM237.75 133.5L237.75 104.25L237 104.25L237 133.5zM237.75 150L237.75 134.25L237 134.25L237 150zM237.75 166.5L237.75 150.75L237 150.75L237 166.5zM237.75 196.5L237.75 167.25L237 167.25L237 196.5zM237.75 213L237.75 197.25L237 197.25L237 213zM237.75 243L237.75 213.75L237 213.75L237 243zM237.75 273L237.75 243.75L237 243.75L237 273zM237.75 303L237.75 273.75L237 273.75L237 303zM237.75 319.5L237.75 303.75L237 303.75L237 319.5zM237.75 336L237.75 320.25L237 320.25L237 336zM237.75 352.5L237.75 336.75L237 336.75L237 352.5zM237.75 369L237.75 353.25L237 353.25L237 369zM237.75 399L237.75 369.75L237 369.75L237 399zM237.75 415.5L237.75 399.75L237 399.75L237 415.5zM237.75 432L237.75 416.25L237 416.25L237 432zM237.75 448.5L237.75 432.75L237 432.75L237 448.5zM237.75 465L237.75 449.25L237 449.25L237 465zM237.75 481.5L237.75 465.75L237 465.75L237 481.5zM237.75 511.5L237.75 482.25L237 482.25L237 511.5zM237.75 541.5L237.75 512.25L237 512.25L237 541.5zM237.75 558L237.75 542.25L237 542.25L237 558zM141 87L141 71.25L140.25 71.25L140.25 87zM141 103.5L141 87.75L140.25 87.75L140.25 103.5zM141 133.5L141 104.25L140.25 104.25L140.25 133.5zM141 150L141 134.25L140.25 134.25L140.25 150zM141 166.5L141 150.75L140.25 150.75L140.25 166.5zM141 196.5L141 167.25L140.25 167.25L140.25 196.5zM141 213L141 197.25L140.25 197.25L140.25 213zM141 243L141 213.75L140.25 213.75L140.25 243zM141 273L141 243.75L140.25 243.75L140.25 273zM141 303L141 273.75L140.25 273.75L140.25 303zM141 319.5L141 303.75L140.25 303.75L140.25 319.5zM141 336L141 320.25L140.25 320.25L140.25 336zM141 352.5L141 336.75L140.25 336.75L140.25 352.5zM141 369L141 353.25L140.25 353.25L140.25 369zM141 399L141 369.75L140.25 369.75L140.25 399zM141 415.5L141 399.75L140.25 399.75L140.25 415.5zM141 432L141 416.25L140.25 416.25L140.25 432zM141 448.5L141 432.75L140.25 432.75L140.25 448.5zM141 465L141 449.25L140.25 449.25L140.25 465zM141 481.5L141 465.75L140.25 465.75L140.25 481.5zM141 511.5L141 482.25L140.25 482.25L140.25 511.5zM141 541.5L141 512.25L140.25 512.25L140.25 541.5zM141 558L141 542.25L140.25 542.25L140.25 558zM107.25 87L107.25 71.25L106.5 71.25L106.5 87zM107.25 103.5L107.25 87.75L106.5 87.75L106.5 103.5zM107.25 133.5L107.25 104.25L106.5 104.25L106.5 133.5zM107.25 150L107.25 134.25L106.5 134.25L106.5 150zM107.25 166.5L107.25 150.75L106.5 150.75L106.5 166.5zM107.25 196.5L107.25 167.25L106.5 167.25L106.5 196.5zM107.25 213L107.25 197.25L106.5 197.25L106.5 213zM107.25 243L107.25 213.75L106.5 213.75L106.5 243zM107.25 273L107.25 243.75L106.5 243.75L106.5 273zM107.25 303L107.25 273.75L106.5 273.75L106.5 303zM107.25 319.5L107.25 303.75L106.5 303.75L106.5 319.5zM107.25 336L107.25 320.25L106.5 320.25L106.5 336zM107.25 352.5L107.25 336.75L106.5 336.75L106.5 352.5zM107.25 369L107.25 353.25L106.5 353.25L106.5 369zM107.25 399L107.25 369.75L106.5 369.75L106.5 399zM107.25 415.5L107.25 399.75L106.5 399.75L106.5 415.5zM107.25 432L107.25 416.25L106.5 416.25L106.5 432zM107.25 448.5L107.25 432.75L106.5 432.75L106.5 448.5zM107.25 465L107.25 449.25L106.5 449.25L106.5 465zM107.25 481.5L107.25 465.75L106.5 465.75L106.5 481.5zM107.25 511.5L107.25 482.25L106.5 482.25L106.5 511.5zM107.25 541.5L107.25 512.25L106.5 512.25L106.5 541.5zM107.25 558L107.25 542.25L106.5 542.25L106.5 558z" stroke="none" fill="#000000" fill-rule="nonzero" fill-opacity="0.1490196" /><path id="173" transform="matrix(1 0 0 -1 0 612)" d="M240 545.2157L428.8403 545.2157" stroke="#000000" stroke-width="0.7017334" fill="none" /><path id="249" transform="matrix(1 0 0 -1 0 612)" d="M240 515.2157L468.8982 515.2157" stroke="#000000" stroke-width="0.7017334" fill="none" /><path id="350" transform="matrix(1 0 0 -1 0 612)" d="M240 485.2157L560.5537 485.2157" stroke="#000000" stroke-width="0.7017334" fill="none" /><path id="405" transform="matrix(1 0 0 -1 0 612)" d="M240 468.7157L437.1806 468.7157" stroke="#000000" stroke-width="0.7017334" fill="none" /><path id="467" transform="matrix(1 0 0 -1 0 612)" d="M240 452.2157L475.7097 452.2157" stroke="#000000" stroke-width="0.7017334" fill="none" /><path id="521" transform="matrix(1 0 0 -1 0 612)" d="M240 435.7157L445.542 435.7157" stroke="#000000" stroke-width="0.7017334" fill="none" /><path id="582" transform="matrix(1 0 0 -1 0 612)" d="M240 419.2157L490.6315 419.2157" stroke="#000000" stroke-width="0.7017334" fill="none" /><path id="619" transform="matrix(1 0 0 -1 0 612)" d="M240 402.7157L339.2474 402.7157" stroke="#000000" stroke-width="0.7017334" fill="none" /><path id="705" transform="matrix(1 0 0 -1 0 612)" d="M240 385.8049L590.5229 385.8049" stroke="#000000" stroke-width="0.7017334" fill="none" /><path id="711" transform="matrix(1 0 0 -1 0 612)" d="M240 372.7157L267.8904 372.7157" stroke="#000000" stroke-width="0.7017334" fill="none" /><path id="795" transform="matrix(1 0 0 -1 0 612)" d="M240 356.2157L573.648 356.2157" stroke="#000000" stroke-width="0.7017334" fill="none" /><path id="880" transform="matrix(1 0 0 -1 0 612)" d="M240 339.7157L601.3764 339.7157" stroke="#000000" stroke-width="0.7017334" fill="none" /><path id="957" transform="matrix(1 0 0 -1 0 612)" d="M240 323.2157L553.9413 323.2157" stroke="#000000" stroke-width="0.7017334" fill="none" /><path id="1032" transform="matrix(1 0 0 -1 0 612)" d="M240 306.7157L508.7678 306.7157" stroke="#000000" stroke-width="0.7017334" fill="none" /><path id="1074" transform="matrix(1 0 0 -1 0 612)" d="M240 276.7158L316.2418 276.7158" stroke="#000000" stroke-width="0.7017334" fill="none" /><path id="1155" transform="matrix(1 0 0 -1 0 612)" d="M240 259.8049L576.1404 259.8049" stroke="#000000" stroke-width="0.7017334" fill="none" /><path id="1176" transform="matrix(1 0 0 -1 0 612)" d="M240 246.7158L351.834 246.7158" stroke="#000000" stroke-width="0.7017334" fill="none" /><path id="1228" transform="matrix(1 0 0 -1 0 612)" d="M240 216.7158L357.944 216.7158" stroke="#000000" stroke-width="0.7017334" fill="none" /><path id="1304" transform="matrix(1 0 0 -1 0 612)" d="M240 200.2158L554.1246 200.2158" stroke="#000000" stroke-width="0.7017334" fill="none" /><path id="1385" transform="matrix(1 0 0 -1 0 612)" d="M240 183.3049L605.0887 183.3049" stroke="#000000" stroke-width="0.7017334" fill="none" /><path id="1390" transform="matrix(1 0 0 -1 0 612)" d="M240 170.2158L261.7385 170.2158" stroke="#000000" stroke-width="0.7017334" fill="none" /><path id="1443" transform="matrix(1 0 0 -1 0 612)" d="M240 153.7158L369.1169 153.7158" stroke="#000000" stroke-width="0.7017334" fill="none" /><path id="1490" transform="matrix(1 0 0 -1 0 612)" d="M240 137.2158L374.6877 137.2158" stroke="#000000" stroke-width="0.7017334" fill="none" /><path id="1574" transform="matrix(1 0 0 -1 0 612)" d="M240 120.3049L609.3086 120.3049" stroke="#000000" stroke-width="0.7017334" fill="none" /><path id="1588" transform="matrix(1 0 0 -1 0 612)" d="M240 107.2158L302.4771 107.2158" stroke="#000000" stroke-width="0.7017334" fill="none" /><path id="1662" transform="matrix(1 0 0 -1 0 612)" d="M240 90.71576L509.7155 90.71576" stroke="#000000" stroke-width="0.7017334" fill="none" /><path id="1734" transform="matrix(1 0 0 -1 0 612)" d="M240 74.21576L522.7001 74.21576" stroke="#000000" stroke-width="0.7017334" fill="none" /></g></g></g></svg>