<svg xmlns="http://www.w3.org/2000/svg" xmlns:xlink="http://www.w3.org/1999/xlink" id="body_9" preserveAspectRatio="xMinYMin meet" viewBox="0 0 1056 816"><defs><clipPath id="1"><path id="" clip-rule="evenodd" transform="matrix(1 0 0 1 0 0)" d="M0 612L0 0L0 0L792 0L792 0L792 612L792 612L0 612z" /></clipPath><clipPath id="2"><path id="" clip-rule="evenodd" transform="matrix(1 0 0 1 0 0)" d="M105.75 52.5L686.25 52.5L686.25 52.5L686.25 555L686.25 555L105.75 555L105.75 555L105.75 52.5z" /></clipPath></defs><g transform="matrix(1.333333 0 0 1.333333 0 0)"><g clip-path="url(#1)"><g clip-path="url(#2)"><path id="101" transform="matrix(1 0 0 -1 0 612)" d="M106.5 558.75L685.5 558.75L685.5 541.5L106.5 541.5L106.5 558.75z" stroke="none" fill="#FFFFFF" fill-rule="nonzero" /><path id="102" transform="matrix(1 0 0 -1 0 612)" d="M106.5 542.25L685.5 542.25L685.5 525L106.5 525L106.5 542.25z" stroke="none" fill="#E0F7FA" fill-rule="nonzero" /><path id="103" transform="matrix(1 0 0 -1 0 612)" d="M106.5 525.75L685.5 525.75L685.5 482.25L106.5 482.25L106.5 525.75z" stroke="none" fill="#FFFFFF" fill-rule="nonzero" /><path id="104" transform="matrix(1 0 0 -1 0 612)" d="M106.5 483L685.5 483L685.5 465.75L106.5 465.75L106.5 483z" stroke="none" fill="#E0F7FA" fill-rule="nonzero" /><path id="105" transform="matrix(1 0 0 -1 0 612)" d="M106.5 466.5L685.5 466.5L685.5 435.75L106.5 435.75L106.5 466.5z" stroke="none" fill="#FFFFFF" fill-rule="nonzero" /><path id="106" transform="matrix(1 0 0 -1 0 612)" d="M106.5 436.5L685.5 436.5L685.5 405.75L106.5 405.75L106.5 436.5z" stroke="none" fill="#E0F7FA" fill-rule="nonzero" /><path id="107" transform="matrix(1 0 0 -1 0 612)" d="M106.5 406.5L685.5 406.5L685.5 389.25L106.5 389.25L106.5 406.5z" stroke="none" fill="#FFFFFF" fill-rule="nonzero" /><path id="108" transform="matrix(1 0 0 -1 0 612)" d="M106.5 390L685.5 390L685.5 359.25L106.5 359.25L106.5 390z" stroke="none" fill="#E0F7FA" fill-rule="nonzero" /><path id="109" transform="matrix(1 0 0 -1 0 612)" d="M106.5 360L685.5 360L685.5 342.75L106.5 342.75L106.5 360z" stroke="none" fill="#FFFFFF" fill-rule="nonzero" /><path id="110" transform="matrix(1 0 0 -1 0 612)" d="M106.5 343.5L685.5 343.5L685.5 326.25L106.5 326.25L106.5 343.5z" stroke="none" fill="#E0F7FA" fill-rule="nonzero" /><path id="111" transform="matrix(1 0 0 -1 0 612)" d="M106.5 327L685.5 327L685.5 309.75L106.5 309.75L106.5 327z" stroke="none" fill="#FFFFFF" fill-rule="nonzero" /><path id="112" transform="matrix(1 0 0 -1 0 612)" d="M106.5 310.5L685.5 310.5L685.5 293.25L106.5 293.25L106.5 310.5z" stroke="none" fill="#E0F7FA" fill-rule="nonzero" /><path id="113" transform="matrix(1 0 0 -1 0 612)" d="M106.5 294L685.5 294L685.5 263.25L106.5 263.25L106.5 294z" stroke="none" fill="#FFFFFF" fill-rule="nonzero" /><path id="114" transform="matrix(1 0 0 -1 0 612)" d="M106.5 264L685.5 264L685.5 246.75L106.5 246.75L106.5 264z" stroke="none" fill="#E0F7FA" fill-rule="nonzero" /><path id="115" transform="matrix(1 0 0 -1 0 612)" d="M106.5 247.5L685.5 247.5L685.5 230.25L106.5 230.25L106.5 247.5z" stroke="none" fill="#FFFFFF" fill-rule="nonzero" /><path id="116" transform="matrix(1 0 0 -1 0 612)" d="M106.5 231L685.5 231L685.5 213.75L106.5 213.75L106.5 231z" stroke="none" fill="#E0F7FA" fill-rule="nonzero" /><path id="117" transform="matrix(1 0 0 -1 0 612)" d="M106.5 214.5L685.5 214.5L685.5 197.25L106.5 197.25L106.5 214.5z" stroke="none" fill="#FFFFFF" fill-rule="nonzero" /><path id="118" transform="matrix(1 0 0 -1 0 612)" d="M106.5 198L685.5 198L685.5 180.75L106.5 180.75L106.5 198z" stroke="none" fill="#E0F7FA" fill-rule="nonzero" /><path id="119" transform="matrix(1 0 0 -1 0 612)" d="M106.5 181.5L685.5 181.5L685.5 164.25L106.5 164.25L106.5 181.5z" stroke="none" fill="#FFFFFF" fill-rule="nonzero" /><path id="120" transform="matrix(1 0 0 -1 0 612)" d="M106.5 165L685.5 165L685.5 134.25L106.5 134.25L106.5 165z" stroke="none" fill="#E0F7FA" fill-rule="nonzero" /><path id="121" transform="matrix(1 0 0 -1 0 612)" d="M106.5 135L685.5 135L685.5 104.25L106.5 104.25L106.5 135z" stroke="none" fill="#FFFFFF" fill-rule="nonzero" /><path id="122" transform="matrix(1 0 0 -1 0 612)" d="M106.5 105L685.5 105L685.5 87.75L106.5 87.75L106.5 105z" stroke="none" fill="#E0F7FA" fill-rule="nonzero" /><path id="123" transform="matrix(1 0 0 -1 0 612)" d="M106.5 88.5L685.5 88.5L685.5 57.75L106.5 57.75L106.5 88.5z" stroke="none" fill="#FFFFFF" fill-rule="nonzero" /><path id="124" transform="matrix(1 0 0 -1 0 612)" d="M106.5 58.5L685.5 58.5L685.5 57.75L106.5 57.75zM106.5 88.5L685.5 88.5L685.5 87.75L106.5 87.75zM106.5 105L685.5 105L685.5 104.25L106.5 104.25zM106.5 135L685.5 135L685.5 134.25L106.5 134.25zM106.5 165L685.5 165L685.5 164.25L106.5 164.25zM106.5 181.5L685.5 181.5L685.5 180.75L106.5 180.75zM106.5 198L685.5 198L685.5 197.25L106.5 197.25zM106.5 214.5L685.5 214.5L685.5 213.75L106.5 213.75zM106.5 231L685.5 231L685.5 230.25L106.5 230.25zM106.5 247.5L685.5 247.5L685.5 246.75L106.5 246.75zM106.5 264L685.5 264L685.5 263.25L106.5 263.25zM106.5 294L685.5 294L685.5 293.25L106.5 293.25zM106.5 310.5L685.5 310.5L685.5 309.75L106.5 309.75zM106.5 327L685.5 327L685.5 326.25L106.5 326.25zM106.5 343.5L685.5 343.5L685.5 342.75L106.5 342.75zM106.5 360L685.5 360L685.5 359.25L106.5 359.25zM106.5 390L685.5 390L685.5 389.25L106.5 389.25zM106.5 406.5L685.5 406.5L685.5 405.75L106.5 405.75zM106.5 436.5L685.5 436.5L685.5 435.75L106.5 435.75zM106.5 466.5L685.5 466.5L685.5 465.75L106.5 465.75zM106.5 483L685.5 483L685.5 482.25L106.5 482.25zM106.5 525.75L685.5 525.75L685.5 525L106.5 525zM106.5 542.25L685.5 542.25L685.5 541.5L106.5 541.5zM106.5 558.75L685.5 558.75L685.5 558L106.5 558zM685.5 87.75L685.5 58.5L684.75 58.5L684.75 87.75zM685.5 104.25L685.5 88.5L684.75 88.5L684.75 104.25zM685.5 134.25L685.5 105L684.75 105L684.75 134.25zM685.5 164.25L685.5 135L684.75 135L684.75 164.25zM685.5 180.75L685.5 165L684.75 165L684.75 180.75zM685.5 197.25L685.5 181.5L684.75 181.5L684.75 197.25zM685.5 213.75L685.5 198L684.75 198L684.75 213.75zM685.5 230.25L685.5 214.5L684.75 214.5L684.75 230.25zM685.5 246.75L685.5 231L684.75 231L684.75 246.75zM685.5 263.25L685.5 247.5L684.75 247.5L684.75 263.25zM685.5 293.25L685.5 264L684.75 264L684.75 293.25zM685.5 309.75L685.5 294L684.75 294L684.75 309.75zM685.5 326.25L685.5 310.5L684.75 310.5L684.75 326.25zM685.5 342.75L685.5 327L684.75 327L684.75 342.75zM685.5 359.25L685.5 343.5L684.75 343.5L684.75 359.25zM685.5 389.25L685.5 360L684.75 360L684.75 389.25zM685.5 405.75L685.5 390L684.75 390L684.75 405.75zM685.5 435.75L685.5 406.5L684.75 406.5L684.75 435.75zM685.5 465.75L685.5 436.5L684.75 436.5L684.75 465.75zM685.5 482.25L685.5 466.5L684.75 466.5L684.75 482.25zM685.5 525L685.5 483L684.75 483L684.75 525zM685.5 541.5L685.5 525.75L684.75 525.75L684.75 541.5zM685.5 558L685.5 542.25L684.75 542.25L684.75 558zM615 87.75L615 58.5L614.25 58.5L614.25 87.75zM615 104.25L615 88.5L614.25 88.5L614.25 104.25zM615 134.25L615 105L614.25 105L614.25 134.25zM615 164.25L615 135L614.25 135L614.25 164.25zM615 180.75L615 165L614.25 165L614.25 180.75zM615 197.25L615 181.5L614.25 181.5L614.25 197.25zM615 213.75L615 198L614.25 198L614.25 213.75zM615 230.25L615 214.5L614.25 214.5L614.25 230.25zM615 246.75L615 231L614.25 231L614.25 246.75zM615 263.25L615 247.5L614.25 247.5L614.25 263.25zM615 293.25L615 264L614.25 264L614.25 293.25zM615 309.75L615 294L614.25 294L614.25 309.75zM615 326.25L615 310.5L614.25 310.5L614.25 326.25zM615 342.75L615 327L614.25 327L614.25 342.75zM615 359.25L615 343.5L614.25 343.5L614.25 359.25zM615 389.25L615 360L614.25 360L614.25 389.25zM615 405.75L615 390L614.25 390L614.25 405.75zM615 435.75L615 406.5L614.25 406.5L614.25 435.75zM615 465.75L615 436.5L614.25 436.5L614.25 465.75zM615 482.25L615 466.5L614.25 466.5L614.25 482.25zM615 525L615 483L614.25 483L614.25 525zM615 541.5L615 525.75L614.25 525.75L614.25 541.5zM615 558L615 542.25L614.25 542.25L614.25 558zM237.75 87.75L237.75 58.5L237 58.5L237 87.75zM237.75 104.25L237.75 88.5L237 88.5L237 104.25zM237.75 134.25L237.75 105L237 105L237 134.25zM237.75 164.25L237.75 135L237 135L237 164.25zM237.75 180.75L237.75 165L237 165L237 180.75zM237.75 197.25L237.75 181.5L237 181.5L237 197.25zM237.75 213.75L237.75 198L237 198L237 213.75zM237.75 230.25L237.75 214.5L237 214.5L237 230.25zM237.75 246.75L237.75 231L237 231L237 246.75zM237.75 263.25L237.75 247.5L237 247.5L237 263.25zM237.75 293.25L237.75 264L237 264L237 293.25zM237.75 309.75L237.75 294L237 294L237 309.75zM237.75 326.25L237.75 310.5L237 310.5L237 326.25zM237.75 342.75L237.75 327L237 327L237 342.75zM237.75 359.25L237.75 343.5L237 343.5L237 359.25zM237.75 389.25L237.75 360L237 360L237 389.25zM237.75 405.75L237.75 390L237 390L237 405.75zM237.75 435.75L237.75 406.5L237 406.5L237 435.75zM237.75 465.75L237.75 436.5L237 436.5L237 465.75zM237.75 482.25L237.75 466.5L237 466.5L237 482.25zM237.75 525L237.75 483L237 483L237 525zM237.75 541.5L237.75 525.75L237 525.75L237 541.5zM237.75 558L237.75 542.25L237 542.25L237 558zM141 87.75L141 58.5L140.25 58.5L140.25 87.75zM141 104.25L141 88.5L140.25 88.5L140.25 104.25zM141 134.25L141 105L140.25 105L140.25 134.25zM141 164.25L141 135L140.25 135L140.25 164.25zM141 180.75L141 165L140.25 165L140.25 180.75zM141 197.25L141 181.5L140.25 181.5L140.25 197.25zM141 213.75L141 198L140.25 198L140.25 213.75zM141 230.25L141 214.5L140.25 214.5L140.25 230.25zM141 246.75L141 231L140.25 231L140.25 246.75zM141 263.25L141 247.5L140.25 247.5L140.25 263.25zM141 293.25L141 264L140.25 264L140.25 293.25zM141 309.75L141 294L140.25 294L140.25 309.75zM141 326.25L141 310.5L140.25 310.5L140.25 326.25zM141 342.75L141 327L140.25 327L140.25 342.75zM141 359.25L141 343.5L140.25 343.5L140.25 359.25zM141 389.25L141 360L140.25 360L140.25 389.25zM141 405.75L141 390L140.25 390L140.25 405.75zM141 435.75L141 406.5L140.25 406.5L140.25 435.75zM141 465.75L141 436.5L140.25 436.5L140.25 465.75zM141 482.25L141 466.5L140.25 466.5L140.25 482.25zM141 525L141 483L140.25 483L140.25 525zM141 541.5L141 525.75L140.25 525.75L140.25 541.5zM141 558L141 542.25L140.25 542.25L140.25 558zM107.25 87.75L107.25 58.5L106.5 58.5L106.5 87.75zM107.25 104.25L107.25 88.5L106.5 88.5L106.5 104.25zM107.25 134.25L107.25 105L106.5 105L106.5 134.25zM107.25 164.25L107.25 135L106.5 135L106.5 164.25zM107.25 180.75L107.25 165L106.5 165L106.5 180.75zM107.25 197.25L107.25 181.5L106.5 181.5L106.5 197.25zM107.25 213.75L107.25 198L106.5 198L106.5 213.75zM107.25 230.25L107.25 214.5L106.5 214.5L106.5 230.25zM107.25 246.75L107.25 231L106.5 231L106.5 246.75zM107.25 263.25L107.25 247.5L106.5 247.5L106.5 263.25zM107.25 293.25L107.25 264L106.5 264L106.5 293.25zM107.25 309.75L107.25 294L106.5 294L106.5 309.75zM107.25 326.25L107.25 310.5L106.5 310.5L106.5 326.25zM107.25 342.75L107.25 327L106.5 327L106.5 342.75zM107.25 359.25L107.25 343.5L106.5 343.5L106.5 359.25zM107.25 389.25L107.25 360L106.5 360L106.5 389.25zM107.25 405.75L107.25 390L106.5 390L106.5 405.75zM107.25 435.75L107.25 406.5L106.5 406.5L106.5 435.75zM107.25 465.75L107.25 436.5L106.5 436.5L106.5 465.75zM107.25 482.25L107.25 466.5L106.5 466.5L106.5 482.25zM107.25 525L107.25 483L106.5 483L106.5 525zM107.25 541.5L107.25 525.75L106.5 525.75L106.5 541.5zM107.25 558L107.25 542.25L106.5 542.25L106.5 558z" stroke="none" fill="#000000" fill-rule="nonzero" fill-opacity="0.1490196" /><path id="210" transform="matrix(1 0 0 -1 0 612)" d="M240 545.2156L553.4646 545.2156" stroke="#000000" stroke-width="0.7017334" fill="none" /><path id="307" transform="matrix(1 0 0 -1 0 612)" d="M240 528.7156L601.2615 528.7156" stroke="#000000" stroke-width="0.7017334" fill="none" /><path id="398" transform="matrix(1 0 0 -1 0 612)" d="M240 485.9656L503.5375 485.9656" stroke="#000000" stroke-width="0.7017334" fill="none" /><path id="455" transform="matrix(1 0 0 -1 0 612)" d="M240 469.4656L449.4897 469.4656" stroke="#000000" stroke-width="0.7017334" fill="none" /><path id="540" transform="matrix(1 0 0 -1 0 612)" d="M240 439.4656L527.3127 439.4656" stroke="#000000" stroke-width="0.7017334" fill="none" /><path id="631" transform="matrix(1 0 0 -1 0 612)" d="M240 422.5547L599.7638 422.5547" stroke="#000000" stroke-width="0.7017334" fill="none" /><path id="656" transform="matrix(1 0 0 -1 0 612)" d="M240 409.4658L363.7922 409.4658" stroke="#000000" stroke-width="0.7017334" fill="none" /><path id="728" transform="matrix(1 0 0 -1 0 612)" d="M240 392.9658L500.5845 392.9658" stroke="#000000" stroke-width="0.7017334" fill="none" /><path id="811" transform="matrix(1 0 0 -1 0 612)" d="M240 376.0547L579.4965 376.0547" stroke="#000000" stroke-width="0.7017334" fill="none" /><path id="829" transform="matrix(1 0 0 -1 0 612)" d="M240 362.9658L323.886 362.9658" stroke="#000000" stroke-width="0.7017334" fill="none" /><path id="869" transform="matrix(1 0 0 -1 0 612)" d="M240 346.4658L384.4991 346.4658" stroke="#000000" stroke-width="0.7017334" fill="none" /><path id="935" transform="matrix(1 0 0 -1 0 612)" d="M240 329.9658L473.6677 329.9658" stroke="#000000" stroke-width="0.7017334" fill="none" /><path id="997" transform="matrix(1 0 0 -1 0 612)" d="M240 313.4658L451.5158 313.4658" stroke="#000000" stroke-width="0.7017334" fill="none" /><path id="1050" transform="matrix(1 0 0 -1 0 612)" d="M240 296.9658L394.9445 296.9658" stroke="#000000" stroke-width="0.7017334" fill="none" /><path id="1134" transform="matrix(1 0 0 -1 0 612)" d="M240 280.0547L595.6959 280.0547" stroke="#000000" stroke-width="0.7017334" fill="none" /><path id="1139" transform="matrix(1 0 0 -1 0 612)" d="M240 266.9658L261.7385 266.9658" stroke="#000000" stroke-width="0.7017334" fill="none" /><path id="1218" transform="matrix(1 0 0 -1 0 612)" d="M240 250.4658L544.4962 250.4658" stroke="#000000" stroke-width="0.7017334" fill="none" /><path id="1249" transform="matrix(1 0 0 -1 0 612)" d="M240 233.9658L299.3986 233.9658" stroke="#000000" stroke-width="0.7017334" fill="none" /><path id="1324" transform="matrix(1 0 0 -1 0 612)" d="M240 217.4658L516.2078 217.4658" stroke="#000000" stroke-width="0.7017334" fill="none" /><path id="1390" transform="matrix(1 0 0 -1 0 612)" d="M240 200.9658L481.155 200.9658" stroke="#000000" stroke-width="0.7017334" fill="none" /><path id="1454" transform="matrix(1 0 0 -1 0 612)" d="M240 184.4658L465.4845 184.4658" stroke="#000000" stroke-width="0.7017334" fill="none" /><path id="1496" transform="matrix(1 0 0 -1 0 612)" d="M240 167.9658L368.7713 167.9658" stroke="#000000" stroke-width="0.7017334" fill="none" /><path id="1581" transform="matrix(1 0 0 -1 0 612)" d="M240 151.0547L596.355 151.0547" stroke="#000000" stroke-width="0.7017334" fill="none" /><path id="1619" transform="matrix(1 0 0 -1 0 612)" d="M240 137.9658L430.1229 137.9658" stroke="#000000" stroke-width="0.7017334" fill="none" /><path id="1705" transform="matrix(1 0 0 -1 0 612)" d="M240 121.0547L589.0621 121.0547" stroke="#000000" stroke-width="0.7017334" fill="none" /><path id="1719" transform="matrix(1 0 0 -1 0 612)" d="M240 107.9658L301.0846 107.9658" stroke="#000000" stroke-width="0.7017334" fill="none" /><path id="1772" transform="matrix(1 0 0 -1 0 612)" d="M240 91.46582L401.3581 91.46582" stroke="#000000" stroke-width="0.7017334" fill="none" /><path id="1856" transform="matrix(1 0 0 -1 0 612)" d="M240 74.55469L599.8267 74.55469" stroke="#000000" stroke-width="0.7017334" fill="none" /><path id="1870" transform="matrix(1 0 0 -1 0 612)" d="M240 61.46582L295.2887 61.46582" stroke="#000000" stroke-width="0.7017334" fill="none" /></g></g></g></svg>