<svg xmlns="http://www.w3.org/2000/svg" xmlns:xlink="http://www.w3.org/1999/xlink" id="body_3" preserveAspectRatio="xMinYMin meet" viewBox="0 0 1056 816"><defs><clipPath id="1"><path id="" clip-rule="evenodd" transform="matrix(1 0 0 1 0 0)" d="M0 612L0 0L0 0L792 0L792 0L792 612L792 612L0 612z" /></clipPath><clipPath id="2"><path id="" clip-rule="evenodd" transform="matrix(1 0 0 1 0 0)" d="M105.75 52.5L686.25 52.5L686.25 52.5L686.25 553.5L686.25 553.5L105.75 553.5L105.75 553.5L105.75 52.5z" /></clipPath></defs><g transform="matrix(1.333333 0 0 1.333333 0 0)"><g clip-path="url(#1)"><g clip-path="url(#2)"><path id="101" transform="matrix(1 0 0 -1 0 612)" d="M106.5 558.75L685.5 558.75L685.5 528L106.5 528L106.5 558.75z" stroke="none" fill="#E0F7FA" fill-rule="nonzero" /><path id="102" transform="matrix(1 0 0 -1 0 612)" d="M106.5 528.75L685.5 528.75L685.5 511.5L106.5 511.5L106.5 528.75z" stroke="none" fill="#FFFFFF" fill-rule="nonzero" /><path id="103" transform="matrix(1 0 0 -1 0 612)" d="M106.5 512.25L685.5 512.25L685.5 495L106.5 495L106.5 512.25z" stroke="none" fill="#E0F7FA" fill-rule="nonzero" /><path id="104" transform="matrix(1 0 0 -1 0 612)" d="M106.5 495.75L685.5 495.75L685.5 465L106.5 465L106.5 495.75z" stroke="none" fill="#FFFFFF" fill-rule="nonzero" /><path id="105" transform="matrix(1 0 0 -1 0 612)" d="M106.5 465.75L685.5 465.75L685.5 448.5L106.5 448.5L106.5 465.75z" stroke="none" fill="#E0F7FA" fill-rule="nonzero" /><path id="106" transform="matrix(1 0 0 -1 0 612)" d="M106.5 449.25L685.5 449.25L685.5 432L106.5 432L106.5 449.25z" stroke="none" fill="#FFFFFF" fill-rule="nonzero" /><path id="107" transform="matrix(1 0 0 -1 0 612)" d="M106.5 432.75L685.5 432.75L685.5 415.5L106.5 415.5L106.5 432.75z" stroke="none" fill="#E0F7FA" fill-rule="nonzero" /><path id="108" transform="matrix(1 0 0 -1 0 612)" d="M106.5 416.25L685.5 416.25L685.5 399L106.5 399L106.5 416.25z" stroke="none" fill="#FFFFFF" fill-rule="nonzero" /><path id="109" transform="matrix(1 0 0 -1 0 612)" d="M106.5 399.75L685.5 399.75L685.5 369L106.5 369L106.5 399.75z" stroke="none" fill="#E0F7FA" fill-rule="nonzero" /><path id="110" transform="matrix(1 0 0 -1 0 612)" d="M106.5 369.75L685.5 369.75L685.5 352.5L106.5 352.5L106.5 369.75z" stroke="none" fill="#FFFFFF" fill-rule="nonzero" /><path id="111" transform="matrix(1 0 0 -1 0 612)" d="M106.5 353.25L685.5 353.25L685.5 336L106.5 336L106.5 353.25z" stroke="none" fill="#E0F7FA" fill-rule="nonzero" /><path id="112" transform="matrix(1 0 0 -1 0 612)" d="M106.5 336.75L685.5 336.75L685.5 306L106.5 306L106.5 336.75z" stroke="none" fill="#FFFFFF" fill-rule="nonzero" /><path id="113" transform="matrix(1 0 0 -1 0 612)" d="M106.5 306.75L685.5 306.75L685.5 289.5L106.5 289.5L106.5 306.75z" stroke="none" fill="#E0F7FA" fill-rule="nonzero" /><path id="114" transform="matrix(1 0 0 -1 0 612)" d="M106.5 290.25L685.5 290.25L685.5 259.5L106.5 259.5L106.5 290.25z" stroke="none" fill="#FFFFFF" fill-rule="nonzero" /><path id="115" transform="matrix(1 0 0 -1 0 612)" d="M106.5 260.25L685.5 260.25L685.5 243L106.5 243L106.5 260.25z" stroke="none" fill="#E0F7FA" fill-rule="nonzero" /><path id="116" transform="matrix(1 0 0 -1 0 612)" d="M106.5 243.75L685.5 243.75L685.5 213L106.5 213L106.5 243.75z" stroke="none" fill="#FFFFFF" fill-rule="nonzero" /><path id="117" transform="matrix(1 0 0 -1 0 612)" d="M106.5 213.75L685.5 213.75L685.5 183L106.5 183L106.5 213.75z" stroke="none" fill="#E0F7FA" fill-rule="nonzero" /><path id="118" transform="matrix(1 0 0 -1 0 612)" d="M106.5 183.75L685.5 183.75L685.5 166.5L106.5 166.5L106.5 183.75z" stroke="none" fill="#FFFFFF" fill-rule="nonzero" /><path id="119" transform="matrix(1 0 0 -1 0 612)" d="M106.5 167.25L685.5 167.25L685.5 150L106.5 150L106.5 167.25z" stroke="none" fill="#E0F7FA" fill-rule="nonzero" /><path id="120" transform="matrix(1 0 0 -1 0 612)" d="M106.5 150.75L685.5 150.75L685.5 133.5L106.5 133.5L106.5 150.75z" stroke="none" fill="#FFFFFF" fill-rule="nonzero" /><path id="121" transform="matrix(1 0 0 -1 0 612)" d="M106.5 134.25L685.5 134.25L685.5 90.75L106.5 90.75L106.5 134.25z" stroke="none" fill="#E0F7FA" fill-rule="nonzero" /><path id="122" transform="matrix(1 0 0 -1 0 612)" d="M106.5 91.5L685.5 91.5L685.5 59.25L106.5 59.25L106.5 91.5z" stroke="none" fill="#FFFFFF" fill-rule="nonzero" /><path id="123" transform="matrix(1 0 0 -1 0 612)" d="M106.5 60L685.5 60L685.5 59.25L106.5 59.25zM106.5 91.5L685.5 91.5L685.5 90.75L106.5 90.75zM106.5 134.25L685.5 134.25L685.5 133.5L106.5 133.5zM106.5 150.75L685.5 150.75L685.5 150L106.5 150zM106.5 167.25L685.5 167.25L685.5 166.5L106.5 166.5zM106.5 183.75L685.5 183.75L685.5 183L106.5 183zM106.5 213.75L685.5 213.75L685.5 213L106.5 213zM106.5 243.75L685.5 243.75L685.5 243L106.5 243zM106.5 260.25L685.5 260.25L685.5 259.5L106.5 259.5zM106.5 290.25L685.5 290.25L685.5 289.5L106.5 289.5zM106.5 306.75L685.5 306.75L685.5 306L106.5 306zM106.5 336.75L685.5 336.75L685.5 336L106.5 336zM106.5 353.25L685.5 353.25L685.5 352.5L106.5 352.5zM106.5 369.75L685.5 369.75L685.5 369L106.5 369zM106.5 399.75L685.5 399.75L685.5 399L106.5 399zM106.5 416.25L685.5 416.25L685.5 415.5L106.5 415.5zM106.5 432.75L685.5 432.75L685.5 432L106.5 432zM106.5 449.25L685.5 449.25L685.5 448.5L106.5 448.5zM106.5 465.75L685.5 465.75L685.5 465L106.5 465zM106.5 495.75L685.5 495.75L685.5 495L106.5 495zM106.5 512.25L685.5 512.25L685.5 511.5L106.5 511.5zM106.5 528.75L685.5 528.75L685.5 528L106.5 528zM106.5 558.75L685.5 558.75L685.5 558L106.5 558zM685.5 90.75L685.5 60L684.75 60L684.75 90.75zM685.5 133.5L685.5 91.5L684.75 91.5L684.75 133.5zM685.5 150L685.5 134.25L684.75 134.25L684.75 150zM685.5 166.5L685.5 150.75L684.75 150.75L684.75 166.5zM685.5 183L685.5 167.25L684.75 167.25L684.75 183zM685.5 213L685.5 183.75L684.75 183.75L684.75 213zM685.5 243L685.5 213.75L684.75 213.75L684.75 243zM685.5 259.5L685.5 243.75L684.75 243.75L684.75 259.5zM685.5 289.5L685.5 260.25L684.75 260.25L684.75 289.5zM685.5 306L685.5 290.25L684.75 290.25L684.75 306zM685.5 336L685.5 306.75L684.75 306.75L684.75 336zM685.5 352.5L685.5 336.75L684.75 336.75L684.75 352.5zM685.5 369L685.5 353.25L684.75 353.25L684.75 369zM685.5 399L685.5 369.75L684.75 369.75L684.75 399zM685.5 415.5L685.5 399.75L684.75 399.75L684.75 415.5zM685.5 432L685.5 416.25L684.75 416.25L684.75 432zM685.5 448.5L685.5 432.75L684.75 432.75L684.75 448.5zM685.5 465L685.5 449.25L684.75 449.25L684.75 465zM685.5 495L685.5 465.75L684.75 465.75L684.75 495zM685.5 511.5L685.5 495.75L684.75 495.75L684.75 511.5zM685.5 528L685.5 512.25L684.75 512.25L684.75 528zM685.5 558L685.5 528.75L684.75 528.75L684.75 558zM615 90.75L615 60L614.25 60L614.25 90.75zM615 133.5L615 91.5L614.25 91.5L614.25 133.5zM615 150L615 134.25L614.25 134.25L614.25 150zM615 166.5L615 150.75L614.25 150.75L614.25 166.5zM615 183L615 167.25L614.25 167.25L614.25 183zM615 213L615 183.75L614.25 183.75L614.25 213zM615 243L615 213.75L614.25 213.75L614.25 243zM615 259.5L615 243.75L614.25 243.75L614.25 259.5zM615 289.5L615 260.25L614.25 260.25L614.25 289.5zM615 306L615 290.25L614.25 290.25L614.25 306zM615 336L615 306.75L614.25 306.75L614.25 336zM615 352.5L615 336.75L614.25 336.75L614.25 352.5zM615 369L615 353.25L614.25 353.25L614.25 369zM615 399L615 369.75L614.25 369.75L614.25 399zM615 415.5L615 399.75L614.25 399.75L614.25 415.5zM615 432L615 416.25L614.25 416.25L614.25 432zM615 448.5L615 432.75L614.25 432.75L614.25 448.5zM615 465L615 449.25L614.25 449.25L614.25 465zM615 495L615 465.75L614.25 465.75L614.25 495zM615 511.5L615 495.75L614.25 495.75L614.25 511.5zM615 528L615 512.25L614.25 512.25L614.25 528zM615 558L615 528.75L614.25 528.75L614.25 558zM237.75 90.75L237.75 60L237 60L237 90.75zM237.75 133.5L237.75 91.5L237 91.5L237 133.5zM237.75 150L237.75 134.25L237 134.25L237 150zM237.75 166.5L237.75 150.75L237 150.75L237 166.5zM237.75 183L237.75 167.25L237 167.25L237 183zM237.75 213L237.75 183.75L237 183.75L237 213zM237.75 243L237.75 213.75L237 213.75L237 243zM237.75 259.5L237.75 243.75L237 243.75L237 259.5zM237.75 289.5L237.75 260.25L237 260.25L237 289.5zM237.75 306L237.75 290.25L237 290.25L237 306zM237.75 336L237.75 306.75L237 306.75L237 336zM237.75 352.5L237.75 336.75L237 336.75L237 352.5zM237.75 369L237.75 353.25L237 353.25L237 369zM237.75 399L237.75 369.75L237 369.75L237 399zM237.75 415.5L237.75 399.75L237 399.75L237 415.5zM237.75 432L237.75 416.25L237 416.25L237 432zM237.75 448.5L237.75 432.75L237 432.75L237 448.5zM237.75 465L237.75 449.25L237 449.25L237 465zM237.75 495L237.75 465.75L237 465.75L237 495zM237.75 511.5L237.75 495.75L237 495.75L237 511.5zM237.75 528L237.75 512.25L237 512.25L237 528zM237.75 558L237.75 528.75L237 528.75L237 558zM141 90.75L141 60L140.25 60L140.25 90.75zM141 133.5L141 91.5L140.25 91.5L140.25 133.5zM141 150L141 134.25L140.25 134.25L140.25 150zM141 166.5L141 150.75L140.25 150.75L140.25 166.5zM141 183L141 167.25L140.25 167.25L140.25 183zM141 213L141 183.75L140.25 183.75L140.25 213zM141 243L141 213.75L140.25 213.75L140.25 243zM141 259.5L141 243.75L140.25 243.75L140.25 259.5zM141 289.5L141 260.25L140.25 260.25L140.25 289.5zM141 306L141 290.25L140.25 290.25L140.25 306zM141 336L141 306.75L140.25 306.75L140.25 336zM141 352.5L141 336.75L140.25 336.75L140.25 352.5zM141 369L141 353.25L140.25 353.25L140.25 369zM141 399L141 369.75L140.25 369.75L140.25 399zM141 415.5L141 399.75L140.25 399.75L140.25 415.5zM141 432L141 416.25L140.25 416.25L140.25 432zM141 448.5L141 432.75L140.25 432.75L140.25 448.5zM141 465L141 449.25L140.25 449.25L140.25 465zM141 495L141 465.75L140.25 465.75L140.25 495zM141 511.5L141 495.75L140.25 495.75L140.25 511.5zM141 528L141 512.25L140.25 512.25L140.25 528zM141 558L141 528.75L140.25 528.75L140.25 558zM107.25 90.75L107.25 60L106.5 60L106.5 90.75zM107.25 133.5L107.25 91.5L106.5 91.5L106.5 133.5zM107.25 150L107.25 134.25L106.5 134.25L106.5 150zM107.25 166.5L107.25 150.75L106.5 150.75L106.5 166.5zM107.25 183L107.25 167.25L106.5 167.25L106.5 183zM107.25 213L107.25 183.75L106.5 183.75L106.5 213zM107.25 243L107.25 213.75L106.5 213.75L106.5 243zM107.25 259.5L107.25 243.75L106.5 243.75L106.5 259.5zM107.25 289.5L107.25 260.25L106.5 260.25L106.5 289.5zM107.25 306L107.25 290.25L106.5 290.25L106.5 306zM107.25 336L107.25 306.75L106.5 306.75L106.5 336zM107.25 352.5L107.25 336.75L106.5 336.75L106.5 352.5zM107.25 369L107.25 353.25L106.5 353.25L106.5 369zM107.25 399L107.25 369.75L106.5 369.75L106.5 399zM107.25 415.5L107.25 399.75L106.5 399.75L106.5 415.5zM107.25 432L107.25 416.25L106.5 416.25L106.5 432zM107.25 448.5L107.25 432.75L106.5 432.75L106.5 448.5zM107.25 465L107.25 449.25L106.5 449.25L106.5 465zM107.25 495L107.25 465.75L106.5 465.75L106.5 495zM107.25 511.5L107.25 495.75L106.5 495.75L106.5 511.5zM107.25 528L107.25 512.25L106.5 512.25L106.5 528zM107.25 558L107.25 528.75L106.5 528.75L106.5 558z" stroke="none" fill="#000000" fill-rule="nonzero" fill-opacity="0.1490196" /><path id="196" transform="matrix(1 0 0 -1 0 612)" d="M240 531.7158L472.5475 531.7158" stroke="#000000" stroke-width="0.7017334" fill="none" /><path id="274" transform="matrix(1 0 0 -1 0 612)" d="M240 515.2158L505.307 515.2158" stroke="#000000" stroke-width="0.7017334" fill="none" /><path id="342" transform="matrix(1 0 0 -1 0 612)" d="M240 498.7158L513.925 498.7158" stroke="#000000" stroke-width="0.7017334" fill="none" /><path id="422" transform="matrix(1 0 0 -1 0 612)" d="M240 481.8049L573.1508 481.8049" stroke="#000000" stroke-width="0.7017334" fill="none" /><path id="454" transform="matrix(1 0 0 -1 0 612)" d="M240 468.7158L398.9707 468.7158" stroke="#000000" stroke-width="0.7017334" fill="none" /><path id="542" transform="matrix(1 0 0 -1 0 612)" d="M240 452.2158L608.4235 452.2158" stroke="#000000" stroke-width="0.7017334" fill="none" /><path id="610" transform="matrix(1 0 0 -1 0 612)" d="M240 435.7158L480.3646 435.7158" stroke="#000000" stroke-width="0.7017334" fill="none" /><path id="640" transform="matrix(1 0 0 -1 0 612)" d="M240 419.2158L318.8964 419.2158" stroke="#000000" stroke-width="0.7017334" fill="none" /><path id="684" transform="matrix(1 0 0 -1 0 612)" d="M240 402.7158L383.8605 402.7158" stroke="#000000" stroke-width="0.7017334" fill="none" /><path id="779" transform="matrix(1 0 0 -1 0 612)" d="M240 385.8049L584.439 385.8049" stroke="#000000" stroke-width="0.7017334" fill="none" /><path id="797" transform="matrix(1 0 0 -1 0 612)" d="M240 372.7158L325.3572 372.7158" stroke="#000000" stroke-width="0.7017334" fill="none" /><path id="879" transform="matrix(1 0 0 -1 0 612)" d="M240 356.2158L581.1667 356.2158" stroke="#000000" stroke-width="0.7017334" fill="none" /><path id="968" transform="matrix(1 0 0 -1 0 612)" d="M240 339.7158L595.612 339.7158" stroke="#000000" stroke-width="0.7017334" fill="none" /><path id="1050" transform="matrix(1 0 0 -1 0 612)" d="M240 322.8049L570.7583 322.8049" stroke="#000000" stroke-width="0.7017334" fill="none" /><path id="1062" transform="matrix(1 0 0 -1 0 612)" d="M240 309.7158L284.3357 309.7158" stroke="#000000" stroke-width="0.7017334" fill="none" /><path id="1116" transform="matrix(1 0 0 -1 0 612)" d="M240 293.2158L440.6201 293.2158" stroke="#000000" stroke-width="0.7017334" fill="none" /><path id="1172" transform="matrix(1 0 0 -1 0 612)" d="M240 263.2158L366.0173 263.2158" stroke="#000000" stroke-width="0.7017334" fill="none" /><path id="1263" transform="matrix(1 0 0 -1 0 612)" d="M240 246.7158L592.0098 246.7158" stroke="#000000" stroke-width="0.7017334" fill="none" /><path id="1323" transform="matrix(1 0 0 -1 0 612)" d="M240 216.7158L401.3841 216.7158" stroke="#000000" stroke-width="0.7017334" fill="none" /><path id="1404" transform="matrix(1 0 0 -1 0 612)" d="M240 199.8049L587.6276 199.8049" stroke="#000000" stroke-width="0.7017334" fill="none" /><path id="1422" transform="matrix(1 0 0 -1 0 612)" d="M240 186.7158L325.8912 186.7158" stroke="#000000" stroke-width="0.7017334" fill="none" /><path id="1494" transform="matrix(1 0 0 -1 0 612)" d="M240 170.2158L515.6947 170.2158" stroke="#000000" stroke-width="0.7017334" fill="none" /><path id="1573" transform="matrix(1 0 0 -1 0 612)" d="M240 153.7158L552.6114 153.7158" stroke="#000000" stroke-width="0.7017334" fill="none" /><path id="1654" transform="matrix(1 0 0 -1 0 612)" d="M240 137.2158L522.4488 137.2158" stroke="#000000" stroke-width="0.7017334" fill="none" /><path id="1764" transform="matrix(1 0 0 -1 0 612)" d="M240 107.5549L592.2662 107.5549" stroke="#000000" stroke-width="0.7017334" fill="none" /><path id="1772" transform="matrix(1 0 0 -1 0 612)" d="M240 94.46582L271.6863 94.46582" stroke="#000000" stroke-width="0.7017334" fill="none" /><path id="1863" transform="matrix(1 0 0 -1 0 612)" d="M240 77.71985L595.1562 77.71985" stroke="#000000" stroke-width="0.7017334" fill="none" /><path id="1930" transform="matrix(1 0 0 -1 0 612)" d="M240 62.96582L568.6221 62.96582" stroke="#000000" stroke-width="0.7017334" fill="none" /><path id="1932" transform="matrix(1 0 0 -1 0 612)" d="M568.6221 63.04431L579.3447 63.04431" stroke="#000000" stroke-width="0.7855225" fill="none" /></g></g></g></svg>