<svg xmlns="http://www.w3.org/2000/svg" xmlns:xlink="http://www.w3.org/1999/xlink" id="body_12" preserveAspectRatio="xMinYMin meet" viewBox="0 0 1056 816"><defs><clipPath id="1"><path id="" clip-rule="evenodd" transform="matrix(1 0 0 1 0 0)" d="M0 612L0 0L0 0L792 0L792 0L792 612L792 612L0 612z" /></clipPath><clipPath id="2"><path id="" clip-rule="evenodd" transform="matrix(1 0 0 1 0 0)" d="M105.75 52.5L686.25 52.5L686.25 52.5L686.25 531.75L686.25 531.75L105.75 531.75L105.75 531.75L105.75 52.5z" /></clipPath></defs><g transform="matrix(1.333333 0 0 1.333333 0 0)"><g clip-path="url(#1)"><g clip-path="url(#2)"><path id="102" transform="matrix(1 0 0 -1 0 612)" d="M106.5 558.75L685.5 558.75L685.5 541.5L106.5 541.5L106.5 558.75z" stroke="none" fill="#E0F7FA" fill-rule="nonzero" /><path id="103" transform="matrix(1 0 0 -1 0 612)" d="M106.5 542.25L685.5 542.25L685.5 511.5L106.5 511.5L106.5 542.25z" stroke="none" fill="#FFFFFF" fill-rule="nonzero" /><path id="104" transform="matrix(1 0 0 -1 0 612)" d="M106.5 512.25L685.5 512.25L685.5 495L106.5 495L106.5 512.25z" stroke="none" fill="#E0F7FA" fill-rule="nonzero" /><path id="105" transform="matrix(1 0 0 -1 0 612)" d="M106.5 495.75L685.5 495.75L685.5 478.5L106.5 478.5L106.5 495.75z" stroke="none" fill="#FFFFFF" fill-rule="nonzero" /><path id="106" transform="matrix(1 0 0 -1 0 612)" d="M106.5 479.25L685.5 479.25L685.5 448.5L106.5 448.5L106.5 479.25z" stroke="none" fill="#E0F7FA" fill-rule="nonzero" /><path id="107" transform="matrix(1 0 0 -1 0 612)" d="M106.5 449.25L685.5 449.25L685.5 418.5L106.5 418.5L106.5 449.25z" stroke="none" fill="#FFFFFF" fill-rule="nonzero" /><path id="108" transform="matrix(1 0 0 -1 0 612)" d="M106.5 419.25L685.5 419.25L685.5 402L106.5 402L106.5 419.25z" stroke="none" fill="#E0F7FA" fill-rule="nonzero" /><path id="109" transform="matrix(1 0 0 -1 0 612)" d="M106.5 402.75L685.5 402.75L685.5 372L106.5 372L106.5 402.75z" stroke="none" fill="#FFFFFF" fill-rule="nonzero" /><path id="110" transform="matrix(1 0 0 -1 0 612)" d="M106.5 372.75L685.5 372.75L685.5 342L106.5 342L106.5 372.75z" stroke="none" fill="#E0F7FA" fill-rule="nonzero" /><path id="111" transform="matrix(1 0 0 -1 0 612)" d="M106.5 342.75L685.5 342.75L685.5 325.5L106.5 325.5L106.5 342.75z" stroke="none" fill="#FFFFFF" fill-rule="nonzero" /><path id="112" transform="matrix(1 0 0 -1 0 612)" d="M106.5 326.25L685.5 326.25L685.5 309L106.5 309L106.5 326.25z" stroke="none" fill="#E0F7FA" fill-rule="nonzero" /><path id="113" transform="matrix(1 0 0 -1 0 612)" d="M106.5 309.75L685.5 309.75L685.5 292.5L106.5 292.5L106.5 309.75z" stroke="none" fill="#FFFFFF" fill-rule="nonzero" /><path id="114" transform="matrix(1 0 0 -1 0 612)" d="M106.5 293.25L685.5 293.25L685.5 276L106.5 276L106.5 293.25z" stroke="none" fill="#E0F7FA" fill-rule="nonzero" /><path id="115" transform="matrix(1 0 0 -1 0 612)" d="M106.5 276.75L685.5 276.75L685.5 259.5L106.5 259.5L106.5 276.75z" stroke="none" fill="#FFFFFF" fill-rule="nonzero" /><path id="116" transform="matrix(1 0 0 -1 0 612)" d="M106.5 260.25L685.5 260.25L685.5 243L106.5 243L106.5 260.25z" stroke="none" fill="#E0F7FA" fill-rule="nonzero" /><path id="117" transform="matrix(1 0 0 -1 0 612)" d="M106.5 243.75L685.5 243.75L685.5 226.5L106.5 226.5L106.5 243.75z" stroke="none" fill="#FFFFFF" fill-rule="nonzero" /><path id="118" transform="matrix(1 0 0 -1 0 612)" d="M106.5 227.25L685.5 227.25L685.5 210L106.5 210L106.5 227.25z" stroke="none" fill="#E0F7FA" fill-rule="nonzero" /><path id="119" transform="matrix(1 0 0 -1 0 612)" d="M106.5 210.75L685.5 210.75L685.5 193.5L106.5 193.5L106.5 210.75z" stroke="none" fill="#FFFFFF" fill-rule="nonzero" /><path id="120" transform="matrix(1 0 0 -1 0 612)" d="M106.5 194.25L685.5 194.25L685.5 163.5L106.5 163.5L106.5 194.25z" stroke="none" fill="#E0F7FA" fill-rule="nonzero" /><path id="121" transform="matrix(1 0 0 -1 0 612)" d="M106.5 164.25L685.5 164.25L685.5 147L106.5 147L106.5 164.25z" stroke="none" fill="#FFFFFF" fill-rule="nonzero" /><path id="122" transform="matrix(1 0 0 -1 0 612)" d="M106.5 147.75L685.5 147.75L685.5 130.5L106.5 130.5L106.5 147.75z" stroke="none" fill="#E0F7FA" fill-rule="nonzero" /><path id="123" transform="matrix(1 0 0 -1 0 612)" d="M106.5 131.25L685.5 131.25L685.5 114L106.5 114L106.5 131.25z" stroke="none" fill="#FFFFFF" fill-rule="nonzero" /><path id="124" transform="matrix(1 0 0 -1 0 612)" d="M106.5 114.75L685.5 114.75L685.5 97.5L106.5 97.5L106.5 114.75z" stroke="none" fill="#E0F7FA" fill-rule="nonzero" /><path id="125" transform="matrix(1 0 0 -1 0 612)" d="M106.5 98.25L685.5 98.25L685.5 81L106.5 81L106.5 98.25z" stroke="none" fill="#FFFFFF" fill-rule="nonzero" /><path id="126" transform="matrix(1 0 0 -1 0 612)" d="M106.5 81.75L685.5 81.75L685.5 81L106.5 81zM106.5 98.25L685.5 98.25L685.5 97.5L106.5 97.5zM106.5 114.75L685.5 114.75L685.5 114L106.5 114zM106.5 131.25L685.5 131.25L685.5 130.5L106.5 130.5zM106.5 147.75L685.5 147.75L685.5 147L106.5 147zM106.5 164.25L685.5 164.25L685.5 163.5L106.5 163.5zM106.5 194.25L685.5 194.25L685.5 193.5L106.5 193.5zM106.5 210.75L685.5 210.75L685.5 210L106.5 210zM106.5 227.25L685.5 227.25L685.5 226.5L106.5 226.5zM106.5 243.75L685.5 243.75L685.5 243L106.5 243zM106.5 260.25L685.5 260.25L685.5 259.5L106.5 259.5zM106.5 276.75L685.5 276.75L685.5 276L106.5 276zM106.5 293.25L685.5 293.25L685.5 292.5L106.5 292.5zM106.5 309.75L685.5 309.75L685.5 309L106.5 309zM106.5 326.25L685.5 326.25L685.5 325.5L106.5 325.5zM106.5 342.75L685.5 342.75L685.5 342L106.5 342zM106.5 372.75L685.5 372.75L685.5 372L106.5 372zM106.5 402.75L685.5 402.75L685.5 402L106.5 402zM106.5 419.25L685.5 419.25L685.5 418.5L106.5 418.5zM106.5 449.25L685.5 449.25L685.5 448.5L106.5 448.5zM106.5 479.25L685.5 479.25L685.5 478.5L106.5 478.5zM106.5 495.75L685.5 495.75L685.5 495L106.5 495zM106.5 512.25L685.5 512.25L685.5 511.5L106.5 511.5zM106.5 542.25L685.5 542.25L685.5 541.5L106.5 541.5zM106.5 558.75L685.5 558.75L685.5 558L106.5 558zM685.5 97.5L685.5 81.75L684.75 81.75L684.75 97.5zM685.5 114L685.5 98.25L684.75 98.25L684.75 114zM685.5 130.5L685.5 114.75L684.75 114.75L684.75 130.5zM685.5 147L685.5 131.25L684.75 131.25L684.75 147zM685.5 163.5L685.5 147.75L684.75 147.75L684.75 163.5zM685.5 193.5L685.5 164.25L684.75 164.25L684.75 193.5zM685.5 210L685.5 194.25L684.75 194.25L684.75 210zM685.5 226.5L685.5 210.75L684.75 210.75L684.75 226.5zM685.5 243L685.5 227.25L684.75 227.25L684.75 243zM685.5 259.5L685.5 243.75L684.75 243.75L684.75 259.5zM685.5 276L685.5 260.25L684.75 260.25L684.75 276zM685.5 292.5L685.5 276.75L684.75 276.75L684.75 292.5zM685.5 309L685.5 293.25L684.75 293.25L684.75 309zM685.5 325.5L685.5 309.75L684.75 309.75L684.75 325.5zM685.5 342L685.5 326.25L684.75 326.25L684.75 342zM685.5 372L685.5 342.75L684.75 342.75L684.75 372zM685.5 402L685.5 372.75L684.75 372.75L684.75 402zM685.5 418.5L685.5 402.75L684.75 402.75L684.75 418.5zM685.5 448.5L685.5 419.25L684.75 419.25L684.75 448.5zM685.5 478.5L685.5 449.25L684.75 449.25L684.75 478.5zM685.5 495L685.5 479.25L684.75 479.25L684.75 495zM685.5 511.5L685.5 495.75L684.75 495.75L684.75 511.5zM685.5 541.5L685.5 512.25L684.75 512.25L684.75 541.5zM685.5 558L685.5 542.25L684.75 542.25L684.75 558zM615 97.5L615 81.75L614.25 81.75L614.25 97.5zM615 114L615 98.25L614.25 98.25L614.25 114zM615 130.5L615 114.75L614.25 114.75L614.25 130.5zM615 147L615 131.25L614.25 131.25L614.25 147zM615 163.5L615 147.75L614.25 147.75L614.25 163.5zM615 193.5L615 164.25L614.25 164.25L614.25 193.5zM615 210L615 194.25L614.25 194.25L614.25 210zM615 226.5L615 210.75L614.25 210.75L614.25 226.5zM615 243L615 227.25L614.25 227.25L614.25 243zM615 259.5L615 243.75L614.25 243.75L614.25 259.5zM615 276L615 260.25L614.25 260.25L614.25 276zM615 292.5L615 276.75L614.25 276.75L614.25 292.5zM615 309L615 293.25L614.25 293.25L614.25 309zM615 325.5L615 309.75L614.25 309.75L614.25 325.5zM615 342L615 326.25L614.25 326.25L614.25 342zM615 372L615 342.75L614.25 342.75L614.25 372zM615 402L615 372.75L614.25 372.75L614.25 402zM615 418.5L615 402.75L614.25 402.75L614.25 418.5zM615 448.5L615 419.25L614.25 419.25L614.25 448.5zM615 478.5L615 449.25L614.25 449.25L614.25 478.5zM615 495L615 479.25L614.25 479.25L614.25 495zM615 511.5L615 495.75L614.25 495.75L614.25 511.5zM615 541.5L615 512.25L614.25 512.25L614.25 541.5zM615 558L615 542.25L614.25 542.25L614.25 558zM237.75 97.5L237.75 81.75L237 81.75L237 97.5zM237.75 114L237.75 98.25L237 98.25L237 114zM237.75 130.5L237.75 114.75L237 114.75L237 130.5zM237.75 147L237.75 131.25L237 131.25L237 147zM237.75 163.5L237.75 147.75L237 147.75L237 163.5zM237.75 193.5L237.75 164.25L237 164.25L237 193.5zM237.75 210L237.75 194.25L237 194.25L237 210zM237.75 226.5L237.75 210.75L237 210.75L237 226.5zM237.75 243L237.75 227.25L237 227.25L237 243zM237.75 259.5L237.75 243.75L237 243.75L237 259.5zM237.75 276L237.75 260.25L237 260.25L237 276zM237.75 292.5L237.75 276.75L237 276.75L237 292.5zM237.75 309L237.75 293.25L237 293.25L237 309zM237.75 325.5L237.75 309.75L237 309.75L237 325.5zM237.75 342L237.75 326.25L237 326.25L237 342zM237.75 372L237.75 342.75L237 342.75L237 372zM237.75 402L237.75 372.75L237 372.75L237 402zM237.75 418.5L237.75 402.75L237 402.75L237 418.5zM237.75 448.5L237.75 419.25L237 419.25L237 448.5zM237.75 478.5L237.75 449.25L237 449.25L237 478.5zM237.75 495L237.75 479.25L237 479.25L237 495zM237.75 511.5L237.75 495.75L237 495.75L237 511.5zM237.75 541.5L237.75 512.25L237 512.25L237 541.5zM237.75 558L237.75 542.25L237 542.25L237 558zM141 97.5L141 81.75L140.25 81.75L140.25 97.5zM141 114L141 98.25L140.25 98.25L140.25 114zM141 130.5L141 114.75L140.25 114.75L140.25 130.5zM141 147L141 131.25L140.25 131.25L140.25 147zM141 163.5L141 147.75L140.25 147.75L140.25 163.5zM141 193.5L141 164.25L140.25 164.25L140.25 193.5zM141 210L141 194.25L140.25 194.25L140.25 210zM141 226.5L141 210.75L140.25 210.75L140.25 226.5zM141 243L141 227.25L140.25 227.25L140.25 243zM141 259.5L141 243.75L140.25 243.75L140.25 259.5zM141 276L141 260.25L140.25 260.25L140.25 276zM141 292.5L141 276.75L140.25 276.75L140.25 292.5zM141 309L141 293.25L140.25 293.25L140.25 309zM141 325.5L141 309.75L140.25 309.75L140.25 325.5zM141 342L141 326.25L140.25 326.25L140.25 342zM141 372L141 342.75L140.25 342.75L140.25 372zM141 402L141 372.75L140.25 372.75L140.25 402zM141 418.5L141 402.75L140.25 402.75L140.25 418.5zM141 448.5L141 419.25L140.25 419.25L140.25 448.5zM141 478.5L141 449.25L140.25 449.25L140.25 478.5zM141 495L141 479.25L140.25 479.25L140.25 495zM141 511.5L141 495.75L140.25 495.75L140.25 511.5zM141 541.5L141 512.25L140.25 512.25L140.25 541.5zM141 558L141 542.25L140.25 542.25L140.25 558zM107.25 97.5L107.25 81.75L106.5 81.75L106.5 97.5zM107.25 114L107.25 98.25L106.5 98.25L106.5 114zM107.25 130.5L107.25 114.75L106.5 114.75L106.5 130.5zM107.25 147L107.25 131.25L106.5 131.25L106.5 147zM107.25 163.5L107.25 147.75L106.5 147.75L106.5 163.5zM107.25 193.5L107.25 164.25L106.5 164.25L106.5 193.5zM107.25 210L107.25 194.25L106.5 194.25L106.5 210zM107.25 226.5L107.25 210.75L106.5 210.75L106.5 226.5zM107.25 243L107.25 227.25L106.5 227.25L106.5 243zM107.25 259.5L107.25 243.75L106.5 243.75L106.5 259.5zM107.25 276L107.25 260.25L106.5 260.25L106.5 276zM107.25 292.5L107.25 276.75L106.5 276.75L106.5 292.5zM107.25 309L107.25 293.25L106.5 293.25L106.5 309zM107.25 325.5L107.25 309.75L106.5 309.75L106.5 325.5zM107.25 342L107.25 326.25L106.5 326.25L106.5 342zM107.25 372L107.25 342.75L106.5 342.75L106.5 372zM107.25 402L107.25 372.75L106.5 372.75L106.5 402zM107.25 418.5L107.25 402.75L106.5 402.75L106.5 418.5zM107.25 448.5L107.25 419.25L106.5 419.25L106.5 448.5zM107.25 478.5L107.25 449.25L106.5 449.25L106.5 478.5zM107.25 495L107.25 479.25L106.5 479.25L106.5 495zM107.25 511.5L107.25 495.75L106.5 495.75L106.5 511.5zM107.25 541.5L107.25 512.25L106.5 512.25L106.5 541.5zM107.25 558L107.25 542.25L106.5 542.25L106.5 558z" stroke="none" fill="#000000" fill-rule="nonzero" fill-opacity="0.1490196" /><path id="150" transform="matrix(1 0 0 -1 0 612)" d="M240 545.2158L308.6501 545.2158" stroke="#000000" stroke-width="0.7017334" fill="none" /><path id="251" transform="matrix(1 0 0 -1 0 612)" d="M240 528.3047L597.3293 528.3047" stroke="#000000" stroke-width="0.7017334" fill="none" /><path id="275" transform="matrix(1 0 0 -1 0 612)" d="M240 515.2158L337.7238 515.2158" stroke="#000000" stroke-width="0.7017334" fill="none" /><path id="347" transform="matrix(1 0 0 -1 0 612)" d="M240 498.7158L507.8412 498.7158" stroke="#000000" stroke-width="0.7017334" fill="none" /><path id="395" transform="matrix(1 0 0 -1 0 612)" d="M240 482.2158L428.1125 482.2158" stroke="#000000" stroke-width="0.7017334" fill="none" /><path id="490" transform="matrix(1 0 0 -1 0 612)" d="M240 465.3047L604.5334 465.3047" stroke="#000000" stroke-width="0.7017334" fill="none" /><path id="502" transform="matrix(1 0 0 -1 0 612)" d="M240 452.2158L288.7283 452.2158" stroke="#000000" stroke-width="0.7017334" fill="none" /><path id="597" transform="matrix(1 0 0 -1 0 612)" d="M240 422.2158L550.3706 422.2158" stroke="#000000" stroke-width="0.7017334" fill="none" /><path id="679" transform="matrix(1 0 0 -1 0 612)" d="M240 405.7158L554.5956 405.7158" stroke="#000000" stroke-width="0.7017334" fill="none" /><path id="763" transform="matrix(1 0 0 -1 0 612)" d="M240 388.8047L582.3345 388.8047" stroke="#000000" stroke-width="0.7017334" fill="none" /><path id="773" transform="matrix(1 0 0 -1 0 612)" d="M240 375.7158L283.4246 375.7158" stroke="#000000" stroke-width="0.7017334" fill="none" /><path id="860" transform="matrix(1 0 0 -1 0 612)" d="M240 358.8047L599.6906 358.8047" stroke="#000000" stroke-width="0.7017334" fill="none" /><path id="886" transform="matrix(1 0 0 -1 0 612)" d="M240 345.7158L374.562 345.7158" stroke="#000000" stroke-width="0.7017334" fill="none" /><path id="940" transform="matrix(1 0 0 -1 0 612)" d="M240 329.2158L406.6252 329.2158" stroke="#000000" stroke-width="0.7017334" fill="none" /><path id="1003" transform="matrix(1 0 0 -1 0 612)" d="M240 312.7158L471.3853 312.7158" stroke="#000000" stroke-width="0.7017334" fill="none" /><path id="1046" transform="matrix(1 0 0 -1 0 612)" d="M240 296.2158L347.0851 296.2158" stroke="#000000" stroke-width="0.7017334" fill="none" /><path id="1126" transform="matrix(1 0 0 -1 0 612)" d="M240 279.7158L580.0779 279.7158" stroke="#000000" stroke-width="0.7017334" fill="none" /><path id="1183" transform="matrix(1 0 0 -1 0 612)" d="M240 263.2158L423.8505 263.2158" stroke="#000000" stroke-width="0.7017334" fill="none" /><path id="1252" transform="matrix(1 0 0 -1 0 612)" d="M240 246.7158L475.584 246.7158" stroke="#000000" stroke-width="0.7017334" fill="none" /><path id="1306" transform="matrix(1 0 0 -1 0 612)" d="M240 230.2158L399.4943 230.2158" stroke="#000000" stroke-width="0.7017334" fill="none" /><path id="1388" transform="matrix(1 0 0 -1 0 612)" d="M240 213.7158L570.5016 213.7158" stroke="#000000" stroke-width="0.7017334" fill="none" /><path id="1459" transform="matrix(1 0 0 -1 0 612)" d="M240 197.2158L501.1395 197.2158" stroke="#000000" stroke-width="0.7017334" fill="none" /><path id="1553" transform="matrix(1 0 0 -1 0 612)" d="M240 180.3047L596.9994 180.3047" stroke="#000000" stroke-width="0.7017334" fill="none" /><path id="1561" transform="matrix(1 0 0 -1 0 612)" d="M240 167.2158L269.9532 167.2158" stroke="#000000" stroke-width="0.7017334" fill="none" /><path id="1638" transform="matrix(1 0 0 -1 0 612)" d="M240 150.7158L538.1766 150.7158" stroke="#000000" stroke-width="0.7017334" fill="none" /><path id="1672" transform="matrix(1 0 0 -1 0 612)" d="M240 134.2158L336.7447 134.2158" stroke="#000000" stroke-width="0.7017334" fill="none" /><path id="1752" transform="matrix(1 0 0 -1 0 612)" d="M240 117.7158L552.5435 117.7158" stroke="#000000" stroke-width="0.7017334" fill="none" /><path id="1839" transform="matrix(1 0 0 -1 0 612)" d="M240 101.2158L603.2036 101.2158" stroke="#000000" stroke-width="0.7017334" fill="none" /><path id="1897" transform="matrix(1 0 0 -1 0 612)" d="M240 84.71582L438.5471 84.71582" stroke="#000000" stroke-width="0.7017334" fill="none" /></g></g></g></svg>