<svg xmlns="http://www.w3.org/2000/svg" xmlns:xlink="http://www.w3.org/1999/xlink" id="body_14" preserveAspectRatio="xMinYMin meet" viewBox="0 0 1056 816"><defs><clipPath id="1"><path id="" clip-rule="evenodd" transform="matrix(1 0 0 1 0 0)" d="M0 612L0 0L0 0L792 0L792 0L792 612L792 612L0 612z" /></clipPath><clipPath id="2"><path id="" clip-rule="evenodd" transform="matrix(1 0 0 1 0 0)" d="M105.75 52.5L686.25 52.5L686.25 52.5L686.25 542.25L686.25 542.25L105.75 542.25L105.75 542.25L105.75 52.5z" /></clipPath></defs><g transform="matrix(1.333333 0 0 1.333333 0 0)"><g clip-path="url(#1)"><g clip-path="url(#2)"><path id="102" transform="matrix(1 0 0 -1 0 612)" d="M106.5 558.75L685.5 558.75L685.5 541.5L106.5 541.5L106.5 558.75z" stroke="none" fill="#FFFFFF" fill-rule="nonzero" /><path id="103" transform="matrix(1 0 0 -1 0 612)" d="M106.5 542.25L685.5 542.25L685.5 525L106.5 525L106.5 542.25z" stroke="none" fill="#E0F7FA" fill-rule="nonzero" /><path id="104" transform="matrix(1 0 0 -1 0 612)" d="M106.5 525.75L685.5 525.75L685.5 508.5L106.5 508.5L106.5 525.75z" stroke="none" fill="#FFFFFF" fill-rule="nonzero" /><path id="105" transform="matrix(1 0 0 -1 0 612)" d="M106.5 509.25L685.5 509.25L685.5 492L106.5 492L106.5 509.25z" stroke="none" fill="#E0F7FA" fill-rule="nonzero" /><path id="106" transform="matrix(1 0 0 -1 0 612)" d="M106.5 492.75L685.5 492.75L685.5 462L106.5 462L106.5 492.75z" stroke="none" fill="#FFFFFF" fill-rule="nonzero" /><path id="107" transform="matrix(1 0 0 -1 0 612)" d="M106.5 462.75L685.5 462.75L685.5 432L106.5 432L106.5 462.75z" stroke="none" fill="#E0F7FA" fill-rule="nonzero" /><path id="108" transform="matrix(1 0 0 -1 0 612)" d="M106.5 432.75L685.5 432.75L685.5 402L106.5 402L106.5 432.75z" stroke="none" fill="#FFFFFF" fill-rule="nonzero" /><path id="109" transform="matrix(1 0 0 -1 0 612)" d="M106.5 402.75L685.5 402.75L685.5 385.5L106.5 385.5L106.5 402.75z" stroke="none" fill="#E0F7FA" fill-rule="nonzero" /><path id="110" transform="matrix(1 0 0 -1 0 612)" d="M106.5 386.25L685.5 386.25L685.5 355.5L106.5 355.5L106.5 386.25z" stroke="none" fill="#FFFFFF" fill-rule="nonzero" /><path id="111" transform="matrix(1 0 0 -1 0 612)" d="M106.5 356.25L685.5 356.25L685.5 325.5L106.5 325.5L106.5 356.25z" stroke="none" fill="#E0F7FA" fill-rule="nonzero" /><path id="112" transform="matrix(1 0 0 -1 0 612)" d="M106.5 326.25L685.5 326.25L685.5 309L106.5 309L106.5 326.25z" stroke="none" fill="#FFFFFF" fill-rule="nonzero" /><path id="113" transform="matrix(1 0 0 -1 0 612)" d="M106.5 309.75L685.5 309.75L685.5 292.5L106.5 292.5L106.5 309.75z" stroke="none" fill="#E0F7FA" fill-rule="nonzero" /><path id="114" transform="matrix(1 0 0 -1 0 612)" d="M106.5 293.25L685.5 293.25L685.5 276L106.5 276L106.5 293.25z" stroke="none" fill="#FFFFFF" fill-rule="nonzero" /><path id="115" transform="matrix(1 0 0 -1 0 612)" d="M106.5 276.75L685.5 276.75L685.5 246L106.5 246L106.5 276.75z" stroke="none" fill="#E0F7FA" fill-rule="nonzero" /><path id="116" transform="matrix(1 0 0 -1 0 612)" d="M106.5 246.75L685.5 246.75L685.5 229.5L106.5 229.5L106.5 246.75z" stroke="none" fill="#FFFFFF" fill-rule="nonzero" /><path id="117" transform="matrix(1 0 0 -1 0 612)" d="M106.5 230.25L685.5 230.25L685.5 199.5L106.5 199.5L106.5 230.25z" stroke="none" fill="#E0F7FA" fill-rule="nonzero" /><path id="118" transform="matrix(1 0 0 -1 0 612)" d="M106.5 200.25L685.5 200.25L685.5 183L106.5 183L106.5 200.25z" stroke="none" fill="#FFFFFF" fill-rule="nonzero" /><path id="119" transform="matrix(1 0 0 -1 0 612)" d="M106.5 183.75L685.5 183.75L685.5 166.5L106.5 166.5L106.5 183.75z" stroke="none" fill="#E0F7FA" fill-rule="nonzero" /><path id="120" transform="matrix(1 0 0 -1 0 612)" d="M106.5 167.25L685.5 167.25L685.5 150L106.5 150L106.5 167.25z" stroke="none" fill="#FFFFFF" fill-rule="nonzero" /><path id="121" transform="matrix(1 0 0 -1 0 612)" d="M106.5 150.75L685.5 150.75L685.5 133.5L106.5 133.5L106.5 150.75z" stroke="none" fill="#E0F7FA" fill-rule="nonzero" /><path id="122" transform="matrix(1 0 0 -1 0 612)" d="M106.5 134.25L685.5 134.25L685.5 117L106.5 117L106.5 134.25z" stroke="none" fill="#FFFFFF" fill-rule="nonzero" /><path id="123" transform="matrix(1 0 0 -1 0 612)" d="M106.5 117.75L685.5 117.75L685.5 87L106.5 87L106.5 117.75z" stroke="none" fill="#E0F7FA" fill-rule="nonzero" /><path id="124" transform="matrix(1 0 0 -1 0 612)" d="M106.5 87.75L685.5 87.75L685.5 70.5L106.5 70.5L106.5 87.75z" stroke="none" fill="#FFFFFF" fill-rule="nonzero" /><path id="125" transform="matrix(1 0 0 -1 0 612)" d="M106.5 71.25L685.5 71.25L685.5 70.5L106.5 70.5zM106.5 87.75L685.5 87.75L685.5 87L106.5 87zM106.5 117.75L685.5 117.75L685.5 117L106.5 117zM106.5 134.25L685.5 134.25L685.5 133.5L106.5 133.5zM106.5 150.75L685.5 150.75L685.5 150L106.5 150zM106.5 167.25L685.5 167.25L685.5 166.5L106.5 166.5zM106.5 183.75L685.5 183.75L685.5 183L106.5 183zM106.5 200.25L685.5 200.25L685.5 199.5L106.5 199.5zM106.5 230.25L685.5 230.25L685.5 229.5L106.5 229.5zM106.5 246.75L685.5 246.75L685.5 246L106.5 246zM106.5 276.75L685.5 276.75L685.5 276L106.5 276zM106.5 293.25L685.5 293.25L685.5 292.5L106.5 292.5zM106.5 309.75L685.5 309.75L685.5 309L106.5 309zM106.5 326.25L685.5 326.25L685.5 325.5L106.5 325.5zM106.5 356.25L685.5 356.25L685.5 355.5L106.5 355.5zM106.5 386.25L685.5 386.25L685.5 385.5L106.5 385.5zM106.5 402.75L685.5 402.75L685.5 402L106.5 402zM106.5 432.75L685.5 432.75L685.5 432L106.5 432zM106.5 462.75L685.5 462.75L685.5 462L106.5 462zM106.5 492.75L685.5 492.75L685.5 492L106.5 492zM106.5 509.25L685.5 509.25L685.5 508.5L106.5 508.5zM106.5 525.75L685.5 525.75L685.5 525L106.5 525zM106.5 542.25L685.5 542.25L685.5 541.5L106.5 541.5zM106.5 558.75L685.5 558.75L685.5 558L106.5 558zM685.5 87L685.5 71.25L684.75 71.25L684.75 87zM685.5 117L685.5 87.75L684.75 87.75L684.75 117zM685.5 133.5L685.5 117.75L684.75 117.75L684.75 133.5zM685.5 150L685.5 134.25L684.75 134.25L684.75 150zM685.5 166.5L685.5 150.75L684.75 150.75L684.75 166.5zM685.5 183L685.5 167.25L684.75 167.25L684.75 183zM685.5 199.5L685.5 183.75L684.75 183.75L684.75 199.5zM685.5 229.5L685.5 200.25L684.75 200.25L684.75 229.5zM685.5 246L685.5 230.25L684.75 230.25L684.75 246zM685.5 276L685.5 246.75L684.75 246.75L684.75 276zM685.5 292.5L685.5 276.75L684.75 276.75L684.75 292.5zM685.5 309L685.5 293.25L684.75 293.25L684.75 309zM685.5 325.5L685.5 309.75L684.75 309.75L684.75 325.5zM685.5 355.5L685.5 326.25L684.75 326.25L684.75 355.5zM685.5 385.5L685.5 356.25L684.75 356.25L684.75 385.5zM685.5 402L685.5 386.25L684.75 386.25L684.75 402zM685.5 432L685.5 402.75L684.75 402.75L684.75 432zM685.5 462L685.5 432.75L684.75 432.75L684.75 462zM685.5 492L685.5 462.75L684.75 462.75L684.75 492zM685.5 508.5L685.5 492.75L684.75 492.75L684.75 508.5zM685.5 525L685.5 509.25L684.75 509.25L684.75 525zM685.5 541.5L685.5 525.75L684.75 525.75L684.75 541.5zM685.5 558L685.5 542.25L684.75 542.25L684.75 558zM615 87L615 71.25L614.25 71.25L614.25 87zM615 117L615 87.75L614.25 87.75L614.25 117zM615 133.5L615 117.75L614.25 117.75L614.25 133.5zM615 150L615 134.25L614.25 134.25L614.25 150zM615 166.5L615 150.75L614.25 150.75L614.25 166.5zM615 183L615 167.25L614.25 167.25L614.25 183zM615 199.5L615 183.75L614.25 183.75L614.25 199.5zM615 229.5L615 200.25L614.25 200.25L614.25 229.5zM615 246L615 230.25L614.25 230.25L614.25 246zM615 276L615 246.75L614.25 246.75L614.25 276zM615 292.5L615 276.75L614.25 276.75L614.25 292.5zM615 309L615 293.25L614.25 293.25L614.25 309zM615 325.5L615 309.75L614.25 309.75L614.25 325.5zM615 355.5L615 326.25L614.25 326.25L614.25 355.5zM615 385.5L615 356.25L614.25 356.25L614.25 385.5zM615 402L615 386.25L614.25 386.25L614.25 402zM615 432L615 402.75L614.25 402.75L614.25 432zM615 462L615 432.75L614.25 432.75L614.25 462zM615 492L615 462.75L614.25 462.75L614.25 492zM615 508.5L615 492.75L614.25 492.75L614.25 508.5zM615 525L615 509.25L614.25 509.25L614.25 525zM615 541.5L615 525.75L614.25 525.75L614.25 541.5zM615 558L615 542.25L614.25 542.25L614.25 558zM237.75 87L237.75 71.25L237 71.25L237 87zM237.75 117L237.75 87.75L237 87.75L237 117zM237.75 133.5L237.75 117.75L237 117.75L237 133.5zM237.75 150L237.75 134.25L237 134.25L237 150zM237.75 166.5L237.75 150.75L237 150.75L237 166.5zM237.75 183L237.75 167.25L237 167.25L237 183zM237.75 199.5L237.75 183.75L237 183.75L237 199.5zM237.75 229.5L237.75 200.25L237 200.25L237 229.5zM237.75 246L237.75 230.25L237 230.25L237 246zM237.75 276L237.75 246.75L237 246.75L237 276zM237.75 292.5L237.75 276.75L237 276.75L237 292.5zM237.75 309L237.75 293.25L237 293.25L237 309zM237.75 325.5L237.75 309.75L237 309.75L237 325.5zM237.75 355.5L237.75 326.25L237 326.25L237 355.5zM237.75 385.5L237.75 356.25L237 356.25L237 385.5zM237.75 402L237.75 386.25L237 386.25L237 402zM237.75 432L237.75 402.75L237 402.75L237 432zM237.75 462L237.75 432.75L237 432.75L237 462zM237.75 492L237.75 462.75L237 462.75L237 492zM237.75 508.5L237.75 492.75L237 492.75L237 508.5zM237.75 525L237.75 509.25L237 509.25L237 525zM237.75 541.5L237.75 525.75L237 525.75L237 541.5zM237.75 558L237.75 542.25L237 542.25L237 558zM141 87L141 71.25L140.25 71.25L140.25 87zM141 117L141 87.75L140.25 87.75L140.25 117zM141 133.5L141 117.75L140.25 117.75L140.25 133.5zM141 150L141 134.25L140.25 134.25L140.25 150zM141 166.5L141 150.75L140.25 150.75L140.25 166.5zM141 183L141 167.25L140.25 167.25L140.25 183zM141 199.5L141 183.75L140.25 183.75L140.25 199.5zM141 229.5L141 200.25L140.25 200.25L140.25 229.5zM141 246L141 230.25L140.25 230.25L140.25 246zM141 276L141 246.75L140.25 246.75L140.25 276zM141 292.5L141 276.75L140.25 276.75L140.25 292.5zM141 309L141 293.25L140.25 293.25L140.25 309zM141 325.5L141 309.75L140.25 309.75L140.25 325.5zM141 355.5L141 326.25L140.25 326.25L140.25 355.5zM141 385.5L141 356.25L140.25 356.25L140.25 385.5zM141 402L141 386.25L140.25 386.25L140.25 402zM141 432L141 402.75L140.25 402.75L140.25 432zM141 462L141 432.75L140.25 432.75L140.25 462zM141 492L141 462.75L140.25 462.75L140.25 492zM141 508.5L141 492.75L140.25 492.75L140.25 508.5zM141 525L141 509.25L140.25 509.25L140.25 525zM141 541.5L141 525.75L140.25 525.75L140.25 541.5zM141 558L141 542.25L140.25 542.25L140.25 558zM107.25 87L107.25 71.25L106.5 71.25L106.5 87zM107.25 117L107.25 87.75L106.5 87.75L106.5 117zM107.25 133.5L107.25 117.75L106.5 117.75L106.5 133.5zM107.25 150L107.25 134.25L106.5 134.25L106.5 150zM107.25 166.5L107.25 150.75L106.5 150.75L106.5 166.5zM107.25 183L107.25 167.25L106.5 167.25L106.5 183zM107.25 199.5L107.25 183.75L106.5 183.75L106.5 199.5zM107.25 229.5L107.25 200.25L106.5 200.25L106.5 229.5zM107.25 246L107.25 230.25L106.5 230.25L106.5 246zM107.25 276L107.25 246.75L106.5 246.75L106.5 276zM107.25 292.5L107.25 276.75L106.5 276.75L106.5 292.5zM107.25 309L107.25 293.25L106.5 293.25L106.5 309zM107.25 325.5L107.25 309.75L106.5 309.75L106.5 325.5zM107.25 355.5L107.25 326.25L106.5 326.25L106.5 355.5zM107.25 385.5L107.25 356.25L106.5 356.25L106.5 385.5zM107.25 402L107.25 386.25L106.5 386.25L106.5 402zM107.25 432L107.25 402.75L106.5 402.75L106.5 432zM107.25 462L107.25 432.75L106.5 432.75L106.5 462zM107.25 492L107.25 462.75L106.5 462.75L106.5 492zM107.25 508.5L107.25 492.75L106.5 492.75L106.5 508.5zM107.25 525L107.25 509.25L106.5 509.25L106.5 525zM107.25 541.5L107.25 525.75L106.5 525.75L106.5 541.5zM107.25 558L107.25 542.25L106.5 542.25L106.5 558z" stroke="none" fill="#000000" fill-rule="nonzero" fill-opacity="0.1490196" /><path id="197" transform="matrix(1 0 0 -1 0 612)" d="M240 545.2158L552.7058 545.2158" stroke="#000000" stroke-width="0.7017334" fill="none" /><path id="285" transform="matrix(1 0 0 -1 0 612)" d="M240 528.7158L606.6174 528.7158" stroke="#000000" stroke-width="0.7017334" fill="none" /><path id="368" transform="matrix(1 0 0 -1 0 612)" d="M240 512.2158L582.2559 512.2158" stroke="#000000" stroke-width="0.7017334" fill="none" /><path id="449" transform="matrix(1 0 0 -1 0 612)" d="M240 495.7158L556.4492 495.7158" stroke="#000000" stroke-width="0.7017334" fill="none" /><path id="534" transform="matrix(1 0 0 -1 0 612)" d="M240 465.7158L507.8411 465.7158" stroke="#000000" stroke-width="0.7017334" fill="none" /><path id="614" transform="matrix(1 0 0 -1 0 612)" d="M240 448.8047L554.5694 448.8047" stroke="#000000" stroke-width="0.7017334" fill="none" /><path id="632" transform="matrix(1 0 0 -1 0 612)" d="M240 435.7158L316.158 435.7158" stroke="#000000" stroke-width="0.7017334" fill="none" /><path id="719" transform="matrix(1 0 0 -1 0 612)" d="M240 418.8047L596.4551 418.8047" stroke="#000000" stroke-width="0.7017334" fill="none" /><path id="729" transform="matrix(1 0 0 -1 0 612)" d="M240 405.7158L286.7598 405.7158" stroke="#000000" stroke-width="0.7017334" fill="none" /><path id="769" transform="matrix(1 0 0 -1 0 612)" d="M240 389.2158L354.6088 389.2158" stroke="#000000" stroke-width="0.7017334" fill="none" /><path id="857" transform="matrix(1 0 0 -1 0 612)" d="M240 372.3047L594.057 372.3047" stroke="#000000" stroke-width="0.7017334" fill="none" /><path id="892" transform="matrix(1 0 0 -1 0 612)" d="M240 359.2158L413.0337 359.2158" stroke="#000000" stroke-width="0.7017334" fill="none" /><path id="964" transform="matrix(1 0 0 -1 0 612)" d="M240 329.2158L468.5579 329.2158" stroke="#000000" stroke-width="0.7017334" fill="none" /><path id="1024" transform="matrix(1 0 0 -1 0 612)" d="M240 312.7158L460.0605 312.7158" stroke="#000000" stroke-width="0.7017334" fill="none" /><path id="1096" transform="matrix(1 0 0 -1 0 612)" d="M240 296.2158L505.6423 296.2158" stroke="#000000" stroke-width="0.7017334" fill="none" /><path id="1134" transform="matrix(1 0 0 -1 0 612)" d="M240 279.7158L353.7711 279.7158" stroke="#000000" stroke-width="0.7017334" fill="none" /><path id="1190" transform="matrix(1 0 0 -1 0 612)" d="M240 249.7158L355.7502 249.7158" stroke="#000000" stroke-width="0.7017334" fill="none" /><path id="1261" transform="matrix(1 0 0 -1 0 612)" d="M240 233.2158L502.2967 233.2158" stroke="#000000" stroke-width="0.7017334" fill="none" /><path id="1345" transform="matrix(1 0 0 -1 0 612)" d="M240 216.3047L559.3236 216.3047" stroke="#000000" stroke-width="0.7017334" fill="none" /><path id="1369" transform="matrix(1 0 0 -1 0 612)" d="M240 203.2158L338.1321 203.2158" stroke="#000000" stroke-width="0.7017334" fill="none" /><path id="1417" transform="matrix(1 0 0 -1 0 612)" d="M240 186.7158L409.1174 186.7158" stroke="#000000" stroke-width="0.7017334" fill="none" /><path id="1472" transform="matrix(1 0 0 -1 0 612)" d="M240 170.2158L425.9815 170.2158" stroke="#000000" stroke-width="0.7017334" fill="none" /><path id="1511" transform="matrix(1 0 0 -1 0 612)" d="M240 153.7158L345.2318 153.7158" stroke="#000000" stroke-width="0.7017334" fill="none" /><path id="1561" transform="matrix(1 0 0 -1 0 612)" d="M240 137.2158L411.5676 137.2158" stroke="#000000" stroke-width="0.7017334" fill="none" /><path id="1632" transform="matrix(1 0 0 -1 0 612)" d="M240 120.7158L500.4797 120.7158" stroke="#000000" stroke-width="0.7017334" fill="none" /><path id="1712" transform="matrix(1 0 0 -1 0 612)" d="M240 103.8047L572.3341 103.8047" stroke="#000000" stroke-width="0.7017334" fill="none" /><path id="1740" transform="matrix(1 0 0 -1 0 612)" d="M240 90.71582L383.625 90.71582" stroke="#000000" stroke-width="0.7017334" fill="none" /><path id="1791" transform="matrix(1 0 0 -1 0 612)" d="M240 74.21582L410.4104 74.21582" stroke="#000000" stroke-width="0.7017334" fill="none" /></g></g></g></svg>