<svg xmlns="http://www.w3.org/2000/svg" xmlns:xlink="http://www.w3.org/1999/xlink" id="body_17" preserveAspectRatio="xMinYMin meet" viewBox="0 0 1056 816"><defs><clipPath id="1"><path id="" clip-rule="evenodd" transform="matrix(1 0 0 1 0 0)" d="M0 612L0 0L0 0L792 0L792 0L792 612L792 612L0 612z" /></clipPath><clipPath id="2"><path id="" clip-rule="evenodd" transform="matrix(1 0 0 1 0 0)" d="M105.75 52.5L686.25 52.5L686.25 52.5L686.25 548.25L686.25 548.25L105.75 548.25L105.75 548.25L105.75 52.5z" /></clipPath></defs><g transform="matrix(1.333333 0 0 1.333333 0 0)"><g clip-path="url(#1)"><g clip-path="url(#2)"><path id="102" transform="matrix(1 0 0 -1 0 612)" d="M106.5 558.75L685.5 558.75L685.5 541.5L106.5 541.5L106.5 558.75z" stroke="none" fill="#E0F7FA" fill-rule="nonzero" /><path id="103" transform="matrix(1 0 0 -1 0 612)" d="M106.5 542.25L685.5 542.25L685.5 525L106.5 525L106.5 542.25z" stroke="none" fill="#FFFFFF" fill-rule="nonzero" /><path id="104" transform="matrix(1 0 0 -1 0 612)" d="M106.5 525.75L685.5 525.75L685.5 508.5L106.5 508.5L106.5 525.75z" stroke="none" fill="#E0F7FA" fill-rule="nonzero" /><path id="105" transform="matrix(1 0 0 -1 0 612)" d="M106.5 509.25L685.5 509.25L685.5 478.5L106.5 478.5L106.5 509.25z" stroke="none" fill="#FFFFFF" fill-rule="nonzero" /><path id="106" transform="matrix(1 0 0 -1 0 612)" d="M106.5 479.25L685.5 479.25L685.5 462L106.5 462L106.5 479.25z" stroke="none" fill="#E0F7FA" fill-rule="nonzero" /><path id="107" transform="matrix(1 0 0 -1 0 612)" d="M106.5 462.75L685.5 462.75L685.5 445.5L106.5 445.5L106.5 462.75z" stroke="none" fill="#FFFFFF" fill-rule="nonzero" /><path id="108" transform="matrix(1 0 0 -1 0 612)" d="M106.5 446.25L685.5 446.25L685.5 429L106.5 429L106.5 446.25z" stroke="none" fill="#E0F7FA" fill-rule="nonzero" /><path id="109" transform="matrix(1 0 0 -1 0 612)" d="M106.5 429.75L685.5 429.75L685.5 412.5L106.5 412.5L106.5 429.75z" stroke="none" fill="#FFFFFF" fill-rule="nonzero" /><path id="110" transform="matrix(1 0 0 -1 0 612)" d="M106.5 413.25L685.5 413.25L685.5 396L106.5 396L106.5 413.25z" stroke="none" fill="#E0F7FA" fill-rule="nonzero" /><path id="111" transform="matrix(1 0 0 -1 0 612)" d="M106.5 396.75L685.5 396.75L685.5 366L106.5 366L106.5 396.75z" stroke="none" fill="#FFFFFF" fill-rule="nonzero" /><path id="112" transform="matrix(1 0 0 -1 0 612)" d="M106.5 366.75L685.5 366.75L685.5 349.5L106.5 349.5L106.5 366.75z" stroke="none" fill="#E0F7FA" fill-rule="nonzero" /><path id="113" transform="matrix(1 0 0 -1 0 612)" d="M106.5 350.25L685.5 350.25L685.5 319.5L106.5 319.5L106.5 350.25z" stroke="none" fill="#FFFFFF" fill-rule="nonzero" /><path id="114" transform="matrix(1 0 0 -1 0 612)" d="M106.5 320.25L685.5 320.25L685.5 303L106.5 303L106.5 320.25z" stroke="none" fill="#E0F7FA" fill-rule="nonzero" /><path id="115" transform="matrix(1 0 0 -1 0 612)" d="M106.5 303.75L685.5 303.75L685.5 286.5L106.5 286.5L106.5 303.75z" stroke="none" fill="#FFFFFF" fill-rule="nonzero" /><path id="116" transform="matrix(1 0 0 -1 0 612)" d="M106.5 287.25L685.5 287.25L685.5 256.5L106.5 256.5L106.5 287.25z" stroke="none" fill="#E0F7FA" fill-rule="nonzero" /><path id="117" transform="matrix(1 0 0 -1 0 612)" d="M106.5 257.25L685.5 257.25L685.5 240L106.5 240L106.5 257.25z" stroke="none" fill="#FFFFFF" fill-rule="nonzero" /><path id="118" transform="matrix(1 0 0 -1 0 612)" d="M106.5 240.75L685.5 240.75L685.5 223.5L106.5 223.5L106.5 240.75z" stroke="none" fill="#E0F7FA" fill-rule="nonzero" /><path id="119" transform="matrix(1 0 0 -1 0 612)" d="M106.5 224.25L685.5 224.25L685.5 207L106.5 207L106.5 224.25z" stroke="none" fill="#FFFFFF" fill-rule="nonzero" /><path id="120" transform="matrix(1 0 0 -1 0 612)" d="M106.5 207.75L685.5 207.75L685.5 177L106.5 177L106.5 207.75z" stroke="none" fill="#E0F7FA" fill-rule="nonzero" /><path id="121" transform="matrix(1 0 0 -1 0 612)" d="M106.5 177.75L685.5 177.75L685.5 160.5L106.5 160.5L106.5 177.75z" stroke="none" fill="#FFFFFF" fill-rule="nonzero" /><path id="122" transform="matrix(1 0 0 -1 0 612)" d="M106.5 161.25L685.5 161.25L685.5 144L106.5 144L106.5 161.25z" stroke="none" fill="#E0F7FA" fill-rule="nonzero" /><path id="123" transform="matrix(1 0 0 -1 0 612)" d="M106.5 144.75L685.5 144.75L685.5 127.5L106.5 127.5L106.5 144.75z" stroke="none" fill="#FFFFFF" fill-rule="nonzero" /><path id="124" transform="matrix(1 0 0 -1 0 612)" d="M106.5 128.25L685.5 128.25L685.5 111L106.5 111L106.5 128.25z" stroke="none" fill="#E0F7FA" fill-rule="nonzero" /><path id="125" transform="matrix(1 0 0 -1 0 612)" d="M106.5 111.75L685.5 111.75L685.5 81L106.5 81L106.5 111.75z" stroke="none" fill="#FFFFFF" fill-rule="nonzero" /><path id="126" transform="matrix(1 0 0 -1 0 612)" d="M106.5 81.75L685.5 81.75L685.5 64.5L106.5 64.5L106.5 81.75z" stroke="none" fill="#E0F7FA" fill-rule="nonzero" /><path id="127" transform="matrix(1 0 0 -1 0 612)" d="M106.5 65.25L685.5 65.25L685.5 64.5L106.5 64.5zM106.5 81.75L685.5 81.75L685.5 81L106.5 81zM106.5 111.75L685.5 111.75L685.5 111L106.5 111zM106.5 128.25L685.5 128.25L685.5 127.5L106.5 127.5zM106.5 144.75L685.5 144.75L685.5 144L106.5 144zM106.5 161.25L685.5 161.25L685.5 160.5L106.5 160.5zM106.5 177.75L685.5 177.75L685.5 177L106.5 177zM106.5 207.75L685.5 207.75L685.5 207L106.5 207zM106.5 224.25L685.5 224.25L685.5 223.5L106.5 223.5zM106.5 240.75L685.5 240.75L685.5 240L106.5 240zM106.5 257.25L685.5 257.25L685.5 256.5L106.5 256.5zM106.5 287.25L685.5 287.25L685.5 286.5L106.5 286.5zM106.5 303.75L685.5 303.75L685.5 303L106.5 303zM106.5 320.25L685.5 320.25L685.5 319.5L106.5 319.5zM106.5 350.25L685.5 350.25L685.5 349.5L106.5 349.5zM106.5 366.75L685.5 366.75L685.5 366L106.5 366zM106.5 396.75L685.5 396.75L685.5 396L106.5 396zM106.5 413.25L685.5 413.25L685.5 412.5L106.5 412.5zM106.5 429.75L685.5 429.75L685.5 429L106.5 429zM106.5 446.25L685.5 446.25L685.5 445.5L106.5 445.5zM106.5 462.75L685.5 462.75L685.5 462L106.5 462zM106.5 479.25L685.5 479.25L685.5 478.5L106.5 478.5zM106.5 509.25L685.5 509.25L685.5 508.5L106.5 508.5zM106.5 525.75L685.5 525.75L685.5 525L106.5 525zM106.5 542.25L685.5 542.25L685.5 541.5L106.5 541.5zM106.5 558.75L685.5 558.75L685.5 558L106.5 558zM685.5 81L685.5 65.25L684.75 65.25L684.75 81zM685.5 111L685.5 81.75L684.75 81.75L684.75 111zM685.5 127.5L685.5 111.75L684.75 111.75L684.75 127.5zM685.5 144L685.5 128.25L684.75 128.25L684.75 144zM685.5 160.5L685.5 144.75L684.75 144.75L684.75 160.5zM685.5 177L685.5 161.25L684.75 161.25L684.75 177zM685.5 207L685.5 177.75L684.75 177.75L684.75 207zM685.5 223.5L685.5 207.75L684.75 207.75L684.75 223.5zM685.5 240L685.5 224.25L684.75 224.25L684.75 240zM685.5 256.5L685.5 240.75L684.75 240.75L684.75 256.5zM685.5 286.5L685.5 257.25L684.75 257.25L684.75 286.5zM685.5 303L685.5 287.25L684.75 287.25L684.75 303zM685.5 319.5L685.5 303.75L684.75 303.75L684.75 319.5zM685.5 349.5L685.5 320.25L684.75 320.25L684.75 349.5zM685.5 366L685.5 350.25L684.75 350.25L684.75 366zM685.5 396L685.5 366.75L684.75 366.75L684.75 396zM685.5 412.5L685.5 396.75L684.75 396.75L684.75 412.5zM685.5 429L685.5 413.25L684.75 413.25L684.75 429zM685.5 445.5L685.5 429.75L684.75 429.75L684.75 445.5zM685.5 462L685.5 446.25L684.75 446.25L684.75 462zM685.5 478.5L685.5 462.75L684.75 462.75L684.75 478.5zM685.5 508.5L685.5 479.25L684.75 479.25L684.75 508.5zM685.5 525L685.5 509.25L684.75 509.25L684.75 525zM685.5 541.5L685.5 525.75L684.75 525.75L684.75 541.5zM685.5 558L685.5 542.25L684.75 542.25L684.75 558zM615 81L615 65.25L614.25 65.25L614.25 81zM615 111L615 81.75L614.25 81.75L614.25 111zM615 127.5L615 111.75L614.25 111.75L614.25 127.5zM615 144L615 128.25L614.25 128.25L614.25 144zM615 160.5L615 144.75L614.25 144.75L614.25 160.5zM615 177L615 161.25L614.25 161.25L614.25 177zM615 207L615 177.75L614.25 177.75L614.25 207zM615 223.5L615 207.75L614.25 207.75L614.25 223.5zM615 240L615 224.25L614.25 224.25L614.25 240zM615 256.5L615 240.75L614.25 240.75L614.25 256.5zM615 286.5L615 257.25L614.25 257.25L614.25 286.5zM615 303L615 287.25L614.25 287.25L614.25 303zM615 319.5L615 303.75L614.25 303.75L614.25 319.5zM615 349.5L615 320.25L614.25 320.25L614.25 349.5zM615 366L615 350.25L614.25 350.25L614.25 366zM615 396L615 366.75L614.25 366.75L614.25 396zM615 412.5L615 396.75L614.25 396.75L614.25 412.5zM615 429L615 413.25L614.25 413.25L614.25 429zM615 445.5L615 429.75L614.25 429.75L614.25 445.5zM615 462L615 446.25L614.25 446.25L614.25 462zM615 478.5L615 462.75L614.25 462.75L614.25 478.5zM615 508.5L615 479.25L614.25 479.25L614.25 508.5zM615 525L615 509.25L614.25 509.25L614.25 525zM615 541.5L615 525.75L614.25 525.75L614.25 541.5zM615 558L615 542.25L614.25 542.25L614.25 558zM237.75 81L237.75 65.25L237 65.25L237 81zM237.75 111L237.75 81.75L237 81.75L237 111zM237.75 127.5L237.75 111.75L237 111.75L237 127.5zM237.75 144L237.75 128.25L237 128.25L237 144zM237.75 160.5L237.75 144.75L237 144.75L237 160.5zM237.75 177L237.75 161.25L237 161.25L237 177zM237.75 207L237.75 177.75L237 177.75L237 207zM237.75 223.5L237.75 207.75L237 207.75L237 223.5zM237.75 240L237.75 224.25L237 224.25L237 240zM237.75 256.5L237.75 240.75L237 240.75L237 256.5zM237.75 286.5L237.75 257.25L237 257.25L237 286.5zM237.75 303L237.75 287.25L237 287.25L237 303zM237.75 319.5L237.75 303.75L237 303.75L237 319.5zM237.75 349.5L237.75 320.25L237 320.25L237 349.5zM237.75 366L237.75 350.25L237 350.25L237 366zM237.75 396L237.75 366.75L237 366.75L237 396zM237.75 412.5L237.75 396.75L237 396.75L237 412.5zM237.75 429L237.75 413.25L237 413.25L237 429zM237.75 445.5L237.75 429.75L237 429.75L237 445.5zM237.75 462L237.75 446.25L237 446.25L237 462zM237.75 478.5L237.75 462.75L237 462.75L237 478.5zM237.75 508.5L237.75 479.25L237 479.25L237 508.5zM237.75 525L237.75 509.25L237 509.25L237 525zM237.75 541.5L237.75 525.75L237 525.75L237 541.5zM237.75 558L237.75 542.25L237 542.25L237 558zM141 81L141 65.25L140.25 65.25L140.25 81zM141 111L141 81.75L140.25 81.75L140.25 111zM141 127.5L141 111.75L140.25 111.75L140.25 127.5zM141 144L141 128.25L140.25 128.25L140.25 144zM141 160.5L141 144.75L140.25 144.75L140.25 160.5zM141 177L141 161.25L140.25 161.25L140.25 177zM141 207L141 177.75L140.25 177.75L140.25 207zM141 223.5L141 207.75L140.25 207.75L140.25 223.5zM141 240L141 224.25L140.25 224.25L140.25 240zM141 256.5L141 240.75L140.25 240.75L140.25 256.5zM141 286.5L141 257.25L140.25 257.25L140.25 286.5zM141 303L141 287.25L140.25 287.25L140.25 303zM141 319.5L141 303.75L140.25 303.75L140.25 319.5zM141 349.5L141 320.25L140.25 320.25L140.25 349.5zM141 366L141 350.25L140.25 350.25L140.25 366zM141 396L141 366.75L140.25 366.75L140.25 396zM141 412.5L141 396.75L140.25 396.75L140.25 412.5zM141 429L141 413.25L140.25 413.25L140.25 429zM141 445.5L141 429.75L140.25 429.75L140.25 445.5zM141 462L141 446.25L140.25 446.25L140.25 462zM141 478.5L141 462.75L140.25 462.75L140.25 478.5zM141 508.5L141 479.25L140.25 479.25L140.25 508.5zM141 525L141 509.25L140.25 509.25L140.25 525zM141 541.5L141 525.75L140.25 525.75L140.25 541.5zM141 558L141 542.25L140.25 542.25L140.25 558zM107.25 81L107.25 65.25L106.5 65.25L106.5 81zM107.25 111L107.25 81.75L106.5 81.75L106.5 111zM107.25 127.5L107.25 111.75L106.5 111.75L106.5 127.5zM107.25 144L107.25 128.25L106.5 128.25L106.5 144zM107.25 160.5L107.25 144.75L106.5 144.75L106.5 160.5zM107.25 177L107.25 161.25L106.5 161.25L106.5 177zM107.25 207L107.25 177.75L106.5 177.75L106.5 207zM107.25 223.5L107.25 207.75L106.5 207.75L106.5 223.5zM107.25 240L107.25 224.25L106.5 224.25L106.5 240zM107.25 256.5L107.25 240.75L106.5 240.75L106.5 256.5zM107.25 286.5L107.25 257.25L106.5 257.25L106.5 286.5zM107.25 303L107.25 287.25L106.5 287.25L106.5 303zM107.25 319.5L107.25 303.75L106.5 303.75L106.5 319.5zM107.25 349.5L107.25 320.25L106.5 320.25L106.5 349.5zM107.25 366L107.25 350.25L106.5 350.25L106.5 366zM107.25 396L107.25 366.75L106.5 366.75L106.5 396zM107.25 412.5L107.25 396.75L106.5 396.75L106.5 412.5zM107.25 429L107.25 413.25L106.5 413.25L106.5 429zM107.25 445.5L107.25 429.75L106.5 429.75L106.5 445.5zM107.25 462L107.25 446.25L106.5 446.25L106.5 462zM107.25 478.5L107.25 462.75L106.5 462.75L106.5 478.5zM107.25 508.5L107.25 479.25L106.5 479.25L106.5 508.5zM107.25 525L107.25 509.25L106.5 509.25L106.5 525zM107.25 541.5L107.25 525.75L106.5 525.75L106.5 541.5zM107.25 558L107.25 542.25L106.5 542.25L106.5 558z" stroke="none" fill="#000000" fill-rule="nonzero" fill-opacity="0.1490196" /><path id="188" transform="matrix(1 0 0 -1 0 612)" d="M240 545.2158L468.16 545.2158" stroke="#000000" stroke-width="0.7017334" fill="none" /><path id="255" transform="matrix(1 0 0 -1 0 612)" d="M240 528.7158L474.3905 528.7158" stroke="#000000" stroke-width="0.7017334" fill="none" /><path id="322" transform="matrix(1 0 0 -1 0 612)" d="M240 512.2158L479.1707 512.2158" stroke="#000000" stroke-width="0.7017334" fill="none" /><path id="420" transform="matrix(1 0 0 -1 0 612)" d="M240 495.3047L590.8947 495.3047" stroke="#000000" stroke-width="0.7017334" fill="none" /><path id="435" transform="matrix(1 0 0 -1 0 612)" d="M240 482.2158L315.5245 482.2158" stroke="#000000" stroke-width="0.7017334" fill="none" /><path id="477" transform="matrix(1 0 0 -1 0 612)" d="M240 465.7158L377.0591 465.7158" stroke="#000000" stroke-width="0.7017334" fill="none" /><path id="547" transform="matrix(1 0 0 -1 0 612)" d="M240 449.2158L486.3853 449.2158" stroke="#000000" stroke-width="0.7017334" fill="none" /><path id="635" transform="matrix(1 0 0 -1 0 612)" d="M240 432.7158L598.4969 432.7158" stroke="#000000" stroke-width="0.7017334" fill="none" /><path id="700" transform="matrix(1 0 0 -1 0 612)" d="M240 416.2158L503.7365 416.2158" stroke="#000000" stroke-width="0.7017334" fill="none" /><path id="761" transform="matrix(1 0 0 -1 0 612)" d="M240 399.7158L458.343 399.7158" stroke="#000000" stroke-width="0.7017334" fill="none" /><path id="854" transform="matrix(1 0 0 -1 0 612)" d="M240 382.8047L564.418 382.8047" stroke="#000000" stroke-width="0.7017334" fill="none" /><path id="865" transform="matrix(1 0 0 -1 0 612)" d="M240 369.7158L288.1367 369.7158" stroke="#000000" stroke-width="0.7017334" fill="none" /><path id="954" transform="matrix(1 0 0 -1 0 612)" d="M240 353.2158L605.9837 353.2158" stroke="#000000" stroke-width="0.7017334" fill="none" /><path id="1040" transform="matrix(1 0 0 -1 0 612)" d="M240 336.3047L588.3762 336.3047" stroke="#000000" stroke-width="0.7017334" fill="none" /><path id="1086" transform="matrix(1 0 0 -1 0 612)" d="M240 323.2158L450.097 323.2158" stroke="#000000" stroke-width="0.7017334" fill="none" /><path id="1164" transform="matrix(1 0 0 -1 0 612)" d="M240 306.7158L491.4797 306.7158" stroke="#000000" stroke-width="0.7017334" fill="none" /><path id="1226" transform="matrix(1 0 0 -1 0 612)" d="M240 290.2158L423.9291 290.2158" stroke="#000000" stroke-width="0.7017334" fill="none" /><path id="1294" transform="matrix(1 0 0 -1 0 612)" d="M240 260.2158L483.1236 260.2158" stroke="#000000" stroke-width="0.7017334" fill="none" /><path id="1335" transform="matrix(1 0 0 -1 0 612)" d="M240 243.7158L356.3052 243.7158" stroke="#000000" stroke-width="0.7017334" fill="none" /><path id="1371" transform="matrix(1 0 0 -1 0 612)" d="M240 227.2158L339.3678 227.2158" stroke="#000000" stroke-width="0.7017334" fill="none" /><path id="1410" transform="matrix(1 0 0 -1 0 612)" d="M240 210.7158L349.441 210.7158" stroke="#000000" stroke-width="0.7017334" fill="none" /><path id="1504" transform="matrix(1 0 0 -1 0 612)" d="M240 193.8047L590.4494 193.8047" stroke="#000000" stroke-width="0.7017334" fill="none" /><path id="1517" transform="matrix(1 0 0 -1 0 612)" d="M240 180.7158L285.7912 180.7158" stroke="#000000" stroke-width="0.7017334" fill="none" /><path id="1548" transform="matrix(1 0 0 -1 0 612)" d="M240 164.2158L304.3097 164.2158" stroke="#000000" stroke-width="0.7017334" fill="none" /><path id="1613" transform="matrix(1 0 0 -1 0 612)" d="M240 147.7158L455.7409 147.7158" stroke="#000000" stroke-width="0.7017334" fill="none" /><path id="1657" transform="matrix(1 0 0 -1 0 612)" d="M240 131.2158L383.5255 131.2158" stroke="#000000" stroke-width="0.7017334" fill="none" /><path id="1745" transform="matrix(1 0 0 -1 0 612)" d="M240 114.7158L559.1456 114.7158" stroke="#000000" stroke-width="0.7017334" fill="none" /><path id="1823" transform="matrix(1 0 0 -1 0 612)" d="M240 84.71582L479.9402 84.71582" stroke="#000000" stroke-width="0.7017334" fill="none" /><path id="1860" transform="matrix(1 0 0 -1 0 612)" d="M240 68.21582L338.0223 68.21582" stroke="#000000" stroke-width="0.7017334" fill="none" /></g></g></g></svg>