<svg xmlns="http://www.w3.org/2000/svg" xmlns:xlink="http://www.w3.org/1999/xlink" id="body_4" preserveAspectRatio="xMinYMin meet" viewBox="0 0 1056 816"><defs><clipPath id="1"><path id="" clip-rule="evenodd" transform="matrix(1 0 0 1 0 0)" d="M0 612L0 0L0 0L792 0L792 0L792 612L792 612L0 612z" /></clipPath><clipPath id="2"><path id="" clip-rule="evenodd" transform="matrix(1 0 0 1 0 0)" d="M105.75 52.5L686.25 52.5L686.25 52.5L686.25 555L686.25 555L105.75 555L105.75 555L105.75 52.5z" /></clipPath></defs><g transform="matrix(1.333333 0 0 1.333333 0 0)"><g clip-path="url(#1)"><g clip-path="url(#2)"><path id="101" transform="matrix(1 0 0 -1 0 612)" d="M106.5 558.75L685.5 558.75L685.5 541.5L106.5 541.5L106.5 558.75z" stroke="none" fill="#E0F7FA" fill-rule="nonzero" /><path id="102" transform="matrix(1 0 0 -1 0 612)" d="M106.5 542.25L685.5 542.25L685.5 525L106.5 525L106.5 542.25z" stroke="none" fill="#FFFFFF" fill-rule="nonzero" /><path id="103" transform="matrix(1 0 0 -1 0 612)" d="M106.5 525.75L685.5 525.75L685.5 508.5L106.5 508.5L106.5 525.75z" stroke="none" fill="#E0F7FA" fill-rule="nonzero" /><path id="104" transform="matrix(1 0 0 -1 0 612)" d="M106.5 509.25L685.5 509.25L685.5 492L106.5 492L106.5 509.25z" stroke="none" fill="#FFFFFF" fill-rule="nonzero" /><path id="105" transform="matrix(1 0 0 -1 0 612)" d="M106.5 492.75L685.5 492.75L685.5 462L106.5 462L106.5 492.75z" stroke="none" fill="#E0F7FA" fill-rule="nonzero" /><path id="106" transform="matrix(1 0 0 -1 0 612)" d="M106.5 462.75L685.5 462.75L685.5 445.5L106.5 445.5L106.5 462.75z" stroke="none" fill="#FFFFFF" fill-rule="nonzero" /><path id="107" transform="matrix(1 0 0 -1 0 612)" d="M106.5 446.25L685.5 446.25L685.5 415.5L106.5 415.5L106.5 446.25z" stroke="none" fill="#E0F7FA" fill-rule="nonzero" /><path id="108" transform="matrix(1 0 0 -1 0 612)" d="M106.5 416.25L685.5 416.25L685.5 385.5L106.5 385.5L106.5 416.25z" stroke="none" fill="#FFFFFF" fill-rule="nonzero" /><path id="109" transform="matrix(1 0 0 -1 0 612)" d="M106.5 386.25L685.5 386.25L685.5 369L106.5 369L106.5 386.25z" stroke="none" fill="#E0F7FA" fill-rule="nonzero" /><path id="110" transform="matrix(1 0 0 -1 0 612)" d="M106.5 369.75L685.5 369.75L685.5 339L106.5 339L106.5 369.75z" stroke="none" fill="#FFFFFF" fill-rule="nonzero" /><path id="111" transform="matrix(1 0 0 -1 0 612)" d="M106.5 339.75L685.5 339.75L685.5 322.5L106.5 322.5L106.5 339.75z" stroke="none" fill="#E0F7FA" fill-rule="nonzero" /><path id="112" transform="matrix(1 0 0 -1 0 612)" d="M106.5 323.25L685.5 323.25L685.5 306L106.5 306L106.5 323.25z" stroke="none" fill="#FFFFFF" fill-rule="nonzero" /><path id="113" transform="matrix(1 0 0 -1 0 612)" d="M106.5 306.75L685.5 306.75L685.5 289.5L106.5 289.5L106.5 306.75z" stroke="none" fill="#E0F7FA" fill-rule="nonzero" /><path id="114" transform="matrix(1 0 0 -1 0 612)" d="M106.5 290.25L685.5 290.25L685.5 273L106.5 273L106.5 290.25z" stroke="none" fill="#FFFFFF" fill-rule="nonzero" /><path id="115" transform="matrix(1 0 0 -1 0 612)" d="M106.5 273.75L685.5 273.75L685.5 243L106.5 243L106.5 273.75z" stroke="none" fill="#E0F7FA" fill-rule="nonzero" /><path id="116" transform="matrix(1 0 0 -1 0 612)" d="M106.5 243.75L685.5 243.75L685.5 200.25L106.5 200.25L106.5 243.75z" stroke="none" fill="#FFFFFF" fill-rule="nonzero" /><path id="117" transform="matrix(1 0 0 -1 0 612)" d="M106.5 201L685.5 201L685.5 183.75L106.5 183.75L106.5 201z" stroke="none" fill="#E0F7FA" fill-rule="nonzero" /><path id="118" transform="matrix(1 0 0 -1 0 612)" d="M106.5 184.5L685.5 184.5L685.5 167.25L106.5 167.25L106.5 184.5z" stroke="none" fill="#FFFFFF" fill-rule="nonzero" /><path id="119" transform="matrix(1 0 0 -1 0 612)" d="M106.5 168L685.5 168L685.5 150.75L106.5 150.75L106.5 168z" stroke="none" fill="#E0F7FA" fill-rule="nonzero" /><path id="120" transform="matrix(1 0 0 -1 0 612)" d="M106.5 151.5L685.5 151.5L685.5 134.25L106.5 134.25L106.5 151.5z" stroke="none" fill="#FFFFFF" fill-rule="nonzero" /><path id="121" transform="matrix(1 0 0 -1 0 612)" d="M106.5 135L685.5 135L685.5 117.75L106.5 117.75L106.5 135z" stroke="none" fill="#E0F7FA" fill-rule="nonzero" /><path id="122" transform="matrix(1 0 0 -1 0 612)" d="M106.5 118.5L685.5 118.5L685.5 87.75L106.5 87.75L106.5 118.5z" stroke="none" fill="#FFFFFF" fill-rule="nonzero" /><path id="123" transform="matrix(1 0 0 -1 0 612)" d="M106.5 88.5L685.5 88.5L685.5 57.75L106.5 57.75L106.5 88.5z" stroke="none" fill="#E0F7FA" fill-rule="nonzero" /><path id="124" transform="matrix(1 0 0 -1 0 612)" d="M106.5 58.5L685.5 58.5L685.5 57.75L106.5 57.75zM106.5 88.5L685.5 88.5L685.5 87.75L106.5 87.75zM106.5 118.5L685.5 118.5L685.5 117.75L106.5 117.75zM106.5 135L685.5 135L685.5 134.25L106.5 134.25zM106.5 151.5L685.5 151.5L685.5 150.75L106.5 150.75zM106.5 168L685.5 168L685.5 167.25L106.5 167.25zM106.5 184.5L685.5 184.5L685.5 183.75L106.5 183.75zM106.5 201L685.5 201L685.5 200.25L106.5 200.25zM106.5 243.75L685.5 243.75L685.5 243L106.5 243zM106.5 273.75L685.5 273.75L685.5 273L106.5 273zM106.5 290.25L685.5 290.25L685.5 289.5L106.5 289.5zM106.5 306.75L685.5 306.75L685.5 306L106.5 306zM106.5 323.25L685.5 323.25L685.5 322.5L106.5 322.5zM106.5 339.75L685.5 339.75L685.5 339L106.5 339zM106.5 369.75L685.5 369.75L685.5 369L106.5 369zM106.5 386.25L685.5 386.25L685.5 385.5L106.5 385.5zM106.5 416.25L685.5 416.25L685.5 415.5L106.5 415.5zM106.5 446.25L685.5 446.25L685.5 445.5L106.5 445.5zM106.5 462.75L685.5 462.75L685.5 462L106.5 462zM106.5 492.75L685.5 492.75L685.5 492L106.5 492zM106.5 509.25L685.5 509.25L685.5 508.5L106.5 508.5zM106.5 525.75L685.5 525.75L685.5 525L106.5 525zM106.5 542.25L685.5 542.25L685.5 541.5L106.5 541.5zM106.5 558.75L685.5 558.75L685.5 558L106.5 558zM685.5 87.75L685.5 58.5L684.75 58.5L684.75 87.75zM685.5 117.75L685.5 88.5L684.75 88.5L684.75 117.75zM685.5 134.25L685.5 118.5L684.75 118.5L684.75 134.25zM685.5 150.75L685.5 135L684.75 135L684.75 150.75zM685.5 167.25L685.5 151.5L684.75 151.5L684.75 167.25zM685.5 183.75L685.5 168L684.75 168L684.75 183.75zM685.5 200.25L685.5 184.5L684.75 184.5L684.75 200.25zM685.5 243L685.5 201L684.75 201L684.75 243zM685.5 273L685.5 243.75L684.75 243.75L684.75 273zM685.5 289.5L685.5 273.75L684.75 273.75L684.75 289.5zM685.5 306L685.5 290.25L684.75 290.25L684.75 306zM685.5 322.5L685.5 306.75L684.75 306.75L684.75 322.5zM685.5 339L685.5 323.25L684.75 323.25L684.75 339zM685.5 369L685.5 339.75L684.75 339.75L684.75 369zM685.5 385.5L685.5 369.75L684.75 369.75L684.75 385.5zM685.5 415.5L685.5 386.25L684.75 386.25L684.75 415.5zM685.5 445.5L685.5 416.25L684.75 416.25L684.75 445.5zM685.5 462L685.5 446.25L684.75 446.25L684.75 462zM685.5 492L685.5 462.75L684.75 462.75L684.75 492zM685.5 508.5L685.5 492.75L684.75 492.75L684.75 508.5zM685.5 525L685.5 509.25L684.75 509.25L684.75 525zM685.5 541.5L685.5 525.75L684.75 525.75L684.75 541.5zM685.5 558L685.5 542.25L684.75 542.25L684.75 558zM615 87.75L615 58.5L614.25 58.5L614.25 87.75zM615 117.75L615 88.5L614.25 88.5L614.25 117.75zM615 134.25L615 118.5L614.25 118.5L614.25 134.25zM615 150.75L615 135L614.25 135L614.25 150.75zM615 167.25L615 151.5L614.25 151.5L614.25 167.25zM615 183.75L615 168L614.25 168L614.25 183.75zM615 200.25L615 184.5L614.25 184.5L614.25 200.25zM615 243L615 201L614.25 201L614.25 243zM615 273L615 243.75L614.25 243.75L614.25 273zM615 289.5L615 273.75L614.25 273.75L614.25 289.5zM615 306L615 290.25L614.25 290.25L614.25 306zM615 322.5L615 306.75L614.25 306.75L614.25 322.5zM615 339L615 323.25L614.25 323.25L614.25 339zM615 369L615 339.75L614.25 339.75L614.25 369zM615 385.5L615 369.75L614.25 369.75L614.25 385.5zM615 415.5L615 386.25L614.25 386.25L614.25 415.5zM615 445.5L615 416.25L614.25 416.25L614.25 445.5zM615 462L615 446.25L614.25 446.25L614.25 462zM615 492L615 462.75L614.25 462.75L614.25 492zM615 508.5L615 492.75L614.25 492.75L614.25 508.5zM615 525L615 509.25L614.25 509.25L614.25 525zM615 541.5L615 525.75L614.25 525.75L614.25 541.5zM615 558L615 542.25L614.25 542.25L614.25 558zM237.75 87.75L237.75 58.5L237 58.5L237 87.75zM237.75 117.75L237.75 88.5L237 88.5L237 117.75zM237.75 134.25L237.75 118.5L237 118.5L237 134.25zM237.75 150.75L237.75 135L237 135L237 150.75zM237.75 167.25L237.75 151.5L237 151.5L237 167.25zM237.75 183.75L237.75 168L237 168L237 183.75zM237.75 200.25L237.75 184.5L237 184.5L237 200.25zM237.75 243L237.75 201L237 201L237 243zM237.75 273L237.75 243.75L237 243.75L237 273zM237.75 289.5L237.75 273.75L237 273.75L237 289.5zM237.75 306L237.75 290.25L237 290.25L237 306zM237.75 322.5L237.75 306.75L237 306.75L237 322.5zM237.75 339L237.75 323.25L237 323.25L237 339zM237.75 369L237.75 339.75L237 339.75L237 369zM237.75 385.5L237.75 369.75L237 369.75L237 385.5zM237.75 415.5L237.75 386.25L237 386.25L237 415.5zM237.75 445.5L237.75 416.25L237 416.25L237 445.5zM237.75 462L237.75 446.25L237 446.25L237 462zM237.75 492L237.75 462.75L237 462.75L237 492zM237.75 508.5L237.75 492.75L237 492.75L237 508.5zM237.75 525L237.75 509.25L237 509.25L237 525zM237.75 541.5L237.75 525.75L237 525.75L237 541.5zM237.75 558L237.75 542.25L237 542.25L237 558zM141 87.75L141 58.5L140.25 58.5L140.25 87.75zM141 117.75L141 88.5L140.25 88.5L140.25 117.75zM141 134.25L141 118.5L140.25 118.5L140.25 134.25zM141 150.75L141 135L140.25 135L140.25 150.75zM141 167.25L141 151.5L140.25 151.5L140.25 167.25zM141 183.75L141 168L140.25 168L140.25 183.75zM141 200.25L141 184.5L140.25 184.5L140.25 200.25zM141 243L141 201L140.25 201L140.25 243zM141 273L141 243.75L140.25 243.75L140.25 273zM141 289.5L141 273.75L140.25 273.75L140.25 289.5zM141 306L141 290.25L140.25 290.25L140.25 306zM141 322.5L141 306.75L140.25 306.75L140.25 322.5zM141 339L141 323.25L140.25 323.25L140.25 339zM141 369L141 339.75L140.25 339.75L140.25 369zM141 385.5L141 369.75L140.25 369.75L140.25 385.5zM141 415.5L141 386.25L140.25 386.25L140.25 415.5zM141 445.5L141 416.25L140.25 416.25L140.25 445.5zM141 462L141 446.25L140.25 446.25L140.25 462zM141 492L141 462.75L140.25 462.75L140.25 492zM141 508.5L141 492.75L140.25 492.75L140.25 508.5zM141 525L141 509.25L140.25 509.25L140.25 525zM141 541.5L141 525.75L140.25 525.75L140.25 541.5zM141 558L141 542.25L140.25 542.25L140.25 558zM107.25 87.75L107.25 58.5L106.5 58.5L106.5 87.75zM107.25 117.75L107.25 88.5L106.5 88.5L106.5 117.75zM107.25 134.25L107.25 118.5L106.5 118.5L106.5 134.25zM107.25 150.75L107.25 135L106.5 135L106.5 150.75zM107.25 167.25L107.25 151.5L106.5 151.5L106.5 167.25zM107.25 183.75L107.25 168L106.5 168L106.5 183.75zM107.25 200.25L107.25 184.5L106.5 184.5L106.5 200.25zM107.25 243L107.25 201L106.5 201L106.5 243zM107.25 273L107.25 243.75L106.5 243.75L106.5 273zM107.25 289.5L107.25 273.75L106.5 273.75L106.5 289.5zM107.25 306L107.25 290.25L106.5 290.25L106.5 306zM107.25 322.5L107.25 306.75L106.5 306.75L106.5 322.5zM107.25 339L107.25 323.25L106.5 323.25L106.5 339zM107.25 369L107.25 339.75L106.5 339.75L106.5 369zM107.25 385.5L107.25 369.75L106.5 369.75L106.5 385.5zM107.25 415.5L107.25 386.25L106.5 386.25L106.5 415.5zM107.25 445.5L107.25 416.25L106.5 416.25L106.5 445.5zM107.25 462L107.25 446.25L106.5 446.25L106.5 462zM107.25 492L107.25 462.75L106.5 462.75L106.5 492zM107.25 508.5L107.25 492.75L106.5 492.75L106.5 508.5zM107.25 525L107.25 509.25L106.5 509.25L106.5 525zM107.25 541.5L107.25 525.75L106.5 525.75L106.5 541.5zM107.25 558L107.25 542.25L106.5 542.25L106.5 558z" stroke="none" fill="#000000" fill-rule="nonzero" fill-opacity="0.1490196" /><path id="168" transform="matrix(1 0 0 -1 0 612)" d="M240 545.2158L407.0912 545.2158" stroke="#000000" stroke-width="0.7017334" fill="none" /><path id="244" transform="matrix(1 0 0 -1 0 612)" d="M240 528.7158L543.3443 528.7158" stroke="#000000" stroke-width="0.7017334" fill="none" /><path id="323" transform="matrix(1 0 0 -1 0 612)" d="M240 512.2158L555.5802 512.2158" stroke="#000000" stroke-width="0.7017334" fill="none" /><path id="365" transform="matrix(1 0 0 -1 0 612)" d="M240 495.7158L369.0278 495.7158" stroke="#000000" stroke-width="0.7017334" fill="none" /><path id="451" transform="matrix(1 0 0 -1 0 612)" d="M240 478.8049L582.392 478.8049" stroke="#000000" stroke-width="0.7017334" fill="none" /><path id="460" transform="matrix(1 0 0 -1 0 612)" d="M240 465.7158L282.9429 465.7158" stroke="#000000" stroke-width="0.7017334" fill="none" /><path id="517" transform="matrix(1 0 0 -1 0 612)" d="M240 449.2158L447.5787 449.2158" stroke="#000000" stroke-width="0.7017334" fill="none" /><path id="609" transform="matrix(1 0 0 -1 0 612)" d="M240 432.3049L602.0095 432.3049" stroke="#000000" stroke-width="0.7017334" fill="none" /><path id="634" transform="matrix(1 0 0 -1 0 612)" d="M240 419.2158L354.6454 419.2158" stroke="#000000" stroke-width="0.7017334" fill="none" /><path id="720" transform="matrix(1 0 0 -1 0 612)" d="M240 402.3049L581.3395 402.3049" stroke="#000000" stroke-width="0.7017334" fill="none" /><path id="730" transform="matrix(1 0 0 -1 0 612)" d="M240 389.2158L282.4142 389.2158" stroke="#000000" stroke-width="0.7017334" fill="none" /><path id="784" transform="matrix(1 0 0 -1 0 612)" d="M240 372.7158L434.5993 372.7158" stroke="#000000" stroke-width="0.7017334" fill="none" /><path id="868" transform="matrix(1 0 0 -1 0 612)" d="M240 355.8049L608.8684 355.8049" stroke="#000000" stroke-width="0.7017334" fill="none" /><path id="885" transform="matrix(1 0 0 -1 0 612)" d="M240 342.7158L316.6711 342.7158" stroke="#000000" stroke-width="0.7017334" fill="none" /><path id="974" transform="matrix(1 0 0 -1 0 612)" d="M240 326.2158L576.3288 326.2158" stroke="#000000" stroke-width="0.7017334" fill="none" /><path id="1039" transform="matrix(1 0 0 -1 0 612)" d="M240 309.7158L489.9927 309.7158" stroke="#000000" stroke-width="0.7017334" fill="none" /><path id="1101" transform="matrix(1 0 0 -1 0 612)" d="M240 293.2158L459.9821 293.2158" stroke="#000000" stroke-width="0.7017334" fill="none" /><path id="1175" transform="matrix(1 0 0 -1 0 612)" d="M240 276.7158L526.7421 276.7158" stroke="#000000" stroke-width="0.7017334" fill="none" /><path id="1256" transform="matrix(1 0 0 -1 0 612)" d="M240 246.7158L511.726 246.7158" stroke="#000000" stroke-width="0.7017334" fill="none" /><path id="1361" transform="matrix(1 0 0 -1 0 612)" d="M240 203.9658L576.1928 203.9658" stroke="#000000" stroke-width="0.7017334" fill="none" /><path id="1397" transform="matrix(1 0 0 -1 0 612)" d="M240 187.4658L350.9018 187.4658" stroke="#000000" stroke-width="0.7017334" fill="none" /><path id="1469" transform="matrix(1 0 0 -1 0 612)" d="M240 170.9658L501.9825 170.9658" stroke="#000000" stroke-width="0.7017334" fill="none" /><path id="1530" transform="matrix(1 0 0 -1 0 612)" d="M240 154.4658L472.4376 154.4658" stroke="#000000" stroke-width="0.7017334" fill="none" /><path id="1601" transform="matrix(1 0 0 -1 0 612)" d="M240 137.9658L456.4897 137.9658" stroke="#000000" stroke-width="0.7017334" fill="none" /><path id="1682" transform="matrix(1 0 0 -1 0 612)" d="M240 121.4658L587.0516 121.4658" stroke="#000000" stroke-width="0.7017334" fill="none" /><path id="1777" transform="matrix(1 0 0 -1 0 612)" d="M240 104.5549L609.6802 104.5549" stroke="#000000" stroke-width="0.7017334" fill="none" /><path id="1785" transform="matrix(1 0 0 -1 0 612)" d="M240 91.46582L278.4665 91.46582" stroke="#000000" stroke-width="0.7017334" fill="none" /><path id="1859" transform="matrix(1 0 0 -1 0 612)" d="M240 61.46582L469.7935 61.46582" stroke="#000000" stroke-width="0.7017334" fill="none" /></g></g></g></svg>