<svg xmlns="http://www.w3.org/2000/svg" xmlns:xlink="http://www.w3.org/1999/xlink" id="body_1" preserveAspectRatio="xMinYMin meet" viewBox="0 0 1056 816"><defs><clipPath id="1"><path id="" clip-rule="evenodd" transform="matrix(1 0 0 1 0 0)" d="M0 612L0 0L0 0L792 0L792 0L792 612L792 612L0 612z" /></clipPath><clipPath id="2"><path id="" clip-rule="evenodd" transform="matrix(1 0 0 1 0 0)" d="M105.75 52.5L686.25 52.5L686.25 52.5L686.25 547.5L686.25 547.5L105.75 547.5L105.75 547.5L105.75 52.5z" /></clipPath></defs><g transform="matrix(1.333333 0 0 1.333333 0 0)"><g clip-path="url(#1)"><g clip-path="url(#2)"><path id="101" transform="matrix(1 0 0 -1 0 612)" d="M106.5 558.75L685.5 558.75L685.5 541.5L106.5 541.5L106.5 558.75z" stroke="none" fill="#4DD0E1" fill-rule="nonzero" /><path id="102" transform="matrix(1 0 0 -1 0 612)" d="M106.5 542.25L685.5 542.25L685.5 511.5L106.5 511.5L106.5 542.25z" stroke="none" fill="#FFFFFF" fill-rule="nonzero" /><path id="103" transform="matrix(1 0 0 -1 0 612)" d="M106.5 512.25L685.5 512.25L685.5 495L106.5 495L106.5 512.25z" stroke="none" fill="#E0F7FA" fill-rule="nonzero" /><path id="104" transform="matrix(1 0 0 -1 0 612)" d="M106.5 495.75L685.5 495.75L685.5 478.5L106.5 478.5L106.5 495.75z" stroke="none" fill="#FFFFFF" fill-rule="nonzero" /><path id="105" transform="matrix(1 0 0 -1 0 612)" d="M106.5 479.25L685.5 479.25L685.5 462L106.5 462L106.5 479.25z" stroke="none" fill="#E0F7FA" fill-rule="nonzero" /><path id="106" transform="matrix(1 0 0 -1 0 612)" d="M106.5 462.75L685.5 462.75L685.5 432L106.5 432L106.5 462.75z" stroke="none" fill="#FFFFFF" fill-rule="nonzero" /><path id="107" transform="matrix(1 0 0 -1 0 612)" d="M106.5 432.75L685.5 432.75L685.5 415.5L106.5 415.5L106.5 432.75z" stroke="none" fill="#E0F7FA" fill-rule="nonzero" /><path id="108" transform="matrix(1 0 0 -1 0 612)" d="M106.5 416.25L685.5 416.25L685.5 399L106.5 399L106.5 416.25z" stroke="none" fill="#FFFFFF" fill-rule="nonzero" /><path id="109" transform="matrix(1 0 0 -1 0 612)" d="M106.5 399.75L685.5 399.75L685.5 382.5L106.5 382.5L106.5 399.75z" stroke="none" fill="#E0F7FA" fill-rule="nonzero" /><path id="110" transform="matrix(1 0 0 -1 0 612)" d="M106.5 383.25L685.5 383.25L685.5 366L106.5 366L106.5 383.25z" stroke="none" fill="#FFFFFF" fill-rule="nonzero" /><path id="111" transform="matrix(1 0 0 -1 0 612)" d="M106.5 366.75L685.5 366.75L685.5 349.5L106.5 349.5L106.5 366.75z" stroke="none" fill="#E0F7FA" fill-rule="nonzero" /><path id="112" transform="matrix(1 0 0 -1 0 612)" d="M106.5 350.25L685.5 350.25L685.5 333L106.5 333L106.5 350.25z" stroke="none" fill="#FFFFFF" fill-rule="nonzero" /><path id="113" transform="matrix(1 0 0 -1 0 612)" d="M106.5 333.75L685.5 333.75L685.5 316.5L106.5 316.5L106.5 333.75z" stroke="none" fill="#E0F7FA" fill-rule="nonzero" /><path id="114" transform="matrix(1 0 0 -1 0 612)" d="M106.5 317.25L685.5 317.25L685.5 286.5L106.5 286.5L106.5 317.25z" stroke="none" fill="#FFFFFF" fill-rule="nonzero" /><path id="115" transform="matrix(1 0 0 -1 0 612)" d="M106.5 287.25L685.5 287.25L685.5 270L106.5 270L106.5 287.25z" stroke="none" fill="#E0F7FA" fill-rule="nonzero" /><path id="116" transform="matrix(1 0 0 -1 0 612)" d="M106.5 270.75L685.5 270.75L685.5 240L106.5 240L106.5 270.75z" stroke="none" fill="#FFFFFF" fill-rule="nonzero" /><path id="117" transform="matrix(1 0 0 -1 0 612)" d="M106.5 240.75L685.5 240.75L685.5 223.5L106.5 223.5L106.5 240.75z" stroke="none" fill="#E0F7FA" fill-rule="nonzero" /><path id="118" transform="matrix(1 0 0 -1 0 612)" d="M106.5 224.25L685.5 224.25L685.5 207L106.5 207L106.5 224.25z" stroke="none" fill="#FFFFFF" fill-rule="nonzero" /><path id="119" transform="matrix(1 0 0 -1 0 612)" d="M106.5 207.75L685.5 207.75L685.5 190.5L106.5 190.5L106.5 207.75z" stroke="none" fill="#E0F7FA" fill-rule="nonzero" /><path id="120" transform="matrix(1 0 0 -1 0 612)" d="M106.5 191.25L685.5 191.25L685.5 174L106.5 174L106.5 191.25z" stroke="none" fill="#FFFFFF" fill-rule="nonzero" /><path id="121" transform="matrix(1 0 0 -1 0 612)" d="M106.5 174.75L685.5 174.75L685.5 157.5L106.5 157.5L106.5 174.75z" stroke="none" fill="#E0F7FA" fill-rule="nonzero" /><path id="122" transform="matrix(1 0 0 -1 0 612)" d="M106.5 158.25L685.5 158.25L685.5 114.75L106.5 114.75L106.5 158.25z" stroke="none" fill="#FFFFFF" fill-rule="nonzero" /><path id="123" transform="matrix(1 0 0 -1 0 612)" d="M106.5 115.5L685.5 115.5L685.5 98.25L106.5 98.25L106.5 115.5z" stroke="none" fill="#E0F7FA" fill-rule="nonzero" /><path id="124" transform="matrix(1 0 0 -1 0 612)" d="M106.5 99L685.5 99L685.5 81.75L106.5 81.75L106.5 99z" stroke="none" fill="#FFFFFF" fill-rule="nonzero" /><path id="125" transform="matrix(1 0 0 -1 0 612)" d="M106.5 82.5L685.5 82.5L685.5 65.25L106.5 65.25L106.5 82.5z" stroke="none" fill="#E0F7FA" fill-rule="nonzero" /><path id="126" transform="matrix(1 0 0 -1 0 612)" d="M106.5 66L685.5 66L685.5 65.25L106.5 65.25zM106.5 82.5L685.5 82.5L685.5 81.75L106.5 81.75zM106.5 99L685.5 99L685.5 98.25L106.5 98.25zM106.5 115.5L685.5 115.5L685.5 114.75L106.5 114.75zM106.5 158.25L685.5 158.25L685.5 157.5L106.5 157.5zM106.5 174.75L685.5 174.75L685.5 174L106.5 174zM106.5 191.25L685.5 191.25L685.5 190.5L106.5 190.5zM106.5 207.75L685.5 207.75L685.5 207L106.5 207zM106.5 224.25L685.5 224.25L685.5 223.5L106.5 223.5zM106.5 240.75L685.5 240.75L685.5 240L106.5 240zM106.5 270.75L685.5 270.75L685.5 270L106.5 270zM106.5 287.25L685.5 287.25L685.5 286.5L106.5 286.5zM106.5 317.25L685.5 317.25L685.5 316.5L106.5 316.5zM106.5 333.75L685.5 333.75L685.5 333L106.5 333zM106.5 350.25L685.5 350.25L685.5 349.5L106.5 349.5zM106.5 366.75L685.5 366.75L685.5 366L106.5 366zM106.5 383.25L685.5 383.25L685.5 382.5L106.5 382.5zM106.5 399.75L685.5 399.75L685.5 399L106.5 399zM106.5 416.25L685.5 416.25L685.5 415.5L106.5 415.5zM106.5 432.75L685.5 432.75L685.5 432L106.5 432zM106.5 462.75L685.5 462.75L685.5 462L106.5 462zM106.5 479.25L685.5 479.25L685.5 478.5L106.5 478.5zM106.5 495.75L685.5 495.75L685.5 495L106.5 495zM106.5 512.25L685.5 512.25L685.5 511.5L106.5 511.5zM106.5 542.25L685.5 542.25L685.5 541.5L106.5 541.5zM106.5 558.75L685.5 558.75L685.5 558L106.5 558zM685.5 81.75L685.5 66L684.75 66L684.75 81.75zM685.5 98.25L685.5 82.5L684.75 82.5L684.75 98.25zM685.5 114.75L685.5 99L684.75 99L684.75 114.75zM685.5 157.5L685.5 115.5L684.75 115.5L684.75 157.5zM685.5 174L685.5 158.25L684.75 158.25L684.75 174zM685.5 190.5L685.5 174.75L684.75 174.75L684.75 190.5zM685.5 207L685.5 191.25L684.75 191.25L684.75 207zM685.5 223.5L685.5 207.75L684.75 207.75L684.75 223.5zM685.5 240L685.5 224.25L684.75 224.25L684.75 240zM685.5 270L685.5 240.75L684.75 240.75L684.75 270zM685.5 286.5L685.5 270.75L684.75 270.75L684.75 286.5zM685.5 316.5L685.5 287.25L684.75 287.25L684.75 316.5zM685.5 333L685.5 317.25L684.75 317.25L684.75 333zM685.5 349.5L685.5 333.75L684.75 333.75L684.75 349.5zM685.5 366L685.5 350.25L684.75 350.25L684.75 366zM685.5 382.5L685.5 366.75L684.75 366.75L684.75 382.5zM685.5 399L685.5 383.25L684.75 383.25L684.75 399zM685.5 415.5L685.5 399.75L684.75 399.75L684.75 415.5zM685.5 432L685.5 416.25L684.75 416.25L684.75 432zM685.5 462L685.5 432.75L684.75 432.75L684.75 462zM685.5 478.5L685.5 462.75L684.75 462.75L684.75 478.5zM685.5 495L685.5 479.25L684.75 479.25L684.75 495zM685.5 511.5L685.5 495.75L684.75 495.75L684.75 511.5zM685.5 541.5L685.5 512.25L684.75 512.25L684.75 541.5zM685.5 558L685.5 542.25L684.75 542.25L684.75 558zM615 81.75L615 66L614.25 66L614.25 81.75zM615 98.25L615 82.5L614.25 82.5L614.25 98.25zM615 114.75L615 99L614.25 99L614.25 114.75zM615 157.5L615 115.5L614.25 115.5L614.25 157.5zM615 174L615 158.25L614.25 158.25L614.25 174zM615 190.5L615 174.75L614.25 174.75L614.25 190.5zM615 207L615 191.25L614.25 191.25L614.25 207zM615 223.5L615 207.75L614.25 207.75L614.25 223.5zM615 240L615 224.25L614.25 224.25L614.25 240zM615 270L615 240.75L614.25 240.75L614.25 270zM615 286.5L615 270.75L614.25 270.75L614.25 286.5zM615 316.5L615 287.25L614.25 287.25L614.25 316.5zM615 333L615 317.25L614.25 317.25L614.25 333zM615 349.5L615 333.75L614.25 333.75L614.25 349.5zM615 366L615 350.25L614.25 350.25L614.25 366zM615 382.5L615 366.75L614.25 366.75L614.25 382.5zM615 399L615 383.25L614.25 383.25L614.25 399zM615 415.5L615 399.75L614.25 399.75L614.25 415.5zM615 432L615 416.25L614.25 416.25L614.25 432zM615 462L615 432.75L614.25 432.75L614.25 462zM615 478.5L615 462.75L614.25 462.75L614.25 478.5zM615 495L615 479.25L614.25 479.25L614.25 495zM615 511.5L615 495.75L614.25 495.75L614.25 511.5zM615 541.5L615 512.25L614.25 512.25L614.25 541.5zM615 558L615 542.25L614.25 542.25L614.25 558zM237.75 81.75L237.75 66L237 66L237 81.75zM237.75 98.25L237.75 82.5L237 82.5L237 98.25zM237.75 114.75L237.75 99L237 99L237 114.75zM237.75 157.5L237.75 115.5L237 115.5L237 157.5zM237.75 174L237.75 158.25L237 158.25L237 174zM237.75 190.5L237.75 174.75L237 174.75L237 190.5zM237.75 207L237.75 191.25L237 191.25L237 207zM237.75 223.5L237.75 207.75L237 207.75L237 223.5zM237.75 240L237.75 224.25L237 224.25L237 240zM237.75 270L237.75 240.75L237 240.75L237 270zM237.75 286.5L237.75 270.75L237 270.75L237 286.5zM237.75 316.5L237.75 287.25L237 287.25L237 316.5zM237.75 333L237.75 317.25L237 317.25L237 333zM237.75 349.5L237.75 333.75L237 333.75L237 349.5zM237.75 366L237.75 350.25L237 350.25L237 366zM237.75 382.5L237.75 366.75L237 366.75L237 382.5zM237.75 399L237.75 383.25L237 383.25L237 399zM237.75 415.5L237.75 399.75L237 399.75L237 415.5zM237.75 432L237.75 416.25L237 416.25L237 432zM237.75 462L237.75 432.75L237 432.75L237 462zM237.75 478.5L237.75 462.75L237 462.75L237 478.5zM237.75 495L237.75 479.25L237 479.25L237 495zM237.75 511.5L237.75 495.75L237 495.75L237 511.5zM237.75 541.5L237.75 512.25L237 512.25L237 541.5zM237.75 558L237.75 542.25L237 542.25L237 558zM141 81.75L141 66L140.25 66L140.25 81.75zM141 98.25L141 82.5L140.25 82.5L140.25 98.25zM141 114.75L141 99L140.25 99L140.25 114.75zM141 157.5L141 115.5L140.25 115.5L140.25 157.5zM141 174L141 158.25L140.25 158.25L140.25 174zM141 190.5L141 174.75L140.25 174.75L140.25 190.5zM141 207L141 191.25L140.25 191.25L140.25 207zM141 223.5L141 207.75L140.25 207.75L140.25 223.5zM141 240L141 224.25L140.25 224.25L140.25 240zM141 270L141 240.75L140.25 240.75L140.25 270zM141 286.5L141 270.75L140.25 270.75L140.25 286.5zM141 316.5L141 287.25L140.25 287.25L140.25 316.5zM141 333L141 317.25L140.25 317.25L140.25 333zM141 349.5L141 333.75L140.25 333.75L140.25 349.5zM141 366L141 350.25L140.25 350.25L140.25 366zM141 382.5L141 366.75L140.25 366.75L140.25 382.5zM141 399L141 383.25L140.25 383.25L140.25 399zM141 415.5L141 399.75L140.25 399.75L140.25 415.5zM141 432L141 416.25L140.25 416.25L140.25 432zM141 462L141 432.75L140.25 432.75L140.25 462zM141 478.5L141 462.75L140.25 462.75L140.25 478.5zM141 495L141 479.25L140.25 479.25L140.25 495zM141 511.5L141 495.75L140.25 495.75L140.25 511.5zM141 541.5L141 512.25L140.25 512.25L140.25 541.5zM141 558L141 542.25L140.25 542.25L140.25 558zM107.25 81.75L107.25 66L106.5 66L106.5 81.75zM107.25 98.25L107.25 82.5L106.5 82.5L106.5 98.25zM107.25 114.75L107.25 99L106.5 99L106.5 114.75zM107.25 157.5L107.25 115.5L106.5 115.5L106.5 157.5zM107.25 174L107.25 158.25L106.5 158.25L106.5 174zM107.25 190.5L107.25 174.75L106.5 174.75L106.5 190.5zM107.25 207L107.25 191.25L106.5 191.25L106.5 207zM107.25 223.5L107.25 207.75L106.5 207.75L106.5 223.5zM107.25 240L107.25 224.25L106.5 224.25L106.5 240zM107.25 270L107.25 240.75L106.5 240.75L106.5 270zM107.25 286.5L107.25 270.75L106.5 270.75L106.5 286.5zM107.25 316.5L107.25 287.25L106.5 287.25L106.5 316.5zM107.25 333L107.25 317.25L106.5 317.25L106.5 333zM107.25 349.5L107.25 333.75L106.5 333.75L106.5 349.5zM107.25 366L107.25 350.25L106.5 350.25L106.5 366zM107.25 382.5L107.25 366.75L106.5 366.75L106.5 382.5zM107.25 399L107.25 383.25L106.5 383.25L106.5 399zM107.25 415.5L107.25 399.75L106.5 399.75L106.5 415.5zM107.25 432L107.25 416.25L106.5 416.25L106.5 432zM107.25 462L107.25 432.75L106.5 432.75L106.5 462zM107.25 478.5L107.25 462.75L106.5 462.75L106.5 478.5zM107.25 495L107.25 479.25L106.5 479.25L106.5 495zM107.25 511.5L107.25 495.75L106.5 495.75L106.5 511.5zM107.25 541.5L107.25 512.25L106.5 512.25L106.5 541.5zM107.25 558L107.25 542.25L106.5 542.25L106.5 558z" stroke="none" fill="#000000" fill-rule="nonzero" fill-opacity="0.1490196" /><path id="229" transform="matrix(1 0 0 -1 0 612)" d="M240 528.3049L605.3975 528.3049" stroke="#000000" stroke-width="0.7017334" fill="none" /><path id="260" transform="matrix(1 0 0 -1 0 612)" d="M240 515.2157L393.159 515.2157" stroke="#000000" stroke-width="0.7017334" fill="none" /><path id="310" transform="matrix(1 0 0 -1 0 612)" d="M240 498.7157L382.4731 498.7157" stroke="#000000" stroke-width="0.7017334" fill="none" /><path id="361" transform="matrix(1 0 0 -1 0 612)" d="M240 482.2157L433.6885 482.2157" stroke="#000000" stroke-width="0.7017334" fill="none" /><path id="411" transform="matrix(1 0 0 -1 0 612)" d="M240 465.7157L391.7034 465.7157" stroke="#000000" stroke-width="0.7017334" fill="none" /><path id="498" transform="matrix(1 0 0 -1 0 612)" d="M240 448.8049L608.4967 448.8049" stroke="#000000" stroke-width="0.7017334" fill="none" /><path id="514" transform="matrix(1 0 0 -1 0 612)" d="M240 435.7157L308.9852 435.7157" stroke="#000000" stroke-width="0.7017334" fill="none" /><path id="588" transform="matrix(1 0 0 -1 0 612)" d="M240 419.2157L511.705 419.2157" stroke="#000000" stroke-width="0.7017334" fill="none" /><path id="664" transform="matrix(1 0 0 -1 0 612)" d="M240 402.7157L538.0089 402.7157" stroke="#000000" stroke-width="0.7017334" fill="none" /><path id="735" transform="matrix(1 0 0 -1 0 612)" d="M240 386.2157L493.7887 386.2157" stroke="#000000" stroke-width="0.7017334" fill="none" /><path id="790" transform="matrix(1 0 0 -1 0 612)" d="M240 369.7157L437.9188 369.7157" stroke="#000000" stroke-width="0.7017334" fill="none" /><path id="835" transform="matrix(1 0 0 -1 0 612)" d="M240 353.2157L385.3161 353.2157" stroke="#000000" stroke-width="0.7017334" fill="none" /><path id="880" transform="matrix(1 0 0 -1 0 612)" d="M240 336.7157L381.2951 336.7157" stroke="#000000" stroke-width="0.7017334" fill="none" /><path id="951" transform="matrix(1 0 0 -1 0 612)" d="M240 320.2157L540.6843 320.2157" stroke="#000000" stroke-width="0.7017334" fill="none" /><path id="1034" transform="matrix(1 0 0 -1 0 612)" d="M240 303.3049L587.7112 303.3049" stroke="#000000" stroke-width="0.7017334" fill="none" /><path id="1051" transform="matrix(1 0 0 -1 0 612)" d="M240 290.2157L321.4566 290.2157" stroke="#000000" stroke-width="0.7017334" fill="none" /><path id="1126" transform="matrix(1 0 0 -1 0 612)" d="M240 273.7157L548.2971 273.7157" stroke="#000000" stroke-width="0.7017334" fill="none" /><path id="1205" transform="matrix(1 0 0 -1 0 612)" d="M240 256.8049L574.1507 256.8049" stroke="#000000" stroke-width="0.7017334" fill="none" /><path id="1224" transform="matrix(1 0 0 -1 0 612)" d="M240 243.7157L325.6083 243.7157" stroke="#000000" stroke-width="0.7017334" fill="none" /><path id="1285" transform="matrix(1 0 0 -1 0 612)" d="M240 227.2157L450.6101 227.2157" stroke="#000000" stroke-width="0.7017334" fill="none" /><path id="1363" transform="matrix(1 0 0 -1 0 612)" d="M240 210.7157L570.5751 210.7157" stroke="#000000" stroke-width="0.7017334" fill="none" /><path id="1410" transform="matrix(1 0 0 -1 0 612)" d="M240 194.2157L404.4786 194.2157" stroke="#000000" stroke-width="0.7017334" fill="none" /><path id="1454" transform="matrix(1 0 0 -1 0 612)" d="M240 177.7157L390.1432 177.7157" stroke="#000000" stroke-width="0.7017334" fill="none" /><path id="1524" transform="matrix(1 0 0 -1 0 612)" d="M240 161.2157L516.2131 161.2157" stroke="#000000" stroke-width="0.7017334" fill="none" /><path id="1619" transform="matrix(1 0 0 -1 0 612)" d="M240 118.4657L533.4962 118.4657" stroke="#000000" stroke-width="0.7017334" fill="none" /><path id="1666" transform="matrix(1 0 0 -1 0 612)" d="M240 101.9657L352.6716 101.9657" stroke="#000000" stroke-width="0.7017334" fill="none" /><path id="1745" transform="matrix(1 0 0 -1 0 612)" d="M240 85.4657L570.9833 85.4657" stroke="#000000" stroke-width="0.7017334" fill="none" /><path id="1824" transform="matrix(1 0 0 -1 0 612)" d="M240 68.9657L517.0351 68.9657" stroke="#000000" stroke-width="0.7017334" fill="none" /></g></g></g></svg>