<svg xmlns="http://www.w3.org/2000/svg" xmlns:xlink="http://www.w3.org/1999/xlink" id="body_20" preserveAspectRatio="xMinYMin meet" viewBox="0 0 1056 816"><defs><clipPath id="1"><path id="" clip-rule="evenodd" transform="matrix(1 0 0 1 0 0)" d="M0 612L0 0L0 0L792 0L792 0L792 612L792 612L0 612z" /></clipPath><clipPath id="2"><path id="" clip-rule="evenodd" transform="matrix(1 0 0 1 0 0)" d="M105.75 52.5L686.25 52.5L686.25 52.5L686.25 225.75L686.25 225.75L105.75 225.75L105.75 225.75L105.75 52.5z" /></clipPath></defs><g transform="matrix(1.333333 0 0 1.333333 0 0)"><g clip-path="url(#1)"><g clip-path="url(#2)"><path id="102" transform="matrix(1 0 0 -1 0 612)" d="M106.5 558.75L685.5 558.75L685.5 528L106.5 528L106.5 558.75z" stroke="none" fill="#E0F7FA" fill-rule="nonzero" /><path id="103" transform="matrix(1 0 0 -1 0 612)" d="M106.5 528.75L685.5 528.75L685.5 511.5L106.5 511.5L106.5 528.75z" stroke="none" fill="#FFFFFF" fill-rule="nonzero" /><path id="104" transform="matrix(1 0 0 -1 0 612)" d="M106.5 512.25L685.5 512.25L685.5 481.5L106.5 481.5L106.5 512.25z" stroke="none" fill="#E0F7FA" fill-rule="nonzero" /><path id="105" transform="matrix(1 0 0 -1 0 612)" d="M106.5 482.25L685.5 482.25L685.5 451.5L106.5 451.5L106.5 482.25z" stroke="none" fill="#FFFFFF" fill-rule="nonzero" /><path id="106" transform="matrix(1 0 0 -1 0 612)" d="M106.5 452.25L685.5 452.25L685.5 435L106.5 435L106.5 452.25z" stroke="none" fill="#E0F7FA" fill-rule="nonzero" /><path id="107" transform="matrix(1 0 0 -1 0 612)" d="M106.5 435.75L685.5 435.75L685.5 403.5L106.5 403.5L106.5 435.75z" stroke="none" fill="#FFFFFF" fill-rule="nonzero" /><path id="108" transform="matrix(1 0 0 -1 0 612)" d="M106.5 404.25L685.5 404.25L685.5 387L106.5 387L106.5 404.25z" stroke="none" fill="#E0F7FA" fill-rule="nonzero" /><path id="109" transform="matrix(1 0 0 -1 0 612)" d="M106.5 387.75L685.5 387.75L685.5 387L106.5 387zM106.5 404.25L685.5 404.25L685.5 403.5L106.5 403.5zM106.5 435.75L685.5 435.75L685.5 435L106.5 435zM106.5 452.25L685.5 452.25L685.5 451.5L106.5 451.5zM106.5 482.25L685.5 482.25L685.5 481.5L106.5 481.5zM106.5 512.25L685.5 512.25L685.5 511.5L106.5 511.5zM106.5 528.75L685.5 528.75L685.5 528L106.5 528zM106.5 558.75L685.5 558.75L685.5 558L106.5 558zM685.5 403.5L685.5 387.75L684.75 387.75L684.75 403.5zM685.5 435L685.5 404.25L684.75 404.25L684.75 435zM685.5 451.5L685.5 435.75L684.75 435.75L684.75 451.5zM685.5 481.5L685.5 452.25L684.75 452.25L684.75 481.5zM685.5 511.5L685.5 482.25L684.75 482.25L684.75 511.5zM685.5 528L685.5 512.25L684.75 512.25L684.75 528zM685.5 558L685.5 528.75L684.75 528.75L684.75 558zM615 403.5L615 387.75L614.25 387.75L614.25 403.5zM615 435L615 404.25L614.25 404.25L614.25 435zM615 451.5L615 435.75L614.25 435.75L614.25 451.5zM615 481.5L615 452.25L614.25 452.25L614.25 481.5zM615 511.5L615 482.25L614.25 482.25L614.25 511.5zM615 528L615 512.25L614.25 512.25L614.25 528zM615 558L615 528.75L614.25 528.75L614.25 558zM237.75 403.5L237.75 387.75L237 387.75L237 403.5zM237.75 435L237.75 404.25L237 404.25L237 435zM237.75 451.5L237.75 435.75L237 435.75L237 451.5zM237.75 481.5L237.75 452.25L237 452.25L237 481.5zM237.75 511.5L237.75 482.25L237 482.25L237 511.5zM237.75 528L237.75 512.25L237 512.25L237 528zM237.75 558L237.75 528.75L237 528.75L237 558zM141 403.5L141 387.75L140.25 387.75L140.25 403.5zM141 435L141 404.25L140.25 404.25L140.25 435zM141 451.5L141 435.75L140.25 435.75L140.25 451.5zM141 481.5L141 452.25L140.25 452.25L140.25 481.5zM141 511.5L141 482.25L140.25 482.25L140.25 511.5zM141 528L141 512.25L140.25 512.25L140.25 528zM141 558L141 528.75L140.25 528.75L140.25 558zM107.25 403.5L107.25 387.75L106.5 387.75L106.5 403.5zM107.25 435L107.25 404.25L106.5 404.25L106.5 435zM107.25 451.5L107.25 435.75L106.5 435.75L106.5 451.5zM107.25 481.5L107.25 452.25L106.5 452.25L106.5 481.5zM107.25 511.5L107.25 482.25L106.5 482.25L106.5 511.5zM107.25 528L107.25 512.25L106.5 512.25L106.5 528zM107.25 558L107.25 528.75L106.5 528.75L106.5 558z" stroke="none" fill="#000000" fill-rule="nonzero" fill-opacity="0.1490196" /><path id="192" transform="matrix(1 0 0 -1 0 612)" d="M240 544.8047L599.6486 544.8047" stroke="#000000" stroke-width="0.7017334" fill="none" /><path id="200" transform="matrix(1 0 0 -1 0 612)" d="M240 531.7158L275.8853 531.7158" stroke="#000000" stroke-width="0.7017334" fill="none" /><path id="275" transform="matrix(1 0 0 -1 0 612)" d="M240 515.2158L532.6269 515.2158" stroke="#000000" stroke-width="0.7017334" fill="none" /><path id="358" transform="matrix(1 0 0 -1 0 612)" d="M240 498.3047L573.9938 498.3047" stroke="#000000" stroke-width="0.7017334" fill="none" /><path id="386" transform="matrix(1 0 0 -1 0 612)" d="M240 485.2158L371.2635 485.2158" stroke="#000000" stroke-width="0.7017334" fill="none" /><path id="471" transform="matrix(1 0 0 -1 0 612)" d="M240 468.3047L605.3607 468.3047" stroke="#000000" stroke-width="0.7017334" fill="none" /><path id="479" transform="matrix(1 0 0 -1 0 612)" d="M240 455.2158L279.9429 455.2158" stroke="#000000" stroke-width="0.7017334" fill="none" /><path id="528" transform="matrix(1 0 0 -1 0 612)" d="M240 438.7158L386.981 438.7158" stroke="#000000" stroke-width="0.7017334" fill="none" /><path id="608" transform="matrix(1 0 0 -1 0 612)" d="M240 421.9697L593.8371 421.9697" stroke="#000000" stroke-width="0.7017334" fill="none" /><path id="672" transform="matrix(1 0 0 -1 0 612)" d="M240 407.2158L569.6588 407.2158" stroke="#000000" stroke-width="0.7017334" fill="none" /><path id="674" transform="matrix(1 0 0 -1 0 612)" d="M569.6588 407.2939L580.3815 407.2939" stroke="#000000" stroke-width="0.7855225" fill="none" /><path id="746" transform="matrix(1 0 0 -1 0 612)" d="M240 390.7158L527.2236 390.7158" stroke="#000000" stroke-width="0.7017334" fill="none" /></g></g></g></svg>