<svg xmlns="http://www.w3.org/2000/svg" xmlns:xlink="http://www.w3.org/1999/xlink" id="body_10" preserveAspectRatio="xMinYMin meet" viewBox="0 0 1056 816"><defs><clipPath id="1"><path id="" clip-rule="evenodd" transform="matrix(1 0 0 1 0 0)" d="M0 612L0 0L0 0L792 0L792 0L792 612L792 612L0 612z" /></clipPath><clipPath id="2"><path id="" clip-rule="evenodd" transform="matrix(1 0 0 1 0 0)" d="M105.75 52.5L686.25 52.5L686.25 52.5L686.25 548.25L686.25 548.25L105.75 548.25L105.75 548.25L105.75 52.5z" /></clipPath></defs><g transform="matrix(1.333333 0 0 1.333333 0 0)"><g clip-path="url(#1)"><g clip-path="url(#2)"><path id="102" transform="matrix(1 0 0 -1 0 612)" d="M106.5 558.75L685.5 558.75L685.5 528L106.5 528L106.5 558.75z" stroke="none" fill="#E0F7FA" fill-rule="nonzero" /><path id="103" transform="matrix(1 0 0 -1 0 612)" d="M106.5 528.75L685.5 528.75L685.5 511.5L106.5 511.5L106.5 528.75z" stroke="none" fill="#FFFFFF" fill-rule="nonzero" /><path id="104" transform="matrix(1 0 0 -1 0 612)" d="M106.5 512.25L685.5 512.25L685.5 495L106.5 495L106.5 512.25z" stroke="none" fill="#E0F7FA" fill-rule="nonzero" /><path id="105" transform="matrix(1 0 0 -1 0 612)" d="M106.5 495.75L685.5 495.75L685.5 478.5L106.5 478.5L106.5 495.75z" stroke="none" fill="#FFFFFF" fill-rule="nonzero" /><path id="106" transform="matrix(1 0 0 -1 0 612)" d="M106.5 479.25L685.5 479.25L685.5 462L106.5 462L106.5 479.25z" stroke="none" fill="#E0F7FA" fill-rule="nonzero" /><path id="107" transform="matrix(1 0 0 -1 0 612)" d="M106.5 462.75L685.5 462.75L685.5 432L106.5 432L106.5 462.75z" stroke="none" fill="#FFFFFF" fill-rule="nonzero" /><path id="108" transform="matrix(1 0 0 -1 0 612)" d="M106.5 432.75L685.5 432.75L685.5 415.5L106.5 415.5L106.5 432.75z" stroke="none" fill="#E0F7FA" fill-rule="nonzero" /><path id="109" transform="matrix(1 0 0 -1 0 612)" d="M106.5 416.25L685.5 416.25L685.5 399L106.5 399L106.5 416.25z" stroke="none" fill="#FFFFFF" fill-rule="nonzero" /><path id="110" transform="matrix(1 0 0 -1 0 612)" d="M106.5 399.75L685.5 399.75L685.5 382.5L106.5 382.5L106.5 399.75z" stroke="none" fill="#E0F7FA" fill-rule="nonzero" /><path id="111" transform="matrix(1 0 0 -1 0 612)" d="M106.5 383.25L685.5 383.25L685.5 366L106.5 366L106.5 383.25z" stroke="none" fill="#FFFFFF" fill-rule="nonzero" /><path id="112" transform="matrix(1 0 0 -1 0 612)" d="M106.5 366.75L685.5 366.75L685.5 349.5L106.5 349.5L106.5 366.75z" stroke="none" fill="#E0F7FA" fill-rule="nonzero" /><path id="113" transform="matrix(1 0 0 -1 0 612)" d="M106.5 350.25L685.5 350.25L685.5 333L106.5 333L106.5 350.25z" stroke="none" fill="#FFFFFF" fill-rule="nonzero" /><path id="114" transform="matrix(1 0 0 -1 0 612)" d="M106.5 333.75L685.5 333.75L685.5 316.5L106.5 316.5L106.5 333.75z" stroke="none" fill="#E0F7FA" fill-rule="nonzero" /><path id="115" transform="matrix(1 0 0 -1 0 612)" d="M106.5 317.25L685.5 317.25L685.5 300L106.5 300L106.5 317.25z" stroke="none" fill="#FFFFFF" fill-rule="nonzero" /><path id="116" transform="matrix(1 0 0 -1 0 612)" d="M106.5 300.75L685.5 300.75L685.5 283.5L106.5 283.5L106.5 300.75z" stroke="none" fill="#E0F7FA" fill-rule="nonzero" /><path id="117" transform="matrix(1 0 0 -1 0 612)" d="M106.5 284.25L685.5 284.25L685.5 253.5L106.5 253.5L106.5 284.25z" stroke="none" fill="#FFFFFF" fill-rule="nonzero" /><path id="118" transform="matrix(1 0 0 -1 0 612)" d="M106.5 254.25L685.5 254.25L685.5 237L106.5 237L106.5 254.25z" stroke="none" fill="#E0F7FA" fill-rule="nonzero" /><path id="119" transform="matrix(1 0 0 -1 0 612)" d="M106.5 237.75L685.5 237.75L685.5 207L106.5 207L106.5 237.75z" stroke="none" fill="#FFFFFF" fill-rule="nonzero" /><path id="120" transform="matrix(1 0 0 -1 0 612)" d="M106.5 207.75L685.5 207.75L685.5 190.5L106.5 190.5L106.5 207.75z" stroke="none" fill="#E0F7FA" fill-rule="nonzero" /><path id="121" transform="matrix(1 0 0 -1 0 612)" d="M106.5 191.25L685.5 191.25L685.5 174L106.5 174L106.5 191.25z" stroke="none" fill="#FFFFFF" fill-rule="nonzero" /><path id="122" transform="matrix(1 0 0 -1 0 612)" d="M106.5 174.75L685.5 174.75L685.5 157.5L106.5 157.5L106.5 174.75z" stroke="none" fill="#E0F7FA" fill-rule="nonzero" /><path id="123" transform="matrix(1 0 0 -1 0 612)" d="M106.5 158.25L685.5 158.25L685.5 127.5L106.5 127.5L106.5 158.25z" stroke="none" fill="#FFFFFF" fill-rule="nonzero" /><path id="124" transform="matrix(1 0 0 -1 0 612)" d="M106.5 128.25L685.5 128.25L685.5 111L106.5 111L106.5 128.25z" stroke="none" fill="#E0F7FA" fill-rule="nonzero" /><path id="125" transform="matrix(1 0 0 -1 0 612)" d="M106.5 111.75L685.5 111.75L685.5 81L106.5 81L106.5 111.75z" stroke="none" fill="#FFFFFF" fill-rule="nonzero" /><path id="126" transform="matrix(1 0 0 -1 0 612)" d="M106.5 81.75L685.5 81.75L685.5 64.5L106.5 64.5L106.5 81.75z" stroke="none" fill="#E0F7FA" fill-rule="nonzero" /><path id="127" transform="matrix(1 0 0 -1 0 612)" d="M106.5 65.25L685.5 65.25L685.5 64.5L106.5 64.5zM106.5 81.75L685.5 81.75L685.5 81L106.5 81zM106.5 111.75L685.5 111.75L685.5 111L106.5 111zM106.5 128.25L685.5 128.25L685.5 127.5L106.5 127.5zM106.5 158.25L685.5 158.25L685.5 157.5L106.5 157.5zM106.5 174.75L685.5 174.75L685.5 174L106.5 174zM106.5 191.25L685.5 191.25L685.5 190.5L106.5 190.5zM106.5 207.75L685.5 207.75L685.5 207L106.5 207zM106.5 237.75L685.5 237.75L685.5 237L106.5 237zM106.5 254.25L685.5 254.25L685.5 253.5L106.5 253.5zM106.5 284.25L685.5 284.25L685.5 283.5L106.5 283.5zM106.5 300.75L685.5 300.75L685.5 300L106.5 300zM106.5 317.25L685.5 317.25L685.5 316.5L106.5 316.5zM106.5 333.75L685.5 333.75L685.5 333L106.5 333zM106.5 350.25L685.5 350.25L685.5 349.5L106.5 349.5zM106.5 366.75L685.5 366.75L685.5 366L106.5 366zM106.5 383.25L685.5 383.25L685.5 382.5L106.5 382.5zM106.5 399.75L685.5 399.75L685.5 399L106.5 399zM106.5 416.25L685.5 416.25L685.5 415.5L106.5 415.5zM106.5 432.75L685.5 432.75L685.5 432L106.5 432zM106.5 462.75L685.5 462.75L685.5 462L106.5 462zM106.5 479.25L685.5 479.25L685.5 478.5L106.5 478.5zM106.5 495.75L685.5 495.75L685.5 495L106.5 495zM106.5 512.25L685.5 512.25L685.5 511.5L106.5 511.5zM106.5 528.75L685.5 528.75L685.5 528L106.5 528zM106.5 558.75L685.5 558.75L685.5 558L106.5 558zM685.5 81L685.5 65.25L684.75 65.25L684.75 81zM685.5 111L685.5 81.75L684.75 81.75L684.75 111zM685.5 127.5L685.5 111.75L684.75 111.75L684.75 127.5zM685.5 157.5L685.5 128.25L684.75 128.25L684.75 157.5zM685.5 174L685.5 158.25L684.75 158.25L684.75 174zM685.5 190.5L685.5 174.75L684.75 174.75L684.75 190.5zM685.5 207L685.5 191.25L684.75 191.25L684.75 207zM685.5 237L685.5 207.75L684.75 207.75L684.75 237zM685.5 253.5L685.5 237.75L684.75 237.75L684.75 253.5zM685.5 283.5L685.5 254.25L684.75 254.25L684.75 283.5zM685.5 300L685.5 284.25L684.75 284.25L684.75 300zM685.5 316.5L685.5 300.75L684.75 300.75L684.75 316.5zM685.5 333L685.5 317.25L684.75 317.25L684.75 333zM685.5 349.5L685.5 333.75L684.75 333.75L684.75 349.5zM685.5 366L685.5 350.25L684.75 350.25L684.75 366zM685.5 382.5L685.5 366.75L684.75 366.75L684.75 382.5zM685.5 399L685.5 383.25L684.75 383.25L684.75 399zM685.5 415.5L685.5 399.75L684.75 399.75L684.75 415.5zM685.5 432L685.5 416.25L684.75 416.25L684.75 432zM685.5 462L685.5 432.75L684.75 432.75L684.75 462zM685.5 478.5L685.5 462.75L684.75 462.75L684.75 478.5zM685.5 495L685.5 479.25L684.75 479.25L684.75 495zM685.5 511.5L685.5 495.75L684.75 495.75L684.75 511.5zM685.5 528L685.5 512.25L684.75 512.25L684.75 528zM685.5 558L685.5 528.75L684.75 528.75L684.75 558zM615 81L615 65.25L614.25 65.25L614.25 81zM615 111L615 81.75L614.25 81.75L614.25 111zM615 127.5L615 111.75L614.25 111.75L614.25 127.5zM615 157.5L615 128.25L614.25 128.25L614.25 157.5zM615 174L615 158.25L614.25 158.25L614.25 174zM615 190.5L615 174.75L614.25 174.75L614.25 190.5zM615 207L615 191.25L614.25 191.25L614.25 207zM615 237L615 207.75L614.25 207.75L614.25 237zM615 253.5L615 237.75L614.25 237.75L614.25 253.5zM615 283.5L615 254.25L614.25 254.25L614.25 283.5zM615 300L615 284.25L614.25 284.25L614.25 300zM615 316.5L615 300.75L614.25 300.75L614.25 316.5zM615 333L615 317.25L614.25 317.25L614.25 333zM615 349.5L615 333.75L614.25 333.75L614.25 349.5zM615 366L615 350.25L614.25 350.25L614.25 366zM615 382.5L615 366.75L614.25 366.75L614.25 382.5zM615 399L615 383.25L614.25 383.25L614.25 399zM615 415.5L615 399.75L614.25 399.75L614.25 415.5zM615 432L615 416.25L614.25 416.25L614.25 432zM615 462L615 432.75L614.25 432.75L614.25 462zM615 478.5L615 462.75L614.25 462.75L614.25 478.5zM615 495L615 479.25L614.25 479.25L614.25 495zM615 511.5L615 495.75L614.25 495.75L614.25 511.5zM615 528L615 512.25L614.25 512.25L614.25 528zM615 558L615 528.75L614.25 528.75L614.25 558zM237.75 81L237.75 65.25L237 65.25L237 81zM237.75 111L237.75 81.75L237 81.75L237 111zM237.75 127.5L237.75 111.75L237 111.75L237 127.5zM237.75 157.5L237.75 128.25L237 128.25L237 157.5zM237.75 174L237.75 158.25L237 158.25L237 174zM237.75 190.5L237.75 174.75L237 174.75L237 190.5zM237.75 207L237.75 191.25L237 191.25L237 207zM237.75 237L237.75 207.75L237 207.75L237 237zM237.75 253.5L237.75 237.75L237 237.75L237 253.5zM237.75 283.5L237.75 254.25L237 254.25L237 283.5zM237.75 300L237.75 284.25L237 284.25L237 300zM237.75 316.5L237.75 300.75L237 300.75L237 316.5zM237.75 333L237.75 317.25L237 317.25L237 333zM237.75 349.5L237.75 333.75L237 333.75L237 349.5zM237.75 366L237.75 350.25L237 350.25L237 366zM237.75 382.5L237.75 366.75L237 366.75L237 382.5zM237.75 399L237.75 383.25L237 383.25L237 399zM237.75 415.5L237.75 399.75L237 399.75L237 415.5zM237.75 432L237.75 416.25L237 416.25L237 432zM237.75 462L237.75 432.75L237 432.75L237 462zM237.75 478.5L237.75 462.75L237 462.75L237 478.5zM237.75 495L237.75 479.25L237 479.25L237 495zM237.75 511.5L237.75 495.75L237 495.75L237 511.5zM237.75 528L237.75 512.25L237 512.25L237 528zM237.75 558L237.75 528.75L237 528.75L237 558zM141 81L141 65.25L140.25 65.25L140.25 81zM141 111L141 81.75L140.25 81.75L140.25 111zM141 127.5L141 111.75L140.25 111.75L140.25 127.5zM141 157.5L141 128.25L140.25 128.25L140.25 157.5zM141 174L141 158.25L140.25 158.25L140.25 174zM141 190.5L141 174.75L140.25 174.75L140.25 190.5zM141 207L141 191.25L140.25 191.25L140.25 207zM141 237L141 207.75L140.25 207.75L140.25 237zM141 253.5L141 237.75L140.25 237.75L140.25 253.5zM141 283.5L141 254.25L140.25 254.25L140.25 283.5zM141 300L141 284.25L140.25 284.25L140.25 300zM141 316.5L141 300.75L140.25 300.75L140.25 316.5zM141 333L141 317.25L140.25 317.25L140.25 333zM141 349.5L141 333.75L140.25 333.75L140.25 349.5zM141 366L141 350.25L140.25 350.25L140.25 366zM141 382.5L141 366.75L140.25 366.75L140.25 382.5zM141 399L141 383.25L140.25 383.25L140.25 399zM141 415.5L141 399.75L140.25 399.75L140.25 415.5zM141 432L141 416.25L140.25 416.25L140.25 432zM141 462L141 432.75L140.25 432.75L140.25 462zM141 478.5L141 462.75L140.25 462.75L140.25 478.5zM141 495L141 479.25L140.25 479.25L140.25 495zM141 511.5L141 495.75L140.25 495.75L140.25 511.5zM141 528L141 512.25L140.25 512.25L140.25 528zM141 558L141 528.75L140.25 528.75L140.25 558zM107.25 81L107.25 65.25L106.5 65.25L106.5 81zM107.25 111L107.25 81.75L106.5 81.75L106.5 111zM107.25 127.5L107.25 111.75L106.5 111.75L106.5 127.5zM107.25 157.5L107.25 128.25L106.5 128.25L106.5 157.5zM107.25 174L107.25 158.25L106.5 158.25L106.5 174zM107.25 190.5L107.25 174.75L106.5 174.75L106.5 190.5zM107.25 207L107.25 191.25L106.5 191.25L106.5 207zM107.25 237L107.25 207.75L106.5 207.75L106.5 237zM107.25 253.5L107.25 237.75L106.5 237.75L106.5 253.5zM107.25 283.5L107.25 254.25L106.5 254.25L106.5 283.5zM107.25 300L107.25 284.25L106.5 284.25L106.5 300zM107.25 316.5L107.25 300.75L106.5 300.75L106.5 316.5zM107.25 333L107.25 317.25L106.5 317.25L106.5 333zM107.25 349.5L107.25 333.75L106.5 333.75L106.5 349.5zM107.25 366L107.25 350.25L106.5 350.25L106.5 366zM107.25 382.5L107.25 366.75L106.5 366.75L106.5 382.5zM107.25 399L107.25 383.25L106.5 383.25L106.5 399zM107.25 415.5L107.25 399.75L106.5 399.75L106.5 415.5zM107.25 432L107.25 416.25L106.5 416.25L106.5 432zM107.25 462L107.25 432.75L106.5 432.75L106.5 462zM107.25 478.5L107.25 462.75L106.5 462.75L106.5 478.5zM107.25 495L107.25 479.25L106.5 479.25L106.5 495zM107.25 511.5L107.25 495.75L106.5 495.75L106.5 511.5zM107.25 528L107.25 512.25L106.5 512.25L106.5 528zM107.25 558L107.25 528.75L106.5 528.75L106.5 558z" stroke="none" fill="#000000" fill-rule="nonzero" fill-opacity="0.1490196" /><path id="220" transform="matrix(1 0 0 -1 0 612)" d="M240 544.8047L611.0308 544.8047" stroke="#000000" stroke-width="0.7017334" fill="none" /><path id="274" transform="matrix(1 0 0 -1 0 612)" d="M240 531.7158L517.2286 531.7158" stroke="#000000" stroke-width="0.7017334" fill="none" /><path id="353" transform="matrix(1 0 0 -1 0 612)" d="M240 515.2158L515.9407 515.2158" stroke="#000000" stroke-width="0.7017334" fill="none" /><path id="426" transform="matrix(1 0 0 -1 0 612)" d="M240 498.7158L514.5532 498.7158" stroke="#000000" stroke-width="0.7017334" fill="none" /><path id="502" transform="matrix(1 0 0 -1 0 612)" d="M240 482.2158L550.7682 482.2158" stroke="#000000" stroke-width="0.7017334" fill="none" /><path id="559" transform="matrix(1 0 0 -1 0 612)" d="M240 465.7158L414.7037 465.7158" stroke="#000000" stroke-width="0.7017334" fill="none" /><path id="622" transform="matrix(1 0 0 -1 0 612)" d="M240 435.7158L401.8712 435.7158" stroke="#000000" stroke-width="0.7017334" fill="none" /><path id="684" transform="matrix(1 0 0 -1 0 612)" d="M240 419.2158L459.6679 419.2158" stroke="#000000" stroke-width="0.7017334" fill="none" /><path id="761" transform="matrix(1 0 0 -1 0 612)" d="M240 402.7158L552.2188 402.7158" stroke="#000000" stroke-width="0.7017334" fill="none" /><path id="803" transform="matrix(1 0 0 -1 0 612)" d="M240 386.2158L353.012 386.2158" stroke="#000000" stroke-width="0.7017334" fill="none" /><path id="883" transform="matrix(1 0 0 -1 0 612)" d="M240 369.7158L600.1565 369.7158" stroke="#000000" stroke-width="0.7017334" fill="none" /><path id="947" transform="matrix(1 0 0 -1 0 612)" d="M240 353.2158L479.5267 353.2158" stroke="#000000" stroke-width="0.7017334" fill="none" /><path id="1005" transform="matrix(1 0 0 -1 0 612)" d="M240 336.7158L441.1753 336.7158" stroke="#000000" stroke-width="0.7017334" fill="none" /><path id="1096" transform="matrix(1 0 0 -1 0 612)" d="M240 320.2158L591.5649 320.2158" stroke="#000000" stroke-width="0.7017334" fill="none" /><path id="1183" transform="matrix(1 0 0 -1 0 612)" d="M240 303.7158L559.8574 303.7158" stroke="#000000" stroke-width="0.7017334" fill="none" /><path id="1244" transform="matrix(1 0 0 -1 0 612)" d="M240 287.2158L494.8618 287.2158" stroke="#000000" stroke-width="0.7017334" fill="none" /><path id="1331" transform="matrix(1 0 0 -1 0 612)" d="M240 257.2158L537.7944 257.2158" stroke="#000000" stroke-width="0.7017334" fill="none" /><path id="1402" transform="matrix(1 0 0 -1 0 612)" d="M240 240.7158L509.7627 240.7158" stroke="#000000" stroke-width="0.7017334" fill="none" /><path id="1482" transform="matrix(1 0 0 -1 0 612)" d="M240 223.8047L589.0413 223.8047" stroke="#000000" stroke-width="0.7017334" fill="none" /><path id="1498" transform="matrix(1 0 0 -1 0 612)" d="M240 210.7158L313.0691 210.7158" stroke="#000000" stroke-width="0.7017334" fill="none" /><path id="1574" transform="matrix(1 0 0 -1 0 612)" d="M240 194.2158L523.4277 194.2158" stroke="#000000" stroke-width="0.7017334" fill="none" /><path id="1668" transform="matrix(1 0 0 -1 0 612)" d="M240 177.7158L578.8683 177.7158" stroke="#000000" stroke-width="0.7017334" fill="none" /><path id="1720" transform="matrix(1 0 0 -1 0 612)" d="M240 161.2158L415.0284 161.2158" stroke="#000000" stroke-width="0.7017334" fill="none" /><path id="1798" transform="matrix(1 0 0 -1 0 612)" d="M240 144.3047L594.6068 144.3047" stroke="#000000" stroke-width="0.7017334" fill="none" /><path id="1812" transform="matrix(1 0 0 -1 0 612)" d="M240 131.2158L306.1788 131.2158" stroke="#000000" stroke-width="0.7017334" fill="none" /><path id="1893" transform="matrix(1 0 0 -1 0 612)" d="M240 114.7158L565.5174 114.7158" stroke="#000000" stroke-width="0.7017334" fill="none" /><path id="1975" transform="matrix(1 0 0 -1 0 612)" d="M240 97.80469L589.8685 97.80469" stroke="#000000" stroke-width="0.7017334" fill="none" /><path id="1986" transform="matrix(1 0 0 -1 0 612)" d="M240 84.71582L291.5922 84.71582" stroke="#000000" stroke-width="0.7017334" fill="none" /><path id="2066" transform="matrix(1 0 0 -1 0 612)" d="M240 68.21582L508.3908 68.21582" stroke="#000000" stroke-width="0.7017334" fill="none" /></g></g></g></svg>