<svg xmlns="http://www.w3.org/2000/svg" xmlns:xlink="http://www.w3.org/1999/xlink" id="body_13" preserveAspectRatio="xMinYMin meet" viewBox="0 0 1056 816"><defs><clipPath id="1"><path id="" clip-rule="evenodd" transform="matrix(1 0 0 1 0 0)" d="M0 612L0 0L0 0L792 0L792 0L792 612L792 612L0 612z" /></clipPath><clipPath id="2"><path id="" clip-rule="evenodd" transform="matrix(1 0 0 1 0 0)" d="M105.75 52.5L686.25 52.5L686.25 52.5L686.25 549L686.25 549L105.75 549L105.75 549L105.75 52.5z" /></clipPath></defs><g transform="matrix(1.333333 0 0 1.333333 0 0)"><g clip-path="url(#1)"><g clip-path="url(#2)"><path id="102" transform="matrix(1 0 0 -1 0 612)" d="M106.5 558.75L685.5 558.75L685.5 528L106.5 528L106.5 558.75z" stroke="none" fill="#E0F7FA" fill-rule="nonzero" /><path id="103" transform="matrix(1 0 0 -1 0 612)" d="M106.5 528.75L685.5 528.75L685.5 485.25L106.5 485.25L106.5 528.75z" stroke="none" fill="#FFFFFF" fill-rule="nonzero" /><path id="104" transform="matrix(1 0 0 -1 0 612)" d="M106.5 486L685.5 486L685.5 455.25L106.5 455.25L106.5 486z" stroke="none" fill="#E0F7FA" fill-rule="nonzero" /><path id="105" transform="matrix(1 0 0 -1 0 612)" d="M106.5 456L685.5 456L685.5 438.75L106.5 438.75L106.5 456z" stroke="none" fill="#FFFFFF" fill-rule="nonzero" /><path id="106" transform="matrix(1 0 0 -1 0 612)" d="M106.5 439.5L685.5 439.5L685.5 408.75L106.5 408.75L106.5 439.5z" stroke="none" fill="#E0F7FA" fill-rule="nonzero" /><path id="107" transform="matrix(1 0 0 -1 0 612)" d="M106.5 409.5L685.5 409.5L685.5 392.25L106.5 392.25L106.5 409.5z" stroke="none" fill="#FFFFFF" fill-rule="nonzero" /><path id="108" transform="matrix(1 0 0 -1 0 612)" d="M106.5 393L685.5 393L685.5 375.75L106.5 375.75L106.5 393z" stroke="none" fill="#E0F7FA" fill-rule="nonzero" /><path id="109" transform="matrix(1 0 0 -1 0 612)" d="M106.5 376.5L685.5 376.5L685.5 345.75L106.5 345.75L106.5 376.5z" stroke="none" fill="#FFFFFF" fill-rule="nonzero" /><path id="110" transform="matrix(1 0 0 -1 0 612)" d="M106.5 346.5L685.5 346.5L685.5 329.25L106.5 329.25L106.5 346.5z" stroke="none" fill="#E0F7FA" fill-rule="nonzero" /><path id="111" transform="matrix(1 0 0 -1 0 612)" d="M106.5 330L685.5 330L685.5 312.75L106.5 312.75L106.5 330z" stroke="none" fill="#FFFFFF" fill-rule="nonzero" /><path id="112" transform="matrix(1 0 0 -1 0 612)" d="M106.5 313.5L685.5 313.5L685.5 282.75L106.5 282.75L106.5 313.5z" stroke="none" fill="#E0F7FA" fill-rule="nonzero" /><path id="113" transform="matrix(1 0 0 -1 0 612)" d="M106.5 283.5L685.5 283.5L685.5 266.25L106.5 266.25L106.5 283.5z" stroke="none" fill="#FFFFFF" fill-rule="nonzero" /><path id="114" transform="matrix(1 0 0 -1 0 612)" d="M106.5 267L685.5 267L685.5 249.75L106.5 249.75L106.5 267z" stroke="none" fill="#E0F7FA" fill-rule="nonzero" /><path id="115" transform="matrix(1 0 0 -1 0 612)" d="M106.5 250.5L685.5 250.5L685.5 233.25L106.5 233.25L106.5 250.5z" stroke="none" fill="#FFFFFF" fill-rule="nonzero" /><path id="116" transform="matrix(1 0 0 -1 0 612)" d="M106.5 234L685.5 234L685.5 216.75L106.5 216.75L106.5 234z" stroke="none" fill="#E0F7FA" fill-rule="nonzero" /><path id="117" transform="matrix(1 0 0 -1 0 612)" d="M106.5 217.5L685.5 217.5L685.5 200.25L106.5 200.25L106.5 217.5z" stroke="none" fill="#FFFFFF" fill-rule="nonzero" /><path id="118" transform="matrix(1 0 0 -1 0 612)" d="M106.5 201L685.5 201L685.5 170.25L106.5 170.25L106.5 201z" stroke="none" fill="#E0F7FA" fill-rule="nonzero" /><path id="119" transform="matrix(1 0 0 -1 0 612)" d="M106.5 171L685.5 171L685.5 140.25L106.5 140.25L106.5 171z" stroke="none" fill="#FFFFFF" fill-rule="nonzero" /><path id="120" transform="matrix(1 0 0 -1 0 612)" d="M106.5 141L685.5 141L685.5 110.25L106.5 110.25L106.5 141z" stroke="none" fill="#E0F7FA" fill-rule="nonzero" /><path id="121" transform="matrix(1 0 0 -1 0 612)" d="M106.5 111L685.5 111L685.5 93.75L106.5 93.75L106.5 111z" stroke="none" fill="#FFFFFF" fill-rule="nonzero" /><path id="122" transform="matrix(1 0 0 -1 0 612)" d="M106.5 94.5L685.5 94.5L685.5 63.75L106.5 63.75L106.5 94.5z" stroke="none" fill="#E0F7FA" fill-rule="nonzero" /><path id="123" transform="matrix(1 0 0 -1 0 612)" d="M106.5 64.5L685.5 64.5L685.5 63.75L106.5 63.75zM106.5 94.5L685.5 94.5L685.5 93.75L106.5 93.75zM106.5 111L685.5 111L685.5 110.25L106.5 110.25zM106.5 141L685.5 141L685.5 140.25L106.5 140.25zM106.5 171L685.5 171L685.5 170.25L106.5 170.25zM106.5 201L685.5 201L685.5 200.25L106.5 200.25zM106.5 217.5L685.5 217.5L685.5 216.75L106.5 216.75zM106.5 234L685.5 234L685.5 233.25L106.5 233.25zM106.5 250.5L685.5 250.5L685.5 249.75L106.5 249.75zM106.5 267L685.5 267L685.5 266.25L106.5 266.25zM106.5 283.5L685.5 283.5L685.5 282.75L106.5 282.75zM106.5 313.5L685.5 313.5L685.5 312.75L106.5 312.75zM106.5 330L685.5 330L685.5 329.25L106.5 329.25zM106.5 346.5L685.5 346.5L685.5 345.75L106.5 345.75zM106.5 376.5L685.5 376.5L685.5 375.75L106.5 375.75zM106.5 393L685.5 393L685.5 392.25L106.5 392.25zM106.5 409.5L685.5 409.5L685.5 408.75L106.5 408.75zM106.5 439.5L685.5 439.5L685.5 438.75L106.5 438.75zM106.5 456L685.5 456L685.5 455.25L106.5 455.25zM106.5 486L685.5 486L685.5 485.25L106.5 485.25zM106.5 528.75L685.5 528.75L685.5 528L106.5 528zM106.5 558.75L685.5 558.75L685.5 558L106.5 558zM685.5 93.75L685.5 64.5L684.75 64.5L684.75 93.75zM685.5 110.25L685.5 94.5L684.75 94.5L684.75 110.25zM685.5 140.25L685.5 111L684.75 111L684.75 140.25zM685.5 170.25L685.5 141L684.75 141L684.75 170.25zM685.5 200.25L685.5 171L684.75 171L684.75 200.25zM685.5 216.75L685.5 201L684.75 201L684.75 216.75zM685.5 233.25L685.5 217.5L684.75 217.5L684.75 233.25zM685.5 249.75L685.5 234L684.75 234L684.75 249.75zM685.5 266.25L685.5 250.5L684.75 250.5L684.75 266.25zM685.5 282.75L685.5 267L684.75 267L684.75 282.75zM685.5 312.75L685.5 283.5L684.75 283.5L684.75 312.75zM685.5 329.25L685.5 313.5L684.75 313.5L684.75 329.25zM685.5 345.75L685.5 330L684.75 330L684.75 345.75zM685.5 375.75L685.5 346.5L684.75 346.5L684.75 375.75zM685.5 392.25L685.5 376.5L684.75 376.5L684.75 392.25zM685.5 408.75L685.5 393L684.75 393L684.75 408.75zM685.5 438.75L685.5 409.5L684.75 409.5L684.75 438.75zM685.5 455.25L685.5 439.5L684.75 439.5L684.75 455.25zM685.5 485.25L685.5 456L684.75 456L684.75 485.25zM685.5 528L685.5 486L684.75 486L684.75 528zM685.5 558L685.5 528.75L684.75 528.75L684.75 558zM615 93.75L615 64.5L614.25 64.5L614.25 93.75zM615 110.25L615 94.5L614.25 94.5L614.25 110.25zM615 140.25L615 111L614.25 111L614.25 140.25zM615 170.25L615 141L614.25 141L614.25 170.25zM615 200.25L615 171L614.25 171L614.25 200.25zM615 216.75L615 201L614.25 201L614.25 216.75zM615 233.25L615 217.5L614.25 217.5L614.25 233.25zM615 249.75L615 234L614.25 234L614.25 249.75zM615 266.25L615 250.5L614.25 250.5L614.25 266.25zM615 282.75L615 267L614.25 267L614.25 282.75zM615 312.75L615 283.5L614.25 283.5L614.25 312.75zM615 329.25L615 313.5L614.25 313.5L614.25 329.25zM615 345.75L615 330L614.25 330L614.25 345.75zM615 375.75L615 346.5L614.25 346.5L614.25 375.75zM615 392.25L615 376.5L614.25 376.5L614.25 392.25zM615 408.75L615 393L614.25 393L614.25 408.75zM615 438.75L615 409.5L614.25 409.5L614.25 438.75zM615 455.25L615 439.5L614.25 439.5L614.25 455.25zM615 485.25L615 456L614.25 456L614.25 485.25zM615 528L615 486L614.25 486L614.25 528zM615 558L615 528.75L614.25 528.75L614.25 558zM237.75 93.75L237.75 64.5L237 64.5L237 93.75zM237.75 110.25L237.75 94.5L237 94.5L237 110.25zM237.75 140.25L237.75 111L237 111L237 140.25zM237.75 170.25L237.75 141L237 141L237 170.25zM237.75 200.25L237.75 171L237 171L237 200.25zM237.75 216.75L237.75 201L237 201L237 216.75zM237.75 233.25L237.75 217.5L237 217.5L237 233.25zM237.75 249.75L237.75 234L237 234L237 249.75zM237.75 266.25L237.75 250.5L237 250.5L237 266.25zM237.75 282.75L237.75 267L237 267L237 282.75zM237.75 312.75L237.75 283.5L237 283.5L237 312.75zM237.75 329.25L237.75 313.5L237 313.5L237 329.25zM237.75 345.75L237.75 330L237 330L237 345.75zM237.75 375.75L237.75 346.5L237 346.5L237 375.75zM237.75 392.25L237.75 376.5L237 376.5L237 392.25zM237.75 408.75L237.75 393L237 393L237 408.75zM237.75 438.75L237.75 409.5L237 409.5L237 438.75zM237.75 455.25L237.75 439.5L237 439.5L237 455.25zM237.75 485.25L237.75 456L237 456L237 485.25zM237.75 528L237.75 486L237 486L237 528zM237.75 558L237.75 528.75L237 528.75L237 558zM141 93.75L141 64.5L140.25 64.5L140.25 93.75zM141 110.25L141 94.5L140.25 94.5L140.25 110.25zM141 140.25L141 111L140.25 111L140.25 140.25zM141 170.25L141 141L140.25 141L140.25 170.25zM141 200.25L141 171L140.25 171L140.25 200.25zM141 216.75L141 201L140.25 201L140.25 216.75zM141 233.25L141 217.5L140.25 217.5L140.25 233.25zM141 249.75L141 234L140.25 234L140.25 249.75zM141 266.25L141 250.5L140.25 250.5L140.25 266.25zM141 282.75L141 267L140.25 267L140.25 282.75zM141 312.75L141 283.5L140.25 283.5L140.25 312.75zM141 329.25L141 313.5L140.25 313.5L140.25 329.25zM141 345.75L141 330L140.25 330L140.25 345.75zM141 375.75L141 346.5L140.25 346.5L140.25 375.75zM141 392.25L141 376.5L140.25 376.5L140.25 392.25zM141 408.75L141 393L140.25 393L140.25 408.75zM141 438.75L141 409.5L140.25 409.5L140.25 438.75zM141 455.25L141 439.5L140.25 439.5L140.25 455.25zM141 485.25L141 456L140.25 456L140.25 485.25zM141 528L141 486L140.25 486L140.25 528zM141 558L141 528.75L140.25 528.75L140.25 558zM107.25 93.75L107.25 64.5L106.5 64.5L106.5 93.75zM107.25 110.25L107.25 94.5L106.5 94.5L106.5 110.25zM107.25 140.25L107.25 111L106.5 111L106.5 140.25zM107.25 170.25L107.25 141L106.5 141L106.5 170.25zM107.25 200.25L107.25 171L106.5 171L106.5 200.25zM107.25 216.75L107.25 201L106.5 201L106.5 216.75zM107.25 233.25L107.25 217.5L106.5 217.5L106.5 233.25zM107.25 249.75L107.25 234L106.5 234L106.5 249.75zM107.25 266.25L107.25 250.5L106.5 250.5L106.5 266.25zM107.25 282.75L107.25 267L106.5 267L106.5 282.75zM107.25 312.75L107.25 283.5L106.5 283.5L106.5 312.75zM107.25 329.25L107.25 313.5L106.5 313.5L106.5 329.25zM107.25 345.75L107.25 330L106.5 330L106.5 345.75zM107.25 375.75L107.25 346.5L106.5 346.5L106.5 375.75zM107.25 392.25L107.25 376.5L106.5 376.5L106.5 392.25zM107.25 408.75L107.25 393L106.5 393L106.5 408.75zM107.25 438.75L107.25 409.5L106.5 409.5L106.5 438.75zM107.25 455.25L107.25 439.5L106.5 439.5L106.5 455.25zM107.25 485.25L107.25 456L106.5 456L106.5 485.25zM107.25 528L107.25 486L106.5 486L106.5 528zM107.25 558L107.25 528.75L106.5 528.75L106.5 558z" stroke="none" fill="#000000" fill-rule="nonzero" fill-opacity="0.1490196" /><path id="181" transform="matrix(1 0 0 -1 0 612)" d="M240 531.7158L404.2064 531.7158" stroke="#000000" stroke-width="0.7017334" fill="none" /><path id="258" transform="matrix(1 0 0 -1 0 612)" d="M240 488.9658L409.3373 488.9658" stroke="#000000" stroke-width="0.7017334" fill="none" /><path id="359" transform="matrix(1 0 0 -1 0 612)" d="M240 472.0547L604.476 472.0547" stroke="#000000" stroke-width="0.7017334" fill="none" /><path id="375" transform="matrix(1 0 0 -1 0 612)" d="M240 458.9658L321.6032 458.9658" stroke="#000000" stroke-width="0.7017334" fill="none" /><path id="434" transform="matrix(1 0 0 -1 0 612)" d="M240 442.4658L447.8718 442.4658" stroke="#000000" stroke-width="0.7017334" fill="none" /><path id="511" transform="matrix(1 0 0 -1 0 612)" d="M240 412.4658L454.0971 412.4658" stroke="#000000" stroke-width="0.7017334" fill="none" /><path id="595" transform="matrix(1 0 0 -1 0 612)" d="M240 395.9658L573.3239 395.9658" stroke="#000000" stroke-width="0.7017334" fill="none" /><path id="668" transform="matrix(1 0 0 -1 0 612)" d="M240 379.4658L488.1866 379.4658" stroke="#000000" stroke-width="0.7017334" fill="none" /><path id="712" transform="matrix(1 0 0 -1 0 612)" d="M240 349.4658L294.074 349.4658" stroke="#000000" stroke-width="0.7017334" fill="none" /><path id="757" transform="matrix(1 0 0 -1 0 612)" d="M240 332.9658L373.9756 332.9658" stroke="#000000" stroke-width="0.7017334" fill="none" /><path id="811" transform="matrix(1 0 0 -1 0 612)" d="M240 316.4658L410.7771 316.4658" stroke="#000000" stroke-width="0.7017334" fill="none" /><path id="881" transform="matrix(1 0 0 -1 0 612)" d="M240 286.4658L431.2693 286.4658" stroke="#000000" stroke-width="0.7017334" fill="none" /><path id="958" transform="matrix(1 0 0 -1 0 612)" d="M240 269.9658L531.7368 269.9658" stroke="#000000" stroke-width="0.7017334" fill="none" /><path id="1021" transform="matrix(1 0 0 -1 0 612)" d="M240 253.4658L488.1971 253.4658" stroke="#000000" stroke-width="0.7017334" fill="none" /><path id="1063" transform="matrix(1 0 0 -1 0 612)" d="M240 236.9658L323.3676 236.9658" stroke="#000000" stroke-width="0.7017334" fill="none" /><path id="1138" transform="matrix(1 0 0 -1 0 612)" d="M240 220.4658L510.5847 220.4658" stroke="#000000" stroke-width="0.7017334" fill="none" /><path id="1209" transform="matrix(1 0 0 -1 0 612)" d="M240 203.9658L508.1239 203.9658" stroke="#000000" stroke-width="0.7017334" fill="none" /><path id="1292" transform="matrix(1 0 0 -1 0 612)" d="M240 187.0547L586.2769 187.0547" stroke="#000000" stroke-width="0.7017334" fill="none" /><path id="1302" transform="matrix(1 0 0 -1 0 612)" d="M240 173.9658L286.7598 173.9658" stroke="#000000" stroke-width="0.7017334" fill="none" /><path id="1349" transform="matrix(1 0 0 -1 0 612)" d="M240 143.9658L317.3308 143.9658" stroke="#000000" stroke-width="0.7017334" fill="none" /><path id="1434" transform="matrix(1 0 0 -1 0 612)" d="M240 127.0547L581.0774 127.0547" stroke="#000000" stroke-width="0.7017334" fill="none" /><path id="1476" transform="matrix(1 0 0 -1 0 612)" d="M240 113.9658L445.5942 113.9658" stroke="#000000" stroke-width="0.7017334" fill="none" /><path id="1545" transform="matrix(1 0 0 -1 0 612)" d="M240 97.46582L486.9402 97.46582" stroke="#000000" stroke-width="0.7017334" fill="none" /><path id="1625" transform="matrix(1 0 0 -1 0 612)" d="M240 80.55469L572.9622 80.55469" stroke="#000000" stroke-width="0.7017334" fill="none" /><path id="1660" transform="matrix(1 0 0 -1 0 612)" d="M240 67.46582L404.431 67.46582" stroke="#000000" stroke-width="0.7017334" fill="none" /></g></g></g></svg>