<svg xmlns="http://www.w3.org/2000/svg" xmlns:xlink="http://www.w3.org/1999/xlink" id="body_15" preserveAspectRatio="xMinYMin meet" viewBox="0 0 1056 816"><defs><clipPath id="1"><path id="" clip-rule="evenodd" transform="matrix(1 0 0 1 0 0)" d="M0 612L0 0L0 0L792 0L792 0L792 612L792 612L0 612z" /></clipPath><clipPath id="2"><path id="" clip-rule="evenodd" transform="matrix(1 0 0 1 0 0)" d="M105.75 52.5L686.25 52.5L686.25 52.5L686.25 549.75L686.25 549.75L105.75 549.75L105.75 549.75L105.75 52.5z" /></clipPath></defs><g transform="matrix(1.333333 0 0 1.333333 0 0)"><g clip-path="url(#1)"><g clip-path="url(#2)"><path id="102" transform="matrix(1 0 0 -1 0 612)" d="M106.5 558.75L685.5 558.75L685.5 528L106.5 528L106.5 558.75z" stroke="none" fill="#E0F7FA" fill-rule="nonzero" /><path id="103" transform="matrix(1 0 0 -1 0 612)" d="M106.5 528.75L685.5 528.75L685.5 511.5L106.5 511.5L106.5 528.75z" stroke="none" fill="#FFFFFF" fill-rule="nonzero" /><path id="104" transform="matrix(1 0 0 -1 0 612)" d="M106.5 512.25L685.5 512.25L685.5 495L106.5 495L106.5 512.25z" stroke="none" fill="#E0F7FA" fill-rule="nonzero" /><path id="105" transform="matrix(1 0 0 -1 0 612)" d="M106.5 495.75L685.5 495.75L685.5 478.5L106.5 478.5L106.5 495.75z" stroke="none" fill="#FFFFFF" fill-rule="nonzero" /><path id="106" transform="matrix(1 0 0 -1 0 612)" d="M106.5 479.25L685.5 479.25L685.5 462L106.5 462L106.5 479.25z" stroke="none" fill="#E0F7FA" fill-rule="nonzero" /><path id="107" transform="matrix(1 0 0 -1 0 612)" d="M106.5 462.75L685.5 462.75L685.5 445.5L106.5 445.5L106.5 462.75z" stroke="none" fill="#FFFFFF" fill-rule="nonzero" /><path id="108" transform="matrix(1 0 0 -1 0 612)" d="M106.5 446.25L685.5 446.25L685.5 429L106.5 429L106.5 446.25z" stroke="none" fill="#E0F7FA" fill-rule="nonzero" /><path id="109" transform="matrix(1 0 0 -1 0 612)" d="M106.5 429.75L685.5 429.75L685.5 412.5L106.5 412.5L106.5 429.75z" stroke="none" fill="#FFFFFF" fill-rule="nonzero" /><path id="110" transform="matrix(1 0 0 -1 0 612)" d="M106.5 413.25L685.5 413.25L685.5 396L106.5 396L106.5 413.25z" stroke="none" fill="#E0F7FA" fill-rule="nonzero" /><path id="111" transform="matrix(1 0 0 -1 0 612)" d="M106.5 396.75L685.5 396.75L685.5 379.5L106.5 379.5L106.5 396.75z" stroke="none" fill="#FFFFFF" fill-rule="nonzero" /><path id="112" transform="matrix(1 0 0 -1 0 612)" d="M106.5 380.25L685.5 380.25L685.5 363L106.5 363L106.5 380.25z" stroke="none" fill="#E0F7FA" fill-rule="nonzero" /><path id="113" transform="matrix(1 0 0 -1 0 612)" d="M106.5 363.75L685.5 363.75L685.5 333L106.5 333L106.5 363.75z" stroke="none" fill="#FFFFFF" fill-rule="nonzero" /><path id="114" transform="matrix(1 0 0 -1 0 612)" d="M106.5 333.75L685.5 333.75L685.5 303L106.5 303L106.5 333.75z" stroke="none" fill="#E0F7FA" fill-rule="nonzero" /><path id="115" transform="matrix(1 0 0 -1 0 612)" d="M106.5 303.75L685.5 303.75L685.5 273L106.5 273L106.5 303.75z" stroke="none" fill="#FFFFFF" fill-rule="nonzero" /><path id="116" transform="matrix(1 0 0 -1 0 612)" d="M106.5 273.75L685.5 273.75L685.5 256.5L106.5 256.5L106.5 273.75z" stroke="none" fill="#E0F7FA" fill-rule="nonzero" /><path id="117" transform="matrix(1 0 0 -1 0 612)" d="M106.5 257.25L685.5 257.25L685.5 240L106.5 240L106.5 257.25z" stroke="none" fill="#FFFFFF" fill-rule="nonzero" /><path id="118" transform="matrix(1 0 0 -1 0 612)" d="M106.5 240.75L685.5 240.75L685.5 210L106.5 210L106.5 240.75z" stroke="none" fill="#E0F7FA" fill-rule="nonzero" /><path id="119" transform="matrix(1 0 0 -1 0 612)" d="M106.5 210.75L685.5 210.75L685.5 193.5L106.5 193.5L106.5 210.75z" stroke="none" fill="#FFFFFF" fill-rule="nonzero" /><path id="120" transform="matrix(1 0 0 -1 0 612)" d="M106.5 194.25L685.5 194.25L685.5 177L106.5 177L106.5 194.25z" stroke="none" fill="#E0F7FA" fill-rule="nonzero" /><path id="121" transform="matrix(1 0 0 -1 0 612)" d="M106.5 177.75L685.5 177.75L685.5 145.5L106.5 145.5L106.5 177.75z" stroke="none" fill="#FFFFFF" fill-rule="nonzero" /><path id="122" transform="matrix(1 0 0 -1 0 612)" d="M106.5 146.25L685.5 146.25L685.5 129L106.5 129L106.5 146.25z" stroke="none" fill="#E0F7FA" fill-rule="nonzero" /><path id="123" transform="matrix(1 0 0 -1 0 612)" d="M106.5 129.75L685.5 129.75L685.5 112.5L106.5 112.5L106.5 129.75z" stroke="none" fill="#FFFFFF" fill-rule="nonzero" /><path id="124" transform="matrix(1 0 0 -1 0 612)" d="M106.5 113.25L685.5 113.25L685.5 96L106.5 96L106.5 113.25z" stroke="none" fill="#E0F7FA" fill-rule="nonzero" /><path id="125" transform="matrix(1 0 0 -1 0 612)" d="M106.5 96.75L685.5 96.75L685.5 79.5L106.5 79.5L106.5 96.75z" stroke="none" fill="#FFFFFF" fill-rule="nonzero" /><path id="126" transform="matrix(1 0 0 -1 0 612)" d="M106.5 80.25L685.5 80.25L685.5 63L106.5 63L106.5 80.25z" stroke="none" fill="#E0F7FA" fill-rule="nonzero" /><path id="127" transform="matrix(1 0 0 -1 0 612)" d="M106.5 63.75L685.5 63.75L685.5 63L106.5 63zM106.5 80.25L685.5 80.25L685.5 79.5L106.5 79.5zM106.5 96.75L685.5 96.75L685.5 96L106.5 96zM106.5 113.25L685.5 113.25L685.5 112.5L106.5 112.5zM106.5 129.75L685.5 129.75L685.5 129L106.5 129zM106.5 146.25L685.5 146.25L685.5 145.5L106.5 145.5zM106.5 177.75L685.5 177.75L685.5 177L106.5 177zM106.5 194.25L685.5 194.25L685.5 193.5L106.5 193.5zM106.5 210.75L685.5 210.75L685.5 210L106.5 210zM106.5 240.75L685.5 240.75L685.5 240L106.5 240zM106.5 257.25L685.5 257.25L685.5 256.5L106.5 256.5zM106.5 273.75L685.5 273.75L685.5 273L106.5 273zM106.5 303.75L685.5 303.75L685.5 303L106.5 303zM106.5 333.75L685.5 333.75L685.5 333L106.5 333zM106.5 363.75L685.5 363.75L685.5 363L106.5 363zM106.5 380.25L685.5 380.25L685.5 379.5L106.5 379.5zM106.5 396.75L685.5 396.75L685.5 396L106.5 396zM106.5 413.25L685.5 413.25L685.5 412.5L106.5 412.5zM106.5 429.75L685.5 429.75L685.5 429L106.5 429zM106.5 446.25L685.5 446.25L685.5 445.5L106.5 445.5zM106.5 462.75L685.5 462.75L685.5 462L106.5 462zM106.5 479.25L685.5 479.25L685.5 478.5L106.5 478.5zM106.5 495.75L685.5 495.75L685.5 495L106.5 495zM106.5 512.25L685.5 512.25L685.5 511.5L106.5 511.5zM106.5 528.75L685.5 528.75L685.5 528L106.5 528zM106.5 558.75L685.5 558.75L685.5 558L106.5 558zM685.5 79.5L685.5 63.75L684.75 63.75L684.75 79.5zM685.5 96L685.5 80.25L684.75 80.25L684.75 96zM685.5 112.5L685.5 96.75L684.75 96.75L684.75 112.5zM685.5 129L685.5 113.25L684.75 113.25L684.75 129zM685.5 145.5L685.5 129.75L684.75 129.75L684.75 145.5zM685.5 177L685.5 146.25L684.75 146.25L684.75 177zM685.5 193.5L685.5 177.75L684.75 177.75L684.75 193.5zM685.5 210L685.5 194.25L684.75 194.25L684.75 210zM685.5 240L685.5 210.75L684.75 210.75L684.75 240zM685.5 256.5L685.5 240.75L684.75 240.75L684.75 256.5zM685.5 273L685.5 257.25L684.75 257.25L684.75 273zM685.5 303L685.5 273.75L684.75 273.75L684.75 303zM685.5 333L685.5 303.75L684.75 303.75L684.75 333zM685.5 363L685.5 333.75L684.75 333.75L684.75 363zM685.5 379.5L685.5 363.75L684.75 363.75L684.75 379.5zM685.5 396L685.5 380.25L684.75 380.25L684.75 396zM685.5 412.5L685.5 396.75L684.75 396.75L684.75 412.5zM685.5 429L685.5 413.25L684.75 413.25L684.75 429zM685.5 445.5L685.5 429.75L684.75 429.75L684.75 445.5zM685.5 462L685.5 446.25L684.75 446.25L684.75 462zM685.5 478.5L685.5 462.75L684.75 462.75L684.75 478.5zM685.5 495L685.5 479.25L684.75 479.25L684.75 495zM685.5 511.5L685.5 495.75L684.75 495.75L684.75 511.5zM685.5 528L685.5 512.25L684.75 512.25L684.75 528zM685.5 558L685.5 528.75L684.75 528.75L684.75 558zM615 79.5L615 63.75L614.25 63.75L614.25 79.5zM615 96L615 80.25L614.25 80.25L614.25 96zM615 112.5L615 96.75L614.25 96.75L614.25 112.5zM615 129L615 113.25L614.25 113.25L614.25 129zM615 145.5L615 129.75L614.25 129.75L614.25 145.5zM615 177L615 146.25L614.25 146.25L614.25 177zM615 193.5L615 177.75L614.25 177.75L614.25 193.5zM615 210L615 194.25L614.25 194.25L614.25 210zM615 240L615 210.75L614.25 210.75L614.25 240zM615 256.5L615 240.75L614.25 240.75L614.25 256.5zM615 273L615 257.25L614.25 257.25L614.25 273zM615 303L615 273.75L614.25 273.75L614.25 303zM615 333L615 303.75L614.25 303.75L614.25 333zM615 363L615 333.75L614.25 333.75L614.25 363zM615 379.5L615 363.75L614.25 363.75L614.25 379.5zM615 396L615 380.25L614.25 380.25L614.25 396zM615 412.5L615 396.75L614.25 396.75L614.25 412.5zM615 429L615 413.25L614.25 413.25L614.25 429zM615 445.5L615 429.75L614.25 429.75L614.25 445.5zM615 462L615 446.25L614.25 446.25L614.25 462zM615 478.5L615 462.75L614.25 462.75L614.25 478.5zM615 495L615 479.25L614.25 479.25L614.25 495zM615 511.5L615 495.75L614.25 495.75L614.25 511.5zM615 528L615 512.25L614.25 512.25L614.25 528zM615 558L615 528.75L614.25 528.75L614.25 558zM237.75 79.5L237.75 63.75L237 63.75L237 79.5zM237.75 96L237.75 80.25L237 80.25L237 96zM237.75 112.5L237.75 96.75L237 96.75L237 112.5zM237.75 129L237.75 113.25L237 113.25L237 129zM237.75 145.5L237.75 129.75L237 129.75L237 145.5zM237.75 177L237.75 146.25L237 146.25L237 177zM237.75 193.5L237.75 177.75L237 177.75L237 193.5zM237.75 210L237.75 194.25L237 194.25L237 210zM237.75 240L237.75 210.75L237 210.75L237 240zM237.75 256.5L237.75 240.75L237 240.75L237 256.5zM237.75 273L237.75 257.25L237 257.25L237 273zM237.75 303L237.75 273.75L237 273.75L237 303zM237.75 333L237.75 303.75L237 303.75L237 333zM237.75 363L237.75 333.75L237 333.75L237 363zM237.75 379.5L237.75 363.75L237 363.75L237 379.5zM237.75 396L237.75 380.25L237 380.25L237 396zM237.75 412.5L237.75 396.75L237 396.75L237 412.5zM237.75 429L237.75 413.25L237 413.25L237 429zM237.75 445.5L237.75 429.75L237 429.75L237 445.5zM237.75 462L237.75 446.25L237 446.25L237 462zM237.75 478.5L237.75 462.75L237 462.75L237 478.5zM237.75 495L237.75 479.25L237 479.25L237 495zM237.75 511.5L237.75 495.75L237 495.75L237 511.5zM237.75 528L237.75 512.25L237 512.25L237 528zM237.75 558L237.75 528.75L237 528.75L237 558zM141 79.5L141 63.75L140.25 63.75L140.25 79.5zM141 96L141 80.25L140.25 80.25L140.25 96zM141 112.5L141 96.75L140.25 96.75L140.25 112.5zM141 129L141 113.25L140.25 113.25L140.25 129zM141 145.5L141 129.75L140.25 129.75L140.25 145.5zM141 177L141 146.25L140.25 146.25L140.25 177zM141 193.5L141 177.75L140.25 177.75L140.25 193.5zM141 210L141 194.25L140.25 194.25L140.25 210zM141 240L141 210.75L140.25 210.75L140.25 240zM141 256.5L141 240.75L140.25 240.75L140.25 256.5zM141 273L141 257.25L140.25 257.25L140.25 273zM141 303L141 273.75L140.25 273.75L140.25 303zM141 333L141 303.75L140.25 303.75L140.25 333zM141 363L141 333.75L140.25 333.75L140.25 363zM141 379.5L141 363.75L140.25 363.75L140.25 379.5zM141 396L141 380.25L140.25 380.25L140.25 396zM141 412.5L141 396.75L140.25 396.75L140.25 412.5zM141 429L141 413.25L140.25 413.25L140.25 429zM141 445.5L141 429.75L140.25 429.75L140.25 445.5zM141 462L141 446.25L140.25 446.25L140.25 462zM141 478.5L141 462.75L140.25 462.75L140.25 478.5zM141 495L141 479.25L140.25 479.25L140.25 495zM141 511.5L141 495.75L140.25 495.75L140.25 511.5zM141 528L141 512.25L140.25 512.25L140.25 528zM141 558L141 528.75L140.25 528.75L140.25 558zM107.25 79.5L107.25 63.75L106.5 63.75L106.5 79.5zM107.25 96L107.25 80.25L106.5 80.25L106.5 96zM107.25 112.5L107.25 96.75L106.5 96.75L106.5 112.5zM107.25 129L107.25 113.25L106.5 113.25L106.5 129zM107.25 145.5L107.25 129.75L106.5 129.75L106.5 145.5zM107.25 177L107.25 146.25L106.5 146.25L106.5 177zM107.25 193.5L107.25 177.75L106.5 177.75L106.5 193.5zM107.25 210L107.25 194.25L106.5 194.25L106.5 210zM107.25 240L107.25 210.75L106.5 210.75L106.5 240zM107.25 256.5L107.25 240.75L106.5 240.75L106.5 256.5zM107.25 273L107.25 257.25L106.5 257.25L106.5 273zM107.25 303L107.25 273.75L106.5 273.75L106.5 303zM107.25 333L107.25 303.75L106.5 303.75L106.5 333zM107.25 363L107.25 333.75L106.5 333.75L106.5 363zM107.25 379.5L107.25 363.75L106.5 363.75L106.5 379.5zM107.25 396L107.25 380.25L106.5 380.25L106.5 396zM107.25 412.5L107.25 396.75L106.5 396.75L106.5 412.5zM107.25 429L107.25 413.25L106.5 413.25L106.5 429zM107.25 445.5L107.25 429.75L106.5 429.75L106.5 445.5zM107.25 462L107.25 446.25L106.5 446.25L106.5 462zM107.25 478.5L107.25 462.75L106.5 462.75L106.5 478.5zM107.25 495L107.25 479.25L106.5 479.25L106.5 495zM107.25 511.5L107.25 495.75L106.5 495.75L106.5 511.5zM107.25 528L107.25 512.25L106.5 512.25L106.5 528zM107.25 558L107.25 528.75L106.5 528.75L106.5 558z" stroke="none" fill="#000000" fill-rule="nonzero" fill-opacity="0.1490196" /><path id="186" transform="matrix(1 0 0 -1 0 612)" d="M240 531.7158L432.5366 531.7158" stroke="#000000" stroke-width="0.7017334" fill="none" /><path id="267" transform="matrix(1 0 0 -1 0 612)" d="M240 515.2158L582.449 515.2158" stroke="#000000" stroke-width="0.7017334" fill="none" /><path id="318" transform="matrix(1 0 0 -1 0 612)" d="M240 498.7158L421.3008 498.7158" stroke="#000000" stroke-width="0.7017334" fill="none" /><path id="376" transform="matrix(1 0 0 -1 0 612)" d="M240 482.2158L440.3116 482.2158" stroke="#000000" stroke-width="0.7017334" fill="none" /><path id="421" transform="matrix(1 0 0 -1 0 612)" d="M240 465.7158L355.7502 465.7158" stroke="#000000" stroke-width="0.7017334" fill="none" /><path id="482" transform="matrix(1 0 0 -1 0 612)" d="M240 449.2158L454.6625 449.2158" stroke="#000000" stroke-width="0.7017334" fill="none" /><path id="525" transform="matrix(1 0 0 -1 0 612)" d="M240 432.7158L374.6667 432.7158" stroke="#000000" stroke-width="0.7017334" fill="none" /><path id="558" transform="matrix(1 0 0 -1 0 612)" d="M240 416.2158L315.6188 416.2158" stroke="#000000" stroke-width="0.7017334" fill="none" /><path id="607" transform="matrix(1 0 0 -1 0 612)" d="M240 399.7158L406.4891 399.7158" stroke="#000000" stroke-width="0.7017334" fill="none" /><path id="686" transform="matrix(1 0 0 -1 0 612)" d="M240 383.2158L550.6844 383.2158" stroke="#000000" stroke-width="0.7017334" fill="none" /><path id="754" transform="matrix(1 0 0 -1 0 612)" d="M240 366.7158L495.6265 366.7158" stroke="#000000" stroke-width="0.7017334" fill="none" /><path id="836" transform="matrix(1 0 0 -1 0 612)" d="M240 349.8047L599.6171 349.8047" stroke="#000000" stroke-width="0.7017334" fill="none" /><path id="851" transform="matrix(1 0 0 -1 0 612)" d="M240 336.7158L305.8438 336.7158" stroke="#000000" stroke-width="0.7017334" fill="none" /><path id="941" transform="matrix(1 0 0 -1 0 612)" d="M240 319.8047L594.0778 319.8047" stroke="#000000" stroke-width="0.7017334" fill="none" /><path id="964" transform="matrix(1 0 0 -1 0 612)" d="M240 306.7158L351.6925 306.7158" stroke="#000000" stroke-width="0.7017334" fill="none" /><path id="1021" transform="matrix(1 0 0 -1 0 612)" d="M240 276.7158L397.3005 276.7158" stroke="#000000" stroke-width="0.7017334" fill="none" /><path id="1091" transform="matrix(1 0 0 -1 0 612)" d="M240 260.2158L488.0558 260.2158" stroke="#000000" stroke-width="0.7017334" fill="none" /><path id="1150" transform="matrix(1 0 0 -1 0 612)" d="M240 243.7158L466.0604 243.7158" stroke="#000000" stroke-width="0.7017334" fill="none" /><path id="1221" transform="matrix(1 0 0 -1 0 612)" d="M240 213.7158L455.563 213.7158" stroke="#000000" stroke-width="0.7017334" fill="none" /><path id="1297" transform="matrix(1 0 0 -1 0 612)" d="M240 197.2158L559.2712 197.2158" stroke="#000000" stroke-width="0.7017334" fill="none" /><path id="1330" transform="matrix(1 0 0 -1 0 612)" d="M240 180.7158L314.1947 180.7158" stroke="#000000" stroke-width="0.7017334" fill="none" /><path id="1420" transform="matrix(1 0 0 -1 0 612)" d="M240 163.9697L595.3711 163.9697" stroke="#000000" stroke-width="0.7017334" fill="none" /><path id="1455" transform="matrix(1 0 0 -1 0 612)" d="M240 149.2158L418.0233 149.2158" stroke="#000000" stroke-width="0.7017334" fill="none" /><path id="1457" transform="matrix(1 0 0 -1 0 612)" d="M418.0233 149.2939L423.3846 149.2939" stroke="#000000" stroke-width="0.7855225" fill="none" /><path id="1463" transform="matrix(1 0 0 -1 0 612)" d="M423.3846 149.2158L446.6362 149.2158" stroke="#000000" stroke-width="0.7017334" fill="none" /><path id="1465" transform="matrix(1 0 0 -1 0 612)" d="M446.6362 149.2939L451.9975 149.2939" stroke="#000000" stroke-width="0.7855225" fill="none" /><path id="1468" transform="matrix(1 0 0 -1 0 612)" d="M451.9975 149.2158L461.8248 149.2158" stroke="#000000" stroke-width="0.7017334" fill="none" /><path id="1530" transform="matrix(1 0 0 -1 0 612)" d="M240 132.7158L478.8358 132.7158" stroke="#000000" stroke-width="0.7017334" fill="none" /><path id="1613" transform="matrix(1 0 0 -1 0 612)" d="M240 116.2158L592.7795 116.2158" stroke="#000000" stroke-width="0.7017334" fill="none" /><path id="1691" transform="matrix(1 0 0 -1 0 612)" d="M240 99.71582L550.3706 99.71582" stroke="#000000" stroke-width="0.7017334" fill="none" /><path id="1741" transform="matrix(1 0 0 -1 0 612)" d="M240 83.21582L418.0861 83.21582" stroke="#000000" stroke-width="0.7017334" fill="none" /><path id="1787" transform="matrix(1 0 0 -1 0 612)" d="M240 66.71582L401.8817 66.71582" stroke="#000000" stroke-width="0.7017334" fill="none" /></g></g></g></svg>