<svg xmlns="http://www.w3.org/2000/svg" xmlns:xlink="http://www.w3.org/1999/xlink" id="body_5" preserveAspectRatio="xMinYMin meet" viewBox="0 0 1056 816"><defs><clipPath id="1"><path id="" clip-rule="evenodd" transform="matrix(1 0 0 1 0 0)" d="M0 612L0 0L0 0L792 0L792 0L792 612L792 612L0 612z" /></clipPath><clipPath id="2"><path id="" clip-rule="evenodd" transform="matrix(1 0 0 1 0 0)" d="M105.75 52.5L686.25 52.5L686.25 52.5L686.25 551.25L686.25 551.25L105.75 551.25L105.75 551.25L105.75 52.5z" /></clipPath></defs><g transform="matrix(1.333333 0 0 1.333333 0 0)"><g clip-path="url(#1)"><g clip-path="url(#2)"><path id="101" transform="matrix(1 0 0 -1 0 612)" d="M106.5 558.75L685.5 558.75L685.5 528L106.5 528L106.5 558.75z" stroke="none" fill="#FFFFFF" fill-rule="nonzero" /><path id="102" transform="matrix(1 0 0 -1 0 612)" d="M106.5 528.75L685.5 528.75L685.5 511.5L106.5 511.5L106.5 528.75z" stroke="none" fill="#E0F7FA" fill-rule="nonzero" /><path id="103" transform="matrix(1 0 0 -1 0 612)" d="M106.5 512.25L685.5 512.25L685.5 495L106.5 495L106.5 512.25z" stroke="none" fill="#FFFFFF" fill-rule="nonzero" /><path id="104" transform="matrix(1 0 0 -1 0 612)" d="M106.5 495.75L685.5 495.75L685.5 478.5L106.5 478.5L106.5 495.75z" stroke="none" fill="#E0F7FA" fill-rule="nonzero" /><path id="105" transform="matrix(1 0 0 -1 0 612)" d="M106.5 479.25L685.5 479.25L685.5 462L106.5 462L106.5 479.25z" stroke="none" fill="#FFFFFF" fill-rule="nonzero" /><path id="106" transform="matrix(1 0 0 -1 0 612)" d="M106.5 462.75L685.5 462.75L685.5 445.5L106.5 445.5L106.5 462.75z" stroke="none" fill="#E0F7FA" fill-rule="nonzero" /><path id="107" transform="matrix(1 0 0 -1 0 612)" d="M106.5 446.25L685.5 446.25L685.5 429L106.5 429L106.5 446.25z" stroke="none" fill="#FFFFFF" fill-rule="nonzero" /><path id="108" transform="matrix(1 0 0 -1 0 612)" d="M106.5 429.75L685.5 429.75L685.5 399L106.5 399L106.5 429.75z" stroke="none" fill="#E0F7FA" fill-rule="nonzero" /><path id="109" transform="matrix(1 0 0 -1 0 612)" d="M106.5 399.75L685.5 399.75L685.5 382.5L106.5 382.5L106.5 399.75z" stroke="none" fill="#FFFFFF" fill-rule="nonzero" /><path id="110" transform="matrix(1 0 0 -1 0 612)" d="M106.5 383.25L685.5 383.25L685.5 366L106.5 366L106.5 383.25z" stroke="none" fill="#E0F7FA" fill-rule="nonzero" /><path id="111" transform="matrix(1 0 0 -1 0 612)" d="M106.5 366.75L685.5 366.75L685.5 336L106.5 336L106.5 366.75z" stroke="none" fill="#FFFFFF" fill-rule="nonzero" /><path id="112" transform="matrix(1 0 0 -1 0 612)" d="M106.5 336.75L685.5 336.75L685.5 319.5L106.5 319.5L106.5 336.75z" stroke="none" fill="#E0F7FA" fill-rule="nonzero" /><path id="113" transform="matrix(1 0 0 -1 0 612)" d="M106.5 320.25L685.5 320.25L685.5 303L106.5 303L106.5 320.25z" stroke="none" fill="#FFFFFF" fill-rule="nonzero" /><path id="114" transform="matrix(1 0 0 -1 0 612)" d="M106.5 303.75L685.5 303.75L685.5 286.5L106.5 286.5L106.5 303.75z" stroke="none" fill="#E0F7FA" fill-rule="nonzero" /><path id="115" transform="matrix(1 0 0 -1 0 612)" d="M106.5 287.25L685.5 287.25L685.5 270L106.5 270L106.5 287.25z" stroke="none" fill="#FFFFFF" fill-rule="nonzero" /><path id="116" transform="matrix(1 0 0 -1 0 612)" d="M106.5 270.75L685.5 270.75L685.5 240L106.5 240L106.5 270.75z" stroke="none" fill="#E0F7FA" fill-rule="nonzero" /><path id="117" transform="matrix(1 0 0 -1 0 612)" d="M106.5 240.75L685.5 240.75L685.5 223.5L106.5 223.5L106.5 240.75z" stroke="none" fill="#FFFFFF" fill-rule="nonzero" /><path id="118" transform="matrix(1 0 0 -1 0 612)" d="M106.5 224.25L685.5 224.25L685.5 193.5L106.5 193.5L106.5 224.25z" stroke="none" fill="#E0F7FA" fill-rule="nonzero" /><path id="119" transform="matrix(1 0 0 -1 0 612)" d="M106.5 194.25L685.5 194.25L685.5 177L106.5 177L106.5 194.25z" stroke="none" fill="#FFFFFF" fill-rule="nonzero" /><path id="120" transform="matrix(1 0 0 -1 0 612)" d="M106.5 177.75L685.5 177.75L685.5 160.5L106.5 160.5L106.5 177.75z" stroke="none" fill="#E0F7FA" fill-rule="nonzero" /><path id="121" transform="matrix(1 0 0 -1 0 612)" d="M106.5 161.25L685.5 161.25L685.5 144L106.5 144L106.5 161.25z" stroke="none" fill="#FFFFFF" fill-rule="nonzero" /><path id="122" transform="matrix(1 0 0 -1 0 612)" d="M106.5 144.75L685.5 144.75L685.5 127.5L106.5 127.5L106.5 144.75z" stroke="none" fill="#E0F7FA" fill-rule="nonzero" /><path id="123" transform="matrix(1 0 0 -1 0 612)" d="M106.5 128.25L685.5 128.25L685.5 111L106.5 111L106.5 128.25z" stroke="none" fill="#FFFFFF" fill-rule="nonzero" /><path id="124" transform="matrix(1 0 0 -1 0 612)" d="M106.5 111.75L685.5 111.75L685.5 94.5L106.5 94.5L106.5 111.75z" stroke="none" fill="#E0F7FA" fill-rule="nonzero" /><path id="125" transform="matrix(1 0 0 -1 0 612)" d="M106.5 95.25L685.5 95.25L685.5 78L106.5 78L106.5 95.25z" stroke="none" fill="#FFFFFF" fill-rule="nonzero" /><path id="126" transform="matrix(1 0 0 -1 0 612)" d="M106.5 78.75L685.5 78.75L685.5 61.5L106.5 61.5L106.5 78.75z" stroke="none" fill="#E0F7FA" fill-rule="nonzero" /><path id="127" transform="matrix(1 0 0 -1 0 612)" d="M106.5 62.25L685.5 62.25L685.5 61.5L106.5 61.5zM106.5 78.75L685.5 78.75L685.5 78L106.5 78zM106.5 95.25L685.5 95.25L685.5 94.5L106.5 94.5zM106.5 111.75L685.5 111.75L685.5 111L106.5 111zM106.5 128.25L685.5 128.25L685.5 127.5L106.5 127.5zM106.5 144.75L685.5 144.75L685.5 144L106.5 144zM106.5 161.25L685.5 161.25L685.5 160.5L106.5 160.5zM106.5 177.75L685.5 177.75L685.5 177L106.5 177zM106.5 194.25L685.5 194.25L685.5 193.5L106.5 193.5zM106.5 224.25L685.5 224.25L685.5 223.5L106.5 223.5zM106.5 240.75L685.5 240.75L685.5 240L106.5 240zM106.5 270.75L685.5 270.75L685.5 270L106.5 270zM106.5 287.25L685.5 287.25L685.5 286.5L106.5 286.5zM106.5 303.75L685.5 303.75L685.5 303L106.5 303zM106.5 320.25L685.5 320.25L685.5 319.5L106.5 319.5zM106.5 336.75L685.5 336.75L685.5 336L106.5 336zM106.5 366.75L685.5 366.75L685.5 366L106.5 366zM106.5 383.25L685.5 383.25L685.5 382.5L106.5 382.5zM106.5 399.75L685.5 399.75L685.5 399L106.5 399zM106.5 429.75L685.5 429.75L685.5 429L106.5 429zM106.5 446.25L685.5 446.25L685.5 445.5L106.5 445.5zM106.5 462.75L685.5 462.75L685.5 462L106.5 462zM106.5 479.25L685.5 479.25L685.5 478.5L106.5 478.5zM106.5 495.75L685.5 495.75L685.5 495L106.5 495zM106.5 512.25L685.5 512.25L685.5 511.5L106.5 511.5zM106.5 528.75L685.5 528.75L685.5 528L106.5 528zM106.5 558.75L685.5 558.75L685.5 558L106.5 558zM685.5 78L685.5 62.25L684.75 62.25L684.75 78zM685.5 94.5L685.5 78.75L684.75 78.75L684.75 94.5zM685.5 111L685.5 95.25L684.75 95.25L684.75 111zM685.5 127.5L685.5 111.75L684.75 111.75L684.75 127.5zM685.5 144L685.5 128.25L684.75 128.25L684.75 144zM685.5 160.5L685.5 144.75L684.75 144.75L684.75 160.5zM685.5 177L685.5 161.25L684.75 161.25L684.75 177zM685.5 193.5L685.5 177.75L684.75 177.75L684.75 193.5zM685.5 223.5L685.5 194.25L684.75 194.25L684.75 223.5zM685.5 240L685.5 224.25L684.75 224.25L684.75 240zM685.5 270L685.5 240.75L684.75 240.75L684.75 270zM685.5 286.5L685.5 270.75L684.75 270.75L684.75 286.5zM685.5 303L685.5 287.25L684.75 287.25L684.75 303zM685.5 319.5L685.5 303.75L684.75 303.75L684.75 319.5zM685.5 336L685.5 320.25L684.75 320.25L684.75 336zM685.5 366L685.5 336.75L684.75 336.75L684.75 366zM685.5 382.5L685.5 366.75L684.75 366.75L684.75 382.5zM685.5 399L685.5 383.25L684.75 383.25L684.75 399zM685.5 429L685.5 399.75L684.75 399.75L684.75 429zM685.5 445.5L685.5 429.75L684.75 429.75L684.75 445.5zM685.5 462L685.5 446.25L684.75 446.25L684.75 462zM685.5 478.5L685.5 462.75L684.75 462.75L684.75 478.5zM685.5 495L685.5 479.25L684.75 479.25L684.75 495zM685.5 511.5L685.5 495.75L684.75 495.75L684.75 511.5zM685.5 528L685.5 512.25L684.75 512.25L684.75 528zM685.5 558L685.5 528.75L684.75 528.75L684.75 558zM615 78L615 62.25L614.25 62.25L614.25 78zM615 94.5L615 78.75L614.25 78.75L614.25 94.5zM615 111L615 95.25L614.25 95.25L614.25 111zM615 127.5L615 111.75L614.25 111.75L614.25 127.5zM615 144L615 128.25L614.25 128.25L614.25 144zM615 160.5L615 144.75L614.25 144.75L614.25 160.5zM615 177L615 161.25L614.25 161.25L614.25 177zM615 193.5L615 177.75L614.25 177.75L614.25 193.5zM615 223.5L615 194.25L614.25 194.25L614.25 223.5zM615 240L615 224.25L614.25 224.25L614.25 240zM615 270L615 240.75L614.25 240.75L614.25 270zM615 286.5L615 270.75L614.25 270.75L614.25 286.5zM615 303L615 287.25L614.25 287.25L614.25 303zM615 319.5L615 303.75L614.25 303.75L614.25 319.5zM615 336L615 320.25L614.25 320.25L614.25 336zM615 366L615 336.75L614.25 336.75L614.25 366zM615 382.5L615 366.75L614.25 366.75L614.25 382.5zM615 399L615 383.25L614.25 383.25L614.25 399zM615 429L615 399.75L614.25 399.75L614.25 429zM615 445.5L615 429.75L614.25 429.75L614.25 445.5zM615 462L615 446.25L614.25 446.25L614.25 462zM615 478.5L615 462.75L614.25 462.75L614.25 478.5zM615 495L615 479.25L614.25 479.25L614.25 495zM615 511.5L615 495.75L614.25 495.75L614.25 511.5zM615 528L615 512.25L614.25 512.25L614.25 528zM615 558L615 528.75L614.25 528.75L614.25 558zM237.75 78L237.75 62.25L237 62.25L237 78zM237.75 94.5L237.75 78.75L237 78.75L237 94.5zM237.75 111L237.75 95.25L237 95.25L237 111zM237.75 127.5L237.75 111.75L237 111.75L237 127.5zM237.75 144L237.75 128.25L237 128.25L237 144zM237.75 160.5L237.75 144.75L237 144.75L237 160.5zM237.75 177L237.75 161.25L237 161.25L237 177zM237.75 193.5L237.75 177.75L237 177.75L237 193.5zM237.75 223.5L237.75 194.25L237 194.25L237 223.5zM237.75 240L237.75 224.25L237 224.25L237 240zM237.75 270L237.75 240.75L237 240.75L237 270zM237.75 286.5L237.75 270.75L237 270.75L237 286.5zM237.75 303L237.75 287.25L237 287.25L237 303zM237.75 319.5L237.75 303.75L237 303.75L237 319.5zM237.75 336L237.75 320.25L237 320.25L237 336zM237.75 366L237.75 336.75L237 336.75L237 366zM237.75 382.5L237.75 366.75L237 366.75L237 382.5zM237.75 399L237.75 383.25L237 383.25L237 399zM237.75 429L237.75 399.75L237 399.75L237 429zM237.75 445.5L237.75 429.75L237 429.75L237 445.5zM237.75 462L237.75 446.25L237 446.25L237 462zM237.75 478.5L237.75 462.75L237 462.75L237 478.5zM237.75 495L237.75 479.25L237 479.25L237 495zM237.75 511.5L237.75 495.75L237 495.75L237 511.5zM237.75 528L237.75 512.25L237 512.25L237 528zM237.75 558L237.75 528.75L237 528.75L237 558zM141 78L141 62.25L140.25 62.25L140.25 78zM141 94.5L141 78.75L140.25 78.75L140.25 94.5zM141 111L141 95.25L140.25 95.25L140.25 111zM141 127.5L141 111.75L140.25 111.75L140.25 127.5zM141 144L141 128.25L140.25 128.25L140.25 144zM141 160.5L141 144.75L140.25 144.75L140.25 160.5zM141 177L141 161.25L140.25 161.25L140.25 177zM141 193.5L141 177.75L140.25 177.75L140.25 193.5zM141 223.5L141 194.25L140.25 194.25L140.25 223.5zM141 240L141 224.25L140.25 224.25L140.25 240zM141 270L141 240.75L140.25 240.75L140.25 270zM141 286.5L141 270.75L140.25 270.75L140.25 286.5zM141 303L141 287.25L140.25 287.25L140.25 303zM141 319.5L141 303.75L140.25 303.75L140.25 319.5zM141 336L141 320.25L140.25 320.25L140.25 336zM141 366L141 336.75L140.25 336.75L140.25 366zM141 382.5L141 366.75L140.25 366.75L140.25 382.5zM141 399L141 383.25L140.25 383.25L140.25 399zM141 429L141 399.75L140.25 399.75L140.25 429zM141 445.5L141 429.75L140.25 429.75L140.25 445.5zM141 462L141 446.25L140.25 446.25L140.25 462zM141 478.5L141 462.75L140.25 462.75L140.25 478.5zM141 495L141 479.25L140.25 479.25L140.25 495zM141 511.5L141 495.75L140.25 495.75L140.25 511.5zM141 528L141 512.25L140.25 512.25L140.25 528zM141 558L141 528.75L140.25 528.75L140.25 558zM107.25 78L107.25 62.25L106.5 62.25L106.5 78zM107.25 94.5L107.25 78.75L106.5 78.75L106.5 94.5zM107.25 111L107.25 95.25L106.5 95.25L106.5 111zM107.25 127.5L107.25 111.75L106.5 111.75L106.5 127.5zM107.25 144L107.25 128.25L106.5 128.25L106.5 144zM107.25 160.5L107.25 144.75L106.5 144.75L106.5 160.5zM107.25 177L107.25 161.25L106.5 161.25L106.5 177zM107.25 193.5L107.25 177.75L106.5 177.75L106.5 193.5zM107.25 223.5L107.25 194.25L106.5 194.25L106.5 223.5zM107.25 240L107.25 224.25L106.5 224.25L106.5 240zM107.25 270L107.25 240.75L106.5 240.75L106.5 270zM107.25 286.5L107.25 270.75L106.5 270.75L106.5 286.5zM107.25 303L107.25 287.25L106.5 287.25L106.5 303zM107.25 319.5L107.25 303.75L106.5 303.75L106.5 319.5zM107.25 336L107.25 320.25L106.5 320.25L106.5 336zM107.25 366L107.25 336.75L106.5 336.75L106.5 366zM107.25 382.5L107.25 366.75L106.5 366.75L106.5 382.5zM107.25 399L107.25 383.25L106.5 383.25L106.5 399zM107.25 429L107.25 399.75L106.5 399.75L106.5 429zM107.25 445.5L107.25 429.75L106.5 429.75L106.5 445.5zM107.25 462L107.25 446.25L106.5 446.25L106.5 462zM107.25 478.5L107.25 462.75L106.5 462.75L106.5 478.5zM107.25 495L107.25 479.25L106.5 479.25L106.5 495zM107.25 511.5L107.25 495.75L106.5 495.75L106.5 511.5zM107.25 528L107.25 512.25L106.5 512.25L106.5 528zM107.25 558L107.25 528.75L106.5 528.75L106.5 558z" stroke="none" fill="#000000" fill-rule="nonzero" fill-opacity="0.1490196" /><path id="201" transform="matrix(1 0 0 -1 0 612)" d="M240 544.8049L584.8265 544.8049" stroke="#000000" stroke-width="0.7017334" fill="none" /><path id="209" transform="matrix(1 0 0 -1 0 612)" d="M240 531.7158L271.0004 531.7158" stroke="#000000" stroke-width="0.7017334" fill="none" /><path id="256" transform="matrix(1 0 0 -1 0 612)" d="M240 515.2158L394.4418 515.2158" stroke="#000000" stroke-width="0.7017334" fill="none" /><path id="331" transform="matrix(1 0 0 -1 0 612)" d="M240 498.7158L533.0092 498.7158" stroke="#000000" stroke-width="0.7017334" fill="none" /><path id="416" transform="matrix(1 0 0 -1 0 612)" d="M240 482.2158L593.8109 482.2158" stroke="#000000" stroke-width="0.7017334" fill="none" /><path id="506" transform="matrix(1 0 0 -1 0 612)" d="M240 465.7158L591.5228 465.7158" stroke="#000000" stroke-width="0.7017334" fill="none" /><path id="548" transform="matrix(1 0 0 -1 0 612)" d="M240 449.2158L372.6404 449.2158" stroke="#000000" stroke-width="0.7017334" fill="none" /><path id="629" transform="matrix(1 0 0 -1 0 612)" d="M240 432.7158L554.3546 432.7158" stroke="#000000" stroke-width="0.7017334" fill="none" /><path id="719" transform="matrix(1 0 0 -1 0 612)" d="M240 415.8049L606.1774 415.8049" stroke="#000000" stroke-width="0.7017334" fill="none" /><path id="732" transform="matrix(1 0 0 -1 0 612)" d="M240 402.7158L288.4352 402.7158" stroke="#000000" stroke-width="0.7017334" fill="none" /><path id="771" transform="matrix(1 0 0 -1 0 612)" d="M240 386.2158L353.7031 386.2158" stroke="#000000" stroke-width="0.7017334" fill="none" /><path id="837" transform="matrix(1 0 0 -1 0 612)" d="M240 369.7158L501.9457 369.7158" stroke="#000000" stroke-width="0.7017334" fill="none" /><path id="939" transform="matrix(1 0 0 -1 0 612)" d="M240 339.7158L601.0046 339.7158" stroke="#000000" stroke-width="0.7017334" fill="none" /><path id="1025" transform="matrix(1 0 0 -1 0 612)" d="M240 323.2158L595.3241 323.2158" stroke="#000000" stroke-width="0.7017334" fill="none" /><path id="1102" transform="matrix(1 0 0 -1 0 612)" d="M240 306.7158L548.3862 306.7158" stroke="#000000" stroke-width="0.7017334" fill="none" /><path id="1159" transform="matrix(1 0 0 -1 0 612)" d="M240 290.2158L446.6833 290.2158" stroke="#000000" stroke-width="0.7017334" fill="none" /><path id="1206" transform="matrix(1 0 0 -1 0 612)" d="M240 273.7158L400.8084 273.7158" stroke="#000000" stroke-width="0.7017334" fill="none" /><path id="1287" transform="matrix(1 0 0 -1 0 612)" d="M240 256.8049L574.3815 256.8049" stroke="#000000" stroke-width="0.7017334" fill="none" /><path id="1313" transform="matrix(1 0 0 -1 0 612)" d="M240 243.7158L366.8917 243.7158" stroke="#000000" stroke-width="0.7017334" fill="none" /><path id="1376" transform="matrix(1 0 0 -1 0 612)" d="M240 227.2158L461.5735 227.2158" stroke="#000000" stroke-width="0.7017334" fill="none" /><path id="1438" transform="matrix(1 0 0 -1 0 612)" d="M240 197.2158L408.9709 197.2158" stroke="#000000" stroke-width="0.7017334" fill="none" /><path id="1509" transform="matrix(1 0 0 -1 0 612)" d="M240 180.7158L518.5901 180.7158" stroke="#000000" stroke-width="0.7017334" fill="none" /><path id="1561" transform="matrix(1 0 0 -1 0 612)" d="M240 164.2158L428.3794 164.2158" stroke="#000000" stroke-width="0.7017334" fill="none" /><path id="1617" transform="matrix(1 0 0 -1 0 612)" d="M240 147.7158L407.6148 147.7158" stroke="#000000" stroke-width="0.7017334" fill="none" /><path id="1687" transform="matrix(1 0 0 -1 0 612)" d="M240 131.2158L511.9931 131.2158" stroke="#000000" stroke-width="0.7017334" fill="none" /><path id="1736" transform="matrix(1 0 0 -1 0 612)" d="M240 114.7158L392.1015 114.7158" stroke="#000000" stroke-width="0.7017334" fill="none" /><path id="1788" transform="matrix(1 0 0 -1 0 612)" d="M240 98.21582L408.2953 98.21582" stroke="#000000" stroke-width="0.7017334" fill="none" /><path id="1867" transform="matrix(1 0 0 -1 0 612)" d="M240 81.71582L553.9048 81.71582" stroke="#000000" stroke-width="0.7017334" fill="none" /><path id="1928" transform="matrix(1 0 0 -1 0 612)" d="M240 65.21582L477.4167 65.21582" stroke="#000000" stroke-width="0.7017334" fill="none" /></g></g></g></svg>