<svg xmlns="http://www.w3.org/2000/svg" xmlns:xlink="http://www.w3.org/1999/xlink" id="body_16" preserveAspectRatio="xMinYMin meet" viewBox="0 0 1056 816"><defs><clipPath id="1"><path id="" clip-rule="evenodd" transform="matrix(1 0 0 1 0 0)" d="M0 612L0 0L0 0L792 0L792 0L792 612L792 612L0 612z" /></clipPath><clipPath id="2"><path id="" clip-rule="evenodd" transform="matrix(1 0 0 1 0 0)" d="M105.75 52.5L686.25 52.5L686.25 52.5L686.25 554.25L686.25 554.25L105.75 554.25L105.75 554.25L105.75 52.5z" /></clipPath></defs><g transform="matrix(1.333333 0 0 1.333333 0 0)"><g clip-path="url(#1)"><g clip-path="url(#2)"><path id="102" transform="matrix(1 0 0 -1 0 612)" d="M106.5 558.75L685.5 558.75L685.5 541.5L106.5 541.5L106.5 558.75z" stroke="none" fill="#FFFFFF" fill-rule="nonzero" /><path id="103" transform="matrix(1 0 0 -1 0 612)" d="M106.5 542.25L685.5 542.25L685.5 525L106.5 525L106.5 542.25z" stroke="none" fill="#E0F7FA" fill-rule="nonzero" /><path id="104" transform="matrix(1 0 0 -1 0 612)" d="M106.5 525.75L685.5 525.75L685.5 508.5L106.5 508.5L106.5 525.75z" stroke="none" fill="#FFFFFF" fill-rule="nonzero" /><path id="105" transform="matrix(1 0 0 -1 0 612)" d="M106.5 509.25L685.5 509.25L685.5 478.5L106.5 478.5L106.5 509.25z" stroke="none" fill="#E0F7FA" fill-rule="nonzero" /><path id="106" transform="matrix(1 0 0 -1 0 612)" d="M106.5 479.25L685.5 479.25L685.5 462L106.5 462L106.5 479.25z" stroke="none" fill="#FFFFFF" fill-rule="nonzero" /><path id="107" transform="matrix(1 0 0 -1 0 612)" d="M106.5 462.75L685.5 462.75L685.5 445.5L106.5 445.5L106.5 462.75z" stroke="none" fill="#E0F7FA" fill-rule="nonzero" /><path id="108" transform="matrix(1 0 0 -1 0 612)" d="M106.5 446.25L685.5 446.25L685.5 429L106.5 429L106.5 446.25z" stroke="none" fill="#FFFFFF" fill-rule="nonzero" /><path id="109" transform="matrix(1 0 0 -1 0 612)" d="M106.5 429.75L685.5 429.75L685.5 412.5L106.5 412.5L106.5 429.75z" stroke="none" fill="#E0F7FA" fill-rule="nonzero" /><path id="110" transform="matrix(1 0 0 -1 0 612)" d="M106.5 413.25L685.5 413.25L685.5 396L106.5 396L106.5 413.25z" stroke="none" fill="#FFFFFF" fill-rule="nonzero" /><path id="111" transform="matrix(1 0 0 -1 0 612)" d="M106.5 396.75L685.5 396.75L685.5 379.5L106.5 379.5L106.5 396.75z" stroke="none" fill="#E0F7FA" fill-rule="nonzero" /><path id="112" transform="matrix(1 0 0 -1 0 612)" d="M106.5 380.25L685.5 380.25L685.5 363L106.5 363L106.5 380.25z" stroke="none" fill="#FFFFFF" fill-rule="nonzero" /><path id="113" transform="matrix(1 0 0 -1 0 612)" d="M106.5 363.75L685.5 363.75L685.5 346.5L106.5 346.5L106.5 363.75z" stroke="none" fill="#E0F7FA" fill-rule="nonzero" /><path id="114" transform="matrix(1 0 0 -1 0 612)" d="M106.5 347.25L685.5 347.25L685.5 316.5L106.5 316.5L106.5 347.25z" stroke="none" fill="#FFFFFF" fill-rule="nonzero" /><path id="115" transform="matrix(1 0 0 -1 0 612)" d="M106.5 317.25L685.5 317.25L685.5 300L106.5 300L106.5 317.25z" stroke="none" fill="#E0F7FA" fill-rule="nonzero" /><path id="116" transform="matrix(1 0 0 -1 0 612)" d="M106.5 300.75L685.5 300.75L685.5 283.5L106.5 283.5L106.5 300.75z" stroke="none" fill="#FFFFFF" fill-rule="nonzero" /><path id="117" transform="matrix(1 0 0 -1 0 612)" d="M106.5 284.25L685.5 284.25L685.5 267L106.5 267L106.5 284.25z" stroke="none" fill="#E0F7FA" fill-rule="nonzero" /><path id="118" transform="matrix(1 0 0 -1 0 612)" d="M106.5 267.75L685.5 267.75L685.5 237L106.5 237L106.5 267.75z" stroke="none" fill="#FFFFFF" fill-rule="nonzero" /><path id="119" transform="matrix(1 0 0 -1 0 612)" d="M106.5 237.75L685.5 237.75L685.5 220.5L106.5 220.5L106.5 237.75z" stroke="none" fill="#E0F7FA" fill-rule="nonzero" /><path id="120" transform="matrix(1 0 0 -1 0 612)" d="M106.5 221.25L685.5 221.25L685.5 204L106.5 204L106.5 221.25z" stroke="none" fill="#FFFFFF" fill-rule="nonzero" /><path id="121" transform="matrix(1 0 0 -1 0 612)" d="M106.5 204.75L685.5 204.75L685.5 187.5L106.5 187.5L106.5 204.75z" stroke="none" fill="#E0F7FA" fill-rule="nonzero" /><path id="122" transform="matrix(1 0 0 -1 0 612)" d="M106.5 188.25L685.5 188.25L685.5 171L106.5 171L106.5 188.25z" stroke="none" fill="#FFFFFF" fill-rule="nonzero" /><path id="123" transform="matrix(1 0 0 -1 0 612)" d="M106.5 171.75L685.5 171.75L685.5 154.5L106.5 154.5L106.5 171.75z" stroke="none" fill="#E0F7FA" fill-rule="nonzero" /><path id="124" transform="matrix(1 0 0 -1 0 612)" d="M106.5 155.25L685.5 155.25L685.5 138L106.5 138L106.5 155.25z" stroke="none" fill="#FFFFFF" fill-rule="nonzero" /><path id="125" transform="matrix(1 0 0 -1 0 612)" d="M106.5 138.75L685.5 138.75L685.5 121.5L106.5 121.5L106.5 138.75z" stroke="none" fill="#E0F7FA" fill-rule="nonzero" /><path id="126" transform="matrix(1 0 0 -1 0 612)" d="M106.5 122.25L685.5 122.25L685.5 91.5L106.5 91.5L106.5 122.25z" stroke="none" fill="#FFFFFF" fill-rule="nonzero" /><path id="127" transform="matrix(1 0 0 -1 0 612)" d="M106.5 92.25L685.5 92.25L685.5 75L106.5 75L106.5 92.25z" stroke="none" fill="#E0F7FA" fill-rule="nonzero" /><path id="128" transform="matrix(1 0 0 -1 0 612)" d="M106.5 75.75L685.5 75.75L685.5 58.5L106.5 58.5L106.5 75.75z" stroke="none" fill="#FFFFFF" fill-rule="nonzero" /><path id="129" transform="matrix(1 0 0 -1 0 612)" d="M106.5 59.25L685.5 59.25L685.5 58.5L106.5 58.5zM106.5 75.75L685.5 75.75L685.5 75L106.5 75zM106.5 92.25L685.5 92.25L685.5 91.5L106.5 91.5zM106.5 122.25L685.5 122.25L685.5 121.5L106.5 121.5zM106.5 138.75L685.5 138.75L685.5 138L106.5 138zM106.5 155.25L685.5 155.25L685.5 154.5L106.5 154.5zM106.5 171.75L685.5 171.75L685.5 171L106.5 171zM106.5 188.25L685.5 188.25L685.5 187.5L106.5 187.5zM106.5 204.75L685.5 204.75L685.5 204L106.5 204zM106.5 221.25L685.5 221.25L685.5 220.5L106.5 220.5zM106.5 237.75L685.5 237.75L685.5 237L106.5 237zM106.5 267.75L685.5 267.75L685.5 267L106.5 267zM106.5 284.25L685.5 284.25L685.5 283.5L106.5 283.5zM106.5 300.75L685.5 300.75L685.5 300L106.5 300zM106.5 317.25L685.5 317.25L685.5 316.5L106.5 316.5zM106.5 347.25L685.5 347.25L685.5 346.5L106.5 346.5zM106.5 363.75L685.5 363.75L685.5 363L106.5 363zM106.5 380.25L685.5 380.25L685.5 379.5L106.5 379.5zM106.5 396.75L685.5 396.75L685.5 396L106.5 396zM106.5 413.25L685.5 413.25L685.5 412.5L106.5 412.5zM106.5 429.75L685.5 429.75L685.5 429L106.5 429zM106.5 446.25L685.5 446.25L685.5 445.5L106.5 445.5zM106.5 462.75L685.5 462.75L685.5 462L106.5 462zM106.5 479.25L685.5 479.25L685.5 478.5L106.5 478.5zM106.5 509.25L685.5 509.25L685.5 508.5L106.5 508.5zM106.5 525.75L685.5 525.75L685.5 525L106.5 525zM106.5 542.25L685.5 542.25L685.5 541.5L106.5 541.5zM106.5 558.75L685.5 558.75L685.5 558L106.5 558zM685.5 75L685.5 59.25L684.75 59.25L684.75 75zM685.5 91.5L685.5 75.75L684.75 75.75L684.75 91.5zM685.5 121.5L685.5 92.25L684.75 92.25L684.75 121.5zM685.5 138L685.5 122.25L684.75 122.25L684.75 138zM685.5 154.5L685.5 138.75L684.75 138.75L684.75 154.5zM685.5 171L685.5 155.25L684.75 155.25L684.75 171zM685.5 187.5L685.5 171.75L684.75 171.75L684.75 187.5zM685.5 204L685.5 188.25L684.75 188.25L684.75 204zM685.5 220.5L685.5 204.75L684.75 204.75L684.75 220.5zM685.5 237L685.5 221.25L684.75 221.25L684.75 237zM685.5 267L685.5 237.75L684.75 237.75L684.75 267zM685.5 283.5L685.5 267.75L684.75 267.75L684.75 283.5zM685.5 300L685.5 284.25L684.75 284.25L684.75 300zM685.5 316.5L685.5 300.75L684.75 300.75L684.75 316.5zM685.5 346.5L685.5 317.25L684.75 317.25L684.75 346.5zM685.5 363L685.5 347.25L684.75 347.25L684.75 363zM685.5 379.5L685.5 363.75L684.75 363.75L684.75 379.5zM685.5 396L685.5 380.25L684.75 380.25L684.75 396zM685.5 412.5L685.5 396.75L684.75 396.75L684.75 412.5zM685.5 429L685.5 413.25L684.75 413.25L684.75 429zM685.5 445.5L685.5 429.75L684.75 429.75L684.75 445.5zM685.5 462L685.5 446.25L684.75 446.25L684.75 462zM685.5 478.5L685.5 462.75L684.75 462.75L684.75 478.5zM685.5 508.5L685.5 479.25L684.75 479.25L684.75 508.5zM685.5 525L685.5 509.25L684.75 509.25L684.75 525zM685.5 541.5L685.5 525.75L684.75 525.75L684.75 541.5zM685.5 558L685.5 542.25L684.75 542.25L684.75 558zM615 75L615 59.25L614.25 59.25L614.25 75zM615 91.5L615 75.75L614.25 75.75L614.25 91.5zM615 121.5L615 92.25L614.25 92.25L614.25 121.5zM615 138L615 122.25L614.25 122.25L614.25 138zM615 154.5L615 138.75L614.25 138.75L614.25 154.5zM615 171L615 155.25L614.25 155.25L614.25 171zM615 187.5L615 171.75L614.25 171.75L614.25 187.5zM615 204L615 188.25L614.25 188.25L614.25 204zM615 220.5L615 204.75L614.25 204.75L614.25 220.5zM615 237L615 221.25L614.25 221.25L614.25 237zM615 267L615 237.75L614.25 237.75L614.25 267zM615 283.5L615 267.75L614.25 267.75L614.25 283.5zM615 300L615 284.25L614.25 284.25L614.25 300zM615 316.5L615 300.75L614.25 300.75L614.25 316.5zM615 346.5L615 317.25L614.25 317.25L614.25 346.5zM615 363L615 347.25L614.25 347.25L614.25 363zM615 379.5L615 363.75L614.25 363.75L614.25 379.5zM615 396L615 380.25L614.25 380.25L614.25 396zM615 412.5L615 396.75L614.25 396.75L614.25 412.5zM615 429L615 413.25L614.25 413.25L614.25 429zM615 445.5L615 429.75L614.25 429.75L614.25 445.5zM615 462L615 446.25L614.25 446.25L614.25 462zM615 478.5L615 462.75L614.25 462.75L614.25 478.5zM615 508.5L615 479.25L614.25 479.25L614.25 508.5zM615 525L615 509.25L614.25 509.25L614.25 525zM615 541.5L615 525.75L614.25 525.75L614.25 541.5zM615 558L615 542.25L614.25 542.25L614.25 558zM237.75 75L237.75 59.25L237 59.25L237 75zM237.75 91.5L237.75 75.75L237 75.75L237 91.5zM237.75 121.5L237.75 92.25L237 92.25L237 121.5zM237.75 138L237.75 122.25L237 122.25L237 138zM237.75 154.5L237.75 138.75L237 138.75L237 154.5zM237.75 171L237.75 155.25L237 155.25L237 171zM237.75 187.5L237.75 171.75L237 171.75L237 187.5zM237.75 204L237.75 188.25L237 188.25L237 204zM237.75 220.5L237.75 204.75L237 204.75L237 220.5zM237.75 237L237.75 221.25L237 221.25L237 237zM237.75 267L237.75 237.75L237 237.75L237 267zM237.75 283.5L237.75 267.75L237 267.75L237 283.5zM237.75 300L237.75 284.25L237 284.25L237 300zM237.75 316.5L237.75 300.75L237 300.75L237 316.5zM237.75 346.5L237.75 317.25L237 317.25L237 346.5zM237.75 363L237.75 347.25L237 347.25L237 363zM237.75 379.5L237.75 363.75L237 363.75L237 379.5zM237.75 396L237.75 380.25L237 380.25L237 396zM237.75 412.5L237.75 396.75L237 396.75L237 412.5zM237.75 429L237.75 413.25L237 413.25L237 429zM237.75 445.5L237.75 429.75L237 429.75L237 445.5zM237.75 462L237.75 446.25L237 446.25L237 462zM237.75 478.5L237.75 462.75L237 462.75L237 478.5zM237.75 508.5L237.75 479.25L237 479.25L237 508.5zM237.75 525L237.75 509.25L237 509.25L237 525zM237.75 541.5L237.75 525.75L237 525.75L237 541.5zM237.75 558L237.75 542.25L237 542.25L237 558zM141 75L141 59.25L140.25 59.25L140.25 75zM141 91.5L141 75.75L140.25 75.75L140.25 91.5zM141 121.5L141 92.25L140.25 92.25L140.25 121.5zM141 138L141 122.25L140.25 122.25L140.25 138zM141 154.5L141 138.75L140.25 138.75L140.25 154.5zM141 171L141 155.25L140.25 155.25L140.25 171zM141 187.5L141 171.75L140.25 171.75L140.25 187.5zM141 204L141 188.25L140.25 188.25L140.25 204zM141 220.5L141 204.75L140.25 204.75L140.25 220.5zM141 237L141 221.25L140.25 221.25L140.25 237zM141 267L141 237.75L140.25 237.75L140.25 267zM141 283.5L141 267.75L140.25 267.75L140.25 283.5zM141 300L141 284.25L140.25 284.25L140.25 300zM141 316.5L141 300.75L140.25 300.75L140.25 316.5zM141 346.5L141 317.25L140.25 317.25L140.25 346.5zM141 363L141 347.25L140.25 347.25L140.25 363zM141 379.5L141 363.75L140.25 363.75L140.25 379.5zM141 396L141 380.25L140.25 380.25L140.25 396zM141 412.5L141 396.75L140.25 396.75L140.25 412.5zM141 429L141 413.25L140.25 413.25L140.25 429zM141 445.5L141 429.75L140.25 429.75L140.25 445.5zM141 462L141 446.25L140.25 446.25L140.25 462zM141 478.5L141 462.75L140.25 462.75L140.25 478.5zM141 508.5L141 479.25L140.25 479.25L140.25 508.5zM141 525L141 509.25L140.25 509.25L140.25 525zM141 541.5L141 525.75L140.25 525.75L140.25 541.5zM141 558L141 542.25L140.25 542.25L140.25 558zM107.25 75L107.25 59.25L106.5 59.25L106.5 75zM107.25 91.5L107.25 75.75L106.5 75.75L106.5 91.5zM107.25 121.5L107.25 92.25L106.5 92.25L106.5 121.5zM107.25 138L107.25 122.25L106.5 122.25L106.5 138zM107.25 154.5L107.25 138.75L106.5 138.75L106.5 154.5zM107.25 171L107.25 155.25L106.5 155.25L106.5 171zM107.25 187.5L107.25 171.75L106.5 171.75L106.5 187.5zM107.25 204L107.25 188.25L106.5 188.25L106.5 204zM107.25 220.5L107.25 204.75L106.5 204.75L106.5 220.5zM107.25 237L107.25 221.25L106.5 221.25L106.5 237zM107.25 267L107.25 237.75L106.5 237.75L106.5 267zM107.25 283.5L107.25 267.75L106.5 267.75L106.5 283.5zM107.25 300L107.25 284.25L106.5 284.25L106.5 300zM107.25 316.5L107.25 300.75L106.5 300.75L106.5 316.5zM107.25 346.5L107.25 317.25L106.5 317.25L106.5 346.5zM107.25 363L107.25 347.25L106.5 347.25L106.5 363zM107.25 379.5L107.25 363.75L106.5 363.75L106.5 379.5zM107.25 396L107.25 380.25L106.5 380.25L106.5 396zM107.25 412.5L107.25 396.75L106.5 396.75L106.5 412.5zM107.25 429L107.25 413.25L106.5 413.25L106.5 429zM107.25 445.5L107.25 429.75L106.5 429.75L106.5 445.5zM107.25 462L107.25 446.25L106.5 446.25L106.5 462zM107.25 478.5L107.25 462.75L106.5 462.75L106.5 478.5zM107.25 508.5L107.25 479.25L106.5 479.25L106.5 508.5zM107.25 525L107.25 509.25L106.5 509.25L106.5 525zM107.25 541.5L107.25 525.75L106.5 525.75L106.5 541.5zM107.25 558L107.25 542.25L106.5 542.25L106.5 558z" stroke="none" fill="#000000" fill-rule="nonzero" fill-opacity="0.1490196" /><path id="218" transform="matrix(1 0 0 -1 0 612)" d="M240 545.2158L601.8529 545.2158" stroke="#000000" stroke-width="0.7017334" fill="none" /><path id="256" transform="matrix(1 0 0 -1 0 612)" d="M240 528.7158L345.4987 528.7158" stroke="#000000" stroke-width="0.7017334" fill="none" /><path id="285" transform="matrix(1 0 0 -1 0 612)" d="M240 512.2158L305.1422 512.2158" stroke="#000000" stroke-width="0.7017334" fill="none" /><path id="374" transform="matrix(1 0 0 -1 0 612)" d="M240 495.3047L597.1351 495.3047" stroke="#000000" stroke-width="0.7017334" fill="none" /><path id="417" transform="matrix(1 0 0 -1 0 612)" d="M240 482.2158L462.2802 482.2158" stroke="#000000" stroke-width="0.7017334" fill="none" /><path id="476" transform="matrix(1 0 0 -1 0 612)" d="M240 465.7158L461.1914 465.7158" stroke="#000000" stroke-width="0.7017334" fill="none" /><path id="525" transform="matrix(1 0 0 -1 0 612)" d="M240 449.2158L390.3632 449.2158" stroke="#000000" stroke-width="0.7017334" fill="none" /><path id="560" transform="matrix(1 0 0 -1 0 612)" d="M240 432.7158L347.9385 432.7158" stroke="#000000" stroke-width="0.7017334" fill="none" /><path id="645" transform="matrix(1 0 0 -1 0 612)" d="M240 416.2158L610.167 416.2158" stroke="#000000" stroke-width="0.7017334" fill="none" /><path id="688" transform="matrix(1 0 0 -1 0 612)" d="M240 399.7158L345.3521 399.7158" stroke="#000000" stroke-width="0.7017334" fill="none" /><path id="758" transform="matrix(1 0 0 -1 0 612)" d="M240 383.2158L519.2654 383.2158" stroke="#000000" stroke-width="0.7017334" fill="none" /><path id="798" transform="matrix(1 0 0 -1 0 612)" d="M240 366.7158L389.3684 366.7158" stroke="#000000" stroke-width="0.7017334" fill="none" /><path id="851" transform="matrix(1 0 0 -1 0 612)" d="M240 350.2158L424.5573 350.2158" stroke="#000000" stroke-width="0.7017334" fill="none" /><path id="954" transform="matrix(1 0 0 -1 0 612)" d="M240 333.3047L584.8892 333.3047" stroke="#000000" stroke-width="0.7017334" fill="none" /><path id="965" transform="matrix(1 0 0 -1 0 612)" d="M240 320.2158L293.053 320.2158" stroke="#000000" stroke-width="0.7017334" fill="none" /><path id="1009" transform="matrix(1 0 0 -1 0 612)" d="M240 303.7158L363.457 303.7158" stroke="#000000" stroke-width="0.7017334" fill="none" /><path id="1083" transform="matrix(1 0 0 -1 0 612)" d="M240 287.2158L534.4279 287.2158" stroke="#000000" stroke-width="0.7017334" fill="none" /><path id="1132" transform="matrix(1 0 0 -1 0 612)" d="M240 270.7158L401.3004 270.7158" stroke="#000000" stroke-width="0.7017334" fill="none" /><path id="1218" transform="matrix(1 0 0 -1 0 612)" d="M240 253.8047L584.1041 253.8047" stroke="#000000" stroke-width="0.7017334" fill="none" /><path id="1226" transform="matrix(1 0 0 -1 0 612)" d="M240 240.7158L270.7857 240.7158" stroke="#000000" stroke-width="0.7017334" fill="none" /><path id="1295" transform="matrix(1 0 0 -1 0 612)" d="M240 224.2158L516.7996 224.2158" stroke="#000000" stroke-width="0.7017334" fill="none" /><path id="1361" transform="matrix(1 0 0 -1 0 612)" d="M240 207.7158L479.5477 207.7158" stroke="#000000" stroke-width="0.7017334" fill="none" /><path id="1432" transform="matrix(1 0 0 -1 0 612)" d="M240 191.2158L515.6266 191.2158" stroke="#000000" stroke-width="0.7017334" fill="none" /><path id="1493" transform="matrix(1 0 0 -1 0 612)" d="M240 174.7158L456.1024 174.7158" stroke="#000000" stroke-width="0.7017334" fill="none" /><path id="1538" transform="matrix(1 0 0 -1 0 612)" d="M240 158.2158L376.9233 158.2158" stroke="#000000" stroke-width="0.7017334" fill="none" /><path id="1607" transform="matrix(1 0 0 -1 0 612)" d="M240 141.7158L512.7313 141.7158" stroke="#000000" stroke-width="0.7017334" fill="none" /><path id="1672" transform="matrix(1 0 0 -1 0 612)" d="M240 125.2158L485.5058 125.2158" stroke="#000000" stroke-width="0.7017334" fill="none" /><path id="1754" transform="matrix(1 0 0 -1 0 612)" d="M240 108.3047L583.235 108.3047" stroke="#000000" stroke-width="0.7017334" fill="none" /><path id="1763" transform="matrix(1 0 0 -1 0 612)" d="M240 95.21582L273.9691 95.21582" stroke="#000000" stroke-width="0.7017334" fill="none" /><path id="1822" transform="matrix(1 0 0 -1 0 612)" d="M240 78.71582L438.5994 78.71582" stroke="#000000" stroke-width="0.7017334" fill="none" /><path id="1848" transform="matrix(1 0 0 -1 0 612)" d="M240 62.21582L291.4143 62.21582" stroke="#000000" stroke-width="0.7017334" fill="none" /></g></g></g></svg>