<svg xmlns="http://www.w3.org/2000/svg" xmlns:xlink="http://www.w3.org/1999/xlink" id="body_19" preserveAspectRatio="xMinYMin meet" viewBox="0 0 1056 816"><defs><clipPath id="1"><path id="" clip-rule="evenodd" transform="matrix(1 0 0 1 0 0)" d="M0 612L0 0L0 0L792 0L792 0L792 612L792 612L0 612z" /></clipPath><clipPath id="2"><path id="" clip-rule="evenodd" transform="matrix(1 0 0 1 0 0)" d="M105.75 52.5L686.25 52.5L686.25 52.5L686.25 554.25L686.25 554.25L105.75 554.25L105.75 554.25L105.75 52.5z" /></clipPath></defs><g transform="matrix(1.333333 0 0 1.333333 0 0)"><g clip-path="url(#1)"><g clip-path="url(#2)"><path id="102" transform="matrix(1 0 0 -1 0 612)" d="M106.5 558.75L685.5 558.75L685.5 541.5L106.5 541.5L106.5 558.75z" stroke="none" fill="#FFFFFF" fill-rule="nonzero" /><path id="103" transform="matrix(1 0 0 -1 0 612)" d="M106.5 542.25L685.5 542.25L685.5 525L106.5 525L106.5 542.25z" stroke="none" fill="#E0F7FA" fill-rule="nonzero" /><path id="104" transform="matrix(1 0 0 -1 0 612)" d="M106.5 525.75L685.5 525.75L685.5 508.5L106.5 508.5L106.5 525.75z" stroke="none" fill="#FFFFFF" fill-rule="nonzero" /><path id="105" transform="matrix(1 0 0 -1 0 612)" d="M106.5 509.25L685.5 509.25L685.5 492L106.5 492L106.5 509.25z" stroke="none" fill="#E0F7FA" fill-rule="nonzero" /><path id="106" transform="matrix(1 0 0 -1 0 612)" d="M106.5 492.75L685.5 492.75L685.5 475.5L106.5 475.5L106.5 492.75z" stroke="none" fill="#FFFFFF" fill-rule="nonzero" /><path id="107" transform="matrix(1 0 0 -1 0 612)" d="M106.5 476.25L685.5 476.25L685.5 459L106.5 459L106.5 476.25z" stroke="none" fill="#E0F7FA" fill-rule="nonzero" /><path id="108" transform="matrix(1 0 0 -1 0 612)" d="M106.5 459.75L685.5 459.75L685.5 442.5L106.5 442.5L106.5 459.75z" stroke="none" fill="#FFFFFF" fill-rule="nonzero" /><path id="109" transform="matrix(1 0 0 -1 0 612)" d="M106.5 443.25L685.5 443.25L685.5 426L106.5 426L106.5 443.25z" stroke="none" fill="#E0F7FA" fill-rule="nonzero" /><path id="110" transform="matrix(1 0 0 -1 0 612)" d="M106.5 426.75L685.5 426.75L685.5 409.5L106.5 409.5L106.5 426.75z" stroke="none" fill="#FFFFFF" fill-rule="nonzero" /><path id="111" transform="matrix(1 0 0 -1 0 612)" d="M106.5 410.25L685.5 410.25L685.5 379.5L106.5 379.5L106.5 410.25z" stroke="none" fill="#E0F7FA" fill-rule="nonzero" /><path id="112" transform="matrix(1 0 0 -1 0 612)" d="M106.5 380.25L685.5 380.25L685.5 363L106.5 363L106.5 380.25z" stroke="none" fill="#FFFFFF" fill-rule="nonzero" /><path id="113" transform="matrix(1 0 0 -1 0 612)" d="M106.5 363.75L685.5 363.75L685.5 346.5L106.5 346.5L106.5 363.75z" stroke="none" fill="#E0F7FA" fill-rule="nonzero" /><path id="114" transform="matrix(1 0 0 -1 0 612)" d="M106.5 347.25L685.5 347.25L685.5 330L106.5 330L106.5 347.25z" stroke="none" fill="#FFFFFF" fill-rule="nonzero" /><path id="115" transform="matrix(1 0 0 -1 0 612)" d="M106.5 330.75L685.5 330.75L685.5 313.5L106.5 313.5L106.5 330.75z" stroke="none" fill="#E0F7FA" fill-rule="nonzero" /><path id="116" transform="matrix(1 0 0 -1 0 612)" d="M106.5 314.25L685.5 314.25L685.5 297L106.5 297L106.5 314.25z" stroke="none" fill="#FFFFFF" fill-rule="nonzero" /><path id="117" transform="matrix(1 0 0 -1 0 612)" d="M106.5 297.75L685.5 297.75L685.5 280.5L106.5 280.5L106.5 297.75z" stroke="none" fill="#E0F7FA" fill-rule="nonzero" /><path id="118" transform="matrix(1 0 0 -1 0 612)" d="M106.5 281.25L685.5 281.25L685.5 264L106.5 264L106.5 281.25z" stroke="none" fill="#FFFFFF" fill-rule="nonzero" /><path id="119" transform="matrix(1 0 0 -1 0 612)" d="M106.5 264.75L685.5 264.75L685.5 234L106.5 234L106.5 264.75z" stroke="none" fill="#E0F7FA" fill-rule="nonzero" /><path id="120" transform="matrix(1 0 0 -1 0 612)" d="M106.5 234.75L685.5 234.75L685.5 217.5L106.5 217.5L106.5 234.75z" stroke="none" fill="#FFFFFF" fill-rule="nonzero" /><path id="121" transform="matrix(1 0 0 -1 0 612)" d="M106.5 218.25L685.5 218.25L685.5 201L106.5 201L106.5 218.25z" stroke="none" fill="#E0F7FA" fill-rule="nonzero" /><path id="122" transform="matrix(1 0 0 -1 0 612)" d="M106.5 201.75L685.5 201.75L685.5 171L106.5 171L106.5 201.75z" stroke="none" fill="#FFFFFF" fill-rule="nonzero" /><path id="123" transform="matrix(1 0 0 -1 0 612)" d="M106.5 171.75L685.5 171.75L685.5 154.5L106.5 154.5L106.5 171.75z" stroke="none" fill="#E0F7FA" fill-rule="nonzero" /><path id="124" transform="matrix(1 0 0 -1 0 612)" d="M106.5 155.25L685.5 155.25L685.5 138L106.5 138L106.5 155.25z" stroke="none" fill="#FFFFFF" fill-rule="nonzero" /><path id="125" transform="matrix(1 0 0 -1 0 612)" d="M106.5 138.75L685.5 138.75L685.5 108L106.5 108L106.5 138.75z" stroke="none" fill="#E0F7FA" fill-rule="nonzero" /><path id="126" transform="matrix(1 0 0 -1 0 612)" d="M106.5 108.75L685.5 108.75L685.5 91.5L106.5 91.5L106.5 108.75z" stroke="none" fill="#FFFFFF" fill-rule="nonzero" /><path id="127" transform="matrix(1 0 0 -1 0 612)" d="M106.5 92.25L685.5 92.25L685.5 75L106.5 75L106.5 92.25z" stroke="none" fill="#E0F7FA" fill-rule="nonzero" /><path id="128" transform="matrix(1 0 0 -1 0 612)" d="M106.5 75.75L685.5 75.75L685.5 58.5L106.5 58.5L106.5 75.75z" stroke="none" fill="#FFFFFF" fill-rule="nonzero" /><path id="129" transform="matrix(1 0 0 -1 0 612)" d="M106.5 59.25L685.5 59.25L685.5 58.5L106.5 58.5zM106.5 75.75L685.5 75.75L685.5 75L106.5 75zM106.5 92.25L685.5 92.25L685.5 91.5L106.5 91.5zM106.5 108.75L685.5 108.75L685.5 108L106.5 108zM106.5 138.75L685.5 138.75L685.5 138L106.5 138zM106.5 155.25L685.5 155.25L685.5 154.5L106.5 154.5zM106.5 171.75L685.5 171.75L685.5 171L106.5 171zM106.5 201.75L685.5 201.75L685.5 201L106.5 201zM106.5 218.25L685.5 218.25L685.5 217.5L106.5 217.5zM106.5 234.75L685.5 234.75L685.5 234L106.5 234zM106.5 264.75L685.5 264.75L685.5 264L106.5 264zM106.5 281.25L685.5 281.25L685.5 280.5L106.5 280.5zM106.5 297.75L685.5 297.75L685.5 297L106.5 297zM106.5 314.25L685.5 314.25L685.5 313.5L106.5 313.5zM106.5 330.75L685.5 330.75L685.5 330L106.5 330zM106.5 347.25L685.5 347.25L685.5 346.5L106.5 346.5zM106.5 363.75L685.5 363.75L685.5 363L106.5 363zM106.5 380.25L685.5 380.25L685.5 379.5L106.5 379.5zM106.5 410.25L685.5 410.25L685.5 409.5L106.5 409.5zM106.5 426.75L685.5 426.75L685.5 426L106.5 426zM106.5 443.25L685.5 443.25L685.5 442.5L106.5 442.5zM106.5 459.75L685.5 459.75L685.5 459L106.5 459zM106.5 476.25L685.5 476.25L685.5 475.5L106.5 475.5zM106.5 492.75L685.5 492.75L685.5 492L106.5 492zM106.5 509.25L685.5 509.25L685.5 508.5L106.5 508.5zM106.5 525.75L685.5 525.75L685.5 525L106.5 525zM106.5 542.25L685.5 542.25L685.5 541.5L106.5 541.5zM106.5 558.75L685.5 558.75L685.5 558L106.5 558zM685.5 75L685.5 59.25L684.75 59.25L684.75 75zM685.5 91.5L685.5 75.75L684.75 75.75L684.75 91.5zM685.5 108L685.5 92.25L684.75 92.25L684.75 108zM685.5 138L685.5 108.75L684.75 108.75L684.75 138zM685.5 154.5L685.5 138.75L684.75 138.75L684.75 154.5zM685.5 171L685.5 155.25L684.75 155.25L684.75 171zM685.5 201L685.5 171.75L684.75 171.75L684.75 201zM685.5 217.5L685.5 201.75L684.75 201.75L684.75 217.5zM685.5 234L685.5 218.25L684.75 218.25L684.75 234zM685.5 264L685.5 234.75L684.75 234.75L684.75 264zM685.5 280.5L685.5 264.75L684.75 264.75L684.75 280.5zM685.5 297L685.5 281.25L684.75 281.25L684.75 297zM685.5 313.5L685.5 297.75L684.75 297.75L684.75 313.5zM685.5 330L685.5 314.25L684.75 314.25L684.75 330zM685.5 346.5L685.5 330.75L684.75 330.75L684.75 346.5zM685.5 363L685.5 347.25L684.75 347.25L684.75 363zM685.5 379.5L685.5 363.75L684.75 363.75L684.75 379.5zM685.5 409.5L685.5 380.25L684.75 380.25L684.75 409.5zM685.5 426L685.5 410.25L684.75 410.25L684.75 426zM685.5 442.5L685.5 426.75L684.75 426.75L684.75 442.5zM685.5 459L685.5 443.25L684.75 443.25L684.75 459zM685.5 475.5L685.5 459.75L684.75 459.75L684.75 475.5zM685.5 492L685.5 476.25L684.75 476.25L684.75 492zM685.5 508.5L685.5 492.75L684.75 492.75L684.75 508.5zM685.5 525L685.5 509.25L684.75 509.25L684.75 525zM685.5 541.5L685.5 525.75L684.75 525.75L684.75 541.5zM685.5 558L685.5 542.25L684.75 542.25L684.75 558zM615 75L615 59.25L614.25 59.25L614.25 75zM615 91.5L615 75.75L614.25 75.75L614.25 91.5zM615 108L615 92.25L614.25 92.25L614.25 108zM615 138L615 108.75L614.25 108.75L614.25 138zM615 154.5L615 138.75L614.25 138.75L614.25 154.5zM615 171L615 155.25L614.25 155.25L614.25 171zM615 201L615 171.75L614.25 171.75L614.25 201zM615 217.5L615 201.75L614.25 201.75L614.25 217.5zM615 234L615 218.25L614.25 218.25L614.25 234zM615 264L615 234.75L614.25 234.75L614.25 264zM615 280.5L615 264.75L614.25 264.75L614.25 280.5zM615 297L615 281.25L614.25 281.25L614.25 297zM615 313.5L615 297.75L614.25 297.75L614.25 313.5zM615 330L615 314.25L614.25 314.25L614.25 330zM615 346.5L615 330.75L614.25 330.75L614.25 346.5zM615 363L615 347.25L614.25 347.25L614.25 363zM615 379.5L615 363.75L614.25 363.75L614.25 379.5zM615 409.5L615 380.25L614.25 380.25L614.25 409.5zM615 426L615 410.25L614.25 410.25L614.25 426zM615 442.5L615 426.75L614.25 426.75L614.25 442.5zM615 459L615 443.25L614.25 443.25L614.25 459zM615 475.5L615 459.75L614.25 459.75L614.25 475.5zM615 492L615 476.25L614.25 476.25L614.25 492zM615 508.5L615 492.75L614.25 492.75L614.25 508.5zM615 525L615 509.25L614.25 509.25L614.25 525zM615 541.5L615 525.75L614.25 525.75L614.25 541.5zM615 558L615 542.25L614.25 542.25L614.25 558zM237.75 75L237.75 59.25L237 59.25L237 75zM237.75 91.5L237.75 75.75L237 75.75L237 91.5zM237.75 108L237.75 92.25L237 92.25L237 108zM237.75 138L237.75 108.75L237 108.75L237 138zM237.75 154.5L237.75 138.75L237 138.75L237 154.5zM237.75 171L237.75 155.25L237 155.25L237 171zM237.75 201L237.75 171.75L237 171.75L237 201zM237.75 217.5L237.75 201.75L237 201.75L237 217.5zM237.75 234L237.75 218.25L237 218.25L237 234zM237.75 264L237.75 234.75L237 234.75L237 264zM237.75 280.5L237.75 264.75L237 264.75L237 280.5zM237.75 297L237.75 281.25L237 281.25L237 297zM237.75 313.5L237.75 297.75L237 297.75L237 313.5zM237.75 330L237.75 314.25L237 314.25L237 330zM237.75 346.5L237.75 330.75L237 330.75L237 346.5zM237.75 363L237.75 347.25L237 347.25L237 363zM237.75 379.5L237.75 363.75L237 363.75L237 379.5zM237.75 409.5L237.75 380.25L237 380.25L237 409.5zM237.75 426L237.75 410.25L237 410.25L237 426zM237.75 442.5L237.75 426.75L237 426.75L237 442.5zM237.75 459L237.75 443.25L237 443.25L237 459zM237.75 475.5L237.75 459.75L237 459.75L237 475.5zM237.75 492L237.75 476.25L237 476.25L237 492zM237.75 508.5L237.75 492.75L237 492.75L237 508.5zM237.75 525L237.75 509.25L237 509.25L237 525zM237.75 541.5L237.75 525.75L237 525.75L237 541.5zM237.75 558L237.75 542.25L237 542.25L237 558zM141 75L141 59.25L140.25 59.25L140.25 75zM141 91.5L141 75.75L140.25 75.75L140.25 91.5zM141 108L141 92.25L140.25 92.25L140.25 108zM141 138L141 108.75L140.25 108.75L140.25 138zM141 154.5L141 138.75L140.25 138.75L140.25 154.5zM141 171L141 155.25L140.25 155.25L140.25 171zM141 201L141 171.75L140.25 171.75L140.25 201zM141 217.5L141 201.75L140.25 201.75L140.25 217.5zM141 234L141 218.25L140.25 218.25L140.25 234zM141 264L141 234.75L140.25 234.75L140.25 264zM141 280.5L141 264.75L140.25 264.75L140.25 280.5zM141 297L141 281.25L140.25 281.25L140.25 297zM141 313.5L141 297.75L140.25 297.75L140.25 313.5zM141 330L141 314.25L140.25 314.25L140.25 330zM141 346.5L141 330.75L140.25 330.75L140.25 346.5zM141 363L141 347.25L140.25 347.25L140.25 363zM141 379.5L141 363.75L140.25 363.75L140.25 379.5zM141 409.5L141 380.25L140.25 380.25L140.25 409.5zM141 426L141 410.25L140.25 410.25L140.25 426zM141 442.5L141 426.75L140.25 426.75L140.25 442.5zM141 459L141 443.25L140.25 443.25L140.25 459zM141 475.5L141 459.75L140.25 459.75L140.25 475.5zM141 492L141 476.25L140.25 476.25L140.25 492zM141 508.5L141 492.75L140.25 492.75L140.25 508.5zM141 525L141 509.25L140.25 509.25L140.25 525zM141 541.5L141 525.75L140.25 525.75L140.25 541.5zM141 558L141 542.25L140.25 542.25L140.25 558zM107.25 75L107.25 59.25L106.5 59.25L106.5 75zM107.25 91.5L107.25 75.75L106.5 75.75L106.5 91.5zM107.25 108L107.25 92.25L106.5 92.25L106.5 108zM107.25 138L107.25 108.75L106.5 108.75L106.5 138zM107.25 154.5L107.25 138.75L106.5 138.75L106.5 154.5zM107.25 171L107.25 155.25L106.5 155.25L106.5 171zM107.25 201L107.25 171.75L106.5 171.75L106.5 201zM107.25 217.5L107.25 201.75L106.5 201.75L106.5 217.5zM107.25 234L107.25 218.25L106.5 218.25L106.5 234zM107.25 264L107.25 234.75L106.5 234.75L106.5 264zM107.25 280.5L107.25 264.75L106.5 264.75L106.5 280.5zM107.25 297L107.25 281.25L106.5 281.25L106.5 297zM107.25 313.5L107.25 297.75L106.5 297.75L106.5 313.5zM107.25 330L107.25 314.25L106.5 314.25L106.5 330zM107.25 346.5L107.25 330.75L106.5 330.75L106.5 346.5zM107.25 363L107.25 347.25L106.5 347.25L106.5 363zM107.25 379.5L107.25 363.75L106.5 363.75L106.5 379.5zM107.25 409.5L107.25 380.25L106.5 380.25L106.5 409.5zM107.25 426L107.25 410.25L106.5 410.25L106.5 426zM107.25 442.5L107.25 426.75L106.5 426.75L106.5 442.5zM107.25 459L107.25 443.25L106.5 443.25L106.5 459zM107.25 475.5L107.25 459.75L106.5 459.75L106.5 475.5zM107.25 492L107.25 476.25L106.5 476.25L106.5 492zM107.25 508.5L107.25 492.75L106.5 492.75L106.5 508.5zM107.25 525L107.25 509.25L106.5 509.25L106.5 525zM107.25 541.5L107.25 525.75L106.5 525.75L106.5 541.5zM107.25 558L107.25 542.25L106.5 542.25L106.5 558z" stroke="none" fill="#000000" fill-rule="nonzero" fill-opacity="0.1490196" /><path id="200" transform="matrix(1 0 0 -1 0 612)" d="M240 545.2158L504.993 545.2158" stroke="#000000" stroke-width="0.7017334" fill="none" /><path id="231" transform="matrix(1 0 0 -1 0 612)" d="M240 528.7158L314.6083 528.7158" stroke="#000000" stroke-width="0.7017334" fill="none" /><path id="312" transform="matrix(1 0 0 -1 0 612)" d="M240 512.2158L524.6424 512.2158" stroke="#000000" stroke-width="0.7017334" fill="none" /><path id="391" transform="matrix(1 0 0 -1 0 612)" d="M240 495.7158L545.8837 495.7158" stroke="#000000" stroke-width="0.7017334" fill="none" /><path id="456" transform="matrix(1 0 0 -1 0 612)" d="M240 479.2158L493.8881 479.2158" stroke="#000000" stroke-width="0.7017334" fill="none" /><path id="506" transform="matrix(1 0 0 -1 0 612)" d="M240 462.7158L430.7982 462.7158" stroke="#000000" stroke-width="0.7017334" fill="none" /><path id="575" transform="matrix(1 0 0 -1 0 612)" d="M240 446.2158L504.6107 446.2158" stroke="#000000" stroke-width="0.7017334" fill="none" /><path id="653" transform="matrix(1 0 0 -1 0 612)" d="M240 429.7158L596.0098 429.7158" stroke="#000000" stroke-width="0.7017334" fill="none" /><path id="722" transform="matrix(1 0 0 -1 0 612)" d="M240 413.2158L512.2284 413.2158" stroke="#000000" stroke-width="0.7017334" fill="none" /><path id="807" transform="matrix(1 0 0 -1 0 612)" d="M240 396.3047L591.1304 396.3047" stroke="#000000" stroke-width="0.7017334" fill="none" /><path id="844" transform="matrix(1 0 0 -1 0 612)" d="M240 383.2158L419.7667 383.2158" stroke="#000000" stroke-width="0.7017334" fill="none" /><path id="877" transform="matrix(1 0 0 -1 0 612)" d="M240 366.7158L321.7026 366.7158" stroke="#000000" stroke-width="0.7017334" fill="none" /><path id="915" transform="matrix(1 0 0 -1 0 612)" d="M240 350.2158L340.0223 350.2158" stroke="#000000" stroke-width="0.7017334" fill="none" /><path id="941" transform="matrix(1 0 0 -1 0 612)" d="M240 333.7158L287.8855 333.7158" stroke="#000000" stroke-width="0.7017334" fill="none" /><path id="1010" transform="matrix(1 0 0 -1 0 612)" d="M240 317.2158L476.5529 317.2158" stroke="#000000" stroke-width="0.7017334" fill="none" /><path id="1066" transform="matrix(1 0 0 -1 0 612)" d="M240 300.7158L385.337 300.7158" stroke="#000000" stroke-width="0.7017334" fill="none" /><path id="1139" transform="matrix(1 0 0 -1 0 612)" d="M240 284.2158L537.1399 284.2158" stroke="#000000" stroke-width="0.7017334" fill="none" /><path id="1210" transform="matrix(1 0 0 -1 0 612)" d="M240 267.7158L512.2233 267.7158" stroke="#000000" stroke-width="0.7017334" fill="none" /><path id="1289" transform="matrix(1 0 0 -1 0 612)" d="M240 237.7158L501.7625 237.7158" stroke="#000000" stroke-width="0.7017334" fill="none" /><path id="1337" transform="matrix(1 0 0 -1 0 612)" d="M240 221.2158L372.0646 221.2158" stroke="#000000" stroke-width="0.7017334" fill="none" /><path id="1382" transform="matrix(1 0 0 -1 0 612)" d="M240 204.7158L386.7872 204.7158" stroke="#000000" stroke-width="0.7017334" fill="none" /><path id="1442" transform="matrix(1 0 0 -1 0 612)" d="M240 174.7158L393.7455 174.7158" stroke="#000000" stroke-width="0.7017334" fill="none" /><path id="1516" transform="matrix(1 0 0 -1 0 612)" d="M240 158.2158L561.9725 158.2158" stroke="#000000" stroke-width="0.7017334" fill="none" /><path id="1553" transform="matrix(1 0 0 -1 0 612)" d="M240 141.7158L339.3416 141.7158" stroke="#000000" stroke-width="0.7017334" fill="none" /><path id="1627" transform="matrix(1 0 0 -1 0 612)" d="M240 111.7158L433.0549 111.7158" stroke="#000000" stroke-width="0.7017334" fill="none" /><path id="1705" transform="matrix(1 0 0 -1 0 612)" d="M240 95.21582L525.1031 95.21582" stroke="#000000" stroke-width="0.7017334" fill="none" /><path id="1740" transform="matrix(1 0 0 -1 0 612)" d="M240 78.71582L325.4199 78.71582" stroke="#000000" stroke-width="0.7017334" fill="none" /><path id="1814" transform="matrix(1 0 0 -1 0 612)" d="M240 62.21582L530.0667 62.21582" stroke="#000000" stroke-width="0.7017334" fill="none" /></g></g></g></svg>