<svg xmlns="http://www.w3.org/2000/svg" xmlns:xlink="http://www.w3.org/1999/xlink" id="body_7" preserveAspectRatio="xMinYMin meet" viewBox="0 0 1056 816"><defs><clipPath id="1"><path id="" clip-rule="evenodd" transform="matrix(1 0 0 1 0 0)" d="M0 612L0 0L0 0L792 0L792 0L792 612L792 612L0 612z" /></clipPath><clipPath id="2"><path id="" clip-rule="evenodd" transform="matrix(1 0 0 1 0 0)" d="M105.75 52.5L686.25 52.5L686.25 52.5L686.25 558L686.25 558L105.75 558L105.75 558L105.75 52.5z" /></clipPath></defs><g transform="matrix(1.333333 0 0 1.333333 0 0)"><g clip-path="url(#1)"><g clip-path="url(#2)"><path id="101" transform="matrix(1 0 0 -1 0 612)" d="M106.5 558.75L685.5 558.75L685.5 515.25L106.5 515.25L106.5 558.75z" stroke="none" fill="#E0F7FA" fill-rule="nonzero" /><path id="102" transform="matrix(1 0 0 -1 0 612)" d="M106.5 516L685.5 516L685.5 498.75L106.5 498.75L106.5 516z" stroke="none" fill="#FFFFFF" fill-rule="nonzero" /><path id="103" transform="matrix(1 0 0 -1 0 612)" d="M106.5 499.5L685.5 499.5L685.5 468.75L106.5 468.75L106.5 499.5z" stroke="none" fill="#E0F7FA" fill-rule="nonzero" /><path id="104" transform="matrix(1 0 0 -1 0 612)" d="M106.5 469.5L685.5 469.5L685.5 452.25L106.5 452.25L106.5 469.5z" stroke="none" fill="#FFFFFF" fill-rule="nonzero" /><path id="105" transform="matrix(1 0 0 -1 0 612)" d="M106.5 453L685.5 453L685.5 435.75L106.5 435.75L106.5 453z" stroke="none" fill="#E0F7FA" fill-rule="nonzero" /><path id="106" transform="matrix(1 0 0 -1 0 612)" d="M106.5 436.5L685.5 436.5L685.5 419.25L106.5 419.25L106.5 436.5z" stroke="none" fill="#FFFFFF" fill-rule="nonzero" /><path id="107" transform="matrix(1 0 0 -1 0 612)" d="M106.5 420L685.5 420L685.5 402.75L106.5 402.75L106.5 420z" stroke="none" fill="#E0F7FA" fill-rule="nonzero" /><path id="108" transform="matrix(1 0 0 -1 0 612)" d="M106.5 403.5L685.5 403.5L685.5 386.25L106.5 386.25L106.5 403.5z" stroke="none" fill="#FFFFFF" fill-rule="nonzero" /><path id="109" transform="matrix(1 0 0 -1 0 612)" d="M106.5 387L685.5 387L685.5 369.75L106.5 369.75L106.5 387z" stroke="none" fill="#E0F7FA" fill-rule="nonzero" /><path id="110" transform="matrix(1 0 0 -1 0 612)" d="M106.5 370.5L685.5 370.5L685.5 353.25L106.5 353.25L106.5 370.5z" stroke="none" fill="#FFFFFF" fill-rule="nonzero" /><path id="111" transform="matrix(1 0 0 -1 0 612)" d="M106.5 354L685.5 354L685.5 336.75L106.5 336.75L106.5 354z" stroke="none" fill="#E0F7FA" fill-rule="nonzero" /><path id="112" transform="matrix(1 0 0 -1 0 612)" d="M106.5 337.5L685.5 337.5L685.5 320.25L106.5 320.25L106.5 337.5z" stroke="none" fill="#FFFFFF" fill-rule="nonzero" /><path id="113" transform="matrix(1 0 0 -1 0 612)" d="M106.5 321L685.5 321L685.5 290.25L106.5 290.25L106.5 321z" stroke="none" fill="#E0F7FA" fill-rule="nonzero" /><path id="114" transform="matrix(1 0 0 -1 0 612)" d="M106.5 291L685.5 291L685.5 273.75L106.5 273.75L106.5 291z" stroke="none" fill="#FFFFFF" fill-rule="nonzero" /><path id="115" transform="matrix(1 0 0 -1 0 612)" d="M106.5 274.5L685.5 274.5L685.5 257.25L106.5 257.25L106.5 274.5z" stroke="none" fill="#E0F7FA" fill-rule="nonzero" /><path id="116" transform="matrix(1 0 0 -1 0 612)" d="M106.5 258L685.5 258L685.5 240.75L106.5 240.75L106.5 258z" stroke="none" fill="#FFFFFF" fill-rule="nonzero" /><path id="117" transform="matrix(1 0 0 -1 0 612)" d="M106.5 241.5L685.5 241.5L685.5 210.75L106.5 210.75L106.5 241.5z" stroke="none" fill="#E0F7FA" fill-rule="nonzero" /><path id="118" transform="matrix(1 0 0 -1 0 612)" d="M106.5 211.5L685.5 211.5L685.5 194.25L106.5 194.25L106.5 211.5z" stroke="none" fill="#FFFFFF" fill-rule="nonzero" /><path id="119" transform="matrix(1 0 0 -1 0 612)" d="M106.5 195L685.5 195L685.5 177.75L106.5 177.75L106.5 195z" stroke="none" fill="#E0F7FA" fill-rule="nonzero" /><path id="120" transform="matrix(1 0 0 -1 0 612)" d="M106.5 178.5L685.5 178.5L685.5 147.75L106.5 147.75L106.5 178.5z" stroke="none" fill="#FFFFFF" fill-rule="nonzero" /><path id="121" transform="matrix(1 0 0 -1 0 612)" d="M106.5 148.5L685.5 148.5L685.5 117.75L106.5 117.75L106.5 148.5z" stroke="none" fill="#E0F7FA" fill-rule="nonzero" /><path id="122" transform="matrix(1 0 0 -1 0 612)" d="M106.5 118.5L685.5 118.5L685.5 87.75L106.5 87.75L106.5 118.5z" stroke="none" fill="#FFFFFF" fill-rule="nonzero" /><path id="123" transform="matrix(1 0 0 -1 0 612)" d="M106.5 88.5L685.5 88.5L685.5 71.25L106.5 71.25L106.5 88.5z" stroke="none" fill="#E0F7FA" fill-rule="nonzero" /><path id="124" transform="matrix(1 0 0 -1 0 612)" d="M106.5 72L685.5 72L685.5 54.75L106.5 54.75L106.5 72z" stroke="none" fill="#FFFFFF" fill-rule="nonzero" /><path id="125" transform="matrix(1 0 0 -1 0 612)" d="M106.5 55.5L685.5 55.5L685.5 54.75L106.5 54.75zM106.5 72L685.5 72L685.5 71.25L106.5 71.25zM106.5 88.5L685.5 88.5L685.5 87.75L106.5 87.75zM106.5 118.5L685.5 118.5L685.5 117.75L106.5 117.75zM106.5 148.5L685.5 148.5L685.5 147.75L106.5 147.75zM106.5 178.5L685.5 178.5L685.5 177.75L106.5 177.75zM106.5 195L685.5 195L685.5 194.25L106.5 194.25zM106.5 211.5L685.5 211.5L685.5 210.75L106.5 210.75zM106.5 241.5L685.5 241.5L685.5 240.75L106.5 240.75zM106.5 258L685.5 258L685.5 257.25L106.5 257.25zM106.5 274.5L685.5 274.5L685.5 273.75L106.5 273.75zM106.5 291L685.5 291L685.5 290.25L106.5 290.25zM106.5 321L685.5 321L685.5 320.25L106.5 320.25zM106.5 337.5L685.5 337.5L685.5 336.75L106.5 336.75zM106.5 354L685.5 354L685.5 353.25L106.5 353.25zM106.5 370.5L685.5 370.5L685.5 369.75L106.5 369.75zM106.5 387L685.5 387L685.5 386.25L106.5 386.25zM106.5 403.5L685.5 403.5L685.5 402.75L106.5 402.75zM106.5 420L685.5 420L685.5 419.25L106.5 419.25zM106.5 436.5L685.5 436.5L685.5 435.75L106.5 435.75zM106.5 453L685.5 453L685.5 452.25L106.5 452.25zM106.5 469.5L685.5 469.5L685.5 468.75L106.5 468.75zM106.5 499.5L685.5 499.5L685.5 498.75L106.5 498.75zM106.5 516L685.5 516L685.5 515.25L106.5 515.25zM106.5 558.75L685.5 558.75L685.5 558L106.5 558zM685.5 71.25L685.5 55.5L684.75 55.5L684.75 71.25zM685.5 87.75L685.5 72L684.75 72L684.75 87.75zM685.5 117.75L685.5 88.5L684.75 88.5L684.75 117.75zM685.5 147.75L685.5 118.5L684.75 118.5L684.75 147.75zM685.5 177.75L685.5 148.5L684.75 148.5L684.75 177.75zM685.5 194.25L685.5 178.5L684.75 178.5L684.75 194.25zM685.5 210.75L685.5 195L684.75 195L684.75 210.75zM685.5 240.75L685.5 211.5L684.75 211.5L684.75 240.75zM685.5 257.25L685.5 241.5L684.75 241.5L684.75 257.25zM685.5 273.75L685.5 258L684.75 258L684.75 273.75zM685.5 290.25L685.5 274.5L684.75 274.5L684.75 290.25zM685.5 320.25L685.5 291L684.75 291L684.75 320.25zM685.5 336.75L685.5 321L684.75 321L684.75 336.75zM685.5 353.25L685.5 337.5L684.75 337.5L684.75 353.25zM685.5 369.75L685.5 354L684.75 354L684.75 369.75zM685.5 386.25L685.5 370.5L684.75 370.5L684.75 386.25zM685.5 402.75L685.5 387L684.75 387L684.75 402.75zM685.5 419.25L685.5 403.5L684.75 403.5L684.75 419.25zM685.5 435.75L685.5 420L684.75 420L684.75 435.75zM685.5 452.25L685.5 436.5L684.75 436.5L684.75 452.25zM685.5 468.75L685.5 453L684.75 453L684.75 468.75zM685.5 498.75L685.5 469.5L684.75 469.5L684.75 498.75zM685.5 515.25L685.5 499.5L684.75 499.5L684.75 515.25zM685.5 558L685.5 516L684.75 516L684.75 558zM615 71.25L615 55.5L614.25 55.5L614.25 71.25zM615 87.75L615 72L614.25 72L614.25 87.75zM615 117.75L615 88.5L614.25 88.5L614.25 117.75zM615 147.75L615 118.5L614.25 118.5L614.25 147.75zM615 177.75L615 148.5L614.25 148.5L614.25 177.75zM615 194.25L615 178.5L614.25 178.5L614.25 194.25zM615 210.75L615 195L614.25 195L614.25 210.75zM615 240.75L615 211.5L614.25 211.5L614.25 240.75zM615 257.25L615 241.5L614.25 241.5L614.25 257.25zM615 273.75L615 258L614.25 258L614.25 273.75zM615 290.25L615 274.5L614.25 274.5L614.25 290.25zM615 320.25L615 291L614.25 291L614.25 320.25zM615 336.75L615 321L614.25 321L614.25 336.75zM615 353.25L615 337.5L614.25 337.5L614.25 353.25zM615 369.75L615 354L614.25 354L614.25 369.75zM615 386.25L615 370.5L614.25 370.5L614.25 386.25zM615 402.75L615 387L614.25 387L614.25 402.75zM615 419.25L615 403.5L614.25 403.5L614.25 419.25zM615 435.75L615 420L614.25 420L614.25 435.75zM615 452.25L615 436.5L614.25 436.5L614.25 452.25zM615 468.75L615 453L614.25 453L614.25 468.75zM615 498.75L615 469.5L614.25 469.5L614.25 498.75zM615 515.25L615 499.5L614.25 499.5L614.25 515.25zM615 558L615 516L614.25 516L614.25 558zM237.75 71.25L237.75 55.5L237 55.5L237 71.25zM237.75 87.75L237.75 72L237 72L237 87.75zM237.75 117.75L237.75 88.5L237 88.5L237 117.75zM237.75 147.75L237.75 118.5L237 118.5L237 147.75zM237.75 177.75L237.75 148.5L237 148.5L237 177.75zM237.75 194.25L237.75 178.5L237 178.5L237 194.25zM237.75 210.75L237.75 195L237 195L237 210.75zM237.75 240.75L237.75 211.5L237 211.5L237 240.75zM237.75 257.25L237.75 241.5L237 241.5L237 257.25zM237.75 273.75L237.75 258L237 258L237 273.75zM237.75 290.25L237.75 274.5L237 274.5L237 290.25zM237.75 320.25L237.75 291L237 291L237 320.25zM237.75 336.75L237.75 321L237 321L237 336.75zM237.75 353.25L237.75 337.5L237 337.5L237 353.25zM237.75 369.75L237.75 354L237 354L237 369.75zM237.75 386.25L237.75 370.5L237 370.5L237 386.25zM237.75 402.75L237.75 387L237 387L237 402.75zM237.75 419.25L237.75 403.5L237 403.5L237 419.25zM237.75 435.75L237.75 420L237 420L237 435.75zM237.75 452.25L237.75 436.5L237 436.5L237 452.25zM237.75 468.75L237.75 453L237 453L237 468.75zM237.75 498.75L237.75 469.5L237 469.5L237 498.75zM237.75 515.25L237.75 499.5L237 499.5L237 515.25zM237.75 558L237.75 516L237 516L237 558zM141 71.25L141 55.5L140.25 55.5L140.25 71.25zM141 87.75L141 72L140.25 72L140.25 87.75zM141 117.75L141 88.5L140.25 88.5L140.25 117.75zM141 147.75L141 118.5L140.25 118.5L140.25 147.75zM141 177.75L141 148.5L140.25 148.5L140.25 177.75zM141 194.25L141 178.5L140.25 178.5L140.25 194.25zM141 210.75L141 195L140.25 195L140.25 210.75zM141 240.75L141 211.5L140.25 211.5L140.25 240.75zM141 257.25L141 241.5L140.25 241.5L140.25 257.25zM141 273.75L141 258L140.25 258L140.25 273.75zM141 290.25L141 274.5L140.25 274.5L140.25 290.25zM141 320.25L141 291L140.25 291L140.25 320.25zM141 336.75L141 321L140.25 321L140.25 336.75zM141 353.25L141 337.5L140.25 337.5L140.25 353.25zM141 369.75L141 354L140.25 354L140.25 369.75zM141 386.25L141 370.5L140.25 370.5L140.25 386.25zM141 402.75L141 387L140.25 387L140.25 402.75zM141 419.25L141 403.5L140.25 403.5L140.25 419.25zM141 435.75L141 420L140.25 420L140.25 435.75zM141 452.25L141 436.5L140.25 436.5L140.25 452.25zM141 468.75L141 453L140.25 453L140.25 468.75zM141 498.75L141 469.5L140.25 469.5L140.25 498.75zM141 515.25L141 499.5L140.25 499.5L140.25 515.25zM141 558L141 516L140.25 516L140.25 558zM107.25 71.25L107.25 55.5L106.5 55.5L106.5 71.25zM107.25 87.75L107.25 72L106.5 72L106.5 87.75zM107.25 117.75L107.25 88.5L106.5 88.5L106.5 117.75zM107.25 147.75L107.25 118.5L106.5 118.5L106.5 147.75zM107.25 177.75L107.25 148.5L106.5 148.5L106.5 177.75zM107.25 194.25L107.25 178.5L106.5 178.5L106.5 194.25zM107.25 210.75L107.25 195L106.5 195L106.5 210.75zM107.25 240.75L107.25 211.5L106.5 211.5L106.5 240.75zM107.25 257.25L107.25 241.5L106.5 241.5L106.5 257.25zM107.25 273.75L107.25 258L106.5 258L106.5 273.75zM107.25 290.25L107.25 274.5L106.5 274.5L106.5 290.25zM107.25 320.25L107.25 291L106.5 291L106.5 320.25zM107.25 336.75L107.25 321L106.5 321L106.5 336.75zM107.25 353.25L107.25 337.5L106.5 337.5L106.5 353.25zM107.25 369.75L107.25 354L106.5 354L106.5 369.75zM107.25 386.25L107.25 370.5L106.5 370.5L106.5 386.25zM107.25 402.75L107.25 387L106.5 387L106.5 402.75zM107.25 419.25L107.25 403.5L106.5 403.5L106.5 419.25zM107.25 435.75L107.25 420L106.5 420L106.5 435.75zM107.25 452.25L107.25 436.5L106.5 436.5L106.5 452.25zM107.25 468.75L107.25 453L106.5 453L106.5 468.75zM107.25 498.75L107.25 469.5L106.5 469.5L106.5 498.75zM107.25 515.25L107.25 499.5L106.5 499.5L106.5 515.25zM107.25 558L107.25 516L106.5 516L106.5 558z" stroke="none" fill="#000000" fill-rule="nonzero" fill-opacity="0.1490196" /><path id="206" transform="matrix(1 0 0 -1 0 612)" d="M240 518.9658L478.3487 518.9658" stroke="#000000" stroke-width="0.7017334" fill="none" /><path id="272" transform="matrix(1 0 0 -1 0 612)" d="M240 502.4658L479.914 502.4658" stroke="#000000" stroke-width="0.7017334" fill="none" /><path id="355" transform="matrix(1 0 0 -1 0 612)" d="M240 485.5549L587.4811 485.5549" stroke="#000000" stroke-width="0.7017334" fill="none" /><path id="391" transform="matrix(1 0 0 -1 0 612)" d="M240 472.4658L422.4841 472.4658" stroke="#000000" stroke-width="0.7017334" fill="none" /><path id="440" transform="matrix(1 0 0 -1 0 612)" d="M240 455.9658L382.2741 455.9658" stroke="#000000" stroke-width="0.7017334" fill="none" /><path id="518" transform="matrix(1 0 0 -1 0 612)" d="M240 439.4656L530.6583 439.4656" stroke="#000000" stroke-width="0.7017334" fill="none" /><path id="610" transform="matrix(1 0 0 -1 0 612)" d="M240 422.9656L589.4911 422.9656" stroke="#000000" stroke-width="0.7017334" fill="none" /><path id="639" transform="matrix(1 0 0 -1 0 612)" d="M240 406.4656L299.4667 406.4656" stroke="#000000" stroke-width="0.7017334" fill="none" /><path id="698" transform="matrix(1 0 0 -1 0 612)" d="M240 389.9656L454.4321 389.9656" stroke="#000000" stroke-width="0.7017334" fill="none" /><path id="764" transform="matrix(1 0 0 -1 0 612)" d="M240 373.4656L458.0553 373.4656" stroke="#000000" stroke-width="0.7017334" fill="none" /><path id="840" transform="matrix(1 0 0 -1 0 612)" d="M240 356.9656L496.8358 356.9656" stroke="#000000" stroke-width="0.7017334" fill="none" /><path id="913" transform="matrix(1 0 0 -1 0 612)" d="M240 340.4656L530.9983 340.4656" stroke="#000000" stroke-width="0.7017334" fill="none" /><path id="958" transform="matrix(1 0 0 -1 0 612)" d="M240 323.9656L356.635 323.9656" stroke="#000000" stroke-width="0.7017334" fill="none" /><path id="1045" transform="matrix(1 0 0 -1 0 612)" d="M240 307.0547L589.9575 307.0547" stroke="#000000" stroke-width="0.7017334" fill="none" /><path id="1073" transform="matrix(1 0 0 -1 0 612)" d="M240 293.9656L378.405 293.9656" stroke="#000000" stroke-width="0.7017334" fill="none" /><path id="1165" transform="matrix(1 0 0 -1 0 612)" d="M240 277.4656L601.1512 277.4656" stroke="#000000" stroke-width="0.7017334" fill="none" /><path id="1208" transform="matrix(1 0 0 -1 0 612)" d="M240 260.9656L374.7348 260.9656" stroke="#000000" stroke-width="0.7017334" fill="none" /><path id="1257" transform="matrix(1 0 0 -1 0 612)" d="M240 244.4656L400.3527 244.4656" stroke="#000000" stroke-width="0.7017334" fill="none" /><path id="1339" transform="matrix(1 0 0 -1 0 612)" d="M240 227.5547L566.5803 227.5547" stroke="#000000" stroke-width="0.7017334" fill="none" /><path id="1368" transform="matrix(1 0 0 -1 0 612)" d="M240 214.4656L387.9442 214.4656" stroke="#000000" stroke-width="0.7017334" fill="none" /><path id="1457" transform="matrix(1 0 0 -1 0 612)" d="M240 197.9656L591.7952 197.9656" stroke="#000000" stroke-width="0.7017334" fill="none" /><path id="1536" transform="matrix(1 0 0 -1 0 612)" d="M240 181.4656L495.2913 181.4656" stroke="#000000" stroke-width="0.7017334" fill="none" /><path id="1620" transform="matrix(1 0 0 -1 0 612)" d="M240 164.5547L585.303 164.5547" stroke="#000000" stroke-width="0.7017334" fill="none" /><path id="1643" transform="matrix(1 0 0 -1 0 612)" d="M240 151.4656L347.0747 151.4656" stroke="#000000" stroke-width="0.7017334" fill="none" /><path id="1741" transform="matrix(1 0 0 -1 0 612)" d="M240 134.5547L586.8476 134.5547" stroke="#000000" stroke-width="0.7017334" fill="none" /><path id="1795" transform="matrix(1 0 0 -1 0 612)" d="M240 121.4656L493.3175 121.4656" stroke="#000000" stroke-width="0.7017334" fill="none" /><path id="1833" transform="matrix(1 0 0 -1 0 612)" d="M240 91.46558L306.1161 91.46558" stroke="#000000" stroke-width="0.7017334" fill="none" /><path id="1866" transform="matrix(1 0 0 -1 0 612)" d="M240 74.96558L317.179 74.96558" stroke="#000000" stroke-width="0.7017334" fill="none" /><path id="1929" transform="matrix(1 0 0 -1 0 612)" d="M240 58.46558L487.6625 58.46558" stroke="#000000" stroke-width="0.7017334" fill="none" /></g></g></g></svg>