<svg xmlns="http://www.w3.org/2000/svg" xmlns:xlink="http://www.w3.org/1999/xlink" id="body_6" preserveAspectRatio="xMinYMin meet" viewBox="0 0 1056 816"><defs><clipPath id="1"><path id="" clip-rule="evenodd" transform="matrix(1 0 0 1 0 0)" d="M0 612L0 0L0 0L792 0L792 0L792 612L792 612L0 612z" /></clipPath><clipPath id="2"><path id="" clip-rule="evenodd" transform="matrix(1 0 0 1 0 0)" d="M105.75 52.5L686.25 52.5L686.25 52.5L686.25 548.25L686.25 548.25L105.75 548.25L105.75 548.25L105.75 52.5z" /></clipPath></defs><g transform="matrix(1.333333 0 0 1.333333 0 0)"><g clip-path="url(#1)"><g clip-path="url(#2)"><path id="101" transform="matrix(1 0 0 -1 0 612)" d="M106.5 558.75L685.5 558.75L685.5 528L106.5 528L106.5 558.75z" stroke="none" fill="#FFFFFF" fill-rule="nonzero" /><path id="102" transform="matrix(1 0 0 -1 0 612)" d="M106.5 528.75L685.5 528.75L685.5 498L106.5 498L106.5 528.75z" stroke="none" fill="#E0F7FA" fill-rule="nonzero" /><path id="103" transform="matrix(1 0 0 -1 0 612)" d="M106.5 498.75L685.5 498.75L685.5 481.5L106.5 481.5L106.5 498.75z" stroke="none" fill="#FFFFFF" fill-rule="nonzero" /><path id="104" transform="matrix(1 0 0 -1 0 612)" d="M106.5 482.25L685.5 482.25L685.5 465L106.5 465L106.5 482.25z" stroke="none" fill="#E0F7FA" fill-rule="nonzero" /><path id="105" transform="matrix(1 0 0 -1 0 612)" d="M106.5 465.75L685.5 465.75L685.5 448.5L106.5 448.5L106.5 465.75z" stroke="none" fill="#FFFFFF" fill-rule="nonzero" /><path id="106" transform="matrix(1 0 0 -1 0 612)" d="M106.5 449.25L685.5 449.25L685.5 432L106.5 432L106.5 449.25z" stroke="none" fill="#E0F7FA" fill-rule="nonzero" /><path id="107" transform="matrix(1 0 0 -1 0 612)" d="M106.5 432.75L685.5 432.75L685.5 415.5L106.5 415.5L106.5 432.75z" stroke="none" fill="#FFFFFF" fill-rule="nonzero" /><path id="108" transform="matrix(1 0 0 -1 0 612)" d="M106.5 416.25L685.5 416.25L685.5 399L106.5 399L106.5 416.25z" stroke="none" fill="#E0F7FA" fill-rule="nonzero" /><path id="109" transform="matrix(1 0 0 -1 0 612)" d="M106.5 399.75L685.5 399.75L685.5 382.5L106.5 382.5L106.5 399.75z" stroke="none" fill="#FFFFFF" fill-rule="nonzero" /><path id="110" transform="matrix(1 0 0 -1 0 612)" d="M106.5 383.25L685.5 383.25L685.5 366L106.5 366L106.5 383.25z" stroke="none" fill="#E0F7FA" fill-rule="nonzero" /><path id="111" transform="matrix(1 0 0 -1 0 612)" d="M106.5 366.75L685.5 366.75L685.5 336L106.5 336L106.5 366.75z" stroke="none" fill="#FFFFFF" fill-rule="nonzero" /><path id="112" transform="matrix(1 0 0 -1 0 612)" d="M106.5 336.75L685.5 336.75L685.5 319.5L106.5 319.5L106.5 336.75z" stroke="none" fill="#E0F7FA" fill-rule="nonzero" /><path id="113" transform="matrix(1 0 0 -1 0 612)" d="M106.5 320.25L685.5 320.25L685.5 289.5L106.5 289.5L106.5 320.25z" stroke="none" fill="#FFFFFF" fill-rule="nonzero" /><path id="114" transform="matrix(1 0 0 -1 0 612)" d="M106.5 290.25L685.5 290.25L685.5 273L106.5 273L106.5 290.25z" stroke="none" fill="#E0F7FA" fill-rule="nonzero" /><path id="115" transform="matrix(1 0 0 -1 0 612)" d="M106.5 273.75L685.5 273.75L685.5 256.5L106.5 256.5L106.5 273.75z" stroke="none" fill="#FFFFFF" fill-rule="nonzero" /><path id="116" transform="matrix(1 0 0 -1 0 612)" d="M106.5 257.25L685.5 257.25L685.5 240L106.5 240L106.5 257.25z" stroke="none" fill="#E0F7FA" fill-rule="nonzero" /><path id="117" transform="matrix(1 0 0 -1 0 612)" d="M106.5 240.75L685.5 240.75L685.5 223.5L106.5 223.5L106.5 240.75z" stroke="none" fill="#FFFFFF" fill-rule="nonzero" /><path id="118" transform="matrix(1 0 0 -1 0 612)" d="M106.5 224.25L685.5 224.25L685.5 193.5L106.5 193.5L106.5 224.25z" stroke="none" fill="#E0F7FA" fill-rule="nonzero" /><path id="119" transform="matrix(1 0 0 -1 0 612)" d="M106.5 194.25L685.5 194.25L685.5 177L106.5 177L106.5 194.25z" stroke="none" fill="#FFFFFF" fill-rule="nonzero" /><path id="120" transform="matrix(1 0 0 -1 0 612)" d="M106.5 177.75L685.5 177.75L685.5 160.5L106.5 160.5L106.5 177.75z" stroke="none" fill="#E0F7FA" fill-rule="nonzero" /><path id="121" transform="matrix(1 0 0 -1 0 612)" d="M106.5 161.25L685.5 161.25L685.5 144L106.5 144L106.5 161.25z" stroke="none" fill="#FFFFFF" fill-rule="nonzero" /><path id="122" transform="matrix(1 0 0 -1 0 612)" d="M106.5 144.75L685.5 144.75L685.5 127.5L106.5 127.5L106.5 144.75z" stroke="none" fill="#E0F7FA" fill-rule="nonzero" /><path id="123" transform="matrix(1 0 0 -1 0 612)" d="M106.5 128.25L685.5 128.25L685.5 111L106.5 111L106.5 128.25z" stroke="none" fill="#FFFFFF" fill-rule="nonzero" /><path id="124" transform="matrix(1 0 0 -1 0 612)" d="M106.5 111.75L685.5 111.75L685.5 94.5L106.5 94.5L106.5 111.75z" stroke="none" fill="#E0F7FA" fill-rule="nonzero" /><path id="125" transform="matrix(1 0 0 -1 0 612)" d="M106.5 95.25L685.5 95.25L685.5 64.5L106.5 64.5L106.5 95.25z" stroke="none" fill="#FFFFFF" fill-rule="nonzero" /><path id="126" transform="matrix(1 0 0 -1 0 612)" d="M106.5 65.25L685.5 65.25L685.5 64.5L106.5 64.5zM106.5 95.25L685.5 95.25L685.5 94.5L106.5 94.5zM106.5 111.75L685.5 111.75L685.5 111L106.5 111zM106.5 128.25L685.5 128.25L685.5 127.5L106.5 127.5zM106.5 144.75L685.5 144.75L685.5 144L106.5 144zM106.5 161.25L685.5 161.25L685.5 160.5L106.5 160.5zM106.5 177.75L685.5 177.75L685.5 177L106.5 177zM106.5 194.25L685.5 194.25L685.5 193.5L106.5 193.5zM106.5 224.25L685.5 224.25L685.5 223.5L106.5 223.5zM106.5 240.75L685.5 240.75L685.5 240L106.5 240zM106.5 257.25L685.5 257.25L685.5 256.5L106.5 256.5zM106.5 273.75L685.5 273.75L685.5 273L106.5 273zM106.5 290.25L685.5 290.25L685.5 289.5L106.5 289.5zM106.5 320.25L685.5 320.25L685.5 319.5L106.5 319.5zM106.5 336.75L685.5 336.75L685.5 336L106.5 336zM106.5 366.75L685.5 366.75L685.5 366L106.5 366zM106.5 383.25L685.5 383.25L685.5 382.5L106.5 382.5zM106.5 399.75L685.5 399.75L685.5 399L106.5 399zM106.5 416.25L685.5 416.25L685.5 415.5L106.5 415.5zM106.5 432.75L685.5 432.75L685.5 432L106.5 432zM106.5 449.25L685.5 449.25L685.5 448.5L106.5 448.5zM106.5 465.75L685.5 465.75L685.5 465L106.5 465zM106.5 482.25L685.5 482.25L685.5 481.5L106.5 481.5zM106.5 498.75L685.5 498.75L685.5 498L106.5 498zM106.5 528.75L685.5 528.75L685.5 528L106.5 528zM106.5 558.75L685.5 558.75L685.5 558L106.5 558zM685.5 94.5L685.5 65.25L684.75 65.25L684.75 94.5zM685.5 111L685.5 95.25L684.75 95.25L684.75 111zM685.5 127.5L685.5 111.75L684.75 111.75L684.75 127.5zM685.5 144L685.5 128.25L684.75 128.25L684.75 144zM685.5 160.5L685.5 144.75L684.75 144.75L684.75 160.5zM685.5 177L685.5 161.25L684.75 161.25L684.75 177zM685.5 193.5L685.5 177.75L684.75 177.75L684.75 193.5zM685.5 223.5L685.5 194.25L684.75 194.25L684.75 223.5zM685.5 240L685.5 224.25L684.75 224.25L684.75 240zM685.5 256.5L685.5 240.75L684.75 240.75L684.75 256.5zM685.5 273L685.5 257.25L684.75 257.25L684.75 273zM685.5 289.5L685.5 273.75L684.75 273.75L684.75 289.5zM685.5 319.5L685.5 290.25L684.75 290.25L684.75 319.5zM685.5 336L685.5 320.25L684.75 320.25L684.75 336zM685.5 366L685.5 336.75L684.75 336.75L684.75 366zM685.5 382.5L685.5 366.75L684.75 366.75L684.75 382.5zM685.5 399L685.5 383.25L684.75 383.25L684.75 399zM685.5 415.5L685.5 399.75L684.75 399.75L684.75 415.5zM685.5 432L685.5 416.25L684.75 416.25L684.75 432zM685.5 448.5L685.5 432.75L684.75 432.75L684.75 448.5zM685.5 465L685.5 449.25L684.75 449.25L684.75 465zM685.5 481.5L685.5 465.75L684.75 465.75L684.75 481.5zM685.5 498L685.5 482.25L684.75 482.25L684.75 498zM685.5 528L685.5 498.75L684.75 498.75L684.75 528zM685.5 558L685.5 528.75L684.75 528.75L684.75 558zM615 94.5L615 65.25L614.25 65.25L614.25 94.5zM615 111L615 95.25L614.25 95.25L614.25 111zM615 127.5L615 111.75L614.25 111.75L614.25 127.5zM615 144L615 128.25L614.25 128.25L614.25 144zM615 160.5L615 144.75L614.25 144.75L614.25 160.5zM615 177L615 161.25L614.25 161.25L614.25 177zM615 193.5L615 177.75L614.25 177.75L614.25 193.5zM615 223.5L615 194.25L614.25 194.25L614.25 223.5zM615 240L615 224.25L614.25 224.25L614.25 240zM615 256.5L615 240.75L614.25 240.75L614.25 256.5zM615 273L615 257.25L614.25 257.25L614.25 273zM615 289.5L615 273.75L614.25 273.75L614.25 289.5zM615 319.5L615 290.25L614.25 290.25L614.25 319.5zM615 336L615 320.25L614.25 320.25L614.25 336zM615 366L615 336.75L614.25 336.75L614.25 366zM615 382.5L615 366.75L614.25 366.75L614.25 382.5zM615 399L615 383.25L614.25 383.25L614.25 399zM615 415.5L615 399.75L614.25 399.75L614.25 415.5zM615 432L615 416.25L614.25 416.25L614.25 432zM615 448.5L615 432.75L614.25 432.75L614.25 448.5zM615 465L615 449.25L614.25 449.25L614.25 465zM615 481.5L615 465.75L614.25 465.75L614.25 481.5zM615 498L615 482.25L614.25 482.25L614.25 498zM615 528L615 498.75L614.25 498.75L614.25 528zM615 558L615 528.75L614.25 528.75L614.25 558zM237.75 94.5L237.75 65.25L237 65.25L237 94.5zM237.75 111L237.75 95.25L237 95.25L237 111zM237.75 127.5L237.75 111.75L237 111.75L237 127.5zM237.75 144L237.75 128.25L237 128.25L237 144zM237.75 160.5L237.75 144.75L237 144.75L237 160.5zM237.75 177L237.75 161.25L237 161.25L237 177zM237.75 193.5L237.75 177.75L237 177.75L237 193.5zM237.75 223.5L237.75 194.25L237 194.25L237 223.5zM237.75 240L237.75 224.25L237 224.25L237 240zM237.75 256.5L237.75 240.75L237 240.75L237 256.5zM237.75 273L237.75 257.25L237 257.25L237 273zM237.75 289.5L237.75 273.75L237 273.75L237 289.5zM237.75 319.5L237.75 290.25L237 290.25L237 319.5zM237.75 336L237.75 320.25L237 320.25L237 336zM237.75 366L237.75 336.75L237 336.75L237 366zM237.75 382.5L237.75 366.75L237 366.75L237 382.5zM237.75 399L237.75 383.25L237 383.25L237 399zM237.75 415.5L237.75 399.75L237 399.75L237 415.5zM237.75 432L237.75 416.25L237 416.25L237 432zM237.75 448.5L237.75 432.75L237 432.75L237 448.5zM237.75 465L237.75 449.25L237 449.25L237 465zM237.75 481.5L237.75 465.75L237 465.75L237 481.5zM237.75 498L237.75 482.25L237 482.25L237 498zM237.75 528L237.75 498.75L237 498.75L237 528zM237.75 558L237.75 528.75L237 528.75L237 558zM141 94.5L141 65.25L140.25 65.25L140.25 94.5zM141 111L141 95.25L140.25 95.25L140.25 111zM141 127.5L141 111.75L140.25 111.75L140.25 127.5zM141 144L141 128.25L140.25 128.25L140.25 144zM141 160.5L141 144.75L140.25 144.75L140.25 160.5zM141 177L141 161.25L140.25 161.25L140.25 177zM141 193.5L141 177.75L140.25 177.75L140.25 193.5zM141 223.5L141 194.25L140.25 194.25L140.25 223.5zM141 240L141 224.25L140.25 224.25L140.25 240zM141 256.5L141 240.75L140.25 240.75L140.25 256.5zM141 273L141 257.25L140.25 257.25L140.25 273zM141 289.5L141 273.75L140.25 273.75L140.25 289.5zM141 319.5L141 290.25L140.25 290.25L140.25 319.5zM141 336L141 320.25L140.25 320.25L140.25 336zM141 366L141 336.75L140.25 336.75L140.25 366zM141 382.5L141 366.75L140.25 366.75L140.25 382.5zM141 399L141 383.25L140.25 383.25L140.25 399zM141 415.5L141 399.75L140.25 399.75L140.25 415.5zM141 432L141 416.25L140.25 416.25L140.25 432zM141 448.5L141 432.75L140.25 432.75L140.25 448.5zM141 465L141 449.25L140.25 449.25L140.25 465zM141 481.5L141 465.75L140.25 465.75L140.25 481.5zM141 498L141 482.25L140.25 482.25L140.25 498zM141 528L141 498.75L140.25 498.75L140.25 528zM141 558L141 528.75L140.25 528.75L140.25 558zM107.25 94.5L107.25 65.25L106.5 65.25L106.5 94.5zM107.25 111L107.25 95.25L106.5 95.25L106.5 111zM107.25 127.5L107.25 111.75L106.5 111.75L106.5 127.5zM107.25 144L107.25 128.25L106.5 128.25L106.5 144zM107.25 160.5L107.25 144.75L106.5 144.75L106.5 160.5zM107.25 177L107.25 161.25L106.5 161.25L106.5 177zM107.25 193.5L107.25 177.75L106.5 177.75L106.5 193.5zM107.25 223.5L107.25 194.25L106.5 194.25L106.5 223.5zM107.25 240L107.25 224.25L106.5 224.25L106.5 240zM107.25 256.5L107.25 240.75L106.5 240.75L106.5 256.5zM107.25 273L107.25 257.25L106.5 257.25L106.5 273zM107.25 289.5L107.25 273.75L106.5 273.75L106.5 289.5zM107.25 319.5L107.25 290.25L106.5 290.25L106.5 319.5zM107.25 336L107.25 320.25L106.5 320.25L106.5 336zM107.25 366L107.25 336.75L106.5 336.75L106.5 366zM107.25 382.5L107.25 366.75L106.5 366.75L106.5 382.5zM107.25 399L107.25 383.25L106.5 383.25L106.5 399zM107.25 415.5L107.25 399.75L106.5 399.75L106.5 415.5zM107.25 432L107.25 416.25L106.5 416.25L106.5 432zM107.25 448.5L107.25 432.75L106.5 432.75L106.5 448.5zM107.25 465L107.25 449.25L106.5 449.25L106.5 465zM107.25 481.5L107.25 465.75L106.5 465.75L106.5 481.5zM107.25 498L107.25 482.25L106.5 482.25L106.5 498zM107.25 528L107.25 498.75L106.5 498.75L106.5 528zM107.25 558L107.25 528.75L106.5 528.75L106.5 558z" stroke="none" fill="#000000" fill-rule="nonzero" fill-opacity="0.1490196" /><path id="206" transform="matrix(1 0 0 -1 0 612)" d="M240 544.8049L576.2397 544.8049" stroke="#000000" stroke-width="0.7017334" fill="none" /><path id="240" transform="matrix(1 0 0 -1 0 612)" d="M240 531.7158L400.7823 531.7158" stroke="#000000" stroke-width="0.7017334" fill="none" /><path id="308" transform="matrix(1 0 0 -1 0 612)" d="M240 501.7158L446.432 501.7158" stroke="#000000" stroke-width="0.7017334" fill="none" /><path id="385" transform="matrix(1 0 0 -1 0 612)" d="M240 485.2158L559.9359 485.2158" stroke="#000000" stroke-width="0.7017334" fill="none" /><path id="423" transform="matrix(1 0 0 -1 0 612)" d="M240 468.7158L337.5929 468.7158" stroke="#000000" stroke-width="0.7017334" fill="none" /><path id="499" transform="matrix(1 0 0 -1 0 612)" d="M240 452.2158L504.1814 452.2158" stroke="#000000" stroke-width="0.7017334" fill="none" /><path id="528" transform="matrix(1 0 0 -1 0 612)" d="M240 435.7158L309.3464 435.7158" stroke="#000000" stroke-width="0.7017334" fill="none" /><path id="574" transform="matrix(1 0 0 -1 0 612)" d="M240 419.2158L389.4732 419.2158" stroke="#000000" stroke-width="0.7017334" fill="none" /><path id="616" transform="matrix(1 0 0 -1 0 612)" d="M240 402.7158L398.1382 402.7158" stroke="#000000" stroke-width="0.7017334" fill="none" /><path id="672" transform="matrix(1 0 0 -1 0 612)" d="M240 386.2158L446.4005 386.2158" stroke="#000000" stroke-width="0.7017334" fill="none" /><path id="735" transform="matrix(1 0 0 -1 0 612)" d="M240 369.7158L475.7361 369.7158" stroke="#000000" stroke-width="0.7017334" fill="none" /><path id="820" transform="matrix(1 0 0 -1 0 612)" d="M240 352.8049L558.046 352.8049" stroke="#000000" stroke-width="0.7017334" fill="none" /><path id="838" transform="matrix(1 0 0 -1 0 612)" d="M240 339.7158L309.8543 339.7158" stroke="#000000" stroke-width="0.7017334" fill="none" /><path id="882" transform="matrix(1 0 0 -1 0 612)" d="M240 323.2158L376.8029 323.2158" stroke="#000000" stroke-width="0.7017334" fill="none" /><path id="974" transform="matrix(1 0 0 -1 0 612)" d="M240 306.3049L611.5546 306.3049" stroke="#000000" stroke-width="0.7017334" fill="none" /><path id="1008" transform="matrix(1 0 0 -1 0 612)" d="M240 293.2158L411.8085 293.2158" stroke="#000000" stroke-width="0.7017334" fill="none" /><path id="1086" transform="matrix(1 0 0 -1 0 612)" d="M240 276.7158L536.6845 276.7158" stroke="#000000" stroke-width="0.7017334" fill="none" /><path id="1133" transform="matrix(1 0 0 -1 0 612)" d="M240 260.2158L392.2429 260.2158" stroke="#000000" stroke-width="0.7017334" fill="none" /><path id="1210" transform="matrix(1 0 0 -1 0 612)" d="M240 243.7158L553.046 243.7158" stroke="#000000" stroke-width="0.7017334" fill="none" /><path id="1286" transform="matrix(1 0 0 -1 0 612)" d="M240 227.2158L521.7943 227.2158" stroke="#000000" stroke-width="0.7017334" fill="none" /><path id="1367" transform="matrix(1 0 0 -1 0 612)" d="M240 210.3049L583.816 210.3049" stroke="#000000" stroke-width="0.7017334" fill="none" /><path id="1387" transform="matrix(1 0 0 -1 0 612)" d="M240 197.2158L338.996 197.2158" stroke="#000000" stroke-width="0.7017334" fill="none" /><path id="1442" transform="matrix(1 0 0 -1 0 612)" d="M240 180.7158L444.72 180.7158" stroke="#000000" stroke-width="0.7017334" fill="none" /><path id="1498" transform="matrix(1 0 0 -1 0 612)" d="M240 164.2158L429.1387 164.2158" stroke="#000000" stroke-width="0.7017334" fill="none" /><path id="1569" transform="matrix(1 0 0 -1 0 612)" d="M240 147.7158L522.3128 147.7158" stroke="#000000" stroke-width="0.7017334" fill="none" /><path id="1622" transform="matrix(1 0 0 -1 0 612)" d="M240 131.2158L438.0393 131.2158" stroke="#000000" stroke-width="0.7017334" fill="none" /><path id="1690" transform="matrix(1 0 0 -1 0 612)" d="M240 114.7158L519.5901 114.7158" stroke="#000000" stroke-width="0.7017334" fill="none" /><path id="1730" transform="matrix(1 0 0 -1 0 612)" d="M240 98.21582L368.5043 98.21582" stroke="#000000" stroke-width="0.7017334" fill="none" /><path id="1819" transform="matrix(1 0 0 -1 0 612)" d="M240 68.21582L514.5687 68.21582" stroke="#000000" stroke-width="0.7017334" fill="none" /></g></g></g></svg>