<svg xmlns="http://www.w3.org/2000/svg" xmlns:xlink="http://www.w3.org/1999/xlink" id="body_8" preserveAspectRatio="xMinYMin meet" viewBox="0 0 1056 816"><defs><clipPath id="1"><path id="" clip-rule="evenodd" transform="matrix(1 0 0 1 0 0)" d="M0 612L0 0L0 0L792 0L792 0L792 612L792 612L0 612z" /></clipPath><clipPath id="2"><path id="" clip-rule="evenodd" transform="matrix(1 0 0 1 0 0)" d="M105.75 52.5L686.25 52.5L686.25 52.5L686.25 543L686.25 543L105.75 543L105.75 543L105.75 52.5z" /></clipPath></defs><g transform="matrix(1.333333 0 0 1.333333 0 0)"><g clip-path="url(#1)"><g clip-path="url(#2)"><path id="101" transform="matrix(1 0 0 -1 0 612)" d="M106.5 558.75L685.5 558.75L685.5 528L106.5 528L106.5 558.75z" stroke="none" fill="#E0F7FA" fill-rule="nonzero" /><path id="102" transform="matrix(1 0 0 -1 0 612)" d="M106.5 528.75L685.5 528.75L685.5 511.5L106.5 511.5L106.5 528.75z" stroke="none" fill="#FFFFFF" fill-rule="nonzero" /><path id="103" transform="matrix(1 0 0 -1 0 612)" d="M106.5 512.25L685.5 512.25L685.5 495L106.5 495L106.5 512.25z" stroke="none" fill="#E0F7FA" fill-rule="nonzero" /><path id="104" transform="matrix(1 0 0 -1 0 612)" d="M106.5 495.75L685.5 495.75L685.5 465L106.5 465L106.5 495.75z" stroke="none" fill="#FFFFFF" fill-rule="nonzero" /><path id="105" transform="matrix(1 0 0 -1 0 612)" d="M106.5 465.75L685.5 465.75L685.5 448.5L106.5 448.5L106.5 465.75z" stroke="none" fill="#E0F7FA" fill-rule="nonzero" /><path id="106" transform="matrix(1 0 0 -1 0 612)" d="M106.5 449.25L685.5 449.25L685.5 432L106.5 432L106.5 449.25z" stroke="none" fill="#FFFFFF" fill-rule="nonzero" /><path id="107" transform="matrix(1 0 0 -1 0 612)" d="M106.5 432.75L685.5 432.75L685.5 415.5L106.5 415.5L106.5 432.75z" stroke="none" fill="#E0F7FA" fill-rule="nonzero" /><path id="108" transform="matrix(1 0 0 -1 0 612)" d="M106.5 416.25L685.5 416.25L685.5 399L106.5 399L106.5 416.25z" stroke="none" fill="#FFFFFF" fill-rule="nonzero" /><path id="109" transform="matrix(1 0 0 -1 0 612)" d="M106.5 399.75L685.5 399.75L685.5 382.5L106.5 382.5L106.5 399.75z" stroke="none" fill="#E0F7FA" fill-rule="nonzero" /><path id="110" transform="matrix(1 0 0 -1 0 612)" d="M106.5 383.25L685.5 383.25L685.5 366L106.5 366L106.5 383.25z" stroke="none" fill="#FFFFFF" fill-rule="nonzero" /><path id="111" transform="matrix(1 0 0 -1 0 612)" d="M106.5 366.75L685.5 366.75L685.5 349.5L106.5 349.5L106.5 366.75z" stroke="none" fill="#E0F7FA" fill-rule="nonzero" /><path id="112" transform="matrix(1 0 0 -1 0 612)" d="M106.5 350.25L685.5 350.25L685.5 333L106.5 333L106.5 350.25z" stroke="none" fill="#FFFFFF" fill-rule="nonzero" /><path id="113" transform="matrix(1 0 0 -1 0 612)" d="M106.5 333.75L685.5 333.75L685.5 316.5L106.5 316.5L106.5 333.75z" stroke="none" fill="#E0F7FA" fill-rule="nonzero" /><path id="114" transform="matrix(1 0 0 -1 0 612)" d="M106.5 317.25L685.5 317.25L685.5 286.5L106.5 286.5L106.5 317.25z" stroke="none" fill="#FFFFFF" fill-rule="nonzero" /><path id="115" transform="matrix(1 0 0 -1 0 612)" d="M106.5 287.25L685.5 287.25L685.5 243.75L106.5 243.75L106.5 287.25z" stroke="none" fill="#E0F7FA" fill-rule="nonzero" /><path id="116" transform="matrix(1 0 0 -1 0 612)" d="M106.5 244.5L685.5 244.5L685.5 213.75L106.5 213.75L106.5 244.5z" stroke="none" fill="#FFFFFF" fill-rule="nonzero" /><path id="117" transform="matrix(1 0 0 -1 0 612)" d="M106.5 214.5L685.5 214.5L685.5 182.25L106.5 182.25L106.5 214.5z" stroke="none" fill="#E0F7FA" fill-rule="nonzero" /><path id="118" transform="matrix(1 0 0 -1 0 612)" d="M106.5 183L685.5 183L685.5 165.75L106.5 165.75L106.5 183z" stroke="none" fill="#FFFFFF" fill-rule="nonzero" /><path id="119" transform="matrix(1 0 0 -1 0 612)" d="M106.5 166.5L685.5 166.5L685.5 149.25L106.5 149.25L106.5 166.5z" stroke="none" fill="#E0F7FA" fill-rule="nonzero" /><path id="120" transform="matrix(1 0 0 -1 0 612)" d="M106.5 150L685.5 150L685.5 132.75L106.5 132.75L106.5 150z" stroke="none" fill="#FFFFFF" fill-rule="nonzero" /><path id="121" transform="matrix(1 0 0 -1 0 612)" d="M106.5 133.5L685.5 133.5L685.5 116.25L106.5 116.25L106.5 133.5z" stroke="none" fill="#E0F7FA" fill-rule="nonzero" /><path id="122" transform="matrix(1 0 0 -1 0 612)" d="M106.5 117L685.5 117L685.5 86.25L106.5 86.25L106.5 117z" stroke="none" fill="#FFFFFF" fill-rule="nonzero" /><path id="123" transform="matrix(1 0 0 -1 0 612)" d="M106.5 87L685.5 87L685.5 69.75L106.5 69.75L106.5 87z" stroke="none" fill="#E0F7FA" fill-rule="nonzero" /><path id="124" transform="matrix(1 0 0 -1 0 612)" d="M106.5 70.5L685.5 70.5L685.5 69.75L106.5 69.75zM106.5 87L685.5 87L685.5 86.25L106.5 86.25zM106.5 117L685.5 117L685.5 116.25L106.5 116.25zM106.5 133.5L685.5 133.5L685.5 132.75L106.5 132.75zM106.5 150L685.5 150L685.5 149.25L106.5 149.25zM106.5 166.5L685.5 166.5L685.5 165.75L106.5 165.75zM106.5 183L685.5 183L685.5 182.25L106.5 182.25zM106.5 214.5L685.5 214.5L685.5 213.75L106.5 213.75zM106.5 244.5L685.5 244.5L685.5 243.75L106.5 243.75zM106.5 287.25L685.5 287.25L685.5 286.5L106.5 286.5zM106.5 317.25L685.5 317.25L685.5 316.5L106.5 316.5zM106.5 333.75L685.5 333.75L685.5 333L106.5 333zM106.5 350.25L685.5 350.25L685.5 349.5L106.5 349.5zM106.5 366.75L685.5 366.75L685.5 366L106.5 366zM106.5 383.25L685.5 383.25L685.5 382.5L106.5 382.5zM106.5 399.75L685.5 399.75L685.5 399L106.5 399zM106.5 416.25L685.5 416.25L685.5 415.5L106.5 415.5zM106.5 432.75L685.5 432.75L685.5 432L106.5 432zM106.5 449.25L685.5 449.25L685.5 448.5L106.5 448.5zM106.5 465.75L685.5 465.75L685.5 465L106.5 465zM106.5 495.75L685.5 495.75L685.5 495L106.5 495zM106.5 512.25L685.5 512.25L685.5 511.5L106.5 511.5zM106.5 528.75L685.5 528.75L685.5 528L106.5 528zM106.5 558.75L685.5 558.75L685.5 558L106.5 558zM685.5 86.25L685.5 70.5L684.75 70.5L684.75 86.25zM685.5 116.25L685.5 87L684.75 87L684.75 116.25zM685.5 132.75L685.5 117L684.75 117L684.75 132.75zM685.5 149.25L685.5 133.5L684.75 133.5L684.75 149.25zM685.5 165.75L685.5 150L684.75 150L684.75 165.75zM685.5 182.25L685.5 166.5L684.75 166.5L684.75 182.25zM685.5 213.75L685.5 183L684.75 183L684.75 213.75zM685.5 243.75L685.5 214.5L684.75 214.5L684.75 243.75zM685.5 286.5L685.5 244.5L684.75 244.5L684.75 286.5zM685.5 316.5L685.5 287.25L684.75 287.25L684.75 316.5zM685.5 333L685.5 317.25L684.75 317.25L684.75 333zM685.5 349.5L685.5 333.75L684.75 333.75L684.75 349.5zM685.5 366L685.5 350.25L684.75 350.25L684.75 366zM685.5 382.5L685.5 366.75L684.75 366.75L684.75 382.5zM685.5 399L685.5 383.25L684.75 383.25L684.75 399zM685.5 415.5L685.5 399.75L684.75 399.75L684.75 415.5zM685.5 432L685.5 416.25L684.75 416.25L684.75 432zM685.5 448.5L685.5 432.75L684.75 432.75L684.75 448.5zM685.5 465L685.5 449.25L684.75 449.25L684.75 465zM685.5 495L685.5 465.75L684.75 465.75L684.75 495zM685.5 511.5L685.5 495.75L684.75 495.75L684.75 511.5zM685.5 528L685.5 512.25L684.75 512.25L684.75 528zM685.5 558L685.5 528.75L684.75 528.75L684.75 558zM615 86.25L615 70.5L614.25 70.5L614.25 86.25zM615 116.25L615 87L614.25 87L614.25 116.25zM615 132.75L615 117L614.25 117L614.25 132.75zM615 149.25L615 133.5L614.25 133.5L614.25 149.25zM615 165.75L615 150L614.25 150L614.25 165.75zM615 182.25L615 166.5L614.25 166.5L614.25 182.25zM615 213.75L615 183L614.25 183L614.25 213.75zM615 243.75L615 214.5L614.25 214.5L614.25 243.75zM615 286.5L615 244.5L614.25 244.5L614.25 286.5zM615 316.5L615 287.25L614.25 287.25L614.25 316.5zM615 333L615 317.25L614.25 317.25L614.25 333zM615 349.5L615 333.75L614.25 333.75L614.25 349.5zM615 366L615 350.25L614.25 350.25L614.25 366zM615 382.5L615 366.75L614.25 366.75L614.25 382.5zM615 399L615 383.25L614.25 383.25L614.25 399zM615 415.5L615 399.75L614.25 399.75L614.25 415.5zM615 432L615 416.25L614.25 416.25L614.25 432zM615 448.5L615 432.75L614.25 432.75L614.25 448.5zM615 465L615 449.25L614.25 449.25L614.25 465zM615 495L615 465.75L614.25 465.75L614.25 495zM615 511.5L615 495.75L614.25 495.75L614.25 511.5zM615 528L615 512.25L614.25 512.25L614.25 528zM615 558L615 528.75L614.25 528.75L614.25 558zM237.75 86.25L237.75 70.5L237 70.5L237 86.25zM237.75 116.25L237.75 87L237 87L237 116.25zM237.75 132.75L237.75 117L237 117L237 132.75zM237.75 149.25L237.75 133.5L237 133.5L237 149.25zM237.75 165.75L237.75 150L237 150L237 165.75zM237.75 182.25L237.75 166.5L237 166.5L237 182.25zM237.75 213.75L237.75 183L237 183L237 213.75zM237.75 243.75L237.75 214.5L237 214.5L237 243.75zM237.75 286.5L237.75 244.5L237 244.5L237 286.5zM237.75 316.5L237.75 287.25L237 287.25L237 316.5zM237.75 333L237.75 317.25L237 317.25L237 333zM237.75 349.5L237.75 333.75L237 333.75L237 349.5zM237.75 366L237.75 350.25L237 350.25L237 366zM237.75 382.5L237.75 366.75L237 366.75L237 382.5zM237.75 399L237.75 383.25L237 383.25L237 399zM237.75 415.5L237.75 399.75L237 399.75L237 415.5zM237.75 432L237.75 416.25L237 416.25L237 432zM237.75 448.5L237.75 432.75L237 432.75L237 448.5zM237.75 465L237.75 449.25L237 449.25L237 465zM237.75 495L237.75 465.75L237 465.75L237 495zM237.75 511.5L237.75 495.75L237 495.75L237 511.5zM237.75 528L237.75 512.25L237 512.25L237 528zM237.75 558L237.75 528.75L237 528.75L237 558zM141 86.25L141 70.5L140.25 70.5L140.25 86.25zM141 116.25L141 87L140.25 87L140.25 116.25zM141 132.75L141 117L140.25 117L140.25 132.75zM141 149.25L141 133.5L140.25 133.5L140.25 149.25zM141 165.75L141 150L140.25 150L140.25 165.75zM141 182.25L141 166.5L140.25 166.5L140.25 182.25zM141 213.75L141 183L140.25 183L140.25 213.75zM141 243.75L141 214.5L140.25 214.5L140.25 243.75zM141 286.5L141 244.5L140.25 244.5L140.25 286.5zM141 316.5L141 287.25L140.25 287.25L140.25 316.5zM141 333L141 317.25L140.25 317.25L140.25 333zM141 349.5L141 333.75L140.25 333.75L140.25 349.5zM141 366L141 350.25L140.25 350.25L140.25 366zM141 382.5L141 366.75L140.25 366.75L140.25 382.5zM141 399L141 383.25L140.25 383.25L140.25 399zM141 415.5L141 399.75L140.25 399.75L140.25 415.5zM141 432L141 416.25L140.25 416.25L140.25 432zM141 448.5L141 432.75L140.25 432.75L140.25 448.5zM141 465L141 449.25L140.25 449.25L140.25 465zM141 495L141 465.75L140.25 465.75L140.25 495zM141 511.5L141 495.75L140.25 495.75L140.25 511.5zM141 528L141 512.25L140.25 512.25L140.25 528zM141 558L141 528.75L140.25 528.75L140.25 558zM107.25 86.25L107.25 70.5L106.5 70.5L106.5 86.25zM107.25 116.25L107.25 87L106.5 87L106.5 116.25zM107.25 132.75L107.25 117L106.5 117L106.5 132.75zM107.25 149.25L107.25 133.5L106.5 133.5L106.5 149.25zM107.25 165.75L107.25 150L106.5 150L106.5 165.75zM107.25 182.25L107.25 166.5L106.5 166.5L106.5 182.25zM107.25 213.75L107.25 183L106.5 183L106.5 213.75zM107.25 243.75L107.25 214.5L106.5 214.5L106.5 243.75zM107.25 286.5L107.25 244.5L106.5 244.5L106.5 286.5zM107.25 316.5L107.25 287.25L106.5 287.25L106.5 316.5zM107.25 333L107.25 317.25L106.5 317.25L106.5 333zM107.25 349.5L107.25 333.75L106.5 333.75L106.5 349.5zM107.25 366L107.25 350.25L106.5 350.25L106.5 366zM107.25 382.5L107.25 366.75L106.5 366.75L106.5 382.5zM107.25 399L107.25 383.25L106.5 383.25L106.5 399zM107.25 415.5L107.25 399.75L106.5 399.75L106.5 415.5zM107.25 432L107.25 416.25L106.5 416.25L106.5 432zM107.25 448.5L107.25 432.75L106.5 432.75L106.5 448.5zM107.25 465L107.25 449.25L106.5 449.25L106.5 465zM107.25 495L107.25 465.75L106.5 465.75L106.5 495zM107.25 511.5L107.25 495.75L106.5 495.75L106.5 511.5zM107.25 528L107.25 512.25L106.5 512.25L106.5 528zM107.25 558L107.25 528.75L106.5 528.75L106.5 558z" stroke="none" fill="#000000" fill-rule="nonzero" fill-opacity="0.1490196" /><path id="191" transform="matrix(1 0 0 -1 0 612)" d="M240 531.7156L445.9189 531.7156" stroke="#000000" stroke-width="0.7017334" fill="none" /><path id="245" transform="matrix(1 0 0 -1 0 612)" d="M240 515.2156L448.2855 515.2156" stroke="#000000" stroke-width="0.7017334" fill="none" /><path id="332" transform="matrix(1 0 0 -1 0 612)" d="M240 498.7156L598.3658 498.7156" stroke="#000000" stroke-width="0.7017334" fill="none" /><path id="419" transform="matrix(1 0 0 -1 0 612)" d="M240 481.8047L599.4863 481.8047" stroke="#000000" stroke-width="0.7017334" fill="none" /><path id="423" transform="matrix(1 0 0 -1 0 612)" d="M240 468.7156L253.9897 468.7156" stroke="#000000" stroke-width="0.7017334" fill="none" /><path id="484" transform="matrix(1 0 0 -1 0 612)" d="M240 452.2156L450.3902 452.2156" stroke="#000000" stroke-width="0.7017334" fill="none" /><path id="564" transform="matrix(1 0 0 -1 0 612)" d="M240 435.7156L550.8049 435.7156" stroke="#000000" stroke-width="0.7017334" fill="none" /><path id="645" transform="matrix(1 0 0 -1 0 612)" d="M240 419.2156L576.355 419.2156" stroke="#000000" stroke-width="0.7017334" fill="none" /><path id="719" transform="matrix(1 0 0 -1 0 612)" d="M240 402.7156L547.1243 402.7156" stroke="#000000" stroke-width="0.7017334" fill="none" /><path id="798" transform="matrix(1 0 0 -1 0 612)" d="M240 386.2156L548.6271 386.2156" stroke="#000000" stroke-width="0.7017334" fill="none" /><path id="869" transform="matrix(1 0 0 -1 0 612)" d="M240 369.7156L512.1711 369.7156" stroke="#000000" stroke-width="0.7017334" fill="none" /><path id="921" transform="matrix(1 0 0 -1 0 612)" d="M240 353.2156L416.3373 353.2156" stroke="#000000" stroke-width="0.7017334" fill="none" /><path id="965" transform="matrix(1 0 0 -1 0 612)" d="M240 336.7156L382.3105 336.7156" stroke="#000000" stroke-width="0.7017334" fill="none" /><path id="1046" transform="matrix(1 0 0 -1 0 612)" d="M240 320.2156L551.1768 320.2156" stroke="#000000" stroke-width="0.7017334" fill="none" /><path id="1134" transform="matrix(1 0 0 -1 0 612)" d="M240 303.3047L591.8685 303.3047" stroke="#000000" stroke-width="0.7017334" fill="none" /><path id="1142" transform="matrix(1 0 0 -1 0 612)" d="M240 290.2156L275.8853 290.2156" stroke="#000000" stroke-width="0.7017334" fill="none" /><path id="1244" transform="matrix(1 0 0 -1 0 612)" d="M240 247.4656L521.0771 247.4656" stroke="#000000" stroke-width="0.7017334" fill="none" /><path id="1323" transform="matrix(1 0 0 -1 0 612)" d="M240 230.5547L580.7112 230.5547" stroke="#000000" stroke-width="0.7017334" fill="none" /><path id="1334" transform="matrix(1 0 0 -1 0 612)" d="M240 217.4656L289.6341 217.4656" stroke="#000000" stroke-width="0.7017334" fill="none" /><path id="1429" transform="matrix(1 0 0 -1 0 612)" d="M240 199.0547L602.5021 199.0547" stroke="#000000" stroke-width="0.7017334" fill="none" /><path id="1434" transform="matrix(1 0 0 -1 0 612)" d="M240 185.9656L261.7385 185.9656" stroke="#000000" stroke-width="0.7017334" fill="none" /><path id="1482" transform="matrix(1 0 0 -1 0 612)" d="M240 169.4656L392.4261 169.4656" stroke="#000000" stroke-width="0.7017334" fill="none" /><path id="1524" transform="matrix(1 0 0 -1 0 612)" d="M240 152.9656L371.4677 152.9656" stroke="#000000" stroke-width="0.7017334" fill="none" /><path id="1604" transform="matrix(1 0 0 -1 0 612)" d="M240 136.4656L528.4279 136.4656" stroke="#000000" stroke-width="0.7017334" fill="none" /><path id="1660" transform="matrix(1 0 0 -1 0 612)" d="M240 119.9656L423.0653 119.9656" stroke="#000000" stroke-width="0.7017334" fill="none" /><path id="1748" transform="matrix(1 0 0 -1 0 612)" d="M240 103.0547L600.7691 103.0547" stroke="#000000" stroke-width="0.7017334" fill="none" /><path id="1765" transform="matrix(1 0 0 -1 0 612)" d="M240 89.96558L322.4409 89.96558" stroke="#000000" stroke-width="0.7017334" fill="none" /><path id="1848" transform="matrix(1 0 0 -1 0 612)" d="M240 73.46558L566.7896 73.46558" stroke="#000000" stroke-width="0.7017334" fill="none" /></g></g></g></svg>