<svg xmlns="http://www.w3.org/2000/svg" xmlns:xlink="http://www.w3.org/1999/xlink" id="body_8" preserveAspectRatio="xMinYMin meet" viewBox="0 0 1056 816"><defs><clipPath id="1"><path id="" clip-rule="evenodd" transform="matrix(1 0 0 1 0 0)" d="M0 612L0 0L0 0L792 0L792 0L792 612L792 612L0 612z" /></clipPath><clipPath id="2"><path id="" clip-rule="evenodd" transform="matrix(1 0 0 1 0 0)" d="M110.25 52.5L681.75 52.5L681.75 52.5L681.75 69.75L681.75 69.75L110.25 69.75L110.25 69.75L110.25 52.5z" /></clipPath><clipPath id="3"><path id="" clip-rule="evenodd" transform="matrix(1 0 0 1 0 0)" d="M110.25 69L681.75 69L681.75 69L681.75 537.75L681.75 537.75L110.25 537.75L110.25 537.75L110.25 69z" /></clipPath></defs><g transform="matrix(1.333333 0 0 1.333333 0 0)"><g clip-path="url(#1)"><g clip-path="url(#2)"><path id="9" transform="matrix(1 0 0 -1 0 612)" d="M111 558.75L681 558.75L681 541.5L111 541.5L111 558.75z" stroke="none" fill="#63D297" fill-rule="nonzero" /><path id="10" transform="matrix(1 0 0 -1 0 612)" d="M111 542.25L681 542.25L681 541.5L111 541.5zM111 558.75L681 558.75L681 558L111 558zM681 558L681 542.25L680.25 542.25L680.25 558zM605.25 558L605.25 542.25L604.5 542.25L604.5 558zM187.5 558L187.5 542.25L186.75 542.25L186.75 558zM111.75 558L111.75 542.25L111 542.25L111 558z" stroke="none" fill="#000000" fill-rule="nonzero" fill-opacity="0.1490196" /></g><g clip-path="url(#3)"><path id="27" transform="matrix(1 0 0 -1 0 612)" d="M111 542.25L681 542.25L681 511.5L111 511.5L111 542.25z" stroke="none" fill="#FFFFFF" fill-rule="nonzero" /><path id="28" transform="matrix(1 0 0 -1 0 612)" d="M111 512.25L681 512.25L681 481.5L111 481.5L111 512.25z" stroke="none" fill="#E7F9EF" fill-rule="nonzero" /><path id="29" transform="matrix(1 0 0 -1 0 612)" d="M111 482.25L681 482.25L681 455.25L111 455.25L111 482.25z" stroke="none" fill="#FFFFFF" fill-rule="nonzero" /><path id="30" transform="matrix(1 0 0 -1 0 612)" d="M111 456L681 456L681 429L111 429L111 456z" stroke="none" fill="#E7F9EF" fill-rule="nonzero" /><path id="31" transform="matrix(1 0 0 -1 0 612)" d="M111 429.75L681 429.75L681 412.5L111 412.5L111 429.75z" stroke="none" fill="#FFFFFF" fill-rule="nonzero" /><path id="32" transform="matrix(1 0 0 -1 0 612)" d="M111 413.25L681 413.25L681 386.25L111 386.25L111 413.25z" stroke="none" fill="#E7F9EF" fill-rule="nonzero" /><path id="33" transform="matrix(1 0 0 -1 0 612)" d="M111 387L681 387L681 369.75L111 369.75L111 387z" stroke="none" fill="#FFFFFF" fill-rule="nonzero" /><path id="34" transform="matrix(1 0 0 -1 0 612)" d="M111 370.5L681 370.5L681 339.75L111 339.75L111 370.5z" stroke="none" fill="#E7F9EF" fill-rule="nonzero" /><path id="35" transform="matrix(1 0 0 -1 0 612)" d="M111 340.5L681 340.5L681 309.75L111 309.75L111 340.5z" stroke="none" fill="#FFFFFF" fill-rule="nonzero" /><path id="36" transform="matrix(1 0 0 -1 0 612)" d="M111 310.5L681 310.5L681 293.25L111 293.25L111 310.5z" stroke="none" fill="#E7F9EF" fill-rule="nonzero" /><path id="37" transform="matrix(1 0 0 -1 0 612)" d="M111 294L681 294L681 263.25L111 263.25L111 294z" stroke="none" fill="#FFFFFF" fill-rule="nonzero" /><path id="38" transform="matrix(1 0 0 -1 0 612)" d="M111 264L681 264L681 246.75L111 246.75L111 264z" stroke="none" fill="#E7F9EF" fill-rule="nonzero" /><path id="39" transform="matrix(1 0 0 -1 0 612)" d="M111 247.5L681 247.5L681 230.25L111 230.25L111 247.5z" stroke="none" fill="#FFFFFF" fill-rule="nonzero" /><path id="40" transform="matrix(1 0 0 -1 0 612)" d="M111 231L681 231L681 213.75L111 213.75L111 231z" stroke="none" fill="#E7F9EF" fill-rule="nonzero" /><path id="41" transform="matrix(1 0 0 -1 0 612)" d="M111 214.5L681 214.5L681 197.25L111 197.25L111 214.5z" stroke="none" fill="#FFFFFF" fill-rule="nonzero" /><path id="42" transform="matrix(1 0 0 -1 0 612)" d="M111 198L681 198L681 180.75L111 180.75L111 198z" stroke="none" fill="#E7F9EF" fill-rule="nonzero" /><path id="43" transform="matrix(1 0 0 -1 0 612)" d="M111 181.5L681 181.5L681 154.5L111 154.5L111 181.5z" stroke="none" fill="#FFFFFF" fill-rule="nonzero" /><path id="44" transform="matrix(1 0 0 -1 0 612)" d="M111 155.25L681 155.25L681 138L111 138L111 155.25z" stroke="none" fill="#E7F9EF" fill-rule="nonzero" /><path id="45" transform="matrix(1 0 0 -1 0 612)" d="M111 138.75L681 138.75L681 121.5L111 121.5L111 138.75z" stroke="none" fill="#FFFFFF" fill-rule="nonzero" /><path id="46" transform="matrix(1 0 0 -1 0 612)" d="M111 122.25L681 122.25L681 105L111 105L111 122.25z" stroke="none" fill="#E7F9EF" fill-rule="nonzero" /><path id="47" transform="matrix(1 0 0 -1 0 612)" d="M111 105.75L681 105.75L681 75L111 75L111 105.75z" stroke="none" fill="#FFFFFF" fill-rule="nonzero" /><path id="48" transform="matrix(1 0 0 -1 0 612)" d="M111 75.75L681 75.75L681 75L111 75zM111 105.75L681 105.75L681 105L111 105zM111 122.25L681 122.25L681 121.5L111 121.5zM111 138.75L681 138.75L681 138L111 138zM111 155.25L681 155.25L681 154.5L111 154.5zM111 181.5L681 181.5L681 180.75L111 180.75zM111 198L681 198L681 197.25L111 197.25zM111 214.5L681 214.5L681 213.75L111 213.75zM111 231L681 231L681 230.25L111 230.25zM111 247.5L681 247.5L681 246.75L111 246.75zM111 264L681 264L681 263.25L111 263.25zM111 294L681 294L681 293.25L111 293.25zM111 310.5L681 310.5L681 309.75L111 309.75zM111 340.5L681 340.5L681 339.75L111 339.75zM111 370.5L681 370.5L681 369.75L111 369.75zM111 387L681 387L681 386.25L111 386.25zM111 413.25L681 413.25L681 412.5L111 412.5zM111 429.75L681 429.75L681 429L111 429zM111 456L681 456L681 455.25L111 455.25zM111 482.25L681 482.25L681 481.5L111 481.5zM111 512.25L681 512.25L681 511.5L111 511.5zM111 542.25L681 542.25L681 541.5L111 541.5zM681 105L681 75.75L680.25 75.75L680.25 105zM681 121.5L681 105.75L680.25 105.75L680.25 121.5zM681 138L681 122.25L680.25 122.25L680.25 138zM681 154.5L681 138.75L680.25 138.75L680.25 154.5zM681 180.75L681 155.25L680.25 155.25L680.25 180.75zM681 197.25L681 181.5L680.25 181.5L680.25 197.25zM681 213.75L681 198L680.25 198L680.25 213.75zM681 230.25L681 214.5L680.25 214.5L680.25 230.25zM681 246.75L681 231L680.25 231L680.25 246.75zM681 263.25L681 247.5L680.25 247.5L680.25 263.25zM681 293.25L681 264L680.25 264L680.25 293.25zM681 309.75L681 294L680.25 294L680.25 309.75zM681 339.75L681 310.5L680.25 310.5L680.25 339.75zM681 369.75L681 340.5L680.25 340.5L680.25 369.75zM681 386.25L681 370.5L680.25 370.5L680.25 386.25zM681 412.5L681 387L680.25 387L680.25 412.5zM681 429L681 413.25L680.25 413.25L680.25 429zM681 455.25L681 429.75L680.25 429.75L680.25 455.25zM681 481.5L681 456L680.25 456L680.25 481.5zM681 511.5L681 482.25L680.25 482.25L680.25 511.5zM681 541.5L681 512.25L680.25 512.25L680.25 541.5zM605.25 105L605.25 75.75L604.5 75.75L604.5 105zM605.25 121.5L605.25 105.75L604.5 105.75L604.5 121.5zM605.25 138L605.25 122.25L604.5 122.25L604.5 138zM605.25 154.5L605.25 138.75L604.5 138.75L604.5 154.5zM605.25 180.75L605.25 155.25L604.5 155.25L604.5 180.75zM605.25 197.25L605.25 181.5L604.5 181.5L604.5 197.25zM605.25 213.75L605.25 198L604.5 198L604.5 213.75zM605.25 230.25L605.25 214.5L604.5 214.5L604.5 230.25zM605.25 246.75L605.25 231L604.5 231L604.5 246.75zM605.25 263.25L605.25 247.5L604.5 247.5L604.5 263.25zM605.25 293.25L605.25 264L604.5 264L604.5 293.25zM605.25 309.75L605.25 294L604.5 294L604.5 309.75zM605.25 339.75L605.25 310.5L604.5 310.5L604.5 339.75zM605.25 369.75L605.25 340.5L604.5 340.5L604.5 369.75zM605.25 386.25L605.25 370.5L604.5 370.5L604.5 386.25zM605.25 412.5L605.25 387L604.5 387L604.5 412.5zM605.25 429L605.25 413.25L604.5 413.25L604.5 429zM605.25 455.25L605.25 429.75L604.5 429.75L604.5 455.25zM605.25 481.5L605.25 456L604.5 456L604.5 481.5zM605.25 511.5L605.25 482.25L604.5 482.25L604.5 511.5zM605.25 541.5L605.25 512.25L604.5 512.25L604.5 541.5zM187.5 105L187.5 75.75L186.75 75.75L186.75 105zM187.5 121.5L187.5 105.75L186.75 105.75L186.75 121.5zM187.5 138L187.5 122.25L186.75 122.25L186.75 138zM187.5 154.5L187.5 138.75L186.75 138.75L186.75 154.5zM187.5 180.75L187.5 155.25L186.75 155.25L186.75 180.75zM187.5 197.25L187.5 181.5L186.75 181.5L186.75 197.25zM187.5 213.75L187.5 198L186.75 198L186.75 213.75zM187.5 230.25L187.5 214.5L186.75 214.5L186.75 230.25zM187.5 246.75L187.5 231L186.75 231L186.75 246.75zM187.5 263.25L187.5 247.5L186.75 247.5L186.75 263.25zM187.5 293.25L187.5 264L186.75 264L186.75 293.25zM187.5 309.75L187.5 294L186.75 294L186.75 309.75zM187.5 339.75L187.5 310.5L186.75 310.5L186.75 339.75zM187.5 369.75L187.5 340.5L186.75 340.5L186.75 369.75zM187.5 386.25L187.5 370.5L186.75 370.5L186.75 386.25zM187.5 412.5L187.5 387L186.75 387L186.75 412.5zM187.5 429L187.5 413.25L186.75 413.25L186.75 429zM187.5 455.25L187.5 429.75L186.75 429.75L186.75 455.25zM187.5 481.5L187.5 456L186.75 456L186.75 481.5zM187.5 511.5L187.5 482.25L186.75 482.25L186.75 511.5zM187.5 541.5L187.5 512.25L186.75 512.25L186.75 541.5zM111.75 105L111.75 75.75L111 75.75L111 105zM111.75 121.5L111.75 105.75L111 105.75L111 121.5zM111.75 138L111.75 122.25L111 122.25L111 138zM111.75 154.5L111.75 138.75L111 138.75L111 154.5zM111.75 180.75L111.75 155.25L111 155.25L111 180.75zM111.75 197.25L111.75 181.5L111 181.5L111 197.25zM111.75 213.75L111.75 198L111 198L111 213.75zM111.75 230.25L111.75 214.5L111 214.5L111 230.25zM111.75 246.75L111.75 231L111 231L111 246.75zM111.75 263.25L111.75 247.5L111 247.5L111 263.25zM111.75 293.25L111.75 264L111 264L111 293.25zM111.75 309.75L111.75 294L111 294L111 309.75zM111.75 339.75L111.75 310.5L111 310.5L111 339.75zM111.75 369.75L111.75 340.5L111 340.5L111 369.75zM111.75 386.25L111.75 370.5L111 370.5L111 386.25zM111.75 412.5L111.75 387L111 387L111 412.5zM111.75 429L111.75 413.25L111 413.25L111 429zM111.75 455.25L111.75 429.75L111 429.75L111 455.25zM111.75 481.5L111.75 456L111 456L111 481.5zM111.75 511.5L111.75 482.25L111 482.25L111 511.5zM111.75 541.5L111.75 512.25L111 512.25L111 541.5z" stroke="none" fill="#000000" fill-rule="nonzero" fill-opacity="0.1490196" /><path id="94" transform="matrix(1 0 0 -1 0 612)" d="M189.75 514.7832L333.9243 514.7832" stroke="#1155CC" stroke-width="0.7141113" fill="none" /><path id="171" transform="matrix(1 0 0 -1 0 612)" d="M189.75 484.7832L482.3785 484.7832" stroke="#1155CC" stroke-width="0.7141113" fill="none" /><path id="210" transform="matrix(1 0 0 -1 0 612)" d="M189.75 469.7446L324.16 469.7446" stroke="#1155CC" stroke-width="0.7141113" fill="none" /><path id="212" transform="matrix(1 0 0 -1 0 612)" d="M324.16 470.1304L329.035 470.1304" stroke="#1155CC" stroke-width="0.7236328" fill="none" /><path id="262" transform="matrix(1 0 0 -1 0 612)" d="M329.035 469.7446L568.0005 469.7446" stroke="#1155CC" stroke-width="0.7141113" fill="none" /><path id="287" transform="matrix(1 0 0 -1 0 612)" d="M189.75 458.5332L312.7771 458.5332" stroke="#1155CC" stroke-width="0.7141113" fill="none" /><path id="379" transform="matrix(1 0 0 -1 0 612)" d="M189.75 443.4946L604.3392 443.4946" stroke="#1155CC" stroke-width="0.7141113" fill="none" /><path id="388" transform="matrix(1 0 0 -1 0 612)" d="M189.75 432.2832L235.8245 432.2832" stroke="#1155CC" stroke-width="0.7141113" fill="none" /><path id="441" transform="matrix(1 0 0 -1 0 612)" d="M189.75 415.7832L400.5652 415.7832" stroke="#1155CC" stroke-width="0.7141113" fill="none" /><path id="527" transform="matrix(1 0 0 -1 0 612)" d="M189.75 400.7446L560.4357 400.7446" stroke="#1155CC" stroke-width="0.7141113" fill="none" /><path id="563" transform="matrix(1 0 0 -1 0 612)" d="M189.75 389.5332L348.0018 389.5332" stroke="#1155CC" stroke-width="0.7141113" fill="none" /><path id="608" transform="matrix(1 0 0 -1 0 612)" d="M189.75 373.0332L359.3514 373.0332" stroke="#1155CC" stroke-width="0.7141113" fill="none" /><path id="693" transform="matrix(1 0 0 -1 0 612)" d="M189.75 343.0332L480.7837 343.0332" stroke="#1155CC" stroke-width="0.7141113" fill="none" /><path id="788" transform="matrix(1 0 0 -1 0 612)" d="M189.75 313.0332L532.014 313.0332" stroke="#1155CC" stroke-width="0.7141113" fill="none" /><path id="856" transform="matrix(1 0 0 -1 0 612)" d="M189.75 296.5332L464.4829 296.5332" stroke="#1155CC" stroke-width="0.7141113" fill="none" /><path id="927" transform="matrix(1 0 0 -1 0 612)" d="M189.75 266.5332L437.4181 266.5332" stroke="#1155CC" stroke-width="0.7141113" fill="none" /><path id="963" transform="matrix(1 0 0 -1 0 612)" d="M189.75 250.0332L317.1189 250.0332" stroke="#1155CC" stroke-width="0.7141113" fill="none" /><path id="1024" transform="matrix(1 0 0 -1 0 612)" d="M189.75 233.5332L398.0515 233.5332" stroke="#1155CC" stroke-width="0.7141113" fill="none" /><path id="1103" transform="matrix(1 0 0 -1 0 612)" d="M189.75 217.0332L518.1603 217.0332" stroke="#1155CC" stroke-width="0.7141113" fill="none" /><path id="1178" transform="matrix(1 0 0 -1 0 612)" d="M189.75 200.5332L490.5194 200.5332" stroke="#1155CC" stroke-width="0.7141113" fill="none" /><path id="1180" transform="matrix(1 0 0 -1 0 612)" d="M490.5194 200.9187L495.3944 200.9187" stroke="#1155CC" stroke-width="0.7236328" fill="none" /><path id="1198" transform="matrix(1 0 0 -1 0 612)" d="M495.3944 200.5332L583.7395 200.5332" stroke="#1155CC" stroke-width="0.7141113" fill="none" /><path id="1275" transform="matrix(1 0 0 -1 0 612)" d="M189.75 184.0332L512.2189 184.0332" stroke="#1155CC" stroke-width="0.7141113" fill="none" /><path id="1374" transform="matrix(1 0 0 -1 0 612)" d="M189.75 168.9946L602.1779 168.9946" stroke="#1155CC" stroke-width="0.7141113" fill="none" /><path id="1384" transform="matrix(1 0 0 -1 0 612)" d="M189.75 157.7832L236.8956 157.7832" stroke="#1155CC" stroke-width="0.7141113" fill="none" /><path id="1460" transform="matrix(1 0 0 -1 0 612)" d="M189.75 141.2832L516.7368 141.2832" stroke="#1155CC" stroke-width="0.7141113" fill="none" /><path id="1514" transform="matrix(1 0 0 -1 0 612)" d="M189.75 124.7832L378.3754 124.7832" stroke="#1155CC" stroke-width="0.7141113" fill="none" /><path id="1554" transform="matrix(1 0 0 -1 0 612)" d="M189.75 108.2832L308.402 108.2832" stroke="#1155CC" stroke-width="0.7141113" fill="none" /><path id="1602" transform="matrix(1 0 0 -1 0 612)" d="M189.75 78.2832L338.2375 78.2832" stroke="#1155CC" stroke-width="0.7141113" fill="none" /></g></g></g></svg>