<svg xmlns="http://www.w3.org/2000/svg" xmlns:xlink="http://www.w3.org/1999/xlink" id="body_5" preserveAspectRatio="xMinYMin meet" viewBox="0 0 1056 816"><defs><clipPath id="1"><path id="" clip-rule="evenodd" transform="matrix(1 0 0 1 0 0)" d="M0 612L0 0L0 0L792 0L792 0L792 612L792 612L0 612z" /></clipPath><clipPath id="2"><path id="" clip-rule="evenodd" transform="matrix(1 0 0 1 0 0)" d="M110.25 52.5L681.75 52.5L681.75 52.5L681.75 69.75L681.75 69.75L110.25 69.75L110.25 69.75L110.25 52.5z" /></clipPath><clipPath id="3"><path id="" clip-rule="evenodd" transform="matrix(1 0 0 1 0 0)" d="M110.25 69L681.75 69L681.75 69L681.75 533.25L681.75 533.25L110.25 533.25L110.25 533.25L110.25 69z" /></clipPath></defs><g transform="matrix(1.333333 0 0 1.333333 0 0)"><g clip-path="url(#1)"><g clip-path="url(#2)"><path id="9" transform="matrix(1 0 0 -1 0 612)" d="M111 558.75L681 558.75L681 541.5L111 541.5L111 558.75z" stroke="none" fill="#63D297" fill-rule="nonzero" /><path id="10" transform="matrix(1 0 0 -1 0 612)" d="M111 542.25L681 542.25L681 541.5L111 541.5zM111 558.75L681 558.75L681 558L111 558zM681 558L681 542.25L680.25 542.25L680.25 558zM605.25 558L605.25 542.25L604.5 542.25L604.5 558zM187.5 558L187.5 542.25L186.75 542.25L186.75 558zM111.75 558L111.75 542.25L111 542.25L111 558z" stroke="none" fill="#000000" fill-rule="nonzero" fill-opacity="0.1490196" /></g><g clip-path="url(#3)"><path id="27" transform="matrix(1 0 0 -1 0 612)" d="M111 542.25L681 542.25L681 525L111 525L111 542.25z" stroke="none" fill="#E7F9EF" fill-rule="nonzero" /><path id="28" transform="matrix(1 0 0 -1 0 612)" d="M111 525.75L681 525.75L681 508.5L111 508.5L111 525.75z" stroke="none" fill="#FFFFFF" fill-rule="nonzero" /><path id="29" transform="matrix(1 0 0 -1 0 612)" d="M111 509.25L681 509.25L681 478.5L111 478.5L111 509.25z" stroke="none" fill="#E7F9EF" fill-rule="nonzero" /><path id="30" transform="matrix(1 0 0 -1 0 612)" d="M111 479.25L681 479.25L681 462L111 462L111 479.25z" stroke="none" fill="#FFFFFF" fill-rule="nonzero" /><path id="31" transform="matrix(1 0 0 -1 0 612)" d="M111 462.75L681 462.75L681 445.5L111 445.5L111 462.75z" stroke="none" fill="#E7F9EF" fill-rule="nonzero" /><path id="32" transform="matrix(1 0 0 -1 0 612)" d="M111 446.25L681 446.25L681 429L111 429L111 446.25z" stroke="none" fill="#FFFFFF" fill-rule="nonzero" /><path id="33" transform="matrix(1 0 0 -1 0 612)" d="M111 429.75L681 429.75L681 412.5L111 412.5L111 429.75z" stroke="none" fill="#E7F9EF" fill-rule="nonzero" /><path id="34" transform="matrix(1 0 0 -1 0 612)" d="M111 413.25L681 413.25L681 396L111 396L111 413.25z" stroke="none" fill="#FFFFFF" fill-rule="nonzero" /><path id="35" transform="matrix(1 0 0 -1 0 612)" d="M111 396.75L681 396.75L681 379.5L111 379.5L111 396.75z" stroke="none" fill="#E7F9EF" fill-rule="nonzero" /><path id="36" transform="matrix(1 0 0 -1 0 612)" d="M111 380.25L681 380.25L681 363L111 363L111 380.25z" stroke="none" fill="#FFFFFF" fill-rule="nonzero" /><path id="37" transform="matrix(1 0 0 -1 0 612)" d="M111 363.75L681 363.75L681 346.5L111 346.5L111 363.75z" stroke="none" fill="#E7F9EF" fill-rule="nonzero" /><path id="38" transform="matrix(1 0 0 -1 0 612)" d="M111 347.25L681 347.25L681 320.25L111 320.25L111 347.25z" stroke="none" fill="#FFFFFF" fill-rule="nonzero" /><path id="39" transform="matrix(1 0 0 -1 0 612)" d="M111 321L681 321L681 303.75L111 303.75L111 321z" stroke="none" fill="#E7F9EF" fill-rule="nonzero" /><path id="40" transform="matrix(1 0 0 -1 0 612)" d="M111 304.5L681 304.5L681 287.25L111 287.25L111 304.5z" stroke="none" fill="#FFFFFF" fill-rule="nonzero" /><path id="41" transform="matrix(1 0 0 -1 0 612)" d="M111 288L681 288L681 270.75L111 270.75L111 288z" stroke="none" fill="#E7F9EF" fill-rule="nonzero" /><path id="42" transform="matrix(1 0 0 -1 0 612)" d="M111 271.5L681 271.5L681 214.5L111 214.5L111 271.5z" stroke="none" fill="#FFFFFF" fill-rule="nonzero" /><path id="43" transform="matrix(1 0 0 -1 0 612)" d="M111 215.25L681 215.25L681 198L111 198L111 215.25z" stroke="none" fill="#E7F9EF" fill-rule="nonzero" /><path id="44" transform="matrix(1 0 0 -1 0 612)" d="M111 198.75L681 198.75L681 181.5L111 181.5L111 198.75z" stroke="none" fill="#FFFFFF" fill-rule="nonzero" /><path id="45" transform="matrix(1 0 0 -1 0 612)" d="M111 182.25L681 182.25L681 165L111 165L111 182.25z" stroke="none" fill="#E7F9EF" fill-rule="nonzero" /><path id="46" transform="matrix(1 0 0 -1 0 612)" d="M111 165.75L681 165.75L681 148.5L111 148.5L111 165.75z" stroke="none" fill="#FFFFFF" fill-rule="nonzero" /><path id="47" transform="matrix(1 0 0 -1 0 612)" d="M111 149.25L681 149.25L681 122.25L111 122.25L111 149.25z" stroke="none" fill="#E7F9EF" fill-rule="nonzero" /><path id="48" transform="matrix(1 0 0 -1 0 612)" d="M111 123L681 123L681 96L111 96L111 123z" stroke="none" fill="#FFFFFF" fill-rule="nonzero" /><path id="49" transform="matrix(1 0 0 -1 0 612)" d="M111 96.75L681 96.75L681 79.5L111 79.5L111 96.75z" stroke="none" fill="#E7F9EF" fill-rule="nonzero" /><path id="50" transform="matrix(1 0 0 -1 0 612)" d="M111 80.25L681 80.25L681 79.5L111 79.5zM111 96.75L681 96.75L681 96L111 96zM111 123L681 123L681 122.25L111 122.25zM111 149.25L681 149.25L681 148.5L111 148.5zM111 165.75L681 165.75L681 165L111 165zM111 182.25L681 182.25L681 181.5L111 181.5zM111 198.75L681 198.75L681 198L111 198zM111 215.25L681 215.25L681 214.5L111 214.5zM111 271.5L681 271.5L681 270.75L111 270.75zM111 288L681 288L681 287.25L111 287.25zM111 304.5L681 304.5L681 303.75L111 303.75zM111 321L681 321L681 320.25L111 320.25zM111 347.25L681 347.25L681 346.5L111 346.5zM111 363.75L681 363.75L681 363L111 363zM111 380.25L681 380.25L681 379.5L111 379.5zM111 396.75L681 396.75L681 396L111 396zM111 413.25L681 413.25L681 412.5L111 412.5zM111 429.75L681 429.75L681 429L111 429zM111 446.25L681 446.25L681 445.5L111 445.5zM111 462.75L681 462.75L681 462L111 462zM111 479.25L681 479.25L681 478.5L111 478.5zM111 509.25L681 509.25L681 508.5L111 508.5zM111 525.75L681 525.75L681 525L111 525zM111 542.25L681 542.25L681 541.5L111 541.5zM681 96L681 80.25L680.25 80.25L680.25 96zM681 122.25L681 96.75L680.25 96.75L680.25 122.25zM681 148.5L681 123L680.25 123L680.25 148.5zM681 165L681 149.25L680.25 149.25L680.25 165zM681 181.5L681 165.75L680.25 165.75L680.25 181.5zM681 198L681 182.25L680.25 182.25L680.25 198zM681 214.5L681 198.75L680.25 198.75L680.25 214.5zM681 270.75L681 215.25L680.25 215.25L680.25 270.75zM681 287.25L681 271.5L680.25 271.5L680.25 287.25zM681 303.75L681 288L680.25 288L680.25 303.75zM681 320.25L681 304.5L680.25 304.5L680.25 320.25zM681 346.5L681 321L680.25 321L680.25 346.5zM681 363L681 347.25L680.25 347.25L680.25 363zM681 379.5L681 363.75L680.25 363.75L680.25 379.5zM681 396L681 380.25L680.25 380.25L680.25 396zM681 412.5L681 396.75L680.25 396.75L680.25 412.5zM681 429L681 413.25L680.25 413.25L680.25 429zM681 445.5L681 429.75L680.25 429.75L680.25 445.5zM681 462L681 446.25L680.25 446.25L680.25 462zM681 478.5L681 462.75L680.25 462.75L680.25 478.5zM681 508.5L681 479.25L680.25 479.25L680.25 508.5zM681 525L681 509.25L680.25 509.25L680.25 525zM681 541.5L681 525.75L680.25 525.75L680.25 541.5zM605.25 96L605.25 80.25L604.5 80.25L604.5 96zM605.25 122.25L605.25 96.75L604.5 96.75L604.5 122.25zM605.25 148.5L605.25 123L604.5 123L604.5 148.5zM605.25 165L605.25 149.25L604.5 149.25L604.5 165zM605.25 181.5L605.25 165.75L604.5 165.75L604.5 181.5zM605.25 198L605.25 182.25L604.5 182.25L604.5 198zM605.25 214.5L605.25 198.75L604.5 198.75L604.5 214.5zM605.25 270.75L605.25 215.25L604.5 215.25L604.5 270.75zM605.25 287.25L605.25 271.5L604.5 271.5L604.5 287.25zM605.25 303.75L605.25 288L604.5 288L604.5 303.75zM605.25 320.25L605.25 304.5L604.5 304.5L604.5 320.25zM605.25 346.5L605.25 321L604.5 321L604.5 346.5zM605.25 363L605.25 347.25L604.5 347.25L604.5 363zM605.25 379.5L605.25 363.75L604.5 363.75L604.5 379.5zM605.25 396L605.25 380.25L604.5 380.25L604.5 396zM605.25 412.5L605.25 396.75L604.5 396.75L604.5 412.5zM605.25 429L605.25 413.25L604.5 413.25L604.5 429zM605.25 445.5L605.25 429.75L604.5 429.75L604.5 445.5zM605.25 462L605.25 446.25L604.5 446.25L604.5 462zM605.25 478.5L605.25 462.75L604.5 462.75L604.5 478.5zM605.25 508.5L605.25 479.25L604.5 479.25L604.5 508.5zM605.25 525L605.25 509.25L604.5 509.25L604.5 525zM605.25 541.5L605.25 525.75L604.5 525.75L604.5 541.5zM187.5 96L187.5 80.25L186.75 80.25L186.75 96zM187.5 122.25L187.5 96.75L186.75 96.75L186.75 122.25zM187.5 148.5L187.5 123L186.75 123L186.75 148.5zM187.5 165L187.5 149.25L186.75 149.25L186.75 165zM187.5 181.5L187.5 165.75L186.75 165.75L186.75 181.5zM187.5 198L187.5 182.25L186.75 182.25L186.75 198zM187.5 214.5L187.5 198.75L186.75 198.75L186.75 214.5zM187.5 270.75L187.5 215.25L186.75 215.25L186.75 270.75zM187.5 287.25L187.5 271.5L186.75 271.5L186.75 287.25zM187.5 303.75L187.5 288L186.75 288L186.75 303.75zM187.5 320.25L187.5 304.5L186.75 304.5L186.75 320.25zM187.5 346.5L187.5 321L186.75 321L186.75 346.5zM187.5 363L187.5 347.25L186.75 347.25L186.75 363zM187.5 379.5L187.5 363.75L186.75 363.75L186.75 379.5zM187.5 396L187.5 380.25L186.75 380.25L186.75 396zM187.5 412.5L187.5 396.75L186.75 396.75L186.75 412.5zM187.5 429L187.5 413.25L186.75 413.25L186.75 429zM187.5 445.5L187.5 429.75L186.75 429.75L186.75 445.5zM187.5 462L187.5 446.25L186.75 446.25L186.75 462zM187.5 478.5L187.5 462.75L186.75 462.75L186.75 478.5zM187.5 508.5L187.5 479.25L186.75 479.25L186.75 508.5zM187.5 525L187.5 509.25L186.75 509.25L186.75 525zM187.5 541.5L187.5 525.75L186.75 525.75L186.75 541.5zM111.75 96L111.75 80.25L111 80.25L111 96zM111.75 122.25L111.75 96.75L111 96.75L111 122.25zM111.75 148.5L111.75 123L111 123L111 148.5zM111.75 165L111.75 149.25L111 149.25L111 165zM111.75 181.5L111.75 165.75L111 165.75L111 181.5zM111.75 198L111.75 182.25L111 182.25L111 198zM111.75 214.5L111.75 198.75L111 198.75L111 214.5zM111.75 270.75L111.75 215.25L111 215.25L111 270.75zM111.75 287.25L111.75 271.5L111 271.5L111 287.25zM111.75 303.75L111.75 288L111 288L111 303.75zM111.75 320.25L111.75 304.5L111 304.5L111 320.25zM111.75 346.5L111.75 321L111 321L111 346.5zM111.75 363L111.75 347.25L111 347.25L111 363zM111.75 379.5L111.75 363.75L111 363.75L111 379.5zM111.75 396L111.75 380.25L111 380.25L111 396zM111.75 412.5L111.75 396.75L111 396.75L111 412.5zM111.75 429L111.75 413.25L111 413.25L111 429zM111.75 445.5L111.75 429.75L111 429.75L111 445.5zM111.75 462L111.75 446.25L111 446.25L111 462zM111.75 478.5L111.75 462.75L111 462.75L111 478.5zM111.75 508.5L111.75 479.25L111 479.25L111 508.5zM111.75 525L111.75 509.25L111 509.25L111 525zM111.75 541.5L111.75 525.75L111 525.75L111 541.5z" stroke="none" fill="#000000" fill-rule="nonzero" fill-opacity="0.1490196" /><path id="133" transform="matrix(1 0 0 -1 0 612)" d="M189.75 528.2831L570.7189 528.2831" stroke="#1155CC" stroke-width="0.7141113" fill="none" /><path id="186" transform="matrix(1 0 0 -1 0 612)" d="M189.75 511.7831L389.2013 511.7831" stroke="#1155CC" stroke-width="0.7141113" fill="none" /><path id="261" transform="matrix(1 0 0 -1 0 612)" d="M189.75 481.7831L490.5146 481.7831" stroke="#1155CC" stroke-width="0.7141113" fill="none" /><path id="313" transform="matrix(1 0 0 -1 0 612)" d="M189.75 465.2831L333.3435 465.2831" stroke="#1155CC" stroke-width="0.7141113" fill="none" /><path id="401" transform="matrix(1 0 0 -1 0 612)" d="M189.75 448.7831L568.5908 448.7831" stroke="#1155CC" stroke-width="0.7141113" fill="none" /><path id="462" transform="matrix(1 0 0 -1 0 612)" d="M189.75 432.2831L411.9291 432.2831" stroke="#1155CC" stroke-width="0.7141113" fill="none" /><path id="549" transform="matrix(1 0 0 -1 0 612)" d="M189.75 415.7831L541.4689 415.7831" stroke="#1155CC" stroke-width="0.7141113" fill="none" /><path id="638" transform="matrix(1 0 0 -1 0 612)" d="M189.75 399.2832L579.4072 399.2832" stroke="#1155CC" stroke-width="0.7141113" fill="none" /><path id="690" transform="matrix(1 0 0 -1 0 612)" d="M189.75 382.7832L390.8104 382.7832" stroke="#1155CC" stroke-width="0.7141113" fill="none" /><path id="725" transform="matrix(1 0 0 -1 0 612)" d="M189.75 366.2832L312.739 366.2832" stroke="#1155CC" stroke-width="0.7141113" fill="none" /><path id="750" transform="matrix(1 0 0 -1 0 612)" d="M189.75 349.7832L260.7565 349.7832" stroke="#1155CC" stroke-width="0.7141113" fill="none" /><path id="841" transform="matrix(1 0 0 -1 0 612)" d="M189.75 334.7446L601.4066 334.7446" stroke="#1155CC" stroke-width="0.7141113" fill="none" /><path id="860" transform="matrix(1 0 0 -1 0 612)" d="M189.75 323.5332L279.171 323.5332" stroke="#1155CC" stroke-width="0.7141113" fill="none" /><path id="922" transform="matrix(1 0 0 -1 0 612)" d="M189.75 307.0332L441.2172 307.0332" stroke="#1155CC" stroke-width="0.7141113" fill="none" /><path id="971" transform="matrix(1 0 0 -1 0 612)" d="M189.75 290.5332L363.7075 290.5332" stroke="#1155CC" stroke-width="0.7141113" fill="none" /><path id="1050" transform="matrix(1 0 0 -1 0 612)" d="M189.75 274.0332L546.1582 274.0332" stroke="#1155CC" stroke-width="0.7141113" fill="none" /><path id="1116" transform="matrix(1 0 0 -1 0 612)" d="M189.75 217.7832L312.1868 217.7832" stroke="#1155CC" stroke-width="0.7141113" fill="none" /><path id="1175" transform="matrix(1 0 0 -1 0 612)" d="M189.75 201.2832L399.475 201.2832" stroke="#1155CC" stroke-width="0.7141113" fill="none" /><path id="1253" transform="matrix(1 0 0 -1 0 612)" d="M189.75 184.7832L504.0875 184.7832" stroke="#1155CC" stroke-width="0.7141113" fill="none" /><path id="1338" transform="matrix(1 0 0 -1 0 612)" d="M189.75 168.2832L562.5923 168.2832" stroke="#1155CC" stroke-width="0.7141113" fill="none" /><path id="1425" transform="matrix(1 0 0 -1 0 612)" d="M189.75 151.7832L539.1647 151.7832" stroke="#1155CC" stroke-width="0.7141113" fill="none" /><path id="1505" transform="matrix(1 0 0 -1 0 612)" d="M189.75 136.7446L549.6478 136.7446" stroke="#1155CC" stroke-width="0.7141113" fill="none" /><path id="1545" transform="matrix(1 0 0 -1 0 612)" d="M189.75 125.5332L374.3716 125.5332" stroke="#1155CC" stroke-width="0.7141113" fill="none" /><path id="1547" transform="matrix(1 0 0 -1 0 612)" d="M374.3716 125.9187L379.2466 125.9187" stroke="#1155CC" stroke-width="0.7236328" fill="none" /><path id="1555" transform="matrix(1 0 0 -1 0 612)" d="M379.2466 125.5332L414.457 125.5332" stroke="#1155CC" stroke-width="0.7141113" fill="none" /><path id="1647" transform="matrix(1 0 0 -1 0 612)" d="M189.75 110.4946L600.3259 110.4946" stroke="#1155CC" stroke-width="0.7141113" fill="none" /><path id="1653" transform="matrix(1 0 0 -1 0 612)" d="M189.75 99.2832L214.6868 99.2832" stroke="#1155CC" stroke-width="0.7141113" fill="none" /><path id="1723" transform="matrix(1 0 0 -1 0 612)" d="M189.75 82.7832L455.2852 82.7832" stroke="#1155CC" stroke-width="0.7141113" fill="none" /></g></g></g></svg>