<svg xmlns="http://www.w3.org/2000/svg" xmlns:xlink="http://www.w3.org/1999/xlink" id="body_14" preserveAspectRatio="xMinYMin meet" viewBox="0 0 1056 816"><defs><clipPath id="1"><path id="" clip-rule="evenodd" transform="matrix(1 0 0 1 0 0)" d="M0 612L0 0L0 0L792 0L792 0L792 612L792 612L0 612z" /></clipPath><clipPath id="2"><path id="" clip-rule="evenodd" transform="matrix(1 0 0 1 0 0)" d="M110.25 52.5L681.75 52.5L681.75 52.5L681.75 69.75L681.75 69.75L110.25 69.75L110.25 69.75L110.25 52.5z" /></clipPath><clipPath id="3"><path id="" clip-rule="evenodd" transform="matrix(1 0 0 1 0 0)" d="M110.25 69L681.75 69L681.75 69L681.75 545.25L681.75 545.25L110.25 545.25L110.25 545.25L110.25 69z" /></clipPath></defs><g transform="matrix(1.333333 0 0 1.333333 0 0)"><g clip-path="url(#1)"><g clip-path="url(#2)"><path id="10" transform="matrix(1 0 0 -1 0 612)" d="M111 558.75L681 558.75L681 541.5L111 541.5L111 558.75z" stroke="none" fill="#63D297" fill-rule="nonzero" /><path id="11" transform="matrix(1 0 0 -1 0 612)" d="M111 542.25L681 542.25L681 541.5L111 541.5zM111 558.75L681 558.75L681 558L111 558zM681 558L681 542.25L680.25 542.25L680.25 558zM605.25 558L605.25 542.25L604.5 542.25L604.5 558zM187.5 558L187.5 542.25L186.75 542.25L186.75 558zM111.75 558L111.75 542.25L111 542.25L111 558z" stroke="none" fill="#000000" fill-rule="nonzero" fill-opacity="0.1490196" /></g><g clip-path="url(#3)"><path id="28" transform="matrix(1 0 0 -1 0 612)" d="M111 542.25L681 542.25L681 525L111 525L111 542.25z" stroke="none" fill="#E7F9EF" fill-rule="nonzero" /><path id="29" transform="matrix(1 0 0 -1 0 612)" d="M111 525.75L681 525.75L681 498.75L111 498.75L111 525.75z" stroke="none" fill="#FFFFFF" fill-rule="nonzero" /><path id="30" transform="matrix(1 0 0 -1 0 612)" d="M111 499.5L681 499.5L681 468.75L111 468.75L111 499.5z" stroke="none" fill="#E7F9EF" fill-rule="nonzero" /><path id="31" transform="matrix(1 0 0 -1 0 612)" d="M111 469.5L681 469.5L681 452.25L111 452.25L111 469.5z" stroke="none" fill="#FFFFFF" fill-rule="nonzero" /><path id="32" transform="matrix(1 0 0 -1 0 612)" d="M111 453L681 453L681 422.25L111 422.25L111 453z" stroke="none" fill="#E7F9EF" fill-rule="nonzero" /><path id="33" transform="matrix(1 0 0 -1 0 612)" d="M111 423L681 423L681 405.75L111 405.75L111 423z" stroke="none" fill="#FFFFFF" fill-rule="nonzero" /><path id="34" transform="matrix(1 0 0 -1 0 612)" d="M111 406.5L681 406.5L681 389.25L111 389.25L111 406.5z" stroke="none" fill="#E7F9EF" fill-rule="nonzero" /><path id="35" transform="matrix(1 0 0 -1 0 612)" d="M111 390L681 390L681 363L111 363L111 390z" stroke="none" fill="#FFFFFF" fill-rule="nonzero" /><path id="36" transform="matrix(1 0 0 -1 0 612)" d="M111 363.75L681 363.75L681 346.5L111 346.5L111 363.75z" stroke="none" fill="#E7F9EF" fill-rule="nonzero" /><path id="37" transform="matrix(1 0 0 -1 0 612)" d="M111 347.25L681 347.25L681 330L111 330L111 347.25z" stroke="none" fill="#FFFFFF" fill-rule="nonzero" /><path id="38" transform="matrix(1 0 0 -1 0 612)" d="M111 330.75L681 330.75L681 313.5L111 313.5L111 330.75z" stroke="none" fill="#E7F9EF" fill-rule="nonzero" /><path id="39" transform="matrix(1 0 0 -1 0 612)" d="M111 314.25L681 314.25L681 297L111 297L111 314.25z" stroke="none" fill="#FFFFFF" fill-rule="nonzero" /><path id="40" transform="matrix(1 0 0 -1 0 612)" d="M111 297.75L681 297.75L681 280.5L111 280.5L111 297.75z" stroke="none" fill="#E7F9EF" fill-rule="nonzero" /><path id="41" transform="matrix(1 0 0 -1 0 612)" d="M111 281.25L681 281.25L681 237.75L111 237.75L111 281.25z" stroke="none" fill="#FFFFFF" fill-rule="nonzero" /><path id="42" transform="matrix(1 0 0 -1 0 612)" d="M111 238.5L681 238.5L681 221.25L111 221.25L111 238.5z" stroke="none" fill="#E7F9EF" fill-rule="nonzero" /><path id="43" transform="matrix(1 0 0 -1 0 612)" d="M111 222L681 222L681 189.75L111 189.75L111 222z" stroke="none" fill="#FFFFFF" fill-rule="nonzero" /><path id="44" transform="matrix(1 0 0 -1 0 612)" d="M111 190.5L681 190.5L681 173.25L111 173.25L111 190.5z" stroke="none" fill="#E7F9EF" fill-rule="nonzero" /><path id="45" transform="matrix(1 0 0 -1 0 612)" d="M111 174L681 174L681 130.5L111 130.5L111 174z" stroke="none" fill="#FFFFFF" fill-rule="nonzero" /><path id="46" transform="matrix(1 0 0 -1 0 612)" d="M111 131.25L681 131.25L681 114L111 114L111 131.25z" stroke="none" fill="#E7F9EF" fill-rule="nonzero" /><path id="47" transform="matrix(1 0 0 -1 0 612)" d="M111 114.75L681 114.75L681 84L111 84L111 114.75z" stroke="none" fill="#FFFFFF" fill-rule="nonzero" /><path id="48" transform="matrix(1 0 0 -1 0 612)" d="M111 84.75L681 84.75L681 67.5L111 67.5L111 84.75z" stroke="none" fill="#E7F9EF" fill-rule="nonzero" /><path id="49" transform="matrix(1 0 0 -1 0 612)" d="M111 68.25L681 68.25L681 67.5L111 67.5zM111 84.75L681 84.75L681 84L111 84zM111 114.75L681 114.75L681 114L111 114zM111 131.25L681 131.25L681 130.5L111 130.5zM111 174L681 174L681 173.25L111 173.25zM111 190.5L681 190.5L681 189.75L111 189.75zM111 222L681 222L681 221.25L111 221.25zM111 238.5L681 238.5L681 237.75L111 237.75zM111 281.25L681 281.25L681 280.5L111 280.5zM111 297.75L681 297.75L681 297L111 297zM111 314.25L681 314.25L681 313.5L111 313.5zM111 330.75L681 330.75L681 330L111 330zM111 347.25L681 347.25L681 346.5L111 346.5zM111 363.75L681 363.75L681 363L111 363zM111 390L681 390L681 389.25L111 389.25zM111 406.5L681 406.5L681 405.75L111 405.75zM111 423L681 423L681 422.25L111 422.25zM111 453L681 453L681 452.25L111 452.25zM111 469.5L681 469.5L681 468.75L111 468.75zM111 499.5L681 499.5L681 498.75L111 498.75zM111 525.75L681 525.75L681 525L111 525zM111 542.25L681 542.25L681 541.5L111 541.5zM681 84L681 68.25L680.25 68.25L680.25 84zM681 114L681 84.75L680.25 84.75L680.25 114zM681 130.5L681 114.75L680.25 114.75L680.25 130.5zM681 173.25L681 131.25L680.25 131.25L680.25 173.25zM681 189.75L681 174L680.25 174L680.25 189.75zM681 221.25L681 190.5L680.25 190.5L680.25 221.25zM681 237.75L681 222L680.25 222L680.25 237.75zM681 280.5L681 238.5L680.25 238.5L680.25 280.5zM681 297L681 281.25L680.25 281.25L680.25 297zM681 313.5L681 297.75L680.25 297.75L680.25 313.5zM681 330L681 314.25L680.25 314.25L680.25 330zM681 346.5L681 330.75L680.25 330.75L680.25 346.5zM681 363L681 347.25L680.25 347.25L680.25 363zM681 389.25L681 363.75L680.25 363.75L680.25 389.25zM681 405.75L681 390L680.25 390L680.25 405.75zM681 422.25L681 406.5L680.25 406.5L680.25 422.25zM681 452.25L681 423L680.25 423L680.25 452.25zM681 468.75L681 453L680.25 453L680.25 468.75zM681 498.75L681 469.5L680.25 469.5L680.25 498.75zM681 525L681 499.5L680.25 499.5L680.25 525zM681 541.5L681 525.75L680.25 525.75L680.25 541.5zM605.25 84L605.25 68.25L604.5 68.25L604.5 84zM605.25 114L605.25 84.75L604.5 84.75L604.5 114zM605.25 130.5L605.25 114.75L604.5 114.75L604.5 130.5zM605.25 173.25L605.25 131.25L604.5 131.25L604.5 173.25zM605.25 189.75L605.25 174L604.5 174L604.5 189.75zM605.25 221.25L605.25 190.5L604.5 190.5L604.5 221.25zM605.25 237.75L605.25 222L604.5 222L604.5 237.75zM605.25 280.5L605.25 238.5L604.5 238.5L604.5 280.5zM605.25 297L605.25 281.25L604.5 281.25L604.5 297zM605.25 313.5L605.25 297.75L604.5 297.75L604.5 313.5zM605.25 330L605.25 314.25L604.5 314.25L604.5 330zM605.25 346.5L605.25 330.75L604.5 330.75L604.5 346.5zM605.25 363L605.25 347.25L604.5 347.25L604.5 363zM605.25 389.25L605.25 363.75L604.5 363.75L604.5 389.25zM605.25 405.75L605.25 390L604.5 390L604.5 405.75zM605.25 422.25L605.25 406.5L604.5 406.5L604.5 422.25zM605.25 452.25L605.25 423L604.5 423L604.5 452.25zM605.25 468.75L605.25 453L604.5 453L604.5 468.75zM605.25 498.75L605.25 469.5L604.5 469.5L604.5 498.75zM605.25 525L605.25 499.5L604.5 499.5L604.5 525zM605.25 541.5L605.25 525.75L604.5 525.75L604.5 541.5zM187.5 84L187.5 68.25L186.75 68.25L186.75 84zM187.5 114L187.5 84.75L186.75 84.75L186.75 114zM187.5 130.5L187.5 114.75L186.75 114.75L186.75 130.5zM187.5 173.25L187.5 131.25L186.75 131.25L186.75 173.25zM187.5 189.75L187.5 174L186.75 174L186.75 189.75zM187.5 221.25L187.5 190.5L186.75 190.5L186.75 221.25zM187.5 237.75L187.5 222L186.75 222L186.75 237.75zM187.5 280.5L187.5 238.5L186.75 238.5L186.75 280.5zM187.5 297L187.5 281.25L186.75 281.25L186.75 297zM187.5 313.5L187.5 297.75L186.75 297.75L186.75 313.5zM187.5 330L187.5 314.25L186.75 314.25L186.75 330zM187.5 346.5L187.5 330.75L186.75 330.75L186.75 346.5zM187.5 363L187.5 347.25L186.75 347.25L186.75 363zM187.5 389.25L187.5 363.75L186.75 363.75L186.75 389.25zM187.5 405.75L187.5 390L186.75 390L186.75 405.75zM187.5 422.25L187.5 406.5L186.75 406.5L186.75 422.25zM187.5 452.25L187.5 423L186.75 423L186.75 452.25zM187.5 468.75L187.5 453L186.75 453L186.75 468.75zM187.5 498.75L187.5 469.5L186.75 469.5L186.75 498.75zM187.5 525L187.5 499.5L186.75 499.5L186.75 525zM187.5 541.5L187.5 525.75L186.75 525.75L186.75 541.5zM111.75 84L111.75 68.25L111 68.25L111 84zM111.75 114L111.75 84.75L111 84.75L111 114zM111.75 130.5L111.75 114.75L111 114.75L111 130.5zM111.75 173.25L111.75 131.25L111 131.25L111 173.25zM111.75 189.75L111.75 174L111 174L111 189.75zM111.75 221.25L111.75 190.5L111 190.5L111 221.25zM111.75 237.75L111.75 222L111 222L111 237.75zM111.75 280.5L111.75 238.5L111 238.5L111 280.5zM111.75 297L111.75 281.25L111 281.25L111 297zM111.75 313.5L111.75 297.75L111 297.75L111 313.5zM111.75 330L111.75 314.25L111 314.25L111 330zM111.75 346.5L111.75 330.75L111 330.75L111 346.5zM111.75 363L111.75 347.25L111 347.25L111 363zM111.75 389.25L111.75 363.75L111 363.75L111 389.25zM111.75 405.75L111.75 390L111 390L111 405.75zM111.75 422.25L111.75 406.5L111 406.5L111 422.25zM111.75 452.25L111.75 423L111 423L111 452.25zM111.75 468.75L111.75 453L111 453L111 468.75zM111.75 498.75L111.75 469.5L111 469.5L111 498.75zM111.75 525L111.75 499.5L111 499.5L111 525zM111.75 541.5L111.75 525.75L111 525.75L111 541.5z" stroke="none" fill="#000000" fill-rule="nonzero" fill-opacity="0.1490196" /><path id="114" transform="matrix(1 0 0 -1 0 612)" d="M189.75 528.2827L447.5251 528.2827" stroke="#1155CC" stroke-width="0.7141113" fill="none" /><path id="200" transform="matrix(1 0 0 -1 0 612)" d="M189.75 513.2446L569.6334 513.2446" stroke="#1155CC" stroke-width="0.7141113" fill="none" /><path id="218" transform="matrix(1 0 0 -1 0 612)" d="M189.75 502.0327L272.6583 502.0327" stroke="#1155CC" stroke-width="0.7141113" fill="none" /><path id="324" transform="matrix(1 0 0 -1 0 612)" d="M189.75 483.2446L593.3134 483.2446" stroke="#1155CC" stroke-width="0.7141113" fill="none" /><path id="331" transform="matrix(1 0 0 -1 0 612)" d="M189.75 472.0327L214.6772 472.0327" stroke="#1155CC" stroke-width="0.7141113" fill="none" /><path id="386" transform="matrix(1 0 0 -1 0 612)" d="M189.75 455.5327L408.1633 455.5327" stroke="#1155CC" stroke-width="0.7141113" fill="none" /><path id="455" transform="matrix(1 0 0 -1 0 612)" d="M189.75 425.5327L422.9312 425.5327" stroke="#1155CC" stroke-width="0.7141113" fill="none" /><path id="517" transform="matrix(1 0 0 -1 0 612)" d="M189.75 409.0327L429.2963 409.0327" stroke="#1155CC" stroke-width="0.7141113" fill="none" /><path id="579" transform="matrix(1 0 0 -1 0 612)" d="M189.75 392.5327L415.1997 392.5327" stroke="#1155CC" stroke-width="0.7141113" fill="none" /><path id="673" transform="matrix(1 0 0 -1 0 612)" d="M189.75 377.4946L602.5254 377.4946" stroke="#1155CC" stroke-width="0.7141113" fill="none" /><path id="683" transform="matrix(1 0 0 -1 0 612)" d="M189.75 366.2827L232.5586 366.2827" stroke="#1155CC" stroke-width="0.7141113" fill="none" /><path id="756" transform="matrix(1 0 0 -1 0 612)" d="M189.75 349.7827L504.0828 349.7827" stroke="#1155CC" stroke-width="0.7141113" fill="none" /><path id="817" transform="matrix(1 0 0 -1 0 612)" d="M189.75 333.2827L443.3738 333.2827" stroke="#1155CC" stroke-width="0.7141113" fill="none" /><path id="874" transform="matrix(1 0 0 -1 0 612)" d="M189.75 316.7827L404.7118 316.7827" stroke="#1155CC" stroke-width="0.7141113" fill="none" /><path id="923" transform="matrix(1 0 0 -1 0 612)" d="M189.75 300.2827L363.1696 300.2827" stroke="#1155CC" stroke-width="0.7141113" fill="none" /><path id="937" transform="matrix(1 0 0 -1 0 612)" d="M189.75 283.7827L202.2136 283.7827" stroke="#1155CC" stroke-width="0.7141113" fill="none" /><path id="939" transform="matrix(1 0 0 -1 0 612)" d="M202.2136 284.1689L207.0886 284.1689" stroke="#1155CC" stroke-width="0.7236328" fill="none" /><path id="1008" transform="matrix(1 0 0 -1 0 612)" d="M207.0886 283.7827L551.6188 283.7827" stroke="#1155CC" stroke-width="0.7141113" fill="none" /><path id="1079" transform="matrix(1 0 0 -1 0 612)" d="M189.75 241.0327L389.1584 241.0327" stroke="#1155CC" stroke-width="0.7141113" fill="none" /><path id="1179" transform="matrix(1 0 0 -1 0 612)" d="M189.75 224.5327L588.5764 224.5327" stroke="#1155CC" stroke-width="0.7141113" fill="none" /><path id="1268" transform="matrix(1 0 0 -1 0 612)" d="M189.75 193.0327L517.6461 193.0327" stroke="#1155CC" stroke-width="0.7141113" fill="none" /><path id="1318" transform="matrix(1 0 0 -1 0 612)" d="M189.75 176.5327L378.899 176.5327" stroke="#1155CC" stroke-width="0.7141113" fill="none" /><path id="1375" transform="matrix(1 0 0 -1 0 612)" d="M189.75 133.7827L347.2687 133.7827" stroke="#1155CC" stroke-width="0.7141113" fill="none" /><path id="1447" transform="matrix(1 0 0 -1 0 612)" d="M189.75 117.2827L489.2673 117.2827" stroke="#1155CC" stroke-width="0.7141113" fill="none" /><path id="1493" transform="matrix(1 0 0 -1 0 612)" d="M189.75 87.28271L327.226 87.28271" stroke="#1155CC" stroke-width="0.7141113" fill="none" /><path id="1543" transform="matrix(1 0 0 -1 0 612)" d="M189.75 70.78271L389.2013 70.78271" stroke="#1155CC" stroke-width="0.7141113" fill="none" /></g></g></g></svg>