<svg xmlns="http://www.w3.org/2000/svg" xmlns:xlink="http://www.w3.org/1999/xlink" id="body_1" preserveAspectRatio="xMinYMin meet" viewBox="0 0 1056 816"><defs><clipPath id="1"><path id="" clip-rule="evenodd" transform="matrix(1 0 0 1 0 0)" d="M0 612L0 0L0 0L792 0L792 0L792 612L792 612L0 612z" /></clipPath><clipPath id="2"><path id="" clip-rule="evenodd" transform="matrix(1 0 0 1 0 0)" d="M110.25 52.5L681.75 52.5L681.75 52.5L681.75 556.5L681.75 556.5L110.25 556.5L110.25 556.5L110.25 52.5z" /></clipPath></defs><g transform="matrix(1.333333 0 0 1.333333 0 0)"><g clip-path="url(#1)"><g clip-path="url(#2)"><path id="9" transform="matrix(1 0 0 -1 0 612)" d="M111 558.75L681 558.75L681 541.5L111 541.5L111 558.75z" stroke="none" fill="#63D297" fill-rule="nonzero" /><path id="10" transform="matrix(1 0 0 -1 0 612)" d="M111 542.25L681 542.25L681 525L111 525L111 542.25z" stroke="none" fill="#FFFFFF" fill-rule="nonzero" /><path id="11" transform="matrix(1 0 0 -1 0 612)" d="M111 525.75L681 525.75L681 508.5L111 508.5L111 525.75z" stroke="none" fill="#E7F9EF" fill-rule="nonzero" /><path id="12" transform="matrix(1 0 0 -1 0 612)" d="M111 509.25L681 509.25L681 492L111 492L111 509.25z" stroke="none" fill="#FFFFFF" fill-rule="nonzero" /><path id="13" transform="matrix(1 0 0 -1 0 612)" d="M111 492.75L681 492.75L681 475.5L111 475.5L111 492.75z" stroke="none" fill="#E7F9EF" fill-rule="nonzero" /><path id="14" transform="matrix(1 0 0 -1 0 612)" d="M111 476.25L681 476.25L681 449.25L111 449.25L111 476.25z" stroke="none" fill="#FFFFFF" fill-rule="nonzero" /><path id="15" transform="matrix(1 0 0 -1 0 612)" d="M111 450L681 450L681 432.75L111 432.75L111 450z" stroke="none" fill="#E7F9EF" fill-rule="nonzero" /><path id="16" transform="matrix(1 0 0 -1 0 612)" d="M111 433.5L681 433.5L681 402.75L111 402.75L111 433.5z" stroke="none" fill="#FFFFFF" fill-rule="nonzero" /><path id="17" transform="matrix(1 0 0 -1 0 612)" d="M111 403.5L681 403.5L681 386.25L111 386.25L111 403.5z" stroke="none" fill="#E7F9EF" fill-rule="nonzero" /><path id="18" transform="matrix(1 0 0 -1 0 612)" d="M111 387L681 387L681 369.75L111 369.75L111 387z" stroke="none" fill="#FFFFFF" fill-rule="nonzero" /><path id="19" transform="matrix(1 0 0 -1 0 612)" d="M111 370.5L681 370.5L681 353.25L111 353.25L111 370.5z" stroke="none" fill="#E7F9EF" fill-rule="nonzero" /><path id="20" transform="matrix(1 0 0 -1 0 612)" d="M111 354L681 354L681 336.75L111 336.75L111 354z" stroke="none" fill="#FFFFFF" fill-rule="nonzero" /><path id="21" transform="matrix(1 0 0 -1 0 612)" d="M111 337.5L681 337.5L681 320.25L111 320.25L111 337.5z" stroke="none" fill="#E7F9EF" fill-rule="nonzero" /><path id="22" transform="matrix(1 0 0 -1 0 612)" d="M111 321L681 321L681 303.75L111 303.75L111 321z" stroke="none" fill="#FFFFFF" fill-rule="nonzero" /><path id="23" transform="matrix(1 0 0 -1 0 612)" d="M111 304.5L681 304.5L681 287.25L111 287.25L111 304.5z" stroke="none" fill="#E7F9EF" fill-rule="nonzero" /><path id="24" transform="matrix(1 0 0 -1 0 612)" d="M111 288L681 288L681 270.75L111 270.75L111 288z" stroke="none" fill="#FFFFFF" fill-rule="nonzero" /><path id="25" transform="matrix(1 0 0 -1 0 612)" d="M111 271.5L681 271.5L681 244.5L111 244.5L111 271.5z" stroke="none" fill="#E7F9EF" fill-rule="nonzero" /><path id="26" transform="matrix(1 0 0 -1 0 612)" d="M111 245.25L681 245.25L681 228L111 228L111 245.25z" stroke="none" fill="#FFFFFF" fill-rule="nonzero" /><path id="27" transform="matrix(1 0 0 -1 0 612)" d="M111 228.75L681 228.75L681 198L111 198L111 228.75z" stroke="none" fill="#E7F9EF" fill-rule="nonzero" /><path id="28" transform="matrix(1 0 0 -1 0 612)" d="M111 198.75L681 198.75L681 181.5L111 181.5L111 198.75z" stroke="none" fill="#FFFFFF" fill-rule="nonzero" /><path id="29" transform="matrix(1 0 0 -1 0 612)" d="M111 182.25L681 182.25L681 155.25L111 155.25L111 182.25z" stroke="none" fill="#E7F9EF" fill-rule="nonzero" /><path id="30" transform="matrix(1 0 0 -1 0 612)" d="M111 156L681 156L681 138.75L111 138.75L111 156z" stroke="none" fill="#FFFFFF" fill-rule="nonzero" /><path id="31" transform="matrix(1 0 0 -1 0 612)" d="M111 139.5L681 139.5L681 122.25L111 122.25L111 139.5z" stroke="none" fill="#E7F9EF" fill-rule="nonzero" /><path id="32" transform="matrix(1 0 0 -1 0 612)" d="M111 123L681 123L681 105.75L111 105.75L111 123z" stroke="none" fill="#FFFFFF" fill-rule="nonzero" /><path id="33" transform="matrix(1 0 0 -1 0 612)" d="M111 106.5L681 106.5L681 89.25L111 89.25L111 106.5z" stroke="none" fill="#E7F9EF" fill-rule="nonzero" /><path id="34" transform="matrix(1 0 0 -1 0 612)" d="M111 90L681 90L681 72.75L111 72.75L111 90z" stroke="none" fill="#FFFFFF" fill-rule="nonzero" /><path id="35" transform="matrix(1 0 0 -1 0 612)" d="M111 73.5L681 73.5L681 56.25L111 56.25L111 73.5z" stroke="none" fill="#E7F9EF" fill-rule="nonzero" /><path id="36" transform="matrix(1 0 0 -1 0 612)" d="M111 57L681 57L681 56.25L111 56.25zM111 73.5L681 73.5L681 72.75L111 72.75zM111 90L681 90L681 89.25L111 89.25zM111 106.5L681 106.5L681 105.75L111 105.75zM111 123L681 123L681 122.25L111 122.25zM111 139.5L681 139.5L681 138.75L111 138.75zM111 156L681 156L681 155.25L111 155.25zM111 182.25L681 182.25L681 181.5L111 181.5zM111 198.75L681 198.75L681 198L111 198zM111 228.75L681 228.75L681 228L111 228zM111 245.25L681 245.25L681 244.5L111 244.5zM111 271.5L681 271.5L681 270.75L111 270.75zM111 288L681 288L681 287.25L111 287.25zM111 304.5L681 304.5L681 303.75L111 303.75zM111 321L681 321L681 320.25L111 320.25zM111 337.5L681 337.5L681 336.75L111 336.75zM111 354L681 354L681 353.25L111 353.25zM111 370.5L681 370.5L681 369.75L111 369.75zM111 387L681 387L681 386.25L111 386.25zM111 403.5L681 403.5L681 402.75L111 402.75zM111 433.5L681 433.5L681 432.75L111 432.75zM111 450L681 450L681 449.25L111 449.25zM111 476.25L681 476.25L681 475.5L111 475.5zM111 492.75L681 492.75L681 492L111 492zM111 509.25L681 509.25L681 508.5L111 508.5zM111 525.75L681 525.75L681 525L111 525zM111 542.25L681 542.25L681 541.5L111 541.5zM111 558.75L681 558.75L681 558L111 558zM681 72.75L681 57L680.25 57L680.25 72.75zM681 89.25L681 73.5L680.25 73.5L680.25 89.25zM681 105.75L681 90L680.25 90L680.25 105.75zM681 122.25L681 106.5L680.25 106.5L680.25 122.25zM681 138.75L681 123L680.25 123L680.25 138.75zM681 155.25L681 139.5L680.25 139.5L680.25 155.25zM681 181.5L681 156L680.25 156L680.25 181.5zM681 198L681 182.25L680.25 182.25L680.25 198zM681 228L681 198.75L680.25 198.75L680.25 228zM681 244.5L681 228.75L680.25 228.75L680.25 244.5zM681 270.75L681 245.25L680.25 245.25L680.25 270.75zM681 287.25L681 271.5L680.25 271.5L680.25 287.25zM681 303.75L681 288L680.25 288L680.25 303.75zM681 320.25L681 304.5L680.25 304.5L680.25 320.25zM681 336.75L681 321L680.25 321L680.25 336.75zM681 353.25L681 337.5L680.25 337.5L680.25 353.25zM681 369.75L681 354L680.25 354L680.25 369.75zM681 386.25L681 370.5L680.25 370.5L680.25 386.25zM681 402.75L681 387L680.25 387L680.25 402.75zM681 432.75L681 403.5L680.25 403.5L680.25 432.75zM681 449.25L681 433.5L680.25 433.5L680.25 449.25zM681 475.5L681 450L680.25 450L680.25 475.5zM681 492L681 476.25L680.25 476.25L680.25 492zM681 508.5L681 492.75L680.25 492.75L680.25 508.5zM681 525L681 509.25L680.25 509.25L680.25 525zM681 541.5L681 525.75L680.25 525.75L680.25 541.5zM681 558L681 542.25L680.25 542.25L680.25 558zM605.25 72.75L605.25 57L604.5 57L604.5 72.75zM605.25 89.25L605.25 73.5L604.5 73.5L604.5 89.25zM605.25 105.75L605.25 90L604.5 90L604.5 105.75zM605.25 122.25L605.25 106.5L604.5 106.5L604.5 122.25zM605.25 138.75L605.25 123L604.5 123L604.5 138.75zM605.25 155.25L605.25 139.5L604.5 139.5L604.5 155.25zM605.25 181.5L605.25 156L604.5 156L604.5 181.5zM605.25 198L605.25 182.25L604.5 182.25L604.5 198zM605.25 228L605.25 198.75L604.5 198.75L604.5 228zM605.25 244.5L605.25 228.75L604.5 228.75L604.5 244.5zM605.25 270.75L605.25 245.25L604.5 245.25L604.5 270.75zM605.25 287.25L605.25 271.5L604.5 271.5L604.5 287.25zM605.25 303.75L605.25 288L604.5 288L604.5 303.75zM605.25 320.25L605.25 304.5L604.5 304.5L604.5 320.25zM605.25 336.75L605.25 321L604.5 321L604.5 336.75zM605.25 353.25L605.25 337.5L604.5 337.5L604.5 353.25zM605.25 369.75L605.25 354L604.5 354L604.5 369.75zM605.25 386.25L605.25 370.5L604.5 370.5L604.5 386.25zM605.25 402.75L605.25 387L604.5 387L604.5 402.75zM605.25 432.75L605.25 403.5L604.5 403.5L604.5 432.75zM605.25 449.25L605.25 433.5L604.5 433.5L604.5 449.25zM605.25 475.5L605.25 450L604.5 450L604.5 475.5zM605.25 492L605.25 476.25L604.5 476.25L604.5 492zM605.25 508.5L605.25 492.75L604.5 492.75L604.5 508.5zM605.25 525L605.25 509.25L604.5 509.25L604.5 525zM605.25 541.5L605.25 525.75L604.5 525.75L604.5 541.5zM605.25 558L605.25 542.25L604.5 542.25L604.5 558zM187.5 72.75L187.5 57L186.75 57L186.75 72.75zM187.5 89.25L187.5 73.5L186.75 73.5L186.75 89.25zM187.5 105.75L187.5 90L186.75 90L186.75 105.75zM187.5 122.25L187.5 106.5L186.75 106.5L186.75 122.25zM187.5 138.75L187.5 123L186.75 123L186.75 138.75zM187.5 155.25L187.5 139.5L186.75 139.5L186.75 155.25zM187.5 181.5L187.5 156L186.75 156L186.75 181.5zM187.5 198L187.5 182.25L186.75 182.25L186.75 198zM187.5 228L187.5 198.75L186.75 198.75L186.75 228zM187.5 244.5L187.5 228.75L186.75 228.75L186.75 244.5zM187.5 270.75L187.5 245.25L186.75 245.25L186.75 270.75zM187.5 287.25L187.5 271.5L186.75 271.5L186.75 287.25zM187.5 303.75L187.5 288L186.75 288L186.75 303.75zM187.5 320.25L187.5 304.5L186.75 304.5L186.75 320.25zM187.5 336.75L187.5 321L186.75 321L186.75 336.75zM187.5 353.25L187.5 337.5L186.75 337.5L186.75 353.25zM187.5 369.75L187.5 354L186.75 354L186.75 369.75zM187.5 386.25L187.5 370.5L186.75 370.5L186.75 386.25zM187.5 402.75L187.5 387L186.75 387L186.75 402.75zM187.5 432.75L187.5 403.5L186.75 403.5L186.75 432.75zM187.5 449.25L187.5 433.5L186.75 433.5L186.75 449.25zM187.5 475.5L187.5 450L186.75 450L186.75 475.5zM187.5 492L187.5 476.25L186.75 476.25L186.75 492zM187.5 508.5L187.5 492.75L186.75 492.75L186.75 508.5zM187.5 525L187.5 509.25L186.75 509.25L186.75 525zM187.5 541.5L187.5 525.75L186.75 525.75L186.75 541.5zM187.5 558L187.5 542.25L186.75 542.25L186.75 558zM111.75 72.75L111.75 57L111 57L111 72.75zM111.75 89.25L111.75 73.5L111 73.5L111 89.25zM111.75 105.75L111.75 90L111 90L111 105.75zM111.75 122.25L111.75 106.5L111 106.5L111 122.25zM111.75 138.75L111.75 123L111 123L111 138.75zM111.75 155.25L111.75 139.5L111 139.5L111 155.25zM111.75 181.5L111.75 156L111 156L111 181.5zM111.75 198L111.75 182.25L111 182.25L111 198zM111.75 228L111.75 198.75L111 198.75L111 228zM111.75 244.5L111.75 228.75L111 228.75L111 244.5zM111.75 270.75L111.75 245.25L111 245.25L111 270.75zM111.75 287.25L111.75 271.5L111 271.5L111 287.25zM111.75 303.75L111.75 288L111 288L111 303.75zM111.75 320.25L111.75 304.5L111 304.5L111 320.25zM111.75 336.75L111.75 321L111 321L111 336.75zM111.75 353.25L111.75 337.5L111 337.5L111 353.25zM111.75 369.75L111.75 354L111 354L111 369.75zM111.75 386.25L111.75 370.5L111 370.5L111 386.25zM111.75 402.75L111.75 387L111 387L111 402.75zM111.75 432.75L111.75 403.5L111 403.5L111 432.75zM111.75 449.25L111.75 433.5L111 433.5L111 449.25zM111.75 475.5L111.75 450L111 450L111 475.5zM111.75 492L111.75 476.25L111 476.25L111 492zM111.75 508.5L111.75 492.75L111 492.75L111 508.5zM111.75 525L111.75 509.25L111 509.25L111 525zM111.75 541.5L111.75 525.75L111 525.75L111 541.5zM111.75 558L111.75 542.25L111 542.25L111 558z" stroke="none" fill="#000000" fill-rule="nonzero" fill-opacity="0.1490196" /><path id="109" transform="matrix(1 0 0 -1 0 612)" d="M189.75 528.2831L420.6031 528.2831" stroke="#1155CC" stroke-width="0.7141113" fill="none" /><path id="145" transform="matrix(1 0 0 -1 0 612)" d="M189.75 511.7831L300.8372 511.7831" stroke="#1155CC" stroke-width="0.7141113" fill="none" /><path id="206" transform="matrix(1 0 0 -1 0 612)" d="M189.75 495.2831L431.8385 495.2831" stroke="#1155CC" stroke-width="0.7141113" fill="none" /><path id="244" transform="matrix(1 0 0 -1 0 612)" d="M189.75 478.7831L310.5919 478.7831" stroke="#1155CC" stroke-width="0.7141113" fill="none" /><path id="329" transform="matrix(1 0 0 -1 0 612)" d="M189.75 463.7446L566.9531 463.7446" stroke="#1155CC" stroke-width="0.7141113" fill="none" /><path id="341" transform="matrix(1 0 0 -1 0 612)" d="M189.75 452.5331L242.3229 452.5331" stroke="#1155CC" stroke-width="0.7141113" fill="none" /><path id="435" transform="matrix(1 0 0 -1 0 612)" d="M189.75 436.0331L550.6523 436.0331" stroke="#1155CC" stroke-width="0.7141113" fill="none" /><path id="532" transform="matrix(1 0 0 -1 0 612)" d="M189.75 406.0331L552.1044 406.0331" stroke="#1155CC" stroke-width="0.7141113" fill="none" /><path id="602" transform="matrix(1 0 0 -1 0 612)" d="M189.75 389.5331L500.8502 389.5331" stroke="#1155CC" stroke-width="0.7141113" fill="none" /><path id="688" transform="matrix(1 0 0 -1 0 612)" d="M189.75 373.0331L551.076 373.0331" stroke="#1155CC" stroke-width="0.7141113" fill="none" /><path id="743" transform="matrix(1 0 0 -1 0 612)" d="M189.75 356.5331L389.2013 356.5331" stroke="#1155CC" stroke-width="0.7141113" fill="none" /><path id="813" transform="matrix(1 0 0 -1 0 612)" d="M189.75 340.0331L491.9714 340.0331" stroke="#1155CC" stroke-width="0.7141113" fill="none" /><path id="864" transform="matrix(1 0 0 -1 0 612)" d="M189.75 323.5331L368.5825 323.5331" stroke="#1155CC" stroke-width="0.7141113" fill="none" /><path id="945" transform="matrix(1 0 0 -1 0 612)" d="M189.75 307.0331L526.1012 307.0331" stroke="#1155CC" stroke-width="0.7141113" fill="none" /><path id="1031" transform="matrix(1 0 0 -1 0 612)" d="M189.75 290.5331L573.4039 290.5331" stroke="#1155CC" stroke-width="0.7141113" fill="none" /><path id="1068" transform="matrix(1 0 0 -1 0 612)" d="M189.75 274.0331L314.3958 274.0331" stroke="#1155CC" stroke-width="0.7141113" fill="none" /><path id="1170" transform="matrix(1 0 0 -1 0 612)" d="M189.75 258.9946L599.0643 258.9946" stroke="#1155CC" stroke-width="0.7141113" fill="none" /><path id="1189" transform="matrix(1 0 0 -1 0 612)" d="M189.75 247.7831L284.046 247.7831" stroke="#1155CC" stroke-width="0.7141113" fill="none" /><path id="1251" transform="matrix(1 0 0 -1 0 612)" d="M189.75 231.2831L448.5154 231.2831" stroke="#1155CC" stroke-width="0.7141113" fill="none" /><path id="1305" transform="matrix(1 0 0 -1 0 612)" d="M189.75 201.2831L362.9886 201.2831" stroke="#1155CC" stroke-width="0.7141113" fill="none" /><path id="1378" transform="matrix(1 0 0 -1 0 612)" d="M189.75 184.7831L502.6688 184.7831" stroke="#1155CC" stroke-width="0.7141113" fill="none" /><path id="1470" transform="matrix(1 0 0 -1 0 612)" d="M189.75 169.7446L577.7838 169.7446" stroke="#1155CC" stroke-width="0.7141113" fill="none" /><path id="1483" transform="matrix(1 0 0 -1 0 612)" d="M189.75 158.5331L240.1567 158.5331" stroke="#1155CC" stroke-width="0.7141113" fill="none" /><path id="1580" transform="matrix(1 0 0 -1 0 612)" d="M189.75 142.0331L587.3101 142.0331" stroke="#1155CC" stroke-width="0.7141113" fill="none" /><path id="1616" transform="matrix(1 0 0 -1 0 612)" d="M189.75 125.5331L313.3198 125.5331" stroke="#1155CC" stroke-width="0.7141113" fill="none" /><path id="1646" transform="matrix(1 0 0 -1 0 612)" d="M189.75 109.0331L288.9163 109.0331" stroke="#1155CC" stroke-width="0.7141113" fill="none" /><path id="1727" transform="matrix(1 0 0 -1 0 612)" d="M189.75 92.53308L542.3782 92.53308" stroke="#1155CC" stroke-width="0.7141113" fill="none" /><path id="1761" transform="matrix(1 0 0 -1 0 612)" d="M189.75 76.03308L303.546 76.03308" stroke="#1155CC" stroke-width="0.7141113" fill="none" /><path id="1852" transform="matrix(1 0 0 -1 0 612)" d="M189.75 59.53308L589.1906 59.53308" stroke="#1155CC" stroke-width="0.7141113" fill="none" /></g></g></g></svg>