<svg xmlns="http://www.w3.org/2000/svg" xmlns:xlink="http://www.w3.org/1999/xlink" id="body_13" preserveAspectRatio="xMinYMin meet" viewBox="0 0 1056 816"><defs><clipPath id="1"><path id="" clip-rule="evenodd" transform="matrix(1 0 0 1 0 0)" d="M0 612L0 0L0 0L792 0L792 0L792 612L792 612L0 612z" /></clipPath><clipPath id="2"><path id="" clip-rule="evenodd" transform="matrix(1 0 0 1 0 0)" d="M110.25 52.5L681.75 52.5L681.75 52.5L681.75 69.75L681.75 69.75L110.25 69.75L110.25 69.75L110.25 52.5z" /></clipPath><clipPath id="3"><path id="" clip-rule="evenodd" transform="matrix(1 0 0 1 0 0)" d="M110.25 69L681.75 69L681.75 69L681.75 542.25L681.75 542.25L110.25 542.25L110.25 542.25L110.25 69z" /></clipPath></defs><g transform="matrix(1.333333 0 0 1.333333 0 0)"><g clip-path="url(#1)"><g clip-path="url(#2)"><path id="10" transform="matrix(1 0 0 -1 0 612)" d="M111 558.75L681 558.75L681 541.5L111 541.5L111 558.75z" stroke="none" fill="#63D297" fill-rule="nonzero" /><path id="11" transform="matrix(1 0 0 -1 0 612)" d="M111 542.25L681 542.25L681 541.5L111 541.5zM111 558.75L681 558.75L681 558L111 558zM681 558L681 542.25L680.25 542.25L680.25 558zM605.25 558L605.25 542.25L604.5 542.25L604.5 558zM187.5 558L187.5 542.25L186.75 542.25L186.75 558zM111.75 558L111.75 542.25L111 542.25L111 558z" stroke="none" fill="#000000" fill-rule="nonzero" fill-opacity="0.1490196" /></g><g clip-path="url(#3)"><path id="28" transform="matrix(1 0 0 -1 0 612)" d="M111 542.25L681 542.25L681 515.25L111 515.25L111 542.25z" stroke="none" fill="#FFFFFF" fill-rule="nonzero" /><path id="29" transform="matrix(1 0 0 -1 0 612)" d="M111 516L681 516L681 498.75L111 498.75L111 516z" stroke="none" fill="#E7F9EF" fill-rule="nonzero" /><path id="30" transform="matrix(1 0 0 -1 0 612)" d="M111 499.5L681 499.5L681 482.25L111 482.25L111 499.5z" stroke="none" fill="#FFFFFF" fill-rule="nonzero" /><path id="31" transform="matrix(1 0 0 -1 0 612)" d="M111 483L681 483L681 439.5L111 439.5L111 483z" stroke="none" fill="#E7F9EF" fill-rule="nonzero" /><path id="32" transform="matrix(1 0 0 -1 0 612)" d="M111 440.25L681 440.25L681 423L111 423L111 440.25z" stroke="none" fill="#FFFFFF" fill-rule="nonzero" /><path id="33" transform="matrix(1 0 0 -1 0 612)" d="M111 423.75L681 423.75L681 406.5L111 406.5L111 423.75z" stroke="none" fill="#E7F9EF" fill-rule="nonzero" /><path id="34" transform="matrix(1 0 0 -1 0 612)" d="M111 407.25L681 407.25L681 390L111 390L111 407.25z" stroke="none" fill="#FFFFFF" fill-rule="nonzero" /><path id="35" transform="matrix(1 0 0 -1 0 612)" d="M111 390.75L681 390.75L681 373.5L111 373.5L111 390.75z" stroke="none" fill="#E7F9EF" fill-rule="nonzero" /><path id="36" transform="matrix(1 0 0 -1 0 612)" d="M111 374.25L681 374.25L681 357L111 357L111 374.25z" stroke="none" fill="#FFFFFF" fill-rule="nonzero" /><path id="37" transform="matrix(1 0 0 -1 0 612)" d="M111 357.75L681 357.75L681 330.75L111 330.75L111 357.75z" stroke="none" fill="#E7F9EF" fill-rule="nonzero" /><path id="38" transform="matrix(1 0 0 -1 0 612)" d="M111 331.5L681 331.5L681 314.25L111 314.25L111 331.5z" stroke="none" fill="#FFFFFF" fill-rule="nonzero" /><path id="39" transform="matrix(1 0 0 -1 0 612)" d="M111 315L681 315L681 288L111 288L111 315z" stroke="none" fill="#E7F9EF" fill-rule="nonzero" /><path id="40" transform="matrix(1 0 0 -1 0 612)" d="M111 288.75L681 288.75L681 271.5L111 271.5L111 288.75z" stroke="none" fill="#FFFFFF" fill-rule="nonzero" /><path id="41" transform="matrix(1 0 0 -1 0 612)" d="M111 272.25L681 272.25L681 255L111 255L111 272.25z" stroke="none" fill="#E7F9EF" fill-rule="nonzero" /><path id="42" transform="matrix(1 0 0 -1 0 612)" d="M111 255.75L681 255.75L681 238.5L111 238.5L111 255.75z" stroke="none" fill="#FFFFFF" fill-rule="nonzero" /><path id="43" transform="matrix(1 0 0 -1 0 612)" d="M111 239.25L681 239.25L681 195.75L111 195.75L111 239.25z" stroke="none" fill="#E7F9EF" fill-rule="nonzero" /><path id="44" transform="matrix(1 0 0 -1 0 612)" d="M111 196.5L681 196.5L681 179.25L111 179.25L111 196.5z" stroke="none" fill="#FFFFFF" fill-rule="nonzero" /><path id="45" transform="matrix(1 0 0 -1 0 612)" d="M111 180L681 180L681 162.75L111 162.75L111 180z" stroke="none" fill="#E7F9EF" fill-rule="nonzero" /><path id="46" transform="matrix(1 0 0 -1 0 612)" d="M111 163.5L681 163.5L681 146.25L111 146.25L111 163.5z" stroke="none" fill="#FFFFFF" fill-rule="nonzero" /><path id="47" transform="matrix(1 0 0 -1 0 612)" d="M111 147L681 147L681 129.75L111 129.75L111 147z" stroke="none" fill="#E7F9EF" fill-rule="nonzero" /><path id="48" transform="matrix(1 0 0 -1 0 612)" d="M111 130.5L681 130.5L681 103.5L111 103.5L111 130.5z" stroke="none" fill="#FFFFFF" fill-rule="nonzero" /><path id="49" transform="matrix(1 0 0 -1 0 612)" d="M111 104.25L681 104.25L681 87L111 87L111 104.25z" stroke="none" fill="#E7F9EF" fill-rule="nonzero" /><path id="50" transform="matrix(1 0 0 -1 0 612)" d="M111 87.75L681 87.75L681 70.5L111 70.5L111 87.75z" stroke="none" fill="#FFFFFF" fill-rule="nonzero" /><path id="51" transform="matrix(1 0 0 -1 0 612)" d="M111 71.25L681 71.25L681 70.5L111 70.5zM111 87.75L681 87.75L681 87L111 87zM111 104.25L681 104.25L681 103.5L111 103.5zM111 130.5L681 130.5L681 129.75L111 129.75zM111 147L681 147L681 146.25L111 146.25zM111 163.5L681 163.5L681 162.75L111 162.75zM111 180L681 180L681 179.25L111 179.25zM111 196.5L681 196.5L681 195.75L111 195.75zM111 239.25L681 239.25L681 238.5L111 238.5zM111 255.75L681 255.75L681 255L111 255zM111 272.25L681 272.25L681 271.5L111 271.5zM111 288.75L681 288.75L681 288L111 288zM111 315L681 315L681 314.25L111 314.25zM111 331.5L681 331.5L681 330.75L111 330.75zM111 357.75L681 357.75L681 357L111 357zM111 374.25L681 374.25L681 373.5L111 373.5zM111 390.75L681 390.75L681 390L111 390zM111 407.25L681 407.25L681 406.5L111 406.5zM111 423.75L681 423.75L681 423L111 423zM111 440.25L681 440.25L681 439.5L111 439.5zM111 483L681 483L681 482.25L111 482.25zM111 499.5L681 499.5L681 498.75L111 498.75zM111 516L681 516L681 515.25L111 515.25zM111 542.25L681 542.25L681 541.5L111 541.5zM681 87L681 71.25L680.25 71.25L680.25 87zM681 103.5L681 87.75L680.25 87.75L680.25 103.5zM681 129.75L681 104.25L680.25 104.25L680.25 129.75zM681 146.25L681 130.5L680.25 130.5L680.25 146.25zM681 162.75L681 147L680.25 147L680.25 162.75zM681 179.25L681 163.5L680.25 163.5L680.25 179.25zM681 195.75L681 180L680.25 180L680.25 195.75zM681 238.5L681 196.5L680.25 196.5L680.25 238.5zM681 255L681 239.25L680.25 239.25L680.25 255zM681 271.5L681 255.75L680.25 255.75L680.25 271.5zM681 288L681 272.25L680.25 272.25L680.25 288zM681 314.25L681 288.75L680.25 288.75L680.25 314.25zM681 330.75L681 315L680.25 315L680.25 330.75zM681 357L681 331.5L680.25 331.5L680.25 357zM681 373.5L681 357.75L680.25 357.75L680.25 373.5zM681 390L681 374.25L680.25 374.25L680.25 390zM681 406.5L681 390.75L680.25 390.75L680.25 406.5zM681 423L681 407.25L680.25 407.25L680.25 423zM681 439.5L681 423.75L680.25 423.75L680.25 439.5zM681 482.25L681 440.25L680.25 440.25L680.25 482.25zM681 498.75L681 483L680.25 483L680.25 498.75zM681 515.25L681 499.5L680.25 499.5L680.25 515.25zM681 541.5L681 516L680.25 516L680.25 541.5zM605.25 87L605.25 71.25L604.5 71.25L604.5 87zM605.25 103.5L605.25 87.75L604.5 87.75L604.5 103.5zM605.25 129.75L605.25 104.25L604.5 104.25L604.5 129.75zM605.25 146.25L605.25 130.5L604.5 130.5L604.5 146.25zM605.25 162.75L605.25 147L604.5 147L604.5 162.75zM605.25 179.25L605.25 163.5L604.5 163.5L604.5 179.25zM605.25 195.75L605.25 180L604.5 180L604.5 195.75zM605.25 238.5L605.25 196.5L604.5 196.5L604.5 238.5zM605.25 255L605.25 239.25L604.5 239.25L604.5 255zM605.25 271.5L605.25 255.75L604.5 255.75L604.5 271.5zM605.25 288L605.25 272.25L604.5 272.25L604.5 288zM605.25 314.25L605.25 288.75L604.5 288.75L604.5 314.25zM605.25 330.75L605.25 315L604.5 315L604.5 330.75zM605.25 357L605.25 331.5L604.5 331.5L604.5 357zM605.25 373.5L605.25 357.75L604.5 357.75L604.5 373.5zM605.25 390L605.25 374.25L604.5 374.25L604.5 390zM605.25 406.5L605.25 390.75L604.5 390.75L604.5 406.5zM605.25 423L605.25 407.25L604.5 407.25L604.5 423zM605.25 439.5L605.25 423.75L604.5 423.75L604.5 439.5zM605.25 482.25L605.25 440.25L604.5 440.25L604.5 482.25zM605.25 498.75L605.25 483L604.5 483L604.5 498.75zM605.25 515.25L605.25 499.5L604.5 499.5L604.5 515.25zM605.25 541.5L605.25 516L604.5 516L604.5 541.5zM187.5 87L187.5 71.25L186.75 71.25L186.75 87zM187.5 103.5L187.5 87.75L186.75 87.75L186.75 103.5zM187.5 129.75L187.5 104.25L186.75 104.25L186.75 129.75zM187.5 146.25L187.5 130.5L186.75 130.5L186.75 146.25zM187.5 162.75L187.5 147L186.75 147L186.75 162.75zM187.5 179.25L187.5 163.5L186.75 163.5L186.75 179.25zM187.5 195.75L187.5 180L186.75 180L186.75 195.75zM187.5 238.5L187.5 196.5L186.75 196.5L186.75 238.5zM187.5 255L187.5 239.25L186.75 239.25L186.75 255zM187.5 271.5L187.5 255.75L186.75 255.75L186.75 271.5zM187.5 288L187.5 272.25L186.75 272.25L186.75 288zM187.5 314.25L187.5 288.75L186.75 288.75L186.75 314.25zM187.5 330.75L187.5 315L186.75 315L186.75 330.75zM187.5 357L187.5 331.5L186.75 331.5L186.75 357zM187.5 373.5L187.5 357.75L186.75 357.75L186.75 373.5zM187.5 390L187.5 374.25L186.75 374.25L186.75 390zM187.5 406.5L187.5 390.75L186.75 390.75L186.75 406.5zM187.5 423L187.5 407.25L186.75 407.25L186.75 423zM187.5 439.5L187.5 423.75L186.75 423.75L186.75 439.5zM187.5 482.25L187.5 440.25L186.75 440.25L186.75 482.25zM187.5 498.75L187.5 483L186.75 483L186.75 498.75zM187.5 515.25L187.5 499.5L186.75 499.5L186.75 515.25zM187.5 541.5L187.5 516L186.75 516L186.75 541.5zM111.75 87L111.75 71.25L111 71.25L111 87zM111.75 103.5L111.75 87.75L111 87.75L111 103.5zM111.75 129.75L111.75 104.25L111 104.25L111 129.75zM111.75 146.25L111.75 130.5L111 130.5L111 146.25zM111.75 162.75L111.75 147L111 147L111 162.75zM111.75 179.25L111.75 163.5L111 163.5L111 179.25zM111.75 195.75L111.75 180L111 180L111 195.75zM111.75 238.5L111.75 196.5L111 196.5L111 238.5zM111.75 255L111.75 239.25L111 239.25L111 255zM111.75 271.5L111.75 255.75L111 255.75L111 271.5zM111.75 288L111.75 272.25L111 272.25L111 288zM111.75 314.25L111.75 288.75L111 288.75L111 314.25zM111.75 330.75L111.75 315L111 315L111 330.75zM111.75 357L111.75 331.5L111 331.5L111 357zM111.75 373.5L111.75 357.75L111 357.75L111 373.5zM111.75 390L111.75 374.25L111 374.25L111 390zM111.75 406.5L111.75 390.75L111 390.75L111 406.5zM111.75 423L111.75 407.25L111 407.25L111 423zM111.75 439.5L111.75 423.75L111 423.75L111 439.5zM111.75 482.25L111.75 440.25L111 440.25L111 482.25zM111.75 498.75L111.75 483L111 483L111 498.75zM111.75 515.25L111.75 499.5L111 499.5L111 515.25zM111.75 541.5L111.75 516L111 516L111 541.5z" stroke="none" fill="#000000" fill-rule="nonzero" fill-opacity="0.1490196" /><path id="140" transform="matrix(1 0 0 -1 0 612)" d="M189.75 529.7446L597.2743 529.7446" stroke="#1155CC" stroke-width="0.7141113" fill="none" /><path id="156" transform="matrix(1 0 0 -1 0 612)" d="M189.75 518.5332L258.9331 518.5332" stroke="#1155CC" stroke-width="0.7141113" fill="none" /><path id="225" transform="matrix(1 0 0 -1 0 612)" d="M189.75 502.0332L448.7106 502.0332" stroke="#1155CC" stroke-width="0.7141113" fill="none" /><path id="282" transform="matrix(1 0 0 -1 0 612)" d="M189.75 485.5332L377.2566 485.5332" stroke="#1155CC" stroke-width="0.7141113" fill="none" /><path id="326" transform="matrix(1 0 0 -1 0 612)" d="M189.75 442.7832L274.2579 442.7832" stroke="#1155CC" stroke-width="0.7141113" fill="none" /><path id="399" transform="matrix(1 0 0 -1 0 612)" d="M189.75 426.2832L484.5732 426.2832" stroke="#1155CC" stroke-width="0.7141113" fill="none" /><path id="445" transform="matrix(1 0 0 -1 0 612)" d="M189.75 409.7832L347.959 409.7832" stroke="#1155CC" stroke-width="0.7141113" fill="none" /><path id="525" transform="matrix(1 0 0 -1 0 612)" d="M189.75 393.2832L487.2155 393.2832" stroke="#1155CC" stroke-width="0.7141113" fill="none" /><path id="602" transform="matrix(1 0 0 -1 0 612)" d="M189.75 376.7832L533.3185 376.7832" stroke="#1155CC" stroke-width="0.7141113" fill="none" /><path id="668" transform="matrix(1 0 0 -1 0 612)" d="M189.75 360.2832L469.7102 360.2832" stroke="#1155CC" stroke-width="0.7141113" fill="none" /><path id="759" transform="matrix(1 0 0 -1 0 612)" d="M189.75 345.2446L584.3013 345.2446" stroke="#1155CC" stroke-width="0.7141113" fill="none" /><path id="777" transform="matrix(1 0 0 -1 0 612)" d="M189.75 334.0332L267.769 334.0332" stroke="#1155CC" stroke-width="0.7141113" fill="none" /><path id="859" transform="matrix(1 0 0 -1 0 612)" d="M189.75 317.5332L544.1968 317.5332" stroke="#1155CC" stroke-width="0.7141113" fill="none" /><path id="957" transform="matrix(1 0 0 -1 0 612)" d="M189.75 302.4946L599.8784 302.4946" stroke="#1155CC" stroke-width="0.7141113" fill="none" /><path id="979" transform="matrix(1 0 0 -1 0 612)" d="M189.75 291.2832L289.459 291.2832" stroke="#1155CC" stroke-width="0.7141113" fill="none" /><path id="1064" transform="matrix(1 0 0 -1 0 612)" d="M189.75 274.7832L559.8929 274.7832" stroke="#1155CC" stroke-width="0.7141113" fill="none" /><path id="1126" transform="matrix(1 0 0 -1 0 612)" d="M189.75 258.2832L418.1704 258.2832" stroke="#1155CC" stroke-width="0.7141113" fill="none" /><path id="1210" transform="matrix(1 0 0 -1 0 612)" d="M189.75 241.7832L530.6429 241.7832" stroke="#1155CC" stroke-width="0.7141113" fill="none" /><path id="1323" transform="matrix(1 0 0 -1 0 612)" d="M189.75 199.0332L587.8813 199.0332" stroke="#1155CC" stroke-width="0.7141113" fill="none" /><path id="1379" transform="matrix(1 0 0 -1 0 612)" d="M189.75 182.5332L410.8627 182.5332" stroke="#1155CC" stroke-width="0.7141113" fill="none" /><path id="1423" transform="matrix(1 0 0 -1 0 612)" d="M189.75 166.0332L355.6047 166.0332" stroke="#1155CC" stroke-width="0.7141113" fill="none" /><path id="1460" transform="matrix(1 0 0 -1 0 612)" d="M189.75 149.5332L280.7897 149.5332" stroke="#1155CC" stroke-width="0.7141113" fill="none" /><path id="1521" transform="matrix(1 0 0 -1 0 612)" d="M189.75 133.0332L430.3151 133.0332" stroke="#1155CC" stroke-width="0.7141113" fill="none" /><path id="1612" transform="matrix(1 0 0 -1 0 612)" d="M189.75 117.9946L593.837 117.9946" stroke="#1155CC" stroke-width="0.7141113" fill="none" /><path id="1620" transform="matrix(1 0 0 -1 0 612)" d="M189.75 106.7832L229.845 106.7832" stroke="#1155CC" stroke-width="0.7141113" fill="none" /><path id="1709" transform="matrix(1 0 0 -1 0 612)" d="M189.75 90.2832L570.5142 90.2832" stroke="#1155CC" stroke-width="0.7141113" fill="none" /><path id="1786" transform="matrix(1 0 0 -1 0 612)" d="M189.75 73.78271L493.2473 73.78271" stroke="#1155CC" stroke-width="0.7141113" fill="none" /></g></g></g></svg>