<svg xmlns="http://www.w3.org/2000/svg" xmlns:xlink="http://www.w3.org/1999/xlink" id="body_2" preserveAspectRatio="xMinYMin meet" viewBox="0 0 1056 816"><defs><clipPath id="1"><path id="" clip-rule="evenodd" transform="matrix(1 0 0 1 0 0)" d="M0 612L0 0L0 0L792 0L792 0L792 612L792 612L0 612z" /></clipPath><clipPath id="2"><path id="" clip-rule="evenodd" transform="matrix(1 0 0 1 0 0)" d="M110.25 52.5L681.75 52.5L681.75 52.5L681.75 69.75L681.75 69.75L110.25 69.75L110.25 69.75L110.25 52.5z" /></clipPath><clipPath id="3"><path id="" clip-rule="evenodd" transform="matrix(1 0 0 1 0 0)" d="M110.25 69L681.75 69L681.75 69L681.75 544.5L681.75 544.5L110.25 544.5L110.25 544.5L110.25 69z" /></clipPath></defs><g transform="matrix(1.333333 0 0 1.333333 0 0)"><g clip-path="url(#1)"><g clip-path="url(#2)"><path id="9" transform="matrix(1 0 0 -1 0 612)" d="M111 558.75L681 558.75L681 541.5L111 541.5L111 558.75z" stroke="none" fill="#63D297" fill-rule="nonzero" /><path id="10" transform="matrix(1 0 0 -1 0 612)" d="M111 542.25L681 542.25L681 541.5L111 541.5zM111 558.75L681 558.75L681 558L111 558zM681 558L681 542.25L680.25 542.25L680.25 558zM605.25 558L605.25 542.25L604.5 542.25L604.5 558zM187.5 558L187.5 542.25L186.75 542.25L186.75 558zM111.75 558L111.75 542.25L111 542.25L111 558z" stroke="none" fill="#000000" fill-rule="nonzero" fill-opacity="0.1490196" /></g><g clip-path="url(#3)"><path id="27" transform="matrix(1 0 0 -1 0 612)" d="M111 542.25L681 542.25L681 525L111 525L111 542.25z" stroke="none" fill="#FFFFFF" fill-rule="nonzero" /><path id="28" transform="matrix(1 0 0 -1 0 612)" d="M111 525.75L681 525.75L681 508.5L111 508.5L111 525.75z" stroke="none" fill="#E7F9EF" fill-rule="nonzero" /><path id="29" transform="matrix(1 0 0 -1 0 612)" d="M111 509.25L681 509.25L681 492L111 492L111 509.25z" stroke="none" fill="#FFFFFF" fill-rule="nonzero" /><path id="30" transform="matrix(1 0 0 -1 0 612)" d="M111 492.75L681 492.75L681 475.5L111 475.5L111 492.75z" stroke="none" fill="#E7F9EF" fill-rule="nonzero" /><path id="31" transform="matrix(1 0 0 -1 0 612)" d="M111 476.25L681 476.25L681 459L111 459L111 476.25z" stroke="none" fill="#FFFFFF" fill-rule="nonzero" /><path id="32" transform="matrix(1 0 0 -1 0 612)" d="M111 459.75L681 459.75L681 442.5L111 442.5L111 459.75z" stroke="none" fill="#E7F9EF" fill-rule="nonzero" /><path id="33" transform="matrix(1 0 0 -1 0 612)" d="M111 443.25L681 443.25L681 412.5L111 412.5L111 443.25z" stroke="none" fill="#FFFFFF" fill-rule="nonzero" /><path id="34" transform="matrix(1 0 0 -1 0 612)" d="M111 413.25L681 413.25L681 396L111 396L111 413.25z" stroke="none" fill="#E7F9EF" fill-rule="nonzero" /><path id="35" transform="matrix(1 0 0 -1 0 612)" d="M111 396.75L681 396.75L681 379.5L111 379.5L111 396.75z" stroke="none" fill="#FFFFFF" fill-rule="nonzero" /><path id="36" transform="matrix(1 0 0 -1 0 612)" d="M111 380.25L681 380.25L681 363L111 363L111 380.25z" stroke="none" fill="#E7F9EF" fill-rule="nonzero" /><path id="37" transform="matrix(1 0 0 -1 0 612)" d="M111 363.75L681 363.75L681 333L111 333L111 363.75z" stroke="none" fill="#FFFFFF" fill-rule="nonzero" /><path id="38" transform="matrix(1 0 0 -1 0 612)" d="M111 333.75L681 333.75L681 316.5L111 316.5L111 333.75z" stroke="none" fill="#E7F9EF" fill-rule="nonzero" /><path id="39" transform="matrix(1 0 0 -1 0 612)" d="M111 317.25L681 317.25L681 300L111 300L111 317.25z" stroke="none" fill="#FFFFFF" fill-rule="nonzero" /><path id="40" transform="matrix(1 0 0 -1 0 612)" d="M111 300.75L681 300.75L681 283.5L111 283.5L111 300.75z" stroke="none" fill="#E7F9EF" fill-rule="nonzero" /><path id="41" transform="matrix(1 0 0 -1 0 612)" d="M111 284.25L681 284.25L681 267L111 267L111 284.25z" stroke="none" fill="#FFFFFF" fill-rule="nonzero" /><path id="42" transform="matrix(1 0 0 -1 0 612)" d="M111 267.75L681 267.75L681 237L111 237L111 267.75z" stroke="none" fill="#E7F9EF" fill-rule="nonzero" /><path id="43" transform="matrix(1 0 0 -1 0 612)" d="M111 237.75L681 237.75L681 220.5L111 220.5L111 237.75z" stroke="none" fill="#FFFFFF" fill-rule="nonzero" /><path id="44" transform="matrix(1 0 0 -1 0 612)" d="M111 221.25L681 221.25L681 204L111 204L111 221.25z" stroke="none" fill="#E7F9EF" fill-rule="nonzero" /><path id="45" transform="matrix(1 0 0 -1 0 612)" d="M111 204.75L681 204.75L681 174L111 174L111 204.75z" stroke="none" fill="#FFFFFF" fill-rule="nonzero" /><path id="46" transform="matrix(1 0 0 -1 0 612)" d="M111 174.75L681 174.75L681 144L111 144L111 174.75z" stroke="none" fill="#E7F9EF" fill-rule="nonzero" /><path id="47" transform="matrix(1 0 0 -1 0 612)" d="M111 144.75L681 144.75L681 127.5L111 127.5L111 144.75z" stroke="none" fill="#FFFFFF" fill-rule="nonzero" /><path id="48" transform="matrix(1 0 0 -1 0 612)" d="M111 128.25L681 128.25L681 101.25L111 101.25L111 128.25z" stroke="none" fill="#E7F9EF" fill-rule="nonzero" /><path id="49" transform="matrix(1 0 0 -1 0 612)" d="M111 102L681 102L681 84.75L111 84.75L111 102z" stroke="none" fill="#FFFFFF" fill-rule="nonzero" /><path id="50" transform="matrix(1 0 0 -1 0 612)" d="M111 85.5L681 85.5L681 68.25L111 68.25L111 85.5z" stroke="none" fill="#E7F9EF" fill-rule="nonzero" /><path id="51" transform="matrix(1 0 0 -1 0 612)" d="M111 69L681 69L681 68.25L111 68.25zM111 85.5L681 85.5L681 84.75L111 84.75zM111 102L681 102L681 101.25L111 101.25zM111 128.25L681 128.25L681 127.5L111 127.5zM111 144.75L681 144.75L681 144L111 144zM111 174.75L681 174.75L681 174L111 174zM111 204.75L681 204.75L681 204L111 204zM111 221.25L681 221.25L681 220.5L111 220.5zM111 237.75L681 237.75L681 237L111 237zM111 267.75L681 267.75L681 267L111 267zM111 284.25L681 284.25L681 283.5L111 283.5zM111 300.75L681 300.75L681 300L111 300zM111 317.25L681 317.25L681 316.5L111 316.5zM111 333.75L681 333.75L681 333L111 333zM111 363.75L681 363.75L681 363L111 363zM111 380.25L681 380.25L681 379.5L111 379.5zM111 396.75L681 396.75L681 396L111 396zM111 413.25L681 413.25L681 412.5L111 412.5zM111 443.25L681 443.25L681 442.5L111 442.5zM111 459.75L681 459.75L681 459L111 459zM111 476.25L681 476.25L681 475.5L111 475.5zM111 492.75L681 492.75L681 492L111 492zM111 509.25L681 509.25L681 508.5L111 508.5zM111 525.75L681 525.75L681 525L111 525zM111 542.25L681 542.25L681 541.5L111 541.5zM681 84.75L681 69L680.25 69L680.25 84.75zM681 101.25L681 85.5L680.25 85.5L680.25 101.25zM681 127.5L681 102L680.25 102L680.25 127.5zM681 144L681 128.25L680.25 128.25L680.25 144zM681 174L681 144.75L680.25 144.75L680.25 174zM681 204L681 174.75L680.25 174.75L680.25 204zM681 220.5L681 204.75L680.25 204.75L680.25 220.5zM681 237L681 221.25L680.25 221.25L680.25 237zM681 267L681 237.75L680.25 237.75L680.25 267zM681 283.5L681 267.75L680.25 267.75L680.25 283.5zM681 300L681 284.25L680.25 284.25L680.25 300zM681 316.5L681 300.75L680.25 300.75L680.25 316.5zM681 333L681 317.25L680.25 317.25L680.25 333zM681 363L681 333.75L680.25 333.75L680.25 363zM681 379.5L681 363.75L680.25 363.75L680.25 379.5zM681 396L681 380.25L680.25 380.25L680.25 396zM681 412.5L681 396.75L680.25 396.75L680.25 412.5zM681 442.5L681 413.25L680.25 413.25L680.25 442.5zM681 459L681 443.25L680.25 443.25L680.25 459zM681 475.5L681 459.75L680.25 459.75L680.25 475.5zM681 492L681 476.25L680.25 476.25L680.25 492zM681 508.5L681 492.75L680.25 492.75L680.25 508.5zM681 525L681 509.25L680.25 509.25L680.25 525zM681 541.5L681 525.75L680.25 525.75L680.25 541.5zM605.25 84.75L605.25 69L604.5 69L604.5 84.75zM605.25 101.25L605.25 85.5L604.5 85.5L604.5 101.25zM605.25 127.5L605.25 102L604.5 102L604.5 127.5zM605.25 144L605.25 128.25L604.5 128.25L604.5 144zM605.25 174L605.25 144.75L604.5 144.75L604.5 174zM605.25 204L605.25 174.75L604.5 174.75L604.5 204zM605.25 220.5L605.25 204.75L604.5 204.75L604.5 220.5zM605.25 237L605.25 221.25L604.5 221.25L604.5 237zM605.25 267L605.25 237.75L604.5 237.75L604.5 267zM605.25 283.5L605.25 267.75L604.5 267.75L604.5 283.5zM605.25 300L605.25 284.25L604.5 284.25L604.5 300zM605.25 316.5L605.25 300.75L604.5 300.75L604.5 316.5zM605.25 333L605.25 317.25L604.5 317.25L604.5 333zM605.25 363L605.25 333.75L604.5 333.75L604.5 363zM605.25 379.5L605.25 363.75L604.5 363.75L604.5 379.5zM605.25 396L605.25 380.25L604.5 380.25L604.5 396zM605.25 412.5L605.25 396.75L604.5 396.75L604.5 412.5zM605.25 442.5L605.25 413.25L604.5 413.25L604.5 442.5zM605.25 459L605.25 443.25L604.5 443.25L604.5 459zM605.25 475.5L605.25 459.75L604.5 459.75L604.5 475.5zM605.25 492L605.25 476.25L604.5 476.25L604.5 492zM605.25 508.5L605.25 492.75L604.5 492.75L604.5 508.5zM605.25 525L605.25 509.25L604.5 509.25L604.5 525zM605.25 541.5L605.25 525.75L604.5 525.75L604.5 541.5zM187.5 84.75L187.5 69L186.75 69L186.75 84.75zM187.5 101.25L187.5 85.5L186.75 85.5L186.75 101.25zM187.5 127.5L187.5 102L186.75 102L186.75 127.5zM187.5 144L187.5 128.25L186.75 128.25L186.75 144zM187.5 174L187.5 144.75L186.75 144.75L186.75 174zM187.5 204L187.5 174.75L186.75 174.75L186.75 204zM187.5 220.5L187.5 204.75L186.75 204.75L186.75 220.5zM187.5 237L187.5 221.25L186.75 221.25L186.75 237zM187.5 267L187.5 237.75L186.75 237.75L186.75 267zM187.5 283.5L187.5 267.75L186.75 267.75L186.75 283.5zM187.5 300L187.5 284.25L186.75 284.25L186.75 300zM187.5 316.5L187.5 300.75L186.75 300.75L186.75 316.5zM187.5 333L187.5 317.25L186.75 317.25L186.75 333zM187.5 363L187.5 333.75L186.75 333.75L186.75 363zM187.5 379.5L187.5 363.75L186.75 363.75L186.75 379.5zM187.5 396L187.5 380.25L186.75 380.25L186.75 396zM187.5 412.5L187.5 396.75L186.75 396.75L186.75 412.5zM187.5 442.5L187.5 413.25L186.75 413.25L186.75 442.5zM187.5 459L187.5 443.25L186.75 443.25L186.75 459zM187.5 475.5L187.5 459.75L186.75 459.75L186.75 475.5zM187.5 492L187.5 476.25L186.75 476.25L186.75 492zM187.5 508.5L187.5 492.75L186.75 492.75L186.75 508.5zM187.5 525L187.5 509.25L186.75 509.25L186.75 525zM187.5 541.5L187.5 525.75L186.75 525.75L186.75 541.5zM111.75 84.75L111.75 69L111 69L111 84.75zM111.75 101.25L111.75 85.5L111 85.5L111 101.25zM111.75 127.5L111.75 102L111 102L111 127.5zM111.75 144L111.75 128.25L111 128.25L111 144zM111.75 174L111.75 144.75L111 144.75L111 174zM111.75 204L111.75 174.75L111 174.75L111 204zM111.75 220.5L111.75 204.75L111 204.75L111 220.5zM111.75 237L111.75 221.25L111 221.25L111 237zM111.75 267L111.75 237.75L111 237.75L111 267zM111.75 283.5L111.75 267.75L111 267.75L111 283.5zM111.75 300L111.75 284.25L111 284.25L111 300zM111.75 316.5L111.75 300.75L111 300.75L111 316.5zM111.75 333L111.75 317.25L111 317.25L111 333zM111.75 363L111.75 333.75L111 333.75L111 363zM111.75 379.5L111.75 363.75L111 363.75L111 379.5zM111.75 396L111.75 380.25L111 380.25L111 396zM111.75 412.5L111.75 396.75L111 396.75L111 412.5zM111.75 442.5L111.75 413.25L111 413.25L111 442.5zM111.75 459L111.75 443.25L111 443.25L111 459zM111.75 475.5L111.75 459.75L111 459.75L111 475.5zM111.75 492L111.75 476.25L111 476.25L111 492zM111.75 508.5L111.75 492.75L111 492.75L111 508.5zM111.75 525L111.75 509.25L111 509.25L111 525zM111.75 541.5L111.75 525.75L111 525.75L111 541.5z" stroke="none" fill="#000000" fill-rule="nonzero" fill-opacity="0.1490196" /><path id="113" transform="matrix(1 0 0 -1 0 612)" d="M189.75 528.2831L471.5288 528.2831" stroke="#1155CC" stroke-width="0.7141113" fill="none" /><path id="176" transform="matrix(1 0 0 -1 0 612)" d="M189.75 511.7831L430.8911 511.7831" stroke="#1155CC" stroke-width="0.7141113" fill="none" /><path id="210" transform="matrix(1 0 0 -1 0 612)" d="M189.75 495.2831L294.5673 495.2831" stroke="#1155CC" stroke-width="0.7141113" fill="none" /><path id="269" transform="matrix(1 0 0 -1 0 612)" d="M189.75 478.7831L440.6935 478.7831" stroke="#1155CC" stroke-width="0.7141113" fill="none" /><path id="354" transform="matrix(1 0 0 -1 0 612)" d="M189.75 462.2831L555.0037 462.2831" stroke="#1155CC" stroke-width="0.7141113" fill="none" /><path id="412" transform="matrix(1 0 0 -1 0 612)" d="M189.75 445.7831L416.2328 445.7831" stroke="#1155CC" stroke-width="0.7141113" fill="none" /><path id="481" transform="matrix(1 0 0 -1 0 612)" d="M189.75 415.7831L439.0225 415.7831" stroke="#1155CC" stroke-width="0.7141113" fill="none" /><path id="555" transform="matrix(1 0 0 -1 0 612)" d="M189.75 399.2831L504.0923 399.2831" stroke="#1155CC" stroke-width="0.7141113" fill="none" /><path id="620" transform="matrix(1 0 0 -1 0 612)" d="M189.75 382.7831L464.7019 382.7831" stroke="#1155CC" stroke-width="0.7141113" fill="none" /><path id="664" transform="matrix(1 0 0 -1 0 612)" d="M189.75 366.2831L330.6775 366.2831" stroke="#1155CC" stroke-width="0.7141113" fill="none" /><path id="737" transform="matrix(1 0 0 -1 0 612)" d="M189.75 336.2831L433.0668 336.2831" stroke="#1155CC" stroke-width="0.7141113" fill="none" /><path id="820" transform="matrix(1 0 0 -1 0 612)" d="M189.75 319.7831L565.1298 319.7831" stroke="#1155CC" stroke-width="0.7141113" fill="none" /><path id="895" transform="matrix(1 0 0 -1 0 612)" d="M189.75 303.2831L500.8407 303.2831" stroke="#1155CC" stroke-width="0.7141113" fill="none" /><path id="966" transform="matrix(1 0 0 -1 0 612)" d="M189.75 286.7831L460.7172 286.7831" stroke="#1155CC" stroke-width="0.7141113" fill="none" /><path id="1046" transform="matrix(1 0 0 -1 0 612)" d="M189.75 270.2831L515.4657 270.2831" stroke="#1155CC" stroke-width="0.7141113" fill="none" /><path id="1106" transform="matrix(1 0 0 -1 0 612)" d="M189.75 240.2831L370.2059 240.2831" stroke="#1155CC" stroke-width="0.7141113" fill="none" /><path id="1138" transform="matrix(1 0 0 -1 0 612)" d="M189.75 223.7831L271.5681 223.7831" stroke="#1155CC" stroke-width="0.7141113" fill="none" /><path id="1196" transform="matrix(1 0 0 -1 0 612)" d="M189.75 207.2831L416.8231 207.2831" stroke="#1155CC" stroke-width="0.7141113" fill="none" /><path id="1296" transform="matrix(1 0 0 -1 0 612)" d="M189.75 188.4946L575.8129 188.4946" stroke="#1155CC" stroke-width="0.7141113" fill="none" /><path id="1324" transform="matrix(1 0 0 -1 0 612)" d="M189.75 177.2831L322.2224 177.2831" stroke="#1155CC" stroke-width="0.7141113" fill="none" /><path id="1419" transform="matrix(1 0 0 -1 0 612)" d="M189.75 158.4946L554.2657 158.4946" stroke="#1155CC" stroke-width="0.7141113" fill="none" /><path id="1462" transform="matrix(1 0 0 -1 0 612)" d="M189.75 147.2831L396.7994 147.2831" stroke="#1155CC" stroke-width="0.7141113" fill="none" /><path id="1537" transform="matrix(1 0 0 -1 0 612)" d="M189.75 130.7831L489.9814 130.7831" stroke="#1155CC" stroke-width="0.7141113" fill="none" /><path id="1630" transform="matrix(1 0 0 -1 0 612)" d="M189.75 115.7446L598.9358 115.7446" stroke="#1155CC" stroke-width="0.7141113" fill="none" /><path id="1650" transform="matrix(1 0 0 -1 0 612)" d="M189.75 104.5331L281.361 104.5331" stroke="#1155CC" stroke-width="0.7141113" fill="none" /><path id="1719" transform="matrix(1 0 0 -1 0 612)" d="M189.75 88.03308L459.0747 88.03308" stroke="#1155CC" stroke-width="0.7141113" fill="none" /><path id="1766" transform="matrix(1 0 0 -1 0 612)" d="M189.75 71.53308L395.5426 71.53308" stroke="#1155CC" stroke-width="0.7141113" fill="none" /></g></g></g></svg>