<svg xmlns="http://www.w3.org/2000/svg" xmlns:xlink="http://www.w3.org/1999/xlink" id="body_20" preserveAspectRatio="xMinYMin meet" viewBox="0 0 1056 816"><defs><clipPath id="1"><path id="" clip-rule="evenodd" transform="matrix(1 0 0 1 0 0)" d="M0 612L0 0L0 0L792 0L792 0L792 612L792 612L0 612z" /></clipPath><clipPath id="2"><path id="" clip-rule="evenodd" transform="matrix(1 0 0 1 0 0)" d="M110.25 52.5L681.75 52.5L681.75 52.5L681.75 69.75L681.75 69.75L110.25 69.75L110.25 69.75L110.25 52.5z" /></clipPath><clipPath id="3"><path id="" clip-rule="evenodd" transform="matrix(1 0 0 1 0 0)" d="M110.25 69L681.75 69L681.75 69L681.75 545.25L681.75 545.25L110.25 545.25L110.25 545.25L110.25 69z" /></clipPath></defs><g transform="matrix(1.333333 0 0 1.333333 0 0)"><g clip-path="url(#1)"><g clip-path="url(#2)"><path id="10" transform="matrix(1 0 0 -1 0 612)" d="M111 558.75L681 558.75L681 541.5L111 541.5L111 558.75z" stroke="none" fill="#63D297" fill-rule="nonzero" /><path id="11" transform="matrix(1 0 0 -1 0 612)" d="M111 542.25L681 542.25L681 541.5L111 541.5zM111 558.75L681 558.75L681 558L111 558zM681 558L681 542.25L680.25 542.25L680.25 558zM605.25 558L605.25 542.25L604.5 542.25L604.5 558zM187.5 558L187.5 542.25L186.75 542.25L186.75 558zM111.75 558L111.75 542.25L111 542.25L111 558z" stroke="none" fill="#000000" fill-rule="nonzero" fill-opacity="0.1490196" /></g><g clip-path="url(#3)"><path id="28" transform="matrix(1 0 0 -1 0 612)" d="M111 542.25L681 542.25L681 483.75L111 483.75L111 542.25z" stroke="none" fill="#E7F9EF" fill-rule="nonzero" /><path id="29" transform="matrix(1 0 0 -1 0 612)" d="M111 484.5L681 484.5L681 453.75L111 453.75L111 484.5z" stroke="none" fill="#FFFFFF" fill-rule="nonzero" /><path id="30" transform="matrix(1 0 0 -1 0 612)" d="M111 454.5L681 454.5L681 437.25L111 437.25L111 454.5z" stroke="none" fill="#E7F9EF" fill-rule="nonzero" /><path id="31" transform="matrix(1 0 0 -1 0 612)" d="M111 438L681 438L681 420.75L111 420.75L111 438z" stroke="none" fill="#FFFFFF" fill-rule="nonzero" /><path id="32" transform="matrix(1 0 0 -1 0 612)" d="M111 421.5L681 421.5L681 404.25L111 404.25L111 421.5z" stroke="none" fill="#E7F9EF" fill-rule="nonzero" /><path id="33" transform="matrix(1 0 0 -1 0 612)" d="M111 405L681 405L681 374.25L111 374.25L111 405z" stroke="none" fill="#FFFFFF" fill-rule="nonzero" /><path id="34" transform="matrix(1 0 0 -1 0 612)" d="M111 375L681 375L681 357.75L111 357.75L111 375z" stroke="none" fill="#E7F9EF" fill-rule="nonzero" /><path id="35" transform="matrix(1 0 0 -1 0 612)" d="M111 358.5L681 358.5L681 331.5L111 331.5L111 358.5z" stroke="none" fill="#FFFFFF" fill-rule="nonzero" /><path id="36" transform="matrix(1 0 0 -1 0 612)" d="M111 332.25L681 332.25L681 301.5L111 301.5L111 332.25z" stroke="none" fill="#E7F9EF" fill-rule="nonzero" /><path id="37" transform="matrix(1 0 0 -1 0 612)" d="M111 302.25L681 302.25L681 285L111 285L111 302.25z" stroke="none" fill="#FFFFFF" fill-rule="nonzero" /><path id="38" transform="matrix(1 0 0 -1 0 612)" d="M111 285.75L681 285.75L681 268.5L111 268.5L111 285.75z" stroke="none" fill="#E7F9EF" fill-rule="nonzero" /><path id="39" transform="matrix(1 0 0 -1 0 612)" d="M111 269.25L681 269.25L681 242.25L111 242.25L111 269.25z" stroke="none" fill="#FFFFFF" fill-rule="nonzero" /><path id="40" transform="matrix(1 0 0 -1 0 612)" d="M111 243L681 243L681 216L111 216L111 243z" stroke="none" fill="#E7F9EF" fill-rule="nonzero" /><path id="41" transform="matrix(1 0 0 -1 0 612)" d="M111 216.75L681 216.75L681 199.5L111 199.5L111 216.75z" stroke="none" fill="#FFFFFF" fill-rule="nonzero" /><path id="42" transform="matrix(1 0 0 -1 0 612)" d="M111 200.25L681 200.25L681 183L111 183L111 200.25z" stroke="none" fill="#E7F9EF" fill-rule="nonzero" /><path id="43" transform="matrix(1 0 0 -1 0 612)" d="M111 183.75L681 183.75L681 166.5L111 166.5L111 183.75z" stroke="none" fill="#FFFFFF" fill-rule="nonzero" /><path id="44" transform="matrix(1 0 0 -1 0 612)" d="M111 167.25L681 167.25L681 150L111 150L111 167.25z" stroke="none" fill="#E7F9EF" fill-rule="nonzero" /><path id="45" transform="matrix(1 0 0 -1 0 612)" d="M111 150.75L681 150.75L681 133.5L111 133.5L111 150.75z" stroke="none" fill="#FFFFFF" fill-rule="nonzero" /><path id="46" transform="matrix(1 0 0 -1 0 612)" d="M111 134.25L681 134.25L681 117L111 117L111 134.25z" stroke="none" fill="#E7F9EF" fill-rule="nonzero" /><path id="47" transform="matrix(1 0 0 -1 0 612)" d="M111 117.75L681 117.75L681 100.5L111 100.5L111 117.75z" stroke="none" fill="#FFFFFF" fill-rule="nonzero" /><path id="48" transform="matrix(1 0 0 -1 0 612)" d="M111 101.25L681 101.25L681 84L111 84L111 101.25z" stroke="none" fill="#E7F9EF" fill-rule="nonzero" /><path id="49" transform="matrix(1 0 0 -1 0 612)" d="M111 84.75L681 84.75L681 67.5L111 67.5L111 84.75z" stroke="none" fill="#FFFFFF" fill-rule="nonzero" /><path id="50" transform="matrix(1 0 0 -1 0 612)" d="M111 68.25L681 68.25L681 67.5L111 67.5zM111 84.75L681 84.75L681 84L111 84zM111 101.25L681 101.25L681 100.5L111 100.5zM111 117.75L681 117.75L681 117L111 117zM111 134.25L681 134.25L681 133.5L111 133.5zM111 150.75L681 150.75L681 150L111 150zM111 167.25L681 167.25L681 166.5L111 166.5zM111 183.75L681 183.75L681 183L111 183zM111 200.25L681 200.25L681 199.5L111 199.5zM111 216.75L681 216.75L681 216L111 216zM111 243L681 243L681 242.25L111 242.25zM111 269.25L681 269.25L681 268.5L111 268.5zM111 285.75L681 285.75L681 285L111 285zM111 302.25L681 302.25L681 301.5L111 301.5zM111 332.25L681 332.25L681 331.5L111 331.5zM111 358.5L681 358.5L681 357.75L111 357.75zM111 375L681 375L681 374.25L111 374.25zM111 405L681 405L681 404.25L111 404.25zM111 421.5L681 421.5L681 420.75L111 420.75zM111 438L681 438L681 437.25L111 437.25zM111 454.5L681 454.5L681 453.75L111 453.75zM111 484.5L681 484.5L681 483.75L111 483.75zM111 542.25L681 542.25L681 541.5L111 541.5zM681 84L681 68.25L680.25 68.25L680.25 84zM681 100.5L681 84.75L680.25 84.75L680.25 100.5zM681 117L681 101.25L680.25 101.25L680.25 117zM681 133.5L681 117.75L680.25 117.75L680.25 133.5zM681 150L681 134.25L680.25 134.25L680.25 150zM681 166.5L681 150.75L680.25 150.75L680.25 166.5zM681 183L681 167.25L680.25 167.25L680.25 183zM681 199.5L681 183.75L680.25 183.75L680.25 199.5zM681 216L681 200.25L680.25 200.25L680.25 216zM681 242.25L681 216.75L680.25 216.75L680.25 242.25zM681 268.5L681 243L680.25 243L680.25 268.5zM681 285L681 269.25L680.25 269.25L680.25 285zM681 301.5L681 285.75L680.25 285.75L680.25 301.5zM681 331.5L681 302.25L680.25 302.25L680.25 331.5zM681 357.75L681 332.25L680.25 332.25L680.25 357.75zM681 374.25L681 358.5L680.25 358.5L680.25 374.25zM681 404.25L681 375L680.25 375L680.25 404.25zM681 420.75L681 405L680.25 405L680.25 420.75zM681 437.25L681 421.5L680.25 421.5L680.25 437.25zM681 453.75L681 438L680.25 438L680.25 453.75zM681 483.75L681 454.5L680.25 454.5L680.25 483.75zM681 541.5L681 484.5L680.25 484.5L680.25 541.5zM605.25 84L605.25 68.25L604.5 68.25L604.5 84zM605.25 100.5L605.25 84.75L604.5 84.75L604.5 100.5zM605.25 117L605.25 101.25L604.5 101.25L604.5 117zM605.25 133.5L605.25 117.75L604.5 117.75L604.5 133.5zM605.25 150L605.25 134.25L604.5 134.25L604.5 150zM605.25 166.5L605.25 150.75L604.5 150.75L604.5 166.5zM605.25 183L605.25 167.25L604.5 167.25L604.5 183zM605.25 199.5L605.25 183.75L604.5 183.75L604.5 199.5zM605.25 216L605.25 200.25L604.5 200.25L604.5 216zM605.25 242.25L605.25 216.75L604.5 216.75L604.5 242.25zM605.25 268.5L605.25 243L604.5 243L604.5 268.5zM605.25 285L605.25 269.25L604.5 269.25L604.5 285zM605.25 301.5L605.25 285.75L604.5 285.75L604.5 301.5zM605.25 331.5L605.25 302.25L604.5 302.25L604.5 331.5zM605.25 357.75L605.25 332.25L604.5 332.25L604.5 357.75zM605.25 374.25L605.25 358.5L604.5 358.5L604.5 374.25zM605.25 404.25L605.25 375L604.5 375L604.5 404.25zM605.25 420.75L605.25 405L604.5 405L604.5 420.75zM605.25 437.25L605.25 421.5L604.5 421.5L604.5 437.25zM605.25 453.75L605.25 438L604.5 438L604.5 453.75zM605.25 483.75L605.25 454.5L604.5 454.5L604.5 483.75zM605.25 541.5L605.25 484.5L604.5 484.5L604.5 541.5zM187.5 84L187.5 68.25L186.75 68.25L186.75 84zM187.5 100.5L187.5 84.75L186.75 84.75L186.75 100.5zM187.5 117L187.5 101.25L186.75 101.25L186.75 117zM187.5 133.5L187.5 117.75L186.75 117.75L186.75 133.5zM187.5 150L187.5 134.25L186.75 134.25L186.75 150zM187.5 166.5L187.5 150.75L186.75 150.75L186.75 166.5zM187.5 183L187.5 167.25L186.75 167.25L186.75 183zM187.5 199.5L187.5 183.75L186.75 183.75L186.75 199.5zM187.5 216L187.5 200.25L186.75 200.25L186.75 216zM187.5 242.25L187.5 216.75L186.75 216.75L186.75 242.25zM187.5 268.5L187.5 243L186.75 243L186.75 268.5zM187.5 285L187.5 269.25L186.75 269.25L186.75 285zM187.5 301.5L187.5 285.75L186.75 285.75L186.75 301.5zM187.5 331.5L187.5 302.25L186.75 302.25L186.75 331.5zM187.5 357.75L187.5 332.25L186.75 332.25L186.75 357.75zM187.5 374.25L187.5 358.5L186.75 358.5L186.75 374.25zM187.5 404.25L187.5 375L186.75 375L186.75 404.25zM187.5 420.75L187.5 405L186.75 405L186.75 420.75zM187.5 437.25L187.5 421.5L186.75 421.5L186.75 437.25zM187.5 453.75L187.5 438L186.75 438L186.75 453.75zM187.5 483.75L187.5 454.5L186.75 454.5L186.75 483.75zM187.5 541.5L187.5 484.5L186.75 484.5L186.75 541.5zM111.75 84L111.75 68.25L111 68.25L111 84zM111.75 100.5L111.75 84.75L111 84.75L111 100.5zM111.75 117L111.75 101.25L111 101.25L111 117zM111.75 133.5L111.75 117.75L111 117.75L111 133.5zM111.75 150L111.75 134.25L111 134.25L111 150zM111.75 166.5L111.75 150.75L111 150.75L111 166.5zM111.75 183L111.75 167.25L111 167.25L111 183zM111.75 199.5L111.75 183.75L111 183.75L111 199.5zM111.75 216L111.75 200.25L111 200.25L111 216zM111.75 242.25L111.75 216.75L111 216.75L111 242.25zM111.75 268.5L111.75 243L111 243L111 268.5zM111.75 285L111.75 269.25L111 269.25L111 285zM111.75 301.5L111.75 285.75L111 285.75L111 301.5zM111.75 331.5L111.75 302.25L111 302.25L111 331.5zM111.75 357.75L111.75 332.25L111 332.25L111 357.75zM111.75 374.25L111.75 358.5L111 358.5L111 374.25zM111.75 404.25L111.75 375L111 375L111 404.25zM111.75 420.75L111.75 405L111 405L111 420.75zM111.75 437.25L111.75 421.5L111 421.5L111 437.25zM111.75 453.75L111.75 438L111 438L111 453.75zM111.75 483.75L111.75 454.5L111 454.5L111 483.75zM111.75 541.5L111.75 484.5L111 484.5L111 541.5z" stroke="none" fill="#000000" fill-rule="nonzero" fill-opacity="0.1490196" /><path id="165" transform="matrix(1 0 0 -1 0 612)" d="M189.75 487.0332L572.7374 487.0332" stroke="#1155CC" stroke-width="0.7141113" fill="none" /><path id="247" transform="matrix(1 0 0 -1 0 612)" d="M189.75 457.0332L483.245 457.0332" stroke="#1155CC" stroke-width="0.7141113" fill="none" /><path id="315" transform="matrix(1 0 0 -1 0 612)" d="M189.75 440.5332L446.6396 440.5332" stroke="#1155CC" stroke-width="0.7141113" fill="none" /><path id="351" transform="matrix(1 0 0 -1 0 612)" d="M189.75 424.0332L313.3103 424.0332" stroke="#1155CC" stroke-width="0.7141113" fill="none" /><path id="433" transform="matrix(1 0 0 -1 0 612)" d="M189.75 407.5332L543.6541 407.5332" stroke="#1155CC" stroke-width="0.7141113" fill="none" /><path id="530" transform="matrix(1 0 0 -1 0 612)" d="M189.75 377.5332L570.7617 377.5332" stroke="#1155CC" stroke-width="0.7141113" fill="none" /><path id="608" transform="matrix(1 0 0 -1 0 612)" d="M189.75 361.0332L550.4905 361.0332" stroke="#1155CC" stroke-width="0.7141113" fill="none" /><path id="705" transform="matrix(1 0 0 -1 0 612)" d="M189.75 345.9941L583.0302 345.9941" stroke="#1155CC" stroke-width="0.7141113" fill="none" /><path id="732" transform="matrix(1 0 0 -1 0 612)" d="M189.75 334.7832L330.8394 334.7832" stroke="#1155CC" stroke-width="0.7141113" fill="none" /><path id="811" transform="matrix(1 0 0 -1 0 612)" d="M189.75 304.7832L486.4347 304.7832" stroke="#1155CC" stroke-width="0.7141113" fill="none" /><path id="894" transform="matrix(1 0 0 -1 0 612)" d="M189.75 288.2832L548.5052 288.2832" stroke="#1155CC" stroke-width="0.7141113" fill="none" /><path id="958" transform="matrix(1 0 0 -1 0 612)" d="M189.75 271.7832L542.4163 271.7832" stroke="#1155CC" stroke-width="0.7141113" fill="none" /><path id="1049" transform="matrix(1 0 0 -1 0 612)" d="M189.75 256.7441L572.1519 256.7441" stroke="#1155CC" stroke-width="0.7141113" fill="none" /><path id="1114" transform="matrix(1 0 0 -1 0 612)" d="M189.75 245.5332L518.1888 245.5332" stroke="#1155CC" stroke-width="0.7141113" fill="none" /><path id="1128" transform="matrix(1 0 0 -1 0 612)" d="M189.75 230.4941L209.2595 230.4941" stroke="#1155CC" stroke-width="0.7141113" fill="none" /><path id="1130" transform="matrix(1 0 0 -1 0 612)" d="M209.2595 230.8799L214.1345 230.8799" stroke="#1155CC" stroke-width="0.7236328" fill="none" /><path id="1207" transform="matrix(1 0 0 -1 0 612)" d="M214.1345 230.4941L597.8075 230.4941" stroke="#1155CC" stroke-width="0.7141113" fill="none" /><path id="1228" transform="matrix(1 0 0 -1 0 612)" d="M189.75 219.2832L289.4923 219.2832" stroke="#1155CC" stroke-width="0.7141113" fill="none" /><path id="1323" transform="matrix(1 0 0 -1 0 612)" d="M189.75 202.7832L585.1915 202.7832" stroke="#1155CC" stroke-width="0.7141113" fill="none" /><path id="1396" transform="matrix(1 0 0 -1 0 612)" d="M189.75 186.2832L479.684 186.2832" stroke="#1155CC" stroke-width="0.7141113" fill="none" /><path id="1438" transform="matrix(1 0 0 -1 0 612)" d="M189.75 169.7832L344.774 169.7832" stroke="#1155CC" stroke-width="0.7141113" fill="none" /><path id="1510" transform="matrix(1 0 0 -1 0 612)" d="M189.75 153.2832L471.5526 153.2832" stroke="#1155CC" stroke-width="0.7141113" fill="none" /><path id="1600" transform="matrix(1 0 0 -1 0 612)" d="M189.75 136.7832L582.1208 136.7832" stroke="#1155CC" stroke-width="0.7141113" fill="none" /><path id="1617" transform="matrix(1 0 0 -1 0 612)" d="M189.75 120.2832L209.2595 120.2832" stroke="#1155CC" stroke-width="0.7141113" fill="none" /><path id="1619" transform="matrix(1 0 0 -1 0 612)" d="M209.2595 120.6689L214.1345 120.6689" stroke="#1155CC" stroke-width="0.7236328" fill="none" /><path id="1647" transform="matrix(1 0 0 -1 0 612)" d="M214.1345 120.2832L352.3389 120.2832" stroke="#1155CC" stroke-width="0.7141113" fill="none" /><path id="1649" transform="matrix(1 0 0 -1 0 612)" d="M352.3389 120.6689L357.2139 120.6689" stroke="#1155CC" stroke-width="0.7236328" fill="none" /><path id="1676" transform="matrix(1 0 0 -1 0 612)" d="M357.2139 120.2832L481.8691 120.2832" stroke="#1155CC" stroke-width="0.7141113" fill="none" /><path id="1696" transform="matrix(1 0 0 -1 0 612)" d="M189.75 103.7832L235.8245 103.7832" stroke="#1155CC" stroke-width="0.7141113" fill="none" /><path id="1725" transform="matrix(1 0 0 -1 0 612)" d="M189.75 87.2832L263.4653 87.2832" stroke="#1155CC" stroke-width="0.7141113" fill="none" /><path id="1794" transform="matrix(1 0 0 -1 0 612)" d="M189.75 70.7832L450.8101 70.7832" stroke="#1155CC" stroke-width="0.7141113" fill="none" /></g></g></g></svg>