<svg xmlns="http://www.w3.org/2000/svg" xmlns:xlink="http://www.w3.org/1999/xlink" id="body_10" preserveAspectRatio="xMinYMin meet" viewBox="0 0 1056 816"><defs><clipPath id="1"><path id="" clip-rule="evenodd" transform="matrix(1 0 0 1 0 0)" d="M0 612L0 0L0 0L792 0L792 0L792 612L792 612L0 612z" /></clipPath><clipPath id="2"><path id="" clip-rule="evenodd" transform="matrix(1 0 0 1 0 0)" d="M110.25 52.5L681.75 52.5L681.75 52.5L681.75 69.75L681.75 69.75L110.25 69.75L110.25 69.75L110.25 52.5z" /></clipPath><clipPath id="3"><path id="" clip-rule="evenodd" transform="matrix(1 0 0 1 0 0)" d="M110.25 69L681.75 69L681.75 69L681.75 528.75L681.75 528.75L110.25 528.75L110.25 528.75L110.25 69z" /></clipPath></defs><g transform="matrix(1.333333 0 0 1.333333 0 0)"><g clip-path="url(#1)"><g clip-path="url(#2)"><path id="10" transform="matrix(1 0 0 -1 0 612)" d="M111 558.75L681 558.75L681 541.5L111 541.5L111 558.75z" stroke="none" fill="#63D297" fill-rule="nonzero" /><path id="11" transform="matrix(1 0 0 -1 0 612)" d="M111 542.25L681 542.25L681 541.5L111 541.5zM111 558.75L681 558.75L681 558L111 558zM681 558L681 542.25L680.25 542.25L680.25 558zM605.25 558L605.25 542.25L604.5 542.25L604.5 558zM187.5 558L187.5 542.25L186.75 542.25L186.75 558zM111.75 558L111.75 542.25L111 542.25L111 558z" stroke="none" fill="#000000" fill-rule="nonzero" fill-opacity="0.1490196" /></g><g clip-path="url(#3)"><path id="28" transform="matrix(1 0 0 -1 0 612)" d="M111 542.25L681 542.25L681 515.25L111 515.25L111 542.25z" stroke="none" fill="#E7F9EF" fill-rule="nonzero" /><path id="29" transform="matrix(1 0 0 -1 0 612)" d="M111 516L681 516L681 498.75L111 498.75L111 516z" stroke="none" fill="#FFFFFF" fill-rule="nonzero" /><path id="30" transform="matrix(1 0 0 -1 0 612)" d="M111 499.5L681 499.5L681 456L111 456L111 499.5z" stroke="none" fill="#E7F9EF" fill-rule="nonzero" /><path id="31" transform="matrix(1 0 0 -1 0 612)" d="M111 456.75L681 456.75L681 439.5L111 439.5L111 456.75z" stroke="none" fill="#FFFFFF" fill-rule="nonzero" /><path id="32" transform="matrix(1 0 0 -1 0 612)" d="M111 440.25L681 440.25L681 423L111 423L111 440.25z" stroke="none" fill="#E7F9EF" fill-rule="nonzero" /><path id="33" transform="matrix(1 0 0 -1 0 612)" d="M111 423.75L681 423.75L681 406.5L111 406.5L111 423.75z" stroke="none" fill="#FFFFFF" fill-rule="nonzero" /><path id="34" transform="matrix(1 0 0 -1 0 612)" d="M111 407.25L681 407.25L681 376.5L111 376.5L111 407.25z" stroke="none" fill="#E7F9EF" fill-rule="nonzero" /><path id="35" transform="matrix(1 0 0 -1 0 612)" d="M111 377.25L681 377.25L681 360L111 360L111 377.25z" stroke="none" fill="#FFFFFF" fill-rule="nonzero" /><path id="36" transform="matrix(1 0 0 -1 0 612)" d="M111 360.75L681 360.75L681 343.5L111 343.5L111 360.75z" stroke="none" fill="#E7F9EF" fill-rule="nonzero" /><path id="37" transform="matrix(1 0 0 -1 0 612)" d="M111 344.25L681 344.25L681 327L111 327L111 344.25z" stroke="none" fill="#FFFFFF" fill-rule="nonzero" /><path id="38" transform="matrix(1 0 0 -1 0 612)" d="M111 327.75L681 327.75L681 310.5L111 310.5L111 327.75z" stroke="none" fill="#E7F9EF" fill-rule="nonzero" /><path id="39" transform="matrix(1 0 0 -1 0 612)" d="M111 311.25L681 311.25L681 294L111 294L111 311.25z" stroke="none" fill="#FFFFFF" fill-rule="nonzero" /><path id="40" transform="matrix(1 0 0 -1 0 612)" d="M111 294.75L681 294.75L681 277.5L111 277.5L111 294.75z" stroke="none" fill="#E7F9EF" fill-rule="nonzero" /><path id="41" transform="matrix(1 0 0 -1 0 612)" d="M111 278.25L681 278.25L681 251.25L111 251.25L111 278.25z" stroke="none" fill="#FFFFFF" fill-rule="nonzero" /><path id="42" transform="matrix(1 0 0 -1 0 612)" d="M111 252L681 252L681 234.75L111 234.75L111 252z" stroke="none" fill="#E7F9EF" fill-rule="nonzero" /><path id="43" transform="matrix(1 0 0 -1 0 612)" d="M111 235.5L681 235.5L681 204.75L111 204.75L111 235.5z" stroke="none" fill="#FFFFFF" fill-rule="nonzero" /><path id="44" transform="matrix(1 0 0 -1 0 612)" d="M111 205.5L681 205.5L681 188.25L111 188.25L111 205.5z" stroke="none" fill="#E7F9EF" fill-rule="nonzero" /><path id="45" transform="matrix(1 0 0 -1 0 612)" d="M111 189L681 189L681 162L111 162L111 189z" stroke="none" fill="#FFFFFF" fill-rule="nonzero" /><path id="46" transform="matrix(1 0 0 -1 0 612)" d="M111 162.75L681 162.75L681 145.5L111 145.5L111 162.75z" stroke="none" fill="#E7F9EF" fill-rule="nonzero" /><path id="47" transform="matrix(1 0 0 -1 0 612)" d="M111 146.25L681 146.25L681 115.5L111 115.5L111 146.25z" stroke="none" fill="#FFFFFF" fill-rule="nonzero" /><path id="48" transform="matrix(1 0 0 -1 0 612)" d="M111 116.25L681 116.25L681 84L111 84L111 116.25z" stroke="none" fill="#E7F9EF" fill-rule="nonzero" /><path id="49" transform="matrix(1 0 0 -1 0 612)" d="M111 84.75L681 84.75L681 84L111 84zM111 116.25L681 116.25L681 115.5L111 115.5zM111 146.25L681 146.25L681 145.5L111 145.5zM111 162.75L681 162.75L681 162L111 162zM111 189L681 189L681 188.25L111 188.25zM111 205.5L681 205.5L681 204.75L111 204.75zM111 235.5L681 235.5L681 234.75L111 234.75zM111 252L681 252L681 251.25L111 251.25zM111 278.25L681 278.25L681 277.5L111 277.5zM111 294.75L681 294.75L681 294L111 294zM111 311.25L681 311.25L681 310.5L111 310.5zM111 327.75L681 327.75L681 327L111 327zM111 344.25L681 344.25L681 343.5L111 343.5zM111 360.75L681 360.75L681 360L111 360zM111 377.25L681 377.25L681 376.5L111 376.5zM111 407.25L681 407.25L681 406.5L111 406.5zM111 423.75L681 423.75L681 423L111 423zM111 440.25L681 440.25L681 439.5L111 439.5zM111 456.75L681 456.75L681 456L111 456zM111 499.5L681 499.5L681 498.75L111 498.75zM111 516L681 516L681 515.25L111 515.25zM111 542.25L681 542.25L681 541.5L111 541.5zM681 115.5L681 84.75L680.25 84.75L680.25 115.5zM681 145.5L681 116.25L680.25 116.25L680.25 145.5zM681 162L681 146.25L680.25 146.25L680.25 162zM681 188.25L681 162.75L680.25 162.75L680.25 188.25zM681 204.75L681 189L680.25 189L680.25 204.75zM681 234.75L681 205.5L680.25 205.5L680.25 234.75zM681 251.25L681 235.5L680.25 235.5L680.25 251.25zM681 277.5L681 252L680.25 252L680.25 277.5zM681 294L681 278.25L680.25 278.25L680.25 294zM681 310.5L681 294.75L680.25 294.75L680.25 310.5zM681 327L681 311.25L680.25 311.25L680.25 327zM681 343.5L681 327.75L680.25 327.75L680.25 343.5zM681 360L681 344.25L680.25 344.25L680.25 360zM681 376.5L681 360.75L680.25 360.75L680.25 376.5zM681 406.5L681 377.25L680.25 377.25L680.25 406.5zM681 423L681 407.25L680.25 407.25L680.25 423zM681 439.5L681 423.75L680.25 423.75L680.25 439.5zM681 456L681 440.25L680.25 440.25L680.25 456zM681 498.75L681 456.75L680.25 456.75L680.25 498.75zM681 515.25L681 499.5L680.25 499.5L680.25 515.25zM681 541.5L681 516L680.25 516L680.25 541.5zM605.25 115.5L605.25 84.75L604.5 84.75L604.5 115.5zM605.25 145.5L605.25 116.25L604.5 116.25L604.5 145.5zM605.25 162L605.25 146.25L604.5 146.25L604.5 162zM605.25 188.25L605.25 162.75L604.5 162.75L604.5 188.25zM605.25 204.75L605.25 189L604.5 189L604.5 204.75zM605.25 234.75L605.25 205.5L604.5 205.5L604.5 234.75zM605.25 251.25L605.25 235.5L604.5 235.5L604.5 251.25zM605.25 277.5L605.25 252L604.5 252L604.5 277.5zM605.25 294L605.25 278.25L604.5 278.25L604.5 294zM605.25 310.5L605.25 294.75L604.5 294.75L604.5 310.5zM605.25 327L605.25 311.25L604.5 311.25L604.5 327zM605.25 343.5L605.25 327.75L604.5 327.75L604.5 343.5zM605.25 360L605.25 344.25L604.5 344.25L604.5 360zM605.25 376.5L605.25 360.75L604.5 360.75L604.5 376.5zM605.25 406.5L605.25 377.25L604.5 377.25L604.5 406.5zM605.25 423L605.25 407.25L604.5 407.25L604.5 423zM605.25 439.5L605.25 423.75L604.5 423.75L604.5 439.5zM605.25 456L605.25 440.25L604.5 440.25L604.5 456zM605.25 498.75L605.25 456.75L604.5 456.75L604.5 498.75zM605.25 515.25L605.25 499.5L604.5 499.5L604.5 515.25zM605.25 541.5L605.25 516L604.5 516L604.5 541.5zM187.5 115.5L187.5 84.75L186.75 84.75L186.75 115.5zM187.5 145.5L187.5 116.25L186.75 116.25L186.75 145.5zM187.5 162L187.5 146.25L186.75 146.25L186.75 162zM187.5 188.25L187.5 162.75L186.75 162.75L186.75 188.25zM187.5 204.75L187.5 189L186.75 189L186.75 204.75zM187.5 234.75L187.5 205.5L186.75 205.5L186.75 234.75zM187.5 251.25L187.5 235.5L186.75 235.5L186.75 251.25zM187.5 277.5L187.5 252L186.75 252L186.75 277.5zM187.5 294L187.5 278.25L186.75 278.25L186.75 294zM187.5 310.5L187.5 294.75L186.75 294.75L186.75 310.5zM187.5 327L187.5 311.25L186.75 311.25L186.75 327zM187.5 343.5L187.5 327.75L186.75 327.75L186.75 343.5zM187.5 360L187.5 344.25L186.75 344.25L186.75 360zM187.5 376.5L187.5 360.75L186.75 360.75L186.75 376.5zM187.5 406.5L187.5 377.25L186.75 377.25L186.75 406.5zM187.5 423L187.5 407.25L186.75 407.25L186.75 423zM187.5 439.5L187.5 423.75L186.75 423.75L186.75 439.5zM187.5 456L187.5 440.25L186.75 440.25L186.75 456zM187.5 498.75L187.5 456.75L186.75 456.75L186.75 498.75zM187.5 515.25L187.5 499.5L186.75 499.5L186.75 515.25zM187.5 541.5L187.5 516L186.75 516L186.75 541.5zM111.75 115.5L111.75 84.75L111 84.75L111 115.5zM111.75 145.5L111.75 116.25L111 116.25L111 145.5zM111.75 162L111.75 146.25L111 146.25L111 162zM111.75 188.25L111.75 162.75L111 162.75L111 188.25zM111.75 204.75L111.75 189L111 189L111 204.75zM111.75 234.75L111.75 205.5L111 205.5L111 234.75zM111.75 251.25L111.75 235.5L111 235.5L111 251.25zM111.75 277.5L111.75 252L111 252L111 277.5zM111.75 294L111.75 278.25L111 278.25L111 294zM111.75 310.5L111.75 294.75L111 294.75L111 310.5zM111.75 327L111.75 311.25L111 311.25L111 327zM111.75 343.5L111.75 327.75L111 327.75L111 343.5zM111.75 360L111.75 344.25L111 344.25L111 360zM111.75 376.5L111.75 360.75L111 360.75L111 376.5zM111.75 406.5L111.75 377.25L111 377.25L111 406.5zM111.75 423L111.75 407.25L111 407.25L111 423zM111.75 439.5L111.75 423.75L111 423.75L111 439.5zM111.75 456L111.75 440.25L111 440.25L111 456zM111.75 498.75L111.75 456.75L111 456.75L111 498.75zM111.75 515.25L111.75 499.5L111 499.5L111 515.25zM111.75 541.5L111.75 516L111 516L111 541.5z" stroke="none" fill="#000000" fill-rule="nonzero" fill-opacity="0.1490196" /><path id="132" transform="matrix(1 0 0 -1 0 612)" d="M189.75 529.7446L566.1866 529.7446" stroke="#1155CC" stroke-width="0.7141113" fill="none" /><path id="150" transform="matrix(1 0 0 -1 0 612)" d="M189.75 518.5332L263.4368 518.5332" stroke="#1155CC" stroke-width="0.7141113" fill="none" /><path id="238" transform="matrix(1 0 0 -1 0 612)" d="M189.75 502.0332L566.9198 502.0332" stroke="#1155CC" stroke-width="0.7141113" fill="none" /><path id="311" transform="matrix(1 0 0 -1 0 612)" d="M189.75 459.2832L400.5604 459.2832" stroke="#1155CC" stroke-width="0.7141113" fill="none" /><path id="356" transform="matrix(1 0 0 -1 0 612)" d="M189.75 442.7832L337.6996 442.7832" stroke="#1155CC" stroke-width="0.7141113" fill="none" /><path id="410" transform="matrix(1 0 0 -1 0 612)" d="M189.75 426.2832L397.8516 426.2832" stroke="#1155CC" stroke-width="0.7141113" fill="none" /><path id="463" transform="matrix(1 0 0 -1 0 612)" d="M189.75 409.7832L394.6143 409.7832" stroke="#1155CC" stroke-width="0.7141113" fill="none" /><path id="552" transform="matrix(1 0 0 -1 0 612)" d="M189.75 379.7832L507.8818 379.7832" stroke="#1155CC" stroke-width="0.7141113" fill="none" /><path id="644" transform="matrix(1 0 0 -1 0 612)" d="M189.75 363.2832L585.6105 363.2832" stroke="#1155CC" stroke-width="0.7141113" fill="none" /><path id="727" transform="matrix(1 0 0 -1 0 612)" d="M189.75 346.7832L556.2938 346.7832" stroke="#1155CC" stroke-width="0.7141113" fill="none" /><path id="776" transform="matrix(1 0 0 -1 0 612)" d="M189.75 330.2832L397.8373 330.2832" stroke="#1155CC" stroke-width="0.7141113" fill="none" /><path id="793" transform="matrix(1 0 0 -1 0 612)" d="M189.75 313.7832L207.0886 313.7832" stroke="#1155CC" stroke-width="0.7141113" fill="none" /><path id="795" transform="matrix(1 0 0 -1 0 612)" d="M207.0886 314.1689L211.9636 314.1689" stroke="#1155CC" stroke-width="0.7236328" fill="none" /><path id="812" transform="matrix(1 0 0 -1 0 612)" d="M211.9636 313.7832L290.5492 313.7832" stroke="#1155CC" stroke-width="0.7141113" fill="none" /><path id="868" transform="matrix(1 0 0 -1 0 612)" d="M189.75 297.2832L397.8516 297.2832" stroke="#1155CC" stroke-width="0.7141113" fill="none" /><path id="928" transform="matrix(1 0 0 -1 0 612)" d="M189.75 280.7832L437.6228 280.7832" stroke="#1155CC" stroke-width="0.7141113" fill="none" /><path id="1014" transform="matrix(1 0 0 -1 0 612)" d="M189.75 265.7446L578.0504 265.7446" stroke="#1155CC" stroke-width="0.7141113" fill="none" /><path id="1072" transform="matrix(1 0 0 -1 0 612)" d="M189.75 254.5332L487.3107 254.5332" stroke="#1155CC" stroke-width="0.7141113" fill="none" /><path id="1099" transform="matrix(1 0 0 -1 0 612)" d="M189.75 238.0332L262.9036 238.0332" stroke="#1155CC" stroke-width="0.7141113" fill="none" /><path id="1167" transform="matrix(1 0 0 -1 0 612)" d="M189.75 208.0332L407.6206 208.0332" stroke="#1155CC" stroke-width="0.7141113" fill="none" /><path id="1256" transform="matrix(1 0 0 -1 0 612)" d="M189.75 191.5332L577.7933 191.5332" stroke="#1155CC" stroke-width="0.7141113" fill="none" /><path id="1342" transform="matrix(1 0 0 -1 0 612)" d="M189.75 176.4946L566.7437 176.4946" stroke="#1155CC" stroke-width="0.7141113" fill="none" /><path id="1350" transform="matrix(1 0 0 -1 0 612)" d="M189.75 165.2832L229.845 165.2832" stroke="#1155CC" stroke-width="0.7141113" fill="none" /><path id="1411" transform="matrix(1 0 0 -1 0 612)" d="M189.75 148.7832L456.4087 148.7832" stroke="#1155CC" stroke-width="0.7141113" fill="none" /><path id="1508" transform="matrix(1 0 0 -1 0 612)" d="M189.75 118.7832L546.7343 118.7832" stroke="#1155CC" stroke-width="0.7141113" fill="none" /><path id="1613" transform="matrix(1 0 0 -1 0 612)" d="M189.75 87.2832L555.0084 87.2832" stroke="#1155CC" stroke-width="0.7141113" fill="none" /></g></g></g></svg>