<svg xmlns="http://www.w3.org/2000/svg" xmlns:xlink="http://www.w3.org/1999/xlink" id="body_18" preserveAspectRatio="xMinYMin meet" viewBox="0 0 1056 816"><defs><clipPath id="1"><path id="" clip-rule="evenodd" transform="matrix(1 0 0 1 0 0)" d="M0 612L0 0L0 0L792 0L792 0L792 612L792 612L0 612z" /></clipPath><clipPath id="2"><path id="" clip-rule="evenodd" transform="matrix(1 0 0 1 0 0)" d="M110.25 52.5L681.75 52.5L681.75 52.5L681.75 69.75L681.75 69.75L110.25 69.75L110.25 69.75L110.25 52.5z" /></clipPath><clipPath id="3"><path id="" clip-rule="evenodd" transform="matrix(1 0 0 1 0 0)" d="M110.25 69L681.75 69L681.75 69L681.75 547.5L681.75 547.5L110.25 547.5L110.25 547.5L110.25 69z" /></clipPath></defs><g transform="matrix(1.333333 0 0 1.333333 0 0)"><g clip-path="url(#1)"><g clip-path="url(#2)"><path id="10" transform="matrix(1 0 0 -1 0 612)" d="M111 558.75L681 558.75L681 541.5L111 541.5L111 558.75z" stroke="none" fill="#63D297" fill-rule="nonzero" /><path id="11" transform="matrix(1 0 0 -1 0 612)" d="M111 542.25L681 542.25L681 541.5L111 541.5zM111 558.75L681 558.75L681 558L111 558zM681 558L681 542.25L680.25 542.25L680.25 558zM605.25 558L605.25 542.25L604.5 542.25L604.5 558zM187.5 558L187.5 542.25L186.75 542.25L186.75 558zM111.75 558L111.75 542.25L111 542.25L111 558z" stroke="none" fill="#000000" fill-rule="nonzero" fill-opacity="0.1490196" /></g><g clip-path="url(#3)"><path id="28" transform="matrix(1 0 0 -1 0 612)" d="M111 542.25L681 542.25L681 525L111 525L111 542.25z" stroke="none" fill="#E7F9EF" fill-rule="nonzero" /><path id="29" transform="matrix(1 0 0 -1 0 612)" d="M111 525.75L681 525.75L681 495L111 495L111 525.75z" stroke="none" fill="#FFFFFF" fill-rule="nonzero" /><path id="30" transform="matrix(1 0 0 -1 0 612)" d="M111 495.75L681 495.75L681 478.5L111 478.5L111 495.75z" stroke="none" fill="#E7F9EF" fill-rule="nonzero" /><path id="31" transform="matrix(1 0 0 -1 0 612)" d="M111 479.25L681 479.25L681 462L111 462L111 479.25z" stroke="none" fill="#FFFFFF" fill-rule="nonzero" /><path id="32" transform="matrix(1 0 0 -1 0 612)" d="M111 462.75L681 462.75L681 432L111 432L111 462.75z" stroke="none" fill="#E7F9EF" fill-rule="nonzero" /><path id="33" transform="matrix(1 0 0 -1 0 612)" d="M111 432.75L681 432.75L681 405.75L111 405.75L111 432.75z" stroke="none" fill="#FFFFFF" fill-rule="nonzero" /><path id="34" transform="matrix(1 0 0 -1 0 612)" d="M111 406.5L681 406.5L681 389.25L111 389.25L111 406.5z" stroke="none" fill="#E7F9EF" fill-rule="nonzero" /><path id="35" transform="matrix(1 0 0 -1 0 612)" d="M111 390L681 390L681 372.75L111 372.75L111 390z" stroke="none" fill="#FFFFFF" fill-rule="nonzero" /><path id="36" transform="matrix(1 0 0 -1 0 612)" d="M111 373.5L681 373.5L681 356.25L111 356.25L111 373.5z" stroke="none" fill="#E7F9EF" fill-rule="nonzero" /><path id="37" transform="matrix(1 0 0 -1 0 612)" d="M111 357L681 357L681 339.75L111 339.75L111 357z" stroke="none" fill="#FFFFFF" fill-rule="nonzero" /><path id="38" transform="matrix(1 0 0 -1 0 612)" d="M111 340.5L681 340.5L681 323.25L111 323.25L111 340.5z" stroke="none" fill="#E7F9EF" fill-rule="nonzero" /><path id="39" transform="matrix(1 0 0 -1 0 612)" d="M111 324L681 324L681 306.75L111 306.75L111 324z" stroke="none" fill="#FFFFFF" fill-rule="nonzero" /><path id="40" transform="matrix(1 0 0 -1 0 612)" d="M111 307.5L681 307.5L681 280.5L111 280.5L111 307.5z" stroke="none" fill="#E7F9EF" fill-rule="nonzero" /><path id="41" transform="matrix(1 0 0 -1 0 612)" d="M111 281.25L681 281.25L681 264L111 264L111 281.25z" stroke="none" fill="#FFFFFF" fill-rule="nonzero" /><path id="42" transform="matrix(1 0 0 -1 0 612)" d="M111 264.75L681 264.75L681 221.25L111 221.25L111 264.75z" stroke="none" fill="#E7F9EF" fill-rule="nonzero" /><path id="43" transform="matrix(1 0 0 -1 0 612)" d="M111 222L681 222L681 204.75L111 204.75L111 222z" stroke="none" fill="#FFFFFF" fill-rule="nonzero" /><path id="44" transform="matrix(1 0 0 -1 0 612)" d="M111 205.5L681 205.5L681 188.25L111 188.25L111 205.5z" stroke="none" fill="#E7F9EF" fill-rule="nonzero" /><path id="45" transform="matrix(1 0 0 -1 0 612)" d="M111 189L681 189L681 158.25L111 158.25L111 189z" stroke="none" fill="#FFFFFF" fill-rule="nonzero" /><path id="46" transform="matrix(1 0 0 -1 0 612)" d="M111 159L681 159L681 141.75L111 141.75L111 159z" stroke="none" fill="#E7F9EF" fill-rule="nonzero" /><path id="47" transform="matrix(1 0 0 -1 0 612)" d="M111 142.5L681 142.5L681 125.25L111 125.25L111 142.5z" stroke="none" fill="#FFFFFF" fill-rule="nonzero" /><path id="48" transform="matrix(1 0 0 -1 0 612)" d="M111 126L681 126L681 95.25L111 95.25L111 126z" stroke="none" fill="#E7F9EF" fill-rule="nonzero" /><path id="49" transform="matrix(1 0 0 -1 0 612)" d="M111 96L681 96L681 65.25L111 65.25L111 96z" stroke="none" fill="#FFFFFF" fill-rule="nonzero" /><path id="50" transform="matrix(1 0 0 -1 0 612)" d="M111 66L681 66L681 65.25L111 65.25zM111 96L681 96L681 95.25L111 95.25zM111 126L681 126L681 125.25L111 125.25zM111 142.5L681 142.5L681 141.75L111 141.75zM111 159L681 159L681 158.25L111 158.25zM111 189L681 189L681 188.25L111 188.25zM111 205.5L681 205.5L681 204.75L111 204.75zM111 222L681 222L681 221.25L111 221.25zM111 264.75L681 264.75L681 264L111 264zM111 281.25L681 281.25L681 280.5L111 280.5zM111 307.5L681 307.5L681 306.75L111 306.75zM111 324L681 324L681 323.25L111 323.25zM111 340.5L681 340.5L681 339.75L111 339.75zM111 357L681 357L681 356.25L111 356.25zM111 373.5L681 373.5L681 372.75L111 372.75zM111 390L681 390L681 389.25L111 389.25zM111 406.5L681 406.5L681 405.75L111 405.75zM111 432.75L681 432.75L681 432L111 432zM111 462.75L681 462.75L681 462L111 462zM111 479.25L681 479.25L681 478.5L111 478.5zM111 495.75L681 495.75L681 495L111 495zM111 525.75L681 525.75L681 525L111 525zM111 542.25L681 542.25L681 541.5L111 541.5zM681 95.25L681 66L680.25 66L680.25 95.25zM681 125.25L681 96L680.25 96L680.25 125.25zM681 141.75L681 126L680.25 126L680.25 141.75zM681 158.25L681 142.5L680.25 142.5L680.25 158.25zM681 188.25L681 159L680.25 159L680.25 188.25zM681 204.75L681 189L680.25 189L680.25 204.75zM681 221.25L681 205.5L680.25 205.5L680.25 221.25zM681 264L681 222L680.25 222L680.25 264zM681 280.5L681 264.75L680.25 264.75L680.25 280.5zM681 306.75L681 281.25L680.25 281.25L680.25 306.75zM681 323.25L681 307.5L680.25 307.5L680.25 323.25zM681 339.75L681 324L680.25 324L680.25 339.75zM681 356.25L681 340.5L680.25 340.5L680.25 356.25zM681 372.75L681 357L680.25 357L680.25 372.75zM681 389.25L681 373.5L680.25 373.5L680.25 389.25zM681 405.75L681 390L680.25 390L680.25 405.75zM681 432L681 406.5L680.25 406.5L680.25 432zM681 462L681 432.75L680.25 432.75L680.25 462zM681 478.5L681 462.75L680.25 462.75L680.25 478.5zM681 495L681 479.25L680.25 479.25L680.25 495zM681 525L681 495.75L680.25 495.75L680.25 525zM681 541.5L681 525.75L680.25 525.75L680.25 541.5zM605.25 95.25L605.25 66L604.5 66L604.5 95.25zM605.25 125.25L605.25 96L604.5 96L604.5 125.25zM605.25 141.75L605.25 126L604.5 126L604.5 141.75zM605.25 158.25L605.25 142.5L604.5 142.5L604.5 158.25zM605.25 188.25L605.25 159L604.5 159L604.5 188.25zM605.25 204.75L605.25 189L604.5 189L604.5 204.75zM605.25 221.25L605.25 205.5L604.5 205.5L604.5 221.25zM605.25 264L605.25 222L604.5 222L604.5 264zM605.25 280.5L605.25 264.75L604.5 264.75L604.5 280.5zM605.25 306.75L605.25 281.25L604.5 281.25L604.5 306.75zM605.25 323.25L605.25 307.5L604.5 307.5L604.5 323.25zM605.25 339.75L605.25 324L604.5 324L604.5 339.75zM605.25 356.25L605.25 340.5L604.5 340.5L604.5 356.25zM605.25 372.75L605.25 357L604.5 357L604.5 372.75zM605.25 389.25L605.25 373.5L604.5 373.5L604.5 389.25zM605.25 405.75L605.25 390L604.5 390L604.5 405.75zM605.25 432L605.25 406.5L604.5 406.5L604.5 432zM605.25 462L605.25 432.75L604.5 432.75L604.5 462zM605.25 478.5L605.25 462.75L604.5 462.75L604.5 478.5zM605.25 495L605.25 479.25L604.5 479.25L604.5 495zM605.25 525L605.25 495.75L604.5 495.75L604.5 525zM605.25 541.5L605.25 525.75L604.5 525.75L604.5 541.5zM187.5 95.25L187.5 66L186.75 66L186.75 95.25zM187.5 125.25L187.5 96L186.75 96L186.75 125.25zM187.5 141.75L187.5 126L186.75 126L186.75 141.75zM187.5 158.25L187.5 142.5L186.75 142.5L186.75 158.25zM187.5 188.25L187.5 159L186.75 159L186.75 188.25zM187.5 204.75L187.5 189L186.75 189L186.75 204.75zM187.5 221.25L187.5 205.5L186.75 205.5L186.75 221.25zM187.5 264L187.5 222L186.75 222L186.75 264zM187.5 280.5L187.5 264.75L186.75 264.75L186.75 280.5zM187.5 306.75L187.5 281.25L186.75 281.25L186.75 306.75zM187.5 323.25L187.5 307.5L186.75 307.5L186.75 323.25zM187.5 339.75L187.5 324L186.75 324L186.75 339.75zM187.5 356.25L187.5 340.5L186.75 340.5L186.75 356.25zM187.5 372.75L187.5 357L186.75 357L186.75 372.75zM187.5 389.25L187.5 373.5L186.75 373.5L186.75 389.25zM187.5 405.75L187.5 390L186.75 390L186.75 405.75zM187.5 432L187.5 406.5L186.75 406.5L186.75 432zM187.5 462L187.5 432.75L186.75 432.75L186.75 462zM187.5 478.5L187.5 462.75L186.75 462.75L186.75 478.5zM187.5 495L187.5 479.25L186.75 479.25L186.75 495zM187.5 525L187.5 495.75L186.75 495.75L186.75 525zM187.5 541.5L187.5 525.75L186.75 525.75L186.75 541.5zM111.75 95.25L111.75 66L111 66L111 95.25zM111.75 125.25L111.75 96L111 96L111 125.25zM111.75 141.75L111.75 126L111 126L111 141.75zM111.75 158.25L111.75 142.5L111 142.5L111 158.25zM111.75 188.25L111.75 159L111 159L111 188.25zM111.75 204.75L111.75 189L111 189L111 204.75zM111.75 221.25L111.75 205.5L111 205.5L111 221.25zM111.75 264L111.75 222L111 222L111 264zM111.75 280.5L111.75 264.75L111 264.75L111 280.5zM111.75 306.75L111.75 281.25L111 281.25L111 306.75zM111.75 323.25L111.75 307.5L111 307.5L111 323.25zM111.75 339.75L111.75 324L111 324L111 339.75zM111.75 356.25L111.75 340.5L111 340.5L111 356.25zM111.75 372.75L111.75 357L111 357L111 372.75zM111.75 389.25L111.75 373.5L111 373.5L111 389.25zM111.75 405.75L111.75 390L111 390L111 405.75zM111.75 432L111.75 406.5L111 406.5L111 432zM111.75 462L111.75 432.75L111 432.75L111 462zM111.75 478.5L111.75 462.75L111 462.75L111 478.5zM111.75 495L111.75 479.25L111 479.25L111 495zM111.75 525L111.75 495.75L111 495.75L111 525zM111.75 541.5L111.75 525.75L111 525.75L111 541.5z" stroke="none" fill="#000000" fill-rule="nonzero" fill-opacity="0.1490196" /><path id="84" transform="matrix(1 0 0 -1 0 612)" d="M189.75 528.2827L326.3357 528.2827" stroke="#1155CC" stroke-width="0.7141113" fill="none" /><path id="142" transform="matrix(1 0 0 -1 0 612)" d="M189.75 498.2827L387.5446 498.2827" stroke="#1155CC" stroke-width="0.7141113" fill="none" /><path id="176" transform="matrix(1 0 0 -1 0 612)" d="M189.75 481.7827L304.641 481.7827" stroke="#1155CC" stroke-width="0.7141113" fill="none" /><path id="248" transform="matrix(1 0 0 -1 0 612)" d="M189.75 465.2827L484.9255 465.2827" stroke="#1155CC" stroke-width="0.7141113" fill="none" /><path id="328" transform="matrix(1 0 0 -1 0 612)" d="M189.75 435.2827L465.5874 435.2827" stroke="#1155CC" stroke-width="0.7141113" fill="none" /><path id="414" transform="matrix(1 0 0 -1 0 612)" d="M189.75 420.2446L565.701 420.2446" stroke="#1155CC" stroke-width="0.7141113" fill="none" /><path id="479" transform="matrix(1 0 0 -1 0 612)" d="M189.75 409.0327L511.1096 409.0327" stroke="#1155CC" stroke-width="0.7141113" fill="none" /><path id="526" transform="matrix(1 0 0 -1 0 612)" d="M189.75 392.5332L385.4022 392.5332" stroke="#1155CC" stroke-width="0.7141113" fill="none" /><path id="593" transform="matrix(1 0 0 -1 0 612)" d="M189.75 376.0332L459.6412 376.0332" stroke="#1155CC" stroke-width="0.7141113" fill="none" /><path id="673" transform="matrix(1 0 0 -1 0 612)" d="M189.75 359.5332L525.0443 359.5332" stroke="#1155CC" stroke-width="0.7141113" fill="none" /><path id="733" transform="matrix(1 0 0 -1 0 612)" d="M189.75 343.0332L411.9291 343.0332" stroke="#1155CC" stroke-width="0.7141113" fill="none" /><path id="793" transform="matrix(1 0 0 -1 0 612)" d="M189.75 326.5332L450.9767 326.5332" stroke="#1155CC" stroke-width="0.7141113" fill="none" /><path id="882" transform="matrix(1 0 0 -1 0 612)" d="M189.75 310.0332L593.718 310.0332" stroke="#1155CC" stroke-width="0.7141113" fill="none" /><path id="967" transform="matrix(1 0 0 -1 0 612)" d="M189.75 294.9941L560.9689 294.9941" stroke="#1155CC" stroke-width="0.7141113" fill="none" /><path id="989" transform="matrix(1 0 0 -1 0 612)" d="M189.75 283.7832L282.9558 283.7832" stroke="#1155CC" stroke-width="0.7141113" fill="none" /><path id="1021" transform="matrix(1 0 0 -1 0 612)" d="M189.75 267.2832L295.429 267.2832" stroke="#1155CC" stroke-width="0.7141113" fill="none" /><path id="1065" transform="matrix(1 0 0 -1 0 612)" d="M189.75 224.5332L209.2595 224.5332" stroke="#1155CC" stroke-width="0.7141113" fill="none" /><path id="1067" transform="matrix(1 0 0 -1 0 612)" d="M209.2595 224.9189L214.1345 224.9189" stroke="#1155CC" stroke-width="0.7236328" fill="none" /><path id="1094" transform="matrix(1 0 0 -1 0 612)" d="M214.1345 224.5332L356.6759 224.5332" stroke="#1155CC" stroke-width="0.7141113" fill="none" /><path id="1171" transform="matrix(1 0 0 -1 0 612)" d="M189.75 208.0332L562.7351 208.0332" stroke="#1155CC" stroke-width="0.7141113" fill="none" /><path id="1235" transform="matrix(1 0 0 -1 0 612)" d="M189.75 191.5332L437.3752 191.5332" stroke="#1155CC" stroke-width="0.7141113" fill="none" /><path id="1268" transform="matrix(1 0 0 -1 0 612)" d="M189.75 161.5332L253.1393 161.5332" stroke="#1155CC" stroke-width="0.7141113" fill="none" /><path id="1363" transform="matrix(1 0 0 -1 0 612)" d="M189.75 145.0332L592.4517 145.0332" stroke="#1155CC" stroke-width="0.7141113" fill="none" /><path id="1393" transform="matrix(1 0 0 -1 0 612)" d="M189.75 128.5332L274.8387 128.5332" stroke="#1155CC" stroke-width="0.7141113" fill="none" /><path id="1424" transform="matrix(1 0 0 -1 0 612)" d="M189.75 98.5332L242.6656 98.5332" stroke="#1155CC" stroke-width="0.7141113" fill="none" /><path id="1492" transform="matrix(1 0 0 -1 0 612)" d="M189.75 68.5332L437.4181 68.5332" stroke="#1155CC" stroke-width="0.7141113" fill="none" /></g></g></g></svg>