<svg xmlns="http://www.w3.org/2000/svg" xmlns:xlink="http://www.w3.org/1999/xlink" id="body_3" preserveAspectRatio="xMinYMin meet" viewBox="0 0 1056 816"><defs><clipPath id="1"><path id="" clip-rule="evenodd" transform="matrix(1 0 0 1 0 0)" d="M0 612L0 0L0 0L792 0L792 0L792 612L792 612L0 612z" /></clipPath><clipPath id="2"><path id="" clip-rule="evenodd" transform="matrix(1 0 0 1 0 0)" d="M110.25 52.5L681.75 52.5L681.75 52.5L681.75 69.75L681.75 69.75L110.25 69.75L110.25 69.75L110.25 52.5z" /></clipPath><clipPath id="3"><path id="" clip-rule="evenodd" transform="matrix(1 0 0 1 0 0)" d="M110.25 69L681.75 69L681.75 69L681.75 543.75L681.75 543.75L110.25 543.75L110.25 543.75L110.25 69z" /></clipPath></defs><g transform="matrix(1.333333 0 0 1.333333 0 0)"><g clip-path="url(#1)"><g clip-path="url(#2)"><path id="9" transform="matrix(1 0 0 -1 0 612)" d="M111 558.75L681 558.75L681 541.5L111 541.5L111 558.75z" stroke="none" fill="#63D297" fill-rule="nonzero" /><path id="10" transform="matrix(1 0 0 -1 0 612)" d="M111 542.25L681 542.25L681 541.5L111 541.5zM111 558.75L681 558.75L681 558L111 558zM681 558L681 542.25L680.25 542.25L680.25 558zM605.25 558L605.25 542.25L604.5 542.25L604.5 558zM187.5 558L187.5 542.25L186.75 542.25L186.75 558zM111.75 558L111.75 542.25L111 542.25L111 558z" stroke="none" fill="#000000" fill-rule="nonzero" fill-opacity="0.1490196" /></g><g clip-path="url(#3)"><path id="27" transform="matrix(1 0 0 -1 0 612)" d="M111 542.25L681 542.25L681 515.25L111 515.25L111 542.25z" stroke="none" fill="#FFFFFF" fill-rule="nonzero" /><path id="28" transform="matrix(1 0 0 -1 0 612)" d="M111 516L681 516L681 498.75L111 498.75L111 516z" stroke="none" fill="#E7F9EF" fill-rule="nonzero" /><path id="29" transform="matrix(1 0 0 -1 0 612)" d="M111 499.5L681 499.5L681 482.25L111 482.25L111 499.5z" stroke="none" fill="#FFFFFF" fill-rule="nonzero" /><path id="30" transform="matrix(1 0 0 -1 0 612)" d="M111 483L681 483L681 465.75L111 465.75L111 483z" stroke="none" fill="#E7F9EF" fill-rule="nonzero" /><path id="31" transform="matrix(1 0 0 -1 0 612)" d="M111 466.5L681 466.5L681 435.75L111 435.75L111 466.5z" stroke="none" fill="#FFFFFF" fill-rule="nonzero" /><path id="32" transform="matrix(1 0 0 -1 0 612)" d="M111 436.5L681 436.5L681 405.75L111 405.75L111 436.5z" stroke="none" fill="#E7F9EF" fill-rule="nonzero" /><path id="33" transform="matrix(1 0 0 -1 0 612)" d="M111 406.5L681 406.5L681 389.25L111 389.25L111 406.5z" stroke="none" fill="#FFFFFF" fill-rule="nonzero" /><path id="34" transform="matrix(1 0 0 -1 0 612)" d="M111 390L681 390L681 372.75L111 372.75L111 390z" stroke="none" fill="#E7F9EF" fill-rule="nonzero" /><path id="35" transform="matrix(1 0 0 -1 0 612)" d="M111 373.5L681 373.5L681 356.25L111 356.25L111 373.5z" stroke="none" fill="#FFFFFF" fill-rule="nonzero" /><path id="36" transform="matrix(1 0 0 -1 0 612)" d="M111 357L681 357L681 339.75L111 339.75L111 357z" stroke="none" fill="#E7F9EF" fill-rule="nonzero" /><path id="37" transform="matrix(1 0 0 -1 0 612)" d="M111 340.5L681 340.5L681 323.25L111 323.25L111 340.5z" stroke="none" fill="#FFFFFF" fill-rule="nonzero" /><path id="38" transform="matrix(1 0 0 -1 0 612)" d="M111 324L681 324L681 297L111 297L111 324z" stroke="none" fill="#E7F9EF" fill-rule="nonzero" /><path id="39" transform="matrix(1 0 0 -1 0 612)" d="M111 297.75L681 297.75L681 267L111 267L111 297.75z" stroke="none" fill="#FFFFFF" fill-rule="nonzero" /><path id="40" transform="matrix(1 0 0 -1 0 612)" d="M111 267.75L681 267.75L681 240.75L111 240.75L111 267.75z" stroke="none" fill="#E7F9EF" fill-rule="nonzero" /><path id="41" transform="matrix(1 0 0 -1 0 612)" d="M111 241.5L681 241.5L681 224.25L111 224.25L111 241.5z" stroke="none" fill="#FFFFFF" fill-rule="nonzero" /><path id="42" transform="matrix(1 0 0 -1 0 612)" d="M111 225L681 225L681 207.75L111 207.75L111 225z" stroke="none" fill="#E7F9EF" fill-rule="nonzero" /><path id="43" transform="matrix(1 0 0 -1 0 612)" d="M111 208.5L681 208.5L681 191.25L111 191.25L111 208.5z" stroke="none" fill="#FFFFFF" fill-rule="nonzero" /><path id="44" transform="matrix(1 0 0 -1 0 612)" d="M111 192L681 192L681 174.75L111 174.75L111 192z" stroke="none" fill="#E7F9EF" fill-rule="nonzero" /><path id="45" transform="matrix(1 0 0 -1 0 612)" d="M111 175.5L681 175.5L681 144.75L111 144.75L111 175.5z" stroke="none" fill="#FFFFFF" fill-rule="nonzero" /><path id="46" transform="matrix(1 0 0 -1 0 612)" d="M111 145.5L681 145.5L681 118.5L111 118.5L111 145.5z" stroke="none" fill="#E7F9EF" fill-rule="nonzero" /><path id="47" transform="matrix(1 0 0 -1 0 612)" d="M111 119.25L681 119.25L681 102L111 102L111 119.25z" stroke="none" fill="#FFFFFF" fill-rule="nonzero" /><path id="48" transform="matrix(1 0 0 -1 0 612)" d="M111 102.75L681 102.75L681 85.5L111 85.5L111 102.75z" stroke="none" fill="#E7F9EF" fill-rule="nonzero" /><path id="49" transform="matrix(1 0 0 -1 0 612)" d="M111 86.25L681 86.25L681 69L111 69L111 86.25z" stroke="none" fill="#FFFFFF" fill-rule="nonzero" /><path id="50" transform="matrix(1 0 0 -1 0 612)" d="M111 69.75L681 69.75L681 69L111 69zM111 86.25L681 86.25L681 85.5L111 85.5zM111 102.75L681 102.75L681 102L111 102zM111 119.25L681 119.25L681 118.5L111 118.5zM111 145.5L681 145.5L681 144.75L111 144.75zM111 175.5L681 175.5L681 174.75L111 174.75zM111 192L681 192L681 191.25L111 191.25zM111 208.5L681 208.5L681 207.75L111 207.75zM111 225L681 225L681 224.25L111 224.25zM111 241.5L681 241.5L681 240.75L111 240.75zM111 267.75L681 267.75L681 267L111 267zM111 297.75L681 297.75L681 297L111 297zM111 324L681 324L681 323.25L111 323.25zM111 340.5L681 340.5L681 339.75L111 339.75zM111 357L681 357L681 356.25L111 356.25zM111 373.5L681 373.5L681 372.75L111 372.75zM111 390L681 390L681 389.25L111 389.25zM111 406.5L681 406.5L681 405.75L111 405.75zM111 436.5L681 436.5L681 435.75L111 435.75zM111 466.5L681 466.5L681 465.75L111 465.75zM111 483L681 483L681 482.25L111 482.25zM111 499.5L681 499.5L681 498.75L111 498.75zM111 516L681 516L681 515.25L111 515.25zM111 542.25L681 542.25L681 541.5L111 541.5zM681 85.5L681 69.75L680.25 69.75L680.25 85.5zM681 102L681 86.25L680.25 86.25L680.25 102zM681 118.5L681 102.75L680.25 102.75L680.25 118.5zM681 144.75L681 119.25L680.25 119.25L680.25 144.75zM681 174.75L681 145.5L680.25 145.5L680.25 174.75zM681 191.25L681 175.5L680.25 175.5L680.25 191.25zM681 207.75L681 192L680.25 192L680.25 207.75zM681 224.25L681 208.5L680.25 208.5L680.25 224.25zM681 240.75L681 225L680.25 225L680.25 240.75zM681 267L681 241.5L680.25 241.5L680.25 267zM681 297L681 267.75L680.25 267.75L680.25 297zM681 323.25L681 297.75L680.25 297.75L680.25 323.25zM681 339.75L681 324L680.25 324L680.25 339.75zM681 356.25L681 340.5L680.25 340.5L680.25 356.25zM681 372.75L681 357L680.25 357L680.25 372.75zM681 389.25L681 373.5L680.25 373.5L680.25 389.25zM681 405.75L681 390L680.25 390L680.25 405.75zM681 435.75L681 406.5L680.25 406.5L680.25 435.75zM681 465.75L681 436.5L680.25 436.5L680.25 465.75zM681 482.25L681 466.5L680.25 466.5L680.25 482.25zM681 498.75L681 483L680.25 483L680.25 498.75zM681 515.25L681 499.5L680.25 499.5L680.25 515.25zM681 541.5L681 516L680.25 516L680.25 541.5zM605.25 85.5L605.25 69.75L604.5 69.75L604.5 85.5zM605.25 102L605.25 86.25L604.5 86.25L604.5 102zM605.25 118.5L605.25 102.75L604.5 102.75L604.5 118.5zM605.25 144.75L605.25 119.25L604.5 119.25L604.5 144.75zM605.25 174.75L605.25 145.5L604.5 145.5L604.5 174.75zM605.25 191.25L605.25 175.5L604.5 175.5L604.5 191.25zM605.25 207.75L605.25 192L604.5 192L604.5 207.75zM605.25 224.25L605.25 208.5L604.5 208.5L604.5 224.25zM605.25 240.75L605.25 225L604.5 225L604.5 240.75zM605.25 267L605.25 241.5L604.5 241.5L604.5 267zM605.25 297L605.25 267.75L604.5 267.75L604.5 297zM605.25 323.25L605.25 297.75L604.5 297.75L604.5 323.25zM605.25 339.75L605.25 324L604.5 324L604.5 339.75zM605.25 356.25L605.25 340.5L604.5 340.5L604.5 356.25zM605.25 372.75L605.25 357L604.5 357L604.5 372.75zM605.25 389.25L605.25 373.5L604.5 373.5L604.5 389.25zM605.25 405.75L605.25 390L604.5 390L604.5 405.75zM605.25 435.75L605.25 406.5L604.5 406.5L604.5 435.75zM605.25 465.75L605.25 436.5L604.5 436.5L604.5 465.75zM605.25 482.25L605.25 466.5L604.5 466.5L604.5 482.25zM605.25 498.75L605.25 483L604.5 483L604.5 498.75zM605.25 515.25L605.25 499.5L604.5 499.5L604.5 515.25zM605.25 541.5L605.25 516L604.5 516L604.5 541.5zM187.5 85.5L187.5 69.75L186.75 69.75L186.75 85.5zM187.5 102L187.5 86.25L186.75 86.25L186.75 102zM187.5 118.5L187.5 102.75L186.75 102.75L186.75 118.5zM187.5 144.75L187.5 119.25L186.75 119.25L186.75 144.75zM187.5 174.75L187.5 145.5L186.75 145.5L186.75 174.75zM187.5 191.25L187.5 175.5L186.75 175.5L186.75 191.25zM187.5 207.75L187.5 192L186.75 192L186.75 207.75zM187.5 224.25L187.5 208.5L186.75 208.5L186.75 224.25zM187.5 240.75L187.5 225L186.75 225L186.75 240.75zM187.5 267L187.5 241.5L186.75 241.5L186.75 267zM187.5 297L187.5 267.75L186.75 267.75L186.75 297zM187.5 323.25L187.5 297.75L186.75 297.75L186.75 323.25zM187.5 339.75L187.5 324L186.75 324L186.75 339.75zM187.5 356.25L187.5 340.5L186.75 340.5L186.75 356.25zM187.5 372.75L187.5 357L186.75 357L186.75 372.75zM187.5 389.25L187.5 373.5L186.75 373.5L186.75 389.25zM187.5 405.75L187.5 390L186.75 390L186.75 405.75zM187.5 435.75L187.5 406.5L186.75 406.5L186.75 435.75zM187.5 465.75L187.5 436.5L186.75 436.5L186.75 465.75zM187.5 482.25L187.5 466.5L186.75 466.5L186.75 482.25zM187.5 498.75L187.5 483L186.75 483L186.75 498.75zM187.5 515.25L187.5 499.5L186.75 499.5L186.75 515.25zM187.5 541.5L187.5 516L186.75 516L186.75 541.5zM111.75 85.5L111.75 69.75L111 69.75L111 85.5zM111.75 102L111.75 86.25L111 86.25L111 102zM111.75 118.5L111.75 102.75L111 102.75L111 118.5zM111.75 144.75L111.75 119.25L111 119.25L111 144.75zM111.75 174.75L111.75 145.5L111 145.5L111 174.75zM111.75 191.25L111.75 175.5L111 175.5L111 191.25zM111.75 207.75L111.75 192L111 192L111 207.75zM111.75 224.25L111.75 208.5L111 208.5L111 224.25zM111.75 240.75L111.75 225L111 225L111 240.75zM111.75 267L111.75 241.5L111 241.5L111 267zM111.75 297L111.75 267.75L111 267.75L111 297zM111.75 323.25L111.75 297.75L111 297.75L111 323.25zM111.75 339.75L111.75 324L111 324L111 339.75zM111.75 356.25L111.75 340.5L111 340.5L111 356.25zM111.75 372.75L111.75 357L111 357L111 372.75zM111.75 389.25L111.75 373.5L111 373.5L111 389.25zM111.75 405.75L111.75 390L111 390L111 405.75zM111.75 435.75L111.75 406.5L111 406.5L111 435.75zM111.75 465.75L111.75 436.5L111 436.5L111 465.75zM111.75 482.25L111.75 466.5L111 466.5L111 482.25zM111.75 498.75L111.75 483L111 483L111 498.75zM111.75 515.25L111.75 499.5L111 499.5L111 515.25zM111.75 541.5L111.75 516L111 516L111 541.5z" stroke="none" fill="#000000" fill-rule="nonzero" fill-opacity="0.1490196" /><path id="137" transform="matrix(1 0 0 -1 0 612)" d="M189.75 529.7446L596.9077 529.7446" stroke="#1155CC" stroke-width="0.7141113" fill="none" /><path id="145" transform="matrix(1 0 0 -1 0 612)" d="M189.75 518.5331L229.845 518.5331" stroke="#1155CC" stroke-width="0.7141113" fill="none" /><path id="190" transform="matrix(1 0 0 -1 0 612)" d="M189.75 502.0331L371.2819 502.0331" stroke="#1155CC" stroke-width="0.7141113" fill="none" /><path id="213" transform="matrix(1 0 0 -1 0 612)" d="M189.75 485.5331L269.2306 485.5331" stroke="#1155CC" stroke-width="0.7141113" fill="none" /><path id="283" transform="matrix(1 0 0 -1 0 612)" d="M189.75 469.0331L462.3549 469.0331" stroke="#1155CC" stroke-width="0.7141113" fill="none" /><path id="383" transform="matrix(1 0 0 -1 0 612)" d="M189.75 439.0331L583.5776 439.0331" stroke="#1155CC" stroke-width="0.7141113" fill="none" /><path id="487" transform="matrix(1 0 0 -1 0 612)" d="M189.75 409.0331L599.1643 409.0331" stroke="#1155CC" stroke-width="0.7141113" fill="none" /><path id="536" transform="matrix(1 0 0 -1 0 612)" d="M189.75 392.5331L377.2614 392.5331" stroke="#1155CC" stroke-width="0.7141113" fill="none" /><path id="538" transform="matrix(1 0 0 -1 0 612)" d="M377.2614 392.9187L382.1364 392.9187" stroke="#1155CC" stroke-width="0.7236328" fill="none" /><path id="553" transform="matrix(1 0 0 -1 0 612)" d="M382.1364 392.5331L443.9117 392.5331" stroke="#1155CC" stroke-width="0.7141113" fill="none" /><path id="652" transform="matrix(1 0 0 -1 0 612)" d="M189.75 376.0331L585.3344 376.0331" stroke="#1155CC" stroke-width="0.7141113" fill="none" /><path id="717" transform="matrix(1 0 0 -1 0 612)" d="M189.75 359.5331L429.2487 359.5331" stroke="#1155CC" stroke-width="0.7141113" fill="none" /><path id="769" transform="matrix(1 0 0 -1 0 612)" d="M189.75 343.0331L376.1711 343.0331" stroke="#1155CC" stroke-width="0.7141113" fill="none" /><path id="860" transform="matrix(1 0 0 -1 0 612)" d="M189.75 326.5331L592.6945 326.5331" stroke="#1155CC" stroke-width="0.7141113" fill="none" /><path id="948" transform="matrix(1 0 0 -1 0 612)" d="M189.75 311.4946L575.6129 311.4946" stroke="#1155CC" stroke-width="0.7141113" fill="none" /><path id="957" transform="matrix(1 0 0 -1 0 612)" d="M189.75 300.2831L231.4731 300.2831" stroke="#1155CC" stroke-width="0.7141113" fill="none" /><path id="1032" transform="matrix(1 0 0 -1 0 612)" d="M189.75 270.2831L468.8628 270.2831" stroke="#1155CC" stroke-width="0.7141113" fill="none" /><path id="1125" transform="matrix(1 0 0 -1 0 612)" d="M189.75 255.2446L594.5511 255.2446" stroke="#1155CC" stroke-width="0.7141113" fill="none" /><path id="1132" transform="matrix(1 0 0 -1 0 612)" d="M189.75 244.0331L216.8481 244.0331" stroke="#1155CC" stroke-width="0.7141113" fill="none" /><path id="1207" transform="matrix(1 0 0 -1 0 612)" d="M189.75 227.5331L493.7615 227.5331" stroke="#1155CC" stroke-width="0.7141113" fill="none" /><path id="1301" transform="matrix(1 0 0 -1 0 612)" d="M189.75 211.0331L571.2854 211.0331" stroke="#1155CC" stroke-width="0.7141113" fill="none" /><path id="1391" transform="matrix(1 0 0 -1 0 612)" d="M189.75 194.5331L549.0242 194.5331" stroke="#1155CC" stroke-width="0.7141113" fill="none" /><path id="1458" transform="matrix(1 0 0 -1 0 612)" d="M189.75 178.0331L461.8217 178.0331" stroke="#1155CC" stroke-width="0.7141113" fill="none" /><path id="1522" transform="matrix(1 0 0 -1 0 612)" d="M189.75 148.0331L413.3859 148.0331" stroke="#1155CC" stroke-width="0.7141113" fill="none" /><path id="1610" transform="matrix(1 0 0 -1 0 612)" d="M189.75 132.9946L566.896 132.9946" stroke="#1155CC" stroke-width="0.7141113" fill="none" /><path id="1618" transform="matrix(1 0 0 -1 0 612)" d="M189.75 121.7831L229.3118 121.7831" stroke="#1155CC" stroke-width="0.7141113" fill="none" /><path id="1710" transform="matrix(1 0 0 -1 0 612)" d="M189.75 105.2831L592.6564 105.2831" stroke="#1155CC" stroke-width="0.7141113" fill="none" /><path id="1797" transform="matrix(1 0 0 -1 0 612)" d="M189.75 88.78308L522.4688 88.78308" stroke="#1155CC" stroke-width="0.7141113" fill="none" /><path id="1870" transform="matrix(1 0 0 -1 0 612)" d="M189.75 72.28308L483.3402 72.28308" stroke="#1155CC" stroke-width="0.7141113" fill="none" /></g></g></g></svg>