<svg xmlns="http://www.w3.org/2000/svg" xmlns:xlink="http://www.w3.org/1999/xlink" id="body_19" preserveAspectRatio="xMinYMin meet" viewBox="0 0 1056 816"><defs><clipPath id="1"><path id="" clip-rule="evenodd" transform="matrix(1 0 0 1 0 0)" d="M0 612L0 0L0 0L792 0L792 0L792 612L792 612L0 612z" /></clipPath><clipPath id="2"><path id="" clip-rule="evenodd" transform="matrix(1 0 0 1 0 0)" d="M110.25 52.5L681.75 52.5L681.75 52.5L681.75 69.75L681.75 69.75L110.25 69.75L110.25 69.75L110.25 52.5z" /></clipPath><clipPath id="3"><path id="" clip-rule="evenodd" transform="matrix(1 0 0 1 0 0)" d="M110.25 69L681.75 69L681.75 69L681.75 513.75L681.75 513.75L110.25 513.75L110.25 513.75L110.25 69z" /></clipPath></defs><g transform="matrix(1.333333 0 0 1.333333 0 0)"><g clip-path="url(#1)"><g clip-path="url(#2)"><path id="10" transform="matrix(1 0 0 -1 0 612)" d="M111 558.75L681 558.75L681 541.5L111 541.5L111 558.75z" stroke="none" fill="#63D297" fill-rule="nonzero" /><path id="11" transform="matrix(1 0 0 -1 0 612)" d="M111 542.25L681 542.25L681 541.5L111 541.5zM111 558.75L681 558.75L681 558L111 558zM681 558L681 542.25L680.25 542.25L680.25 558zM605.25 558L605.25 542.25L604.5 542.25L604.5 558zM187.5 558L187.5 542.25L186.75 542.25L186.75 558zM111.75 558L111.75 542.25L111 542.25L111 558z" stroke="none" fill="#000000" fill-rule="nonzero" fill-opacity="0.1490196" /></g><g clip-path="url(#3)"><path id="28" transform="matrix(1 0 0 -1 0 612)" d="M111 542.25L681 542.25L681 525L111 525L111 542.25z" stroke="none" fill="#E7F9EF" fill-rule="nonzero" /><path id="29" transform="matrix(1 0 0 -1 0 612)" d="M111 525.75L681 525.75L681 508.5L111 508.5L111 525.75z" stroke="none" fill="#FFFFFF" fill-rule="nonzero" /><path id="30" transform="matrix(1 0 0 -1 0 612)" d="M111 509.25L681 509.25L681 482.25L111 482.25L111 509.25z" stroke="none" fill="#E7F9EF" fill-rule="nonzero" /><path id="31" transform="matrix(1 0 0 -1 0 612)" d="M111 483L681 483L681 465.75L111 465.75L111 483z" stroke="none" fill="#FFFFFF" fill-rule="nonzero" /><path id="32" transform="matrix(1 0 0 -1 0 612)" d="M111 466.5L681 466.5L681 439.5L111 439.5L111 466.5z" stroke="none" fill="#E7F9EF" fill-rule="nonzero" /><path id="33" transform="matrix(1 0 0 -1 0 612)" d="M111 440.25L681 440.25L681 423L111 423L111 440.25z" stroke="none" fill="#FFFFFF" fill-rule="nonzero" /><path id="34" transform="matrix(1 0 0 -1 0 612)" d="M111 423.75L681 423.75L681 396.75L111 396.75L111 423.75z" stroke="none" fill="#E7F9EF" fill-rule="nonzero" /><path id="35" transform="matrix(1 0 0 -1 0 612)" d="M111 397.5L681 397.5L681 380.25L111 380.25L111 397.5z" stroke="none" fill="#FFFFFF" fill-rule="nonzero" /><path id="36" transform="matrix(1 0 0 -1 0 612)" d="M111 381L681 381L681 363.75L111 363.75L111 381z" stroke="none" fill="#E7F9EF" fill-rule="nonzero" /><path id="37" transform="matrix(1 0 0 -1 0 612)" d="M111 364.5L681 364.5L681 347.25L111 347.25L111 364.5z" stroke="none" fill="#FFFFFF" fill-rule="nonzero" /><path id="38" transform="matrix(1 0 0 -1 0 612)" d="M111 348L681 348L681 330.75L111 330.75L111 348z" stroke="none" fill="#E7F9EF" fill-rule="nonzero" /><path id="39" transform="matrix(1 0 0 -1 0 612)" d="M111 331.5L681 331.5L681 314.25L111 314.25L111 331.5z" stroke="none" fill="#FFFFFF" fill-rule="nonzero" /><path id="40" transform="matrix(1 0 0 -1 0 612)" d="M111 315L681 315L681 288L111 288L111 315z" stroke="none" fill="#E7F9EF" fill-rule="nonzero" /><path id="41" transform="matrix(1 0 0 -1 0 612)" d="M111 288.75L681 288.75L681 271.5L111 271.5L111 288.75z" stroke="none" fill="#FFFFFF" fill-rule="nonzero" /><path id="42" transform="matrix(1 0 0 -1 0 612)" d="M111 272.25L681 272.25L681 241.5L111 241.5L111 272.25z" stroke="none" fill="#E7F9EF" fill-rule="nonzero" /><path id="43" transform="matrix(1 0 0 -1 0 612)" d="M111 242.25L681 242.25L681 225L111 225L111 242.25z" stroke="none" fill="#FFFFFF" fill-rule="nonzero" /><path id="44" transform="matrix(1 0 0 -1 0 612)" d="M111 225.75L681 225.75L681 195L111 195L111 225.75z" stroke="none" fill="#E7F9EF" fill-rule="nonzero" /><path id="45" transform="matrix(1 0 0 -1 0 612)" d="M111 195.75L681 195.75L681 178.5L111 178.5L111 195.75z" stroke="none" fill="#FFFFFF" fill-rule="nonzero" /><path id="46" transform="matrix(1 0 0 -1 0 612)" d="M111 179.25L681 179.25L681 162L111 162L111 179.25z" stroke="none" fill="#E7F9EF" fill-rule="nonzero" /><path id="47" transform="matrix(1 0 0 -1 0 612)" d="M111 162.75L681 162.75L681 145.5L111 145.5L111 162.75z" stroke="none" fill="#FFFFFF" fill-rule="nonzero" /><path id="48" transform="matrix(1 0 0 -1 0 612)" d="M111 146.25L681 146.25L681 129L111 129L111 146.25z" stroke="none" fill="#E7F9EF" fill-rule="nonzero" /><path id="49" transform="matrix(1 0 0 -1 0 612)" d="M111 129.75L681 129.75L681 99L111 99L111 129.75z" stroke="none" fill="#FFFFFF" fill-rule="nonzero" /><path id="50" transform="matrix(1 0 0 -1 0 612)" d="M111 99.75L681 99.75L681 99L111 99zM111 129.75L681 129.75L681 129L111 129zM111 146.25L681 146.25L681 145.5L111 145.5zM111 162.75L681 162.75L681 162L111 162zM111 179.25L681 179.25L681 178.5L111 178.5zM111 195.75L681 195.75L681 195L111 195zM111 225.75L681 225.75L681 225L111 225zM111 242.25L681 242.25L681 241.5L111 241.5zM111 272.25L681 272.25L681 271.5L111 271.5zM111 288.75L681 288.75L681 288L111 288zM111 315L681 315L681 314.25L111 314.25zM111 331.5L681 331.5L681 330.75L111 330.75zM111 348L681 348L681 347.25L111 347.25zM111 364.5L681 364.5L681 363.75L111 363.75zM111 381L681 381L681 380.25L111 380.25zM111 397.5L681 397.5L681 396.75L111 396.75zM111 423.75L681 423.75L681 423L111 423zM111 440.25L681 440.25L681 439.5L111 439.5zM111 466.5L681 466.5L681 465.75L111 465.75zM111 483L681 483L681 482.25L111 482.25zM111 509.25L681 509.25L681 508.5L111 508.5zM111 525.75L681 525.75L681 525L111 525zM111 542.25L681 542.25L681 541.5L111 541.5zM681 129L681 99.75L680.25 99.75L680.25 129zM681 145.5L681 129.75L680.25 129.75L680.25 145.5zM681 162L681 146.25L680.25 146.25L680.25 162zM681 178.5L681 162.75L680.25 162.75L680.25 178.5zM681 195L681 179.25L680.25 179.25L680.25 195zM681 225L681 195.75L680.25 195.75L680.25 225zM681 241.5L681 225.75L680.25 225.75L680.25 241.5zM681 271.5L681 242.25L680.25 242.25L680.25 271.5zM681 288L681 272.25L680.25 272.25L680.25 288zM681 314.25L681 288.75L680.25 288.75L680.25 314.25zM681 330.75L681 315L680.25 315L680.25 330.75zM681 347.25L681 331.5L680.25 331.5L680.25 347.25zM681 363.75L681 348L680.25 348L680.25 363.75zM681 380.25L681 364.5L680.25 364.5L680.25 380.25zM681 396.75L681 381L680.25 381L680.25 396.75zM681 423L681 397.5L680.25 397.5L680.25 423zM681 439.5L681 423.75L680.25 423.75L680.25 439.5zM681 465.75L681 440.25L680.25 440.25L680.25 465.75zM681 482.25L681 466.5L680.25 466.5L680.25 482.25zM681 508.5L681 483L680.25 483L680.25 508.5zM681 525L681 509.25L680.25 509.25L680.25 525zM681 541.5L681 525.75L680.25 525.75L680.25 541.5zM605.25 129L605.25 99.75L604.5 99.75L604.5 129zM605.25 145.5L605.25 129.75L604.5 129.75L604.5 145.5zM605.25 162L605.25 146.25L604.5 146.25L604.5 162zM605.25 178.5L605.25 162.75L604.5 162.75L604.5 178.5zM605.25 195L605.25 179.25L604.5 179.25L604.5 195zM605.25 225L605.25 195.75L604.5 195.75L604.5 225zM605.25 241.5L605.25 225.75L604.5 225.75L604.5 241.5zM605.25 271.5L605.25 242.25L604.5 242.25L604.5 271.5zM605.25 288L605.25 272.25L604.5 272.25L604.5 288zM605.25 314.25L605.25 288.75L604.5 288.75L604.5 314.25zM605.25 330.75L605.25 315L604.5 315L604.5 330.75zM605.25 347.25L605.25 331.5L604.5 331.5L604.5 347.25zM605.25 363.75L605.25 348L604.5 348L604.5 363.75zM605.25 380.25L605.25 364.5L604.5 364.5L604.5 380.25zM605.25 396.75L605.25 381L604.5 381L604.5 396.75zM605.25 423L605.25 397.5L604.5 397.5L604.5 423zM605.25 439.5L605.25 423.75L604.5 423.75L604.5 439.5zM605.25 465.75L605.25 440.25L604.5 440.25L604.5 465.75zM605.25 482.25L605.25 466.5L604.5 466.5L604.5 482.25zM605.25 508.5L605.25 483L604.5 483L604.5 508.5zM605.25 525L605.25 509.25L604.5 509.25L604.5 525zM605.25 541.5L605.25 525.75L604.5 525.75L604.5 541.5zM187.5 129L187.5 99.75L186.75 99.75L186.75 129zM187.5 145.5L187.5 129.75L186.75 129.75L186.75 145.5zM187.5 162L187.5 146.25L186.75 146.25L186.75 162zM187.5 178.5L187.5 162.75L186.75 162.75L186.75 178.5zM187.5 195L187.5 179.25L186.75 179.25L186.75 195zM187.5 225L187.5 195.75L186.75 195.75L186.75 225zM187.5 241.5L187.5 225.75L186.75 225.75L186.75 241.5zM187.5 271.5L187.5 242.25L186.75 242.25L186.75 271.5zM187.5 288L187.5 272.25L186.75 272.25L186.75 288zM187.5 314.25L187.5 288.75L186.75 288.75L186.75 314.25zM187.5 330.75L187.5 315L186.75 315L186.75 330.75zM187.5 347.25L187.5 331.5L186.75 331.5L186.75 347.25zM187.5 363.75L187.5 348L186.75 348L186.75 363.75zM187.5 380.25L187.5 364.5L186.75 364.5L186.75 380.25zM187.5 396.75L187.5 381L186.75 381L186.75 396.75zM187.5 423L187.5 397.5L186.75 397.5L186.75 423zM187.5 439.5L187.5 423.75L186.75 423.75L186.75 439.5zM187.5 465.75L187.5 440.25L186.75 440.25L186.75 465.75zM187.5 482.25L187.5 466.5L186.75 466.5L186.75 482.25zM187.5 508.5L187.5 483L186.75 483L186.75 508.5zM187.5 525L187.5 509.25L186.75 509.25L186.75 525zM187.5 541.5L187.5 525.75L186.75 525.75L186.75 541.5zM111.75 129L111.75 99.75L111 99.75L111 129zM111.75 145.5L111.75 129.75L111 129.75L111 145.5zM111.75 162L111.75 146.25L111 146.25L111 162zM111.75 178.5L111.75 162.75L111 162.75L111 178.5zM111.75 195L111.75 179.25L111 179.25L111 195zM111.75 225L111.75 195.75L111 195.75L111 225zM111.75 241.5L111.75 225.75L111 225.75L111 241.5zM111.75 271.5L111.75 242.25L111 242.25L111 271.5zM111.75 288L111.75 272.25L111 272.25L111 288zM111.75 314.25L111.75 288.75L111 288.75L111 314.25zM111.75 330.75L111.75 315L111 315L111 330.75zM111.75 347.25L111.75 331.5L111 331.5L111 347.25zM111.75 363.75L111.75 348L111 348L111 363.75zM111.75 380.25L111.75 364.5L111 364.5L111 380.25zM111.75 396.75L111.75 381L111 381L111 396.75zM111.75 423L111.75 397.5L111 397.5L111 423zM111.75 439.5L111.75 423.75L111 423.75L111 439.5zM111.75 465.75L111.75 440.25L111 440.25L111 465.75zM111.75 482.25L111.75 466.5L111 466.5L111 482.25zM111.75 508.5L111.75 483L111 483L111 508.5zM111.75 525L111.75 509.25L111 509.25L111 525zM111.75 541.5L111.75 525.75L111 525.75L111 541.5z" stroke="none" fill="#000000" fill-rule="nonzero" fill-opacity="0.1490196" /><path id="116" transform="matrix(1 0 0 -1 0 612)" d="M189.75 528.2832L438.494 528.2832" stroke="#1155CC" stroke-width="0.7141113" fill="none" /><path id="197" transform="matrix(1 0 0 -1 0 612)" d="M189.75 511.7832L567.4816 511.7832" stroke="#1155CC" stroke-width="0.7141113" fill="none" /><path id="288" transform="matrix(1 0 0 -1 0 612)" d="M189.75 496.7441L567.5149 496.7441" stroke="#1155CC" stroke-width="0.7141113" fill="none" /><path id="302" transform="matrix(1 0 0 -1 0 612)" d="M189.75 485.5332L243.9558 485.5332" stroke="#1155CC" stroke-width="0.7141113" fill="none" /><path id="387" transform="matrix(1 0 0 -1 0 612)" d="M189.75 469.0332L553.9277 469.0332" stroke="#1155CC" stroke-width="0.7141113" fill="none" /><path id="477" transform="matrix(1 0 0 -1 0 612)" d="M189.75 453.9941L600.6973 453.9941" stroke="#1155CC" stroke-width="0.7141113" fill="none" /><path id="485" transform="matrix(1 0 0 -1 0 612)" d="M189.75 442.7832L229.845 442.7832" stroke="#1155CC" stroke-width="0.7141113" fill="none" /><path id="545" transform="matrix(1 0 0 -1 0 612)" d="M189.75 426.2832L424.2832 426.2832" stroke="#1155CC" stroke-width="0.7141113" fill="none" /><path id="637" transform="matrix(1 0 0 -1 0 612)" d="M189.75 411.2441L585.2629 411.2441" stroke="#1155CC" stroke-width="0.7141113" fill="none" /><path id="646" transform="matrix(1 0 0 -1 0 612)" d="M189.75 400.0332L223.3561 400.0332" stroke="#1155CC" stroke-width="0.7141113" fill="none" /><path id="686" transform="matrix(1 0 0 -1 0 612)" d="M189.75 383.5332L328.7351 383.5332" stroke="#1155CC" stroke-width="0.7141113" fill="none" /><path id="727" transform="matrix(1 0 0 -1 0 612)" d="M189.75 367.0332L314.9385 367.0332" stroke="#1155CC" stroke-width="0.7141113" fill="none" /><path id="779" transform="matrix(1 0 0 -1 0 612)" d="M189.75 350.5332L410.8484 350.5332" stroke="#1155CC" stroke-width="0.7141113" fill="none" /><path id="820" transform="matrix(1 0 0 -1 0 612)" d="M189.75 334.0332L309.4827 334.0332" stroke="#1155CC" stroke-width="0.7141113" fill="none" /><path id="889" transform="matrix(1 0 0 -1 0 612)" d="M189.75 317.5332L468.6533 317.5332" stroke="#1155CC" stroke-width="0.7141113" fill="none" /><path id="975" transform="matrix(1 0 0 -1 0 612)" d="M189.75 302.4941L555.3464 302.4941" stroke="#1155CC" stroke-width="0.7141113" fill="none" /><path id="1029" transform="matrix(1 0 0 -1 0 612)" d="M189.75 291.2832L468.8866 291.2832" stroke="#1155CC" stroke-width="0.7141113" fill="none" /><path id="1090" transform="matrix(1 0 0 -1 0 612)" d="M189.75 274.7832L433.4238 274.7832" stroke="#1155CC" stroke-width="0.7141113" fill="none" /><path id="1147" transform="matrix(1 0 0 -1 0 612)" d="M189.75 244.7832L379.7893 244.7832" stroke="#1155CC" stroke-width="0.7141113" fill="none" /><path id="1229" transform="matrix(1 0 0 -1 0 612)" d="M189.75 228.2832L562.8018 228.2832" stroke="#1155CC" stroke-width="0.7141113" fill="none" /><path id="1324" transform="matrix(1 0 0 -1 0 612)" d="M189.75 198.2832L556.8461 198.2832" stroke="#1155CC" stroke-width="0.7141113" fill="none" /><path id="1356" transform="matrix(1 0 0 -1 0 612)" d="M189.75 181.7832L291.6346 181.7832" stroke="#1155CC" stroke-width="0.7141113" fill="none" /><path id="1399" transform="matrix(1 0 0 -1 0 612)" d="M189.75 165.2832L350.1823 165.2832" stroke="#1155CC" stroke-width="0.7141113" fill="none" /><path id="1478" transform="matrix(1 0 0 -1 0 612)" d="M189.75 148.7832L507.3248 148.7832" stroke="#1155CC" stroke-width="0.7141113" fill="none" /><path id="1507" transform="matrix(1 0 0 -1 0 612)" d="M189.75 132.2832L279.1805 132.2832" stroke="#1155CC" stroke-width="0.7141113" fill="none" /><path id="1567" transform="matrix(1 0 0 -1 0 612)" d="M189.75 102.2832L383.2313 102.2832" stroke="#1155CC" stroke-width="0.7141113" fill="none" /></g></g></g></svg>