<svg xmlns="http://www.w3.org/2000/svg" xmlns:xlink="http://www.w3.org/1999/xlink" id="body_16" preserveAspectRatio="xMinYMin meet" viewBox="0 0 1056 816"><defs><clipPath id="1"><path id="" clip-rule="evenodd" transform="matrix(1 0 0 1 0 0)" d="M0 612L0 0L0 0L792 0L792 0L792 612L792 612L0 612z" /></clipPath><clipPath id="2"><path id="" clip-rule="evenodd" transform="matrix(1 0 0 1 0 0)" d="M110.25 52.5L681.75 52.5L681.75 52.5L681.75 69.75L681.75 69.75L110.25 69.75L110.25 69.75L110.25 52.5z" /></clipPath><clipPath id="3"><path id="" clip-rule="evenodd" transform="matrix(1 0 0 1 0 0)" d="M110.25 69L681.75 69L681.75 69L681.75 551.25L681.75 551.25L110.25 551.25L110.25 551.25L110.25 69z" /></clipPath></defs><g transform="matrix(1.333333 0 0 1.333333 0 0)"><g clip-path="url(#1)"><g clip-path="url(#2)"><path id="10" transform="matrix(1 0 0 -1 0 612)" d="M111 558.75L681 558.75L681 541.5L111 541.5L111 558.75z" stroke="none" fill="#63D297" fill-rule="nonzero" /><path id="11" transform="matrix(1 0 0 -1 0 612)" d="M111 542.25L681 542.25L681 541.5L111 541.5zM111 558.75L681 558.75L681 558L111 558zM681 558L681 542.25L680.25 542.25L680.25 558zM605.25 558L605.25 542.25L604.5 542.25L604.5 558zM187.5 558L187.5 542.25L186.75 542.25L186.75 558zM111.75 558L111.75 542.25L111 542.25L111 558z" stroke="none" fill="#000000" fill-rule="nonzero" fill-opacity="0.1490196" /></g><g clip-path="url(#3)"><path id="28" transform="matrix(1 0 0 -1 0 612)" d="M111 542.25L681 542.25L681 515.25L111 515.25L111 542.25z" stroke="none" fill="#E7F9EF" fill-rule="nonzero" /><path id="29" transform="matrix(1 0 0 -1 0 612)" d="M111 516L681 516L681 498.75L111 498.75L111 516z" stroke="none" fill="#FFFFFF" fill-rule="nonzero" /><path id="30" transform="matrix(1 0 0 -1 0 612)" d="M111 499.5L681 499.5L681 482.25L111 482.25L111 499.5z" stroke="none" fill="#E7F9EF" fill-rule="nonzero" /><path id="31" transform="matrix(1 0 0 -1 0 612)" d="M111 483L681 483L681 465.75L111 465.75L111 483z" stroke="none" fill="#FFFFFF" fill-rule="nonzero" /><path id="32" transform="matrix(1 0 0 -1 0 612)" d="M111 466.5L681 466.5L681 449.25L111 449.25L111 466.5z" stroke="none" fill="#E7F9EF" fill-rule="nonzero" /><path id="33" transform="matrix(1 0 0 -1 0 612)" d="M111 450L681 450L681 432.75L111 432.75L111 450z" stroke="none" fill="#FFFFFF" fill-rule="nonzero" /><path id="34" transform="matrix(1 0 0 -1 0 612)" d="M111 433.5L681 433.5L681 402.75L111 402.75L111 433.5z" stroke="none" fill="#E7F9EF" fill-rule="nonzero" /><path id="35" transform="matrix(1 0 0 -1 0 612)" d="M111 403.5L681 403.5L681 386.25L111 386.25L111 403.5z" stroke="none" fill="#FFFFFF" fill-rule="nonzero" /><path id="36" transform="matrix(1 0 0 -1 0 612)" d="M111 387L681 387L681 369.75L111 369.75L111 387z" stroke="none" fill="#E7F9EF" fill-rule="nonzero" /><path id="37" transform="matrix(1 0 0 -1 0 612)" d="M111 370.5L681 370.5L681 343.5L111 343.5L111 370.5z" stroke="none" fill="#FFFFFF" fill-rule="nonzero" /><path id="38" transform="matrix(1 0 0 -1 0 612)" d="M111 344.25L681 344.25L681 317.25L111 317.25L111 344.25z" stroke="none" fill="#E7F9EF" fill-rule="nonzero" /><path id="39" transform="matrix(1 0 0 -1 0 612)" d="M111 318L681 318L681 300.75L111 300.75L111 318z" stroke="none" fill="#FFFFFF" fill-rule="nonzero" /><path id="40" transform="matrix(1 0 0 -1 0 612)" d="M111 301.5L681 301.5L681 284.25L111 284.25L111 301.5z" stroke="none" fill="#E7F9EF" fill-rule="nonzero" /><path id="41" transform="matrix(1 0 0 -1 0 612)" d="M111 285L681 285L681 267.75L111 267.75L111 285z" stroke="none" fill="#FFFFFF" fill-rule="nonzero" /><path id="42" transform="matrix(1 0 0 -1 0 612)" d="M111 268.5L681 268.5L681 251.25L111 251.25L111 268.5z" stroke="none" fill="#E7F9EF" fill-rule="nonzero" /><path id="43" transform="matrix(1 0 0 -1 0 612)" d="M111 252L681 252L681 234.75L111 234.75L111 252z" stroke="none" fill="#FFFFFF" fill-rule="nonzero" /><path id="44" transform="matrix(1 0 0 -1 0 612)" d="M111 235.5L681 235.5L681 218.25L111 218.25L111 235.5z" stroke="none" fill="#E7F9EF" fill-rule="nonzero" /><path id="45" transform="matrix(1 0 0 -1 0 612)" d="M111 219L681 219L681 201.75L111 201.75L111 219z" stroke="none" fill="#FFFFFF" fill-rule="nonzero" /><path id="46" transform="matrix(1 0 0 -1 0 612)" d="M111 202.5L681 202.5L681 185.25L111 185.25L111 202.5z" stroke="none" fill="#E7F9EF" fill-rule="nonzero" /><path id="47" transform="matrix(1 0 0 -1 0 612)" d="M111 186L681 186L681 159L111 159L111 186z" stroke="none" fill="#FFFFFF" fill-rule="nonzero" /><path id="48" transform="matrix(1 0 0 -1 0 612)" d="M111 159.75L681 159.75L681 142.5L111 142.5L111 159.75z" stroke="none" fill="#E7F9EF" fill-rule="nonzero" /><path id="49" transform="matrix(1 0 0 -1 0 612)" d="M111 143.25L681 143.25L681 126L111 126L111 143.25z" stroke="none" fill="#FFFFFF" fill-rule="nonzero" /><path id="50" transform="matrix(1 0 0 -1 0 612)" d="M111 126.75L681 126.75L681 109.5L111 109.5L111 126.75z" stroke="none" fill="#E7F9EF" fill-rule="nonzero" /><path id="51" transform="matrix(1 0 0 -1 0 612)" d="M111 110.25L681 110.25L681 78L111 78L111 110.25z" stroke="none" fill="#FFFFFF" fill-rule="nonzero" /><path id="52" transform="matrix(1 0 0 -1 0 612)" d="M111 78.75L681 78.75L681 61.5L111 61.5L111 78.75z" stroke="none" fill="#E7F9EF" fill-rule="nonzero" /><path id="53" transform="matrix(1 0 0 -1 0 612)" d="M111 62.25L681 62.25L681 61.5L111 61.5zM111 78.75L681 78.75L681 78L111 78zM111 110.25L681 110.25L681 109.5L111 109.5zM111 126.75L681 126.75L681 126L111 126zM111 143.25L681 143.25L681 142.5L111 142.5zM111 159.75L681 159.75L681 159L111 159zM111 186L681 186L681 185.25L111 185.25zM111 202.5L681 202.5L681 201.75L111 201.75zM111 219L681 219L681 218.25L111 218.25zM111 235.5L681 235.5L681 234.75L111 234.75zM111 252L681 252L681 251.25L111 251.25zM111 268.5L681 268.5L681 267.75L111 267.75zM111 285L681 285L681 284.25L111 284.25zM111 301.5L681 301.5L681 300.75L111 300.75zM111 318L681 318L681 317.25L111 317.25zM111 344.25L681 344.25L681 343.5L111 343.5zM111 370.5L681 370.5L681 369.75L111 369.75zM111 387L681 387L681 386.25L111 386.25zM111 403.5L681 403.5L681 402.75L111 402.75zM111 433.5L681 433.5L681 432.75L111 432.75zM111 450L681 450L681 449.25L111 449.25zM111 466.5L681 466.5L681 465.75L111 465.75zM111 483L681 483L681 482.25L111 482.25zM111 499.5L681 499.5L681 498.75L111 498.75zM111 516L681 516L681 515.25L111 515.25zM111 542.25L681 542.25L681 541.5L111 541.5zM681 78L681 62.25L680.25 62.25L680.25 78zM681 109.5L681 78.75L680.25 78.75L680.25 109.5zM681 126L681 110.25L680.25 110.25L680.25 126zM681 142.5L681 126.75L680.25 126.75L680.25 142.5zM681 159L681 143.25L680.25 143.25L680.25 159zM681 185.25L681 159.75L680.25 159.75L680.25 185.25zM681 201.75L681 186L680.25 186L680.25 201.75zM681 218.25L681 202.5L680.25 202.5L680.25 218.25zM681 234.75L681 219L680.25 219L680.25 234.75zM681 251.25L681 235.5L680.25 235.5L680.25 251.25zM681 267.75L681 252L680.25 252L680.25 267.75zM681 284.25L681 268.5L680.25 268.5L680.25 284.25zM681 300.75L681 285L680.25 285L680.25 300.75zM681 317.25L681 301.5L680.25 301.5L680.25 317.25zM681 343.5L681 318L680.25 318L680.25 343.5zM681 369.75L681 344.25L680.25 344.25L680.25 369.75zM681 386.25L681 370.5L680.25 370.5L680.25 386.25zM681 402.75L681 387L680.25 387L680.25 402.75zM681 432.75L681 403.5L680.25 403.5L680.25 432.75zM681 449.25L681 433.5L680.25 433.5L680.25 449.25zM681 465.75L681 450L680.25 450L680.25 465.75zM681 482.25L681 466.5L680.25 466.5L680.25 482.25zM681 498.75L681 483L680.25 483L680.25 498.75zM681 515.25L681 499.5L680.25 499.5L680.25 515.25zM681 541.5L681 516L680.25 516L680.25 541.5zM605.25 78L605.25 62.25L604.5 62.25L604.5 78zM605.25 109.5L605.25 78.75L604.5 78.75L604.5 109.5zM605.25 126L605.25 110.25L604.5 110.25L604.5 126zM605.25 142.5L605.25 126.75L604.5 126.75L604.5 142.5zM605.25 159L605.25 143.25L604.5 143.25L604.5 159zM605.25 185.25L605.25 159.75L604.5 159.75L604.5 185.25zM605.25 201.75L605.25 186L604.5 186L604.5 201.75zM605.25 218.25L605.25 202.5L604.5 202.5L604.5 218.25zM605.25 234.75L605.25 219L604.5 219L604.5 234.75zM605.25 251.25L605.25 235.5L604.5 235.5L604.5 251.25zM605.25 267.75L605.25 252L604.5 252L604.5 267.75zM605.25 284.25L605.25 268.5L604.5 268.5L604.5 284.25zM605.25 300.75L605.25 285L604.5 285L604.5 300.75zM605.25 317.25L605.25 301.5L604.5 301.5L604.5 317.25zM605.25 343.5L605.25 318L604.5 318L604.5 343.5zM605.25 369.75L605.25 344.25L604.5 344.25L604.5 369.75zM605.25 386.25L605.25 370.5L604.5 370.5L604.5 386.25zM605.25 402.75L605.25 387L604.5 387L604.5 402.75zM605.25 432.75L605.25 403.5L604.5 403.5L604.5 432.75zM605.25 449.25L605.25 433.5L604.5 433.5L604.5 449.25zM605.25 465.75L605.25 450L604.5 450L604.5 465.75zM605.25 482.25L605.25 466.5L604.5 466.5L604.5 482.25zM605.25 498.75L605.25 483L604.5 483L604.5 498.75zM605.25 515.25L605.25 499.5L604.5 499.5L604.5 515.25zM605.25 541.5L605.25 516L604.5 516L604.5 541.5zM187.5 78L187.5 62.25L186.75 62.25L186.75 78zM187.5 109.5L187.5 78.75L186.75 78.75L186.75 109.5zM187.5 126L187.5 110.25L186.75 110.25L186.75 126zM187.5 142.5L187.5 126.75L186.75 126.75L186.75 142.5zM187.5 159L187.5 143.25L186.75 143.25L186.75 159zM187.5 185.25L187.5 159.75L186.75 159.75L186.75 185.25zM187.5 201.75L187.5 186L186.75 186L186.75 201.75zM187.5 218.25L187.5 202.5L186.75 202.5L186.75 218.25zM187.5 234.75L187.5 219L186.75 219L186.75 234.75zM187.5 251.25L187.5 235.5L186.75 235.5L186.75 251.25zM187.5 267.75L187.5 252L186.75 252L186.75 267.75zM187.5 284.25L187.5 268.5L186.75 268.5L186.75 284.25zM187.5 300.75L187.5 285L186.75 285L186.75 300.75zM187.5 317.25L187.5 301.5L186.75 301.5L186.75 317.25zM187.5 343.5L187.5 318L186.75 318L186.75 343.5zM187.5 369.75L187.5 344.25L186.75 344.25L186.75 369.75zM187.5 386.25L187.5 370.5L186.75 370.5L186.75 386.25zM187.5 402.75L187.5 387L186.75 387L186.75 402.75zM187.5 432.75L187.5 403.5L186.75 403.5L186.75 432.75zM187.5 449.25L187.5 433.5L186.75 433.5L186.75 449.25zM187.5 465.75L187.5 450L186.75 450L186.75 465.75zM187.5 482.25L187.5 466.5L186.75 466.5L186.75 482.25zM187.5 498.75L187.5 483L186.75 483L186.75 498.75zM187.5 515.25L187.5 499.5L186.75 499.5L186.75 515.25zM187.5 541.5L187.5 516L186.75 516L186.75 541.5zM111.75 78L111.75 62.25L111 62.25L111 78zM111.75 109.5L111.75 78.75L111 78.75L111 109.5zM111.75 126L111.75 110.25L111 110.25L111 126zM111.75 142.5L111.75 126.75L111 126.75L111 142.5zM111.75 159L111.75 143.25L111 143.25L111 159zM111.75 185.25L111.75 159.75L111 159.75L111 185.25zM111.75 201.75L111.75 186L111 186L111 201.75zM111.75 218.25L111.75 202.5L111 202.5L111 218.25zM111.75 234.75L111.75 219L111 219L111 234.75zM111.75 251.25L111.75 235.5L111 235.5L111 251.25zM111.75 267.75L111.75 252L111 252L111 267.75zM111.75 284.25L111.75 268.5L111 268.5L111 284.25zM111.75 300.75L111.75 285L111 285L111 300.75zM111.75 317.25L111.75 301.5L111 301.5L111 317.25zM111.75 343.5L111.75 318L111 318L111 343.5zM111.75 369.75L111.75 344.25L111 344.25L111 369.75zM111.75 386.25L111.75 370.5L111 370.5L111 386.25zM111.75 402.75L111.75 387L111 387L111 402.75zM111.75 432.75L111.75 403.5L111 403.5L111 432.75zM111.75 449.25L111.75 433.5L111 433.5L111 449.25zM111.75 465.75L111.75 450L111 450L111 465.75zM111.75 482.25L111.75 466.5L111 466.5L111 482.25zM111.75 498.75L111.75 483L111 483L111 498.75zM111.75 515.25L111.75 499.5L111 499.5L111 515.25zM111.75 541.5L111.75 516L111 516L111 541.5z" stroke="none" fill="#000000" fill-rule="nonzero" fill-opacity="0.1490196" /><path id="137" transform="matrix(1 0 0 -1 0 612)" d="M189.75 529.7446L557.2174 529.7446" stroke="#1155CC" stroke-width="0.7141113" fill="none" /><path id="147" transform="matrix(1 0 0 -1 0 612)" d="M189.75 518.5327L240.6899 518.5327" stroke="#1155CC" stroke-width="0.7141113" fill="none" /><path id="185" transform="matrix(1 0 0 -1 0 612)" d="M189.75 502.0327L320.8894 502.0327" stroke="#1155CC" stroke-width="0.7141113" fill="none" /><path id="257" transform="matrix(1 0 0 -1 0 612)" d="M189.75 485.5327L472.0811 485.5327" stroke="#1155CC" stroke-width="0.7141113" fill="none" /><path id="291" transform="matrix(1 0 0 -1 0 612)" d="M189.75 469.0327L312.2249 469.0327" stroke="#1155CC" stroke-width="0.7141113" fill="none" /><path id="365" transform="matrix(1 0 0 -1 0 612)" d="M189.75 452.5327L517.4462 452.5327" stroke="#1155CC" stroke-width="0.7141113" fill="none" /><path id="414" transform="matrix(1 0 0 -1 0 612)" d="M189.75 436.0327L386.4639 436.0327" stroke="#1155CC" stroke-width="0.7141113" fill="none" /><path id="514" transform="matrix(1 0 0 -1 0 612)" d="M189.75 417.2446L574.2513 417.2446" stroke="#1155CC" stroke-width="0.7141113" fill="none" /><path id="516" transform="matrix(1 0 0 -1 0 612)" d="M574.2513 417.6299L579.1263 417.6299" stroke="#1155CC" stroke-width="0.7236328" fill="none" /><path id="537" transform="matrix(1 0 0 -1 0 612)" d="M189.75 406.0327L273.1963 406.0327" stroke="#1155CC" stroke-width="0.7141113" fill="none" /><path id="588" transform="matrix(1 0 0 -1 0 612)" d="M189.75 389.5327L387.0304 389.5327" stroke="#1155CC" stroke-width="0.7141113" fill="none" /><path id="639" transform="matrix(1 0 0 -1 0 612)" d="M189.75 373.0327L386.6829 373.0327" stroke="#1155CC" stroke-width="0.7141113" fill="none" /><path id="730" transform="matrix(1 0 0 -1 0 612)" d="M189.75 357.9946L586.8102 357.9946" stroke="#1155CC" stroke-width="0.7141113" fill="none" /><path id="759" transform="matrix(1 0 0 -1 0 612)" d="M189.75 346.7827L330.0872 346.7827" stroke="#1155CC" stroke-width="0.7141113" fill="none" /><path id="861" transform="matrix(1 0 0 -1 0 612)" d="M189.75 331.7446L600.8782 331.7446" stroke="#1155CC" stroke-width="0.7141113" fill="none" /><path id="874" transform="matrix(1 0 0 -1 0 612)" d="M189.75 320.5327L240.6899 320.5327" stroke="#1155CC" stroke-width="0.7141113" fill="none" /><path id="892" transform="matrix(1 0 0 -1 0 612)" d="M189.75 304.0327L217.9336 304.0327" stroke="#1155CC" stroke-width="0.7141113" fill="none" /><path id="894" transform="matrix(1 0 0 -1 0 612)" d="M217.9336 304.4189L222.8086 304.4189" stroke="#1155CC" stroke-width="0.7236328" fill="none" /><path id="949" transform="matrix(1 0 0 -1 0 612)" d="M222.8086 304.0327L484.0591 304.0327" stroke="#1155CC" stroke-width="0.7141113" fill="none" /><path id="993" transform="matrix(1 0 0 -1 0 612)" d="M189.75 287.5327L364.7692 287.5327" stroke="#1155CC" stroke-width="0.7141113" fill="none" /><path id="1034" transform="matrix(1 0 0 -1 0 612)" d="M189.75 271.0327L333.3721 271.0327" stroke="#1155CC" stroke-width="0.7141113" fill="none" /><path id="1126" transform="matrix(1 0 0 -1 0 612)" d="M189.75 254.5327L602.1636 254.5327" stroke="#1155CC" stroke-width="0.7141113" fill="none" /><path id="1195" transform="matrix(1 0 0 -1 0 612)" d="M189.75 238.0327L489.9624 238.0327" stroke="#1155CC" stroke-width="0.7141113" fill="none" /><path id="1247" transform="matrix(1 0 0 -1 0 612)" d="M189.75 221.5327L408.925 221.5327" stroke="#1155CC" stroke-width="0.7141113" fill="none" /><path id="1302" transform="matrix(1 0 0 -1 0 612)" d="M189.75 205.0327L394.6238 205.0327" stroke="#1155CC" stroke-width="0.7141113" fill="none" /><path id="1367" transform="matrix(1 0 0 -1 0 612)" d="M189.75 188.5327L461.2885 188.5327" stroke="#1155CC" stroke-width="0.7141113" fill="none" /><path id="1454" transform="matrix(1 0 0 -1 0 612)" d="M189.75 173.4946L594.5892 173.4946" stroke="#1155CC" stroke-width="0.7141113" fill="none" /><path id="1521" transform="matrix(1 0 0 -1 0 612)" d="M189.75 162.2827L517.9746 162.2827" stroke="#1155CC" stroke-width="0.7141113" fill="none" /><path id="1588" transform="matrix(1 0 0 -1 0 612)" d="M189.75 145.7827L478.0415 145.7827" stroke="#1155CC" stroke-width="0.7141113" fill="none" /><path id="1637" transform="matrix(1 0 0 -1 0 612)" d="M189.75 129.2827L367.8779 129.2827" stroke="#1155CC" stroke-width="0.7141113" fill="none" /><path id="1718" transform="matrix(1 0 0 -1 0 612)" d="M189.75 112.7827L565.8534 112.7827" stroke="#1155CC" stroke-width="0.7141113" fill="none" /><path id="1789" transform="matrix(1 0 0 -1 0 612)" d="M189.75 81.28271L421.1935 81.28271" stroke="#1155CC" stroke-width="0.7141113" fill="none" /><path id="1834" transform="matrix(1 0 0 -1 0 612)" d="M189.75 64.78271L334.9955 64.78271" stroke="#1155CC" stroke-width="0.7141113" fill="none" /></g></g></g></svg>