<svg xmlns="http://www.w3.org/2000/svg" xmlns:xlink="http://www.w3.org/1999/xlink" id="body_11" preserveAspectRatio="xMinYMin meet" viewBox="0 0 1056 816"><defs><clipPath id="1"><path id="" clip-rule="evenodd" transform="matrix(1 0 0 1 0 0)" d="M0 612L0 0L0 0L792 0L792 0L792 612L792 612L0 612z" /></clipPath><clipPath id="2"><path id="" clip-rule="evenodd" transform="matrix(1 0 0 1 0 0)" d="M110.25 52.5L681.75 52.5L681.75 52.5L681.75 69.75L681.75 69.75L110.25 69.75L110.25 69.75L110.25 52.5z" /></clipPath><clipPath id="3"><path id="" clip-rule="evenodd" transform="matrix(1 0 0 1 0 0)" d="M110.25 69L681.75 69L681.75 69L681.75 543.75L681.75 543.75L110.25 543.75L110.25 543.75L110.25 69z" /></clipPath></defs><g transform="matrix(1.333333 0 0 1.333333 0 0)"><g clip-path="url(#1)"><g clip-path="url(#2)"><path id="10" transform="matrix(1 0 0 -1 0 612)" d="M111 558.75L681 558.75L681 541.5L111 541.5L111 558.75z" stroke="none" fill="#63D297" fill-rule="nonzero" /><path id="11" transform="matrix(1 0 0 -1 0 612)" d="M111 542.25L681 542.25L681 541.5L111 541.5zM111 558.75L681 558.75L681 558L111 558zM681 558L681 542.25L680.25 542.25L680.25 558zM605.25 558L605.25 542.25L604.5 542.25L604.5 558zM187.5 558L187.5 542.25L186.75 542.25L186.75 558zM111.75 558L111.75 542.25L111 542.25L111 558z" stroke="none" fill="#000000" fill-rule="nonzero" fill-opacity="0.1490196" /></g><g clip-path="url(#3)"><path id="28" transform="matrix(1 0 0 -1 0 612)" d="M111 542.25L681 542.25L681 511.5L111 511.5L111 542.25z" stroke="none" fill="#FFFFFF" fill-rule="nonzero" /><path id="29" transform="matrix(1 0 0 -1 0 612)" d="M111 512.25L681 512.25L681 485.25L111 485.25L111 512.25z" stroke="none" fill="#E7F9EF" fill-rule="nonzero" /><path id="30" transform="matrix(1 0 0 -1 0 612)" d="M111 486L681 486L681 468.75L111 468.75L111 486z" stroke="none" fill="#FFFFFF" fill-rule="nonzero" /><path id="31" transform="matrix(1 0 0 -1 0 612)" d="M111 469.5L681 469.5L681 442.5L111 442.5L111 469.5z" stroke="none" fill="#E7F9EF" fill-rule="nonzero" /><path id="32" transform="matrix(1 0 0 -1 0 612)" d="M111 443.25L681 443.25L681 426L111 426L111 443.25z" stroke="none" fill="#FFFFFF" fill-rule="nonzero" /><path id="33" transform="matrix(1 0 0 -1 0 612)" d="M111 426.75L681 426.75L681 396L111 396L111 426.75z" stroke="none" fill="#E7F9EF" fill-rule="nonzero" /><path id="34" transform="matrix(1 0 0 -1 0 612)" d="M111 396.75L681 396.75L681 379.5L111 379.5L111 396.75z" stroke="none" fill="#FFFFFF" fill-rule="nonzero" /><path id="35" transform="matrix(1 0 0 -1 0 612)" d="M111 380.25L681 380.25L681 353.25L111 353.25L111 380.25z" stroke="none" fill="#E7F9EF" fill-rule="nonzero" /><path id="36" transform="matrix(1 0 0 -1 0 612)" d="M111 354L681 354L681 310.5L111 310.5L111 354z" stroke="none" fill="#FFFFFF" fill-rule="nonzero" /><path id="37" transform="matrix(1 0 0 -1 0 612)" d="M111 311.25L681 311.25L681 294L111 294L111 311.25z" stroke="none" fill="#E7F9EF" fill-rule="nonzero" /><path id="38" transform="matrix(1 0 0 -1 0 612)" d="M111 294.75L681 294.75L681 264L111 264L111 294.75z" stroke="none" fill="#FFFFFF" fill-rule="nonzero" /><path id="39" transform="matrix(1 0 0 -1 0 612)" d="M111 264.75L681 264.75L681 247.5L111 247.5L111 264.75z" stroke="none" fill="#E7F9EF" fill-rule="nonzero" /><path id="40" transform="matrix(1 0 0 -1 0 612)" d="M111 248.25L681 248.25L681 231L111 231L111 248.25z" stroke="none" fill="#FFFFFF" fill-rule="nonzero" /><path id="41" transform="matrix(1 0 0 -1 0 612)" d="M111 231.75L681 231.75L681 204.75L111 204.75L111 231.75z" stroke="none" fill="#E7F9EF" fill-rule="nonzero" /><path id="42" transform="matrix(1 0 0 -1 0 612)" d="M111 205.5L681 205.5L681 188.25L111 188.25L111 205.5z" stroke="none" fill="#FFFFFF" fill-rule="nonzero" /><path id="43" transform="matrix(1 0 0 -1 0 612)" d="M111 189L681 189L681 158.25L111 158.25L111 189z" stroke="none" fill="#E7F9EF" fill-rule="nonzero" /><path id="44" transform="matrix(1 0 0 -1 0 612)" d="M111 159L681 159L681 141.75L111 141.75L111 159z" stroke="none" fill="#FFFFFF" fill-rule="nonzero" /><path id="45" transform="matrix(1 0 0 -1 0 612)" d="M111 142.5L681 142.5L681 111.75L111 111.75L111 142.5z" stroke="none" fill="#E7F9EF" fill-rule="nonzero" /><path id="46" transform="matrix(1 0 0 -1 0 612)" d="M111 112.5L681 112.5L681 95.25L111 95.25L111 112.5z" stroke="none" fill="#FFFFFF" fill-rule="nonzero" /><path id="47" transform="matrix(1 0 0 -1 0 612)" d="M111 96L681 96L681 69L111 69L111 96z" stroke="none" fill="#E7F9EF" fill-rule="nonzero" /><path id="48" transform="matrix(1 0 0 -1 0 612)" d="M111 69.75L681 69.75L681 69L111 69zM111 96L681 96L681 95.25L111 95.25zM111 112.5L681 112.5L681 111.75L111 111.75zM111 142.5L681 142.5L681 141.75L111 141.75zM111 159L681 159L681 158.25L111 158.25zM111 189L681 189L681 188.25L111 188.25zM111 205.5L681 205.5L681 204.75L111 204.75zM111 231.75L681 231.75L681 231L111 231zM111 248.25L681 248.25L681 247.5L111 247.5zM111 264.75L681 264.75L681 264L111 264zM111 294.75L681 294.75L681 294L111 294zM111 311.25L681 311.25L681 310.5L111 310.5zM111 354L681 354L681 353.25L111 353.25zM111 380.25L681 380.25L681 379.5L111 379.5zM111 396.75L681 396.75L681 396L111 396zM111 426.75L681 426.75L681 426L111 426zM111 443.25L681 443.25L681 442.5L111 442.5zM111 469.5L681 469.5L681 468.75L111 468.75zM111 486L681 486L681 485.25L111 485.25zM111 512.25L681 512.25L681 511.5L111 511.5zM111 542.25L681 542.25L681 541.5L111 541.5zM681 95.25L681 69.75L680.25 69.75L680.25 95.25zM681 111.75L681 96L680.25 96L680.25 111.75zM681 141.75L681 112.5L680.25 112.5L680.25 141.75zM681 158.25L681 142.5L680.25 142.5L680.25 158.25zM681 188.25L681 159L680.25 159L680.25 188.25zM681 204.75L681 189L680.25 189L680.25 204.75zM681 231L681 205.5L680.25 205.5L680.25 231zM681 247.5L681 231.75L680.25 231.75L680.25 247.5zM681 264L681 248.25L680.25 248.25L680.25 264zM681 294L681 264.75L680.25 264.75L680.25 294zM681 310.5L681 294.75L680.25 294.75L680.25 310.5zM681 353.25L681 311.25L680.25 311.25L680.25 353.25zM681 379.5L681 354L680.25 354L680.25 379.5zM681 396L681 380.25L680.25 380.25L680.25 396zM681 426L681 396.75L680.25 396.75L680.25 426zM681 442.5L681 426.75L680.25 426.75L680.25 442.5zM681 468.75L681 443.25L680.25 443.25L680.25 468.75zM681 485.25L681 469.5L680.25 469.5L680.25 485.25zM681 511.5L681 486L680.25 486L680.25 511.5zM681 541.5L681 512.25L680.25 512.25L680.25 541.5zM605.25 95.25L605.25 69.75L604.5 69.75L604.5 95.25zM605.25 111.75L605.25 96L604.5 96L604.5 111.75zM605.25 141.75L605.25 112.5L604.5 112.5L604.5 141.75zM605.25 158.25L605.25 142.5L604.5 142.5L604.5 158.25zM605.25 188.25L605.25 159L604.5 159L604.5 188.25zM605.25 204.75L605.25 189L604.5 189L604.5 204.75zM605.25 231L605.25 205.5L604.5 205.5L604.5 231zM605.25 247.5L605.25 231.75L604.5 231.75L604.5 247.5zM605.25 264L605.25 248.25L604.5 248.25L604.5 264zM605.25 294L605.25 264.75L604.5 264.75L604.5 294zM605.25 310.5L605.25 294.75L604.5 294.75L604.5 310.5zM605.25 353.25L605.25 311.25L604.5 311.25L604.5 353.25zM605.25 379.5L605.25 354L604.5 354L604.5 379.5zM605.25 396L605.25 380.25L604.5 380.25L604.5 396zM605.25 426L605.25 396.75L604.5 396.75L604.5 426zM605.25 442.5L605.25 426.75L604.5 426.75L604.5 442.5zM605.25 468.75L605.25 443.25L604.5 443.25L604.5 468.75zM605.25 485.25L605.25 469.5L604.5 469.5L604.5 485.25zM605.25 511.5L605.25 486L604.5 486L604.5 511.5zM605.25 541.5L605.25 512.25L604.5 512.25L604.5 541.5zM187.5 95.25L187.5 69.75L186.75 69.75L186.75 95.25zM187.5 111.75L187.5 96L186.75 96L186.75 111.75zM187.5 141.75L187.5 112.5L186.75 112.5L186.75 141.75zM187.5 158.25L187.5 142.5L186.75 142.5L186.75 158.25zM187.5 188.25L187.5 159L186.75 159L186.75 188.25zM187.5 204.75L187.5 189L186.75 189L186.75 204.75zM187.5 231L187.5 205.5L186.75 205.5L186.75 231zM187.5 247.5L187.5 231.75L186.75 231.75L186.75 247.5zM187.5 264L187.5 248.25L186.75 248.25L186.75 264zM187.5 294L187.5 264.75L186.75 264.75L186.75 294zM187.5 310.5L187.5 294.75L186.75 294.75L186.75 310.5zM187.5 353.25L187.5 311.25L186.75 311.25L186.75 353.25zM187.5 379.5L187.5 354L186.75 354L186.75 379.5zM187.5 396L187.5 380.25L186.75 380.25L186.75 396zM187.5 426L187.5 396.75L186.75 396.75L186.75 426zM187.5 442.5L187.5 426.75L186.75 426.75L186.75 442.5zM187.5 468.75L187.5 443.25L186.75 443.25L186.75 468.75zM187.5 485.25L187.5 469.5L186.75 469.5L186.75 485.25zM187.5 511.5L187.5 486L186.75 486L186.75 511.5zM187.5 541.5L187.5 512.25L186.75 512.25L186.75 541.5zM111.75 95.25L111.75 69.75L111 69.75L111 95.25zM111.75 111.75L111.75 96L111 96L111 111.75zM111.75 141.75L111.75 112.5L111 112.5L111 141.75zM111.75 158.25L111.75 142.5L111 142.5L111 158.25zM111.75 188.25L111.75 159L111 159L111 188.25zM111.75 204.75L111.75 189L111 189L111 204.75zM111.75 231L111.75 205.5L111 205.5L111 231zM111.75 247.5L111.75 231.75L111 231.75L111 247.5zM111.75 264L111.75 248.25L111 248.25L111 264zM111.75 294L111.75 264.75L111 264.75L111 294zM111.75 310.5L111.75 294.75L111 294.75L111 310.5zM111.75 353.25L111.75 311.25L111 311.25L111 353.25zM111.75 379.5L111.75 354L111 354L111 379.5zM111.75 396L111.75 380.25L111 380.25L111 396zM111.75 426L111.75 396.75L111 396.75L111 426zM111.75 442.5L111.75 426.75L111 426.75L111 442.5zM111.75 468.75L111.75 443.25L111 443.25L111 468.75zM111.75 485.25L111.75 469.5L111 469.5L111 485.25zM111.75 511.5L111.75 486L111 486L111 511.5zM111.75 541.5L111.75 512.25L111 512.25L111 541.5z" stroke="none" fill="#000000" fill-rule="nonzero" fill-opacity="0.1490196" /><path id="94" transform="matrix(1 0 0 -1 0 612)" d="M189.75 514.7832L300.8419 514.7832" stroke="#1155CC" stroke-width="0.7141113" fill="none" /><path id="189" transform="matrix(1 0 0 -1 0 612)" d="M189.75 499.7446L583.2301 499.7446" stroke="#1155CC" stroke-width="0.7141113" fill="none" /><path id="221" transform="matrix(1 0 0 -1 0 612)" d="M189.75 488.5332L342.5603 488.5332" stroke="#1155CC" stroke-width="0.7141113" fill="none" /><path id="295" transform="matrix(1 0 0 -1 0 612)" d="M189.75 472.0332L502.8069 472.0332" stroke="#1155CC" stroke-width="0.7141113" fill="none" /><path id="390" transform="matrix(1 0 0 -1 0 612)" d="M189.75 456.9946L598.8834 456.9946" stroke="#1155CC" stroke-width="0.7141113" fill="none" /><path id="395" transform="matrix(1 0 0 -1 0 612)" d="M189.75 445.7832L211.4399 445.7832" stroke="#1155CC" stroke-width="0.7141113" fill="none" /><path id="479" transform="matrix(1 0 0 -1 0 612)" d="M189.75 429.2832L524.0826 429.2832" stroke="#1155CC" stroke-width="0.7141113" fill="none" /><path id="576" transform="matrix(1 0 0 -1 0 612)" d="M189.75 399.2832L563.6444 399.2832" stroke="#1155CC" stroke-width="0.7141113" fill="none" /><path id="607" transform="matrix(1 0 0 -1 0 612)" d="M189.75 382.7832L290.0065 382.7832" stroke="#1155CC" stroke-width="0.7141113" fill="none" /><path id="705" transform="matrix(1 0 0 -1 0 612)" d="M189.75 367.7446L592.9658 367.7446" stroke="#1155CC" stroke-width="0.7141113" fill="none" /><path id="729" transform="matrix(1 0 0 -1 0 612)" d="M189.75 356.5332L298.6758 356.5332" stroke="#1155CC" stroke-width="0.7141113" fill="none" /><path id="818" transform="matrix(1 0 0 -1 0 612)" d="M189.75 313.7832L441.1886 313.7832" stroke="#1155CC" stroke-width="0.7141113" fill="none" /><path id="845" transform="matrix(1 0 0 -1 0 612)" d="M189.75 297.2832L260.2042 297.2832" stroke="#1155CC" stroke-width="0.7141113" fill="none" /><path id="940" transform="matrix(1 0 0 -1 0 612)" d="M189.75 267.2832L542.9161 267.2832" stroke="#1155CC" stroke-width="0.7141113" fill="none" /><path id="1025" transform="matrix(1 0 0 -1 0 612)" d="M189.75 250.7832L568.5718 250.7832" stroke="#1155CC" stroke-width="0.7141113" fill="none" /><path id="1105" transform="matrix(1 0 0 -1 0 612)" d="M189.75 234.2832L533.2756 234.2832" stroke="#1155CC" stroke-width="0.7141113" fill="none" /><path id="1195" transform="matrix(1 0 0 -1 0 612)" d="M189.75 219.2446L588.0385 219.2446" stroke="#1155CC" stroke-width="0.7141113" fill="none" /><path id="1210" transform="matrix(1 0 0 -1 0 612)" d="M189.75 208.0332L270.4874 208.0332" stroke="#1155CC" stroke-width="0.7141113" fill="none" /><path id="1306" transform="matrix(1 0 0 -1 0 612)" d="M189.75 191.5332L579.2216 191.5332" stroke="#1155CC" stroke-width="0.7141113" fill="none" /><path id="1394" transform="matrix(1 0 0 -1 0 612)" d="M189.75 161.5332L513.4757 161.5332" stroke="#1155CC" stroke-width="0.7141113" fill="none" /><path id="1462" transform="matrix(1 0 0 -1 0 612)" d="M189.75 145.0332L458.9271 145.0332" stroke="#1155CC" stroke-width="0.7141113" fill="none" /><path id="1562" transform="matrix(1 0 0 -1 0 612)" d="M189.75 115.0332L595.6604 115.0332" stroke="#1155CC" stroke-width="0.7141113" fill="none" /><path id="1590" transform="matrix(1 0 0 -1 0 612)" d="M189.75 98.5332L281.9037 98.5332" stroke="#1155CC" stroke-width="0.7141113" fill="none" /><path id="1680" transform="matrix(1 0 0 -1 0 612)" d="M189.75 83.49463L580.9878 83.49463" stroke="#1155CC" stroke-width="0.7141113" fill="none" /><path id="1692" transform="matrix(1 0 0 -1 0 612)" d="M189.75 72.2832L234.1868 72.2832" stroke="#1155CC" stroke-width="0.7141113" fill="none" /></g></g></g></svg>