<svg xmlns="http://www.w3.org/2000/svg" xmlns:xlink="http://www.w3.org/1999/xlink" id="body_21" preserveAspectRatio="xMinYMin meet" viewBox="0 0 1056 816"><defs><clipPath id="1"><path id="" clip-rule="evenodd" transform="matrix(1 0 0 1 0 0)" d="M0 612L0 0L0 0L792 0L792 0L792 612L792 612L0 612z" /></clipPath><clipPath id="2"><path id="" clip-rule="evenodd" transform="matrix(1 0 0 1 0 0)" d="M110.25 52.5L681.75 52.5L681.75 52.5L681.75 69.75L681.75 69.75L110.25 69.75L110.25 69.75L110.25 52.5z" /></clipPath><clipPath id="3"><path id="" clip-rule="evenodd" transform="matrix(1 0 0 1 0 0)" d="M110.25 69L681.75 69L681.75 69L681.75 173.25L681.75 173.25L110.25 173.25L110.25 173.25L110.25 69z" /></clipPath></defs><g transform="matrix(1.333333 0 0 1.333333 0 0)"><g clip-path="url(#1)"><g clip-path="url(#2)"><path id="10" transform="matrix(1 0 0 -1 0 612)" d="M111 558.75L681 558.75L681 541.5L111 541.5L111 558.75z" stroke="none" fill="#63D297" fill-rule="nonzero" /><path id="11" transform="matrix(1 0 0 -1 0 612)" d="M111 542.25L681 542.25L681 541.5L111 541.5zM111 558.75L681 558.75L681 558L111 558zM681 558L681 542.25L680.25 542.25L680.25 558zM605.25 558L605.25 542.25L604.5 542.25L604.5 558zM187.5 558L187.5 542.25L186.75 542.25L186.75 558zM111.75 558L111.75 542.25L111 542.25L111 558z" stroke="none" fill="#000000" fill-rule="nonzero" fill-opacity="0.1490196" /></g><g clip-path="url(#3)"><path id="28" transform="matrix(1 0 0 -1 0 612)" d="M111 542.25L681 542.25L681 515.25L111 515.25L111 542.25z" stroke="none" fill="#E7F9EF" fill-rule="nonzero" /><path id="29" transform="matrix(1 0 0 -1 0 612)" d="M111 516L681 516L681 498.75L111 498.75L111 516z" stroke="none" fill="#FFFFFF" fill-rule="nonzero" /><path id="30" transform="matrix(1 0 0 -1 0 612)" d="M111 499.5L681 499.5L681 482.25L111 482.25L111 499.5z" stroke="none" fill="#E7F9EF" fill-rule="nonzero" /><path id="31" transform="matrix(1 0 0 -1 0 612)" d="M111 483L681 483L681 439.5L111 439.5L111 483z" stroke="none" fill="#FFFFFF" fill-rule="nonzero" /><path id="32" transform="matrix(1 0 0 -1 0 612)" d="M111 440.25L681 440.25L681 439.5L111 439.5zM111 483L681 483L681 482.25L111 482.25zM111 499.5L681 499.5L681 498.75L111 498.75zM111 516L681 516L681 515.25L111 515.25zM111 542.25L681 542.25L681 541.5L111 541.5zM681 482.25L681 440.25L680.25 440.25L680.25 482.25zM681 498.75L681 483L680.25 483L680.25 498.75zM681 515.25L681 499.5L680.25 499.5L680.25 515.25zM681 541.5L681 516L680.25 516L680.25 541.5zM605.25 482.25L605.25 440.25L604.5 440.25L604.5 482.25zM605.25 498.75L605.25 483L604.5 483L604.5 498.75zM605.25 515.25L605.25 499.5L604.5 499.5L604.5 515.25zM605.25 541.5L605.25 516L604.5 516L604.5 541.5zM187.5 482.25L187.5 440.25L186.75 440.25L186.75 482.25zM187.5 498.75L187.5 483L186.75 483L186.75 498.75zM187.5 515.25L187.5 499.5L186.75 499.5L186.75 515.25zM187.5 541.5L187.5 516L186.75 516L186.75 541.5zM111.75 482.25L111.75 440.25L111 440.25L111 482.25zM111.75 498.75L111.75 483L111 483L111 498.75zM111.75 515.25L111.75 499.5L111 499.5L111 515.25zM111.75 541.5L111.75 516L111 516L111 541.5z" stroke="none" fill="#000000" fill-rule="nonzero" fill-opacity="0.1490196" /><path id="122" transform="matrix(1 0 0 -1 0 612)" d="M189.75 529.7441L598.3883 529.7441" stroke="#1155CC" stroke-width="0.7141113" fill="none" /><path id="178" transform="matrix(1 0 0 -1 0 612)" d="M189.75 518.5332L441.2267 518.5332" stroke="#1155CC" stroke-width="0.7141113" fill="none" /><path id="263" transform="matrix(1 0 0 -1 0 612)" d="M189.75 502.0332L554.4943 502.0332" stroke="#1155CC" stroke-width="0.7141113" fill="none" /><path id="312" transform="matrix(1 0 0 -1 0 612)" d="M189.75 485.5332L357.728 485.5332" stroke="#1155CC" stroke-width="0.7141113" fill="none" /><path id="397" transform="matrix(1 0 0 -1 0 612)" d="M189.75 442.7832L453.4904 442.7832" stroke="#1155CC" stroke-width="0.7141113" fill="none" /></g></g></g></svg>