<svg xmlns="http://www.w3.org/2000/svg" xmlns:xlink="http://www.w3.org/1999/xlink" id="body_15" preserveAspectRatio="xMinYMin meet" viewBox="0 0 1056 816"><defs><clipPath id="1"><path id="" clip-rule="evenodd" transform="matrix(1 0 0 1 0 0)" d="M0 612L0 0L0 0L792 0L792 0L792 612L792 612L0 612z" /></clipPath><clipPath id="2"><path id="" clip-rule="evenodd" transform="matrix(1 0 0 1 0 0)" d="M110.25 52.5L681.75 52.5L681.75 52.5L681.75 69.75L681.75 69.75L110.25 69.75L110.25 69.75L110.25 52.5z" /></clipPath><clipPath id="3"><path id="" clip-rule="evenodd" transform="matrix(1 0 0 1 0 0)" d="M110.25 69L681.75 69L681.75 69L681.75 551.25L681.75 551.25L110.25 551.25L110.25 551.25L110.25 69z" /></clipPath></defs><g transform="matrix(1.333333 0 0 1.333333 0 0)"><g clip-path="url(#1)"><g clip-path="url(#2)"><path id="10" transform="matrix(1 0 0 -1 0 612)" d="M111 558.75L681 558.75L681 541.5L111 541.5L111 558.75z" stroke="none" fill="#63D297" fill-rule="nonzero" /><path id="11" transform="matrix(1 0 0 -1 0 612)" d="M111 542.25L681 542.25L681 541.5L111 541.5zM111 558.75L681 558.75L681 558L111 558zM681 558L681 542.25L680.25 542.25L680.25 558zM605.25 558L605.25 542.25L604.5 542.25L604.5 558zM187.5 558L187.5 542.25L186.75 542.25L186.75 558zM111.75 558L111.75 542.25L111 542.25L111 558z" stroke="none" fill="#000000" fill-rule="nonzero" fill-opacity="0.1490196" /></g><g clip-path="url(#3)"><path id="28" transform="matrix(1 0 0 -1 0 612)" d="M111 542.25L681 542.25L681 525L111 525L111 542.25z" stroke="none" fill="#FFFFFF" fill-rule="nonzero" /><path id="29" transform="matrix(1 0 0 -1 0 612)" d="M111 525.75L681 525.75L681 495L111 495L111 525.75z" stroke="none" fill="#E7F9EF" fill-rule="nonzero" /><path id="30" transform="matrix(1 0 0 -1 0 612)" d="M111 495.75L681 495.75L681 478.5L111 478.5L111 495.75z" stroke="none" fill="#FFFFFF" fill-rule="nonzero" /><path id="31" transform="matrix(1 0 0 -1 0 612)" d="M111 479.25L681 479.25L681 462L111 462L111 479.25z" stroke="none" fill="#E7F9EF" fill-rule="nonzero" /><path id="32" transform="matrix(1 0 0 -1 0 612)" d="M111 462.75L681 462.75L681 445.5L111 445.5L111 462.75z" stroke="none" fill="#FFFFFF" fill-rule="nonzero" /><path id="33" transform="matrix(1 0 0 -1 0 612)" d="M111 446.25L681 446.25L681 429L111 429L111 446.25z" stroke="none" fill="#E7F9EF" fill-rule="nonzero" /><path id="34" transform="matrix(1 0 0 -1 0 612)" d="M111 429.75L681 429.75L681 399L111 399L111 429.75z" stroke="none" fill="#FFFFFF" fill-rule="nonzero" /><path id="35" transform="matrix(1 0 0 -1 0 612)" d="M111 399.75L681 399.75L681 369L111 369L111 399.75z" stroke="none" fill="#E7F9EF" fill-rule="nonzero" /><path id="36" transform="matrix(1 0 0 -1 0 612)" d="M111 369.75L681 369.75L681 352.5L111 352.5L111 369.75z" stroke="none" fill="#FFFFFF" fill-rule="nonzero" /><path id="37" transform="matrix(1 0 0 -1 0 612)" d="M111 353.25L681 353.25L681 322.5L111 322.5L111 353.25z" stroke="none" fill="#E7F9EF" fill-rule="nonzero" /><path id="38" transform="matrix(1 0 0 -1 0 612)" d="M111 323.25L681 323.25L681 292.5L111 292.5L111 323.25z" stroke="none" fill="#FFFFFF" fill-rule="nonzero" /><path id="39" transform="matrix(1 0 0 -1 0 612)" d="M111 293.25L681 293.25L681 276L111 276L111 293.25z" stroke="none" fill="#E7F9EF" fill-rule="nonzero" /><path id="40" transform="matrix(1 0 0 -1 0 612)" d="M111 276.75L681 276.75L681 259.5L111 259.5L111 276.75z" stroke="none" fill="#FFFFFF" fill-rule="nonzero" /><path id="41" transform="matrix(1 0 0 -1 0 612)" d="M111 260.25L681 260.25L681 233.25L111 233.25L111 260.25z" stroke="none" fill="#E7F9EF" fill-rule="nonzero" /><path id="42" transform="matrix(1 0 0 -1 0 612)" d="M111 234L681 234L681 216.75L111 216.75L111 234z" stroke="none" fill="#FFFFFF" fill-rule="nonzero" /><path id="43" transform="matrix(1 0 0 -1 0 612)" d="M111 217.5L681 217.5L681 200.25L111 200.25L111 217.5z" stroke="none" fill="#E7F9EF" fill-rule="nonzero" /><path id="44" transform="matrix(1 0 0 -1 0 612)" d="M111 201L681 201L681 183.75L111 183.75L111 201z" stroke="none" fill="#FFFFFF" fill-rule="nonzero" /><path id="45" transform="matrix(1 0 0 -1 0 612)" d="M111 184.5L681 184.5L681 167.25L111 167.25L111 184.5z" stroke="none" fill="#E7F9EF" fill-rule="nonzero" /><path id="46" transform="matrix(1 0 0 -1 0 612)" d="M111 168L681 168L681 150.75L111 150.75L111 168z" stroke="none" fill="#FFFFFF" fill-rule="nonzero" /><path id="47" transform="matrix(1 0 0 -1 0 612)" d="M111 151.5L681 151.5L681 134.25L111 134.25L111 151.5z" stroke="none" fill="#E7F9EF" fill-rule="nonzero" /><path id="48" transform="matrix(1 0 0 -1 0 612)" d="M111 135L681 135L681 108L111 108L111 135z" stroke="none" fill="#FFFFFF" fill-rule="nonzero" /><path id="49" transform="matrix(1 0 0 -1 0 612)" d="M111 108.75L681 108.75L681 78L111 78L111 108.75z" stroke="none" fill="#E7F9EF" fill-rule="nonzero" /><path id="50" transform="matrix(1 0 0 -1 0 612)" d="M111 78.75L681 78.75L681 61.5L111 61.5L111 78.75z" stroke="none" fill="#FFFFFF" fill-rule="nonzero" /><path id="51" transform="matrix(1 0 0 -1 0 612)" d="M111 62.25L681 62.25L681 61.5L111 61.5zM111 78.75L681 78.75L681 78L111 78zM111 108.75L681 108.75L681 108L111 108zM111 135L681 135L681 134.25L111 134.25zM111 151.5L681 151.5L681 150.75L111 150.75zM111 168L681 168L681 167.25L111 167.25zM111 184.5L681 184.5L681 183.75L111 183.75zM111 201L681 201L681 200.25L111 200.25zM111 217.5L681 217.5L681 216.75L111 216.75zM111 234L681 234L681 233.25L111 233.25zM111 260.25L681 260.25L681 259.5L111 259.5zM111 276.75L681 276.75L681 276L111 276zM111 293.25L681 293.25L681 292.5L111 292.5zM111 323.25L681 323.25L681 322.5L111 322.5zM111 353.25L681 353.25L681 352.5L111 352.5zM111 369.75L681 369.75L681 369L111 369zM111 399.75L681 399.75L681 399L111 399zM111 429.75L681 429.75L681 429L111 429zM111 446.25L681 446.25L681 445.5L111 445.5zM111 462.75L681 462.75L681 462L111 462zM111 479.25L681 479.25L681 478.5L111 478.5zM111 495.75L681 495.75L681 495L111 495zM111 525.75L681 525.75L681 525L111 525zM111 542.25L681 542.25L681 541.5L111 541.5zM681 78L681 62.25L680.25 62.25L680.25 78zM681 108L681 78.75L680.25 78.75L680.25 108zM681 134.25L681 108.75L680.25 108.75L680.25 134.25zM681 150.75L681 135L680.25 135L680.25 150.75zM681 167.25L681 151.5L680.25 151.5L680.25 167.25zM681 183.75L681 168L680.25 168L680.25 183.75zM681 200.25L681 184.5L680.25 184.5L680.25 200.25zM681 216.75L681 201L680.25 201L680.25 216.75zM681 233.25L681 217.5L680.25 217.5L680.25 233.25zM681 259.5L681 234L680.25 234L680.25 259.5zM681 276L681 260.25L680.25 260.25L680.25 276zM681 292.5L681 276.75L680.25 276.75L680.25 292.5zM681 322.5L681 293.25L680.25 293.25L680.25 322.5zM681 352.5L681 323.25L680.25 323.25L680.25 352.5zM681 369L681 353.25L680.25 353.25L680.25 369zM681 399L681 369.75L680.25 369.75L680.25 399zM681 429L681 399.75L680.25 399.75L680.25 429zM681 445.5L681 429.75L680.25 429.75L680.25 445.5zM681 462L681 446.25L680.25 446.25L680.25 462zM681 478.5L681 462.75L680.25 462.75L680.25 478.5zM681 495L681 479.25L680.25 479.25L680.25 495zM681 525L681 495.75L680.25 495.75L680.25 525zM681 541.5L681 525.75L680.25 525.75L680.25 541.5zM605.25 78L605.25 62.25L604.5 62.25L604.5 78zM605.25 108L605.25 78.75L604.5 78.75L604.5 108zM605.25 134.25L605.25 108.75L604.5 108.75L604.5 134.25zM605.25 150.75L605.25 135L604.5 135L604.5 150.75zM605.25 167.25L605.25 151.5L604.5 151.5L604.5 167.25zM605.25 183.75L605.25 168L604.5 168L604.5 183.75zM605.25 200.25L605.25 184.5L604.5 184.5L604.5 200.25zM605.25 216.75L605.25 201L604.5 201L604.5 216.75zM605.25 233.25L605.25 217.5L604.5 217.5L604.5 233.25zM605.25 259.5L605.25 234L604.5 234L604.5 259.5zM605.25 276L605.25 260.25L604.5 260.25L604.5 276zM605.25 292.5L605.25 276.75L604.5 276.75L604.5 292.5zM605.25 322.5L605.25 293.25L604.5 293.25L604.5 322.5zM605.25 352.5L605.25 323.25L604.5 323.25L604.5 352.5zM605.25 369L605.25 353.25L604.5 353.25L604.5 369zM605.25 399L605.25 369.75L604.5 369.75L604.5 399zM605.25 429L605.25 399.75L604.5 399.75L604.5 429zM605.25 445.5L605.25 429.75L604.5 429.75L604.5 445.5zM605.25 462L605.25 446.25L604.5 446.25L604.5 462zM605.25 478.5L605.25 462.75L604.5 462.75L604.5 478.5zM605.25 495L605.25 479.25L604.5 479.25L604.5 495zM605.25 525L605.25 495.75L604.5 495.75L604.5 525zM605.25 541.5L605.25 525.75L604.5 525.75L604.5 541.5zM187.5 78L187.5 62.25L186.75 62.25L186.75 78zM187.5 108L187.5 78.75L186.75 78.75L186.75 108zM187.5 134.25L187.5 108.75L186.75 108.75L186.75 134.25zM187.5 150.75L187.5 135L186.75 135L186.75 150.75zM187.5 167.25L187.5 151.5L186.75 151.5L186.75 167.25zM187.5 183.75L187.5 168L186.75 168L186.75 183.75zM187.5 200.25L187.5 184.5L186.75 184.5L186.75 200.25zM187.5 216.75L187.5 201L186.75 201L186.75 216.75zM187.5 233.25L187.5 217.5L186.75 217.5L186.75 233.25zM187.5 259.5L187.5 234L186.75 234L186.75 259.5zM187.5 276L187.5 260.25L186.75 260.25L186.75 276zM187.5 292.5L187.5 276.75L186.75 276.75L186.75 292.5zM187.5 322.5L187.5 293.25L186.75 293.25L186.75 322.5zM187.5 352.5L187.5 323.25L186.75 323.25L186.75 352.5zM187.5 369L187.5 353.25L186.75 353.25L186.75 369zM187.5 399L187.5 369.75L186.75 369.75L186.75 399zM187.5 429L187.5 399.75L186.75 399.75L186.75 429zM187.5 445.5L187.5 429.75L186.75 429.75L186.75 445.5zM187.5 462L187.5 446.25L186.75 446.25L186.75 462zM187.5 478.5L187.5 462.75L186.75 462.75L186.75 478.5zM187.5 495L187.5 479.25L186.75 479.25L186.75 495zM187.5 525L187.5 495.75L186.75 495.75L186.75 525zM187.5 541.5L187.5 525.75L186.75 525.75L186.75 541.5zM111.75 78L111.75 62.25L111 62.25L111 78zM111.75 108L111.75 78.75L111 78.75L111 108zM111.75 134.25L111.75 108.75L111 108.75L111 134.25zM111.75 150.75L111.75 135L111 135L111 150.75zM111.75 167.25L111.75 151.5L111 151.5L111 167.25zM111.75 183.75L111.75 168L111 168L111 183.75zM111.75 200.25L111.75 184.5L111 184.5L111 200.25zM111.75 216.75L111.75 201L111 201L111 216.75zM111.75 233.25L111.75 217.5L111 217.5L111 233.25zM111.75 259.5L111.75 234L111 234L111 259.5zM111.75 276L111.75 260.25L111 260.25L111 276zM111.75 292.5L111.75 276.75L111 276.75L111 292.5zM111.75 322.5L111.75 293.25L111 293.25L111 322.5zM111.75 352.5L111.75 323.25L111 323.25L111 352.5zM111.75 369L111.75 353.25L111 353.25L111 369zM111.75 399L111.75 369.75L111 369.75L111 399zM111.75 429L111.75 399.75L111 399.75L111 429zM111.75 445.5L111.75 429.75L111 429.75L111 445.5zM111.75 462L111.75 446.25L111 446.25L111 462zM111.75 478.5L111.75 462.75L111 462.75L111 478.5zM111.75 495L111.75 479.25L111 479.25L111 495zM111.75 525L111.75 495.75L111 495.75L111 525zM111.75 541.5L111.75 525.75L111 525.75L111 541.5z" stroke="none" fill="#000000" fill-rule="nonzero" fill-opacity="0.1490196" /><path id="108" transform="matrix(1 0 0 -1 0 612)" d="M189.75 528.2827L424.9449 528.2827" stroke="#1155CC" stroke-width="0.7141113" fill="none" /><path id="150" transform="matrix(1 0 0 -1 0 612)" d="M189.75 498.2827L295.429 498.2827" stroke="#1155CC" stroke-width="0.7141113" fill="none" /><path id="222" transform="matrix(1 0 0 -1 0 612)" d="M189.75 481.7827L492.6475 481.7827" stroke="#1155CC" stroke-width="0.7141113" fill="none" /><path id="265" transform="matrix(1 0 0 -1 0 612)" d="M189.75 465.2827L327.3926 465.2827" stroke="#1155CC" stroke-width="0.7141113" fill="none" /><path id="347" transform="matrix(1 0 0 -1 0 612)" d="M189.75 448.7827L551.257 448.7827" stroke="#1155CC" stroke-width="0.7141113" fill="none" /><path id="403" transform="matrix(1 0 0 -1 0 612)" d="M189.75 432.2827L411.4149 432.2827" stroke="#1155CC" stroke-width="0.7141113" fill="none" /><path id="448" transform="matrix(1 0 0 -1 0 612)" d="M189.75 402.2827L308.4305 402.2827" stroke="#1155CC" stroke-width="0.7141113" fill="none" /><path id="529" transform="matrix(1 0 0 -1 0 612)" d="M189.75 372.2827L502.8307 372.2827" stroke="#1155CC" stroke-width="0.7141113" fill="none" /><path id="608" transform="matrix(1 0 0 -1 0 612)" d="M189.75 355.7827L520.3312 355.7827" stroke="#1155CC" stroke-width="0.7141113" fill="none" /><path id="691" transform="matrix(1 0 0 -1 0 612)" d="M189.75 325.7827L502.4832 325.7827" stroke="#1155CC" stroke-width="0.7141113" fill="none" /><path id="761" transform="matrix(1 0 0 -1 0 612)" d="M189.75 295.7827L421.1506 295.7827" stroke="#1155CC" stroke-width="0.7141113" fill="none" /><path id="841" transform="matrix(1 0 0 -1 0 612)" d="M189.75 279.2827L526.8915 279.2827" stroke="#1155CC" stroke-width="0.7141113" fill="none" /><path id="915" transform="matrix(1 0 0 -1 0 612)" d="M189.75 262.7827L501.5691 262.7827" stroke="#1155CC" stroke-width="0.7141113" fill="none" /><path id="1001" transform="matrix(1 0 0 -1 0 612)" d="M189.75 247.7446L578.3789 247.7446" stroke="#1155CC" stroke-width="0.7141113" fill="none" /><path id="1034" transform="matrix(1 0 0 -1 0 612)" d="M189.75 236.5327L337.1616 236.5327" stroke="#1155CC" stroke-width="0.7141113" fill="none" /><path id="1107" transform="matrix(1 0 0 -1 0 612)" d="M189.75 220.0327L483.8353 220.0327" stroke="#1155CC" stroke-width="0.7141113" fill="none" /><path id="1189" transform="matrix(1 0 0 -1 0 612)" d="M189.75 203.5327L531.1666 203.5327" stroke="#1155CC" stroke-width="0.7141113" fill="none" /><path id="1248" transform="matrix(1 0 0 -1 0 612)" d="M189.75 187.0327L423.8833 187.0327" stroke="#1155CC" stroke-width="0.7141113" fill="none" /><path id="1336" transform="matrix(1 0 0 -1 0 612)" d="M189.75 170.5327L553.7706 170.5327" stroke="#1155CC" stroke-width="0.7141113" fill="none" /><path id="1397" transform="matrix(1 0 0 -1 0 612)" d="M189.75 154.0327L435.1567 154.0327" stroke="#1155CC" stroke-width="0.7141113" fill="none" /><path id="1470" transform="matrix(1 0 0 -1 0 612)" d="M189.75 137.5327L489.9814 137.5327" stroke="#1155CC" stroke-width="0.7141113" fill="none" /><path id="1554" transform="matrix(1 0 0 -1 0 612)" d="M189.75 122.4946L600.7115 122.4946" stroke="#1155CC" stroke-width="0.7141113" fill="none" /><path id="1592" transform="matrix(1 0 0 -1 0 612)" d="M189.75 111.2827L369.1157 111.2827" stroke="#1155CC" stroke-width="0.7141113" fill="none" /><path id="1659" transform="matrix(1 0 0 -1 0 612)" d="M189.75 81.28271L404.8784 81.28271" stroke="#1155CC" stroke-width="0.7141113" fill="none" /><path id="1741" transform="matrix(1 0 0 -1 0 612)" d="M189.75 64.78271L515.9656 64.78271" stroke="#1155CC" stroke-width="0.7141113" fill="none" /></g></g></g></svg>