<svg xmlns="http://www.w3.org/2000/svg" xmlns:xlink="http://www.w3.org/1999/xlink" id="body_7" preserveAspectRatio="xMinYMin meet" viewBox="0 0 1056 816"><defs><clipPath id="1"><path id="" clip-rule="evenodd" transform="matrix(1 0 0 1 0 0)" d="M0 612L0 0L0 0L792 0L792 0L792 612L792 612L0 612z" /></clipPath><clipPath id="2"><path id="" clip-rule="evenodd" transform="matrix(1 0 0 1 0 0)" d="M110.25 52.5L681.75 52.5L681.75 52.5L681.75 69.75L681.75 69.75L110.25 69.75L110.25 69.75L110.25 52.5z" /></clipPath><clipPath id="3"><path id="" clip-rule="evenodd" transform="matrix(1 0 0 1 0 0)" d="M110.25 69L681.75 69L681.75 69L681.75 530.25L681.75 530.25L110.25 530.25L110.25 530.25L110.25 69z" /></clipPath></defs><g transform="matrix(1.333333 0 0 1.333333 0 0)"><g clip-path="url(#1)"><g clip-path="url(#2)"><path id="9" transform="matrix(1 0 0 -1 0 612)" d="M111 558.75L681 558.75L681 541.5L111 541.5L111 558.75z" stroke="none" fill="#63D297" fill-rule="nonzero" /><path id="10" transform="matrix(1 0 0 -1 0 612)" d="M111 542.25L681 542.25L681 541.5L111 541.5zM111 558.75L681 558.75L681 558L111 558zM681 558L681 542.25L680.25 542.25L680.25 558zM605.25 558L605.25 542.25L604.5 542.25L604.5 558zM187.5 558L187.5 542.25L186.75 542.25L186.75 558zM111.75 558L111.75 542.25L111 542.25L111 558z" stroke="none" fill="#000000" fill-rule="nonzero" fill-opacity="0.1490196" /></g><g clip-path="url(#3)"><path id="27" transform="matrix(1 0 0 -1 0 612)" d="M111 542.25L681 542.25L681 515.25L111 515.25L111 542.25z" stroke="none" fill="#FFFFFF" fill-rule="nonzero" /><path id="28" transform="matrix(1 0 0 -1 0 612)" d="M111 516L681 516L681 485.25L111 485.25L111 516z" stroke="none" fill="#E7F9EF" fill-rule="nonzero" /><path id="29" transform="matrix(1 0 0 -1 0 612)" d="M111 486L681 486L681 468.75L111 468.75L111 486z" stroke="none" fill="#FFFFFF" fill-rule="nonzero" /><path id="30" transform="matrix(1 0 0 -1 0 612)" d="M111 469.5L681 469.5L681 452.25L111 452.25L111 469.5z" stroke="none" fill="#E7F9EF" fill-rule="nonzero" /><path id="31" transform="matrix(1 0 0 -1 0 612)" d="M111 453L681 453L681 435.75L111 435.75L111 453z" stroke="none" fill="#FFFFFF" fill-rule="nonzero" /><path id="32" transform="matrix(1 0 0 -1 0 612)" d="M111 436.5L681 436.5L681 405.75L111 405.75L111 436.5z" stroke="none" fill="#E7F9EF" fill-rule="nonzero" /><path id="33" transform="matrix(1 0 0 -1 0 612)" d="M111 406.5L681 406.5L681 375.75L111 375.75L111 406.5z" stroke="none" fill="#FFFFFF" fill-rule="nonzero" /><path id="34" transform="matrix(1 0 0 -1 0 612)" d="M111 376.5L681 376.5L681 345.75L111 345.75L111 376.5z" stroke="none" fill="#E7F9EF" fill-rule="nonzero" /><path id="35" transform="matrix(1 0 0 -1 0 612)" d="M111 346.5L681 346.5L681 319.5L111 319.5L111 346.5z" stroke="none" fill="#FFFFFF" fill-rule="nonzero" /><path id="36" transform="matrix(1 0 0 -1 0 612)" d="M111 320.25L681 320.25L681 274.5L111 274.5L111 320.25z" stroke="none" fill="#E7F9EF" fill-rule="nonzero" /><path id="37" transform="matrix(1 0 0 -1 0 612)" d="M111 275.25L681 275.25L681 248.25L111 248.25L111 275.25z" stroke="none" fill="#FFFFFF" fill-rule="nonzero" /><path id="38" transform="matrix(1 0 0 -1 0 612)" d="M111 249L681 249L681 231.75L111 231.75L111 249z" stroke="none" fill="#E7F9EF" fill-rule="nonzero" /><path id="39" transform="matrix(1 0 0 -1 0 612)" d="M111 232.5L681 232.5L681 201.75L111 201.75L111 232.5z" stroke="none" fill="#FFFFFF" fill-rule="nonzero" /><path id="40" transform="matrix(1 0 0 -1 0 612)" d="M111 202.5L681 202.5L681 171.75L111 171.75L111 202.5z" stroke="none" fill="#E7F9EF" fill-rule="nonzero" /><path id="41" transform="matrix(1 0 0 -1 0 612)" d="M111 172.5L681 172.5L681 141.75L111 141.75L111 172.5z" stroke="none" fill="#FFFFFF" fill-rule="nonzero" /><path id="42" transform="matrix(1 0 0 -1 0 612)" d="M111 142.5L681 142.5L681 115.5L111 115.5L111 142.5z" stroke="none" fill="#E7F9EF" fill-rule="nonzero" /><path id="43" transform="matrix(1 0 0 -1 0 612)" d="M111 116.25L681 116.25L681 99L111 99L111 116.25z" stroke="none" fill="#FFFFFF" fill-rule="nonzero" /><path id="44" transform="matrix(1 0 0 -1 0 612)" d="M111 99.75L681 99.75L681 82.5L111 82.5L111 99.75z" stroke="none" fill="#E7F9EF" fill-rule="nonzero" /><path id="45" transform="matrix(1 0 0 -1 0 612)" d="M111 83.25L681 83.25L681 82.5L111 82.5zM111 99.75L681 99.75L681 99L111 99zM111 116.25L681 116.25L681 115.5L111 115.5zM111 142.5L681 142.5L681 141.75L111 141.75zM111 172.5L681 172.5L681 171.75L111 171.75zM111 202.5L681 202.5L681 201.75L111 201.75zM111 232.5L681 232.5L681 231.75L111 231.75zM111 249L681 249L681 248.25L111 248.25zM111 275.25L681 275.25L681 274.5L111 274.5zM111 320.25L681 320.25L681 319.5L111 319.5zM111 346.5L681 346.5L681 345.75L111 345.75zM111 376.5L681 376.5L681 375.75L111 375.75zM111 406.5L681 406.5L681 405.75L111 405.75zM111 436.5L681 436.5L681 435.75L111 435.75zM111 453L681 453L681 452.25L111 452.25zM111 469.5L681 469.5L681 468.75L111 468.75zM111 486L681 486L681 485.25L111 485.25zM111 516L681 516L681 515.25L111 515.25zM111 542.25L681 542.25L681 541.5L111 541.5zM681 99L681 83.25L680.25 83.25L680.25 99zM681 115.5L681 99.75L680.25 99.75L680.25 115.5zM681 141.75L681 116.25L680.25 116.25L680.25 141.75zM681 171.75L681 142.5L680.25 142.5L680.25 171.75zM681 201.75L681 172.5L680.25 172.5L680.25 201.75zM681 231.75L681 202.5L680.25 202.5L680.25 231.75zM681 248.25L681 232.5L680.25 232.5L680.25 248.25zM681 274.5L681 249L680.25 249L680.25 274.5zM681 319.5L681 275.25L680.25 275.25L680.25 319.5zM681 345.75L681 320.25L680.25 320.25L680.25 345.75zM681 375.75L681 346.5L680.25 346.5L680.25 375.75zM681 405.75L681 376.5L680.25 376.5L680.25 405.75zM681 435.75L681 406.5L680.25 406.5L680.25 435.75zM681 452.25L681 436.5L680.25 436.5L680.25 452.25zM681 468.75L681 453L680.25 453L680.25 468.75zM681 485.25L681 469.5L680.25 469.5L680.25 485.25zM681 515.25L681 486L680.25 486L680.25 515.25zM681 541.5L681 516L680.25 516L680.25 541.5zM605.25 99L605.25 83.25L604.5 83.25L604.5 99zM605.25 115.5L605.25 99.75L604.5 99.75L604.5 115.5zM605.25 141.75L605.25 116.25L604.5 116.25L604.5 141.75zM605.25 171.75L605.25 142.5L604.5 142.5L604.5 171.75zM605.25 201.75L605.25 172.5L604.5 172.5L604.5 201.75zM605.25 231.75L605.25 202.5L604.5 202.5L604.5 231.75zM605.25 248.25L605.25 232.5L604.5 232.5L604.5 248.25zM605.25 274.5L605.25 249L604.5 249L604.5 274.5zM605.25 319.5L605.25 275.25L604.5 275.25L604.5 319.5zM605.25 345.75L605.25 320.25L604.5 320.25L604.5 345.75zM605.25 375.75L605.25 346.5L604.5 346.5L604.5 375.75zM605.25 405.75L605.25 376.5L604.5 376.5L604.5 405.75zM605.25 435.75L605.25 406.5L604.5 406.5L604.5 435.75zM605.25 452.25L605.25 436.5L604.5 436.5L604.5 452.25zM605.25 468.75L605.25 453L604.5 453L604.5 468.75zM605.25 485.25L605.25 469.5L604.5 469.5L604.5 485.25zM605.25 515.25L605.25 486L604.5 486L604.5 515.25zM605.25 541.5L605.25 516L604.5 516L604.5 541.5zM187.5 99L187.5 83.25L186.75 83.25L186.75 99zM187.5 115.5L187.5 99.75L186.75 99.75L186.75 115.5zM187.5 141.75L187.5 116.25L186.75 116.25L186.75 141.75zM187.5 171.75L187.5 142.5L186.75 142.5L186.75 171.75zM187.5 201.75L187.5 172.5L186.75 172.5L186.75 201.75zM187.5 231.75L187.5 202.5L186.75 202.5L186.75 231.75zM187.5 248.25L187.5 232.5L186.75 232.5L186.75 248.25zM187.5 274.5L187.5 249L186.75 249L186.75 274.5zM187.5 319.5L187.5 275.25L186.75 275.25L186.75 319.5zM187.5 345.75L187.5 320.25L186.75 320.25L186.75 345.75zM187.5 375.75L187.5 346.5L186.75 346.5L186.75 375.75zM187.5 405.75L187.5 376.5L186.75 376.5L186.75 405.75zM187.5 435.75L187.5 406.5L186.75 406.5L186.75 435.75zM187.5 452.25L187.5 436.5L186.75 436.5L186.75 452.25zM187.5 468.75L187.5 453L186.75 453L186.75 468.75zM187.5 485.25L187.5 469.5L186.75 469.5L186.75 485.25zM187.5 515.25L187.5 486L186.75 486L186.75 515.25zM187.5 541.5L187.5 516L186.75 516L186.75 541.5zM111.75 99L111.75 83.25L111 83.25L111 99zM111.75 115.5L111.75 99.75L111 99.75L111 115.5zM111.75 141.75L111.75 116.25L111 116.25L111 141.75zM111.75 171.75L111.75 142.5L111 142.5L111 171.75zM111.75 201.75L111.75 172.5L111 172.5L111 201.75zM111.75 231.75L111.75 202.5L111 202.5L111 231.75zM111.75 248.25L111.75 232.5L111 232.5L111 248.25zM111.75 274.5L111.75 249L111 249L111 274.5zM111.75 319.5L111.75 275.25L111 275.25L111 319.5zM111.75 345.75L111.75 320.25L111 320.25L111 345.75zM111.75 375.75L111.75 346.5L111 346.5L111 375.75zM111.75 405.75L111.75 376.5L111 376.5L111 405.75zM111.75 435.75L111.75 406.5L111 406.5L111 435.75zM111.75 452.25L111.75 436.5L111 436.5L111 452.25zM111.75 468.75L111.75 453L111 453L111 468.75zM111.75 485.25L111.75 469.5L111 469.5L111 485.25zM111.75 515.25L111.75 486L111 486L111 515.25zM111.75 541.5L111.75 516L111 516L111 541.5z" stroke="none" fill="#000000" fill-rule="nonzero" fill-opacity="0.1490196" /><path id="133" transform="matrix(1 0 0 -1 0 612)" d="M189.75 529.7446L604.3107 529.7446" stroke="#1155CC" stroke-width="0.7141113" fill="none" /><path id="168" transform="matrix(1 0 0 -1 0 612)" d="M189.75 518.5332L353.5909 518.5332" stroke="#1155CC" stroke-width="0.7141113" fill="none" /><path id="256" transform="matrix(1 0 0 -1 0 612)" d="M189.75 488.5332L503.0211 488.5332" stroke="#1155CC" stroke-width="0.7141113" fill="none" /><path id="317" transform="matrix(1 0 0 -1 0 612)" d="M189.75 472.0332L443.3214 472.0332" stroke="#1155CC" stroke-width="0.7141113" fill="none" /><path id="375" transform="matrix(1 0 0 -1 0 612)" d="M189.75 455.5332L421.1459 455.5332" stroke="#1155CC" stroke-width="0.7141113" fill="none" /><path id="446" transform="matrix(1 0 0 -1 0 612)" d="M189.75 439.0332L501.5358 439.0332" stroke="#1155CC" stroke-width="0.7141113" fill="none" /><path id="530" transform="matrix(1 0 0 -1 0 612)" d="M189.75 409.0332L507.1487 409.0332" stroke="#1155CC" stroke-width="0.7141113" fill="none" /><path id="622" transform="matrix(1 0 0 -1 0 612)" d="M189.75 379.0332L519.2314 379.0332" stroke="#1155CC" stroke-width="0.7141113" fill="none" /><path id="707" transform="matrix(1 0 0 -1 0 612)" d="M189.75 349.0332L530.6287 349.0332" stroke="#1155CC" stroke-width="0.7141113" fill="none" /><path id="803" transform="matrix(1 0 0 -1 0 612)" d="M189.75 333.9946L602.1921 333.9946" stroke="#1155CC" stroke-width="0.7141113" fill="none" /><path id="838" transform="matrix(1 0 0 -1 0 612)" d="M189.75 322.7832L363.1838 322.7832" stroke="#1155CC" stroke-width="0.7141113" fill="none" /><path id="919" transform="matrix(1 0 0 -1 0 612)" d="M189.75 277.7832L460.1744 277.7832" stroke="#1155CC" stroke-width="0.7141113" fill="none" /><path id="1006" transform="matrix(1 0 0 -1 0 612)" d="M189.75 262.7446L581.4353 262.7446" stroke="#1155CC" stroke-width="0.7141113" fill="none" /><path id="1018" transform="matrix(1 0 0 -1 0 612)" d="M189.75 251.5332L237.9811 251.5332" stroke="#1155CC" stroke-width="0.7141113" fill="none" /><path id="1109" transform="matrix(1 0 0 -1 0 612)" d="M189.75 235.0332L568.548 235.0332" stroke="#1155CC" stroke-width="0.7141113" fill="none" /><path id="1140" transform="matrix(1 0 0 -1 0 612)" d="M189.75 205.0332L249.3545 205.0332" stroke="#1155CC" stroke-width="0.7141113" fill="none" /><path id="1242" transform="matrix(1 0 0 -1 0 612)" d="M189.75 186.2446L590.7616 186.2446" stroke="#1155CC" stroke-width="0.7141113" fill="none" /><path id="1250" transform="matrix(1 0 0 -1 0 612)" d="M189.75 175.0332L219 175.0332" stroke="#1155CC" stroke-width="0.7141113" fill="none" /><path id="1342" transform="matrix(1 0 0 -1 0 612)" d="M189.75 145.0332L551.2522 145.0332" stroke="#1155CC" stroke-width="0.7141113" fill="none" /><path id="1440" transform="matrix(1 0 0 -1 0 612)" d="M189.75 129.9946L590.1379 129.9946" stroke="#1155CC" stroke-width="0.7141113" fill="none" /><path id="1456" transform="matrix(1 0 0 -1 0 612)" d="M189.75 118.7832L254.2343 118.7832" stroke="#1155CC" stroke-width="0.7141113" fill="none" /><path id="1497" transform="matrix(1 0 0 -1 0 612)" d="M189.75 102.2832L345.7833 102.2832" stroke="#1155CC" stroke-width="0.7141113" fill="none" /><path id="1529" transform="matrix(1 0 0 -1 0 612)" d="M189.75 85.7832L314.3862 85.7832" stroke="#1155CC" stroke-width="0.7141113" fill="none" /></g></g></g></svg>