<svg xmlns="http://www.w3.org/2000/svg" xmlns:xlink="http://www.w3.org/1999/xlink" id="body_4" preserveAspectRatio="xMinYMin meet" viewBox="0 0 1056 816"><defs><clipPath id="1"><path id="" clip-rule="evenodd" transform="matrix(1 0 0 1 0 0)" d="M0 612L0 0L0 0L792 0L792 0L792 612L792 612L0 612z" /></clipPath><clipPath id="2"><path id="" clip-rule="evenodd" transform="matrix(1 0 0 1 0 0)" d="M110.25 52.5L681.75 52.5L681.75 52.5L681.75 69.75L681.75 69.75L110.25 69.75L110.25 69.75L110.25 52.5z" /></clipPath><clipPath id="3"><path id="" clip-rule="evenodd" transform="matrix(1 0 0 1 0 0)" d="M110.25 69L681.75 69L681.75 69L681.75 543L681.75 543L110.25 543L110.25 543L110.25 69z" /></clipPath></defs><g transform="matrix(1.333333 0 0 1.333333 0 0)"><g clip-path="url(#1)"><g clip-path="url(#2)"><path id="9" transform="matrix(1 0 0 -1 0 612)" d="M111 558.75L681 558.75L681 541.5L111 541.5L111 558.75z" stroke="none" fill="#63D297" fill-rule="nonzero" /><path id="10" transform="matrix(1 0 0 -1 0 612)" d="M111 542.25L681 542.25L681 541.5L111 541.5zM111 558.75L681 558.75L681 558L111 558zM681 558L681 542.25L680.25 542.25L680.25 558zM605.25 558L605.25 542.25L604.5 542.25L604.5 558zM187.5 558L187.5 542.25L186.75 542.25L186.75 558zM111.75 558L111.75 542.25L111 542.25L111 558z" stroke="none" fill="#000000" fill-rule="nonzero" fill-opacity="0.1490196" /></g><g clip-path="url(#3)"><path id="27" transform="matrix(1 0 0 -1 0 612)" d="M111 542.25L681 542.25L681 525L111 525L111 542.25z" stroke="none" fill="#E7F9EF" fill-rule="nonzero" /><path id="28" transform="matrix(1 0 0 -1 0 612)" d="M111 525.75L681 525.75L681 508.5L111 508.5L111 525.75z" stroke="none" fill="#FFFFFF" fill-rule="nonzero" /><path id="29" transform="matrix(1 0 0 -1 0 612)" d="M111 509.25L681 509.25L681 482.25L111 482.25L111 509.25z" stroke="none" fill="#E7F9EF" fill-rule="nonzero" /><path id="30" transform="matrix(1 0 0 -1 0 612)" d="M111 483L681 483L681 452.25L111 452.25L111 483z" stroke="none" fill="#FFFFFF" fill-rule="nonzero" /><path id="31" transform="matrix(1 0 0 -1 0 612)" d="M111 453L681 453L681 435.75L111 435.75L111 453z" stroke="none" fill="#E7F9EF" fill-rule="nonzero" /><path id="32" transform="matrix(1 0 0 -1 0 612)" d="M111 436.5L681 436.5L681 419.25L111 419.25L111 436.5z" stroke="none" fill="#FFFFFF" fill-rule="nonzero" /><path id="33" transform="matrix(1 0 0 -1 0 612)" d="M111 420L681 420L681 402.75L111 402.75L111 420z" stroke="none" fill="#E7F9EF" fill-rule="nonzero" /><path id="34" transform="matrix(1 0 0 -1 0 612)" d="M111 403.5L681 403.5L681 372.75L111 372.75L111 403.5z" stroke="none" fill="#FFFFFF" fill-rule="nonzero" /><path id="35" transform="matrix(1 0 0 -1 0 612)" d="M111 373.5L681 373.5L681 356.25L111 356.25L111 373.5z" stroke="none" fill="#E7F9EF" fill-rule="nonzero" /><path id="36" transform="matrix(1 0 0 -1 0 612)" d="M111 357L681 357L681 339.75L111 339.75L111 357z" stroke="none" fill="#FFFFFF" fill-rule="nonzero" /><path id="37" transform="matrix(1 0 0 -1 0 612)" d="M111 340.5L681 340.5L681 313.5L111 313.5L111 340.5z" stroke="none" fill="#E7F9EF" fill-rule="nonzero" /><path id="38" transform="matrix(1 0 0 -1 0 612)" d="M111 314.25L681 314.25L681 287.25L111 287.25L111 314.25z" stroke="none" fill="#FFFFFF" fill-rule="nonzero" /><path id="39" transform="matrix(1 0 0 -1 0 612)" d="M111 288L681 288L681 261L111 261L111 288z" stroke="none" fill="#E7F9EF" fill-rule="nonzero" /><path id="40" transform="matrix(1 0 0 -1 0 612)" d="M111 261.75L681 261.75L681 244.5L111 244.5L111 261.75z" stroke="none" fill="#FFFFFF" fill-rule="nonzero" /><path id="41" transform="matrix(1 0 0 -1 0 612)" d="M111 245.25L681 245.25L681 218.25L111 218.25L111 245.25z" stroke="none" fill="#E7F9EF" fill-rule="nonzero" /><path id="42" transform="matrix(1 0 0 -1 0 612)" d="M111 219L681 219L681 201.75L111 201.75L111 219z" stroke="none" fill="#FFFFFF" fill-rule="nonzero" /><path id="43" transform="matrix(1 0 0 -1 0 612)" d="M111 202.5L681 202.5L681 185.25L111 185.25L111 202.5z" stroke="none" fill="#E7F9EF" fill-rule="nonzero" /><path id="44" transform="matrix(1 0 0 -1 0 612)" d="M111 186L681 186L681 168.75L111 168.75L111 186z" stroke="none" fill="#FFFFFF" fill-rule="nonzero" /><path id="45" transform="matrix(1 0 0 -1 0 612)" d="M111 169.5L681 169.5L681 142.5L111 142.5L111 169.5z" stroke="none" fill="#E7F9EF" fill-rule="nonzero" /><path id="46" transform="matrix(1 0 0 -1 0 612)" d="M111 143.25L681 143.25L681 116.25L111 116.25L111 143.25z" stroke="none" fill="#FFFFFF" fill-rule="nonzero" /><path id="47" transform="matrix(1 0 0 -1 0 612)" d="M111 117L681 117L681 99.75L111 99.75L111 117z" stroke="none" fill="#E7F9EF" fill-rule="nonzero" /><path id="48" transform="matrix(1 0 0 -1 0 612)" d="M111 100.5L681 100.5L681 69.75L111 69.75L111 100.5z" stroke="none" fill="#FFFFFF" fill-rule="nonzero" /><path id="49" transform="matrix(1 0 0 -1 0 612)" d="M111 70.5L681 70.5L681 69.75L111 69.75zM111 100.5L681 100.5L681 99.75L111 99.75zM111 117L681 117L681 116.25L111 116.25zM111 143.25L681 143.25L681 142.5L111 142.5zM111 169.5L681 169.5L681 168.75L111 168.75zM111 186L681 186L681 185.25L111 185.25zM111 202.5L681 202.5L681 201.75L111 201.75zM111 219L681 219L681 218.25L111 218.25zM111 245.25L681 245.25L681 244.5L111 244.5zM111 261.75L681 261.75L681 261L111 261zM111 288L681 288L681 287.25L111 287.25zM111 314.25L681 314.25L681 313.5L111 313.5zM111 340.5L681 340.5L681 339.75L111 339.75zM111 357L681 357L681 356.25L111 356.25zM111 373.5L681 373.5L681 372.75L111 372.75zM111 403.5L681 403.5L681 402.75L111 402.75zM111 420L681 420L681 419.25L111 419.25zM111 436.5L681 436.5L681 435.75L111 435.75zM111 453L681 453L681 452.25L111 452.25zM111 483L681 483L681 482.25L111 482.25zM111 509.25L681 509.25L681 508.5L111 508.5zM111 525.75L681 525.75L681 525L111 525zM111 542.25L681 542.25L681 541.5L111 541.5zM681 99.75L681 70.5L680.25 70.5L680.25 99.75zM681 116.25L681 100.5L680.25 100.5L680.25 116.25zM681 142.5L681 117L680.25 117L680.25 142.5zM681 168.75L681 143.25L680.25 143.25L680.25 168.75zM681 185.25L681 169.5L680.25 169.5L680.25 185.25zM681 201.75L681 186L680.25 186L680.25 201.75zM681 218.25L681 202.5L680.25 202.5L680.25 218.25zM681 244.5L681 219L680.25 219L680.25 244.5zM681 261L681 245.25L680.25 245.25L680.25 261zM681 287.25L681 261.75L680.25 261.75L680.25 287.25zM681 313.5L681 288L680.25 288L680.25 313.5zM681 339.75L681 314.25L680.25 314.25L680.25 339.75zM681 356.25L681 340.5L680.25 340.5L680.25 356.25zM681 372.75L681 357L680.25 357L680.25 372.75zM681 402.75L681 373.5L680.25 373.5L680.25 402.75zM681 419.25L681 403.5L680.25 403.5L680.25 419.25zM681 435.75L681 420L680.25 420L680.25 435.75zM681 452.25L681 436.5L680.25 436.5L680.25 452.25zM681 482.25L681 453L680.25 453L680.25 482.25zM681 508.5L681 483L680.25 483L680.25 508.5zM681 525L681 509.25L680.25 509.25L680.25 525zM681 541.5L681 525.75L680.25 525.75L680.25 541.5zM605.25 99.75L605.25 70.5L604.5 70.5L604.5 99.75zM605.25 116.25L605.25 100.5L604.5 100.5L604.5 116.25zM605.25 142.5L605.25 117L604.5 117L604.5 142.5zM605.25 168.75L605.25 143.25L604.5 143.25L604.5 168.75zM605.25 185.25L605.25 169.5L604.5 169.5L604.5 185.25zM605.25 201.75L605.25 186L604.5 186L604.5 201.75zM605.25 218.25L605.25 202.5L604.5 202.5L604.5 218.25zM605.25 244.5L605.25 219L604.5 219L604.5 244.5zM605.25 261L605.25 245.25L604.5 245.25L604.5 261zM605.25 287.25L605.25 261.75L604.5 261.75L604.5 287.25zM605.25 313.5L605.25 288L604.5 288L604.5 313.5zM605.25 339.75L605.25 314.25L604.5 314.25L604.5 339.75zM605.25 356.25L605.25 340.5L604.5 340.5L604.5 356.25zM605.25 372.75L605.25 357L604.5 357L604.5 372.75zM605.25 402.75L605.25 373.5L604.5 373.5L604.5 402.75zM605.25 419.25L605.25 403.5L604.5 403.5L604.5 419.25zM605.25 435.75L605.25 420L604.5 420L604.5 435.75zM605.25 452.25L605.25 436.5L604.5 436.5L604.5 452.25zM605.25 482.25L605.25 453L604.5 453L604.5 482.25zM605.25 508.5L605.25 483L604.5 483L604.5 508.5zM605.25 525L605.25 509.25L604.5 509.25L604.5 525zM605.25 541.5L605.25 525.75L604.5 525.75L604.5 541.5zM187.5 99.75L187.5 70.5L186.75 70.5L186.75 99.75zM187.5 116.25L187.5 100.5L186.75 100.5L186.75 116.25zM187.5 142.5L187.5 117L186.75 117L186.75 142.5zM187.5 168.75L187.5 143.25L186.75 143.25L186.75 168.75zM187.5 185.25L187.5 169.5L186.75 169.5L186.75 185.25zM187.5 201.75L187.5 186L186.75 186L186.75 201.75zM187.5 218.25L187.5 202.5L186.75 202.5L186.75 218.25zM187.5 244.5L187.5 219L186.75 219L186.75 244.5zM187.5 261L187.5 245.25L186.75 245.25L186.75 261zM187.5 287.25L187.5 261.75L186.75 261.75L186.75 287.25zM187.5 313.5L187.5 288L186.75 288L186.75 313.5zM187.5 339.75L187.5 314.25L186.75 314.25L186.75 339.75zM187.5 356.25L187.5 340.5L186.75 340.5L186.75 356.25zM187.5 372.75L187.5 357L186.75 357L186.75 372.75zM187.5 402.75L187.5 373.5L186.75 373.5L186.75 402.75zM187.5 419.25L187.5 403.5L186.75 403.5L186.75 419.25zM187.5 435.75L187.5 420L186.75 420L186.75 435.75zM187.5 452.25L187.5 436.5L186.75 436.5L186.75 452.25zM187.5 482.25L187.5 453L186.75 453L186.75 482.25zM187.5 508.5L187.5 483L186.75 483L186.75 508.5zM187.5 525L187.5 509.25L186.75 509.25L186.75 525zM187.5 541.5L187.5 525.75L186.75 525.75L186.75 541.5zM111.75 99.75L111.75 70.5L111 70.5L111 99.75zM111.75 116.25L111.75 100.5L111 100.5L111 116.25zM111.75 142.5L111.75 117L111 117L111 142.5zM111.75 168.75L111.75 143.25L111 143.25L111 168.75zM111.75 185.25L111.75 169.5L111 169.5L111 185.25zM111.75 201.75L111.75 186L111 186L111 201.75zM111.75 218.25L111.75 202.5L111 202.5L111 218.25zM111.75 244.5L111.75 219L111 219L111 244.5zM111.75 261L111.75 245.25L111 245.25L111 261zM111.75 287.25L111.75 261.75L111 261.75L111 287.25zM111.75 313.5L111.75 288L111 288L111 313.5zM111.75 339.75L111.75 314.25L111 314.25L111 339.75zM111.75 356.25L111.75 340.5L111 340.5L111 356.25zM111.75 372.75L111.75 357L111 357L111 372.75zM111.75 402.75L111.75 373.5L111 373.5L111 402.75zM111.75 419.25L111.75 403.5L111 403.5L111 419.25zM111.75 435.75L111.75 420L111 420L111 435.75zM111.75 452.25L111.75 436.5L111 436.5L111 452.25zM111.75 482.25L111.75 453L111 453L111 482.25zM111.75 508.5L111.75 483L111 483L111 508.5zM111.75 525L111.75 509.25L111 509.25L111 525zM111.75 541.5L111.75 525.75L111 525.75L111 541.5z" stroke="none" fill="#000000" fill-rule="nonzero" fill-opacity="0.1490196" /><path id="106" transform="matrix(1 0 0 -1 0 612)" d="M189.75 528.2831L422.7598 528.2831" stroke="#1155CC" stroke-width="0.7141113" fill="none" /><path id="169" transform="matrix(1 0 0 -1 0 612)" d="M189.75 511.7831L452.543 511.7831" stroke="#1155CC" stroke-width="0.7141113" fill="none" /><path id="264" transform="matrix(1 0 0 -1 0 612)" d="M189.75 496.7446L595.0463 496.7446" stroke="#1155CC" stroke-width="0.7141113" fill="none" /><path id="313" transform="matrix(1 0 0 -1 0 612)" d="M189.75 485.5331L448.2583 485.5331" stroke="#1155CC" stroke-width="0.7141113" fill="none" /><path id="411" transform="matrix(1 0 0 -1 0 612)" d="M189.75 466.7446L583.7728 466.7446" stroke="#1155CC" stroke-width="0.7141113" fill="none" /><path id="432" transform="matrix(1 0 0 -1 0 612)" d="M189.75 455.5331L294.3625 455.5331" stroke="#1155CC" stroke-width="0.7141113" fill="none" /><path id="466" transform="matrix(1 0 0 -1 0 612)" d="M189.75 439.0331L296.4954 439.0331" stroke="#1155CC" stroke-width="0.7141113" fill="none" /><path id="519" transform="matrix(1 0 0 -1 0 612)" d="M189.75 422.5331L377.7898 422.5331" stroke="#1155CC" stroke-width="0.7141113" fill="none" /><path id="565" transform="matrix(1 0 0 -1 0 612)" d="M189.75 406.0331L339.3278 406.0331" stroke="#1155CC" stroke-width="0.7141113" fill="none" /><path id="660" transform="matrix(1 0 0 -1 0 612)" d="M189.75 387.2446L562.9636 387.2446" stroke="#1155CC" stroke-width="0.7141113" fill="none" /><path id="697" transform="matrix(1 0 0 -1 0 612)" d="M189.75 376.0331L354.5098 376.0331" stroke="#1155CC" stroke-width="0.7141113" fill="none" /><path id="751" transform="matrix(1 0 0 -1 0 612)" d="M189.75 359.5331L414.6665 359.5331" stroke="#1155CC" stroke-width="0.7141113" fill="none" /><path id="829" transform="matrix(1 0 0 -1 0 612)" d="M189.75 343.0331L506.4679 343.0331" stroke="#1155CC" stroke-width="0.7141113" fill="none" /><path id="921" transform="matrix(1 0 0 -1 0 612)" d="M189.75 327.9946L583.0349 327.9946" stroke="#1155CC" stroke-width="0.7141113" fill="none" /><path id="932" transform="matrix(1 0 0 -1 0 612)" d="M189.75 316.7831L240.7042 316.7831" stroke="#1155CC" stroke-width="0.7141113" fill="none" /><path id="1027" transform="matrix(1 0 0 -1 0 612)" d="M189.75 301.7446L596.0175 301.7446" stroke="#1155CC" stroke-width="0.7141113" fill="none" /><path id="1035" transform="matrix(1 0 0 -1 0 612)" d="M189.75 290.5331L224.9604 290.5331" stroke="#1155CC" stroke-width="0.7141113" fill="none" /><path id="1128" transform="matrix(1 0 0 -1 0 612)" d="M189.75 275.4946L587.5148 275.4946" stroke="#1155CC" stroke-width="0.7141113" fill="none" /><path id="1185" transform="matrix(1 0 0 -1 0 612)" d="M189.75 264.2831L462.3549 264.2831" stroke="#1155CC" stroke-width="0.7141113" fill="none" /><path id="1264" transform="matrix(1 0 0 -1 0 612)" d="M189.75 247.7831L499.5886 247.7831" stroke="#1155CC" stroke-width="0.7141113" fill="none" /><path id="1353" transform="matrix(1 0 0 -1 0 612)" d="M189.75 232.7446L590.8235 232.7446" stroke="#1155CC" stroke-width="0.7141113" fill="none" /><path id="1361" transform="matrix(1 0 0 -1 0 612)" d="M189.75 221.5331L222.2754 221.5331" stroke="#1155CC" stroke-width="0.7141113" fill="none" /><path id="1434" transform="matrix(1 0 0 -1 0 612)" d="M189.75 205.0331L495.3611 205.0331" stroke="#1155CC" stroke-width="0.7141113" fill="none" /><path id="1489" transform="matrix(1 0 0 -1 0 612)" d="M189.75 188.5331L394.0525 188.5331" stroke="#1155CC" stroke-width="0.7141113" fill="none" /><path id="1564" transform="matrix(1 0 0 -1 0 612)" d="M189.75 172.0331L499.2316 172.0331" stroke="#1155CC" stroke-width="0.7141113" fill="none" /><path id="1658" transform="matrix(1 0 0 -1 0 612)" d="M189.75 156.9946L604.344 156.9946" stroke="#1155CC" stroke-width="0.7141113" fill="none" /><path id="1676" transform="matrix(1 0 0 -1 0 612)" d="M189.75 145.7831L264.5365 145.7831" stroke="#1155CC" stroke-width="0.7141113" fill="none" /><path id="1765" transform="matrix(1 0 0 -1 0 612)" d="M189.75 130.7446L589.1477 130.7446" stroke="#1155CC" stroke-width="0.7141113" fill="none" /><path id="1818" transform="matrix(1 0 0 -1 0 612)" d="M189.75 119.5331L459.4603 119.5331" stroke="#1155CC" stroke-width="0.7141113" fill="none" /><path id="1892" transform="matrix(1 0 0 -1 0 612)" d="M189.75 103.0331L520.3502 103.0331" stroke="#1155CC" stroke-width="0.7141113" fill="none" /><path id="1971" transform="matrix(1 0 0 -1 0 612)" d="M189.75 73.03308L483.5116 73.03308" stroke="#1155CC" stroke-width="0.7141113" fill="none" /></g></g></g></svg>