<svg xmlns="http://www.w3.org/2000/svg" xmlns:xlink="http://www.w3.org/1999/xlink" id="body_12" preserveAspectRatio="xMinYMin meet" viewBox="0 0 1056 816"><defs><clipPath id="1"><path id="" clip-rule="evenodd" transform="matrix(1 0 0 1 0 0)" d="M0 612L0 0L0 0L792 0L792 0L792 612L792 612L0 612z" /></clipPath><clipPath id="2"><path id="" clip-rule="evenodd" transform="matrix(1 0 0 1 0 0)" d="M110.25 52.5L681.75 52.5L681.75 52.5L681.75 69.75L681.75 69.75L110.25 69.75L110.25 69.75L110.25 52.5z" /></clipPath><clipPath id="3"><path id="" clip-rule="evenodd" transform="matrix(1 0 0 1 0 0)" d="M110.25 69L681.75 69L681.75 69L681.75 552.75L681.75 552.75L110.25 552.75L110.25 552.75L110.25 69z" /></clipPath></defs><g transform="matrix(1.333333 0 0 1.333333 0 0)"><g clip-path="url(#1)"><g clip-path="url(#2)"><path id="10" transform="matrix(1 0 0 -1 0 612)" d="M111 558.75L681 558.75L681 541.5L111 541.5L111 558.75z" stroke="none" fill="#63D297" fill-rule="nonzero" /><path id="11" transform="matrix(1 0 0 -1 0 612)" d="M111 542.25L681 542.25L681 541.5L111 541.5zM111 558.75L681 558.75L681 558L111 558zM681 558L681 542.25L680.25 542.25L680.25 558zM605.25 558L605.25 542.25L604.5 542.25L604.5 558zM187.5 558L187.5 542.25L186.75 542.25L186.75 558zM111.75 558L111.75 542.25L111 542.25L111 558z" stroke="none" fill="#000000" fill-rule="nonzero" fill-opacity="0.1490196" /></g><g clip-path="url(#3)"><path id="28" transform="matrix(1 0 0 -1 0 612)" d="M111 542.25L681 542.25L681 525L111 525L111 542.25z" stroke="none" fill="#FFFFFF" fill-rule="nonzero" /><path id="29" transform="matrix(1 0 0 -1 0 612)" d="M111 525.75L681 525.75L681 498.75L111 498.75L111 525.75z" stroke="none" fill="#E7F9EF" fill-rule="nonzero" /><path id="30" transform="matrix(1 0 0 -1 0 612)" d="M111 499.5L681 499.5L681 472.5L111 472.5L111 499.5z" stroke="none" fill="#FFFFFF" fill-rule="nonzero" /><path id="31" transform="matrix(1 0 0 -1 0 612)" d="M111 473.25L681 473.25L681 456L111 456L111 473.25z" stroke="none" fill="#E7F9EF" fill-rule="nonzero" /><path id="32" transform="matrix(1 0 0 -1 0 612)" d="M111 456.75L681 456.75L681 429.75L111 429.75L111 456.75z" stroke="none" fill="#FFFFFF" fill-rule="nonzero" /><path id="33" transform="matrix(1 0 0 -1 0 612)" d="M111 430.5L681 430.5L681 413.25L111 413.25L111 430.5z" stroke="none" fill="#E7F9EF" fill-rule="nonzero" /><path id="34" transform="matrix(1 0 0 -1 0 612)" d="M111 414L681 414L681 396.75L111 396.75L111 414z" stroke="none" fill="#FFFFFF" fill-rule="nonzero" /><path id="35" transform="matrix(1 0 0 -1 0 612)" d="M111 397.5L681 397.5L681 370.5L111 370.5L111 397.5z" stroke="none" fill="#E7F9EF" fill-rule="nonzero" /><path id="36" transform="matrix(1 0 0 -1 0 612)" d="M111 371.25L681 371.25L681 354L111 354L111 371.25z" stroke="none" fill="#FFFFFF" fill-rule="nonzero" /><path id="37" transform="matrix(1 0 0 -1 0 612)" d="M111 354.75L681 354.75L681 337.5L111 337.5L111 354.75z" stroke="none" fill="#E7F9EF" fill-rule="nonzero" /><path id="38" transform="matrix(1 0 0 -1 0 612)" d="M111 338.25L681 338.25L681 321L111 321L111 338.25z" stroke="none" fill="#FFFFFF" fill-rule="nonzero" /><path id="39" transform="matrix(1 0 0 -1 0 612)" d="M111 321.75L681 321.75L681 304.5L111 304.5L111 321.75z" stroke="none" fill="#E7F9EF" fill-rule="nonzero" /><path id="40" transform="matrix(1 0 0 -1 0 612)" d="M111 305.25L681 305.25L681 278.25L111 278.25L111 305.25z" stroke="none" fill="#FFFFFF" fill-rule="nonzero" /><path id="41" transform="matrix(1 0 0 -1 0 612)" d="M111 279L681 279L681 261.75L111 261.75L111 279z" stroke="none" fill="#E7F9EF" fill-rule="nonzero" /><path id="42" transform="matrix(1 0 0 -1 0 612)" d="M111 262.5L681 262.5L681 245.25L111 245.25L111 262.5z" stroke="none" fill="#FFFFFF" fill-rule="nonzero" /><path id="43" transform="matrix(1 0 0 -1 0 612)" d="M111 246L681 246L681 228.75L111 228.75L111 246z" stroke="none" fill="#E7F9EF" fill-rule="nonzero" /><path id="44" transform="matrix(1 0 0 -1 0 612)" d="M111 229.5L681 229.5L681 198.75L111 198.75L111 229.5z" stroke="none" fill="#FFFFFF" fill-rule="nonzero" /><path id="45" transform="matrix(1 0 0 -1 0 612)" d="M111 199.5L681 199.5L681 182.25L111 182.25L111 199.5z" stroke="none" fill="#E7F9EF" fill-rule="nonzero" /><path id="46" transform="matrix(1 0 0 -1 0 612)" d="M111 183L681 183L681 152.25L111 152.25L111 183z" stroke="none" fill="#FFFFFF" fill-rule="nonzero" /><path id="47" transform="matrix(1 0 0 -1 0 612)" d="M111 153L681 153L681 135.75L111 135.75L111 153z" stroke="none" fill="#E7F9EF" fill-rule="nonzero" /><path id="48" transform="matrix(1 0 0 -1 0 612)" d="M111 136.5L681 136.5L681 119.25L111 119.25L111 136.5z" stroke="none" fill="#FFFFFF" fill-rule="nonzero" /><path id="49" transform="matrix(1 0 0 -1 0 612)" d="M111 120L681 120L681 102.75L111 102.75L111 120z" stroke="none" fill="#E7F9EF" fill-rule="nonzero" /><path id="50" transform="matrix(1 0 0 -1 0 612)" d="M111 103.5L681 103.5L681 86.25L111 86.25L111 103.5z" stroke="none" fill="#FFFFFF" fill-rule="nonzero" /><path id="51" transform="matrix(1 0 0 -1 0 612)" d="M111 87L681 87L681 60L111 60L111 87z" stroke="none" fill="#E7F9EF" fill-rule="nonzero" /><path id="52" transform="matrix(1 0 0 -1 0 612)" d="M111 60.75L681 60.75L681 60L111 60zM111 87L681 87L681 86.25L111 86.25zM111 103.5L681 103.5L681 102.75L111 102.75zM111 120L681 120L681 119.25L111 119.25zM111 136.5L681 136.5L681 135.75L111 135.75zM111 153L681 153L681 152.25L111 152.25zM111 183L681 183L681 182.25L111 182.25zM111 199.5L681 199.5L681 198.75L111 198.75zM111 229.5L681 229.5L681 228.75L111 228.75zM111 246L681 246L681 245.25L111 245.25zM111 262.5L681 262.5L681 261.75L111 261.75zM111 279L681 279L681 278.25L111 278.25zM111 305.25L681 305.25L681 304.5L111 304.5zM111 321.75L681 321.75L681 321L111 321zM111 338.25L681 338.25L681 337.5L111 337.5zM111 354.75L681 354.75L681 354L111 354zM111 371.25L681 371.25L681 370.5L111 370.5zM111 397.5L681 397.5L681 396.75L111 396.75zM111 414L681 414L681 413.25L111 413.25zM111 430.5L681 430.5L681 429.75L111 429.75zM111 456.75L681 456.75L681 456L111 456zM111 473.25L681 473.25L681 472.5L111 472.5zM111 499.5L681 499.5L681 498.75L111 498.75zM111 525.75L681 525.75L681 525L111 525zM111 542.25L681 542.25L681 541.5L111 541.5zM681 86.25L681 60.75L680.25 60.75L680.25 86.25zM681 102.75L681 87L680.25 87L680.25 102.75zM681 119.25L681 103.5L680.25 103.5L680.25 119.25zM681 135.75L681 120L680.25 120L680.25 135.75zM681 152.25L681 136.5L680.25 136.5L680.25 152.25zM681 182.25L681 153L680.25 153L680.25 182.25zM681 198.75L681 183L680.25 183L680.25 198.75zM681 228.75L681 199.5L680.25 199.5L680.25 228.75zM681 245.25L681 229.5L680.25 229.5L680.25 245.25zM681 261.75L681 246L680.25 246L680.25 261.75zM681 278.25L681 262.5L680.25 262.5L680.25 278.25zM681 304.5L681 279L680.25 279L680.25 304.5zM681 321L681 305.25L680.25 305.25L680.25 321zM681 337.5L681 321.75L680.25 321.75L680.25 337.5zM681 354L681 338.25L680.25 338.25L680.25 354zM681 370.5L681 354.75L680.25 354.75L680.25 370.5zM681 396.75L681 371.25L680.25 371.25L680.25 396.75zM681 413.25L681 397.5L680.25 397.5L680.25 413.25zM681 429.75L681 414L680.25 414L680.25 429.75zM681 456L681 430.5L680.25 430.5L680.25 456zM681 472.5L681 456.75L680.25 456.75L680.25 472.5zM681 498.75L681 473.25L680.25 473.25L680.25 498.75zM681 525L681 499.5L680.25 499.5L680.25 525zM681 541.5L681 525.75L680.25 525.75L680.25 541.5zM605.25 86.25L605.25 60.75L604.5 60.75L604.5 86.25zM605.25 102.75L605.25 87L604.5 87L604.5 102.75zM605.25 119.25L605.25 103.5L604.5 103.5L604.5 119.25zM605.25 135.75L605.25 120L604.5 120L604.5 135.75zM605.25 152.25L605.25 136.5L604.5 136.5L604.5 152.25zM605.25 182.25L605.25 153L604.5 153L604.5 182.25zM605.25 198.75L605.25 183L604.5 183L604.5 198.75zM605.25 228.75L605.25 199.5L604.5 199.5L604.5 228.75zM605.25 245.25L605.25 229.5L604.5 229.5L604.5 245.25zM605.25 261.75L605.25 246L604.5 246L604.5 261.75zM605.25 278.25L605.25 262.5L604.5 262.5L604.5 278.25zM605.25 304.5L605.25 279L604.5 279L604.5 304.5zM605.25 321L605.25 305.25L604.5 305.25L604.5 321zM605.25 337.5L605.25 321.75L604.5 321.75L604.5 337.5zM605.25 354L605.25 338.25L604.5 338.25L604.5 354zM605.25 370.5L605.25 354.75L604.5 354.75L604.5 370.5zM605.25 396.75L605.25 371.25L604.5 371.25L604.5 396.75zM605.25 413.25L605.25 397.5L604.5 397.5L604.5 413.25zM605.25 429.75L605.25 414L604.5 414L604.5 429.75zM605.25 456L605.25 430.5L604.5 430.5L604.5 456zM605.25 472.5L605.25 456.75L604.5 456.75L604.5 472.5zM605.25 498.75L605.25 473.25L604.5 473.25L604.5 498.75zM605.25 525L605.25 499.5L604.5 499.5L604.5 525zM605.25 541.5L605.25 525.75L604.5 525.75L604.5 541.5zM187.5 86.25L187.5 60.75L186.75 60.75L186.75 86.25zM187.5 102.75L187.5 87L186.75 87L186.75 102.75zM187.5 119.25L187.5 103.5L186.75 103.5L186.75 119.25zM187.5 135.75L187.5 120L186.75 120L186.75 135.75zM187.5 152.25L187.5 136.5L186.75 136.5L186.75 152.25zM187.5 182.25L187.5 153L186.75 153L186.75 182.25zM187.5 198.75L187.5 183L186.75 183L186.75 198.75zM187.5 228.75L187.5 199.5L186.75 199.5L186.75 228.75zM187.5 245.25L187.5 229.5L186.75 229.5L186.75 245.25zM187.5 261.75L187.5 246L186.75 246L186.75 261.75zM187.5 278.25L187.5 262.5L186.75 262.5L186.75 278.25zM187.5 304.5L187.5 279L186.75 279L186.75 304.5zM187.5 321L187.5 305.25L186.75 305.25L186.75 321zM187.5 337.5L187.5 321.75L186.75 321.75L186.75 337.5zM187.5 354L187.5 338.25L186.75 338.25L186.75 354zM187.5 370.5L187.5 354.75L186.75 354.75L186.75 370.5zM187.5 396.75L187.5 371.25L186.75 371.25L186.75 396.75zM187.5 413.25L187.5 397.5L186.75 397.5L186.75 413.25zM187.5 429.75L187.5 414L186.75 414L186.75 429.75zM187.5 456L187.5 430.5L186.75 430.5L186.75 456zM187.5 472.5L187.5 456.75L186.75 456.75L186.75 472.5zM187.5 498.75L187.5 473.25L186.75 473.25L186.75 498.75zM187.5 525L187.5 499.5L186.75 499.5L186.75 525zM187.5 541.5L187.5 525.75L186.75 525.75L186.75 541.5zM111.75 86.25L111.75 60.75L111 60.75L111 86.25zM111.75 102.75L111.75 87L111 87L111 102.75zM111.75 119.25L111.75 103.5L111 103.5L111 119.25zM111.75 135.75L111.75 120L111 120L111 135.75zM111.75 152.25L111.75 136.5L111 136.5L111 152.25zM111.75 182.25L111.75 153L111 153L111 182.25zM111.75 198.75L111.75 183L111 183L111 198.75zM111.75 228.75L111.75 199.5L111 199.5L111 228.75zM111.75 245.25L111.75 229.5L111 229.5L111 245.25zM111.75 261.75L111.75 246L111 246L111 261.75zM111.75 278.25L111.75 262.5L111 262.5L111 278.25zM111.75 304.5L111.75 279L111 279L111 304.5zM111.75 321L111.75 305.25L111 305.25L111 321zM111.75 337.5L111.75 321.75L111 321.75L111 337.5zM111.75 354L111.75 338.25L111 338.25L111 354zM111.75 370.5L111.75 354.75L111 354.75L111 370.5zM111.75 396.75L111.75 371.25L111 371.25L111 396.75zM111.75 413.25L111.75 397.5L111 397.5L111 413.25zM111.75 429.75L111.75 414L111 414L111 429.75zM111.75 456L111.75 430.5L111 430.5L111 456zM111.75 472.5L111.75 456.75L111 456.75L111 472.5zM111.75 498.75L111.75 473.25L111 473.25L111 498.75zM111.75 525L111.75 499.5L111 499.5L111 525zM111.75 541.5L111.75 525.75L111 525.75L111 541.5z" stroke="none" fill="#000000" fill-rule="nonzero" fill-opacity="0.1490196" /><path id="124" transform="matrix(1 0 0 -1 0 612)" d="M189.75 528.2832L508.0532 528.2832" stroke="#1155CC" stroke-width="0.7141113" fill="none" /><path id="215" transform="matrix(1 0 0 -1 0 612)" d="M189.75 513.2446L579.4025 513.2446" stroke="#1155CC" stroke-width="0.7141113" fill="none" /><path id="232" transform="matrix(1 0 0 -1 0 612)" d="M189.75 502.0332L264.5365 502.0332" stroke="#1155CC" stroke-width="0.7141113" fill="none" /><path id="326" transform="matrix(1 0 0 -1 0 612)" d="M189.75 486.9946L573.4896 486.9946" stroke="#1155CC" stroke-width="0.7141113" fill="none" /><path id="342" transform="matrix(1 0 0 -1 0 612)" d="M189.75 475.7832L267.2454 475.7832" stroke="#1155CC" stroke-width="0.7141113" fill="none" /><path id="391" transform="matrix(1 0 0 -1 0 612)" d="M189.75 459.2832L392.2101 459.2832" stroke="#1155CC" stroke-width="0.7141113" fill="none" /><path id="485" transform="matrix(1 0 0 -1 0 612)" d="M189.75 444.2446L590.7902 444.2446" stroke="#1155CC" stroke-width="0.7141113" fill="none" /><path id="521" transform="matrix(1 0 0 -1 0 612)" d="M189.75 433.0332L371.8579 433.0332" stroke="#1155CC" stroke-width="0.7141113" fill="none" /><path id="615" transform="matrix(1 0 0 -1 0 612)" d="M189.75 416.5332L596.2031 416.5332" stroke="#1155CC" stroke-width="0.7141113" fill="none" /><path id="704" transform="matrix(1 0 0 -1 0 612)" d="M189.75 400.0332L584.287 400.0332" stroke="#1155CC" stroke-width="0.7141113" fill="none" /><path id="795" transform="matrix(1 0 0 -1 0 612)" d="M189.75 384.9946L580.5212 384.9946" stroke="#1155CC" stroke-width="0.7141113" fill="none" /><path id="856" transform="matrix(1 0 0 -1 0 612)" d="M189.75 373.7832L476.4467 373.7832" stroke="#1155CC" stroke-width="0.7141113" fill="none" /><path id="915" transform="matrix(1 0 0 -1 0 612)" d="M189.75 357.2832L428.2061 357.2832" stroke="#1155CC" stroke-width="0.7141113" fill="none" /><path id="961" transform="matrix(1 0 0 -1 0 612)" d="M189.75 340.7832L355.5857 340.7832" stroke="#1155CC" stroke-width="0.7141113" fill="none" /><path id="963" transform="matrix(1 0 0 -1 0 612)" d="M355.5857 341.1689L360.4607 341.1689" stroke="#1155CC" stroke-width="0.7236328" fill="none" /><path id="999" transform="matrix(1 0 0 -1 0 612)" d="M360.4607 340.7832L539.855 340.7832" stroke="#1155CC" stroke-width="0.7141113" fill="none" /><path id="1044" transform="matrix(1 0 0 -1 0 612)" d="M189.75 324.2832L350.1537 324.2832" stroke="#1155CC" stroke-width="0.7141113" fill="none" /><path id="1100" transform="matrix(1 0 0 -1 0 612)" d="M189.75 307.7832L399.494 307.7832" stroke="#1155CC" stroke-width="0.7141113" fill="none" /><path id="1192" transform="matrix(1 0 0 -1 0 612)" d="M189.75 292.7446L572.7374 292.7446" stroke="#1155CC" stroke-width="0.7141113" fill="none" /><path id="1203" transform="matrix(1 0 0 -1 0 612)" d="M189.75 281.5332L236.3481 281.5332" stroke="#1155CC" stroke-width="0.7141113" fill="none" /><path id="1235" transform="matrix(1 0 0 -1 0 612)" d="M189.75 265.0332L304.103 265.0332" stroke="#1155CC" stroke-width="0.7141113" fill="none" /><path id="1315" transform="matrix(1 0 0 -1 0 612)" d="M189.75 248.5332L510.5669 248.5332" stroke="#1155CC" stroke-width="0.7141113" fill="none" /><path id="1374" transform="matrix(1 0 0 -1 0 612)" d="M189.75 232.0332L427.8347 232.0332" stroke="#1155CC" stroke-width="0.7141113" fill="none" /><path id="1468" transform="matrix(1 0 0 -1 0 612)" d="M189.75 202.0332L588.6002 202.0332" stroke="#1155CC" stroke-width="0.7141113" fill="none" /><path id="1557" transform="matrix(1 0 0 -1 0 612)" d="M189.75 185.5332L560.8356 185.5332" stroke="#1155CC" stroke-width="0.7141113" fill="none" /><path id="1660" transform="matrix(1 0 0 -1 0 612)" d="M189.75 166.7446L601.4733 166.7446" stroke="#1155CC" stroke-width="0.7141113" fill="none" /><path id="1670" transform="matrix(1 0 0 -1 0 612)" d="M189.75 155.5332L228.2311 155.5332" stroke="#1155CC" stroke-width="0.7141113" fill="none" /><path id="1744" transform="matrix(1 0 0 -1 0 612)" d="M189.75 139.0332L508.4246 139.0332" stroke="#1155CC" stroke-width="0.7141113" fill="none" /><path id="1819" transform="matrix(1 0 0 -1 0 612)" d="M189.75 122.5332L533.3899 122.5332" stroke="#1155CC" stroke-width="0.7141113" fill="none" /><path id="1867" transform="matrix(1 0 0 -1 0 612)" d="M189.75 106.0332L392.4338 106.0332" stroke="#1155CC" stroke-width="0.7141113" fill="none" /><path id="1934" transform="matrix(1 0 0 -1 0 612)" d="M189.75 89.5332L462.869 89.5332" stroke="#1155CC" stroke-width="0.7141113" fill="none" /><path id="2027" transform="matrix(1 0 0 -1 0 612)" d="M189.75 74.49463L576.1509 74.49463" stroke="#1155CC" stroke-width="0.7141113" fill="none" /><path id="2057" transform="matrix(1 0 0 -1 0 612)" d="M189.75 63.2832L343.6886 63.2832" stroke="#1155CC" stroke-width="0.7141113" fill="none" /></g></g></g></svg>