<svg xmlns="http://www.w3.org/2000/svg" xmlns:xlink="http://www.w3.org/1999/xlink" id="body_17" preserveAspectRatio="xMinYMin meet" viewBox="0 0 1056 816"><defs><clipPath id="1"><path id="" clip-rule="evenodd" transform="matrix(1 0 0 1 0 0)" d="M0 612L0 0L0 0L792 0L792 0L792 612L792 612L0 612z" /></clipPath><clipPath id="2"><path id="" clip-rule="evenodd" transform="matrix(1 0 0 1 0 0)" d="M110.25 52.5L681.75 52.5L681.75 52.5L681.75 69.75L681.75 69.75L110.25 69.75L110.25 69.75L110.25 52.5z" /></clipPath><clipPath id="3"><path id="" clip-rule="evenodd" transform="matrix(1 0 0 1 0 0)" d="M110.25 69L681.75 69L681.75 69L681.75 543L681.75 543L110.25 543L110.25 543L110.25 69z" /></clipPath></defs><g transform="matrix(1.333333 0 0 1.333333 0 0)"><g clip-path="url(#1)"><g clip-path="url(#2)"><path id="10" transform="matrix(1 0 0 -1 0 612)" d="M111 558.75L681 558.75L681 541.5L111 541.5L111 558.75z" stroke="none" fill="#63D297" fill-rule="nonzero" /><path id="11" transform="matrix(1 0 0 -1 0 612)" d="M111 542.25L681 542.25L681 541.5L111 541.5zM111 558.75L681 558.75L681 558L111 558zM681 558L681 542.25L680.25 542.25L680.25 558zM605.25 558L605.25 542.25L604.5 542.25L604.5 558zM187.5 558L187.5 542.25L186.75 542.25L186.75 558zM111.75 558L111.75 542.25L111 542.25L111 558z" stroke="none" fill="#000000" fill-rule="nonzero" fill-opacity="0.1490196" /></g><g clip-path="url(#3)"><path id="28" transform="matrix(1 0 0 -1 0 612)" d="M111 542.25L681 542.25L681 525L111 525L111 542.25z" stroke="none" fill="#FFFFFF" fill-rule="nonzero" /><path id="29" transform="matrix(1 0 0 -1 0 612)" d="M111 525.75L681 525.75L681 495L111 495L111 525.75z" stroke="none" fill="#E7F9EF" fill-rule="nonzero" /><path id="30" transform="matrix(1 0 0 -1 0 612)" d="M111 495.75L681 495.75L681 478.5L111 478.5L111 495.75z" stroke="none" fill="#FFFFFF" fill-rule="nonzero" /><path id="31" transform="matrix(1 0 0 -1 0 612)" d="M111 479.25L681 479.25L681 462L111 462L111 479.25z" stroke="none" fill="#E7F9EF" fill-rule="nonzero" /><path id="32" transform="matrix(1 0 0 -1 0 612)" d="M111 462.75L681 462.75L681 432L111 432L111 462.75z" stroke="none" fill="#FFFFFF" fill-rule="nonzero" /><path id="33" transform="matrix(1 0 0 -1 0 612)" d="M111 432.75L681 432.75L681 405.75L111 405.75L111 432.75z" stroke="none" fill="#E7F9EF" fill-rule="nonzero" /><path id="34" transform="matrix(1 0 0 -1 0 612)" d="M111 406.5L681 406.5L681 379.5L111 379.5L111 406.5z" stroke="none" fill="#FFFFFF" fill-rule="nonzero" /><path id="35" transform="matrix(1 0 0 -1 0 612)" d="M111 380.25L681 380.25L681 353.25L111 353.25L111 380.25z" stroke="none" fill="#E7F9EF" fill-rule="nonzero" /><path id="36" transform="matrix(1 0 0 -1 0 612)" d="M111 354L681 354L681 323.25L111 323.25L111 354z" stroke="none" fill="#FFFFFF" fill-rule="nonzero" /><path id="37" transform="matrix(1 0 0 -1 0 612)" d="M111 324L681 324L681 278.25L111 278.25L111 324z" stroke="none" fill="#E7F9EF" fill-rule="nonzero" /><path id="38" transform="matrix(1 0 0 -1 0 612)" d="M111 279L681 279L681 248.25L111 248.25L111 279z" stroke="none" fill="#FFFFFF" fill-rule="nonzero" /><path id="39" transform="matrix(1 0 0 -1 0 612)" d="M111 249L681 249L681 231.75L111 231.75L111 249z" stroke="none" fill="#E7F9EF" fill-rule="nonzero" /><path id="40" transform="matrix(1 0 0 -1 0 612)" d="M111 232.5L681 232.5L681 205.5L111 205.5L111 232.5z" stroke="none" fill="#FFFFFF" fill-rule="nonzero" /><path id="41" transform="matrix(1 0 0 -1 0 612)" d="M111 206.25L681 206.25L681 175.5L111 175.5L111 206.25z" stroke="none" fill="#E7F9EF" fill-rule="nonzero" /><path id="42" transform="matrix(1 0 0 -1 0 612)" d="M111 176.25L681 176.25L681 159L111 159L111 176.25z" stroke="none" fill="#FFFFFF" fill-rule="nonzero" /><path id="43" transform="matrix(1 0 0 -1 0 612)" d="M111 159.75L681 159.75L681 142.5L111 142.5L111 159.75z" stroke="none" fill="#E7F9EF" fill-rule="nonzero" /><path id="44" transform="matrix(1 0 0 -1 0 612)" d="M111 143.25L681 143.25L681 126L111 126L111 143.25z" stroke="none" fill="#FFFFFF" fill-rule="nonzero" /><path id="45" transform="matrix(1 0 0 -1 0 612)" d="M111 126.75L681 126.75L681 96L111 96L111 126.75z" stroke="none" fill="#E7F9EF" fill-rule="nonzero" /><path id="46" transform="matrix(1 0 0 -1 0 612)" d="M111 96.75L681 96.75L681 69.75L111 69.75L111 96.75z" stroke="none" fill="#FFFFFF" fill-rule="nonzero" /><path id="47" transform="matrix(1 0 0 -1 0 612)" d="M111 70.5L681 70.5L681 69.75L111 69.75zM111 96.75L681 96.75L681 96L111 96zM111 126.75L681 126.75L681 126L111 126zM111 143.25L681 143.25L681 142.5L111 142.5zM111 159.75L681 159.75L681 159L111 159zM111 176.25L681 176.25L681 175.5L111 175.5zM111 206.25L681 206.25L681 205.5L111 205.5zM111 232.5L681 232.5L681 231.75L111 231.75zM111 249L681 249L681 248.25L111 248.25zM111 279L681 279L681 278.25L111 278.25zM111 324L681 324L681 323.25L111 323.25zM111 354L681 354L681 353.25L111 353.25zM111 380.25L681 380.25L681 379.5L111 379.5zM111 406.5L681 406.5L681 405.75L111 405.75zM111 432.75L681 432.75L681 432L111 432zM111 462.75L681 462.75L681 462L111 462zM111 479.25L681 479.25L681 478.5L111 478.5zM111 495.75L681 495.75L681 495L111 495zM111 525.75L681 525.75L681 525L111 525zM111 542.25L681 542.25L681 541.5L111 541.5zM681 96L681 70.5L680.25 70.5L680.25 96zM681 126L681 96.75L680.25 96.75L680.25 126zM681 142.5L681 126.75L680.25 126.75L680.25 142.5zM681 159L681 143.25L680.25 143.25L680.25 159zM681 175.5L681 159.75L680.25 159.75L680.25 175.5zM681 205.5L681 176.25L680.25 176.25L680.25 205.5zM681 231.75L681 206.25L680.25 206.25L680.25 231.75zM681 248.25L681 232.5L680.25 232.5L680.25 248.25zM681 278.25L681 249L680.25 249L680.25 278.25zM681 323.25L681 279L680.25 279L680.25 323.25zM681 353.25L681 324L680.25 324L680.25 353.25zM681 379.5L681 354L680.25 354L680.25 379.5zM681 405.75L681 380.25L680.25 380.25L680.25 405.75zM681 432L681 406.5L680.25 406.5L680.25 432zM681 462L681 432.75L680.25 432.75L680.25 462zM681 478.5L681 462.75L680.25 462.75L680.25 478.5zM681 495L681 479.25L680.25 479.25L680.25 495zM681 525L681 495.75L680.25 495.75L680.25 525zM681 541.5L681 525.75L680.25 525.75L680.25 541.5zM605.25 96L605.25 70.5L604.5 70.5L604.5 96zM605.25 126L605.25 96.75L604.5 96.75L604.5 126zM605.25 142.5L605.25 126.75L604.5 126.75L604.5 142.5zM605.25 159L605.25 143.25L604.5 143.25L604.5 159zM605.25 175.5L605.25 159.75L604.5 159.75L604.5 175.5zM605.25 205.5L605.25 176.25L604.5 176.25L604.5 205.5zM605.25 231.75L605.25 206.25L604.5 206.25L604.5 231.75zM605.25 248.25L605.25 232.5L604.5 232.5L604.5 248.25zM605.25 278.25L605.25 249L604.5 249L604.5 278.25zM605.25 323.25L605.25 279L604.5 279L604.5 323.25zM605.25 353.25L605.25 324L604.5 324L604.5 353.25zM605.25 379.5L605.25 354L604.5 354L604.5 379.5zM605.25 405.75L605.25 380.25L604.5 380.25L604.5 405.75zM605.25 432L605.25 406.5L604.5 406.5L604.5 432zM605.25 462L605.25 432.75L604.5 432.75L604.5 462zM605.25 478.5L605.25 462.75L604.5 462.75L604.5 478.5zM605.25 495L605.25 479.25L604.5 479.25L604.5 495zM605.25 525L605.25 495.75L604.5 495.75L604.5 525zM605.25 541.5L605.25 525.75L604.5 525.75L604.5 541.5zM187.5 96L187.5 70.5L186.75 70.5L186.75 96zM187.5 126L187.5 96.75L186.75 96.75L186.75 126zM187.5 142.5L187.5 126.75L186.75 126.75L186.75 142.5zM187.5 159L187.5 143.25L186.75 143.25L186.75 159zM187.5 175.5L187.5 159.75L186.75 159.75L186.75 175.5zM187.5 205.5L187.5 176.25L186.75 176.25L186.75 205.5zM187.5 231.75L187.5 206.25L186.75 206.25L186.75 231.75zM187.5 248.25L187.5 232.5L186.75 232.5L186.75 248.25zM187.5 278.25L187.5 249L186.75 249L186.75 278.25zM187.5 323.25L187.5 279L186.75 279L186.75 323.25zM187.5 353.25L187.5 324L186.75 324L186.75 353.25zM187.5 379.5L187.5 354L186.75 354L186.75 379.5zM187.5 405.75L187.5 380.25L186.75 380.25L186.75 405.75zM187.5 432L187.5 406.5L186.75 406.5L186.75 432zM187.5 462L187.5 432.75L186.75 432.75L186.75 462zM187.5 478.5L187.5 462.75L186.75 462.75L186.75 478.5zM187.5 495L187.5 479.25L186.75 479.25L186.75 495zM187.5 525L187.5 495.75L186.75 495.75L186.75 525zM187.5 541.5L187.5 525.75L186.75 525.75L186.75 541.5zM111.75 96L111.75 70.5L111 70.5L111 96zM111.75 126L111.75 96.75L111 96.75L111 126zM111.75 142.5L111.75 126.75L111 126.75L111 142.5zM111.75 159L111.75 143.25L111 143.25L111 159zM111.75 175.5L111.75 159.75L111 159.75L111 175.5zM111.75 205.5L111.75 176.25L111 176.25L111 205.5zM111.75 231.75L111.75 206.25L111 206.25L111 231.75zM111.75 248.25L111.75 232.5L111 232.5L111 248.25zM111.75 278.25L111.75 249L111 249L111 278.25zM111.75 323.25L111.75 279L111 279L111 323.25zM111.75 353.25L111.75 324L111 324L111 353.25zM111.75 379.5L111.75 354L111 354L111 379.5zM111.75 405.75L111.75 380.25L111 380.25L111 405.75zM111.75 432L111.75 406.5L111 406.5L111 432zM111.75 462L111.75 432.75L111 432.75L111 462zM111.75 478.5L111.75 462.75L111 462.75L111 478.5zM111.75 495L111.75 479.25L111 479.25L111 495zM111.75 525L111.75 495.75L111 495.75L111 525zM111.75 541.5L111.75 525.75L111 525.75L111 541.5z" stroke="none" fill="#000000" fill-rule="nonzero" fill-opacity="0.1490196" /><path id="117" transform="matrix(1 0 0 -1 0 612)" d="M189.75 528.2827L454.1426 528.2827" stroke="#1155CC" stroke-width="0.7141113" fill="none" /><path id="199" transform="matrix(1 0 0 -1 0 612)" d="M189.75 498.2827L470.5052 498.2827" stroke="#1155CC" stroke-width="0.7141113" fill="none" /><path id="280" transform="matrix(1 0 0 -1 0 612)" d="M189.75 481.7827L542.0735 481.7827" stroke="#1155CC" stroke-width="0.7141113" fill="none" /><path id="362" transform="matrix(1 0 0 -1 0 612)" d="M189.75 465.2827L498.0795 465.2827" stroke="#1155CC" stroke-width="0.7141113" fill="none" /><path id="452" transform="matrix(1 0 0 -1 0 612)" d="M189.75 435.2827L521.9736 435.2827" stroke="#1155CC" stroke-width="0.7141113" fill="none" /><path id="538" transform="matrix(1 0 0 -1 0 612)" d="M189.75 420.2446L588.9573 420.2446" stroke="#1155CC" stroke-width="0.7141113" fill="none" /><path id="546" transform="matrix(1 0 0 -1 0 612)" d="M189.75 409.0327L227.6836 409.0327" stroke="#1155CC" stroke-width="0.7141113" fill="none" /><path id="632" transform="matrix(1 0 0 -1 0 612)" d="M189.75 393.9946L575.0892 393.9946" stroke="#1155CC" stroke-width="0.7141113" fill="none" /><path id="643" transform="matrix(1 0 0 -1 0 612)" d="M189.75 382.7827L237.9811 382.7827" stroke="#1155CC" stroke-width="0.7141113" fill="none" /><path id="734" transform="matrix(1 0 0 -1 0 612)" d="M189.75 367.7446L590.2141 367.7446" stroke="#1155CC" stroke-width="0.7141113" fill="none" /><path id="765" transform="matrix(1 0 0 -1 0 612)" d="M189.75 356.5327L358.0946 356.5327" stroke="#1155CC" stroke-width="0.7141113" fill="none" /><path id="855" transform="matrix(1 0 0 -1 0 612)" d="M189.75 337.7446L577.1316 337.7446" stroke="#1155CC" stroke-width="0.7141113" fill="none" /><path id="878" transform="matrix(1 0 0 -1 0 612)" d="M189.75 326.5327L287.2881 326.5327" stroke="#1155CC" stroke-width="0.7141113" fill="none" /><path id="951" transform="matrix(1 0 0 -1 0 612)" d="M189.75 281.5327L433.619 281.5327" stroke="#1155CC" stroke-width="0.7141113" fill="none" /><path id="1058" transform="matrix(1 0 0 -1 0 612)" d="M189.75 262.7446L595.1224 262.7446" stroke="#1155CC" stroke-width="0.7141113" fill="none" /><path id="1082" transform="matrix(1 0 0 -1 0 612)" d="M189.75 251.5327L312.7771 251.5327" stroke="#1155CC" stroke-width="0.7141113" fill="none" /><path id="1171" transform="matrix(1 0 0 -1 0 612)" d="M189.75 235.0327L558.6504 235.0327" stroke="#1155CC" stroke-width="0.7141113" fill="none" /><path id="1258" transform="matrix(1 0 0 -1 0 612)" d="M189.75 219.9946L581.3877 219.9946" stroke="#1155CC" stroke-width="0.7141113" fill="none" /><path id="1268" transform="matrix(1 0 0 -1 0 612)" d="M189.75 208.7827L231.4827 208.7827" stroke="#1155CC" stroke-width="0.7141113" fill="none" /><path id="1327" transform="matrix(1 0 0 -1 0 612)" d="M189.75 178.7827L356.1094 178.7827" stroke="#1155CC" stroke-width="0.7141113" fill="none" /><path id="1392" transform="matrix(1 0 0 -1 0 612)" d="M189.75 162.2827L449.3533 162.2827" stroke="#1155CC" stroke-width="0.7141113" fill="none" /><path id="1437" transform="matrix(1 0 0 -1 0 612)" d="M189.75 145.7827L356.5045 145.7827" stroke="#1155CC" stroke-width="0.7141113" fill="none" /><path id="1469" transform="matrix(1 0 0 -1 0 612)" d="M189.75 129.2827L294.8624 129.2827" stroke="#1155CC" stroke-width="0.7141113" fill="none" /><path id="1534" transform="matrix(1 0 0 -1 0 612)" d="M189.75 99.28271L407.0684 99.28271" stroke="#1155CC" stroke-width="0.7141113" fill="none" /><path id="1624" transform="matrix(1 0 0 -1 0 612)" d="M189.75 84.24463L588.6335 84.24463" stroke="#1155CC" stroke-width="0.7141113" fill="none" /><path id="1631" transform="matrix(1 0 0 -1 0 612)" d="M189.75 73.03271L215.7579 73.03271" stroke="#1155CC" stroke-width="0.7141113" fill="none" /></g></g></g></svg>