<svg xmlns="http://www.w3.org/2000/svg" xmlns:xlink="http://www.w3.org/1999/xlink" id="body_9" preserveAspectRatio="xMinYMin meet" viewBox="0 0 1056 816"><defs><clipPath id="1"><path id="" clip-rule="evenodd" transform="matrix(1 0 0 1 0 0)" d="M0 612L0 0L0 0L792 0L792 0L792 612L792 612L0 612z" /></clipPath><clipPath id="2"><path id="" clip-rule="evenodd" transform="matrix(1 0 0 1 0 0)" d="M110.25 52.5L681.75 52.5L681.75 52.5L681.75 69.75L681.75 69.75L110.25 69.75L110.25 69.75L110.25 52.5z" /></clipPath><clipPath id="3"><path id="" clip-rule="evenodd" transform="matrix(1 0 0 1 0 0)" d="M110.25 69L681.75 69L681.75 69L681.75 549L681.75 549L110.25 549L110.25 549L110.25 69z" /></clipPath></defs><g transform="matrix(1.333333 0 0 1.333333 0 0)"><g clip-path="url(#1)"><g clip-path="url(#2)"><path id="9" transform="matrix(1 0 0 -1 0 612)" d="M111 558.75L681 558.75L681 541.5L111 541.5L111 558.75z" stroke="none" fill="#63D297" fill-rule="nonzero" /><path id="10" transform="matrix(1 0 0 -1 0 612)" d="M111 542.25L681 542.25L681 541.5L111 541.5zM111 558.75L681 558.75L681 558L111 558zM681 558L681 542.25L680.25 542.25L680.25 558zM605.25 558L605.25 542.25L604.5 542.25L604.5 558zM187.5 558L187.5 542.25L186.75 542.25L186.75 558zM111.75 558L111.75 542.25L111 542.25L111 558z" stroke="none" fill="#000000" fill-rule="nonzero" fill-opacity="0.1490196" /></g><g clip-path="url(#3)"><path id="27" transform="matrix(1 0 0 -1 0 612)" d="M111 542.25L681 542.25L681 515.25L111 515.25L111 542.25z" stroke="none" fill="#E7F9EF" fill-rule="nonzero" /><path id="28" transform="matrix(1 0 0 -1 0 612)" d="M111 516L681 516L681 485.25L111 485.25L111 516z" stroke="none" fill="#FFFFFF" fill-rule="nonzero" /><path id="29" transform="matrix(1 0 0 -1 0 612)" d="M111 486L681 486L681 468.75L111 468.75L111 486z" stroke="none" fill="#E7F9EF" fill-rule="nonzero" /><path id="30" transform="matrix(1 0 0 -1 0 612)" d="M111 469.5L681 469.5L681 442.5L111 442.5L111 469.5z" stroke="none" fill="#FFFFFF" fill-rule="nonzero" /><path id="31" transform="matrix(1 0 0 -1 0 612)" d="M111 443.25L681 443.25L681 426L111 426L111 443.25z" stroke="none" fill="#E7F9EF" fill-rule="nonzero" /><path id="32" transform="matrix(1 0 0 -1 0 612)" d="M111 426.75L681 426.75L681 409.5L111 409.5L111 426.75z" stroke="none" fill="#FFFFFF" fill-rule="nonzero" /><path id="33" transform="matrix(1 0 0 -1 0 612)" d="M111 410.25L681 410.25L681 393L111 393L111 410.25z" stroke="none" fill="#E7F9EF" fill-rule="nonzero" /><path id="34" transform="matrix(1 0 0 -1 0 612)" d="M111 393.75L681 393.75L681 350.25L111 350.25L111 393.75z" stroke="none" fill="#FFFFFF" fill-rule="nonzero" /><path id="35" transform="matrix(1 0 0 -1 0 612)" d="M111 351L681 351L681 305.25L111 305.25L111 351z" stroke="none" fill="#E7F9EF" fill-rule="nonzero" /><path id="36" transform="matrix(1 0 0 -1 0 612)" d="M111 306L681 306L681 288.75L111 288.75L111 306z" stroke="none" fill="#FFFFFF" fill-rule="nonzero" /><path id="37" transform="matrix(1 0 0 -1 0 612)" d="M111 289.5L681 289.5L681 272.25L111 272.25L111 289.5z" stroke="none" fill="#E7F9EF" fill-rule="nonzero" /><path id="38" transform="matrix(1 0 0 -1 0 612)" d="M111 273L681 273L681 242.25L111 242.25L111 273z" stroke="none" fill="#FFFFFF" fill-rule="nonzero" /><path id="39" transform="matrix(1 0 0 -1 0 612)" d="M111 243L681 243L681 212.25L111 212.25L111 243z" stroke="none" fill="#E7F9EF" fill-rule="nonzero" /><path id="40" transform="matrix(1 0 0 -1 0 612)" d="M111 213L681 213L681 195.75L111 195.75L111 213z" stroke="none" fill="#FFFFFF" fill-rule="nonzero" /><path id="41" transform="matrix(1 0 0 -1 0 612)" d="M111 196.5L681 196.5L681 179.25L111 179.25L111 196.5z" stroke="none" fill="#E7F9EF" fill-rule="nonzero" /><path id="42" transform="matrix(1 0 0 -1 0 612)" d="M111 180L681 180L681 162.75L111 162.75L111 180z" stroke="none" fill="#FFFFFF" fill-rule="nonzero" /><path id="43" transform="matrix(1 0 0 -1 0 612)" d="M111 163.5L681 163.5L681 146.25L111 146.25L111 163.5z" stroke="none" fill="#E7F9EF" fill-rule="nonzero" /><path id="44" transform="matrix(1 0 0 -1 0 612)" d="M111 147L681 147L681 129.75L111 129.75L111 147z" stroke="none" fill="#FFFFFF" fill-rule="nonzero" /><path id="45" transform="matrix(1 0 0 -1 0 612)" d="M111 130.5L681 130.5L681 113.25L111 113.25L111 130.5z" stroke="none" fill="#E7F9EF" fill-rule="nonzero" /><path id="46" transform="matrix(1 0 0 -1 0 612)" d="M111 114L681 114L681 96.75L111 96.75L111 114z" stroke="none" fill="#FFFFFF" fill-rule="nonzero" /><path id="47" transform="matrix(1 0 0 -1 0 612)" d="M111 97.5L681 97.5L681 80.25L111 80.25L111 97.5z" stroke="none" fill="#E7F9EF" fill-rule="nonzero" /><path id="48" transform="matrix(1 0 0 -1 0 612)" d="M111 81L681 81L681 63.75L111 63.75L111 81z" stroke="none" fill="#FFFFFF" fill-rule="nonzero" /><path id="49" transform="matrix(1 0 0 -1 0 612)" d="M111 64.5L681 64.5L681 63.75L111 63.75zM111 81L681 81L681 80.25L111 80.25zM111 97.5L681 97.5L681 96.75L111 96.75zM111 114L681 114L681 113.25L111 113.25zM111 130.5L681 130.5L681 129.75L111 129.75zM111 147L681 147L681 146.25L111 146.25zM111 163.5L681 163.5L681 162.75L111 162.75zM111 180L681 180L681 179.25L111 179.25zM111 196.5L681 196.5L681 195.75L111 195.75zM111 213L681 213L681 212.25L111 212.25zM111 243L681 243L681 242.25L111 242.25zM111 273L681 273L681 272.25L111 272.25zM111 289.5L681 289.5L681 288.75L111 288.75zM111 306L681 306L681 305.25L111 305.25zM111 351L681 351L681 350.25L111 350.25zM111 393.75L681 393.75L681 393L111 393zM111 410.25L681 410.25L681 409.5L111 409.5zM111 426.75L681 426.75L681 426L111 426zM111 443.25L681 443.25L681 442.5L111 442.5zM111 469.5L681 469.5L681 468.75L111 468.75zM111 486L681 486L681 485.25L111 485.25zM111 516L681 516L681 515.25L111 515.25zM111 542.25L681 542.25L681 541.5L111 541.5zM681 80.25L681 64.5L680.25 64.5L680.25 80.25zM681 96.75L681 81L680.25 81L680.25 96.75zM681 113.25L681 97.5L680.25 97.5L680.25 113.25zM681 129.75L681 114L680.25 114L680.25 129.75zM681 146.25L681 130.5L680.25 130.5L680.25 146.25zM681 162.75L681 147L680.25 147L680.25 162.75zM681 179.25L681 163.5L680.25 163.5L680.25 179.25zM681 195.75L681 180L680.25 180L680.25 195.75zM681 212.25L681 196.5L680.25 196.5L680.25 212.25zM681 242.25L681 213L680.25 213L680.25 242.25zM681 272.25L681 243L680.25 243L680.25 272.25zM681 288.75L681 273L680.25 273L680.25 288.75zM681 305.25L681 289.5L680.25 289.5L680.25 305.25zM681 350.25L681 306L680.25 306L680.25 350.25zM681 393L681 351L680.25 351L680.25 393zM681 409.5L681 393.75L680.25 393.75L680.25 409.5zM681 426L681 410.25L680.25 410.25L680.25 426zM681 442.5L681 426.75L680.25 426.75L680.25 442.5zM681 468.75L681 443.25L680.25 443.25L680.25 468.75zM681 485.25L681 469.5L680.25 469.5L680.25 485.25zM681 515.25L681 486L680.25 486L680.25 515.25zM681 541.5L681 516L680.25 516L680.25 541.5zM605.25 80.25L605.25 64.5L604.5 64.5L604.5 80.25zM605.25 96.75L605.25 81L604.5 81L604.5 96.75zM605.25 113.25L605.25 97.5L604.5 97.5L604.5 113.25zM605.25 129.75L605.25 114L604.5 114L604.5 129.75zM605.25 146.25L605.25 130.5L604.5 130.5L604.5 146.25zM605.25 162.75L605.25 147L604.5 147L604.5 162.75zM605.25 179.25L605.25 163.5L604.5 163.5L604.5 179.25zM605.25 195.75L605.25 180L604.5 180L604.5 195.75zM605.25 212.25L605.25 196.5L604.5 196.5L604.5 212.25zM605.25 242.25L605.25 213L604.5 213L604.5 242.25zM605.25 272.25L605.25 243L604.5 243L604.5 272.25zM605.25 288.75L605.25 273L604.5 273L604.5 288.75zM605.25 305.25L605.25 289.5L604.5 289.5L604.5 305.25zM605.25 350.25L605.25 306L604.5 306L604.5 350.25zM605.25 393L605.25 351L604.5 351L604.5 393zM605.25 409.5L605.25 393.75L604.5 393.75L604.5 409.5zM605.25 426L605.25 410.25L604.5 410.25L604.5 426zM605.25 442.5L605.25 426.75L604.5 426.75L604.5 442.5zM605.25 468.75L605.25 443.25L604.5 443.25L604.5 468.75zM605.25 485.25L605.25 469.5L604.5 469.5L604.5 485.25zM605.25 515.25L605.25 486L604.5 486L604.5 515.25zM605.25 541.5L605.25 516L604.5 516L604.5 541.5zM187.5 80.25L187.5 64.5L186.75 64.5L186.75 80.25zM187.5 96.75L187.5 81L186.75 81L186.75 96.75zM187.5 113.25L187.5 97.5L186.75 97.5L186.75 113.25zM187.5 129.75L187.5 114L186.75 114L186.75 129.75zM187.5 146.25L187.5 130.5L186.75 130.5L186.75 146.25zM187.5 162.75L187.5 147L186.75 147L186.75 162.75zM187.5 179.25L187.5 163.5L186.75 163.5L186.75 179.25zM187.5 195.75L187.5 180L186.75 180L186.75 195.75zM187.5 212.25L187.5 196.5L186.75 196.5L186.75 212.25zM187.5 242.25L187.5 213L186.75 213L186.75 242.25zM187.5 272.25L187.5 243L186.75 243L186.75 272.25zM187.5 288.75L187.5 273L186.75 273L186.75 288.75zM187.5 305.25L187.5 289.5L186.75 289.5L186.75 305.25zM187.5 350.25L187.5 306L186.75 306L186.75 350.25zM187.5 393L187.5 351L186.75 351L186.75 393zM187.5 409.5L187.5 393.75L186.75 393.75L186.75 409.5zM187.5 426L187.5 410.25L186.75 410.25L186.75 426zM187.5 442.5L187.5 426.75L186.75 426.75L186.75 442.5zM187.5 468.75L187.5 443.25L186.75 443.25L186.75 468.75zM187.5 485.25L187.5 469.5L186.75 469.5L186.75 485.25zM187.5 515.25L187.5 486L186.75 486L186.75 515.25zM187.5 541.5L187.5 516L186.75 516L186.75 541.5zM111.75 80.25L111.75 64.5L111 64.5L111 80.25zM111.75 96.75L111.75 81L111 81L111 96.75zM111.75 113.25L111.75 97.5L111 97.5L111 113.25zM111.75 129.75L111.75 114L111 114L111 129.75zM111.75 146.25L111.75 130.5L111 130.5L111 146.25zM111.75 162.75L111.75 147L111 147L111 162.75zM111.75 179.25L111.75 163.5L111 163.5L111 179.25zM111.75 195.75L111.75 180L111 180L111 195.75zM111.75 212.25L111.75 196.5L111 196.5L111 212.25zM111.75 242.25L111.75 213L111 213L111 242.25zM111.75 272.25L111.75 243L111 243L111 272.25zM111.75 288.75L111.75 273L111 273L111 288.75zM111.75 305.25L111.75 289.5L111 289.5L111 305.25zM111.75 350.25L111.75 306L111 306L111 350.25zM111.75 393L111.75 351L111 351L111 393zM111.75 409.5L111.75 393.75L111 393.75L111 409.5zM111.75 426L111.75 410.25L111 410.25L111 426zM111.75 442.5L111.75 426.75L111 426.75L111 442.5zM111.75 468.75L111.75 443.25L111 443.25L111 468.75zM111.75 485.25L111.75 469.5L111 469.5L111 485.25zM111.75 515.25L111.75 486L111 486L111 515.25zM111.75 541.5L111.75 516L111 516L111 541.5z" stroke="none" fill="#000000" fill-rule="nonzero" fill-opacity="0.1490196" /><path id="137" transform="matrix(1 0 0 -1 0 612)" d="M189.75 529.7446L547.953 529.7446" stroke="#1155CC" stroke-width="0.7141113" fill="none" /><path id="156" transform="matrix(1 0 0 -1 0 612)" d="M189.75 518.5332L283.5081 518.5332" stroke="#1155CC" stroke-width="0.7141113" fill="none" /><path id="259" transform="matrix(1 0 0 -1 0 612)" d="M189.75 499.7446L602.1017 499.7446" stroke="#1155CC" stroke-width="0.7141113" fill="none" /><path id="314" transform="matrix(1 0 0 -1 0 612)" d="M189.75 488.5332L499.2363 488.5332" stroke="#1155CC" stroke-width="0.7141113" fill="none" /><path id="387" transform="matrix(1 0 0 -1 0 612)" d="M189.75 472.0332L492.4761 472.0332" stroke="#1155CC" stroke-width="0.7141113" fill="none" /><path id="487" transform="matrix(1 0 0 -1 0 612)" d="M189.75 456.9946L598.8834 456.9946" stroke="#1155CC" stroke-width="0.7141113" fill="none" /><path id="492" transform="matrix(1 0 0 -1 0 612)" d="M189.75 445.7832L211.4399 445.7832" stroke="#1155CC" stroke-width="0.7141113" fill="none" /><path id="541" transform="matrix(1 0 0 -1 0 612)" d="M189.75 429.2832L402.2029 429.2832" stroke="#1155CC" stroke-width="0.7141113" fill="none" /><path id="587" transform="matrix(1 0 0 -1 0 612)" d="M189.75 412.7832L349.092 412.7832" stroke="#1155CC" stroke-width="0.7141113" fill="none" /><path id="664" transform="matrix(1 0 0 -1 0 612)" d="M189.75 396.2832L512.1951 396.2832" stroke="#1155CC" stroke-width="0.7141113" fill="none" /><path id="772" transform="matrix(1 0 0 -1 0 612)" d="M189.75 364.7446L595.1034 364.7446" stroke="#1155CC" stroke-width="0.7141113" fill="none" /><path id="790" transform="matrix(1 0 0 -1 0 612)" d="M189.75 353.5332L285.1219 353.5332" stroke="#1155CC" stroke-width="0.7141113" fill="none" /><path id="900" transform="matrix(1 0 0 -1 0 612)" d="M189.75 319.7446L597.5409 319.7446" stroke="#1155CC" stroke-width="0.7141113" fill="none" /><path id="915" transform="matrix(1 0 0 -1 0 612)" d="M189.75 308.5332L258.557 308.5332" stroke="#1155CC" stroke-width="0.7141113" fill="none" /><path id="995" transform="matrix(1 0 0 -1 0 612)" d="M189.75 292.0332L514.9087 292.0332" stroke="#1155CC" stroke-width="0.7141113" fill="none" /><path id="1036" transform="matrix(1 0 0 -1 0 612)" d="M189.75 275.5332L345.8405 275.5332" stroke="#1155CC" stroke-width="0.7141113" fill="none" /><path id="1131" transform="matrix(1 0 0 -1 0 612)" d="M189.75 245.5332L558.26 245.5332" stroke="#1155CC" stroke-width="0.7141113" fill="none" /><path id="1192" transform="matrix(1 0 0 -1 0 612)" d="M189.75 215.5332L395.7188 215.5332" stroke="#1155CC" stroke-width="0.7141113" fill="none" /><path id="1289" transform="matrix(1 0 0 -1 0 612)" d="M189.75 199.0332L593.4895 199.0332" stroke="#1155CC" stroke-width="0.7141113" fill="none" /><path id="1343" transform="matrix(1 0 0 -1 0 612)" d="M189.75 182.5332L409.4106 182.5332" stroke="#1155CC" stroke-width="0.7141113" fill="none" /><path id="1422" transform="matrix(1 0 0 -1 0 612)" d="M189.75 166.0332L510.5431 166.0332" stroke="#1155CC" stroke-width="0.7141113" fill="none" /><path id="1505" transform="matrix(1 0 0 -1 0 612)" d="M189.75 149.5332L549.5717 149.5332" stroke="#1155CC" stroke-width="0.7141113" fill="none" /><path id="1553" transform="matrix(1 0 0 -1 0 612)" d="M189.75 133.0332L369.1395 133.0332" stroke="#1155CC" stroke-width="0.7141113" fill="none" /><path id="1594" transform="matrix(1 0 0 -1 0 612)" d="M189.75 116.5332L344.7264 116.5332" stroke="#1155CC" stroke-width="0.7141113" fill="none" /><path id="1620" transform="matrix(1 0 0 -1 0 612)" d="M189.75 100.0332L259.6615 100.0332" stroke="#1155CC" stroke-width="0.7141113" fill="none" /><path id="1704" transform="matrix(1 0 0 -1 0 612)" d="M189.75 83.5332L573.5991 83.5332" stroke="#1155CC" stroke-width="0.7141113" fill="none" /><path id="1748" transform="matrix(1 0 0 -1 0 612)" d="M189.75 67.0332L346.3879 67.0332" stroke="#1155CC" stroke-width="0.7141113" fill="none" /></g></g></g></svg>