<svg xmlns="http://www.w3.org/2000/svg" xmlns:xlink="http://www.w3.org/1999/xlink" id="body_6" preserveAspectRatio="xMinYMin meet" viewBox="0 0 1056 816"><defs><clipPath id="1"><path id="" clip-rule="evenodd" transform="matrix(1 0 0 1 0 0)" d="M0 612L0 0L0 0L792 0L792 0L792 612L792 612L0 612z" /></clipPath><clipPath id="2"><path id="" clip-rule="evenodd" transform="matrix(1 0 0 1 0 0)" d="M110.25 52.5L681.75 52.5L681.75 52.5L681.75 69.75L681.75 69.75L110.25 69.75L110.25 69.75L110.25 52.5z" /></clipPath><clipPath id="3"><path id="" clip-rule="evenodd" transform="matrix(1 0 0 1 0 0)" d="M110.25 69L681.75 69L681.75 69L681.75 556.5L681.75 556.5L110.25 556.5L110.25 556.5L110.25 69z" /></clipPath></defs><g transform="matrix(1.333333 0 0 1.333333 0 0)"><g clip-path="url(#1)"><g clip-path="url(#2)"><path id="9" transform="matrix(1 0 0 -1 0 612)" d="M111 558.75L681 558.75L681 541.5L111 541.5L111 558.75z" stroke="none" fill="#63D297" fill-rule="nonzero" /><path id="10" transform="matrix(1 0 0 -1 0 612)" d="M111 542.25L681 542.25L681 541.5L111 541.5zM111 558.75L681 558.75L681 558L111 558zM681 558L681 542.25L680.25 542.25L680.25 558zM605.25 558L605.25 542.25L604.5 542.25L604.5 558zM187.5 558L187.5 542.25L186.75 542.25L186.75 558zM111.75 558L111.75 542.25L111 542.25L111 558z" stroke="none" fill="#000000" fill-rule="nonzero" fill-opacity="0.1490196" /></g><g clip-path="url(#3)"><path id="27" transform="matrix(1 0 0 -1 0 612)" d="M111 542.25L681 542.25L681 515.25L111 515.25L111 542.25z" stroke="none" fill="#FFFFFF" fill-rule="nonzero" /><path id="28" transform="matrix(1 0 0 -1 0 612)" d="M111 516L681 516L681 485.25L111 485.25L111 516z" stroke="none" fill="#E7F9EF" fill-rule="nonzero" /><path id="29" transform="matrix(1 0 0 -1 0 612)" d="M111 486L681 486L681 468.75L111 468.75L111 486z" stroke="none" fill="#FFFFFF" fill-rule="nonzero" /><path id="30" transform="matrix(1 0 0 -1 0 612)" d="M111 469.5L681 469.5L681 452.25L111 452.25L111 469.5z" stroke="none" fill="#E7F9EF" fill-rule="nonzero" /><path id="31" transform="matrix(1 0 0 -1 0 612)" d="M111 453L681 453L681 426L111 426L111 453z" stroke="none" fill="#FFFFFF" fill-rule="nonzero" /><path id="32" transform="matrix(1 0 0 -1 0 612)" d="M111 426.75L681 426.75L681 409.5L111 409.5L111 426.75z" stroke="none" fill="#E7F9EF" fill-rule="nonzero" /><path id="33" transform="matrix(1 0 0 -1 0 612)" d="M111 410.25L681 410.25L681 393L111 393L111 410.25z" stroke="none" fill="#FFFFFF" fill-rule="nonzero" /><path id="34" transform="matrix(1 0 0 -1 0 612)" d="M111 393.75L681 393.75L681 376.5L111 376.5L111 393.75z" stroke="none" fill="#E7F9EF" fill-rule="nonzero" /><path id="35" transform="matrix(1 0 0 -1 0 612)" d="M111 377.25L681 377.25L681 360L111 360L111 377.25z" stroke="none" fill="#FFFFFF" fill-rule="nonzero" /><path id="36" transform="matrix(1 0 0 -1 0 612)" d="M111 360.75L681 360.75L681 333.75L111 333.75L111 360.75z" stroke="none" fill="#E7F9EF" fill-rule="nonzero" /><path id="37" transform="matrix(1 0 0 -1 0 612)" d="M111 334.5L681 334.5L681 317.25L111 317.25L111 334.5z" stroke="none" fill="#FFFFFF" fill-rule="nonzero" /><path id="38" transform="matrix(1 0 0 -1 0 612)" d="M111 318L681 318L681 300.75L111 300.75L111 318z" stroke="none" fill="#E7F9EF" fill-rule="nonzero" /><path id="39" transform="matrix(1 0 0 -1 0 612)" d="M111 301.5L681 301.5L681 284.25L111 284.25L111 301.5z" stroke="none" fill="#FFFFFF" fill-rule="nonzero" /><path id="40" transform="matrix(1 0 0 -1 0 612)" d="M111 285L681 285L681 267.75L111 267.75L111 285z" stroke="none" fill="#E7F9EF" fill-rule="nonzero" /><path id="41" transform="matrix(1 0 0 -1 0 612)" d="M111 268.5L681 268.5L681 237.75L111 237.75L111 268.5z" stroke="none" fill="#FFFFFF" fill-rule="nonzero" /><path id="42" transform="matrix(1 0 0 -1 0 612)" d="M111 238.5L681 238.5L681 221.25L111 221.25L111 238.5z" stroke="none" fill="#E7F9EF" fill-rule="nonzero" /><path id="43" transform="matrix(1 0 0 -1 0 612)" d="M111 222L681 222L681 204.75L111 204.75L111 222z" stroke="none" fill="#FFFFFF" fill-rule="nonzero" /><path id="44" transform="matrix(1 0 0 -1 0 612)" d="M111 205.5L681 205.5L681 174.75L111 174.75L111 205.5z" stroke="none" fill="#E7F9EF" fill-rule="nonzero" /><path id="45" transform="matrix(1 0 0 -1 0 612)" d="M111 175.5L681 175.5L681 158.25L111 158.25L111 175.5z" stroke="none" fill="#FFFFFF" fill-rule="nonzero" /><path id="46" transform="matrix(1 0 0 -1 0 612)" d="M111 159L681 159L681 132L111 132L111 159z" stroke="none" fill="#E7F9EF" fill-rule="nonzero" /><path id="47" transform="matrix(1 0 0 -1 0 612)" d="M111 132.75L681 132.75L681 115.5L111 115.5L111 132.75z" stroke="none" fill="#FFFFFF" fill-rule="nonzero" /><path id="48" transform="matrix(1 0 0 -1 0 612)" d="M111 116.25L681 116.25L681 99L111 99L111 116.25z" stroke="none" fill="#E7F9EF" fill-rule="nonzero" /><path id="49" transform="matrix(1 0 0 -1 0 612)" d="M111 99.75L681 99.75L681 72.75L111 72.75L111 99.75z" stroke="none" fill="#FFFFFF" fill-rule="nonzero" /><path id="50" transform="matrix(1 0 0 -1 0 612)" d="M111 73.5L681 73.5L681 56.25L111 56.25L111 73.5z" stroke="none" fill="#E7F9EF" fill-rule="nonzero" /><path id="51" transform="matrix(1 0 0 -1 0 612)" d="M111 57L681 57L681 56.25L111 56.25zM111 73.5L681 73.5L681 72.75L111 72.75zM111 99.75L681 99.75L681 99L111 99zM111 116.25L681 116.25L681 115.5L111 115.5zM111 132.75L681 132.75L681 132L111 132zM111 159L681 159L681 158.25L111 158.25zM111 175.5L681 175.5L681 174.75L111 174.75zM111 205.5L681 205.5L681 204.75L111 204.75zM111 222L681 222L681 221.25L111 221.25zM111 238.5L681 238.5L681 237.75L111 237.75zM111 268.5L681 268.5L681 267.75L111 267.75zM111 285L681 285L681 284.25L111 284.25zM111 301.5L681 301.5L681 300.75L111 300.75zM111 318L681 318L681 317.25L111 317.25zM111 334.5L681 334.5L681 333.75L111 333.75zM111 360.75L681 360.75L681 360L111 360zM111 377.25L681 377.25L681 376.5L111 376.5zM111 393.75L681 393.75L681 393L111 393zM111 410.25L681 410.25L681 409.5L111 409.5zM111 426.75L681 426.75L681 426L111 426zM111 453L681 453L681 452.25L111 452.25zM111 469.5L681 469.5L681 468.75L111 468.75zM111 486L681 486L681 485.25L111 485.25zM111 516L681 516L681 515.25L111 515.25zM111 542.25L681 542.25L681 541.5L111 541.5zM681 72.75L681 57L680.25 57L680.25 72.75zM681 99L681 73.5L680.25 73.5L680.25 99zM681 115.5L681 99.75L680.25 99.75L680.25 115.5zM681 132L681 116.25L680.25 116.25L680.25 132zM681 158.25L681 132.75L680.25 132.75L680.25 158.25zM681 174.75L681 159L680.25 159L680.25 174.75zM681 204.75L681 175.5L680.25 175.5L680.25 204.75zM681 221.25L681 205.5L680.25 205.5L680.25 221.25zM681 237.75L681 222L680.25 222L680.25 237.75zM681 267.75L681 238.5L680.25 238.5L680.25 267.75zM681 284.25L681 268.5L680.25 268.5L680.25 284.25zM681 300.75L681 285L680.25 285L680.25 300.75zM681 317.25L681 301.5L680.25 301.5L680.25 317.25zM681 333.75L681 318L680.25 318L680.25 333.75zM681 360L681 334.5L680.25 334.5L680.25 360zM681 376.5L681 360.75L680.25 360.75L680.25 376.5zM681 393L681 377.25L680.25 377.25L680.25 393zM681 409.5L681 393.75L680.25 393.75L680.25 409.5zM681 426L681 410.25L680.25 410.25L680.25 426zM681 452.25L681 426.75L680.25 426.75L680.25 452.25zM681 468.75L681 453L680.25 453L680.25 468.75zM681 485.25L681 469.5L680.25 469.5L680.25 485.25zM681 515.25L681 486L680.25 486L680.25 515.25zM681 541.5L681 516L680.25 516L680.25 541.5zM605.25 72.75L605.25 57L604.5 57L604.5 72.75zM605.25 99L605.25 73.5L604.5 73.5L604.5 99zM605.25 115.5L605.25 99.75L604.5 99.75L604.5 115.5zM605.25 132L605.25 116.25L604.5 116.25L604.5 132zM605.25 158.25L605.25 132.75L604.5 132.75L604.5 158.25zM605.25 174.75L605.25 159L604.5 159L604.5 174.75zM605.25 204.75L605.25 175.5L604.5 175.5L604.5 204.75zM605.25 221.25L605.25 205.5L604.5 205.5L604.5 221.25zM605.25 237.75L605.25 222L604.5 222L604.5 237.75zM605.25 267.75L605.25 238.5L604.5 238.5L604.5 267.75zM605.25 284.25L605.25 268.5L604.5 268.5L604.5 284.25zM605.25 300.75L605.25 285L604.5 285L604.5 300.75zM605.25 317.25L605.25 301.5L604.5 301.5L604.5 317.25zM605.25 333.75L605.25 318L604.5 318L604.5 333.75zM605.25 360L605.25 334.5L604.5 334.5L604.5 360zM605.25 376.5L605.25 360.75L604.5 360.75L604.5 376.5zM605.25 393L605.25 377.25L604.5 377.25L604.5 393zM605.25 409.5L605.25 393.75L604.5 393.75L604.5 409.5zM605.25 426L605.25 410.25L604.5 410.25L604.5 426zM605.25 452.25L605.25 426.75L604.5 426.75L604.5 452.25zM605.25 468.75L605.25 453L604.5 453L604.5 468.75zM605.25 485.25L605.25 469.5L604.5 469.5L604.5 485.25zM605.25 515.25L605.25 486L604.5 486L604.5 515.25zM605.25 541.5L605.25 516L604.5 516L604.5 541.5zM187.5 72.75L187.5 57L186.75 57L186.75 72.75zM187.5 99L187.5 73.5L186.75 73.5L186.75 99zM187.5 115.5L187.5 99.75L186.75 99.75L186.75 115.5zM187.5 132L187.5 116.25L186.75 116.25L186.75 132zM187.5 158.25L187.5 132.75L186.75 132.75L186.75 158.25zM187.5 174.75L187.5 159L186.75 159L186.75 174.75zM187.5 204.75L187.5 175.5L186.75 175.5L186.75 204.75zM187.5 221.25L187.5 205.5L186.75 205.5L186.75 221.25zM187.5 237.75L187.5 222L186.75 222L186.75 237.75zM187.5 267.75L187.5 238.5L186.75 238.5L186.75 267.75zM187.5 284.25L187.5 268.5L186.75 268.5L186.75 284.25zM187.5 300.75L187.5 285L186.75 285L186.75 300.75zM187.5 317.25L187.5 301.5L186.75 301.5L186.75 317.25zM187.5 333.75L187.5 318L186.75 318L186.75 333.75zM187.5 360L187.5 334.5L186.75 334.5L186.75 360zM187.5 376.5L187.5 360.75L186.75 360.75L186.75 376.5zM187.5 393L187.5 377.25L186.75 377.25L186.75 393zM187.5 409.5L187.5 393.75L186.75 393.75L186.75 409.5zM187.5 426L187.5 410.25L186.75 410.25L186.75 426zM187.5 452.25L187.5 426.75L186.75 426.75L186.75 452.25zM187.5 468.75L187.5 453L186.75 453L186.75 468.75zM187.5 485.25L187.5 469.5L186.75 469.5L186.75 485.25zM187.5 515.25L187.5 486L186.75 486L186.75 515.25zM187.5 541.5L187.5 516L186.75 516L186.75 541.5zM111.75 72.75L111.75 57L111 57L111 72.75zM111.75 99L111.75 73.5L111 73.5L111 99zM111.75 115.5L111.75 99.75L111 99.75L111 115.5zM111.75 132L111.75 116.25L111 116.25L111 132zM111.75 158.25L111.75 132.75L111 132.75L111 158.25zM111.75 174.75L111.75 159L111 159L111 174.75zM111.75 204.75L111.75 175.5L111 175.5L111 204.75zM111.75 221.25L111.75 205.5L111 205.5L111 221.25zM111.75 237.75L111.75 222L111 222L111 237.75zM111.75 267.75L111.75 238.5L111 238.5L111 267.75zM111.75 284.25L111.75 268.5L111 268.5L111 284.25zM111.75 300.75L111.75 285L111 285L111 300.75zM111.75 317.25L111.75 301.5L111 301.5L111 317.25zM111.75 333.75L111.75 318L111 318L111 333.75zM111.75 360L111.75 334.5L111 334.5L111 360zM111.75 376.5L111.75 360.75L111 360.75L111 376.5zM111.75 393L111.75 377.25L111 377.25L111 393zM111.75 409.5L111.75 393.75L111 393.75L111 409.5zM111.75 426L111.75 410.25L111 410.25L111 426zM111.75 452.25L111.75 426.75L111 426.75L111 452.25zM111.75 468.75L111.75 453L111 453L111 468.75zM111.75 485.25L111.75 469.5L111 469.5L111 485.25zM111.75 515.25L111.75 486L111 486L111 515.25zM111.75 541.5L111.75 516L111 516L111 541.5z" stroke="none" fill="#000000" fill-rule="nonzero" fill-opacity="0.1490196" /><path id="147" transform="matrix(1 0 0 -1 0 612)" d="M189.75 529.7446L600.4069 529.7446" stroke="#1155CC" stroke-width="0.7141113" fill="none" /><path id="185" transform="matrix(1 0 0 -1 0 612)" d="M189.75 518.5332L370.7677 518.5332" stroke="#1155CC" stroke-width="0.7141113" fill="none" /><path id="291" transform="matrix(1 0 0 -1 0 612)" d="M189.75 488.5332L586.972 488.5332" stroke="#1155CC" stroke-width="0.7141113" fill="none" /><path id="327" transform="matrix(1 0 0 -1 0 612)" d="M189.75 472.0332L293.7913 472.0332" stroke="#1155CC" stroke-width="0.7141113" fill="none" /><path id="399" transform="matrix(1 0 0 -1 0 612)" d="M189.75 455.5332L467.4822 455.5332" stroke="#1155CC" stroke-width="0.7141113" fill="none" /><path id="486" transform="matrix(1 0 0 -1 0 612)" d="M189.75 440.4946L584.4536 440.4946" stroke="#1155CC" stroke-width="0.7141113" fill="none" /><path id="534" transform="matrix(1 0 0 -1 0 612)" d="M189.75 429.2832L432.3479 429.2832" stroke="#1155CC" stroke-width="0.7141113" fill="none" /><path id="596" transform="matrix(1 0 0 -1 0 612)" d="M189.75 412.7832L426.5541 412.7832" stroke="#1155CC" stroke-width="0.7141113" fill="none" /><path id="674" transform="matrix(1 0 0 -1 0 612)" d="M189.75 396.2832L522.2021 396.2832" stroke="#1155CC" stroke-width="0.7141113" fill="none" /><path id="757" transform="matrix(1 0 0 -1 0 612)" d="M189.75 379.7832L508.9768 379.7832" stroke="#1155CC" stroke-width="0.7141113" fill="none" /><path id="794" transform="matrix(1 0 0 -1 0 612)" d="M189.75 363.2832L323.9553 363.2832" stroke="#1155CC" stroke-width="0.7141113" fill="none" /><path id="886" transform="matrix(1 0 0 -1 0 612)" d="M189.75 348.2446L582.1066 348.2446" stroke="#1155CC" stroke-width="0.7141113" fill="none" /><path id="918" transform="matrix(1 0 0 -1 0 612)" d="M189.75 337.0332L340.9559 337.0332" stroke="#1155CC" stroke-width="0.7141113" fill="none" /><path id="978" transform="matrix(1 0 0 -1 0 612)" d="M189.75 320.5332L441.7694 320.5332" stroke="#1155CC" stroke-width="0.7141113" fill="none" /><path id="1048" transform="matrix(1 0 0 -1 0 612)" d="M189.75 304.0332L456.0707 304.0332" stroke="#1155CC" stroke-width="0.7141113" fill="none" /><path id="1112" transform="matrix(1 0 0 -1 0 612)" d="M189.75 287.5332L434.7045 287.5332" stroke="#1155CC" stroke-width="0.7141113" fill="none" /><path id="1173" transform="matrix(1 0 0 -1 0 612)" d="M189.75 271.0332L418.4037 271.0332" stroke="#1155CC" stroke-width="0.7141113" fill="none" /><path id="1256" transform="matrix(1 0 0 -1 0 612)" d="M189.75 241.0332L523.6208 241.0332" stroke="#1155CC" stroke-width="0.7141113" fill="none" /><path id="1351" transform="matrix(1 0 0 -1 0 612)" d="M189.75 224.5332L583.1825 224.5332" stroke="#1155CC" stroke-width="0.7141113" fill="none" /><path id="1401" transform="matrix(1 0 0 -1 0 612)" d="M189.75 208.0332L383.5884 208.0332" stroke="#1155CC" stroke-width="0.7141113" fill="none" /><path id="1504" transform="matrix(1 0 0 -1 0 612)" d="M189.75 178.0332L581.5829 178.0332" stroke="#1155CC" stroke-width="0.7141113" fill="none" /><path id="1565" transform="matrix(1 0 0 -1 0 612)" d="M189.75 161.5332L437.9703 161.5332" stroke="#1155CC" stroke-width="0.7141113" fill="none" /><path id="1658" transform="matrix(1 0 0 -1 0 612)" d="M189.75 146.4946L577.6219 146.4946" stroke="#1155CC" stroke-width="0.7141113" fill="none" /><path id="1669" transform="matrix(1 0 0 -1 0 612)" d="M189.75 135.2832L235.2913 135.2832" stroke="#1155CC" stroke-width="0.7141113" fill="none" /><path id="1720" transform="matrix(1 0 0 -1 0 612)" d="M189.75 118.7832L401.4507 118.7832" stroke="#1155CC" stroke-width="0.7141113" fill="none" /><path id="1798" transform="matrix(1 0 0 -1 0 612)" d="M189.75 102.2832L530.7382 102.2832" stroke="#1155CC" stroke-width="0.7141113" fill="none" /><path id="1893" transform="matrix(1 0 0 -1 0 612)" d="M189.75 87.24463L592.9468 87.24463" stroke="#1155CC" stroke-width="0.7141113" fill="none" /><path id="1931" transform="matrix(1 0 0 -1 0 612)" d="M189.75 76.0332L352.8721 76.0332" stroke="#1155CC" stroke-width="0.7141113" fill="none" /><path id="1984" transform="matrix(1 0 0 -1 0 612)" d="M189.75 59.5332L361.5223 59.5332" stroke="#1155CC" stroke-width="0.7141113" fill="none" /></g></g></g></svg>